<?xml version="1.0" standalone="no"?>
<!DOCTYPE svg PUBLIC "-//W3C//DTD SVG 1.1//EN" "http://www.w3.org/Graphics/SVG/1.1/DTD/svg11.dtd" >
<svg xmlns="http://www.w3.org/2000/svg" xmlns:xlink="http://www.w3.org/1999/xlink" version="1.1">
<metadata>
Created by FontForge 20170731 at Wed Dec  2 22:49:41 2015
 By Aleksey,,,
(C) 2015 Frere-Jones Type LLC
</metadata>
<defs>
<font id="Mallory-MediumItalic" horiz-adv-x="0" >
  <font-face 
    font-family="Mallory Medium"
    font-weight="500"
    font-style="italic"
    font-stretch="normal"
    units-per-em="1000"
    panose-1="2 1 6 1 3 5 1 9 3 4"
    ascent="800"
    descent="-200"
    x-height="506"
    cap-height="700"
    bbox="-299 -263 1408 1084"
    underline-thickness="50"
    underline-position="-225"
    slope="-14"
    unicode-range="U+000D-FB02"
  />
<missing-glyph horiz-adv-x="700" 
d="M600 800v-1000h-500v1000h500zM350 369l157 381h-315zM150 714v-828l171 414zM550 -114v828l-172 -414zM192 -150h315l-157 381z" />
    <glyph glyph-name="fi" unicode="fi" horiz-adv-x="694" 
d="M301 506h162l-24 -97h-161l-101 -409h-118l102 409h-87l25 97h86l18 73q21 87 77 133t139 46q44 0 80 -14l19 -108l-3 -1q-43 21 -89 21q-88 0 -113 -101zM661 755q32 0 53.5 -21t21.5 -52t-22.5 -53t-54.5 -22t-53.5 21t-21.5 52q0 32 22 53.5t55 21.5zM678 506
l-126 -506h-119l126 506h119z" />
    <glyph glyph-name="fl" unicode="fl" horiz-adv-x="694" 
d="M301 506h162l-24 -97h-161l-101 -409h-118l102 409h-87l25 97h86l18 73q21 87 77 133t139 46q44 0 80 -14l19 -108l-3 -1q-43 21 -89 21q-88 0 -113 -101zM741 759l-189 -759h-119l180 721z" />
    <glyph glyph-name="f_f" unicode="ff" horiz-adv-x="833" 
d="M301 506h162l-24 -97h-161l-101 -409h-118l102 409h-87l25 97h86l18 73q21 87 77 133t139 46q44 0 80 -14l19 -108l-3 -1q-43 21 -89 21q-88 0 -113 -101zM718 506h162l-24 -97h-161l-101 -409h-118l102 409h-87l25 97h86l18 73q21 87 77 133t139 46q44 0 80 -14l19 -108
l-3 -1q-43 21 -89 21q-88 0 -113 -101z" />
    <glyph glyph-name="f_f_i" unicode="ffi" horiz-adv-x="1111" 
d="M301 506h162l-24 -97h-161l-101 -409h-118l102 409h-87l25 97h86l18 73q21 87 77 133t139 46q44 0 80 -14l19 -108l-3 -1q-43 21 -89 21q-88 0 -113 -101zM718 506h162l-24 -97h-161l-101 -409h-118l102 409h-87l25 97h86l18 73q21 87 77 133t139 46q44 0 80 -14l19 -108
l-3 -1q-43 21 -89 21q-88 0 -113 -101zM1077 755q32 0 53.5 -21t21.5 -52t-22.5 -53t-54.5 -22t-53.5 21t-21.5 52q0 32 22 53.5t55 21.5zM1094 506l-126 -506h-119l126 506h119z" />
    <glyph glyph-name="f_f_l" unicode="ffl" horiz-adv-x="1111" 
d="M301 506h162l-24 -97h-161l-101 -409h-118l102 409h-87l25 97h86l18 73q21 87 77 133t139 46q44 0 80 -14l19 -108l-3 -1q-43 21 -89 21q-88 0 -113 -101zM718 506h162l-24 -97h-161l-101 -409h-118l102 409h-87l25 97h86l18 73q21 87 77 133t139 46q44 0 80 -14l19 -108
l-3 -1q-43 21 -89 21q-88 0 -113 -101zM1157 759l-189 -759h-119l180 721z" />
    <glyph glyph-name=".notdef" horiz-adv-x="700" 
d="M600 800v-1000h-500v1000h500zM350 369l157 381h-315zM150 714v-828l171 414zM550 -114v828l-172 -414zM192 -150h315l-157 381z" />
    <glyph glyph-name=".null" 
 />
    <glyph glyph-name="nonmarkingreturn" horiz-adv-x="333" 
 />
    <glyph glyph-name="null" 
 />
    <glyph glyph-name="null" 
 />
    <glyph glyph-name="CR" unicode="&#xd;" horiz-adv-x="217" 
 />
    <glyph glyph-name="space" unicode=" " horiz-adv-x="217" 
 />
    <glyph glyph-name="exclam" unicode="!" horiz-adv-x="271" 
d="M180 700h134l-23 -93l-134 -370h-52l52 371zM110 11q-25 -8 -49 4t-32 37q-7 25 5.5 47.5t38.5 30.5q25 8 49 -4t32 -37q7 -25 -5.5 -47.5t-38.5 -30.5z" />
    <glyph glyph-name="quotedbl" unicode="&#x22;" horiz-adv-x="478" 
d="M336 403l-46 18l142 279h144zM127 403l-46 18l143 279h143z" />
    <glyph glyph-name="numbersign" unicode="#" horiz-adv-x="679" 
d="M294 431l-43 -162h191l43 162h-191zM493 162l-42 -164h-79l43 164h-191l-43 -164h-79l43 164h-114l28 107h113l43 162h-117l28 107h116l43 164h79l-43 -164h191l43 164h78l-42 -164h105l-27 -107h-106l-42 -162h108l-27 -107h-109z" />
    <glyph glyph-name="dollar" unicode="$" horiz-adv-x="590" 
d="M239 510q0 -29 16.5 -49t53.5 -38l43 173q-51 -3 -82 -26.5t-31 -59.5zM415 196q0 52 -64 85l-43 -177q50 5 78.5 29.5t28.5 62.5zM283 -2l-38 -152h-81l39 159q-96 20 -163 68l-17 138l2 1q96 -87 206 -105l50 203q-160 66 -160 190q0 91 70 146q70 56 181 56h5l29 118
h81l-31 -127q76 -13 146 -58l-6 -116l-2 -1q-81 58 -166 74l-49 -198q154 -66 154 -188q0 -94 -68 -151q-69 -57 -182 -57z" />
    <glyph glyph-name="percent" unicode="%" horiz-adv-x="957" 
d="M458 547q0 -102 -58 -169q-58 -69 -144 -69q-69 0 -110.5 45.5t-41.5 121.5q0 100 59 170q59 68 143 68q68 0 110 -45.5t42 -121.5zM532 330l-283 -332h-100l326 372l283 332h100zM365 544q0 43 -17 66t-48 23q-40 0 -72 -45q-31 -44 -31 -109q0 -42 17 -65t48 -23
q40 0 72 45q31 44 31 108zM903 224q0 -103 -58 -170q-59 -68 -143 -68q-69 0 -110.5 45.5t-41.5 121.5q0 103 58 170q59 68 143 68q69 0 110.5 -45.5t41.5 -121.5zM810 221q0 43 -17 66t-47 23q-42 0 -73 -45q-31 -44 -31 -108q0 -43 17 -66t48 -23q41 0 72 45q31 44 31 108
z" />
    <glyph glyph-name="ampersand" unicode="&#x26;" horiz-adv-x="717" 
d="M416 623q-42 0 -69.5 -32t-27.5 -81q0 -43 20 -94q76 30 111 62t35 73q0 33 -18.5 52.5t-50.5 19.5zM141 175q0 -38 24 -61t64 -23q66 0 146 56q-61 79 -104 157q-67 -25 -98.5 -56t-31.5 -73zM634 3l-1 -3h-135q-25 26 -65 74q-111 -82 -222 -82q-83 0 -134.5 48
t-51.5 126q0 150 208 220q-25 69 -25 118q0 95 58 153q58 57 152 57q76 0 125 -43q48 -43 48 -112q0 -137 -216 -216q39 -65 83 -126q53 53 133 150h122v-3q-115 -143 -198 -220q83 -101 119 -141z" />
    <glyph glyph-name="quotesingle" unicode="'" horiz-adv-x="270" 
d="M128 403l-47 18l143 279h145z" />
    <glyph glyph-name="parenleft" unicode="(" horiz-adv-x="424" 
d="M491 752l27 -38q-168 -116 -245.5 -234.5t-77.5 -259.5q0 -85 27.5 -164t89.5 -169l-36 -29q-196 178 -196 369q0 164 101.5 293t309.5 232z" />
    <glyph glyph-name="parenright" unicode=")" horiz-adv-x="424" 
d="M-42 -142l-26 38q168 116 245.5 234.5t77.5 259.5q0 84 -27.5 162.5t-89.5 170.5l35 29q197 -178 197 -369q0 -323 -412 -525z" />
    <glyph glyph-name="asterisk" unicode="*" horiz-adv-x="536" 
d="M347 532l-19 4l-11 178l124 -31zM114 551l68 109l115 -136l-11 -17zM371 485l-2 21l166 66l9 -129zM289 474l12 -16l-94 -150l-83 97zM347 273l-13 177l18 9l114 -139z" />
    <glyph glyph-name="plus" unicode="+" horiz-adv-x="600" 
d="M390 401h200l-25 -102h-201l-51 -205h-106l51 205h-200l25 102h201l51 203h106z" />
    <glyph glyph-name="comma" unicode="," horiz-adv-x="224" 
d="M70 -50q-24 -30 -57 -57q-40 -29 -100 -65l-26 32q57 49 87 100q29 51 50 134l9 39h118q-30 -119 -81 -183z" />
    <glyph glyph-name="hyphen" unicode="-" horiz-adv-x="396" 
d="M328 222h-275l27 109h275z" />
    <glyph glyph-name="period" unicode="." horiz-adv-x="224" 
d="M65 -9q-33 0 -56 23t-23 56q0 34 24 58t58 24q33 0 56 -23t23 -56q0 -34 -24 -58t-58 -24z" />
    <glyph glyph-name="slash" unicode="/" horiz-adv-x="468" 
d="M565 740l-567 -870h-103l566 870h104z" />
    <glyph glyph-name="zero" unicode="0" horiz-adv-x="684" 
d="M572 139q-49 -73 -116.5 -113t-142.5 -40q-110 0 -174 74.5t-64 203.5q0 170 85 298q51 73 118.5 112.5t141.5 39.5q108 0 173 -75q64 -74 64 -203q0 -172 -85 -297zM198 263q0 -81 32 -124t91 -43q46 0 89.5 34t74.5 95q49 93 49 212q0 81 -32 124t-91 43
q-46 0 -89.5 -34t-74.5 -95q-49 -93 -49 -212z" />
    <glyph glyph-name="one" unicode="1" horiz-adv-x="444" 
d="M436 714l18 -5l-176 -709h-122l128 516l-200 -106l-2 1l34 135z" />
    <glyph glyph-name="two" unicode="2" horiz-adv-x="582" 
d="M213 107l300 1l-77 -108h-439v40l317 303q66 65 95 107q24 38 24 75q0 35 -22 54t-62 19q-101 0 -231 -130l-2 1l21 149q109 92 227 92q86 0 138.5 -46.5t52.5 -123.5q0 -60 -36 -119q-38 -61 -128 -145z" />
    <glyph glyph-name="three" unicode="3" horiz-adv-x="553" 
d="M489 198q0 -92 -72 -150q-74 -59 -186 -59q-114 0 -200 53l-5 129l2 1q93 -76 195 -76q63 0 102.5 29.5t39.5 78.5q0 48 -44 77t-146 50l7 44q129 36 189.5 74.5t60.5 85.5q0 32 -25 50.5t-69 18.5q-99 0 -211 -76l-3 1l32 127q98 54 197 54q93 0 147.5 -42.5
t54.5 -116.5q0 -131 -182 -196q56 -21 86 -61.5t30 -95.5z" />
    <glyph glyph-name="four" unicode="4" horiz-adv-x="633" 
d="M449 549l-266 -300h192zM489 249h111l-25 -96h-110l-38 -153h-115l38 153h-345l-4 29l472 523h129z" />
    <glyph glyph-name="five" unicode="5" horiz-adv-x="582" 
d="M520 241q0 -112 -82 -182q-83 -71 -210 -71q-106 0 -191 51l-5 121l2 1q97 -68 195 -68q69 0 119 41q48 40 48 101q0 49 -34.5 76t-95.5 27q-67 0 -154 -22l-12 8l119 376h395l-28 -108h-296l-50 -160q35 7 67 7q96 1 155 -53q58 -55 58 -145z" />
    <glyph glyph-name="six" unicode="6" horiz-adv-x="611" 
d="M559 242q0 -103 -77 -180q-77 -76 -189 -76q-109 0 -176 62q-66 61 -66 164q0 76 44 153q45 79 153 193l135 142h160l-195 -195q-3 -3 -10.5 -11t-14.5 -15q-9 -9 -16.5 -17t-8.5 -9q32 2 37 2q97 0 161 -59q63 -60 63 -154zM172 215q0 -57 35 -91t92 -34t98 44t41 101
q0 61 -40 93.5t-116 32.5q-1 0 -58 -3q-52 -74 -52 -143z" />
    <glyph glyph-name="seven" unicode="7" horiz-adv-x="588" 
d="M667 700l5 -17l-464 -683h-137l409 592h-358l60 108h485z" />
    <glyph glyph-name="eight" unicode="8" horiz-adv-x="622" 
d="M553 197q0 -92 -74 -151q-74 -58 -196 -58q-110 1 -175 52.5t-65 136.5q0 67 43 118t119 75q-67 50 -67 132q0 91 72 151q71 59 180 59q97 0 156 -52q60 -52 60 -133q0 -60 -36 -108t-100 -74q83 -53 83 -148zM381 614q-53 0 -88.5 -32.5t-35.5 -80.5q0 -44 29.5 -71.5
t76.5 -27.5q53 0 89 33t36 82q0 44 -29.5 70.5t-77.5 26.5zM308 308q-62 0 -103 -34q-42 -34 -42 -84q0 -46 35 -74.5t93 -28.5q62 0 101.5 33.5t39.5 85.5q0 47 -33 74.5t-91 27.5z" />
    <glyph glyph-name="nine" unicode="9" horiz-adv-x="611" 
d="M410 142l-135 -142h-160l196 195q2 2 8.5 9t13.5 14q11 12 19 20q-7 -1 -29 -1q-99 0 -160 61q-63 60 -63 156q0 106 78 183q76 76 188 76q110 0 177 -62q65 -62 65 -165q0 -75 -43 -151q-44 -78 -155 -193zM220 461q0 -63 40.5 -96.5t116.5 -33.5q1 0 52 3q58 79 58 150
q0 57 -34.5 91t-91.5 34t-99 -43q-42 -44 -42 -105z" />
    <glyph glyph-name="colon" unicode=":" horiz-adv-x="250" 
d="M168 354q-33 0 -56 23t-23 56q0 34 23.5 58t57.5 24q33 0 56 -23t23 -56q0 -34 -23.5 -58t-57.5 -24zM80 -9q-33 0 -56 23t-23 56q0 34 24 58t58 24q33 0 56 -23t23 -56q0 -34 -24 -58t-58 -24z" />
    <glyph glyph-name="semicolon" unicode=";" horiz-adv-x="250" 
d="M171 354q-33 0 -56 23t-23 56q0 34 23.5 58t57.5 24q33 0 56 -23t23 -56q0 -34 -23.5 -58t-57.5 -24zM79 -50q-45 -57 -158 -122l-26 32q57 49 87 100q29 51 50 134l10 39h118q-30 -119 -81 -183z" />
    <glyph glyph-name="less" unicode="&#x3c;" horiz-adv-x="600" 
d="M236 342l290 -148l-26 -103l-431 235l11 48l550 235l-30 -117z" />
    <glyph glyph-name="equal" unicode="=" horiz-adv-x="600" 
d="M117 499h489l-24 -96h-489zM66 297h489l-24 -96h-488z" />
    <glyph glyph-name="greater" unicode="&#x3e;" horiz-adv-x="600" 
d="M579 374l-11 -47l-549 -236l29 117l364 150l-290 149l26 102z" />
    <glyph glyph-name="question" unicode="?" horiz-adv-x="488" 
d="M109 509l-2 1l33 134q84 66 199 66q79 0 128 -40.5t49 -106.5q0 -61 -36.5 -103.5t-122.5 -80.5q-64 -30 -89 -50t-25 -45q0 -16 13 -47h-61q-38 47 -38 85q0 40 33.5 73t109.5 66q57 26 79.5 46t22.5 45q0 24 -20.5 38.5t-53.5 14.5q-99 0 -219 -96zM188 11
q-25 -8 -49 4t-32 37q-7 25 5.5 47.5t38.5 30.5q25 8 49 -4t32 -37q7 -25 -5.5 -47.5t-38.5 -30.5z" />
    <glyph glyph-name="at" unicode="@" horiz-adv-x="1014" 
d="M475 -185q-199 0 -312 103q-114 104 -114 284q0 104 42 203.5t118 177.5q78 78 175.5 120t204.5 42q177 0 287 -102q109 -103 109 -268q0 -139 -71 -230q-72 -90 -185 -90q-53 0 -89.5 22.5t-45.5 59.5q-96 -82 -179 -82q-63 0 -101 42t-38 113q0 123 92 212
q90 88 214 88q58 0 114 -30l42 21h33l-74 -303q-5 -26 -5 -38q0 -28 19 -44t52 -16q77 0 133 80q54 80 54 193q0 155 -98 248q-100 92 -265 92q-98 0 -189 -40t-164 -113q-71 -73 -110 -166t-39 -190q0 -169 103 -263t289 -94q157 0 292 53v-35q-139 -50 -294 -50zM378 226
q0 -80 82 -80q56 0 136 56l52 205q-35 13 -69 13q-84 0 -142 -58q-59 -59 -59 -136z" />
    <glyph glyph-name="A" unicode="A" horiz-adv-x="795" 
d="M483 567l-201 -297h253zM574 703l133 -703h-127l-28 163h-340l-109 -163h-141l483 703h129z" />
    <glyph glyph-name="B" unicode="B" horiz-adv-x="627" 
d="M498 515q0 38 -28.5 60t-77.5 22h-96l-47 -192h94q69 0 112 30.5t43 79.5zM440 219q0 42 -29.5 65t-82.5 23h-104l-50 -204h104q73 0 117.5 32t44.5 84zM268 0h-240l174 700h207q97 0 154.5 -45.5t57.5 -121.5q0 -59 -38 -107t-105 -74q87 -45 87 -140q0 -94 -81 -153
q-83 -59 -216 -59z" />
    <glyph glyph-name="C" unicode="C" horiz-adv-x="707" 
d="M381 -12q-138 0 -223 85q-85 84 -85 222q0 172 117 295q122 122 292 122q147 0 246 -105l-28 -138l-2 -1q-95 127 -220 127q-110 0 -193 -86q-83 -88 -83 -204q0 -89 57 -144q56 -56 144 -56q122 0 251 110l4 -2l-66 -166q-89 -59 -211 -59z" />
    <glyph glyph-name="D" unicode="D" horiz-adv-x="778" 
d="M626 393q0 93 -63.5 143.5t-181.5 50.5h-81l-118 -474h99q147 0 247 80q98 80 98 200zM278 0h-250l174 700h196q169 0 263 -77.5t94 -217.5q0 -178 -134 -291q-133 -114 -343 -114z" />
    <glyph glyph-name="E" unicode="E" horiz-adv-x="587" 
d="M509 111l-59 -111h-422l174 700h432l-28 -111h-307l-45 -181h255l-27 -106h-254l-47 -191h328z" />
    <glyph glyph-name="F" unicode="F" horiz-adv-x="552" 
d="M251 392h239l-28 -109h-238l-70 -283h-126l174 700h392l18 -112h-312z" />
    <glyph glyph-name="G" unicode="G" horiz-adv-x="786" 
d="M425 373h307l-82 -318q-119 -65 -259 -65q-144 0 -232 83q-87 83 -87 219q0 185 131 304q126 114 313 114q148 0 263 -69l-32 -119q-110 71 -237 71q-130 0 -219 -84q-90 -84 -90 -208q0 -91 56 -144t152 -53q77 0 140 27l36 139h-186z" />
    <glyph glyph-name="H" unicode="H" horiz-adv-x="804" 
d="M824 700l-174 -700h-126l74 298h-370l-74 -298h-126l174 700h126l-71 -286h370l71 286h126z" />
    <glyph glyph-name="I" unicode="I" horiz-adv-x="317" 
d="M333 700l-174 -700h-126l174 700h126z" />
    <glyph glyph-name="J" unicode="J" horiz-adv-x="471" 
d="M137 106q86 0 110 95l123 499h127l-133 -531q-23 -91 -76 -135t-141 -44q-77 0 -127 41l-13 138l3 1q58 -64 127 -64z" />
    <glyph glyph-name="K" unicode="K" horiz-adv-x="705" 
d="M628 3v-3h-153l-224 305h-21l-76 -305h-126l174 700h126l-72 -291h21l351 291h167v-3l-431 -350z" />
    <glyph glyph-name="L" unicode="L" horiz-adv-x="542" 
d="M471 113l-29 -113h-414l174 700h126l-146 -587h289z" />
    <glyph glyph-name="M" unicode="M" horiz-adv-x="1030" 
d="M878 556l-422 -567h-15l-136 571l-180 -560h-123l227 700h169l104 -473l342 473h180l-121 -700h-123z" />
    <glyph glyph-name="N" unicode="N" horiz-adv-x="816" 
d="M715 700h121l-174 -704h-62l-320 534l-130 -530h-122l174 700h119l279 -465z" />
    <glyph glyph-name="O" unicode="O" horiz-adv-x="830" 
d="M686 108q-122 -122 -294 -122q-142 0 -230 87q-89 86 -89 224q0 175 120 295q119 122 294 122q140 0 229 -86q89 -87 89 -225q0 -174 -119 -295zM203 305q0 -91 56 -147t144 -56q109 0 192 86q81 86 81 207q0 92 -56 148q-55 55 -145 55q-110 0 -191 -86t-81 -207z" />
    <glyph glyph-name="P" unicode="P" horiz-adv-x="607" 
d="M501 490q0 49 -32.5 75.5t-93.5 26.5h-75l-62 -248h96q72 0 119 43q48 42 48 103zM627 502q0 -118 -86 -192q-86 -73 -228 -73h-100l-59 -237h-126l174 700h193q106 0 169 -53.5t63 -144.5z" />
    <glyph glyph-name="Q" unicode="Q" horiz-adv-x="830" 
d="M574 -148q-74 0 -118 29q-45 28 -101 109q-127 10 -204 96q-78 84 -78 211q0 175 120 295q119 122 294 122q140 0 229 -86q89 -87 89 -224q0 -138 -80 -247q-79 -107 -210 -148q27 -30 48 -41t52 -11q50 0 91 17l2 -2l-56 -109q-38 -11 -78 -11zM203 305q0 -91 56 -147
t144 -56q109 0 192 86q81 86 81 207q0 92 -56 148q-55 55 -145 55q-110 0 -191 -86t-81 -207z" />
    <glyph glyph-name="R" unicode="R" horiz-adv-x="648" 
d="M494 501q0 44 -29 68t-82 24h-84l-55 -223h94q68 0 112 37q44 38 44 94zM410 280l190 -280h-143l-179 268h-58l-66 -268h-126l174 700h196q104 0 163.5 -50t59.5 -137q0 -86 -57 -148.5t-154 -84.5z" />
    <glyph glyph-name="S" unicode="S" horiz-adv-x="557" 
d="M273 305q-82 50 -114.5 94.5t-32.5 104.5q0 91 68 150q67 58 174 58q104 0 192 -52l-6 -130l-2 -1q-91 71 -188 71q-51 0 -83 -23t-32 -59q0 -30 21.5 -54.5t81.5 -60.5q81 -49 114 -94t33 -107q0 -97 -67 -155q-68 -59 -177 -59q-60 0 -117 20.5t-97 56.5l-20 155l2 1
q119 -121 233 -121q54 0 87 24.5t33 63.5q0 31 -21.5 56t-81.5 61z" />
    <glyph glyph-name="T" unicode="T" horiz-adv-x="708" 
d="M145 700h641l-29 -113h-255l-146 -587h-126l146 587h-259z" />
    <glyph glyph-name="U" unicode="U" horiz-adv-x="782" 
d="M91 239q0 47 14 103l89 358h126l-92 -371q-11 -46 -11 -76q0 -71 41 -111t113 -40q78 0 135.5 51t80.5 141l101 406h123l-106 -425q-71 -287 -348 -287q-121 0 -194 68q-72 68 -72 183z" />
    <glyph glyph-name="V" unicode="V" horiz-adv-x="774" 
d="M861 700l-514 -714h-59l-152 714h133l94 -503l353 503h145z" />
    <glyph glyph-name="W" unicode="W" horiz-adv-x="1160" 
d="M623 444l-296 -448h-123l-60 704h131l34 -535l360 544h17l111 -544l302 535h142l-412 -704h-117z" />
    <glyph glyph-name="X" unicode="X" horiz-adv-x="742" 
d="M472 348l178 -348h-139l-133 266l-254 -266h-158v2l354 361l-172 337h140l127 -255l245 255h158v-2z" />
    <glyph glyph-name="Y" unicode="Y" horiz-adv-x="675" 
d="M777 698l-368 -404l-74 -294h-126l76 307l-166 393h133l117 -289l256 289h152v-2z" />
    <glyph glyph-name="Z" unicode="Z" horiz-adv-x="697" 
d="M222 112h412l-71 -112h-576l-7 16l535 572h-379l29 112h585l7 -16z" />
    <glyph glyph-name="bracketleft" unicode="[" horiz-adv-x="416" 
d="M309 667l-179 -724h181l-33 -73h-275l216 870h271v-73h-181z" />
    <glyph glyph-name="backslash" unicode="\" horiz-adv-x="468" 
d="M152 740h89l136 -870h-89z" />
    <glyph glyph-name="bracketright" unicode="]" horiz-adv-x="416" 
d="M164 740h276l-216 -870h-271l-1 73h181l179 724h-181z" />
    <glyph glyph-name="asciicircum" unicode="^" horiz-adv-x="600" 
d="M435 723l141 -388h-105l-85 243l-205 -243h-123l334 388h43z" />
    <glyph glyph-name="underscore" unicode="_" horiz-adv-x="612" 
d="M514 -151h-617l19 76h617z" />
    <glyph glyph-name="grave" unicode="`" horiz-adv-x="500" 
d="M180 778h141l41 -176h-52z" />
    <glyph glyph-name="a" unicode="a" horiz-adv-x="558" 
d="M496 242l-62 -232l-121 -20l22 81q-100 -79 -187 -79q-61 0 -98.5 35t-37.5 94q0 83 73.5 128.5t208.5 45.5q54 0 96 -6q2 32 2 33q0 42 -27 66t-76 24q-84 0 -183 -56l-2 2l51 123q75 34 160 34q90 0 142.5 -48.5t52.5 -130.5q0 -47 -14 -94zM126 138q0 -26 17 -40.5
t47 -14.5q69 0 162 58l22 84q-44 4 -68 4q-84 0 -132 -24.5t-48 -66.5z" />
    <glyph glyph-name="b" unicode="b" horiz-adv-x="614" 
d="M486 85q-95 -93 -231 -93q-71 0 -138 27l-95 -21l-10 2l179 721l128 38l-80 -321q81 77 167 77q76 0 124 -54q48 -55 48 -143q0 -141 -92 -233zM259 93q82 0 142 62q59 62 59 149q0 51 -26.5 80t-73.5 29q-65 0 -141 -56l-61 -245q45 -19 101 -19z" />
    <glyph glyph-name="c" unicode="c" horiz-adv-x="525" 
d="M463 167l3 -2l-56 -140q-66 -37 -150 -37q-99 0 -161 59q-61 58 -61 157q0 133 89 224q89 89 217 89q94 0 169 -58l-24 -121l-3 -1q-62 73 -148 73q-73 0 -127 -57q-54 -59 -54 -137q0 -57 33.5 -88.5t94.5 -31.5q94 0 178 71z" />
    <glyph glyph-name="d" unicode="d" horiz-adv-x="619" 
d="M154 202q0 -51 27 -80t75 -29q68 0 143 57l58 229q-46 33 -109 33q-79 0 -136 -61q-58 -61 -58 -149zM670 759l-189 -759h-117l18 71q-85 -81 -171 -81q-77 0 -126 55t-49 143q0 142 95 237q91 88 211 88q79 0 139 -36l61 244z" />
    <glyph glyph-name="e" unicode="e" horiz-adv-x="560" 
d="M417 311q0 55 -24.5 84.5t-69.5 29.5q-46 0 -92 -38q-47 -39 -66 -96h251q1 5 1 20zM467 139l2 -1l-25 -106q-85 -43 -188 -43q-99 0 -158.5 59.5t-59.5 158.5q0 130 89 222q88 91 211 91q87 0 138.5 -54t51.5 -146q0 -56 -14 -106h-363q5 -125 133 -125q94 0 183 50z
" />
    <glyph glyph-name="f" unicode="f" horiz-adv-x="417" 
d="M301 506h162l-24 -97h-161l-101 -409h-118l102 409h-87l25 97h86l18 73q21 87 77 133t139 46q44 0 80 -14l19 -108l-3 -1q-43 21 -89 21q-88 0 -113 -101z" />
    <glyph glyph-name="g" unicode="g" horiz-adv-x="619" 
d="M157 214q0 -49 26.5 -75.5t73.5 -26.5q68 0 150 63l54 220q-49 20 -98 20q-82 0 -144 -59q-62 -60 -62 -142zM200 -196q-110 0 -194 49l-18 123l3 2q98 -71 206 -71q140 0 177 131l17 58q-86 -80 -177 -80q-78 0 -126.5 51.5t-48.5 136.5q0 132 93 221q91 88 230 88
q79 0 143 -26l92 21l10 -3l-121 -485q-54 -216 -286 -216z" />
    <glyph glyph-name="h" unicode="h" horiz-adv-x="605" 
d="M435 336q0 36 -19.5 55.5t-55.5 19.5q-65 0 -144 -67l-86 -344h-118l179 721l128 38l-82 -331q87 88 168 88q67 0 109.5 -41.5t42.5 -108.5q0 -29 -16 -102l-66 -264h-119l71 283q8 30 8 53z" />
    <glyph glyph-name="i" unicode="i" horiz-adv-x="277" 
d="M244 755q32 0 53.5 -21t21.5 -52t-22.5 -53t-54.5 -22t-53.5 21t-21.5 52q0 32 22 53.5t55 21.5zM261 506l-126 -506h-119l126 506h119z" />
    <glyph glyph-name="j" unicode="j" horiz-adv-x="277" 
d="M244 755q32 0 53.5 -21t21.5 -52t-22.5 -53t-54.5 -22q-31 0 -53 21.5t-22 51.5q0 31 22.5 53t54.5 22zM11 -21l132 527h118l-135 -542q-20 -81 -65 -119.5t-120 -38.5q-29 0 -56 8l-16 92l2 3q23 -9 44 -9q41 0 63.5 18.5t32.5 60.5z" />
    <glyph glyph-name="k" unicode="k" horiz-adv-x="563" 
d="M491 2v-2h-136l-146 216h-25l-54 -216h-118l179 721l128 38l-115 -461h25l225 208h150v-3l-285 -256z" />
    <glyph glyph-name="l" unicode="l" horiz-adv-x="277" 
d="M324 759l-189 -759h-119l180 721z" />
    <glyph glyph-name="m" unicode="m" horiz-adv-x="914" 
d="M417 336q0 35 -19 55t-52 20q-58 0 -130 -65l-86 -346h-118l123 493l121 20l-20 -83q80 86 157 86q48 0 84.5 -25t52.5 -69q97 94 188 94q64 0 105.5 -42t41.5 -108q0 -42 -16 -102l-65 -264h-119l71 283q8 33 8 53q0 35 -19 55t-52 20q-63 0 -134 -58q-1 -16 -16 -89
l-66 -264h-119l71 283q8 30 8 53z" />
    <glyph glyph-name="n" unicode="n" horiz-adv-x="605" 
d="M435 336q0 36 -19.5 55.5t-55.5 19.5q-65 0 -144 -67l-86 -344h-118l123 493l122 20l-21 -86q86 89 169 89q67 0 109.5 -41.5t42.5 -108.5q0 -29 -16 -102l-66 -264h-119l71 283q8 30 8 53z" />
    <glyph glyph-name="o" unicode="o" horiz-adv-x="609" 
d="M571 294q0 -130 -87 -219q-89 -89 -213 -89q-103 0 -168 63t-65 163q0 132 87 220t213 88q104 0 168 -63q65 -63 65 -163zM453 289q0 58 -33.5 92.5t-88.5 34.5q-71 0 -123 -58t-52 -141q0 -58 33.5 -93t88.5 -35q70 0 123 59q52 58 52 141z" />
    <glyph glyph-name="p" unicode="p" horiz-adv-x="619" 
d="M271 93q78 0 137 62q57 61 57 149q0 51 -27.5 80t-75.5 29q-65 0 -142 -57l-57 -230q47 -33 108 -33zM487 81q-89 -89 -210 -89q-79 0 -138 36l-55 -219h-119l170 684l122 20l-19 -77q80 79 170 79q76 0 126 -54q49 -55 49 -143q0 -143 -96 -237z" />
    <glyph glyph-name="q" unicode="q" horiz-adv-x="614" 
d="M592 508l10 -3l-173 -696h-118l64 259q-79 -78 -167 -78q-76 0 -124 55t-48 143q0 142 92 232q93 93 231 93q71 0 138 -26zM154 202q0 -51 26.5 -80t73.5 -29q64 0 141 55l60 246q-43 18 -100 18q-83 0 -141 -61q-60 -61 -60 -149z" />
    <glyph glyph-name="r" unicode="r" horiz-adv-x="420" 
d="M390 389q-75 0 -183 -81l-77 -308h-118l123 493l122 20l-31 -122q66 74 103 98q37 25 80 25q11 0 40 -6l-21 -124q-15 5 -38 5z" />
    <glyph glyph-name="s" unicode="s" horiz-adv-x="500" 
d="M225 208q-77 29 -110 64t-33 89q0 69 57 112q58 44 148 44q99 0 177 -49l-4 -113l-3 -1q-89 67 -175 67q-39 0 -63 -14t-24 -37q0 -22 19 -37t71 -34q75 -29 108.5 -65t33.5 -88q0 -71 -58 -114t-154 -43q-109 0 -186 53l-14 121l3 2q93 -80 202 -80q42 0 68 14.5
t26 36.5q0 20 -20 35.5t-69 36.5z" />
    <glyph glyph-name="t" unicode="t" horiz-adv-x="456" 
d="M394 139l3 -2l-38 -121q-52 -27 -111 -27q-74 0 -117 41.5t-43 112.5q0 31 10 71l54 195h-82l25 97h84l30 108l127 37l-40 -145h182l-25 -97h-184l-57 -208q-6 -23 -6 -40q0 -32 20 -50t54 -18q61 0 114 46z" />
    <glyph glyph-name="u" unicode="u" horiz-adv-x="605" 
d="M593 506l-126 -506h-117l20 79q-86 -89 -170 -89q-67 0 -109 41.5t-42 108.5q0 36 15 101l66 265h119l-71 -283q-8 -32 -8 -53q0 -36 19.5 -55.5t55.5 -19.5q62 0 144 67l86 344h118z" />
    <glyph glyph-name="v" unicode="v" horiz-adv-x="582" 
d="M628 506l-377 -519h-51l-121 519h121l67 -326l225 326h136z" />
    <glyph glyph-name="w" unicode="w" horiz-adv-x="881" 
d="M449 290l-208 -297h-99l-61 513h118l32 -359l259 365h17l81 -365l209 359h128l-314 -513h-99z" />
    <glyph glyph-name="x" unicode="x" horiz-adv-x="573" 
d="M359 254l130 -254h-128l-89 181l-169 -181h-143v2l258 265l-123 239h129l81 -167l155 167h143v-2z" />
    <glyph glyph-name="y" unicode="y" horiz-adv-x="566" 
d="M39 -194q-39 0 -69 14l-27 116l3 2q33 -23 81 -23q41 0 70.5 17.5t55.5 57.5l25 39l-98 477h122l62 -352l214 352h132l-355 -557q-47 -75 -98.5 -109t-117.5 -34z" />
    <glyph glyph-name="z" unicode="z" horiz-adv-x="536" 
d="M183 97h292l-66 -97h-439l-4 15l373 393h-253l24 98h443l4 -15z" />
    <glyph glyph-name="braceleft" unicode="{" horiz-adv-x="495" 
d="M297 -57h93l-32 -73h-102q-86 0 -132.5 33.5t-46.5 93.5q0 50 62 129q44 57 44 81q0 49 -74 62l-74 13l11 46l87 14q59 9 84.5 29t25.5 57q0 15 -9 68q-11 57 -11 79q0 77 60 121t167 44h119v-73h-113q-55 0 -85 -26t-30 -73q0 -21 8 -66q8 -47 8 -74q0 -97 -123 -131
q72 -31 72 -90q0 -34 -54 -109q-47 -66 -47 -91q0 -64 92 -64z" />
    <glyph glyph-name="bar" unicode="|" horiz-adv-x="385" 
d="M267 740h94l-216 -870h-94z" />
    <glyph glyph-name="braceright" unicode="}" horiz-adv-x="495" 
d="M298 35q0 -77 -60 -121t-167 -44h-118l-1 73h113q55 0 85 26t30 73q0 21 -8 66q-8 47 -8 74q0 97 123 131q-72 31 -72 90q0 34 55 109q47 66 47 91q0 64 -92 64h-94l32 73h102q86 0 132.5 -33.5t46.5 -93.5q0 -50 -62 -129q-43 -57 -43 -81q0 -49 74 -62l73 -13l-11 -46
l-86 -14q-60 -9 -85 -28.5t-25 -57.5q0 -22 9 -68q10 -59 10 -79z" />
    <glyph glyph-name="asciitilde" unicode="~" horiz-adv-x="600" 
d="M346 399q68 -45 84 -45q18 0 41 21q19 18 67 81l55 -37q-62 -102 -98 -141q-36 -37 -72 -37q-31 0 -121 60q-68 45 -84 45q-17 0 -39 -20q-24 -22 -69 -82l-55 37q63 103 99 141q34 37 71 37q31 0 121 -60z" />
    <glyph glyph-name="uni00A0" unicode="&#xa0;" horiz-adv-x="217" 
 />
    <glyph glyph-name="exclamdown" unicode="&#xa1;" horiz-adv-x="271" 
d="M209 689q25 8 49 -4t32 -37q7 -25 -5.5 -47.5t-38.5 -30.5q-25 -8 -48.5 4t-31.5 37t5 48t38 30zM139 0h-134l23 93l135 370h51l-52 -371z" />
    <glyph glyph-name="cent" unicode="&#xa2;" horiz-adv-x="544" 
d="M495 270l3 -2l-54 -136q-71 -34 -145 -39l-25 -98h-82l28 106q-70 19 -111.5 75t-41.5 132q0 119 80 204t201 92l26 101h82l-27 -107q66 -13 120 -61l-22 -111h-3q-61 61 -123 74l-78 -303q93 6 172 73zM181 318q0 -80 67 -111l75 291q-62 -15 -102 -65.5t-40 -114.5z
" />
    <glyph glyph-name="sterling" unicode="&#xa3;" horiz-adv-x="586" 
d="M218 105l287 2l-51 -107h-455v37q126 96 169 143q39 44 39 86q0 2 -0.5 5t-1 9t-0.5 14l-149 -3l19 79l113 1q-23 81 -23 118q0 100 71 162q70 61 186 61q107 0 186 -65v-125l-3 -1q-86 84 -180 84q-61 0 -98.5 -33.5t-37.5 -87.5q0 -35 22 -110l215 3l-19 -80l-180 -1
q0 -5 0.5 -9.5t1 -7t0.5 -5v-4.5q0 -46 -25.5 -83.5t-85.5 -81.5z" />
    <glyph glyph-name="yen" unicode="&#xa5;" horiz-adv-x="642" 
d="M372 222h192l-17 -71h-193l-37 -151h-119l37 151h-191l17 71h192l17 71h-190l17 70h156l-121 337h129l91 -289l238 289h145l-291 -337h156l-18 -70h-193z" />
    <glyph glyph-name="section" unicode="&#xa7;" horiz-adv-x="649" 
d="M160 276q0 -30 30.5 -54.5t108.5 -58.5q9 -4 26.5 -12.5t23.5 -11.5q144 40 144 103q0 30 -30.5 54.5t-108.5 58.5q-9 4 -26.5 12.5t-23.5 11.5q-144 -40 -144 -103zM462 -16q0 -80 -64 -129t-170 -49q-112 0 -206 58l-19 136l2 1q115 -92 228 -92q50 0 79.5 18t29.5 48
q0 28 -26 50t-92 51q-99 43 -139.5 85t-40.5 101q0 126 191 166q-44 47 -44 106q0 79 65 129q64 49 169 49q99 0 193 -49l-6 -116l-2 -1q-92 63 -190 63q-50 0 -79.5 -18t-29.5 -48q0 -28 26 -50t92 -51q98 -43 140 -85q40 -40 40 -101q0 -126 -191 -166q44 -47 44 -106z
" />
    <glyph glyph-name="dieresis" unicode="&#xa8;" horiz-adv-x="500" 
d="M456 599q-30 0 -51 21t-21 51t21.5 51.5t52.5 21.5q30 0 51 -20.5t21 -50.5q0 -31 -21.5 -52.5t-52.5 -21.5zM244 599q-30 0 -51 21t-21 51t21.5 51.5t52.5 21.5q30 0 51 -20.5t21 -50.5q0 -31 -21.5 -52.5t-52.5 -21.5z" />
    <glyph glyph-name="copyright" unicode="&#xa9;" horiz-adv-x="913" 
d="M196 68q-118 113 -118 281q0 165 119 282q120 115 285 115t284 -114q118 -113 118 -281q0 -165 -119 -282q-120 -115 -285 -115t-284 114zM480 714q-154 0 -261 -105q-108 -107 -108 -258q0 -153 109 -259q107 -106 262 -106t262 106q107 105 107 257q0 153 -108 259
q-109 106 -263 106zM498 191q91 0 169 65l2 -1l-13 -88q-74 -52 -164 -52q-106 0 -176 66q-71 66 -71 168t73 169t182 67q90 0 163 -58v-91h-2q-79 72 -160 72q-71 0 -119 -45t-48 -112q0 -69 48 -114q46 -46 116 -46z" />
    <glyph glyph-name="ordfeminine" unicode="&#xaa;" horiz-adv-x="505" 
d="M204 444q0 -37 46 -37q50 0 125 46l14 53q-8 1 -40 1q-69 0 -107 -17t-38 -46zM482 515l-46 -169l-88 -1l15 56q-77 -61 -148 -61q-44 0 -71 25t-27 65q0 60 60 92.5t172 32.5q5 0 11.5 -0.5t17.5 -1t22 -0.5q0 3 0.5 7t1 6t0.5 4q0 29 -19.5 46t-53.5 17q-64 0 -142 -44
l-2 1l37 89q61 28 126 28q64 0 104 -35.5t40 -92.5q0 -31 -10 -64zM413 190h-362l17 68h362z" />
    <glyph glyph-name="guillemotleft" unicode="&#xab;" horiz-adv-x="640" 
d="M438 243l90 -226l-40 -25l-187 250l5 21l303 251l35 -30zM175 243l90 -226l-40 -25l-187 250l4 21l304 251l35 -30z" />
    <glyph glyph-name="registered" unicode="&#xae;" horiz-adv-x="565" 
d="M571 497q0 -93 -66 -158q-68 -65 -162 -65t-161 65q-67 64 -67 157q0 95 67 159q67 65 161 65q97 0 162 -64q66 -64 66 -159zM545 496q0 85 -58 143q-58 57 -145 57q-84 0 -142 -58t-58 -142q0 -86 58 -141q58 -57 144 -57q85 0 143 58q58 57 58 140zM338 589h-31v-84h29
q51 0 51 42q0 19 -13 30.5t-36 11.5zM385 474l90 -100h-66l-81 91h-21v-91h-54v258h90q46 0 72.5 -22t26.5 -60q0 -55 -57 -76z" />
    <glyph glyph-name="overscore" unicode="&#xaf;" horiz-adv-x="500" 
d="M516 625h-352l20 82h352z" />
    <glyph glyph-name="degree" unicode="&#xb0;" horiz-adv-x="527" 
d="M541 524q0 -102 -69 -171q-70 -70 -170 -70q-85 0 -140 53q-54 52 -54 137q0 102 70 172q69 69 169 69q85 0 140 -53q54 -53 54 -137zM205 477q0 -51 28 -81t74 -30q57 0 97 46q41 46 41 109q0 50 -28.5 80.5t-74.5 30.5q-56 0 -96 -45q-41 -47 -41 -110z" />
    <glyph glyph-name="plusminus" unicode="&#xb1;" horiz-adv-x="600" 
d="M415 501h198l-25 -100h-198l-50 -200h-106l50 200h-198l24 100h199l50 199h105zM9 94h503l-24 -94h-503z" />
    <glyph glyph-name="acute" unicode="&#xb4;" horiz-adv-x="500" 
d="M578 778v-2l-221 -174h-61l126 176h156z" />
    <glyph glyph-name="uni00B5" unicode="&#xb5;" horiz-adv-x="613" 
d="M125 61l-38 -208l-11 -44h-112l174 697h118l-70 -284q-9 -27 -9 -53q0 -36 20 -55.5t56 -19.5q64 0 143 67l86 345h119l-126 -506h-89l4 81q-81 -84 -161 -84q-36 0 -63.5 17t-40.5 47z" />
    <glyph glyph-name="paragraph" unicode="&#xb6;" horiz-adv-x="689" 
d="M603 596h-89l-148 -596h-73l55 222h-22q-108 0 -173 57t-65 149q0 119 103 195q103 77 260 77h261l-174 -700h-83zM205 420q0 -60 38.5 -95t104.5 -35h17l76 306h-15q-96 0 -158 -50q-63 -50 -63 -126z" />
    <glyph glyph-name="middot" unicode="&#xb7;" horiz-adv-x="233" 
d="M121 196q-33 0 -56 23t-23 56q0 34 23.5 58t57.5 24q33 0 56 -23t23 -56q0 -34 -23.5 -58t-57.5 -24z" />
    <glyph glyph-name="cedilla" unicode="&#xb8;" horiz-adv-x="500" 
d="M284 -117q0 -38 -38 -61.5t-101 -23.5q-22 0 -71 9l-23 53l3 4q38 -15 80 -15q63 0 63 31q0 25 -48 25q-18 0 -45 -4l-2 4l66 101h69l-35 -53q36 -2 59 -21.5t23 -48.5z" />
    <glyph glyph-name="ordmasculine" unicode="&#xba;" horiz-adv-x="504" 
d="M517 545q0 -88 -62 -147t-155 -59q-77 0 -127 47t-50 119q0 89 62 148q61 58 155 58q79 0 128 -46t49 -120zM426 542q0 42 -25 67t-66 25q-51 0 -85 -36q-36 -38 -36 -90q0 -42 25 -67t66 -25q50 0 86 37q35 37 35 89zM418 190h-363l17 68h363z" />
    <glyph glyph-name="guillemotright" unicode="&#xbb;" horiz-adv-x="640" 
d="M339 263l-5 -21l-303 -250l-35 30l206 240l-90 227l40 24zM602 263l-5 -21l-303 -250l-35 30l206 240l-90 227l40 24z" />
    <glyph glyph-name="onequarter" unicode="&#xbc;" horiz-adv-x="844" 
d="M335 709l10 -3l-105 -421h-88l71 288l-127 -62l-2 1l23 91zM443 333l-294 -335h-83l334 369l295 335h83zM696 346l-157 -194h108zM731 152h66l-17 -66h-66l-21 -86h-84l21 86h-211l-2 21l263 311h117z" />
    <glyph glyph-name="onehalf" unicode="&#xbd;" horiz-adv-x="861" 
d="M335 709l10 -3l-105 -421h-88l71 288l-127 -62l-2 1l23 91zM443 333l-294 -335h-83l334 369l295 335h83zM624 75h175l-51 -75h-271v36l182 167q47 44 61 64t14 37q0 39 -47 39q-71 0 -143 -77l-2 1l18 101q58 53 141 53q56 0 89.5 -28t33.5 -74q0 -37 -21 -70
q-24 -35 -85 -89z" />
    <glyph glyph-name="threequarters" unicode="&#xbe;" horiz-adv-x="895" 
d="M356 399q0 -52 -46.5 -86t-118.5 -34q-73 0 -123 33l-3 84l2 1q57 -45 121 -45q35 0 56.5 14.5t21.5 37.5q0 24 -26 40.5t-87 30.5l6 28q80 24 115 46.5t35 49.5q0 16 -13 25.5t-35 9.5q-59 0 -135 -47l-2 1l21 83q62 35 136 35q53 0 85.5 -26t32.5 -68q0 -85 -112 -123
q69 -25 69 -90zM494 333l-294 -335h-83l334 369l295 335h83zM747 346l-157 -194h108zM782 152h66l-17 -66h-66l-21 -86h-84l21 86h-211l-2 21l263 311h117z" />
    <glyph glyph-name="questiondown" unicode="&#xbf;" horiz-adv-x="488" 
d="M349 689q25 8 48.5 -4t31.5 -37t-5 -48t-38 -30q-25 -8 -49 4t-32 37q-7 25 5.5 47.5t38.5 30.5zM428 190l2 -1l-33 -133q-84 -66 -199 -66q-79 0 -128.5 41t-49.5 106q0 60 37 103t123 81q64 30 89 50t25 45q0 19 -14 46h62q37 -43 37 -85q0 -40 -33 -72t-110 -66
q-57 -27 -79 -46.5t-22 -45.5q0 -23 20.5 -37.5t53.5 -14.5q100 0 219 95z" />
    <glyph glyph-name="Agrave" unicode="&#xc0;" horiz-adv-x="795" 
d="M483 567l-201 -297h253zM574 703l133 -703h-127l-28 163h-340l-109 -163h-141l483 703h129zM356 916h151l44 -147h-59l-136 145v2z" />
    <glyph glyph-name="Aacute" unicode="&#xc1;" horiz-adv-x="795" 
d="M483 567l-201 -297h253zM574 703l133 -703h-127l-28 163h-340l-109 -163h-141l483 703h129zM763 916v-2l-216 -145h-72l116 147h172z" />
    <glyph glyph-name="Acircumflex" unicode="&#xc2;" horiz-adv-x="795" 
d="M483 567l-201 -297h253zM574 703l133 -703h-127l-28 163h-340l-109 -163h-141l483 703h129zM611 916l92 -147h-64l-97 70l-133 -70h-74v2l164 145h112z" />
    <glyph glyph-name="Atilde" unicode="&#xc3;" horiz-adv-x="795" 
d="M483 567l-201 -297h253zM574 703l133 -703h-127l-28 163h-340l-109 -163h-141l483 703h129zM552 881q44 -25 60 -25q26 0 84 59l44 -37q-43 -60 -74 -85.5t-61 -25.5q-24 0 -80 31q-44 25 -60 25q-26 0 -84 -59l-44 38q42 60 73.5 85t61.5 25q24 0 80 -31z" />
    <glyph glyph-name="Adieresis" unicode="&#xc4;" horiz-adv-x="795" 
d="M483 567l-201 -297h253zM574 703l133 -703h-127l-28 163h-340l-109 -163h-141l483 703h129zM640 913q31 0 52 -21t21 -52t-21.5 -52.5t-52.5 -21.5t-52 21t-21 51q0 31 21.5 53t52.5 22zM429 913q31 0 52 -21t21 -52t-21.5 -52.5t-52.5 -21.5t-52 21t-21 51q0 31 21.5 53
t52.5 22z" />
    <glyph glyph-name="Aring" unicode="&#xc5;" horiz-adv-x="795" 
d="M443 740q0 -31 20 -51t51 -20q33 0 56.5 24.5t23.5 60.5q0 31 -20 51.5t-51 20.5q-33 0 -56.5 -25t-23.5 -61zM483 567l-200 -297h252zM586 643l121 -643h-127l-28 163h-340l-109 -163h-141l455 663q-26 34 -26 76q0 56 40 96q39 39 94 39q52 0 86.5 -34t34.5 -85
q0 -71 -60 -112z" />
    <glyph glyph-name="AE" unicode="&#xc6;" horiz-adv-x="1013" 
d="M601 593l-279 -323h199zM935 111l-59 -111h-422l41 163h-265l-141 -163h-142v2l605 698h508l-28 -111h-307l-45 -181h255l-27 -106h-254l-47 -191h328z" />
    <glyph glyph-name="Ccedilla" unicode="&#xc7;" horiz-adv-x="707" 
d="M447 -122q0 -38 -38 -61.5t-101 -23.5q-22 0 -71 9l-23 53l3 4q38 -15 80 -15q63 0 63 31q0 25 -48 25q-18 0 -45 -4l-2 4l60 92q-116 18 -183 100q-69 81 -69 203q0 172 117 295q122 122 292 122q147 0 246 -105l-28 -138l-2 -1q-95 127 -220 127q-110 0 -193 -86
q-83 -88 -83 -204q0 -89 57 -144q56 -56 144 -56q122 0 251 110l4 -2l-66 -166q-89 -58 -201 -59l-26 -40q36 -2 59 -21.5t23 -48.5z" />
    <glyph glyph-name="Egrave" unicode="&#xc8;" horiz-adv-x="587" 
d="M509 111l-59 -111h-422l174 700h432l-28 -111h-307l-45 -181h255l-27 -106h-254l-47 -191h328zM268 916h151l44 -147h-59l-136 145v2z" />
    <glyph glyph-name="Eacute" unicode="&#xc9;" horiz-adv-x="587" 
d="M509 111l-59 -111h-422l174 700h432l-28 -111h-307l-45 -181h255l-27 -106h-254l-47 -191h328zM675 916v-2l-216 -145h-72l116 147h172z" />
    <glyph glyph-name="Ecircumflex" unicode="&#xca;" horiz-adv-x="587" 
d="M509 111l-59 -111h-422l174 700h432l-28 -111h-307l-45 -181h255l-27 -106h-254l-47 -191h328zM523 916l92 -147h-64l-97 70l-133 -70h-74v2l164 145h112z" />
    <glyph glyph-name="Edieresis" unicode="&#xcb;" horiz-adv-x="587" 
d="M509 111l-59 -111h-422l174 700h432l-28 -111h-307l-45 -181h255l-27 -106h-254l-47 -191h328zM552 913q31 0 52 -21t21 -52t-21.5 -52.5t-52.5 -21.5t-52 21t-21 51q0 31 21.5 53t52.5 22zM341 913q31 0 52 -21t21 -52t-21.5 -52.5t-52.5 -21.5t-52 21t-21 51
q0 31 21.5 53t52.5 22z" />
    <glyph glyph-name="Igrave" unicode="&#xcc;" horiz-adv-x="317" 
d="M333 700l-174 -700h-126l174 700h126zM122 916h151l44 -147h-59l-136 145v2z" />
    <glyph glyph-name="Iacute" unicode="&#xcd;" horiz-adv-x="317" 
d="M333 700l-174 -700h-126l174 700h126zM529 916v-2l-216 -145h-72l116 147h172z" />
    <glyph glyph-name="Icircumflex" unicode="&#xce;" horiz-adv-x="317" 
d="M333 700l-174 -700h-126l174 700h126zM377 916l92 -147h-64l-97 70l-133 -70h-74v2l164 145h112z" />
    <glyph glyph-name="Idieresis" unicode="&#xcf;" horiz-adv-x="317" 
d="M333 700l-174 -700h-126l174 700h126zM406 913q31 0 52 -21t21 -52t-21.5 -52.5t-52.5 -21.5t-52 21t-21 51q0 31 21.5 53t52.5 22zM195 913q31 0 52 -21t21 -52t-21.5 -52.5t-52.5 -21.5t-52 21t-21 51q0 31 21.5 53t52.5 22z" />
    <glyph glyph-name="Eth" unicode="&#xd0;" horiz-adv-x="799" 
d="M272 399h171l-22 -86h-170l-50 -200h102q146 0 246 80q99 79 99 200q0 93 -63.5 143.5t-181.5 50.5h-84zM304 0h-254l78 312h-90l22 88h89l75 300h197q168 0 262 -77.5t94 -216.5q0 -178 -134 -292q-133 -114 -339 -114z" />
    <glyph glyph-name="Ntilde" unicode="&#xd1;" horiz-adv-x="816" 
d="M715 700h121l-174 -704h-62l-320 534l-130 -530h-122l174 700h119l279 -465zM559 881q44 -25 60 -25q26 0 84 59l44 -37q-43 -60 -74 -85.5t-61 -25.5q-24 0 -80 31q-44 25 -60 25q-26 0 -84 -59l-44 38q42 60 73.5 85t61.5 25q24 0 80 -31z" />
    <glyph glyph-name="Ograve" unicode="&#xd2;" horiz-adv-x="830" 
d="M686 108q-122 -122 -294 -122q-142 0 -230 87q-89 86 -89 224q0 175 120 295q119 122 294 122q140 0 229 -86q89 -87 89 -225q0 -174 -119 -295zM203 305q0 -91 56 -147t144 -56q109 0 192 86q81 86 81 207q0 92 -56 148q-55 55 -145 55q-110 0 -191 -86t-81 -207z
M358 921h151l44 -147h-59l-136 145v2z" />
    <glyph glyph-name="Oacute" unicode="&#xd3;" horiz-adv-x="830" 
d="M686 108q-122 -122 -294 -122q-142 0 -230 87q-89 86 -89 224q0 175 120 295q119 122 294 122q140 0 229 -86q89 -87 89 -225q0 -174 -119 -295zM203 305q0 -91 56 -147t144 -56q109 0 192 86q81 86 81 207q0 92 -56 148q-55 55 -145 55q-110 0 -191 -86t-81 -207z
M765 921v-2l-216 -145h-72l116 147h172z" />
    <glyph glyph-name="Ocircumflex" unicode="&#xd4;" horiz-adv-x="830" 
d="M686 108q-122 -122 -294 -122q-142 0 -230 87q-89 86 -89 224q0 175 120 295q119 122 294 122q140 0 229 -86q89 -87 89 -225q0 -174 -119 -295zM203 305q0 -91 56 -147t144 -56q109 0 192 86q81 86 81 207q0 92 -56 148q-55 55 -145 55q-110 0 -191 -86t-81 -207z
M613 921l92 -147h-64l-97 70l-133 -70h-74v2l164 145h112z" />
    <glyph glyph-name="Otilde" unicode="&#xd5;" horiz-adv-x="830" 
d="M686 108q-122 -122 -294 -122q-142 0 -230 87q-89 86 -89 224q0 175 120 295q119 122 294 122q140 0 229 -86q89 -87 89 -225q0 -174 -119 -295zM203 305q0 -91 56 -147t144 -56q109 0 192 86q81 86 81 207q0 92 -56 148q-55 55 -145 55q-110 0 -191 -86t-81 -207z
M554 886q44 -25 60 -25q26 0 84 59l44 -37q-43 -60 -74 -85.5t-61 -25.5q-24 0 -80 31q-44 25 -60 25q-26 0 -84 -59l-44 38q42 60 73.5 85t61.5 25q24 0 80 -31z" />
    <glyph glyph-name="Odieresis" unicode="&#xd6;" horiz-adv-x="830" 
d="M686 108q-122 -122 -294 -122q-142 0 -230 87q-89 86 -89 224q0 175 120 295q119 122 294 122q140 0 229 -86q89 -87 89 -225q0 -174 -119 -295zM203 305q0 -91 56 -147t144 -56q109 0 192 86q81 86 81 207q0 92 -56 148q-55 55 -145 55q-110 0 -191 -86t-81 -207z
M642 918q31 0 52 -21t21 -52t-21.5 -52.5t-52.5 -21.5t-52 21t-21 51q0 31 21.5 53t52.5 22zM431 918q31 0 52 -21t21 -52t-21.5 -52.5t-52.5 -21.5t-52 21t-21 51q0 31 21.5 53t52.5 22z" />
    <glyph glyph-name="multiply" unicode="&#xd7;" horiz-adv-x="600" 
d="M393 344l127 -168l-83 -64l-122 169l-207 -169l-62 79l211 167l-128 168l83 64l123 -169l206 169l62 -79z" />
    <glyph glyph-name="Oslash" unicode="&#xd8;" horiz-adv-x="830" 
d="M475 603q-112 0 -194 -88q-83 -89 -83 -210q0 -65 27 -114l370 380q-50 32 -120 32zM403 97q112 0 194 88q83 89 83 210q0 70 -27 114l-370 -380q50 -32 120 -32zM686 108q-122 -122 -294 -122q-112 0 -194 60l-87 -89h-119v2l144 146q-63 81 -63 192q0 175 120 295
q119 122 294 122q109 0 194 -60l86 89h120v-2l-145 -146q63 -81 63 -192q0 -174 -119 -295z" />
    <glyph glyph-name="Ugrave" unicode="&#xd9;" horiz-adv-x="782" 
d="M91 239q0 47 14 103l89 358h126l-92 -371q-11 -46 -11 -76q0 -71 41 -111t113 -40q78 0 135.5 51t80.5 141l101 406h123l-106 -425q-71 -287 -348 -287q-121 0 -194 68q-72 68 -72 183zM354 916h151l44 -147h-59l-136 145v2z" />
    <glyph glyph-name="Uacute" unicode="&#xda;" horiz-adv-x="782" 
d="M91 239q0 47 14 103l89 358h126l-92 -371q-11 -46 -11 -76q0 -71 41 -111t113 -40q78 0 135.5 51t80.5 141l101 406h123l-106 -425q-71 -287 -348 -287q-121 0 -194 68q-72 68 -72 183zM761 916v-2l-216 -145h-72l116 147h172z" />
    <glyph glyph-name="Ucircumflex" unicode="&#xdb;" horiz-adv-x="782" 
d="M91 239q0 47 14 103l89 358h126l-92 -371q-11 -46 -11 -76q0 -71 41 -111t113 -40q78 0 135.5 51t80.5 141l101 406h123l-106 -425q-71 -287 -348 -287q-121 0 -194 68q-72 68 -72 183zM609 916l92 -147h-64l-97 70l-133 -70h-74v2l164 145h112z" />
    <glyph glyph-name="Udieresis" unicode="&#xdc;" horiz-adv-x="782" 
d="M91 239q0 47 14 103l89 358h126l-92 -371q-11 -46 -11 -76q0 -71 41 -111t113 -40q78 0 135.5 51t80.5 141l101 406h123l-106 -425q-71 -287 -348 -287q-121 0 -194 68q-72 68 -72 183zM638 913q31 0 52 -21t21 -52t-21.5 -52.5t-52.5 -21.5t-52 21t-21 51q0 31 21.5 53
t52.5 22zM427 913q31 0 52 -21t21 -52t-21.5 -52.5t-52.5 -21.5t-52 21t-21 51q0 31 21.5 53t52.5 22z" />
    <glyph glyph-name="Yacute" unicode="&#xdd;" horiz-adv-x="675" 
d="M777 698l-368 -404l-74 -294h-126l76 307l-166 393h133l117 -289l256 289h152v-2zM698 916v-2l-216 -145h-72l116 147h172z" />
    <glyph glyph-name="Thorn" unicode="&#xde;" horiz-adv-x="622" 
d="M478 372q0 47 -32.5 73.5t-90.5 26.5h-85l-58 -234h91q78 0 126.5 37.5t48.5 96.5zM604 381q0 -114 -85 -181q-85 -69 -227 -69h-106l-32 -131h-126l174 700h126l-30 -122h77q103 0 166 -54t63 -143z" />
    <glyph glyph-name="germandbls" unicode="&#xdf;" horiz-adv-x="683" 
d="M613 194q0 -84 -66 -143q-68 -59 -167 -59q-48 0 -99 19l-15 107l2 2q50 -26 100 -26q54 0 90.5 32t36.5 77q0 46 -37 79.5t-117 60.5l1 37q188 74 188 182q0 43 -24.5 68t-66.5 25q-47 0 -81.5 -33t-49.5 -94l-131 -528h-118l102 409h-87l25 97h86l12 49
q24 97 89.5 149.5t162.5 52.5q88 0 144 -50q55 -51 55 -133q0 -124 -147 -208q112 -61 112 -172z" />
    <glyph glyph-name="agrave" unicode="&#xe0;" horiz-adv-x="558" 
d="M496 242l-62 -232l-121 -20l22 81q-100 -79 -187 -79q-61 0 -98.5 35t-37.5 94q0 83 73.5 128.5t208.5 45.5q54 0 96 -6q2 32 2 33q0 42 -27 66t-76 24q-84 0 -183 -56l-2 2l51 123q75 34 160 34q90 0 142.5 -48.5t52.5 -130.5q0 -47 -14 -94zM126 138q0 -26 17 -40.5
t47 -14.5q69 0 162 58l22 84q-44 4 -68 4q-84 0 -132 -24.5t-48 -66.5zM210 778h141l41 -176h-52z" />
    <glyph glyph-name="aacute" unicode="&#xe1;" horiz-adv-x="558" 
d="M496 242l-62 -232l-121 -20l22 81q-100 -79 -187 -79q-61 0 -98.5 35t-37.5 94q0 83 73.5 128.5t208.5 45.5q54 0 96 -6q2 32 2 33q0 42 -27 66t-76 24q-84 0 -183 -56l-2 2l51 123q75 34 160 34q90 0 142.5 -48.5t52.5 -130.5q0 -47 -14 -94zM126 138q0 -26 17 -40.5
t47 -14.5q69 0 162 58l22 84q-44 4 -68 4q-84 0 -132 -24.5t-48 -66.5zM608 778v-2l-221 -174h-61l126 176h156z" />
    <glyph glyph-name="acircumflex" unicode="&#xe2;" horiz-adv-x="558" 
d="M496 242l-62 -232l-121 -20l22 81q-100 -79 -187 -79q-61 0 -98.5 35t-37.5 94q0 83 73.5 128.5t208.5 45.5q54 0 96 -6q2 32 2 33q0 42 -27 66t-76 24q-84 0 -183 -56l-2 2l51 123q75 34 160 34q90 0 142.5 -48.5t52.5 -130.5q0 -47 -14 -94zM126 138q0 -26 17 -40.5
t47 -14.5q69 0 162 58l22 84q-44 4 -68 4q-84 0 -132 -24.5t-48 -66.5zM461 778l79 -176h-54l-92 89l-138 -89h-63v2l165 174h103z" />
    <glyph glyph-name="atilde" unicode="&#xe3;" horiz-adv-x="558" 
d="M496 242l-62 -232l-121 -20l22 81q-100 -79 -187 -79q-61 0 -98.5 35t-37.5 94q0 83 73.5 128.5t208.5 45.5q54 0 96 -6q2 32 2 33q0 42 -27 66t-76 24q-84 0 -183 -56l-2 2l51 123q75 34 160 34q90 0 142.5 -48.5t52.5 -130.5q0 -47 -14 -94zM126 138q0 -26 17 -40.5
t47 -14.5q69 0 162 58l22 84q-44 4 -68 4q-84 0 -132 -24.5t-48 -66.5zM401 724q48 -30 63 -30q13 0 29 13q15 11 57 56l47 -36q-57 -79 -85 -103q-28 -25 -57 -25q-26 0 -83 37q-47 29 -62 29q-14 0 -30 -12q-16 -13 -57 -57l-47 37q59 81 87 104q27 24 56 24q26 0 82 -37z
" />
    <glyph glyph-name="adieresis" unicode="&#xe4;" horiz-adv-x="558" 
d="M496 242l-62 -232l-121 -20l22 81q-100 -79 -187 -79q-61 0 -98.5 35t-37.5 94q0 83 73.5 128.5t208.5 45.5q54 0 96 -6q2 32 2 33q0 42 -27 66t-76 24q-84 0 -183 -56l-2 2l51 123q75 34 160 34q90 0 142.5 -48.5t52.5 -130.5q0 -47 -14 -94zM126 138q0 -26 17 -40.5
t47 -14.5q69 0 162 58l22 84q-44 4 -68 4q-84 0 -132 -24.5t-48 -66.5zM486 599q-30 0 -51 21t-21 51t21.5 51.5t52.5 21.5q30 0 51 -20.5t21 -50.5q0 -31 -21.5 -52.5t-52.5 -21.5zM274 599q-30 0 -51 21t-21 51t21.5 51.5t52.5 21.5q30 0 51 -20.5t21 -50.5
q0 -31 -21.5 -52.5t-52.5 -21.5z" />
    <glyph glyph-name="aring" unicode="&#xe5;" horiz-adv-x="558" 
d="M496 242l-62 -232l-121 -20l22 81q-100 -79 -187 -79q-61 0 -98.5 35t-37.5 94q0 83 73.5 128.5t208.5 45.5q54 0 96 -6q2 32 2 33q0 42 -27 66t-76 24q-84 0 -183 -56l-2 2l51 123q75 34 160 34q90 0 142.5 -48.5t52.5 -130.5q0 -47 -14 -94zM126 138q0 -26 17 -40.5
t47 -14.5q69 0 162 58l22 84q-44 4 -68 4q-84 0 -132 -24.5t-48 -66.5zM517 732q0 -54 -39 -95q-40 -40 -94 -40q-51 0 -85 34t-34 85q0 55 40 95q39 39 93 39q51 0 85 -34t34 -84zM317 717q0 -31 19.5 -51.5t49.5 -20.5q33 0 56 25t23 61q0 31 -19.5 51t-49.5 20
q-33 0 -56 -25t-23 -60z" />
    <glyph glyph-name="ae" unicode="&#xe6;" horiz-adv-x="902" 
d="M759 311q0 55 -24.5 84.5t-69.5 29.5q-46 0 -92 -38q-47 -39 -66 -96h251q1 5 1 20zM126 138q0 -26 17 -40.5t48 -14.5q81 0 192 79q-4 16 -4 45q0 2 0.5 8.5t0.5 8.5q-45 5 -74 5q-84 0 -132 -24.5t-48 -66.5zM809 139l2 -1l-25 -106q-85 -43 -188 -43q-128 0 -189 98
q-129 -95 -249 -95q-68 0 -108 35t-40 94q0 83 73.5 128.5t208.5 45.5q54 0 96 -6q2 32 2 33q0 42 -27 66t-76 24q-84 0 -183 -56l-2 2l51 123q74 34 159 34q116 0 165 -78q86 83 201 83q87 0 138.5 -54t51.5 -146q0 -56 -14 -106h-364q2 -61 36.5 -93t97.5 -32q94 0 183 50
z" />
    <glyph glyph-name="ccedilla" unicode="&#xe7;" horiz-adv-x="525" 
d="M328 -122q0 -38 -38 -61.5t-101 -23.5q-22 0 -71 9l-23 53l3 4q38 -15 80 -15q63 0 63 31q0 25 -48 25q-18 0 -45 -4l-2 4l61 93q-78 16 -123.5 72t-45.5 139q0 133 89 224q89 89 217 89q94 0 169 -58l-24 -121l-3 -1q-62 73 -148 73q-73 0 -127 -57q-54 -59 -54 -137
q0 -57 33.5 -88.5t94.5 -31.5q94 0 178 71l3 -2l-56 -140q-62 -35 -137 -37l-27 -40q36 -2 59 -21.5t23 -48.5z" />
    <glyph glyph-name="egrave" unicode="&#xe8;" horiz-adv-x="560" 
d="M417 311q0 55 -24.5 84.5t-69.5 29.5q-46 0 -92 -38q-47 -39 -66 -96h251q1 5 1 20zM467 139l2 -1l-25 -106q-85 -43 -188 -43q-99 0 -158.5 59.5t-59.5 158.5q0 130 89 222q88 91 211 91q87 0 138.5 -54t51.5 -146q0 -56 -14 -106h-363q5 -125 133 -125q94 0 183 50z
M211 783h141l41 -176h-52z" />
    <glyph glyph-name="eacute" unicode="&#xe9;" horiz-adv-x="560" 
d="M417 311q0 55 -24.5 84.5t-69.5 29.5q-46 0 -92 -38q-47 -39 -66 -96h251q1 5 1 20zM467 139l2 -1l-25 -106q-85 -43 -188 -43q-99 0 -158.5 59.5t-59.5 158.5q0 130 89 222q88 91 211 91q87 0 138.5 -54t51.5 -146q0 -56 -14 -106h-363q5 -125 133 -125q94 0 183 50z
M609 783v-2l-221 -174h-61l126 176h156z" />
    <glyph glyph-name="ecircumflex" unicode="&#xea;" horiz-adv-x="560" 
d="M417 311q0 55 -24.5 84.5t-69.5 29.5q-46 0 -92 -38q-47 -39 -66 -96h251q1 5 1 20zM467 139l2 -1l-25 -106q-85 -43 -188 -43q-99 0 -158.5 59.5t-59.5 158.5q0 130 89 222q88 91 211 91q87 0 138.5 -54t51.5 -146q0 -56 -14 -106h-363q5 -125 133 -125q94 0 183 50z
M462 783l79 -176h-54l-92 89l-138 -89h-63v2l165 174h103z" />
    <glyph glyph-name="edieresis" unicode="&#xeb;" horiz-adv-x="560" 
d="M417 311q0 55 -24.5 84.5t-69.5 29.5q-46 0 -92 -38q-47 -39 -66 -96h251q1 5 1 20zM467 139l2 -1l-25 -106q-85 -43 -188 -43q-99 0 -158.5 59.5t-59.5 158.5q0 130 89 222q88 91 211 91q87 0 138.5 -54t51.5 -146q0 -56 -14 -106h-363q5 -125 133 -125q94 0 183 50z
M487 604q-30 0 -51 21t-21 51t21.5 51.5t52.5 21.5q30 0 51 -20.5t21 -50.5q0 -31 -21.5 -52.5t-52.5 -21.5zM275 604q-30 0 -51 21t-21 51t21.5 51.5t52.5 21.5q30 0 51 -20.5t21 -50.5q0 -31 -21.5 -52.5t-52.5 -21.5z" />
    <glyph glyph-name="igrave" unicode="&#xec;" horiz-adv-x="277" 
d="M261 506l-126 -506h-119l126 506h119zM67 778h141l41 -176h-52z" />
    <glyph glyph-name="iacute" unicode="&#xed;" horiz-adv-x="277" 
d="M261 506l-126 -506h-119l126 506h119zM465 778v-2l-221 -174h-61l126 176h156z" />
    <glyph glyph-name="icircumflex" unicode="&#xee;" horiz-adv-x="277" 
d="M261 506l-126 -506h-119l126 506h119zM318 778l79 -176h-54l-92 89l-138 -89h-63v2l165 174h103z" />
    <glyph glyph-name="idieresis" unicode="&#xef;" horiz-adv-x="277" 
d="M261 506l-126 -506h-119l126 506h119zM343 599q-30 0 -51 21t-21 51t21.5 51.5t52.5 21.5q30 0 51 -20.5t21 -50.5q0 -31 -21.5 -52.5t-52.5 -21.5zM131 599q-30 0 -51 21t-21 51t21.5 51.5t52.5 21.5q30 0 51 -20.5t21 -50.5q0 -31 -21.5 -52.5t-52.5 -21.5z" />
    <glyph glyph-name="eth" unicode="&#xf0;" horiz-adv-x="605" 
d="M556 299q0 -141 -80 -227t-208 -86q-102 0 -167 62t-65 159q0 107 78 183q79 77 185 77q87 0 141 -51q-23 84 -99 171l-81 -63l-40 51l77 58q-69 63 -74 68l78 63q32 -25 76 -69l84 67l41 -51l-82 -62q136 -156 136 -350zM439 250q0 55 -36 88t-96 33q-62 0 -107 -47
q-46 -47 -46 -111q0 -55 34.5 -89.5t88.5 -34.5q66 0 115 47q47 47 47 114z" />
    <glyph glyph-name="ntilde" unicode="&#xf1;" horiz-adv-x="605" 
d="M435 336q0 36 -19.5 55.5t-55.5 19.5q-65 0 -144 -67l-86 -344h-118l123 493l122 20l-21 -86q86 89 169 89q67 0 109.5 -41.5t42.5 -108.5q0 -29 -16 -102l-66 -264h-119l71 283q8 30 8 53zM416 724q48 -30 63 -30q13 0 29 13q15 11 57 56l47 -36q-57 -79 -85 -103
q-28 -25 -57 -25q-26 0 -83 37q-47 29 -62 29q-13 0 -30 -12q-17 -13 -57 -57l-47 37q59 81 87 104q27 24 56 24q26 0 82 -37z" />
    <glyph glyph-name="ograve" unicode="&#xf2;" horiz-adv-x="609" 
d="M571 294q0 -130 -87 -219q-89 -89 -213 -89q-103 0 -168 63t-65 163q0 132 87 220t213 88q104 0 168 -63q65 -63 65 -163zM453 289q0 58 -33.5 92.5t-88.5 34.5q-71 0 -123 -58t-52 -141q0 -58 33.5 -93t88.5 -35q70 0 123 59q52 58 52 141zM221 783h141l41 -176h-52z
" />
    <glyph glyph-name="oacute" unicode="&#xf3;" horiz-adv-x="609" 
d="M571 294q0 -130 -87 -219q-89 -89 -213 -89q-103 0 -168 63t-65 163q0 132 87 220t213 88q104 0 168 -63q65 -63 65 -163zM453 289q0 58 -33.5 92.5t-88.5 34.5q-71 0 -123 -58t-52 -141q0 -58 33.5 -93t88.5 -35q70 0 123 59q52 58 52 141zM619 783v-2l-221 -174h-61
l126 176h156z" />
    <glyph glyph-name="ocircumflex" unicode="&#xf4;" horiz-adv-x="609" 
d="M571 294q0 -130 -87 -219q-89 -89 -213 -89q-103 0 -168 63t-65 163q0 132 87 220t213 88q104 0 168 -63q65 -63 65 -163zM453 289q0 58 -33.5 92.5t-88.5 34.5q-71 0 -123 -58t-52 -141q0 -58 33.5 -93t88.5 -35q70 0 123 59q52 58 52 141zM472 783l79 -176h-54l-92 89
l-138 -89h-63v2l165 174h103z" />
    <glyph glyph-name="otilde" unicode="&#xf5;" horiz-adv-x="609" 
d="M571 294q0 -130 -87 -219q-89 -89 -213 -89q-103 0 -168 63t-65 163q0 132 87 220t213 88q104 0 168 -63q65 -63 65 -163zM453 289q0 58 -33.5 92.5t-88.5 34.5q-71 0 -123 -58t-52 -141q0 -58 33.5 -93t88.5 -35q70 0 123 59q52 58 52 141zM412 729q48 -30 63 -30
q13 0 29 13q15 11 57 56l47 -36q-57 -79 -85 -103q-28 -25 -57 -25q-26 0 -83 37q-47 29 -62 29q-13 0 -30 -12q-17 -14 -57 -57l-47 37q59 81 87 104q27 24 56 24q26 0 82 -37z" />
    <glyph glyph-name="odieresis" unicode="&#xf6;" horiz-adv-x="609" 
d="M571 294q0 -130 -87 -219q-89 -89 -213 -89q-103 0 -168 63t-65 163q0 132 87 220t213 88q104 0 168 -63q65 -63 65 -163zM453 289q0 58 -33.5 92.5t-88.5 34.5q-71 0 -123 -58t-52 -141q0 -58 33.5 -93t88.5 -35q70 0 123 59q52 58 52 141zM497 604q-30 0 -51 21t-21 51
t21.5 51.5t52.5 21.5q30 0 51 -20.5t21 -50.5q0 -31 -21.5 -52.5t-52.5 -21.5zM285 604q-30 0 -51 21t-21 51t21.5 51.5t52.5 21.5q30 0 51 -20.5t21 -50.5q0 -31 -21.5 -52.5t-52.5 -21.5z" />
    <glyph glyph-name="divide" unicode="&#xf7;" horiz-adv-x="600" 
d="M374 479q-32 0 -54.5 22t-22.5 54q0 33 23 56t56 23q32 0 54.5 -22.5t22.5 -54.5t-23 -55t-56 -23zM336 398l254 1l-25 -98l-253 1l-253 -1l24 98zM272 65q-32 0 -54.5 22.5t-22.5 54.5t23 55t56 23q32 0 54.5 -22t22.5 -54q0 -33 -23 -56t-56 -23z" />
    <glyph glyph-name="oslash" unicode="&#xf8;" horiz-adv-x="609" 
d="M331 421q-70 0 -125 -61t-55 -143q0 -37 12 -62l235 249q-29 17 -67 17zM278 85q71 0 126 61q54 62 54 143q0 37 -12 62l-235 -249q29 -17 67 -17zM571 294q0 -130 -87 -219q-89 -89 -213 -89q-75 0 -136 39l-62 -66h-101v2l109 115q-43 60 -43 136q0 132 87 220t213 88
q75 0 136 -39l62 66h101v-2l-109 -115q43 -60 43 -136z" />
    <glyph glyph-name="ugrave" unicode="&#xf9;" horiz-adv-x="605" 
d="M593 506l-126 -506h-117l20 79q-86 -89 -170 -89q-67 0 -109 41.5t-42 108.5q0 36 15 101l66 265h119l-71 -283q-8 -32 -8 -53q0 -36 19.5 -55.5t55.5 -19.5q62 0 144 67l86 344h118zM218 778h141l41 -176h-52z" />
    <glyph glyph-name="uacute" unicode="&#xfa;" horiz-adv-x="605" 
d="M593 506l-126 -506h-117l20 79q-86 -89 -170 -89q-67 0 -109 41.5t-42 108.5q0 36 15 101l66 265h119l-71 -283q-8 -32 -8 -53q0 -36 19.5 -55.5t55.5 -19.5q62 0 144 67l86 344h118zM616 778v-2l-221 -174h-61l126 176h156z" />
    <glyph glyph-name="ucircumflex" unicode="&#xfb;" horiz-adv-x="605" 
d="M593 506l-126 -506h-117l20 79q-86 -89 -170 -89q-67 0 -109 41.5t-42 108.5q0 36 15 101l66 265h119l-71 -283q-8 -32 -8 -53q0 -36 19.5 -55.5t55.5 -19.5q62 0 144 67l86 344h118zM469 778l79 -176h-54l-92 89l-138 -89h-63v2l165 174h103z" />
    <glyph glyph-name="udieresis" unicode="&#xfc;" horiz-adv-x="605" 
d="M593 506l-126 -506h-117l20 79q-86 -89 -170 -89q-67 0 -109 41.5t-42 108.5q0 36 15 101l66 265h119l-71 -283q-8 -32 -8 -53q0 -36 19.5 -55.5t55.5 -19.5q62 0 144 67l86 344h118zM494 599q-30 0 -51 21t-21 51t21.5 51.5t52.5 21.5q30 0 51 -20.5t21 -50.5
q0 -31 -21.5 -52.5t-52.5 -21.5zM282 599q-30 0 -51 21t-21 51t21.5 51.5t52.5 21.5q30 0 51 -20.5t21 -50.5q0 -31 -21.5 -52.5t-52.5 -21.5z" />
    <glyph glyph-name="yacute" unicode="&#xfd;" horiz-adv-x="566" 
d="M39 -194q-39 0 -69 14l-27 116l3 2q33 -23 81 -23q41 0 70.5 17.5t55.5 57.5l25 39l-98 477h122l62 -352l214 352h132l-355 -557q-47 -75 -98.5 -109t-117.5 -34zM600 778v-2l-221 -174h-61l126 176h156z" />
    <glyph glyph-name="thorn" unicode="&#xfe;" horiz-adv-x="619" 
d="M271 93q78 0 137 62q57 61 57 149q0 51 -27.5 80t-75.5 29q-65 0 -142 -57l-57 -230q47 -33 108 -33zM487 81q-89 -89 -210 -89q-79 0 -139 36l-54 -219h-119l227 912l128 38l-80 -321q81 77 168 77q76 0 126 -54q49 -55 49 -143q0 -143 -96 -237z" />
    <glyph glyph-name="ydieresis" unicode="&#xff;" horiz-adv-x="566" 
d="M39 -194q-39 0 -69 14l-27 116l3 2q33 -23 81 -23q41 0 70.5 17.5t55.5 57.5l25 39l-98 477h122l62 -352l214 352h132l-355 -557q-47 -75 -98.5 -109t-117.5 -34zM478 599q-30 0 -51 21t-21 51t21.5 51.5t52.5 21.5q30 0 51 -20.5t21 -50.5q0 -31 -21.5 -52.5
t-52.5 -21.5zM266 599q-30 0 -51 21t-21 51t21.5 51.5t52.5 21.5q30 0 51 -20.5t21 -50.5q0 -31 -21.5 -52.5t-52.5 -21.5z" />
    <glyph glyph-name="Amacron" unicode="&#x100;" horiz-adv-x="795" 
d="M483 567l-201 -297h253zM574 703l133 -703h-127l-28 163h-340l-109 -163h-141l483 703h129zM709 792h-373l20 83h374z" />
    <glyph glyph-name="amacron" unicode="&#x101;" horiz-adv-x="558" 
d="M496 242l-62 -232l-121 -20l22 81q-100 -79 -187 -79q-61 0 -98.5 35t-37.5 94q0 83 73.5 128.5t208.5 45.5q54 0 96 -6q2 32 2 33q0 42 -27 66t-76 24q-84 0 -183 -56l-2 2l51 123q75 34 160 34q90 0 142.5 -48.5t52.5 -130.5q0 -47 -14 -94zM126 138q0 -26 17 -40.5
t47 -14.5q69 0 162 58l22 84q-44 4 -68 4q-84 0 -132 -24.5t-48 -66.5zM546 625h-352l20 82h352z" />
    <glyph glyph-name="Abreve" unicode="&#x102;" horiz-adv-x="795" 
d="M483 567l-201 -297h253zM574 703l133 -703h-127l-28 163h-340l-109 -163h-141l483 703h129zM526 767q-61 0 -106 33t-62 90l52 37q41 -71 127 -71q75 0 156 71l48 -37q-38 -58 -95 -90.5t-120 -32.5z" />
    <glyph glyph-name="abreve" unicode="&#x103;" horiz-adv-x="558" 
d="M496 242l-62 -232l-121 -20l22 81q-100 -79 -187 -79q-61 0 -98.5 35t-37.5 94q0 83 73.5 128.5t208.5 45.5q54 0 96 -6q2 32 2 33q0 42 -27 66t-76 24q-84 0 -183 -56l-2 2l51 123q75 34 160 34q90 0 142.5 -48.5t52.5 -130.5q0 -47 -14 -94zM126 138q0 -26 17 -40.5
t47 -14.5q69 0 162 58l22 84q-44 4 -68 4q-84 0 -132 -24.5t-48 -66.5zM384 688q76 0 151 81l46 -39q-37 -64 -91 -99.5t-114 -35.5q-56 0 -99.5 36.5t-60.5 98.5l50 39q44 -81 118 -81z" />
    <glyph glyph-name="Aogonek" unicode="&#x104;" horiz-adv-x="795" 
d="M483 567l-201 -297h253zM688 -139h13l-30 -50q-28 -7 -65 -7q-42 0 -68 18.5t-26 48.5q0 43 68 103l30 26h-30l-28 163h-340l-109 -163h-141l483 703h129l133 -703h-23l-35 -40q-38 -46 -38 -65q0 -34 77 -34z" />
    <glyph glyph-name="aogonek" unicode="&#x105;" horiz-adv-x="558" 
d="M327 -194q-42 0 -68 18.5t-26 48.5q0 43 68 103l17 15l-5 -1l22 81q-100 -79 -187 -79q-61 0 -98.5 35t-37.5 94q0 83 73.5 128.5t208.5 45.5q54 0 96 -6q2 32 2 33q0 42 -27 66t-76 24q-84 0 -183 -56l-2 2l51 123q75 34 160 34q90 0 142.5 -48.5t52.5 -130.5
q0 -47 -14 -94l-62 -232l-25 -4l-39 -44q-38 -46 -38 -65q0 -34 77 -34h13l-30 -50q-28 -7 -65 -7zM126 138q0 -26 17 -40.5t47 -14.5q69 0 162 58l22 84q-44 4 -68 4q-84 0 -132 -24.5t-48 -66.5z" />
    <glyph glyph-name="Cacute" unicode="&#x106;" horiz-adv-x="707" 
d="M381 -12q-138 0 -223 85q-85 84 -85 222q0 172 117 295q122 122 292 122q147 0 246 -105l-28 -138l-2 -1q-95 127 -220 127q-110 0 -193 -86q-83 -88 -83 -204q0 -89 57 -144q56 -56 144 -56q122 0 251 110l4 -2l-66 -166q-89 -59 -211 -59zM748 921v-2l-216 -145h-72
l116 147h172z" />
    <glyph glyph-name="cacute" unicode="&#x107;" horiz-adv-x="525" 
d="M463 167l3 -2l-56 -140q-66 -37 -150 -37q-99 0 -161 59q-61 58 -61 157q0 133 89 224q89 89 217 89q94 0 169 -58l-24 -121l-3 -1q-62 73 -148 73q-73 0 -127 -57q-54 -59 -54 -137q0 -57 33.5 -88.5t94.5 -31.5q94 0 178 71zM603 783v-2l-221 -174h-61l126 176h156z
" />
    <glyph glyph-name="Ccircumflex" unicode="&#x108;" horiz-adv-x="707" 
d="M381 -12q-138 0 -223 85q-85 84 -85 222q0 172 117 295q122 122 292 122q147 0 246 -105l-28 -138l-2 -1q-95 127 -220 127q-110 0 -193 -86q-83 -88 -83 -204q0 -89 57 -144q56 -56 144 -56q122 0 251 110l4 -2l-66 -166q-89 -59 -211 -59zM596 921l92 -147h-64l-97 70
l-133 -70h-74v2l164 145h112z" />
    <glyph glyph-name="ccircumflex" unicode="&#x109;" horiz-adv-x="525" 
d="M463 167l3 -2l-56 -140q-66 -37 -150 -37q-99 0 -161 59q-61 58 -61 157q0 133 89 224q89 89 217 89q94 0 169 -58l-24 -121l-3 -1q-62 73 -148 73q-73 0 -127 -57q-54 -59 -54 -137q0 -57 33.5 -88.5t94.5 -31.5q94 0 178 71zM456 783l79 -176h-54l-92 89l-138 -89h-63
v2l165 174h103z" />
    <glyph glyph-name="Cdotaccent" unicode="&#x10a;" horiz-adv-x="707" 
d="M381 -12q-138 0 -223 85q-85 84 -85 222q0 172 117 295q122 122 292 122q147 0 246 -105l-28 -138l-2 -1q-95 127 -220 127q-110 0 -193 -86q-83 -88 -83 -204q0 -89 57 -144q56 -56 144 -56q122 0 251 110l4 -2l-66 -166q-89 -59 -211 -59zM519 917q31 0 52.5 -21
t21.5 -51q0 -31 -22 -52.5t-53 -21.5t-52 21t-21 51q0 31 21.5 52.5t52.5 21.5z" />
    <glyph glyph-name="cdotaccent" unicode="&#x10b;" horiz-adv-x="525" 
d="M463 167l3 -2l-56 -140q-66 -37 -150 -37q-99 0 -161 59q-61 58 -61 157q0 133 89 224q89 89 217 89q94 0 169 -58l-24 -121l-3 -1q-62 73 -148 73q-73 0 -127 -57q-54 -59 -54 -137q0 -57 33.5 -88.5t94.5 -31.5q94 0 178 71zM376 603q-30 0 -50.5 21t-20.5 51t21 51
t52 21q30 0 50.5 -20.5t20.5 -50.5t-21.5 -51.5t-51.5 -21.5z" />
    <glyph glyph-name="Ccaron" unicode="&#x10c;" horiz-adv-x="707" 
d="M381 -12q-138 0 -223 85q-85 84 -85 222q0 172 117 295q122 122 292 122q147 0 246 -105l-28 -138l-2 -1q-95 127 -220 127q-110 0 -193 -86q-83 -88 -83 -204q0 -89 57 -144q56 -56 144 -56q122 0 251 110l4 -2l-66 -166q-89 -59 -211 -59zM724 918v-2l-163 -145h-113
l-92 147h64l97 -70l133 70h74z" />
    <glyph glyph-name="ccaron" unicode="&#x10d;" horiz-adv-x="525" 
d="M463 167l3 -2l-56 -140q-66 -37 -150 -37q-99 0 -161 59q-61 58 -61 157q0 133 89 224q89 89 217 89q94 0 169 -58l-24 -121l-3 -1q-62 73 -148 73q-73 0 -127 -57q-54 -59 -54 -137q0 -57 33.5 -88.5t94.5 -31.5q94 0 178 71zM577 783v-2l-165 -174h-103l-79 176h54
l92 -89l138 89h63z" />
    <glyph glyph-name="Dcaron" unicode="&#x10e;" horiz-adv-x="778" 
d="M626 393q0 93 -63.5 143.5t-181.5 50.5h-81l-118 -474h99q147 0 247 80q98 80 98 200zM278 0h-250l174 700h196q169 0 263 -77.5t94 -217.5q0 -178 -134 -291q-133 -114 -343 -114zM725 913v-2l-163 -145h-113l-92 147h64l97 -70l133 70h74z" />
    <glyph glyph-name="dcaron" unicode="&#x10f;" horiz-adv-x="619" 
d="M154 202q0 -51 27 -80t75 -29q68 0 143 57l58 229q-46 33 -109 33q-79 0 -136 -61q-58 -61 -58 -149zM670 759l-189 -759h-117l18 71q-85 -81 -171 -81q-77 0 -126 55t-49 143q0 142 95 237q91 88 211 88q79 0 139 -36l61 244zM721 549h-52v2q55 66 55 146q0 27 -6 52
h102q0 -119 -99 -200z" />
    <glyph glyph-name="Dcroat" unicode="&#x110;" horiz-adv-x="799" 
d="M272 399h171l-22 -86h-170l-50 -200h102q146 0 246 80q99 79 99 200q0 93 -63.5 143.5t-181.5 50.5h-84zM304 0h-254l78 312h-90l22 88h89l75 300h197q168 0 262 -77.5t94 -216.5q0 -178 -134 -292q-133 -114 -339 -114z" />
    <glyph glyph-name="dslash" unicode="&#x111;" horiz-adv-x="627" 
d="M154 201q0 -51 27.5 -80t74.5 -29q67 0 143 57l56 223q-50 33 -108 33q-79 0 -136 -60t-57 -144zM626 581l-145 -581h-117l18 70q-81 -80 -171 -80q-77 0 -126 55t-49 143q0 136 93 231q87 87 211 87q78 0 139 -36l28 111h-136l17 70h137l17 70l128 38l-27 -108h75
l-18 -70h-74z" />
    <glyph glyph-name="Emacron" unicode="&#x112;" horiz-adv-x="587" 
d="M509 111l-59 -111h-422l174 700h432l-28 -111h-307l-45 -181h255l-27 -106h-254l-47 -191h328zM621 792h-373l20 83h374z" />
    <glyph glyph-name="emacron" unicode="&#x113;" horiz-adv-x="560" 
d="M417 311q0 55 -24.5 84.5t-69.5 29.5q-46 0 -92 -38q-47 -39 -66 -96h251q1 5 1 20zM467 139l2 -1l-25 -106q-85 -43 -188 -43q-99 0 -158.5 59.5t-59.5 158.5q0 130 89 222q88 91 211 91q87 0 138.5 -54t51.5 -146q0 -56 -14 -106h-363q5 -125 133 -125q94 0 183 50z
M547 630h-352l20 82h352z" />
    <glyph glyph-name="Ebreve" unicode="&#x114;" horiz-adv-x="587" 
d="M509 111l-59 -111h-422l174 700h432l-28 -111h-307l-45 -181h255l-27 -106h-254l-47 -191h328zM438 767q-61 0 -106 33t-62 90l52 37q41 -71 127 -71q75 0 156 71l48 -37q-38 -58 -95 -90.5t-120 -32.5z" />
    <glyph glyph-name="ebreve" unicode="&#x115;" horiz-adv-x="560" 
d="M417 311q0 55 -24.5 84.5t-69.5 29.5q-46 0 -92 -38q-47 -39 -66 -96h251q1 5 1 20zM467 139l2 -1l-25 -106q-85 -43 -188 -43q-99 0 -158.5 59.5t-59.5 158.5q0 130 89 222q88 91 211 91q87 0 138.5 -54t51.5 -146q0 -56 -14 -106h-363q5 -125 133 -125q94 0 183 50z
M385 693q76 0 151 81l46 -39q-37 -64 -91 -99.5t-114 -35.5q-56 0 -99.5 36.5t-60.5 98.5l50 39q44 -81 118 -81z" />
    <glyph glyph-name="Edotaccent" unicode="&#x116;" horiz-adv-x="587" 
d="M509 111l-59 -111h-422l174 700h432l-28 -111h-307l-45 -181h255l-27 -106h-254l-47 -191h328zM446 912q31 0 52.5 -21t21.5 -51q0 -31 -22 -52.5t-53 -21.5t-52 21t-21 51q0 31 21.5 52.5t52.5 21.5z" />
    <glyph glyph-name="edotaccent" unicode="&#x117;" horiz-adv-x="560" 
d="M417 311q0 55 -24.5 84.5t-69.5 29.5q-46 0 -92 -38q-47 -39 -66 -96h251q1 5 1 20zM467 139l2 -1l-25 -106q-85 -43 -188 -43q-99 0 -158.5 59.5t-59.5 158.5q0 130 89 222q88 91 211 91q87 0 138.5 -54t51.5 -146q0 -56 -14 -106h-363q5 -125 133 -125q94 0 183 50z
M382 603q-30 0 -50.5 21t-20.5 51t21 51t52 21q30 0 50.5 -20.5t20.5 -50.5t-21.5 -51.5t-51.5 -21.5z" />
    <glyph glyph-name="Eogonek" unicode="&#x118;" horiz-adv-x="587" 
d="M419 -139h13l-30 -50q-28 -7 -65 -7q-42 0 -68 18.5t-26 48.5q0 43 68 103l30 26h-313l174 700h432l-28 -111h-307l-45 -181h255l-27 -106h-254l-47 -191h328l-59 -111h-35l-35 -40q-38 -46 -38 -65q0 -34 77 -34z" />
    <glyph glyph-name="eogonek" unicode="&#x119;" horiz-adv-x="560" 
d="M348 -139h14l-30 -50q-35 -7 -65 -7q-42 0 -68 18.5t-26 48.5q0 56 83 100l38 19q-9 -1 -38 -1q-99 0 -158.5 59.5t-59.5 158.5q0 130 89 222q88 91 211 91q87 0 138.5 -54t51.5 -146q0 -56 -14 -106h-363q5 -125 133 -125q94 0 183 50l2 -1l-25 -106l-122 -82
q-51 -33 -51 -55q0 -34 77 -34zM417 311q0 55 -24.5 84.5t-69.5 29.5q-46 0 -92 -38q-47 -39 -66 -96h251q1 5 1 20z" />
    <glyph glyph-name="Ecaron" unicode="&#x11a;" horiz-adv-x="587" 
d="M509 111l-59 -111h-422l174 700h432l-28 -111h-307l-45 -181h255l-27 -106h-254l-47 -191h328zM651 913v-2l-163 -145h-113l-92 147h64l97 -70l133 70h74z" />
    <glyph glyph-name="ecaron" unicode="&#x11b;" horiz-adv-x="560" 
d="M417 311q0 55 -24.5 84.5t-69.5 29.5q-46 0 -92 -38q-47 -39 -66 -96h251q1 5 1 20zM467 139l2 -1l-25 -106q-85 -43 -188 -43q-99 0 -158.5 59.5t-59.5 158.5q0 130 89 222q88 91 211 91q87 0 138.5 -54t51.5 -146q0 -56 -14 -106h-363q5 -125 133 -125q94 0 183 50z
M583 783v-2l-165 -174h-103l-79 176h54l92 -89l138 89h63z" />
    <glyph glyph-name="Gcircumflex" unicode="&#x11c;" horiz-adv-x="786" 
d="M425 373h307l-82 -318q-119 -65 -259 -65q-144 0 -232 83q-87 83 -87 219q0 185 131 304q126 114 313 114q148 0 263 -69l-32 -119q-110 71 -237 71q-130 0 -219 -84q-90 -84 -90 -208q0 -91 56 -144t152 -53q77 0 140 27l36 139h-186zM608 921l92 -147h-64l-97 70
l-133 -70h-74v2l164 145h112z" />
    <glyph glyph-name="gcircumflex" unicode="&#x11d;" horiz-adv-x="619" 
d="M157 214q0 -49 26.5 -75.5t73.5 -26.5q68 0 150 63l54 220q-49 20 -98 20q-82 0 -144 -59q-62 -60 -62 -142zM200 -196q-110 0 -194 49l-18 123l3 2q98 -71 206 -71q140 0 177 131l17 58q-86 -80 -177 -80q-78 0 -126.5 51.5t-48.5 136.5q0 132 93 221q91 88 230 88
q79 0 143 -26l92 21l10 -3l-121 -485q-54 -216 -286 -216zM481 778l79 -176h-54l-92 89l-138 -89h-63v2l165 174h103z" />
    <glyph glyph-name="Gbreve" unicode="&#x11e;" horiz-adv-x="786" 
d="M425 373h307l-82 -318q-119 -65 -259 -65q-144 0 -232 83q-87 83 -87 219q0 185 131 304q126 114 313 114q148 0 263 -69l-32 -119q-110 71 -237 71q-130 0 -219 -84q-90 -84 -90 -208q0 -91 56 -144t152 -53q77 0 140 27l36 139h-186zM523 772q-61 0 -106 33t-62 90
l52 37q41 -71 127 -71q75 0 156 71l48 -37q-38 -58 -95 -90.5t-120 -32.5z" />
    <glyph glyph-name="gbreve" unicode="&#x11f;" horiz-adv-x="619" 
d="M157 214q0 -49 26.5 -75.5t73.5 -26.5q68 0 150 63l54 220q-49 20 -98 20q-82 0 -144 -59q-62 -60 -62 -142zM200 -196q-110 0 -194 49l-18 123l3 2q98 -71 206 -71q140 0 177 131l17 58q-86 -80 -177 -80q-78 0 -126.5 51.5t-48.5 136.5q0 132 93 221q91 88 230 88
q79 0 143 -26l92 21l10 -3l-121 -485q-54 -216 -286 -216zM404 688q76 0 151 81l46 -39q-37 -64 -91 -99.5t-114 -35.5q-56 0 -99.5 36.5t-60.5 98.5l50 39q44 -81 118 -81z" />
    <glyph glyph-name="Gdotaccent" unicode="&#x120;" horiz-adv-x="786" 
d="M425 373h307l-82 -318q-119 -65 -259 -65q-144 0 -232 83q-87 83 -87 219q0 185 131 304q126 114 313 114q148 0 263 -69l-32 -119q-110 71 -237 71q-130 0 -219 -84q-90 -84 -90 -208q0 -91 56 -144t152 -53q77 0 140 27l36 139h-186zM531 917q31 0 52.5 -21t21.5 -51
q0 -31 -22 -52.5t-53 -21.5t-52 21t-21 51q0 31 21.5 52.5t52.5 21.5z" />
    <glyph glyph-name="gdotaccent" unicode="&#x121;" horiz-adv-x="619" 
d="M157 214q0 -49 26.5 -75.5t73.5 -26.5q68 0 150 63l54 220q-49 20 -98 20q-82 0 -144 -59q-62 -60 -62 -142zM200 -196q-110 0 -194 49l-18 123l3 2q98 -71 206 -71q140 0 177 131l17 58q-86 -80 -177 -80q-78 0 -126.5 51.5t-48.5 136.5q0 132 93 221q91 88 230 88
q79 0 143 -26l92 21l10 -3l-121 -485q-54 -216 -286 -216zM401 598q-30 0 -50.5 21t-20.5 51t21 51t52 21q30 0 50.5 -20.5t20.5 -50.5t-21.5 -51.5t-51.5 -21.5z" />
    <glyph glyph-name="uni0122" unicode="&#x122;" horiz-adv-x="786" 
d="M425 373h307l-82 -318q-119 -65 -259 -65q-144 0 -232 83q-87 83 -87 219q0 185 131 304q126 114 313 114q148 0 263 -69l-32 -119q-110 71 -237 71q-130 0 -219 -84q-90 -84 -90 -208q0 -91 56 -144t152 -53q77 0 140 27l36 139h-186zM244 -118v3l125 35q56 -25 56 -65
q0 -65 -151 -117l-59 24v4q48 21 67.5 36.5t19.5 32.5q0 25 -58 47z" />
    <glyph glyph-name="uni0123" unicode="&#x123;" horiz-adv-x="619" 
d="M157 214q0 -49 26.5 -75.5t73.5 -26.5q68 0 150 63l54 220q-49 20 -98 20q-82 0 -144 -59q-62 -60 -62 -142zM200 -196q-110 0 -194 49l-18 123l3 2q98 -71 206 -71q140 0 177 131l17 58q-86 -80 -177 -80q-78 0 -126.5 51.5t-48.5 136.5q0 132 93 221q91 88 230 88
q79 0 143 -26l92 21l10 -3l-121 -485q-54 -216 -286 -216zM488 635v-4l-128 -35q-52 27 -52 68q0 74 154 127l59 -24v-3q-91 -46 -91 -80q0 -12 12.5 -22.5t45.5 -26.5z" />
    <glyph glyph-name="Hcircumflex" unicode="&#x124;" horiz-adv-x="804" 
d="M824 700l-174 -700h-126l74 298h-370l-74 -298h-126l174 700h126l-71 -286h370l71 286h126zM617 916l92 -147h-64l-97 70l-133 -70h-74v2l164 145h112z" />
    <glyph glyph-name="hcircumflex" unicode="&#x125;" horiz-adv-x="605" 
d="M435 336q0 36 -19.5 55.5t-55.5 19.5q-65 0 -144 -67l-86 -344h-118l179 721l128 38l-82 -331q87 88 168 88q67 0 109.5 -41.5t42.5 -108.5q0 -29 -16 -102l-66 -264h-119l71 283q8 30 8 53zM364 976l79 -176h-54l-92 89l-138 -89h-63v2l165 174h103z" />
    <glyph glyph-name="Hbar" unicode="&#x126;" horiz-adv-x="847" 
d="M303 517l-34 -136h374l34 136h-374zM800 514l-128 -514h-124l66 267h-374l-66 -267h-124l128 514h-91l21 82h90l26 104h124l-26 -105h374l26 105h124l-26 -104h90l-21 -82h-89z" />
    <glyph glyph-name="hbar" unicode="&#x127;" horiz-adv-x="614" 
d="M443 333q0 36 -19.5 55.5t-55.5 19.5q-65 0 -144 -67l-85 -341h-118l144 581h-75l18 70h75l17 70l128 38l-27 -108h137l-18 -70h-136l-39 -155q87 88 168 88q67 0 109.5 -41.5t42.5 -109.5q0 -42 -16 -101l-65 -262h-119l70 280q8 30 8 53z" />
    <glyph glyph-name="Itilde" unicode="&#x128;" horiz-adv-x="317" 
d="M333 700l-174 -700h-126l174 700h126zM318 881q44 -25 60 -25q26 0 84 59l44 -37q-43 -60 -74 -85.5t-61 -25.5q-24 0 -80 31q-44 25 -60 25q-26 0 -84 -59l-44 38q42 60 73.5 85t61.5 25q24 0 80 -31z" />
    <glyph glyph-name="itilde" unicode="&#x129;" horiz-adv-x="277" 
d="M261 506l-126 -506h-119l126 506h119zM258 724q48 -30 63 -30q13 0 29 13q15 11 57 56l47 -36q-57 -79 -85 -103q-28 -25 -57 -25q-26 0 -83 37q-47 29 -62 29q-13 0 -30 -12q-17 -13 -57 -57l-47 37q59 81 87 104q27 24 56 24q26 0 82 -37z" />
    <glyph glyph-name="Imacron" unicode="&#x12a;" horiz-adv-x="317" 
d="M333 700l-174 -700h-126l174 700h126zM435 792h-293l20 83h294z" />
    <glyph glyph-name="imacron" unicode="&#x12b;" horiz-adv-x="277" 
d="M261 506l-126 -506h-119l126 506h119zM373 625h-293l21 82h293z" />
    <glyph glyph-name="Ibreve" unicode="&#x12c;" horiz-adv-x="317" 
d="M333 700l-174 -700h-126l174 700h126zM292 767q-61 0 -106 33t-62 90l52 37q41 -71 127 -71q75 0 156 71l48 -37q-38 -58 -95 -90.5t-120 -32.5z" />
    <glyph glyph-name="ibreve" unicode="&#x12d;" horiz-adv-x="277" 
d="M261 506l-126 -506h-119l126 506h119zM241 688q76 0 151 81l46 -39q-37 -64 -91 -99.5t-114 -35.5q-56 0 -99.5 36.5t-60.5 98.5l50 39q44 -81 118 -81z" />
    <glyph glyph-name="Iogonek" unicode="&#x12e;" horiz-adv-x="317" 
d="M142 -139h13l-30 -50q-28 -7 -65 -7q-42 0 -68 18.5t-26 48.5q0 43 68 103l30 26h-31l174 700h126l-174 -700h-21l-35 -40q-38 -46 -38 -65q0 -34 77 -34z" />
    <glyph glyph-name="iogonek" unicode="&#x12f;" horiz-adv-x="277" 
d="M244 755q32 0 53.5 -21t21.5 -52t-22.5 -53t-54.5 -22t-53.5 21t-21.5 52q0 32 22 53.5t55 21.5zM122 -139h13l-30 -50q-28 -7 -65 -7q-42 0 -68 18.5t-26 48.5q0 43 68 103l30 26h-28l126 506h119l-126 -506h-17l-35 -40q-38 -46 -38 -65q0 -34 77 -34z" />
    <glyph glyph-name="Idot" unicode="&#x130;" horiz-adv-x="317" 
d="M333 700l-174 -700h-126l174 700h126zM300 912q31 0 52.5 -21t21.5 -51q0 -31 -22 -52.5t-53 -21.5t-52 21t-21 51q0 31 21.5 52.5t52.5 21.5z" />
    <glyph glyph-name="dotlessi" unicode="&#x131;" horiz-adv-x="277" 
d="M261 506l-126 -506h-119l126 506h119z" />
    <glyph glyph-name="Jcircumflex" unicode="&#x134;" horiz-adv-x="471" 
d="M137 106q86 0 110 95l123 499h127l-133 -531q-23 -91 -76 -135t-141 -44q-77 0 -127 41l-13 138l3 1q58 -64 127 -64zM541 916l92 -147h-64l-97 70l-133 -70h-74v2l164 145h112z" />
    <glyph glyph-name="jcircumflex" unicode="&#x135;" horiz-adv-x="277" 
d="M11 -21l132 527h118l-135 -542q-20 -81 -65 -119.5t-120 -38.5q-29 0 -56 8l-16 92l2 3q23 -9 44 -9q41 0 63.5 18.5t32.5 60.5zM319 778l79 -176h-54l-92 89l-138 -89h-63v2l165 174h103z" />
    <glyph glyph-name="uni0136" unicode="&#x136;" horiz-adv-x="705" 
d="M628 3v-3h-153l-224 305h-21l-76 -305h-126l174 700h126l-72 -291h21l351 291h167v-3l-431 -350zM198 -114v3l125 35q56 -25 56 -65q0 -65 -151 -117l-59 24v4q48 21 67.5 36.5t19.5 32.5q0 25 -58 47z" />
    <glyph glyph-name="uni0137" unicode="&#x137;" horiz-adv-x="563" 
d="M491 2v-2h-136l-146 216h-25l-54 -216h-118l179 721l128 38l-115 -461h25l225 208h150v-3l-285 -256zM135 -114v3l125 35q56 -25 56 -65q0 -65 -151 -117l-59 24v4q48 21 67.5 36.5t19.5 32.5q0 25 -58 47z" />
    <glyph glyph-name="Lacute" unicode="&#x139;" horiz-adv-x="542" 
d="M471 113l-29 -113h-414l174 700h126l-146 -587h289zM524 916v-2l-216 -145h-72l116 147h172z" />
    <glyph glyph-name="lacute" unicode="&#x13a;" horiz-adv-x="277" 
d="M324 759l-189 -759h-119l180 721zM519 993v-2l-221 -174h-61l126 176h156z" />
    <glyph glyph-name="uni013B" unicode="&#x13b;" horiz-adv-x="542" 
d="M471 113l-29 -113h-414l174 700h126l-146 -587h289zM124 -114v3l125 35q56 -25 56 -65q0 -65 -151 -117l-59 24v4q48 21 67.5 36.5t19.5 32.5q0 25 -58 47z" />
    <glyph glyph-name="uni013C" unicode="&#x13c;" horiz-adv-x="277" 
d="M324 759l-189 -759h-119l180 721zM-46 -114v3l125 35q56 -25 56 -65q0 -65 -151 -117l-59 24v4q48 21 67.5 36.5t19.5 32.5q0 25 -58 47z" />
    <glyph glyph-name="Lcaron" unicode="&#x13d;" horiz-adv-x="542" 
d="M471 113l-29 -113h-414l174 700h126l-146 -587h289zM406 549h-52v2q55 66 55 146q0 27 -6 52h102q0 -119 -99 -200z" />
    <glyph glyph-name="lcaron" unicode="&#x13e;" horiz-adv-x="277" 
d="M324 759l-189 -759h-119l180 721zM375 549h-52v2q55 66 55 146q0 27 -6 52h102q0 -119 -99 -200z" />
    <glyph glyph-name="Lslash" unicode="&#x141;" horiz-adv-x="562" 
d="M491 113l-29 -113h-414l58 232l-106 -66l-2 1l29 117l108 67l87 349h126l-67 -271l184 116l2 -1l-30 -117l-185 -115l-50 -199h289z" />
    <glyph glyph-name="lslash" unicode="&#x142;" horiz-adv-x="328" 
d="M354 416l-105 -58l-89 -358h-118l72 292l-103 -59l-2 1l27 106l105 58l80 323l128 38l-74 -296l104 59l2 -1z" />
    <glyph glyph-name="Nacute" unicode="&#x143;" horiz-adv-x="816" 
d="M715 700h121l-174 -704h-62l-320 534l-130 -530h-122l174 700h119l279 -465zM770 916v-2l-216 -145h-72l116 147h172z" />
    <glyph glyph-name="nacute" unicode="&#x144;" horiz-adv-x="605" 
d="M435 336q0 36 -19.5 55.5t-55.5 19.5q-65 0 -144 -67l-86 -344h-118l123 493l122 20l-21 -86q86 89 169 89q67 0 109.5 -41.5t42.5 -108.5q0 -29 -16 -102l-66 -264h-119l71 283q8 30 8 53zM623 778v-2l-221 -174h-61l126 176h156z" />
    <glyph glyph-name="uni0145" unicode="&#x145;" horiz-adv-x="816" 
d="M715 700h121l-174 -704h-62l-320 534l-130 -530h-122l174 700h119l279 -465zM248 -114v3l125 35q56 -25 56 -65q0 -65 -151 -117l-59 24v4q48 21 67.5 36.5t19.5 32.5q0 25 -58 47z" />
    <glyph glyph-name="uni0146" unicode="&#x146;" horiz-adv-x="605" 
d="M435 336q0 36 -19.5 55.5t-55.5 19.5q-65 0 -144 -67l-86 -344h-118l123 493l122 20l-21 -86q86 89 169 89q67 0 109.5 -41.5t42.5 -108.5q0 -29 -16 -102l-66 -264h-119l71 283q8 30 8 53zM135 -109v3l125 35q56 -25 56 -65q0 -65 -151 -117l-59 24v4q48 21 67.5 36.5
t19.5 32.5q0 25 -58 47z" />
    <glyph glyph-name="Ncaron" unicode="&#x147;" horiz-adv-x="816" 
d="M715 700h121l-174 -704h-62l-320 534l-130 -530h-122l174 700h119l279 -465zM746 913v-2l-163 -145h-113l-92 147h64l97 -70l133 70h74z" />
    <glyph glyph-name="ncaron" unicode="&#x148;" horiz-adv-x="605" 
d="M435 336q0 36 -19.5 55.5t-55.5 19.5q-65 0 -144 -67l-86 -344h-118l123 493l122 20l-21 -86q86 89 169 89q67 0 109.5 -41.5t42.5 -108.5q0 -29 -16 -102l-66 -264h-119l71 283q8 30 8 53zM597 778v-2l-165 -174h-103l-79 176h54l92 -89l138 89h63z" />
    <glyph glyph-name="Eng" unicode="&#x14a;" horiz-adv-x="816" 
d="M433 -205q-54 0 -91 15l-11 112l2 1q41 -20 83 -20q101 0 132 119l5 19l-273 487l-130 -528h-122l174 700h119l273 -489l121 489h121l-176 -709q-25 -100 -80.5 -148t-146.5 -48z" />
    <glyph glyph-name="eng" unicode="&#x14b;" horiz-adv-x="605" 
d="M289 -194q-36 0 -66 9l-13 93l2 2q24 -10 51 -10q69 0 89 82l75 301q8 30 8 53q0 36 -19.5 55.5t-55.5 19.5q-65 0 -144 -67l-86 -344h-118l123 493l122 20l-21 -86q86 89 169 89q67 0 109.5 -41.5t42.5 -108.5q0 -29 -16 -102l-75 -301q-40 -157 -177 -157z" />
    <glyph glyph-name="Omacron" unicode="&#x14c;" horiz-adv-x="830" 
d="M686 108q-122 -122 -294 -122q-142 0 -230 87q-89 86 -89 224q0 175 120 295q119 122 294 122q140 0 229 -86q89 -87 89 -225q0 -174 -119 -295zM203 305q0 -91 56 -147t144 -56q109 0 192 86q81 86 81 207q0 92 -56 148q-55 55 -145 55q-110 0 -191 -86t-81 -207z
M711 797h-373l20 83h374z" />
    <glyph glyph-name="omacron" unicode="&#x14d;" horiz-adv-x="609" 
d="M571 294q0 -130 -87 -219q-89 -89 -213 -89q-103 0 -168 63t-65 163q0 132 87 220t213 88q104 0 168 -63q65 -63 65 -163zM453 289q0 58 -33.5 92.5t-88.5 34.5q-71 0 -123 -58t-52 -141q0 -58 33.5 -93t88.5 -35q70 0 123 59q52 58 52 141zM557 630h-352l20 82h352z" />
    <glyph glyph-name="Obreve" unicode="&#x14e;" horiz-adv-x="830" 
d="M686 108q-122 -122 -294 -122q-142 0 -230 87q-89 86 -89 224q0 175 120 295q119 122 294 122q140 0 229 -86q89 -87 89 -225q0 -174 -119 -295zM203 305q0 -91 56 -147t144 -56q109 0 192 86q81 86 81 207q0 92 -56 148q-55 55 -145 55q-110 0 -191 -86t-81 -207z
M528 772q-61 0 -106 33t-62 90l52 37q41 -71 127 -71q75 0 156 71l48 -37q-38 -58 -95 -90.5t-120 -32.5z" />
    <glyph glyph-name="obreve" unicode="&#x14f;" horiz-adv-x="609" 
d="M571 294q0 -130 -87 -219q-89 -89 -213 -89q-103 0 -168 63t-65 163q0 132 87 220t213 88q104 0 168 -63q65 -63 65 -163zM453 289q0 58 -33.5 92.5t-88.5 34.5q-71 0 -123 -58t-52 -141q0 -58 33.5 -93t88.5 -35q70 0 123 59q52 58 52 141zM395 693q76 0 151 81l46 -39
q-37 -64 -91 -99.5t-114 -35.5q-56 0 -99.5 36.5t-60.5 98.5l50 39q44 -81 118 -81z" />
    <glyph glyph-name="Ohungarumlaut" unicode="&#x150;" horiz-adv-x="830" 
d="M686 108q-122 -122 -294 -122q-142 0 -230 87q-89 86 -89 224q0 175 120 295q119 122 294 122q140 0 229 -86q89 -87 89 -225q0 -174 -119 -295zM203 305q0 -91 56 -147t144 -56q109 0 192 86q81 86 81 207q0 92 -56 148q-55 55 -145 55q-110 0 -191 -86t-81 -207z
M832 921v-2l-199 -145h-69l112 147h156zM640 921v-2l-199 -145h-69l112 147h156z" />
    <glyph glyph-name="ohungarumlaut" unicode="&#x151;" horiz-adv-x="609" 
d="M571 294q0 -130 -87 -219q-89 -89 -213 -89q-103 0 -168 63t-65 163q0 132 87 220t213 88q104 0 168 -63q65 -63 65 -163zM453 289q0 58 -33.5 92.5t-88.5 34.5q-71 0 -123 -58t-52 -141q0 -58 33.5 -93t88.5 -35q70 0 123 59q52 58 52 141zM694 783v-2l-213 -174h-57
l125 176h145zM504 783v-2l-213 -174h-57l125 176h145z" />
    <glyph glyph-name="OE" unicode="&#x152;" horiz-adv-x="1011" 
d="M200 307q0 -94 63.5 -144.5t180.5 -50.5h37l118 476h-55q-145 0 -245 -80q-99 -81 -99 -201zM934 111l-60 -111h-448q-168 0 -262 77.5t-94 216.5q0 178 134 292t340 114h514l-28 -111h-306l-45 -181h255l-27 -106h-254l-47 -191h328z" />
    <glyph glyph-name="oe" unicode="&#x153;" horiz-adv-x="966" 
d="M823 311q0 55 -24.5 84.5t-69.5 29.5q-46 0 -92 -38q-47 -39 -66 -96h251q1 5 1 20zM453 289q0 58 -33.5 92.5t-88.5 34.5q-71 0 -123 -58t-52 -141q0 -58 33.5 -93t88.5 -35q70 0 123 59q52 58 52 141zM662 -11q-122 0 -177 97q-86 -100 -214 -100q-103 0 -168 63
t-65 163q0 132 87 220t213 88q63 0 113 -28t78 -78q41 50 97.5 78t117.5 28q87 0 139 -54t52 -146q0 -48 -15 -106h-363q5 -125 133 -125q93 0 184 50l2 -1l-26 -106q-85 -43 -188 -43z" />
    <glyph glyph-name="Racute" unicode="&#x154;" horiz-adv-x="648" 
d="M494 501q0 44 -29 68t-82 24h-84l-55 -223h94q68 0 112 37q44 38 44 94zM410 280l190 -280h-143l-179 268h-58l-66 -268h-126l174 700h196q104 0 163.5 -50t59.5 -137q0 -86 -57 -148.5t-154 -84.5zM687 916v-2l-216 -145h-72l116 147h172z" />
    <glyph glyph-name="racute" unicode="&#x155;" horiz-adv-x="420" 
d="M390 389q-75 0 -183 -81l-77 -308h-118l123 493l122 20l-31 -122q66 74 103 98q37 25 80 25q11 0 40 -6l-21 -124q-15 5 -38 5zM559 778v-2l-221 -174h-61l126 176h156z" />
    <glyph glyph-name="uni0156" unicode="&#x156;" horiz-adv-x="648" 
d="M494 501q0 44 -29 68t-82 24h-84l-55 -223h94q68 0 112 37q44 38 44 94zM410 280l190 -280h-143l-179 268h-58l-66 -268h-126l174 700h196q104 0 163.5 -50t59.5 -137q0 -86 -57 -148.5t-154 -84.5zM187 -114v3l125 35q56 -25 56 -65q0 -65 -151 -117l-59 24v4
q48 21 67.5 36.5t19.5 32.5q0 25 -58 47z" />
    <glyph glyph-name="uni0157" unicode="&#x157;" horiz-adv-x="420" 
d="M390 389q-75 0 -183 -81l-77 -308h-118l123 493l122 20l-31 -122q66 74 103 98q37 25 80 25q11 0 40 -6l-21 -124q-15 5 -38 5zM-46 -114v3l125 35q56 -25 56 -65q0 -65 -151 -117l-59 24v4q48 21 67.5 36.5t19.5 32.5q0 25 -58 47z" />
    <glyph glyph-name="Rcaron" unicode="&#x158;" horiz-adv-x="648" 
d="M494 501q0 44 -29 68t-82 24h-84l-55 -223h94q68 0 112 37q44 38 44 94zM410 280l190 -280h-143l-179 268h-58l-66 -268h-126l174 700h196q104 0 163.5 -50t59.5 -137q0 -86 -57 -148.5t-154 -84.5zM663 913v-2l-163 -145h-113l-92 147h64l97 -70l133 70h74z" />
    <glyph glyph-name="rcaron" unicode="&#x159;" horiz-adv-x="420" 
d="M390 389q-75 0 -183 -81l-77 -308h-118l123 493l122 20l-31 -122q66 74 103 98q37 25 80 25q11 0 40 -6l-21 -124q-15 5 -38 5zM533 778v-2l-165 -174h-103l-79 176h54l92 -89l138 89h63z" />
    <glyph glyph-name="Sacute" unicode="&#x15a;" horiz-adv-x="557" 
d="M273 305q-82 50 -114.5 94.5t-32.5 104.5q0 91 68 150q67 58 174 58q104 0 192 -52l-6 -130l-2 -1q-91 71 -188 71q-51 0 -83 -23t-32 -59q0 -30 21.5 -54.5t81.5 -60.5q81 -49 114 -94t33 -107q0 -97 -67 -155q-68 -59 -177 -59q-60 0 -117 20.5t-97 56.5l-20 155l2 1
q119 -121 233 -121q54 0 87 24.5t33 63.5q0 31 -21.5 56t-81.5 61zM645 921v-2l-216 -145h-72l116 147h172z" />
    <glyph glyph-name="sacute" unicode="&#x15b;" horiz-adv-x="500" 
d="M225 208q-77 29 -110 64t-33 89q0 69 57 112q58 44 148 44q99 0 177 -49l-4 -113l-3 -1q-89 67 -175 67q-39 0 -63 -14t-24 -37q0 -22 19 -37t71 -34q75 -29 108.5 -65t33.5 -88q0 -71 -58 -114t-154 -43q-109 0 -186 53l-14 121l3 2q93 -80 202 -80q42 0 68 14.5
t26 36.5q0 20 -20 35.5t-69 36.5zM570 780v-2l-221 -174h-61l126 176h156z" />
    <glyph glyph-name="Scircumflex" unicode="&#x15c;" horiz-adv-x="557" 
d="M273 305q-82 50 -114.5 94.5t-32.5 104.5q0 91 68 150q67 58 174 58q104 0 192 -52l-6 -130l-2 -1q-91 71 -188 71q-51 0 -83 -23t-32 -59q0 -30 21.5 -54.5t81.5 -60.5q81 -49 114 -94t33 -107q0 -97 -67 -155q-68 -59 -177 -59q-60 0 -117 20.5t-97 56.5l-20 155l2 1
q119 -121 233 -121q54 0 87 24.5t33 63.5q0 31 -21.5 56t-81.5 61zM493 921l92 -147h-64l-97 70l-133 -70h-74v2l164 145h112z" />
    <glyph glyph-name="scircumflex" unicode="&#x15d;" horiz-adv-x="500" 
d="M225 208q-77 29 -110 64t-33 89q0 69 57 112q58 44 148 44q99 0 177 -49l-4 -113l-3 -1q-89 67 -175 67q-39 0 -63 -14t-24 -37q0 -22 19 -37t71 -34q75 -29 108.5 -65t33.5 -88q0 -71 -58 -114t-154 -43q-109 0 -186 53l-14 121l3 2q93 -80 202 -80q42 0 68 14.5
t26 36.5q0 20 -20 35.5t-69 36.5zM423 780l79 -176h-54l-92 89l-138 -89h-63v2l165 174h103z" />
    <glyph glyph-name="uni015E" unicode="&#x15e;" horiz-adv-x="557" 
d="M328 -122q0 -38 -38 -61.5t-101 -23.5q-22 0 -71 9l-23 53l3 4q38 -15 80 -15q63 0 63 31q0 25 -48 25q-18 0 -45 -4l-2 4l60 92q-96 14 -165 73l-20 155l2 1q119 -121 233 -121q54 0 87 24.5t33 63.5q0 31 -21.5 56t-81.5 61q-82 50 -114.5 94.5t-32.5 104.5
q0 91 68 150q67 58 174 58q104 0 192 -52l-6 -130l-2 -1q-91 71 -188 71q-51 0 -83 -23t-32 -59q0 -30 21.5 -54.5t81.5 -60.5q81 -49 114 -94t33 -107q0 -92 -61 -150q-63 -60 -165 -64l-27 -40q36 -2 59 -21.5t23 -48.5z" />
    <glyph glyph-name="uni015F" unicode="&#x15f;" horiz-adv-x="500" 
d="M289 -119q0 -38 -38 -61.5t-101 -23.5q-22 0 -71 9l-23 53l3 4q38 -15 80 -15q63 0 63 31q0 25 -48 25q-18 0 -45 -4l-2 4l58 89q-79 12 -136 50l-14 121l3 2q93 -80 202 -80q42 0 68 14.5t26 36.5q0 20 -20 35.5t-69 36.5q-77 29 -110 64t-33 89q0 69 57 112
q58 44 148 44q99 0 177 -49l-4 -113l-3 -1q-89 67 -175 67q-39 0 -63 -14t-24 -37q0 -22 19 -37t71 -34q75 -29 108.5 -65t33.5 -88q0 -67 -53 -109.5t-142 -47.5l-25 -38q36 -2 59 -21.5t23 -48.5z" />
    <glyph glyph-name="Scaron" unicode="&#x160;" horiz-adv-x="557" 
d="M273 305q-82 50 -114.5 94.5t-32.5 104.5q0 91 68 150q67 58 174 58q104 0 192 -52l-6 -130l-2 -1q-91 71 -188 71q-51 0 -83 -23t-32 -59q0 -30 21.5 -54.5t81.5 -60.5q81 -49 114 -94t33 -107q0 -97 -67 -155q-68 -59 -177 -59q-60 0 -117 20.5t-97 56.5l-20 155l2 1
q119 -121 233 -121q54 0 87 24.5t33 63.5q0 31 -21.5 56t-81.5 61zM621 918v-2l-163 -145h-113l-92 147h64l97 -70l133 70h74z" />
    <glyph glyph-name="scaron" unicode="&#x161;" horiz-adv-x="500" 
d="M225 208q-77 29 -110 64t-33 89q0 69 57 112q58 44 148 44q99 0 177 -49l-4 -113l-3 -1q-89 67 -175 67q-39 0 -63 -14t-24 -37q0 -22 19 -37t71 -34q75 -29 108.5 -65t33.5 -88q0 -71 -58 -114t-154 -43q-109 0 -186 53l-14 121l3 2q93 -80 202 -80q42 0 68 14.5
t26 36.5q0 20 -20 35.5t-69 36.5zM544 780v-2l-165 -174h-103l-79 176h54l92 -89l138 89h63z" />
    <glyph glyph-name="uni0162" unicode="&#x162;" horiz-adv-x="708" 
d="M383 -117q0 -38 -38 -61.5t-101 -23.5q-22 0 -71 9l-23 53l3 4q38 -15 80 -15q63 0 63 31q0 25 -48 25q-18 0 -45 -4l-2 4l62 95h-33l146 587h-259l28 113h641l-29 -113h-255l-146 -587h-24l-31 -47q36 -2 59 -21.5t23 -48.5z" />
    <glyph glyph-name="uni0163" unicode="&#x163;" horiz-adv-x="456" 
d="M308 -117q0 -38 -38 -61.5t-101 -23.5q-22 0 -71 9l-23 53l3 4q38 -15 80 -15q63 0 63 31q0 25 -48 25q-18 0 -45 -4l-2 4l61 93q-47 15 -73 53t-26 92q0 31 10 71l54 195h-82l25 97h84l30 108l127 37l-40 -145h182l-25 -97h-184l-57 -208q-6 -23 -6 -40q0 -32 20 -50
t54 -18q61 0 114 46l3 -2l-38 -121q-52 -27 -109 -27l-24 -36q36 -2 59 -21.5t23 -48.5z" />
    <glyph glyph-name="Tcaron" unicode="&#x164;" horiz-adv-x="708" 
d="M145 700h641l-29 -113h-255l-146 -587h-126l146 587h-259zM703 913v-2l-163 -145h-113l-92 147h64l97 -70l133 70h74z" />
    <glyph glyph-name="tcaron" unicode="&#x165;" horiz-adv-x="456" 
d="M394 139l3 -2l-38 -121q-52 -27 -111 -27q-74 0 -117 41.5t-43 112.5q0 31 10 71l54 195h-82l25 97h84l30 108l127 37l-40 -145h182l-25 -97h-184l-57 -208q-6 -23 -6 -40q0 -32 20 -50t54 -18q61 0 114 46zM420 568h-52v2q55 66 55 146q0 26 -6 52h102q0 -119 -99 -200z
" />
    <glyph glyph-name="Tbar" unicode="&#x166;" horiz-adv-x="708" 
d="M448 369h149l-23 -87h-148l-70 -282h-126l70 282h-148l22 87h148l54 218h-259l28 113h641l-29 -113h-255z" />
    <glyph glyph-name="tbar" unicode="&#x167;" horiz-adv-x="456" 
d="M393 137l3 -2l-37 -119q-52 -27 -111 -27q-74 0 -117 41.5t-43 112.5q0 31 10 71l6 23h-76l17 70h79l29 104h-82l24 95h84l30 108l127 37l-40 -145h182l-24 -95h-184l-29 -104h149l-17 -70h-151l-11 -39q-6 -22 -6 -40q0 -32 19.5 -50t54.5 -18q63 0 114 47z" />
    <glyph glyph-name="Utilde" unicode="&#x168;" horiz-adv-x="782" 
d="M91 239q0 47 14 103l89 358h126l-92 -371q-11 -46 -11 -76q0 -71 41 -111t113 -40q78 0 135.5 51t80.5 141l101 406h123l-106 -425q-71 -287 -348 -287q-121 0 -194 68q-72 68 -72 183zM550 881q44 -25 60 -25q26 0 84 59l44 -37q-43 -60 -74 -85.5t-61 -25.5
q-24 0 -80 31q-44 25 -60 25q-26 0 -84 -59l-44 38q42 60 73.5 85t61.5 25q24 0 80 -31z" />
    <glyph glyph-name="utilde" unicode="&#x169;" horiz-adv-x="605" 
d="M593 506l-126 -506h-117l20 79q-86 -89 -170 -89q-67 0 -109 41.5t-42 108.5q0 36 15 101l66 265h119l-71 -283q-8 -32 -8 -53q0 -36 19.5 -55.5t55.5 -19.5q62 0 144 67l86 344h118zM409 724q48 -30 63 -30q13 0 29 13q15 11 57 56l47 -36q-57 -79 -85 -103
q-28 -25 -57 -25q-26 0 -83 37q-47 29 -62 29q-14 0 -30 -12q-16 -13 -57 -57l-47 37q59 81 87 104q27 24 56 24q26 0 82 -37z" />
    <glyph glyph-name="Umacron" unicode="&#x16a;" horiz-adv-x="782" 
d="M91 239q0 47 14 103l89 358h126l-92 -371q-11 -46 -11 -76q0 -71 41 -111t113 -40q78 0 135.5 51t80.5 141l101 406h123l-106 -425q-71 -287 -348 -287q-121 0 -194 68q-72 68 -72 183zM707 792h-373l20 83h374z" />
    <glyph glyph-name="umacron" unicode="&#x16b;" horiz-adv-x="605" 
d="M593 506l-126 -506h-117l20 79q-86 -89 -170 -89q-67 0 -109 41.5t-42 108.5q0 36 15 101l66 265h119l-71 -283q-8 -32 -8 -53q0 -36 19.5 -55.5t55.5 -19.5q62 0 144 67l86 344h118zM554 625h-352l20 82h352z" />
    <glyph glyph-name="Ubreve" unicode="&#x16c;" horiz-adv-x="782" 
d="M91 239q0 47 14 103l89 358h126l-92 -371q-11 -46 -11 -76q0 -71 41 -111t113 -40q78 0 135.5 51t80.5 141l101 406h123l-106 -425q-71 -287 -348 -287q-121 0 -194 68q-72 68 -72 183zM524 767q-61 0 -106 33t-62 90l52 37q41 -71 127 -71q75 0 156 71l48 -37
q-38 -58 -95 -90.5t-120 -32.5z" />
    <glyph glyph-name="ubreve" unicode="&#x16d;" horiz-adv-x="605" 
d="M593 506l-126 -506h-117l20 79q-86 -89 -170 -89q-67 0 -109 41.5t-42 108.5q0 36 15 101l66 265h119l-71 -283q-8 -32 -8 -53q0 -36 19.5 -55.5t55.5 -19.5q62 0 144 67l86 344h118zM392 688q76 0 151 81l46 -39q-37 -64 -91 -99.5t-114 -35.5q-56 0 -99.5 36.5
t-60.5 98.5l50 39q44 -81 118 -81z" />
    <glyph glyph-name="Uring" unicode="&#x16e;" horiz-adv-x="782" 
d="M91 239q0 47 14 103l89 358h126l-92 -371q-11 -46 -11 -76q0 -71 41 -111t113 -40q78 0 135.5 51t80.5 141l101 406h123l-106 -425q-71 -287 -348 -287q-121 0 -194 68q-72 68 -72 183zM416 877q0 51 40 88t95 37q53 0 88 -32t35 -80q0 -51 -40 -87q-40 -37 -95 -37
q-53 0 -88 31.5t-35 79.5zM467 878q0 -28 20.5 -46t53.5 -18q34 0 57.5 21.5t23.5 53.5q0 28 -20.5 46.5t-52.5 18.5q-34 0 -58 -22t-24 -54z" />
    <glyph glyph-name="uring" unicode="&#x16f;" horiz-adv-x="605" 
d="M593 506l-126 -506h-117l20 79q-86 -89 -170 -89q-67 0 -109 41.5t-42 108.5q0 36 15 101l66 265h119l-71 -283q-8 -32 -8 -53q0 -36 19.5 -55.5t55.5 -19.5q62 0 144 67l86 344h118zM526 732q0 -54 -39 -95q-40 -40 -94 -40q-51 0 -85 34t-34 85q0 55 40 95q39 39 93 39
q51 0 85 -34t34 -84zM326 717q0 -31 19.5 -51.5t49.5 -20.5q33 0 56 25t23 61q0 31 -19.5 51t-49.5 20q-33 0 -56 -25t-23 -60z" />
    <glyph glyph-name="Uhungarumlaut" unicode="&#x170;" horiz-adv-x="782" 
d="M91 239q0 47 14 103l89 358h126l-92 -371q-11 -46 -11 -76q0 -71 41 -111t113 -40q78 0 135.5 51t80.5 141l101 406h123l-106 -425q-71 -287 -348 -287q-121 0 -194 68q-72 68 -72 183zM828 916v-2l-199 -145h-69l112 147h156zM636 916v-2l-199 -145h-69l112 147h156z
" />
    <glyph glyph-name="uhungarumlaut" unicode="&#x171;" horiz-adv-x="605" 
d="M593 506l-126 -506h-117l20 79q-86 -89 -170 -89q-67 0 -109 41.5t-42 108.5q0 36 15 101l66 265h119l-71 -283q-8 -32 -8 -53q0 -36 19.5 -55.5t55.5 -19.5q62 0 144 67l86 344h118zM691 778v-2l-213 -174h-57l125 176h145zM501 778v-2l-213 -174h-57l125 176h145z" />
    <glyph glyph-name="Uogonek" unicode="&#x172;" horiz-adv-x="782" 
d="M299 -201q-42 0 -68 18.5t-26 48.5q0 43 68 103l27 23q-98 16 -153.5 81.5t-55.5 165.5q0 47 14 103l89 358h126l-92 -371q-11 -46 -11 -76q0 -71 41 -111t113 -40q78 0 135.5 51t80.5 141l101 406h123l-106 -425q-68 -279 -334 -287l-29 -33q-38 -46 -38 -65
q0 -34 77 -34h13l-30 -50q-28 -7 -65 -7z" />
    <glyph glyph-name="uogonek" unicode="&#x173;" horiz-adv-x="605" 
d="M456 -139h13l-30 -50q-28 -7 -65 -7q-42 0 -68 18.5t-26 48.5q0 43 68 103l30 26h-28l20 79q-86 -89 -170 -89q-67 0 -109 41.5t-42 108.5q0 36 15 101l66 265h119l-71 -283q-8 -32 -8 -53q0 -36 19.5 -55.5t55.5 -19.5q62 0 144 67l86 344h118l-126 -506h-15l-35 -40
q-38 -46 -38 -65q0 -34 77 -34z" />
    <glyph glyph-name="Wcircumflex" unicode="&#x174;" horiz-adv-x="1160" 
d="M623 444l-296 -448h-123l-60 704h131l34 -535l360 544h17l111 -544l302 535h142l-412 -704h-117zM786 916l92 -147h-64l-97 70l-133 -70h-74v2l164 145h112z" />
    <glyph glyph-name="wcircumflex" unicode="&#x175;" horiz-adv-x="881" 
d="M449 290l-208 -297h-99l-61 513h118l32 -359l259 365h17l81 -365l209 359h128l-314 -513h-99zM612 778l79 -176h-54l-92 89l-138 -89h-63v2l165 174h103z" />
    <glyph glyph-name="Ycircumflex" unicode="&#x176;" horiz-adv-x="675" 
d="M777 698l-368 -404l-74 -294h-126l76 307l-166 393h133l117 -289l256 289h152v-2zM546 916l92 -147h-64l-97 70l-133 -70h-74v2l164 145h112z" />
    <glyph glyph-name="ycircumflex" unicode="&#x177;" horiz-adv-x="566" 
d="M39 -194q-39 0 -69 14l-27 116l3 2q33 -23 81 -23q41 0 70.5 17.5t55.5 57.5l25 39l-98 477h122l62 -352l214 352h132l-355 -557q-47 -75 -98.5 -109t-117.5 -34zM453 778l79 -176h-54l-92 89l-138 -89h-63v2l165 174h103z" />
    <glyph glyph-name="Ydieresis" unicode="&#x178;" horiz-adv-x="675" 
d="M777 698l-368 -404l-74 -294h-126l76 307l-166 393h133l117 -289l256 289h152v-2zM575 913q31 0 52 -21t21 -52t-21.5 -52.5t-52.5 -21.5t-52 21t-21 51q0 31 21.5 53t52.5 22zM364 913q31 0 52 -21t21 -52t-21.5 -52.5t-52.5 -21.5t-52 21t-21 51q0 31 21.5 53t52.5 22z
" />
    <glyph glyph-name="Zacute" unicode="&#x179;" horiz-adv-x="697" 
d="M222 112h412l-71 -112h-576l-7 16l535 572h-379l29 112h585l7 -16zM701 916v-2l-216 -145h-72l116 147h172z" />
    <glyph glyph-name="zacute" unicode="&#x17a;" horiz-adv-x="536" 
d="M183 97h292l-66 -97h-439l-4 15l373 393h-253l24 98h443l4 -15zM591 778v-2l-221 -174h-61l126 176h156z" />
    <glyph glyph-name="Zdotaccent" unicode="&#x17b;" horiz-adv-x="697" 
d="M222 112h412l-71 -112h-576l-7 16l535 572h-379l29 112h585l7 -16zM472 912q31 0 52.5 -21t21.5 -51q0 -31 -22 -52.5t-53 -21.5t-52 21t-21 51q0 31 21.5 52.5t52.5 21.5z" />
    <glyph glyph-name="zdotaccent" unicode="&#x17c;" horiz-adv-x="536" 
d="M183 97h292l-66 -97h-439l-4 15l373 393h-253l24 98h443l4 -15zM364 598q-30 0 -50.5 21t-20.5 51t21 51t52 21q30 0 50.5 -20.5t20.5 -50.5t-21.5 -51.5t-51.5 -21.5z" />
    <glyph glyph-name="Zcaron" unicode="&#x17d;" horiz-adv-x="697" 
d="M222 112h412l-71 -112h-576l-7 16l535 572h-379l29 112h585l7 -16zM677 913v-2l-163 -145h-113l-92 147h64l97 -70l133 70h74z" />
    <glyph glyph-name="zcaron" unicode="&#x17e;" horiz-adv-x="536" 
d="M183 97h292l-66 -97h-439l-4 15l373 393h-253l24 98h443l4 -15zM565 778v-2l-165 -174h-103l-79 176h54l92 -89l138 89h63z" />
    <glyph glyph-name="uni018F" unicode="&#x18f;" horiz-adv-x="771" 
d="M632 114q-57 -61 -134 -94.5t-161 -33.5q-121 0 -198 74q-76 73 -76 193q0 66 22 147h534v10q0 85 -52.5 136.5t-138.5 51.5q-130 0 -288 -98l-3 2l51 139q115 71 257 71q135 0 220 -80q83 -81 83 -215q0 -179 -116 -303zM187 258q0 -74 43.5 -117.5t117.5 -43.5
q82 0 153 56q70 55 100 146h-411q-3 -39 -3 -41z" />
    <glyph glyph-name="Ohorn" unicode="&#x1a0;" horiz-adv-x="830" 
d="M686 108q-122 -122 -294 -122q-142 0 -230 87q-89 86 -89 224q0 174 121 292q121 119 292 119q21 0 76 -4t76 -4q67 0 103.5 36t38.5 105h101q0 -90 -46.5 -144.5t-134.5 -68.5q105 -81 105 -225q0 -174 -119 -295zM203 305q0 -91 56 -147t144 -56q109 0 192 86
q81 86 81 207q0 89 -56 145q-55 55 -146 55q-111 0 -190 -85q-81 -86 -81 -205z" />
    <glyph glyph-name="ohorn" unicode="&#x1a1;" horiz-adv-x="609" 
d="M571 294q0 -130 -87 -219q-89 -89 -213 -89q-103 0 -168 63t-65 163q0 128 87 215q88 86 213 86q4 0 9.5 -0.5t16.5 -1t23 -0.5q14 0 31 -1t23 -1q62 0 91.5 27t30.5 85h92q0 -148 -142 -176q58 -64 58 -151zM453 289q0 57 -33.5 90t-88.5 33q-71 0 -123 -57
q-52 -56 -52 -139q0 -58 33.5 -92.5t88.5 -34.5q70 0 123 59q52 58 52 141z" />
    <glyph glyph-name="Uhorn" unicode="&#x1af;" horiz-adv-x="807" 
d="M357 -12q-121 0 -194 68q-72 68 -72 183q0 47 14 103l89 358h126l-92 -371q-11 -46 -11 -76q0 -71 41 -111t113 -40q78 0 135.5 51t80.5 141l101 406h32q68 0 104.5 36t37.5 105h101q0 -87 -43.5 -141t-125.5 -70l-89 -355q-71 -287 -348 -287z" />
    <glyph glyph-name="uhorn" unicode="&#x1b0;" horiz-adv-x="626" 
d="M577 440l-110 -440h-117l20 79q-86 -89 -170 -89q-67 0 -109 41.5t-42 108.5q0 36 15 101l66 265h119l-71 -283q-8 -32 -8 -53q0 -36 19.5 -55.5t55.5 -19.5q62 0 144 67l86 344h40q62 0 91 25.5t30 79.5h92q0 -148 -151 -171z" />
    <glyph glyph-name="uni01CD" unicode="&#x1cd;" horiz-adv-x="795" 
d="M483 567l-201 -297h253zM574 703l133 -703h-127l-28 163h-340l-109 -163h-141l483 703h129zM739 913v-2l-163 -145h-113l-92 147h64l97 -70l133 70h74z" />
    <glyph glyph-name="uni01CE" unicode="&#x1ce;" horiz-adv-x="558" 
d="M496 242l-62 -232l-121 -20l22 81q-100 -79 -187 -79q-61 0 -98.5 35t-37.5 94q0 83 73.5 128.5t208.5 45.5q54 0 96 -6q2 32 2 33q0 42 -27 66t-76 24q-84 0 -183 -56l-2 2l51 123q75 34 160 34q90 0 142.5 -48.5t52.5 -130.5q0 -47 -14 -94zM126 138q0 -26 17 -40.5
t47 -14.5q69 0 162 58l22 84q-44 4 -68 4q-84 0 -132 -24.5t-48 -66.5zM582 778v-2l-165 -174h-103l-79 176h54l92 -89l138 89h63z" />
    <glyph glyph-name="uni01CF" unicode="&#x1cf;" horiz-adv-x="317" 
d="M333 700l-174 -700h-126l174 700h126zM505 913v-2l-163 -145h-113l-92 147h64l97 -70l133 70h74z" />
    <glyph glyph-name="uni01D0" unicode="&#x1d0;" horiz-adv-x="277" 
d="M261 506l-126 -506h-119l126 506h119zM439 778v-2l-165 -174h-103l-79 176h54l92 -89l138 89h63z" />
    <glyph glyph-name="uni01D1" unicode="&#x1d1;" horiz-adv-x="830" 
d="M686 108q-122 -122 -294 -122q-142 0 -230 87q-89 86 -89 224q0 175 120 295q119 122 294 122q140 0 229 -86q89 -87 89 -225q0 -174 -119 -295zM203 305q0 -91 56 -147t144 -56q109 0 192 86q81 86 81 207q0 92 -56 148q-55 55 -145 55q-110 0 -191 -86t-81 -207z
M741 918v-2l-163 -145h-113l-92 147h64l97 -70l133 70h74z" />
    <glyph glyph-name="uni01D2" unicode="&#x1d2;" horiz-adv-x="609" 
d="M571 294q0 -130 -87 -219q-89 -89 -213 -89q-103 0 -168 63t-65 163q0 132 87 220t213 88q104 0 168 -63q65 -63 65 -163zM453 289q0 58 -33.5 92.5t-88.5 34.5q-71 0 -123 -58t-52 -141q0 -58 33.5 -93t88.5 -35q70 0 123 59q52 58 52 141zM593 783v-2l-165 -174h-103
l-79 176h54l92 -89l138 89h63z" />
    <glyph glyph-name="uni01D3" unicode="&#x1d3;" horiz-adv-x="782" 
d="M91 239q0 47 14 103l89 358h126l-92 -371q-11 -46 -11 -76q0 -71 41 -111t113 -40q78 0 135.5 51t80.5 141l101 406h123l-106 -425q-71 -287 -348 -287q-121 0 -194 68q-72 68 -72 183zM737 913v-2l-163 -145h-113l-92 147h64l97 -70l133 70h74z" />
    <glyph glyph-name="uni01D4" unicode="&#x1d4;" horiz-adv-x="605" 
d="M593 506l-126 -506h-117l20 79q-86 -89 -170 -89q-67 0 -109 41.5t-42 108.5q0 36 15 101l66 265h119l-71 -283q-8 -32 -8 -53q0 -36 19.5 -55.5t55.5 -19.5q62 0 144 67l86 344h118zM590 778v-2l-165 -174h-103l-79 176h54l92 -89l138 89h63z" />
    <glyph glyph-name="uni01D5" unicode="&#x1d5;" horiz-adv-x="782" 
d="M91 239q0 47 14 103l89 358h126l-92 -371q-11 -46 -11 -76q0 -71 41 -111t113 -40q78 0 135.5 51t80.5 141l101 406h123l-106 -425q-71 -287 -348 -287q-121 0 -194 68q-72 68 -72 183zM736 957h-353l19 77h353zM639 911q31 0 52 -20.5t21 -51.5q0 -30 -21.5 -51.5
t-52.5 -21.5q-32 0 -53 20.5t-21 51.5q0 30 22 51.5t53 21.5zM427 911q31 0 52 -20.5t21 -51.5q0 -30 -21.5 -51.5t-52.5 -21.5t-52 20.5t-21 51.5q0 30 21.5 51.5t52.5 21.5z" />
    <glyph glyph-name="uni01D6" unicode="&#x1d6;" horiz-adv-x="605" 
d="M593 506l-126 -506h-117l20 79q-86 -89 -170 -89q-67 0 -109 41.5t-42 108.5q0 36 15 101l66 265h119l-71 -283q-8 -32 -8 -53q0 -36 19.5 -55.5t55.5 -19.5q62 0 144 67l86 344h118zM596 802h-352l19 75h352zM495 599q-30 0 -51 21t-21 50q0 30 21.5 51t51.5 21
t51 -20.5t21 -50.5t-21.5 -51t-51.5 -21zM283 599q-30 0 -51 20.5t-21 50.5t21.5 51t51.5 21t51 -21t21 -50q0 -30 -21.5 -51t-51.5 -21z" />
    <glyph glyph-name="uni01D7" unicode="&#x1d7;" horiz-adv-x="782" 
d="M91 239q0 47 14 103l89 358h126l-92 -371q-11 -46 -11 -76q0 -71 41 -111t113 -40q78 0 135.5 51t80.5 141l101 406h123l-106 -425q-71 -287 -348 -287q-121 0 -194 68q-72 68 -72 183zM754 1068l-182 -133h-63l95 135h150v-2zM639 911q31 0 52 -20.5t21 -51.5
q0 -30 -21.5 -51.5t-52.5 -21.5q-32 0 -53 20.5t-21 51.5q0 30 22 51.5t53 21.5zM427 911q31 0 52 -20.5t21 -51.5q0 -30 -21.5 -51.5t-52.5 -21.5t-52 20.5t-21 51.5q0 30 21.5 51.5t52.5 21.5z" />
    <glyph glyph-name="uni01D8" unicode="&#x1d8;" horiz-adv-x="605" 
d="M593 506l-126 -506h-117l20 79q-86 -89 -170 -89q-67 0 -109 41.5t-42 108.5q0 36 15 101l66 265h119l-71 -283q-8 -32 -8 -53q0 -36 19.5 -55.5t55.5 -19.5q62 0 144 67l86 344h118zM618 912l-185 -141h-61l94 143h152v-2zM495 599q-30 0 -51 21t-21 50q0 30 21.5 51
t51.5 21t51 -20.5t21 -50.5t-21.5 -51t-51.5 -21zM283 599q-30 0 -51 20.5t-21 50.5t21.5 51t51.5 21t51 -21t21 -50q0 -30 -21.5 -51t-51.5 -21z" />
    <glyph glyph-name="uni01D9" unicode="&#x1d9;" horiz-adv-x="782" 
d="M91 239q0 47 14 103l89 358h126l-92 -371q-11 -46 -11 -76q0 -71 41 -111t113 -40q78 0 135.5 51t80.5 141l101 406h123l-106 -425q-71 -287 -348 -287q-121 0 -194 68q-72 68 -72 183zM749 1070v-2l-161 -133h-88l-97 135h59l95 -57l123 57h69zM639 911q31 0 52 -20.5
t21 -51.5q0 -30 -21.5 -51.5t-52.5 -21.5q-32 0 -53 20.5t-21 51.5q0 30 22 51.5t53 21.5zM427 911q31 0 52 -20.5t21 -51.5q0 -30 -21.5 -51.5t-52.5 -21.5t-52 20.5t-21 51.5q0 30 21.5 51.5t52.5 21.5z" />
    <glyph glyph-name="uni01DA" unicode="&#x1da;" horiz-adv-x="605" 
d="M593 506l-126 -506h-117l20 79q-86 -89 -170 -89q-67 0 -109 41.5t-42 108.5q0 36 15 101l66 265h119l-71 -283q-8 -32 -8 -53q0 -36 19.5 -55.5t55.5 -19.5q62 0 144 67l86 344h118zM604 916v-2l-156 -140h-85l-87 142h60l83 -63l117 63h68zM495 599q-30 0 -51 21
t-21 50q0 30 21.5 51t51.5 21t51 -20.5t21 -50.5t-21.5 -51t-51.5 -21zM283 599q-30 0 -51 20.5t-21 50.5t21.5 51t51.5 21t51 -21t21 -50q0 -30 -21.5 -51t-51.5 -21z" />
    <glyph glyph-name="uni01DB" unicode="&#x1db;" horiz-adv-x="782" 
d="M91 239q0 47 14 103l89 358h126l-92 -371q-11 -46 -11 -76q0 -71 41 -111t113 -40q78 0 135.5 51t80.5 141l101 406h123l-106 -425q-71 -287 -348 -287q-121 0 -194 68q-72 68 -72 183zM404 1070h135l28 -135h-52l-111 134v1zM639 911q31 0 52 -20.5t21 -51.5
q0 -30 -21.5 -51.5t-52.5 -21.5q-32 0 -53 20.5t-21 51.5q0 30 22 51.5t53 21.5zM427 911q31 0 52 -20.5t21 -51.5q0 -30 -21.5 -51.5t-52.5 -21.5t-52 20.5t-21 51.5q0 30 21.5 51.5t52.5 21.5z" />
    <glyph glyph-name="uni01DC" unicode="&#x1dc;" horiz-adv-x="605" 
d="M593 506l-126 -506h-117l20 79q-86 -89 -170 -89q-67 0 -109 41.5t-42 108.5q0 36 15 101l66 265h119l-71 -283q-8 -32 -8 -53q0 -36 19.5 -55.5t55.5 -19.5q62 0 144 67l86 344h118zM260 914h135l28 -143h-52l-111 142v1zM495 599q-30 0 -51 21t-21 50q0 30 21.5 51
t51.5 21t51 -20.5t21 -50.5t-21.5 -51t-51.5 -21zM283 599q-30 0 -51 20.5t-21 50.5t21.5 51t51.5 21t51 -21t21 -50q0 -30 -21.5 -51t-51.5 -21z" />
    <glyph glyph-name="Gcaron" unicode="&#x1e6;" horiz-adv-x="786" 
d="M425 373h307l-82 -318q-119 -65 -259 -65q-144 0 -232 83q-87 83 -87 219q0 185 131 304q126 114 313 114q148 0 263 -69l-32 -119q-110 71 -237 71q-130 0 -219 -84q-90 -84 -90 -208q0 -91 56 -144t152 -53q77 0 140 27l36 139h-186zM736 918v-2l-163 -145h-113
l-92 147h64l97 -70l133 70h74z" />
    <glyph glyph-name="gcaron" unicode="&#x1e7;" horiz-adv-x="619" 
d="M157 214q0 -49 26.5 -75.5t73.5 -26.5q68 0 150 63l54 220q-49 20 -98 20q-82 0 -144 -59q-62 -60 -62 -142zM200 -196q-110 0 -194 49l-18 123l3 2q98 -71 206 -71q140 0 177 131l17 58q-86 -80 -177 -80q-78 0 -126.5 51.5t-48.5 136.5q0 132 93 221q91 88 230 88
q79 0 143 -26l92 21l10 -3l-121 -485q-54 -216 -286 -216zM602 778v-2l-165 -174h-103l-79 176h54l92 -89l138 89h63z" />
    <glyph glyph-name="uni01EA" unicode="&#x1ea;" horiz-adv-x="830" 
d="M339 -201q-42 0 -68 18.5t-26 48.5q0 43 68 103l24 21q-119 17 -191 101q-73 82 -73 206q0 175 120 295q119 122 294 122q140 0 229 -86q89 -87 89 -225q0 -170 -113 -289q-116 -122 -282 -128l-28 -31q-38 -46 -38 -65q0 -34 77 -34h13l-30 -50q-28 -7 -65 -7zM203 305
q0 -91 56 -147t144 -56q109 0 192 86q81 86 81 207q0 92 -56 148q-55 55 -145 55q-110 0 -191 -86t-81 -207z" />
    <glyph glyph-name="uni01EB" unicode="&#x1eb;" horiz-adv-x="609" 
d="M217 -201q-42 0 -68 18.5t-26 48.5q0 43 68 103l26 22q-82 16 -130.5 76t-48.5 145q0 132 87 220t213 88q104 0 168 -63q65 -63 65 -163q0 -124 -81 -213q-82 -87 -202 -95l-28 -31q-38 -46 -38 -65q0 -34 77 -34h13l-30 -50q-28 -7 -65 -7zM453 289q0 58 -33.5 92.5
t-88.5 34.5q-71 0 -123 -58t-52 -141q0 -58 33.5 -93t88.5 -35q70 0 123 59q52 58 52 141z" />
    <glyph glyph-name="uni01F0" unicode="&#x1f0;" horiz-adv-x="277" 
d="M11 -21l132 527h118l-135 -542q-20 -81 -65 -119.5t-120 -38.5q-29 0 -56 8l-16 92l2 3q23 -9 44 -9q41 0 63.5 18.5t32.5 60.5zM440 778v-2l-165 -174h-103l-79 176h54l92 -89l138 89h63z" />
    <glyph glyph-name="uni01F8" unicode="&#x1f8;" horiz-adv-x="816" 
d="M715 700h121l-174 -704h-62l-320 534l-130 -530h-122l174 700h119l279 -465zM363 916h151l44 -147h-59l-136 145v2z" />
    <glyph glyph-name="uni01F9" unicode="&#x1f9;" horiz-adv-x="605" 
d="M435 336q0 36 -19.5 55.5t-55.5 19.5q-65 0 -144 -67l-86 -344h-118l123 493l122 20l-21 -86q86 89 169 89q67 0 109.5 -41.5t42.5 -108.5q0 -29 -16 -102l-66 -264h-119l71 283q8 30 8 53zM225 778h141l41 -176h-52z" />
    <glyph glyph-name="Aringacute" unicode="&#x1fa;" horiz-adv-x="795" 
d="M443 740q0 -31 20 -51t51 -20q33 0 56.5 24.5t23.5 60.5q0 31 -20 51.5t-51 20.5q-33 0 -56.5 -25t-23.5 -61zM483 567l-200 -297h252zM586 643l121 -643h-127l-28 163h-340l-109 -163h-141l455 663q-26 34 -26 76q0 56 40 96q39 39 94 39q52 0 86.5 -34t34.5 -85
q0 -71 -60 -112zM799 1061v-2l-216 -145h-72l116 147h172z" />
    <glyph glyph-name="aringacute" unicode="&#x1fb;" horiz-adv-x="558" 
d="M496 242l-62 -232l-121 -20l22 81q-100 -79 -187 -79q-61 0 -98.5 35t-37.5 94q0 83 73.5 128.5t208.5 45.5q54 0 96 -6q2 32 2 33q0 42 -27 66t-76 24q-84 0 -183 -56l-2 2l51 123q75 34 160 34q90 0 142.5 -48.5t52.5 -130.5q0 -47 -14 -94zM126 138q0 -26 17 -40.5
t47 -14.5q69 0 162 58l22 84q-44 4 -68 4q-84 0 -132 -24.5t-48 -66.5zM613 1003l-144 -112h-58l83 114h119v-2zM518 732q0 -54 -39 -95q-40 -40 -94 -40q-51 0 -85 34t-34 85q0 55 40 95q39 39 93 39q51 0 85 -34t34 -84zM318 717q0 -31 19.5 -51.5t49.5 -20.5q33 0 56 25
t23 61q0 31 -19.5 51t-49.5 20q-33 0 -56 -25t-23 -60z" />
    <glyph glyph-name="AEacute" unicode="&#x1fc;" horiz-adv-x="1013" 
d="M601 593l-279 -323h199zM935 111l-59 -111h-422l41 163h-265l-141 -163h-142v2l605 698h508l-28 -111h-307l-45 -181h255l-27 -106h-254l-47 -191h328zM994 916v-2l-216 -145h-72l116 147h172z" />
    <glyph glyph-name="aeacute" unicode="&#x1fd;" horiz-adv-x="902" 
d="M759 311q0 55 -24.5 84.5t-69.5 29.5q-46 0 -92 -38q-47 -39 -66 -96h251q1 5 1 20zM126 138q0 -26 17 -40.5t48 -14.5q81 0 192 79q-4 16 -4 45q0 2 0.5 8.5t0.5 8.5q-45 5 -74 5q-84 0 -132 -24.5t-48 -66.5zM809 139l2 -1l-25 -106q-85 -43 -188 -43q-128 0 -189 98
q-129 -95 -249 -95q-68 0 -108 35t-40 94q0 83 73.5 128.5t208.5 45.5q54 0 96 -6q2 32 2 33q0 42 -27 66t-76 24q-84 0 -183 -56l-2 2l51 123q74 34 159 34q116 0 165 -78q86 83 201 83q87 0 138.5 -54t51.5 -146q0 -56 -14 -106h-364q2 -61 36.5 -93t97.5 -32q94 0 183 50
zM772 778v-2l-221 -174h-61l126 176h156z" />
    <glyph glyph-name="Oslashacute" unicode="&#x1fe;" horiz-adv-x="830" 
d="M475 603q-112 0 -194 -88q-83 -89 -83 -210q0 -65 27 -114l370 380q-50 32 -120 32zM403 97q112 0 194 88q83 89 83 210q0 70 -27 114l-370 -380q50 -32 120 -32zM686 108q-122 -122 -294 -122q-112 0 -194 60l-87 -89h-119v2l144 146q-63 81 -63 192q0 175 120 295
q119 122 294 122q109 0 194 -60l86 89h120v-2l-145 -146q63 -81 63 -192q0 -174 -119 -295zM765 921v-2l-216 -145h-72l116 147h172z" />
    <glyph glyph-name="oslashacute" unicode="&#x1ff;" horiz-adv-x="609" 
d="M331 421q-70 0 -125 -61t-55 -143q0 -37 12 -62l235 249q-29 17 -67 17zM278 85q71 0 126 61q54 62 54 143q0 37 -12 62l-235 -249q29 -17 67 -17zM571 294q0 -130 -87 -219q-89 -89 -213 -89q-75 0 -136 39l-62 -66h-101v2l109 115q-43 60 -43 136q0 132 87 220t213 88
q75 0 136 -39l62 66h101v-2l-109 -115q43 -60 43 -136zM619 783v-2l-221 -174h-61l126 176h156z" />
    <glyph glyph-name="uni0218" unicode="&#x218;" horiz-adv-x="557" 
d="M273 305q-82 50 -114.5 94.5t-32.5 104.5q0 91 68 150q67 58 174 58q104 0 192 -52l-6 -130l-2 -1q-91 71 -188 71q-51 0 -83 -23t-32 -59q0 -30 21.5 -54.5t81.5 -60.5q81 -49 114 -94t33 -107q0 -97 -67 -155q-68 -59 -177 -59q-60 0 -117 20.5t-97 56.5l-20 155l2 1
q119 -121 233 -121q54 0 87 24.5t33 63.5q0 31 -21.5 56t-81.5 61zM110 -119v3l125 35q56 -25 56 -65q0 -65 -151 -117l-59 24v4q48 21 67.5 36.5t19.5 32.5q0 25 -58 47z" />
    <glyph glyph-name="uni0219" unicode="&#x219;" horiz-adv-x="500" 
d="M225 208q-77 29 -110 64t-33 89q0 69 57 112q58 44 148 44q99 0 177 -49l-4 -113l-3 -1q-89 67 -175 67q-39 0 -63 -14t-24 -37q0 -22 19 -37t71 -34q75 -29 108.5 -65t33.5 -88q0 -71 -58 -114t-154 -43q-109 0 -186 53l-14 121l3 2q93 -80 202 -80q42 0 68 14.5
t26 36.5q0 20 -20 35.5t-69 36.5zM71 -116v3l125 35q56 -25 56 -65q0 -65 -151 -117l-59 24v4q48 21 67.5 36.5t19.5 32.5q0 25 -58 47z" />
    <glyph glyph-name="uni021A" unicode="&#x21a;" horiz-adv-x="708" 
d="M145 700h641l-29 -113h-255l-146 -587h-126l146 587h-259zM172 -114v3l125 35q56 -25 56 -65q0 -65 -151 -117l-59 24v4q48 21 67.5 36.5t19.5 32.5q0 25 -58 47z" />
    <glyph glyph-name="uni021B" unicode="&#x21b;" horiz-adv-x="456" 
d="M394 139l3 -2l-38 -121q-52 -27 -111 -27q-74 0 -117 41.5t-43 112.5q0 31 10 71l54 195h-82l25 97h84l30 108l127 37l-40 -145h182l-25 -97h-184l-57 -208q-6 -23 -6 -40q0 -32 20 -50t54 -18q61 0 114 46zM90 -114v3l125 35q56 -25 56 -65q0 -65 -151 -117l-59 24v4
q48 21 67.5 36.5t19.5 32.5q0 25 -58 47z" />
    <glyph glyph-name="uni0226" unicode="&#x226;" horiz-adv-x="795" 
d="M483 567l-201 -297h253zM574 703l133 -703h-127l-28 163h-340l-109 -163h-141l483 703h129zM534 912q31 0 52.5 -21t21.5 -51q0 -31 -22 -52.5t-53 -21.5t-52 21t-21 51q0 31 21.5 52.5t52.5 21.5z" />
    <glyph glyph-name="uni0227" unicode="&#x227;" horiz-adv-x="558" 
d="M496 242l-62 -232l-121 -20l22 81q-100 -79 -187 -79q-61 0 -98.5 35t-37.5 94q0 83 73.5 128.5t208.5 45.5q54 0 96 -6q2 32 2 33q0 42 -27 66t-76 24q-84 0 -183 -56l-2 2l51 123q75 34 160 34q90 0 142.5 -48.5t52.5 -130.5q0 -47 -14 -94zM126 138q0 -26 17 -40.5
t47 -14.5q69 0 162 58l22 84q-44 4 -68 4q-84 0 -132 -24.5t-48 -66.5zM381 598q-30 0 -50.5 21t-20.5 51t21 51t52 21q30 0 50.5 -20.5t20.5 -50.5t-21.5 -51.5t-51.5 -21.5z" />
    <glyph glyph-name="uni022E" unicode="&#x22e;" horiz-adv-x="830" 
d="M686 108q-122 -122 -294 -122q-142 0 -230 87q-89 86 -89 224q0 175 120 295q119 122 294 122q140 0 229 -86q89 -87 89 -225q0 -174 -119 -295zM203 305q0 -91 56 -147t144 -56q109 0 192 86q81 86 81 207q0 92 -56 148q-55 55 -145 55q-110 0 -191 -86t-81 -207z
M536 917q31 0 52.5 -21t21.5 -51q0 -31 -22 -52.5t-53 -21.5t-52 21t-21 51q0 31 21.5 52.5t52.5 21.5z" />
    <glyph glyph-name="uni022F" unicode="&#x22f;" horiz-adv-x="609" 
d="M571 294q0 -130 -87 -219q-89 -89 -213 -89q-103 0 -168 63t-65 163q0 132 87 220t213 88q104 0 168 -63q65 -63 65 -163zM453 289q0 58 -33.5 92.5t-88.5 34.5q-71 0 -123 -58t-52 -141q0 -58 33.5 -93t88.5 -35q70 0 123 59q52 58 52 141zM392 603q-30 0 -50.5 21
t-20.5 51t21 51t52 21q30 0 50.5 -20.5t20.5 -50.5t-21.5 -51.5t-51.5 -21.5z" />
    <glyph glyph-name="uni0232" unicode="&#x232;" horiz-adv-x="675" 
d="M777 698l-368 -404l-74 -294h-126l76 307l-166 393h133l117 -289l256 289h152v-2zM644 792h-373l20 83h374z" />
    <glyph glyph-name="uni0233" unicode="&#x233;" horiz-adv-x="566" 
d="M39 -194q-39 0 -69 14l-27 116l3 2q33 -23 81 -23q41 0 70.5 17.5t55.5 57.5l25 39l-98 477h122l62 -352l214 352h132l-355 -557q-47 -75 -98.5 -109t-117.5 -34zM538 625h-352l20 82h352z" />
    <glyph glyph-name="uni0237" unicode="&#x237;" horiz-adv-x="277" 
d="M11 -21l132 527h118l-135 -542q-20 -81 -65 -119.5t-120 -38.5q-29 0 -56 8l-16 92l2 3q23 -9 44 -9q41 0 63.5 18.5t32.5 60.5z" />
    <glyph glyph-name="uni0259" unicode="&#x259;" horiz-adv-x="560" 
d="M523 299q0 -130 -88 -221q-89 -92 -212 -92q-87 0 -139 54t-52 145q0 57 14 107h364q-5 124 -134 124q-91 0 -183 -49l-2 1l25 105q85 43 188 43q98 0 159 -59q60 -60 60 -158zM143 195q0 -55 24.5 -85t69.5 -30q47 0 94 39q46 38 65 96h-252q-1 -5 -1 -20z" />
    <glyph glyph-name="uni02B9" unicode="&#x2b9;" horiz-adv-x="270" 
d="M128 403l-47 18l143 279h145z" />
    <glyph glyph-name="uni02BA" unicode="&#x2ba;" horiz-adv-x="478" 
d="M336 403l-46 18l142 279h144zM127 403l-46 18l143 279h143z" />
    <glyph glyph-name="uni02BB" unicode="&#x2bb;" horiz-adv-x="236" 
d="M208 509q0 -39 39 -104h-122q-27 50 -27 93q0 47 43 96.5t142 114.5l32 -31q-107 -101 -107 -169z" />
    <glyph glyph-name="uni02BC" unicode="&#x2bc;" horiz-adv-x="236" 
d="M177 596q0 32 -38 104h121q28 -50 28 -93q0 -47 -43 -96.5t-142 -114.5l-32 31q58 56 82 95t24 74z" />
    <glyph glyph-name="uni02BE" unicode="&#x2be;" horiz-adv-x="202" 
d="M282 692q0 -63 -49 -103t-126 -40l15 58q40 1 68 24.5t28 55.5q0 25 -16.5 40.5t-45.5 16.5l14 58q48 0 80 -31.5t32 -78.5z" />
    <glyph glyph-name="uni02BF" unicode="&#x2bf;" horiz-adv-x="202" 
d="M131 658q0 63 50 104q49 40 125 40l-15 -58q-40 -1 -68 -25t-28 -56q0 -25 16.5 -40t45.5 -16l-14 -58q-49 0 -80.5 31t-31.5 78z" />
    <glyph glyph-name="circumflex" unicode="&#x2c6;" horiz-adv-x="500" 
d="M431 778l79 -176h-54l-92 89l-138 -89h-63v2l165 174h103z" />
    <glyph glyph-name="caron" unicode="&#x2c7;" horiz-adv-x="500" 
d="M552 778v-2l-165 -174h-103l-79 176h54l92 -89l138 89h63z" />
    <glyph glyph-name="uni02C8" unicode="&#x2c8;" horiz-adv-x="182" 
d="M257 799l-62 -248h-61l62 248h61z" />
    <glyph glyph-name="uni02CC" unicode="&#x2cc;" horiz-adv-x="182" 
d="M72 57l-62 -248h-61l62 248h61z" />
    <glyph glyph-name="uni02CD" unicode="&#x2cd;" horiz-adv-x="500" 
d="M320 -187h-352l20 82h352z" />
    <glyph glyph-name="breve" unicode="&#x2d8;" horiz-adv-x="500" 
d="M354 688q76 0 151 81l46 -39q-37 -64 -91 -99.5t-114 -35.5q-56 0 -99.5 36.5t-60.5 98.5l50 39q44 -81 118 -81z" />
    <glyph glyph-name="dotaccent" unicode="&#x2d9;" horiz-adv-x="500" 
d="M351 598q-30 0 -50.5 21t-20.5 51t21 51t52 21q30 0 50.5 -20.5t20.5 -50.5t-21.5 -51.5t-51.5 -21.5z" />
    <glyph glyph-name="ring" unicode="&#x2da;" horiz-adv-x="500" 
d="M488 732q0 -54 -39 -95q-40 -40 -94 -40q-51 0 -85 34t-34 85q0 55 40 95q39 39 93 39q51 0 85 -34t34 -84zM288 717q0 -31 19.5 -51.5t49.5 -20.5q33 0 56 25t23 61q0 31 -19.5 51t-49.5 20q-33 0 -56 -25t-23 -60z" />
    <glyph glyph-name="ogonek" unicode="&#x2db;" horiz-adv-x="500" 
d="M232 -139h13l-30 -50q-28 -7 -65 -7q-42 0 -68 18.5t-26 48.5q0 43 68 103l42 36h71l-44 -50q-38 -46 -38 -65q0 -34 77 -34z" />
    <glyph glyph-name="tilde" unicode="&#x2dc;" horiz-adv-x="500" 
d="M371 724q48 -30 63 -30q13 0 29 13q15 11 57 56l47 -36q-57 -79 -85 -103q-28 -25 -57 -25q-26 0 -83 37q-47 29 -62 29q-14 0 -30 -12q-16 -13 -57 -57l-47 37q59 81 87 104q27 24 56 24q26 0 82 -37z" />
    <glyph glyph-name="hungarumlaut" unicode="&#x2dd;" horiz-adv-x="500" 
d="M653 778v-2l-213 -174h-57l125 176h145zM463 778v-2l-213 -174h-57l125 176h145z" />
    <glyph glyph-name="uni0300" unicode="&#x300;" 
d="M-70 778h141l41 -176h-52z" />
    <glyph glyph-name="uni0301" unicode="&#x301;" 
d="M328 778v-2l-221 -174h-61l126 176h156z" />
    <glyph glyph-name="uni0302" unicode="&#x302;" 
d="M181 778l79 -176h-54l-92 89l-138 -89h-63v2l165 174h103z" />
    <glyph glyph-name="uni0303" unicode="&#x303;" 
d="M121 724q48 -30 63 -30q13 0 29 13q15 11 57 56l47 -36q-57 -79 -85 -103q-28 -25 -57 -25q-26 0 -83 37q-47 29 -62 29q-14 0 -30 -12q-16 -13 -57 -57l-47 37q59 80 86 104q28 24 57 24q26 0 82 -37z" />
    <glyph glyph-name="uni0304" unicode="&#x304;" 
d="M266 625h-352l20 82h352z" />
    <glyph glyph-name="uni0306" unicode="&#x306;" 
d="M104 688q76 0 151 81l46 -39q-37 -64 -91 -99.5t-114 -35.5q-56 0 -99.5 36.5t-60.5 98.5l50 39q44 -81 118 -81z" />
    <glyph glyph-name="uni0307" unicode="&#x307;" 
d="M101 598q-30 0 -50.5 21t-20.5 51t21 51t52 21q30 0 50.5 -20.5t20.5 -50.5t-21.5 -51.5t-51.5 -21.5z" />
    <glyph glyph-name="uni0308" unicode="&#x308;" 
d="M206 599q-30 0 -51 21t-21 51t21.5 51.5t52.5 21.5q30 0 51 -20.5t21 -50.5q0 -31 -21.5 -52.5t-52.5 -21.5zM-6 599q-30 0 -51 21t-21 51t21.5 51.5t52.5 21.5q30 0 51 -20.5t21 -50.5q0 -31 -21.5 -52.5t-52.5 -21.5z" />
    <glyph glyph-name="uni0309" unicode="&#x309;" 
d="M-5 696l-2 1l22 93q61 39 127 39q47 0 75 -22.5t28 -60.5q0 -40 -35.5 -76t-115.5 -77l-65 21v2q127 73 127 109q0 22 -32 22q-52 0 -129 -51z" />
    <glyph glyph-name="uni030A" unicode="&#x30a;" 
d="M238 732q0 -54 -39 -95q-40 -40 -94 -40q-51 0 -85 34t-34 85q0 55 40 95q39 39 93 39q51 0 85 -34t34 -84zM38 717q0 -31 19.5 -51.5t49.5 -20.5q33 0 56 25t23 61q0 31 -19.5 51t-49.5 20q-33 0 -56 -25t-23 -60z" />
    <glyph glyph-name="uni030B" unicode="&#x30b;" 
d="M403 778v-2l-213 -174h-57l125 176h145zM213 778v-2l-213 -174h-57l125 176h145z" />
    <glyph glyph-name="uni030C" unicode="&#x30c;" 
d="M302 778v-2l-165 -174h-103l-79 176h54l92 -89l138 89h63z" />
    <glyph glyph-name="uni0312" unicode="&#x312;" 
d="M188 635v-4l-128 -35q-52 27 -52 68q0 74 154 127l59 -24v-3q-91 -46 -91 -80q0 -12 12.5 -22.5t45.5 -26.5z" />
    <glyph glyph-name="uni0315" unicode="&#x315;" 
d="M128 555h-52v2q55 66 55 146q0 27 -6 52h102q0 -119 -99 -200z" />
    <glyph glyph-name="uni0323" unicode="&#x323;" 
d="M-98 -223q-30 0 -50.5 21t-20.5 51t21 51t52 21q30 0 50.5 -20.5t20.5 -50.5t-21.5 -51.5t-51.5 -21.5z" />
    <glyph glyph-name="uni0324" unicode="&#x324;" 
d="M7 -224q-30 0 -51 21t-21 51t21.5 51.5t52.5 21.5q30 0 51 -20.5t21 -50.5q0 -31 -21.5 -52.5t-52.5 -21.5zM-205 -224q-30 0 -51 21t-21 51t21.5 51.5t52.5 21.5q30 0 51 -20.5t21 -50.5q0 -31 -21.5 -52.5t-52.5 -21.5z" />
    <glyph glyph-name="uni0326" unicode="&#x326;" 
d="M-184 -114v3l125 35q56 -25 56 -65q0 -65 -151 -117l-59 24v4q48 21 67.5 36.5t19.5 32.5q0 25 -58 47z" />
    <glyph glyph-name="uni0327" unicode="&#x327;" 
d="M34 -117q0 -38 -38 -61.5t-101 -23.5q-22 0 -71 9l-23 53l3 4q38 -15 80 -15q63 0 63 31q0 25 -48 25q-18 0 -45 -4l-2 4l66 101h69l-35 -53q36 -2 59 -21.5t23 -48.5z" />
    <glyph glyph-name="uni0328" unicode="&#x328;" 
d="M-18 -139h13l-30 -50q-28 -7 -65 -7q-42 0 -68 18.5t-26 48.5q0 43 68 103l42 36h71l-44 -50q-38 -46 -38 -65q0 -34 77 -34z" />
    <glyph glyph-name="uni032D" unicode="&#x32d;" 
d="M-31 -82l79 -176h-54l-92 89l-138 -89h-63v2l165 174h103z" />
    <glyph glyph-name="uni032E" unicode="&#x32e;" 
d="M-106 -168q76 0 151 81l46 -39q-37 -64 -91 -99.5t-114 -35.5q-56 0 -99.5 36.5t-60.5 98.5l50 39q44 -81 118 -81z" />
    <glyph glyph-name="uni0331" unicode="&#x331;" 
d="M70 -187h-352l20 82h352z" />
    <glyph glyph-name="uni0E3F" unicode="&#xe3f;" horiz-adv-x="662" 
d="M307 0l-39 -157h-83l39 157h-195l174 700h195l30 121h83l-31 -123q81 -9 127.5 -53t46.5 -112q0 -59 -38 -106.5t-106 -73.5q88 -45 88 -140t-80 -154q-82 -59 -211 -59zM375 600h-80l-49 -197h80zM536 516q0 34 -21.5 56t-61.5 27l-48 -195q59 6 95 37t36 75zM303 309
h-80l-52 -209h79zM478 218q0 39 -25.5 63t-71.5 28l-51 -209q67 4 107.5 36.5t40.5 81.5z" />
    <glyph glyph-name="uni1E06" unicode="&#x1e06;" horiz-adv-x="627" 
d="M498 515q0 38 -28.5 60t-77.5 22h-96l-47 -192h94q69 0 112 30.5t43 79.5zM440 219q0 42 -29.5 65t-82.5 23h-104l-50 -204h104q73 0 117.5 32t44.5 84zM268 0h-240l174 700h207q97 0 154.5 -45.5t57.5 -121.5q0 -59 -38 -107t-105 -74q87 -45 87 -140q0 -94 -81 -153
q-83 -59 -216 -59zM414 -187h-352l20 82h352z" />
    <glyph glyph-name="uni1E07" unicode="&#x1e07;" horiz-adv-x="614" 
d="M486 85q-95 -93 -231 -93q-71 0 -138 27l-95 -21l-10 2l179 721l128 38l-80 -321q81 77 167 77q76 0 124 -54q48 -55 48 -143q0 -141 -92 -233zM259 93q82 0 142 62q59 62 59 149q0 51 -26.5 80t-73.5 29q-65 0 -141 -56l-61 -245q45 -19 101 -19zM387 -187h-352l20 82
h352z" />
    <glyph glyph-name="uni1E0C" unicode="&#x1e0c;" horiz-adv-x="778" 
d="M626 393q0 93 -63.5 143.5t-181.5 50.5h-81l-118 -474h99q147 0 247 80q98 80 98 200zM278 0h-250l174 700h196q169 0 263 -77.5t94 -217.5q0 -178 -134 -291q-133 -114 -343 -114zM312 -223q-30 0 -50.5 21t-20.5 51t21 51t52 21q30 0 50.5 -20.5t20.5 -50.5
t-21.5 -51.5t-51.5 -21.5z" />
    <glyph glyph-name="uni1E0D" unicode="&#x1e0d;" horiz-adv-x="619" 
d="M154 202q0 -51 27 -80t75 -29q68 0 143 57l58 229q-46 33 -109 33q-79 0 -136 -61q-58 -61 -58 -149zM670 759l-189 -759h-117l18 71q-85 -81 -171 -81q-77 0 -126 55t-49 143q0 142 95 237q91 88 211 88q79 0 139 -36l61 244zM224 -223q-30 0 -50.5 21t-20.5 51t21 51
t52 21q30 0 50.5 -20.5t20.5 -50.5t-21.5 -51.5t-51.5 -21.5z" />
    <glyph glyph-name="uni1E0E" unicode="&#x1e0e;" horiz-adv-x="778" 
d="M626 393q0 93 -63.5 143.5t-181.5 50.5h-81l-118 -474h99q147 0 247 80q98 80 98 200zM278 0h-250l174 700h196q169 0 263 -77.5t94 -217.5q0 -178 -134 -291q-133 -114 -343 -114zM480 -187h-352l20 82h352z" />
    <glyph glyph-name="uni1E0F" unicode="&#x1e0f;" horiz-adv-x="619" 
d="M154 202q0 -51 27 -80t75 -29q68 0 143 57l58 229q-46 33 -109 33q-79 0 -136 -61q-58 -61 -58 -149zM670 759l-189 -759h-117l18 71q-85 -81 -171 -81q-77 0 -126 55t-49 143q0 142 95 237q91 88 211 88q79 0 139 -36l61 244zM392 -187h-352l20 82h352z" />
    <glyph glyph-name="uni1E12" unicode="&#x1e12;" horiz-adv-x="778" 
d="M626 393q0 93 -63.5 143.5t-181.5 50.5h-81l-118 -474h99q147 0 247 80q98 80 98 200zM278 0h-250l174 700h196q169 0 263 -77.5t94 -217.5q0 -178 -134 -291q-133 -114 -343 -114zM379 -82l79 -176h-54l-92 89l-138 -89h-63v2l165 174h103z" />
    <glyph glyph-name="uni1E13" unicode="&#x1e13;" horiz-adv-x="619" 
d="M154 202q0 -51 27 -80t75 -29q68 0 143 57l58 229q-46 33 -109 33q-79 0 -136 -61q-58 -61 -58 -149zM670 759l-189 -759h-117l18 71q-85 -81 -171 -81q-77 0 -126 55t-49 143q0 142 95 237q91 88 211 88q79 0 139 -36l61 244zM291 -82l79 -176h-54l-92 89l-138 -89h-63
v2l165 174h103z" />
    <glyph glyph-name="uni1E20" unicode="&#x1e20;" horiz-adv-x="786" 
d="M425 373h307l-82 -318q-119 -65 -259 -65q-144 0 -232 83q-87 83 -87 219q0 185 131 304q126 114 313 114q148 0 263 -69l-32 -119q-110 71 -237 71q-130 0 -219 -84q-90 -84 -90 -208q0 -91 56 -144t152 -53q77 0 140 27l36 139h-186zM706 797h-373l20 83h374z" />
    <glyph glyph-name="uni1E21" unicode="&#x1e21;" horiz-adv-x="619" 
d="M157 214q0 -49 26.5 -75.5t73.5 -26.5q68 0 150 63l54 220q-49 20 -98 20q-82 0 -144 -59q-62 -60 -62 -142zM200 -196q-110 0 -194 49l-18 123l3 2q98 -71 206 -71q140 0 177 131l17 58q-86 -80 -177 -80q-78 0 -126.5 51.5t-48.5 136.5q0 132 93 221q91 88 230 88
q79 0 143 -26l92 21l10 -3l-121 -485q-54 -216 -286 -216zM566 625h-352l20 82h352z" />
    <glyph glyph-name="uni1E24" unicode="&#x1e24;" horiz-adv-x="804" 
d="M824 700l-174 -700h-126l74 298h-370l-74 -298h-126l174 700h126l-71 -286h370l71 286h126zM309 -219q-30 0 -50.5 21t-20.5 51t21 51t52 21q30 0 50.5 -20.5t20.5 -50.5t-21.5 -51.5t-51.5 -21.5z" />
    <glyph glyph-name="uni1E25" unicode="&#x1e25;" horiz-adv-x="605" 
d="M435 336q0 36 -19.5 55.5t-55.5 19.5q-65 0 -144 -67l-86 -344h-118l179 721l128 38l-82 -331q87 88 168 88q67 0 109.5 -41.5t42.5 -108.5q0 -29 -16 -102l-66 -264h-119l71 283q8 30 8 53zM221 -218q-30 0 -50.5 21t-20.5 51t21 51t52 21q30 0 50.5 -20.5t20.5 -50.5
t-21.5 -51.5t-51.5 -21.5z" />
    <glyph glyph-name="uni1E28" unicode="&#x1e28;" horiz-adv-x="804" 
d="M181 -117q0 -38 -38 -61.5t-101 -23.5q-22 0 -71 9l-23 53l3 4q38 -15 80 -15q63 0 63 31q0 25 -48 25q-18 0 -45 -4l-2 4l62 95h-33l174 700h126l-71 -286h370l71 286h126l-174 -700h-126l74 298h-370l-74 -298h-24l-31 -47q36 -2 59 -21.5t23 -48.5z" />
    <glyph glyph-name="uni1E29" unicode="&#x1e29;" horiz-adv-x="605" 
d="M161 -117q0 -38 -38 -61.5t-101 -23.5q-22 0 -71 9l-23 53l3 4q38 -15 80 -15q63 0 63 31q0 25 -48 25q-18 0 -45 -4l-2 4l62 95h-29l179 721l128 38l-82 -331q87 88 168 88q67 0 109.5 -41.5t42.5 -108.5q0 -29 -16 -102l-66 -264h-119l71 283q8 30 8 53
q0 36 -19.5 55.5t-55.5 19.5q-65 0 -144 -67l-86 -344h-20l-31 -47q36 -2 59 -21.5t23 -48.5z" />
    <glyph glyph-name="uni1E2A" unicode="&#x1e2a;" horiz-adv-x="804" 
d="M824 700l-174 -700h-126l74 298h-370l-74 -298h-126l174 700h126l-71 -286h370l71 286h126zM300 -168q76 0 151 81l46 -39q-37 -64 -91 -99.5t-114 -35.5q-56 0 -99.5 36.5t-60.5 98.5l50 39q44 -81 118 -81z" />
    <glyph glyph-name="uni1E2B" unicode="&#x1e2b;" horiz-adv-x="605" 
d="M435 336q0 36 -19.5 55.5t-55.5 19.5q-65 0 -144 -67l-86 -344h-118l179 721l128 38l-82 -331q87 88 168 88q67 0 109.5 -41.5t42.5 -108.5q0 -29 -16 -102l-66 -264h-119l71 283q8 30 8 53zM212 -168q76 0 151 81l46 -39q-37 -64 -91 -99.5t-114 -35.5q-56 0 -99.5 36.5
t-60.5 98.5l50 39q44 -81 118 -81z" />
    <glyph glyph-name="uni1E32" unicode="&#x1e32;" horiz-adv-x="705" 
d="M628 3v-3h-153l-224 305h-21l-76 -305h-126l174 700h126l-72 -291h21l351 291h167v-3l-431 -350zM284 -223q-30 0 -50.5 21t-20.5 51t21 51t52 21q30 0 50.5 -20.5t20.5 -50.5t-21.5 -51.5t-51.5 -21.5z" />
    <glyph glyph-name="uni1E33" unicode="&#x1e33;" horiz-adv-x="563" 
d="M491 2v-2h-136l-146 216h-25l-54 -216h-118l179 721l128 38l-115 -461h25l225 208h150v-3l-285 -256zM221 -223q-30 0 -50.5 21t-20.5 51t21 51t52 21q30 0 50.5 -20.5t20.5 -50.5t-21.5 -51.5t-51.5 -21.5z" />
    <glyph glyph-name="uni1E34" unicode="&#x1e34;" horiz-adv-x="705" 
d="M628 3v-3h-153l-224 305h-21l-76 -305h-126l174 700h126l-72 -291h21l351 291h167v-3l-431 -350zM452 -187h-352l20 82h352z" />
    <glyph glyph-name="uni1E35" unicode="&#x1e35;" horiz-adv-x="563" 
d="M491 2v-2h-136l-146 216h-25l-54 -216h-118l179 721l128 38l-115 -461h25l225 208h150v-3l-285 -256zM389 -187h-352l20 82h352z" />
    <glyph glyph-name="uni1E36" unicode="&#x1e36;" horiz-adv-x="542" 
d="M471 113l-29 -113h-414l174 700h126l-146 -587h289zM210 -223q-30 0 -50.5 21t-20.5 51t21 51t52 21q30 0 50.5 -20.5t20.5 -50.5t-21.5 -51.5t-51.5 -21.5z" />
    <glyph glyph-name="uni1E37" unicode="&#x1e37;" horiz-adv-x="277" 
d="M324 759l-189 -759h-119l180 721zM40 -223q-30 0 -50.5 21t-20.5 51t21 51t52 21q30 0 50.5 -20.5t20.5 -50.5t-21.5 -51.5t-51.5 -21.5z" />
    <glyph glyph-name="uni1E38" unicode="&#x1e38;" horiz-adv-x="542" 
d="M471 113l-29 -113h-414l174 700h126l-146 -587h289zM430 792h-293l20 83h294zM210 -223q-30 0 -50.5 21t-20.5 51t21 51t52 21q30 0 50.5 -20.5t20.5 -50.5t-21.5 -51.5t-51.5 -21.5z" />
    <glyph glyph-name="uni1E39" unicode="&#x1e39;" horiz-adv-x="277" 
d="M324 759l-189 -759h-119l180 721zM427 840h-293l21 82h293zM40 -223q-30 0 -50.5 21t-20.5 51t21 51t52 21q30 0 50.5 -20.5t20.5 -50.5t-21.5 -51.5t-51.5 -21.5z" />
    <glyph glyph-name="uni1E3A" unicode="&#x1e3a;" horiz-adv-x="542" 
d="M471 113l-29 -113h-414l174 700h126l-146 -587h289zM378 -187h-352l20 82h352z" />
    <glyph glyph-name="uni1E3B" unicode="&#x1e3b;" horiz-adv-x="277" 
d="M324 759l-189 -759h-119l180 721zM178 -187h-293l21 82h293z" />
    <glyph glyph-name="uni1E3C" unicode="&#x1e3c;" horiz-adv-x="542" 
d="M471 113l-29 -113h-414l174 700h126l-146 -587h289zM277 -82l79 -176h-54l-92 89l-138 -89h-63v2l165 174h103z" />
    <glyph glyph-name="uni1E3D" unicode="&#x1e3d;" horiz-adv-x="277" 
d="M324 759l-189 -759h-119l180 721zM107 -82l79 -176h-54l-92 89l-138 -89h-63v2l165 174h103z" />
    <glyph glyph-name="uni1E3E" unicode="&#x1e3e;" horiz-adv-x="1030" 
d="M878 556l-422 -567h-15l-136 571l-180 -560h-123l227 700h169l104 -473l342 473h180l-121 -700h-123zM863 916v-2l-216 -145h-72l116 147h172z" />
    <glyph glyph-name="uni1E3F" unicode="&#x1e3f;" horiz-adv-x="914" 
d="M417 336q0 35 -19 55t-52 20q-58 0 -130 -65l-86 -346h-118l123 493l121 20l-20 -83q80 86 157 86q48 0 84.5 -25t52.5 -69q97 94 188 94q64 0 105.5 -42t41.5 -108q0 -42 -16 -102l-65 -264h-119l71 283q8 33 8 53q0 35 -19 55t-52 20q-63 0 -134 -58q-1 -16 -16 -89
l-66 -264h-119l71 283q8 30 8 53zM783 778v-2l-221 -174h-61l126 176h156z" />
    <glyph glyph-name="uni1E40" unicode="&#x1e40;" horiz-adv-x="1030" 
d="M878 556l-422 -567h-15l-136 571l-180 -560h-123l227 700h169l104 -473l342 473h180l-121 -700h-123zM634 912q31 0 52.5 -21t21.5 -51q0 -31 -22 -52.5t-53 -21.5t-52 21t-21 51q0 31 21.5 52.5t52.5 21.5z" />
    <glyph glyph-name="uni1E41" unicode="&#x1e41;" horiz-adv-x="914" 
d="M417 336q0 35 -19 55t-52 20q-58 0 -130 -65l-86 -346h-118l123 493l121 20l-20 -83q80 86 157 86q48 0 84.5 -25t52.5 -69q97 94 188 94q64 0 105.5 -42t41.5 -108q0 -42 -16 -102l-65 -264h-119l71 283q8 33 8 53q0 35 -19 55t-52 20q-63 0 -134 -58q-1 -16 -16 -89
l-66 -264h-119l71 283q8 30 8 53zM556 598q-30 0 -50.5 21t-20.5 51t21 51t52 21q30 0 50.5 -20.5t20.5 -50.5t-21.5 -51.5t-51.5 -21.5z" />
    <glyph glyph-name="uni1E42" unicode="&#x1e42;" horiz-adv-x="1030" 
d="M878 556l-422 -567h-15l-136 571l-180 -560h-123l227 700h169l104 -473l342 473h180l-121 -700h-123zM422 -223q-30 0 -50.5 21t-20.5 51t21 51t52 21q30 0 50.5 -20.5t20.5 -50.5t-21.5 -51.5t-51.5 -21.5z" />
    <glyph glyph-name="uni1E43" unicode="&#x1e43;" horiz-adv-x="914" 
d="M417 336q0 35 -19 55t-52 20q-58 0 -130 -65l-86 -346h-118l123 493l121 20l-20 -83q80 86 157 86q48 0 84.5 -25t52.5 -69q97 94 188 94q64 0 105.5 -42t41.5 -108q0 -42 -16 -102l-65 -264h-119l71 283q8 33 8 53q0 35 -19 55t-52 20q-63 0 -134 -58q-1 -16 -16 -89
l-66 -264h-119l71 283q8 30 8 53zM362 -223q-30 0 -50.5 21t-20.5 51t21 51t52 21q30 0 50.5 -20.5t20.5 -50.5t-21.5 -51.5t-51.5 -21.5z" />
    <glyph glyph-name="uni1E44" unicode="&#x1e44;" horiz-adv-x="816" 
d="M715 700h121l-174 -704h-62l-320 534l-130 -530h-122l174 700h119l279 -465zM541 912q31 0 52.5 -21t21.5 -51q0 -31 -22 -52.5t-53 -21.5t-52 21t-21 51q0 31 21.5 52.5t52.5 21.5z" />
    <glyph glyph-name="uni1E45" unicode="&#x1e45;" horiz-adv-x="605" 
d="M435 336q0 36 -19.5 55.5t-55.5 19.5q-65 0 -144 -67l-86 -344h-118l123 493l122 20l-21 -86q86 89 169 89q67 0 109.5 -41.5t42.5 -108.5q0 -29 -16 -102l-66 -264h-119l71 283q8 30 8 53zM396 598q-30 0 -50.5 21t-20.5 51t21 51t52 21q30 0 50.5 -20.5t20.5 -50.5
t-21.5 -51.5t-51.5 -21.5z" />
    <glyph glyph-name="uni1E46" unicode="&#x1e46;" horiz-adv-x="816" 
d="M715 700h121l-174 -704h-62l-320 534l-130 -530h-122l174 700h119l279 -465zM334 -223q-30 0 -50.5 21t-20.5 51t21 51t52 21q30 0 50.5 -20.5t20.5 -50.5t-21.5 -51.5t-51.5 -21.5z" />
    <glyph glyph-name="uni1E47" unicode="&#x1e47;" horiz-adv-x="605" 
d="M435 336q0 36 -19.5 55.5t-55.5 19.5q-65 0 -144 -67l-86 -344h-118l123 493l122 20l-21 -86q86 89 169 89q67 0 109.5 -41.5t42.5 -108.5q0 -29 -16 -102l-66 -264h-119l71 283q8 30 8 53zM221 -218q-30 0 -50.5 21t-20.5 51t21 51t52 21q30 0 50.5 -20.5t20.5 -50.5
t-21.5 -51.5t-51.5 -21.5z" />
    <glyph glyph-name="uni1E48" unicode="&#x1e48;" horiz-adv-x="816" 
d="M715 700h121l-174 -704h-62l-320 534l-130 -530h-122l174 700h119l279 -465zM502 -187h-352l20 82h352z" />
    <glyph glyph-name="uni1E49" unicode="&#x1e49;" horiz-adv-x="605" 
d="M435 336q0 36 -19.5 55.5t-55.5 19.5q-65 0 -144 -67l-86 -344h-118l123 493l122 20l-21 -86q86 89 169 89q67 0 109.5 -41.5t42.5 -108.5q0 -29 -16 -102l-66 -264h-119l71 283q8 30 8 53zM388 -187h-352l20 82h352z" />
    <glyph glyph-name="uni1E4A" unicode="&#x1e4a;" horiz-adv-x="816" 
d="M715 700h121l-174 -704h-62l-320 534l-130 -530h-122l174 700h119l279 -465zM401 -82l79 -176h-54l-92 89l-138 -89h-63v2l165 174h103z" />
    <glyph glyph-name="uni1E4B" unicode="&#x1e4b;" horiz-adv-x="605" 
d="M435 336q0 36 -19.5 55.5t-55.5 19.5q-65 0 -144 -67l-86 -344h-118l123 493l122 20l-21 -86q86 89 169 89q67 0 109.5 -41.5t42.5 -108.5q0 -29 -16 -102l-66 -264h-119l71 283q8 30 8 53zM288 -77l79 -176h-54l-92 89l-138 -89h-63v2l165 174h103z" />
    <glyph glyph-name="uni1E58" unicode="&#x1e58;" horiz-adv-x="648" 
d="M494 501q0 44 -29 68t-82 24h-84l-55 -223h94q68 0 112 37q44 38 44 94zM410 280l190 -280h-143l-179 268h-58l-66 -268h-126l174 700h196q104 0 163.5 -50t59.5 -137q0 -86 -57 -148.5t-154 -84.5zM458 912q31 0 52.5 -21t21.5 -51q0 -31 -22 -52.5t-53 -21.5t-52 21
t-21 51q0 31 21.5 52.5t52.5 21.5z" />
    <glyph glyph-name="uni1E59" unicode="&#x1e59;" horiz-adv-x="420" 
d="M390 389q-75 0 -183 -81l-77 -308h-118l123 493l122 20l-31 -122q66 74 103 98q37 25 80 25q11 0 40 -6l-21 -124q-15 5 -38 5zM332 598q-30 0 -50.5 21t-20.5 51t21 51t52 21q30 0 50.5 -20.5t20.5 -50.5t-21.5 -51.5t-51.5 -21.5z" />
    <glyph glyph-name="uni1E5A" unicode="&#x1e5a;" horiz-adv-x="648" 
d="M494 501q0 44 -29 68t-82 24h-84l-55 -223h94q68 0 112 37q44 38 44 94zM410 280l190 -280h-143l-179 268h-58l-66 -268h-126l174 700h196q104 0 163.5 -50t59.5 -137q0 -86 -57 -148.5t-154 -84.5zM273 -223q-30 0 -50.5 21t-20.5 51t21 51t52 21q30 0 50.5 -20.5
t20.5 -50.5t-21.5 -51.5t-51.5 -21.5z" />
    <glyph glyph-name="uni1E5B" unicode="&#x1e5b;" horiz-adv-x="420" 
d="M390 389q-75 0 -183 -81l-77 -308h-118l123 493l122 20l-31 -122q66 74 103 98q37 25 80 25q11 0 40 -6l-21 -124q-15 5 -38 5zM40 -223q-30 0 -50.5 21t-20.5 51t21 51t52 21q30 0 50.5 -20.5t20.5 -50.5t-21.5 -51.5t-51.5 -21.5z" />
    <glyph glyph-name="uni1E5C" unicode="&#x1e5c;" horiz-adv-x="648" 
d="M494 501q0 44 -29 68t-82 24h-84l-55 -223h94q68 0 112 37q44 38 44 94zM410 280l190 -280h-143l-179 268h-58l-66 -268h-126l174 700h196q104 0 163.5 -50t59.5 -137q0 -86 -57 -148.5t-154 -84.5zM633 792h-373l20 83h374zM273 -223q-30 0 -50.5 21t-20.5 51t21 51
t52 21q30 0 50.5 -20.5t20.5 -50.5t-21.5 -51.5t-51.5 -21.5z" />
    <glyph glyph-name="uni1E5D" unicode="&#x1e5d;" horiz-adv-x="420" 
d="M390 389q-75 0 -183 -81l-77 -308h-118l123 493l122 20l-31 -122q66 74 103 98q37 25 80 25q11 0 40 -6l-21 -124q-15 5 -38 5zM467 625h-293l21 82h293zM40 -223q-30 0 -50.5 21t-20.5 51t21 51t52 21q30 0 50.5 -20.5t20.5 -50.5t-21.5 -51.5t-51.5 -21.5z" />
    <glyph glyph-name="uni1E5E" unicode="&#x1e5e;" horiz-adv-x="648" 
d="M494 501q0 44 -29 68t-82 24h-84l-55 -223h94q68 0 112 37q44 38 44 94zM410 280l190 -280h-143l-179 268h-58l-66 -268h-126l174 700h196q104 0 163.5 -50t59.5 -137q0 -86 -57 -148.5t-154 -84.5zM441 -187h-352l20 82h352z" />
    <glyph glyph-name="uni1E5F" unicode="&#x1e5f;" horiz-adv-x="420" 
d="M390 389q-75 0 -183 -81l-77 -308h-118l123 493l122 20l-31 -122q66 74 103 98q37 25 80 25q11 0 40 -6l-21 -124q-15 5 -38 5zM178 -187h-293l21 82h293z" />
    <glyph glyph-name="uni1E62" unicode="&#x1e62;" horiz-adv-x="557" 
d="M273 305q-82 50 -114.5 94.5t-32.5 104.5q0 91 68 150q67 58 174 58q104 0 192 -52l-6 -130l-2 -1q-91 71 -188 71q-51 0 -83 -23t-32 -59q0 -30 21.5 -54.5t81.5 -60.5q81 -49 114 -94t33 -107q0 -97 -67 -155q-68 -59 -177 -59q-60 0 -117 20.5t-97 56.5l-20 155l2 1
q119 -121 233 -121q54 0 87 24.5t33 63.5q0 31 -21.5 56t-81.5 61zM196 -228q-30 0 -50.5 21t-20.5 51t21 51t52 21q30 0 50.5 -20.5t20.5 -50.5t-21.5 -51.5t-51.5 -21.5z" />
    <glyph glyph-name="uni1E63" unicode="&#x1e63;" horiz-adv-x="500" 
d="M225 208q-77 29 -110 64t-33 89q0 69 57 112q58 44 148 44q99 0 177 -49l-4 -113l-3 -1q-89 67 -175 67q-39 0 -63 -14t-24 -37q0 -22 19 -37t71 -34q75 -29 108.5 -65t33.5 -88q0 -71 -58 -114t-154 -43q-109 0 -186 53l-14 121l3 2q93 -80 202 -80q42 0 68 14.5
t26 36.5q0 20 -20 35.5t-69 36.5zM157 -225q-30 0 -50.5 21t-20.5 51t21 51t52 21q30 0 50.5 -20.5t20.5 -50.5t-21.5 -51.5t-51.5 -21.5z" />
    <glyph glyph-name="uni1E6C" unicode="&#x1e6c;" horiz-adv-x="708" 
d="M145 700h641l-29 -113h-255l-146 -587h-126l146 587h-259zM258 -223q-30 0 -50.5 21t-20.5 51t21 51t52 21q30 0 50.5 -20.5t20.5 -50.5t-21.5 -51.5t-51.5 -21.5z" />
    <glyph glyph-name="uni1E6D" unicode="&#x1e6d;" horiz-adv-x="456" 
d="M394 139l3 -2l-38 -121q-52 -27 -111 -27q-74 0 -117 41.5t-43 112.5q0 31 10 71l54 195h-82l25 97h84l30 108l127 37l-40 -145h182l-25 -97h-184l-57 -208q-6 -23 -6 -40q0 -32 20 -50t54 -18q61 0 114 46zM176 -223q-30 0 -50.5 21t-20.5 51t21 51t52 21
q30 0 50.5 -20.5t20.5 -50.5t-21.5 -51.5t-51.5 -21.5z" />
    <glyph glyph-name="uni1E6E" unicode="&#x1e6e;" horiz-adv-x="708" 
d="M145 700h641l-29 -113h-255l-146 -587h-126l146 587h-259zM426 -187h-352l20 82h352z" />
    <glyph glyph-name="uni1E6F" unicode="&#x1e6f;" horiz-adv-x="456" 
d="M394 139l3 -2l-38 -121q-52 -27 -111 -27q-74 0 -117 41.5t-43 112.5q0 31 10 71l54 195h-82l25 97h84l30 108l127 37l-40 -145h182l-25 -97h-184l-57 -208q-6 -23 -6 -40q0 -32 20 -50t54 -18q61 0 114 46zM314 -187h-293l21 82h293z" />
    <glyph glyph-name="uni1E70" unicode="&#x1e70;" horiz-adv-x="708" 
d="M145 700h641l-29 -113h-255l-146 -587h-126l146 587h-259zM325 -82l79 -176h-54l-92 89l-138 -89h-63v2l165 174h103z" />
    <glyph glyph-name="uni1E71" unicode="&#x1e71;" horiz-adv-x="456" 
d="M394 139l3 -2l-38 -121q-52 -27 -111 -27q-74 0 -117 41.5t-43 112.5q0 31 10 71l54 195h-82l25 97h84l30 108l127 37l-40 -145h182l-25 -97h-184l-57 -208q-6 -23 -6 -40q0 -32 20 -50t54 -18q61 0 114 46zM243 -82l79 -176h-54l-92 89l-138 -89h-63v2l165 174h103z" />
    <glyph glyph-name="uni1E7E" unicode="&#x1e7e;" horiz-adv-x="774" 
d="M861 700l-514 -714h-59l-152 714h133l94 -503l353 503h145zM290 -231q-30 0 -50.5 21t-20.5 51t21 51t52 21q30 0 50.5 -20.5t20.5 -50.5t-21.5 -51.5t-51.5 -21.5z" />
    <glyph glyph-name="uni1E7F" unicode="&#x1e7f;" horiz-adv-x="582" 
d="M628 506l-377 -519h-51l-121 519h121l67 -326l225 326h136zM200 -223q-30 0 -50.5 21t-20.5 51t21 51t52 21q30 0 50.5 -20.5t20.5 -50.5t-21.5 -51.5t-51.5 -21.5z" />
    <glyph glyph-name="Wgrave" unicode="&#x1e80;" horiz-adv-x="1160" 
d="M623 444l-296 -448h-123l-60 704h131l34 -535l360 544h17l111 -544l302 535h142l-412 -704h-117zM531 916h151l44 -147h-59l-136 145v2z" />
    <glyph glyph-name="wgrave" unicode="&#x1e81;" horiz-adv-x="881" 
d="M449 290l-208 -297h-99l-61 513h118l32 -359l259 365h17l81 -365l209 359h128l-314 -513h-99zM361 778h141l41 -176h-52z" />
    <glyph glyph-name="Wacute" unicode="&#x1e82;" horiz-adv-x="1160" 
d="M623 444l-296 -448h-123l-60 704h131l34 -535l360 544h17l111 -544l302 535h142l-412 -704h-117zM938 916v-2l-216 -145h-72l116 147h172z" />
    <glyph glyph-name="wacute" unicode="&#x1e83;" horiz-adv-x="881" 
d="M449 290l-208 -297h-99l-61 513h118l32 -359l259 365h17l81 -365l209 359h128l-314 -513h-99zM759 778v-2l-221 -174h-61l126 176h156z" />
    <glyph glyph-name="Wdieresis" unicode="&#x1e84;" horiz-adv-x="1160" 
d="M623 444l-296 -448h-123l-60 704h131l34 -535l360 544h17l111 -544l302 535h142l-412 -704h-117zM815 913q31 0 52 -21t21 -52t-21.5 -52.5t-52.5 -21.5t-52 21t-21 51q0 31 21.5 53t52.5 22zM604 913q31 0 52 -21t21 -52t-21.5 -52.5t-52.5 -21.5t-52 21t-21 51
q0 31 21.5 53t52.5 22z" />
    <glyph glyph-name="wdieresis" unicode="&#x1e85;" horiz-adv-x="881" 
d="M449 290l-208 -297h-99l-61 513h118l32 -359l259 365h17l81 -365l209 359h128l-314 -513h-99zM637 599q-30 0 -51 21t-21 51t21.5 51.5t52.5 21.5q30 0 51 -20.5t21 -50.5q0 -31 -21.5 -52.5t-52.5 -21.5zM425 599q-30 0 -51 21t-21 51t21.5 51.5t52.5 21.5
q30 0 51 -20.5t21 -50.5q0 -31 -21.5 -52.5t-52.5 -21.5z" />
    <glyph glyph-name="uni1E8C" unicode="&#x1e8c;" horiz-adv-x="742" 
d="M472 348l178 -348h-139l-133 266l-254 -266h-158v2l354 361l-172 337h140l127 -255l245 255h158v-2zM609 913q31 0 52 -21t21 -52t-21.5 -52.5t-52.5 -21.5t-52 21t-21 51q0 31 21.5 53t52.5 22zM398 913q31 0 52 -21t21 -52t-21.5 -52.5t-52.5 -21.5t-52 21t-21 51
q0 31 21.5 53t52.5 22z" />
    <glyph glyph-name="uni1E8D" unicode="&#x1e8d;" horiz-adv-x="573" 
d="M359 254l130 -254h-128l-89 181l-169 -181h-143v2l258 265l-123 239h129l81 -167l155 167h143v-2zM490 599q-30 0 -51 21t-21 51t21.5 51.5t52.5 21.5q30 0 51 -20.5t21 -50.5q0 -31 -21.5 -52.5t-52.5 -21.5zM278 599q-30 0 -51 21t-21 51t21.5 51.5t52.5 21.5
q30 0 51 -20.5t21 -50.5q0 -31 -21.5 -52.5t-52.5 -21.5z" />
    <glyph glyph-name="uni1E8E" unicode="&#x1e8e;" horiz-adv-x="675" 
d="M777 698l-368 -404l-74 -294h-126l76 307l-166 393h133l117 -289l256 289h152v-2zM469 912q31 0 52.5 -21t21.5 -51q0 -31 -22 -52.5t-53 -21.5t-52 21t-21 51q0 31 21.5 52.5t52.5 21.5z" />
    <glyph glyph-name="uni1E8F" unicode="&#x1e8f;" horiz-adv-x="566" 
d="M39 -194q-39 0 -69 14l-27 116l3 2q33 -23 81 -23q41 0 70.5 17.5t55.5 57.5l25 39l-98 477h122l62 -352l214 352h132l-355 -557q-47 -75 -98.5 -109t-117.5 -34zM373 598q-30 0 -50.5 21t-20.5 51t21 51t52 21q30 0 50.5 -20.5t20.5 -50.5t-21.5 -51.5t-51.5 -21.5z" />
    <glyph glyph-name="uni1E90" unicode="&#x1e90;" horiz-adv-x="697" 
d="M222 112h412l-71 -112h-576l-7 16l535 572h-379l29 112h585l7 -16zM549 916l92 -147h-64l-97 70l-133 -70h-74v2l164 145h112z" />
    <glyph glyph-name="uni1E91" unicode="&#x1e91;" horiz-adv-x="536" 
d="M183 97h292l-66 -97h-439l-4 15l373 393h-253l24 98h443l4 -15zM444 778l79 -176h-54l-92 89l-138 -89h-63v2l165 174h103z" />
    <glyph glyph-name="uni1E92" unicode="&#x1e92;" horiz-adv-x="697" 
d="M222 112h412l-71 -112h-576l-7 16l535 572h-379l29 112h585l7 -16zM275 -223q-30 0 -50.5 21t-20.5 51t21 51t52 21q30 0 50.5 -20.5t20.5 -50.5t-21.5 -51.5t-51.5 -21.5z" />
    <glyph glyph-name="uni1E93" unicode="&#x1e93;" horiz-adv-x="536" 
d="M183 97h292l-66 -97h-439l-4 15l373 393h-253l24 98h443l4 -15zM170 -223q-30 0 -50.5 21t-20.5 51t21 51t52 21q30 0 50.5 -20.5t20.5 -50.5t-21.5 -51.5t-51.5 -21.5z" />
    <glyph glyph-name="uni1E94" unicode="&#x1e94;" horiz-adv-x="697" 
d="M222 112h412l-71 -112h-576l-7 16l535 572h-379l29 112h585l7 -16zM443 -187h-352l20 82h352z" />
    <glyph glyph-name="uni1E95" unicode="&#x1e95;" horiz-adv-x="536" 
d="M183 97h292l-66 -97h-439l-4 15l373 393h-253l24 98h443l4 -15zM338 -187h-352l20 82h352z" />
    <glyph glyph-name="uni1E96" unicode="&#x1e96;" horiz-adv-x="605" 
d="M435 336q0 36 -19.5 55.5t-55.5 19.5q-65 0 -144 -67l-86 -344h-118l179 721l128 38l-82 -331q87 88 168 88q67 0 109.5 -41.5t42.5 -108.5q0 -29 -16 -102l-66 -264h-119l71 283q8 30 8 53zM388 -187h-352l20 82h352z" />
    <glyph glyph-name="uni1E9E" unicode="&#x1e9e;" horiz-adv-x="714" 
d="M649 187q0 -88 -67 -143q-68 -56 -173 -56q-69 0 -129 26l-21 123l2 1q70 -39 138 -39q56 0 91.5 26.5t35.5 68.5q0 44 -41.5 75t-140.5 61v15l214 229q-57 27 -109 27q-74 0 -124 -43t-71 -125l-109 -433h-125l114 452q31 126 114 194t203 68q150 0 262 -107v-16
l-209 -222q145 -60 145 -182z" />
    <glyph glyph-name="uni1EA0" unicode="&#x1ea0;" horiz-adv-x="795" 
d="M483 567l-201 -297h253zM574 703l133 -703h-127l-28 163h-340l-109 -163h-141l483 703h129zM322 -223q-30 0 -50.5 21t-20.5 51t21 51t52 21q30 0 50.5 -20.5t20.5 -50.5t-21.5 -51.5t-51.5 -21.5z" />
    <glyph glyph-name="uni1EA1" unicode="&#x1ea1;" horiz-adv-x="558" 
d="M496 242l-62 -232l-121 -20l22 81q-100 -79 -187 -79q-61 0 -98.5 35t-37.5 94q0 83 73.5 128.5t208.5 45.5q54 0 96 -6q2 32 2 33q0 42 -27 66t-76 24q-84 0 -183 -56l-2 2l51 123q75 34 160 34q90 0 142.5 -48.5t52.5 -130.5q0 -47 -14 -94zM126 138q0 -26 17 -40.5
t47 -14.5q69 0 162 58l22 84q-44 4 -68 4q-84 0 -132 -24.5t-48 -66.5zM191 -223q-30 0 -50.5 21t-20.5 51t21 51t52 21q30 0 50.5 -20.5t20.5 -50.5t-21.5 -51.5t-51.5 -21.5z" />
    <glyph glyph-name="uni1EA2" unicode="&#x1ea2;" horiz-adv-x="795" 
d="M483 567l-201 -297h253zM574 703l133 -703h-127l-28 163h-340l-109 -163h-141l483 703h129zM675 889q0 -69 -146 -127l-68 21v2q69 30 98 49t29 34q0 16 -33 16q-58 0 -129 -41l-2 1l20 79q58 32 127 32q47 0 75.5 -18t28.5 -48z" />
    <glyph glyph-name="uni1EA3" unicode="&#x1ea3;" horiz-adv-x="558" 
d="M496 242l-62 -232l-121 -20l22 81q-100 -79 -187 -79q-61 0 -98.5 35t-37.5 94q0 83 73.5 128.5t208.5 45.5q54 0 96 -6q2 32 2 33q0 42 -27 66t-76 24q-84 0 -183 -56l-2 2l51 123q75 34 160 34q90 0 142.5 -48.5t52.5 -130.5q0 -47 -14 -94zM126 138q0 -26 17 -40.5
t47 -14.5q69 0 162 58l22 84q-44 4 -68 4q-84 0 -132 -24.5t-48 -66.5zM275 696l-2 1l22 93q61 39 127 39q47 0 75 -22.5t28 -60.5q0 -40 -35.5 -76t-115.5 -77l-65 21v2q127 73 127 109q0 22 -32 22q-52 0 -129 -51z" />
    <glyph glyph-name="uni1EA4" unicode="&#x1ea4;" horiz-adv-x="795" 
d="M483 567l-201 -297h253zM574 703l133 -703h-127l-28 163h-340l-109 -163h-141l483 703h129zM922 995l-175 -114h-67l89 116h153v-2zM611 914l93 -145h-64l-97 69l-134 -69h-73v2l163 143h112z" />
    <glyph glyph-name="uni1EA5" unicode="&#x1ea5;" horiz-adv-x="558" 
d="M496 242l-62 -232l-121 -20l22 81q-100 -79 -187 -79q-61 0 -98.5 35t-37.5 94q0 83 73.5 128.5t208.5 45.5q54 0 96 -6q2 32 2 33q0 42 -27 66t-76 24q-84 0 -183 -56l-2 2l51 123q75 34 160 34q90 0 142.5 -48.5t52.5 -130.5q0 -47 -14 -94zM126 138q0 -26 17 -40.5
t47 -14.5q69 0 162 58l22 84q-44 4 -68 4q-84 0 -132 -24.5t-48 -66.5zM747 864l-158 -131h-60l89 133h129v-2zM456 751l93 -149h-55l-103 70l-144 -70h-61v2l166 147h104z" />
    <glyph glyph-name="uni1EA6" unicode="&#x1ea6;" horiz-adv-x="795" 
d="M483 567l-201 -297h253zM574 703l133 -703h-127l-28 163h-340l-109 -163h-141l483 703h129zM624 997h133l38 -116h-53l-118 115v1zM611 914l93 -145h-64l-97 69l-134 -69h-73v2l163 143h112z" />
    <glyph glyph-name="uni1EA7" unicode="&#x1ea7;" horiz-adv-x="558" 
d="M496 242l-62 -232l-121 -20l22 81q-100 -79 -187 -79q-61 0 -98.5 35t-37.5 94q0 83 73.5 128.5t208.5 45.5q54 0 96 -6q2 32 2 33q0 42 -27 66t-76 24q-84 0 -183 -56l-2 2l51 123q75 34 160 34q90 0 142.5 -48.5t52.5 -130.5q0 -47 -14 -94zM126 138q0 -26 17 -40.5
t47 -14.5q69 0 162 58l22 84q-44 4 -68 4q-84 0 -132 -24.5t-48 -66.5zM473 866h116l33 -133h-51zM456 751l93 -149h-55l-103 70l-144 -70h-61v2l166 147h104z" />
    <glyph glyph-name="uni1EA8" unicode="&#x1ea8;" horiz-adv-x="795" 
d="M483 567l-201 -297h253zM574 703l133 -703h-127l-28 163h-340l-109 -163h-141l483 703h129zM783 962q0 16 -31 16q-44 0 -103 -31l-2 1l16 65q48 25 106 25q40 0 65.5 -16.5t25.5 -42.5q0 -28 -28 -51t-91 -48l-53 20v2q95 38 95 60zM611 914l93 -145h-64l-97 69
l-134 -69h-73v2l163 143h112z" />
    <glyph glyph-name="uni1EA9" unicode="&#x1ea9;" horiz-adv-x="558" 
d="M496 242l-62 -232l-121 -20l22 81q-100 -79 -187 -79q-61 0 -98.5 35t-37.5 94q0 83 73.5 128.5t208.5 45.5q54 0 96 -6q2 32 2 33q0 42 -27 66t-76 24q-84 0 -183 -56l-2 2l51 123q75 34 160 34q90 0 142.5 -48.5t52.5 -130.5q0 -47 -14 -94zM126 138q0 -26 17 -40.5
t47 -14.5q69 0 162 58l22 84q-44 4 -68 4q-84 0 -132 -24.5t-48 -66.5zM645 816q0 19 -28 19q-44 0 -114 -45l-2 1l22 75q55 33 109 33q39 0 64.5 -18.5t25.5 -47.5q0 -30 -28.5 -56.5t-95.5 -58.5l-57 18v2q104 51 104 78zM456 751l93 -149h-55l-103 70l-144 -70h-61v2
l166 147h104z" />
    <glyph glyph-name="uni1EAA" unicode="&#x1eaa;" horiz-adv-x="795" 
d="M483 567l-201 -297h253zM574 703l133 -703h-127l-28 163h-340l-109 -163h-141l483 703h129zM653 932q-25 0 -87 29q-52 23 -67 23q-14 0 -27 -10t-37 -42l-43 30q31 54 55.5 77t50.5 23q25 0 88 -28q49 -23 66 -23q14 0 26 9.5t38 42.5l43 -30q-33 -55 -56.5 -78
t-49.5 -23zM607 891l97 -122h-64l-99 55l-132 -55h-73v2l159 120h112z" />
    <glyph glyph-name="uni1EAB" unicode="&#x1eab;" horiz-adv-x="558" 
d="M496 242l-62 -232l-121 -20l22 81q-100 -79 -187 -79q-61 0 -98.5 35t-37.5 94q0 83 73.5 128.5t208.5 45.5q54 0 96 -6q2 32 2 33q0 42 -27 66t-76 24q-84 0 -183 -56l-2 2l51 123q75 34 160 34q90 0 142.5 -48.5t52.5 -130.5q0 -47 -14 -94zM126 138q0 -26 17 -40.5
t47 -14.5q69 0 162 58l22 84q-44 4 -68 4q-84 0 -132 -24.5t-48 -66.5zM498 780q-23 0 -79 24q-48 21 -64 21q-13 0 -26.5 -8.5t-43.5 -37.5l-40 36q41 52 64 71t45 19q24 0 80 -25q49 -20 63 -20q13 0 26 8t45 37l39 -35q-40 -52 -63 -71t-46 -19zM451 733l98 -131h-55
l-105 61l-142 -61h-61v2l162 129h103z" />
    <glyph glyph-name="uni1EAC" unicode="&#x1eac;" horiz-adv-x="795" 
d="M483 567l-201 -297h253zM574 703l133 -703h-127l-28 163h-340l-109 -163h-141l483 703h129zM611 916l92 -147h-64l-97 70l-133 -70h-74v2l164 145h112zM322 -223q-30 0 -50.5 21t-20.5 51t21 51t52 21q30 0 50.5 -20.5t20.5 -50.5t-21.5 -51.5t-51.5 -21.5z" />
    <glyph glyph-name="uni1EAD" unicode="&#x1ead;" horiz-adv-x="558" 
d="M496 242l-62 -232l-121 -20l22 81q-100 -79 -187 -79q-61 0 -98.5 35t-37.5 94q0 83 73.5 128.5t208.5 45.5q54 0 96 -6q2 32 2 33q0 42 -27 66t-76 24q-84 0 -183 -56l-2 2l51 123q75 34 160 34q90 0 142.5 -48.5t52.5 -130.5q0 -47 -14 -94zM126 138q0 -26 17 -40.5
t47 -14.5q69 0 162 58l22 84q-44 4 -68 4q-84 0 -132 -24.5t-48 -66.5zM461 778l79 -176h-54l-92 89l-138 -89h-63v2l165 174h103zM191 -223q-30 0 -50.5 21t-20.5 51t21 51t52 21q30 0 50.5 -20.5t20.5 -50.5t-21.5 -51.5t-51.5 -21.5z" />
    <glyph glyph-name="uni1EAE" unicode="&#x1eae;" horiz-adv-x="795" 
d="M483 567l-201 -297h253zM574 703l133 -703h-127l-28 163h-340l-109 -163h-141l483 703h129zM749 1037l-179 -123h-61l90 124h150v-1zM525 767q-58 0 -103 30t-66 83l49 35q46 -60 129 -60t159 60l44 -35q-38 -53 -94 -83t-118 -30z" />
    <glyph glyph-name="uni1EAF" unicode="&#x1eaf;" horiz-adv-x="558" 
d="M496 242l-62 -232l-121 -20l22 81q-100 -79 -187 -79q-61 0 -98.5 35t-37.5 94q0 83 73.5 128.5t208.5 45.5q54 0 96 -6q2 32 2 33q0 42 -27 66t-76 24q-84 0 -183 -56l-2 2l51 123q75 34 160 34q90 0 142.5 -48.5t52.5 -130.5q0 -47 -14 -94zM126 138q0 -26 17 -40.5
t47 -14.5q69 0 162 58l22 84q-44 4 -68 4q-84 0 -132 -24.5t-48 -66.5zM600 891v-2l-179 -130h-60l91 132h148zM382 678q81 0 151 67l42 -41q-35 -51 -88.5 -80t-111.5 -29q-55 0 -97.5 29t-63.5 80l44 41q48 -67 124 -67z" />
    <glyph glyph-name="uni1EB0" unicode="&#x1eb0;" horiz-adv-x="795" 
d="M483 567l-201 -297h253zM574 703l133 -703h-127l-28 163h-340l-109 -163h-141l483 703h129zM418 1038h126l35 -124h-52l-109 123v1zM525 767q-58 0 -103 30t-66 83l49 35q46 -60 129 -60t159 60l44 -35q-38 -53 -94 -83t-118 -30z" />
    <glyph glyph-name="uni1EB1" unicode="&#x1eb1;" horiz-adv-x="558" 
d="M496 242l-62 -232l-121 -20l22 81q-100 -79 -187 -79q-61 0 -98.5 35t-37.5 94q0 83 73.5 128.5t208.5 45.5q54 0 96 -6q2 32 2 33q0 42 -27 66t-76 24q-84 0 -183 -56l-2 2l51 123q75 34 160 34q90 0 142.5 -48.5t52.5 -130.5q0 -47 -14 -94zM126 138q0 -26 17 -40.5
t47 -14.5q69 0 162 58l22 84q-44 4 -68 4q-84 0 -132 -24.5t-48 -66.5zM264 891h132l32 -132h-50l-114 131v1zM382 678q81 0 151 67l42 -41q-35 -51 -88.5 -80t-111.5 -29q-55 0 -97.5 29t-63.5 80l44 41q48 -67 124 -67z" />
    <glyph glyph-name="uni1EB2" unicode="&#x1eb2;" horiz-adv-x="795" 
d="M483 567l-201 -297h253zM574 703l133 -703h-127l-28 163h-340l-109 -163h-141l483 703h129zM685 1021q0 -56 -123 -108l-64 21v2q102 43 102 67q0 17 -34 17q-44 0 -109 -37l-2 1l19 73q52 27 112 27q44 0 71.5 -17.5t27.5 -45.5zM525 767q-58 0 -103 30t-66 83l49 35
q46 -60 129 -60t159 60l44 -35q-38 -53 -94 -83t-118 -30z" />
    <glyph glyph-name="uni1EB3" unicode="&#x1eb3;" horiz-adv-x="558" 
d="M496 242l-62 -232l-121 -20l22 81q-100 -79 -187 -79q-61 0 -98.5 35t-37.5 94q0 83 73.5 128.5t208.5 45.5q54 0 96 -6q2 32 2 33q0 42 -27 66t-76 24q-84 0 -183 -56l-2 2l51 123q75 34 160 34q90 0 142.5 -48.5t52.5 -130.5q0 -47 -14 -94zM126 138q0 -26 17 -40.5
t47 -14.5q69 0 162 58l22 84q-44 4 -68 4q-84 0 -132 -24.5t-48 -66.5zM542 864q0 -31 -29.5 -57.5t-97.5 -57.5l-57 18v2q105 50 105 77q0 19 -29 19q-41 0 -116 -46l-2 1l23 75q52 34 111 34q40 0 66 -18.5t26 -46.5zM382 678q81 0 151 67l42 -41q-35 -51 -88.5 -80
t-111.5 -29q-55 0 -97.5 29t-63.5 80l44 41q48 -67 124 -67z" />
    <glyph glyph-name="uni1EB4" unicode="&#x1eb4;" horiz-adv-x="795" 
d="M483 567l-201 -297h253zM574 703l133 -703h-127l-28 163h-340l-109 -163h-141l483 703h129zM656 944q-25 0 -88 28q-51 22 -68 22q-15 0 -27.5 -9.5t-36.5 -40.5l-43 30q32 54 57 77t51 23q24 0 89 -28q49 -23 66 -23q15 0 28 9.5t37 41.5l42 -31q-32 -54 -56.5 -76.5
t-50.5 -22.5zM525 767q-58 0 -103 30t-66 83l49 35q46 -60 129 -60t159 60l44 -35q-38 -53 -94 -83t-118 -30z" />
    <glyph glyph-name="uni1EB5" unicode="&#x1eb5;" horiz-adv-x="558" 
d="M496 242l-62 -232l-121 -20l22 81q-100 -79 -187 -79q-61 0 -98.5 35t-37.5 94q0 83 73.5 128.5t208.5 45.5q54 0 96 -6q2 32 2 33q0 42 -27 66t-76 24q-84 0 -183 -56l-2 2l51 123q75 34 160 34q90 0 142.5 -48.5t52.5 -130.5q0 -47 -14 -94zM126 138q0 -26 17 -40.5
t47 -14.5q69 0 162 58l22 84q-44 4 -68 4q-84 0 -132 -24.5t-48 -66.5zM494 781q-24 0 -78 26q-45 22 -63 22q-26 0 -72 -46l-39 36q41 53 63.5 71.5t44.5 18.5q24 0 78 -26q45 -22 63 -22q27 0 72 45l39 -35q-42 -54 -63.5 -72t-44.5 -18zM382 678q81 0 151 67l42 -41
q-35 -51 -88.5 -80t-111.5 -29q-55 0 -97.5 29t-63.5 80l44 41q48 -67 124 -67z" />
    <glyph glyph-name="uni1EB6" unicode="&#x1eb6;" horiz-adv-x="795" 
d="M483 567l-201 -297h253zM574 703l133 -703h-127l-28 163h-340l-109 -163h-141l483 703h129zM526 767q-61 0 -106 33t-62 90l52 37q41 -71 127 -71q75 0 156 71l48 -37q-38 -58 -95 -90.5t-120 -32.5zM322 -223q-30 0 -50.5 21t-20.5 51t21 51t52 21q30 0 50.5 -20.5
t20.5 -50.5t-21.5 -51.5t-51.5 -21.5z" />
    <glyph glyph-name="uni1EB7" unicode="&#x1eb7;" horiz-adv-x="558" 
d="M496 242l-62 -232l-121 -20l22 81q-100 -79 -187 -79q-61 0 -98.5 35t-37.5 94q0 83 73.5 128.5t208.5 45.5q54 0 96 -6q2 32 2 33q0 42 -27 66t-76 24q-84 0 -183 -56l-2 2l51 123q75 34 160 34q90 0 142.5 -48.5t52.5 -130.5q0 -47 -14 -94zM126 138q0 -26 17 -40.5
t47 -14.5q69 0 162 58l22 84q-44 4 -68 4q-84 0 -132 -24.5t-48 -66.5zM384 688q76 0 151 81l46 -39q-37 -64 -91 -99.5t-114 -35.5q-56 0 -99.5 36.5t-60.5 98.5l50 39q44 -81 118 -81zM191 -223q-30 0 -50.5 21t-20.5 51t21 51t52 21q30 0 50.5 -20.5t20.5 -50.5
t-21.5 -51.5t-51.5 -21.5z" />
    <glyph glyph-name="uni1EB8" unicode="&#x1eb8;" horiz-adv-x="587" 
d="M509 111l-59 -111h-422l174 700h432l-28 -111h-307l-45 -181h255l-27 -106h-254l-47 -191h328zM220 -223q-30 0 -50.5 21t-20.5 51t21 51t52 21q30 0 50.5 -20.5t20.5 -50.5t-21.5 -51.5t-51.5 -21.5z" />
    <glyph glyph-name="uni1EB9" unicode="&#x1eb9;" horiz-adv-x="560" 
d="M417 311q0 55 -24.5 84.5t-69.5 29.5q-46 0 -92 -38q-47 -39 -66 -96h251q1 5 1 20zM467 139l2 -1l-25 -106q-85 -43 -188 -43q-99 0 -158.5 59.5t-59.5 158.5q0 130 89 222q88 91 211 91q87 0 138.5 -54t51.5 -146q0 -56 -14 -106h-363q5 -125 133 -125q94 0 183 50z
M200 -228q-30 0 -50.5 21t-20.5 51t21 51t52 21q30 0 50.5 -20.5t20.5 -50.5t-21.5 -51.5t-51.5 -21.5z" />
    <glyph glyph-name="uni1EBA" unicode="&#x1eba;" horiz-adv-x="587" 
d="M509 111l-59 -111h-422l174 700h432l-28 -111h-307l-45 -181h255l-27 -106h-254l-47 -191h328zM587 889q0 -69 -146 -127l-68 21v2q69 30 98 49t29 34q0 16 -33 16q-58 0 -129 -41l-2 1l20 79q58 32 127 32q47 0 75.5 -18t28.5 -48z" />
    <glyph glyph-name="uni1EBB" unicode="&#x1ebb;" horiz-adv-x="560" 
d="M417 311q0 55 -24.5 84.5t-69.5 29.5q-46 0 -92 -38q-47 -39 -66 -96h251q1 5 1 20zM467 139l2 -1l-25 -106q-85 -43 -188 -43q-99 0 -158.5 59.5t-59.5 158.5q0 130 89 222q88 91 211 91q87 0 138.5 -54t51.5 -146q0 -56 -14 -106h-363q5 -125 133 -125q94 0 183 50z
M276 701l-2 1l22 93q61 39 127 39q47 0 75 -22.5t28 -60.5q0 -40 -35.5 -76t-115.5 -77l-65 21v2q127 73 127 109q0 22 -32 22q-52 0 -129 -51z" />
    <glyph glyph-name="uni1EBC" unicode="&#x1ebc;" horiz-adv-x="587" 
d="M509 111l-59 -111h-422l174 700h432l-28 -111h-307l-45 -181h255l-27 -106h-254l-47 -191h328zM464 881q44 -25 60 -25q26 0 84 59l44 -37q-43 -60 -74 -85.5t-61 -25.5q-24 0 -80 31q-44 25 -60 25q-26 0 -84 -59l-44 38q42 60 73.5 85t61.5 25q24 0 80 -31z" />
    <glyph glyph-name="uni1EBD" unicode="&#x1ebd;" horiz-adv-x="560" 
d="M417 311q0 55 -24.5 84.5t-69.5 29.5q-46 0 -92 -38q-47 -39 -66 -96h251q1 5 1 20zM467 139l2 -1l-25 -106q-85 -43 -188 -43q-99 0 -158.5 59.5t-59.5 158.5q0 130 89 222q88 91 211 91q87 0 138.5 -54t51.5 -146q0 -56 -14 -106h-363q5 -125 133 -125q94 0 183 50z
M402 729q48 -30 63 -30q13 0 29 13q15 11 57 56l47 -36q-57 -79 -85 -103q-28 -25 -57 -25q-26 0 -83 37q-47 29 -62 29q-13 0 -30 -12q-17 -14 -57 -57l-47 37q59 81 87 104q27 24 56 24q26 0 82 -37z" />
    <glyph glyph-name="uni1EBE" unicode="&#x1ebe;" horiz-adv-x="587" 
d="M509 111l-59 -111h-422l174 700h432l-28 -111h-307l-45 -181h255l-27 -106h-254l-47 -191h328zM834 995l-175 -114h-67l89 116h153v-2zM523 914l93 -145h-64l-97 69l-134 -69h-73v2l163 143h112z" />
    <glyph glyph-name="uni1EBF" unicode="&#x1ebf;" horiz-adv-x="560" 
d="M417 311q0 55 -24.5 84.5t-69.5 29.5q-46 0 -92 -38q-47 -39 -66 -96h251q1 5 1 20zM467 139l2 -1l-25 -106q-85 -43 -188 -43q-99 0 -158.5 59.5t-59.5 158.5q0 130 89 222q88 91 211 91q87 0 138.5 -54t51.5 -146q0 -56 -14 -106h-363q5 -125 133 -125q94 0 183 50z
M748 869l-158 -131h-60l89 133h129v-2zM457 756l93 -149h-55l-103 70l-144 -70h-61v2l166 147h104z" />
    <glyph glyph-name="uni1EC0" unicode="&#x1ec0;" horiz-adv-x="587" 
d="M509 111l-59 -111h-422l174 700h432l-28 -111h-307l-45 -181h255l-27 -106h-254l-47 -191h328zM536 997h133l38 -116h-53l-118 115v1zM523 914l93 -145h-64l-97 69l-134 -69h-73v2l163 143h112z" />
    <glyph glyph-name="uni1EC1" unicode="&#x1ec1;" horiz-adv-x="560" 
d="M417 311q0 55 -24.5 84.5t-69.5 29.5q-46 0 -92 -38q-47 -39 -66 -96h251q1 5 1 20zM467 139l2 -1l-25 -106q-85 -43 -188 -43q-99 0 -158.5 59.5t-59.5 158.5q0 130 89 222q88 91 211 91q87 0 138.5 -54t51.5 -146q0 -56 -14 -106h-363q5 -125 133 -125q94 0 183 50z
M474 871h116l33 -133h-51zM457 756l93 -149h-55l-103 70l-144 -70h-61v2l166 147h104z" />
    <glyph glyph-name="uni1EC2" unicode="&#x1ec2;" horiz-adv-x="587" 
d="M509 111l-59 -111h-422l174 700h432l-28 -111h-307l-45 -181h255l-27 -106h-254l-47 -191h328zM695 962q0 16 -31 16q-44 0 -103 -31l-2 1l16 65q48 25 106 25q40 0 65.5 -16.5t25.5 -42.5q0 -28 -28 -51t-91 -48l-53 20v2q95 38 95 60zM523 914l93 -145h-64l-97 69
l-134 -69h-73v2l163 143h112z" />
    <glyph glyph-name="uni1EC3" unicode="&#x1ec3;" horiz-adv-x="560" 
d="M417 311q0 55 -24.5 84.5t-69.5 29.5q-46 0 -92 -38q-47 -39 -66 -96h251q1 5 1 20zM467 139l2 -1l-25 -106q-85 -43 -188 -43q-99 0 -158.5 59.5t-59.5 158.5q0 130 89 222q88 91 211 91q87 0 138.5 -54t51.5 -146q0 -56 -14 -106h-363q5 -125 133 -125q94 0 183 50z
M646 821q0 19 -28 19q-44 0 -114 -45l-2 1l22 75q55 33 109 33q39 0 64.5 -18.5t25.5 -47.5q0 -30 -28.5 -56.5t-95.5 -58.5l-57 18v2q104 51 104 78zM457 756l93 -149h-55l-103 70l-144 -70h-61v2l166 147h104z" />
    <glyph glyph-name="uni1EC4" unicode="&#x1ec4;" horiz-adv-x="587" 
d="M509 111l-59 -111h-422l174 700h432l-28 -111h-307l-45 -181h255l-27 -106h-254l-47 -191h328zM565 932q-25 0 -87 29q-52 23 -67 23q-14 0 -27 -10t-37 -42l-43 30q31 54 55.5 77t50.5 23q25 0 88 -28q49 -23 66 -23q14 0 26 9.5t38 42.5l43 -30q-33 -55 -56.5 -78
t-49.5 -23zM519 891l97 -122h-64l-99 55l-132 -55h-73v2l159 120h112z" />
    <glyph glyph-name="uni1EC5" unicode="&#x1ec5;" horiz-adv-x="560" 
d="M417 311q0 55 -24.5 84.5t-69.5 29.5q-46 0 -92 -38q-47 -39 -66 -96h251q1 5 1 20zM467 139l2 -1l-25 -106q-85 -43 -188 -43q-99 0 -158.5 59.5t-59.5 158.5q0 130 89 222q88 91 211 91q87 0 138.5 -54t51.5 -146q0 -56 -14 -106h-363q5 -125 133 -125q94 0 183 50z
M499 785q-23 0 -79 24q-48 21 -64 21q-13 0 -26.5 -8.5t-43.5 -37.5l-40 36q41 52 64 71t45 19q24 0 80 -25q49 -20 63 -20q13 0 26 8t45 37l39 -35q-40 -52 -63 -71t-46 -19zM452 738l98 -131h-55l-105 61l-142 -61h-61v2l162 129h103z" />
    <glyph glyph-name="uni1EC6" unicode="&#x1ec6;" horiz-adv-x="587" 
d="M509 111l-59 -111h-422l174 700h432l-28 -111h-307l-45 -181h255l-27 -106h-254l-47 -191h328zM523 916l92 -147h-64l-97 70l-133 -70h-74v2l164 145h112zM220 -223q-30 0 -50.5 21t-20.5 51t21 51t52 21q30 0 50.5 -20.5t20.5 -50.5t-21.5 -51.5t-51.5 -21.5z" />
    <glyph glyph-name="uni1EC7" unicode="&#x1ec7;" horiz-adv-x="560" 
d="M417 311q0 55 -24.5 84.5t-69.5 29.5q-46 0 -92 -38q-47 -39 -66 -96h251q1 5 1 20zM467 139l2 -1l-25 -106q-85 -43 -188 -43q-99 0 -158.5 59.5t-59.5 158.5q0 130 89 222q88 91 211 91q87 0 138.5 -54t51.5 -146q0 -56 -14 -106h-363q5 -125 133 -125q94 0 183 50z
M462 783l79 -176h-54l-92 89l-138 -89h-63v2l165 174h103zM200 -228q-30 0 -50.5 21t-20.5 51t21 51t52 21q30 0 50.5 -20.5t20.5 -50.5t-21.5 -51.5t-51.5 -21.5z" />
    <glyph glyph-name="uni1EC8" unicode="&#x1ec8;" horiz-adv-x="317" 
d="M333 700l-174 -700h-126l174 700h126zM441 889q0 -69 -146 -127l-68 21v2q69 30 98 49t29 34q0 16 -33 16q-58 0 -129 -41l-2 1l20 79q58 32 127 32q47 0 75.5 -18t28.5 -48z" />
    <glyph glyph-name="uni1EC9" unicode="&#x1ec9;" horiz-adv-x="277" 
d="M261 506l-126 -506h-119l126 506h119zM132 696l-2 1l22 93q61 39 127 39q47 0 75 -22.5t28 -60.5q0 -40 -35.5 -76t-115.5 -77l-65 21v2q127 73 127 109q0 22 -32 22q-52 0 -129 -51z" />
    <glyph glyph-name="uni1ECA" unicode="&#x1eca;" horiz-adv-x="317" 
d="M333 700l-174 -700h-126l174 700h126zM60 -223q-30 0 -50.5 21t-20.5 51t21 51t52 21q30 0 50.5 -20.5t20.5 -50.5t-21.5 -51.5t-51.5 -21.5z" />
    <glyph glyph-name="uni1ECB" unicode="&#x1ecb;" horiz-adv-x="277" 
d="M244 755q32 0 53.5 -21t21.5 -52t-22.5 -53t-54.5 -22t-53.5 21t-21.5 52q0 32 22 53.5t55 21.5zM261 506l-126 -506h-119l126 506h119zM40 -223q-30 0 -50.5 21t-20.5 51t21 51t52 21q30 0 50.5 -20.5t20.5 -50.5t-21.5 -51.5t-51.5 -21.5z" />
    <glyph glyph-name="uni1ECC" unicode="&#x1ecc;" horiz-adv-x="830" 
d="M686 108q-122 -122 -294 -122q-142 0 -230 87q-89 86 -89 224q0 175 120 295q119 122 294 122q140 0 229 -86q89 -87 89 -225q0 -174 -119 -295zM203 305q0 -91 56 -147t144 -56q109 0 192 86q81 86 81 207q0 92 -56 148q-55 55 -145 55q-110 0 -191 -86t-81 -207z
M341 -228q-30 0 -50.5 21t-20.5 51t21 51t52 21q30 0 50.5 -20.5t20.5 -50.5t-21.5 -51.5t-51.5 -21.5z" />
    <glyph glyph-name="uni1ECD" unicode="&#x1ecd;" horiz-adv-x="609" 
d="M571 294q0 -130 -87 -219q-89 -89 -213 -89q-103 0 -168 63t-65 163q0 132 87 220t213 88q104 0 168 -63q65 -63 65 -163zM453 289q0 58 -33.5 92.5t-88.5 34.5q-71 0 -123 -58t-52 -141q0 -58 33.5 -93t88.5 -35q70 0 123 59q52 58 52 141zM219 -228q-30 0 -50.5 21
t-20.5 51t21 51t52 21q30 0 50.5 -20.5t20.5 -50.5t-21.5 -51.5t-51.5 -21.5z" />
    <glyph glyph-name="uni1ECE" unicode="&#x1ece;" horiz-adv-x="830" 
d="M686 108q-122 -122 -294 -122q-142 0 -230 87q-89 86 -89 224q0 175 120 295q119 122 294 122q140 0 229 -86q89 -87 89 -225q0 -174 -119 -295zM203 305q0 -91 56 -147t144 -56q109 0 192 86q81 86 81 207q0 92 -56 148q-55 55 -145 55q-110 0 -191 -86t-81 -207z
M677 894q0 -69 -146 -127l-68 21v2q69 30 98 49t29 34q0 16 -33 16q-58 0 -129 -41l-2 1l20 79q58 32 127 32q47 0 75.5 -18t28.5 -48z" />
    <glyph glyph-name="uni1ECF" unicode="&#x1ecf;" horiz-adv-x="609" 
d="M571 294q0 -130 -87 -219q-89 -89 -213 -89q-103 0 -168 63t-65 163q0 132 87 220t213 88q104 0 168 -63q65 -63 65 -163zM453 289q0 58 -33.5 92.5t-88.5 34.5q-71 0 -123 -58t-52 -141q0 -58 33.5 -93t88.5 -35q70 0 123 59q52 58 52 141zM286 701l-2 1l22 93
q61 39 127 39q47 0 75 -22.5t28 -60.5q0 -40 -35.5 -76t-115.5 -77l-65 21v2q127 73 127 109q0 22 -32 22q-52 0 -129 -51z" />
    <glyph glyph-name="uni1ED0" unicode="&#x1ed0;" horiz-adv-x="830" 
d="M686 108q-122 -122 -294 -122q-142 0 -230 87q-89 86 -89 224q0 175 120 295q119 122 294 122q140 0 229 -86q89 -87 89 -225q0 -174 -119 -295zM203 305q0 -91 56 -147t144 -56q109 0 192 86q81 86 81 207q0 92 -56 148q-55 55 -145 55q-110 0 -191 -86t-81 -207z
M924 1000l-175 -114h-67l89 116h153v-2zM613 919l93 -145h-64l-97 69l-134 -69h-73v2l163 143h112z" />
    <glyph glyph-name="uni1ED1" unicode="&#x1ed1;" horiz-adv-x="609" 
d="M571 294q0 -130 -87 -219q-89 -89 -213 -89q-103 0 -168 63t-65 163q0 132 87 220t213 88q104 0 168 -63q65 -63 65 -163zM453 289q0 58 -33.5 92.5t-88.5 34.5q-71 0 -123 -58t-52 -141q0 -58 33.5 -93t88.5 -35q70 0 123 59q52 58 52 141zM758 869l-158 -131h-60
l89 133h129v-2zM467 756l93 -149h-55l-103 70l-144 -70h-61v2l166 147h104z" />
    <glyph glyph-name="uni1ED2" unicode="&#x1ed2;" horiz-adv-x="830" 
d="M686 108q-122 -122 -294 -122q-142 0 -230 87q-89 86 -89 224q0 175 120 295q119 122 294 122q140 0 229 -86q89 -87 89 -225q0 -174 -119 -295zM203 305q0 -91 56 -147t144 -56q109 0 192 86q81 86 81 207q0 92 -56 148q-55 55 -145 55q-110 0 -191 -86t-81 -207z
M626 1002h133l38 -116h-53l-118 115v1zM613 919l93 -145h-64l-97 69l-134 -69h-73v2l163 143h112z" />
    <glyph glyph-name="uni1ED3" unicode="&#x1ed3;" horiz-adv-x="609" 
d="M571 294q0 -130 -87 -219q-89 -89 -213 -89q-103 0 -168 63t-65 163q0 132 87 220t213 88q104 0 168 -63q65 -63 65 -163zM453 289q0 58 -33.5 92.5t-88.5 34.5q-71 0 -123 -58t-52 -141q0 -58 33.5 -93t88.5 -35q70 0 123 59q52 58 52 141zM484 871h116l33 -133h-51z
M467 756l93 -149h-55l-103 70l-144 -70h-61v2l166 147h104z" />
    <glyph glyph-name="uni1ED4" unicode="&#x1ed4;" horiz-adv-x="830" 
d="M686 108q-122 -122 -294 -122q-142 0 -230 87q-89 86 -89 224q0 175 120 295q119 122 294 122q140 0 229 -86q89 -87 89 -225q0 -174 -119 -295zM203 305q0 -91 56 -147t144 -56q109 0 192 86q81 86 81 207q0 92 -56 148q-55 55 -145 55q-110 0 -191 -86t-81 -207z
M785 967q0 16 -31 16q-44 0 -103 -31l-2 1l16 65q48 25 106 25q40 0 65.5 -16.5t25.5 -42.5q0 -28 -28 -51t-91 -48l-53 20v2q95 38 95 60zM613 919l93 -145h-64l-97 69l-134 -69h-73v2l163 143h112z" />
    <glyph glyph-name="uni1ED5" unicode="&#x1ed5;" horiz-adv-x="609" 
d="M571 294q0 -130 -87 -219q-89 -89 -213 -89q-103 0 -168 63t-65 163q0 132 87 220t213 88q104 0 168 -63q65 -63 65 -163zM453 289q0 58 -33.5 92.5t-88.5 34.5q-71 0 -123 -58t-52 -141q0 -58 33.5 -93t88.5 -35q70 0 123 59q52 58 52 141zM656 821q0 19 -28 19
q-44 0 -114 -45l-2 1l22 75q55 33 109 33q39 0 64.5 -18.5t25.5 -47.5q0 -30 -28.5 -56.5t-95.5 -58.5l-57 18v2q104 51 104 78zM467 756l93 -149h-55l-103 70l-144 -70h-61v2l166 147h104z" />
    <glyph glyph-name="uni1ED6" unicode="&#x1ed6;" horiz-adv-x="830" 
d="M686 108q-122 -122 -294 -122q-142 0 -230 87q-89 86 -89 224q0 175 120 295q119 122 294 122q140 0 229 -86q89 -87 89 -225q0 -174 -119 -295zM203 305q0 -91 56 -147t144 -56q109 0 192 86q81 86 81 207q0 92 -56 148q-55 55 -145 55q-110 0 -191 -86t-81 -207z
M655 937q-25 0 -87 29q-52 23 -67 23q-14 0 -27 -10t-37 -42l-43 30q31 54 55.5 77t50.5 23q25 0 88 -28q49 -23 66 -23q14 0 26 9.5t38 42.5l43 -30q-33 -55 -56.5 -78t-49.5 -23zM609 896l97 -122h-64l-99 55l-132 -55h-73v2l159 120h112z" />
    <glyph glyph-name="uni1ED7" unicode="&#x1ed7;" horiz-adv-x="609" 
d="M571 294q0 -130 -87 -219q-89 -89 -213 -89q-103 0 -168 63t-65 163q0 132 87 220t213 88q104 0 168 -63q65 -63 65 -163zM453 289q0 58 -33.5 92.5t-88.5 34.5q-71 0 -123 -58t-52 -141q0 -58 33.5 -93t88.5 -35q70 0 123 59q52 58 52 141zM509 785q-23 0 -79 24
q-48 21 -64 21q-13 0 -26.5 -8.5t-43.5 -37.5l-40 36q41 52 64 71t45 19q24 0 80 -25q49 -20 63 -20q13 0 26 8t45 37l39 -35q-40 -52 -63 -71t-46 -19zM462 738l98 -131h-55l-105 61l-142 -61h-61v2l162 129h103z" />
    <glyph glyph-name="uni1ED8" unicode="&#x1ed8;" horiz-adv-x="830" 
d="M686 108q-122 -122 -294 -122q-142 0 -230 87q-89 86 -89 224q0 175 120 295q119 122 294 122q140 0 229 -86q89 -87 89 -225q0 -174 -119 -295zM203 305q0 -91 56 -147t144 -56q109 0 192 86q81 86 81 207q0 92 -56 148q-55 55 -145 55q-110 0 -191 -86t-81 -207z
M613 921l92 -147h-64l-97 70l-133 -70h-74v2l164 145h112zM341 -228q-30 0 -50.5 21t-20.5 51t21 51t52 21q30 0 50.5 -20.5t20.5 -50.5t-21.5 -51.5t-51.5 -21.5z" />
    <glyph glyph-name="uni1ED9" unicode="&#x1ed9;" horiz-adv-x="609" 
d="M571 294q0 -130 -87 -219q-89 -89 -213 -89q-103 0 -168 63t-65 163q0 132 87 220t213 88q104 0 168 -63q65 -63 65 -163zM453 289q0 58 -33.5 92.5t-88.5 34.5q-71 0 -123 -58t-52 -141q0 -58 33.5 -93t88.5 -35q70 0 123 59q52 58 52 141zM472 783l79 -176h-54l-92 89
l-138 -89h-63v2l165 174h103zM219 -228q-30 0 -50.5 21t-20.5 51t21 51t52 21q30 0 50.5 -20.5t20.5 -50.5t-21.5 -51.5t-51.5 -21.5z" />
    <glyph glyph-name="uni1EDA" unicode="&#x1eda;" horiz-adv-x="830" 
d="M686 108q-122 -122 -294 -122q-142 0 -230 87q-89 86 -89 224q0 174 121 292q121 119 292 119q21 0 76 -4t76 -4q67 0 103.5 36t38.5 105h101q0 -90 -46.5 -144.5t-134.5 -68.5q105 -81 105 -225q0 -174 -119 -295zM203 305q0 -91 56 -147t144 -56q109 0 192 86
q81 86 81 207q0 89 -56 145q-55 55 -146 55q-111 0 -190 -85q-81 -86 -81 -205zM765 921v-2l-216 -145h-72l116 147h172z" />
    <glyph glyph-name="uni1EDB" unicode="&#x1edb;" horiz-adv-x="609" 
d="M571 294q0 -130 -87 -219q-89 -89 -213 -89q-103 0 -168 63t-65 163q0 128 87 215q88 86 213 86q4 0 9.5 -0.5t16.5 -1t23 -0.5q14 0 31 -1t23 -1q62 0 91.5 27t30.5 85h92q0 -148 -142 -176q58 -64 58 -151zM453 289q0 57 -33.5 90t-88.5 33q-71 0 -123 -57
q-52 -56 -52 -139q0 -58 33.5 -92.5t88.5 -34.5q70 0 123 59q52 58 52 141zM619 783v-2l-221 -174h-61l126 176h156z" />
    <glyph glyph-name="uni1EDC" unicode="&#x1edc;" horiz-adv-x="830" 
d="M686 108q-122 -122 -294 -122q-142 0 -230 87q-89 86 -89 224q0 174 121 292q121 119 292 119q21 0 76 -4t76 -4q67 0 103.5 36t38.5 105h101q0 -90 -46.5 -144.5t-134.5 -68.5q105 -81 105 -225q0 -174 -119 -295zM203 305q0 -91 56 -147t144 -56q109 0 192 86
q81 86 81 207q0 89 -56 145q-55 55 -146 55q-111 0 -190 -85q-81 -86 -81 -205zM358 921h151l44 -147h-59l-136 145v2z" />
    <glyph glyph-name="uni1EDD" unicode="&#x1edd;" horiz-adv-x="609" 
d="M571 294q0 -130 -87 -219q-89 -89 -213 -89q-103 0 -168 63t-65 163q0 128 87 215q88 86 213 86q4 0 9.5 -0.5t16.5 -1t23 -0.5q14 0 31 -1t23 -1q62 0 91.5 27t30.5 85h92q0 -148 -142 -176q58 -64 58 -151zM453 289q0 57 -33.5 90t-88.5 33q-71 0 -123 -57
q-52 -56 -52 -139q0 -58 33.5 -92.5t88.5 -34.5q70 0 123 59q52 58 52 141zM221 783h141l41 -176h-52z" />
    <glyph glyph-name="uni1EDE" unicode="&#x1ede;" horiz-adv-x="830" 
d="M686 108q-122 -122 -294 -122q-142 0 -230 87q-89 86 -89 224q0 174 121 292q121 119 292 119q21 0 76 -4t76 -4q67 0 103.5 36t38.5 105h101q0 -90 -46.5 -144.5t-134.5 -68.5q105 -81 105 -225q0 -174 -119 -295zM203 305q0 -91 56 -147t144 -56q109 0 192 86
q81 86 81 207q0 89 -56 145q-55 55 -146 55q-111 0 -190 -85q-81 -86 -81 -205zM677 894q0 -69 -146 -127l-68 21v2q69 30 98 49t29 34q0 16 -33 16q-58 0 -129 -41l-2 1l20 79q58 32 127 32q47 0 75.5 -18t28.5 -48z" />
    <glyph glyph-name="uni1EDF" unicode="&#x1edf;" horiz-adv-x="609" 
d="M571 294q0 -130 -87 -219q-89 -89 -213 -89q-103 0 -168 63t-65 163q0 128 87 215q88 86 213 86q4 0 9.5 -0.5t16.5 -1t23 -0.5q14 0 31 -1t23 -1q62 0 91.5 27t30.5 85h92q0 -148 -142 -176q58 -64 58 -151zM453 289q0 57 -33.5 90t-88.5 33q-71 0 -123 -57
q-52 -56 -52 -139q0 -58 33.5 -92.5t88.5 -34.5q70 0 123 59q52 58 52 141zM286 701l-2 1l22 93q61 39 127 39q47 0 75 -22.5t28 -60.5q0 -40 -35.5 -76t-115.5 -77l-65 21v2q127 73 127 109q0 22 -32 22q-52 0 -129 -51z" />
    <glyph glyph-name="uni1EE0" unicode="&#x1ee0;" horiz-adv-x="830" 
d="M536 886q42 -25 57 -25t31.5 12t50.5 47l44 -37q-41 -60 -71 -85.5t-59 -25.5q-23 0 -78 31q-43 25 -58 25q-25 0 -81 -59l-44 38q42 60 71.5 85t58.5 25q23 0 78 -31zM686 108q-122 -122 -294 -122q-142 0 -230 87q-89 86 -89 224q0 174 121 292q121 119 292 119
q21 0 76 -4t76 -4q67 0 103.5 36t38.5 105h101q0 -90 -46.5 -144.5t-134.5 -68.5q105 -81 105 -225q0 -174 -119 -295zM203 305q0 -91 56 -147t144 -56q109 0 192 86q81 86 81 207q0 89 -56 145q-55 55 -146 55q-111 0 -190 -85q-81 -86 -81 -205z" />
    <glyph glyph-name="uni1EE1" unicode="&#x1ee1;" horiz-adv-x="609" 
d="M373 729q43 -30 57 -30q12 0 26 12q14 11 54 57l46 -36q-51 -76 -78 -103q-25 -25 -52 -25q-23 0 -76 37q-44 29 -57 29t-27 -12q-13 -11 -52 -57l-47 37q51 77 78 104q26 24 53 24q22 0 75 -37zM571 294q0 -130 -87 -219q-89 -89 -213 -89q-103 0 -168 63t-65 163
q0 128 87 215q88 86 213 86q4 0 9.5 -0.5t16.5 -1t23 -0.5q14 0 31 -1t23 -1q62 0 91.5 27t30.5 85h92q0 -148 -142 -176q58 -64 58 -151zM453 289q0 57 -33.5 90t-88.5 33q-71 0 -123 -57q-52 -56 -52 -139q0 -58 33.5 -92.5t88.5 -34.5q70 0 123 59q52 58 52 141z" />
    <glyph glyph-name="uni1EE2" unicode="&#x1ee2;" horiz-adv-x="830" 
d="M686 108q-122 -122 -294 -122q-142 0 -230 87q-89 86 -89 224q0 174 121 292q121 119 292 119q21 0 76 -4t76 -4q67 0 103.5 36t38.5 105h101q0 -90 -46.5 -144.5t-134.5 -68.5q105 -81 105 -225q0 -174 -119 -295zM203 305q0 -91 56 -147t144 -56q109 0 192 86
q81 86 81 207q0 89 -56 145q-55 55 -146 55q-111 0 -190 -85q-81 -86 -81 -205zM341 -228q-30 0 -50.5 21t-20.5 51t21 51t52 21q30 0 50.5 -20.5t20.5 -50.5t-21.5 -51.5t-51.5 -21.5z" />
    <glyph glyph-name="uni1EE3" unicode="&#x1ee3;" horiz-adv-x="609" 
d="M571 294q0 -130 -87 -219q-89 -89 -213 -89q-103 0 -168 63t-65 163q0 128 87 215q88 86 213 86q4 0 9.5 -0.5t16.5 -1t23 -0.5q14 0 31 -1t23 -1q62 0 91.5 27t30.5 85h92q0 -148 -142 -176q58 -64 58 -151zM453 289q0 57 -33.5 90t-88.5 33q-71 0 -123 -57
q-52 -56 -52 -139q0 -58 33.5 -92.5t88.5 -34.5q70 0 123 59q52 58 52 141zM219 -228q-30 0 -50.5 21t-20.5 51t21 51t52 21q30 0 50.5 -20.5t20.5 -50.5t-21.5 -51.5t-51.5 -21.5z" />
    <glyph glyph-name="uni1EE4" unicode="&#x1ee4;" horiz-adv-x="782" 
d="M91 239q0 47 14 103l89 358h126l-92 -371q-11 -46 -11 -76q0 -71 41 -111t113 -40q78 0 135.5 51t80.5 141l101 406h123l-106 -425q-71 -287 -348 -287q-121 0 -194 68q-72 68 -72 183zM301 -228q-30 0 -50.5 21t-20.5 51t21 51t52 21q30 0 50.5 -20.5t20.5 -50.5
t-21.5 -51.5t-51.5 -21.5z" />
    <glyph glyph-name="uni1EE5" unicode="&#x1ee5;" horiz-adv-x="605" 
d="M593 506l-126 -506h-117l20 79q-86 -89 -170 -89q-67 0 -109 41.5t-42 108.5q0 36 15 101l66 265h119l-71 -283q-8 -32 -8 -53q0 -36 19.5 -55.5t55.5 -19.5q62 0 144 67l86 344h118zM211 -223q-30 0 -50.5 21t-20.5 51t21 51t52 21q30 0 50.5 -20.5t20.5 -50.5
t-21.5 -51.5t-51.5 -21.5z" />
    <glyph glyph-name="uni1EE6" unicode="&#x1ee6;" horiz-adv-x="782" 
d="M91 239q0 47 14 103l89 358h126l-92 -371q-11 -46 -11 -76q0 -71 41 -111t113 -40q78 0 135.5 51t80.5 141l101 406h123l-106 -425q-71 -287 -348 -287q-121 0 -194 68q-72 68 -72 183zM673 889q0 -69 -146 -127l-68 21v2q69 30 98 49t29 34q0 16 -33 16q-58 0 -129 -41
l-2 1l20 79q58 32 127 32q47 0 75.5 -18t28.5 -48z" />
    <glyph glyph-name="uni1EE7" unicode="&#x1ee7;" horiz-adv-x="605" 
d="M593 506l-126 -506h-117l20 79q-86 -89 -170 -89q-67 0 -109 41.5t-42 108.5q0 36 15 101l66 265h119l-71 -283q-8 -32 -8 -53q0 -36 19.5 -55.5t55.5 -19.5q62 0 144 67l86 344h118zM283 696l-2 1l22 93q61 39 127 39q47 0 75 -22.5t28 -60.5q0 -40 -35.5 -76
t-115.5 -77l-65 21v2q127 73 127 109q0 22 -32 22q-52 0 -129 -51z" />
    <glyph glyph-name="uni1EE8" unicode="&#x1ee8;" horiz-adv-x="807" 
d="M357 -12q-121 0 -194 68q-72 68 -72 183q0 47 14 103l89 358h126l-92 -371q-11 -46 -11 -76q0 -71 41 -111t113 -40q78 0 135.5 51t80.5 141l101 406h32q68 0 104.5 36t37.5 105h101q0 -87 -43.5 -141t-125.5 -70l-89 -355q-71 -287 -348 -287zM761 916v-2l-216 -145h-72
l116 147h172z" />
    <glyph glyph-name="uni1EE9" unicode="&#x1ee9;" horiz-adv-x="626" 
d="M577 440l-110 -440h-117l20 79q-86 -89 -170 -89q-67 0 -109 41.5t-42 108.5q0 36 15 101l66 265h119l-71 -283q-8 -32 -8 -53q0 -36 19.5 -55.5t55.5 -19.5q62 0 144 67l86 344h40q62 0 91 25.5t30 79.5h92q0 -148 -151 -171zM616 778v-2l-221 -174h-61l126 176h156z
" />
    <glyph glyph-name="uni1EEA" unicode="&#x1eea;" horiz-adv-x="807" 
d="M357 -12q-121 0 -194 68q-72 68 -72 183q0 47 14 103l89 358h126l-92 -371q-11 -46 -11 -76q0 -71 41 -111t113 -40q78 0 135.5 51t80.5 141l101 406h32q68 0 104.5 36t37.5 105h101q0 -87 -43.5 -141t-125.5 -70l-89 -355q-71 -287 -348 -287zM354 916h151l44 -147h-59
l-136 145v2z" />
    <glyph glyph-name="uni1EEB" unicode="&#x1eeb;" horiz-adv-x="626" 
d="M577 440l-110 -440h-117l20 79q-86 -89 -170 -89q-67 0 -109 41.5t-42 108.5q0 36 15 101l66 265h119l-71 -283q-8 -32 -8 -53q0 -36 19.5 -55.5t55.5 -19.5q62 0 144 67l86 344h40q62 0 91 25.5t30 79.5h92q0 -148 -151 -171zM218 778h141l41 -176h-52z" />
    <glyph glyph-name="uni1EEC" unicode="&#x1eec;" horiz-adv-x="807" 
d="M357 -12q-121 0 -194 68q-72 68 -72 183q0 47 14 103l89 358h126l-92 -371q-11 -46 -11 -76q0 -71 41 -111t113 -40q78 0 135.5 51t80.5 141l101 406h32q68 0 104.5 36t37.5 105h101q0 -87 -43.5 -141t-125.5 -70l-89 -355q-71 -287 -348 -287zM673 889q0 -69 -146 -127
l-68 21v2q69 30 98 49t29 34q0 16 -33 16q-58 0 -129 -41l-2 1l20 79q58 32 127 32q47 0 75.5 -18t28.5 -48z" />
    <glyph glyph-name="uni1EED" unicode="&#x1eed;" horiz-adv-x="626" 
d="M577 440l-110 -440h-117l20 79q-86 -89 -170 -89q-67 0 -109 41.5t-42 108.5q0 36 15 101l66 265h119l-71 -283q-8 -32 -8 -53q0 -36 19.5 -55.5t55.5 -19.5q62 0 144 67l86 344h40q62 0 91 25.5t30 79.5h92q0 -148 -151 -171zM283 696l-2 1l22 93q61 39 127 39
q47 0 75 -22.5t28 -60.5q0 -40 -35.5 -76t-115.5 -77l-65 21v2q127 73 127 109q0 22 -32 22q-52 0 -129 -51z" />
    <glyph glyph-name="uni1EEE" unicode="&#x1eee;" horiz-adv-x="807" 
d="M357 -12q-121 0 -194 68q-72 68 -72 183q0 47 14 103l89 358h126l-92 -371q-11 -46 -11 -76q0 -71 41 -111t113 -40q78 0 135.5 51t80.5 141l101 406h32q68 0 104.5 36t37.5 105h101q0 -87 -43.5 -141t-125.5 -70l-89 -355q-71 -287 -348 -287zM550 881q44 -25 60 -25
q26 0 84 59l44 -37q-43 -60 -74 -85.5t-61 -25.5q-24 0 -80 31q-44 25 -60 25q-26 0 -84 -59l-44 38q42 60 73.5 85t61.5 25q24 0 80 -31z" />
    <glyph glyph-name="uni1EEF" unicode="&#x1eef;" horiz-adv-x="626" 
d="M577 440l-110 -440h-117l20 79q-86 -89 -170 -89q-67 0 -109 41.5t-42 108.5q0 36 15 101l66 265h119l-71 -283q-8 -32 -8 -53q0 -36 19.5 -55.5t55.5 -19.5q62 0 144 67l86 344h40q62 0 91 25.5t30 79.5h92q0 -148 -151 -171zM409 724q48 -30 63 -30q13 0 29 13
q15 11 57 56l47 -36q-57 -79 -85 -103q-28 -25 -57 -25q-26 0 -83 37q-47 29 -62 29q-14 0 -30 -12q-16 -13 -57 -57l-47 37q59 81 87 104q27 24 56 24q26 0 82 -37z" />
    <glyph glyph-name="uni1EF0" unicode="&#x1ef0;" horiz-adv-x="807" 
d="M357 -12q-121 0 -194 68q-72 68 -72 183q0 47 14 103l89 358h126l-92 -371q-11 -46 -11 -76q0 -71 41 -111t113 -40q78 0 135.5 51t80.5 141l101 406h32q68 0 104.5 36t37.5 105h101q0 -87 -43.5 -141t-125.5 -70l-89 -355q-71 -287 -348 -287zM301 -228q-30 0 -50.5 21
t-20.5 51t21 51t52 21q30 0 50.5 -20.5t20.5 -50.5t-21.5 -51.5t-51.5 -21.5z" />
    <glyph glyph-name="uni1EF1" unicode="&#x1ef1;" horiz-adv-x="626" 
d="M577 440l-110 -440h-117l20 79q-86 -89 -170 -89q-67 0 -109 41.5t-42 108.5q0 36 15 101l66 265h119l-71 -283q-8 -32 -8 -53q0 -36 19.5 -55.5t55.5 -19.5q62 0 144 67l86 344h40q62 0 91 25.5t30 79.5h92q0 -148 -151 -171zM211 -223q-30 0 -50.5 21t-20.5 51t21 51
t52 21q30 0 50.5 -20.5t20.5 -50.5t-21.5 -51.5t-51.5 -21.5z" />
    <glyph glyph-name="Ygrave" unicode="&#x1ef2;" horiz-adv-x="675" 
d="M777 698l-368 -404l-74 -294h-126l76 307l-166 393h133l117 -289l256 289h152v-2zM291 916h151l44 -147h-59l-136 145v2z" />
    <glyph glyph-name="ygrave" unicode="&#x1ef3;" horiz-adv-x="566" 
d="M39 -194q-39 0 -69 14l-27 116l3 2q33 -23 81 -23q41 0 70.5 17.5t55.5 57.5l25 39l-98 477h122l62 -352l214 352h132l-355 -557q-47 -75 -98.5 -109t-117.5 -34zM202 778h141l41 -176h-52z" />
    <glyph glyph-name="uni1EF4" unicode="&#x1ef4;" horiz-adv-x="675" 
d="M777 698l-368 -404l-74 -294h-126l76 307l-166 393h133l117 -289l256 289h152v-2zM236 -223q-30 0 -50.5 21t-20.5 51t21 51t52 21q30 0 50.5 -20.5t20.5 -50.5t-21.5 -51.5t-51.5 -21.5z" />
    <glyph glyph-name="uni1EF5" unicode="&#x1ef5;" horiz-adv-x="566" 
d="M39 -194q-39 0 -69 14l-27 116l3 2q33 -23 81 -23q41 0 70.5 17.5t55.5 57.5l25 39l-98 477h122l62 -352l214 352h132l-355 -557q-47 -75 -98.5 -109t-117.5 -34zM383 -218q-30 0 -50.5 21t-20.5 51t21 51t52 21q30 0 50.5 -20.5t20.5 -50.5t-21.5 -51.5t-51.5 -21.5z
" />
    <glyph glyph-name="uni1EF6" unicode="&#x1ef6;" horiz-adv-x="675" 
d="M777 698l-368 -404l-74 -294h-126l76 307l-166 393h133l117 -289l256 289h152v-2zM610 889q0 -69 -146 -127l-68 21v2q69 30 98 49t29 34q0 16 -33 16q-58 0 -129 -41l-2 1l20 79q58 32 127 32q47 0 75.5 -18t28.5 -48z" />
    <glyph glyph-name="uni1EF7" unicode="&#x1ef7;" horiz-adv-x="566" 
d="M39 -194q-39 0 -69 14l-27 116l3 2q33 -23 81 -23q41 0 70.5 17.5t55.5 57.5l25 39l-98 477h122l62 -352l214 352h132l-355 -557q-47 -75 -98.5 -109t-117.5 -34zM267 696l-2 1l22 93q61 39 127 39q47 0 75 -22.5t28 -60.5q0 -40 -35.5 -76t-115.5 -77l-65 21v2
q127 73 127 109q0 22 -32 22q-52 0 -129 -51z" />
    <glyph glyph-name="uni1EF8" unicode="&#x1ef8;" horiz-adv-x="675" 
d="M777 698l-368 -404l-74 -294h-126l76 307l-166 393h133l117 -289l256 289h152v-2zM487 881q44 -25 60 -25q26 0 84 59l44 -37q-43 -60 -74 -85.5t-61 -25.5q-24 0 -80 31q-44 25 -60 25q-26 0 -84 -59l-44 38q42 60 73.5 85t61.5 25q24 0 80 -31z" />
    <glyph glyph-name="uni1EF9" unicode="&#x1ef9;" horiz-adv-x="566" 
d="M39 -194q-39 0 -69 14l-27 116l3 2q33 -23 81 -23q41 0 70.5 17.5t55.5 57.5l25 39l-98 477h122l62 -352l214 352h132l-355 -557q-47 -75 -98.5 -109t-117.5 -34zM393 724q48 -30 63 -30q13 0 29 13q15 11 57 56l47 -36q-57 -79 -85 -103q-28 -25 -57 -25q-26 0 -83 37
q-47 29 -62 29q-14 0 -30 -12q-16 -13 -57 -57l-47 37q59 81 87 104q27 24 56 24q26 0 82 -37z" />
    <glyph glyph-name="uni2002" unicode="&#x2002;" horiz-adv-x="500" 
 />
    <glyph glyph-name="uni2003" unicode="&#x2003;" horiz-adv-x="1000" 
 />
    <glyph glyph-name="uni2004" unicode="&#x2004;" horiz-adv-x="333" 
 />
    <glyph glyph-name="uni2005" unicode="&#x2005;" horiz-adv-x="250" 
 />
    <glyph glyph-name="uni2007" unicode="&#x2007;" horiz-adv-x="600" 
 />
    <glyph glyph-name="uni2009" unicode="&#x2009;" horiz-adv-x="125" 
 />
    <glyph glyph-name="uni200A" unicode="&#x200a;" horiz-adv-x="42" 
 />
    <glyph glyph-name="uni2011" unicode="&#x2011;" horiz-adv-x="396" 
d="M328 222h-275l27 109h275z" />
    <glyph glyph-name="figuredash" unicode="&#x2012;" horiz-adv-x="600" 
d="M512 296h-450l27 109h450z" />
    <glyph glyph-name="endash" unicode="&#x2013;" horiz-adv-x="556" 
d="M488 224h-435l26 105h435z" />
    <glyph glyph-name="emdash" unicode="&#x2014;" horiz-adv-x="936" 
d="M868 224h-815l26 105h815z" />
    <glyph glyph-name="uni2015" unicode="&#x2015;" horiz-adv-x="936" 
d="M868 224h-815l26 105h815z" />
    <glyph glyph-name="quoteleft" unicode="&#x2018;" horiz-adv-x="236" 
d="M208 509q0 -39 39 -104h-122q-27 50 -27 93q0 47 43 96.5t142 114.5l32 -31q-107 -101 -107 -169z" />
    <glyph glyph-name="quoteright" unicode="&#x2019;" horiz-adv-x="236" 
d="M177 596q0 32 -38 104h121q28 -50 28 -93q0 -47 -43 -96.5t-142 -114.5l-32 31q58 56 82 95t24 74z" />
    <glyph glyph-name="quotesinglbase" unicode="&#x201a;" horiz-adv-x="216" 
d="M26 12q0 32 -38 104h121q28 -50 28 -93q0 -47 -43 -96.5t-142 -114.5l-32 31q58 56 82 95t24 74z" />
    <glyph glyph-name="quotedblleft" unicode="&#x201c;" horiz-adv-x="443" 
d="M207 509q0 -32 38 -104h-120q-27 50 -27 93q0 47 43 96.5t142 114.5l30 -31q-58 -56 -82 -95t-24 -74zM415 509q0 -39 39 -104h-120q-28 50 -28 93q0 47 43.5 96.5t142.5 114.5l30 -31q-59 -56 -83 -94.5t-24 -74.5z" />
    <glyph glyph-name="quotedblright" unicode="&#x201d;" horiz-adv-x="443" 
d="M386 596q0 39 -39 104h120q28 -50 28 -93q0 -47 -43 -96.5t-142 -114.5l-31 31q107 101 107 169zM177 596q0 32 -38 104h120q27 -50 27 -93q0 -47 -43 -96.5t-142 -114.5l-30 31q58 56 82 95t24 74z" />
    <glyph glyph-name="quotedblbase" unicode="&#x201e;" horiz-adv-x="423" 
d="M235 12q0 39 -39 104h120q28 -50 28 -93q0 -47 -43 -96.5t-142 -114.5l-31 31q107 101 107 169zM26 12q0 32 -38 104h120q27 -50 27 -93q0 -47 -43 -96.5t-142 -114.5l-30 31q58 56 82 95t24 74z" />
    <glyph glyph-name="uni201F" unicode="&#x201f;" horiz-adv-x="443" 
d="M393 700h135q-103 -88 -103 -157q0 -37 33 -122l-40 -25q-51 62 -71.5 102t-20.5 77q0 61 67 125zM184 700h135q-103 -88 -103 -157q0 -37 33 -122l-40 -25q-51 60 -71 100t-20 79q0 59 66 125z" />
    <glyph glyph-name="dagger" unicode="&#x2020;" horiz-adv-x="531" 
d="M444 704l-98 -170h-21l-13 170h132zM362 484l5 21l185 56l-33 -133zM133 561l155 -56l-5 -21l-183 -56zM336 288l-124 -298h-25l25 298l93 167h21z" />
    <glyph glyph-name="daggerdbl" unicode="&#x2021;" horiz-adv-x="531" 
d="M325 534l-13 170h132l-98 -170h-21zM519 431l-156 54l6 22l183 55zM133 562l156 -55l-5 -22l-184 -54zM352 350l-79 -108h-21l-24 108l78 108h21zM290 193l6 22l183 54l-33 -131zM60 269l156 -54l-5 -22l-184 -55zM233 166h21l14 -170h-133z" />
    <glyph glyph-name="bullet" unicode="&#x2022;" horiz-adv-x="524" 
d="M279 188q-64 0 -108 44t-44 110q0 71 49 120q48 50 117 50q65 0 109 -44q43 -43 43 -110q0 -70 -48 -120q-50 -50 -118 -50z" />
    <glyph glyph-name="ellipsis" unicode="&#x2026;" horiz-adv-x="650" 
d="M494 -9q-31 0 -53 22t-22 53q0 33 22.5 56t55.5 23q31 0 53 -22t22 -54q0 -33 -22.5 -55.5t-55.5 -22.5zM278 -9q-32 0 -54 21.5t-22 53.5q0 33 23 56t55 23t54 -22t22 -54t-23 -55t-55 -23zM61 -9q-31 0 -53 22t-22 53q0 33 22.5 56t55.5 23q31 0 53 -22t22 -54
q0 -33 -22.5 -55.5t-55.5 -22.5z" />
    <glyph glyph-name="uni202F" unicode="&#x202f;" horiz-adv-x="125" 
 />
    <glyph glyph-name="guilsinglleft" unicode="&#x2039;" horiz-adv-x="387" 
d="M177 244l98 -227l-39 -25l-198 250l4 21l315 251l35 -30z" />
    <glyph glyph-name="guilsinglright" unicode="&#x203a;" horiz-adv-x="387" 
d="M350 263l-5 -21l-314 -250l-35 30l215 239l-99 228l40 25z" />
    <glyph glyph-name="fraction" unicode="&#x2044;" horiz-adv-x="143" 
d="M117 333l-294 -335h-83l334 369l295 335h83z" />
    <glyph glyph-name="uni20A6" unicode="&#x20a6;" horiz-adv-x="890" 
d="M323 588l-29 -118h73zM507 405l39 -105h115l26 105h-180zM277 403l-25 -105h179l-39 105h-115zM644 233h-73l44 -119zM757 230l-57 -230h-159l-85 230h-221l-57 -230h-114l57 230h-95l18 70h95l25 103h-95l17 70h96l56 227h160l84 -227h222l56 227h114l-56 -227h95
l-18 -70h-95l-25 -103h95l-17 -70h-96z" />
    <glyph glyph-name="uni20A9" unicode="&#x20a9;" horiz-adv-x="1151" 
d="M661 595l-64 -126h66zM759 404l2 -104h98l50 104h-150zM311 404l-2 -104h98l53 104h-149zM563 403l-52 -104h154l-1 104h-101zM827 234h-65l2 -131zM373 234h-66l-2 -133zM476 230l-119 -234h-151l-2 234h-160l17 70h142l-1 103h-122l18 70h103l-2 227h117l-4 -227h183
l120 234h138l4 -234h186l109 227h126l-116 -227h101l-18 -70h-118l-53 -103h140l-18 -70h-158l-119 -234h-149l-4 234h-190z" />
    <glyph glyph-name="dong" unicode="&#x20ab;" horiz-adv-x="623" 
d="M152 182q0 -44 24.5 -69.5t65.5 -25.5q61 0 137 57l46 183q-43 31 -99 31q-71 0 -122 -51q-52 -52 -52 -125zM593 546l-136 -547h-110l18 70q-79 -79 -165 -79q-70 0 -115 51t-45 130q0 120 82 200q81 81 196 81q70 0 129 -36l33 130h-166l17 71h166l21 83h113l-21 -83
h84l-17 -71h-84zM442 -94l-18 -71h-468l18 71h468z" />
    <glyph glyph-name="Euro" unicode="&#x20ac;" horiz-adv-x="682" 
d="M397 -12q-111 0 -178 68.5t-71 186.5h-121l17 70h107q1 39 12 77h-100l17 70h105q47 118 141 185q92 67 207 67q104 0 184 -56l-24 -116h-2q-73 63 -160 63q-68 0 -125 -38.5t-91 -107.5h262l-17 -67h-270q-10 -32 -16 -77h267l-17 -67h-253q3 -70 40 -109.5t100 -39.5
q96 0 195 77l2 -2l-45 -139q-82 -45 -166 -45z" />
    <glyph glyph-name="uni20B1" unicode="&#x20b1;" horiz-adv-x="684" 
d="M403 598h-73l-26 -104h230q-3 50 -37 77t-94 27zM288 431l-26 -104h92q60 0 106.5 28t63.5 76h-236zM334 226h-97l-56 -226h-118l106 427h-95l18 70h95l50 203h183q103 0 168 -56q64 -55 64 -147h81l-17 -70h-72q-24 -94 -106.5 -147.5t-203.5 -53.5z" />
    <glyph glyph-name="uni20B9" unicode="&#x20b9;" horiz-adv-x="630" 
d="M265 218l230 -216v-2h-153l-284 265l10 17h50q90 0 155.5 34.5t90.5 93.5h-266l17 69h262q-2 58 -48.5 92t-124.5 34h-60l23 95h517l-17 -70h-245q82 -55 82 -151h121l-17 -70h-114q-20 -68 -80 -118t-149 -73z" />
    <glyph glyph-name="uni20BA" unicode="&#x20ba;" horiz-adv-x="628" 
d="M234 -5q-94 0 -167 21l48 191l-105 -44l-1 2l23 93l106 43l22 90l-104 -44l-1 2l23 93l105 42l54 216h120l-41 -164l228 95l1 -2l-23 -93l-229 -91l-22 -92l227 95l1 -2l-23 -93l-228 -92l-39 -157q7 0 15.5 -0.5t13 -1t8.5 -0.5q192 0 319 196l3 -1l3 -143
q-55 -76 -142.5 -117.5t-194.5 -41.5z" />
    <glyph glyph-name="uni20BD" unicode="&#x20bd;" horiz-adv-x="628" 
d="M522 499q0 47 -32.5 72.5t-93.5 25.5h-65l-60 -241h70q80 0 130.5 40t50.5 103zM237 207h267l-17 -68h-267l-34 -139h-123l35 139h-95l17 68h94l20 79h-95l17 68h95l86 346h182q105 0 165.5 -50t60.5 -137q0 -105 -83 -166t-228 -61h-77z" />
    <glyph glyph-name="uni2117" unicode="&#x2117;" horiz-adv-x="913" 
d="M196 68q-118 113 -118 281q0 165 119 282q120 115 285 115t284 -114q118 -113 118 -281q0 -165 -119 -282q-120 -115 -285 -115t-284 114zM480 714q-154 0 -261 -105q-108 -107 -108 -258q0 -153 109 -259q107 -106 262 -106t262 106q107 105 107 257q0 153 -108 259
q-109 106 -263 106zM496 511h-67v-161h67q46 0 71.5 22t25.5 61q0 36 -26 57t-71 21zM679 436q0 -69 -50 -110t-134 -41h-65v-160h-86v455h155q84 0 132 -38t48 -106z" />
    <glyph glyph-name="uni2120" unicode="&#x2120;" horiz-adv-x="962" 
d="M227 475q-88 46 -88 113q0 53 40.5 86t107.5 33q60 0 117 -33l-3 -80h-2q-58 43 -117 43q-27 0 -44 -11.5t-17 -29.5q0 -16 12 -29t46 -30q88 -45 88 -114q0 -56 -41 -90t-109 -34q-78 0 -128 41l-11 96l2 1q62 -68 139 -68q29 0 47 13t18 33q0 18 -11 30t-46 30z
M898 612l-230 -313h-11l-73 312l-94 -305h-78l120 394h111l53 -247l177 247h122l-78 -394h-79z" />
    <glyph glyph-name="trademark" unicode="&#x2122;" horiz-adv-x="1007" 
d="M140 700h357l-18 -73h-137l-80 -321h-81l80 321h-140zM944 612l-230 -313h-11l-73 312l-94 -305h-79l121 394h110l54 -247l176 247h123l-78 -394h-79z" />
    <glyph glyph-name="onethird" unicode="&#x2153;" horiz-adv-x="856" 
d="M335 709l10 -3l-105 -421h-88l71 288l-127 -62l-2 1l23 91zM443 333l-294 -335h-83l334 369l295 335h83zM784 114q0 -52 -46.5 -86t-118.5 -34q-73 0 -123 33l-3 84l2 1q57 -45 121 -45q35 0 56.5 14.5t21.5 37.5q0 24 -26 40.5t-87 30.5l6 28q80 24 115 46.5t35 49.5
q0 16 -13 25.5t-35 9.5q-59 0 -135 -47l-2 1l21 83q62 35 136 35q53 0 85.5 -26t32.5 -68q0 -85 -112 -123q69 -25 69 -90z" />
    <glyph glyph-name="twothirds" unicode="&#x2154;" horiz-adv-x="932" 
d="M198 360h175l-51 -75h-271v36l182 167q47 44 61 64t14 37q0 39 -47 39q-71 0 -143 -77l-2 1l18 101q58 53 141 53q56 0 89.5 -28t33.5 -74q0 -37 -21 -70q-24 -35 -85 -89zM519 333l-294 -335h-83l334 369l295 335h83zM860 114q0 -52 -46.5 -86t-118.5 -34q-73 0 -123 33
l-3 84l2 1q57 -45 121 -45q35 0 56.5 14.5t21.5 37.5q0 24 -26 40.5t-87 30.5l6 28q80 24 115 46.5t35 49.5q0 16 -13 25.5t-35 9.5q-59 0 -135 -47l-2 1l21 83q62 35 136 35q53 0 85.5 -26t32.5 -68q0 -85 -112 -123q69 -25 69 -90z" />
    <glyph glyph-name="oneeighth" unicode="&#x215b;" horiz-adv-x="885" 
d="M335 709l10 -3l-105 -421h-88l71 288l-127 -62l-2 1l23 91zM443 333l-294 -335h-83l334 369l295 335h83zM810 119q0 -57 -48 -91.5t-128 -34.5q-69 0 -110.5 30.5t-41.5 80.5q0 40 28 71t77 45q-44 27 -44 79q0 54 45 88.5t116 34.5q62 0 101.5 -31t39.5 -80
q0 -36 -23 -64t-65 -43q53 -31 53 -85zM700 356q-31 1 -51 -16.5t-20 -45.5q0 -23 16.5 -37.5t43.5 -15.5q30 -1 50.5 17t20.5 45q0 23 -16.5 37.5t-43.5 15.5zM651 180q-36 0 -58.5 -18.5t-22.5 -47.5q0 -24 19.5 -39.5t51.5 -15.5q36 0 58.5 18.5t22.5 47.5q0 24 -20 39.5
t-51 15.5z" />
    <glyph glyph-name="threeeighths" unicode="&#x215c;" horiz-adv-x="937" 
d="M356 399q0 -52 -46.5 -86t-118.5 -34q-73 0 -123 33l-3 84l2 1q57 -45 121 -45q35 0 56.5 14.5t21.5 37.5q0 24 -26 40.5t-87 30.5l6 28q80 24 115 46.5t35 49.5q0 16 -13 25.5t-35 9.5q-59 0 -135 -47l-2 1l21 83q62 35 136 35q53 0 85.5 -26t32.5 -68q0 -85 -112 -123
q69 -25 69 -90zM494 333l-294 -335h-83l334 369l295 335h83zM862 119q0 -57 -48 -91.5t-128 -34.5q-69 0 -110.5 30.5t-41.5 80.5q0 40 28 71t77 45q-44 27 -44 79q0 54 45 88.5t116 34.5q62 0 101.5 -31t39.5 -80q0 -36 -23 -64t-65 -43q53 -31 53 -85zM752 356
q-31 1 -51 -16.5t-20 -45.5q0 -23 16.5 -37.5t43.5 -15.5q30 -1 50.5 17t20.5 45q0 23 -16.5 37.5t-43.5 15.5zM703 180q-36 0 -58.5 -18.5t-22.5 -47.5q0 -24 19.5 -39.5t51.5 -15.5q36 0 58.5 18.5t22.5 47.5q0 24 -20 39.5t-51 15.5z" />
    <glyph glyph-name="fiveeighths" unicode="&#x215d;" horiz-adv-x="953" 
d="M381 433q0 -67 -53 -111t-137 -44q-60 0 -116 27l-2 81l2 1q61 -37 119 -37q41 0 69.5 22t28.5 54q0 55 -81 55q-36 0 -92 -13l-7 6l73 226h251l-19 -75h-182l-27 -84q20 5 44 5q58 0 93.5 -31t35.5 -82zM510 333l-294 -335h-83l334 369l295 335h83zM878 119
q0 -57 -48 -91.5t-128 -34.5q-69 0 -110.5 30.5t-41.5 80.5q0 40 28 71t77 45q-44 27 -44 79q0 54 45 88.5t116 34.5q62 0 101.5 -31t39.5 -80q0 -36 -23 -64t-65 -43q53 -31 53 -85zM768 356q-31 1 -51 -16.5t-20 -45.5q0 -23 16.5 -37.5t43.5 -15.5q30 -1 50.5 17t20.5 45
q0 23 -16.5 37.5t-43.5 15.5zM719 180q-36 0 -58.5 -18.5t-22.5 -47.5q0 -24 19.5 -39.5t51.5 -15.5q36 0 58.5 18.5t22.5 47.5q0 24 -20 39.5t-51 15.5z" />
    <glyph glyph-name="seveneighths" unicode="&#x215e;" horiz-adv-x="880" 
d="M464 700l3 -9l-278 -406h-101l235 340h-204l38 75h307zM438 333l-294 -335h-83l334 369l295 335h83zM805 119q0 -57 -48 -91.5t-128 -34.5q-69 0 -110.5 30.5t-41.5 80.5q0 40 28 71t77 45q-44 27 -44 79q0 54 45 88.5t116 34.5q62 0 101.5 -31t39.5 -80q0 -36 -23 -64
t-65 -43q53 -31 53 -85zM695 356q-31 1 -51 -16.5t-20 -45.5q0 -23 16.5 -37.5t43.5 -15.5q30 -1 50.5 17t20.5 45q0 23 -16.5 37.5t-43.5 15.5zM646 180q-36 0 -58.5 -18.5t-22.5 -47.5q0 -24 19.5 -39.5t51.5 -15.5q36 0 58.5 18.5t22.5 47.5q0 24 -20 39.5t-51 15.5z" />
    <glyph glyph-name="minus" unicode="&#x2212;" horiz-adv-x="600" 
d="M83 401h507l-25 -102h-507z" />
    <glyph glyph-name="approxequal" unicode="&#x2248;" horiz-adv-x="600" 
d="M369 524q65 -46 83 -46t43.5 22t76.5 81l54 -37q-64 -96 -104 -136q-40 -38 -76 -38q-32 0 -115 60q-67 45 -83 45q-17 0 -39 -17.5t-67 -68.5l-52 38q59 89 95 123q35 33 69 33q30 0 115 -59zM317 270q67 -45 83 -45q18 0 38 16q23 20 68 70l53 -38q-58 -87 -94 -122
q-34 -34 -70 -34q-32 0 -115 60q-67 45 -83 45q-19 0 -45 -22.5t-75 -80.5l-55 37q66 100 105 136q40 38 75 38q32 0 115 -60z" />
    <glyph glyph-name="notequal" unicode="&#x2260;" horiz-adv-x="600" 
d="M329 297h226l-24 -96h-265l-88 -133l-54 39l62 94h-143l23 96h183l70 106h-226l24 96h265l88 133l54 -39l-62 -94h144l-24 -96h-183z" />
    <glyph glyph-name="uni237F" unicode="&#x237f;" horiz-adv-x="584" 
d="M324 193l-79 -318h-94l83 333q-38 19 -60 54.5t-22 79.5q0 66 47 116q47 48 109 48l78 312h93l-81 -327q38 -18 60 -54t22 -80q0 -68 -46 -115q-46 -49 -110 -49z" />
    <glyph glyph-name="uniA788" unicode="&#xa788;" horiz-adv-x="500" 
d="M219 -82l79 -176h-54l-92 89l-138 -89h-63v2l165 174h103z" />
    <glyph glyph-name="G.alt" horiz-adv-x="791" 
d="M410 270l25 103h337q-23 -185 -123.5 -286t-259.5 -101q-140 0 -228 85q-89 84 -89 218q0 179 120 302q119 122 300 122q166 0 280 -109l-33 -130h-2q-112 121 -250 121q-117 0 -201 -87t-84 -211q0 -89 54 -143t141 -54q165 0 224 170h-211z" />
    <glyph glyph-name="Q.alt" horiz-adv-x="835" 
d="M203 302q0 -89 54 -143q52 -55 138 -55q75 0 134 37l-107 112l75 72l108 -117q71 85 71 194q0 85 -56 141q-55 55 -141 55q-114 0 -195 -86t-81 -210zM684 125l60 -61l-73 -72l-64 66q-98 -69 -225 -69q-134 0 -222 86q-87 85 -87 219q0 178 120 298q119 122 297 122
q137 0 226 -85q89 -86 89 -216q0 -161 -121 -288z" />
    <glyph glyph-name="a.alt" horiz-adv-x="616" 
d="M154 201q0 -50 26 -78.5t70 -28.5q70 0 148 66l58 235q-44 17 -101 17q-83 0 -141 -61q-60 -61 -60 -150zM515 155l-15 -155h-110l-1 83q-86 -93 -181 -93q-75 0 -123 55q-49 55 -49 143q0 140 92 232q93 93 231 93q71 0 140 -26l93 21l10 -3z" />
    <glyph glyph-name="a.sc" horiz-adv-x="670" 
d="M393 449l-155 -232h192zM479 562l102 -562h-120l-19 121h-265l-81 -121h-132l390 562h125z" />
    <glyph glyph-name="b.sc" horiz-adv-x="565" 
d="M421 409q0 26 -20 40.5t-56 14.5h-100l-34 -135h99q50 0 80.5 22t30.5 58zM375 179q0 60 -85 60h-101l-36 -144h98q56 0 90 23t34 61zM245 0h-230l139 560h206q80 0 128.5 -37t48.5 -98q0 -49 -30.5 -86.5t-87.5 -58.5q75 -36 75 -107q0 -78 -68 -125q-68 -48 -181 -48z
" />
    <glyph glyph-name="c.sc" horiz-adv-x="585" 
d="M295 -12q-107 0 -175 69q-69 69 -69 176q0 143 99 241q98 97 243 97q111 0 187 -66l-25 -120h-2q-70 79 -161 79q-94 0 -155 -63q-63 -65 -63 -159q0 -64 40.5 -105t103.5 -41q95 0 199 80l3 -2l-54 -140q-79 -46 -171 -46z" />
    <glyph glyph-name="d.sc" horiz-adv-x="647" 
d="M488 313q0 66 -44 105t-119 39h-77l-88 -354h73q109 0 182 61q73 60 73 149zM229 0h-214l139 560h189q117 0 192 -66q75 -68 75 -172q0 -138 -109 -229q-110 -93 -272 -93z" />
    <glyph glyph-name="e.sc" horiz-adv-x="521" 
d="M436 101l-52 -101h-369l139 560h381l-25 -102h-264l-32 -129h231l-23 -92h-231l-34 -136h279z" />
    <glyph glyph-name="f.sc" horiz-adv-x="499" 
d="M213 316h218l-24 -100h-219l-54 -216h-119l139 560h353l14 -103h-273z" />
    <glyph glyph-name="g.sc" horiz-adv-x="649" 
d="M344 303h247l-70 -258q-101 -53 -209 -53q-119 0 -189 67q-72 66 -72 175q0 148 105 243q104 95 263 95q117 0 210 -49l-27 -108q-88 50 -193 50q-101 0 -168 -64t-67 -160q0 -69 40.5 -107.5t112.5 -38.5q53 0 101 19l27 100h-133z" />
    <glyph glyph-name="g.scalt" horiz-adv-x="658" 
d="M320 212l23 91h279q-20 -150 -102.5 -232.5t-210.5 -82.5q-115 0 -185 69q-72 69 -72 178q0 143 101 241q100 97 250 97q125 0 215 -82l-30 -114h-1q-83 90 -191 90q-95 0 -159 -64t-64 -162q0 -69 39 -110t104 -41q59 0 103 32t65 90h-164z" />
    <glyph glyph-name="h.sc" horiz-adv-x="675" 
d="M674 560l-139 -560h-120l58 231h-281l-58 -231h-119l139 560h120l-55 -222h281l55 222h119z" />
    <glyph glyph-name="i.sc" horiz-adv-x="284" 
d="M278 560l-139 -560h-120l140 560h119z" />
    <glyph glyph-name="j.sc" horiz-adv-x="409" 
d="M109 96q69 0 87 79l96 385h120l-103 -415q-19 -74 -68 -114t-122 -40q-65 0 -114 34l-10 125l2 1q61 -55 112 -55z" />
    <glyph glyph-name="k.sc" horiz-adv-x="604" 
d="M528 2v-2h-136l-170 236h-29l-59 -236h-119l139 560h120l-57 -227h29l267 227h153v-2l-338 -284z" />
    <glyph glyph-name="l.sc" horiz-adv-x="487" 
d="M410 106l-26 -106h-369l139 560h120l-113 -454h249z" />
    <glyph glyph-name="m.sc" horiz-adv-x="867" 
d="M708 428l-333 -438h-17l-111 440l-130 -430h-117l170 560h160l84 -359l264 359h171l-108 -560h-116z" />
    <glyph glyph-name="n.sc" horiz-adv-x="682" 
d="M563 560h117l-140 -563h-66l-242 408l-100 -405h-117l139 560h120l203 -349z" />
    <glyph glyph-name="o.sc" horiz-adv-x="687" 
d="M387 574q113 0 187 -71q74 -72 74 -182q0 -140 -97 -237q-98 -98 -237 -98q-114 0 -187 72q-75 70 -75 181q0 140 98 238q97 97 237 97zM379 467q-85 0 -145 -64q-60 -65 -60 -158q0 -68 41 -110t107 -42q85 0 145 64q59 65 59 158q0 68 -41 110t-106 42z" />
    <glyph glyph-name="p.sc" horiz-adv-x="549" 
d="M424 384q0 35 -23 55t-63 20h-91l-46 -182h83q61 0 100.5 30t39.5 77zM542 394q0 -96 -75 -154q-75 -60 -196 -60h-93l-44 -180h-119l139 560h198q87 0 138.5 -45t51.5 -121z" />
    <glyph glyph-name="q.sc" horiz-adv-x="687" 
d="M456 -119q-54 0 -93.5 24.5t-84.5 84.5q-101 11 -163 80q-63 69 -63 169q0 140 98 238q97 97 237 97q113 0 187 -71t74 -181t-62 -196q-64 -87 -166 -118q33 -37 77 -37q39 0 75 16l2 -2l-45 -94q-39 -10 -73 -10zM379 467q-85 0 -145 -64q-60 -65 -60 -158
q0 -68 41 -110t107 -42q85 0 145 64q59 65 59 158q0 68 -41 110t-106 42z" />
    <glyph glyph-name="q.scalt" horiz-adv-x="691" 
d="M560 106l52 -52l-67 -65l-55 57q-85 -56 -185 -56q-112 0 -182 70q-71 69 -71 180q0 140 99 237q97 97 239 97q112 0 185 -70t73 -179q0 -120 -88 -219zM174 245q0 -70 38 -111.5t101 -41.5q53 0 104 31l-81 83l68 63l80 -85q43 57 43 132q0 67 -40 109t-104 42
q-89 0 -149 -64q-60 -65 -60 -158z" />
    <glyph glyph-name="r.sc" horiz-adv-x="584" 
d="M418 392q0 33 -22.5 51.5t-62.5 18.5h-85l-42 -168h84q56 0 92 28t36 70zM363 215l156 -215h-134l-145 204h-56l-50 -204h-119l139 560h194q86 0 137 -43t51 -115q0 -68 -46.5 -118t-126.5 -69z" />
    <glyph glyph-name="s.sc" horiz-adv-x="499" 
d="M294 328q71 -38 101 -76t30 -88q0 -79 -57 -126.5t-153 -47.5q-109 0 -188 62l-11 132l3 1q100 -97 200 -97q41 0 65.5 18t24.5 46q0 22 -16 39t-63 43q-75 41 -104.5 78.5t-29.5 88.5q0 76 56.5 122t148.5 46q97 0 174 -53l-5 -118h-2q-90 73 -173 73q-37 0 -60 -16
t-23 -42q0 -23 16.5 -40.5t65.5 -44.5z" />
    <glyph glyph-name="t.sc" horiz-adv-x="606" 
d="M113 560h534l-27 -106h-206l-113 -454h-120l114 454h-209z" />
    <glyph glyph-name="u.sc" horiz-adv-x="651" 
d="M64 193q0 31 12 83l71 284h119l-72 -289q-10 -44 -10 -64q0 -53 31 -83.5t85 -30.5q59 0 100.5 37.5t58.5 106.5l80 323h117l-83 -333q-29 -116 -102 -177t-183 -61q-100 0 -162 56t-62 148z" />
    <glyph glyph-name="v.sc" horiz-adv-x="653" 
d="M705 560l-401 -566h-89l-112 566h122l70 -407l276 407h134z" />
    <glyph glyph-name="w.sc" horiz-adv-x="969" 
d="M503 340l-234 -343h-108l-51 563h122l24 -406l286 414h16l91 -414l233 406h130l-338 -563h-98z" />
    <glyph glyph-name="x.sc" horiz-adv-x="631" 
d="M394 276l144 -276h-127l-102 206l-198 -206h-143v2l286 290l-139 268h127l97 -198l190 198h142v-2z" />
    <glyph glyph-name="y.sc" horiz-adv-x="600" 
d="M663 558l-309 -323l-59 -235h-119l60 239l-149 321h127l96 -231l213 231h140v-2z" />
    <glyph glyph-name="z.sc" horiz-adv-x="590" 
d="M207 101h319l-58 -101h-482l-2 14l406 445h-288l25 101h485l1 -14z" />
    <glyph glyph-name="quoteleftreversed" horiz-adv-x="236" 
d="M184 700h137q-103 -88 -103 -157q0 -37 33 -122l-42 -25q-51 60 -71 100t-20 79q0 59 66 125z" />
    <glyph glyph-name="guillemotleft.cap" horiz-adv-x="640" 
d="M463 343l90 -226l-40 -25l-187 250l5 21l303 251l35 -30zM200 343l90 -226l-40 -25l-187 250l4 21l304 251l35 -30z" />
    <glyph glyph-name="guillemotright.cap" horiz-adv-x="640" 
d="M364 363l-5 -21l-303 -250l-35 30l206 240l-90 227l40 24zM627 363l-5 -21l-303 -250l-35 30l206 240l-90 227l40 24z" />
    <glyph glyph-name="guilsinglleft.cap" horiz-adv-x="387" 
d="M202 344l98 -227l-39 -25l-198 250l4 21l315 251l35 -30z" />
    <glyph glyph-name="guilsinglright.cap" horiz-adv-x="387" 
d="M375 363l-5 -21l-314 -250l-35 30l215 239l-99 228l40 25z" />
    <glyph glyph-name="parenleft.cap" horiz-adv-x="424" 
d="M502 795l27 -38q-168 -116 -245.5 -234.5t-77.5 -259.5q0 -85 27.5 -164t89.5 -169l-36 -29q-196 178 -196 369q0 164 101.5 293t309.5 232z" />
    <glyph glyph-name="parenright.cap" horiz-adv-x="424" 
d="M-31 -99l-26 38q168 116 245.5 234.5t77.5 259.5q0 84 -27.5 162.5t-89.5 170.5l35 29q197 -178 197 -369q0 -323 -412 -525z" />
    <glyph glyph-name="bracketleft.cap" horiz-adv-x="416" 
d="M320 710l-179 -724h181l-33 -73h-275l216 870h271v-73h-181z" />
    <glyph glyph-name="bracketright.cap" horiz-adv-x="416" 
d="M175 783h276l-216 -870h-271l-1 73h181l179 724h-181z" />
    <glyph glyph-name="braceleft.cap" horiz-adv-x="495" 
d="M308 -14h93l-32 -73h-102q-86 0 -132.5 33.5t-46.5 93.5q0 50 62 129q44 57 44 81q0 49 -74 62l-74 13l11 46l87 14q59 9 84.5 29t25.5 57q0 15 -9 68q-11 57 -11 79q0 77 60 121t167 44h119v-73h-113q-55 0 -85 -26t-30 -73q0 -21 8 -66q8 -47 8 -74q0 -97 -123 -131
q72 -31 72 -90q0 -34 -54 -109q-47 -66 -47 -91q0 -64 92 -64z" />
    <glyph glyph-name="braceright.cap" horiz-adv-x="495" 
d="M309 78q0 -77 -60 -121t-167 -44h-118l-1 73h113q55 0 85 26t30 73q0 21 -8 66q-8 47 -8 74q0 97 123 131q-72 31 -72 90q0 34 55 109q47 66 47 91q0 64 -92 64h-94l32 73h102q86 0 132.5 -33.5t46.5 -93.5q0 -50 -62 -129q-43 -57 -43 -81q0 -49 74 -62l73 -13l-11 -46
l-86 -14q-60 -9 -85 -28.5t-25 -57.5q0 -22 9 -68q10 -59 10 -79z" />
    <glyph glyph-name="slash.cap" horiz-adv-x="468" 
d="M591 780l-567 -870h-103l566 870h104z" />
    <glyph glyph-name="bar.cap" horiz-adv-x="385" 
d="M277 780h94l-216 -870h-94z" />
    <glyph glyph-name="backslash.cap" horiz-adv-x="468" 
d="M146 780h89l136 -870h-89z" />
    <glyph glyph-name="hyphen.cap" horiz-adv-x="409" 
d="M356 300h-279l27 111h279z" />
    <glyph glyph-name="endash.cap" horiz-adv-x="563" 
d="M512 303h-435l26 105h435z" />
    <glyph glyph-name="emdash.cap" horiz-adv-x="943" 
d="M892 303h-815l26 105h815z" />
    <glyph glyph-name="periodcentered.cap" horiz-adv-x="265" 
d="M156 261q-36 0 -62 26t-26 62q0 37 26.5 64t63.5 27q36 0 62 -26t26 -62q0 -38 -26.5 -64.5t-63.5 -26.5z" />
    <glyph glyph-name="ampersand.alt" horiz-adv-x="659" 
d="M649 304h-87l-73 -271q-111 -44 -222 -44q-108 0 -172 49.5t-64 132.5q0 74 54 130t146 77q-72 44 -72 130q0 89 74 146q73 57 192 57q103 0 194 -49l-13 -113h-2q-83 58 -177 58q-65 0 -106 -29.5t-41 -76.5q0 -92 142 -92h254zM150 183q0 -42 35 -67t95 -25
q59 0 109 17l53 196h-88q-96 0 -150 -32.5t-54 -88.5z" />
    <glyph glyph-name="colon.fig" horiz-adv-x="261" 
d="M189 418q-33 0 -56 23t-23 56q0 34 24 58t57 24q34 0 57 -23t23 -56q0 -34 -24 -58t-58 -24zM118 122q-33 0 -56 23t-23 56q0 34 23.5 58t57.5 24q33 0 56 -23t23 -56q0 -34 -23.5 -58t-57.5 -24z" />
    <glyph glyph-name="paragraph.alt" horiz-adv-x="625" 
d="M473 0h-83l174 700h83zM404 700h75l-174 -700h-75l37 150h-7q-87 0 -140.5 47.5t-53.5 124.5q0 103 86 172q86 68 213 68h5z" />
    <glyph glyph-name="zero.osf" horiz-adv-x="638" 
d="M357 539q103 0 170 -67t67 -170q0 -132 -89 -224q-90 -92 -219 -92q-103 0 -170 67t-67 170q0 133 90 224q90 92 218 92zM165 229q0 -62 35.5 -101t92.5 -39q78 0 132 60q53 59 53 146q0 63 -35.5 102t-92.5 39q-77 0 -131 -59q-54 -60 -54 -148z" />
    <glyph glyph-name="one.osf" horiz-adv-x="402" 
d="M363 536l18 -5l-132 -531h-118l89 357l-180 -92l-2 1l30 123z" />
    <glyph glyph-name="two.osf" horiz-adv-x="549" 
d="M222 99l274 1l-66 -100h-429l-1 53l295 215q52 39 71 61.5t19 46.5q0 26 -19 41t-51 15q-95 0 -237 -128l-2 1l13 131q121 101 244 101q79 0 126 -38.5t47 -103.5q0 -53 -32 -96.5t-112 -98.5z" />
    <glyph glyph-name="three.osf" horiz-adv-x="550" 
d="M433 15q0 -93 -79 -151t-207 -58q-95 0 -165 30l-10 115l1 1q80 -43 175 -43q72 0 120 30.5t48 75.5q0 47 -50.5 75t-144.5 34l2 50q145 55 203 97q59 42 59 91q0 32 -22.5 50.5t-60.5 18.5q-92 0 -225 -99l-2 1l30 128q101 74 213 74q80 0 133 -44q52 -45 52 -114
q0 -67 -42.5 -115t-144.5 -95q56 -18 86.5 -58t30.5 -94z" />
    <glyph glyph-name="four.osf" horiz-adv-x="649" 
d="M411 370l-262 -275h194zM453 95h129l-23 -95h-130l-47 -191h-113l47 191h-351l-3 36l478 495h121z" />
    <glyph glyph-name="five.osf" horiz-adv-x="573" 
d="M471 73q0 -118 -92 -193q-92 -74 -240 -74q-87 0 -154 24l-8 114l2 1q79 -33 162 -33q89 0 147 43t58 106q0 96 -134 96q-68 0 -144 -20l-11 9l95 379h408l-28 -109h-298l-41 -163q31 6 68 6q98 0 154 -49t56 -137z" />
    <glyph glyph-name="six.osf" horiz-adv-x="634" 
d="M582 258q0 -116 -83 -194q-84 -78 -207 -78q-109 0 -173 64q-66 65 -66 170q0 81 43 160q43 78 144 187l171 181h152l-225 -235q-2 -2 -42 -44q19 3 58 3q103 0 165 -58q63 -58 63 -156zM172 223q0 -61 34.5 -97.5t92.5 -36.5q66 0 116 47q48 46 48 115q0 132 -172 132
q-38 0 -62 -3q-57 -85 -57 -157z" />
    <glyph glyph-name="seven.osf" horiz-adv-x="586" 
d="M620 525l4 -12l-481 -704h-137l425 608h-350l60 108h479z" />
    <glyph glyph-name="eight.osf" horiz-adv-x="624" 
d="M555 209q0 -97 -75 -158q-76 -62 -194 -62q-107 0 -174 56q-66 55 -66 144q0 76 46.5 129.5t130.5 75.5q-71 52 -71 146q0 93 71 155q70 61 178 61q93 0 154 -55q60 -55 60 -141q0 -67 -40 -119.5t-110 -78.5q90 -55 90 -153zM392 658q-52 0 -87.5 -36t-35.5 -88
q0 -48 30 -79t75 -31q52 0 88 36t36 88q0 49 -29.5 79.5t-76.5 30.5zM309 331q-63 0 -103 -36.5t-40 -93.5q0 -51 36 -83t93 -32q61 0 100 36t39 92q0 51 -35 84t-90 33z" />
    <glyph glyph-name="nine.osf" horiz-adv-x="613" 
d="M396 -18l-165 -173h-151l217 226q18 18 27 29q-10 0 -20 -0.5t-16 -1t-11 -0.5q-95 0 -157 59t-63 151q0 113 80 190t197 77q105 0 170 -62q64 -61 64 -163q0 -78 -41 -157t-131 -175zM176 278q0 -127 163 -127q28 0 55 2q54 80 54 159q0 57 -33 90.5t-89 33.5
q-62 0 -106 -45q-44 -47 -44 -113z" />
    <glyph glyph-name="plus.osf" horiz-adv-x="600" 
d="M369 318h200l-25 -102h-201l-51 -205h-106l51 205h-200l25 102h201l51 203h106z" />
    </font>
</defs>
</svg>
