<?xml version="1.0" standalone="no"?>
<!DOCTYPE svg PUBLIC "-//W3C//DTD SVG 1.1//EN" "http://www.w3.org/Graphics/SVG/1.1/DTD/svg11.dtd" >
<svg xmlns="http://www.w3.org/2000/svg" xmlns:xlink="http://www.w3.org/1999/xlink" version="1.1">
<metadata>
Created by FontForge 20170731 at Fri Sep 13 06:39:51 2013
 By Aleksey,,,
Copyright (c) 2009-13 by Village Type &#38; Design LLC. All rights reserved.
</metadata>
<defs>
<font id="Semibold" horiz-adv-x="700" >
  <font-face 
    font-family="Copernicus"
    font-weight="600"
    font-stretch="normal"
    units-per-em="1000"
    panose-1="2 0 0 0 0 0 0 0 0 0"
    ascent="750"
    descent="-250"
    x-height="534"
    cap-height="780"
    bbox="-152 -307 1463 1046"
    underline-thickness="30"
    underline-position="-160"
    unicode-range="U+0020-F614"
  />
<missing-glyph horiz-adv-x="960" 
d="M90 0v780h780v-780h-780zM480 345l-279 -279h558zM201 714l279 -279l279 279h-558zM435 390l-275 275v-550zM525 390l275 -275v550z" />
    <glyph glyph-name="fi" unicode="fi" horiz-adv-x="727" 
d="M619 534l-5 -95v-338q0 -31 17.5 -41.5t58.5 -15.5v-44h-272v44q28 4 41.5 7.5t24 15.5t10.5 34v374h-246v-371q0 -18 4 -28.5t17.5 -17t26 -8.5t43.5 -6v-44h-286v44q28 4 41.5 7.5t24 15.5t10.5 34v374h-77v39l77 34v17q0 113 69 179t190 66q85 0 130.5 -29t45.5 -75
q0 -43 -32 -62h-95v34q0 37 -19.5 57.5t-55.5 20.5q-61 0 -87.5 -39t-26.5 -120v-63h371z" />
    <glyph glyph-name="fl" unicode="fl" horiz-adv-x="727" 
d="M502 769l81 41h36l-5 -86v-623q0 -31 17.5 -41.5t58.5 -15.5v-44h-272v44q28 4 41.5 7.5t24 15.5t10.5 34v568q-19 36 -56.5 59.5t-80.5 23.5q-56 0 -82.5 -33t-26.5 -104v-81h133v-59h-133v-371q0 -18 4 -28.5t17.5 -17t26 -8.5t43.5 -6v-44h-286v44q28 4 41.5 7.5
t24 15.5t10.5 34v374h-77v39l77 34v25q0 111 63 174t169 63q86 0 141 -41z" />
    <glyph glyph-name=".notdef" horiz-adv-x="960" 
d="M90 0v780h780v-780h-780zM480 345l-279 -279h558zM201 714l279 -279l279 279h-558zM435 390l-275 275v-550zM525 390l275 -275v550z" />
    <glyph glyph-name=".null" horiz-adv-x="0" 
 />
    <glyph glyph-name="nonmarkingreturn" horiz-adv-x="333" 
 />
    <glyph glyph-name="space" unicode=" " horiz-adv-x="238" 
 />
    <glyph glyph-name="exclam" unicode="!" horiz-adv-x="331" 
d="M81 74q0 35 24.5 60t59.5 25t60 -25t25 -60t-25 -59.5t-60 -24.5t-59.5 24.5t-24.5 59.5zM247 780v-46l-25 -238q-26 -249 -27 -271h-60q0 28 -4 68.5t-12 106t-11 96.5l-24 238v46h163z" />
    <glyph glyph-name="quotedbl" unicode="&#x22;" horiz-adv-x="415" 
d="M153 503h-65l-31 277h127zM327 503h-65l-31 277h127z" />
    <glyph glyph-name="numbersign" unicode="#" horiz-adv-x="660" 
d="M568 780l-57 -240h117v-62h-131l-42 -177h131v-62h-145l-57 -239h-62l56 239h-167l-56 -239h-63l57 239h-117v62h131l42 177h-130v62h144l57 240h63l-57 -240h167l57 240h62zM267 478l-41 -177h167l41 177h-167z" />
    <glyph glyph-name="dollar" unicode="$" horiz-adv-x="650" 
d="M214 -125l20 120q-111 16 -170 64l-9 187h53q38 -143 138 -181l47 276l-46 17q-90 32 -137 78.5t-47 134.5q0 96 71 157.5t189 61.5q15 0 47 -2l20 117h53l-21 -124q93 -17 145 -57l1 -170h-48q-31 116 -111 155l-43 -253l39 -15q48 -17 79.5 -33.5t61 -42t43.5 -61.5
t14 -85q0 -108 -84 -168.5t-212 -60.5q-14 0 -21 1l-20 -116h-52zM353 319l-10 3l-46 -269q3 0 11 -0.5t12 -0.5q76 0 120.5 34.5t44.5 95.5q0 52 -31.5 81.5t-100.5 55.5zM178 607q0 -48 27.5 -75.5t90.5 -49.5l20 -8l43 250q-19 4 -45 4q-65 0 -100.5 -32.5t-35.5 -88.5z
" />
    <glyph glyph-name="percent" unicode="%" horiz-adv-x="989" 
d="M50 583q0 100 54 153.5t139 53.5t138.5 -53.5t53.5 -153.5t-53.5 -153.5t-138.5 -53.5t-139 53.5t-54 153.5zM338 583q0 160 -95 160t-95 -160t95 -160t95 160zM789 780l-517 -780h-72l517 780h72zM939 197q0 -100 -54 -153.5t-139 -53.5t-139 53.5t-54 153.5t54 153.5
t139 53.5t139 -53.5t54 -153.5zM651 197q0 -160 95 -160t95 160t-95 160t-95 -160z" />
    <glyph glyph-name="ampersand" unicode="&#x26;" horiz-adv-x="827" 
d="M688 326q-11 -79 -50 -148l69 -66q36 -34 57.5 -47t56.5 -16v-49h-166q-13 6 -24.5 15t-18.5 15.5t-24.5 24t-28.5 27.5q-104 -92 -250 -92q-75 0 -135.5 20t-102.5 70t-42 124q0 79 44.5 127.5t134.5 88.5q-77 77 -77 173q0 92 61.5 144.5t163.5 52.5q97 0 151.5 -46.5
t54.5 -120.5q0 -69 -49.5 -110t-143.5 -79l224 -214q26 52 26 109q0 44 -24 59t-84 17v49h286v-49q-58 -2 -80 -17t-29 -62zM342 61q106 0 176 60l-273 264q-44 -25 -61.5 -62t-17.5 -97q0 -73 50.5 -119t125.5 -46zM248 621q0 -33 13.5 -62.5t27.5 -45t41 -42.5
q63 28 91 64t28 93q0 49 -26.5 78t-72.5 29q-47 0 -74.5 -31.5t-27.5 -82.5z" />
    <glyph glyph-name="quotesingle" unicode="'" horiz-adv-x="241" 
d="M153 503h-65l-31 277h127z" />
    <glyph glyph-name="parenleft" unicode="(" horiz-adv-x="404" 
d="M78 350q0 286 220 480l47 -41q-99 -98 -148 -197t-49 -242t49 -242t148 -197l-47 -41q-220 194 -220 480z" />
    <glyph glyph-name="parenright" unicode=")" horiz-adv-x="404" 
d="M326 350q0 -286 -220 -480l-47 41q99 97 147.5 196.5t48.5 242.5t-48.5 242.5t-147.5 196.5l47 41q220 -194 220 -480z" />
    <glyph glyph-name="asterisk" unicode="*" horiz-adv-x="412" 
d="M25 639l16 51l129 -33l9 133h54l9 -133l128 32l17 -50l-124 -50l71 -112l-43 -31l-86 102l-84 -102l-44 31l71 113z" />
    <glyph glyph-name="plus" unicode="+" 
d="M314 22v235h-234v71h234v234h72v-234h234v-71h-234v-235h-72z" />
    <glyph glyph-name="comma" unicode="," horiz-adv-x="331" 
d="M181 2h-47q-55 15 -55 74q0 35 23 59t59 24q44 0 69 -32.5t25 -84.5q0 -83 -51 -138.5t-148 -64.5v50q123 24 125 113z" />
    <glyph glyph-name="hyphen" unicode="-" horiz-adv-x="370" 
d="M320 291h-270v85h270v-85z" />
    <glyph glyph-name="period" unicode="." horiz-adv-x="331" 
d="M81 74q0 35 24.5 60t59.5 25q36 0 60.5 -25t24.5 -60t-24.5 -59.5t-60.5 -24.5q-35 0 -59.5 24.5t-24.5 59.5z" />
    <glyph glyph-name="slash" unicode="/" horiz-adv-x="394" 
d="M367 830l-290 -951h-72l290 951h72z" />
    <glyph glyph-name="zero" unicode="0" 
d="M350 790q145 0 225 -111t80 -289t-80 -289t-225 -111t-225 111t-80 289t80 289t225 111zM350 730q-47 0 -79 -26.5t-49 -76.5t-24 -107t-7 -130t7 -130t24 -107t49 -76.5t79 -26.5t79 26.5t49 76.5t24 107t7 130t-7 130t-24 107t-49 76.5t-79 26.5z" />
    <glyph glyph-name="one" unicode="1" 
d="M404 790h31v-661q0 -16 5 -28.5t19 -20.5t27 -13t39.5 -8.5t45.5 -5t57 -3.5v-50h-515v50q56 3 82.5 6t56.5 11t41.5 23t11.5 39v497h-192v41l53 8q87 13 138.5 36.5t99.5 78.5z" />
    <glyph glyph-name="two" unicode="2" 
d="M204 108h197q71 0 104 20t72 95h38l-42 -223h-532v32l211 207q108 106 144.5 167t36.5 130q0 70 -41 108.5t-113 38.5q-41 0 -77.5 -15t-57 -31.5t-51.5 -47.5l-30 28q94 173 273 173q113 0 176.5 -59t63.5 -162q0 -39 -15 -78.5t-36 -71t-61.5 -73.5t-73.5 -71.5
t-91 -80.5t-95 -86z" />
    <glyph glyph-name="three" unicode="3" 
d="M392 440q100 -15 161.5 -70.5t61.5 -138.5q0 -111 -85 -176t-208 -65q-124 0 -194.5 47t-70.5 113q0 54 49 79h77v-38q0 -69 39.5 -108t109.5 -39t108.5 40t38.5 109q0 83 -61.5 128.5t-162.5 45.5h-38l-9 40q54 17 89.5 31t68 35t48.5 48.5t16 62.5q0 50 -32.5 78
t-89.5 28q-93 0 -166 -78l-32 27q35 71 98 111t149 40q92 0 149 -47.5t57 -121.5q0 -71 -51.5 -117.5t-119.5 -63.5z" />
    <glyph glyph-name="four" unicode="4" 
d="M119 264h279v357zM398 128v72h-365v48l413 532h77v-516h131v-64h-131v-72q0 -46 24.5 -61.5t85.5 -17.5v-49h-344v49q61 2 85 17.5t24 61.5z" />
    <glyph glyph-name="five" unicode="5" 
d="M335 -10q-121 0 -189.5 46t-68.5 112q0 27 14 48t34 31h76v-36q0 -70 37.5 -108.5t105.5 -38.5q72 0 110 39.5t38 107.5q0 102 -95.5 153t-263.5 52l64 384h239q45 0 68 10.5t40 42.5h41l-39 -174h-312l-25 -151q182 -6 290.5 -72t108.5 -199q0 -111 -75 -179t-198 -68z
" />
    <glyph glyph-name="six" unicode="6" 
d="M544 752q-134 -50 -219 -135.5t-109 -194.5q73 75 187 75q105 0 169 -62t64 -170q0 -125 -79 -200t-196 -75q-133 0 -211 91t-78 230q0 171 119 303.5t311 176.5zM337 414q-62 0 -126 -42q-4 -27 -4 -65q0 -116 43.5 -187.5t117.5 -71.5q70 0 106 47t36 132
q0 88 -45 137.5t-128 49.5z" />
    <glyph glyph-name="seven" unicode="7" 
d="M554 657h-339q-40 0 -62 -17t-44 -63h-46l48 203h540v-35l-333 -745h-128z" />
    <glyph glyph-name="eight" unicode="8" 
d="M590 605q0 -63 -44 -108.5t-107 -65.5l31 -15q151 -69 151 -204q0 -98 -70 -160t-201 -62q-122 0 -196.5 56.5t-74.5 148.5q0 69 45.5 117.5t120.5 71.5l-10 6q-62 31 -94.5 76.5t-32.5 117.5q0 90 65 148t177 58q109 0 174.5 -50.5t65.5 -134.5zM397 313l-112 51
q-53 -34 -73.5 -73t-20.5 -92q0 -70 43 -111t117 -41q71 0 112.5 36t41.5 96q0 48 -27.5 78.5t-80.5 55.5zM317 491l82 -39q49 32 68 67t19 85q0 59 -37 93.5t-99 34.5t-97 -31.5t-35 -83.5q0 -45 24 -73.5t75 -52.5z" />
    <glyph glyph-name="nine" unicode="9" 
d="M191 -11l-43 39q134 50 219 135.5t109 194.5q-73 -75 -186 -75q-105 0 -169 62t-64 170q0 125 78.5 200t195.5 75q133 0 211 -91t78 -230q0 -171 -118.5 -303.5t-310.5 -176.5zM356 366q60 0 126 42q4 27 4 65q0 116 -44 187.5t-118 71.5q-70 0 -105.5 -47t-35.5 -132
q0 -88 45 -137.5t128 -49.5z" />
    <glyph glyph-name="colon" unicode=":" horiz-adv-x="331" 
d="M81 74q0 35 24.5 60t59.5 25q36 0 60.5 -25t24.5 -60t-24.5 -59.5t-60.5 -24.5q-35 0 -59.5 24.5t-24.5 59.5zM81 381q0 35 24.5 59.5t59.5 24.5q36 0 60.5 -24.5t24.5 -59.5t-24.5 -59.5t-60.5 -24.5q-35 0 -59.5 24.5t-24.5 59.5z" />
    <glyph glyph-name="semicolon" unicode=";" horiz-adv-x="331" 
d="M181 2h-47q-55 15 -55 74q0 35 23 59t59 24q44 0 69 -32.5t25 -84.5q0 -83 -51 -138.5t-148 -64.5v50q123 24 125 113zM81 381q0 35 24.5 59.5t59.5 24.5q36 0 60.5 -24.5t24.5 -59.5t-24.5 -59.5t-60.5 -24.5q-35 0 -59.5 24.5t-24.5 59.5z" />
    <glyph glyph-name="less" unicode="&#x3c;" 
d="M285 352l-141 -60l141 -59l335 -146v-77l-540 244v77l540 244v-77z" />
    <glyph glyph-name="equal" unicode="=" 
d="M620 340h-540v72h540v-72zM620 173h-540v71h540v-71z" />
    <glyph glyph-name="greater" unicode="&#x3e;" 
d="M415 233l141 59l-141 60l-335 146v77l540 -244v-77l-540 -244v77z" />
    <glyph glyph-name="question" unicode="?" horiz-adv-x="497" 
d="M350 633q0 47 -28 73.5t-80 26.5q-89 0 -89 -103v-45h-97q-26 23 -26 59q0 62 62.5 104t150.5 42q106 0 166 -47t60 -137q0 -64 -33.5 -111t-100.5 -96q-48 -35 -67 -65t-19 -77v-32h-39q-38 46 -38 103q0 45 19 81.5t63 75.5q5 4 23 20t24 21.5t18.5 20t17 25t9 27
t4.5 34.5zM146 74q0 35 24.5 60t59.5 25t60 -25t25 -60t-25 -59.5t-60 -24.5t-59.5 24.5t-24.5 59.5z" />
    <glyph glyph-name="at" unicode="@" horiz-adv-x="1120" 
d="M462 108q27 0 55.5 25t66.5 82q39 57 68 130t33 118q-19 31 -65 31q-59 0 -107 -45.5t-73 -112t-25 -134.5q0 -94 47 -94zM759 92q93 0 156.5 82t63.5 218q0 161 -100 261.5t-278 100.5q-194 0 -323.5 -145t-129.5 -356q0 -183 126 -302.5t316 -119.5q173 0 327 88
l20 -37q-64 -52 -158.5 -82.5t-200.5 -30.5q-227 0 -372.5 133.5t-145.5 351.5q0 152 70.5 279.5t195 201.5t275.5 74q209 0 334 -117.5t125 -299.5q0 -167 -96 -262t-246 -95q-89 0 -89 75q0 23 36 173h-4q-28 -68 -64 -122q-87 -126 -178 -126q-56 0 -85.5 40.5
t-29.5 107.5q0 143 95.5 251.5t220.5 108.5q77 0 109 -50l61 57h41l-34 -103q-22 -87 -40.5 -190t-18.5 -140q0 -25 21 -25z" />
    <glyph glyph-name="A" unicode="A" horiz-adv-x="843" 
d="M598 142l-46 107h-332l-43 -107q-12 -29 -12 -45q0 -25 21.5 -35.5t79.5 -12.5v-49h-256v49q28 4 44 12t24 29l263 620l-35 78h149l310 -698q9 -21 24 -29t44 -12v-49h-323v49q57 2 78.5 12.5t21.5 35.5q0 18 -12 45zM381 640l-137 -332h281z" />
    <glyph glyph-name="B" unicode="B" horiz-adv-x="798" 
d="M44 0v49q61 2 85 17.5t24 61.5v524q0 46 -24 61.5t-85 17.5v49h384q275 0 275 -195q0 -79 -55.5 -123.5t-143.5 -58.5q117 -9 180 -59.5t63 -136.5q0 -94 -76.5 -150.5t-216.5 -56.5h-410zM405 371h-121v-239q0 -44 25 -59.5t86 -15.5h31q89 0 131 37.5t42 114.5
q0 74 -46.5 118t-147.5 44zM380 720h-96v-290h97q92 0 135.5 35.5t43.5 112.5q0 65 -45.5 103.5t-134.5 38.5z" />
    <glyph glyph-name="C" unicode="C" horiz-adv-x="817" 
d="M481 56q103 0 158.5 45t91.5 145h53l-22 -193q-133 -63 -302 -63q-190 0 -300.5 111.5t-110.5 273.5q0 187 119.5 301t299.5 114q166 0 275 -71l6 -172h-52q-32 94 -90 135.5t-149 41.5q-70 0 -122 -24.5t-82 -68.5t-44.5 -98t-14.5 -119q0 -72 17 -135t51 -113.5t90 -80
t128 -29.5z" />
    <glyph glyph-name="D" unicode="D" horiz-adv-x="924" 
d="M431 720h-147v-582q0 -47 24.5 -62.5t85.5 -15.5h69q119 0 193 77.5t74 230.5q0 156 -73.5 254t-225.5 98zM44 780h425q101 0 180 -29.5t127.5 -81t73.5 -117t25 -140.5q0 -194 -114.5 -303t-290.5 -109h-426v49q61 2 85 17.5t24 61.5v524q0 46 -24 61.5t-85 17.5v49z
" />
    <glyph glyph-name="E" unicode="E" horiz-adv-x="802" 
d="M605 271h-46q-9 52 -27.5 74.5t-54.5 22.5h-193v-233q0 -44 25 -59.5t85 -15.5h115q47 0 77 14.5t50.5 40t62.5 91.5h47l-35 -206h-667v49q61 2 85 17.5t24 61.5v524q0 46 -24 61.5t-85 17.5v49h662l3 -191h-44q-31 74 -64.5 102.5t-99.5 28.5h-217v-292h193
q36 0 54.5 23t27.5 75h46v-255z" />
    <glyph glyph-name="F" unicode="F" horiz-adv-x="740" 
d="M425 0h-381v49q61 2 85 17.5t24 61.5v524q0 46 -24 61.5t-85 17.5v49h652l3 -191h-45q-31 75 -64 103t-99 28h-207v-310h173q36 0 54.5 23t27.5 75h46v-255h-46q-9 52 -27.5 74.5t-54.5 22.5h-173v-222q0 -45 32.5 -60.5t108.5 -18.5v-49z" />
    <glyph glyph-name="G" unicode="G" horiz-adv-x="896" 
d="M49 375q0 187 120 301t299 114q166 0 275 -71l6 -172h-52q-32 94 -90 135.5t-149 41.5q-70 0 -122 -24.5t-82 -68.5t-44.5 -98t-14.5 -119q0 -97 29 -175.5t94 -129.5t158 -51q114 0 163 51v137q0 47 -24.5 62.5t-85.5 17.5v49h350v-49q-61 -2 -85.5 -17.5t-24.5 -62.5
v-176q-129 -80 -310 -80q-127 0 -222 54t-141.5 140t-46.5 191z" />
    <glyph glyph-name="H" unicode="H" horiz-adv-x="986" 
d="M702 128v240h-418v-240q0 -46 24 -61.5t85 -17.5v-49h-349v49q61 2 85 17.5t24 61.5v524q0 46 -24 61.5t-85 17.5v49h349v-49q-61 -2 -85 -17.5t-24 -61.5v-224h418v224q0 46 -24 61.5t-85 17.5v49h349v-49q-61 -2 -85 -17.5t-24 -61.5v-524q0 -46 24 -61.5t85 -17.5v-49
h-349v49q61 2 85 17.5t24 61.5z" />
    <glyph glyph-name="I" unicode="I" horiz-adv-x="437" 
d="M153 128v524q0 46 -24 61.5t-85 17.5v49h349v-49q-61 -2 -85 -17.5t-24 -61.5v-524q0 -46 24 -61.5t85 -17.5v-49h-349v49q61 2 85 17.5t24 61.5z" />
    <glyph glyph-name="J" unicode="J" horiz-adv-x="608" 
d="M478 652v-427q0 -116 -65 -175.5t-183 -59.5q-106 0 -167 38.5t-61 104.5q0 50 36 78h94v-49q0 -59 27.5 -89t76.5 -30q111 0 111 165v444q0 46 -24 61.5t-85 17.5v49h349v-49q-61 -2 -85 -17.5t-24 -61.5z" />
    <glyph glyph-name="K" unicode="K" horiz-adv-x="856" 
d="M427 435l312 -324q32 -33 53 -45.5t58 -16.5v-49h-163q-49 26 -115 96l-283 301l296 259q28 24 28 44q0 15 -16.5 21t-71.5 10v49h297v-49q-61 -4 -116 -52zM153 128v524q0 46 -24 61.5t-85 17.5v49h349v-49q-61 -2 -85 -17.5t-24 -61.5v-524q0 -46 24 -61.5t85 -17.5
v-49h-349v49q61 2 85 17.5t24 61.5z" />
    <glyph glyph-name="L" unicode="L" horiz-adv-x="759" 
d="M284 652v-517q0 -44 25 -59.5t85 -15.5h103q24 0 42 3t35 14.5t26.5 19t27 34.5t26 41.5t32.5 56.5h48l-38 -229h-652v49q61 2 85 17.5t24 61.5v524q0 46 -24 61.5t-85 17.5v49h349v-49q-61 -2 -85 -17.5t-24 -61.5z" />
    <glyph glyph-name="M" unicode="M" horiz-adv-x="1113" 
d="M858 147l-62 454l-240 -601h-49l-254 604l-59 -457q-2 -16 -2 -27q0 -39 23 -53.5t85 -17.5v-49h-275v49q50 2 70 15.5t25 51.5l71 534q0 45 -19.5 62t-75.5 19v49h232q2 -28 18 -64l218 -524l206 524q16 40 18 64h229v-49q-56 -2 -75.5 -19t-19.5 -62l71 -534
q5 -38 25 -51.5t70 -15.5v-49h-336v49q62 3 85 17.5t23 53.5q0 11 -2 27z" />
    <glyph glyph-name="N" unicode="N" horiz-adv-x="958" 
d="M153 128v538q-34 40 -53 52t-56 13v49h211l486 -560v432q0 46 -25.5 61.5t-86.5 17.5v49h295v-49q-61 -2 -85 -17.5t-24 -61.5v-652h-53l-535 610v-482q0 -46 25.5 -61.5t86.5 -17.5v-49h-295v49q61 2 85 17.5t24 61.5z" />
    <glyph glyph-name="O" unicode="O" horiz-adv-x="894" 
d="M467 60q115 0 174 85.5t59 221.5q0 96 -29 174t-92.5 128.5t-151.5 50.5q-116 0 -175 -85.5t-59 -221.5q0 -96 29 -174t92.5 -128.5t152.5 -50.5zM436 -10q-117 0 -206.5 54.5t-135 141.5t-45.5 189q0 187 117.5 301t291.5 114t280.5 -113.5t106.5 -271.5
q0 -187 -118 -301t-291 -114z" />
    <glyph glyph-name="P" unicode="P" horiz-adv-x="753" 
d="M439 321h-155v-193q0 -45 32.5 -60.5t108.5 -18.5v-49h-381v49q61 2 85 17.5t24 61.5v524q0 46 -24 61.5t-85 17.5v49h380q153 0 226 -64t73 -161q0 -106 -71 -170t-213 -64zM284 720v-341h105q100 0 145 41t45 131q0 80 -47.5 124.5t-143.5 44.5h-104z" />
    <glyph glyph-name="Q" unicode="Q" horiz-adv-x="894" 
d="M545 -133l-150 126q-157 13 -251.5 123t-94.5 259q0 187 117.5 301t291.5 114t280.5 -113.5t106.5 -271.5t-87.5 -266t-225.5 -136l173 -98q77 -44 130 -44h21v-39q-43 -32 -116 -32q-107 0 -195 77zM467 60q115 0 174 85.5t59 221.5q0 96 -29 174t-92 128.5t-152 50.5
q-116 0 -175 -85.5t-59 -221.5q0 -96 29 -174t92.5 -128.5t152.5 -50.5z" />
    <glyph glyph-name="R" unicode="R" horiz-adv-x="859" 
d="M378 720h-94v-313h94q106 0 151 37.5t45 120.5q0 71 -47.5 113t-148.5 42zM44 780h376q84 0 144 -17.5t93 -49t47.5 -68t14.5 -80.5q0 -93 -67.5 -146t-173.5 -63q65 -14 121 -79l142 -161q32 -36 53.5 -49.5t58.5 -17.5v-49h-161q-26 15 -45 33t-57 61l-171 194
q-29 32 -54.5 45t-65.5 13h-15v-218q0 -46 24 -61.5t85 -17.5v-49h-349v49q61 2 85 17.5t24 61.5v524q0 46 -24 61.5t-85 17.5v49z" />
    <glyph glyph-name="S" unicode="S" horiz-adv-x="649" 
d="M300 -10q-73 0 -138 19t-104 50l-9 187h52q55 -194 213 -194q76 0 120.5 34.5t44.5 95.5q0 51 -31.5 81t-100.5 56l-106 39q-90 32 -137 78.5t-47 134.5q0 96 71 157.5t189 61.5q73 0 139 -18t105 -48v-170h-47q-45 174 -206 174q-65 0 -101 -32.5t-36 -88.5
q0 -48 27.5 -75.5t90.5 -49.5l110 -41q99 -36 148 -83t49 -139q0 -108 -83.5 -168.5t-212.5 -60.5z" />
    <glyph glyph-name="T" unicode="T" horiz-adv-x="820" 
d="M47 780h726l17 -222h-48q-17 36 -22.5 48t-19 36.5t-20.5 32t-20.5 21t-26.5 17t-31 7.5t-41 4h-86v-596q0 -46 26 -61.5t88 -17.5v-49h-358v49q62 2 88 17.5t26 61.5v596h-86q-23 0 -41 -4t-31 -7.5t-26.5 -17t-20.5 -21t-20.5 -32t-19 -36.5t-22.5 -48h-48z" />
    <glyph glyph-name="U" unicode="U" horiz-adv-x="881" 
d="M257 652v-375q0 -101 51.5 -155.5t146.5 -54.5q111 0 168.5 51.5t57.5 167.5v366q0 46 -25.5 61.5t-86.5 17.5v49h295v-49q-61 -2 -85 -17.5t-24 -61.5v-388q0 -133 -88 -203.5t-219 -70.5q-152 0 -236.5 69t-84.5 206v387q0 46 -24.5 61.5t-85.5 17.5v49h350v-49
q-61 -2 -85.5 -17.5t-24.5 -61.5z" />
    <glyph glyph-name="V" unicode="V" horiz-adv-x="826" 
d="M458 174l189 464q12 29 12 45q0 25 -22 35.5t-80 12.5v49h259v-49q-28 -4 -43.5 -12t-24.5 -29l-300 -699h-41l-329 699q-10 21 -25 29t-43 12v49h325v-49q-57 -2 -78.5 -12.5t-21.5 -35.5q0 -19 12 -45z" />
    <glyph glyph-name="W" unicode="W" horiz-adv-x="1162" 
d="M832 188l156 447q12 33 12 48q0 25 -21.5 35.5t-79.5 12.5v49h253v-49q-20 -3 -30 -5.5t-21 -11.5t-17 -24l-258 -699h-45l-190 483l-192 -483h-46l-275 699q-6 15 -17 23.5t-21.5 11.5t-29.5 6v49h320v-49q-58 -2 -79 -12.5t-21 -35.5q0 -13 12 -47l168 -448l146 372
l-50 130q-6 15 -17 23.5t-21.5 11.5t-29.5 6v49h312v-49q-57 -2 -78.5 -12.5t-21.5 -35.5q0 -13 13 -49z" />
    <glyph glyph-name="X" unicode="X" horiz-adv-x="866" 
d="M714 679l-214 -253l259 -325q24 -29 44.5 -40t52.5 -12v-49h-348v49q58 0 75 7.5t17 28.5q0 18 -30 55l-163 204l-172 -204q-29 -36 -29 -55q0 -20 17.5 -28t71.5 -8v-49h-285v49q62 0 106 52l248 295l-224 283q-23 29 -44 40t-52 12v49h351v-49q-59 0 -76.5 -7.5
t-17.5 -28.5q0 -18 30 -55l128 -162l134 162q30 37 30 55q0 21 -17.5 28.5t-76.5 7.5v49h285v-49q-34 -1 -55 -12t-45 -40z" />
    <glyph glyph-name="Y" unicode="Y" horiz-adv-x="779" 
d="M423 376l163 259q19 30 19 53t-20.5 32.5t-74.5 10.5v49h259v-49q-46 -7 -68 -41l-248 -383v-179q0 -46 25 -61.5t86 -17.5v-49h-352v49q61 2 86 17.5t25 61.5v178l-245 384q-13 21 -27.5 29t-40.5 12v49h326v-49q-55 -1 -75 -10.5t-20 -33.5q0 -23 19 -52z" />
    <glyph glyph-name="Z" unicode="Z" horiz-adv-x="748" 
d="M204 60h268q24 0 42 3t35 14.5t26.5 19t27 34.5t26 41.5t32.5 56.5h49l-38 -229h-638v33l484 687h-245q-34 0 -55.5 -6t-40.5 -27t-31 -43.5t-35 -72.5h-44l3 209h618v-34z" />
    <glyph glyph-name="bracketleft" unicode="[" horiz-adv-x="366" 
d="M169 771v-842h127v-59h-196v960h196v-59h-127z" />
    <glyph glyph-name="backslash" unicode="\" horiz-adv-x="394" 
d="M316 -121l-290 951h73l290 -951h-73z" />
    <glyph glyph-name="bracketright" unicode="]" horiz-adv-x="366" 
d="M197 -71v842h-127v59h196v-960h-196v59h127z" />
    <glyph glyph-name="asciicircum" unicode="^" horiz-adv-x="492" 
d="M287 790l185 -390h-78l-148 318l-149 -318h-77l185 390h82z" />
    <glyph glyph-name="underscore" unicode="_" horiz-adv-x="300" 
d="M280 -200h-260v71h260v-71z" />
    <glyph glyph-name="grave" unicode="`" horiz-adv-x="600" 
d="M123 800h142l84 -208h-55z" />
    <glyph glyph-name="a" unicode="a" horiz-adv-x="612" 
d="M259 71q34 0 60 12.5t63 40.5v148l-154 -49q-53 -18 -53 -69q0 -40 22.5 -61.5t61.5 -21.5zM502 346v-209q0 -68 43 -68q21 0 44 6l10 -35q-51 -50 -114 -50q-72 0 -100 90q-80 -89 -183 -89q-71 0 -111 38t-40 99q0 63 35 90.5t106 47.5l190 57v28q0 64 -28.5 101
t-84.5 37q-76 0 -76 -71q0 -10 6 -52l-92 -12q-27 20 -27 57q0 62 59 97.5t150 35.5q103 0 158 -45.5t55 -152.5z" />
    <glyph glyph-name="b" unicode="b" horiz-adv-x="661" 
d="M84 703l-72 33v26l160 48h36l-5 -86v-274q72 94 186 94q110 0 172 -70.5t62 -181.5q0 -137 -84.5 -219.5t-209.5 -82.5q-154 0 -245 67v646zM337 50q75 0 118.5 52.5t43.5 145.5q0 90 -39.5 150t-120.5 60q-80 0 -136 -56v-231q0 -63 37.5 -92t96.5 -29z" />
    <glyph glyph-name="c" unicode="c" horiz-adv-x="561" 
d="M151 295q0 -97 47.5 -152t136.5 -55q103 0 165 77l33 -15q-22 -69 -81.5 -114.5t-156.5 -45.5q-121 0 -189 75.5t-68 184.5q0 132 81.5 213t208.5 81q87 0 140.5 -37t53.5 -96q0 -50 -41 -67h-79v41q0 98 -94 98q-71 0 -114 -49.5t-43 -138.5z" />
    <glyph glyph-name="d" unicode="d" horiz-adv-x="687" 
d="M324 484q-75 0 -119 -54t-44 -151q0 -86 41 -143.5t123 -57.5q81 0 132 53v228q0 61 -38 93t-95 32zM657 25l-184 -35h-21l5 94q-67 -94 -183 -94q-110 0 -173 70.5t-63 181.5q0 136 82 219t201 83q83 0 136 -39v198l-71 33v26l160 48h36l-5 -86v-604q0 -26 11 -35.5
t43 -12.5l26 -2v-45z" />
    <glyph glyph-name="e" unicode="e" horiz-adv-x="569" 
d="M308 544q107 0 165.5 -60t58.5 -154v-30h-382q0 -100 47 -156t140 -56q102 0 164 77l32 -15q-21 -67 -79.5 -113.5t-156.5 -46.5q-118 0 -188.5 73t-70.5 187q0 131 76.5 212.5t193.5 81.5zM284 480q-54 0 -88.5 -35t-42.5 -93h256q0 56 -32.5 92t-92.5 36z" />
    <glyph glyph-name="f" unicode="f" horiz-adv-x="410" 
d="M248 475v-371q0 -24 11 -36t27 -15.5t58 -8.5v-44h-291v44q28 4 41.5 7.5t24 15.5t10.5 34v374h-77v39l77 34v25q0 112 63.5 174.5t172.5 62.5q71 0 107.5 -24.5t36.5 -69.5q0 -43 -30 -61h-85v36q0 65 -56 65q-90 0 -90 -141v-81h133v-59h-133z" />
    <glyph glyph-name="g" unicode="g" horiz-adv-x="600" 
d="M300 544q51 0 93 -14l194 5v-75h-41l-113 16v-2q38 -16 62 -50.5t24 -77.5q0 -87 -64 -135.5t-164 -48.5q-62 0 -112 18q-33 -28 -33 -57q0 -40 46 -40h228q82 0 125 -36t43 -104q0 -85 -82 -139t-228 -54q-125 0 -188.5 38.5t-63.5 95.5q0 21 8 37.5t24.5 28.5t30 19
t37.5 16q-33 11 -52 36t-19 58q0 71 91 117q-82 50 -82 146q0 94 65.5 148t170.5 54zM395 -30h-244q-22 -27 -22 -65q0 -48 40 -74t114 -26q95 0 148.5 25.5t53.5 75.5q0 37 -22.5 50.5t-67.5 13.5zM304 214q47 0 70 32.5t23 87.5q0 63 -30 109t-89 46q-46 0 -69.5 -32.5
t-23.5 -87.5q0 -63 30 -109t89 -46z" />
    <glyph glyph-name="h" unicode="h" horiz-adv-x="708" 
d="M113 703l-71 33v26l160 48h36l-5 -86v-278q37 41 91 69.5t110 28.5q77 0 122 -40t45 -124v-279q0 -31 17.5 -41.5t58.5 -15.5v-44h-271v44q28 4 41.5 7.5t24 15.5t10.5 34v263q0 49 -24.5 70t-73.5 21q-36 0 -78.5 -15.5t-72.5 -38.5v-300q0 -31 17.5 -41.5t58.5 -15.5
v-44h-272v44q28 4 41.5 7.5t24 15.5t10.5 34v602z" />
    <glyph glyph-name="i" unicode="i" horiz-adv-x="361" 
d="M247 442v-341q0 -31 17.5 -41.5t58.5 -15.5v-44h-272v44q28 4 41.5 7.5t24 15.5t10.5 34v327l-71 39v27l160 51h36zM107 699q0 33 22.5 55.5t56.5 22.5q35 0 57.5 -22.5t22.5 -55.5t-22.5 -55t-57.5 -22q-34 0 -56.5 22t-22.5 55z" />
    <glyph glyph-name="j" unicode="j" horiz-adv-x="301" 
d="M101 428l-71 39v27l160 51h36l-5 -103v-373q0 -68 -8.5 -103t-29.5 -71q-36 -60 -138 -142l-34 29l47 76q43 68 43 184v386zM81 699q0 33 22.5 55.5t56.5 22.5q35 0 57.5 -22.5t22.5 -55.5t-22.5 -55t-57.5 -22q-34 0 -56.5 22t-22.5 55z" />
    <glyph glyph-name="k" unicode="k" horiz-adv-x="647" 
d="M238 278l170 146q20 17 20 31q0 17 -13 23t-55 12v44h248v-44q-55 -16 -88 -42l-161 -136l282 -276v-36h-132zM233 724v-623q0 -31 17.5 -41.5t58.5 -15.5v-44h-272v44q28 4 41.5 7.5t24 15.5t10.5 34v602l-71 33v26l160 48h36z" />
    <glyph glyph-name="l" unicode="l" horiz-adv-x="351" 
d="M237 724v-623q0 -31 17.5 -41.5t58.5 -15.5v-44h-272v44q28 4 41.5 7.5t24 15.5t10.5 34v602l-71 33v26l160 48h36z" />
    <glyph glyph-name="m" unicode="m" horiz-adv-x="1039" 
d="M585 444q31 41 82 70.5t108 29.5q73 0 116.5 -40.5t43.5 -113.5v-289q0 -31 16.5 -41.5t57.5 -15.5v-44h-269v44q28 4 41 7.5t23.5 15.5t10.5 34v263q0 91 -93 91q-72 0 -131 -52v-302q0 -31 16.5 -41.5t57.5 -15.5v-44h-268v44q28 4 41 7.5t23 15.5t10 34v263
q0 91 -92 91q-33 0 -69.5 -14.5t-62.5 -37.5v-302q0 -31 17 -41.5t58 -15.5v-44h-271v44q28 4 41.5 7.5t24 15.5t10.5 34v327l-71 39v27l160 51h36l-5 -97q32 40 80.5 68t103.5 28q58 0 98.5 -25.5t55.5 -74.5z" />
    <glyph glyph-name="n" unicode="n" horiz-adv-x="722" 
d="M496 101v263q0 49 -24 70t-73 21q-37 0 -79 -15.5t-73 -38.5v-300q0 -31 17.5 -41.5t58.5 -15.5v-44h-272v44q28 4 41.5 7.5t24 15.5t10.5 34v327l-71 39v27l160 51h36l-5 -99q37 40 91 69t110 29q78 0 123 -40t45 -124v-279q0 -31 17.5 -41.5t58.5 -15.5v-44h-272v44
q28 4 41.5 7.5t24 15.5t10.5 34z" />
    <glyph glyph-name="o" unicode="o" horiz-adv-x="636" 
d="M336 54q67 0 101 51t34 137q0 104 -45.5 171t-125.5 67q-67 0 -101 -51t-34 -137q0 -104 45.5 -171t125.5 -67zM308 -10q-120 0 -195 75t-75 192q0 129 83.5 208t206.5 79q120 0 195.5 -75t75.5 -192q0 -129 -84 -208t-207 -79z" />
    <glyph glyph-name="p" unicode="p" horiz-adv-x="683" 
d="M357 -10q-82 0 -131 38v-167q0 -31 17.5 -41.5t58.5 -15.5v-44h-272v44q28 4 41.5 7.5t24 15.5t10.5 34v567l-71 39v27l160 51h36l-5 -95q32 43 80.5 68.5t105.5 25.5q110 0 172 -70.5t62 -181.5q0 -137 -82 -219.5t-207 -82.5zM359 50q76 0 119.5 52.5t43.5 145.5
q0 90 -39.5 150t-120.5 60q-80 0 -136 -56v-231q0 -62 37.5 -91.5t95.5 -29.5z" />
    <glyph glyph-name="q" unicode="q" horiz-adv-x="653" 
d="M324 484q-75 0 -119 -54t-44 -151q0 -86 41 -143.5t123 -57.5q81 0 132 53v218q0 63 -37.5 99t-95.5 36zM321 544q107 0 170 -58l55 64h36l-5 -114v-575q0 -31 17.5 -41.5t58.5 -15.5v-44h-272v44q28 4 41.5 7.5t24 15.5t10.5 34v223q-69 -94 -183 -94q-110 0 -173 70.5
t-63 181.5q0 136 82 219t201 83z" />
    <glyph glyph-name="r" unicode="r" horiz-adv-x="485" 
d="M252 545l-5 -158q41 80 79 118.5t91 38.5q31 0 49 -14v-107h-38q-53 0 -95 -17t-86 -65v-237q0 -18 4 -28.5t18.5 -17t28 -8.5t45.5 -6v-44h-292v44q28 4 41.5 7.5t24 15.5t10.5 34v327l-71 39v27l160 51h36z" />
    <glyph glyph-name="s" unicode="s" horiz-adv-x="511" 
d="M251 -10q-119 0 -192 52l-6 133h52q29 -129 147 -129q51 0 79.5 21.5t28.5 61.5q0 32 -21 49t-67 29l-72 21q-70 20 -105.5 55.5t-35.5 102.5q0 74 52 116t141 42q102 0 175 -43v-122h-50q-23 109 -130 109q-39 0 -62.5 -18.5t-23.5 -53.5q0 -29 16.5 -44.5t54.5 -26.5
l78 -22q77 -21 114 -58.5t37 -108.5q0 -78 -57.5 -122t-152.5 -44z" />
    <glyph glyph-name="t" unicode="t" horiz-adv-x="420" 
d="M220 650v-116h154v-59h-154v-306q0 -97 85 -97q41 0 82 19l15 -33q-62 -68 -153 -68q-65 0 -106.5 35.5t-41.5 110.5v339h-77v39q84 45 159 136h37z" />
    <glyph glyph-name="u" unicode="u" horiz-adv-x="685" 
d="M446 -10l5 98q-79 -98 -187 -98q-76 0 -120 40.5t-44 124.5v264q0 25 -13 36.5t-48 16.5l-18 3v44l174 25h30l-5 -103v-269q0 -96 92 -96q64 0 139 57v286q0 25 -13 36.5t-48 16.5l-17 3v44l174 25h29l-5 -103v-321q0 -26 11 -35.5t43 -12.5l26 -2v-45l-184 -35h-21z" />
    <glyph glyph-name="v" unicode="v" horiz-adv-x="607" 
d="M599 534v-44q-35 -13 -44.5 -18.5t-16.5 -21.5l-210 -459h-31l-228 459q-8 16 -17 22t-43 18v44h268v-44q-43 -6 -58 -12.5t-15 -23.5q0 -12 7 -27l128 -276l119 276q7 18 7 27q0 17 -15 23.5t-58 12.5v44h207z" />
    <glyph glyph-name="w" unicode="w" horiz-adv-x="902" 
d="M650 158l103 264q8 19 8 32q0 17 -14.5 23.5t-57.5 12.5v44h204v-44q-35 -13 -44.5 -18.5t-15.5 -21.5l-192 -459h-31l-153 343l-148 -343h-31l-209 459q-7 16 -16 21.5t-44 18.5v44h263v-44q-41 -6 -55.5 -12.5t-14.5 -23.5q0 -12 9 -32l110 -264l103 245l-19 47
q-7 16 -16 22t-43 18v44h256v-44q-42 -6 -56.5 -12.5t-14.5 -23.5q0 -12 9 -32z" />
    <glyph glyph-name="x" unicode="x" horiz-adv-x="611" 
d="M82 84l161 183l-150 183q-21 26 -66 40v44h269v-44q-37 -7 -48 -12t-11 -18t15 -30l82 -104l85 104q15 16 15 30q0 13 -10 17.5t-47 12.5v44h207v-44q-48 -16 -71 -41l-145 -166l163 -199q23 -28 72 -40v-44h-272v44q37 5 47.5 10.5t10.5 19.5q0 12 -16 34l-95 115
l-100 -115q-16 -21 -16 -34q0 -14 10.5 -19.5t47.5 -10.5v-44h-211v44q48 12 73 40z" />
    <glyph glyph-name="y" unicode="y" horiz-adv-x="607" 
d="M283 -1l-214 451q-7 16 -16 21.5t-44 18.5v44h270v-44q-43 -6 -58 -12.5t-15 -23.5q0 -12 7 -27l128 -299l117 299q7 17 7 27q0 17 -15 23.5t-58 12.5v44h207v-44q-34 -13 -44 -19t-17 -21l-234 -557q-34 -81 -71.5 -111.5t-87.5 -30.5q-28 0 -50.5 10.5t-30.5 24.5v67
h64q53 0 81 16.5t49 68.5z" />
    <glyph glyph-name="z" unicode="z" horiz-adv-x="563" 
d="M42 0v27l310 452h-142q-40 0 -63.5 -23.5t-46.5 -91.5h-47l14 198h45l12 -28h379v-31l-304 -448h147q45 0 73 25.5t51 97.5h49l-17 -178h-460z" />
    <glyph glyph-name="braceleft" unicode="{" horiz-adv-x="426" 
d="M140 350q54 -16 81.5 -54.5t27.5 -88.5q0 -25 -12.5 -83t-12.5 -93q0 -55 30 -80t102 -25v-56q-202 0 -202 161q0 35 11.5 93t11.5 83q0 53 -32 83t-113 30v60q81 0 113 30t32 83q0 25 -11.5 83t-11.5 93q0 161 202 161v-56q-72 0 -102 -25t-30 -80q0 -35 12.5 -93
t12.5 -83q0 -50 -27.5 -88.5t-81.5 -54.5z" />
    <glyph glyph-name="bar" unicode="|" horiz-adv-x="269" 
d="M169 830v-951h-69v951h69z" />
    <glyph glyph-name="braceright" unicode="}" horiz-adv-x="426" 
d="M287 350q-54 16 -81.5 54.5t-27.5 88.5q0 25 12.5 83t12.5 93q0 55 -30.5 80t-102.5 25v56q202 0 202 -161q0 -35 -11.5 -93t-11.5 -83q0 -53 32 -83t113 -30v-60q-81 0 -113 -30t-32 -83q0 -25 11.5 -83t11.5 -93q0 -161 -202 -161v56q72 0 102.5 25t30.5 80
q0 35 -12.5 93t-12.5 83q0 50 27.5 88.5t81.5 54.5z" />
    <glyph glyph-name="asciitilde" unicode="~" horiz-adv-x="553" 
d="M92 280l-47 4q45 139 142 139q43 0 110 -30t93 -30q24 0 38.5 11.5t32.5 43.5l48 -5q-45 -138 -143 -138q-42 0 -109.5 29.5t-93.5 29.5q-24 0 -38.5 -11.5t-32.5 -42.5z" />
    <glyph glyph-name="nbspace" unicode="&#xa0;" horiz-adv-x="240" 
 />
    <glyph glyph-name="exclamdown" unicode="&#xa1;" horiz-adv-x="331" 
d="M81 460q0 35 24.5 59.5t59.5 24.5t60 -24.5t25 -59.5t-25 -60t-60 -25t-59.5 25t-24.5 60zM247 -200v-46h-163v46l24 238q3 31 11 96.5t12 106t4 68.5h60q1 -22 27 -271z" />
    <glyph glyph-name="cent" unicode="&#xa2;" horiz-adv-x="607" 
d="M208 -2l23 112q-88 25 -135.5 97.5t-47.5 165.5q0 139 85 224.5t218 87.5l20 97h52l-21 -100q73 -11 118 -48.5t45 -90.5q0 -51 -43 -70h-77v48q0 73 -57 95l-87 -416q27 -6 59 -6q111 0 178 86l31 -13q-22 -73 -84.5 -121t-165.5 -48q-26 0 -39 2l-21 -102h-51zM160 418
q0 -146 94 -199l84 406h-6q-73 0 -122.5 -55t-49.5 -152z" />
    <glyph glyph-name="sterling" unicode="&#xa3;" horiz-adv-x="785" 
d="M121 379v52h128l10 72q35 287 278 287q86 0 135.5 -30.5t49.5 -87.5q0 -26 -12.5 -45.5t-31.5 -28.5h-83v44q0 46 -15.5 69.5t-56.5 23.5q-38 0 -62.5 -24.5t-36.5 -64t-24 -110.5l-17 -105h198v-52h-206l-19 -120q-6 -45 -20 -89q145 -66 235 -66q60 0 90.5 26t30.5 91
l32 2q23 -31 23 -81q0 -152 -177 -152q-70 0 -142.5 32.5t-124.5 76.5q-62 -109 -166 -109q-59 0 -90 31t-31 79q0 53 36 85t95 32q35 0 73 -11l22 173h-121zM132 45q63 0 79 101q-34 16 -66 16q-31 0 -48.5 -17.5t-17.5 -44.5q0 -25 14.5 -40t38.5 -15z" />
    <glyph glyph-name="currency" unicode="&#xa4;" horiz-adv-x="653" 
d="M199 309q0 -84 32.5 -135t95.5 -51t95.5 51t32.5 135t-32.5 135t-95.5 51t-95.5 -51t-32.5 -135zM85 309q0 89 48 151l-63 64l40 40l63 -64q65 49 154 49q88 0 153 -49l64 64l39 -40l-63 -63q49 -65 49 -152q0 -86 -49 -151l63 -62l-40 -41l-63 63q-62 -48 -153 -48
q-92 0 -154 48l-63 -63l-40 41l63 63q-48 62 -48 150z" />
    <glyph glyph-name="yen" unicode="&#xa5;" horiz-adv-x="755" 
d="M107 341v52h153l-174 297q-11 20 -26.5 28.5t-41.5 12.5v49h326v-49q-55 -1 -74.5 -10.5t-19.5 -33.5q0 -19 18 -52l143 -253l143 253q19 35 19 53q0 23 -20.5 32.5t-74.5 10.5v49h260v-49q-26 -4 -41.5 -12.5t-27.5 -28.5l-177 -297h158v-52h-189l-20 -34v-33h209v-51
h-209v-95q0 -46 25 -61.5t86 -17.5v-49h-352v49q61 2 86 17.5t25 61.5v95h-204v51h204v32l-21 35h-183z" />
    <glyph glyph-name="brokenbar" unicode="&#xa6;" horiz-adv-x="269" 
d="M169 830v-406h-69v406h69zM169 285v-406h-69v406h69z" />
    <glyph glyph-name="section" unicode="&#xa7;" horiz-adv-x="521" 
d="M135 693q-29 -53 -29 -154q0 -150 119 -334l35 -52.5t39 -60t32 -54t30.5 -59.5t17 -51t8.5 -53q28 51 28 154q0 150 -119 334q-7 11 -30 45.5t-33 50t-29 47t-28 51t-20.5 45.5t-16 48.5t-4.5 42.5zM224 -250q-68 0 -109.5 28t-41.5 75q0 44 40 62h65v-23
q0 -39 20.5 -64t60.5 -25q38 0 58.5 21t20.5 56q0 29 -17 67.5t-37 69.5t-55 82t-53 80q-59 94 -90 179.5t-31 180.5q0 127 68 203t175 76q68 0 109 -28t41 -75q0 -44 -39 -62h-65v23q0 39 -21 64t-61 25q-37 0 -57.5 -21t-20.5 -56q0 -29 17 -67.5t37 -69.5t55 -82t53 -80
q120 -191 120 -360q0 -127 -67.5 -203t-174.5 -76z" />
    <glyph glyph-name="dieresis" unicode="&#xa8;" horiz-adv-x="600" 
d="M121 697q0 32 22 54t53 22q32 0 54 -22t22 -54q0 -31 -22 -53t-54 -22q-31 0 -53 22t-22 53zM328 697q0 32 21.5 54t53.5 22t54 -22t22 -54q0 -31 -22.5 -53t-53.5 -22t-53 22t-22 53z" />
    <glyph glyph-name="copyright" unicode="&#xa9;" horiz-adv-x="890" 
d="M45 390q0 166 117 283t283 117t283 -117t117 -283t-117 -283t-283 -117t-283 117t-117 283zM75 390q0 -153 108.5 -261.5t261.5 -108.5t261.5 108.5t108.5 261.5t-108.5 261.5t-261.5 108.5t-261.5 -108.5t-108.5 -261.5zM463 189q63 0 95 27t54 90h41l-14 -125
q-84 -41 -190 -41q-121 0 -190.5 70.5t-69.5 172.5q0 118 75.5 190t188.5 72q105 0 174 -44l4 -114h-41q-20 59 -53 84.5t-88 25.5q-78 0 -116 -53.5t-38 -136.5q0 -93 42.5 -155.5t125.5 -62.5z" />
    <glyph glyph-name="ordfeminine" unicode="&#xaa;" horiz-adv-x="432" 
d="M189 411q35 0 70 27v104l-85 -29q-35 -13 -35 -48q0 -25 14 -39.5t36 -14.5zM363 591v-137q0 -47 27 -47q10 0 30 4l7 -28q-38 -38 -91 -38q-55 0 -75 62q-57 -61 -124 -61q-48 0 -76 27t-28 70t24 62t73 34l129 39v28q0 42 -17 64.5t-49 22.5q-48 0 -48 -47q0 -7 6 -41
l-74 -9q-25 12 -25 42q0 46 43 71t111 25q78 0 117.5 -32t39.5 -111z" />
    <glyph glyph-name="guillemotleft" unicode="&#xab;" horiz-adv-x="493" 
d="M39 269v10l173 190h55l-122 -195l122 -195h-55zM218 269v10l173 190h55l-122 -195l122 -195h-55z" />
    <glyph glyph-name="logicalnot" unicode="&#xac;" 
d="M552 208v296h-472v68h540v-364h-68z" />
    <glyph glyph-name="uni00AD" unicode="&#xad;" horiz-adv-x="370" 
d="M320 291h-270v85h270v-85z" />
    <glyph glyph-name="registered" unicode="&#xae;" horiz-adv-x="471" 
d="M225 692h-22v-79h22q26 0 36 10t10 32q0 37 -46 37zM135 714h98q44 0 64 -17t20 -42t-19.5 -41t-50.5 -18q20 -2 38 -21l33 -37q16 -17 30 -18v-18h-48q-18 11 -30 28l-38 48q-14 16 -29 16v-52q0 -13 6 -17.5t20 -4.5v-18h-94v18q16 0 21 4.5t5 17.5v132q0 13 -5 16.5
t-21 5.5v18zM50 603q0 78 54 132.5t130 54.5q78 0 132.5 -54.5t54.5 -132.5q0 -76 -54.5 -130t-132.5 -54q-76 0 -130 54t-54 130zM76 603q0 -66 46.5 -113.5t111.5 -47.5q66 0 113 47.5t47 113.5q0 67 -47 115t-113 48q-65 0 -111.5 -48t-46.5 -115z" />
    <glyph glyph-name="macron" unicode="&#xaf;" horiz-adv-x="600" 
d="M160 640v70h280v-70h-280z" />
    <glyph glyph-name="degree" unicode="&#xb0;" horiz-adv-x="491" 
d="M60 601q0 80 50.5 134.5t134.5 54.5t135 -54.5t51 -134.5q0 -81 -51 -135.5t-135 -54.5t-134.5 54.5t-50.5 135.5zM360 601q0 56 -31 92.5t-83 36.5t-83 -36.5t-31 -92.5t31 -93t83 -37t83 37t31 93z" />
    <glyph glyph-name="plusminus" unicode="&#xb1;" 
d="M314 180v155h-234v72h234v155h72v-155h234v-72h-234v-155h-72zM620 53h-540v70h540v-70z" />
    <glyph glyph-name="twosuperior" unicode="&#xb2;" horiz-adv-x="428" 
d="M137 383h115q41 0 59.5 12t43.5 59h29l-16 -158h-352v30q13 9 68.5 65t62.5 61q60 56 81 92t21 76t-23.5 62t-65.5 22q-24 0 -45.5 -8.5t-33.5 -17.5t-30 -26l-21 24q62 110 178 110q71 0 111 -36t40 -99q0 -24 -9 -47.5t-20.5 -41.5t-37 -43.5t-43.5 -40.5t-55 -46
t-57 -49z" />
    <glyph glyph-name="threesuperior" unicode="&#xb3;" horiz-adv-x="431" 
d="M244 565q65 -6 102.5 -41.5t37.5 -90.5q0 -70 -53 -106.5t-132 -36.5q-78 0 -122 30t-44 74q0 34 31 50h62v-24q0 -43 20 -67t59 -24q78 0 78 87q0 51 -31.5 77.5t-86.5 26.5h-22l-5 26q63 24 92.5 47.5t29.5 56.5q0 28 -19 44t-54 16q-57 0 -108 -55l-24 21
q52 110 170 110q63 0 99 -29t36 -77q0 -43 -34 -72.5t-82 -42.5z" />
    <glyph glyph-name="acute" unicode="&#xb4;" horiz-adv-x="600" 
d="M337 800h140l-171 -208h-55z" />
    <glyph glyph-name="paragraph" unicode="&#xb6;" horiz-adv-x="723" 
d="M329 -240v584q-134 0 -208.5 57t-74.5 161t74.5 161t208.5 57h328v-49q-62 -2 -88.5 -18t-26.5 -63v-890h-59v969h-96v-969h-58z" />
    <glyph glyph-name="periodcentered" unicode="&#xb7;" horiz-adv-x="331" 
d="M81 338q0 35 24.5 59.5t59.5 24.5q36 0 60.5 -24.5t24.5 -59.5t-24.5 -59.5t-60.5 -24.5q-35 0 -59.5 24.5t-24.5 59.5z" />
    <glyph glyph-name="cedilla" unicode="&#xb8;" horiz-adv-x="600" 
d="M267 9h37l-11 -52q120 -22 120 -106q0 -46 -35.5 -73.5t-87.5 -27.5q-53 0 -88 25l11 33q37 -15 69 -15q28 0 45 11t17 30q0 43 -101 57z" />
    <glyph glyph-name="onesuperior" unicode="&#xb9;" horiz-adv-x="407" 
d="M232 786h29v-403q0 -15 6.5 -24.5t24 -14.5t33.5 -6.5t50 -3.5v-38h-331v38q66 3 90 11.5t24 37.5v276h-114v34l34 5q51 9 86.5 29.5t67.5 58.5z" />
    <glyph glyph-name="ordmasculine" unicode="&#xba;" horiz-adv-x="454" 
d="M238 391q77 0 77 129q0 74 -25 120.5t-73 46.5q-78 0 -78 -129q0 -74 25 -120.5t74 -46.5zM220 345q-87 0 -140 54t-53 134q0 91 58.5 146t148.5 55q87 0 140 -53.5t53 -134.5q0 -90 -59 -145.5t-148 -55.5z" />
    <glyph glyph-name="guillemotright" unicode="&#xbb;" horiz-adv-x="493" 
d="M275 279v-10l-173 -190h-56l123 195l-123 195h56zM454 279v-10l-173 -190h-56l123 195l-123 195h56z" />
    <glyph glyph-name="onequarter" unicode="&#xbc;" horiz-adv-x="1025" 
d="M232 786h29v-403q0 -15 6.5 -24.5t24 -14.5t33.5 -6.5t50 -3.5v-38h-331v38q66 3 90 11.5t24 37.5v276h-114v34l34 5q51 9 86.5 29.5t67.5 58.5zM255 0l517 780h70l-517 -780h-70zM643 169h178v212zM922 0h-101v121h-244v38l269 325h76v-315h83v-48h-83v-121z" />
    <glyph glyph-name="onehalf" unicode="&#xbd;" horiz-adv-x="1081" 
d="M232 786h29v-403q0 -15 6.5 -24.5t24 -14.5t33.5 -6.5t50 -3.5v-38h-331v38q66 3 90 11.5t24 37.5v276h-114v34l34 5q51 9 86.5 29.5t67.5 58.5zM255 0l517 780h70l-517 -780h-70zM789 87h116q41 0 59.5 12t43.5 59h29l-16 -158h-352v30q13 9 68.5 65.5t61.5 60.5
q60 56 81.5 92t21.5 76t-24 62t-65 22q-24 0 -45.5 -8.5t-33.5 -17.5t-30 -26l-22 24q63 110 179 110q71 0 111 -36t40 -99q0 -24 -9 -47.5t-20.5 -41.5t-37 -43.5t-43.5 -40.5t-55.5 -46.5t-57.5 -48.5z" />
    <glyph glyph-name="threequarters" unicode="&#xbe;" horiz-adv-x="1001" 
d="M244 565q65 -6 102.5 -41.5t37.5 -90.5q0 -70 -53 -106.5t-132 -36.5q-78 0 -122 30t-44 74q0 34 31 50h62v-24q0 -43 20 -67t59 -24q78 0 78 87q0 51 -31.5 77.5t-86.5 26.5h-22l-5 26q63 24 92.5 47.5t29.5 56.5q0 28 -19 44t-54 16q-57 0 -108 -55l-24 21
q52 110 170 110q63 0 99 -29t36 -77q0 -43 -34 -72.5t-82 -42.5zM231 0l517 780h70l-517 -780h-70zM619 169h178v212zM898 0h-101v121h-244v38l269 325h76v-315h84v-48h-84v-121z" />
    <glyph glyph-name="questiondown" unicode="&#xbf;" horiz-adv-x="497" 
d="M147 -92q0 -47 28 -73.5t80 -26.5q89 0 89 103v45h97q26 -21 26 -58q0 -62 -62.5 -104.5t-150.5 -42.5q-105 0 -165.5 47t-60.5 138q0 63 32.5 107.5t101.5 94.5q49 36 67.5 64t18.5 75v32h39q38 -46 38 -103q0 -45 -19 -79.5t-63 -73.5q-5 -5 -27 -23.5t-28.5 -25.5
t-19.5 -23.5t-17 -33.5t-4 -39zM351 460q0 -35 -24.5 -60t-59.5 -25t-59.5 25t-24.5 60t24.5 59.5t59.5 24.5t59.5 -24.5t24.5 -59.5z" />
    <glyph glyph-name="Agrave" unicode="&#xc0;" horiz-adv-x="843" 
d="M598 142l-46 107h-332l-43 -107q-12 -29 -12 -45q0 -25 21.5 -35.5t79.5 -12.5v-49h-256v49q28 4 44 12t24 29l263 620l-35 78h149l310 -698q9 -21 24 -29t44 -12v-49h-323v49q57 2 78.5 12.5t21.5 35.5q0 18 -12 45zM381 640l-137 -332h281zM193 1030h142l84 -208h-55z
" />
    <glyph glyph-name="Aacute" unicode="&#xc1;" horiz-adv-x="843" 
d="M598 142l-46 107h-332l-43 -107q-12 -29 -12 -45q0 -25 21.5 -35.5t79.5 -12.5v-49h-256v49q28 4 44 12t24 29l263 620l-35 78h149l310 -698q9 -21 24 -29t44 -12v-49h-323v49q57 2 78.5 12.5t21.5 35.5q0 18 -12 45zM381 640l-137 -332h281zM444 1030h140l-171 -208h-55
z" />
    <glyph glyph-name="Acircumflex" unicode="&#xc2;" horiz-adv-x="843" 
d="M598 142l-46 107h-332l-43 -107q-12 -29 -12 -45q0 -25 21.5 -35.5t79.5 -12.5v-49h-256v49q28 4 44 12t24 29l263 620l-35 78h149l310 -698q9 -21 24 -29t44 -12v-49h-323v49q57 2 78.5 12.5t21.5 35.5q0 18 -12 45zM381 640l-137 -332h281zM428 1030l152 -208h-56
l-135 119l-135 -119h-56l152 208h78z" />
    <glyph glyph-name="Atilde" unicode="&#xc3;" horiz-adv-x="843" 
d="M598 142l-46 107h-332l-43 -107q-12 -29 -12 -45q0 -25 21.5 -35.5t79.5 -12.5v-49h-256v49q28 4 44 12t24 29l263 620l-35 78h149l310 -698q9 -21 24 -29t44 -12v-49h-323v49q57 2 78.5 12.5t21.5 35.5q0 18 -12 45zM381 640l-137 -332h281zM466 846q-33 0 -83 29
t-69 29q-23 0 -37 -11t-31 -42l-44 7q24 68 56 100t79 32q33 0 83 -29t69 -29q24 0 37.5 11t30.5 42l44 -7q-23 -69 -55 -100.5t-80 -31.5z" />
    <glyph glyph-name="Adieresis" unicode="&#xc4;" horiz-adv-x="843" 
d="M598 142l-46 107h-332l-43 -107q-12 -29 -12 -45q0 -25 21.5 -35.5t79.5 -12.5v-49h-256v49q28 4 44 12t24 29l263 620l-35 78h149l310 -698q9 -21 24 -29t44 -12v-49h-323v49q57 2 78.5 12.5t21.5 35.5q0 18 -12 45zM381 640l-137 -332h281zM210 919q0 31 22 53.5
t53 22.5q32 0 54 -22t22 -54q0 -31 -22 -53t-54 -22q-31 0 -53 22t-22 53zM417 919q0 32 22 54t53 22q32 0 54 -22.5t22 -53.5t-22.5 -53t-53.5 -22t-53 22t-22 53z" />
    <glyph glyph-name="Aring" unicode="&#xc5;" horiz-adv-x="843" 
d="M598 142l-46 107h-332l-43 -107q-12 -29 -12 -45q0 -25 21.5 -35.5t79.5 -12.5v-49h-256v49q28 4 44 12t24 29l263 620l-35 78h149l310 -698q9 -21 24 -29t44 -12v-49h-323v49q57 2 78.5 12.5t21.5 35.5q0 18 -12 45zM381 640l-137 -332h281zM273 932q0 48 32.5 81
t83.5 33t83.5 -33t32.5 -81t-32.5 -81t-83.5 -33t-83.5 33t-32.5 81zM448 932q0 29 -15 47t-44 18t-44 -18t-15 -47t15 -47t44 -18t44 18t15 47z" />
    <glyph glyph-name="AE" unicode="&#xc6;" horiz-adv-x="1183" 
d="M581 136l-23 115h-316l-57 -109q-13 -22 -13 -45q0 -25 22 -35.5t80 -12.5v-49h-264v49q50 6 71 43l326 614q-30 25 -98 25v49h779l3 -191h-45q-31 74 -64.5 102.5t-99.5 28.5h-284l60 -292h200q36 0 54.5 23t27.5 75h46v-255h-46q-9 52 -27.5 74.5t-54.5 22.5h-188
l48 -233q9 -44 35.5 -59.5t86.5 -15.5h50q47 0 77 14.5t50.5 40t62.5 91.5h48l-35 -206h-616v49q56 3 82 14.5t26 43.5q0 9 -4 29zM468 681l-195 -370h272l-75 370h-2z" />
    <glyph glyph-name="Ccedilla" unicode="&#xc7;" horiz-adv-x="817" 
d="M481 56q103 0 158.5 45t91.5 145h53l-22 -193q-126 -60 -286 -63l-7 -33q120 -22 120 -106q0 -46 -35.5 -73.5t-87.5 -27.5q-53 0 -88 25l11 33q37 -15 69 -15q28 0 45 11t17 30q0 43 -101 57l20 100q-182 7 -286 116.5t-104 267.5q0 187 119.5 301t299.5 114
q166 0 275 -71l6 -172h-52q-32 94 -90 135.5t-149 41.5q-70 0 -122 -24.5t-82 -68.5t-44.5 -98t-14.5 -119q0 -72 17 -135t51 -113.5t90 -80t128 -29.5z" />
    <glyph glyph-name="Egrave" unicode="&#xc8;" horiz-adv-x="802" 
d="M216 1030h142l84 -208h-55zM605 271h-46q-9 52 -27.5 74.5t-54.5 22.5h-193v-233q0 -44 25 -59.5t85 -15.5h115q47 0 77 14.5t50.5 40t62.5 91.5h47l-35 -206h-667v49q61 2 85 17.5t24 61.5v524q0 46 -24 61.5t-85 17.5v49h662l3 -191h-44q-31 74 -64.5 102.5t-99.5 28.5
h-217v-292h193q36 0 54.5 23t27.5 75h46v-255z" />
    <glyph glyph-name="Eacute" unicode="&#xc9;" horiz-adv-x="802" 
d="M454 1030h140l-171 -208h-55zM605 271h-46q-9 52 -27.5 74.5t-54.5 22.5h-193v-233q0 -44 25 -59.5t85 -15.5h115q47 0 77 14.5t50.5 40t62.5 91.5h47l-35 -206h-667v49q61 2 85 17.5t24 61.5v524q0 46 -24 61.5t-85 17.5v49h662l3 -191h-44q-31 74 -64.5 102.5
t-99.5 28.5h-217v-292h193q36 0 54.5 23t27.5 75h46v-255z" />
    <glyph glyph-name="Ecircumflex" unicode="&#xca;" horiz-adv-x="802" 
d="M605 271h-46q-9 52 -27.5 74.5t-54.5 22.5h-193v-233q0 -44 25 -59.5t85 -15.5h115q47 0 77 14.5t50.5 40t62.5 91.5h47l-35 -206h-667v49q61 2 85 17.5t24 61.5v524q0 46 -24 61.5t-85 17.5v49h662l3 -191h-44q-31 74 -64.5 102.5t-99.5 28.5h-217v-292h193
q36 0 54.5 23t27.5 75h46v-255zM438 1030l152 -208h-56l-135 119l-135 -119h-56l152 208h78z" />
    <glyph glyph-name="Edieresis" unicode="&#xcb;" horiz-adv-x="802" 
d="M223 919q0 31 22 53.5t53 22.5q32 0 54 -22t22 -54q0 -31 -22 -53t-54 -22q-31 0 -53 22t-22 53zM430 919q0 32 22 54t53 22t53.5 -22.5t22.5 -53.5t-22.5 -53t-53.5 -22t-53 22t-22 53zM605 271h-46q-9 52 -27.5 74.5t-54.5 22.5h-193v-233q0 -44 25 -59.5t85 -15.5h115
q47 0 77 14.5t50.5 40t62.5 91.5h47l-35 -206h-667v49q61 2 85 17.5t24 61.5v524q0 46 -24 61.5t-85 17.5v49h662l3 -191h-44q-31 74 -64.5 102.5t-99.5 28.5h-217v-292h193q36 0 54.5 23t27.5 75h46v-255z" />
    <glyph glyph-name="Igrave" unicode="&#xcc;" horiz-adv-x="437" 
d="M153 128v524q0 46 -24 61.5t-85 17.5v49h349v-49q-61 -2 -85 -17.5t-24 -61.5v-524q0 -46 24 -61.5t85 -17.5v-49h-349v49q61 2 85 17.5t24 61.5zM23 1030h142l84 -208h-55z" />
    <glyph glyph-name="Iacute" unicode="&#xcd;" horiz-adv-x="437" 
d="M153 128v524q0 46 -24 61.5t-85 17.5v49h349v-49q-61 -2 -85 -17.5t-24 -61.5v-524q0 -46 24 -61.5t85 -17.5v-49h-349v49q61 2 85 17.5t24 61.5zM273 1030h140l-171 -208h-55z" />
    <glyph glyph-name="Icircumflex" unicode="&#xce;" horiz-adv-x="437" 
d="M153 128v524q0 46 -24 61.5t-85 17.5v49h349v-49q-61 -2 -85 -17.5t-24 -61.5v-524q0 -46 24 -61.5t85 -17.5v-49h-349v49q61 2 85 17.5t24 61.5zM257 1030l152 -208h-56l-135 119l-135 -119h-56l152 208h78z" />
    <glyph glyph-name="Idieresis" unicode="&#xcf;" horiz-adv-x="437" 
d="M153 128v524q0 46 -24 61.5t-85 17.5v49h349v-49q-61 -2 -85 -17.5t-24 -61.5v-524q0 -46 24 -61.5t85 -17.5v-49h-349v49q61 2 85 17.5t24 61.5zM39 919q0 31 22 53.5t53 22.5q32 0 54 -22t22 -54q0 -31 -22 -53t-54 -22q-31 0 -53 22t-22 53zM246 919q0 32 22 54t53 22
t53.5 -22.5t22.5 -53.5t-22.5 -53t-53.5 -22t-53 22t-22 53z" />
    <glyph glyph-name="Eth" unicode="&#xd0;" horiz-adv-x="928" 
d="M48 369v58h109v225q0 46 -24 61.5t-85 17.5v49h424q101 0 180.5 -29.5t128 -81t73.5 -117t25 -140.5q0 -194 -115 -303t-291 -109h-425v49q61 2 85 17.5t24 61.5v241h-109zM435 720h-148v-293h197v-58h-197v-231q0 -47 24.5 -62.5t86.5 -15.5h69q118 0 192.5 78t74.5 230
q0 156 -73.5 254t-225.5 98z" />
    <glyph glyph-name="Ntilde" unicode="&#xd1;" horiz-adv-x="958" 
d="M553 846q-33 0 -83 29t-69 29q-23 0 -37 -11t-31 -42l-44 7q24 68 56 100t79 32q33 0 83 -29t69 -29q24 0 37.5 11t30.5 42l44 -7q-23 -69 -55 -100.5t-80 -31.5zM153 128v538q-34 40 -53 52t-56 13v49h211l486 -560v432q0 46 -25.5 61.5t-86.5 17.5v49h295v-49
q-61 -2 -85 -17.5t-24 -61.5v-652h-53l-535 610v-482q0 -46 25.5 -61.5t86.5 -17.5v-49h-295v49q61 2 85 17.5t24 61.5z" />
    <glyph glyph-name="Ograve" unicode="&#xd2;" horiz-adv-x="894" 
d="M251 1030h142l84 -208h-55zM467 60q115 0 174 85.5t59 221.5q0 96 -29 174t-92.5 128.5t-151.5 50.5q-116 0 -175 -85.5t-59 -221.5q0 -96 29 -174t92.5 -128.5t152.5 -50.5zM436 -10q-117 0 -206.5 54.5t-135 141.5t-45.5 189q0 187 117.5 301t291.5 114t280.5 -113.5
t106.5 -271.5q0 -187 -118 -301t-291 -114z" />
    <glyph glyph-name="Oacute" unicode="&#xd3;" horiz-adv-x="894" 
d="M502 1030h140l-171 -208h-55zM467 60q115 0 174 85.5t59 221.5q0 96 -29 174t-92.5 128.5t-151.5 50.5q-116 0 -175 -85.5t-59 -221.5q0 -96 29 -174t92.5 -128.5t152.5 -50.5zM436 -10q-117 0 -206.5 54.5t-135 141.5t-45.5 189q0 187 117.5 301t291.5 114t280.5 -113.5
t106.5 -271.5q0 -187 -118 -301t-291 -114z" />
    <glyph glyph-name="Ocircumflex" unicode="&#xd4;" horiz-adv-x="894" 
d="M467 60q115 0 174 85.5t59 221.5q0 96 -29 174t-92.5 128.5t-151.5 50.5q-116 0 -175 -85.5t-59 -221.5q0 -96 29 -174t92.5 -128.5t152.5 -50.5zM436 -10q-117 0 -206.5 54.5t-135 141.5t-45.5 189q0 187 117.5 301t291.5 114t280.5 -113.5t106.5 -271.5
q0 -187 -118 -301t-291 -114zM486 1030l152 -208h-56l-135 119l-135 -119h-56l152 208h78z" />
    <glyph glyph-name="Otilde" unicode="&#xd5;" horiz-adv-x="894" 
d="M514 846q-33 0 -83 29t-69 29q-23 0 -37 -11t-31 -42l-44 7q24 68 56 100t79 32q33 0 83 -29t69 -29q24 0 37.5 11t30.5 42l44 -7q-23 -69 -55 -100.5t-80 -31.5zM467 60q115 0 174 85.5t59 221.5q0 96 -29 174t-92.5 128.5t-151.5 50.5q-116 0 -175 -85.5t-59 -221.5
q0 -96 29 -174t92.5 -128.5t152.5 -50.5zM436 -10q-117 0 -206.5 54.5t-135 141.5t-45.5 189q0 187 117.5 301t291.5 114t280.5 -113.5t106.5 -271.5q0 -187 -118 -301t-291 -114z" />
    <glyph glyph-name="Odieresis" unicode="&#xd6;" horiz-adv-x="894" 
d="M268 919q0 31 22 53.5t53 22.5q32 0 54 -22t22 -54q0 -31 -22 -53t-54 -22q-31 0 -53 22t-22 53zM475 919q0 32 22 54t53 22q32 0 54 -22.5t22 -53.5t-22.5 -53t-53.5 -22t-53 22t-22 53zM467 60q115 0 174 85.5t59 221.5q0 96 -29 174t-92.5 128.5t-151.5 50.5
q-116 0 -175 -85.5t-59 -221.5q0 -96 29 -174t92.5 -128.5t152.5 -50.5zM436 -10q-117 0 -206.5 54.5t-135 141.5t-45.5 189q0 187 117.5 301t291.5 114t280.5 -113.5t106.5 -271.5q0 -187 -118 -301t-291 -114z" />
    <glyph glyph-name="multiply" unicode="&#xd7;" 
d="M606 498l-207 -206l207 -205l-50 -50l-206 207l-206 -207l-50 50l207 205l-207 206l50 50l206 -207l206 207z" />
    <glyph glyph-name="Oslash" unicode="&#xd8;" horiz-adv-x="891" 
d="M435 -10q-156 0 -258 91l-89 -91l-38 38l89 92q-91 106 -91 255q0 187 117.5 301t291.5 114q145 0 250 -85l83 85l41 -39l-83 -86q96 -108 96 -260q0 -187 -118 -301t-291 -114zM466 60q115 0 174 85.5t59 221.5q0 117 -43 204l-396 -405q73 -106 206 -106zM192 413
q0 -112 40 -198l393 406q-74 99 -199 99q-116 0 -175 -85.5t-59 -221.5z" />
    <glyph glyph-name="Ugrave" unicode="&#xd9;" horiz-adv-x="881" 
d="M271 1030h142l84 -208h-55zM257 652v-375q0 -101 51.5 -155.5t146.5 -54.5q111 0 168.5 51.5t57.5 167.5v366q0 46 -25.5 61.5t-86.5 17.5v49h295v-49q-61 -2 -85 -17.5t-24 -61.5v-388q0 -133 -88 -203.5t-219 -70.5q-152 0 -236.5 69t-84.5 206v387q0 46 -24.5 61.5
t-85.5 17.5v49h350v-49q-61 -2 -85.5 -17.5t-24.5 -61.5z" />
    <glyph glyph-name="Uacute" unicode="&#xda;" horiz-adv-x="881" 
d="M521 1030h140l-171 -208h-55zM257 652v-375q0 -101 51.5 -155.5t146.5 -54.5q111 0 168.5 51.5t57.5 167.5v366q0 46 -25.5 61.5t-86.5 17.5v49h295v-49q-61 -2 -85 -17.5t-24 -61.5v-388q0 -133 -88 -203.5t-219 -70.5q-152 0 -236.5 69t-84.5 206v387q0 46 -24.5 61.5
t-85.5 17.5v49h350v-49q-61 -2 -85.5 -17.5t-24.5 -61.5z" />
    <glyph glyph-name="Ucircumflex" unicode="&#xdb;" horiz-adv-x="881" 
d="M257 652v-375q0 -101 51.5 -155.5t146.5 -54.5q111 0 168.5 51.5t57.5 167.5v366q0 46 -25.5 61.5t-86.5 17.5v49h295v-49q-61 -2 -85 -17.5t-24 -61.5v-388q0 -133 -88 -203.5t-219 -70.5q-152 0 -236.5 69t-84.5 206v387q0 46 -24.5 61.5t-85.5 17.5v49h350v-49
q-61 -2 -85.5 -17.5t-24.5 -61.5zM505 1030l152 -208h-56l-135 119l-135 -119h-56l152 208h78z" />
    <glyph glyph-name="Udieresis" unicode="&#xdc;" horiz-adv-x="881" 
d="M287 919q0 31 22 53.5t53 22.5q32 0 54 -22t22 -54q0 -31 -22 -53t-54 -22q-31 0 -53 22t-22 53zM494 919q0 32 22 54t53 22t53.5 -22.5t22.5 -53.5t-22.5 -53t-53.5 -22t-53 22t-22 53zM257 652v-375q0 -101 51.5 -155.5t146.5 -54.5q111 0 168.5 51.5t57.5 167.5v366
q0 46 -25.5 61.5t-86.5 17.5v49h295v-49q-61 -2 -85 -17.5t-24 -61.5v-388q0 -133 -88 -203.5t-219 -70.5q-152 0 -236.5 69t-84.5 206v387q0 46 -24.5 61.5t-85.5 17.5v49h350v-49q-61 -2 -85.5 -17.5t-24.5 -61.5z" />
    <glyph glyph-name="Yacute" unicode="&#xdd;" horiz-adv-x="779" 
d="M423 376l163 259q19 30 19 53t-20.5 32.5t-74.5 10.5v49h259v-49q-46 -7 -68 -41l-248 -383v-179q0 -46 25 -61.5t86 -17.5v-49h-352v49q61 2 86 17.5t25 61.5v178l-245 384q-13 21 -27.5 29t-40.5 12v49h326v-49q-55 -1 -75 -10.5t-20 -33.5q0 -23 19 -52zM467 1030h140
l-171 -208h-55z" />
    <glyph glyph-name="Thorn" unicode="&#xde;" horiz-adv-x="753" 
d="M284 564v-336h105q100 0 145 39.5t45 129.5q0 167 -191 167h-104zM284 652v-28h140q153 0 226 -62.5t73 -160.5q0 -106 -71 -168.5t-213 -62.5h-155v-42q0 -45 32.5 -60.5t108.5 -18.5v-49h-381v49q61 2 85 17.5t24 61.5v524q0 46 -24 61.5t-85 17.5v49h349v-49
q-61 -2 -85 -17.5t-24 -61.5z" />
    <glyph glyph-name="germandbls" unicode="&#xdf;" horiz-adv-x="723" 
d="M248 0h-195v44q28 4 41.5 7.5t24 15.5t10.5 34v374h-77v39l77 34v15q0 114 64 180t188 66q101 0 154 -45.5t53 -121.5q0 -65 -40 -116.5t-102 -81.5q38 -21 54.5 -30.5t48.5 -30t46.5 -33t36 -33.5t31 -39.5t17 -43t7.5 -51.5q0 -89 -55 -141t-147 -52q-84 0 -130 32.5
t-46 80.5q0 50 39 66h69v-36q0 -89 78 -89q88 0 88 98q0 26 -14 52t-32.5 46.5t-57.5 47.5t-67.5 45t-83.5 50v26q88 54 116 100.5t28 113.5q0 62 -32.5 98t-88.5 36q-103 0 -103 -133v-624z" />
    <glyph glyph-name="agrave" unicode="&#xe0;" horiz-adv-x="612" 
d="M259 71q34 0 60 12.5t63 40.5v148l-154 -49q-53 -18 -53 -69q0 -40 22.5 -61.5t61.5 -21.5zM502 346v-209q0 -68 43 -68q21 0 44 6l10 -35q-51 -50 -114 -50q-72 0 -100 90q-80 -89 -183 -89q-71 0 -111 38t-40 99q0 63 35 90.5t106 47.5l190 57v28q0 64 -28.5 101
t-84.5 37q-76 0 -76 -71q0 -10 6 -52l-92 -12q-27 20 -27 57q0 62 59 97.5t150 35.5q103 0 158 -45.5t55 -152.5zM90 800h142l84 -208h-55z" />
    <glyph glyph-name="aacute" unicode="&#xe1;" horiz-adv-x="612" 
d="M259 71q34 0 60 12.5t63 40.5v148l-154 -49q-53 -18 -53 -69q0 -40 22.5 -61.5t61.5 -21.5zM502 346v-209q0 -68 43 -68q21 0 44 6l10 -35q-51 -50 -114 -50q-72 0 -100 90q-80 -89 -183 -89q-71 0 -111 38t-40 99q0 63 35 90.5t106 47.5l190 57v28q0 64 -28.5 101
t-84.5 37q-76 0 -76 -71q0 -10 6 -52l-92 -12q-27 20 -27 57q0 62 59 97.5t150 35.5q103 0 158 -45.5t55 -152.5zM338 800h140l-171 -208h-55z" />
    <glyph glyph-name="acircumflex" unicode="&#xe2;" horiz-adv-x="612" 
d="M259 71q34 0 60 12.5t63 40.5v148l-154 -49q-53 -18 -53 -69q0 -40 22.5 -61.5t61.5 -21.5zM502 346v-209q0 -68 43 -68q21 0 44 6l10 -35q-51 -50 -114 -50q-72 0 -100 90q-80 -89 -183 -89q-71 0 -111 38t-40 99q0 63 35 90.5t106 47.5l190 57v28q0 64 -28.5 101
t-84.5 37q-76 0 -76 -71q0 -10 6 -52l-92 -12q-27 20 -27 57q0 62 59 97.5t150 35.5q103 0 158 -45.5t55 -152.5zM323 800l152 -208h-56l-135 119l-135 -119h-56l152 208h78z" />
    <glyph glyph-name="atilde" unicode="&#xe3;" horiz-adv-x="612" 
d="M259 71q34 0 60 12.5t63 40.5v148l-154 -49q-53 -18 -53 -69q0 -40 22.5 -61.5t61.5 -21.5zM502 346v-209q0 -68 43 -68q21 0 44 6l10 -35q-51 -50 -114 -50q-72 0 -100 90q-80 -89 -183 -89q-71 0 -111 38t-40 99q0 63 35 90.5t106 47.5l190 57v28q0 64 -28.5 101
t-84.5 37q-76 0 -76 -71q0 -10 6 -52l-92 -12q-27 20 -27 57q0 62 59 97.5t150 35.5q103 0 158 -45.5t55 -152.5zM357 610q-33 0 -83 29.5t-69 29.5q-24 0 -37.5 -11.5t-30.5 -42.5l-44 7q24 69 55.5 101t79.5 32q33 0 83 -29.5t69 -29.5q24 0 37.5 11.5t30.5 42.5l44 -7
q-24 -69 -56 -101t-79 -32z" />
    <glyph glyph-name="adieresis" unicode="&#xe4;" horiz-adv-x="612" 
d="M259 71q34 0 60 12.5t63 40.5v148l-154 -49q-53 -18 -53 -69q0 -40 22.5 -61.5t61.5 -21.5zM502 346v-209q0 -68 43 -68q21 0 44 6l10 -35q-51 -50 -114 -50q-72 0 -100 90q-80 -89 -183 -89q-71 0 -111 38t-40 99q0 63 35 90.5t106 47.5l190 57v28q0 64 -28.5 101
t-84.5 37q-76 0 -76 -71q0 -10 6 -52l-92 -12q-27 20 -27 57q0 62 59 97.5t150 35.5q103 0 158 -45.5t55 -152.5zM107 697q0 32 22 54t53 22q32 0 54 -22t22 -54q0 -31 -22 -53t-54 -22q-31 0 -53 22t-22 53zM314 697q0 32 21.5 54t53.5 22t54 -22t22 -54q0 -31 -22.5 -53
t-53.5 -22t-53 22t-22 53z" />
    <glyph glyph-name="aring" unicode="&#xe5;" horiz-adv-x="612" 
d="M259 71q34 0 60 12.5t63 40.5v148l-154 -49q-53 -18 -53 -69q0 -40 22.5 -61.5t61.5 -21.5zM502 346v-209q0 -68 43 -68q21 0 44 6l10 -35q-51 -50 -114 -50q-72 0 -100 90q-80 -89 -183 -89q-71 0 -111 38t-40 99q0 63 35 90.5t106 47.5l190 57v28q0 64 -28.5 101
t-84.5 37q-76 0 -76 -71q0 -10 6 -52l-92 -12q-27 20 -27 57q0 62 59 97.5t150 35.5q103 0 158 -45.5t55 -152.5zM168 697q0 48 32.5 81t83.5 33t83.5 -33t32.5 -81t-32.5 -81t-83.5 -33t-83.5 33t-32.5 81zM343 697q0 29 -15 47t-44 18t-44 -18t-15 -47t15 -46.5t44 -17.5
t44 18t15 46z" />
    <glyph glyph-name="ae" unicode="&#xe6;" horiz-adv-x="913" 
d="M652 544q107 0 165.5 -60t58.5 -154v-36l-379 -41q11 -79 57 -122t127 -43q102 0 164 77l32 -15q-21 -67 -79.5 -113.5t-156.5 -46.5q-148 0 -218 111q-53 -61 -100.5 -85.5t-120.5 -24.5q-71 0 -111 38t-40 99q0 129 156 145l175 19v59q0 64 -28.5 101t-84.5 37
q-76 0 -76 -71q0 -10 6 -52l-92 -12q-27 20 -27 57q0 62 59 97.5t150 35.5q137 0 174 -87q71 87 189 87zM628 480q-60 0 -97 -43.5t-38 -132.5l262 28q1 71 -32 109.5t-95 38.5zM259 71q71 0 142 71q-17 44 -19 98l-148 -15q-59 -7 -59 -71q0 -40 22.5 -61.5t61.5 -21.5z
" />
    <glyph glyph-name="ccedilla" unicode="&#xe7;" horiz-adv-x="561" 
d="M151 295q0 -97 47.5 -152t136.5 -55q103 0 165 77l33 -15q-22 -68 -79 -113t-151 -47l-7 -33q120 -22 120 -106q0 -46 -35.5 -73.5t-87.5 -27.5q-53 0 -88 25l11 33q37 -15 69 -15q28 0 45 11t17 30q0 43 -101 57l20 101q-108 9 -168 82.5t-60 175.5q0 132 81.5 213
t208.5 81q87 0 140.5 -37t53.5 -96q0 -50 -41 -67h-79v41q0 98 -94 98q-71 0 -114 -49.5t-43 -138.5z" />
    <glyph glyph-name="egrave" unicode="&#xe8;" horiz-adv-x="569" 
d="M308 544q107 0 165.5 -60t58.5 -154v-30h-382q0 -100 47 -156t140 -56q102 0 164 77l32 -15q-21 -67 -79.5 -113.5t-156.5 -46.5q-118 0 -188.5 73t-70.5 187q0 131 76.5 212.5t193.5 81.5zM284 480q-54 0 -88.5 -35t-42.5 -93h256q0 56 -32.5 92t-92.5 36zM96 800h142
l84 -208h-55z" />
    <glyph glyph-name="eacute" unicode="&#xe9;" horiz-adv-x="569" 
d="M345 800h140l-171 -208h-55zM308 544q107 0 165.5 -60t58.5 -154v-30h-382q0 -100 47 -156t140 -56q102 0 164 77l32 -15q-21 -67 -79.5 -113.5t-156.5 -46.5q-118 0 -188.5 73t-70.5 187q0 131 76.5 212.5t193.5 81.5zM284 480q-54 0 -88.5 -35t-42.5 -93h256
q0 56 -32.5 92t-92.5 36z" />
    <glyph glyph-name="ecircumflex" unicode="&#xea;" horiz-adv-x="569" 
d="M330 800l152 -208h-56l-135 119l-135 -119h-56l152 208h78zM308 544q107 0 165.5 -60t58.5 -154v-30h-382q0 -100 47 -156t140 -56q102 0 164 77l32 -15q-21 -67 -79.5 -113.5t-156.5 -46.5q-118 0 -188.5 73t-70.5 187q0 131 76.5 212.5t193.5 81.5zM284 480
q-54 0 -88.5 -35t-42.5 -93h256q0 56 -32.5 92t-92.5 36z" />
    <glyph glyph-name="edieresis" unicode="&#xeb;" horiz-adv-x="569" 
d="M112 697q0 32 22 54t53 22q32 0 54 -22t22 -54q0 -31 -22 -53t-54 -22q-31 0 -53 22t-22 53zM319 697q0 32 21.5 54t53.5 22t54 -22t22 -54q0 -31 -22.5 -53t-53.5 -22t-53 22t-22 53zM308 544q107 0 165.5 -60t58.5 -154v-30h-382q0 -100 47 -156t140 -56q102 0 164 77
l32 -15q-21 -67 -79.5 -113.5t-156.5 -46.5q-118 0 -188.5 73t-70.5 187q0 131 76.5 212.5t193.5 81.5zM284 480q-54 0 -88.5 -35t-42.5 -93h256q0 56 -32.5 92t-92.5 36z" />
    <glyph glyph-name="igrave" unicode="&#xec;" horiz-adv-x="361" 
d="M247 442v-341q0 -31 17.5 -41.5t58.5 -15.5v-44h-272v44q28 4 41.5 7.5t24 15.5t10.5 34v327l-71 39v27l160 51h36zM-7 800h142l84 -208h-55z" />
    <glyph glyph-name="iacute" unicode="&#xed;" horiz-adv-x="361" 
d="M241 800h140l-171 -208h-55zM247 442v-341q0 -31 17.5 -41.5t58.5 -15.5v-44h-272v44q28 4 41.5 7.5t24 15.5t10.5 34v327l-71 39v27l160 51h36z" />
    <glyph glyph-name="icircumflex" unicode="&#xee;" horiz-adv-x="361" 
d="M226 800l152 -208h-56l-135 119l-135 -119h-56l152 208h78zM247 442v-341q0 -31 17.5 -41.5t58.5 -15.5v-44h-272v44q28 4 41.5 7.5t24 15.5t10.5 34v327l-71 39v27l160 51h36z" />
    <glyph glyph-name="idieresis" unicode="&#xef;" horiz-adv-x="361" 
d="M8 697q0 32 22 54t53 22q32 0 54 -22t22 -54q0 -31 -22 -53t-54 -22q-31 0 -53 22t-22 53zM215 697q0 32 21.5 54t53.5 22t54 -22t22 -54q0 -31 -22.5 -53t-53.5 -22t-53 22t-22 53zM247 442v-341q0 -31 17.5 -41.5t58.5 -15.5v-44h-272v44q28 4 41.5 7.5t24 15.5
t10.5 34v327l-71 39v27l160 51h36z" />
    <glyph glyph-name="eth" unicode="&#xf0;" horiz-adv-x="629" 
d="M196 582l-19 42l127 57q-71 64 -143 98v11l69 22q86 -32 160 -93l104 47l19 -41l-85 -39q163 -156 163 -378q0 -151 -78 -234.5t-205 -83.5q-121 0 -195.5 78t-74.5 189q0 129 80.5 208t199.5 79q69 0 119 -34q-26 64 -97 137zM165 294q0 -98 44.5 -169t126.5 -71
q67 0 101 50.5t34 135.5q0 102 -44 171t-127 69q-67 0 -101 -50.5t-34 -135.5z" />
    <glyph glyph-name="ntilde" unicode="&#xf1;" horiz-adv-x="722" 
d="M496 101v263q0 49 -24 70t-73 21q-37 0 -79 -15.5t-73 -38.5v-300q0 -31 17.5 -41.5t58.5 -15.5v-44h-272v44q28 4 41.5 7.5t24 15.5t10.5 34v327l-71 39v27l160 51h36l-5 -99q37 40 91 69t110 29q78 0 123 -40t45 -124v-279q0 -31 17.5 -41.5t58.5 -15.5v-44h-272v44
q28 4 41.5 7.5t24 15.5t10.5 34zM436 610q-33 0 -83 29.5t-69 29.5q-24 0 -37.5 -11.5t-30.5 -42.5l-44 7q24 69 56 101t79 32q33 0 83 -29.5t69 -29.5q24 0 37.5 11.5t30.5 42.5l44 -7q-24 -69 -55.5 -101t-79.5 -32z" />
    <glyph glyph-name="ograve" unicode="&#xf2;" horiz-adv-x="636" 
d="M336 54q67 0 101 51t34 137q0 104 -45.5 171t-125.5 67q-67 0 -101 -51t-34 -137q0 -104 45.5 -171t125.5 -67zM308 -10q-120 0 -195 75t-75 192q0 129 83.5 208t206.5 79q120 0 195.5 -75t75.5 -192q0 -129 -84 -208t-207 -79zM123 800h142l84 -208h-55z" />
    <glyph glyph-name="oacute" unicode="&#xf3;" horiz-adv-x="636" 
d="M372 800h140l-171 -208h-55zM336 54q67 0 101 51t34 137q0 104 -45.5 171t-125.5 67q-67 0 -101 -51t-34 -137q0 -104 45.5 -171t125.5 -67zM308 -10q-120 0 -195 75t-75 192q0 129 83.5 208t206.5 79q120 0 195.5 -75t75.5 -192q0 -129 -84 -208t-207 -79z" />
    <glyph glyph-name="ocircumflex" unicode="&#xf4;" horiz-adv-x="636" 
d="M357 800l152 -208h-56l-135 119l-135 -119h-56l152 208h78zM336 54q67 0 101 51t34 137q0 104 -45.5 171t-125.5 67q-67 0 -101 -51t-34 -137q0 -104 45.5 -171t125.5 -67zM308 -10q-120 0 -195 75t-75 192q0 129 83.5 208t206.5 79q120 0 195.5 -75t75.5 -192
q0 -129 -84 -208t-207 -79z" />
    <glyph glyph-name="otilde" unicode="&#xf5;" horiz-adv-x="636" 
d="M336 54q67 0 101 51t34 137q0 104 -45.5 171t-125.5 67q-67 0 -101 -51t-34 -137q0 -104 45.5 -171t125.5 -67zM308 -10q-120 0 -195 75t-75 192q0 129 83.5 208t206.5 79q120 0 195.5 -75t75.5 -192q0 -129 -84 -208t-207 -79zM383 610q-33 0 -83 29.5t-69 29.5
q-24 0 -37.5 -11.5t-30.5 -42.5l-44 7q24 69 55.5 101t79.5 32q33 0 83 -29.5t69 -29.5q24 0 37.5 11.5t30.5 42.5l44 -7q-24 -69 -56 -101t-79 -32z" />
    <glyph glyph-name="odieresis" unicode="&#xf6;" horiz-adv-x="636" 
d="M139 697q0 32 22 54t53 22q32 0 54 -22t22 -54q0 -31 -22 -53t-54 -22q-31 0 -53 22t-22 53zM346 697q0 32 21.5 54t53.5 22t54 -22t22 -54q0 -31 -22.5 -53t-53.5 -22t-53 22t-22 53zM336 54q67 0 101 51t34 137q0 104 -45.5 171t-125.5 67q-67 0 -101 -51t-34 -137
q0 -104 45.5 -171t125.5 -67zM308 -10q-120 0 -195 75t-75 192q0 129 83.5 208t206.5 79q120 0 195.5 -75t75.5 -192q0 -129 -84 -208t-207 -79z" />
    <glyph glyph-name="divide" unicode="&#xf7;" 
d="M620 257h-540v71h540v-71zM282 510q0 28 20.5 48t48.5 20t48 -20t20 -48t-20 -48t-48 -20t-48.5 20t-20.5 48zM282 75q0 28 20.5 48t48.5 20t48 -20t20 -48t-20 -48t-48 -20q-29 0 -49 20t-20 48z" />
    <glyph glyph-name="oslash" unicode="&#xf8;" horiz-adv-x="636" 
d="M308 -10q-89 0 -157 44l-59 -66l-39 34l58 65q-73 75 -73 190q0 129 83.5 208t206.5 79q93 0 160 -47l59 67l42 -34l-60 -67q70 -73 70 -186q0 -129 -84 -208t-207 -79zM165 292q0 -75 25 -134l230 262q-45 60 -120 60q-67 0 -101 -51t-34 -137zM336 54q67 0 101 51
t34 137q0 71 -23 128l-230 -259q46 -57 118 -57z" />
    <glyph glyph-name="ugrave" unicode="&#xf9;" horiz-adv-x="685" 
d="M446 -10l5 98q-79 -98 -187 -98q-76 0 -120 40.5t-44 124.5v264q0 25 -13 36.5t-48 16.5l-18 3v44l174 25h30l-5 -103v-269q0 -96 92 -96q64 0 139 57v286q0 25 -13 36.5t-48 16.5l-17 3v44l174 25h29l-5 -103v-321q0 -26 11 -35.5t43 -12.5l26 -2v-45l-184 -35h-21z
M146 800h142l84 -208h-55z" />
    <glyph glyph-name="uacute" unicode="&#xfa;" horiz-adv-x="685" 
d="M389 800h140l-171 -208h-55zM446 -10l5 98q-79 -98 -187 -98q-76 0 -120 40.5t-44 124.5v264q0 25 -13 36.5t-48 16.5l-18 3v44l174 25h30l-5 -103v-269q0 -96 92 -96q64 0 139 57v286q0 25 -13 36.5t-48 16.5l-17 3v44l174 25h29l-5 -103v-321q0 -26 11 -35.5t43 -12.5
l26 -2v-45l-184 -35h-21z" />
    <glyph glyph-name="ucircumflex" unicode="&#xfb;" horiz-adv-x="685" 
d="M374 800l152 -208h-56l-135 119l-135 -119h-56l152 208h78zM446 -10l5 98q-79 -98 -187 -98q-76 0 -120 40.5t-44 124.5v264q0 25 -13 36.5t-48 16.5l-18 3v44l174 25h30l-5 -103v-269q0 -96 92 -96q64 0 139 57v286q0 25 -13 36.5t-48 16.5l-17 3v44l174 25h29l-5 -103
v-321q0 -26 11 -35.5t43 -12.5l26 -2v-45l-184 -35h-21z" />
    <glyph glyph-name="udieresis" unicode="&#xfc;" horiz-adv-x="685" 
d="M156 697q0 32 22 54t53 22q32 0 54 -22t22 -54q0 -31 -22 -53t-54 -22q-31 0 -53 22t-22 53zM363 697q0 32 21.5 54t53.5 22t54 -22t22 -54q0 -31 -22.5 -53t-53.5 -22t-53 22t-22 53zM446 -10l5 98q-79 -98 -187 -98q-76 0 -120 40.5t-44 124.5v264q0 25 -13 36.5
t-48 16.5l-18 3v44l174 25h30l-5 -103v-269q0 -96 92 -96q64 0 139 57v286q0 25 -13 36.5t-48 16.5l-17 3v44l174 25h29l-5 -103v-321q0 -26 11 -35.5t43 -12.5l26 -2v-45l-184 -35h-21z" />
    <glyph glyph-name="yacute" unicode="&#xfd;" horiz-adv-x="607" 
d="M283 -1l-214 451q-7 16 -16 21.5t-44 18.5v44h270v-44q-43 -6 -58 -12.5t-15 -23.5q0 -12 7 -27l128 -299l117 299q7 17 7 27q0 17 -15 23.5t-58 12.5v44h207v-44q-34 -13 -44 -19t-17 -21l-234 -557q-34 -81 -71.5 -111.5t-87.5 -30.5q-28 0 -50.5 10.5t-30.5 24.5v67
h64q53 0 81 16.5t49 68.5zM376 800h140l-171 -208h-55z" />
    <glyph glyph-name="thorn" unicode="&#xfe;" horiz-adv-x="661" 
d="M203 28v-167q0 -31 17.5 -41.5t58.5 -15.5v-44h-272v44q28 4 41.5 7.5t24.5 15.5t11 34v842l-72 33v26l160 48h36l-5 -86v-274q32 43 81 68.5t106 25.5q110 0 171.5 -70.5t61.5 -181.5q0 -137 -81.5 -219.5t-206.5 -82.5q-81 0 -132 38zM337 50q75 0 118.5 52.5
t43.5 145.5q0 90 -39 150t-121 60q-80 0 -136 -56v-231q0 -62 37.5 -91.5t96.5 -29.5z" />
    <glyph glyph-name="ydieresis" unicode="&#xff;" horiz-adv-x="607" 
d="M283 -1l-214 451q-7 16 -16 21.5t-44 18.5v44h270v-44q-43 -6 -58 -12.5t-15 -23.5q0 -12 7 -27l128 -299l117 299q7 17 7 27q0 17 -15 23.5t-58 12.5v44h207v-44q-34 -13 -44 -19t-17 -21l-234 -557q-34 -81 -71.5 -111.5t-87.5 -30.5q-28 0 -50.5 10.5t-30.5 24.5v67
h64q53 0 81 16.5t49 68.5zM143 697q0 32 22 54t53 22q32 0 54 -22t22 -54q0 -31 -22 -53t-54 -22q-31 0 -53 22t-22 53zM350 697q0 32 21.5 54t53.5 22t54 -22t22 -54q0 -31 -22.5 -53t-53.5 -22t-53 22t-22 53z" />
    <glyph glyph-name="Amacron" unicode="&#x100;" horiz-adv-x="843" 
d="M598 142l-46 107h-332l-43 -107q-12 -29 -12 -45q0 -25 21.5 -35.5t79.5 -12.5v-49h-256v49q28 4 44 12t24 29l263 620l-35 78h149l310 -698q9 -21 24 -29t44 -12v-49h-323v49q57 2 78.5 12.5t21.5 35.5q0 18 -12 45zM381 640l-137 -332h281zM249 866v70h280v-70h-280z
" />
    <glyph glyph-name="amacron" unicode="&#x101;" horiz-adv-x="612" 
d="M259 71q34 0 60 12.5t63 40.5v148l-154 -49q-53 -18 -53 -69q0 -40 22.5 -61.5t61.5 -21.5zM502 346v-209q0 -68 43 -68q21 0 44 6l10 -35q-51 -50 -114 -50q-72 0 -100 90q-80 -89 -183 -89q-71 0 -111 38t-40 99q0 63 35 90.5t106 47.5l190 57v28q0 64 -28.5 101
t-84.5 37q-76 0 -76 -71q0 -10 6 -52l-92 -12q-27 20 -27 57q0 62 59 97.5t150 35.5q103 0 158 -45.5t55 -152.5zM144 640v70h280v-70h-280z" />
    <glyph glyph-name="Abreve" unicode="&#x102;" horiz-adv-x="843" 
d="M598 142l-46 107h-332l-43 -107q-12 -29 -12 -45q0 -25 21.5 -35.5t79.5 -12.5v-49h-256v49q28 4 44 12t24 29l263 620l-35 78h149l310 -698q9 -21 24 -29t44 -12v-49h-323v49q57 2 78.5 12.5t21.5 35.5q0 18 -12 45zM381 640l-137 -332h281zM389 831q-94 0 -136 50.5
t-42 148.5h47q14 -122 131 -122t131 122h47q0 -98 -42 -148.5t-136 -50.5z" />
    <glyph glyph-name="abreve" unicode="&#x103;" horiz-adv-x="612" 
d="M259 71q34 0 60 12.5t63 40.5v148l-154 -49q-53 -18 -53 -69q0 -40 22.5 -61.5t61.5 -21.5zM502 346v-209q0 -68 43 -68q21 0 44 6l10 -35q-51 -50 -114 -50q-72 0 -100 90q-80 -89 -183 -89q-71 0 -111 38t-40 99q0 63 35 90.5t106 47.5l190 57v28q0 64 -28.5 101
t-84.5 37q-76 0 -76 -71q0 -10 6 -52l-92 -12q-27 20 -27 57q0 62 59 97.5t150 35.5q103 0 158 -45.5t55 -152.5zM284 601q-94 0 -136 50.5t-42 148.5h47q14 -122 131 -122t131 122h47q0 -98 -42 -148.5t-136 -50.5z" />
    <glyph glyph-name="Aogonek" unicode="&#x104;" horiz-adv-x="843" 
d="M741 0h-231v49q57 2 78.5 12.5t21.5 35.5q0 18 -12 45l-46 107h-332l-43 -107q-12 -29 -12 -45q0 -25 21.5 -35.5t79.5 -12.5v-49h-256v49q28 4 44 12t24 29l263 620l-35 78h149l310 -698q9 -21 24 -29t44 -12v-49q-121 -45 -121 -124q0 -30 18 -47t52 -17q40 0 66 17
l10 -34q-43 -45 -110 -45q-54 0 -88 27.5t-34 83.5q0 84 115 139zM381 640l-137 -332h281z" />
    <glyph glyph-name="aogonek" unicode="&#x105;" horiz-adv-x="612" 
d="M259 71q34 0 60 12.5t63 40.5v148l-154 -49q-53 -18 -53 -69q0 -40 22.5 -61.5t61.5 -21.5zM457 -6q-49 13 -72 86q-80 -89 -183 -89q-71 0 -111 38t-40 99q0 63 35 90.5t106 47.5l190 57v28q0 64 -28.5 101t-84.5 37q-76 0 -76 -71q0 -10 6 -52l-92 -12q-27 20 -27 57
q0 62 59 97.5t150 35.5q103 0 158 -45.5t55 -152.5v-209q0 -68 43 -68q21 0 44 6l10 -35q-2 -2 -17 -12t-19 -12.5t-17 -12.5t-17.5 -14.5t-15.5 -14.5t-15 -16.5t-11 -17t-9.5 -19.5t-5 -20.5t-2.5 -23.5q0 -31 18 -48t52 -17q40 0 66 17l10 -34q-43 -45 -110 -45
q-54 0 -88 27.5t-34 84.5q0 76 73 132z" />
    <glyph glyph-name="Cacute" unicode="&#x106;" horiz-adv-x="817" 
d="M481 56q103 0 158.5 45t91.5 145h53l-22 -193q-133 -63 -302 -63q-190 0 -300.5 111.5t-110.5 273.5q0 187 119.5 301t299.5 114q166 0 275 -71l6 -172h-52q-32 94 -90 135.5t-149 41.5q-70 0 -122 -24.5t-82 -68.5t-44.5 -98t-14.5 -119q0 -72 17 -135t51 -113.5t90 -80
t128 -29.5zM509 1030h140l-171 -208h-55z" />
    <glyph glyph-name="cacute" unicode="&#x107;" horiz-adv-x="561" 
d="M353 800h140l-171 -208h-55zM151 295q0 -97 47.5 -152t136.5 -55q103 0 165 77l33 -15q-22 -69 -81.5 -114.5t-156.5 -45.5q-121 0 -189 75.5t-68 184.5q0 132 81.5 213t208.5 81q87 0 140.5 -37t53.5 -96q0 -50 -41 -67h-79v41q0 98 -94 98q-71 0 -114 -49.5t-43 -138.5
z" />
    <glyph glyph-name="Ccircumflex" unicode="&#x108;" horiz-adv-x="817" 
d="M481 56q103 0 158.5 45t91.5 145h53l-22 -193q-133 -63 -302 -63q-190 0 -300.5 111.5t-110.5 273.5q0 187 119.5 301t299.5 114q166 0 275 -71l6 -172h-52q-32 94 -90 135.5t-149 41.5q-70 0 -122 -24.5t-82 -68.5t-44.5 -98t-14.5 -119q0 -72 17 -135t51 -113.5t90 -80
t128 -29.5zM493 1030l152 -208h-56l-135 119l-135 -119h-56l152 208h78z" />
    <glyph glyph-name="ccircumflex" unicode="&#x109;" horiz-adv-x="561" 
d="M338 800l152 -208h-56l-135 119l-135 -119h-56l152 208h78zM151 295q0 -97 47.5 -152t136.5 -55q103 0 165 77l33 -15q-22 -69 -81.5 -114.5t-156.5 -45.5q-121 0 -189 75.5t-68 184.5q0 132 81.5 213t208.5 81q87 0 140.5 -37t53.5 -96q0 -50 -41 -67h-79v41
q0 98 -94 98q-71 0 -114 -49.5t-43 -138.5z" />
    <glyph glyph-name="Cdotaccent" unicode="&#x10a;" horiz-adv-x="817" 
d="M374 921q0 33 23 55.5t57 22.5t56.5 -22.5t22.5 -55.5t-22.5 -55.5t-56.5 -22.5t-57 22.5t-23 55.5zM481 56q103 0 158.5 45t91.5 145h53l-22 -193q-133 -63 -302 -63q-190 0 -300.5 111.5t-110.5 273.5q0 187 119.5 301t299.5 114q166 0 275 -71l6 -172h-52
q-32 94 -90 135.5t-149 41.5q-70 0 -122 -24.5t-82 -68.5t-44.5 -98t-14.5 -119q0 -72 17 -135t51 -113.5t90 -80t128 -29.5z" />
    <glyph glyph-name="cdotaccent" unicode="&#x10b;" horiz-adv-x="561" 
d="M151 295q0 -97 47.5 -152t136.5 -55q103 0 165 77l33 -15q-22 -69 -81.5 -114.5t-156.5 -45.5q-121 0 -189 75.5t-68 184.5q0 132 81.5 213t208.5 81q87 0 140.5 -37t53.5 -96q0 -50 -41 -67h-79v41q0 98 -94 98q-71 0 -114 -49.5t-43 -138.5zM219 697q0 33 23 55.5
t57 22.5t56.5 -22.5t22.5 -55.5t-22.5 -55t-56.5 -22t-57 22.5t-23 54.5z" />
    <glyph glyph-name="Ccaron" unicode="&#x10c;" horiz-adv-x="817" 
d="M481 56q103 0 158.5 45t91.5 145h53l-22 -193q-133 -63 -302 -63q-190 0 -300.5 111.5t-110.5 273.5q0 187 119.5 301t299.5 114q166 0 275 -71l6 -172h-52q-32 94 -90 135.5t-149 41.5q-70 0 -122 -24.5t-82 -68.5t-44.5 -98t-14.5 -119q0 -72 17 -135t51 -113.5t90 -80
t128 -29.5zM415 822l-152 208h56l135 -119l135 119h56l-152 -208h-78z" />
    <glyph glyph-name="ccaron" unicode="&#x10d;" horiz-adv-x="561" 
d="M260 592l-152 208h56l135 -119l135 119h56l-152 -208h-78zM151 295q0 -97 47.5 -152t136.5 -55q103 0 165 77l33 -15q-22 -69 -81.5 -114.5t-156.5 -45.5q-121 0 -189 75.5t-68 184.5q0 132 81.5 213t208.5 81q87 0 140.5 -37t53.5 -96q0 -50 -41 -67h-79v41q0 98 -94 98
q-71 0 -114 -49.5t-43 -138.5z" />
    <glyph glyph-name="Dcaron" unicode="&#x10e;" horiz-adv-x="924" 
d="M415 822l-152 208h56l135 -119l135 119h56l-152 -208h-78zM431 720h-147v-582q0 -47 24.5 -62.5t85.5 -15.5h69q119 0 193 77.5t74 230.5q0 156 -73.5 254t-225.5 98zM44 780h425q101 0 180 -29.5t127.5 -81t73.5 -117t25 -140.5q0 -194 -114.5 -303t-290.5 -109h-426v49
q61 2 85 17.5t24 61.5v524q0 46 -24 61.5t-85 17.5v49z" />
    <glyph glyph-name="dcaron" unicode="&#x10f;" horiz-adv-x="687" 
d="M632 800h114l-71 -208h-54zM324 484q-75 0 -119 -54t-44 -151q0 -86 41 -143.5t123 -57.5q81 0 132 53v228q0 61 -38 93t-95 32zM657 25l-184 -35h-21l5 94q-67 -94 -183 -94q-110 0 -173 70.5t-63 181.5q0 136 82 219t201 83q83 0 136 -39v198l-71 33v26l160 48h36
l-5 -86v-604q0 -26 11 -35.5t43 -12.5l26 -2v-45z" />
    <glyph glyph-name="Dcroat" unicode="&#x110;" horiz-adv-x="928" 
d="M48 369v58h109v225q0 46 -24 61.5t-85 17.5v49h424q101 0 180.5 -29.5t128 -81t73.5 -117t25 -140.5q0 -194 -115 -303t-291 -109h-425v49q61 2 85 17.5t24 61.5v241h-109zM435 720h-148v-293h197v-58h-197v-231q0 -47 24.5 -62.5t86.5 -15.5h69q118 0 192.5 78t74.5 230
q0 156 -73.5 254t-225.5 98z" />
    <glyph glyph-name="dcroat" unicode="&#x111;" horiz-adv-x="687" 
d="M284 604v48h173v54l-71 30v26l160 48h36l-5 -86v-72h80v-48h-80v-484q0 -26 11 -35.5t43 -12.5l26 -2v-45l-184 -35h-21l5 94q-67 -94 -183 -94q-110 0 -173 70.5t-63 181.5q0 136 82 219t201 83q83 0 136 -39v99h-173zM324 484q-75 0 -119 -54t-44 -151q0 -86 41 -143.5
t123 -57.5q81 0 132 53v228q0 61 -38 93t-95 32z" />
    <glyph glyph-name="Emacron" unicode="&#x112;" horiz-adv-x="802" 
d="M254 866v70h280v-70h-280zM605 271h-46q-9 52 -27.5 74.5t-54.5 22.5h-193v-233q0 -44 25 -59.5t85 -15.5h115q47 0 77 14.5t50.5 40t62.5 91.5h47l-35 -206h-667v49q61 2 85 17.5t24 61.5v524q0 46 -24 61.5t-85 17.5v49h662l3 -191h-44q-31 74 -64.5 102.5t-99.5 28.5
h-217v-292h193q36 0 54.5 23t27.5 75h46v-255z" />
    <glyph glyph-name="emacron" unicode="&#x113;" horiz-adv-x="569" 
d="M308 544q107 0 165.5 -60t58.5 -154v-30h-382q0 -100 47 -156t140 -56q102 0 164 77l32 -15q-21 -67 -79.5 -113.5t-156.5 -46.5q-118 0 -188.5 73t-70.5 187q0 131 76.5 212.5t193.5 81.5zM284 480q-54 0 -88.5 -35t-42.5 -93h256q0 56 -32.5 92t-92.5 36zM151 640v70
h280v-70h-280z" />
    <glyph glyph-name="Ebreve" unicode="&#x114;" horiz-adv-x="802" 
d="M404 831q-94 0 -136 50.5t-42 148.5h47q14 -122 131 -122t131 122h47q0 -98 -42 -148.5t-136 -50.5zM605 271h-46q-9 52 -27.5 74.5t-54.5 22.5h-193v-233q0 -44 25 -59.5t85 -15.5h115q47 0 77 14.5t50.5 40t62.5 91.5h47l-35 -206h-667v49q61 2 85 17.5t24 61.5v524
q0 46 -24 61.5t-85 17.5v49h662l3 -191h-44q-31 74 -64.5 102.5t-99.5 28.5h-217v-292h193q36 0 54.5 23t27.5 75h46v-255z" />
    <glyph glyph-name="ebreve" unicode="&#x115;" horiz-adv-x="569" 
d="M308 544q107 0 165.5 -60t58.5 -154v-30h-382q0 -100 47 -156t140 -56q102 0 164 77l32 -15q-21 -67 -79.5 -113.5t-156.5 -46.5q-118 0 -188.5 73t-70.5 187q0 131 76.5 212.5t193.5 81.5zM284 480q-54 0 -88.5 -35t-42.5 -93h256q0 56 -32.5 92t-92.5 36zM291 601
q-94 0 -136 50.5t-42 148.5h47q14 -122 131 -122t131 122h47q0 -98 -42 -148.5t-136 -50.5z" />
    <glyph glyph-name="Edotaccent" unicode="&#x116;" horiz-adv-x="802" 
d="M316 921q0 33 23 55.5t57 22.5t56.5 -22.5t22.5 -55.5t-22.5 -55.5t-56.5 -22.5t-57 22.5t-23 55.5zM605 271h-46q-9 52 -27.5 74.5t-54.5 22.5h-193v-233q0 -44 25 -59.5t85 -15.5h115q47 0 77 14.5t50.5 40t62.5 91.5h47l-35 -206h-667v49q61 2 85 17.5t24 61.5v524
q0 46 -24 61.5t-85 17.5v49h662l3 -191h-44q-31 74 -64.5 102.5t-99.5 28.5h-217v-292h193q36 0 54.5 23t27.5 75h46v-255z" />
    <glyph glyph-name="edotaccent" unicode="&#x117;" horiz-adv-x="569" 
d="M308 544q107 0 165.5 -60t58.5 -154v-30h-382q0 -100 47 -156t140 -56q102 0 164 77l32 -15q-21 -67 -79.5 -113.5t-156.5 -46.5q-118 0 -188.5 73t-70.5 187q0 131 76.5 212.5t193.5 81.5zM284 480q-54 0 -88.5 -35t-42.5 -93h256q0 56 -32.5 92t-92.5 36zM211 697
q0 33 23 55.5t57 22.5t56.5 -22.5t22.5 -55.5t-22.5 -55t-56.5 -22t-57 22.5t-23 54.5z" />
    <glyph glyph-name="Eogonek" unicode="&#x118;" horiz-adv-x="802" 
d="M620 0h-576v49q61 2 85 17.5t24 61.5v524q0 46 -24 61.5t-85 17.5v49h662l3 -191h-44q-31 74 -64.5 102.5t-99.5 28.5h-217v-292h193q36 0 54.5 23t27.5 75h46v-255h-46q-9 52 -27.5 74.5t-54.5 22.5h-193v-233q0 -44 25 -59.5t85 -15.5h115q47 0 77 14.5t50.5 40
t62.5 91.5h47l-35 -206q-120 -45 -120 -124q0 -30 18 -47t52 -17q44 0 65 17l11 -34q-43 -45 -111 -45q-53 0 -87 27.5t-34 83.5q0 84 115 139z" />
    <glyph glyph-name="eogonek" unicode="&#x119;" horiz-adv-x="569" 
d="M425 18q-55 -32 -82 -63.5t-27 -77.5q0 -30 19 -47.5t52 -17.5q44 0 65 17l11 -34q-42 -45 -111 -45q-53 0 -87 27.5t-34 84.5q0 80 83 129q-5 -1 -17 -1q-118 0 -188.5 73t-70.5 187q0 131 76.5 212.5t193.5 81.5q107 0 165.5 -60t58.5 -154v-30h-382q0 -100 47 -156
t140 -56q101 0 165 77l32 -15q-27 -85 -109 -132zM284 480q-54 0 -88.5 -35t-42.5 -93h256q0 56 -32.5 92t-92.5 36z" />
    <glyph glyph-name="Ecaron" unicode="&#x11a;" horiz-adv-x="802" 
d="M369 822l-152 208h56l135 -119l135 119h56l-152 -208h-78zM605 271h-46q-9 52 -27.5 74.5t-54.5 22.5h-193v-233q0 -44 25 -59.5t85 -15.5h115q47 0 77 14.5t50.5 40t62.5 91.5h47l-35 -206h-667v49q61 2 85 17.5t24 61.5v524q0 46 -24 61.5t-85 17.5v49h662l3 -191h-44
q-31 74 -64.5 102.5t-99.5 28.5h-217v-292h193q36 0 54.5 23t27.5 75h46v-255z" />
    <glyph glyph-name="ecaron" unicode="&#x11b;" horiz-adv-x="569" 
d="M252 592l-152 208h56l135 -119l135 119h56l-152 -208h-78zM308 544q107 0 165.5 -60t58.5 -154v-30h-382q0 -100 47 -156t140 -56q102 0 164 77l32 -15q-21 -67 -79.5 -113.5t-156.5 -46.5q-118 0 -188.5 73t-70.5 187q0 131 76.5 212.5t193.5 81.5zM284 480
q-54 0 -88.5 -35t-42.5 -93h256q0 56 -32.5 92t-92.5 36z" />
    <glyph glyph-name="Gcircumflex" unicode="&#x11c;" horiz-adv-x="896" 
d="M49 375q0 187 120 301t299 114q166 0 275 -71l6 -172h-52q-32 94 -90 135.5t-149 41.5q-70 0 -122 -24.5t-82 -68.5t-44.5 -98t-14.5 -119q0 -97 29 -175.5t94 -129.5t158 -51q114 0 163 51v137q0 47 -24.5 62.5t-85.5 17.5v49h350v-49q-61 -2 -85.5 -17.5t-24.5 -62.5
v-176q-129 -80 -310 -80q-127 0 -222 54t-141.5 140t-46.5 191zM510 1030l152 -208h-56l-135 119l-135 -119h-56l152 208h78z" />
    <glyph glyph-name="gcircumflex" unicode="&#x11d;" horiz-adv-x="600" 
d="M321 800l152 -208h-56l-135 119l-135 -119h-56l152 208h78zM300 544q51 0 93 -14l194 5v-75h-41l-113 16v-2q38 -16 62 -50.5t24 -77.5q0 -87 -64 -135.5t-164 -48.5q-62 0 -112 18q-33 -28 -33 -57q0 -40 46 -40h228q82 0 125 -36t43 -104q0 -85 -82 -139t-228 -54
q-125 0 -188.5 38.5t-63.5 95.5q0 21 8 37.5t24.5 28.5t30 19t37.5 16q-33 11 -52 36t-19 58q0 71 91 117q-82 50 -82 146q0 94 65.5 148t170.5 54zM395 -30h-244q-22 -27 -22 -65q0 -48 40 -74t114 -26q95 0 148.5 25.5t53.5 75.5q0 37 -22.5 50.5t-67.5 13.5zM304 214
q47 0 70 32.5t23 87.5q0 63 -30 109t-89 46q-46 0 -69.5 -32.5t-23.5 -87.5q0 -63 30 -109t89 -46z" />
    <glyph glyph-name="Gbreve" unicode="&#x11e;" horiz-adv-x="896" 
d="M471 831q-94 0 -136 50.5t-42 148.5h47q14 -122 131 -122t131 122h47q0 -98 -42 -148.5t-136 -50.5zM49 375q0 187 120 301t299 114q166 0 275 -71l6 -172h-52q-32 94 -90 135.5t-149 41.5q-70 0 -122 -24.5t-82 -68.5t-44.5 -98t-14.5 -119q0 -97 29 -175.5t94 -129.5
t158 -51q114 0 163 51v137q0 47 -24.5 62.5t-85.5 17.5v49h350v-49q-61 -2 -85.5 -17.5t-24.5 -62.5v-176q-129 -80 -310 -80q-127 0 -222 54t-141.5 140t-46.5 191z" />
    <glyph glyph-name="gbreve" unicode="&#x11f;" horiz-adv-x="600" 
d="M300 544q51 0 93 -14l194 5v-75h-41l-113 16v-2q38 -16 62 -50.5t24 -77.5q0 -87 -64 -135.5t-164 -48.5q-62 0 -112 18q-33 -28 -33 -57q0 -40 46 -40h228q82 0 125 -36t43 -104q0 -85 -82 -139t-228 -54q-125 0 -188.5 38.5t-63.5 95.5q0 21 8 37.5t24.5 28.5t30 19
t37.5 16q-33 11 -52 36t-19 58q0 71 91 117q-82 50 -82 146q0 94 65.5 148t170.5 54zM395 -30h-244q-22 -27 -22 -65q0 -48 40 -74t114 -26q95 0 148.5 25.5t53.5 75.5q0 37 -22.5 50.5t-67.5 13.5zM304 214q47 0 70 32.5t23 87.5q0 63 -30 109t-89 46q-46 0 -69.5 -32.5
t-23.5 -87.5q0 -63 30 -109t89 -46zM284 601q-94 0 -136 50.5t-42 148.5h47q14 -122 131 -122t131 122h47q0 -98 -42 -148.5t-136 -50.5z" />
    <glyph glyph-name="Gdotaccent" unicode="&#x120;" horiz-adv-x="896" 
d="M391 921q0 33 23 55.5t57 22.5t56.5 -22.5t22.5 -55.5t-22.5 -55.5t-56.5 -22.5t-57 22.5t-23 55.5zM49 375q0 187 120 301t299 114q166 0 275 -71l6 -172h-52q-32 94 -90 135.5t-149 41.5q-70 0 -122 -24.5t-82 -68.5t-44.5 -98t-14.5 -119q0 -97 29 -175.5t94 -129.5
t158 -51q114 0 163 51v137q0 47 -24.5 62.5t-85.5 17.5v49h350v-49q-61 -2 -85.5 -17.5t-24.5 -62.5v-176q-129 -80 -310 -80q-127 0 -222 54t-141.5 140t-46.5 191z" />
    <glyph glyph-name="gdotaccent" unicode="&#x121;" horiz-adv-x="600" 
d="M300 544q51 0 93 -14l194 5v-75h-41l-113 16v-2q38 -16 62 -50.5t24 -77.5q0 -87 -64 -135.5t-164 -48.5q-62 0 -112 18q-33 -28 -33 -57q0 -40 46 -40h228q82 0 125 -36t43 -104q0 -85 -82 -139t-228 -54q-125 0 -188.5 38.5t-63.5 95.5q0 21 8 37.5t24.5 28.5t30 19
t37.5 16q-33 11 -52 36t-19 58q0 71 91 117q-82 50 -82 146q0 94 65.5 148t170.5 54zM395 -30h-244q-22 -27 -22 -65q0 -48 40 -74t114 -26q95 0 148.5 25.5t53.5 75.5q0 37 -22.5 50.5t-67.5 13.5zM304 214q47 0 70 32.5t23 87.5q0 63 -30 109t-89 46q-46 0 -69.5 -32.5
t-23.5 -87.5q0 -63 30 -109t89 -46zM202 697q0 33 23 55.5t57 22.5t56.5 -22.5t22.5 -55.5t-22.5 -55t-56.5 -22t-57 22.5t-23 54.5z" />
    <glyph glyph-name="Gcommaaccent" unicode="&#x122;" horiz-adv-x="896" 
d="M487 -168h-40q-51 13 -51 61q0 24 19.5 42t50.5 18q37 0 58 -24t21 -63q0 -112 -133 -116v41q39 4 55 12.5t20 28.5zM49 375q0 187 120 301t299 114q166 0 275 -71l6 -172h-52q-32 94 -90 135.5t-149 41.5q-70 0 -122 -24.5t-82 -68.5t-44.5 -98t-14.5 -119
q0 -97 29 -175.5t94 -129.5t158 -51q114 0 163 51v137q0 47 -24.5 62.5t-85.5 17.5v49h350v-49q-61 -2 -85.5 -17.5t-24.5 -62.5v-176q-129 -80 -310 -80q-127 0 -222 54t-141.5 140t-46.5 191z" />
    <glyph glyph-name="gcommaaccent" unicode="&#x123;" horiz-adv-x="600" 
d="M300 544q51 0 93 -14l194 5v-75h-41l-113 16v-2q38 -16 62 -50.5t24 -77.5q0 -87 -64 -135.5t-164 -48.5q-62 0 -112 18q-33 -28 -33 -57q0 -40 46 -40h228q82 0 125 -36t43 -104q0 -85 -82 -139t-228 -54q-125 0 -188.5 38.5t-63.5 95.5q0 21 8 37.5t24.5 28.5t30 19
t37.5 16q-33 11 -52 36t-19 58q0 71 91 117q-82 50 -82 146q0 94 65.5 148t170.5 54zM395 -30h-244q-22 -27 -22 -65q0 -48 40 -74t114 -26q95 0 148.5 25.5t53.5 75.5q0 37 -22.5 50.5t-67.5 13.5zM304 214q47 0 70 32.5t23 87.5q0 63 -30 109t-89 46q-46 0 -69.5 -32.5
t-23.5 -87.5q0 -63 30 -109t89 -46zM266 722h40q51 -13 51 -61q0 -24 -19.5 -42t-50.5 -18q-37 0 -58 24t-21 63q0 112 133 116v-41q-39 -4 -55 -12.5t-20 -28.5z" />
    <glyph glyph-name="Hcircumflex" unicode="&#x124;" horiz-adv-x="986" 
d="M702 128v240h-418v-240q0 -46 24 -61.5t85 -17.5v-49h-349v49q61 2 85 17.5t24 61.5v524q0 46 -24 61.5t-85 17.5v49h349v-49q-61 -2 -85 -17.5t-24 -61.5v-224h418v224q0 46 -24 61.5t-85 17.5v49h349v-49q-61 -2 -85 -17.5t-24 -61.5v-524q0 -46 24 -61.5t85 -17.5v-49
h-349v49q61 2 85 17.5t24 61.5zM531 1030l152 -208h-56l-135 119l-135 -119h-56l152 208h78z" />
    <glyph glyph-name="hcircumflex" unicode="&#x125;" horiz-adv-x="708" 
d="M113 703l-71 33v26l160 48h36l-5 -86v-278q37 41 91 69.5t110 28.5q77 0 122 -40t45 -124v-279q0 -31 17.5 -41.5t58.5 -15.5v-44h-271v44q28 4 41.5 7.5t24 15.5t10.5 34v263q0 49 -24.5 70t-73.5 21q-36 0 -78.5 -15.5t-72.5 -38.5v-300q0 -31 17.5 -41.5t58.5 -15.5
v-44h-272v44q28 4 41.5 7.5t24 15.5t10.5 34v602zM215 1030l152 -208h-56l-135 119l-135 -119h-56l152 208h78z" />
    <glyph glyph-name="Hbar" unicode="&#x126;" horiz-adv-x="986" 
d="M833 546v-418q0 -46 24 -61.5t85 -17.5v-49h-349v49q61 2 85 17.5t24 61.5v240h-418v-240q0 -46 24 -61.5t85 -17.5v-49h-349v49q61 2 85 17.5t24 61.5v418h-99v57h99v49q0 46 -24 61.5t-85 17.5v49h349v-49q-61 -2 -85 -17.5t-24 -61.5v-49h418v49q0 46 -24 61.5
t-85 17.5v49h349v-49q-61 -2 -85 -17.5t-24 -61.5v-49h99v-57h-99zM284 428h418v118h-418v-118z" />
    <glyph glyph-name="hbar" unicode="&#x127;" horiz-adv-x="708" 
d="M113 705l-71 31v26l160 48h36l-5 -86v-72h181v-48h-181v-158q37 41 91 69.5t110 28.5q77 0 122 -40t45 -124v-279q0 -31 17.5 -41.5t58.5 -15.5v-44h-271v44q28 4 41.5 7.5t24 15.5t10.5 34v263q0 49 -24.5 70t-73.5 21q-36 0 -78.5 -15.5t-72.5 -38.5v-300
q0 -31 17.5 -41.5t58.5 -15.5v-44h-272v44q28 4 41.5 7.5t24 15.5t10.5 34v503h-73v48h73v53z" />
    <glyph glyph-name="Itilde" unicode="&#x128;" horiz-adv-x="437" 
d="M153 128v524q0 46 -24 61.5t-85 17.5v49h349v-49q-61 -2 -85 -17.5t-24 -61.5v-524q0 -46 24 -61.5t85 -17.5v-49h-349v49q61 2 85 17.5t24 61.5zM283 846q-33 0 -83 29t-69 29q-23 0 -37 -11t-31 -42l-44 7q24 68 56 100t79 32q33 0 83 -29t69 -29q24 0 37.5 11t30.5 42
l44 -7q-23 -69 -55 -100.5t-80 -31.5z" />
    <glyph glyph-name="itilde" unicode="&#x129;" horiz-adv-x="361" 
d="M247 442v-341q0 -31 17.5 -41.5t58.5 -15.5v-44h-272v44q28 4 41.5 7.5t24 15.5t10.5 34v327l-71 39v27l160 51h36zM252 610q-33 0 -83 29.5t-69 29.5q-24 0 -37.5 -11.5t-30.5 -42.5l-44 7q24 69 56 101t79 32q33 0 83 -29.5t69 -29.5q24 0 37.5 11.5t30.5 42.5l44 -7
q-24 -69 -55.5 -101t-79.5 -32z" />
    <glyph glyph-name="Imacron" unicode="&#x12a;" horiz-adv-x="437" 
d="M153 128v524q0 46 -24 61.5t-85 17.5v49h349v-49q-61 -2 -85 -17.5t-24 -61.5v-524q0 -46 24 -61.5t85 -17.5v-49h-349v49q61 2 85 17.5t24 61.5zM78 866v70h280v-70h-280z" />
    <glyph glyph-name="imacron" unicode="&#x12b;" horiz-adv-x="361" 
d="M247 442v-341q0 -31 17.5 -41.5t58.5 -15.5v-44h-272v44q28 4 41.5 7.5t24 15.5t10.5 34v327l-71 39v27l160 51h36zM47 640v70h280v-70h-280z" />
    <glyph glyph-name="Ibreve" unicode="&#x12c;" horiz-adv-x="437" 
d="M153 128v524q0 46 -24 61.5t-85 17.5v49h349v-49q-61 -2 -85 -17.5t-24 -61.5v-524q0 -46 24 -61.5t85 -17.5v-49h-349v49q61 2 85 17.5t24 61.5zM218 831q-94 0 -136 50.5t-42 148.5h47q14 -122 131 -122t131 122h47q0 -98 -42 -148.5t-136 -50.5z" />
    <glyph glyph-name="ibreve" unicode="&#x12d;" horiz-adv-x="361" 
d="M247 442v-341q0 -31 17.5 -41.5t58.5 -15.5v-44h-272v44q28 4 41.5 7.5t24 15.5t10.5 34v327l-71 39v27l160 51h36zM187 601q-94 0 -136 50.5t-42 148.5h47q14 -122 131 -122t131 122h47q0 -98 -42 -148.5t-136 -50.5z" />
    <glyph glyph-name="Iogonek" unicode="&#x12e;" horiz-adv-x="437" 
d="M301 0h-257v49q61 2 85 17.5t24 61.5v524q0 46 -24 61.5t-85 17.5v49h349v-49q-61 -2 -85 -17.5t-24 -61.5v-524q0 -46 24 -61.5t85 -17.5v-49q-121 -45 -121 -124q0 -30 18 -47t52 -17q40 0 66 17l10 -34q-43 -45 -110 -45q-54 0 -88 27.5t-34 83.5q0 84 115 139z" />
    <glyph glyph-name="iogonek" unicode="&#x12f;" horiz-adv-x="361" 
d="M107 699q0 33 22.5 55.5t56.5 22.5q35 0 57.5 -22.5t22.5 -55.5t-22.5 -55t-57.5 -22q-34 0 -56.5 22t-22.5 55zM224 0h-173v44q28 4 41.5 7.5t24 15.5t10.5 34v327l-71 39v27l160 51h36l-5 -103v-341q0 -31 17.5 -41.5t58.5 -15.5v-44q-121 -45 -121 -124q0 -30 18 -47
t52 -17q40 0 66 17l10 -34q-42 -45 -110 -45q-53 0 -87.5 27.5t-34.5 83.5q0 87 108 139z" />
    <glyph glyph-name="Idotaccent" unicode="&#x130;" horiz-adv-x="437" 
d="M153 128v524q0 46 -24 61.5t-85 17.5v49h349v-49q-61 -2 -85 -17.5t-24 -61.5v-524q0 -46 24 -61.5t85 -17.5v-49h-349v49q61 2 85 17.5t24 61.5zM138 921q0 33 23 55.5t57 22.5t56.5 -22.5t22.5 -55.5t-22.5 -55.5t-56.5 -22.5t-57 22.5t-23 55.5z" />
    <glyph glyph-name="dotlessi" unicode="&#x131;" horiz-adv-x="361" 
d="M247 442v-341q0 -31 17.5 -41.5t58.5 -15.5v-44h-272v44q28 4 41.5 7.5t24 15.5t10.5 34v327l-71 39v27l160 51h36z" />
    <glyph glyph-name="IJ" unicode="&#x132;" horiz-adv-x="983" 
d="M153 128v524q0 46 -24 61.5t-85 17.5v49h349v-49q-61 -2 -85 -17.5t-24 -61.5v-524q0 -46 24 -61.5t85 -17.5v-49h-349v49q61 2 85 17.5t24 61.5zM852 652v-431q0 -116 -60.5 -173.5t-172.5 -57.5q-100 0 -156 36.5t-56 102.5q0 55 36 82h93v-53q0 -115 83 -115
q52 0 77 35.5t25 121.5v452q0 46 -24 61.5t-85 17.5v49h349v-49q-61 -2 -85 -17.5t-24 -61.5z" />
    <glyph glyph-name="ij" unicode="&#x133;" horiz-adv-x="611" 
d="M127 428l-71 39v27l160 51h36l-5 -103v-341q0 -31 17.5 -41.5t58.5 -15.5v-44h-272v44q28 4 41.5 7.5t24 15.5t10.5 34v327zM107 699q0 33 22.5 55.5t56.5 22.5q35 0 57.5 -22.5t22.5 -55.5t-22.5 -55t-57.5 -22q-34 0 -56.5 22t-22.5 55zM411 428l-71 39v27l160 51h36
l-5 -103v-373q0 -68 -8.5 -103t-29.5 -71q-40 -64 -139 -142l-33 29l47 76q43 68 43 184v386zM390 699q0 33 22.5 55.5t57.5 22.5q34 0 56.5 -22.5t22.5 -55.5t-22.5 -55t-56.5 -22q-35 0 -57.5 22t-22.5 55z" />
    <glyph glyph-name="Jcircumflex" unicode="&#x134;" horiz-adv-x="608" 
d="M478 652v-427q0 -116 -65 -175.5t-183 -59.5q-106 0 -167 38.5t-61 104.5q0 50 36 78h94v-49q0 -59 27.5 -89t76.5 -30q111 0 111 165v444q0 46 -24 61.5t-85 17.5v49h349v-49q-61 -2 -85 -17.5t-24 -61.5zM448 1030l152 -208h-56l-135 119l-135 -119h-56l152 208h78z
" />
    <glyph glyph-name="jcircumflex" unicode="&#x135;" horiz-adv-x="301" 
d="M101 428l-71 39v27l160 51h36l-5 -103v-373q0 -68 -8.5 -103t-29.5 -71q-36 -60 -138 -142l-34 29l47 76q43 68 43 184v386zM197 800l152 -208h-56l-135 119l-135 -119h-56l152 208h78z" />
    <glyph glyph-name="Kcommaaccent" unicode="&#x136;" horiz-adv-x="856" 
d="M463 -168h-40q-51 13 -51 61q0 24 19.5 42t50.5 18q37 0 58 -24t21 -63q0 -112 -133 -116v41q39 4 55 12.5t20 28.5zM427 435l312 -324q32 -33 53 -45.5t58 -16.5v-49h-163q-49 26 -115 96l-283 301l296 259q28 24 28 44q0 15 -16.5 21t-71.5 10v49h297v-49
q-61 -4 -116 -52zM153 128v524q0 46 -24 61.5t-85 17.5v49h349v-49q-61 -2 -85 -17.5t-24 -61.5v-524q0 -46 24 -61.5t85 -17.5v-49h-349v49q61 2 85 17.5t24 61.5z" />
    <glyph glyph-name="kcommaaccent" unicode="&#x137;" horiz-adv-x="647" 
d="M367 -168h-40q-51 13 -51 61q0 24 19.5 42t50.5 18q37 0 58 -24t21 -63q0 -112 -133 -116v41q39 4 55 12.5t20 28.5zM238 278l170 146q20 17 20 31q0 17 -13 23t-55 12v44h248v-44q-55 -16 -88 -42l-161 -136l282 -276v-36h-132zM233 724v-623q0 -31 17.5 -41.5
t58.5 -15.5v-44h-272v44q28 4 41.5 7.5t24 15.5t10.5 34v602l-71 33v26l160 48h36z" />
    <glyph glyph-name="kgreenlandic" unicode="&#x138;" horiz-adv-x="661" 
d="M127 428l-71 39v27l160 51h36l-5 -103v-341q0 -31 17.5 -41.5t58.5 -15.5v-44h-272v44q28 4 41.5 7.5t24 15.5t10.5 34v327zM252 278l170 146q20 17 20 31q0 17 -13 23t-55 12v44h248v-44q-55 -16 -88 -42l-161 -136l282 -276v-36h-132z" />
    <glyph glyph-name="Lacute" unicode="&#x139;" horiz-adv-x="759" 
d="M288 1030h140l-171 -208h-55zM284 652v-517q0 -44 25 -59.5t85 -15.5h103q24 0 42 3t35 14.5t26.5 19t27 34.5t26 41.5t32.5 56.5h48l-38 -229h-652v49q61 2 85 17.5t24 61.5v524q0 46 -24 61.5t-85 17.5v49h349v-49q-61 -2 -85 -17.5t-24 -61.5z" />
    <glyph glyph-name="lacute" unicode="&#x13a;" horiz-adv-x="351" 
d="M225 1030h140l-171 -208h-55zM237 724v-623q0 -31 17.5 -41.5t58.5 -15.5v-44h-272v44q28 4 41.5 7.5t24 15.5t10.5 34v602l-71 33v26l160 48h36z" />
    <glyph glyph-name="Lcommaaccent" unicode="&#x13b;" horiz-adv-x="759" 
d="M405 -168h-40q-51 13 -51 61q0 24 19.5 42t50.5 18q37 0 58 -24t21 -63q0 -112 -133 -116v41q39 4 55 12.5t20 28.5zM284 652v-517q0 -44 25 -59.5t85 -15.5h103q24 0 42 3t35 14.5t26.5 19t27 34.5t26 41.5t32.5 56.5h48l-38 -229h-652v49q61 2 85 17.5t24 61.5v524
q0 46 -24 61.5t-85 17.5v49h349v-49q-61 -2 -85 -17.5t-24 -61.5z" />
    <glyph glyph-name="lcommaaccent" unicode="&#x13c;" horiz-adv-x="351" 
d="M194 -168h-40q-51 13 -51 61q0 24 19.5 42t50.5 18q37 0 58 -24t21 -63q0 -112 -133 -116v41q39 4 55 12.5t20 28.5zM237 724v-623q0 -31 17.5 -41.5t58.5 -15.5v-44h-272v44q28 4 41.5 7.5t24 15.5t10.5 34v602l-71 33v26l160 48h36z" />
    <glyph glyph-name="Lcaron" unicode="&#x13d;" horiz-adv-x="759" 
d="M490 780h114l-71 -208h-54zM284 652v-517q0 -44 25 -59.5t85 -15.5h103q24 0 42 3t35 14.5t26.5 19t27 34.5t26 41.5t32.5 56.5h48l-38 -229h-652v49q61 2 85 17.5t24 61.5v524q0 46 -24 61.5t-85 17.5v49h349v-49q-61 -2 -85 -17.5t-24 -61.5z" />
    <glyph glyph-name="lcaron" unicode="&#x13e;" horiz-adv-x="351" 
d="M292 800h114l-71 -208h-54zM237 724v-623q0 -31 17.5 -41.5t58.5 -15.5v-44h-272v44q28 4 41.5 7.5t24 15.5t10.5 34v602l-71 33v26l160 48h36z" />
    <glyph glyph-name="Ldot" unicode="&#x13f;" horiz-adv-x="759" 
d="M284 652v-517q0 -44 25 -59.5t85 -15.5h103q24 0 42 3t35 14.5t26.5 19t27 34.5t26 41.5t32.5 56.5h48l-38 -229h-652v49q61 2 85 17.5t24 61.5v524q0 46 -24 61.5t-85 17.5v49h349v-49q-61 -2 -85 -17.5t-24 -61.5zM517 399q0 34 23.5 58t57.5 24t57.5 -24t23.5 -58
q0 -33 -23.5 -56.5t-57.5 -23.5t-57.5 23.5t-23.5 56.5z" />
    <glyph glyph-name="ldot" unicode="&#x140;" horiz-adv-x="404" 
d="M298 335q0 34 23.5 57.5t57.5 23.5t57.5 -23.5t23.5 -57.5t-23.5 -57.5t-57.5 -23.5t-57.5 23.5t-23.5 57.5zM237 724v-623q0 -31 17.5 -41.5t58.5 -15.5v-44h-272v44q28 4 41.5 7.5t24 15.5t10.5 34v602l-71 33v26l160 48h36z" />
    <glyph glyph-name="Lslash" unicode="&#x141;" horiz-adv-x="759" 
d="M44 269v62l109 47v274q0 46 -24 61.5t-85 17.5v49h349v-49q-61 -2 -85 -17.5t-24 -61.5v-224l193 83v-62l-193 -83v-231q0 -44 25 -59.5t85 -15.5h103q24 0 42 3t35 14.5t26.5 19t27 34.5t26 41.5t32.5 56.5h48l-38 -229h-652v49q61 2 85 17.5t24 61.5v188z" />
    <glyph glyph-name="lslash" unicode="&#x142;" horiz-adv-x="358" 
d="M240 724v-236l82 52v-57l-82 -52v-330q0 -31 17.5 -41.5t58.5 -15.5v-44h-272v44q28 4 41.5 7.5t24 15.5t10.5 34v267l-78 -48v57l78 48v278l-71 33v26l160 48h36z" />
    <glyph glyph-name="Nacute" unicode="&#x143;" horiz-adv-x="958" 
d="M543 1030h140l-171 -208h-55zM153 128v538q-34 40 -53 52t-56 13v49h211l486 -560v432q0 46 -25.5 61.5t-86.5 17.5v49h295v-49q-61 -2 -85 -17.5t-24 -61.5v-652h-53l-535 610v-482q0 -46 25.5 -61.5t86.5 -17.5v-49h-295v49q61 2 85 17.5t24 61.5z" />
    <glyph glyph-name="nacute" unicode="&#x144;" horiz-adv-x="722" 
d="M425 800h140l-171 -208h-55zM496 101v263q0 49 -24 70t-73 21q-37 0 -79 -15.5t-73 -38.5v-300q0 -31 17.5 -41.5t58.5 -15.5v-44h-272v44q28 4 41.5 7.5t24 15.5t10.5 34v327l-71 39v27l160 51h36l-5 -99q37 40 91 69t110 29q78 0 123 -40t45 -124v-279
q0 -31 17.5 -41.5t58.5 -15.5v-44h-272v44q28 4 41.5 7.5t24 15.5t10.5 34z" />
    <glyph glyph-name="Ncommaaccent" unicode="&#x145;" horiz-adv-x="958" 
d="M505 -168h-40q-51 13 -51 61q0 24 19.5 42t50.5 18q37 0 58 -24t21 -63q0 -112 -133 -116v41q39 4 55 12.5t20 28.5zM153 128v538q-34 40 -53 52t-56 13v49h211l486 -560v432q0 46 -25.5 61.5t-86.5 17.5v49h295v-49q-61 -2 -85 -17.5t-24 -61.5v-652h-53l-535 610v-482
q0 -46 25.5 -61.5t86.5 -17.5v-49h-295v49q61 2 85 17.5t24 61.5z" />
    <glyph glyph-name="ncommaaccent" unicode="&#x146;" horiz-adv-x="722" 
d="M387 -168h-40q-51 13 -51 61q0 24 19.5 42t50.5 18q37 0 58 -24t21 -63q0 -112 -133 -116v41q39 4 55 12.5t20 28.5zM496 101v263q0 49 -24 70t-73 21q-37 0 -79 -15.5t-73 -38.5v-300q0 -31 17.5 -41.5t58.5 -15.5v-44h-272v44q28 4 41.5 7.5t24 15.5t10.5 34v327
l-71 39v27l160 51h36l-5 -99q37 40 91 69t110 29q78 0 123 -40t45 -124v-279q0 -31 17.5 -41.5t58.5 -15.5v-44h-272v44q28 4 41.5 7.5t24 15.5t10.5 34z" />
    <glyph glyph-name="Ncaron" unicode="&#x147;" horiz-adv-x="958" 
d="M449 822l-152 208h56l135 -119l135 119h56l-152 -208h-78zM153 128v538q-34 40 -53 52t-56 13v49h211l486 -560v432q0 46 -25.5 61.5t-86.5 17.5v49h295v-49q-61 -2 -85 -17.5t-24 -61.5v-652h-53l-535 610v-482q0 -46 25.5 -61.5t86.5 -17.5v-49h-295v49q61 2 85 17.5
t24 61.5z" />
    <glyph glyph-name="ncaron" unicode="&#x148;" horiz-adv-x="722" 
d="M332 592l-152 208h56l135 -119l135 119h56l-152 -208h-78zM496 101v263q0 49 -24 70t-73 21q-37 0 -79 -15.5t-73 -38.5v-300q0 -31 17.5 -41.5t58.5 -15.5v-44h-272v44q28 4 41.5 7.5t24 15.5t10.5 34v327l-71 39v27l160 51h36l-5 -99q37 40 91 69t110 29q78 0 123 -40
t45 -124v-279q0 -31 17.5 -41.5t58.5 -15.5v-44h-272v44q28 4 41.5 7.5t24 15.5t10.5 34z" />
    <glyph glyph-name="Eng" unicode="&#x14a;" horiz-adv-x="958" 
d="M741 24l-514 586v-482q0 -46 25.5 -61.5t86.5 -17.5v-49h-295v49q61 2 85 17.5t24 61.5v538q-34 40 -53 52t-56 13v49h211l486 -560v432q0 46 -25.5 61.5t-86.5 17.5v49h295v-49q-61 -2 -85 -17.5t-24 -61.5v-695q0 -207 -191 -207q-80 0 -129.5 30t-49.5 86q0 45 39 72
h81v-33q0 -101 82 -101q94 0 94 131v89z" />
    <glyph glyph-name="eng" unicode="&#x14b;" horiz-adv-x="682" 
d="M495 364q0 49 -24 70t-72 21q-37 0 -79 -15.5t-73 -38.5v-300q0 -31 17.5 -41.5t58.5 -15.5v-44h-272v44q28 4 41.5 7.5t24 15.5t10.5 34v327l-71 39v27l160 51h36l-5 -99q37 40 91 69t110 29q78 0 122.5 -40t44.5 -124v-448q0 -84 -54 -133t-149 -49q-76 0 -116 29
t-40 73q0 40 30 55h75v-28q0 -34 16 -57t48 -23q39 0 54.5 27t15.5 88v450z" />
    <glyph glyph-name="Omacron" unicode="&#x14c;" horiz-adv-x="894" 
d="M307 866v70h280v-70h-280zM467 60q115 0 174 85.5t59 221.5q0 96 -29 174t-92.5 128.5t-151.5 50.5q-116 0 -175 -85.5t-59 -221.5q0 -96 29 -174t92.5 -128.5t152.5 -50.5zM436 -10q-117 0 -206.5 54.5t-135 141.5t-45.5 189q0 187 117.5 301t291.5 114t280.5 -113.5
t106.5 -271.5q0 -187 -118 -301t-291 -114z" />
    <glyph glyph-name="omacron" unicode="&#x14d;" horiz-adv-x="636" 
d="M178 640v70h280v-70h-280zM336 54q67 0 101 51t34 137q0 104 -45.5 171t-125.5 67q-67 0 -101 -51t-34 -137q0 -104 45.5 -171t125.5 -67zM308 -10q-120 0 -195 75t-75 192q0 129 83.5 208t206.5 79q120 0 195.5 -75t75.5 -192q0 -129 -84 -208t-207 -79z" />
    <glyph glyph-name="Obreve" unicode="&#x14e;" horiz-adv-x="894" 
d="M447 831q-94 0 -136 50.5t-42 148.5h47q14 -122 131 -122t131 122h47q0 -98 -42 -148.5t-136 -50.5zM467 60q115 0 174 85.5t59 221.5q0 96 -29 174t-92.5 128.5t-151.5 50.5q-116 0 -175 -85.5t-59 -221.5q0 -96 29 -174t92.5 -128.5t152.5 -50.5zM436 -10
q-117 0 -206.5 54.5t-135 141.5t-45.5 189q0 187 117.5 301t291.5 114t280.5 -113.5t106.5 -271.5q0 -187 -118 -301t-291 -114z" />
    <glyph glyph-name="obreve" unicode="&#x14f;" horiz-adv-x="636" 
d="M336 54q67 0 101 51t34 137q0 104 -45.5 171t-125.5 67q-67 0 -101 -51t-34 -137q0 -104 45.5 -171t125.5 -67zM308 -10q-120 0 -195 75t-75 192q0 129 83.5 208t206.5 79q120 0 195.5 -75t75.5 -192q0 -129 -84 -208t-207 -79zM318 601q-94 0 -136 50.5t-42 148.5h47
q14 -122 131 -122t131 122h47q0 -98 -42 -148.5t-136 -50.5z" />
    <glyph glyph-name="Ohungarumlaut" unicode="&#x150;" horiz-adv-x="894" 
d="M467 60q115 0 174 85.5t59 221.5q0 96 -29 174t-92.5 128.5t-151.5 50.5q-116 0 -175 -85.5t-59 -221.5q0 -96 29 -174t92.5 -128.5t152.5 -50.5zM436 -10q-117 0 -206.5 54.5t-135 141.5t-45.5 189q0 187 117.5 301t291.5 114t280.5 -113.5t106.5 -271.5
q0 -187 -118 -301t-291 -114zM400 1030h112l-126 -208h-53zM567 1030h112l-126 -208h-53z" />
    <glyph glyph-name="ohungarumlaut" unicode="&#x151;" horiz-adv-x="636" 
d="M265 800h112l-126 -208h-53zM432 800h112l-126 -208h-53zM336 54q67 0 101 51t34 137q0 104 -45.5 171t-125.5 67q-67 0 -101 -51t-34 -137q0 -104 45.5 -171t125.5 -67zM308 -10q-120 0 -195 75t-75 192q0 129 83.5 208t206.5 79q120 0 195.5 -75t75.5 -192
q0 -129 -84 -208t-207 -79z" />
    <glyph glyph-name="OE" unicode="&#x152;" horiz-adv-x="1295" 
d="M436 -10q-117 0 -206.5 54.5t-135 141.5t-45.5 189q0 187 117.5 301t291.5 114q43 0 93 -10h649l3 -191h-44q-31 74 -64.5 102.5t-99.5 28.5h-307q70 -50 110 -127t45 -165h123q36 0 54.5 23t27.5 75h46v-255h-46q-9 52 -27.5 74.5t-54.5 22.5h-123q-15 -204 -171 -308
h330q48 0 78 14.5t50.5 40t62.5 91.5h47l-35 -206h-673q-53 -10 -96 -10zM467 60q115 0 174 85.5t59 221.5q0 96 -29 174t-92.5 128.5t-151.5 50.5q-116 0 -175 -85.5t-59 -221.5q0 -96 29 -174t92.5 -128.5t152.5 -50.5z" />
    <glyph glyph-name="oe" unicode="&#x153;" horiz-adv-x="1002" 
d="M741 544q107 0 165.5 -60t58.5 -154v-30h-382q0 -100 47 -156t140 -56q102 0 164 77l32 -15q-21 -67 -79.5 -113.5t-156.5 -46.5q-141 0 -203 107q-74 -107 -219 -107q-120 0 -195 75t-75 192q0 129 83.5 208t206.5 79q143 0 210 -108q68 108 203 108zM336 54
q67 0 101 51t34 137q0 104 -45.5 171t-125.5 67q-67 0 -101 -51t-34 -137q0 -104 45.5 -171t125.5 -67zM717 480q-54 0 -88.5 -35t-42.5 -93h256q0 56 -32.5 92t-92.5 36z" />
    <glyph glyph-name="Racute" unicode="&#x154;" horiz-adv-x="859" 
d="M378 720h-94v-313h94q106 0 151 37.5t45 120.5q0 71 -47.5 113t-148.5 42zM44 780h376q84 0 144 -17.5t93 -49t47.5 -68t14.5 -80.5q0 -93 -67.5 -146t-173.5 -63q65 -14 121 -79l142 -161q32 -36 53.5 -49.5t58.5 -17.5v-49h-161q-26 15 -45 33t-57 61l-171 194
q-29 32 -54.5 45t-65.5 13h-15v-218q0 -46 24 -61.5t85 -17.5v-49h-349v49q61 2 85 17.5t24 61.5v524q0 46 -24 61.5t-85 17.5v49zM433 1030h140l-171 -208h-55z" />
    <glyph glyph-name="racute" unicode="&#x155;" horiz-adv-x="485" 
d="M330 800h140l-171 -208h-55zM252 545l-5 -158q41 80 79 118.5t91 38.5q31 0 49 -14v-107h-38q-53 0 -95 -17t-86 -65v-237q0 -18 4 -28.5t18.5 -17t28 -8.5t45.5 -6v-44h-292v44q28 4 41.5 7.5t24 15.5t10.5 34v327l-71 39v27l160 51h36z" />
    <glyph glyph-name="Rcommaaccent" unicode="&#x156;" horiz-adv-x="859" 
d="M471 -168h-40q-51 13 -51 61q0 24 19.5 42t50.5 18q37 0 58 -24t21 -63q0 -112 -133 -116v41q39 4 55 12.5t20 28.5zM378 720h-94v-313h94q106 0 151 37.5t45 120.5q0 71 -47.5 113t-148.5 42zM44 780h376q84 0 144 -17.5t93 -49t47.5 -68t14.5 -80.5q0 -93 -67.5 -146
t-173.5 -63q65 -14 121 -79l142 -161q32 -36 53.5 -49.5t58.5 -17.5v-49h-161q-26 15 -45 33t-57 61l-171 194q-29 32 -54.5 45t-65.5 13h-15v-218q0 -46 24 -61.5t85 -17.5v-49h-349v49q61 2 85 17.5t24 61.5v524q0 46 -24 61.5t-85 17.5v49z" />
    <glyph glyph-name="rcommaaccent" unicode="&#x157;" horiz-adv-x="485" 
d="M210 -168h-40q-51 13 -51 61q0 24 19.5 42t50.5 18q37 0 58 -24t21 -63q0 -112 -133 -116v41q39 4 55 12.5t20 28.5zM252 545l-5 -158q41 80 79 118.5t91 38.5q31 0 49 -14v-107h-38q-53 0 -95 -17t-86 -65v-237q0 -18 4 -28.5t18.5 -17t28 -8.5t45.5 -6v-44h-292v44
q28 4 41.5 7.5t24 15.5t10.5 34v327l-71 39v27l160 51h36z" />
    <glyph glyph-name="Rcaron" unicode="&#x158;" horiz-adv-x="859" 
d="M369 822l-152 208h56l135 -119l135 119h56l-152 -208h-78zM378 720h-94v-313h94q106 0 151 37.5t45 120.5q0 71 -47.5 113t-148.5 42zM44 780h376q84 0 144 -17.5t93 -49t47.5 -68t14.5 -80.5q0 -93 -67.5 -146t-173.5 -63q65 -14 121 -79l142 -161q32 -36 53.5 -49.5
t58.5 -17.5v-49h-161q-26 15 -45 33t-57 61l-171 194q-29 32 -54.5 45t-65.5 13h-15v-218q0 -46 24 -61.5t85 -17.5v-49h-349v49q61 2 85 17.5t24 61.5v524q0 46 -24 61.5t-85 17.5v49z" />
    <glyph glyph-name="rcaron" unicode="&#x159;" horiz-adv-x="485" 
d="M236 592l-152 208h56l135 -119l135 119h56l-152 -208h-78zM252 545l-5 -158q41 80 79 118.5t91 38.5q31 0 49 -14v-107h-38q-53 0 -95 -17t-86 -65v-237q0 -18 4 -28.5t18.5 -17t28 -8.5t45.5 -6v-44h-292v44q28 4 41.5 7.5t24 15.5t10.5 34v327l-71 39v27l160 51h36z
" />
    <glyph glyph-name="Sacute" unicode="&#x15a;" horiz-adv-x="649" 
d="M300 -10q-73 0 -138 19t-104 50l-9 187h52q55 -194 213 -194q76 0 120.5 34.5t44.5 95.5q0 51 -31.5 81t-100.5 56l-106 39q-90 32 -137 78.5t-47 134.5q0 96 71 157.5t189 61.5q73 0 139 -18t105 -48v-170h-47q-45 174 -206 174q-65 0 -101 -32.5t-36 -88.5
q0 -48 27.5 -75.5t90.5 -49.5l110 -41q99 -36 148 -83t49 -139q0 -108 -83.5 -168.5t-212.5 -60.5zM373 1030h140l-171 -208h-55z" />
    <glyph glyph-name="sacute" unicode="&#x15b;" horiz-adv-x="511" 
d="M296 800h140l-171 -208h-55zM251 -10q-119 0 -192 52l-6 133h52q29 -129 147 -129q51 0 79.5 21.5t28.5 61.5q0 32 -21 49t-67 29l-72 21q-70 20 -105.5 55.5t-35.5 102.5q0 74 52 116t141 42q102 0 175 -43v-122h-50q-23 109 -130 109q-39 0 -62.5 -18.5t-23.5 -53.5
q0 -29 16.5 -44.5t54.5 -26.5l78 -22q77 -21 114 -58.5t37 -108.5q0 -78 -57.5 -122t-152.5 -44z" />
    <glyph glyph-name="Scircumflex" unicode="&#x15c;" horiz-adv-x="649" 
d="M300 -10q-73 0 -138 19t-104 50l-9 187h52q55 -194 213 -194q76 0 120.5 34.5t44.5 95.5q0 51 -31.5 81t-100.5 56l-106 39q-90 32 -137 78.5t-47 134.5q0 96 71 157.5t189 61.5q73 0 139 -18t105 -48v-170h-47q-45 174 -206 174q-65 0 -101 -32.5t-36 -88.5
q0 -48 27.5 -75.5t90.5 -49.5l110 -41q99 -36 148 -83t49 -139q0 -108 -83.5 -168.5t-212.5 -60.5zM357 1030l152 -208h-56l-135 119l-135 -119h-56l152 208h78z" />
    <glyph glyph-name="scircumflex" unicode="&#x15d;" horiz-adv-x="511" 
d="M289 800l152 -208h-56l-135 119l-135 -119h-56l152 208h78zM251 -10q-119 0 -192 52l-6 133h52q29 -129 147 -129q51 0 79.5 21.5t28.5 61.5q0 32 -21 49t-67 29l-72 21q-70 20 -105.5 55.5t-35.5 102.5q0 74 52 116t141 42q102 0 175 -43v-122h-50q-23 109 -130 109
q-39 0 -62.5 -18.5t-23.5 -53.5q0 -29 16.5 -44.5t54.5 -26.5l78 -22q77 -21 114 -58.5t37 -108.5q0 -78 -57.5 -122t-152.5 -44z" />
    <glyph glyph-name="Scedilla" unicode="&#x15e;" horiz-adv-x="649" 
d="M596 219q0 -103 -76 -163t-196 -65l-7 -34q120 -22 120 -106q0 -46 -35.5 -73.5t-87.5 -27.5q-53 0 -88 25l11 33q37 -15 69 -15q28 0 45 11t17 30q0 43 -101 57l20 99q-69 2 -131 21t-98 48l-9 187h52q55 -194 213 -194q76 0 120.5 34.5t44.5 95.5q0 51 -31.5 81
t-100.5 56l-106 39q-90 32 -137 78.5t-47 134.5q0 96 71 157.5t189 61.5q73 0 139 -18t105 -48v-170h-47q-45 174 -206 174q-65 0 -101 -32.5t-36 -88.5q0 -48 27.5 -75.5t90.5 -49.5l110 -41q99 -36 148 -83t49 -139z" />
    <glyph glyph-name="scedilla" unicode="&#x15f;" horiz-adv-x="511" 
d="M461 156q0 -76 -55.5 -120t-147.5 -46l-7 -33q120 -22 120 -106q0 -46 -35.5 -73.5t-87.5 -27.5q-53 0 -88 25l11 33q37 -15 69 -15q28 0 45 11t17 30q0 43 -101 57l20 100q-102 7 -162 51l-6 133h52q29 -129 147 -129q51 0 79.5 21.5t28.5 61.5q0 32 -21 49t-67 29
l-72 21q-70 20 -105.5 55.5t-35.5 102.5q0 74 52 116t141 42q102 0 175 -43v-122h-50q-23 109 -130 109q-39 0 -62.5 -18.5t-23.5 -53.5q0 -29 16.5 -44.5t54.5 -26.5l78 -22q77 -21 114 -58.5t37 -108.5z" />
    <glyph glyph-name="Scaron" unicode="&#x160;" horiz-adv-x="649" 
d="M300 -10q-73 0 -138 19t-104 50l-9 187h52q55 -194 213 -194q76 0 120.5 34.5t44.5 95.5q0 51 -31.5 81t-100.5 56l-106 39q-90 32 -137 78.5t-47 134.5q0 96 71 157.5t189 61.5q73 0 139 -18t105 -48v-170h-47q-45 174 -206 174q-65 0 -101 -32.5t-36 -88.5
q0 -48 27.5 -75.5t90.5 -49.5l110 -41q99 -36 148 -83t49 -139q0 -108 -83.5 -168.5t-212.5 -60.5zM279 822l-152 208h56l135 -119l135 119h56l-152 -208h-78z" />
    <glyph glyph-name="scaron" unicode="&#x161;" horiz-adv-x="511" 
d="M211 592l-152 208h56l135 -119l135 119h56l-152 -208h-78zM251 -10q-119 0 -192 52l-6 133h52q29 -129 147 -129q51 0 79.5 21.5t28.5 61.5q0 32 -21 49t-67 29l-72 21q-70 20 -105.5 55.5t-35.5 102.5q0 74 52 116t141 42q102 0 175 -43v-122h-50q-23 109 -130 109
q-39 0 -62.5 -18.5t-23.5 -53.5q0 -29 16.5 -44.5t54.5 -26.5l78 -22q77 -21 114 -58.5t37 -108.5q0 -78 -57.5 -122t-152.5 -44z" />
    <glyph glyph-name="Tcommaaccent" unicode="&#x162;" horiz-adv-x="820" 
d="M426 -168h-40q-51 13 -51 61q0 24 19.5 42t50.5 18q37 0 58 -24t21 -63q0 -112 -133 -116v41q39 4 55 12.5t20 28.5zM47 780h726l17 -222h-48q-17 36 -22.5 48t-19 36.5t-20.5 32t-20.5 21t-26.5 17t-31 7.5t-41 4h-86v-596q0 -46 26 -61.5t88 -17.5v-49h-358v49
q62 2 88 17.5t26 61.5v596h-86q-23 0 -41 -4t-31 -7.5t-26.5 -17t-20.5 -21t-20.5 -32t-19 -36.5t-22.5 -48h-48z" />
    <glyph glyph-name="tcommaaccent" unicode="&#x163;" horiz-adv-x="420" 
d="M229 -168h-40q-51 13 -51 61q0 24 19.5 42t50.5 18q37 0 58 -24t21 -63q0 -112 -133 -116v41q39 4 55 12.5t20 28.5zM220 650v-116h154v-59h-154v-306q0 -97 85 -97q41 0 82 19l15 -33q-62 -68 -153 -68q-65 0 -106.5 35.5t-41.5 110.5v339h-77v39q84 45 159 136h37z" />
    <glyph glyph-name="Tcaron" unicode="&#x164;" horiz-adv-x="820" 
d="M371 822l-152 208h56l135 -119l135 119h56l-152 -208h-78zM47 780h726l17 -222h-48q-17 36 -22.5 48t-19 36.5t-20.5 32t-20.5 21t-26.5 17t-31 7.5t-41 4h-86v-596q0 -46 26 -61.5t88 -17.5v-49h-358v49q62 2 88 17.5t26 61.5v596h-86q-23 0 -41 -4t-31 -7.5t-26.5 -17
t-20.5 -21t-20.5 -32t-19 -36.5t-22.5 -48h-48z" />
    <glyph glyph-name="tcaron" unicode="&#x165;" horiz-adv-x="420" 
d="M279 800h114l-71 -208h-54zM220 650v-116h154v-59h-154v-306q0 -97 85 -97q41 0 82 19l15 -33q-62 -68 -153 -68q-65 0 -106.5 35.5t-41.5 110.5v339h-77v39q84 45 159 136h37z" />
    <glyph glyph-name="Tbar" unicode="&#x166;" horiz-adv-x="820" 
d="M47 780h726l17 -222h-48q-17 36 -22.5 48t-19 36.5t-20.5 32t-20.5 21t-26.5 17t-31 7.5t-41 4h-86v-310h160v-58h-160v-228q0 -46 26 -61.5t88 -17.5v-49h-358v49q62 2 88 17.5t26 61.5v228h-160v58h160v310h-86q-23 0 -41 -4t-31 -7.5t-26.5 -17t-20.5 -21t-20.5 -32
t-19 -36.5t-22.5 -48h-48z" />
    <glyph glyph-name="tbar" unicode="&#x167;" horiz-adv-x="416" 
d="M24 298v57h77v120h-77v39q84 45 159 136h37v-116h154v-59h-154v-120h153v-57h-153v-129q0 -97 85 -97q41 0 82 19l15 -33q-62 -68 -153 -68q-65 0 -106.5 35.5t-41.5 110.5v162h-77z" />
    <glyph glyph-name="Utilde" unicode="&#x168;" horiz-adv-x="881" 
d="M531 846q-33 0 -83 29t-69 29q-23 0 -37 -11t-31 -42l-44 7q24 68 56 100t79 32q33 0 83 -29t69 -29q24 0 37.5 11t30.5 42l44 -7q-23 -69 -55 -100.5t-80 -31.5zM257 652v-375q0 -101 51.5 -155.5t146.5 -54.5q111 0 168.5 51.5t57.5 167.5v366q0 46 -25.5 61.5
t-86.5 17.5v49h295v-49q-61 -2 -85 -17.5t-24 -61.5v-388q0 -133 -88 -203.5t-219 -70.5q-152 0 -236.5 69t-84.5 206v387q0 46 -24.5 61.5t-85.5 17.5v49h350v-49q-61 -2 -85.5 -17.5t-24.5 -61.5z" />
    <glyph glyph-name="utilde" unicode="&#x169;" horiz-adv-x="685" 
d="M446 -10l5 98q-79 -98 -187 -98q-76 0 -120 40.5t-44 124.5v264q0 25 -13 36.5t-48 16.5l-18 3v44l174 25h30l-5 -103v-269q0 -96 92 -96q64 0 139 57v286q0 25 -13 36.5t-48 16.5l-17 3v44l174 25h29l-5 -103v-321q0 -26 11 -35.5t43 -12.5l26 -2v-45l-184 -35h-21z
M400 610q-33 0 -83 29.5t-69 29.5q-24 0 -37.5 -11.5t-30.5 -42.5l-44 7q24 69 56 101t79 32q33 0 83 -29.5t69 -29.5q24 0 37.5 11.5t30.5 42.5l44 -7q-24 -69 -55.5 -101t-79.5 -32z" />
    <glyph glyph-name="Umacron" unicode="&#x16a;" horiz-adv-x="881" 
d="M326 866v70h280v-70h-280zM257 652v-375q0 -101 51.5 -155.5t146.5 -54.5q111 0 168.5 51.5t57.5 167.5v366q0 46 -25.5 61.5t-86.5 17.5v49h295v-49q-61 -2 -85 -17.5t-24 -61.5v-388q0 -133 -88 -203.5t-219 -70.5q-152 0 -236.5 69t-84.5 206v387q0 46 -24.5 61.5
t-85.5 17.5v49h350v-49q-61 -2 -85.5 -17.5t-24.5 -61.5z" />
    <glyph glyph-name="umacron" unicode="&#x16b;" horiz-adv-x="685" 
d="M446 -10l5 98q-79 -98 -187 -98q-76 0 -120 40.5t-44 124.5v264q0 25 -13 36.5t-48 16.5l-18 3v44l174 25h30l-5 -103v-269q0 -96 92 -96q64 0 139 57v286q0 25 -13 36.5t-48 16.5l-17 3v44l174 25h29l-5 -103v-321q0 -26 11 -35.5t43 -12.5l26 -2v-45l-184 -35h-21z
M195 640v70h280v-70h-280z" />
    <glyph glyph-name="Ubreve" unicode="&#x16c;" horiz-adv-x="881" 
d="M466 831q-94 0 -136 50.5t-42 148.5h47q14 -122 131 -122t131 122h47q0 -98 -42 -148.5t-136 -50.5zM257 652v-375q0 -101 51.5 -155.5t146.5 -54.5q111 0 168.5 51.5t57.5 167.5v366q0 46 -25.5 61.5t-86.5 17.5v49h295v-49q-61 -2 -85 -17.5t-24 -61.5v-388
q0 -133 -88 -203.5t-219 -70.5q-152 0 -236.5 69t-84.5 206v387q0 46 -24.5 61.5t-85.5 17.5v49h350v-49q-61 -2 -85.5 -17.5t-24.5 -61.5z" />
    <glyph glyph-name="ubreve" unicode="&#x16d;" horiz-adv-x="685" 
d="M446 -10l5 98q-79 -98 -187 -98q-76 0 -120 40.5t-44 124.5v264q0 25 -13 36.5t-48 16.5l-18 3v44l174 25h30l-5 -103v-269q0 -96 92 -96q64 0 139 57v286q0 25 -13 36.5t-48 16.5l-17 3v44l174 25h29l-5 -103v-321q0 -26 11 -35.5t43 -12.5l26 -2v-45l-184 -35h-21z
M335 601q-94 0 -136 50.5t-42 148.5h47q14 -122 131 -122t131 122h47q0 -98 -42 -148.5t-136 -50.5z" />
    <glyph glyph-name="Uring" unicode="&#x16e;" horiz-adv-x="881" 
d="M257 652v-375q0 -101 51.5 -155.5t146.5 -54.5q111 0 168.5 51.5t57.5 167.5v366q0 46 -25.5 61.5t-86.5 17.5v49h295v-49q-61 -2 -85 -17.5t-24 -61.5v-388q0 -133 -88 -203.5t-219 -70.5q-152 0 -236.5 69t-84.5 206v387q0 46 -24.5 61.5t-85.5 17.5v49h350v-49
q-61 -2 -85.5 -17.5t-24.5 -61.5zM350 926q0 48 32.5 81t83.5 33t83.5 -33t32.5 -81t-32.5 -81t-83.5 -33t-83.5 33t-32.5 81zM525 926q0 29 -15 47t-44 18t-44 -18t-15 -47t15 -47t44 -18t44 18t15 47z" />
    <glyph glyph-name="uring" unicode="&#x16f;" horiz-adv-x="685" 
d="M219 697q0 48 32.5 81t83.5 33t83.5 -33t32.5 -81t-32.5 -81t-83.5 -33t-83.5 33t-32.5 81zM394 697q0 29 -15 47t-44 18t-44 -18t-15 -47t15 -46.5t44 -17.5t44 18t15 46zM446 -10l5 98q-79 -98 -187 -98q-76 0 -120 40.5t-44 124.5v264q0 25 -13 36.5t-48 16.5l-18 3
v44l174 25h30l-5 -103v-269q0 -96 92 -96q64 0 139 57v286q0 25 -13 36.5t-48 16.5l-17 3v44l174 25h29l-5 -103v-321q0 -26 11 -35.5t43 -12.5l26 -2v-45l-184 -35h-21z" />
    <glyph glyph-name="Uhungarumlaut" unicode="&#x170;" horiz-adv-x="881" 
d="M257 652v-375q0 -101 51.5 -155.5t146.5 -54.5q111 0 168.5 51.5t57.5 167.5v366q0 46 -25.5 61.5t-86.5 17.5v49h295v-49q-61 -2 -85 -17.5t-24 -61.5v-388q0 -133 -88 -203.5t-219 -70.5q-152 0 -236.5 69t-84.5 206v387q0 46 -24.5 61.5t-85.5 17.5v49h350v-49
q-61 -2 -85.5 -17.5t-24.5 -61.5zM419 1030h112l-126 -208h-53zM586 1030h112l-126 -208h-53z" />
    <glyph glyph-name="uhungarumlaut" unicode="&#x171;" horiz-adv-x="685" 
d="M446 -10l5 98q-79 -98 -187 -98q-76 0 -120 40.5t-44 124.5v264q0 25 -13 36.5t-48 16.5l-18 3v44l174 25h30l-5 -103v-269q0 -96 92 -96q64 0 139 57v286q0 25 -13 36.5t-48 16.5l-17 3v44l174 25h29l-5 -103v-321q0 -26 11 -35.5t43 -12.5l26 -2v-45l-184 -35h-21z
M282 800h112l-126 -208h-53zM449 800h112l-126 -208h-53z" />
    <glyph glyph-name="Uogonek" unicode="&#x172;" horiz-adv-x="881" 
d="M257 652v-375q0 -101 51.5 -155.5t146.5 -54.5q111 0 168.5 51.5t57.5 167.5v366q0 46 -25.5 61.5t-86.5 17.5v49h295v-49q-61 -2 -85 -17.5t-24 -61.5v-388q0 -103 -53.5 -169t-143.5 -91q-116 -47 -116 -128q0 -30 18 -47t52 -17q44 0 65 17l11 -34q-43 -45 -111 -45
q-53 0 -87 27.5t-34 83.5q0 77 81 129q-147 2 -228.5 71.5t-81.5 203.5v387q0 46 -24.5 61.5t-85.5 17.5v49h350v-49q-61 -2 -85.5 -17.5t-24.5 -61.5z" />
    <glyph glyph-name="uogonek" unicode="&#x173;" horiz-adv-x="685" 
d="M446 -10l5 98q-79 -98 -187 -98q-76 0 -120 40.5t-44 124.5v264q0 25 -13 36.5t-48 16.5l-18 3v44l174 25h30l-5 -103v-269q0 -96 92 -96q64 0 139 57v286q0 25 -13 36.5t-48 16.5l-17 3v44l174 25h29l-5 -103v-321q0 -26 11 -35.5t43 -12.5l26 -2v-45
q-119 -56 -119 -149q0 -30 18 -47t52 -17q40 0 66 17l10 -34q-42 -45 -110 -45q-53 0 -87 27.5t-34 84.5q0 82 85 140l-65 -12h-21z" />
    <glyph glyph-name="Wcircumflex" unicode="&#x174;" horiz-adv-x="1162" 
d="M832 188l156 447q12 33 12 48q0 25 -21.5 35.5t-79.5 12.5v49h253v-49q-20 -3 -30 -5.5t-21 -11.5t-17 -24l-258 -699h-45l-190 483l-192 -483h-46l-275 699q-6 15 -17 23.5t-21.5 11.5t-29.5 6v49h320v-49q-58 -2 -79 -12.5t-21 -35.5q0 -13 12 -47l168 -448l146 372
l-50 130q-6 15 -17 23.5t-21.5 11.5t-29.5 6v49h312v-49q-57 -2 -78.5 -12.5t-21.5 -35.5q0 -13 13 -49zM628 1030l152 -208h-56l-135 119l-135 -119h-56l152 208h78z" />
    <glyph glyph-name="wcircumflex" unicode="&#x175;" horiz-adv-x="902" 
d="M504 800l152 -208h-56l-135 119l-135 -119h-56l152 208h78zM650 158l103 264q8 19 8 32q0 17 -14.5 23.5t-57.5 12.5v44h204v-44q-35 -13 -44.5 -18.5t-15.5 -21.5l-192 -459h-31l-153 343l-148 -343h-31l-209 459q-7 16 -16 21.5t-44 18.5v44h263v-44
q-41 -6 -55.5 -12.5t-14.5 -23.5q0 -12 9 -32l110 -264l103 245l-19 47q-7 16 -16 22t-43 18v44h256v-44q-42 -6 -56.5 -12.5t-14.5 -23.5q0 -12 9 -32z" />
    <glyph glyph-name="Ycircumflex" unicode="&#x176;" horiz-adv-x="779" 
d="M423 376l163 259q19 30 19 53t-20.5 32.5t-74.5 10.5v49h259v-49q-46 -7 -68 -41l-248 -383v-179q0 -46 25 -61.5t86 -17.5v-49h-352v49q61 2 86 17.5t25 61.5v178l-245 384q-13 21 -27.5 29t-40.5 12v49h326v-49q-55 -1 -75 -10.5t-20 -33.5q0 -23 19 -52zM451 1030
l152 -208h-56l-135 119l-135 -119h-56l152 208h78z" />
    <glyph glyph-name="ycircumflex" unicode="&#x177;" horiz-adv-x="607" 
d="M283 -1l-214 451q-7 16 -16 21.5t-44 18.5v44h270v-44q-43 -6 -58 -12.5t-15 -23.5q0 -12 7 -27l128 -299l117 299q7 17 7 27q0 17 -15 23.5t-58 12.5v44h207v-44q-34 -13 -44 -19t-17 -21l-234 -557q-34 -81 -71.5 -111.5t-87.5 -30.5q-28 0 -50.5 10.5t-30.5 24.5v67
h64q53 0 81 16.5t49 68.5zM361 800l152 -208h-56l-135 119l-135 -119h-56l152 208h78z" />
    <glyph glyph-name="Ydieresis" unicode="&#x178;" horiz-adv-x="779" 
d="M423 376l163 259q19 30 19 53t-20.5 32.5t-74.5 10.5v49h259v-49q-46 -7 -68 -41l-248 -383v-179q0 -46 25 -61.5t86 -17.5v-49h-352v49q61 2 86 17.5t25 61.5v178l-245 384q-13 21 -27.5 29t-40.5 12v49h326v-49q-55 -1 -75 -10.5t-20 -33.5q0 -23 19 -52zM233 919
q0 31 22 53.5t53 22.5q32 0 54 -22t22 -54q0 -31 -22 -53t-54 -22q-31 0 -53 22t-22 53zM440 919q0 32 22 54t53 22t53.5 -22.5t22.5 -53.5t-22.5 -53t-53.5 -22t-53 22t-22 53z" />
    <glyph glyph-name="Zacute" unicode="&#x179;" horiz-adv-x="748" 
d="M204 60h268q24 0 42 3t35 14.5t26.5 19t27 34.5t26 41.5t32.5 56.5h49l-38 -229h-638v33l484 687h-245q-34 0 -55.5 -6t-40.5 -27t-31 -43.5t-35 -72.5h-44l3 209h618v-34zM435 1030h140l-171 -208h-55z" />
    <glyph glyph-name="zacute" unicode="&#x17a;" horiz-adv-x="563" 
d="M346 800h140l-171 -208h-55zM42 0v27l310 452h-142q-40 0 -63.5 -23.5t-46.5 -91.5h-47l14 198h45l12 -28h379v-31l-304 -448h147q45 0 73 25.5t51 97.5h49l-17 -178h-460z" />
    <glyph glyph-name="Zdotaccent" unicode="&#x17b;" horiz-adv-x="748" 
d="M300 921q0 33 23 55.5t57 22.5t56.5 -22.5t22.5 -55.5t-22.5 -55.5t-56.5 -22.5t-57 22.5t-23 55.5zM204 60h268q24 0 42 3t35 14.5t26.5 19t27 34.5t26 41.5t32.5 56.5h49l-38 -229h-638v33l484 687h-245q-34 0 -55.5 -6t-40.5 -27t-31 -43.5t-35 -72.5h-44l3 209h618
v-34z" />
    <glyph glyph-name="zdotaccent" unicode="&#x17c;" horiz-adv-x="563" 
d="M42 0v27l310 452h-142q-40 0 -63.5 -23.5t-46.5 -91.5h-47l14 198h45l12 -28h379v-31l-304 -448h147q45 0 73 25.5t51 97.5h49l-17 -178h-460zM211 697q0 33 23 55.5t57 22.5t56.5 -22.5t22.5 -55.5t-22.5 -55t-56.5 -22t-57 22.5t-23 54.5z" />
    <glyph glyph-name="Zcaron" unicode="&#x17d;" horiz-adv-x="748" 
d="M341 822l-152 208h56l135 -119l135 119h56l-152 -208h-78zM204 60h268q24 0 42 3t35 14.5t26.5 19t27 34.5t26 41.5t32.5 56.5h49l-38 -229h-638v33l484 687h-245q-34 0 -55.5 -6t-40.5 -27t-31 -43.5t-35 -72.5h-44l3 209h618v-34z" />
    <glyph glyph-name="zcaron" unicode="&#x17e;" horiz-adv-x="563" 
d="M252 592l-152 208h56l135 -119l135 119h56l-152 -208h-78zM42 0v27l310 452h-142q-40 0 -63.5 -23.5t-46.5 -91.5h-47l14 198h45l12 -28h379v-31l-304 -448h147q45 0 73 25.5t51 97.5h49l-17 -178h-460z" />
    <glyph glyph-name="florin" unicode="&#x192;" horiz-adv-x="572" 
d="M251 -216h-126l51 592h-107l5 53h107l11 119q10 117 73 179.5t168 62.5q139 0 139 -91q0 -20 -10.5 -38t-25.5 -26h-84q4 22 4 36q0 36 -13.5 50.5t-40.5 14.5q-39 0 -57 -32.5t-25 -108.5l-15 -166h134l-4 -53h-134z" />
    <glyph glyph-name="Scommaaccent" unicode="&#x218;" horiz-adv-x="649" 
d="M323 -168h-40q-51 13 -51 61q0 24 19.5 42t50.5 18q37 0 58 -24t21 -63q0 -112 -133 -116v41q39 4 55 12.5t20 28.5zM300 -10q-73 0 -138 19t-104 50l-9 187h52q55 -194 213 -194q76 0 120.5 34.5t44.5 95.5q0 51 -31.5 81t-100.5 56l-106 39q-90 32 -137 78.5t-47 134.5
q0 96 71 157.5t189 61.5q73 0 139 -18t105 -48v-170h-47q-45 174 -206 174q-65 0 -101 -32.5t-36 -88.5q0 -48 27.5 -75.5t90.5 -49.5l110 -41q99 -36 148 -83t49 -139q0 -108 -83.5 -168.5t-212.5 -60.5z" />
    <glyph glyph-name="scommaaccent" unicode="&#x219;" horiz-adv-x="511" 
d="M276 -168h-40q-51 13 -51 61q0 24 19.5 42t50.5 18q37 0 58 -24t21 -63q0 -112 -133 -116v41q39 4 55 12.5t20 28.5zM251 -10q-119 0 -192 52l-6 133h52q29 -129 147 -129q51 0 79.5 21.5t28.5 61.5q0 32 -21 49t-67 29l-72 21q-70 20 -105.5 55.5t-35.5 102.5
q0 74 52 116t141 42q102 0 175 -43v-122h-50q-23 109 -130 109q-39 0 -62.5 -18.5t-23.5 -53.5q0 -29 16.5 -44.5t54.5 -26.5l78 -22q77 -21 114 -58.5t37 -108.5q0 -78 -57.5 -122t-152.5 -44z" />
    <glyph glyph-name="dotlessj" unicode="&#x237;" horiz-adv-x="301" 
d="M101 428l-71 39v27l160 51h36l-5 -103v-373q0 -68 -8.5 -103t-29.5 -71q-36 -60 -138 -142l-34 29l47 76q43 68 43 184v386z" />
    <glyph glyph-name="circumflex" unicode="&#x2c6;" horiz-adv-x="600" 
d="M339 800l152 -208h-56l-135 119l-135 -119h-56l152 208h78z" />
    <glyph glyph-name="caron" unicode="&#x2c7;" horiz-adv-x="600" 
d="M261 592l-152 208h56l135 -119l135 119h56l-152 -208h-78z" />
    <glyph glyph-name="breve" unicode="&#x2d8;" horiz-adv-x="600" 
d="M300 601q-94 0 -136 50.5t-42 148.5h47q14 -122 131 -122t131 122h47q0 -98 -42 -148.5t-136 -50.5z" />
    <glyph glyph-name="dotaccent" unicode="&#x2d9;" horiz-adv-x="600" 
d="M220 697q0 33 23 55.5t57 22.5t56.5 -22.5t22.5 -55.5t-22.5 -55t-56.5 -22t-57 22.5t-23 54.5z" />
    <glyph glyph-name="ring" unicode="&#x2da;" horiz-adv-x="600" 
d="M184 697q0 48 32.5 81t83.5 33t83.5 -33t32.5 -81t-32.5 -81t-83.5 -33t-83.5 33t-32.5 81zM359 697q0 29 -15 47t-44 18t-44 -18t-15 -47t15 -46.5t44 -17.5t44 18t15 46z" />
    <glyph glyph-name="ogonek" unicode="&#x2db;" horiz-adv-x="600" 
d="M470 34l19 -34q-121 -45 -121 -124q0 -30 18 -47t52 -17q44 0 65 17l11 -34q-43 -45 -111 -45q-53 0 -87 27.5t-34 84.5q0 116 188 172z" />
    <glyph glyph-name="tilde" unicode="&#x2dc;" horiz-adv-x="600" 
d="M364 610q-33 0 -83 29.5t-69 29.5q-24 0 -37.5 -11.5t-30.5 -42.5l-44 7q24 69 56 101t79 32q33 0 83 -29.5t69 -29.5q24 0 37.5 11.5t30.5 42.5l44 -7q-24 -69 -55.5 -101t-79.5 -32z" />
    <glyph glyph-name="hungarumlaut" unicode="&#x2dd;" horiz-adv-x="600" 
d="M229 800h112l-126 -208h-53zM396 800h112l-126 -208h-53z" />
    <glyph glyph-name="uni0300" unicode="&#x300;" horiz-adv-x="600" 
d="M114 1030h122l84 -208h-45z" />
    <glyph glyph-name="uni0301" unicode="&#x301;" horiz-adv-x="600" 
d="M364 1030h122l-161 -208h-45z" />
    <glyph glyph-name="uni0302" unicode="&#x302;" horiz-adv-x="600" 
d="M334 1030l150 -208h-46l-138 124l-138 -124h-46l150 208h68z" />
    <glyph glyph-name="uni0303" unicode="&#x303;" horiz-adv-x="600" 
d="M365 859q-34 0 -83.5 29.5t-69.5 29.5q-24 0 -38 -10.5t-31 -42.5l-39 6q21 63 52.5 93t77.5 30q34 0 83.5 -29.5t69.5 -29.5q24 0 38 10.5t31 42.5l39 -6q-21 -63 -52.5 -93t-77.5 -30z" />
    <glyph glyph-name="uni0304" unicode="&#x304;" horiz-adv-x="600" 
d="M164 894v64h272v-64h-272z" />
    <glyph glyph-name="uni0306" unicode="&#x306;" horiz-adv-x="600" 
d="M300 832q-94 0 -136 50t-42 148h44q14 -130 134 -130t134 130h44q0 -98 -42 -148t-136 -50z" />
    <glyph glyph-name="uni0307" unicode="&#x307;" horiz-adv-x="600" 
d="M230 926q0 29 20.5 49.5t49.5 20.5t49.5 -20.5t20.5 -49.5t-20.5 -49.5t-49.5 -20.5t-49.5 20.5t-20.5 49.5z" />
    <glyph glyph-name="uni0308" unicode="&#x308;" horiz-adv-x="600" 
d="M130 926q0 29 20.5 49.5t49.5 20.5t49.5 -20.5t20.5 -49.5t-20.5 -49.5t-49.5 -20.5t-49.5 20.5t-20.5 49.5zM330 926q0 29 20.5 49.5t49.5 20.5t49.5 -20.5t20.5 -49.5t-20.5 -49.5t-49.5 -20.5t-49.5 20.5t-20.5 49.5z" />
    <glyph glyph-name="uni030A" unicode="&#x30a;" horiz-adv-x="600" 
d="M186 926q0 48 32 81t82 33t82 -33t32 -81t-32 -81t-82 -33t-82 33t-32 81zM361 926q0 30 -15.5 49t-45.5 19t-45.5 -19t-15.5 -49t15.5 -49t45.5 -19t45.5 19t15.5 49z" />
    <glyph glyph-name="uni030B" unicode="&#x30b;" horiz-adv-x="600" 
d="M249 1030h102l-124 -208h-45zM409 1030h102l-124 -208h-45z" />
    <glyph glyph-name="uni030C" unicode="&#x30c;" horiz-adv-x="600" 
d="M266 822l-150 208h46l138 -124l138 124h46l-150 -208h-68z" />
    <glyph glyph-name="uni030F" unicode="&#x30f;" horiz-adv-x="600" 
d="M249 1030h102l67 -208h-45zM89 1030h102l67 -208h-45z" />
    <glyph glyph-name="uni0311" unicode="&#x311;" horiz-adv-x="600" 
d="M300 1020q94 0 136 -50t42 -148h-44q-14 130 -134 130t-134 -130h-44q0 98 42 148t136 50z" />
    <glyph glyph-name="uni0312" unicode="&#x312;" horiz-adv-x="600" 
d="M283 717h41q49 -11 49 -57q0 -26 -18.5 -43.5t-50.5 -17.5q-37 0 -60 25.5t-23 66.5q0 109 138 113v-42q-76 -7 -76 -45z" />
    <glyph glyph-name="Wgrave" unicode="&#x1e80;" horiz-adv-x="1162" 
d="M832 188l156 447q12 33 12 48q0 25 -21.5 35.5t-79.5 12.5v49h253v-49q-20 -3 -30 -5.5t-21 -11.5t-17 -24l-258 -699h-45l-190 483l-192 -483h-46l-275 699q-6 15 -17 23.5t-21.5 11.5t-29.5 6v49h320v-49q-58 -2 -79 -12.5t-21 -35.5q0 -13 12 -47l168 -448l146 372
l-50 130q-6 15 -17 23.5t-21.5 11.5t-29.5 6v49h312v-49q-57 -2 -78.5 -12.5t-21.5 -35.5q0 -13 13 -49zM383 1030h142l84 -208h-55z" />
    <glyph glyph-name="wgrave" unicode="&#x1e81;" horiz-adv-x="902" 
d="M650 158l103 264q8 19 8 32q0 17 -14.5 23.5t-57.5 12.5v44h204v-44q-35 -13 -44.5 -18.5t-15.5 -21.5l-192 -459h-31l-153 343l-148 -343h-31l-209 459q-7 16 -16 21.5t-44 18.5v44h263v-44q-41 -6 -55.5 -12.5t-14.5 -23.5q0 -12 9 -32l110 -264l103 245l-19 47
q-7 16 -16 22t-43 18v44h256v-44q-42 -6 -56.5 -12.5t-14.5 -23.5q0 -12 9 -32zM260 800h142l84 -208h-55z" />
    <glyph glyph-name="Wacute" unicode="&#x1e82;" horiz-adv-x="1162" 
d="M832 188l156 447q12 33 12 48q0 25 -21.5 35.5t-79.5 12.5v49h253v-49q-20 -3 -30 -5.5t-21 -11.5t-17 -24l-258 -699h-45l-190 483l-192 -483h-46l-275 699q-6 15 -17 23.5t-21.5 11.5t-29.5 6v49h320v-49q-58 -2 -79 -12.5t-21 -35.5q0 -13 12 -47l168 -448l146 372
l-50 130q-6 15 -17 23.5t-21.5 11.5t-29.5 6v49h312v-49q-57 -2 -78.5 -12.5t-21.5 -35.5q0 -13 13 -49zM654 1030h140l-171 -208h-55z" />
    <glyph glyph-name="wacute" unicode="&#x1e83;" horiz-adv-x="902" 
d="M650 158l103 264q8 19 8 32q0 17 -14.5 23.5t-57.5 12.5v44h204v-44q-35 -13 -44.5 -18.5t-15.5 -21.5l-192 -459h-31l-153 343l-148 -343h-31l-209 459q-7 16 -16 21.5t-44 18.5v44h263v-44q-41 -6 -55.5 -12.5t-14.5 -23.5q0 -12 9 -32l110 -264l103 245l-19 47
q-7 16 -16 22t-43 18v44h256v-44q-42 -6 -56.5 -12.5t-14.5 -23.5q0 -12 9 -32zM529 800h140l-171 -208h-55z" />
    <glyph glyph-name="Wdieresis" unicode="&#x1e84;" horiz-adv-x="1162" 
d="M832 188l156 447q12 33 12 48q0 25 -21.5 35.5t-79.5 12.5v49h253v-49q-20 -3 -30 -5.5t-21 -11.5t-17 -24l-258 -699h-45l-190 483l-192 -483h-46l-275 699q-6 15 -17 23.5t-21.5 11.5t-29.5 6v49h320v-49q-58 -2 -79 -12.5t-21 -35.5q0 -13 12 -47l168 -448l146 372
l-50 130q-6 15 -17 23.5t-21.5 11.5t-29.5 6v49h312v-49q-57 -2 -78.5 -12.5t-21.5 -35.5q0 -13 13 -49zM410 919q0 31 22 53.5t53 22.5q32 0 54 -22t22 -54q0 -31 -22 -53t-54 -22q-31 0 -53 22t-22 53zM617 919q0 32 22 54t53 22q32 0 54 -22.5t22 -53.5t-22.5 -53
t-53.5 -22t-53 22t-22 53z" />
    <glyph glyph-name="wdieresis" unicode="&#x1e85;" horiz-adv-x="902" 
d="M650 158l103 264q8 19 8 32q0 17 -14.5 23.5t-57.5 12.5v44h204v-44q-35 -13 -44.5 -18.5t-15.5 -21.5l-192 -459h-31l-153 343l-148 -343h-31l-209 459q-7 16 -16 21.5t-44 18.5v44h263v-44q-41 -6 -55.5 -12.5t-14.5 -23.5q0 -12 9 -32l110 -264l103 245l-19 47
q-7 16 -16 22t-43 18v44h256v-44q-42 -6 -56.5 -12.5t-14.5 -23.5q0 -12 9 -32zM286 697q0 32 22 54t53 22q32 0 54 -22t22 -54q0 -31 -22 -53t-54 -22q-31 0 -53 22t-22 53zM493 697q0 32 21.5 54t53.5 22t54 -22t22 -54q0 -31 -22.5 -53t-53.5 -22t-53 22t-22 53z" />
    <glyph glyph-name="Eszett" unicode="&#x1e9e;" horiz-adv-x="938" 
d="M644 -10q-60 0 -122 19.5t-99 49.5l-9 187h52q56 -194 184 -194q64 0 97 33.5t33 91.5q0 107 -132 131l-49 9q-59 11 -98.5 33.5t-60.5 67.5v32l172 246q-51 15 -116 15q-118 0 -178.5 -58t-60.5 -165v-360q0 -46 24.5 -62t84.5 -18v-48h-350v48q61 2 86 18t25 62v378
q0 139 95 211.5t272 72.5q170 0 259 -74v-33l-162 -230q23 -18 58 -24l38 -7q210 -39 210 -214q0 -105 -69 -161.5t-184 -56.5z" />
    <glyph glyph-name="enspace" unicode="&#x2002;" horiz-adv-x="500" 
 />
    <glyph glyph-name="emspace" unicode="&#x2003;" horiz-adv-x="1000" 
 />
    <glyph glyph-name="threeperemspace" unicode="&#x2004;" horiz-adv-x="333" 
 />
    <glyph glyph-name="fourperemspace" unicode="&#x2005;" horiz-adv-x="250" 
 />
    <glyph glyph-name="sixperemspace" unicode="&#x2006;" horiz-adv-x="167" 
 />
    <glyph glyph-name="figurespace" unicode="&#x2007;" 
 />
    <glyph glyph-name="punctuationspace" unicode="&#x2008;" horiz-adv-x="280" 
 />
    <glyph glyph-name="thinspace" unicode="&#x2009;" horiz-adv-x="200" 
 />
    <glyph glyph-name="hairspace" unicode="&#x200a;" horiz-adv-x="100" 
 />
    <glyph glyph-name="zerowidthspace" unicode="&#x200b;" horiz-adv-x="0" 
 />
    <glyph glyph-name="figuredash" unicode="&#x2012;" 
d="M650 373v-81h-600v81h600z" />
    <glyph glyph-name="endash" unicode="&#x2013;" horiz-adv-x="500" 
d="M450 292h-400v81h400v-81z" />
    <glyph glyph-name="emdash" unicode="&#x2014;" horiz-adv-x="1000" 
d="M950 373v-81h-900v81h900z" />
    <glyph glyph-name="uni2015" unicode="&#x2015;" horiz-adv-x="1400" 
d="M1350 373v-81h-1300v81h1300z" />
    <glyph glyph-name="doublebar" unicode="&#x2016;" horiz-adv-x="416" 
d="M169 830v-951h-69v951h69zM316 830v-951h-69v951h69z" />
    <glyph glyph-name="quoteleft" unicode="&#x2018;" horiz-adv-x="314" 
d="M133 667h46q56 -14 56 -74q0 -35 -23 -59t-59 -24q-44 0 -69 32.5t-25 84.5q0 83 50.5 138t148.5 62v-50q-124 -24 -125 -110z" />
    <glyph glyph-name="quoteright" unicode="&#x2019;" horiz-adv-x="314" 
d="M193 667h-46q-56 14 -56 74q0 35 23 59t59 24q44 0 69 -32.5t25 -84.5q0 -83 -50.5 -138t-148.5 -62v50q124 24 125 110z" />
    <glyph glyph-name="quotesinglbase" unicode="&#x201a;" horiz-adv-x="314" 
d="M186 0h-47q-56 13 -56 74q0 35 23.5 59t59.5 24q44 0 69 -32.5t25 -84.5q0 -83 -50.5 -138t-148.5 -63v51q124 23 125 110z" />
    <glyph glyph-name="reversequoteleft" unicode="&#x201b;" horiz-adv-x="314" 
d="M169 667h-46q1 -86 125 -110v-50q-98 7 -149 62t-51 138q0 52 25 84.5t70 32.5q35 0 58.5 -24t23.5 -59q0 -60 -56 -74z" />
    <glyph glyph-name="quotedblleft" unicode="&#x201c;" horiz-adv-x="545" 
d="M133 667h46q56 -14 56 -74q0 -35 -23 -59t-59 -24q-44 0 -69 32.5t-25 84.5q0 83 50.5 138t148.5 62v-50q-124 -24 -125 -110zM365 667h46q56 -14 56 -74q0 -35 -23.5 -59t-58.5 -24q-45 0 -70 32.5t-25 84.5q0 83 51 138t149 62v-50q-124 -24 -125 -110z" />
    <glyph glyph-name="quotedblright" unicode="&#x201d;" horiz-adv-x="545" 
d="M425 667h-47q-56 15 -56 74q0 35 23.5 59t59.5 24q44 0 69 -32.5t25 -84.5q0 -83 -50.5 -138t-148.5 -62v50q124 24 125 110zM193 667h-46q-56 14 -56 74q0 35 23 59t59 24q44 0 69 -32.5t25 -84.5q0 -83 -50.5 -138t-148.5 -62v50q124 24 125 110z" />
    <glyph glyph-name="quotedblbase" unicode="&#x201e;" horiz-adv-x="545" 
d="M418 0h-47q-56 14 -56 74q0 35 23.5 59t59.5 24q44 0 69 -32.5t25 -84.5q0 -83 -51 -138t-149 -62v50q125 24 126 110zM186 0h-47q-56 15 -56 74q0 35 23.5 59t59.5 24q44 0 69 -32.5t25 -84.5q0 -83 -50.5 -138t-148.5 -62v50q124 24 125 110z" />
    <glyph glyph-name="reversequotedblleft" unicode="&#x201f;" horiz-adv-x="545" 
d="M169 667h-46q1 -86 125 -110v-50q-98 7 -149 62t-51 138q0 52 25 84.5t70 32.5q35 0 58.5 -24t23.5 -59q0 -60 -56 -74zM401 667h-47q1 -86 126 -110v-50q-98 7 -149 62t-51 138q0 52 25 84.5t69 32.5q36 0 59.5 -24t23.5 -59q0 -60 -56 -74z" />
    <glyph glyph-name="dagger" unicode="&#x2020;" horiz-adv-x="706" 
d="M303 780h100l10 -30l-40 -253l253 40l30 -10v-100l-30 -10l-253 40l40 -225l-42 -482h-35l-43 482l40 225l-253 -40l-30 10v100l30 10l253 -40l-40 253z" />
    <glyph glyph-name="daggerdbl" unicode="&#x2021;" horiz-adv-x="706" 
d="M301 267l32 190l-253 -40l-30 10v100l30 10l253 -40l-40 253l10 30h100l10 -30l-40 -253l253 40l30 -10v-100l-30 -10l-253 40l33 -190l-33 -184l253 40l30 -10v-100l-30 -10l-253 40l40 -253l-10 -30h-100l-10 30l40 253l-253 -40l-30 10v100l30 10l253 -40z" />
    <glyph glyph-name="bullet" unicode="&#x2022;" horiz-adv-x="423" 
d="M81 330q0 53 38.5 91.5t91.5 38.5q54 0 92.5 -38.5t38.5 -91.5q0 -54 -38.5 -92t-92.5 -38q-53 0 -91.5 38t-38.5 92z" />
    <glyph glyph-name="ellipsis" unicode="&#x2026;" horiz-adv-x="1000" 
d="M84 74q0 35 24.5 60t59.5 25q36 0 60.5 -25t24.5 -60t-24.5 -59.5t-60.5 -24.5q-35 0 -59.5 24.5t-24.5 59.5zM416 74q0 35 24.5 60t59.5 25t60 -25t25 -60t-25 -59.5t-60 -24.5t-59.5 24.5t-24.5 59.5zM747 74q0 35 24.5 60t59.5 25q36 0 60.5 -25t24.5 -60t-24.5 -59.5
t-60.5 -24.5q-35 0 -59.5 24.5t-24.5 59.5z" />
    <glyph glyph-name="perthousand" unicode="&#x2030;" horiz-adv-x="1432" 
d="M50 583q0 100 54 153.5t139 53.5t138.5 -53.5t53.5 -153.5t-53.5 -153.5t-138.5 -53.5t-139 53.5t-54 153.5zM338 583q0 160 -95 160t-95 -160t95 -160t95 160zM789 780l-517 -780h-72l517 780h72zM939 197q0 -100 -54 -153.5t-139 -53.5t-139 53.5t-54 153.5t54 153.5
t139 53.5t139 -53.5t54 -153.5zM651 197q0 -160 95 -160t95 160t-95 160t-95 -160zM1382 197q0 -100 -54 -153.5t-139 -53.5t-139 53.5t-54 153.5t54 153.5t139 53.5t139 -53.5t54 -153.5zM1094 197q0 -160 95 -160t95 160t-95 160t-95 -160z" />
    <glyph glyph-name="minute" unicode="&#x2032;" horiz-adv-x="191" 
d="M70 780h96l-46 -250h-50v250z" />
    <glyph glyph-name="second" unicode="&#x2033;" horiz-adv-x="346" 
d="M70 780h96l-46 -250h-50v250zM225 780h96l-46 -250h-50v250z" />
    <glyph glyph-name="tripleprime" unicode="&#x2034;" horiz-adv-x="589" 
d="M153 503h-65l-31 277h127zM327 503h-65l-31 277h127zM501 503h-65l-31 277h127z" />
    <glyph glyph-name="guilsinglleft" unicode="&#x2039;" horiz-adv-x="314" 
d="M39 269v10l173 190h55l-122 -195l122 -195h-55z" />
    <glyph glyph-name="guilsinglright" unicode="&#x203a;" horiz-adv-x="314" 
d="M275 279v-10l-173 -190h-56l123 195l-123 195h56z" />
    <glyph glyph-name="interrobang" unicode="&#x203d;" horiz-adv-x="539" 
d="M512 602q0 -68 -35 -117t-107 -93q-50 -32 -69.5 -60.5t-19.5 -74.5v-33h-43q-41 46 -41 103q0 56 38 95l-19 164v46h111v-46l-13 -104q44 32 63.5 63t19.5 78q0 55 -33 83t-90 28q-56 0 -86 -29.5t-30 -84.5v-36h-99q-29 21 -29 58q0 62 68.5 105t168.5 43
q114 0 179.5 -48t65.5 -140zM180 74q0 35 24.5 60t59.5 25t60 -25t25 -60t-25 -59.5t-60 -24.5t-59.5 24.5t-24.5 59.5z" />
    <glyph glyph-name="fraction" unicode="&#x2044;" horiz-adv-x="283" 
d="M-152 0l517 780h70l-517 -780h-70z" />
    <glyph glyph-name="uni2070" unicode="&#x2070;" horiz-adv-x="466" 
d="M147 538q0 -105 17.5 -154.5t68.5 -49.5q52 0 69 49.5t17 154.5t-17 154.5t-69 49.5q-51 0 -68.5 -49.5t-17.5 -154.5zM432 538q0 -118 -52.5 -183t-146.5 -65q-93 0 -145.5 65.5t-52.5 182.5t52.5 182.5t145.5 65.5q94 0 146.5 -65t52.5 -183z" />
    <glyph glyph-name="uni2074" unicode="&#x2074;" horiz-adv-x="462" 
d="M80 465h178v212zM359 296h-101v121h-244v38l269 325h76v-315h84v-48h-84v-121z" />
    <glyph glyph-name="uni2075" unicode="&#x2075;" horiz-adv-x="432" 
d="M211 330q39 0 60.5 21.5t21.5 59.5q0 123 -219 124l43 245h155q30 0 41.5 4.5t25.5 24.5h33l-26 -121h-204l-12 -73q115 -3 181.5 -44.5t66.5 -123.5q0 -73 -50.5 -115t-128.5 -42t-121 30t-43 73q0 35 31 51h62v-23q0 -91 83 -91z" />
    <glyph glyph-name="uni2076" unicode="&#x2076;" horiz-adv-x="443" 
d="M347 759q-167 -52 -200 -191q47 43 118 43q67 0 109 -39.5t42 -109.5q0 -80 -55 -126t-132 -46q-90 0 -142 55t-52 149q0 107 77.5 188.5t211.5 104.5zM211 552q-40 0 -70 -17q-2 -14 -2 -43q0 -71 25 -114.5t72 -43.5q40 0 62 27.5t22 75.5q0 52 -29 83.5t-80 31.5z" />
    <glyph glyph-name="uni2077" unicode="&#x2077;" horiz-adv-x="432" 
d="M330 682h-206q-23 0 -36.5 -15t-26.5 -51h-35l27 164h354v-27l-203 -457h-92z" />
    <glyph glyph-name="uni2078" unicode="&#x2078;" horiz-adv-x="443" 
d="M387 673q0 -39 -28 -65t-71 -36l19 -8q100 -39 100 -130q0 -66 -49 -105t-136 -39q-85 0 -135.5 32.5t-50.5 89.5q0 42 29 70t77 40l-8 4q-80 38 -80 120q0 64 45 102t123 38q76 0 120.5 -30.5t44.5 -82.5zM247 477l-77 31q-49 -29 -49 -86q0 -42 27.5 -65t74.5 -23
q43 0 68 18.5t25 49.5q0 47 -69 75zM201 609l56 -24q49 31 49 87q0 33 -22.5 51t-62.5 18q-38 0 -59 -16.5t-21 -45.5q0 -46 60 -70z" />
    <glyph glyph-name="uni2079" unicode="&#x2079;" horiz-adv-x="443" 
d="M119 289l-22 28q165 52 200 190q-48 -42 -119 -42q-66 0 -108 39.5t-42 108.5q0 80 54.5 126.5t131.5 46.5q90 0 142.5 -55t52.5 -149q0 -107 -77.5 -188.5t-212.5 -104.5zM232 524q40 0 70 17q3 13 3 43q0 70 -25.5 114t-71.5 44q-40 0 -62 -27.5t-22 -75.5
q0 -51 28.5 -83t79.5 -32z" />
    <glyph glyph-name="uni207A" unicode="&#x207a;" horiz-adv-x="438" 
d="M192 351v144h-142v53h142v142h54v-142h142v-53h-142v-144h-54z" />
    <glyph glyph-name="uni207B" unicode="&#x207b;" horiz-adv-x="438" 
d="M388 495h-338v53h338v-53z" />
    <glyph glyph-name="uni207C" unicode="&#x207c;" horiz-adv-x="438" 
d="M388 443h-338v54h338v-54zM388 546h-338v53h338v-53z" />
    <glyph glyph-name="uni207D" unicode="&#x207d;" horiz-adv-x="251" 
d="M40 528q0 173 145 299l39 -31q-60 -60 -92.5 -121.5t-32.5 -146.5t32.5 -146.5t92.5 -121.5l-39 -31q-145 126 -145 299z" />
    <glyph glyph-name="uni207E" unicode="&#x207e;" horiz-adv-x="250" 
d="M210 528q0 -174 -144 -299l-38 31q59 60 91 121.5t32 146.5t-32 146.5t-91 121.5l38 31q144 -125 144 -299z" />
    <glyph glyph-name="n.superior" unicode="&#x207f;" horiz-adv-x="512" 
d="M338 428v179q0 30 -13.5 43t-43.5 13q-47 0 -91 -29v-206q0 -22 10 -28.5t38 -9.5v-38h-202v38q19 2 28 4t15.5 10.5t6.5 23.5v218l-46 32v21l127 36h26l-3 -69q64 68 137 68q115 0 115 -114v-192q0 -22 10.5 -28.5t38.5 -9.5v-38h-202v38q19 2 27.5 4t15 10.5t6.5 23.5z
" />
    <glyph glyph-name="uni2080" unicode="&#x2080;" horiz-adv-x="466" 
d="M147 242q0 -105 17.5 -154.5t68.5 -49.5q52 0 69 49.5t17 154.5t-17 154.5t-69 49.5q-51 0 -68.5 -49.5t-17.5 -154.5zM432 242q0 -118 -52.5 -183t-146.5 -65q-93 0 -145.5 65.5t-52.5 182.5t52.5 182.5t145.5 65.5q94 0 146.5 -65t52.5 -183z" />
    <glyph glyph-name="uni2081" unicode="&#x2081;" horiz-adv-x="407" 
d="M232 490h29v-403q0 -15 6.5 -24.5t24 -14.5t33.5 -6.5t50 -3.5v-38h-331v38q66 3 90 11.5t24 37.5v276h-114v34l34 5q51 9 86.5 29.5t67.5 58.5z" />
    <glyph glyph-name="uni2082" unicode="&#x2082;" horiz-adv-x="428" 
d="M137 87h115q41 0 59.5 12t43.5 59h29l-16 -158h-352v30q13 9 68.5 65t62.5 61q60 56 81 92t21 76t-23.5 62t-65.5 22q-24 0 -45.5 -8.5t-33.5 -17.5t-30 -26l-21 24q62 110 178 110q71 0 111 -36t40 -99q0 -24 -9 -47.5t-20.5 -41.5t-37 -43.5t-43.5 -40.5t-55 -46
t-57 -49z" />
    <glyph glyph-name="uni2083" unicode="&#x2083;" horiz-adv-x="431" 
d="M244 269q65 -6 102.5 -41.5t37.5 -90.5q0 -70 -53 -106.5t-132 -36.5q-78 0 -122 30t-44 74q0 34 31 50h62v-24q0 -43 20 -67t59 -24q78 0 78 87q0 51 -31.5 77.5t-86.5 26.5h-22l-5 26q63 24 92.5 47.5t29.5 56.5q0 28 -19 44t-54 16q-57 0 -108 -55l-24 21
q52 110 170 110q63 0 99 -29t36 -77q0 -43 -34 -72.5t-82 -42.5z" />
    <glyph glyph-name="uni2084" unicode="&#x2084;" horiz-adv-x="462" 
d="M80 169h178v212zM359 0h-101v121h-244v38l269 325h76v-315h84v-48h-84v-121z" />
    <glyph glyph-name="uni2085" unicode="&#x2085;" horiz-adv-x="432" 
d="M211 34q39 0 60.5 21.5t21.5 59.5q0 123 -219 124l43 245h155q30 0 41.5 4.5t25.5 24.5h33l-26 -121h-204l-12 -73q115 -3 181.5 -44.5t66.5 -123.5q0 -73 -50.5 -115t-128.5 -42t-121 30t-43 73q0 35 31 51h62v-23q0 -91 83 -91z" />
    <glyph glyph-name="uni2086" unicode="&#x2086;" horiz-adv-x="443" 
d="M347 463q-167 -52 -200 -191q47 43 118 43q67 0 109 -39.5t42 -109.5q0 -80 -55 -126t-132 -46q-90 0 -142 55t-52 149q0 107 77.5 188.5t211.5 104.5zM211 256q-40 0 -70 -17q-2 -14 -2 -43q0 -71 25 -114.5t72 -43.5q40 0 62 27.5t22 75.5q0 52 -29 83.5t-80 31.5z" />
    <glyph glyph-name="uni2087" unicode="&#x2087;" horiz-adv-x="432" 
d="M330 386h-206q-23 0 -36.5 -15t-26.5 -51h-35l27 164h354v-27l-203 -457h-92z" />
    <glyph glyph-name="uni2088" unicode="&#x2088;" horiz-adv-x="443" 
d="M387 377q0 -39 -28 -65t-71 -36l19 -8q100 -39 100 -130q0 -66 -49 -105t-136 -39q-85 0 -135.5 32.5t-50.5 89.5q0 42 29 70t77 40l-8 4q-80 38 -80 120q0 64 45 102t123 38q76 0 120.5 -30.5t44.5 -82.5zM247 181l-77 31q-49 -29 -49 -86q0 -42 27.5 -65t74.5 -23
q43 0 68 18.5t25 49.5q0 47 -69 75zM201 313l56 -24q49 31 49 87q0 33 -22.5 51t-62.5 18q-38 0 -59 -16.5t-21 -45.5q0 -46 60 -70z" />
    <glyph glyph-name="uni2089" unicode="&#x2089;" horiz-adv-x="443" 
d="M119 -7l-22 28q165 52 200 190q-48 -42 -119 -42q-66 0 -108 39.5t-42 108.5q0 80 54.5 126.5t131.5 46.5q90 0 142.5 -55t52.5 -149q0 -107 -77.5 -188.5t-212.5 -104.5zM232 228q40 0 70 17q3 13 3 43q0 70 -25.5 114t-71.5 44q-40 0 -62 -27.5t-22 -75.5
q0 -51 28.5 -83t79.5 -32z" />
    <glyph glyph-name="uni208A" unicode="&#x208a;" horiz-adv-x="438" 
d="M192 55v144h-142v53h142v142h54v-142h142v-53h-142v-144h-54z" />
    <glyph glyph-name="uni208B" unicode="&#x208b;" horiz-adv-x="438" 
d="M388 199h-338v53h338v-53z" />
    <glyph glyph-name="uni208C" unicode="&#x208c;" horiz-adv-x="438" 
d="M388 147h-338v54h338v-54zM388 250h-338v53h338v-53z" />
    <glyph glyph-name="uni208D" unicode="&#x208d;" horiz-adv-x="251" 
d="M40 232q0 173 145 299l39 -31q-60 -60 -92.5 -121.5t-32.5 -146.5t32.5 -146.5t92.5 -121.5l-39 -31q-145 126 -145 299z" />
    <glyph glyph-name="uni208E" unicode="&#x208e;" horiz-adv-x="250" 
d="M210 232q0 -174 -144 -299l-38 31q59 60 91 121.5t32 146.5t-32 146.5t-91 121.5l38 31q144 -125 144 -299z" />
    <glyph glyph-name="Euro" unicode="&#x20ac;" horiz-adv-x="775" 
d="M35 425v51h104q24 149 114.5 231.5t221.5 82.5q138 0 229 -68l4 -172h-53q-28 95 -71.5 134.5t-117.5 39.5q-87 0 -134 -68t-57 -180h292l-14 -51h-280v-11q0 -24 2 -66h259l-14 -51h-240q34 -241 203 -241q84 0 127 44t73 144h54l-18 -194q-112 -60 -253 -60
q-140 0 -224.5 84t-104.5 223h-102v51h97v27q0 18 2 50h-99z" />
    <glyph glyph-name="afii61289" unicode="&#x2113;" horiz-adv-x="364" 
d="M225 -10q-149 0 -149 121v94q-24 -19 -49 -35v81q32 23 48 36v221q0 144 33.5 206.5t105.5 62.5q57 0 85 -40t28 -110q0 -102 -52 -201t-119 -164v-118q0 -45 15 -62t54 -17q36 0 64 12l10 -76q-27 -11 -74 -11zM156 549v-181q42 49 71.5 122t29.5 146q0 69 -42 69
q-59 0 -59 -156z" />
    <glyph glyph-name="numero" unicode="&#x2116;" horiz-adv-x="1538" 
d="M252 666q-34 40 -53 52t-56 13v49h213l419 -548v389q0 103 36.5 150t120.5 47q120 0 120 -89q0 -47 -33 -66h-76v33q0 33 -8.5 47t-29.5 14q-31 0 -43.5 -30t-12.5 -102v-625h-56l-467 600v-413q0 -103 -36.5 -150t-120.5 -47q-60 0 -89.5 24t-29.5 65q0 46 32 66h77v-33
q0 -33 8.5 -47t29.5 -14q31 0 43 30t12 102v483zM1017 0v69h404v-69h-404zM1230 227q55 0 82 40.5t27 110.5q0 81 -33 136.5t-100 55.5q-54 0 -81 -40.5t-27 -110.5q0 -80 33 -136t99 -56zM1210 168q-101 0 -163.5 65t-62.5 157q0 107 70 173t173 66q101 0 163.5 -64.5
t62.5 -157.5q0 -107 -70 -173t-173 -66z" />
    <glyph glyph-name="published" unicode="&#x2117;" horiz-adv-x="890" 
d="M45 390q0 166 117 283t283 117t283 -117t117 -283t-117 -283t-283 -117t-283 117t-117 283zM75 390q0 -153 108.5 -261.5t261.5 -108.5t261.5 108.5t108.5 261.5t-108.5 261.5t-261.5 108.5t-261.5 -108.5t-108.5 -261.5zM493 348h-84v-107q0 -28 19 -37.5t63 -10.5v-34
h-235v34q35 1 48 10.5t13 37.5v306q0 29 -12.5 37.5t-48.5 10.5v34h236q93 0 138 -40t45 -100q0 -141 -182 -141zM409 588v-199h62q53 0 78.5 23.5t25.5 75.5q0 46 -28 73t-82 27h-56z" />
    <glyph glyph-name="servicemark" unicode="&#x2120;" horiz-adv-x="871" 
d="M176 440q-69 0 -112 32l-4 79h30q20 -78 91 -78q29 0 48 13t19 37q0 21 -11.5 32.5t-39.5 19.5l-49 15q-86 27 -86 96q0 45 33 72t88 27q67 0 108 -29v-72h-30q-9 35 -27 51.5t-55 16.5q-25 0 -39.5 -12t-14.5 -33q0 -35 44 -48l50 -15q44 -12 67 -35t23 -66
q0 -49 -37 -76t-96 -27zM705 534l-21 150l-97 -238h-37l-98 238l-21 -150q-3 -21 -3 -33q0 -15 9.5 -20t35.5 -7v-28h-124v28q36 3 40 26l29 221q0 15 -8.5 22t-31.5 8v29h117q3 -17 7 -30l86 -209l86 209q4 13 7 30h112v-29q-22 -1 -30.5 -8t-9.5 -22l30 -221q2 -23 40 -26
v-28h-160v28q27 2 36.5 7t9.5 20q0 5 -4 33z" />
    <glyph glyph-name="trademark" unicode="&#x2122;" horiz-adv-x="906" 
d="M38 780h323l7 -102h-26q-20 43 -32.5 56t-41.5 13h-32v-242q0 -17 11 -23t37 -8v-28h-169v28q26 2 37.5 8t11.5 23v242h-32q-29 0 -41.5 -13t-31.5 -56h-28zM623 541l86 209q4 13 7 30h112v-29q-22 -1 -30.5 -8t-9.5 -22l30 -221q2 -23 40 -26v-28h-160v28q27 2 36.5 7
t9.5 20q0 5 -4 33l-21 150l-97 -238h-37l-98 238l-21 -150q-3 -21 -3 -33q0 -15 9.5 -20t35.5 -7v-28h-124v28q36 3 40 26l29 221q0 15 -8.5 22t-31.5 8v29h117q3 -17 7 -30z" />
    <glyph glyph-name="estimated" unicode="&#x212e;" horiz-adv-x="802" 
d="M791 358h-649q3 -51 13 -94t31 -82t52.5 -66.5t79 -44t107.5 -16.5q116 0 188 54t85 156h78q-15 -137 -108.5 -206t-247.5 -69q-187 0 -298 108.5t-111 291.5q0 181 108 290t282 109t282 -109t108 -290v-32zM401 726q-67 0 -117 -24.5t-79.5 -68t-44 -95.5t-17.5 -116
h517q-3 64 -18 116t-44 95.5t-79.5 68t-117.5 24.5z" />
    <glyph glyph-name="uni2153" unicode="&#x2153;" horiz-adv-x="1069" 
d="M232 786h29v-403q0 -15 6.5 -24.5t24 -14.5t33.5 -6.5t50 -3.5v-38h-331v38q66 3 90 11.5t24 37.5v276h-114v34l34 5q51 9 86.5 29.5t67.5 58.5zM255 0l517 780h70l-517 -780h-70zM882 269q65 -6 102.5 -41.5t37.5 -90.5q0 -70 -53 -106.5t-133 -36.5q-78 0 -122 30
t-44 74q0 33 31 50h63v-24q0 -43 20 -67t59 -24q78 0 78 87q0 51 -31.5 77.5t-86.5 26.5h-22l-6 26q64 24 93.5 47.5t29.5 56.5q0 28 -19 44t-54 16q-56 0 -109 -55l-23 21q52 110 170 110q63 0 99 -29t36 -77q0 -43 -34 -72.5t-82 -42.5z" />
    <glyph glyph-name="uni2154" unicode="&#x2154;" horiz-adv-x="1084" 
d="M137 383h115q41 0 59.5 12t43.5 59h29l-16 -158h-352v30q13 9 68.5 65t62.5 61q60 56 81 92t21 76t-23.5 62t-65.5 22q-24 0 -45.5 -8.5t-33.5 -17.5t-30 -26l-21 24q62 110 178 110q71 0 111 -36t40 -99q0 -24 -9 -47.5t-20.5 -41.5t-37 -43.5t-43.5 -40.5t-55 -46
t-57 -49zM271 0l517 780h70l-517 -780h-70zM898 269q65 -6 102 -41.5t37 -90.5q0 -70 -53 -106.5t-132 -36.5q-78 0 -122 30t-44 74q0 33 31 50h62v-24q0 -43 20.5 -67t59.5 -24q78 0 78 87q0 51 -31.5 77.5t-86.5 26.5h-22l-6 26q63 24 92.5 47.5t29.5 56.5q0 28 -19 44
t-54 16q-57 0 -108 -55l-24 21q54 110 171 110q63 0 99 -29t36 -77q0 -43 -34 -72.5t-82 -42.5z" />
    <glyph glyph-name="uni2155" unicode="&#x2155;" horiz-adv-x="1052" 
d="M232 786h29v-403q0 -15 6.5 -24.5t24 -14.5t33.5 -6.5t50 -3.5v-38h-331v38q66 3 90 11.5t24 37.5v276h-114v34l34 5q51 9 86.5 29.5t67.5 58.5zM255 0l517 780h70l-517 -780h-70zM831 34q39 0 60.5 21.5t21.5 59.5q0 123 -218 124l42 245h155q30 0 41.5 4.5t25.5 24.5
h33l-26 -121h-203l-13 -73q116 -3 182.5 -44.5t66.5 -123.5q0 -73 -50.5 -115t-128.5 -42q-79 0 -122 30t-43 73q0 35 31 51h62v-23q0 -91 83 -91z" />
    <glyph glyph-name="uni2156" unicode="&#x2156;" horiz-adv-x="1068" 
d="M137 383h115q41 0 59.5 12t43.5 59h29l-16 -158h-352v30q13 9 68.5 65t62.5 61q60 56 81 92t21 76t-23.5 62t-65.5 22q-24 0 -45.5 -8.5t-33.5 -17.5t-30 -26l-21 24q62 110 178 110q71 0 111 -36t40 -99q0 -24 -9 -47.5t-20.5 -41.5t-37 -43.5t-43.5 -40.5t-55 -46
t-57 -49zM271 0l517 780h70l-517 -780h-70zM847 34q39 0 60.5 21.5t21.5 59.5q0 123 -219 124l43 245h155q30 0 41 4.5t26 24.5h33l-26 -121h-204l-12 -73q115 -3 181.5 -44.5t66.5 -123.5q0 -73 -50.5 -115t-128.5 -42t-121 30t-43 73q0 35 31 51h62v-23q0 -91 83 -91z" />
    <glyph glyph-name="uni2157" unicode="&#x2157;" horiz-adv-x="1021" 
d="M244 565q65 -6 102.5 -41.5t37.5 -90.5q0 -70 -53 -106.5t-132 -36.5q-78 0 -122 30t-44 74q0 34 31 50h62v-24q0 -43 20 -67t59 -24q78 0 78 87q0 51 -31.5 77.5t-86.5 26.5h-22l-5 26q63 24 92.5 47.5t29.5 56.5q0 28 -19 44t-54 16q-57 0 -108 -55l-24 21
q52 110 170 110q63 0 99 -29t36 -77q0 -43 -34 -72.5t-82 -42.5zM224 0l517 780h70l-517 -780h-70zM800 34q39 0 60.5 21.5t21.5 59.5q0 123 -219 124l43 245h155q30 0 41 4.5t26 24.5h33l-26 -121h-204l-12 -73q115 -3 181.5 -44.5t66.5 -123.5q0 -73 -50.5 -115
t-128.5 -42t-121.5 30t-43.5 73q0 34 31 51h63v-23q0 -91 83 -91z" />
    <glyph glyph-name="uni2158" unicode="&#x2158;" horiz-adv-x="1095" 
d="M80 465h178v212zM359 296h-101v121h-244v38l269 325h76v-315h84v-48h-84v-121zM298 0l517 780h70l-517 -780h-70zM874 34q39 0 60.5 21.5t21.5 59.5q0 123 -219 124l43 245h155q30 0 41 4.5t26 24.5h33l-26 -121h-204l-12 -73q115 -3 181.5 -44.5t66.5 -123.5
q0 -73 -50.5 -115t-128.5 -42t-121.5 30t-43.5 73q0 34 31 51h63v-23q0 -91 83 -91z" />
    <glyph glyph-name="uni2159" unicode="&#x2159;" horiz-adv-x="1049" 
d="M232 786h29v-403q0 -15 6.5 -24.5t24 -14.5t33.5 -6.5t50 -3.5v-38h-331v38q66 3 90 11.5t24 37.5v276h-114v34l34 5q51 9 86.5 29.5t67.5 58.5zM255 0l517 780h70l-517 -780h-70zM952 463q-165 -52 -200 -191q47 43 118 43q67 0 109 -39.5t42 -109.5q0 -80 -55 -126
t-132 -46q-90 0 -142 55t-52 149q0 107 77.5 188.5t212.5 104.5zM817 256q-41 0 -71 -17q-2 -14 -2 -43q0 -71 25 -114.5t72 -43.5q40 0 62 27.5t22 75.5q0 51 -28.5 83t-79.5 32z" />
    <glyph glyph-name="uni215A" unicode="&#x215a;" horiz-adv-x="1023" 
d="M211 330q39 0 60.5 21.5t21.5 59.5q0 123 -219 124l43 245h155q30 0 41.5 4.5t25.5 24.5h33l-26 -121h-204l-12 -73q115 -3 181.5 -44.5t66.5 -123.5q0 -73 -50.5 -115t-128.5 -42t-121 30t-43 73q0 35 31 51h62v-23q0 -91 83 -91zM230 0l517 780h70l-517 -780h-70z
M927 463q-166 -52 -201 -191q49 43 119 43q67 0 109 -39.5t42 -109.5q0 -80 -55 -126t-132 -46q-90 0 -142 55t-52 149q0 107 77.5 188.5t211.5 104.5zM791 256q-40 0 -70 -17q-3 -21 -3 -43q0 -71 25.5 -114.5t72.5 -43.5q39 0 61 27.5t22 75.5q0 52 -28.5 83.5t-79.5 31.5
z" />
    <glyph glyph-name="uni215B" unicode="&#x215b;" horiz-adv-x="1079" 
d="M232 786h29v-403q0 -15 6.5 -24.5t24 -14.5t33.5 -6.5t50 -3.5v-38h-331v38q66 3 90 11.5t24 37.5v276h-114v34l34 5q51 9 86.5 29.5t67.5 58.5zM255 0l517 780h70l-517 -780h-70zM1022 377q0 -39 -28 -65t-71 -36l19 -8q101 -38 101 -130q0 -66 -49 -105t-136 -39
q-86 0 -136.5 32.5t-50.5 89.5q0 42 29 70t78 40l-9 4q-80 38 -80 120q0 64 45.5 102t123.5 38q75 0 119.5 -30.5t44.5 -82.5zM882 181l-77 31q-49 -30 -49 -86q0 -42 28 -65t75 -23q43 0 67.5 18t24.5 50q0 26 -17 43.5t-52 31.5zM837 313l55 -24q49 31 49 87
q0 33 -22.5 51t-62.5 18q-38 0 -58.5 -16.5t-20.5 -45.5q0 -46 60 -70z" />
    <glyph glyph-name="uni215C" unicode="&#x215c;" horiz-adv-x="1047" 
d="M244 565q65 -6 102.5 -41.5t37.5 -90.5q0 -70 -53 -106.5t-132 -36.5q-78 0 -122 30t-44 74q0 34 31 50h62v-24q0 -43 20 -67t59 -24q78 0 78 87q0 51 -31.5 77.5t-86.5 26.5h-22l-5 26q63 24 92.5 47.5t29.5 56.5q0 28 -19 44t-54 16q-57 0 -108 -55l-24 21
q52 110 170 110q63 0 99 -29t36 -77q0 -43 -34 -72.5t-82 -42.5zM224 0l517 780h70l-517 -780h-70zM991 377q0 -39 -28 -65t-71 -36l19 -8q100 -39 100 -130q0 -66 -49 -105t-136 -39q-85 0 -135.5 32.5t-50.5 89.5q0 42 29 70t77 40l-8 4q-80 38 -80 120q0 64 45 102
t123 38q76 0 120.5 -30.5t44.5 -82.5zM851 181l-77 31q-49 -29 -49 -86q0 -42 27.5 -65t74.5 -23q43 0 68 18.5t25 49.5q0 47 -69 75zM805 313l56 -24q49 31 49 87q0 33 -22.5 51t-62.5 18q-38 0 -59 -16.5t-21 -45.5q0 -46 60 -70z" />
    <glyph glyph-name="uni215D" unicode="&#x215d;" horiz-adv-x="1053" 
d="M211 330q39 0 60.5 21.5t21.5 59.5q0 123 -219 124l43 245h155q30 0 41.5 4.5t25.5 24.5h33l-26 -121h-204l-12 -73q115 -3 181.5 -44.5t66.5 -123.5q0 -73 -50.5 -115t-128.5 -42t-121 30t-43 73q0 35 31 51h62v-23q0 -91 83 -91zM230 0l517 780h70l-517 -780h-70z
M997 377q0 -39 -28 -65t-72 -36l20 -8q100 -39 100 -130q0 -66 -49 -105t-136 -39q-85 0 -135.5 32.5t-50.5 89.5q0 42 29 70t77 40l-8 4q-80 38 -80 120q0 64 45 102t123 38q76 0 120.5 -30.5t44.5 -82.5zM857 181l-77 31q-49 -29 -49 -86q0 -42 27.5 -65t74.5 -23
q43 0 68 18.5t25 49.5q0 47 -69 75zM811 313l56 -24q49 31 49 87q0 33 -22.5 51t-62.5 18q-38 0 -59 -16.5t-21 -45.5q0 -46 60 -70z" />
    <glyph glyph-name="uni215E" unicode="&#x215e;" horiz-adv-x="963" 
d="M330 682h-206q-23 0 -36.5 -15t-26.5 -51h-35l27 164h354v-27l-203 -457h-92zM139 0l517 780h70l-517 -780h-70zM907 377q0 -39 -28 -65t-72 -36l19 -8q101 -38 101 -130q0 -66 -49 -105t-136 -39q-85 0 -135.5 32.5t-50.5 89.5q0 42 29 70t77 40l-8 4q-80 38 -80 120
q0 64 45 102t123 38q76 0 120.5 -30.5t44.5 -82.5zM766 181l-77 31q-48 -29 -48 -86q0 -42 27.5 -65t74.5 -23q43 0 67.5 18t24.5 50q0 26 -17 43.5t-52 31.5zM721 313l56 -24q48 31 48 87q0 33 -22.5 51t-62.5 18q-38 0 -58.5 -16.5t-20.5 -45.5q0 -46 60 -70z" />
    <glyph glyph-name="uni215F" unicode="&#x215f;" horiz-adv-x="690" 
d="M232 786h29v-403q0 -15 6.5 -24.5t24 -14.5t33.5 -6.5t50 -3.5v-38h-331v38q66 3 90 11.5t24 37.5v276h-114v34l34 5q51 9 86.5 29.5t67.5 58.5zM255 0l517 780h70l-517 -780h-70z" />
    <glyph glyph-name="arrowleft" unicode="&#x2190;" horiz-adv-x="860" 
d="M452 101l-411 283v12l411 283v-52l-233 -216h612v-42h-612l233 -216v-52z" />
    <glyph glyph-name="arrowup" unicode="&#x2191;" horiz-adv-x="860" 
d="M141 379l283 411h12l283 -411h-52l-216 233v-612h-42v612l-216 -233h-52z" />
    <glyph glyph-name="arrowright" unicode="&#x2192;" horiz-adv-x="860" 
d="M831 384l-411 -283v52l233 216h-612v42h612l-233 216v52l411 -283v-12z" />
    <glyph glyph-name="arrowdown" unicode="&#x2193;" horiz-adv-x="860" 
d="M424 -10l-283 411h52l216 -233v612h42v-612l216 233h52l-283 -411h-12z" />
    <glyph glyph-name="uni2196" unicode="&#x2196;" horiz-adv-x="860" 
d="M119 290l-90 491l8 9l491 -91l-37 -37l-318 13l434 -433l-30 -30l-433 433l12 -318z" />
    <glyph glyph-name="uni2197" unicode="&#x2197;" horiz-adv-x="860" 
d="M332 699l491 91l8 -9l-90 -491l-37 37l12 318l-433 -433l-30 30l434 432l-318 -12z" />
    <glyph glyph-name="uni2198" unicode="&#x2198;" horiz-adv-x="860" 
d="M741 490l90 -491l-8 -9l-491 91l37 37l318 -13l-434 433l30 30l433 -433l-12 318z" />
    <glyph glyph-name="uni2199" unicode="&#x2199;" horiz-adv-x="860" 
d="M528 81l-491 -91l-8 9l90 491l37 -37l-12 -318l433 433l30 -30l-434 -433l318 13z" />
    <glyph glyph-name="partialdiff" unicode="&#x2202;" horiz-adv-x="644" 
d="M597 361q0 -185 -80.5 -278t-207.5 -93q-123 0 -197 78.5t-74 191.5q0 126 81 205t194 79q54 0 95.5 -23t57.5 -56q-12 103 -79 177.5t-167 74.5q-75 0 -140 -36l-17 35q85 74 209 74q83 0 146.5 -33t102 -92t57.5 -135.5t19 -168.5zM336 54q67 0 101 50.5t34 135.5
q0 99 -43.5 169.5t-127.5 70.5q-67 0 -101 -50.5t-34 -135.5q0 -98 44.5 -169t126.5 -71z" />
    <glyph glyph-name="increment" unicode="&#x2206;" horiz-adv-x="860" 
d="M55 0v37l353 743h44l353 -743v-37h-750zM644 60l-254 536l-250 -536h504z" />
    <glyph glyph-name="product" unicode="&#x220f;" horiz-adv-x="960" 
d="M673 722h-386v-594q0 -46 24.5 -61.5t85.5 -17.5v-49h-349v49q61 2 85 17.5t24 61.5v524q0 46 -24 61.5t-85 17.5v49h865v-49q-61 -2 -85.5 -17.5t-24.5 -61.5v-524q0 -46 24.5 -61.5t85.5 -17.5v-49h-350v49q61 2 85.5 17.5t24.5 61.5v594z" />
    <glyph glyph-name="summation" unicode="&#x2211;" horiz-adv-x="661" 
d="M150 110h235q75 0 104.5 16.5t74.5 90.5h47l-33 -217h-548v75l288 301l-275 319v85h544l3 -191h-45q-31 75 -64 103t-99 28h-182l240 -280v-41z" />
    <glyph glyph-name="minus" unicode="&#x2212;" 
d="M620 257h-540v71h540v-71z" />
    <glyph glyph-name="radical" unicode="&#x221a;" horiz-adv-x="775" 
d="M343 143l355 621h68l-440 -764h-75l-109 464h-106v42l218 39z" />
    <glyph glyph-name="infinity" unicode="&#x221e;" horiz-adv-x="891" 
d="M110 313q0 -54 32 -83t85 -29q96 0 168 100l-95 71q-55 42 -99 42q-41 0 -66 -26t-25 -75zM781 336q0 54 -32 83t-86 29q-95 0 -167 -100l95 -71q55 -42 99 -42q41 0 66 26t25 75zM512 210l-80 60q-83 -126 -210 -126q-31 0 -60.5 8.5t-58 27t-46 54.5t-17.5 84
q0 89 52 138.5t126 49.5q43 0 78.5 -15.5t82.5 -51.5l80 -60q81 126 210 126q31 0 60.5 -8.5t58 -27t46 -54.5t17.5 -84q0 -89 -52 -138.5t-127 -49.5q-43 0 -78 15.5t-82 51.5z" />
    <glyph glyph-name="integral" unicode="&#x222b;" horiz-adv-x="643" 
d="M209 -7l55 560q11 115 72.5 176t166.5 61q137 0 137 -91q0 -43 -36 -64h-83q5 15 5 37q0 36 -12 50t-39 14q-39 0 -57.5 -35t-26.5 -116l-55 -560q-11 -115 -71 -176t-164 -61q-70 0 -105.5 24.5t-35.5 66.5q0 20 10.5 38t25.5 26h83q-5 -20 -5 -37q0 -36 12.5 -49.5
t38.5 -13.5q40 0 58 34.5t26 115.5z" />
    <glyph glyph-name="approxequal" unicode="&#x2248;" 
d="M485 374q70 0 114 50l33 -57q-2 -3 -5.5 -7t-17 -15t-29.5 -19.5t-43 -15.5t-57 -7q-60 0 -137.5 35.5t-127.5 35.5q-16 0 -30.5 -3t-25.5 -7t-20.5 -9.5t-16.5 -11t-11.5 -9.5t-6.5 -7l-3 -3l-33 57q5 7 15.5 17.5t49.5 28t87 17.5q60 0 137.5 -35t127.5 -35zM485 211
q70 0 114 51l33 -57q-2 -3 -5.5 -7t-17 -15t-29.5 -19.5t-43 -15.5t-57 -7q-60 0 -137.5 35.5t-127.5 35.5q-16 0 -30.5 -3t-25.5 -7t-20.5 -9.5t-16.5 -11t-11.5 -9.5t-6.5 -7l-3 -3l-33 56q2 3 5.5 7t17 15t29.5 19.5t43 15.5t57 7q60 0 137.5 -35.5t127.5 -35.5z" />
    <glyph glyph-name="notequal" unicode="&#x2260;" 
d="M169 76l63 97h-152v71h199l63 96h-262v72h308l64 97h79l-64 -97h153v-72h-199l-63 -96h260v-71h-307l-63 -97h-79z" />
    <glyph glyph-name="equivalence" unicode="&#x2261;" 
d="M620 120h-540v69h540v-69zM620 591h-540v69h540v-69zM620 356h-540v69h540v-69z" />
    <glyph glyph-name="lessequal" unicode="&#x2264;" 
d="M620 15l-540 168v68l540 -168v-68zM155 362l129 -36l336 -98v-76l-540 165v89l540 167v-76l-336 -99z" />
    <glyph glyph-name="greaterequal" unicode="&#x2265;" 
d="M620 183l-540 -168v68l540 168v-68zM416 326l129 35l-129 37l-336 99v76l540 -167v-89l-540 -165v76z" />
    <glyph glyph-name="squaremultiply" unicode="&#x22a0;" horiz-adv-x="976" 
d="M98 0v780h780v-780h-780zM811 717h-646v-654h646v654zM216 165l225 225l-225 225l47 47l225 -225l224 225l48 -47l-225 -225l225 -225l-48 -47l-224 225l-225 -225z" />
    <glyph glyph-name="house" unicode="&#x2302;" horiz-adv-x="850" 
d="M780 0h-710v450l355 340l355 -340v-450z" />
    <glyph glyph-name="blacksquare" unicode="&#x25a0;" horiz-adv-x="976" 
d="M878 780v-780h-780v780h780z" />
    <glyph glyph-name="blacksquare" unicode="&#xe740;" horiz-adv-x="976" 
d="M878 780v-780h-780v780h780z" />
    <glyph glyph-name="whitesquare" unicode="&#x25a1;" horiz-adv-x="976" 
d="M98 0v780h780v-780h-780zM811 717h-646v-654h646v654z" />
    <glyph glyph-name="blacksmallsquare" unicode="&#x25aa;" horiz-adv-x="726" 
d="M628 530v-530h-530v530h530z" />
    <glyph glyph-name="whitesmallsquare" unicode="&#x25ab;" horiz-adv-x="726" 
d="M98 0v530h530v-530h-530zM561 467h-396v-404h396v404z" />
    <glyph glyph-name="triagup" unicode="&#x25b2;" horiz-adv-x="800" 
d="M790 0h-780l390 676z" />
    <glyph glyph-name="triagrt" unicode="&#x25ba;" horiz-adv-x="800" 
d="M34 0v780l676 -390z" />
    <glyph glyph-name="triagdn" unicode="&#x25bc;" horiz-adv-x="800" 
d="M10 780h780l-390 -676z" />
    <glyph glyph-name="triaglf" unicode="&#x25c4;" horiz-adv-x="800" 
d="M710 780v-780l-676 390z" />
    <glyph glyph-name="lozenge" unicode="&#x25ca;" horiz-adv-x="900" 
d="M450 -10l-368 400l368 400l368 -400zM177 390l273 -301l273 301l-273 301z" />
    <glyph glyph-name="whitecircle" unicode="&#x25cb;" horiz-adv-x="976" 
d="M88 390q0 166 117 283t283 117t283 -117t117 -283t-117 -283t-283 -117t-283 117t-117 283zM815 390q0 138 -95.5 235.5t-231.5 97.5q-137 0 -232 -97.5t-95 -235.5t95.5 -235.5t231.5 -97.5q137 0 232 97.5t95 235.5z" />
    <glyph glyph-name="whitecircle" unicode="&#x25ef;" horiz-adv-x="976" 
d="M88 390q0 166 117 283t283 117t283 -117t117 -283t-117 -283t-283 -117t-283 117t-117 283zM815 390q0 138 -95.5 235.5t-231.5 97.5q-137 0 -232 -97.5t-95 -235.5t95.5 -235.5t231.5 -97.5q137 0 232 97.5t95 235.5z" />
    <glyph glyph-name="bullseye" unicode="&#x25ce;" horiz-adv-x="960" 
d="M80 390q0 166 117 283t283 117t283 -117t117 -283t-117 -283t-283 -117t-283 117t-117 283zM330 390q0 62 44 106t106 44t106 -44t44 -106t-44 -106t-106 -44t-106 44t-44 106zM157 339q0 -113 79.5 -192.5t192.5 -79.5t193 79.5t80 192.5t-80 193t-193 80t-192.5 -80
t-79.5 -193z" />
    <glyph glyph-name="blackcircle" unicode="&#x25cf;" horiz-adv-x="976" 
d="M88 390q0 166 117 283t283 117t283 -117t117 -283t-117 -283t-283 -117t-283 117t-117 283z" />
    <glyph glyph-name="uni25E2" unicode="&#x25e2;" horiz-adv-x="800" 
d="M26 202l552 552l202 -754z" />
    <glyph glyph-name="uni25E3" unicode="&#x25e3;" horiz-adv-x="800" 
d="M222 754l552 -552l-754 -202z" />
    <glyph glyph-name="uni25E4" unicode="&#x25e4;" horiz-adv-x="800" 
d="M774 578l-552 -552l-202 754z" />
    <glyph glyph-name="uni25E5" unicode="&#x25e5;" horiz-adv-x="800" 
d="M578 26l-552 552l754 202z" />
    <glyph glyph-name="uni2605" unicode="&#x2605;" horiz-adv-x="880" 
d="M440 180l-260 -190l99 307l-260 189h322l99 306l99 -306h322l-260 -189l99 -307z" />
    <glyph glyph-name="ballotboxwithx" unicode="&#x2612;" horiz-adv-x="710" 
d="M90 0v530h530v-530h-530zM550 464h-390v-398h390v398zM180 136l130 129l-130 129l46 46l129 -130l129 130l46 -46l-130 -129l130 -129l-46 -46l-129 130l-129 -130z" />
    <glyph glyph-name="uni263C" unicode="&#x263c;" horiz-adv-x="960" 
d="M880 390l-169 -30l155 -73l-171 15l132 -112l-162 59l98 -141l-141 98l58 -162l-111 130l15 -170l-74 155l-30 -169l-30 169l-74 -155l15 170l-111 -130l58 162l-141 -98l98 141l-162 -59l132 112l-171 -15l155 73l-169 30l169 30l-155 73l171 -15l-132 112l162 -59
l-98 141l141 -98l-58 162l111 -130l-15 170l74 -155l30 169l30 -169l74 155l-15 -170l111 130l-58 -162l141 98l-98 -141l162 59l-132 -112l171 15l-155 -73z" />
    <glyph glyph-name="uni263E" unicode="&#x263e;" horiz-adv-x="960" 
d="M624 728q-134 0 -229 -99t-95 -239t95 -239t229 -99q50 0 96 15q-107 -77 -240 -77q-166 0 -283 117t-117 283t117 283t283 117q131 0 240 -77q-52 15 -96 15z" />
    <glyph glyph-name="spade" unicode="&#x2660;" horiz-adv-x="900" 
d="M451 790q32 -48 97 -116t136 -114q78 -51 121 -103t43 -123q0 -73 -51 -123.5t-125 -50.5q-69 0 -120.5 46t-79.5 115l-3 -1q8 -102 26.5 -174t55.5 -146h-202q37 74 55.5 146t26.5 174l-3 1q-28 -69 -79.5 -115t-120.5 -46q-74 0 -125 50.5t-51 123.5q0 71 43 123
t121 103q71 46 136 114t97 116h2z" />
    <glyph glyph-name="club" unicode="&#x2663;" horiz-adv-x="900" 
d="M349 0q37 74 55.5 146t26.5 174l-3 1q-28 -69 -79.5 -115t-120.5 -46q-74 0 -125 50.5t-51 123.5q0 79 48.5 129.5t125.5 50.5q40 0 84 -23l2 2q-38 57 -38 117q0 75 50.5 127.5t125.5 52.5t125.5 -52.5t50.5 -127.5q0 -60 -38 -117l2 -2q44 23 84 23q77 0 125.5 -50.5
t48.5 -129.5q0 -73 -51 -123.5t-125 -50.5q-69 0 -120.5 46t-79.5 115l-3 -1q8 -102 26.5 -174t55.5 -146h-202z" />
    <glyph glyph-name="heart" unicode="&#x2665;" horiz-adv-x="900" 
d="M451 -10h-2q-28 43 -94 126.5t-139 166.5q-164 185 -164 301q0 90 52 148t139 58q85 0 132.5 -42.5t72.5 -114.5h4q25 72 72.5 114.5t132.5 42.5q87 0 139 -58t52 -148q0 -116 -164 -301q-73 -83 -139 -166.5t-94 -126.5z" />
    <glyph glyph-name="diamond" unicode="&#x2666;" horiz-adv-x="900" 
d="M817 390q-106 -83 -202.5 -188.5t-163.5 -211.5h-2q-67 106 -163.5 211.5t-202.5 188.5q106 83 202.5 188.5t163.5 211.5h2q67 -106 163.5 -211.5t202.5 -188.5z" />
    <glyph glyph-name="musicflatsign" unicode="&#x266d;" horiz-adv-x="473" 
d="M442 355q0 -93 -56.5 -176.5t-141.5 -139t-185 -83.5v864h58v-366q21 38 64.5 63.5t87.5 25.5q173 0 173 -188zM117 339v-293q41 15 80 38.5t81.5 59.5t68.5 89t26 113q0 129 -110 129q-56 0 -98.5 -43t-47.5 -93z" />
    <glyph glyph-name="musicsharpsign" unicode="&#x266f;" horiz-adv-x="458" 
d="M352 880v-205l90 73v-97l-90 -73v-180l90 73v-97l-90 -73v-301h-58v254l-129 -103v-251h-58v204l-91 -72v97l91 73v179l-91 -72v97l91 73v301h58v-255l129 103v252h58zM165 428v-180l129 103v180z" />
    <glyph glyph-name="uni267B" unicode="&#x267b;" horiz-adv-x="960" 
d="M863 266l1 -2l-96 -167q-15 -22 -21.5 -30t-24 -17t-42.5 -9h-57v-49l-113 136l113 135v-49h145q26 0 50 13t34 26zM186 122h-2l-96 168q-11 21 -15 32t-3 30.5t14 40.5l28 49l-42 24l174 31l59 -166l-41 24q-70 -120 -72 -125q-13 -23 -14 -50t4 -42zM404 779v1h193
q24 -1 36 -2.5t28 -12.5t28 -32l28 -49l43 24l-61 -166l-173 31l41 24l-72 125q-13 23 -36 37.5t-39 16.5zM200 598l67 119q10 17 34 31q46 24 97 10t68 -45l-116 -201zM446 41h-135q-22 0 -44 13q-43 25 -57.5 79.5t4.5 80.5h232v-173zM806 527l69 -117q10 -18 10 -44
q1 -48 -38 -87t-74 -39l-116 201z" />
    <glyph glyph-name="uni267C" unicode="&#x267c;" horiz-adv-x="960" 
d="M880 389q0 -166 -116.5 -282.5t-282.5 -116.5q-167 0 -284 116.5t-117 282.5q0 167 117 284t284 117q166 0 282.5 -117t116.5 -284zM313 645l-52 -92l116 -67l90 156q-13 24 -52.5 34.5t-75.5 -7.5q-18 -11 -26 -24zM415 694v-1q48 -5 71 -44l56 -97l-32 -19l134 -24
l47 129l-33 -19l-22 38q-14 24 -29.5 30.5t-41.5 6.5h-150zM343 121h105v134h-180q-15 -20 -3.5 -62.5t44.5 -61.5q17 -10 34 -10zM249 184h1q-20 44 3 84l56 97l32 -19l-46 129l-135 -24l33 -19l-22 -38q-10 -16 -11 -31.5t2 -23.5t12 -25zM784 407l-53 91l-116 -67
l90 -156q27 0 57.5 30t29.5 68q0 20 -8 34zM776 294l-1 1q-3 -4 -9 -11t-25.5 -18t-39.5 -11h-112v38l-88 -105l88 -105v38h44q28 0 41.5 10.5t26.5 32.5z" />
    <glyph glyph-name="uni267D" unicode="&#x267d;" horiz-adv-x="960" 
d="M880 389q0 -166 -116.5 -282.5t-282.5 -116.5q-167 0 -284 116.5t-117 282.5q0 167 117 284t284 117q166 0 282.5 -117t116.5 -284zM860 389q0 158 -111 269.5t-268 111.5q-158 0 -269.5 -111.5t-111.5 -269.5q0 -157 111.5 -268t269.5 -111q157 0 268 111t111 268z
M261 553l52 92q8 13 26 24q36 18 75.5 7.5t52.5 -34.5l-90 -156zM415 693v1h150q26 0 41.5 -6.5t29.5 -30.5l22 -38l33 19l-47 -129l-134 24l32 19l-56 97q-10 17 -28 28t-30 13zM448 121h-105q-17 0 -34 10q-33 19 -44.5 61.5t3.5 62.5h180v-134zM250 184h-1l-75 130
q-9 17 -12 25t-2 23.5t11 31.5l22 38l-33 19l135 24l46 -129l-32 19l-56 -97q-10 -18 -11 -39t4 -33zM731 498l53 -91q8 -14 8 -34q1 -38 -29.5 -68t-57.5 -30l-90 156zM775 295l1 -1l-75 -130q-9 -15 -15 -22.5t-20 -14t-33 -6.5h-44v-38l-88 105l88 105v-38h112
q20 0 38.5 10t26.5 20z" />
    <glyph glyph-name="mediumwhitecircle" unicode="&#x26aa;" horiz-adv-x="710" 
d="M80 265q0 114 80.5 194.5t194.5 80.5t194.5 -80.5t80.5 -194.5t-80.5 -194.5t-194.5 -80.5t-194.5 80.5t-80.5 194.5zM561 265q0 86 -60.5 147t-145.5 61t-145.5 -61t-60.5 -147t60.5 -147t145.5 -61t145.5 61t60.5 147z" />
    <glyph glyph-name="mediumblackcircle" unicode="&#x26ab;" horiz-adv-x="710" 
d="M80 265q0 114 80.5 194.5t194.5 80.5t194.5 -80.5t80.5 -194.5t-80.5 -194.5t-194.5 -80.5t-194.5 80.5t-80.5 194.5z" />
    <glyph glyph-name="anglebracketleft" unicode="&#x3008;" horiz-adv-x="380" 
d="M253 -130l-179 480l179 480h67l-175 -480l175 -480h-67z" />
    <glyph glyph-name="anglebracketright" unicode="&#x3009;" horiz-adv-x="380" 
d="M307 350l-179 -480h-68l175 480l-175 480h68z" />
    <glyph glyph-name="aogonek.school" unicode="&#xe150;" horiz-adv-x="680" 
d="M316 484q-72 0 -113.5 -55t-41.5 -150q0 -86 38.5 -143.5t117.5 -57.5q80 0 133 53v218q0 62 -38.5 98.5t-95.5 36.5zM650 70v-45q-119 -56 -119 -149q0 -30 18 -47t52 -17q44 0 65 17l11 -34q-43 -45 -111 -45q-53 0 -87 27.5t-34 84.5q0 82 85 140l-64 -12h-21l5 94
q-69 -94 -183 -94q-107 0 -168 71t-61 181q0 136 79 219t197 83q107 0 170 -58l54 64h37l-5 -114v-316q0 -26 10.5 -35.5t42.5 -12.5z" />
    <glyph glyph-name="a.school" unicode="&#xe151;" horiz-adv-x="680" 
d="M316 484q-72 0 -113.5 -55t-41.5 -150q0 -86 38.5 -143.5t117.5 -57.5q80 0 133 53v218q0 62 -38.5 98.5t-95.5 36.5zM445 -10l5 94q-69 -94 -183 -94q-107 0 -168 71t-61 181q0 136 79 219t197 83q107 0 170 -58l54 64h37l-5 -114v-316q0 -26 10.5 -35.5t42.5 -12.5
l27 -2v-45l-184 -35h-21z" />
    <glyph glyph-name="agrave.school" unicode="&#xe152;" horiz-adv-x="680" 
d="M316 484q-72 0 -113.5 -55t-41.5 -150q0 -86 38.5 -143.5t117.5 -57.5q80 0 133 53v218q0 62 -38.5 98.5t-95.5 36.5zM445 -10l5 94q-69 -94 -183 -94q-107 0 -168 71t-61 181q0 136 79 219t197 83q107 0 170 -58l54 64h37l-5 -114v-316q0 -26 10.5 -35.5t42.5 -12.5
l27 -2v-45l-184 -35h-21zM124 800h142l84 -208h-55z" />
    <glyph glyph-name="aacute.school" unicode="&#xe153;" horiz-adv-x="680" 
d="M316 484q-72 0 -113.5 -55t-41.5 -150q0 -86 38.5 -143.5t117.5 -57.5q80 0 133 53v218q0 62 -38.5 98.5t-95.5 36.5zM445 -10l5 94q-69 -94 -183 -94q-107 0 -168 71t-61 181q0 136 79 219t197 83q107 0 170 -58l54 64h37l-5 -114v-316q0 -26 10.5 -35.5t42.5 -12.5
l27 -2v-45l-184 -35h-21zM373 800h140l-171 -208h-55z" />
    <glyph glyph-name="acircumflex.school" unicode="&#xe154;" horiz-adv-x="680" 
d="M358 800l152 -208h-56l-135 119l-135 -119h-56l152 208h78zM316 484q-72 0 -113.5 -55t-41.5 -150q0 -86 38.5 -143.5t117.5 -57.5q80 0 133 53v218q0 62 -38.5 98.5t-95.5 36.5zM445 -10l5 94q-69 -94 -183 -94q-107 0 -168 71t-61 181q0 136 79 219t197 83
q107 0 170 -58l54 64h37l-5 -114v-316q0 -26 10.5 -35.5t42.5 -12.5l27 -2v-45l-184 -35h-21z" />
    <glyph glyph-name="adieresis.school" unicode="&#xe155;" horiz-adv-x="680" 
d="M140 697q0 32 22 54t53 22q32 0 54 -22t22 -54q0 -31 -22 -53t-54 -22q-31 0 -53 22t-22 53zM347 697q0 32 21.5 54t53.5 22t54 -22t22 -54q0 -31 -22.5 -53t-53.5 -22t-53 22t-22 53zM316 484q-72 0 -113.5 -55t-41.5 -150q0 -86 38.5 -143.5t117.5 -57.5q80 0 133 53
v218q0 62 -38.5 98.5t-95.5 36.5zM445 -10l5 94q-69 -94 -183 -94q-107 0 -168 71t-61 181q0 136 79 219t197 83q107 0 170 -58l54 64h37l-5 -114v-316q0 -26 10.5 -35.5t42.5 -12.5l27 -2v-45l-184 -35h-21z" />
    <glyph glyph-name="atilde.school" unicode="&#xe156;" horiz-adv-x="680" 
d="M316 484q-72 0 -113.5 -55t-41.5 -150q0 -86 38.5 -143.5t117.5 -57.5q80 0 133 53v218q0 62 -38.5 98.5t-95.5 36.5zM445 -10l5 94q-69 -94 -183 -94q-107 0 -168 71t-61 181q0 136 79 219t197 83q107 0 170 -58l54 64h37l-5 -114v-316q0 -26 10.5 -35.5t42.5 -12.5
l27 -2v-45l-184 -35h-21zM389 610q-33 0 -83 29.5t-69 29.5q-24 0 -37.5 -11.5t-30.5 -42.5l-44 7q24 69 55.5 101t79.5 32q33 0 83 -29.5t69 -29.5q24 0 37.5 11.5t30.5 42.5l44 -7q-24 -69 -56 -101t-79 -32z" />
    <glyph glyph-name="aring.school" unicode="&#xe157;" horiz-adv-x="680" 
d="M316 484q-72 0 -113.5 -55t-41.5 -150q0 -86 38.5 -143.5t117.5 -57.5q80 0 133 53v218q0 62 -38.5 98.5t-95.5 36.5zM445 -10l5 94q-69 -94 -183 -94q-107 0 -168 71t-61 181q0 136 79 219t197 83q107 0 170 -58l54 64h37l-5 -114v-316q0 -26 10.5 -35.5t42.5 -12.5
l27 -2v-45l-184 -35h-21zM198 697q0 48 32.5 81t83.5 33t83.5 -33t32.5 -81t-32.5 -81t-83.5 -33t-83.5 33t-32.5 81zM373 697q0 29 -15 47t-44 18t-44 -18t-15 -47t15 -46.5t44 -17.5t44 18t15 46z" />
    <glyph glyph-name="amacron.school" unicode="&#xe159;" horiz-adv-x="680" 
d="M316 484q-72 0 -113.5 -55t-41.5 -150q0 -86 38.5 -143.5t117.5 -57.5q80 0 133 53v218q0 62 -38.5 98.5t-95.5 36.5zM445 -10l5 94q-69 -94 -183 -94q-107 0 -168 71t-61 181q0 136 79 219t197 83q107 0 170 -58l54 64h37l-5 -114v-316q0 -26 10.5 -35.5t42.5 -12.5
l27 -2v-45l-184 -35h-21zM179 640v70h280v-70h-280z" />
    <glyph glyph-name="abreve.school" unicode="&#xe15a;" horiz-adv-x="680" 
d="M316 484q-72 0 -113.5 -55t-41.5 -150q0 -86 38.5 -143.5t117.5 -57.5q80 0 133 53v218q0 62 -38.5 98.5t-95.5 36.5zM445 -10l5 94q-69 -94 -183 -94q-107 0 -168 71t-61 181q0 136 79 219t197 83q107 0 170 -58l54 64h37l-5 -114v-316q0 -26 10.5 -35.5t42.5 -12.5
l27 -2v-45l-184 -35h-21zM319 601q-94 0 -136 50.5t-42 148.5h47q14 -122 131 -122t131 122h47q0 -98 -42 -148.5t-136 -50.5z" />
    <glyph glyph-name="ytilde.school" unicode="&#xe160;" horiz-adv-x="647" 
d="M287 -250q-88 0 -147 31t-59 92q0 53 42 73h82v-24q0 -62 24 -91t82 -29q73 0 106.5 48.5t33.5 149.5v99q-81 -98 -187 -98q-77 0 -121 40.5t-44 124.5v253q0 25 -13 36.5t-48 16.5l-18 3v44l175 25h29l-5 -103v-257q0 -96 93 -96q64 0 139 56v275q0 25 -13 36.5
t-48 16.5l-18 3v44l174 25h29l-5 -103v-439q0 -123 -76.5 -187.5t-206.5 -64.5zM384 610q-33 0 -83 29.5t-69 29.5q-24 0 -37.5 -11.5t-30.5 -42.5l-44 7q24 69 56 101t79 32q33 0 83 -29.5t69 -29.5q24 0 37.5 11.5t30.5 42.5l44 -7q-24 -69 -55.5 -101t-79.5 -32z" />
    <glyph glyph-name="g.school" unicode="&#xe161;" horiz-adv-x="653" 
d="M457 0v95q-69 -94 -183 -94q-111 0 -173.5 67t-62.5 175q0 136 82 218.5t201 82.5q51 0 96.5 -16t73.5 -42l55 64h36l-5 -114v-434q0 -122 -80 -187t-212 -65q-89 0 -151 31t-62 92q0 53 42 73h82v-24q0 -61 27.5 -90.5t86.5 -29.5q75 0 111 48t36 150zM324 484
q-75 0 -119 -53.5t-44 -149.5q0 -84 40.5 -138t123.5 -54q80 0 132 54v206q0 63 -37.5 99t-95.5 36z" />
    <glyph glyph-name="gcircumflex.school" unicode="&#xe163;" horiz-adv-x="653" 
d="M357 800l152 -208h-56l-135 119l-135 -119h-56l152 208h78zM457 0v95q-69 -94 -183 -94q-111 0 -173.5 67t-62.5 175q0 136 82 218.5t201 82.5q51 0 96.5 -16t73.5 -42l55 64h36l-5 -114v-434q0 -122 -80 -187t-212 -65q-89 0 -151 31t-62 92q0 53 42 73h82v-24
q0 -61 27.5 -90.5t86.5 -29.5q75 0 111 48t36 150zM324 484q-75 0 -119 -53.5t-44 -149.5q0 -84 40.5 -138t123.5 -54q80 0 132 54v206q0 63 -37.5 99t-95.5 36z" />
    <glyph glyph-name="gbreve.school" unicode="&#xe166;" horiz-adv-x="653" 
d="M457 0v95q-69 -94 -183 -94q-111 0 -173.5 67t-62.5 175q0 136 82 218.5t201 82.5q51 0 96.5 -16t73.5 -42l55 64h36l-5 -114v-434q0 -122 -80 -187t-212 -65q-89 0 -151 31t-62 92q0 53 42 73h82v-24q0 -61 27.5 -90.5t86.5 -29.5q75 0 111 48t36 150zM324 484
q-75 0 -119 -53.5t-44 -149.5q0 -84 40.5 -138t123.5 -54q80 0 132 54v206q0 63 -37.5 99t-95.5 36zM319 601q-94 0 -136 50.5t-42 148.5h47q14 -122 131 -122t131 122h47q0 -98 -42 -148.5t-136 -50.5z" />
    <glyph glyph-name="gdotaccent.school" unicode="&#xe167;" horiz-adv-x="653" 
d="M233 697q0 33 23 55.5t57 22.5t56.5 -22.5t22.5 -55.5t-22.5 -55t-56.5 -22t-57 22.5t-23 54.5zM457 0v95q-69 -94 -183 -94q-111 0 -173.5 67t-62.5 175q0 136 82 218.5t201 82.5q51 0 96.5 -16t73.5 -42l55 64h36l-5 -114v-434q0 -122 -80 -187t-212 -65q-89 0 -151 31
t-62 92q0 53 42 73h82v-24q0 -61 27.5 -90.5t86.5 -29.5q75 0 111 48t36 150zM324 484q-75 0 -119 -53.5t-44 -149.5q0 -84 40.5 -138t123.5 -54q80 0 132 54v206q0 63 -37.5 99t-95.5 36z" />
    <glyph glyph-name="gcommaaccent.school" unicode="&#xe168;" horiz-adv-x="653" 
d="M296 717h40q50 -11 50 -57q0 -26 -18.5 -43.5t-50.5 -17.5q-38 0 -60.5 25t-22.5 67q0 109 138 113v-42q-76 -7 -76 -45zM457 0v95q-69 -94 -183 -94q-111 0 -173.5 67t-62.5 175q0 136 82 218.5t201 82.5q51 0 96.5 -16t73.5 -42l55 64h36l-5 -114v-434q0 -122 -80 -187
t-212 -65q-89 0 -151 31t-62 92q0 53 42 73h82v-24q0 -61 27.5 -90.5t86.5 -29.5q75 0 111 48t36 150zM324 484q-75 0 -119 -53.5t-44 -149.5q0 -84 40.5 -138t123.5 -54q80 0 132 54v206q0 63 -37.5 99t-95.5 36z" />
    <glyph glyph-name="y.school" unicode="&#xe16b;" horiz-adv-x="647" 
d="M287 -250q-88 0 -147 31t-59 92q0 53 42 73h82v-24q0 -62 24 -91t82 -29q73 0 106.5 48.5t33.5 149.5v99q-81 -98 -187 -98q-77 0 -121 40.5t-44 124.5v253q0 25 -13 36.5t-48 16.5l-18 3v44l175 25h29l-5 -103v-257q0 -96 93 -96q64 0 139 56v275q0 25 -13 36.5
t-48 16.5l-18 3v44l174 25h29l-5 -103v-439q0 -123 -76.5 -187.5t-206.5 -64.5z" />
    <glyph glyph-name="ygrave.school" unicode="&#xe16c;" horiz-adv-x="647" 
d="M287 -250q-88 0 -147 31t-59 92q0 53 42 73h82v-24q0 -62 24 -91t82 -29q73 0 106.5 48.5t33.5 149.5v99q-81 -98 -187 -98q-77 0 -121 40.5t-44 124.5v253q0 25 -13 36.5t-48 16.5l-18 3v44l175 25h29l-5 -103v-257q0 -96 93 -96q64 0 139 56v275q0 25 -13 36.5
t-48 16.5l-18 3v44l174 25h29l-5 -103v-439q0 -123 -76.5 -187.5t-206.5 -64.5zM125 800h142l84 -208h-55z" />
    <glyph glyph-name="yacute.school" unicode="&#xe16d;" horiz-adv-x="647" 
d="M287 -250q-88 0 -147 31t-59 92q0 53 42 73h82v-24q0 -62 24 -91t82 -29q73 0 106.5 48.5t33.5 149.5v99q-81 -98 -187 -98q-77 0 -121 40.5t-44 124.5v253q0 25 -13 36.5t-48 16.5l-18 3v44l175 25h29l-5 -103v-257q0 -96 93 -96q64 0 139 56v275q0 25 -13 36.5
t-48 16.5l-18 3v44l174 25h29l-5 -103v-439q0 -123 -76.5 -187.5t-206.5 -64.5zM374 800h140l-171 -208h-55z" />
    <glyph glyph-name="ycircumflex.school" unicode="&#xe16e;" horiz-adv-x="647" 
d="M358 800l152 -208h-56l-135 119l-135 -119h-56l152 208h78zM287 -250q-88 0 -147 31t-59 92q0 53 42 73h82v-24q0 -62 24 -91t82 -29q73 0 106.5 48.5t33.5 149.5v99q-81 -98 -187 -98q-77 0 -121 40.5t-44 124.5v253q0 25 -13 36.5t-48 16.5l-18 3v44l175 25h29l-5 -103
v-257q0 -96 93 -96q64 0 139 56v275q0 25 -13 36.5t-48 16.5l-18 3v44l174 25h29l-5 -103v-439q0 -123 -76.5 -187.5t-206.5 -64.5z" />
    <glyph glyph-name="ydieresis.school" unicode="&#xe16f;" horiz-adv-x="647" 
d="M140 697q0 32 22 54t53 22q32 0 54 -22t22 -54q0 -31 -22 -53t-54 -22q-31 0 -53 22t-22 53zM347 697q0 32 21.5 54t53.5 22t54 -22t22 -54q0 -31 -22.5 -53t-53.5 -22t-53 22t-22 53zM287 -250q-88 0 -147 31t-59 92q0 53 42 73h82v-24q0 -62 24 -91t82 -29
q73 0 106.5 48.5t33.5 149.5v99q-81 -98 -187 -98q-77 0 -121 40.5t-44 124.5v253q0 25 -13 36.5t-48 16.5l-18 3v44l175 25h29l-5 -103v-257q0 -96 93 -96q64 0 139 56v275q0 25 -13 36.5t-48 16.5l-18 3v44l174 25h29l-5 -103v-439q0 -123 -76.5 -187.5t-206.5 -64.5z" />
    <glyph glyph-name="ymacron.school" unicode="&#xe171;" horiz-adv-x="647" 
d="M287 -250q-88 0 -147 31t-59 92q0 53 42 73h82v-24q0 -62 24 -91t82 -29q73 0 106.5 48.5t33.5 149.5v99q-81 -98 -187 -98q-77 0 -121 40.5t-44 124.5v253q0 25 -13 36.5t-48 16.5l-18 3v44l175 25h29l-5 -103v-257q0 -96 93 -96q64 0 139 56v275q0 25 -13 36.5
t-48 16.5l-18 3v44l174 25h29l-5 -103v-439q0 -123 -76.5 -187.5t-206.5 -64.5zM179 640v70h280v-70h-280z" />
    <glyph glyph-name="cordinal" unicode="&#xe181;" horiz-adv-x="401" 
d="M124 567q0 -66 31.5 -104t90.5 -38q66 0 107 52l27 -13q-17 -55 -60 -87t-111 -32q-83 0 -132.5 52t-49.5 131q0 93 58 149.5t147 56.5q62 0 101.5 -26t39.5 -70q0 -37 -30 -49h-67v29q0 71 -59 71q-42 0 -67.5 -32t-25.5 -90z" />
    <glyph glyph-name="ordfeminine.school" unicode="&#xe182;" horiz-adv-x="498" 
d="M425 655v-213q0 -19 6.5 -26.5t25.5 -8.5l17 -1v-37l-137 -24h-22l4 67q-40 -67 -128 -67q-75 0 -119.5 48.5t-44.5 129.5q0 96 57.5 153.5t144.5 57.5q79 0 126 -42l36 44h36zM236 688q-47 0 -73.5 -37t-26.5 -101q0 -60 25.5 -97.5t77.5 -37.5q48 0 80 29v152
q0 44 -23 68t-60 24z" />
    <glyph glyph-name="p.smcp" unicode="&#xe200;" horiz-adv-x="636" 
d="M270 221v-113q0 -36 27.5 -48.5t91.5 -14.5v-45h-338v45q49 2 72 14.5t23 48.5v352q0 36 -23 48.5t-72 14.5v45h330q112 0 166 -48.5t54 -124.5q0 -81 -56.5 -127.5t-159.5 -46.5h-115zM270 516v-243h83q62 0 89 29t27 91q0 123 -125 123h-74z" />
    <glyph glyph-name="p.smcp" unicode="&#xf770;" horiz-adv-x="636" 
d="M270 221v-113q0 -36 27.5 -48.5t91.5 -14.5v-45h-338v45q49 2 72 14.5t23 48.5v352q0 36 -23 48.5t-72 14.5v45h330q112 0 166 -48.5t54 -124.5q0 -81 -56.5 -127.5t-159.5 -46.5h-115zM270 516v-243h83q62 0 89 29t27 91q0 123 -125 123h-74z" />
    <glyph glyph-name="a.smcp" unicode="&#xe201;" horiz-adv-x="695" 
d="M465 113l-27 55h-250l-25 -55q-8 -19 -8 -31q0 -19 17.5 -26.5t65.5 -10.5v-45h-220v45q18 4 27 6.5t19.5 10t15.5 18.5l193 426l-31 66h137l236 -492q6 -11 16 -18.5t19.5 -10t27.5 -6.5v-45h-288v45q48 3 65.5 10.5t17.5 26.5q0 10 -8 31zM310 442l-99 -222h203z" />
    <glyph glyph-name="a.smcp" unicode="&#xf761;" horiz-adv-x="695" 
d="M465 113l-27 55h-250l-25 -55q-8 -19 -8 -31q0 -19 17.5 -26.5t65.5 -10.5v-45h-220v45q18 4 27 6.5t19.5 10t15.5 18.5l193 426l-31 66h137l236 -492q6 -11 16 -18.5t19.5 -10t27.5 -6.5v-45h-288v45q48 3 65.5 10.5t17.5 26.5q0 10 -8 31zM310 442l-99 -222h203z" />
    <glyph glyph-name="b.smcp" unicode="&#xe202;" horiz-adv-x="679" 
d="M342 515h-72v-199h71q61 0 90 24t29 78q0 45 -30.5 71t-87.5 26zM51 568h335q99 0 151.5 -36t52.5 -106q0 -58 -42.5 -91.5t-108.5 -41.5q88 -5 136.5 -41t48.5 -100q0 -72 -56 -112t-159 -40h-358v45q49 2 72 14.5t23 48.5v352q0 36 -23 48.5t-72 14.5v45zM349 52h26
q114 0 114 102q0 51 -32 81t-100 30h-87v-158q0 -31 18 -43t61 -12z" />
    <glyph glyph-name="b.smcp" unicode="&#xf762;" horiz-adv-x="679" 
d="M342 515h-72v-199h71q61 0 90 24t29 78q0 45 -30.5 71t-87.5 26zM51 568h335q99 0 151.5 -36t52.5 -106q0 -58 -42.5 -91.5t-108.5 -41.5q88 -5 136.5 -41t48.5 -100q0 -72 -56 -112t-159 -40h-358v45q49 2 72 14.5t23 48.5v352q0 36 -23 48.5t-72 14.5v45zM349 52h26
q114 0 114 102q0 51 -32 81t-100 30h-87v-158q0 -31 18 -43t61 -12z" />
    <glyph glyph-name="c.smcp" unicode="&#xe203;" horiz-adv-x="629" 
d="M365 49q67 0 107.5 34.5t65.5 105.5h47l-16 -152q-96 -47 -221 -47q-142 0 -223.5 81.5t-81.5 201.5q0 136 88 220.5t220 84.5q125 0 204 -53l4 -136h-45q-24 68 -64 99t-104 31q-87 0 -128.5 -60t-41.5 -158q0 -109 48 -180.5t141 -71.5z" />
    <glyph glyph-name="c.smcp" unicode="&#xf763;" horiz-adv-x="629" 
d="M365 49q67 0 107.5 34.5t65.5 105.5h47l-16 -152q-96 -47 -221 -47q-142 0 -223.5 81.5t-81.5 201.5q0 136 88 220.5t220 84.5q125 0 204 -53l4 -136h-45q-24 68 -64 99t-104 31q-87 0 -128.5 -60t-41.5 -158q0 -109 48 -180.5t141 -71.5z" />
    <glyph glyph-name="d.smcp" unicode="&#xe204;" horiz-adv-x="740" 
d="M343 515h-72v-405q0 -34 17 -45.5t60 -11.5h34q81 0 131 54t50 163q0 245 -220 245zM51 0v45q49 2 72 14.5t23 48.5v352q0 36 -23 48.5t-72 14.5v45h329q153 0 235 -75.5t82 -193.5q0 -142 -86.5 -220.5t-217.5 -78.5h-342z" />
    <glyph glyph-name="d.smcp" unicode="&#xf764;" horiz-adv-x="740" 
d="M343 515h-72v-405q0 -34 17 -45.5t60 -11.5h34q81 0 131 54t50 163q0 245 -220 245zM51 0v45q49 2 72 14.5t23 48.5v352q0 36 -23 48.5t-72 14.5v45h329q153 0 235 -75.5t82 -193.5q0 -142 -86.5 -220.5t-217.5 -78.5h-342z" />
    <glyph glyph-name="e.smcp" unicode="&#xe205;" horiz-adv-x="674" 
d="M51 568h531l3 -154h-42q-22 56 -45.5 78.5t-71.5 22.5h-156v-198h118q27 0 38.5 17t18.5 57h42v-201h-42q-7 41 -18.5 58t-38.5 17h-118v-157q0 -32 17.5 -43.5t59.5 -11.5h80q48 0 72.5 22.5t69.5 96.5h46l-29 -172h-535v45q49 2 72 14.5t23 48.5v352q0 36 -23 48.5
t-72 14.5v45z" />
    <glyph glyph-name="e.smcp" unicode="&#xf765;" horiz-adv-x="674" 
d="M51 568h531l3 -154h-42q-22 56 -45.5 78.5t-71.5 22.5h-156v-198h118q27 0 38.5 17t18.5 57h42v-201h-42q-7 41 -18.5 58t-38.5 17h-118v-157q0 -32 17.5 -43.5t59.5 -11.5h80q48 0 72.5 22.5t69.5 96.5h46l-29 -172h-535v45q49 2 72 14.5t23 48.5v352q0 36 -23 48.5
t-72 14.5v45z" />
    <glyph glyph-name="f.smcp" unicode="&#xe206;" horiz-adv-x="618" 
d="M270 252v-144q0 -36 27.5 -48.5t91.5 -14.5v-45h-338v45q49 2 72 14.5t23 48.5v352q0 36 -23 48.5t-72 14.5v45h518l4 -156h-45q-22 57 -46.5 80t-72.5 23h-139v-211h111q26 0 37.5 17t18.5 57h43v-201h-43q-7 40 -18.5 57.5t-37.5 17.5h-111z" />
    <glyph glyph-name="f.smcp" unicode="&#xf766;" horiz-adv-x="618" 
d="M270 252v-144q0 -36 27.5 -48.5t91.5 -14.5v-45h-338v45q49 2 72 14.5t23 48.5v352q0 36 -23 48.5t-72 14.5v45h518l4 -156h-45q-22 57 -46.5 80t-72.5 23h-139v-211h111q26 0 37.5 17t18.5 57h43v-201h-43q-7 40 -18.5 57.5t-37.5 17.5h-111z" />
    <glyph glyph-name="g.smcp" unicode="&#xe207;" horiz-adv-x="688" 
d="M581 169v-120q-91 -59 -231 -59q-144 0 -225.5 81.5t-81.5 201.5q0 138 89 221.5t222 83.5q125 0 204 -53l4 -136h-45q-24 68 -64 99t-104 31q-88 0 -130.5 -59.5t-42.5 -159.5q0 -111 47.5 -182t141.5 -71q67 0 95 27v95q0 36 -20 48.5t-66 14.5v45h291v-45
q-46 -2 -65 -14.5t-19 -48.5z" />
    <glyph glyph-name="g.smcp" unicode="&#xf767;" horiz-adv-x="688" 
d="M581 169v-120q-91 -59 -231 -59q-144 0 -225.5 81.5t-81.5 201.5q0 138 89 221.5t222 83.5q125 0 204 -53l4 -136h-45q-24 68 -64 99t-104 31q-88 0 -130.5 -59.5t-42.5 -159.5q0 -111 47.5 -182t141.5 -71q67 0 95 27v95q0 36 -20 48.5t-66 14.5v45h291v-45
q-46 -2 -65 -14.5t-19 -48.5z" />
    <glyph glyph-name="h.smcp" unicode="&#xe208;" horiz-adv-x="835" 
d="M565 264h-295v-156q0 -36 22.5 -48.5t71.5 -14.5v-45h-313v45q49 2 72 14.5t23 48.5v352q0 36 -23 48.5t-72 14.5v45h313v-45q-49 -2 -71.5 -14.5t-22.5 -48.5v-142h295v142q0 36 -22.5 48.5t-72.5 14.5v45h314v-45q-50 -2 -72.5 -14.5t-22.5 -48.5v-352
q0 -36 22.5 -48.5t72.5 -14.5v-45h-314v45q50 2 72.5 14.5t22.5 48.5v156z" />
    <glyph glyph-name="h.smcp" unicode="&#xf768;" horiz-adv-x="835" 
d="M565 264h-295v-156q0 -36 22.5 -48.5t71.5 -14.5v-45h-313v45q49 2 72 14.5t23 48.5v352q0 36 -23 48.5t-72 14.5v45h313v-45q-49 -2 -71.5 -14.5t-22.5 -48.5v-142h295v142q0 36 -22.5 48.5t-72.5 14.5v45h314v-45q-50 -2 -72.5 -14.5t-22.5 -48.5v-352
q0 -36 22.5 -48.5t72.5 -14.5v-45h-314v45q50 2 72.5 14.5t22.5 48.5v156z" />
    <glyph glyph-name="i.smcp" unicode="&#xe209;" horiz-adv-x="416" 
d="M270 460v-352q0 -36 22.5 -48.5t71.5 -14.5v-45h-313v45q49 2 72 14.5t23 48.5v352q0 36 -23 48.5t-72 14.5v45h313v-45q-49 -2 -71.5 -14.5t-22.5 -48.5z" />
    <glyph glyph-name="i.smcp" unicode="&#xf769;" horiz-adv-x="416" 
d="M270 460v-352q0 -36 22.5 -48.5t71.5 -14.5v-45h-313v45q49 2 72 14.5t23 48.5v352q0 36 -23 48.5t-72 14.5v45h313v-45q-49 -2 -71.5 -14.5t-22.5 -48.5z" />
    <glyph glyph-name="j.smcp" unicode="&#xe20a;" horiz-adv-x="531" 
d="M294 170v290q0 36 -23 48.5t-72 14.5v45h313v-45q-49 -2 -71.5 -14.5t-22.5 -48.5v-278q0 -92 -56.5 -142t-159.5 -50q-88 0 -140 29.5t-52 86.5q0 45 40 73h77v-37q0 -102 78 -102q89 0 89 130z" />
    <glyph glyph-name="j.smcp" unicode="&#xf76a;" horiz-adv-x="531" 
d="M294 170v290q0 36 -23 48.5t-72 14.5v45h313v-45q-49 -2 -71.5 -14.5t-22.5 -48.5v-278q0 -92 -56.5 -142t-159.5 -50q-88 0 -140 29.5t-52 86.5q0 45 40 73h77v-37q0 -102 78 -102q89 0 89 130z" />
    <glyph glyph-name="k.smcp" unicode="&#xe20b;" horiz-adv-x="720" 
d="M277 287l207 181q21 17 21 31q0 11 -11.5 16t-48.5 8v45h232v-45q-45 -4 -83 -36l-193 -164l218 -235q34 -37 87 -43v-45h-154q-36 18 -82 70zM270 460v-352q0 -36 22.5 -48.5t71.5 -14.5v-45h-313v45q49 2 72 14.5t23 48.5v352q0 36 -23 48.5t-72 14.5v45h313v-45
q-49 -2 -71.5 -14.5t-22.5 -48.5z" />
    <glyph glyph-name="k.smcp" unicode="&#xf76b;" horiz-adv-x="720" 
d="M277 287l207 181q21 17 21 31q0 11 -11.5 16t-48.5 8v45h232v-45q-45 -4 -83 -36l-193 -164l218 -235q34 -37 87 -43v-45h-154q-36 18 -82 70zM270 460v-352q0 -36 22.5 -48.5t71.5 -14.5v-45h-313v45q49 2 72 14.5t23 48.5v352q0 36 -23 48.5t-72 14.5v45h313v-45
q-49 -2 -71.5 -14.5t-22.5 -48.5z" />
    <glyph glyph-name="l.smcp" unicode="&#xe20c;" horiz-adv-x="640" 
d="M270 460v-353q0 -31 18 -43t59 -12h68q47 0 71 25.5t75 116.5h46l-33 -194h-523v45q49 2 72 14.5t23 48.5v352q0 36 -23 48.5t-72 14.5v45h313v-45q-49 -2 -71.5 -14.5t-22.5 -48.5z" />
    <glyph glyph-name="l.smcp" unicode="&#xf76c;" horiz-adv-x="640" 
d="M270 460v-353q0 -31 18 -43t59 -12h68q47 0 71 25.5t75 116.5h46l-33 -194h-523v45q49 2 72 14.5t23 48.5v352q0 36 -23 48.5t-72 14.5v45h313v-45q-49 -2 -71.5 -14.5t-22.5 -48.5z" />
    <glyph glyph-name="m.smcp" unicode="&#xe20d;" horiz-adv-x="918" 
d="M675 135l-42 291l-176 -426h-44l-186 425l-39 -290q-4 -32 -4 -36q0 -29 20.5 -40.5t69.5 -13.5v-45h-241v45q41 2 59.5 13.5t23.5 42.5l50 360q0 34 -18 47t-64 15v45h219q3 -23 13 -47l153 -347l142 347q11 25 13 47h210v-45q-46 -2 -64 -15t-18 -47l51 -358
q4 -33 22.5 -44.5t59.5 -13.5v-45h-297v45q49 2 70 13.5t21 40.5q0 2 -4 36z" />
    <glyph glyph-name="m.smcp" unicode="&#xf76d;" horiz-adv-x="918" 
d="M675 135l-42 291l-176 -426h-44l-186 425l-39 -290q-4 -32 -4 -36q0 -29 20.5 -40.5t69.5 -13.5v-45h-241v45q41 2 59.5 13.5t23.5 42.5l50 360q0 34 -18 47t-64 15v45h219q3 -23 13 -47l153 -347l142 347q11 25 13 47h210v-45q-46 -2 -64 -15t-18 -47l51 -358
q4 -33 22.5 -44.5t59.5 -13.5v-45h-297v45q49 2 70 13.5t21 40.5q0 2 -4 36z" />
    <glyph glyph-name="n.smcp" unicode="&#xe20e;" horiz-adv-x="781" 
d="M576 195v265q0 36 -22.5 48.5t-71.5 14.5v45h257v-45q-49 -2 -71.5 -14.5t-22.5 -48.5v-460h-49l-381 422v-314q0 -36 22.5 -48.5t71.5 -14.5v-45h-258v45q49 2 72 14.5t23 48.5v367q-22 27 -41 37.5t-52 10.5v45h193z" />
    <glyph glyph-name="n.smcp" unicode="&#xf76e;" horiz-adv-x="781" 
d="M576 195v265q0 36 -22.5 48.5t-71.5 14.5v45h257v-45q-49 -2 -71.5 -14.5t-22.5 -48.5v-460h-49l-381 422v-314q0 -36 22.5 -48.5t71.5 -14.5v-45h-258v45q49 2 72 14.5t23 48.5v367q-22 27 -41 37.5t-52 10.5v45h193z" />
    <glyph glyph-name="o.smcp" unicode="&#xe20f;" horiz-adv-x="698" 
d="M363 50q77 0 118 59.5t41 154.5q0 113 -49 183.5t-139 70.5q-77 0 -117.5 -59.5t-40.5 -154.5q0 -113 49 -183.5t138 -70.5zM339 -10q-133 0 -214.5 83t-81.5 200q0 137 90 221t226 84q133 0 214.5 -83t81.5 -200q0 -137 -90 -221t-226 -84z" />
    <glyph glyph-name="o.smcp" unicode="&#xf76f;" horiz-adv-x="698" 
d="M363 50q77 0 118 59.5t41 154.5q0 113 -49 183.5t-139 70.5q-77 0 -117.5 -59.5t-40.5 -154.5q0 -113 49 -183.5t138 -70.5zM339 -10q-133 0 -214.5 83t-81.5 200q0 137 90 221t226 84q133 0 214.5 -83t81.5 -200q0 -137 -90 -221t-226 -84z" />
    <glyph glyph-name="q.smcp" unicode="&#xe211;" horiz-adv-x="698" 
d="M398 -86l-87 79q-122 9 -195 89t-73 191q0 137 90 221t226 84q133 0 214.5 -83t81.5 -200q0 -112 -62.5 -189.5t-163.5 -102.5l101 -57q71 -37 110 -37h26v-34q-41 -30 -108 -30q-83 0 -160 69zM363 48q77 0 118 60t41 156q0 113 -49 183.5t-139 70.5q-77 0 -117.5 -59.5
t-40.5 -155.5q0 -113 49 -184t138 -71z" />
    <glyph glyph-name="q.smcp" unicode="&#xf771;" horiz-adv-x="698" 
d="M398 -86l-87 79q-122 9 -195 89t-73 191q0 137 90 221t226 84q133 0 214.5 -83t81.5 -200q0 -112 -62.5 -189.5t-163.5 -102.5l101 -57q71 -37 110 -37h26v-34q-41 -30 -108 -30q-83 0 -160 69zM363 48q77 0 118 60t41 156q0 113 -49 183.5t-139 70.5q-77 0 -117.5 -59.5
t-40.5 -155.5q0 -113 49 -184t138 -71z" />
    <glyph glyph-name="r.smcp" unicode="&#xe212;" horiz-adv-x="717" 
d="M334 515h-65v-220h65q74 0 105.5 27.5t31.5 85.5q0 107 -137 107zM269 245v-137q0 -36 23 -48.5t72 -14.5v-45h-313v45q49 2 72 14.5t23 48.5v352q0 36 -23 48.5t-72 14.5v45h331q113 0 168 -43.5t55 -114.5q0 -68 -52.5 -106.5t-128.5 -44.5q54 -7 102 -60l89 -105
q39 -45 88 -50v-44h-149q-35 21 -74 68l-113 137q-19 23 -35 31.5t-43 8.5h-20z" />
    <glyph glyph-name="r.smcp" unicode="&#xf772;" horiz-adv-x="717" 
d="M334 515h-65v-220h65q74 0 105.5 27.5t31.5 85.5q0 107 -137 107zM269 245v-137q0 -36 23 -48.5t72 -14.5v-45h-313v45q49 2 72 14.5t23 48.5v352q0 36 -23 48.5t-72 14.5v45h331q113 0 168 -43.5t55 -114.5q0 -68 -52.5 -106.5t-128.5 -44.5q54 -7 102 -60l89 -105
q39 -45 88 -50v-44h-149q-35 21 -74 68l-113 137q-19 23 -35 31.5t-43 8.5h-20z" />
    <glyph glyph-name="s.smcp" unicode="&#xe213;" horiz-adv-x="542" 
d="M257 -10q-125 0 -192 54l-7 138h49q16 -64 57.5 -99.5t99.5 -35.5q117 0 117 86q0 35 -20.5 54.5t-67.5 33.5l-84 24q-70 20 -109 58.5t-39 105.5q0 78 55.5 123.5t151.5 45.5q116 0 186 -48v-126h-45q-30 117 -148 117q-44 0 -70 -20.5t-26 -55.5t18.5 -53.5t61.5 -31.5
l82 -24q77 -22 117.5 -60t40.5 -110q0 -84 -63.5 -130t-164.5 -46z" />
    <glyph glyph-name="s.smcp" unicode="&#xf773;" horiz-adv-x="542" 
d="M257 -10q-125 0 -192 54l-7 138h49q16 -64 57.5 -99.5t99.5 -35.5q117 0 117 86q0 35 -20.5 54.5t-67.5 33.5l-84 24q-70 20 -109 58.5t-39 105.5q0 78 55.5 123.5t151.5 45.5q116 0 186 -48v-126h-45q-30 117 -148 117q-44 0 -70 -20.5t-26 -55.5t18.5 -53.5t61.5 -31.5
l82 -24q77 -22 117.5 -60t40.5 -110q0 -84 -63.5 -130t-164.5 -46z" />
    <glyph glyph-name="t.smcp" unicode="&#xe214;" horiz-adv-x="649" 
d="M263 108v408h-62q-50 0 -72.5 -26.5t-57.5 -104.5h-44l12 183h571l12 -183h-44q-19 42 -28 59.5t-24.5 38t-33.5 27t-44 6.5h-61v-408q0 -36 22.5 -48.5t71.5 -14.5v-45h-313v45q49 2 72 14.5t23 48.5z" />
    <glyph glyph-name="t.smcp" unicode="&#xf774;" horiz-adv-x="649" 
d="M263 108v408h-62q-50 0 -72.5 -26.5t-57.5 -104.5h-44l12 183h571l12 -183h-44q-19 42 -28 59.5t-24.5 38t-33.5 27t-44 6.5h-61v-408q0 -36 22.5 -48.5t71.5 -14.5v-45h-313v45q49 2 72 14.5t23 48.5z" />
    <glyph glyph-name="u.smcp" unicode="&#xe215;" horiz-adv-x="717" 
d="M603 460v-254q0 -104 -67 -160t-170 -56q-115 0 -184 55t-69 158v257q0 36 -22.5 48.5t-71.5 14.5v45h313v-45q-49 -2 -72 -14.5t-23 -48.5v-247q0 -71 38.5 -113t104.5 -42q74 0 115.5 39.5t41.5 120.5v242q0 36 -23 48.5t-72 14.5v45h256v-45q-49 -2 -72 -14.5
t-23 -48.5z" />
    <glyph glyph-name="u.smcp" unicode="&#xf775;" horiz-adv-x="717" 
d="M603 460v-254q0 -104 -67 -160t-170 -56q-115 0 -184 55t-69 158v257q0 36 -22.5 48.5t-71.5 14.5v45h313v-45q-49 -2 -72 -14.5t-23 -48.5v-247q0 -71 38.5 -113t104.5 -42q74 0 115.5 39.5t41.5 120.5v242q0 36 -23 48.5t-72 14.5v45h256v-45q-49 -2 -72 -14.5
t-23 -48.5z" />
    <glyph glyph-name="v.smcp" unicode="&#xe216;" horiz-adv-x="674" 
d="M377 154l133 302q9 18 9 31q0 18 -17 25t-62 11v45h216v-45q-47 -7 -59 -33l-230 -496h-38l-252 496q-13 26 -59 33v45h285v-45q-45 -4 -62 -11t-17 -25q0 -16 9 -31z" />
    <glyph glyph-name="v.smcp" unicode="&#xf776;" horiz-adv-x="674" 
d="M377 154l133 302q9 18 9 31q0 18 -17 25t-62 11v45h216v-45q-47 -7 -59 -33l-230 -496h-38l-252 496q-13 26 -59 33v45h285v-45q-45 -4 -62 -11t-17 -25q0 -16 9 -31z" />
    <glyph glyph-name="w.smcp" unicode="&#xe217;" horiz-adv-x="956" 
d="M639 -6l-145 333l-154 -333h-41l-222 496q-11 26 -59 33v45h275v-45q-40 -2 -57 -9.5t-17 -26.5q0 -13 9 -34l127 -293l108 236l-41 94q-14 30 -59 33v45h269v-45q-42 -2 -59 -9.5t-17 -26.5q0 -11 9 -34l120 -287l111 289q8 26 8 32q0 18 -17 26t-61 10v45h212v-45
q-48 -7 -60 -33l-199 -496h-40z" />
    <glyph glyph-name="w.smcp" unicode="&#xf777;" horiz-adv-x="956" 
d="M639 -6l-145 333l-154 -333h-41l-222 496q-11 26 -59 33v45h275v-45q-40 -2 -57 -9.5t-17 -26.5q0 -13 9 -34l127 -293l108 236l-41 94q-14 30 -59 33v45h269v-45q-42 -2 -59 -9.5t-17 -26.5q0 -11 9 -34l120 -287l111 289q8 26 8 32q0 18 -17 26t-61 10v45h212v-45
q-48 -7 -60 -33l-199 -496h-40z" />
    <glyph glyph-name="x.smcp" unicode="&#xe218;" horiz-adv-x="664" 
d="M405 113l-105 131l-107 -130q-20 -24 -20 -37q0 -15 14.5 -22.5t52.5 -9.5v-45h-222v45q44 3 78 43l167 199l-156 194q-34 38 -70 42v45h282v-45q-37 -2 -51 -9t-14 -20q0 -12 18 -34l87 -113l96 112q17 21 17 34q0 14 -13.5 21t-49.5 9v45h216v-45q-44 -4 -75 -43
l-155 -177l174 -215q31 -39 77 -43v-45h-288v45q38 2 52 9.5t14 22.5q0 11 -19 36z" />
    <glyph glyph-name="x.smcp" unicode="&#xf778;" horiz-adv-x="664" 
d="M405 113l-105 131l-107 -130q-20 -24 -20 -37q0 -15 14.5 -22.5t52.5 -9.5v-45h-222v45q44 3 78 43l167 199l-156 194q-34 38 -70 42v45h282v-45q-37 -2 -51 -9t-14 -20q0 -12 18 -34l87 -113l96 112q17 21 17 34q0 14 -13.5 21t-49.5 9v45h216v-45q-44 -4 -75 -43
l-155 -177l174 -215q31 -39 77 -43v-45h-288v45q38 2 52 9.5t14 22.5q0 11 -19 36z" />
    <glyph glyph-name="y.smcp" unicode="&#xe219;" horiz-adv-x="654" 
d="M265 108v107l-188 275q-18 27 -59 33v45h292v-45q-44 -2 -62.5 -10t-18.5 -26q0 -14 12 -33l119 -180l122 181q11 15 11 32q0 18 -18.5 26t-61.5 10v45h224v-45q-40 -6 -60 -33l-188 -274v-108q0 -36 23 -48.5t72 -14.5v-45h-313v45q49 2 71.5 14.5t22.5 48.5z" />
    <glyph glyph-name="y.smcp" unicode="&#xf779;" horiz-adv-x="654" 
d="M265 108v107l-188 275q-18 27 -59 33v45h292v-45q-44 -2 -62.5 -10t-18.5 -26q0 -14 12 -33l119 -180l122 181q11 15 11 32q0 18 -18.5 26t-61.5 10v45h224v-45q-40 -6 -60 -33l-188 -274v-108q0 -36 23 -48.5t72 -14.5v-45h-313v45q49 2 71.5 14.5t22.5 48.5z" />
    <glyph glyph-name="z.smcp" unicode="&#xe21a;" horiz-adv-x="615" 
d="M65 397l1 171h484v-31l-350 -484h177q49 0 74 25t71 110h47l-30 -188h-498v30l352 485h-165q-47 0 -69 -23.5t-48 -94.5h-46z" />
    <glyph glyph-name="z.smcp" unicode="&#xf77a;" horiz-adv-x="615" 
d="M65 397l1 171h484v-31l-350 -484h177q49 0 74 25t71 110h47l-30 -188h-498v30l352 485h-165q-47 0 -69 -23.5t-48 -94.5h-46z" />
    <glyph glyph-name="anocross.smcp" unicode="&#xe220;" horiz-adv-x="695" 
d="M310 442l-147 -329q-8 -19 -8 -31q0 -19 17.5 -26.5t65.5 -10.5v-45h-220v45q18 4 27 6.5t19.5 10t15.5 18.5l193 426l-31 66h137l236 -492q6 -11 16 -18.5t19.5 -10t27.5 -6.5v-45h-288v45q48 3 65.5 10.5t17.5 26.5q0 14 -8 31z" />
    <glyph glyph-name="aacute.smcp" unicode="&#xe221;" horiz-adv-x="695" 
d="M373 822h140l-171 -208h-55zM465 113l-27 55h-250l-25 -55q-8 -19 -8 -31q0 -19 17.5 -26.5t65.5 -10.5v-45h-220v45q18 4 27 6.5t19.5 10t15.5 18.5l193 426l-31 66h137l236 -492q6 -11 16 -18.5t19.5 -10t27.5 -6.5v-45h-288v45q48 3 65.5 10.5t17.5 26.5q0 10 -8 31z
M310 442l-99 -222h203z" />
    <glyph glyph-name="aacute.smcp" unicode="&#xf7e1;" horiz-adv-x="695" 
d="M373 822h140l-171 -208h-55zM465 113l-27 55h-250l-25 -55q-8 -19 -8 -31q0 -19 17.5 -26.5t65.5 -10.5v-45h-220v45q18 4 27 6.5t19.5 10t15.5 18.5l193 426l-31 66h137l236 -492q6 -11 16 -18.5t19.5 -10t27.5 -6.5v-45h-288v45q48 3 65.5 10.5t17.5 26.5q0 10 -8 31z
M310 442l-99 -222h203z" />
    <glyph glyph-name="agrave.smcp" unicode="&#xe222;" horiz-adv-x="695" 
d="M465 113l-27 55h-250l-25 -55q-8 -19 -8 -31q0 -19 17.5 -26.5t65.5 -10.5v-45h-220v45q18 4 27 6.5t19.5 10t15.5 18.5l193 426l-31 66h137l236 -492q6 -11 16 -18.5t19.5 -10t27.5 -6.5v-45h-288v45q48 3 65.5 10.5t17.5 26.5q0 10 -8 31zM310 442l-99 -222h203z
M124 822h142l84 -208h-55z" />
    <glyph glyph-name="agrave.smcp" unicode="&#xf7e0;" horiz-adv-x="695" 
d="M465 113l-27 55h-250l-25 -55q-8 -19 -8 -31q0 -19 17.5 -26.5t65.5 -10.5v-45h-220v45q18 4 27 6.5t19.5 10t15.5 18.5l193 426l-31 66h137l236 -492q6 -11 16 -18.5t19.5 -10t27.5 -6.5v-45h-288v45q48 3 65.5 10.5t17.5 26.5q0 10 -8 31zM310 442l-99 -222h203z
M124 822h142l84 -208h-55z" />
    <glyph glyph-name="acircumflex.smcp" unicode="&#xe223;" horiz-adv-x="695" 
d="M367 822l152 -208h-56l-135 119l-135 -119h-56l152 208h78zM465 113l-27 55h-250l-25 -55q-8 -19 -8 -31q0 -19 17.5 -26.5t65.5 -10.5v-45h-220v45q18 4 27 6.5t19.5 10t15.5 18.5l193 426l-31 66h137l236 -492q6 -11 16 -18.5t19.5 -10t27.5 -6.5v-45h-288v45
q48 3 65.5 10.5t17.5 26.5q0 10 -8 31zM310 442l-99 -222h203z" />
    <glyph glyph-name="acircumflex.smcp" unicode="&#xf7e2;" horiz-adv-x="695" 
d="M367 822l152 -208h-56l-135 119l-135 -119h-56l152 208h78zM465 113l-27 55h-250l-25 -55q-8 -19 -8 -31q0 -19 17.5 -26.5t65.5 -10.5v-45h-220v45q18 4 27 6.5t19.5 10t15.5 18.5l193 426l-31 66h137l236 -492q6 -11 16 -18.5t19.5 -10t27.5 -6.5v-45h-288v45
q48 3 65.5 10.5t17.5 26.5q0 10 -8 31zM310 442l-99 -222h203z" />
    <glyph glyph-name="adieresis.smcp" unicode="&#xe224;" horiz-adv-x="695" 
d="M141 719q0 32 22 54t53 22q32 0 54 -22t22 -54q0 -31 -22 -53t-54 -22q-31 0 -53 22t-22 53zM348 719q0 32 21.5 54t53.5 22t54 -22t22 -54q0 -31 -22.5 -53t-53.5 -22t-53 22t-22 53zM465 113l-27 55h-250l-25 -55q-8 -19 -8 -31q0 -19 17.5 -26.5t65.5 -10.5v-45h-220
v45q18 4 27 6.5t19.5 10t15.5 18.5l193 426l-31 66h137l236 -492q6 -11 16 -18.5t19.5 -10t27.5 -6.5v-45h-288v45q48 3 65.5 10.5t17.5 26.5q0 10 -8 31zM310 442l-99 -222h203z" />
    <glyph glyph-name="adieresis.smcp" unicode="&#xf7e4;" horiz-adv-x="695" 
d="M141 719q0 32 22 54t53 22q32 0 54 -22t22 -54q0 -31 -22 -53t-54 -22q-31 0 -53 22t-22 53zM348 719q0 32 21.5 54t53.5 22t54 -22t22 -54q0 -31 -22.5 -53t-53.5 -22t-53 22t-22 53zM465 113l-27 55h-250l-25 -55q-8 -19 -8 -31q0 -19 17.5 -26.5t65.5 -10.5v-45h-220
v45q18 4 27 6.5t19.5 10t15.5 18.5l193 426l-31 66h137l236 -492q6 -11 16 -18.5t19.5 -10t27.5 -6.5v-45h-288v45q48 3 65.5 10.5t17.5 26.5q0 10 -8 31zM310 442l-99 -222h203z" />
    <glyph glyph-name="atilde.smcp" unicode="&#xe225;" horiz-adv-x="695" 
d="M465 113l-27 55h-250l-25 -55q-8 -19 -8 -31q0 -19 17.5 -26.5t65.5 -10.5v-45h-220v45q18 4 27 6.5t19.5 10t15.5 18.5l193 426l-31 66h137l236 -492q6 -11 16 -18.5t19.5 -10t27.5 -6.5v-45h-288v45q48 3 65.5 10.5t17.5 26.5q0 10 -8 31zM310 442l-99 -222h203z
M391 632q-33 0 -83 29.5t-69 29.5q-24 0 -37.5 -11.5t-30.5 -42.5l-44 7q24 69 55.5 101t79.5 32q33 0 83 -29.5t69 -29.5q24 0 37.5 11.5t30.5 42.5l44 -7q-24 -69 -56 -101t-79 -32z" />
    <glyph glyph-name="atilde.smcp" unicode="&#xf7e3;" horiz-adv-x="695" 
d="M465 113l-27 55h-250l-25 -55q-8 -19 -8 -31q0 -19 17.5 -26.5t65.5 -10.5v-45h-220v45q18 4 27 6.5t19.5 10t15.5 18.5l193 426l-31 66h137l236 -492q6 -11 16 -18.5t19.5 -10t27.5 -6.5v-45h-288v45q48 3 65.5 10.5t17.5 26.5q0 10 -8 31zM310 442l-99 -222h203z
M391 632q-33 0 -83 29.5t-69 29.5q-24 0 -37.5 -11.5t-30.5 -42.5l-44 7q24 69 55.5 101t79.5 32q33 0 83 -29.5t69 -29.5q24 0 37.5 11.5t30.5 42.5l44 -7q-24 -69 -56 -101t-79 -32z" />
    <glyph glyph-name="aring.smcp" unicode="&#xe226;" horiz-adv-x="695" 
d="M203 719q0 48 32.5 81t83.5 33t83.5 -33t32.5 -81t-32.5 -81t-83.5 -33t-83.5 33t-32.5 81zM378 719q0 29 -15 47t-44 18t-44 -18t-15 -47t15 -46.5t44 -17.5t44 18t15 46zM465 113l-27 55h-250l-25 -55q-8 -19 -8 -31q0 -19 17.5 -26.5t65.5 -10.5v-45h-220v45
q18 4 27 6.5t19.5 10t15.5 18.5l193 426l-31 66h137l236 -492q6 -11 16 -18.5t19.5 -10t27.5 -6.5v-45h-288v45q48 3 65.5 10.5t17.5 26.5q0 10 -8 31zM310 442l-99 -222h203z" />
    <glyph glyph-name="aring.smcp" unicode="&#xf7e5;" horiz-adv-x="695" 
d="M203 719q0 48 32.5 81t83.5 33t83.5 -33t32.5 -81t-32.5 -81t-83.5 -33t-83.5 33t-32.5 81zM378 719q0 29 -15 47t-44 18t-44 -18t-15 -47t15 -46.5t44 -17.5t44 18t15 46zM465 113l-27 55h-250l-25 -55q-8 -19 -8 -31q0 -19 17.5 -26.5t65.5 -10.5v-45h-220v45
q18 4 27 6.5t19.5 10t15.5 18.5l193 426l-31 66h137l236 -492q6 -11 16 -18.5t19.5 -10t27.5 -6.5v-45h-288v45q48 3 65.5 10.5t17.5 26.5q0 10 -8 31zM310 442l-99 -222h203z" />
    <glyph glyph-name="amacron.smcp" unicode="&#xe228;" horiz-adv-x="695" 
d="M179 662v70h280v-70h-280zM465 113l-27 55h-250l-25 -55q-8 -19 -8 -31q0 -19 17.5 -26.5t65.5 -10.5v-45h-220v45q18 4 27 6.5t19.5 10t15.5 18.5l193 426l-31 66h137l236 -492q6 -11 16 -18.5t19.5 -10t27.5 -6.5v-45h-288v45q48 3 65.5 10.5t17.5 26.5q0 10 -8 31z
M310 442l-99 -222h203z" />
    <glyph glyph-name="amacron.smcp" unicode="&#xf641;" horiz-adv-x="695" 
d="M179 662v70h280v-70h-280zM465 113l-27 55h-250l-25 -55q-8 -19 -8 -31q0 -19 17.5 -26.5t65.5 -10.5v-45h-220v45q18 4 27 6.5t19.5 10t15.5 18.5l193 426l-31 66h137l236 -492q6 -11 16 -18.5t19.5 -10t27.5 -6.5v-45h-288v45q48 3 65.5 10.5t17.5 26.5q0 10 -8 31z
M310 442l-99 -222h203z" />
    <glyph glyph-name="abreve.smcp" unicode="&#xe229;" horiz-adv-x="695" 
d="M465 113l-27 55h-250l-25 -55q-8 -19 -8 -31q0 -19 17.5 -26.5t65.5 -10.5v-45h-220v45q18 4 27 6.5t19.5 10t15.5 18.5l193 426l-31 66h137l236 -492q6 -11 16 -18.5t19.5 -10t27.5 -6.5v-45h-288v45q48 3 65.5 10.5t17.5 26.5q0 10 -8 31zM310 442l-99 -222h203z
M326 623q-94 0 -136 50.5t-42 148.5h47q14 -122 131 -122t131 122h47q0 -98 -42 -148.5t-136 -50.5z" />
    <glyph glyph-name="abreve.smcp" unicode="&#xf640;" horiz-adv-x="695" 
d="M465 113l-27 55h-250l-25 -55q-8 -19 -8 -31q0 -19 17.5 -26.5t65.5 -10.5v-45h-220v45q18 4 27 6.5t19.5 10t15.5 18.5l193 426l-31 66h137l236 -492q6 -11 16 -18.5t19.5 -10t27.5 -6.5v-45h-288v45q48 3 65.5 10.5t17.5 26.5q0 10 -8 31zM310 442l-99 -222h203z
M326 623q-94 0 -136 50.5t-42 148.5h47q14 -122 131 -122t131 122h47q0 -98 -42 -148.5t-136 -50.5z" />
    <glyph glyph-name="f_f_j" unicode="&#xe22a;" horiz-adv-x="1059" 
d="M129 548v24q0 110 51.5 169t152.5 59q64 0 99 -25t35 -69q0 -18 -9 -35t-22 -25h-71v36q0 35 -11 50t-37 15q-38 0 -53.5 -32.5t-15.5 -96.5v-84h246v31q0 113 69 179t190 66q85 0 130.5 -29t45.5 -75q0 -44 -32 -62h-95v34q0 37 -19.5 57.5t-54.5 20.5q-62 0 -88 -39
t-26 -120v-63h370l-5 -95v-370q0 -68 -8 -103.5t-30 -70.5q-38 -63 -138 -142l-33 29l46 76q43 68 43 184v433h-245v-371q0 -18 4 -28.5t17.5 -17t26 -8.5t43.5 -6v-44h-287v44q28 4 41.5 7.5t24 15.5t10.5 34v374h-246v-371q0 -18 4 -28.5t17.5 -17t26 -8.5t43.5 -6v-44
h-286v44q28 4 41.5 7.5t24 15.5t10.5 34v374h-77v39z" />
    <glyph glyph-name="f_f_j" unicode="&#xe384;" horiz-adv-x="1059" 
d="M129 548v24q0 110 51.5 169t152.5 59q64 0 99 -25t35 -69q0 -18 -9 -35t-22 -25h-71v36q0 35 -11 50t-37 15q-38 0 -53.5 -32.5t-15.5 -96.5v-84h246v31q0 113 69 179t190 66q85 0 130.5 -29t45.5 -75q0 -44 -32 -62h-95v34q0 37 -19.5 57.5t-54.5 20.5q-62 0 -88 -39
t-26 -120v-63h370l-5 -95v-370q0 -68 -8 -103.5t-30 -70.5q-38 -63 -138 -142l-33 29l46 76q43 68 43 184v433h-245v-371q0 -18 4 -28.5t17.5 -17t26 -8.5t43.5 -6v-44h-287v44q28 4 41.5 7.5t24 15.5t10.5 34v374h-246v-371q0 -18 4 -28.5t17.5 -17t26 -8.5t43.5 -6v-44
h-286v44q28 4 41.5 7.5t24 15.5t10.5 34v374h-77v39z" />
    <glyph glyph-name="f_f_k" unicode="&#xe22b;" horiz-adv-x="1394" 
d="M984 278l170 146q20 17 20 31q0 17 -13 23t-55 12v44h248v-44q-53 -16 -87 -42l-161 -136l281 -276v-36h-132zM129 548v24q0 110 51.5 169t152.5 59q64 0 99 -25t35 -69q0 -18 -9 -35t-22 -25h-71v36q0 35 -11 50t-37 15q-38 0 -53.5 -32.5t-15.5 -96.5v-84h246v39
q0 111 63 174t169 63q86 0 141 -41l81 41h36l-5 -86v-623q0 -31 17.5 -41.5t58.5 -15.5v-44h-272v44q28 4 41.5 7.5t24 15.5t10.5 34v568q-20 36 -57 59.5t-80 23.5q-56 0 -82 -33t-26 -104v-81h132v-59h-132v-371q0 -18 4 -28.5t17.5 -17t26 -8.5t43.5 -6v-44h-287v44
q28 4 41.5 7.5t24 15.5t10.5 34v374h-246v-371q0 -18 4 -28.5t17.5 -17t26 -8.5t43.5 -6v-44h-286v44q28 4 41.5 7.5t24 15.5t10.5 34v374h-77v39z" />
    <glyph glyph-name="f_f_k" unicode="&#xe385;" horiz-adv-x="1394" 
d="M984 278l170 146q20 17 20 31q0 17 -13 23t-55 12v44h248v-44q-53 -16 -87 -42l-161 -136l281 -276v-36h-132zM129 548v24q0 110 51.5 169t152.5 59q64 0 99 -25t35 -69q0 -18 -9 -35t-22 -25h-71v36q0 35 -11 50t-37 15q-38 0 -53.5 -32.5t-15.5 -96.5v-84h246v39
q0 111 63 174t169 63q86 0 141 -41l81 41h36l-5 -86v-623q0 -31 17.5 -41.5t58.5 -15.5v-44h-272v44q28 4 41.5 7.5t24 15.5t10.5 34v568q-20 36 -57 59.5t-80 23.5q-56 0 -82 -33t-26 -104v-81h132v-59h-132v-371q0 -18 4 -28.5t17.5 -17t26 -8.5t43.5 -6v-44h-287v44
q28 4 41.5 7.5t24 15.5t10.5 34v374h-246v-371q0 -18 4 -28.5t17.5 -17t26 -8.5t43.5 -6v-44h-286v44q28 4 41.5 7.5t24 15.5t10.5 34v374h-77v39z" />
    <glyph glyph-name="aogonek.smcp" unicode="&#xe22f;" horiz-adv-x="695" 
d="M586 0h-196v45q48 3 65.5 10.5t17.5 26.5q0 10 -8 31l-27 55h-250l-25 -55q-8 -19 -8 -31q0 -19 17.5 -26.5t65.5 -10.5v-45h-220v45q18 4 27 6.5t19.5 10t15.5 18.5l193 426l-31 66h137l236 -492q6 -11 16 -18.5t19.5 -10t27.5 -6.5v-45q-121 -45 -121 -124
q0 -30 18 -47t52 -17q41 0 66 17l10 -34q-43 -45 -110 -45q-54 0 -88 27.5t-34 83.5q0 84 115 139zM310 442l-99 -222h203z" />
    <glyph glyph-name="aogonek.smcp" unicode="&#xf642;" horiz-adv-x="695" 
d="M586 0h-196v45q48 3 65.5 10.5t17.5 26.5q0 10 -8 31l-27 55h-250l-25 -55q-8 -19 -8 -31q0 -19 17.5 -26.5t65.5 -10.5v-45h-220v45q18 4 27 6.5t19.5 10t15.5 18.5l193 426l-31 66h137l236 -492q6 -11 16 -18.5t19.5 -10t27.5 -6.5v-45q-121 -45 -121 -124
q0 -30 18 -47t52 -17q41 0 66 17l10 -34q-43 -45 -110 -45q-54 0 -88 27.5t-34 83.5q0 84 115 139zM310 442l-99 -222h203z" />
    <glyph glyph-name="edieresis.smcp" unicode="&#xe230;" horiz-adv-x="674" 
d="M164 719q0 32 22 54t53 22q32 0 54 -22t22 -54q0 -31 -22 -53t-54 -22q-31 0 -53 22t-22 53zM371 719q0 32 21.5 54t53.5 22t54 -22t22 -54q0 -31 -22.5 -53t-53.5 -22t-53 22t-22 53zM51 568h531l3 -154h-42q-22 56 -45.5 78.5t-71.5 22.5h-156v-198h118q27 0 38.5 17
t18.5 57h42v-201h-42q-7 41 -18.5 58t-38.5 17h-118v-157q0 -32 17.5 -43.5t59.5 -11.5h80q48 0 72.5 22.5t69.5 96.5h46l-29 -172h-535v45q49 2 72 14.5t23 48.5v352q0 36 -23 48.5t-72 14.5v45z" />
    <glyph glyph-name="edieresis.smcp" unicode="&#xf7eb;" horiz-adv-x="674" 
d="M164 719q0 32 22 54t53 22q32 0 54 -22t22 -54q0 -31 -22 -53t-54 -22q-31 0 -53 22t-22 53zM371 719q0 32 21.5 54t53.5 22t54 -22t22 -54q0 -31 -22.5 -53t-53.5 -22t-53 22t-22 53zM51 568h531l3 -154h-42q-22 56 -45.5 78.5t-71.5 22.5h-156v-198h118q27 0 38.5 17
t18.5 57h42v-201h-42q-7 41 -18.5 58t-38.5 17h-118v-157q0 -32 17.5 -43.5t59.5 -11.5h80q48 0 72.5 22.5t69.5 96.5h46l-29 -172h-535v45q49 2 72 14.5t23 48.5v352q0 36 -23 48.5t-72 14.5v45z" />
    <glyph glyph-name="ae.smcp" unicode="&#xe231;" horiz-adv-x="950" 
d="M430 177h-230l-31 -59q-12 -24 -12 -37q0 -18 17.5 -25.5t66.5 -10.5v-45h-223v45q48 10 62 35l223 424q-23 16 -86 19v45h641l4 -154h-43q-22 56 -45.5 78.5t-71.5 22.5h-209l39 -198h133q26 0 37.5 17t18.5 57h43v-201h-43q-7 40 -18.5 57.5t-37.5 17.5h-122l32 -164
q5 -25 18.5 -36.5t41.5 -11.5h68q48 0 73 23t70 96h45l-28 -172h-508v45q48 1 69.5 10.5t21.5 37.5q0 9 -5 33zM364 494l-137 -265h193l-54 265h-2z" />
    <glyph glyph-name="ae.smcp" unicode="&#xf7e6;" horiz-adv-x="950" 
d="M430 177h-230l-31 -59q-12 -24 -12 -37q0 -18 17.5 -25.5t66.5 -10.5v-45h-223v45q48 10 62 35l223 424q-23 16 -86 19v45h641l4 -154h-43q-22 56 -45.5 78.5t-71.5 22.5h-209l39 -198h133q26 0 37.5 17t18.5 57h43v-201h-43q-7 40 -18.5 57.5t-37.5 17.5h-122l32 -164
q5 -25 18.5 -36.5t41.5 -11.5h68q48 0 73 23t70 96h45l-28 -172h-508v45q48 1 69.5 10.5t21.5 37.5q0 9 -5 33zM364 494l-137 -265h193l-54 265h-2z" />
    <glyph glyph-name="cacute.smcp" unicode="&#xe234;" horiz-adv-x="629" 
d="M395 822h140l-171 -208h-55zM365 49q67 0 107.5 34.5t65.5 105.5h47l-16 -152q-96 -47 -221 -47q-142 0 -223.5 81.5t-81.5 201.5q0 136 88 220.5t220 84.5q125 0 204 -53l4 -136h-45q-24 68 -64 99t-104 31q-87 0 -128.5 -60t-41.5 -158q0 -109 48 -180.5t141 -71.5z
" />
    </font>
</defs>
</svg>
