<?xml version="1.0" standalone="no"?>
<!DOCTYPE svg PUBLIC "-//W3C//DTD SVG 1.1//EN" "http://www.w3.org/Graphics/SVG/1.1/DTD/svg11.dtd" >
<svg xmlns="http://www.w3.org/2000/svg" xmlns:xlink="http://www.w3.org/1999/xlink" version="1.1">
<metadata>
Created by FontForge 20170731 at Wed Dec  2 22:49:48 2015
 By Aleksey,,,
(C) 2015 Frere-Jones Type LLC
</metadata>
<defs>
<font id="Mallory-BlackItalic" horiz-adv-x="0" >
  <font-face 
    font-family="Mallory Black"
    font-weight="800"
    font-style="italic"
    font-stretch="normal"
    units-per-em="1000"
    panose-1="2 1 10 1 3 5 1 9 3 4"
    ascent="800"
    descent="-200"
    x-height="518"
    cap-height="700"
    bbox="-337 -278 1495 1134"
    underline-thickness="50"
    underline-position="-225"
    slope="-14"
    unicode-range="U+000D-FB02"
  />
<missing-glyph horiz-adv-x="700" 
d="M600 800v-1000h-500v1000h500zM350 369l157 381h-315zM150 714v-828l171 414zM550 -114v828l-172 -414zM192 -150h315l-157 381z" />
    <glyph glyph-name="fi" unicode="fi" horiz-adv-x="759" 
d="M348 518h154l-35 -143h-150l-93 -375h-188l93 375h-78l36 143h78l8 34q53 204 251 204q64 0 115 -19l2 -141l-3 -1q-45 20 -88 20q-79 0 -97 -75zM714 781q46 0 76 -27.5t30 -70.5q0 -46 -32.5 -76.5t-81.5 -30.5q-46 0 -76 27.5t-30 70.5q0 46 32.5 76.5t81.5 30.5z
M766 518l-129 -518h-190l129 518h190z" />
    <glyph glyph-name="fl" unicode="fl" horiz-adv-x="759" 
d="M348 518h154l-35 -143h-150l-93 -375h-188l93 375h-78l36 143h78l8 34q53 204 251 204q64 0 115 -19l2 -141l-3 -1q-45 20 -88 20q-79 0 -97 -75zM825 757l-188 -757h-190l177 711z" />
    <glyph glyph-name="f_f" unicode="ff" horiz-adv-x="907" 
d="M348 518h154l-35 -143h-150l-93 -375h-188l93 375h-78l36 143h78l8 34q53 204 251 204q64 0 115 -19l2 -141l-3 -1q-45 20 -88 20q-79 0 -97 -75zM802 518h154l-35 -143h-150l-93 -375h-188l93 375h-78l36 143h78l8 34q53 204 251 204q64 0 115 -19l2 -141l-3 -1
q-45 20 -88 20q-79 0 -97 -75z" />
    <glyph glyph-name="f_f_i" unicode="ffi" horiz-adv-x="1213" 
d="M348 518h154l-35 -143h-150l-93 -375h-188l93 375h-78l36 143h78l8 34q53 204 251 204q64 0 115 -19l2 -141l-3 -1q-45 20 -88 20q-79 0 -97 -75zM802 518h154l-35 -143h-150l-93 -375h-188l93 375h-78l36 143h78l8 34q53 204 251 204q64 0 115 -19l2 -141l-3 -1
q-45 20 -88 20q-79 0 -97 -75zM1167 781q46 0 76 -27.5t30 -70.5q0 -46 -32.5 -76.5t-81.5 -30.5q-46 0 -76 27.5t-30 70.5q0 46 32.5 76.5t81.5 30.5zM1219 518l-129 -518h-190l129 518h190z" />
    <glyph glyph-name="f_f_l" unicode="ffl" horiz-adv-x="1213" 
d="M348 518h154l-35 -143h-150l-93 -375h-188l93 375h-78l36 143h78l8 34q53 204 251 204q64 0 115 -19l2 -141l-3 -1q-45 20 -88 20q-79 0 -97 -75zM802 518h154l-35 -143h-150l-93 -375h-188l93 375h-78l36 143h78l8 34q53 204 251 204q64 0 115 -19l2 -141l-3 -1
q-45 20 -88 20q-79 0 -97 -75zM1278 757l-188 -757h-190l177 711z" />
    <glyph glyph-name=".notdef" horiz-adv-x="700" 
d="M600 800v-1000h-500v1000h500zM350 369l157 381h-315zM150 714v-828l171 414zM550 -114v828l-172 -414zM192 -150h315l-157 381z" />
    <glyph glyph-name=".null" 
 />
    <glyph glyph-name="nonmarkingreturn" horiz-adv-x="333" 
 />
    <glyph glyph-name="null" 
 />
    <glyph glyph-name="null" 
 />
    <glyph glyph-name="CR" unicode="&#xd;" horiz-adv-x="221" 
 />
    <glyph glyph-name="space" unicode=" " horiz-adv-x="221" 
 />
    <glyph glyph-name="exclam" unicode="!" horiz-adv-x="304" 
d="M146 700h231l-13 -53l-170 -384h-84l24 387zM193 79q-10 -37 -42.5 -56.5t-68.5 -9.5q-33 10 -48.5 38t-5.5 62q10 37 42.5 56t68.5 10q34 -10 49 -38t5 -62z" />
    <glyph glyph-name="quotedbl" unicode="&#x22;" horiz-adv-x="565" 
d="M403 388l-80 21l132 291h211zM150 388l-80 21l132 291h210z" />
    <glyph glyph-name="numbersign" unicode="#" horiz-adv-x="710" 
d="M470 412h-149l-33 -124h150zM517 125l-33 -127h-122l33 127h-150l-33 -127h-122l33 127h-108l42 166h110l31 118h-112l42 166h114l33 127h122l-33 -127h149l33 127h123l-33 -127h104l-42 -166h-106l-31 -118h108l-41 -166h-111z" />
    <glyph glyph-name="dollar" unicode="$" horiz-adv-x="592" 
d="M310 0l-30 -122h-135l32 129q-93 19 -163 62l-1 184l3 2q57 -47 124.5 -73t131.5 -26q37 0 58 13t21 37q0 21 -19.5 37t-72.5 40q-87 39 -126.5 86t-39.5 114q0 94 70 154q72 60 187 64l26 107h135l-30 -119q71 -13 141 -49l-27 -168l-3 -1q-118 73 -224 73
q-33 0 -52.5 -12.5t-19.5 -33.5t19 -36t73 -39q87 -39 127 -87t40 -114q0 -94 -65.5 -153t-179.5 -69z" />
    <glyph glyph-name="percent" unicode="%" horiz-adv-x="955" 
d="M463 544q0 -103 -61 -171q-62 -69 -151 -69q-73 0 -118 47t-45 123q0 102 62 172q62 68 151 68q73 0 117.5 -47t44.5 -123zM534 323l-276 -325h-124l333 379l276 325h124zM338 537q0 67 -46 67q-32 0 -55.5 -35t-23.5 -85q0 -32 12.5 -49.5t34.5 -17.5q32 0 55 35t23 85z
M913 226q0 -104 -61 -171q-62 -69 -152 -69q-73 0 -117.5 47t-44.5 123q0 101 62 171q62 69 150 69q73 0 118 -47t45 -123zM787 219q0 67 -46 67q-32 0 -55 -35t-23 -85q0 -67 46 -67q32 0 55 35t23 85z" />
    <glyph glyph-name="ampersand" unicode="&#x26;" horiz-adv-x="757" 
d="M429 585q-32 0 -53 -21.5t-21 -54.5q0 -37 18 -74q59 24 85 46t26 51q0 24 -15 38.5t-40 14.5zM186 191q0 -31 19.5 -48.5t52.5 -17.5q45 0 99 30q-49 65 -86 129q-85 -36 -85 -93zM684 3v-3h-198q-27 31 -29 33q-6 7 -12.5 14.5t-8.5 9.5q-113 -67 -221 -67
q-95 0 -151.5 49t-56.5 132q0 75 50.5 129t158.5 95q-25 60 -25 118q0 88 65 144t167 56q92 0 148 -45.5t56 -118.5q0 -66 -48.5 -114.5t-155.5 -89.5q23 -39 62 -95q61 56 115 115h170v-3q-129 -141 -209 -211q65 -82 123 -148z" />
    <glyph glyph-name="quotesingle" unicode="'" horiz-adv-x="319" 
d="M156 388l-86 21l132 291h217z" />
    <glyph glyph-name="parenleft" unicode="(" horiz-adv-x="460" 
d="M513 758l42 -55q-297 -206 -297 -488q0 -160 94 -322l-54 -41q-228 174 -228 388q0 163 112.5 294.5t330.5 223.5z" />
    <glyph glyph-name="parenright" unicode=")" horiz-adv-x="460" 
d="M-30 -148l-42 55q297 206 297 488q0 160 -94 322l54 41q228 -174 228 -388q0 -163 -112.5 -294.5t-330.5 -223.5z" />
    <glyph glyph-name="asterisk" unicode="*" horiz-adv-x="552" 
d="M354 524l-25 6l-40 185l189 -47zM88 511l104 165l99 -162l-14 -22zM383 465l-2 26l163 97l15 -195zM283 455l16 -20l-74 -174l-127 149zM321 237l16 188l24 11l142 -127z" />
    <glyph glyph-name="plus" unicode="+" horiz-adv-x="600" 
d="M422 427h184l-38 -154h-184l-49 -198h-162l50 198h-185l39 154h184l48 192h161z" />
    <glyph glyph-name="comma" unicode="," horiz-adv-x="266" 
d="M-82 -182l-42 49q63 55 93 111t57 165l11 48h180q-31 -130 -95 -213q-64 -80 -204 -160z" />
    <glyph glyph-name="hyphen" unicode="-" horiz-adv-x="405" 
d="M345 197h-316l41 166h316z" />
    <glyph glyph-name="period" unicode="." horiz-adv-x="266" 
d="M88 -10q-44 0 -74 29.5t-30 73.5q0 48 34 82q33 34 80 34q44 0 74 -29.5t30 -73.5q0 -49 -33.5 -82.5t-80.5 -33.5z" />
    <glyph glyph-name="slash" unicode="/" horiz-adv-x="498" 
d="M598 740l-562 -870h-142l562 870h142z" />
    <glyph glyph-name="zero" unicode="0" horiz-adv-x="706" 
d="M597 125q-51 -67 -121.5 -103t-149.5 -36q-123 0 -193.5 78.5t-70.5 214.5q0 178 92 296q51 67 121.5 103t149.5 36q123 0 193.5 -78.5t70.5 -214.5q0 -178 -92 -296zM253 281q0 -124 88 -124q63 0 109 78q47 79 47 184q0 124 -88 124q-61 0 -108 -78q-48 -78 -48 -184z
" />
    <glyph glyph-name="one" unicode="1" horiz-adv-x="466" 
d="M486 717l15 -6l-177 -711h-194l103 414l-177 -88l-2 2l50 204z" />
    <glyph glyph-name="two" unicode="2" horiz-adv-x="597" 
d="M292 166l258 3l-94 -169h-467l9 112l308 256q54 45 74 71.5t20 49.5q0 45 -59 45q-51 0 -118.5 -33.5t-130.5 -90.5l-2 1l40 214q111 86 249 86q98 0 157 -50.5t59 -135.5q0 -63 -39.5 -123t-128.5 -128z" />
    <glyph glyph-name="three" unicode="3" horiz-adv-x="572" 
d="M517 196q0 -92 -76 -149q-76 -58 -198 -58q-128 0 -223 56l5 174l2 1q99 -73 198 -73q45 0 72 18t27 47q0 33 -38 56t-137 51l13 56q123 37 176.5 67t53.5 64q0 46 -70 46q-98 0 -221 -72l-3 2l42 167q111 61 235 61q96 0 153.5 -44t57.5 -118q0 -134 -176 -201
q107 -48 107 -151z" />
    <glyph glyph-name="four" unicode="4" horiz-adv-x="662" 
d="M426 536l-198 -264h133zM540 272h103l-36 -143h-103l-32 -129h-183l32 129h-328l-3 51l422 525h235z" />
    <glyph glyph-name="five" unicode="5" horiz-adv-x="594" 
d="M546 247q0 -120 -85 -189q-85 -70 -235 -70q-111 0 -201 49l4 169l2 1q102 -61 194 -61q55 0 89.5 25.5t34.5 66.5q0 35 -27.5 54.5t-76.5 19.5q-70 0 -165 -21l-9 8l125 401h440l-42 -165h-300l-29 -95q32 6 65 6q98 0 157 -54t59 -145z" />
    <glyph glyph-name="six" unicode="6" horiz-adv-x="637" 
d="M602 261q0 -116 -85 -195t-214 -79q-121 0 -193 66t-72 177q0 79 42 155q43 79 142 182l129 133h241l-229 -222h2q103 0 171 -60q66 -62 66 -157zM227 237q0 -43 24 -68t64 -25t68.5 29.5t28.5 71.5q0 91 -117 91q-4 0 -8.5 -0.5t-12.5 -1t-16 -0.5q-31 -52 -31 -97z" />
    <glyph glyph-name="seven" unicode="7" horiz-adv-x="611" 
d="M705 700l4 -10l-453 -690h-213l357 531h-305l66 169h544z" />
    <glyph glyph-name="eight" unicode="8" horiz-adv-x="651" 
d="M503 344q93 -50 93 -151q0 -95 -81 -150q-84 -56 -222 -55q-125 2 -195.5 53t-70.5 138q0 65 45.5 115.5t125.5 74.5q-79 50 -79 140t77 147q77 56 202 56q114 0 181 -52q68 -53 68 -137q0 -60 -37.5 -107t-106.5 -72zM390 574q-38 0 -62.5 -24.5t-24.5 -61.5
q0 -31 20.5 -51t52.5 -20q37 0 62 25t25 63q0 31 -20.5 50t-52.5 19zM318 293q-41 0 -69.5 -26.5t-28.5 -64.5q0 -34 23.5 -55t61.5 -21q42 0 70 26t28 65q0 35 -23 55.5t-62 20.5z" />
    <glyph glyph-name="nine" unicode="9" horiz-adv-x="637" 
d="M459 133l-128 -133h-242l220 213q-102 1 -165 63q-64 61 -64 158q0 120 85 199q86 80 213 80q122 0 194 -66t72 -177q0 -77 -41 -154q-42 -76 -144 -183zM270 451q0 -46 29.5 -71t85.5 -25q25 0 33 1q36 58 36 107q0 43 -23.5 68t-63.5 25t-68.5 -30.5t-28.5 -74.5z" />
    <glyph glyph-name="colon" unicode=":" horiz-adv-x="280" 
d="M174 309q-44 0 -74 29t-30 73q0 49 33.5 83t80.5 34q44 0 74 -29.5t30 -73.5q0 -49 -33.5 -82.5t-80.5 -33.5zM95 -10q-44 0 -73.5 29.5t-29.5 73.5q0 48 33 82t81 34q44 0 73.5 -29.5t29.5 -73.5q0 -49 -33 -82.5t-81 -33.5z" />
    <glyph glyph-name="semicolon" unicode=";" horiz-adv-x="280" 
d="M177 308q-44 0 -74 29.5t-30 73.5q0 49 33.5 82.5t80.5 33.5q44 0 74 -29.5t30 -73.5q0 -49 -33.5 -82.5t-80.5 -33.5zM-78 -182l-43 49q65 55 93 111q30 56 57 165l12 48h179q-31 -130 -95 -213q-65 -81 -203 -160z" />
    <glyph glyph-name="less" unicode="&#x3c;" horiz-adv-x="600" 
d="M273 341l261 -115l-39 -155l-436 219l29 120l547 220l-43 -173z" />
    <glyph glyph-name="equal" unicode="=" horiz-adv-x="600" 
d="M106 521h519l-33 -132h-519zM53 311h519l-33 -132h-519z" />
    <glyph glyph-name="greater" unicode="&#x3e;" horiz-adv-x="600" 
d="M587 411l-29 -120l-547 -220l43 173l319 116l-261 115l38 155z" />
    <glyph glyph-name="question" unicode="?" horiz-adv-x="504" 
d="M87 469l-3 1l45 178q93 62 217 62q90 0 144.5 -43t54.5 -114q0 -64 -37.5 -108.5t-122.5 -80.5q-63 -26 -87 -44t-24 -39q0 -8 5 -18h-98q-32 35 -32 74q0 82 135 135q49 21 65.5 32t16.5 25q0 28 -48 28q-105 0 -231 -88zM264 79q-10 -37 -42.5 -56.5t-68.5 -9.5
q-33 10 -48.5 38t-5.5 62q10 37 42 56t69 10q33 -10 48.5 -38t5.5 -62z" />
    <glyph glyph-name="at" unicode="@" horiz-adv-x="1007" 
d="M470 -185q-199 0 -314 103t-115 284q0 104 42.5 203.5t119.5 177.5t175.5 120t205.5 42q178 0 289 -102q110 -104 110 -268q0 -143 -81 -234t-203 -91q-124 0 -142 86q-52 -48 -90.5 -67t-82.5 -19q-61 0 -98 44.5t-37 119.5q0 124 87 212q86 89 212 89q75 0 138 -37
l41 29h66l-74 -301q-6 -28 -6 -41q0 -22 15.5 -35.5t41.5 -13.5q70 0 124 75t54 182q0 154 -100 247t-266 93q-98 0 -190 -40t-164 -113t-111.5 -166.5t-39.5 -189.5q0 -167 105 -263q103 -94 290 -94q157 0 292 53v-35q-139 -50 -294 -50zM407 246q0 -61 61 -61q40 0 91 32
l40 157q-21 9 -51 9q-60 0 -100 -40q-41 -41 -41 -97z" />
    <glyph glyph-name="A" unicode="A" horiz-adv-x="824" 
d="M484 506l-146 -229h178zM635 701l115 -701h-202l-16 120h-288l-76 -120h-222l464 701h225z" />
    <glyph glyph-name="B" unicode="B" horiz-adv-x="658" 
d="M473 494q0 27 -19.5 42t-54.5 15h-72l-33 -134h74q46 0 75.5 21.5t29.5 55.5zM415 229q0 28 -20 43.5t-57 15.5h-76l-35 -140h76q51 0 81.5 22t30.5 59zM293 0h-293l174 700h251q113 0 175.5 -45.5t62.5 -126.5q0 -55 -35.5 -101t-99.5 -74q83 -44 83 -136
q0 -99 -86 -158t-232 -59z" />
    <glyph glyph-name="C" unicode="C" horiz-adv-x="684" 
d="M372 -11q-146 0 -230 84q-84 83 -84 228q0 176 118 293t295 117q147 0 247 -87l-43 -198l-2 -1q-92 101 -200 101q-86 0 -147 -59q-61 -60 -61 -147q0 -66 43.5 -106t116.5 -40q99 0 221 84l3 -2l-87 -224q-88 -43 -190 -43z" />
    <glyph glyph-name="D" unicode="D" horiz-adv-x="773" 
d="M557 387q0 67 -45.5 103t-131.5 36h-46l-88 -352h46q116 0 191 60q74 59 74 153zM259 0h-259l174 700h236q167 0 260 -78t93 -219q0 -185 -136 -294t-368 -109z" />
    <glyph glyph-name="E" unicode="E" horiz-adv-x="602" 
d="M548 169l-72 -169h-476l174 700h487l-42 -169h-288l-27 -107h242l-36 -145h-242l-27 -110h307z" />
    <glyph glyph-name="F" unicode="F" horiz-adv-x="580" 
d="M300 396h227l-40 -159h-226l-59 -237h-202l174 700h460l-9 -173h-292z" />
    <glyph glyph-name="G" unicode="G" horiz-adv-x="764" 
d="M421 395h314l-91 -354q-122 -51 -257 -51q-149 0 -240 83q-90 83 -90 221q0 186 129 302q128 115 339 115q139 0 257 -58l-47 -179q-109 56 -223 56q-106 0 -177 -62q-70 -63 -70 -159q0 -70 43.5 -109t123.5 -39q32 0 63 6l25 98h-131z" />
    <glyph glyph-name="H" unicode="H" horiz-adv-x="802" 
d="M846 700l-174 -700h-202l65 261h-268l-65 -261h-202l174 700h202l-63 -254h268l63 254h202z" />
    <glyph glyph-name="I" unicode="I" horiz-adv-x="338" 
d="M379 700l-174 -700h-202l174 700h202z" />
    <glyph glyph-name="J" unicode="J" horiz-adv-x="507" 
d="M139 172q83 0 106 86l110 442h202l-125 -504q-52 -205 -269 -205q-93 0 -156 49l2 187l3 1q62 -56 127 -56z" />
    <glyph glyph-name="K" unicode="K" horiz-adv-x="750" 
d="M681 1v-1h-235l-156 279h-19l-69 -279h-202l174 700h202l-66 -267h18l270 267h255v-2l-377 -356z" />
    <glyph glyph-name="L" unicode="L" horiz-adv-x="565" 
d="M516 181l-45 -181h-471l174 700h202l-129 -519h269z" />
    <glyph glyph-name="M" unicode="M" horiz-adv-x="1024" 
d="M813 460l-363 -470h-13l-124 472l-138 -462h-196l215 700h254l77 -343l250 343h274l-134 -700h-194z" />
    <glyph glyph-name="N" unicode="N" horiz-adv-x="817" 
d="M662 700h200l-174 -702h-150l-237 413l-100 -411h-201l174 700h198l203 -353z" />
    <glyph glyph-name="O" unicode="O" horiz-adv-x="821" 
d="M687 106q-120 -120 -296 -120q-148 0 -241 87t-93 226q0 176 122 295q120 120 296 120q148 0 241 -87t93 -226q0 -176 -122 -295zM264 315q0 -66 39.5 -106.5t103.5 -40.5q79 0 138 63q57 63 57 154q0 66 -39.5 106.5t-103.5 40.5q-80 0 -137 -63q-58 -62 -58 -154z" />
    <glyph glyph-name="P" unicode="P" horiz-adv-x="641" 
d="M472 465q0 35 -24 54.5t-66 19.5h-49l-45 -180h55q58 0 93.5 29.5t35.5 76.5zM669 486q0 -128 -96 -204q-97 -77 -255 -77h-65l-51 -205h-202l174 700h237q118 0 188 -58t70 -156z" />
    <glyph glyph-name="Q" unicode="Q" horiz-adv-x="821" 
d="M553 -149q-84 0 -133 31q-48 31 -108 118q-118 23 -186 103q-69 80 -69 196q0 176 122 295q120 120 296 120q147 0 241 -86q93 -87 93 -224q0 -126 -69 -223q-69 -99 -186 -144q40 -40 90 -40q38 0 75 14l2 -3l-72 -144q-50 -13 -96 -13zM264 315q0 -66 39.5 -106.5
t103.5 -40.5q79 0 138 63q57 63 57 154q0 66 -39.5 106.5t-103.5 40.5q-80 0 -137 -63q-58 -62 -58 -154z" />
    <glyph glyph-name="R" unicode="R" horiz-adv-x="688" 
d="M474 475q0 32 -23 50t-64 18h-53l-42 -169h58q56 0 90 27.5t34 73.5zM483 262l162 -262h-223l-142 238h-18l-60 -238h-202l174 700h239q123 0 191.5 -53.5t68.5 -149.5q0 -80 -50.5 -142t-139.5 -93z" />
    <glyph glyph-name="S" unicode="S" horiz-adv-x="582" 
d="M249 282q-82 46 -115 92.5t-33 114.5q0 99 75 161q74 62 193 62q128 0 232 -62l-27 -178l-2 -1q-111 79 -206 79q-31 0 -49 -12t-18 -32q0 -18 18 -34.5t74 -48.5q81 -44 114.5 -91t33.5 -115q0 -104 -74 -166q-75 -63 -200 -63q-65 0 -129 19.5t-110 53.5l-2 198l3 2
q56 -52 120 -81.5t121 -29.5q34 0 53.5 12.5t19.5 33.5t-18.5 38t-73.5 48z" />
    <glyph glyph-name="T" unicode="T" horiz-adv-x="726" 
d="M140 700h666l-45 -181h-231l-129 -519h-202l129 519h-233z" />
    <glyph glyph-name="U" unicode="U" horiz-adv-x="780" 
d="M66 243q0 47 17 114l86 343h202l-93 -373q-8 -37 -8 -55q0 -50 28.5 -78t79.5 -28q57 0 99 38t59 107l96 389h199l-105 -421q-72 -291 -373 -291q-133 0 -210 69q-77 68 -77 186z" />
    <glyph glyph-name="V" unicode="V" horiz-adv-x="805" 
d="M906 700l-480 -707h-181l-125 707h210l63 -438l285 438h228z" />
    <glyph glyph-name="W" unicode="W" horiz-adv-x="1134" 
d="M582 313l-229 -318h-178l-41 705h205l12 -417l305 424h14l112 -422l220 415h219l-393 -705h-162z" />
    <glyph glyph-name="X" unicode="X" horiz-adv-x="775" 
d="M533 347l168 -347h-226l-95 206l-189 -206h-247v2l347 363l-162 335h226l90 -194l178 194h246v-2z" />
    <glyph glyph-name="Y" unicode="Y" horiz-adv-x="725" 
d="M835 699l-371 -432l-66 -267h-202l68 274l-154 426h216l77 -246l196 246h236v-1z" />
    <glyph glyph-name="Z" unicode="Z" horiz-adv-x="720" 
d="M342 174h337l-93 -174h-624l-3 14l458 512h-304l44 174h640l3 -14z" />
    <glyph glyph-name="bracketleft" unicode="[" horiz-adv-x="430" 
d="M339 621l-157 -632h171l-45 -119h-331l216 870h323l-9 -119h-168z" />
    <glyph glyph-name="backslash" unicode="\" horiz-adv-x="498" 
d="M140 740h124l145 -870h-124z" />
    <glyph glyph-name="bracketright" unicode="]" horiz-adv-x="430" 
d="M145 740h331l-216 -870h-322l8 119h168l157 632h-171z" />
    <glyph glyph-name="asciicircum" unicode="^" horiz-adv-x="600" 
d="M471 714l125 -379h-161l-60 199l-157 -199h-179l315 379h117z" />
    <glyph glyph-name="underscore" unicode="_" horiz-adv-x="654" 
d="M549 -177h-661l27 107h660z" />
    <glyph glyph-name="grave" unicode="`" horiz-adv-x="500" 
d="M142 786h191l38 -194h-81z" />
    <glyph glyph-name="a" unicode="a" horiz-adv-x="575" 
d="M163 151q0 -19 14 -30t39 -11q47 0 100 27l21 81q-8 1 -32 1q-68 0 -105 -18t-37 -50zM528 235l-58 -223l-185 -19l19 68q-93 -70 -175 -70q-61 0 -97 33.5t-36 91.5q0 83 79.5 131.5t217.5 48.5q4 0 61 -3q1 4 1 17q0 71 -84 71q-83 0 -191 -59l-2 2l53 161
q93 43 197 43q101 0 158 -50.5t57 -138.5q0 -40 -15 -104z" />
    <glyph glyph-name="b" unicode="b" horiz-adv-x="637" 
d="M520 86q-96 -93 -234 -93q-70 0 -152 30l-132 -28l-12 3l177 713l201 46l-75 -303q73 73 156 73q73 0 117.5 -55t44.5 -148q0 -145 -91 -238zM283 146q62 0 105 41q42 41 42 103q0 39 -21.5 61.5t-58.5 22.5t-82 -22l-49 -197q26 -9 64 -9z" />
    <glyph glyph-name="c" unicode="c" horiz-adv-x="510" 
d="M464 204l2 -2l-70 -185q-59 -28 -138 -28q-106 0 -168 61q-64 61 -64 162q0 140 90 228q91 89 228 89q95 0 174 -50l-37 -171h-2q-66 54 -136 54q-55 0 -93 -35q-38 -36 -38 -88q0 -40 25.5 -61.5t71.5 -21.5q77 0 155 48z" />
    <glyph glyph-name="d" unicode="d" horiz-adv-x="642" 
d="M206 228q0 -39 21.5 -61.5t60.5 -22.5q40 0 86 24l47 190q-33 14 -70 14q-62 0 -103 -41q-42 -41 -42 -103zM710 757l-188 -757h-183l20 78q-81 -87 -171 -87q-74 0 -118 55t-44 148q0 147 92 239t226 92q59 0 114 -20l51 206z" />
    <glyph glyph-name="e" unicode="e" horiz-adv-x="574" 
d="M395 330q0 35 -17.5 55t-47.5 20q-34 0 -65 -26t-47 -67h176q1 4 1 18zM492 165l2 -1l-33 -134q-87 -40 -195 -40q-110 0 -175 61t-65 165q0 134 93 225q91 91 227 91q97 0 154 -54t57 -146q0 -59 -19 -116h-343q12 -87 122 -87q85 0 175 36z" />
    <glyph glyph-name="f" unicode="f" horiz-adv-x="454" 
d="M348 518h154l-35 -143h-150l-93 -375h-188l93 375h-78l36 143h78l8 34q53 204 251 204q64 0 115 -19l2 -141l-3 -1q-45 20 -88 20q-79 0 -97 -75z" />
    <glyph glyph-name="g" unicode="g" horiz-adv-x="642" 
d="M210 245q0 -35 20 -54t57 -19q47 0 99 29l40 161q-32 11 -70 11q-63 0 -104 -37q-42 -38 -42 -91zM207 -193q-112 0 -202 46l-19 166l3 2q100 -65 202 -65q126 0 162 107l13 40q-75 -68 -164 -68q-77 0 -124.5 51t-47.5 135q0 134 91 219t234 85q86 0 157 -29l128 27
l12 -3l-120 -481q-59 -232 -325 -232z" />
    <glyph glyph-name="h" unicode="h" horiz-adv-x="633" 
d="M404 311q0 26 -14.5 40.5t-39.5 14.5q-40 0 -86 -29l-84 -337h-190l177 711l201 46l-77 -312q79 85 166 85q66 0 106 -42.5t40 -112.5q0 -39 -18 -113l-65 -262h-190l69 276q5 20 5 35z" />
    <glyph glyph-name="i" unicode="i" horiz-adv-x="305" 
d="M260 781q46 0 76 -27.5t30 -70.5q0 -46 -32.5 -76.5t-81.5 -30.5q-46 0 -76 27.5t-30 70.5q0 46 32.5 76.5t81.5 30.5zM312 518l-129 -518h-190l129 518h190z" />
    <glyph glyph-name="j" unicode="j" horiz-adv-x="305" 
d="M262 781q46 0 75.5 -27.5t29.5 -70.5q0 -46 -32.5 -76.5t-81.5 -30.5q-46 0 -76 27.5t-30 70.5q0 46 33 76.5t82 30.5zM-1 16l125 502h189l-127 -513q-26 -103 -80.5 -149t-151.5 -46q-38 0 -71 10l-23 122l3 3q15 -7 39 -7q41 0 64 18.5t33 59.5z" />
    <glyph glyph-name="k" unicode="k" horiz-adv-x="608" 
d="M543 1v-1h-207l-88 204h-17l-51 -204h-190l176 711l202 46l-109 -439h18l167 200h222v-2l-239 -269z" />
    <glyph glyph-name="l" unicode="l" horiz-adv-x="305" 
d="M371 757l-188 -757h-190l177 711z" />
    <glyph glyph-name="m" unicode="m" horiz-adv-x="951" 
d="M393 311q0 26 -14 40.5t-38 14.5q-37 0 -77 -27l-84 -339h-190l126 505l187 19l-21 -84q79 90 168 90q48 0 83 -25t50 -70q89 95 192 95q66 0 106 -42.5t40 -112.5q0 -33 -19 -113l-65 -262h-189l69 276q5 20 5 35q0 26 -14 40.5t-38 14.5q-37 0 -81 -26q-5 -36 -15 -78
l-66 -262h-189l69 276q5 20 5 35z" />
    <glyph glyph-name="n" unicode="n" horiz-adv-x="633" 
d="M404 311q0 26 -14.5 40.5t-39.5 14.5q-39 0 -87 -29l-83 -337h-190l126 505l187 19l-22 -89q83 95 176 95q66 0 106 -42.5t40 -112.5q0 -39 -18 -113l-65 -262h-190l69 276q5 20 5 35z" />
    <glyph glyph-name="o" unicode="o" horiz-adv-x="619" 
d="M591 293q0 -130 -89 -219q-89 -88 -221 -88q-112 0 -182 67q-71 66 -71 172q0 131 90 219q88 88 220 88q112 0 183 -66q70 -67 70 -173zM411 282q0 41 -23.5 66t-60.5 25q-49 0 -84 -39q-35 -41 -35 -98q0 -41 23 -65.5t61 -24.5q50 0 84.5 39t34.5 97z" />
    <glyph glyph-name="p" unicode="p" horiz-adv-x="642" 
d="M291 146q61 0 103 42q41 41 41 102q0 39 -21.5 61.5t-59.5 22.5q-39 0 -87 -24l-47 -190q36 -14 71 -14zM523 85q-90 -92 -226 -92q-51 0 -113 20l-50 -200h-189l171 692l188 19l-21 -84q81 87 170 87q74 0 118.5 -55t44.5 -148q0 -148 -93 -239z" />
    <glyph glyph-name="q" unicode="q" horiz-adv-x="637" 
d="M635 523l12 -3l-176 -707h-190l63 251q-73 -73 -157 -73q-73 0 -117 55t-44 148q0 145 91 238q96 93 234 93q69 0 152 -30zM206 228q0 -39 21.5 -61.5t59.5 -22.5t82 22l49 197q-26 9 -64 9q-62 0 -105 -41q-43 -40 -43 -103z" />
    <glyph glyph-name="r" unicode="r" horiz-adv-x="459" 
d="M416 329q-70 0 -168 -51l-68 -278h-190l126 505l187 19l-32 -131q57 72 99.5 102.5t85.5 30.5q20 0 39 -8l-36 -193q-17 4 -43 4z" />
    <glyph glyph-name="s" unicode="s" horiz-adv-x="508" 
d="M202 199q-75 31 -107 68t-32 92q0 77 61.5 123.5t164.5 46.5q115 0 204 -53l-19 -141l-3 -1q-96 67 -184 67q-49 0 -49 -27q0 -13 15.5 -23.5t60.5 -28.5q73 -30 106 -68t33 -92q0 -79 -62 -126t-165 -47q-123 0 -210 57l-5 153l3 2q44 -37 101 -59.5t105 -22.5
q58 0 58 28q0 13 -16.5 23.5t-59.5 28.5z" />
    <glyph glyph-name="t" unicode="t" horiz-adv-x="481" 
d="M433 181l3 -2l-54 -165q-56 -25 -124 -25q-86 0 -136 46t-50 124q0 40 14 88l38 128h-73l36 143h79l31 106l199 40l-43 -146h158l-36 -143h-164l-39 -134q-6 -23 -6 -37q0 -27 17.5 -42.5t47.5 -15.5q53 0 102 35z" />
    <glyph glyph-name="u" unicode="u" horiz-adv-x="633" 
d="M643 518l-129 -518h-183l21 83q-83 -95 -176 -95q-66 0 -106 42.5t-40 112.5q0 39 18 113l66 262h189l-69 -276q-5 -16 -5 -35q0 -54 55 -54q38 0 86 29l83 336h190z" />
    <glyph glyph-name="v" unicode="v" horiz-adv-x="639" 
d="M697 518l-365 -529h-158l-104 529h195l38 -288l180 288h214z" />
    <glyph glyph-name="w" unicode="w" horiz-adv-x="888" 
d="M432 209l-158 -215h-151l-50 524h183l16 -280l220 286h14l86 -284l155 278h197l-311 -524h-144z" />
    <glyph glyph-name="x" unicode="x" horiz-adv-x="629" 
d="M431 252l126 -252h-202l-67 145l-124 -145h-219v2l256 278l-118 238h201l60 -133l114 133h217v-2z" />
    <glyph glyph-name="y" unicode="y" horiz-adv-x="617" 
d="M59 -190q-32 0 -63 9l-31 174l3 2q38 -20 82 -20q68 0 114 49l-94 494h195l39 -293l162 293h208l-303 -493q-68 -113 -142 -164t-170 -51z" />
    <glyph glyph-name="z" unicode="z" horiz-adv-x="559" 
d="M277 144h237l-78 -144h-479l-3 12l320 362h-201l35 144h485l3 -12z" />
    <glyph glyph-name="braceleft" unicode="{" horiz-adv-x="506" 
d="M337 -11h88l-45 -119h-135q-87 0 -135 35t-48 98q0 28 12.5 56t49.5 75q40 53 40 74q0 37 -53 48l-97 19l15 58l113 22q44 9 63 26t19 47q0 17 -10 67q-10 51 -10 72q0 79 62.5 126t170.5 47h155l-11 -119h-110q-80 0 -80 -65q0 -17 9 -63q10 -45 10 -64q0 -93 -126 -128
q73 -30 73 -90q0 -35 -50 -104q-38 -52 -38 -73q0 -45 68 -45z" />
    <glyph glyph-name="bar" unicode="|" horiz-adv-x="393" 
d="M253 740h127l-216 -870h-127z" />
    <glyph glyph-name="braceright" unicode="}" horiz-adv-x="506" 
d="M325 43q0 -79 -62.5 -126t-170.5 -47h-154l10 119h110q80 0 80 65q0 17 -9 63q-10 45 -10 64q0 93 126 128q-73 30 -73 90q0 35 50 104q38 52 38 73q0 45 -68 45h-88l46 119h134q87 0 135 -35t48 -98q0 -28 -12.5 -56t-49.5 -75q-40 -53 -40 -74q0 -37 53 -48l97 -19
l-15 -58l-113 -22q-43 -9 -62.5 -26t-19.5 -47q0 -17 10 -67q10 -51 10 -72z" />
    <glyph glyph-name="asciitilde" unicode="~" horiz-adv-x="600" 
d="M350 425q68 -44 87 -44q17 0 39 20q23 23 64 81l76 -48q-74 -130 -114 -174q-41 -44 -81 -44q-36 0 -126 59q-68 44 -87 44t-38 -19q-20 -19 -65 -82l-76 48q73 130 114 174t81 44q36 0 126 -59z" />
    <glyph glyph-name="uni00A0" unicode="&#xa0;" horiz-adv-x="221" 
 />
    <glyph glyph-name="exclamdown" unicode="&#xa1;" horiz-adv-x="304" 
d="M155 621q10 37 42.5 56.5t68.5 9.5q33 -10 48.5 -38t5.5 -62q-10 -37 -42 -56t-69 -10q-33 10 -48.5 38t-5.5 62zM202 0h-231l14 53l170 384h84l-24 -387z" />
    <glyph glyph-name="cent" unicode="&#xa2;" horiz-adv-x="522" 
d="M487 295l2 -2l-67 -177q-52 -24 -116 -30l-22 -89h-135l27 108q-58 25 -90 79t-32 126q0 114 69 196q70 82 180 101l25 96h134l-25 -99q59 -13 108 -45l-36 -164h-2q-69 55 -136 55q-56 0 -93 -34t-37 -84q0 -39 25 -62t69 -23q75 0 152 48z" />
    <glyph glyph-name="sterling" unicode="&#xa3;" horiz-adv-x="609" 
d="M274 159l288 6l-83 -165h-484l10 101q93 58 131 94q36 35 39 69l-130 -9l26 109l98 4q-27 81 -27 121q0 100 74 162q74 60 202 60q130 0 229 -68l-14 -179l-2 -1q-96 83 -187 83q-41 0 -64 -20t-23 -54q0 -25 18 -91l185 12l-26 -109l-150 -5q-5 -32 -30.5 -59.5
t-79.5 -60.5z" />
    <glyph glyph-name="yen" unicode="&#xa5;" horiz-adv-x="697" 
d="M438 227h186l-26 -102h-185l-31 -125h-197l31 125h-185l25 102h185l12 47h-185l25 101h132l-103 325h218l51 -235l170 235h235l-266 -325h131l-26 -101h-185z" />
    <glyph glyph-name="section" unicode="&#xa7;" horiz-adv-x="716" 
d="M211 287q0 -24 30 -42q28 -18 113 -48q54 -20 72 -31q79 29 79 66q0 23 -28 41q-27 17 -115 48q-45 16 -74 32q-77 -31 -77 -66zM534 7q0 -89 -74 -145q-74 -55 -196 -55q-125 0 -226 53l-2 174l2 1q119 -76 232 -76q70 0 70 38q0 18 -24 33t-91 39q-102 36 -147.5 79.5
t-45.5 104.5q0 116 178 165q-29 39 -29 94q0 90 75 145q73 55 195 55q123 0 229 -54l-25 -157h-2q-113 58 -208 58q-69 0 -69 -38q0 -18 23.5 -32.5t90.5 -38.5q102 -36 147.5 -79t45.5 -105q0 -118 -178 -165q29 -39 29 -94z" />
    <glyph glyph-name="dieresis" unicode="&#xa8;" horiz-adv-x="500" 
d="M463 586q-39 0 -65.5 26t-26.5 64q0 41 29.5 70t71.5 29q39 0 66 -26t27 -64q0 -41 -29.5 -70t-72.5 -29zM224 586q-39 0 -65.5 26t-26.5 64q0 41 29.5 70t71.5 29q39 0 66 -26t27 -64q0 -41 -29.5 -70t-72.5 -29z" />
    <glyph glyph-name="copyright" unicode="&#xa9;" horiz-adv-x="913" 
d="M194 68q-118 113 -118 281q0 165 119 282q120 115 285 115t284 -114q118 -113 118 -281q0 -165 -119 -282q-120 -115 -285 -115t-284 114zM478 714q-154 0 -261 -105q-108 -107 -108 -258q0 -153 109 -259q107 -106 262 -106t262 106q107 105 107 257q0 153 -108 259
q-109 106 -263 106zM516 234q83 0 153 54l1 -2l-16 -130q-70 -42 -154 -42q-112 0 -183 65t-71 169q0 105 72 171t188 66q87 0 157 -49v-133h-2q-73 61 -145 61q-55 0 -89.5 -32t-34.5 -82q0 -52 34.5 -84t89.5 -32z" />
    <glyph glyph-name="ordfeminine" unicode="&#xaa;" horiz-adv-x="523" 
d="M228 447q0 -28 38 -28q31 0 73 18l15 55h-21q-105 0 -105 -45zM504 511l-45 -167l-141 -6l13 46q-73 -50 -135 -50q-43 0 -69 23.5t-26 62.5q0 59 58.5 92.5t164.5 33.5q32 0 43 -1q1 4 1 13q0 22 -15.5 34.5t-43.5 12.5q-61 0 -136 -39l-2 2l38 115q72 28 139 28
q76 0 120 -36.5t44 -99.5q0 -30 -8 -64zM431 180h-395l24 97h395z" />
    <glyph glyph-name="guillemotleft" unicode="&#xab;" horiz-adv-x="695" 
d="M528 247l78 -217l-59 -41l-230 254l8 32l340 254l54 -43zM230 247l78 -217l-59 -41l-230 254l8 32l340 254l54 -43z" />
    <glyph glyph-name="registered" unicode="&#xae;" horiz-adv-x="586" 
d="M596 482q0 -102 -72 -173q-74 -71 -176 -71q-105 0 -176 70q-72 70 -72 172q0 103 73 173q73 71 175 71q105 0 176 -70q72 -70 72 -172zM568 481q0 93 -63 155q-65 62 -158 62q-91 0 -155 -62q-63 -63 -63 -155q0 -93 63 -155q64 -62 157 -62q91 0 156 63q63 63 63 154z
M343 563h-21v-71h19q20 0 32 9.5t12 25.5q0 36 -42 36zM426 452l78 -104h-104l-64 88h-13v-88h-90v280h115q62 0 95 -24.5t33 -69.5q0 -55 -50 -82z" />
    <glyph glyph-name="overscore" unicode="&#xaf;" horiz-adv-x="500" 
d="M533 610h-401l28 113h401z" />
    <glyph glyph-name="degree" unicode="&#xb0;" horiz-adv-x="537" 
d="M565 515q0 -105 -73 -174q-74 -69 -185 -69q-98 0 -157 55q-61 55 -61 144q0 105 74 174q73 69 184 69q97 0 158 -55q60 -55 60 -144zM235 479q0 -40 21.5 -63.5t57.5 -23.5q44 0 74.5 34.5t30.5 83.5q0 40 -21.5 63.5t-57.5 23.5q-44 0 -74.5 -34.5t-30.5 -83.5z" />
    <glyph glyph-name="plusminus" unicode="&#xb1;" horiz-adv-x="600" 
d="M447 529h176l-37 -149h-177l-42 -171h-159l42 171h-176l37 149h177l42 171h159zM12 131h512l-33 -131h-512z" />
    <glyph glyph-name="acute" unicode="&#xb4;" horiz-adv-x="500" 
d="M630 786v-2l-258 -192h-92l133 194h217z" />
    <glyph glyph-name="uni00B5" unicode="&#xb5;" horiz-adv-x="639" 
d="M167 50l-29 -178l-15 -59h-179l175 705h190l-70 -280q-5 -19 -5 -35q0 -25 14.5 -39.5t40.5 -14.5q38 0 86 29l84 340h190l-129 -518h-131l-7 61q-64 -64 -127 -64q-57 0 -88 53z" />
    <glyph glyph-name="paragraph" unicode="&#xb6;" horiz-adv-x="752" 
d="M599 541h-71l-134 -541h-103l48 195h-22q-113 0 -181 59t-68 157q0 130 113 210q112 79 296 79h310l-174 -700h-148zM241 397q0 -50 32 -78t90 -28l62 250q-81 -1 -132.5 -41t-51.5 -103z" />
    <glyph glyph-name="middot" unicode="&#xb7;" horiz-adv-x="269" 
d="M135 171q-44 0 -73.5 29.5t-29.5 73.5q0 49 33 82.5t80 33.5q44 0 74 -29.5t30 -73.5q0 -49 -33.5 -82.5t-80.5 -33.5z" />
    <glyph glyph-name="cedilla" unicode="&#xb8;" horiz-adv-x="500" 
d="M316 -124q0 -45 -48.5 -73t-129.5 -28q-52 0 -101 11l-26 69l3 4q52 -16 102 -16q66 0 66 31q0 26 -50 26q-21 0 -49 -4l-3 4l73 108h98l-36 -53q46 -2 73.5 -23.5t27.5 -55.5z" />
    <glyph glyph-name="ordmasculine" unicode="&#xba;" horiz-adv-x="517" 
d="M542 544q0 -90 -66 -148q-65 -58 -169 -58q-87 0 -143 47t-56 121q0 90 66 148q65 58 169 58q89 0 144 -46t55 -122zM405 537q0 32 -19 51.5t-50 19.5q-38 0 -64.5 -27.5t-26.5 -67.5q0 -32 19 -51.5t50 -19.5q38 0 64.5 27.5t26.5 67.5zM437 180h-397l25 97h396z" />
    <glyph glyph-name="guillemotright" unicode="&#xbb;" horiz-adv-x="695" 
d="M377 274l-7 -31l-340 -255l-55 44l192 238l-79 217l60 41zM675 274l-7 -31l-340 -255l-55 44l192 238l-79 217l60 41z" />
    <glyph glyph-name="onequarter" unicode="&#xbc;" horiz-adv-x="878" 
d="M358 711l9 -4l-107 -429h-133l60 242l-109 -52l-2 1l32 126zM454 331l-294 -333h-87l335 371l294 333h87zM696 328l-119 -163h78zM777 165h64l-23 -89h-64l-19 -76h-125l19 76h-203l-1 32l246 317h172z" />
    <glyph glyph-name="onehalf" unicode="&#xbd;" horiz-adv-x="881" 
d="M358 711l9 -4l-107 -429h-133l60 242l-109 -52l-2 1l32 126zM454 331l-294 -333h-87l335 371l294 333h87zM678 105l153 1l-62 -106h-290l6 72l184 151q30 25 42 40t12 29q0 25 -34 25q-64 0 -151 -74l-2 1l30 134q65 51 153 51q62 0 99.5 -30.5t37.5 -80.5
q0 -74 -103 -154z" />
    <glyph glyph-name="threequarters" unicode="&#xbe;" horiz-adv-x="927" 
d="M372 396q0 -55 -48 -89.5t-126 -34.5q-86 0 -142 35l4 108l2 1q67 -44 123 -44q26 0 41 9.5t15 25.5q0 18 -24 32t-81 30l8 34q81 24 112 41t31 38q0 26 -40 26q-56 0 -139 -44l-2 1l27 104q71 38 155 38q59 0 95 -27t36 -71q0 -81 -112 -124q65 -26 65 -89zM503 331
l-294 -333h-87l335 371l294 333h87zM745 328l-119 -163h78zM826 165h64l-23 -89h-64l-19 -76h-125l19 76h-203l-1 32l246 317h172z" />
    <glyph glyph-name="questiondown" unicode="&#xbf;" horiz-adv-x="504" 
d="M285 620q10 37 42.5 56.5t68.5 9.5q33 -10 48.5 -38t5.5 -62q-10 -37 -42.5 -56t-68.5 -9q-33 10 -48.5 37.5t-5.5 61.5zM462 230l3 -1l-45 -178q-91 -62 -217 -62q-89 0 -144 43.5t-55 113.5q0 65 38 109.5t123 79.5q64 27 87 44.5t23 38.5q0 8 -5 18h98q33 -33 33 -74
q0 -81 -136 -135q-47 -18 -64.5 -30.5t-17.5 -26.5q0 -27 49 -27q105 0 230 87z" />
    <glyph glyph-name="Agrave" unicode="&#xc0;" horiz-adv-x="824" 
d="M484 506l-146 -229h178zM635 701l115 -701h-202l-16 120h-288l-76 -120h-222l464 701h225zM326 929h214l39 -168h-99l-154 166v2z" />
    <glyph glyph-name="Aacute" unicode="&#xc1;" horiz-adv-x="824" 
d="M484 506l-146 -229h178zM635 701l115 -701h-202l-16 120h-288l-76 -120h-222l464 701h225zM827 929v-2l-248 -166h-114l120 168h242z" />
    <glyph glyph-name="Acircumflex" unicode="&#xc2;" horiz-adv-x="824" 
d="M484 506l-146 -229h178zM635 701l115 -701h-202l-16 120h-288l-76 -120h-222l464 701h225zM655 929l93 -168h-101l-95 66l-128 -66h-116v2l174 166h173z" />
    <glyph glyph-name="Atilde" unicode="&#xc3;" horiz-adv-x="824" 
d="M484 506l-146 -229h178zM635 701l115 -701h-202l-16 120h-288l-76 -120h-222l464 701h225zM573 906q54 -23 74 -23q17 0 32.5 10.5t45.5 42.5l66 -53q-48 -70 -82.5 -99t-71.5 -29q-31 0 -99 29q-54 23 -75 23q-16 0 -32 -10.5t-46 -42.5l-66 53q48 71 83 99.5t71 28.5
q32 0 100 -29z" />
    <glyph glyph-name="Adieresis" unicode="&#xc4;" horiz-adv-x="824" 
d="M484 506l-146 -229h178zM635 701l115 -701h-202l-16 120h-288l-76 -120h-222l464 701h225zM668 946q40 0 67 -26t27 -65q0 -42 -29 -70.5t-71 -28.5q-40 0 -67 26t-27 65q0 41 29 70t71 29zM428 946q40 0 67 -26t27 -65q0 -42 -29 -70.5t-71 -28.5q-40 0 -67 26t-27 65
q0 41 29 70t71 29z" />
    <glyph glyph-name="Aring" unicode="&#xc5;" horiz-adv-x="824" 
d="M456 735q0 -29 20 -48.5t51 -19.5q33 0 56 22.5t23 55.5q0 30 -20 49.5t-51 19.5q-33 0 -56 -23t-23 -56zM484 507l-147 -230h179zM642 661l108 -661h-202l-16 120h-288l-76 -120h-222l453 684q-10 21 -10 50q0 58 44 100q43 42 104 42q59 0 97.5 -36.5t38.5 -92.5
q0 -49 -31 -86z" />
    <glyph glyph-name="AE" unicode="&#xc6;" horiz-adv-x="1056" 
d="M590 544l-214 -267h148zM1002 169l-71 -169h-476l30 120h-236l-96 -120h-218v2l566 698h614l-42 -169h-288l-27 -107h243l-36 -145h-243l-27 -110h307z" />
    <glyph glyph-name="Ccedilla" unicode="&#xc7;" horiz-adv-x="684" 
d="M460 -129q0 -45 -48.5 -73t-129.5 -28q-52 0 -101 11l-26 69l3 4q52 -16 102 -16q66 0 66 31q0 26 -50 26q-21 0 -49 -4l-3 4l69 101q-112 22 -173.5 102t-61.5 203q0 176 118 293t295 117q147 0 247 -87l-43 -198l-2 -1q-92 101 -200 101q-86 0 -147 -59
q-61 -60 -61 -147q0 -66 43.5 -106t116.5 -40q99 0 221 84l3 -2l-87 -224q-80 -41 -176 -43l-27 -39q46 -2 73.5 -23.5t27.5 -55.5z" />
    <glyph glyph-name="Egrave" unicode="&#xc8;" horiz-adv-x="602" 
d="M548 169l-72 -169h-476l174 700h487l-42 -169h-288l-27 -107h242l-36 -145h-242l-27 -110h307zM221 929h214l39 -168h-99l-154 166v2z" />
    <glyph glyph-name="Eacute" unicode="&#xc9;" horiz-adv-x="602" 
d="M548 169l-72 -169h-476l174 700h487l-42 -169h-288l-27 -107h242l-36 -145h-242l-27 -110h307zM722 929v-2l-248 -166h-114l120 168h242z" />
    <glyph glyph-name="Ecircumflex" unicode="&#xca;" horiz-adv-x="602" 
d="M548 169l-72 -169h-476l174 700h487l-42 -169h-288l-27 -107h242l-36 -145h-242l-27 -110h307zM550 929l93 -168h-101l-95 66l-128 -66h-116v2l174 166h173z" />
    <glyph glyph-name="Edieresis" unicode="&#xcb;" horiz-adv-x="602" 
d="M548 169l-72 -169h-476l174 700h487l-42 -169h-288l-27 -107h242l-36 -145h-242l-27 -110h307zM563 946q40 0 67 -26t27 -65q0 -42 -29 -70.5t-71 -28.5q-40 0 -67 26t-27 65q0 41 29 70t71 29zM323 946q40 0 67 -26t27 -65q0 -42 -29 -70.5t-71 -28.5q-40 0 -67 26
t-27 65q0 41 29 70t71 29z" />
    <glyph glyph-name="Igrave" unicode="&#xcc;" horiz-adv-x="338" 
d="M379 700l-174 -700h-202l174 700h202zM89 929h214l39 -168h-99l-154 166v2z" />
    <glyph glyph-name="Iacute" unicode="&#xcd;" horiz-adv-x="338" 
d="M379 700l-174 -700h-202l174 700h202zM590 929v-2l-248 -166h-114l120 168h242z" />
    <glyph glyph-name="Icircumflex" unicode="&#xce;" horiz-adv-x="338" 
d="M379 700l-174 -700h-202l174 700h202zM418 929l93 -168h-101l-95 66l-128 -66h-116v2l174 166h173z" />
    <glyph glyph-name="Idieresis" unicode="&#xcf;" horiz-adv-x="338" 
d="M379 700l-174 -700h-202l174 700h202zM431 946q40 0 67 -26t27 -65q0 -42 -29 -70.5t-71 -28.5q-40 0 -67 26t-27 65q0 41 29 70t71 29zM191 946q40 0 67 -26t27 -65q0 -42 -29 -70.5t-71 -28.5q-40 0 -67 26t-27 65q0 41 29 70t71 29z" />
    <glyph glyph-name="Eth" unicode="&#xd0;" horiz-adv-x="800" 
d="M329 415h109l-31 -125h-109l-29 -116h53q113 0 187 61q75 60 75 151q0 68 -45 104t-130 36h-52zM302 0h-275l71 284h-75l34 138h75l69 278h242q162 0 255 -78q92 -78 92 -214q0 -183 -134 -296q-133 -112 -354 -112z" />
    <glyph glyph-name="Ntilde" unicode="&#xd1;" horiz-adv-x="817" 
d="M662 700h200l-174 -702h-150l-237 413l-100 -411h-201l174 700h198l203 -353zM569 906q54 -23 74 -23q17 0 32.5 10.5t45.5 42.5l66 -53q-48 -70 -82.5 -99t-71.5 -29q-31 0 -99 29q-54 23 -75 23q-16 0 -32 -10.5t-46 -42.5l-66 53q48 71 83 99.5t71 28.5q32 0 100 -29z
" />
    <glyph glyph-name="Ograve" unicode="&#xd2;" horiz-adv-x="821" 
d="M687 106q-120 -120 -296 -120q-148 0 -241 87t-93 226q0 176 122 295q120 120 296 120q148 0 241 -87t93 -226q0 -176 -122 -295zM264 315q0 -66 39.5 -106.5t103.5 -40.5q79 0 138 63q57 63 57 154q0 66 -39.5 106.5t-103.5 40.5q-80 0 -137 -63q-58 -62 -58 -154z
M313 934h214l39 -168h-99l-154 166v2z" />
    <glyph glyph-name="Oacute" unicode="&#xd3;" horiz-adv-x="821" 
d="M687 106q-120 -120 -296 -120q-148 0 -241 87t-93 226q0 176 122 295q120 120 296 120q148 0 241 -87t93 -226q0 -176 -122 -295zM264 315q0 -66 39.5 -106.5t103.5 -40.5q79 0 138 63q57 63 57 154q0 66 -39.5 106.5t-103.5 40.5q-80 0 -137 -63q-58 -62 -58 -154z
M814 934v-2l-248 -166h-114l120 168h242z" />
    <glyph glyph-name="Ocircumflex" unicode="&#xd4;" horiz-adv-x="821" 
d="M687 106q-120 -120 -296 -120q-148 0 -241 87t-93 226q0 176 122 295q120 120 296 120q148 0 241 -87t93 -226q0 -176 -122 -295zM264 315q0 -66 39.5 -106.5t103.5 -40.5q79 0 138 63q57 63 57 154q0 66 -39.5 106.5t-103.5 40.5q-80 0 -137 -63q-58 -62 -58 -154z
M642 934l93 -168h-101l-95 66l-128 -66h-116v2l174 166h173z" />
    <glyph glyph-name="Otilde" unicode="&#xd5;" horiz-adv-x="821" 
d="M687 106q-120 -120 -296 -120q-148 0 -241 87t-93 226q0 176 122 295q120 120 296 120q148 0 241 -87t93 -226q0 -176 -122 -295zM264 315q0 -66 39.5 -106.5t103.5 -40.5q79 0 138 63q57 63 57 154q0 66 -39.5 106.5t-103.5 40.5q-80 0 -137 -63q-58 -62 -58 -154z
M560 911q54 -23 74 -23q17 0 32.5 10.5t45.5 42.5l66 -53q-48 -70 -82.5 -99t-71.5 -29q-31 0 -99 29q-54 23 -75 23q-16 0 -32 -10.5t-46 -42.5l-66 53q48 71 83 99.5t71 28.5q32 0 100 -29z" />
    <glyph glyph-name="Odieresis" unicode="&#xd6;" horiz-adv-x="821" 
d="M687 106q-120 -120 -296 -120q-148 0 -241 87t-93 226q0 176 122 295q120 120 296 120q148 0 241 -87t93 -226q0 -176 -122 -295zM264 315q0 -66 39.5 -106.5t103.5 -40.5q79 0 138 63q57 63 57 154q0 66 -39.5 106.5t-103.5 40.5q-80 0 -137 -63q-58 -62 -58 -154z
M655 951q40 0 67 -26t27 -65q0 -42 -29 -70.5t-71 -28.5q-40 0 -67 26t-27 65q0 41 29 70t71 29zM415 951q40 0 67 -26t27 -65q0 -42 -29 -70.5t-71 -28.5q-40 0 -67 26t-27 65q0 41 29 70t71 29z" />
    <glyph glyph-name="multiply" unicode="&#xd7;" horiz-adv-x="600" 
d="M426 341l117 -158l-130 -96l-109 155l-188 -155l-90 117l194 155l-117 158l130 96l109 -155l188 155l90 -117z" />
    <glyph glyph-name="Oslash" unicode="&#xd8;" horiz-adv-x="821" 
d="M459 539q-79 0 -141 -66q-61 -67 -61 -158q0 -27 8 -59l262 271q-30 12 -68 12zM407 161q80 0 141 67q61 65 61 157q0 27 -8 59l-262 -271q30 -12 68 -12zM687 106q-120 -120 -296 -120q-104 0 -189 51l-78 -80h-162v2l155 155q-60 80 -60 185q0 176 122 295
q120 120 296 120q104 0 189 -51l77 80h162v-2l-154 -155q60 -79 60 -185q0 -176 -122 -295z" />
    <glyph glyph-name="Ugrave" unicode="&#xd9;" horiz-adv-x="780" 
d="M66 243q0 47 17 114l86 343h202l-93 -373q-8 -37 -8 -55q0 -50 28.5 -78t79.5 -28q57 0 99 38t59 107l96 389h199l-105 -421q-72 -291 -373 -291q-133 0 -210 69q-77 68 -77 186zM310 929h214l39 -168h-99l-154 166v2z" />
    <glyph glyph-name="Uacute" unicode="&#xda;" horiz-adv-x="780" 
d="M66 243q0 47 17 114l86 343h202l-93 -373q-8 -37 -8 -55q0 -50 28.5 -78t79.5 -28q57 0 99 38t59 107l96 389h199l-105 -421q-72 -291 -373 -291q-133 0 -210 69q-77 68 -77 186zM811 929v-2l-248 -166h-114l120 168h242z" />
    <glyph glyph-name="Ucircumflex" unicode="&#xdb;" horiz-adv-x="780" 
d="M66 243q0 47 17 114l86 343h202l-93 -373q-8 -37 -8 -55q0 -50 28.5 -78t79.5 -28q57 0 99 38t59 107l96 389h199l-105 -421q-72 -291 -373 -291q-133 0 -210 69q-77 68 -77 186zM639 929l93 -168h-101l-95 66l-128 -66h-116v2l174 166h173z" />
    <glyph glyph-name="Udieresis" unicode="&#xdc;" horiz-adv-x="780" 
d="M66 243q0 47 17 114l86 343h202l-93 -373q-8 -37 -8 -55q0 -50 28.5 -78t79.5 -28q57 0 99 38t59 107l96 389h199l-105 -421q-72 -291 -373 -291q-133 0 -210 69q-77 68 -77 186zM652 946q40 0 67 -26t27 -65q0 -42 -29 -70.5t-71 -28.5q-40 0 -67 26t-27 65q0 41 29 70
t71 29zM412 946q40 0 67 -26t27 -65q0 -42 -29 -70.5t-71 -28.5q-40 0 -67 26t-27 65q0 41 29 70t71 29z" />
    <glyph glyph-name="Yacute" unicode="&#xdd;" horiz-adv-x="725" 
d="M835 699l-371 -432l-66 -267h-202l68 274l-154 426h216l77 -246l196 246h236v-1zM777 929v-2l-248 -166h-114l120 168h242z" />
    <glyph glyph-name="Thorn" unicode="&#xde;" horiz-adv-x="654" 
d="M453 368q0 34 -24.5 54t-66.5 20h-53l-44 -175h54q60 0 97 28t37 73zM649 383q0 -122 -94 -195q-95 -74 -250 -74h-75l-28 -114h-202l174 700h202l-26 -104h49q111 0 181 -59q69 -59 69 -154z" />
    <glyph glyph-name="germandbls" unicode="&#xdf;" horiz-adv-x="726" 
d="M666 190q0 -88 -67 -143q-67 -57 -172 -57q-56 0 -114 19l-5 148l3 2q41 -20 79 -20q39 0 64.5 23t25.5 57q0 32 -26 60.5t-86 62.5l7 42q141 80 141 158q0 32 -17.5 50t-48.5 18q-36 0 -62 -27.5t-39 -79.5l-125 -503h-188l93 375h-78l36 143h77l3 11q56 226 294 226
q108 0 172 -52q65 -53 65 -140q0 -115 -137 -197q105 -71 105 -176z" />
    <glyph glyph-name="agrave" unicode="&#xe0;" horiz-adv-x="575" 
d="M163 151q0 -19 14 -30t39 -11q47 0 100 27l21 81q-8 1 -32 1q-68 0 -105 -18t-37 -50zM528 235l-58 -223l-185 -19l19 68q-93 -70 -175 -70q-61 0 -97 33.5t-36 91.5q0 83 79.5 131.5t217.5 48.5q4 0 61 -3q1 4 1 17q0 71 -84 71q-83 0 -191 -59l-2 2l53 161
q93 43 197 43q101 0 158 -50.5t57 -138.5q0 -40 -15 -104zM180 786h191l38 -194h-81z" />
    <glyph glyph-name="aacute" unicode="&#xe1;" horiz-adv-x="575" 
d="M163 151q0 -19 14 -30t39 -11q47 0 100 27l21 81q-8 1 -32 1q-68 0 -105 -18t-37 -50zM528 235l-58 -223l-185 -19l19 68q-93 -70 -175 -70q-61 0 -97 33.5t-36 91.5q0 83 79.5 131.5t217.5 48.5q4 0 61 -3q1 4 1 17q0 71 -84 71q-83 0 -191 -59l-2 2l53 161
q93 43 197 43q101 0 158 -50.5t57 -138.5q0 -40 -15 -104zM668 786v-2l-258 -192h-92l133 194h217z" />
    <glyph glyph-name="acircumflex" unicode="&#xe2;" horiz-adv-x="575" 
d="M163 151q0 -19 14 -30t39 -11q47 0 100 27l21 81q-8 1 -32 1q-68 0 -105 -18t-37 -50zM528 235l-58 -223l-185 -19l19 68q-93 -70 -175 -70q-61 0 -97 33.5t-36 91.5q0 83 79.5 131.5t217.5 48.5q4 0 61 -3q1 4 1 17q0 71 -84 71q-83 0 -191 -59l-2 2l53 161
q93 43 197 43q101 0 158 -50.5t57 -138.5q0 -40 -15 -104zM496 786l82 -194h-92l-89 78l-131 -78h-105v2l177 192h158z" />
    <glyph glyph-name="atilde" unicode="&#xe3;" horiz-adv-x="575" 
d="M163 151q0 -19 14 -30t39 -11q47 0 100 27l21 81q-8 1 -32 1q-68 0 -105 -18t-37 -50zM528 235l-58 -223l-185 -19l19 68q-93 -70 -175 -70q-61 0 -97 33.5t-36 91.5q0 83 79.5 131.5t217.5 48.5q4 0 61 -3q1 4 1 17q0 71 -84 71q-83 0 -191 -59l-2 2l53 161
q93 43 197 43q101 0 158 -50.5t57 -138.5q0 -40 -15 -104zM403 748q54 -29 75 -29q14 0 30 11q11 8 52 52l67 -49q-57 -89 -90 -119q-32 -29 -67 -29q-30 0 -88 32q-55 28 -75 28q-16 0 -32 -11.5t-50 -50.5l-67 49q57 89 91 120q31 28 66 28q25 0 88 -32z" />
    <glyph glyph-name="adieresis" unicode="&#xe4;" horiz-adv-x="575" 
d="M163 151q0 -19 14 -30t39 -11q47 0 100 27l21 81q-8 1 -32 1q-68 0 -105 -18t-37 -50zM528 235l-58 -223l-185 -19l19 68q-93 -70 -175 -70q-61 0 -97 33.5t-36 91.5q0 83 79.5 131.5t217.5 48.5q4 0 61 -3q1 4 1 17q0 71 -84 71q-83 0 -191 -59l-2 2l53 161
q93 43 197 43q101 0 158 -50.5t57 -138.5q0 -40 -15 -104zM501 586q-39 0 -65.5 26t-26.5 64q0 41 29.5 70t71.5 29q39 0 66 -26t27 -64q0 -41 -29.5 -70t-72.5 -29zM262 586q-39 0 -65.5 26t-26.5 64q0 41 29.5 70t71.5 29q39 0 66 -26t27 -64q0 -41 -29.5 -70t-72.5 -29z
" />
    <glyph glyph-name="aring" unicode="&#xe5;" horiz-adv-x="575" 
d="M163 151q0 -19 14 -30t39 -11q47 0 100 27l21 81q-8 1 -32 1q-68 0 -105 -18t-37 -50zM528 235l-58 -223l-185 -19l19 68q-93 -70 -175 -70q-61 0 -97 33.5t-36 91.5q0 83 79.5 131.5t217.5 48.5q4 0 61 -3q1 4 1 17q0 71 -84 71q-83 0 -191 -59l-2 2l53 161
q93 43 197 43q101 0 158 -50.5t57 -138.5q0 -40 -15 -104zM532 724q0 -58 -41 -101q-42 -42 -100 -42q-55 0 -92 37t-37 91q0 59 42 101q40 42 99 42q55 0 92 -36.5t37 -91.5zM329 711q0 -30 18 -49t46 -19q30 0 51 23t21 56q0 30 -18 49t-46 19q-30 0 -51 -23t-21 -56z" />
    <glyph glyph-name="ae" unicode="&#xe6;" horiz-adv-x="895" 
d="M716 330q0 35 -17.5 55t-47.5 20q-34 0 -65 -26t-47 -67h176q1 4 1 18zM163 151q0 -19 14 -30t39 -11q59 0 137 47q-6 29 -6 59v1q-9 0 -18.5 0.5t-14.5 1t-9 0.5q-68 0 -105 -18t-37 -50zM813 165l2 -1l-33 -134q-84 -40 -194 -40q-137 0 -200 88q-131 -87 -247 -87
q-68 0 -106.5 33.5t-38.5 91.5q0 83 79.5 131.5t217.5 48.5q4 0 61 -3q1 4 1 17q0 71 -84 71q-83 0 -191 -59l-2 2l53 161q96 43 195 43q98 0 153 -61q80 65 189 65q96 0 153 -54t57 -146q0 -59 -19 -116h-343q12 -87 122 -87q85 0 175 36z" />
    <glyph glyph-name="ccedilla" unicode="&#xe7;" horiz-adv-x="510" 
d="M355 -129q0 -45 -48.5 -73t-129.5 -28q-52 0 -101 11l-26 69l3 4q52 -16 102 -16q66 0 66 31q0 26 -50 26q-21 0 -49 -4l-3 4l69 102q-76 19 -119 76t-43 139q0 140 90 228q91 89 228 89q95 0 174 -50l-37 -171h-2q-66 54 -136 54q-55 0 -93 -35q-38 -36 -38 -88
q0 -40 25.5 -61.5t71.5 -21.5q77 0 155 48l2 -2l-70 -185q-58 -26 -115 -27l-27 -40q46 -2 73.5 -23.5t27.5 -55.5z" />
    <glyph glyph-name="egrave" unicode="&#xe8;" horiz-adv-x="574" 
d="M395 330q0 35 -17.5 55t-47.5 20q-34 0 -65 -26t-47 -67h176q1 4 1 18zM492 165l2 -1l-33 -134q-87 -40 -195 -40q-110 0 -175 61t-65 165q0 134 93 225q91 91 227 91q97 0 154 -54t57 -146q0 -59 -19 -116h-343q12 -87 122 -87q85 0 175 36zM181 791h191l38 -194h-81z
" />
    <glyph glyph-name="eacute" unicode="&#xe9;" horiz-adv-x="574" 
d="M395 330q0 35 -17.5 55t-47.5 20q-34 0 -65 -26t-47 -67h176q1 4 1 18zM492 165l2 -1l-33 -134q-87 -40 -195 -40q-110 0 -175 61t-65 165q0 134 93 225q91 91 227 91q97 0 154 -54t57 -146q0 -59 -19 -116h-343q12 -87 122 -87q85 0 175 36zM669 791v-2l-258 -192h-92
l133 194h217z" />
    <glyph glyph-name="ecircumflex" unicode="&#xea;" horiz-adv-x="574" 
d="M395 330q0 35 -17.5 55t-47.5 20q-34 0 -65 -26t-47 -67h176q1 4 1 18zM492 165l2 -1l-33 -134q-87 -40 -195 -40q-110 0 -175 61t-65 165q0 134 93 225q91 91 227 91q97 0 154 -54t57 -146q0 -59 -19 -116h-343q12 -87 122 -87q85 0 175 36zM497 791l82 -194h-92l-89 78
l-131 -78h-105v2l177 192h158z" />
    <glyph glyph-name="edieresis" unicode="&#xeb;" horiz-adv-x="574" 
d="M395 330q0 35 -17.5 55t-47.5 20q-34 0 -65 -26t-47 -67h176q1 4 1 18zM492 165l2 -1l-33 -134q-87 -40 -195 -40q-110 0 -175 61t-65 165q0 134 93 225q91 91 227 91q97 0 154 -54t57 -146q0 -59 -19 -116h-343q12 -87 122 -87q85 0 175 36zM502 591q-39 0 -65.5 26
t-26.5 64q0 41 29.5 70t71.5 29q39 0 66 -26t27 -64q0 -41 -29.5 -70t-72.5 -29zM263 591q-39 0 -65.5 26t-26.5 64q0 41 29.5 70t71.5 29q39 0 66 -26t27 -64q0 -41 -29.5 -70t-72.5 -29z" />
    <glyph glyph-name="igrave" unicode="&#xec;" horiz-adv-x="305" 
d="M312 518l-129 -518h-190l129 518h190zM44 786h191l38 -194h-81z" />
    <glyph glyph-name="iacute" unicode="&#xed;" horiz-adv-x="305" 
d="M312 518l-129 -518h-190l129 518h190zM532 786v-2l-258 -192h-92l133 194h217z" />
    <glyph glyph-name="icircumflex" unicode="&#xee;" horiz-adv-x="305" 
d="M312 518l-129 -518h-190l129 518h190zM360 786l82 -194h-92l-89 78l-131 -78h-105v2l177 192h158z" />
    <glyph glyph-name="idieresis" unicode="&#xef;" horiz-adv-x="305" 
d="M312 518l-129 -518h-190l129 518h190zM365 586q-39 0 -65.5 26t-26.5 64q0 41 29.5 70t71.5 29q39 0 66 -26t27 -64q0 -41 -29.5 -70t-72.5 -29zM126 586q-39 0 -65.5 26t-26.5 64q0 41 29.5 70t71.5 29q39 0 66 -26t27 -64q0 -41 -29.5 -70t-72.5 -29z" />
    <glyph glyph-name="eth" unicode="&#xf0;" horiz-adv-x="620" 
d="M584 324q0 -154 -84 -246t-222 -92q-109 0 -179 65q-69 65 -69 165q0 114 78 190q76 76 190 76q58 0 107 -26q-24 64 -73 120l-80 -55l-42 63l71 46q-30 29 -81 71l133 79q36 -29 74 -67l83 56l42 -63l-75 -48q127 -154 127 -334zM404 257q0 39 -24.5 62.5t-64.5 23.5
q-43 0 -74 -33q-31 -32 -31 -78q0 -38 24 -62t62 -24q44 0 76 32.5t32 78.5z" />
    <glyph glyph-name="ntilde" unicode="&#xf1;" horiz-adv-x="633" 
d="M404 311q0 26 -14.5 40.5t-39.5 14.5q-39 0 -87 -29l-83 -337h-190l126 505l187 19l-22 -89q83 95 176 95q66 0 106 -42.5t40 -112.5q0 -39 -18 -113l-65 -262h-190l69 276q5 20 5 35zM422 748q54 -29 75 -29q14 0 30 11q11 8 52 52l67 -49q-57 -89 -90 -119
q-32 -29 -67 -29q-30 0 -88 32q-55 28 -75 28q-16 0 -32 -11.5t-50 -50.5l-67 49q57 89 91 120q31 28 66 28q25 0 88 -32z" />
    <glyph glyph-name="ograve" unicode="&#xf2;" horiz-adv-x="619" 
d="M591 293q0 -130 -89 -219q-89 -88 -221 -88q-112 0 -182 67q-71 66 -71 172q0 131 90 219q88 88 220 88q112 0 183 -66q70 -67 70 -173zM411 282q0 41 -23.5 66t-60.5 25q-49 0 -84 -39q-35 -41 -35 -98q0 -41 23 -65.5t61 -24.5q50 0 84.5 39t34.5 97zM188 791h191
l38 -194h-81z" />
    <glyph glyph-name="oacute" unicode="&#xf3;" horiz-adv-x="619" 
d="M591 293q0 -130 -89 -219q-89 -88 -221 -88q-112 0 -182 67q-71 66 -71 172q0 131 90 219q88 88 220 88q112 0 183 -66q70 -67 70 -173zM411 282q0 41 -23.5 66t-60.5 25q-49 0 -84 -39q-35 -41 -35 -98q0 -41 23 -65.5t61 -24.5q50 0 84.5 39t34.5 97zM676 791v-2
l-258 -192h-92l133 194h217z" />
    <glyph glyph-name="ocircumflex" unicode="&#xf4;" horiz-adv-x="619" 
d="M591 293q0 -130 -89 -219q-89 -88 -221 -88q-112 0 -182 67q-71 66 -71 172q0 131 90 219q88 88 220 88q112 0 183 -66q70 -67 70 -173zM411 282q0 41 -23.5 66t-60.5 25q-49 0 -84 -39q-35 -41 -35 -98q0 -41 23 -65.5t61 -24.5q50 0 84.5 39t34.5 97zM504 791l82 -194
h-92l-89 78l-131 -78h-105v2l177 192h158z" />
    <glyph glyph-name="otilde" unicode="&#xf5;" horiz-adv-x="619" 
d="M591 293q0 -130 -89 -219q-89 -88 -221 -88q-112 0 -182 67q-71 66 -71 172q0 131 90 219q88 88 220 88q112 0 183 -66q70 -67 70 -173zM411 282q0 41 -23.5 66t-60.5 25q-49 0 -84 -39q-35 -41 -35 -98q0 -41 23 -65.5t61 -24.5q50 0 84.5 39t34.5 97zM411 753
q54 -29 75 -29q14 0 30 11q11 8 52 52l67 -49q-57 -89 -90 -119q-32 -29 -67 -29q-30 0 -88 32q-55 28 -75 28q-16 0 -32 -11.5t-50 -50.5l-67 49q57 89 91 120q31 28 66 28q25 0 88 -32z" />
    <glyph glyph-name="odieresis" unicode="&#xf6;" horiz-adv-x="619" 
d="M591 293q0 -130 -89 -219q-89 -88 -221 -88q-112 0 -182 67q-71 66 -71 172q0 131 90 219q88 88 220 88q112 0 183 -66q70 -67 70 -173zM411 282q0 41 -23.5 66t-60.5 25q-49 0 -84 -39q-35 -41 -35 -98q0 -41 23 -65.5t61 -24.5q50 0 84.5 39t34.5 97zM509 591
q-39 0 -65.5 26t-26.5 64q0 41 29.5 70t71.5 29q39 0 66 -26t27 -64q0 -41 -29.5 -70t-72.5 -29zM270 591q-39 0 -65.5 26t-26.5 64q0 41 29.5 70t71.5 29q39 0 66 -26t27 -64q0 -41 -29.5 -70t-72.5 -29z" />
    <glyph glyph-name="divide" unicode="&#xf7;" horiz-adv-x="600" 
d="M370 468q-39 0 -66 26.5t-27 65.5q0 43 30 72.5t73 29.5q40 0 66.5 -26.5t26.5 -66.5q0 -43 -29.5 -72t-73.5 -29zM340 414l265 8l-36 -144l-264 8l-265 -8l36 144zM265 38q-39 0 -66 26.5t-27 65.5q0 43 30 72.5t73 29.5q39 0 65.5 -26.5t26.5 -65.5q0 -43 -29 -72.5
t-73 -29.5z" />
    <glyph glyph-name="oslash" unicode="&#xf8;" horiz-adv-x="619" 
d="M327 378q-51 0 -89 -42q-38 -43 -38 -99q0 -21 4 -33l158 168q-13 6 -35 6zM292 140q52 0 89 42q38 43 38 99q0 21 -4 33l-159 -168q16 -6 36 -6zM591 293q0 -130 -89 -219q-89 -88 -221 -88q-78 0 -138 36l-55 -58h-127v2l112 118q-45 62 -45 141q0 131 90 219
q88 88 220 88q78 0 138 -36l55 58h127v-2l-112 -118q45 -62 45 -141z" />
    <glyph glyph-name="ugrave" unicode="&#xf9;" horiz-adv-x="633" 
d="M643 518l-129 -518h-183l21 83q-83 -95 -176 -95q-66 0 -106 42.5t-40 112.5q0 39 18 113l66 262h189l-69 -276q-5 -16 -5 -35q0 -54 55 -54q38 0 86 29l83 336h190zM199 786h191l38 -194h-81z" />
    <glyph glyph-name="uacute" unicode="&#xfa;" horiz-adv-x="633" 
d="M643 518l-129 -518h-183l21 83q-83 -95 -176 -95q-66 0 -106 42.5t-40 112.5q0 39 18 113l66 262h189l-69 -276q-5 -16 -5 -35q0 -54 55 -54q38 0 86 29l83 336h190zM687 786v-2l-258 -192h-92l133 194h217z" />
    <glyph glyph-name="ucircumflex" unicode="&#xfb;" horiz-adv-x="633" 
d="M643 518l-129 -518h-183l21 83q-83 -95 -176 -95q-66 0 -106 42.5t-40 112.5q0 39 18 113l66 262h189l-69 -276q-5 -16 -5 -35q0 -54 55 -54q38 0 86 29l83 336h190zM515 786l82 -194h-92l-89 78l-131 -78h-105v2l177 192h158z" />
    <glyph glyph-name="udieresis" unicode="&#xfc;" horiz-adv-x="633" 
d="M643 518l-129 -518h-183l21 83q-83 -95 -176 -95q-66 0 -106 42.5t-40 112.5q0 39 18 113l66 262h189l-69 -276q-5 -16 -5 -35q0 -54 55 -54q38 0 86 29l83 336h190zM520 586q-39 0 -65.5 26t-26.5 64q0 41 29.5 70t71.5 29q39 0 66 -26t27 -64q0 -41 -29.5 -70
t-72.5 -29zM281 586q-39 0 -65.5 26t-26.5 64q0 41 29.5 70t71.5 29q39 0 66 -26t27 -64q0 -41 -29.5 -70t-72.5 -29z" />
    <glyph glyph-name="yacute" unicode="&#xfd;" horiz-adv-x="617" 
d="M59 -190q-32 0 -63 9l-31 174l3 2q38 -20 82 -20q68 0 114 49l-94 494h195l39 -293l162 293h208l-303 -493q-68 -113 -142 -164t-170 -51zM676 786v-2l-258 -192h-92l133 194h217z" />
    <glyph glyph-name="thorn" unicode="&#xfe;" horiz-adv-x="642" 
d="M291 146q61 0 103 42q41 41 41 102q0 39 -21.5 61.5t-59.5 22.5q-40 0 -86 -24l-48 -190q36 -14 71 -14zM523 85q-90 -92 -226 -92q-51 0 -113 20l-50 -200h-189l223 898l201 46l-76 -307q77 77 160 77q74 0 118.5 -55t44.5 -148q0 -148 -93 -239z" />
    <glyph glyph-name="ydieresis" unicode="&#xff;" horiz-adv-x="617" 
d="M59 -190q-32 0 -63 9l-31 174l3 2q38 -20 82 -20q68 0 114 49l-94 494h195l39 -293l162 293h208l-303 -493q-68 -113 -142 -164t-170 -51zM509 586q-39 0 -65.5 26t-26.5 64q0 41 29.5 70t71.5 29q39 0 66 -26t27 -64q0 -41 -29.5 -70t-72.5 -29zM270 586q-39 0 -65.5 26
t-26.5 64q0 41 29.5 70t71.5 29q39 0 66 -26t27 -64q0 -41 -29.5 -70t-72.5 -29z" />
    <glyph glyph-name="Amacron" unicode="&#x100;" horiz-adv-x="824" 
d="M484 506l-146 -229h178zM635 701l115 -701h-202l-16 120h-288l-76 -120h-222l464 701h225zM741 780h-425l30 119h424z" />
    <glyph glyph-name="amacron" unicode="&#x101;" horiz-adv-x="575" 
d="M163 151q0 -19 14 -30t39 -11q47 0 100 27l21 81q-8 1 -32 1q-68 0 -105 -18t-37 -50zM528 235l-58 -223l-185 -19l19 68q-93 -70 -175 -70q-61 0 -97 33.5t-36 91.5q0 83 79.5 131.5t217.5 48.5q4 0 61 -3q1 4 1 17q0 71 -84 71q-83 0 -191 -59l-2 2l53 161
q93 43 197 43q101 0 158 -50.5t57 -138.5q0 -40 -15 -104zM571 610h-401l28 113h401z" />
    <glyph glyph-name="Abreve" unicode="&#x102;" horiz-adv-x="824" 
d="M484 506l-146 -229h178zM635 701l115 -701h-202l-16 120h-288l-76 -120h-222l464 701h225zM534 754q-140 0 -197 131l71 59q52 -66 140 -66q83 0 167 66l66 -59q-100 -131 -247 -131z" />
    <glyph glyph-name="abreve" unicode="&#x103;" horiz-adv-x="575" 
d="M163 151q0 -19 14 -30t39 -11q47 0 100 27l21 81q-8 1 -32 1q-68 0 -105 -18t-37 -50zM528 235l-58 -223l-185 -19l19 68q-93 -70 -175 -70q-61 0 -97 33.5t-36 91.5q0 83 79.5 131.5t217.5 48.5q4 0 61 -3q1 4 1 17q0 71 -84 71q-83 0 -191 -59l-2 2l53 161
q93 43 197 43q101 0 158 -50.5t57 -138.5q0 -40 -15 -104zM388 710q81 0 166 78l61 -63q-97 -142 -236 -142q-64 0 -113.5 37.5t-74.5 104.5l66 63q53 -78 131 -78z" />
    <glyph glyph-name="Aogonek" unicode="&#x104;" horiz-adv-x="824" 
d="M484 506l-146 -229h178zM720 -134h15l-40 -61q-41 -10 -86 -10q-56 0 -88 19.5t-32 53.5q0 49 81 108l34 24h-56l-16 120h-288l-76 -120h-222l464 701h225l115 -701h-38l-30 -35q-39 -43 -39 -65q0 -34 77 -34z" />
    <glyph glyph-name="aogonek" unicode="&#x105;" horiz-adv-x="575" 
d="M338 -198q-56 0 -88 19.5t-32 53.5q0 49 81 108l19 13l-33 -3l19 68q-93 -70 -175 -70q-61 0 -97 33.5t-36 91.5q0 83 79.5 131.5t217.5 48.5q4 0 61 -3q1 4 1 17q0 71 -84 71q-83 0 -191 -59l-2 2l53 161q93 43 197 43q101 0 158 -50.5t57 -138.5q0 -40 -15 -104
l-58 -223l-27 -3l-32 -37q-39 -43 -39 -65q0 -34 77 -34h15l-40 -61q-41 -10 -86 -10zM163 151q0 -19 14 -30t39 -11q47 0 100 27l21 81q-8 1 -32 1q-68 0 -105 -18t-37 -50z" />
    <glyph glyph-name="Cacute" unicode="&#x106;" horiz-adv-x="684" 
d="M372 -11q-146 0 -230 84q-84 83 -84 228q0 176 118 293t295 117q147 0 247 -87l-43 -198l-2 -1q-92 101 -200 101q-86 0 -147 -59q-61 -60 -61 -147q0 -66 43.5 -106t116.5 -40q99 0 221 84l3 -2l-87 -224q-88 -43 -190 -43zM774 934v-2l-248 -166h-114l120 168h242z" />
    <glyph glyph-name="cacute" unicode="&#x107;" horiz-adv-x="510" 
d="M464 204l2 -2l-70 -185q-59 -28 -138 -28q-106 0 -168 61q-64 61 -64 162q0 140 90 228q91 89 228 89q95 0 174 -50l-37 -171h-2q-66 54 -136 54q-55 0 -93 -35q-38 -36 -38 -88q0 -40 25.5 -61.5t71.5 -21.5q77 0 155 48zM643 791v-2l-258 -192h-92l133 194h217z" />
    <glyph glyph-name="Ccircumflex" unicode="&#x108;" horiz-adv-x="684" 
d="M372 -11q-146 0 -230 84q-84 83 -84 228q0 176 118 293t295 117q147 0 247 -87l-43 -198l-2 -1q-92 101 -200 101q-86 0 -147 -59q-61 -60 -61 -147q0 -66 43.5 -106t116.5 -40q99 0 221 84l3 -2l-87 -224q-88 -43 -190 -43zM602 934l93 -168h-101l-95 66l-128 -66h-116
v2l174 166h173z" />
    <glyph glyph-name="ccircumflex" unicode="&#x109;" horiz-adv-x="510" 
d="M464 204l2 -2l-70 -185q-59 -28 -138 -28q-106 0 -168 61q-64 61 -64 162q0 140 90 228q91 89 228 89q95 0 174 -50l-37 -171h-2q-66 54 -136 54q-55 0 -93 -35q-38 -36 -38 -88q0 -40 25.5 -61.5t71.5 -21.5q77 0 155 48zM471 791l82 -194h-92l-89 78l-131 -78h-105v2
l177 192h158z" />
    <glyph glyph-name="Cdotaccent" unicode="&#x10a;" horiz-adv-x="684" 
d="M372 -11q-146 0 -230 84q-84 83 -84 228q0 176 118 293t295 117q147 0 247 -87l-43 -198l-2 -1q-92 101 -200 101q-86 0 -147 -59q-61 -60 -61 -147q0 -66 43.5 -106t116.5 -40q99 0 221 84l3 -2l-87 -224q-88 -43 -190 -43zM496 949q40 0 67.5 -26t27.5 -65
q0 -41 -29 -70t-71 -29q-41 0 -68 26t-27 65q0 41 29 70t71 29z" />
    <glyph glyph-name="cdotaccent" unicode="&#x10b;" horiz-adv-x="510" 
d="M464 204l2 -2l-70 -185q-59 -28 -138 -28q-106 0 -168 61q-64 61 -64 162q0 140 90 228q91 89 228 89q95 0 174 -50l-37 -171h-2q-66 54 -136 54q-55 0 -93 -35q-38 -36 -38 -88q0 -40 25.5 -61.5t71.5 -21.5q77 0 155 48zM362 588q-39 0 -65 25t-26 64q0 40 28 67.5
t69 27.5q39 0 65 -25.5t26 -63.5q0 -40 -28.5 -67.5t-68.5 -27.5z" />
    <glyph glyph-name="Ccaron" unicode="&#x10c;" horiz-adv-x="684" 
d="M372 -11q-146 0 -230 84q-84 83 -84 228q0 176 118 293t295 117q147 0 247 -87l-43 -198l-2 -1q-92 101 -200 101q-86 0 -147 -59q-61 -60 -61 -147q0 -66 43.5 -106t116.5 -40q99 0 221 84l3 -2l-87 -224q-88 -43 -190 -43zM736 933v-2l-174 -166h-173l-93 168h101
l95 -66l128 66h116z" />
    <glyph glyph-name="ccaron" unicode="&#x10d;" horiz-adv-x="510" 
d="M464 204l2 -2l-70 -185q-59 -28 -138 -28q-106 0 -168 61q-64 61 -64 162q0 140 90 228q91 89 228 89q95 0 174 -50l-37 -171h-2q-66 54 -136 54q-55 0 -93 -35q-38 -36 -38 -88q0 -40 25.5 -61.5t71.5 -21.5q77 0 155 48zM601 791v-2l-178 -192h-157l-82 194h92l89 -79
l131 79h105z" />
    <glyph glyph-name="Dcaron" unicode="&#x10e;" horiz-adv-x="773" 
d="M557 387q0 67 -45.5 103t-131.5 36h-46l-88 -352h46q116 0 191 60q74 59 74 153zM259 0h-259l174 700h236q167 0 260 -78t93 -219q0 -185 -136 -294t-368 -109zM752 928v-2l-174 -166h-173l-93 168h101l95 -66l128 66h116z" />
    <glyph glyph-name="dcaron" unicode="&#x10f;" horiz-adv-x="642" 
d="M206 228q0 -39 21.5 -61.5t60.5 -22.5q40 0 86 24l47 190q-33 14 -70 14q-62 0 -103 -41q-42 -41 -42 -103zM710 757l-188 -757h-183l20 78q-81 -87 -171 -87q-74 0 -118 55t-44 148q0 147 92 239t226 92q59 0 114 -20l51 206zM769 551h-71v2q52 68 52 146q0 29 -4 46
h136q-6 -115 -113 -194z" />
    <glyph glyph-name="Dcroat" unicode="&#x110;" horiz-adv-x="800" 
d="M329 415h109l-31 -125h-109l-29 -116h53q113 0 187 61q75 60 75 151q0 68 -45 104t-130 36h-52zM302 0h-275l71 284h-75l34 138h75l69 278h242q162 0 255 -78q92 -78 92 -214q0 -183 -134 -296q-133 -112 -354 -112z" />
    <glyph glyph-name="dslash" unicode="&#x111;" horiz-adv-x="645" 
d="M205 225q0 -39 22 -61t61 -22q42 0 85 24l46 182q-35 13 -70 13q-62 0 -103 -39t-41 -97zM662 565l-140 -565h-183l19 77q-77 -86 -168 -86q-72 0 -119 57q-46 55 -46 147q0 139 89 228t226 89q58 0 115 -20l18 73h-113l23 90h112l14 56l201 46l-25 -102h59l-23 -90h-59z
" />
    <glyph glyph-name="Emacron" unicode="&#x112;" horiz-adv-x="602" 
d="M548 169l-72 -169h-476l174 700h487l-42 -169h-288l-27 -107h242l-36 -145h-242l-27 -110h307zM636 780h-425l30 119h424z" />
    <glyph glyph-name="emacron" unicode="&#x113;" horiz-adv-x="574" 
d="M395 330q0 35 -17.5 55t-47.5 20q-34 0 -65 -26t-47 -67h176q1 4 1 18zM492 165l2 -1l-33 -134q-87 -40 -195 -40q-110 0 -175 61t-65 165q0 134 93 225q91 91 227 91q97 0 154 -54t57 -146q0 -59 -19 -116h-343q12 -87 122 -87q85 0 175 36zM572 615h-401l28 113h401z
" />
    <glyph glyph-name="Ebreve" unicode="&#x114;" horiz-adv-x="602" 
d="M548 169l-72 -169h-476l174 700h487l-42 -169h-288l-27 -107h242l-36 -145h-242l-27 -110h307zM429 754q-140 0 -197 131l71 59q52 -66 140 -66q83 0 167 66l66 -59q-100 -131 -247 -131z" />
    <glyph glyph-name="ebreve" unicode="&#x115;" horiz-adv-x="574" 
d="M395 330q0 35 -17.5 55t-47.5 20q-34 0 -65 -26t-47 -67h176q1 4 1 18zM492 165l2 -1l-33 -134q-87 -40 -195 -40q-110 0 -175 61t-65 165q0 134 93 225q91 91 227 91q97 0 154 -54t57 -146q0 -59 -19 -116h-343q12 -87 122 -87q85 0 175 36zM389 715q81 0 166 78l61 -63
q-97 -142 -236 -142q-64 0 -113.5 37.5t-74.5 104.5l66 63q52 -78 131 -78z" />
    <glyph glyph-name="Edotaccent" unicode="&#x116;" horiz-adv-x="602" 
d="M548 169l-72 -169h-476l174 700h487l-42 -169h-288l-27 -107h242l-36 -145h-242l-27 -110h307zM444 944q40 0 67.5 -26t27.5 -65q0 -41 -29 -70t-71 -29q-41 0 -68 26t-27 65q0 41 29 70t71 29z" />
    <glyph glyph-name="edotaccent" unicode="&#x117;" horiz-adv-x="574" 
d="M395 330q0 35 -17.5 55t-47.5 20q-34 0 -65 -26t-47 -67h176q1 4 1 18zM492 165l2 -1l-33 -134q-87 -40 -195 -40q-110 0 -175 61t-65 165q0 134 93 225q91 91 227 91q97 0 154 -54t57 -146q0 -59 -19 -116h-343q12 -87 122 -87q85 0 175 36zM388 588q-39 0 -65 25
t-26 64q0 40 28 67.5t69 27.5q39 0 65 -25.5t26 -63.5q0 -40 -28.5 -67.5t-68.5 -27.5z" />
    <glyph glyph-name="Eogonek" unicode="&#x118;" horiz-adv-x="602" 
d="M447 -134h15l-40 -61q-41 -10 -86 -10q-56 0 -88 19.5t-32 53.5q0 49 81 108l34 24h-331l174 700h487l-42 -169h-288l-27 -107h242l-36 -145h-242l-27 -110h307l-72 -169h-37l-30 -35q-39 -43 -39 -65q0 -34 77 -34z" />
    <glyph glyph-name="eogonek" unicode="&#x119;" horiz-adv-x="574" 
d="M384 -134h15l-39 -61q-44 -10 -86 -10q-56 0 -88 19.5t-32 53.5q0 55 94 102l41 20h-23q-110 0 -175 61t-65 165q0 134 93 225q91 91 227 91q97 0 154 -54t57 -146q0 -59 -19 -116h-343q12 -87 122 -87q85 0 175 36l2 -1l-33 -134l-102 -71q-52 -37 -52 -59q0 -34 77 -34
zM395 330q0 35 -17.5 55t-47.5 20q-34 0 -65 -26t-47 -67h176q1 4 1 18z" />
    <glyph glyph-name="Ecaron" unicode="&#x11a;" horiz-adv-x="602" 
d="M548 169l-72 -169h-476l174 700h487l-42 -169h-288l-27 -107h242l-36 -145h-242l-27 -110h307zM684 928v-2l-174 -166h-173l-93 168h101l95 -66l128 66h116z" />
    <glyph glyph-name="ecaron" unicode="&#x11b;" horiz-adv-x="574" 
d="M395 330q0 35 -17.5 55t-47.5 20q-34 0 -65 -26t-47 -67h176q1 4 1 18zM492 165l2 -1l-33 -134q-87 -40 -195 -40q-110 0 -175 61t-65 165q0 134 93 225q91 91 227 91q97 0 154 -54t57 -146q0 -59 -19 -116h-343q12 -87 122 -87q85 0 175 36zM627 791v-2l-178 -192h-157
l-82 194h92l89 -79l131 79h105z" />
    <glyph glyph-name="Gcircumflex" unicode="&#x11c;" horiz-adv-x="764" 
d="M421 395h314l-91 -354q-122 -51 -257 -51q-149 0 -240 83q-90 83 -90 221q0 186 129 302q128 115 339 115q139 0 257 -58l-47 -179q-109 56 -223 56q-106 0 -177 -62q-70 -63 -70 -159q0 -70 43.5 -109t123.5 -39q32 0 63 6l25 98h-131zM631 934l93 -168h-101l-95 66
l-128 -66h-116v2l174 166h173z" />
    <glyph glyph-name="gcircumflex" unicode="&#x11d;" horiz-adv-x="642" 
d="M210 245q0 -35 20 -54t57 -19q47 0 99 29l40 161q-32 11 -70 11q-63 0 -104 -37q-42 -38 -42 -91zM207 -193q-112 0 -202 46l-19 166l3 2q100 -65 202 -65q126 0 162 107l13 40q-75 -68 -164 -68q-77 0 -124.5 51t-47.5 135q0 134 91 219t234 85q86 0 157 -29l128 27
l12 -3l-120 -481q-59 -232 -325 -232zM517 786l82 -194h-92l-89 78l-131 -78h-105v2l177 192h158z" />
    <glyph glyph-name="Gbreve" unicode="&#x11e;" horiz-adv-x="764" 
d="M421 395h314l-91 -354q-122 -51 -257 -51q-149 0 -240 83q-90 83 -90 221q0 186 129 302q128 115 339 115q139 0 257 -58l-47 -179q-109 56 -223 56q-106 0 -177 -62q-70 -63 -70 -159q0 -70 43.5 -109t123.5 -39q32 0 63 6l25 98h-131zM510 759q-140 0 -197 131l71 59
q53 -66 140 -66q83 0 167 66l66 -59q-100 -131 -247 -131z" />
    <glyph glyph-name="gbreve" unicode="&#x11f;" horiz-adv-x="642" 
d="M210 245q0 -35 20 -54t57 -19q47 0 99 29l40 161q-32 11 -70 11q-63 0 -104 -37q-42 -38 -42 -91zM207 -193q-112 0 -202 46l-19 166l3 2q100 -65 202 -65q126 0 162 107l13 40q-75 -68 -164 -68q-77 0 -124.5 51t-47.5 135q0 134 91 219t234 85q86 0 157 -29l128 27
l12 -3l-120 -481q-59 -232 -325 -232zM409 710q81 0 166 78l61 -63q-97 -142 -236 -142q-64 0 -113.5 37.5t-74.5 104.5l66 63q52 -78 131 -78z" />
    <glyph glyph-name="Gdotaccent" unicode="&#x120;" horiz-adv-x="764" 
d="M421 395h314l-91 -354q-122 -51 -257 -51q-149 0 -240 83q-90 83 -90 221q0 186 129 302q128 115 339 115q139 0 257 -58l-47 -179q-109 56 -223 56q-106 0 -177 -62q-70 -63 -70 -159q0 -70 43.5 -109t123.5 -39q32 0 63 6l25 98h-131zM525 949q40 0 67.5 -26t27.5 -65
q0 -41 -29 -70t-71 -29q-41 0 -68 26t-27 65q0 41 29 70t71 29z" />
    <glyph glyph-name="gdotaccent" unicode="&#x121;" horiz-adv-x="642" 
d="M210 245q0 -35 20 -54t57 -19q47 0 99 29l40 161q-32 11 -70 11q-63 0 -104 -37q-42 -38 -42 -91zM207 -193q-112 0 -202 46l-19 166l3 2q100 -65 202 -65q126 0 162 107l13 40q-75 -68 -164 -68q-77 0 -124.5 51t-47.5 135q0 134 91 219t234 85q86 0 157 -29l128 27
l12 -3l-120 -481q-59 -232 -325 -232zM408 583q-39 0 -65 25t-26 64q0 40 28 67.5t69 27.5q39 0 65 -25.5t26 -63.5q0 -40 -28.5 -67.5t-68.5 -27.5z" />
    <glyph glyph-name="uni0122" unicode="&#x122;" horiz-adv-x="764" 
d="M421 395h314l-91 -354q-122 -51 -257 -51q-149 0 -240 83q-90 83 -90 221q0 186 129 302q128 115 339 115q139 0 257 -58l-47 -179q-109 56 -223 56q-106 0 -177 -62q-70 -63 -70 -159q0 -70 43.5 -109t123.5 -39q32 0 63 6l25 98h-131zM207 -112v4l184 49q68 -32 68 -79
q0 -77 -189 -137l-95 34v5q54 22 76.5 38t22.5 33q0 15 -15 27t-52 26z" />
    <glyph glyph-name="uni0123" unicode="&#x123;" horiz-adv-x="642" 
d="M210 245q0 -35 20 -54t57 -19q47 0 99 29l40 161q-32 11 -70 11q-63 0 -104 -37q-42 -38 -42 -91zM207 -193q-112 0 -202 46l-19 166l3 2q100 -65 202 -65q126 0 162 107l13 40q-75 -68 -164 -68q-77 0 -124.5 51t-47.5 135q0 134 91 219t234 85q86 0 157 -29l128 27
l12 -3l-120 -481q-59 -232 -325 -232zM534 637v-5l-191 -49q-62 35 -62 78q0 83 192 143l93 -34v-4q-55 -24 -78 -41.5t-23 -35.5q0 -14 15.5 -26t53.5 -26z" />
    <glyph glyph-name="Hcircumflex" unicode="&#x124;" horiz-adv-x="802" 
d="M846 700l-174 -700h-202l65 261h-268l-65 -261h-202l174 700h202l-63 -254h268l63 254h202zM646 929l93 -168h-101l-95 66l-128 -66h-116v2l174 166h173z" />
    <glyph glyph-name="hcircumflex" unicode="&#x125;" horiz-adv-x="633" 
d="M404 311q0 26 -14.5 40.5t-39.5 14.5q-40 0 -86 -29l-84 -337h-190l177 711l201 46l-77 -312q79 85 166 85q66 0 106 -42.5t40 -112.5q0 -39 -18 -113l-65 -262h-190l69 276q5 20 5 35zM411 984l82 -194h-92l-89 78l-131 -78h-105v2l177 192h158z" />
    <glyph glyph-name="Hbar" unicode="&#x126;" horiz-adv-x="855" 
d="M357 515l-24 -98h269l24 98h-269zM826 511l-127 -511h-201l60 243h-269l-60 -243h-202l127 511h-77l28 110h76l20 79h202l-20 -82h269l20 82h201l-20 -79h77l-28 -110h-76z" />
    <glyph glyph-name="hbar" unicode="&#x127;" horiz-adv-x="637" 
d="M406 300q0 26 -14.5 40t-39.5 14q-39 0 -87 -29l-81 -325h-189l141 565h-59l22 90h59l14 56l201 46l-25 -102h116l-22 -90h-117l-33 -131q79 85 167 85q65 0 105.5 -42.5t40.5 -112.5q0 -36 -18 -113l-63 -251h-189l66 265q5 16 5 35z" />
    <glyph glyph-name="Itilde" unicode="&#x128;" horiz-adv-x="338" 
d="M379 700l-174 -700h-202l174 700h202zM336 906q54 -23 74 -23q17 0 32.5 10.5t45.5 42.5l66 -53q-48 -70 -82.5 -99t-71.5 -29q-31 0 -99 29q-54 23 -75 23q-16 0 -32 -10.5t-46 -42.5l-66 53q48 71 83 99.5t71 28.5q32 0 100 -29z" />
    <glyph glyph-name="itilde" unicode="&#x129;" horiz-adv-x="305" 
d="M312 518l-129 -518h-190l129 518h190zM267 748q54 -29 75 -29q14 0 30 11q11 8 52 52l67 -49q-57 -89 -90 -119q-32 -29 -67 -29q-30 0 -88 32q-55 28 -75 28q-16 0 -32 -11.5t-50 -50.5l-67 49q57 89 91 120q31 28 66 28q25 0 88 -32z" />
    <glyph glyph-name="Imacron" unicode="&#x12a;" horiz-adv-x="338" 
d="M379 700l-174 -700h-202l174 700h202zM464 780h-345l30 119h344z" />
    <glyph glyph-name="imacron" unicode="&#x12b;" horiz-adv-x="305" 
d="M312 518l-129 -518h-190l129 518h190zM407 610h-344l28 113h344z" />
    <glyph glyph-name="Ibreve" unicode="&#x12c;" horiz-adv-x="338" 
d="M379 700l-174 -700h-202l174 700h202zM297 754q-140 0 -197 131l71 59q52 -66 140 -66q83 0 167 66l66 -59q-100 -131 -247 -131z" />
    <glyph glyph-name="ibreve" unicode="&#x12d;" horiz-adv-x="305" 
d="M312 518l-129 -518h-190l129 518h190zM252 710q81 0 166 78l61 -63q-97 -142 -236 -142q-64 0 -113.5 37.5t-74.5 104.5l66 63q53 -78 131 -78z" />
    <glyph glyph-name="Iogonek" unicode="&#x12e;" horiz-adv-x="338" 
d="M179 -134h15l-40 -61q-41 -10 -86 -10q-56 0 -88 19.5t-32 53.5q0 49 81 108l34 24h-60l174 700h202l-174 -700h-34l-30 -35q-39 -43 -39 -65q0 -34 77 -34z" />
    <glyph glyph-name="iogonek" unicode="&#x12f;" horiz-adv-x="305" 
d="M260 781q46 0 76 -27.5t30 -70.5q0 -46 -32.5 -76.5t-81.5 -30.5q-46 0 -76 27.5t-30 70.5q0 46 32.5 76.5t81.5 30.5zM162 -134h15l-40 -61q-41 -10 -86 -10q-56 0 -88 19.5t-32 53.5q0 49 81 108l34 24h-53l129 518h190l-129 -518h-29l-30 -35q-39 -43 -39 -65
q0 -34 77 -34z" />
    <glyph glyph-name="Idot" unicode="&#x130;" horiz-adv-x="338" 
d="M379 700l-174 -700h-202l174 700h202zM312 944q40 0 67.5 -26t27.5 -65q0 -41 -29 -70t-71 -29q-41 0 -68 26t-27 65q0 41 29 70t71 29z" />
    <glyph glyph-name="dotlessi" unicode="&#x131;" horiz-adv-x="305" 
d="M312 518l-129 -518h-190l129 518h190z" />
    <glyph glyph-name="Jcircumflex" unicode="&#x134;" horiz-adv-x="507" 
d="M139 172q83 0 106 86l110 442h202l-125 -504q-52 -205 -269 -205q-93 0 -156 49l2 187l3 1q62 -56 127 -56zM596 929l93 -168h-101l-95 66l-128 -66h-116v2l174 166h173z" />
    <glyph glyph-name="jcircumflex" unicode="&#x135;" horiz-adv-x="305" 
d="M-1 16l125 502h189l-127 -513q-26 -103 -80.5 -149t-151.5 -46q-38 0 -71 10l-23 122l3 3q15 -7 39 -7q41 0 64 18.5t33 59.5zM362 786l82 -194h-92l-89 78l-131 -78h-105v2l177 192h158z" />
    <glyph glyph-name="uni0136" unicode="&#x136;" horiz-adv-x="750" 
d="M681 1v-1h-235l-156 279h-19l-69 -279h-202l174 700h202l-66 -267h18l270 267h255v-2l-377 -356zM177 -110v4l184 49q68 -32 68 -79q0 -77 -189 -137l-95 34v5q54 22 76.5 38t22.5 33q0 15 -15 27t-52 26z" />
    <glyph glyph-name="uni0137" unicode="&#x137;" horiz-adv-x="608" 
d="M543 1v-1h-207l-88 204h-17l-51 -204h-190l176 711l202 46l-109 -439h18l167 200h222v-2l-239 -269zM110 -110v4l184 49q68 -32 68 -79q0 -77 -189 -137l-95 34v5q54 22 76.5 38t22.5 33q0 15 -15 27t-52 26z" />
    <glyph glyph-name="Lacute" unicode="&#x139;" horiz-adv-x="565" 
d="M516 181l-45 -181h-471l174 700h202l-129 -519h269zM587 929v-2l-248 -166h-114l120 168h242z" />
    <glyph glyph-name="lacute" unicode="&#x13a;" horiz-adv-x="305" 
d="M371 757l-188 -757h-190l177 711zM584 992v-2l-258 -192h-92l133 194h217z" />
    <glyph glyph-name="uni013B" unicode="&#x13b;" horiz-adv-x="565" 
d="M516 181l-45 -181h-471l174 700h202l-129 -519h269zM87 -110v4l184 49q68 -32 68 -79q0 -77 -189 -137l-95 34v5q54 22 76.5 38t22.5 33q0 15 -15 27t-52 26z" />
    <glyph glyph-name="uni013C" unicode="&#x13c;" horiz-adv-x="305" 
d="M371 757l-188 -757h-190l177 711zM-72 -110v4l184 49q68 -32 68 -79q0 -77 -189 -137l-95 34v5q54 22 76.5 38t22.5 33q0 15 -15 27t-52 26z" />
    <glyph glyph-name="Lcaron" unicode="&#x13d;" horiz-adv-x="565" 
d="M516 181l-45 -181h-471l174 700h202l-129 -519h269zM453 549h-71v2q52 68 52 146q0 29 -4 46h136q-6 -115 -113 -194z" />
    <glyph glyph-name="lcaron" unicode="&#x13e;" horiz-adv-x="305" 
d="M371 757l-188 -757h-190l177 711zM429 551h-71v2q52 68 52 146q0 29 -4 46h136q-6 -115 -113 -194z" />
    <glyph glyph-name="Lslash" unicode="&#x141;" horiz-adv-x="585" 
d="M536 181l-45 -181h-471l47 188l-96 -61l-3 1l46 184l98 60l82 328h202l-50 -203l162 103l2 -2l-45 -183l-165 -102l-33 -132h269z" />
    <glyph glyph-name="lslash" unicode="&#x142;" horiz-adv-x="358" 
d="M382 391l-88 -48l-85 -343h-189l59 237l-85 -48l-3 2l40 157l87 48l78 315l201 46l-63 -255l85 49l3 -2z" />
    <glyph glyph-name="Nacute" unicode="&#x143;" horiz-adv-x="817" 
d="M662 700h200l-174 -702h-150l-237 413l-100 -411h-201l174 700h198l203 -353zM823 929v-2l-248 -166h-114l120 168h242z" />
    <glyph glyph-name="nacute" unicode="&#x144;" horiz-adv-x="633" 
d="M404 311q0 26 -14.5 40.5t-39.5 14.5q-39 0 -87 -29l-83 -337h-190l126 505l187 19l-22 -89q83 95 176 95q66 0 106 -42.5t40 -112.5q0 -39 -18 -113l-65 -262h-190l69 276q5 20 5 35zM687 786v-2l-258 -192h-92l133 194h217z" />
    <glyph glyph-name="uni0145" unicode="&#x145;" horiz-adv-x="817" 
d="M662 700h200l-174 -702h-150l-237 413l-100 -411h-201l174 700h198l203 -353zM213 -110v4l184 49q68 -32 68 -79q0 -77 -189 -137l-95 34v5q54 22 76.5 38t22.5 33q0 15 -15 27t-52 26z" />
    <glyph glyph-name="uni0146" unicode="&#x146;" horiz-adv-x="633" 
d="M404 311q0 26 -14.5 40.5t-39.5 14.5q-39 0 -87 -29l-83 -337h-190l126 505l187 19l-22 -89q83 95 176 95q66 0 106 -42.5t40 -112.5q0 -39 -18 -113l-65 -262h-190l69 276q5 20 5 35zM111 -105v4l184 49q68 -32 68 -79q0 -77 -189 -137l-95 34v5q54 22 76.5 38t22.5 33
q0 15 -15 27t-52 26z" />
    <glyph glyph-name="Ncaron" unicode="&#x147;" horiz-adv-x="817" 
d="M662 700h200l-174 -702h-150l-237 413l-100 -411h-201l174 700h198l203 -353zM785 928v-2l-174 -166h-173l-93 168h101l95 -66l128 66h116z" />
    <glyph glyph-name="ncaron" unicode="&#x148;" horiz-adv-x="633" 
d="M404 311q0 26 -14.5 40.5t-39.5 14.5q-39 0 -87 -29l-83 -337h-190l126 505l187 19l-22 -89q83 95 176 95q66 0 106 -42.5t40 -112.5q0 -39 -18 -113l-65 -262h-190l69 276q5 20 5 35zM645 786v-2l-178 -192h-157l-82 194h92l89 -79l131 79h105z" />
    <glyph glyph-name="Eng" unicode="&#x14a;" horiz-adv-x="817" 
d="M434 -239q-64 0 -125 25l7 158l2 2q37 -20 76 -20q81 0 104 89l5 20l-203 374l-99 -409h-201l174 700h198l200 -368l90 368h200l-180 -725q-28 -110 -88.5 -162t-159.5 -52z" />
    <glyph glyph-name="eng" unicode="&#x14b;" horiz-adv-x="633" 
d="M319 -190q-49 0 -91 14l-7 118l2 2q24 -6 38 -6q53 0 69 63l69 275q5 20 5 35q0 26 -14.5 40.5t-39.5 14.5q-39 0 -87 -29l-83 -337h-190l126 505l187 19l-22 -89q83 95 176 95q66 0 106 -42.5t40 -112.5q0 -39 -18 -113l-74 -296q-37 -156 -192 -156z" />
    <glyph glyph-name="Omacron" unicode="&#x14c;" horiz-adv-x="821" 
d="M687 106q-120 -120 -296 -120q-148 0 -241 87t-93 226q0 176 122 295q120 120 296 120q148 0 241 -87t93 -226q0 -176 -122 -295zM264 315q0 -66 39.5 -106.5t103.5 -40.5q79 0 138 63q57 63 57 154q0 66 -39.5 106.5t-103.5 40.5q-80 0 -137 -63q-58 -62 -58 -154z
M728 785h-425l30 119h424z" />
    <glyph glyph-name="omacron" unicode="&#x14d;" horiz-adv-x="619" 
d="M591 293q0 -130 -89 -219q-89 -88 -221 -88q-112 0 -182 67q-71 66 -71 172q0 131 90 219q88 88 220 88q112 0 183 -66q70 -67 70 -173zM411 282q0 41 -23.5 66t-60.5 25q-49 0 -84 -39q-35 -41 -35 -98q0 -41 23 -65.5t61 -24.5q50 0 84.5 39t34.5 97zM579 615h-401
l28 113h401z" />
    <glyph glyph-name="Obreve" unicode="&#x14e;" horiz-adv-x="821" 
d="M687 106q-120 -120 -296 -120q-148 0 -241 87t-93 226q0 176 122 295q120 120 296 120q148 0 241 -87t93 -226q0 -176 -122 -295zM264 315q0 -66 39.5 -106.5t103.5 -40.5q79 0 138 63q57 63 57 154q0 66 -39.5 106.5t-103.5 40.5q-80 0 -137 -63q-58 -62 -58 -154z
M521 759q-140 0 -197 131l71 59q52 -66 140 -66q83 0 167 66l66 -59q-100 -131 -247 -131z" />
    <glyph glyph-name="obreve" unicode="&#x14f;" horiz-adv-x="619" 
d="M591 293q0 -130 -89 -219q-89 -88 -221 -88q-112 0 -182 67q-71 66 -71 172q0 131 90 219q88 88 220 88q112 0 183 -66q70 -67 70 -173zM411 282q0 41 -23.5 66t-60.5 25q-49 0 -84 -39q-35 -41 -35 -98q0 -41 23 -65.5t61 -24.5q50 0 84.5 39t34.5 97zM396 715
q81 0 166 78l61 -63q-97 -142 -236 -142q-64 0 -113.5 37.5t-74.5 104.5l66 63q53 -78 131 -78z" />
    <glyph glyph-name="Ohungarumlaut" unicode="&#x150;" horiz-adv-x="821" 
d="M687 106q-120 -120 -296 -120q-148 0 -241 87t-93 226q0 176 122 295q120 120 296 120q148 0 241 -87t93 -226q0 -176 -122 -295zM264 315q0 -66 39.5 -106.5t103.5 -40.5q79 0 138 63q57 63 57 154q0 66 -39.5 106.5t-103.5 40.5q-80 0 -137 -63q-58 -62 -58 -154z
M865 932l-208 -166h-105l102 161l-201 -161h-105l107 168h410v-2z" />
    <glyph glyph-name="ohungarumlaut" unicode="&#x151;" horiz-adv-x="619" 
d="M591 293q0 -130 -89 -219q-89 -88 -221 -88q-112 0 -182 67q-71 66 -71 172q0 131 90 219q88 88 220 88q112 0 183 -66q70 -67 70 -173zM411 282q0 41 -23.5 66t-60.5 25q-49 0 -84 -39q-35 -41 -35 -98q0 -41 23 -65.5t61 -24.5q50 0 84.5 39t34.5 97zM753 789
l-255 -192h-76l128 187l-248 -187h-76l133 194h394v-2z" />
    <glyph glyph-name="OE" unicode="&#x152;" horiz-adv-x="1022" 
d="M261 315q0 -71 44.5 -108.5t128.5 -37.5h28l90 362h-28q-110 0 -187 -62q-76 -63 -76 -154zM968 169l-72 -169h-495q-161 0 -253 78q-93 78 -93 214q0 183 134 296q133 112 354 112h538l-42 -169h-288l-27 -107h242l-36 -145h-242l-27 -110h307z" />
    <glyph glyph-name="oe" unicode="&#x153;" horiz-adv-x="961" 
d="M781 330q0 35 -17.5 55t-47.5 20q-34 0 -64.5 -26t-46.5 -67h175q1 4 1 18zM411 282q0 41 -23.5 66t-60.5 25q-49 0 -84 -39q-35 -41 -35 -98q0 -41 23 -65.5t61 -24.5q50 0 84.5 39t34.5 97zM653 -10q-112 0 -174 74q-81 -78 -198 -78q-112 0 -182 67q-71 66 -71 172
q0 131 90 219q88 88 220 88q118 0 186 -85q87 85 209 85q96 0 153 -54t57 -146q0 -64 -19 -116h-343q14 -87 122 -87q85 0 176 36l2 -1l-33 -134q-87 -40 -195 -40z" />
    <glyph glyph-name="Racute" unicode="&#x154;" horiz-adv-x="688" 
d="M474 475q0 32 -23 50t-64 18h-53l-42 -169h58q56 0 90 27.5t34 73.5zM483 262l162 -262h-223l-142 238h-18l-60 -238h-202l174 700h239q123 0 191.5 -53.5t68.5 -149.5q0 -80 -50.5 -142t-139.5 -93zM749 929v-2l-248 -166h-114l120 168h242z" />
    <glyph glyph-name="racute" unicode="&#x155;" horiz-adv-x="459" 
d="M416 329q-70 0 -168 -51l-68 -278h-190l126 505l187 19l-32 -131q57 72 99.5 102.5t85.5 30.5q20 0 39 -8l-36 -193q-17 4 -43 4zM622 786v-2l-258 -192h-92l133 194h217z" />
    <glyph glyph-name="uni0156" unicode="&#x156;" horiz-adv-x="688" 
d="M474 475q0 32 -23 50t-64 18h-53l-42 -169h58q56 0 90 27.5t34 73.5zM483 262l162 -262h-223l-142 238h-18l-60 -238h-202l174 700h239q123 0 191.5 -53.5t68.5 -149.5q0 -80 -50.5 -142t-139.5 -93zM159 -110v4l184 49q68 -32 68 -79q0 -77 -189 -137l-95 34v5
q54 22 76.5 38t22.5 33q0 15 -15 27t-52 26z" />
    <glyph glyph-name="uni0157" unicode="&#x157;" horiz-adv-x="459" 
d="M416 329q-70 0 -168 -51l-68 -278h-190l126 505l187 19l-32 -131q57 72 99.5 102.5t85.5 30.5q20 0 39 -8l-36 -193q-17 4 -43 4zM-73 -110v4l184 49q68 -32 68 -79q0 -77 -189 -137l-95 34v5q54 22 76.5 38t22.5 33q0 15 -15 27t-52 26z" />
    <glyph glyph-name="Rcaron" unicode="&#x158;" horiz-adv-x="688" 
d="M474 475q0 32 -23 50t-64 18h-53l-42 -169h58q56 0 90 27.5t34 73.5zM483 262l162 -262h-223l-142 238h-18l-60 -238h-202l174 700h239q123 0 191.5 -53.5t68.5 -149.5q0 -80 -50.5 -142t-139.5 -93zM711 928v-2l-174 -166h-173l-93 168h101l95 -66l128 66h116z" />
    <glyph glyph-name="rcaron" unicode="&#x159;" horiz-adv-x="459" 
d="M416 329q-70 0 -168 -51l-68 -278h-190l126 505l187 19l-32 -131q57 72 99.5 102.5t85.5 30.5q20 0 39 -8l-36 -193q-17 4 -43 4zM580 786v-2l-178 -192h-157l-82 194h92l89 -79l131 79h105z" />
    <glyph glyph-name="Sacute" unicode="&#x15a;" horiz-adv-x="582" 
d="M249 282q-82 46 -115 92.5t-33 114.5q0 99 75 161q74 62 193 62q128 0 232 -62l-27 -178l-2 -1q-111 79 -206 79q-31 0 -49 -12t-18 -32q0 -18 18 -34.5t74 -48.5q81 -44 114.5 -91t33.5 -115q0 -104 -74 -166q-75 -63 -200 -63q-65 0 -129 19.5t-110 53.5l-2 198l3 2
q56 -52 120 -81.5t121 -29.5q34 0 53.5 12.5t19.5 33.5t-18.5 38t-73.5 48zM701 934v-2l-248 -166h-114l120 168h242z" />
    <glyph glyph-name="sacute" unicode="&#x15b;" horiz-adv-x="508" 
d="M202 199q-75 31 -107 68t-32 92q0 77 61.5 123.5t164.5 46.5q115 0 204 -53l-19 -141l-3 -1q-96 67 -184 67q-49 0 -49 -27q0 -13 15.5 -23.5t60.5 -28.5q73 -30 106 -68t33 -92q0 -79 -62 -126t-165 -47q-123 0 -210 57l-5 153l3 2q44 -37 101 -59.5t105 -22.5
q58 0 58 28q0 13 -16.5 23.5t-59.5 28.5zM624 788v-2l-258 -192h-92l133 194h217z" />
    <glyph glyph-name="Scircumflex" unicode="&#x15c;" horiz-adv-x="582" 
d="M249 282q-82 46 -115 92.5t-33 114.5q0 99 75 161q74 62 193 62q128 0 232 -62l-27 -178l-2 -1q-111 79 -206 79q-31 0 -49 -12t-18 -32q0 -18 18 -34.5t74 -48.5q81 -44 114.5 -91t33.5 -115q0 -104 -74 -166q-75 -63 -200 -63q-65 0 -129 19.5t-110 53.5l-2 198l3 2
q56 -52 120 -81.5t121 -29.5q34 0 53.5 12.5t19.5 33.5t-18.5 38t-73.5 48zM529 934l93 -168h-101l-95 66l-128 -66h-116v2l174 166h173z" />
    <glyph glyph-name="scircumflex" unicode="&#x15d;" horiz-adv-x="508" 
d="M202 199q-75 31 -107 68t-32 92q0 77 61.5 123.5t164.5 46.5q115 0 204 -53l-19 -141l-3 -1q-96 67 -184 67q-49 0 -49 -27q0 -13 15.5 -23.5t60.5 -28.5q73 -30 106 -68t33 -92q0 -79 -62 -126t-165 -47q-123 0 -210 57l-5 153l3 2q44 -37 101 -59.5t105 -22.5
q58 0 58 28q0 13 -16.5 23.5t-59.5 28.5zM452 788l82 -194h-92l-89 78l-131 -78h-105v2l177 192h158z" />
    <glyph glyph-name="uni015E" unicode="&#x15e;" horiz-adv-x="582" 
d="M378 -129q0 -45 -48.5 -73t-129.5 -28q-52 0 -101 11l-26 69l3 4q52 -16 102 -16q66 0 66 31q0 26 -50 26q-21 0 -49 -4l-3 4l65 97q-106 14 -181 69l-2 198l3 2q56 -52 120 -81.5t121 -29.5q34 0 53.5 12.5t19.5 33.5t-18.5 38t-73.5 48q-82 46 -115 92.5t-33 114.5
q0 99 75 161q74 62 193 62q128 0 232 -62l-27 -178l-2 -1q-111 79 -206 79q-31 0 -49 -12t-18 -32q0 -18 18 -34.5t74 -48.5q81 -44 114.5 -91t33.5 -115q0 -95 -63.5 -156t-171.5 -71l-27 -40q46 -2 73.5 -23.5t27.5 -55.5z" />
    <glyph glyph-name="uni015F" unicode="&#x15f;" horiz-adv-x="508" 
d="M329 -126q0 -45 -48.5 -73t-129.5 -28q-52 0 -101 11l-26 69l3 4q52 -16 102 -16q66 0 66 31q0 26 -50 26q-21 0 -49 -4l-3 4l65 96q-83 12 -142 52l-5 153l3 2q44 -37 101 -59.5t105 -22.5q58 0 58 28q0 13 -16.5 23.5t-59.5 28.5q-75 31 -107 68t-32 92
q0 77 61.5 123.5t164.5 46.5q115 0 204 -53l-19 -141l-3 -1q-96 67 -184 67q-49 0 -49 -27q0 -13 15.5 -23.5t60.5 -28.5q73 -30 106 -68t33 -92q0 -73 -54 -119.5t-146 -52.5l-25 -37q46 -2 73.5 -23.5t27.5 -55.5z" />
    <glyph glyph-name="Scaron" unicode="&#x160;" horiz-adv-x="582" 
d="M249 282q-82 46 -115 92.5t-33 114.5q0 99 75 161q74 62 193 62q128 0 232 -62l-27 -178l-2 -1q-111 79 -206 79q-31 0 -49 -12t-18 -32q0 -18 18 -34.5t74 -48.5q81 -44 114.5 -91t33.5 -115q0 -104 -74 -166q-75 -63 -200 -63q-65 0 -129 19.5t-110 53.5l-2 198l3 2
q56 -52 120 -81.5t121 -29.5q34 0 53.5 12.5t19.5 33.5t-18.5 38t-73.5 48zM663 933v-2l-174 -166h-173l-93 168h101l95 -66l128 66h116z" />
    <glyph glyph-name="scaron" unicode="&#x161;" horiz-adv-x="508" 
d="M202 199q-75 31 -107 68t-32 92q0 77 61.5 123.5t164.5 46.5q115 0 204 -53l-19 -141l-3 -1q-96 67 -184 67q-49 0 -49 -27q0 -13 15.5 -23.5t60.5 -28.5q73 -30 106 -68t33 -92q0 -79 -62 -126t-165 -47q-123 0 -210 57l-5 153l3 2q44 -37 101 -59.5t105 -22.5
q58 0 58 28q0 13 -16.5 23.5t-59.5 28.5zM582 788v-2l-178 -192h-157l-82 194h92l89 -79l131 79h105z" />
    <glyph glyph-name="uni0162" unicode="&#x162;" horiz-adv-x="726" 
d="M428 -124q0 -45 -48.5 -73t-129.5 -28q-52 0 -101 11l-26 69l3 4q52 -16 102 -16q66 0 66 31q0 26 -50 26q-21 0 -49 -4l-3 4l68 100h-61l129 519h-233l45 181h666l-45 -181h-231l-129 -519h-43l-31 -45q46 -2 73.5 -23.5t27.5 -55.5z" />
    <glyph glyph-name="uni0163" unicode="&#x163;" horiz-adv-x="481" 
d="M349 -124q0 -45 -48.5 -73t-129.5 -28q-52 0 -101 11l-26 69l3 4q52 -16 102 -16q66 0 66 31q0 26 -50 26q-21 0 -49 -4l-3 4l68 101q-52 18 -80.5 59t-28.5 99q0 40 14 88l38 128h-73l36 143h79l31 106l199 40l-43 -146h158l-36 -143h-164l-39 -134q-6 -23 -6 -37
q0 -27 17.5 -42.5t47.5 -15.5q53 0 102 35l3 -2l-54 -165q-43 -20 -111 -25l-23 -34q46 -2 73.5 -23.5t27.5 -55.5z" />
    <glyph glyph-name="Tcaron" unicode="&#x164;" horiz-adv-x="726" 
d="M140 700h666l-45 -181h-231l-129 -519h-202l129 519h-233zM748 928v-2l-174 -166h-173l-93 168h101l95 -66l128 66h116z" />
    <glyph glyph-name="tcaron" unicode="&#x165;" horiz-adv-x="481" 
d="M433 181l3 -2l-54 -165q-56 -25 -124 -25q-86 0 -136 46t-50 124q0 40 14 88l38 128h-73l36 143h79l31 106l199 40l-43 -146h158l-36 -143h-164l-39 -134q-6 -23 -6 -37q0 -27 17.5 -42.5t47.5 -15.5q53 0 102 35zM479 563h-71v2q52 68 52 146q0 29 -4 46h136
q-6 -115 -113 -194z" />
    <glyph glyph-name="Tbar" unicode="&#x166;" horiz-adv-x="726" 
d="M492 366h141l-34 -132h-140l-58 -234h-202l58 234h-140l34 132h139l38 153h-233l45 181h666l-45 -181h-231z" />
    <glyph glyph-name="tbar" unicode="&#x167;" horiz-adv-x="481" 
d="M429 169l3 -2l-50 -153q-56 -25 -124 -25q-86 0 -136 46t-50 124q0 30 8 67h-65l22 90h69l21 69h-73l33 133h79l31 106l199 40l-43 -146h158l-33 -133h-163l-21 -69h114l-22 -90h-118q-5 -19 -5 -34q0 -27 17 -42t47 -15q53 0 102 34z" />
    <glyph glyph-name="Utilde" unicode="&#x168;" horiz-adv-x="780" 
d="M66 243q0 47 17 114l86 343h202l-93 -373q-8 -37 -8 -55q0 -50 28.5 -78t79.5 -28q57 0 99 38t59 107l96 389h199l-105 -421q-72 -291 -373 -291q-133 0 -210 69q-77 68 -77 186zM557 906q54 -23 74 -23q17 0 32.5 10.5t45.5 42.5l66 -53q-48 -70 -82.5 -99t-71.5 -29
q-31 0 -99 29q-54 23 -75 23q-16 0 -32 -10.5t-46 -42.5l-66 53q48 71 83 99.5t71 28.5q32 0 100 -29z" />
    <glyph glyph-name="utilde" unicode="&#x169;" horiz-adv-x="633" 
d="M643 518l-129 -518h-183l21 83q-83 -95 -176 -95q-66 0 -106 42.5t-40 112.5q0 39 18 113l66 262h189l-69 -276q-5 -16 -5 -35q0 -54 55 -54q38 0 86 29l83 336h190zM422 748q54 -29 75 -29q14 0 30 11q11 8 52 52l67 -49q-57 -89 -90 -119q-32 -29 -67 -29q-30 0 -88 32
q-55 28 -75 28q-16 0 -32 -11.5t-50 -50.5l-67 49q57 89 91 120q31 28 66 28q25 0 88 -32z" />
    <glyph glyph-name="Umacron" unicode="&#x16a;" horiz-adv-x="780" 
d="M66 243q0 47 17 114l86 343h202l-93 -373q-8 -37 -8 -55q0 -50 28.5 -78t79.5 -28q57 0 99 38t59 107l96 389h199l-105 -421q-72 -291 -373 -291q-133 0 -210 69q-77 68 -77 186zM725 780h-425l30 119h424z" />
    <glyph glyph-name="umacron" unicode="&#x16b;" horiz-adv-x="633" 
d="M643 518l-129 -518h-183l21 83q-83 -95 -176 -95q-66 0 -106 42.5t-40 112.5q0 39 18 113l66 262h189l-69 -276q-5 -16 -5 -35q0 -54 55 -54q38 0 86 29l83 336h190zM590 610h-401l28 113h401z" />
    <glyph glyph-name="Ubreve" unicode="&#x16c;" horiz-adv-x="780" 
d="M66 243q0 47 17 114l86 343h202l-93 -373q-8 -37 -8 -55q0 -50 28.5 -78t79.5 -28q57 0 99 38t59 107l96 389h199l-105 -421q-72 -291 -373 -291q-133 0 -210 69q-77 68 -77 186zM518 754q-140 0 -197 131l71 59q52 -66 140 -66q83 0 167 66l66 -59q-100 -131 -247 -131z
" />
    <glyph glyph-name="ubreve" unicode="&#x16d;" horiz-adv-x="633" 
d="M643 518l-129 -518h-183l21 83q-83 -95 -176 -95q-66 0 -106 42.5t-40 112.5q0 39 18 113l66 262h189l-69 -276q-5 -16 -5 -35q0 -54 55 -54q38 0 86 29l83 336h190zM407 710q81 0 166 78l61 -63q-97 -142 -236 -142q-64 0 -113.5 37.5t-74.5 104.5l66 63q53 -78 131 -78
z" />
    <glyph glyph-name="Uring" unicode="&#x16e;" horiz-adv-x="780" 
d="M66 243q0 47 17 114l86 343h202l-93 -373q-8 -37 -8 -55q0 -50 28.5 -78t79.5 -28q57 0 99 38t59 107l96 389h199l-105 -421q-72 -291 -373 -291q-133 0 -210 69q-77 68 -77 186zM397 879q0 57 44 98t105 41q59 0 98 -36t39 -90q0 -56 -44 -97t-105 -41q-59 0 -98 35.5
t-39 89.5zM464 881q0 -28 20.5 -46.5t51.5 -18.5q34 0 57 21.5t23 52.5q0 28 -20.5 47t-51.5 19q-34 0 -57 -21.5t-23 -53.5z" />
    <glyph glyph-name="uring" unicode="&#x16f;" horiz-adv-x="633" 
d="M643 518l-129 -518h-183l21 83q-83 -95 -176 -95q-66 0 -106 42.5t-40 112.5q0 39 18 113l66 262h189l-69 -276q-5 -16 -5 -35q0 -54 55 -54q38 0 86 29l83 336h190zM550 724q0 -58 -41 -101q-42 -42 -100 -42q-55 0 -92 37t-37 91q0 59 42 101q40 42 99 42
q55 0 92 -36.5t37 -91.5zM347 711q0 -30 18 -49t46 -19q30 0 51 23t21 56q0 30 -18 49t-46 19q-30 0 -51 -23t-21 -56z" />
    <glyph glyph-name="Uhungarumlaut" unicode="&#x170;" horiz-adv-x="780" 
d="M66 243q0 47 17 114l86 343h202l-93 -373q-8 -37 -8 -55q0 -50 28.5 -78t79.5 -28q57 0 99 38t59 107l96 389h199l-105 -421q-72 -291 -373 -291q-133 0 -210 69q-77 68 -77 186zM862 927l-208 -166h-105l102 161l-201 -161h-105l107 168h410v-2z" />
    <glyph glyph-name="uhungarumlaut" unicode="&#x171;" horiz-adv-x="633" 
d="M643 518l-129 -518h-183l21 83q-83 -95 -176 -95q-66 0 -106 42.5t-40 112.5q0 39 18 113l66 262h189l-69 -276q-5 -16 -5 -35q0 -54 55 -54q38 0 86 29l83 336h190zM764 784l-255 -192h-76l128 187l-248 -187h-76l133 194h394v-2z" />
    <glyph glyph-name="Uogonek" unicode="&#x172;" horiz-adv-x="780" 
d="M305 -210q-56 0 -88 19.5t-32 53.5q0 49 81 108l29 21q-108 14 -168.5 80.5t-60.5 170.5q0 47 17 114l86 343h202l-93 -373q-8 -37 -8 -55q0 -50 28.5 -78t79.5 -28q57 0 99 38t59 107l96 389h199l-105 -421q-66 -267 -322 -289l-26 -30q-39 -43 -39 -65q0 -34 77 -34h15
l-40 -61q-41 -10 -86 -10z" />
    <glyph glyph-name="uogonek" unicode="&#x173;" horiz-adv-x="633" 
d="M499 -134h15l-40 -61q-41 -10 -86 -10q-56 0 -88 19.5t-32 53.5q0 49 81 108l34 24h-52l21 83q-83 -95 -176 -95q-66 0 -106 42.5t-40 112.5q0 39 18 113l66 262h189l-69 -276q-5 -16 -5 -35q0 -54 55 -54q38 0 86 29l83 336h190l-129 -518h-23l-30 -35q-39 -43 -39 -65
q0 -34 77 -34z" />
    <glyph glyph-name="Wcircumflex" unicode="&#x174;" horiz-adv-x="1134" 
d="M582 313l-229 -318h-178l-41 705h205l12 -417l305 424h14l112 -422l220 415h219l-393 -705h-162zM801 929l93 -168h-101l-95 66l-128 -66h-116v2l174 166h173z" />
    <glyph glyph-name="wcircumflex" unicode="&#x175;" horiz-adv-x="888" 
d="M432 209l-158 -215h-151l-50 524h183l16 -280l220 286h14l86 -284l155 278h197l-311 -524h-144zM638 786l82 -194h-92l-89 78l-131 -78h-105v2l177 192h158z" />
    <glyph glyph-name="Ycircumflex" unicode="&#x176;" horiz-adv-x="725" 
d="M835 699l-371 -432l-66 -267h-202l68 274l-154 426h216l77 -246l196 246h236v-1zM605 929l93 -168h-101l-95 66l-128 -66h-116v2l174 166h173z" />
    <glyph glyph-name="ycircumflex" unicode="&#x177;" horiz-adv-x="617" 
d="M59 -190q-32 0 -63 9l-31 174l3 2q38 -20 82 -20q68 0 114 49l-94 494h195l39 -293l162 293h208l-303 -493q-68 -113 -142 -164t-170 -51zM504 786l82 -194h-92l-89 78l-131 -78h-105v2l177 192h158z" />
    <glyph glyph-name="Ydieresis" unicode="&#x178;" horiz-adv-x="725" 
d="M835 699l-371 -432l-66 -267h-202l68 274l-154 426h216l77 -246l196 246h236v-1zM618 946q40 0 67 -26t27 -65q0 -42 -29 -70.5t-71 -28.5q-40 0 -67 26t-27 65q0 41 29 70t71 29zM378 946q40 0 67 -26t27 -65q0 -42 -29 -70.5t-71 -28.5q-40 0 -67 26t-27 65q0 41 29 70
t71 29z" />
    <glyph glyph-name="Zacute" unicode="&#x179;" horiz-adv-x="720" 
d="M342 174h337l-93 -174h-624l-3 14l458 512h-304l44 174h640l3 -14zM769 929v-2l-248 -166h-114l120 168h242z" />
    <glyph glyph-name="zacute" unicode="&#x17a;" horiz-adv-x="559" 
d="M277 144h237l-78 -144h-479l-3 12l320 362h-201l35 144h485l3 -12zM656 786v-2l-258 -192h-92l133 194h217z" />
    <glyph glyph-name="Zdotaccent" unicode="&#x17b;" horiz-adv-x="720" 
d="M342 174h337l-93 -174h-624l-3 14l458 512h-304l44 174h640l3 -14zM491 944q40 0 67.5 -26t27.5 -65q0 -41 -29 -70t-71 -29q-41 0 -68 26t-27 65q0 41 29 70t71 29z" />
    <glyph glyph-name="zdotaccent" unicode="&#x17c;" horiz-adv-x="559" 
d="M277 144h237l-78 -144h-479l-3 12l320 362h-201l35 144h485l3 -12zM375 583q-39 0 -65 25t-26 64q0 40 28 67.5t69 27.5q39 0 65 -25.5t26 -63.5q0 -40 -28.5 -67.5t-68.5 -27.5z" />
    <glyph glyph-name="Zcaron" unicode="&#x17d;" horiz-adv-x="720" 
d="M342 174h337l-93 -174h-624l-3 14l458 512h-304l44 174h640l3 -14zM731 928v-2l-174 -166h-173l-93 168h101l95 -66l128 66h116z" />
    <glyph glyph-name="zcaron" unicode="&#x17e;" horiz-adv-x="559" 
d="M277 144h237l-78 -144h-479l-3 12l320 362h-201l35 144h485l3 -12zM614 786v-2l-178 -192h-157l-82 194h92l89 -79l131 79h105z" />
    <glyph glyph-name="uni018F" unicode="&#x18f;" horiz-adv-x="769" 
d="M641 110q-119 -124 -300 -124q-131 0 -211 77t-80 201q0 69 24 146h480q-5 60 -45 94t-107 34q-111 0 -270 -73l-3 3l66 181q124 62 261 62q135 0 218 -82q84 -83 84 -216q0 -184 -117 -303zM354 150q58 0 107 37t71 97h-296v-13q0 -57 31.5 -89t86.5 -32z" />
    <glyph glyph-name="Ohorn" unicode="&#x1a0;" horiz-adv-x="821" 
d="M687 106q-120 -120 -296 -120q-148 0 -241 87t-93 226q0 175 122 292q120 117 295 117q22 0 82 -4t81 -4q69 0 103.5 33.5t43.5 107.5h131q0 -198 -181 -240q75 -81 75 -200q0 -176 -122 -295zM264 315q0 -66 39.5 -106.5t103.5 -40.5q79 0 138 63q57 63 57 154
q0 66 -40 106t-104 40q-79 0 -136 -63q-58 -62 -58 -153z" />
    <glyph glyph-name="ohorn" unicode="&#x1a1;" horiz-adv-x="619" 
d="M591 293q0 -130 -89 -219q-89 -88 -221 -88q-112 0 -182 67q-71 66 -71 172q0 128 90 215q89 86 220 86q6 0 21.5 -1t30.5 -1q31 -3 53 -3q64 0 94 26.5t35 85.5h113q0 -83 -34.5 -130t-107.5 -64q48 -62 48 -146zM411 282q0 40 -23 63.5t-61 23.5q-50 0 -84.5 -38.5
t-34.5 -95.5q0 -41 23 -65t61 -24q50 0 84.5 39t34.5 97z" />
    <glyph glyph-name="Uhorn" unicode="&#x1af;" horiz-adv-x="820" 
d="M353 -12q-133 0 -210 69q-77 68 -77 186q0 47 17 114l86 343h202l-93 -373q-8 -37 -8 -55q0 -50 28.5 -78t79.5 -28q57 0 99 38t59 107l96 389h68q69 0 103 33t43 108h132q0 -194 -171 -237l-81 -325q-72 -291 -373 -291z" />
    <glyph glyph-name="uhorn" unicode="&#x1b0;" horiz-adv-x="657" 
d="M622 436l-108 -436h-183l21 83q-83 -95 -176 -95q-66 0 -106 42.5t-40 112.5q0 39 18 113l66 262h189l-69 -276q-5 -16 -5 -35q0 -54 55 -54q38 0 86 29l83 336h67q64 0 94 24.5t34 80.5h114q0 -80 -34 -125.5t-106 -61.5z" />
    <glyph glyph-name="uni01CD" unicode="&#x1cd;" horiz-adv-x="824" 
d="M484 506l-146 -229h178zM635 701l115 -701h-202l-16 120h-288l-76 -120h-222l464 701h225zM789 928v-2l-174 -166h-173l-93 168h101l95 -66l128 66h116z" />
    <glyph glyph-name="uni01CE" unicode="&#x1ce;" horiz-adv-x="575" 
d="M163 151q0 -19 14 -30t39 -11q47 0 100 27l21 81q-8 1 -32 1q-68 0 -105 -18t-37 -50zM528 235l-58 -223l-185 -19l19 68q-93 -70 -175 -70q-61 0 -97 33.5t-36 91.5q0 83 79.5 131.5t217.5 48.5q4 0 61 -3q1 4 1 17q0 71 -84 71q-83 0 -191 -59l-2 2l53 161
q93 43 197 43q101 0 158 -50.5t57 -138.5q0 -40 -15 -104zM626 786v-2l-178 -192h-157l-82 194h92l89 -79l131 79h105z" />
    <glyph glyph-name="uni01CF" unicode="&#x1cf;" horiz-adv-x="338" 
d="M379 700l-174 -700h-202l174 700h202zM552 928v-2l-174 -166h-173l-93 168h101l95 -66l128 66h116z" />
    <glyph glyph-name="uni01D0" unicode="&#x1d0;" horiz-adv-x="305" 
d="M312 518l-129 -518h-190l129 518h190zM490 786v-2l-178 -192h-157l-82 194h92l89 -79l131 79h105z" />
    <glyph glyph-name="uni01D1" unicode="&#x1d1;" horiz-adv-x="821" 
d="M687 106q-120 -120 -296 -120q-148 0 -241 87t-93 226q0 176 122 295q120 120 296 120q148 0 241 -87t93 -226q0 -176 -122 -295zM264 315q0 -66 39.5 -106.5t103.5 -40.5q79 0 138 63q57 63 57 154q0 66 -39.5 106.5t-103.5 40.5q-80 0 -137 -63q-58 -62 -58 -154z
M776 933v-2l-174 -166h-173l-93 168h101l95 -66l128 66h116z" />
    <glyph glyph-name="uni01D2" unicode="&#x1d2;" horiz-adv-x="619" 
d="M591 293q0 -130 -89 -219q-89 -88 -221 -88q-112 0 -182 67q-71 66 -71 172q0 131 90 219q88 88 220 88q112 0 183 -66q70 -67 70 -173zM411 282q0 41 -23.5 66t-60.5 25q-49 0 -84 -39q-35 -41 -35 -98q0 -41 23 -65.5t61 -24.5q50 0 84.5 39t34.5 97zM634 791v-2
l-178 -192h-157l-82 194h92l89 -79l131 79h105z" />
    <glyph glyph-name="uni01D3" unicode="&#x1d3;" horiz-adv-x="780" 
d="M66 243q0 47 17 114l86 343h202l-93 -373q-8 -37 -8 -55q0 -50 28.5 -78t79.5 -28q57 0 99 38t59 107l96 389h199l-105 -421q-72 -291 -373 -291q-133 0 -210 69q-77 68 -77 186zM773 928v-2l-174 -166h-173l-93 168h101l95 -66l128 66h116z" />
    <glyph glyph-name="uni01D4" unicode="&#x1d4;" horiz-adv-x="633" 
d="M643 518l-129 -518h-183l21 83q-83 -95 -176 -95q-66 0 -106 42.5t-40 112.5q0 39 18 113l66 262h189l-69 -276q-5 -16 -5 -35q0 -54 55 -54q38 0 86 29l83 336h190zM645 786v-2l-178 -192h-157l-82 194h92l89 -79l131 79h105z" />
    <glyph glyph-name="uni01D5" unicode="&#x1d5;" horiz-adv-x="780" 
d="M66 243q0 47 17 114l86 343h202l-93 -373q-8 -37 -8 -55q0 -50 28.5 -78t79.5 -28q57 0 99 38t59 107l96 389h199l-105 -421q-72 -291 -373 -291q-133 0 -210 69q-77 68 -77 186zM761 981h-399l26 104h398zM654 939q42 0 69 -24.5t27 -63.5q0 -40 -29.5 -67.5
t-70.5 -27.5q-42 0 -69 24.5t-27 63.5q0 40 29 67.5t71 27.5zM412 939q42 0 69 -24.5t27 -63.5q0 -40 -29.5 -67.5t-70.5 -27.5q-42 0 -69 24.5t-27 63.5q0 40 29 67.5t71 27.5z" />
    <glyph glyph-name="uni01D6" unicode="&#x1d6;" horiz-adv-x="633" 
d="M643 518l-129 -518h-183l21 83q-83 -95 -176 -95q-66 0 -106 42.5t-40 112.5q0 39 18 113l66 262h189l-69 -276q-5 -16 -5 -35q0 -54 55 -54q38 0 86 29l83 336h190zM638 812h-403l25 98h402zM525 586q-39 0 -65.5 25t-26.5 61q0 39 28.5 66.5t68.5 27.5q39 0 65.5 -25
t26.5 -62q0 -38 -28.5 -65.5t-68.5 -27.5zM284 586q-39 0 -65.5 25t-26.5 61q0 39 28.5 66.5t68.5 27.5q39 0 65.5 -25t26.5 -62q0 -38 -28.5 -65.5t-68.5 -27.5z" />
    <glyph glyph-name="uni01D7" unicode="&#x1d7;" horiz-adv-x="780" 
d="M66 243q0 47 17 114l86 343h202l-93 -373q-8 -37 -8 -55q0 -50 28.5 -78t79.5 -28q57 0 99 38t59 107l96 389h199l-105 -421q-72 -291 -373 -291q-133 0 -210 69q-77 68 -77 186zM793 1111l-202 -147h-98l95 149h205v-2zM654 939q42 0 69 -24.5t27 -63.5
q0 -40 -29.5 -67.5t-70.5 -27.5q-42 0 -69 24.5t-27 63.5q0 40 29 67.5t71 27.5zM412 939q42 0 69 -24.5t27 -63.5q0 -40 -29.5 -67.5t-70.5 -27.5q-42 0 -69 24.5t-27 63.5q0 40 29 67.5t71 27.5z" />
    <glyph glyph-name="uni01D8" unicode="&#x1d8;" horiz-adv-x="633" 
d="M643 518l-129 -518h-183l21 83q-83 -95 -176 -95q-66 0 -106 42.5t-40 112.5q0 39 18 113l66 262h189l-69 -276q-5 -16 -5 -35q0 -54 55 -54q38 0 86 29l83 336h190zM667 940l-200 -147h-95l93 149h202v-2zM525 586q-39 0 -65.5 25t-26.5 61q0 39 28.5 66.5t68.5 27.5
q39 0 65.5 -25t26.5 -62q0 -38 -28.5 -65.5t-68.5 -27.5zM284 586q-39 0 -65.5 25t-26.5 61q0 39 28.5 66.5t68.5 27.5q39 0 65.5 -25t26.5 -62q0 -38 -28.5 -65.5t-68.5 -27.5z" />
    <glyph glyph-name="uni01D9" unicode="&#x1d9;" horiz-adv-x="780" 
d="M66 243q0 47 17 114l86 343h202l-93 -373q-8 -37 -8 -55q0 -50 28.5 -78t79.5 -28q57 0 99 38t59 107l96 389h199l-105 -421q-72 -291 -373 -291q-133 0 -210 69q-77 68 -77 186zM797 1113v-2l-170 -147h-143l-99 149h94l90 -55l118 55h110zM654 939q42 0 69 -24.5
t27 -63.5q0 -40 -29.5 -67.5t-70.5 -27.5q-42 0 -69 24.5t-27 63.5q0 40 29 67.5t71 27.5zM412 939q42 0 69 -24.5t27 -63.5q0 -40 -29.5 -67.5t-70.5 -27.5q-42 0 -69 24.5t-27 63.5q0 40 29 67.5t71 27.5z" />
    <glyph glyph-name="uni01DA" unicode="&#x1da;" horiz-adv-x="633" 
d="M643 518l-129 -518h-183l21 83q-83 -95 -176 -95q-66 0 -106 42.5t-40 112.5q0 39 18 113l66 262h189l-69 -276q-5 -16 -5 -35q0 -54 55 -54q38 0 86 29l83 336h190zM665 948v-2l-167 -151h-141l-93 153h98l81 -56l112 56h110zM525 586q-39 0 -65.5 25t-26.5 61
q0 39 28.5 66.5t68.5 27.5q39 0 65.5 -25t26.5 -62q0 -38 -28.5 -65.5t-68.5 -27.5zM284 586q-39 0 -65.5 25t-26.5 61q0 39 28.5 66.5t68.5 27.5q39 0 65.5 -25t26.5 -62q0 -38 -28.5 -65.5t-68.5 -27.5z" />
    <glyph glyph-name="uni01DB" unicode="&#x1db;" horiz-adv-x="780" 
d="M66 243q0 47 17 114l86 343h202l-93 -373q-8 -37 -8 -55q0 -50 28.5 -78t79.5 -28q57 0 99 38t59 107l96 389h199l-105 -421q-72 -291 -373 -291q-133 0 -210 69q-77 68 -77 186zM380 1113h177l25 -149h-87l-115 148v1zM654 939q42 0 69 -24.5t27 -63.5
q0 -40 -29.5 -67.5t-70.5 -27.5q-42 0 -69 24.5t-27 63.5q0 40 29 67.5t71 27.5zM412 939q42 0 69 -24.5t27 -63.5q0 -40 -29.5 -67.5t-70.5 -27.5q-42 0 -69 24.5t-27 63.5q0 40 29 67.5t71 27.5z" />
    <glyph glyph-name="uni01DC" unicode="&#x1dc;" horiz-adv-x="633" 
d="M643 518l-129 -518h-183l21 83q-83 -95 -176 -95q-66 0 -106 42.5t-40 112.5q0 39 18 113l66 262h189l-69 -276q-5 -16 -5 -35q0 -54 55 -54q38 0 86 29l83 336h190zM254 942h179l25 -149h-84l-120 148v1zM525 586q-39 0 -65.5 25t-26.5 61q0 39 28.5 66.5t68.5 27.5
q39 0 65.5 -25t26.5 -62q0 -38 -28.5 -65.5t-68.5 -27.5zM284 586q-39 0 -65.5 25t-26.5 61q0 39 28.5 66.5t68.5 27.5q39 0 65.5 -25t26.5 -62q0 -38 -28.5 -65.5t-68.5 -27.5z" />
    <glyph glyph-name="Gcaron" unicode="&#x1e6;" horiz-adv-x="764" 
d="M421 395h314l-91 -354q-122 -51 -257 -51q-149 0 -240 83q-90 83 -90 221q0 186 129 302q128 115 339 115q139 0 257 -58l-47 -179q-109 56 -223 56q-106 0 -177 -62q-70 -63 -70 -159q0 -70 43.5 -109t123.5 -39q32 0 63 6l25 98h-131zM765 933v-2l-174 -166h-173
l-93 168h101l95 -66l128 66h116z" />
    <glyph glyph-name="gcaron" unicode="&#x1e7;" horiz-adv-x="642" 
d="M210 245q0 -35 20 -54t57 -19q47 0 99 29l40 161q-32 11 -70 11q-63 0 -104 -37q-42 -38 -42 -91zM207 -193q-112 0 -202 46l-19 166l3 2q100 -65 202 -65q126 0 162 107l13 40q-75 -68 -164 -68q-77 0 -124.5 51t-47.5 135q0 134 91 219t234 85q86 0 157 -29l128 27
l12 -3l-120 -481q-59 -232 -325 -232zM647 786v-2l-178 -192h-157l-82 194h92l89 -79l131 79h105z" />
    <glyph glyph-name="uni01EA" unicode="&#x1ea;" horiz-adv-x="821" 
d="M332 -210q-56 0 -88 19.5t-32 53.5q0 49 81 108l29 21q-120 19 -193 103q-72 83 -72 204q0 176 122 295q120 120 296 120q148 0 241 -87t93 -226q0 -165 -108 -282q-110 -118 -272 -131l-24 -28q-39 -43 -39 -65q0 -34 77 -34h15l-40 -61q-41 -10 -86 -10zM264 315
q0 -66 39.5 -106.5t103.5 -40.5q79 0 138 63q57 63 57 154q0 66 -39.5 106.5t-103.5 40.5q-80 0 -137 -63q-58 -62 -58 -154z" />
    <glyph glyph-name="uni01EB" unicode="&#x1eb;" horiz-adv-x="619" 
d="M223 -210q-56 0 -88 19.5t-32 53.5q0 49 81 108l31 22q-86 18 -136.5 81t-50.5 151q0 131 90 219q88 88 220 88q112 0 183 -66q70 -67 70 -173q0 -119 -76 -204q-77 -86 -194 -101l-25 -28q-39 -43 -39 -65q0 -34 77 -34h15l-40 -61q-41 -10 -86 -10zM411 282
q0 41 -23.5 66t-60.5 25q-49 0 -84 -39q-35 -41 -35 -98q0 -41 23 -65.5t61 -24.5q50 0 84.5 39t34.5 97z" />
    <glyph glyph-name="uni01F0" unicode="&#x1f0;" horiz-adv-x="305" 
d="M-1 16l125 502h189l-127 -513q-26 -103 -80.5 -149t-151.5 -46q-38 0 -71 10l-23 122l3 3q15 -7 39 -7q41 0 64 18.5t33 59.5zM492 786v-2l-178 -192h-157l-82 194h92l89 -79l131 79h105z" />
    <glyph glyph-name="uni01F8" unicode="&#x1f8;" horiz-adv-x="817" 
d="M662 700h200l-174 -702h-150l-237 413l-100 -411h-201l174 700h198l203 -353zM322 929h214l39 -168h-99l-154 166v2z" />
    <glyph glyph-name="uni01F9" unicode="&#x1f9;" horiz-adv-x="633" 
d="M404 311q0 26 -14.5 40.5t-39.5 14.5q-39 0 -87 -29l-83 -337h-190l126 505l187 19l-22 -89q83 95 176 95q66 0 106 -42.5t40 -112.5q0 -39 -18 -113l-65 -262h-190l69 276q5 20 5 35zM199 786h191l38 -194h-81z" />
    <glyph glyph-name="Aringacute" unicode="&#x1fa;" horiz-adv-x="824" 
d="M456 735q0 -29 20 -48.5t51 -19.5q33 0 56 22.5t23 55.5q0 30 -20 49.5t-51 19.5q-33 0 -56 -23t-23 -56zM484 507l-147 -230h179zM642 661l108 -661h-202l-16 120h-288l-76 -120h-222l453 684q-10 21 -10 50q0 58 44 100q43 42 104 42q59 0 97.5 -36.5t38.5 -92.5
q0 -49 -31 -86zM868 1081v-2l-248 -166h-114l120 168h242z" />
    <glyph glyph-name="aringacute" unicode="&#x1fb;" horiz-adv-x="575" 
d="M163 151q0 -19 14 -30t39 -11q47 0 100 27l21 81q-8 1 -32 1q-68 0 -105 -18t-37 -50zM528 235l-58 -223l-185 -19l19 68q-93 -70 -175 -70q-61 0 -97 33.5t-36 91.5q0 83 79.5 131.5t217.5 48.5q4 0 61 -3q1 4 1 17q0 71 -84 71q-83 0 -191 -59l-2 2l53 161
q93 43 197 43q101 0 158 -50.5t57 -138.5q0 -40 -15 -104zM645 1018l-166 -129h-79l87 131h158v-2zM533 724q0 -58 -41 -101q-42 -42 -100 -42q-55 0 -92 37t-37 91q0 59 42 101q41 42 99 42q55 0 92 -36.5t37 -91.5zM330 711q0 -30 18 -49t46 -19q30 0 51 23t21 56
q0 30 -18 49t-46 19q-30 0 -51 -23t-21 -56z" />
    <glyph glyph-name="AEacute" unicode="&#x1fc;" horiz-adv-x="1056" 
d="M590 544l-214 -267h148zM1002 169l-71 -169h-476l30 120h-236l-96 -120h-218v2l566 698h614l-42 -169h-288l-27 -107h243l-36 -145h-243l-27 -110h307zM1047 929v-2l-248 -166h-114l120 168h242z" />
    <glyph glyph-name="aeacute" unicode="&#x1fd;" horiz-adv-x="895" 
d="M716 330q0 35 -17.5 55t-47.5 20q-34 0 -65 -26t-47 -67h176q1 4 1 18zM163 151q0 -19 14 -30t39 -11q59 0 137 47q-6 29 -6 59v1q-9 0 -18.5 0.5t-14.5 1t-9 0.5q-68 0 -105 -18t-37 -50zM813 165l2 -1l-33 -134q-84 -40 -194 -40q-137 0 -200 88q-131 -87 -247 -87
q-68 0 -106.5 33.5t-38.5 91.5q0 83 79.5 131.5t217.5 48.5q4 0 61 -3q1 4 1 17q0 71 -84 71q-83 0 -191 -59l-2 2l53 161q96 43 195 43q98 0 153 -61q80 65 189 65q96 0 153 -54t57 -146q0 -59 -19 -116h-343q12 -87 122 -87q85 0 175 36zM815 786v-2l-258 -192h-92
l133 194h217z" />
    <glyph glyph-name="Oslashacute" unicode="&#x1fe;" horiz-adv-x="821" 
d="M459 539q-79 0 -141 -66q-61 -67 -61 -158q0 -27 8 -59l262 271q-30 12 -68 12zM407 161q80 0 141 67q61 65 61 157q0 27 -8 59l-262 -271q30 -12 68 -12zM687 106q-120 -120 -296 -120q-104 0 -189 51l-78 -80h-162v2l155 155q-60 80 -60 185q0 176 122 295
q120 120 296 120q104 0 189 -51l77 80h162v-2l-154 -155q60 -79 60 -185q0 -176 -122 -295zM816 934v-2l-248 -166h-114l120 168h242z" />
    <glyph glyph-name="oslashacute" unicode="&#x1ff;" horiz-adv-x="619" 
d="M327 378q-51 0 -89 -42q-38 -43 -38 -99q0 -21 4 -33l158 168q-13 6 -35 6zM292 140q52 0 89 42q38 43 38 99q0 21 -4 33l-159 -168q16 -6 36 -6zM591 293q0 -130 -89 -219q-89 -88 -221 -88q-78 0 -138 36l-55 -58h-127v2l112 118q-45 62 -45 141q0 131 90 219
q88 88 220 88q78 0 138 -36l55 58h127v-2l-112 -118q45 -62 45 -141zM676 791v-2l-258 -192h-92l133 194h217z" />
    <glyph glyph-name="uni0218" unicode="&#x218;" horiz-adv-x="582" 
d="M249 282q-82 46 -115 92.5t-33 114.5q0 99 75 161q74 62 193 62q128 0 232 -62l-27 -178l-2 -1q-111 79 -206 79q-31 0 -49 -12t-18 -32q0 -18 18 -34.5t74 -48.5q81 -44 114.5 -91t33.5 -115q0 -104 -74 -166q-75 -63 -200 -63q-65 0 -129 19.5t-110 53.5l-2 198l3 2
q56 -52 120 -81.5t121 -29.5q34 0 53.5 12.5t19.5 33.5t-18.5 38t-73.5 48zM88 -115v4l184 49q68 -32 68 -79q0 -77 -189 -137l-95 34v5q54 22 76.5 38t22.5 33q0 15 -15 27t-52 26z" />
    <glyph glyph-name="uni0219" unicode="&#x219;" horiz-adv-x="508" 
d="M202 199q-75 31 -107 68t-32 92q0 77 61.5 123.5t164.5 46.5q115 0 204 -53l-19 -141l-3 -1q-96 67 -184 67q-49 0 -49 -27q0 -13 15.5 -23.5t60.5 -28.5q73 -30 106 -68t33 -92q0 -79 -62 -126t-165 -47q-123 0 -210 57l-5 153l3 2q44 -37 101 -59.5t105 -22.5
q58 0 58 28q0 13 -16.5 23.5t-59.5 28.5zM39 -112v4l184 49q68 -32 68 -79q0 -77 -189 -137l-95 34v5q54 22 76.5 38t22.5 33q0 15 -15 27t-52 26z" />
    <glyph glyph-name="uni021A" unicode="&#x21a;" horiz-adv-x="726" 
d="M140 700h666l-45 -181h-231l-129 -519h-202l129 519h-233zM141 -110v4l184 49q68 -32 68 -79q0 -77 -189 -137l-95 34v5q54 22 76.5 38t22.5 33q0 15 -15 27t-52 26z" />
    <glyph glyph-name="uni021B" unicode="&#x21b;" horiz-adv-x="481" 
d="M433 181l3 -2l-54 -165q-56 -25 -124 -25q-86 0 -136 46t-50 124q0 40 14 88l38 128h-73l36 143h79l31 106l199 40l-43 -146h158l-36 -143h-164l-39 -134q-6 -23 -6 -37q0 -27 17.5 -42.5t47.5 -15.5q53 0 102 35zM59 -110v4l184 49q68 -32 68 -79q0 -77 -189 -137
l-95 34v5q54 22 76.5 38t22.5 33q0 15 -15 27t-52 26z" />
    <glyph glyph-name="uni0226" unicode="&#x226;" horiz-adv-x="824" 
d="M484 506l-146 -229h178zM635 701l115 -701h-202l-16 120h-288l-76 -120h-222l464 701h225zM549 944q40 0 67.5 -26t27.5 -65q0 -41 -29 -70t-71 -29q-41 0 -68 26t-27 65q0 41 29 70t71 29z" />
    <glyph glyph-name="uni0227" unicode="&#x227;" horiz-adv-x="575" 
d="M163 151q0 -19 14 -30t39 -11q47 0 100 27l21 81q-8 1 -32 1q-68 0 -105 -18t-37 -50zM528 235l-58 -223l-185 -19l19 68q-93 -70 -175 -70q-61 0 -97 33.5t-36 91.5q0 83 79.5 131.5t217.5 48.5q4 0 61 -3q1 4 1 17q0 71 -84 71q-83 0 -191 -59l-2 2l53 161
q93 43 197 43q101 0 158 -50.5t57 -138.5q0 -40 -15 -104zM387 583q-39 0 -65 25t-26 64q0 40 28 67.5t69 27.5q39 0 65 -25.5t26 -63.5q0 -40 -28.5 -67.5t-68.5 -27.5z" />
    <glyph glyph-name="uni022E" unicode="&#x22e;" horiz-adv-x="821" 
d="M687 106q-120 -120 -296 -120q-148 0 -241 87t-93 226q0 176 122 295q120 120 296 120q148 0 241 -87t93 -226q0 -176 -122 -295zM264 315q0 -66 39.5 -106.5t103.5 -40.5q79 0 138 63q57 63 57 154q0 66 -39.5 106.5t-103.5 40.5q-80 0 -137 -63q-58 -62 -58 -154z
M536 949q40 0 67.5 -26t27.5 -65q0 -41 -29 -70t-71 -29q-41 0 -68 26t-27 65q0 41 29 70t71 29z" />
    <glyph glyph-name="uni022F" unicode="&#x22f;" horiz-adv-x="619" 
d="M591 293q0 -130 -89 -219q-89 -88 -221 -88q-112 0 -182 67q-71 66 -71 172q0 131 90 219q88 88 220 88q112 0 183 -66q70 -67 70 -173zM411 282q0 41 -23.5 66t-60.5 25q-49 0 -84 -39q-35 -41 -35 -98q0 -41 23 -65.5t61 -24.5q50 0 84.5 39t34.5 97zM395 588
q-39 0 -65 25t-26 64q0 40 28 67.5t69 27.5q39 0 65 -25.5t26 -63.5q0 -40 -28.5 -67.5t-68.5 -27.5z" />
    <glyph glyph-name="uni0232" unicode="&#x232;" horiz-adv-x="725" 
d="M835 699l-371 -432l-66 -267h-202l68 274l-154 426h216l77 -246l196 246h236v-1zM691 780h-425l30 119h424z" />
    <glyph glyph-name="uni0233" unicode="&#x233;" horiz-adv-x="617" 
d="M59 -190q-32 0 -63 9l-31 174l3 2q38 -20 82 -20q68 0 114 49l-94 494h195l39 -293l162 293h208l-303 -493q-68 -113 -142 -164t-170 -51zM579 610h-401l28 113h401z" />
    <glyph glyph-name="uni0237" unicode="&#x237;" horiz-adv-x="305" 
d="M-1 16l125 502h189l-127 -513q-26 -103 -80.5 -149t-151.5 -46q-38 0 -71 10l-23 122l3 3q15 -7 39 -7q41 0 64 18.5t33 59.5z" />
    <glyph glyph-name="uni0259" unicode="&#x259;" horiz-adv-x="574" 
d="M549 302q0 -134 -93 -225q-92 -91 -228 -91q-96 0 -153.5 54t-57.5 146q0 59 19 116h343q-12 87 -122 87q-80 0 -175 -36l-2 1l33 134q87 40 195 40q111 0 176 -61q65 -62 65 -165zM179 188q0 -35 17.5 -55t47.5 -20q34 0 65 26t47 67h-176q-1 -4 -1 -18z" />
    <glyph glyph-name="uni02B9" unicode="&#x2b9;" horiz-adv-x="319" 
d="M156 388l-86 21l132 291h217z" />
    <glyph glyph-name="uni02BA" unicode="&#x2ba;" horiz-adv-x="565" 
d="M403 388l-80 21l132 291h211zM150 388l-80 21l132 291h210z" />
    <glyph glyph-name="uni02BB" unicode="&#x2bb;" horiz-adv-x="281" 
d="M257 480q0 -40 31 -112h-196q-16 39 -16 77q0 65 55 127.5t179 136.5l53 -41q-57 -54 -81.5 -98.5t-24.5 -89.5z" />
    <glyph glyph-name="uni02BC" unicode="&#x2bc;" horiz-adv-x="281" 
d="M161 588q0 42 -31 112h196q16 -39 16 -78q0 -64 -55.5 -126.5t-178.5 -136.5l-52 40q105 104 105 189z" />
    <glyph glyph-name="uni02BE" unicode="&#x2be;" horiz-adv-x="211" 
d="M290 691q0 -68 -52.5 -111t-136.5 -43l17 68q41 1 69.5 23.5t28.5 54.5q0 54 -65 56l17 68q52 0 87 -33.5t35 -82.5z" />
    <glyph glyph-name="uni02BF" unicode="&#x2bf;" horiz-adv-x="211" 
d="M126 653q0 67 53 111q52 43 137 43l-17 -68q-41 -1 -69.5 -23.5t-28.5 -54.5q0 -54 65 -56l-18 -68q-52 0 -87 33.5t-35 82.5z" />
    <glyph glyph-name="circumflex" unicode="&#x2c6;" horiz-adv-x="500" 
d="M458 786l82 -194h-92l-89 78l-131 -78h-105v2l177 192h158z" />
    <glyph glyph-name="caron" unicode="&#x2c7;" horiz-adv-x="500" 
d="M588 786v-2l-178 -192h-157l-82 194h92l89 -79l131 79h105z" />
    <glyph glyph-name="uni02C8" unicode="&#x2c8;" horiz-adv-x="171" 
d="M259 803l-66 -262h-75l66 262h75z" />
    <glyph glyph-name="uni02CC" unicode="&#x2cc;" horiz-adv-x="171" 
d="M77 76l-66 -262h-75l66 262h75z" />
    <glyph glyph-name="uni02CD" unicode="&#x2cd;" horiz-adv-x="500" 
d="M341 -197h-401l28 113h401z" />
    <glyph glyph-name="breve" unicode="&#x2d8;" horiz-adv-x="500" 
d="M350 710q81 0 166 78l61 -63q-97 -142 -236 -142q-64 0 -113.5 37.5t-74.5 104.5l66 63q53 -78 131 -78z" />
    <glyph glyph-name="dotaccent" unicode="&#x2d9;" horiz-adv-x="500" 
d="M349 583q-39 0 -65 25t-26 64q0 40 28 67.5t69 27.5q39 0 65 -25.5t26 -63.5q0 -40 -28.5 -67.5t-68.5 -27.5z" />
    <glyph glyph-name="ring" unicode="&#x2da;" horiz-adv-x="500" 
d="M494 724q0 -58 -41 -101q-42 -42 -100 -42q-55 0 -92 37t-37 91q0 59 42 101q40 42 99 42q55 0 92 -36.5t37 -91.5zM291 711q0 -30 18 -49t46 -19q30 0 51 23t21 56q0 30 -18 49t-46 19q-30 0 -51 -23t-21 -56z" />
    <glyph glyph-name="ogonek" unicode="&#x2db;" horiz-adv-x="500" 
d="M259 -134h15l-40 -61q-41 -10 -86 -10q-56 0 -88 19.5t-32 53.5q0 49 81 108l48 34h103l-39 -45q-39 -43 -39 -65q0 -34 77 -34z" />
    <glyph glyph-name="tilde" unicode="&#x2dc;" horiz-adv-x="500" 
d="M365 748q54 -29 75 -29q14 0 30 11q11 8 52 52l67 -49q-57 -89 -90 -119q-32 -29 -67 -29q-30 0 -88 32q-55 28 -75 28q-16 0 -32 -11.5t-50 -50.5l-67 49q57 89 91 120q31 28 66 28q25 0 88 -32z" />
    <glyph glyph-name="hungarumlaut" unicode="&#x2dd;" horiz-adv-x="500" 
d="M707 784l-255 -192h-76l128 187l-248 -187h-76l133 194h394v-2z" />
    <glyph glyph-name="uni0300" unicode="&#x300;" 
d="M-108 786h191l38 -194h-81z" />
    <glyph glyph-name="uni0301" unicode="&#x301;" 
d="M380 786v-2l-258 -192h-92l133 194h217z" />
    <glyph glyph-name="uni0302" unicode="&#x302;" 
d="M208 786l82 -194h-92l-89 78l-131 -78h-105v2l177 192h158z" />
    <glyph glyph-name="uni0303" unicode="&#x303;" 
d="M115 748q54 -29 75 -29q14 0 30 11q11 8 52 52l67 -49q-57 -89 -90 -119q-32 -29 -67 -29q-30 0 -88 32q-55 28 -75 28q-16 0 -32 -11.5t-50 -50.5l-67 49q58 92 90 120q31 28 67 28q25 0 88 -32z" />
    <glyph glyph-name="uni0304" unicode="&#x304;" 
d="M283 610h-401l28 113h401z" />
    <glyph glyph-name="uni0306" unicode="&#x306;" 
d="M100 710q81 0 166 78l61 -63q-97 -142 -236 -142q-64 0 -113.5 37.5t-74.5 104.5l66 63q53 -78 131 -78z" />
    <glyph glyph-name="uni0307" unicode="&#x307;" 
d="M99 583q-39 0 -65 25t-26 64q0 40 28 67.5t69 27.5q39 0 65 -25.5t26 -63.5q0 -40 -28.5 -67.5t-68.5 -27.5z" />
    <glyph glyph-name="uni0308" unicode="&#x308;" 
d="M213 586q-39 0 -65.5 26t-26.5 64q0 41 29.5 70t71.5 29q39 0 66 -26t27 -64q0 -41 -29.5 -70t-72.5 -29zM-26 586q-39 0 -65.5 26t-26.5 64q0 41 29.5 70t71.5 29q39 0 66 -26t27 -64q0 -41 -29.5 -70t-72.5 -29z" />
    <glyph glyph-name="uni0309" unicode="&#x309;" 
d="M-28 683l-3 1l31 125q68 37 138 37q56 0 91 -27t35 -70q0 -46 -39.5 -86.5t-128.5 -84.5l-82 29v2q70 42 95.5 64t25.5 39q0 20 -32 20q-50 0 -131 -49z" />
    <glyph glyph-name="uni030A" unicode="&#x30a;" 
d="M244 724q0 -58 -41 -101q-42 -42 -100 -42q-55 0 -92 37t-37 91q0 59 42 101q40 42 99 42q55 0 92 -36.5t37 -91.5zM41 711q0 -30 18 -49t46 -19q30 0 51 23t21 56q0 30 -18 49t-46 19q-30 0 -51 -23t-21 -56z" />
    <glyph glyph-name="uni030B" unicode="&#x30b;" 
d="M457 784l-255 -192h-76l128 187l-248 -187h-76l133 194h394v-2z" />
    <glyph glyph-name="uni030C" unicode="&#x30c;" 
d="M338 786v-2l-178 -192h-157l-82 194h92l89 -79l131 79h105z" />
    <glyph glyph-name="uni0312" unicode="&#x312;" 
d="M225 637v-5l-191 -49q-62 35 -62 78q0 83 192 143l93 -34v-4q-55 -24 -78 -41.5t-23 -35.5q0 -14 15.5 -26t53.5 -26z" />
    <glyph glyph-name="uni0315" unicode="&#x315;" 
d="M150 574h-71v2q52 68 52 146q0 29 -4 46h136q-6 -115 -113 -194z" />
    <glyph glyph-name="uni0323" unicode="&#x323;" 
d="M-99 -241q-39 0 -65 25t-26 64q0 40 28 67.5t69 27.5q39 0 65 -25.5t26 -63.5q0 -40 -28.5 -67.5t-68.5 -27.5z" />
    <glyph glyph-name="uni0324" unicode="&#x324;" 
d="M16 -249q-39 0 -65.5 26t-26.5 64q0 41 29.5 70t71.5 29q39 0 66 -26t27 -64q0 -41 -29.5 -70t-72.5 -29zM-223 -249q-39 0 -65.5 26t-26.5 64q0 41 29.5 70t71.5 29q39 0 66 -26t27 -64q0 -41 -29.5 -70t-72.5 -29z" />
    <glyph glyph-name="uni0326" unicode="&#x326;" 
d="M-224 -110v4l184 49q68 -32 68 -79q0 -77 -189 -137l-95 34v5q54 22 76.5 38t22.5 33q0 15 -15 27t-52 26z" />
    <glyph glyph-name="uni0327" unicode="&#x327;" 
d="M66 -124q0 -45 -48.5 -73t-129.5 -28q-52 0 -101 11l-26 69l3 4q52 -16 102 -16q66 0 66 31q0 26 -50 26q-21 0 -49 -4l-3 4l73 108h98l-36 -53q46 -2 73.5 -23.5t27.5 -55.5z" />
    <glyph glyph-name="uni0328" unicode="&#x328;" 
d="M9 -134h15l-40 -61q-41 -10 -86 -10q-56 0 -88 19.5t-32 53.5q0 49 81 108l48 34h103l-39 -45q-39 -43 -39 -65q0 -34 77 -34z" />
    <glyph glyph-name="uni032D" unicode="&#x32d;" 
d="M-2 -66l82 -194h-92l-89 78l-131 -78h-105v2l177 192h158z" />
    <glyph glyph-name="uni032E" unicode="&#x32e;" 
d="M-106 -138q81 0 166 78l61 -63q-97 -142 -236 -142q-64 0 -113.5 37.5t-74.5 104.5l66 63q53 -78 131 -78z" />
    <glyph glyph-name="uni0331" unicode="&#x331;" 
d="M91 -197h-401l28 113h401z" />
    <glyph glyph-name="uni0E3F" unicode="&#xe3f;" horiz-adv-x="666" 
d="M327 1l-33 -136h-148l34 135h-179l174 700h179l29 114h147l-30 -119q81 -13 124 -56t43 -109q0 -54 -32.5 -99.5t-91.5 -74.5q74 -45 74 -133q0 -95 -78 -155q-79 -60 -212 -67zM483 496q0 28 -19.5 43.5t-53.5 15.5h-83l-35 -139h84q47 0 77 22.5t30 57.5zM425 226
q0 30 -20 46.5t-56 16.5h-88l-36 -146h88q50 0 81 23t31 60z" />
    <glyph glyph-name="uni1E06" unicode="&#x1e06;" horiz-adv-x="658" 
d="M473 494q0 27 -19.5 42t-54.5 15h-72l-33 -134h74q46 0 75.5 21.5t29.5 55.5zM415 229q0 28 -20 43.5t-57 15.5h-76l-35 -140h76q51 0 81.5 22t30.5 59zM293 0h-293l174 700h251q113 0 175.5 -45.5t62.5 -126.5q0 -55 -35.5 -101t-99.5 -74q83 -44 83 -136
q0 -99 -86 -158t-232 -59zM445 -197h-401l28 113h401z" />
    <glyph glyph-name="uni1E07" unicode="&#x1e07;" horiz-adv-x="637" 
d="M520 86q-96 -93 -234 -93q-70 0 -152 30l-132 -28l-12 3l177 713l201 46l-75 -303q73 73 156 73q73 0 117.5 -55t44.5 -148q0 -145 -91 -238zM283 146q62 0 105 41q42 41 42 103q0 39 -21.5 61.5t-58.5 22.5t-82 -22l-49 -197q26 -9 64 -9zM420 -197h-401l28 113h401z
" />
    <glyph glyph-name="uni1E0C" unicode="&#x1e0c;" horiz-adv-x="773" 
d="M557 387q0 67 -45.5 103t-131.5 36h-46l-88 -352h46q116 0 191 60q74 59 74 153zM259 0h-259l174 700h236q167 0 260 -78t93 -219q0 -185 -136 -294t-368 -109zM301 -241q-39 0 -65 25t-26 64q0 40 28 67.5t69 27.5q39 0 65 -25.5t26 -63.5q0 -40 -28.5 -67.5
t-68.5 -27.5z" />
    <glyph glyph-name="uni1E0D" unicode="&#x1e0d;" horiz-adv-x="642" 
d="M206 228q0 -39 21.5 -61.5t60.5 -22.5q40 0 86 24l47 190q-33 14 -70 14q-62 0 -103 -41q-42 -41 -42 -103zM710 757l-188 -757h-183l20 78q-81 -87 -171 -87q-74 0 -118 55t-44 148q0 147 92 239t226 92q59 0 114 -20l51 206zM242 -241q-39 0 -65 25t-26 64
q0 40 28 67.5t69 27.5q39 0 65 -25.5t26 -63.5q0 -40 -28.5 -67.5t-68.5 -27.5z" />
    <glyph glyph-name="uni1E0E" unicode="&#x1e0e;" horiz-adv-x="773" 
d="M557 387q0 67 -45.5 103t-131.5 36h-46l-88 -352h46q116 0 191 60q74 59 74 153zM259 0h-259l174 700h236q167 0 260 -78t93 -219q0 -185 -136 -294t-368 -109zM491 -197h-401l28 113h401z" />
    <glyph glyph-name="uni1E0F" unicode="&#x1e0f;" horiz-adv-x="642" 
d="M206 228q0 -39 21.5 -61.5t60.5 -22.5q40 0 86 24l47 190q-33 14 -70 14q-62 0 -103 -41q-42 -41 -42 -103zM710 757l-188 -757h-183l20 78q-81 -87 -171 -87q-74 0 -118 55t-44 148q0 147 92 239t226 92q59 0 114 -20l51 206zM432 -197h-401l28 113h401z" />
    <glyph glyph-name="uni1E12" unicode="&#x1e12;" horiz-adv-x="773" 
d="M557 387q0 67 -45.5 103t-131.5 36h-46l-88 -352h46q116 0 191 60q74 59 74 153zM259 0h-259l174 700h236q167 0 260 -78t93 -219q0 -185 -136 -294t-368 -109zM398 -66l82 -194h-92l-89 78l-131 -78h-105v2l177 192h158z" />
    <glyph glyph-name="uni1E13" unicode="&#x1e13;" horiz-adv-x="642" 
d="M206 228q0 -39 21.5 -61.5t60.5 -22.5q40 0 86 24l47 190q-33 14 -70 14q-62 0 -103 -41q-42 -41 -42 -103zM710 757l-188 -757h-183l20 78q-81 -87 -171 -87q-74 0 -118 55t-44 148q0 147 92 239t226 92q59 0 114 -20l51 206zM339 -66l82 -194h-92l-89 78l-131 -78h-105
v2l177 192h158z" />
    <glyph glyph-name="uni1E20" unicode="&#x1e20;" horiz-adv-x="764" 
d="M421 395h314l-91 -354q-122 -51 -257 -51q-149 0 -240 83q-90 83 -90 221q0 186 129 302q128 115 339 115q139 0 257 -58l-47 -179q-109 56 -223 56q-106 0 -177 -62q-70 -63 -70 -159q0 -70 43.5 -109t123.5 -39q32 0 63 6l25 98h-131zM717 785h-425l30 119h424z" />
    <glyph glyph-name="uni1E21" unicode="&#x1e21;" horiz-adv-x="642" 
d="M210 245q0 -35 20 -54t57 -19q47 0 99 29l40 161q-32 11 -70 11q-63 0 -104 -37q-42 -38 -42 -91zM207 -193q-112 0 -202 46l-19 166l3 2q100 -65 202 -65q126 0 162 107l13 40q-75 -68 -164 -68q-77 0 -124.5 51t-47.5 135q0 134 91 219t234 85q86 0 157 -29l128 27
l12 -3l-120 -481q-59 -232 -325 -232zM592 610h-401l28 113h401z" />
    <glyph glyph-name="uni1E24" unicode="&#x1e24;" horiz-adv-x="802" 
d="M846 700l-174 -700h-202l65 261h-268l-65 -261h-202l174 700h202l-63 -254h268l63 254h202zM312 -239q-39 0 -65 25t-26 64q0 40 28 67.5t69 27.5q39 0 65 -25.5t26 -63.5q0 -40 -28.5 -67.5t-68.5 -27.5z" />
    <glyph glyph-name="uni1E25" unicode="&#x1e25;" horiz-adv-x="633" 
d="M404 311q0 26 -14.5 40.5t-39.5 14.5q-40 0 -86 -29l-84 -337h-190l177 711l201 46l-77 -312q79 85 166 85q66 0 106 -42.5t40 -112.5q0 -39 -18 -113l-65 -262h-190l69 276q5 20 5 35zM236 -236q-39 0 -65 25t-26 64q0 40 28 67.5t69 27.5q39 0 65 -25.5t26 -63.5
q0 -40 -28.5 -67.5t-68.5 -27.5z" />
    <glyph glyph-name="uni1E28" unicode="&#x1e28;" horiz-adv-x="802" 
d="M229 -124q0 -45 -48.5 -73t-129.5 -28q-52 0 -101 11l-26 69l3 4q52 -16 102 -16q66 0 66 31q0 26 -50 26q-21 0 -49 -4l-3 4l68 100h-61l174 700h202l-63 -254h268l63 254h202l-174 -700h-202l65 261h-268l-65 -261h-43l-31 -45q46 -2 73.5 -23.5t27.5 -55.5z" />
    <glyph glyph-name="uni1E29" unicode="&#x1e29;" horiz-adv-x="633" 
d="M213 -124q0 -45 -48.5 -73t-129.5 -28q-52 0 -101 11l-26 69l3 4q52 -16 102 -16q66 0 66 31q0 26 -50 26q-21 0 -49 -4l-3 4l68 100h-55l177 711l201 46l-77 -312q79 85 166 85q66 0 106 -42.5t40 -112.5q0 -39 -18 -113l-65 -262h-190l69 276q5 20 5 35
q0 26 -14.5 40.5t-39.5 14.5q-40 0 -86 -29l-84 -337h-37l-31 -45q46 -2 73.5 -23.5t27.5 -55.5z" />
    <glyph glyph-name="uni1E2A" unicode="&#x1e2a;" horiz-adv-x="802" 
d="M846 700l-174 -700h-202l65 261h-268l-65 -261h-202l174 700h202l-63 -254h268l63 254h202zM304 -138q81 0 166 78l61 -63q-97 -142 -236 -142q-64 0 -113.5 37.5t-74.5 104.5l66 63q52 -78 131 -78z" />
    <glyph glyph-name="uni1E2B" unicode="&#x1e2b;" horiz-adv-x="633" 
d="M404 311q0 26 -14.5 40.5t-39.5 14.5q-40 0 -86 -29l-84 -337h-190l177 711l201 46l-77 -312q79 85 166 85q66 0 106 -42.5t40 -112.5q0 -39 -18 -113l-65 -262h-190l69 276q5 20 5 35zM227 -138q81 0 166 78l61 -63q-97 -142 -236 -142q-64 0 -113.5 37.5t-74.5 104.5
l66 63q52 -78 131 -78z" />
    <glyph glyph-name="uni1E32" unicode="&#x1e32;" horiz-adv-x="750" 
d="M681 1v-1h-235l-156 279h-19l-69 -279h-202l174 700h202l-66 -267h18l270 267h255v-2l-377 -356zM302 -241q-39 0 -65 25t-26 64q0 40 28 67.5t69 27.5q39 0 65 -25.5t26 -63.5q0 -40 -28.5 -67.5t-68.5 -27.5z" />
    <glyph glyph-name="uni1E33" unicode="&#x1e33;" horiz-adv-x="608" 
d="M543 1v-1h-207l-88 204h-17l-51 -204h-190l176 711l202 46l-109 -439h18l167 200h222v-2l-239 -269zM235 -241q-39 0 -65 25t-26 64q0 40 28 67.5t69 27.5q39 0 65 -25.5t26 -63.5q0 -40 -28.5 -67.5t-68.5 -27.5z" />
    <glyph glyph-name="uni1E34" unicode="&#x1e34;" horiz-adv-x="750" 
d="M681 1v-1h-235l-156 279h-19l-69 -279h-202l174 700h202l-66 -267h18l270 267h255v-2l-377 -356zM492 -197h-401l28 113h401z" />
    <glyph glyph-name="uni1E35" unicode="&#x1e35;" horiz-adv-x="608" 
d="M543 1v-1h-207l-88 204h-17l-51 -204h-190l176 711l202 46l-109 -439h18l167 200h222v-2l-239 -269zM425 -197h-401l28 113h401z" />
    <glyph glyph-name="uni1E36" unicode="&#x1e36;" horiz-adv-x="565" 
d="M516 181l-45 -181h-471l174 700h202l-129 -519h269zM212 -241q-39 0 -65 25t-26 64q0 40 28 67.5t69 27.5q39 0 65 -25.5t26 -63.5q0 -40 -28.5 -67.5t-68.5 -27.5z" />
    <glyph glyph-name="uni1E37" unicode="&#x1e37;" horiz-adv-x="305" 
d="M371 757l-188 -757h-190l177 711zM53 -241q-39 0 -65 25t-26 64q0 40 28 67.5t69 27.5q39 0 65 -25.5t26 -63.5q0 -40 -28.5 -67.5t-68.5 -27.5z" />
    <glyph glyph-name="uni1E38" unicode="&#x1e38;" horiz-adv-x="565" 
d="M516 181l-45 -181h-471l174 700h202l-129 -519h269zM461 780h-345l30 119h344zM212 -241q-39 0 -65 25t-26 64q0 40 28 67.5t69 27.5q39 0 65 -25.5t26 -63.5q0 -40 -28.5 -67.5t-68.5 -27.5z" />
    <glyph glyph-name="uni1E39" unicode="&#x1e39;" horiz-adv-x="305" 
d="M371 757l-188 -757h-190l177 711zM459 816h-344l28 113h344zM53 -241q-39 0 -65 25t-26 64q0 40 28 67.5t69 27.5q39 0 65 -25.5t26 -63.5q0 -40 -28.5 -67.5t-68.5 -27.5z" />
    <glyph glyph-name="uni1E3A" unicode="&#x1e3a;" horiz-adv-x="565" 
d="M516 181l-45 -181h-471l174 700h202l-129 -519h269zM402 -197h-401l28 113h401z" />
    <glyph glyph-name="uni1E3B" unicode="&#x1e3b;" horiz-adv-x="305" 
d="M371 757l-188 -757h-190l177 711zM215 -197h-344l28 113h344z" />
    <glyph glyph-name="uni1E3C" unicode="&#x1e3c;" horiz-adv-x="565" 
d="M516 181l-45 -181h-471l174 700h202l-129 -519h269zM309 -66l82 -194h-92l-89 78l-131 -78h-105v2l177 192h158z" />
    <glyph glyph-name="uni1E3D" unicode="&#x1e3d;" horiz-adv-x="305" 
d="M371 757l-188 -757h-190l177 711zM150 -66l82 -194h-92l-89 78l-131 -78h-105v2l177 192h158z" />
    <glyph glyph-name="uni1E3E" unicode="&#x1e3e;" horiz-adv-x="1024" 
d="M813 460l-363 -470h-13l-124 472l-138 -462h-196l215 700h254l77 -343l250 343h274l-134 -700h-194zM915 929v-2l-248 -166h-114l120 168h242z" />
    <glyph glyph-name="uni1E3F" unicode="&#x1e3f;" horiz-adv-x="951" 
d="M393 311q0 26 -14 40.5t-38 14.5q-37 0 -77 -27l-84 -339h-190l126 505l187 19l-21 -84q79 90 168 90q48 0 83 -25t50 -70q89 95 192 95q66 0 106 -42.5t40 -112.5q0 -33 -19 -113l-65 -262h-189l69 276q5 20 5 35q0 26 -14 40.5t-38 14.5q-37 0 -81 -26q-5 -36 -15 -78
l-66 -262h-189l69 276q5 20 5 35zM848 786v-2l-258 -192h-92l133 194h217z" />
    <glyph glyph-name="uni1E40" unicode="&#x1e40;" horiz-adv-x="1024" 
d="M813 460l-363 -470h-13l-124 472l-138 -462h-196l215 700h254l77 -343l250 343h274l-134 -700h-194zM637 944q40 0 67.5 -26t27.5 -65q0 -41 -29 -70t-71 -29q-41 0 -68 26t-27 65q0 41 29 70t71 29z" />
    <glyph glyph-name="uni1E41" unicode="&#x1e41;" horiz-adv-x="951" 
d="M393 311q0 26 -14 40.5t-38 14.5q-37 0 -77 -27l-84 -339h-190l126 505l187 19l-21 -84q79 90 168 90q48 0 83 -25t50 -70q89 95 192 95q66 0 106 -42.5t40 -112.5q0 -33 -19 -113l-65 -262h-189l69 276q5 20 5 35q0 26 -14 40.5t-38 14.5q-37 0 -81 -26q-5 -36 -15 -78
l-66 -262h-189l69 276q5 20 5 35zM567 583q-39 0 -65 25t-26 64q0 40 28 67.5t69 27.5q39 0 65 -25.5t26 -63.5q0 -40 -28.5 -67.5t-68.5 -27.5z" />
    <glyph glyph-name="uni1E42" unicode="&#x1e42;" horiz-adv-x="1024" 
d="M813 460l-363 -470h-13l-124 472l-138 -462h-196l215 700h254l77 -343l250 343h274l-134 -700h-194zM419 -244q-39 0 -65 25t-26 64q0 40 28 67.5t69 27.5q39 0 65 -25.5t26 -63.5q0 -40 -28.5 -67.5t-68.5 -27.5z" />
    <glyph glyph-name="uni1E43" unicode="&#x1e43;" horiz-adv-x="951" 
d="M393 311q0 26 -14 40.5t-38 14.5q-37 0 -77 -27l-84 -339h-190l126 505l187 19l-21 -84q79 90 168 90q48 0 83 -25t50 -70q89 95 192 95q66 0 106 -42.5t40 -112.5q0 -33 -19 -113l-65 -262h-189l69 276q5 20 5 35q0 26 -14 40.5t-38 14.5q-37 0 -81 -26q-5 -36 -15 -78
l-66 -262h-189l69 276q5 20 5 35zM380 -241q-39 0 -65 25t-26 64q0 40 28 67.5t69 27.5q39 0 65 -25.5t26 -63.5q0 -40 -28.5 -67.5t-68.5 -27.5z" />
    <glyph glyph-name="uni1E44" unicode="&#x1e44;" horiz-adv-x="817" 
d="M662 700h200l-174 -702h-150l-237 413l-100 -411h-201l174 700h198l203 -353zM545 944q40 0 67.5 -26t27.5 -65q0 -41 -29 -70t-71 -29q-41 0 -68 26t-27 65q0 41 29 70t71 29z" />
    <glyph glyph-name="uni1E45" unicode="&#x1e45;" horiz-adv-x="633" 
d="M404 311q0 26 -14.5 40.5t-39.5 14.5q-39 0 -87 -29l-83 -337h-190l126 505l187 19l-22 -89q83 95 176 95q66 0 106 -42.5t40 -112.5q0 -39 -18 -113l-65 -262h-190l69 276q5 20 5 35zM406 583q-39 0 -65 25t-26 64q0 40 28 67.5t69 27.5q39 0 65 -25.5t26 -63.5
q0 -40 -28.5 -67.5t-68.5 -27.5z" />
    <glyph glyph-name="uni1E46" unicode="&#x1e46;" horiz-adv-x="817" 
d="M662 700h200l-174 -702h-150l-237 413l-100 -411h-201l174 700h198l203 -353zM338 -241q-39 0 -65 25t-26 64q0 40 28 67.5t69 27.5q39 0 65 -25.5t26 -63.5q0 -40 -28.5 -67.5t-68.5 -27.5z" />
    <glyph glyph-name="uni1E47" unicode="&#x1e47;" horiz-adv-x="633" 
d="M404 311q0 26 -14.5 40.5t-39.5 14.5q-39 0 -87 -29l-83 -337h-190l126 505l187 19l-22 -89q83 95 176 95q66 0 106 -42.5t40 -112.5q0 -39 -18 -113l-65 -262h-190l69 276q5 20 5 35zM236 -236q-39 0 -65 25t-26 64q0 40 28 67.5t69 27.5q39 0 65 -25.5t26 -63.5
q0 -40 -28.5 -67.5t-68.5 -27.5z" />
    <glyph glyph-name="uni1E48" unicode="&#x1e48;" horiz-adv-x="817" 
d="M662 700h200l-174 -702h-150l-237 413l-100 -411h-201l174 700h198l203 -353zM528 -197h-401l28 113h401z" />
    <glyph glyph-name="uni1E49" unicode="&#x1e49;" horiz-adv-x="633" 
d="M404 311q0 26 -14.5 40.5t-39.5 14.5q-39 0 -87 -29l-83 -337h-190l126 505l187 19l-22 -89q83 95 176 95q66 0 106 -42.5t40 -112.5q0 -39 -18 -113l-65 -262h-190l69 276q5 20 5 35zM424 -197h-401l28 113h401z" />
    <glyph glyph-name="uni1E4A" unicode="&#x1e4a;" horiz-adv-x="817" 
d="M662 700h200l-174 -702h-150l-237 413l-100 -411h-201l174 700h198l203 -353zM435 -66l82 -194h-92l-89 78l-131 -78h-105v2l177 192h158z" />
    <glyph glyph-name="uni1E4B" unicode="&#x1e4b;" horiz-adv-x="633" 
d="M404 311q0 26 -14.5 40.5t-39.5 14.5q-39 0 -87 -29l-83 -337h-190l126 505l187 19l-22 -89q83 95 176 95q66 0 106 -42.5t40 -112.5q0 -39 -18 -113l-65 -262h-190l69 276q5 20 5 35zM333 -61l82 -194h-92l-89 78l-131 -78h-105v2l177 192h158z" />
    <glyph glyph-name="uni1E58" unicode="&#x1e58;" horiz-adv-x="688" 
d="M474 475q0 32 -23 50t-64 18h-53l-42 -169h58q56 0 90 27.5t34 73.5zM483 262l162 -262h-223l-142 238h-18l-60 -238h-202l174 700h239q123 0 191.5 -53.5t68.5 -149.5q0 -80 -50.5 -142t-139.5 -93zM471 944q40 0 67.5 -26t27.5 -65q0 -41 -29 -70t-71 -29q-41 0 -68 26
t-27 65q0 41 29 70t71 29z" />
    <glyph glyph-name="uni1E59" unicode="&#x1e59;" horiz-adv-x="459" 
d="M416 329q-70 0 -168 -51l-68 -278h-190l126 505l187 19l-32 -131q57 72 99.5 102.5t85.5 30.5q20 0 39 -8l-36 -193q-17 4 -43 4zM341 583q-39 0 -65 25t-26 64q0 40 28 67.5t69 27.5q39 0 65 -25.5t26 -63.5q0 -40 -28.5 -67.5t-68.5 -27.5z" />
    <glyph glyph-name="uni1E5A" unicode="&#x1e5a;" horiz-adv-x="688" 
d="M474 475q0 32 -23 50t-64 18h-53l-42 -169h58q56 0 90 27.5t34 73.5zM483 262l162 -262h-223l-142 238h-18l-60 -238h-202l174 700h239q123 0 191.5 -53.5t68.5 -149.5q0 -80 -50.5 -142t-139.5 -93zM284 -241q-39 0 -65 25t-26 64q0 40 28 67.5t69 27.5q39 0 65 -25.5
t26 -63.5q0 -40 -28.5 -67.5t-68.5 -27.5z" />
    <glyph glyph-name="uni1E5B" unicode="&#x1e5b;" horiz-adv-x="459" 
d="M416 329q-70 0 -168 -51l-68 -278h-190l126 505l187 19l-32 -131q57 72 99.5 102.5t85.5 30.5q20 0 39 -8l-36 -193q-17 4 -43 4zM52 -241q-39 0 -65 25t-26 64q0 40 28 67.5t69 27.5q39 0 65 -25.5t26 -63.5q0 -40 -28.5 -67.5t-68.5 -27.5z" />
    <glyph glyph-name="uni1E5C" unicode="&#x1e5c;" horiz-adv-x="688" 
d="M474 475q0 32 -23 50t-64 18h-53l-42 -169h58q56 0 90 27.5t34 73.5zM483 262l162 -262h-223l-142 238h-18l-60 -238h-202l174 700h239q123 0 191.5 -53.5t68.5 -149.5q0 -80 -50.5 -142t-139.5 -93zM663 780h-425l30 119h424zM284 -241q-39 0 -65 25t-26 64
q0 40 28 67.5t69 27.5q39 0 65 -25.5t26 -63.5q0 -40 -28.5 -67.5t-68.5 -27.5z" />
    <glyph glyph-name="uni1E5D" unicode="&#x1e5d;" horiz-adv-x="459" 
d="M416 329q-70 0 -168 -51l-68 -278h-190l126 505l187 19l-32 -131q57 72 99.5 102.5t85.5 30.5q20 0 39 -8l-36 -193q-17 4 -43 4zM497 610h-344l28 113h344zM52 -241q-39 0 -65 25t-26 64q0 40 28 67.5t69 27.5q39 0 65 -25.5t26 -63.5q0 -40 -28.5 -67.5t-68.5 -27.5z
" />
    <glyph glyph-name="uni1E5E" unicode="&#x1e5e;" horiz-adv-x="688" 
d="M474 475q0 32 -23 50t-64 18h-53l-42 -169h58q56 0 90 27.5t34 73.5zM483 262l162 -262h-223l-142 238h-18l-60 -238h-202l174 700h239q123 0 191.5 -53.5t68.5 -149.5q0 -80 -50.5 -142t-139.5 -93zM474 -197h-401l28 113h401z" />
    <glyph glyph-name="uni1E5F" unicode="&#x1e5f;" horiz-adv-x="459" 
d="M416 329q-70 0 -168 -51l-68 -278h-190l126 505l187 19l-32 -131q57 72 99.5 102.5t85.5 30.5q20 0 39 -8l-36 -193q-17 4 -43 4zM214 -197h-344l28 113h344z" />
    <glyph glyph-name="uni1E62" unicode="&#x1e62;" horiz-adv-x="582" 
d="M249 282q-82 46 -115 92.5t-33 114.5q0 99 75 161q74 62 193 62q128 0 232 -62l-27 -178l-2 -1q-111 79 -206 79q-31 0 -49 -12t-18 -32q0 -18 18 -34.5t74 -48.5q81 -44 114.5 -91t33.5 -115q0 -104 -74 -166q-75 -63 -200 -63q-65 0 -129 19.5t-110 53.5l-2 198l3 2
q56 -52 120 -81.5t121 -29.5q34 0 53.5 12.5t19.5 33.5t-18.5 38t-73.5 48zM213 -246q-39 0 -65 25t-26 64q0 40 28 67.5t69 27.5q39 0 65 -25.5t26 -63.5q0 -40 -28.5 -67.5t-68.5 -27.5z" />
    <glyph glyph-name="uni1E63" unicode="&#x1e63;" horiz-adv-x="508" 
d="M202 199q-75 31 -107 68t-32 92q0 77 61.5 123.5t164.5 46.5q115 0 204 -53l-19 -141l-3 -1q-96 67 -184 67q-49 0 -49 -27q0 -13 15.5 -23.5t60.5 -28.5q73 -30 106 -68t33 -92q0 -79 -62 -126t-165 -47q-123 0 -210 57l-5 153l3 2q44 -37 101 -59.5t105 -22.5
q58 0 58 28q0 13 -16.5 23.5t-59.5 28.5zM164 -243q-39 0 -65 25t-26 64q0 40 28 67.5t69 27.5q39 0 65 -25.5t26 -63.5q0 -40 -28.5 -67.5t-68.5 -27.5z" />
    <glyph glyph-name="uni1E6C" unicode="&#x1e6c;" horiz-adv-x="726" 
d="M140 700h666l-45 -181h-231l-129 -519h-202l129 519h-233zM266 -241q-39 0 -65 25t-26 64q0 40 28 67.5t69 27.5q39 0 65 -25.5t26 -63.5q0 -40 -28.5 -67.5t-68.5 -27.5z" />
    <glyph glyph-name="uni1E6D" unicode="&#x1e6d;" horiz-adv-x="481" 
d="M433 181l3 -2l-54 -165q-56 -25 -124 -25q-86 0 -136 46t-50 124q0 40 14 88l38 128h-73l36 143h79l31 106l199 40l-43 -146h158l-36 -143h-164l-39 -134q-6 -23 -6 -37q0 -27 17.5 -42.5t47.5 -15.5q53 0 102 35zM184 -241q-39 0 -65 25t-26 64q0 40 28 67.5t69 27.5
q39 0 65 -25.5t26 -63.5q0 -40 -28.5 -67.5t-68.5 -27.5z" />
    <glyph glyph-name="uni1E6E" unicode="&#x1e6e;" horiz-adv-x="726" 
d="M140 700h666l-45 -181h-231l-129 -519h-202l129 519h-233zM456 -197h-401l28 113h401z" />
    <glyph glyph-name="uni1E6F" unicode="&#x1e6f;" horiz-adv-x="481" 
d="M433 181l3 -2l-54 -165q-56 -25 -124 -25q-86 0 -136 46t-50 124q0 40 14 88l38 128h-73l36 143h79l31 106l199 40l-43 -146h158l-36 -143h-164l-39 -134q-6 -23 -6 -37q0 -27 17.5 -42.5t47.5 -15.5q53 0 102 35zM346 -197h-344l28 113h344z" />
    <glyph glyph-name="uni1E70" unicode="&#x1e70;" horiz-adv-x="726" 
d="M140 700h666l-45 -181h-231l-129 -519h-202l129 519h-233zM363 -66l82 -194h-92l-89 78l-131 -78h-105v2l177 192h158z" />
    <glyph glyph-name="uni1E71" unicode="&#x1e71;" horiz-adv-x="481" 
d="M433 181l3 -2l-54 -165q-56 -25 -124 -25q-86 0 -136 46t-50 124q0 40 14 88l38 128h-73l36 143h79l31 106l199 40l-43 -146h158l-36 -143h-164l-39 -134q-6 -23 -6 -37q0 -27 17.5 -42.5t47.5 -15.5q53 0 102 35zM281 -66l82 -194h-92l-89 78l-131 -78h-105v2l177 192
h158z" />
    <glyph glyph-name="uni1E7E" unicode="&#x1e7e;" horiz-adv-x="805" 
d="M906 700l-480 -707h-181l-125 707h210l63 -438l285 438h228zM309 -244q-39 0 -65 25t-26 64q0 40 28 67.5t69 27.5q39 0 65 -25.5t26 -63.5q0 -40 -28.5 -67.5t-68.5 -27.5z" />
    <glyph glyph-name="uni1E7F" unicode="&#x1e7f;" horiz-adv-x="639" 
d="M697 518l-365 -529h-158l-104 529h195l38 -288l180 288h214zM230 -241q-39 0 -65 25t-26 64q0 40 28 67.5t69 27.5q39 0 65 -25.5t26 -63.5q0 -40 -28.5 -67.5t-68.5 -27.5z" />
    <glyph glyph-name="Wgrave" unicode="&#x1e80;" horiz-adv-x="1134" 
d="M582 313l-229 -318h-178l-41 705h205l12 -417l305 424h14l112 -422l220 415h219l-393 -705h-162zM472 929h214l39 -168h-99l-154 166v2z" />
    <glyph glyph-name="wgrave" unicode="&#x1e81;" horiz-adv-x="888" 
d="M432 209l-158 -215h-151l-50 524h183l16 -280l220 286h14l86 -284l155 278h197l-311 -524h-144zM322 786h191l38 -194h-81z" />
    <glyph glyph-name="Wacute" unicode="&#x1e82;" horiz-adv-x="1134" 
d="M582 313l-229 -318h-178l-41 705h205l12 -417l305 424h14l112 -422l220 415h219l-393 -705h-162zM973 929v-2l-248 -166h-114l120 168h242z" />
    <glyph glyph-name="wacute" unicode="&#x1e83;" horiz-adv-x="888" 
d="M432 209l-158 -215h-151l-50 524h183l16 -280l220 286h14l86 -284l155 278h197l-311 -524h-144zM810 786v-2l-258 -192h-92l133 194h217z" />
    <glyph glyph-name="Wdieresis" unicode="&#x1e84;" horiz-adv-x="1134" 
d="M582 313l-229 -318h-178l-41 705h205l12 -417l305 424h14l112 -422l220 415h219l-393 -705h-162zM814 946q40 0 67 -26t27 -65q0 -42 -29 -70.5t-71 -28.5q-40 0 -67 26t-27 65q0 41 29 70t71 29zM574 946q40 0 67 -26t27 -65q0 -42 -29 -70.5t-71 -28.5q-40 0 -67 26
t-27 65q0 41 29 70t71 29z" />
    <glyph glyph-name="wdieresis" unicode="&#x1e85;" horiz-adv-x="888" 
d="M432 209l-158 -215h-151l-50 524h183l16 -280l220 286h14l86 -284l155 278h197l-311 -524h-144zM643 586q-39 0 -65.5 26t-26.5 64q0 41 29.5 70t71.5 29q39 0 66 -26t27 -64q0 -41 -29.5 -70t-72.5 -29zM404 586q-39 0 -65.5 26t-26.5 64q0 41 29.5 70t71.5 29
q39 0 66 -26t27 -64q0 -41 -29.5 -70t-72.5 -29z" />
    <glyph glyph-name="uni1E8C" unicode="&#x1e8c;" horiz-adv-x="775" 
d="M533 347l168 -347h-226l-95 206l-189 -206h-247v2l347 363l-162 335h226l90 -194l178 194h246v-2zM639 946q40 0 67 -26t27 -65q0 -42 -29 -70.5t-71 -28.5q-40 0 -67 26t-27 65q0 41 29 70t71 29zM399 946q40 0 67 -26t27 -65q0 -42 -29 -70.5t-71 -28.5q-40 0 -67 26
t-27 65q0 41 29 70t71 29z" />
    <glyph glyph-name="uni1E8D" unicode="&#x1e8d;" horiz-adv-x="629" 
d="M431 252l126 -252h-202l-67 145l-124 -145h-219v2l256 278l-118 238h201l60 -133l114 133h217v-2zM520 586q-39 0 -65.5 26t-26.5 64q0 41 29.5 70t71.5 29q39 0 66 -26t27 -64q0 -41 -29.5 -70t-72.5 -29zM281 586q-39 0 -65.5 26t-26.5 64q0 41 29.5 70t71.5 29
q39 0 66 -26t27 -64q0 -41 -29.5 -70t-72.5 -29z" />
    <glyph glyph-name="uni1E8E" unicode="&#x1e8e;" horiz-adv-x="725" 
d="M835 699l-371 -432l-66 -267h-202l68 274l-154 426h216l77 -246l196 246h236v-1zM499 944q40 0 67.5 -26t27.5 -65q0 -41 -29 -70t-71 -29q-41 0 -68 26t-27 65q0 41 29 70t71 29z" />
    <glyph glyph-name="uni1E8F" unicode="&#x1e8f;" horiz-adv-x="617" 
d="M59 -190q-32 0 -63 9l-31 174l3 2q38 -20 82 -20q68 0 114 49l-94 494h195l39 -293l162 293h208l-303 -493q-68 -113 -142 -164t-170 -51zM395 583q-39 0 -65 25t-26 64q0 40 28 67.5t69 27.5q39 0 65 -25.5t26 -63.5q0 -40 -28.5 -67.5t-68.5 -27.5z" />
    <glyph glyph-name="uni1E90" unicode="&#x1e90;" horiz-adv-x="720" 
d="M342 174h337l-93 -174h-624l-3 14l458 512h-304l44 174h640l3 -14zM597 929l93 -168h-101l-95 66l-128 -66h-116v2l174 166h173z" />
    <glyph glyph-name="uni1E91" unicode="&#x1e91;" horiz-adv-x="559" 
d="M277 144h237l-78 -144h-479l-3 12l320 362h-201l35 144h485l3 -12zM484 786l82 -194h-92l-89 78l-131 -78h-105v2l177 192h158z" />
    <glyph glyph-name="uni1E92" unicode="&#x1e92;" horiz-adv-x="720" 
d="M342 174h337l-93 -174h-624l-3 14l458 512h-304l44 174h640l3 -14zM278 -241q-39 0 -65 25t-26 64q0 40 28 67.5t69 27.5q39 0 65 -25.5t26 -63.5q0 -40 -28.5 -67.5t-68.5 -27.5z" />
    <glyph glyph-name="uni1E93" unicode="&#x1e93;" horiz-adv-x="559" 
d="M277 144h237l-78 -144h-479l-3 12l320 362h-201l35 144h485l3 -12zM181 -241q-39 0 -65 25t-26 64q0 40 28 67.5t69 27.5q39 0 65 -25.5t26 -63.5q0 -40 -28.5 -67.5t-68.5 -27.5z" />
    <glyph glyph-name="uni1E94" unicode="&#x1e94;" horiz-adv-x="720" 
d="M342 174h337l-93 -174h-624l-3 14l458 512h-304l44 174h640l3 -14zM468 -197h-401l28 113h401z" />
    <glyph glyph-name="uni1E95" unicode="&#x1e95;" horiz-adv-x="559" 
d="M277 144h237l-78 -144h-479l-3 12l320 362h-201l35 144h485l3 -12zM371 -197h-401l28 113h401z" />
    <glyph glyph-name="uni1E96" unicode="&#x1e96;" horiz-adv-x="633" 
d="M404 311q0 26 -14.5 40.5t-39.5 14.5q-40 0 -86 -29l-84 -337h-190l177 711l201 46l-77 -312q79 85 166 85q66 0 106 -42.5t40 -112.5q0 -39 -18 -113l-65 -262h-190l69 276q5 20 5 35zM424 -197h-401l28 113h401z" />
    <glyph glyph-name="uni1E9E" unicode="&#x1e9e;" horiz-adv-x="744" 
d="M688 196q0 -90 -70 -148t-181 -58q-73 0 -136 23l-8 159l2 2q57 -27 109 -27q42 0 67.5 19.5t25.5 50.5q0 61 -140 107v13l160 193q-39 16 -72 16q-56 0 -94 -34.5t-54 -99.5l-103 -412h-199l106 426q35 139 127 213t230 74q79 0 155.5 -31.5t136.5 -86.5v-12l-184 -217
q122 -62 122 -170z" />
    <glyph glyph-name="uni1EA0" unicode="&#x1ea0;" horiz-adv-x="824" 
d="M484 506l-146 -229h178zM635 701l115 -701h-202l-16 120h-288l-76 -120h-222l464 701h225zM344 -241q-39 0 -65 25t-26 64q0 40 28 67.5t69 27.5q39 0 65 -25.5t26 -63.5q0 -40 -28.5 -67.5t-68.5 -27.5z" />
    <glyph glyph-name="uni1EA1" unicode="&#x1ea1;" horiz-adv-x="575" 
d="M163 151q0 -19 14 -30t39 -11q47 0 100 27l21 81q-8 1 -32 1q-68 0 -105 -18t-37 -50zM528 235l-58 -223l-185 -19l19 68q-93 -70 -175 -70q-61 0 -97 33.5t-36 91.5q0 83 79.5 131.5t217.5 48.5q4 0 61 -3q1 4 1 17q0 71 -84 71q-83 0 -191 -59l-2 2l53 161
q93 43 197 43q101 0 158 -50.5t57 -138.5q0 -40 -15 -104zM210 -241q-39 0 -65 25t-26 64q0 40 28 67.5t69 27.5q39 0 65 -25.5t26 -63.5q0 -40 -28.5 -67.5t-68.5 -27.5z" />
    <glyph glyph-name="uni1EA2" unicode="&#x1ea2;" horiz-adv-x="824" 
d="M484 506l-146 -229h178zM635 701l115 -701h-202l-16 120h-288l-76 -120h-222l464 701h225zM714 904q0 -87 -170 -154l-82 29v3q71 33 97.5 51t26.5 33q0 19 -33 19q-54 0 -130 -42l-2 2l27 110q65 34 141 34q55 0 90 -24t35 -61z" />
    <glyph glyph-name="uni1EA3" unicode="&#x1ea3;" horiz-adv-x="575" 
d="M163 151q0 -19 14 -30t39 -11q47 0 100 27l21 81q-8 1 -32 1q-68 0 -105 -18t-37 -50zM528 235l-58 -223l-185 -19l19 68q-93 -70 -175 -70q-61 0 -97 33.5t-36 91.5q0 83 79.5 131.5t217.5 48.5q4 0 61 -3q1 4 1 17q0 71 -84 71q-83 0 -191 -59l-2 2l53 161
q93 43 197 43q101 0 158 -50.5t57 -138.5q0 -40 -15 -104zM260 683l-3 1l31 125q68 37 138 37q56 0 91 -27t35 -70q0 -46 -39.5 -86.5t-128.5 -84.5l-82 29v2q70 42 95.5 64t25.5 39q0 20 -32 20q-50 0 -131 -49z" />
    <glyph glyph-name="uni1EA4" unicode="&#x1ea4;" horiz-adv-x="824" 
d="M484 506l-146 -229h178zM635 701l115 -701h-202l-16 120h-288l-76 -120h-222l464 701h225zM1017 1018l-185 -134h-101l87 136h199v-2zM654 919l96 -158h-102l-97 63l-128 -63h-114v2l172 156h173z" />
    <glyph glyph-name="uni1EA5" unicode="&#x1ea5;" horiz-adv-x="575" 
d="M163 151q0 -19 14 -30t39 -11q47 0 100 27l21 81q-8 1 -32 1q-68 0 -105 -18t-37 -50zM528 235l-58 -223l-185 -19l19 68q-93 -70 -175 -70q-61 0 -97 33.5t-36 91.5q0 83 79.5 131.5t217.5 48.5q4 0 61 -3q1 4 1 17q0 71 -84 71q-83 0 -191 -59l-2 2l53 161
q93 43 197 43q101 0 158 -50.5t57 -138.5q0 -40 -15 -104zM825 874l-173 -148h-90l78 150h185v-2zM492 766l91 -174h-91l-97 69l-137 -69h-101v2l177 172h158z" />
    <glyph glyph-name="uni1EA6" unicode="&#x1ea6;" horiz-adv-x="824" 
d="M484 506l-146 -229h178zM635 701l115 -701h-202l-16 120h-288l-76 -120h-222l464 701h225zM661 1020h183l30 -136h-83l-130 135v1zM654 919l96 -158h-102l-97 63l-128 -63h-114v2l172 156h173z" />
    <glyph glyph-name="uni1EA7" unicode="&#x1ea7;" horiz-adv-x="575" 
d="M163 151q0 -19 14 -30t39 -11q47 0 100 27l21 81q-8 1 -32 1q-68 0 -105 -18t-37 -50zM528 235l-58 -223l-185 -19l19 68q-93 -70 -175 -70q-61 0 -97 33.5t-36 91.5q0 83 79.5 131.5t217.5 48.5q4 0 61 -3q1 4 1 17q0 71 -84 71q-83 0 -191 -59l-2 2l53 161
q93 43 197 43q101 0 158 -50.5t57 -138.5q0 -40 -15 -104zM500 876h170l26 -150h-80zM492 766l91 -174h-91l-97 69l-137 -69h-101v2l177 172h158z" />
    <glyph glyph-name="uni1EA8" unicode="&#x1ea8;" horiz-adv-x="824" 
d="M484 506l-146 -229h178zM635 701l115 -701h-202l-16 120h-288l-76 -120h-222l464 701h225zM816 969q0 18 -31 18q-43 0 -105 -31l-2 2l24 91q57 26 117 26q46 0 76 -22t30 -55q0 -35 -30 -64t-98 -59l-67 30v2q86 38 86 62zM654 919l96 -158h-102l-97 63l-128 -63h-114v2
l172 156h173z" />
    <glyph glyph-name="uni1EA9" unicode="&#x1ea9;" horiz-adv-x="575" 
d="M163 151q0 -19 14 -30t39 -11q47 0 100 27l21 81q-8 1 -32 1q-68 0 -105 -18t-37 -50zM528 235l-58 -223l-185 -19l19 68q-93 -70 -175 -70q-61 0 -97 33.5t-36 91.5q0 83 79.5 131.5t217.5 48.5q4 0 61 -3q1 4 1 17q0 71 -84 71q-83 0 -191 -59l-2 2l53 161
q93 43 197 43q101 0 158 -50.5t57 -138.5q0 -40 -15 -104zM678 800q0 18 -27 18q-43 0 -104 -40l-2 1l25 93q50 29 110 29q45 0 73 -20.5t28 -52.5q0 -35 -29 -64.5t-100 -66.5l-69 24v2q95 51 95 77zM492 766l91 -174h-91l-97 69l-137 -69h-101v2l177 172h158z" />
    <glyph glyph-name="uni1EAA" unicode="&#x1eaa;" horiz-adv-x="824" 
d="M484 506l-146 -229h178zM635 701l115 -701h-202l-16 120h-288l-76 -120h-222l464 701h225zM678 944q-22 0 -93 27q-54 23 -73 23q-15 0 -28.5 -10t-37.5 -40l-65 47q38 61 66 86t59 25q24 0 95 -27q51 -22 71 -22q15 0 28.5 10t38.5 40l64 -47q-37 -61 -65.5 -86.5
t-59.5 -25.5zM651 904l99 -143h-102l-98 58l-127 -58h-114v2l169 141h173z" />
    <glyph glyph-name="uni1EAB" unicode="&#x1eab;" horiz-adv-x="575" 
d="M163 151q0 -19 14 -30t39 -11q47 0 100 27l21 81q-8 1 -32 1q-68 0 -105 -18t-37 -50zM528 235l-58 -223l-185 -19l19 68q-93 -70 -175 -70q-61 0 -97 33.5t-36 91.5q0 83 79.5 131.5t217.5 48.5q4 0 61 -3q1 4 1 17q0 71 -84 71q-83 0 -191 -59l-2 2l53 161
q93 43 197 43q101 0 158 -50.5t57 -138.5q0 -40 -15 -104zM515 781q-24 0 -88 25q-53 21 -69 21q-15 0 -28.5 -9.5t-40.5 -36.5l-59 44q45 63 71.5 86t53.5 23q24 0 88 -25q53 -21 69 -21q14 0 28 9.5t41 37.5l59 -44q-45 -62 -73 -87q-26 -23 -52 -23zM485 741l98 -149h-91
l-100 61l-134 -61h-101v2l170 147h158z" />
    <glyph glyph-name="uni1EAC" unicode="&#x1eac;" horiz-adv-x="824" 
d="M484 506l-146 -229h178zM635 701l115 -701h-202l-16 120h-288l-76 -120h-222l464 701h225zM655 929l93 -168h-101l-95 66l-128 -66h-116v2l174 166h173zM344 -241q-39 0 -65 25t-26 64q0 40 28 67.5t69 27.5q39 0 65 -25.5t26 -63.5q0 -40 -28.5 -67.5t-68.5 -27.5z" />
    <glyph glyph-name="uni1EAD" unicode="&#x1ead;" horiz-adv-x="575" 
d="M163 151q0 -19 14 -30t39 -11q47 0 100 27l21 81q-8 1 -32 1q-68 0 -105 -18t-37 -50zM528 235l-58 -223l-185 -19l19 68q-93 -70 -175 -70q-61 0 -97 33.5t-36 91.5q0 83 79.5 131.5t217.5 48.5q4 0 61 -3q1 4 1 17q0 71 -84 71q-83 0 -191 -59l-2 2l53 161
q93 43 197 43q101 0 158 -50.5t57 -138.5q0 -40 -15 -104zM496 786l82 -194h-92l-89 78l-131 -78h-105v2l177 192h158zM210 -241q-39 0 -65 25t-26 64q0 40 28 67.5t69 27.5q39 0 65 -25.5t26 -63.5q0 -40 -28.5 -67.5t-68.5 -27.5z" />
    <glyph glyph-name="uni1EAE" unicode="&#x1eae;" horiz-adv-x="824" 
d="M484 506l-146 -229h178zM635 701l115 -701h-202l-16 120h-288l-76 -120h-222l464 701h225zM803 1079l-201 -143h-97l93 145h205v-2zM535 754q-67 0 -119.5 32.5t-81.5 91.5l71 52q55 -59 140 -59q86 0 171 59l64 -52q-45 -59 -109.5 -91.5t-135.5 -32.5z" />
    <glyph glyph-name="uni1EAF" unicode="&#x1eaf;" horiz-adv-x="575" 
d="M163 151q0 -19 14 -30t39 -11q47 0 100 27l21 81q-8 1 -32 1q-68 0 -105 -18t-37 -50zM528 235l-58 -223l-185 -19l19 68q-93 -70 -175 -70q-61 0 -97 33.5t-36 91.5q0 83 79.5 131.5t217.5 48.5q4 0 61 -3q1 4 1 17q0 71 -84 71q-83 0 -191 -59l-2 2l53 161
q93 43 197 43q101 0 158 -50.5t57 -138.5q0 -40 -15 -104zM638 917v-2l-197 -143h-95l92 145h200zM385 697q84 0 165 68l60 -59q-97 -123 -236 -123q-128 0 -186 123l63 59q50 -68 134 -68z" />
    <glyph glyph-name="uni1EB0" unicode="&#x1eb0;" horiz-adv-x="824" 
d="M484 506l-146 -229h178zM635 701l115 -701h-202l-16 120h-288l-76 -120h-222l464 701h225zM406 1081h174l27 -145h-87l-114 143v2zM535 754q-67 0 -119.5 32.5t-81.5 91.5l71 52q55 -59 140 -59q86 0 171 59l64 -52q-45 -59 -109.5 -91.5t-135.5 -32.5z" />
    <glyph glyph-name="uni1EB1" unicode="&#x1eb1;" horiz-adv-x="575" 
d="M163 151q0 -19 14 -30t39 -11q47 0 100 27l21 81q-8 1 -32 1q-68 0 -105 -18t-37 -50zM528 235l-58 -223l-185 -19l19 68q-93 -70 -175 -70q-61 0 -97 33.5t-36 91.5q0 83 79.5 131.5t217.5 48.5q4 0 61 -3q1 4 1 17q0 71 -84 71q-83 0 -191 -59l-2 2l53 161
q93 43 197 43q101 0 158 -50.5t57 -138.5q0 -40 -15 -104zM241 917h178l27 -145h-83l-122 144v1zM385 697q84 0 165 68l60 -59q-97 -123 -236 -123q-128 0 -186 123l63 59q50 -68 134 -68z" />
    <glyph glyph-name="uni1EB2" unicode="&#x1eb2;" horiz-adv-x="824" 
d="M484 506l-146 -229h178zM635 701l115 -701h-202l-16 120h-288l-76 -120h-222l464 701h225zM728 1057q0 -35 -35.5 -67t-113.5 -68l-81 28v3q108 49 108 72q0 17 -33 17q-49 0 -119 -40l-3 1l27 100q64 31 134 31q51 0 83.5 -21.5t32.5 -55.5zM535 754q-67 0 -119.5 32.5
t-81.5 91.5l71 52q55 -59 140 -59q86 0 171 59l64 -52q-45 -59 -109.5 -91.5t-135.5 -32.5z" />
    <glyph glyph-name="uni1EB3" unicode="&#x1eb3;" horiz-adv-x="575" 
d="M163 151q0 -19 14 -30t39 -11q47 0 100 27l21 81q-8 1 -32 1q-68 0 -105 -18t-37 -50zM528 235l-58 -223l-185 -19l19 68q-93 -70 -175 -70q-61 0 -97 33.5t-36 91.5q0 83 79.5 131.5t217.5 48.5q4 0 61 -3q1 4 1 17q0 71 -84 71q-83 0 -191 -59l-2 2l53 161
q93 43 197 43q101 0 158 -50.5t57 -138.5q0 -40 -15 -104zM555 884q0 -66 -139 -128l-69 22v3q97 51 97 74q0 17 -28 17q-42 0 -116 -44l-2 1l29 95q55 33 120 33q48 0 78 -20t30 -53zM385 697q84 0 165 68l60 -59q-97 -123 -236 -123q-128 0 -186 123l63 59q50 -68 134 -68
z" />
    <glyph glyph-name="uni1EB4" unicode="&#x1eb4;" horiz-adv-x="824" 
d="M484 506l-146 -229h178zM635 701l115 -701h-202l-16 120h-288l-76 -120h-222l464 701h225zM682 953q-27 0 -98 25q-59 21 -76 21q-16 0 -30.5 -9.5t-38.5 -37.5l-62 50q69 109 130 109q27 0 98 -25q59 -21 76 -21q29 0 69 46l62 -49q-38 -59 -68 -84t-62 -25zM535 754
q-67 0 -119.5 32.5t-81.5 91.5l71 52q55 -59 140 -59q86 0 171 59l64 -52q-45 -59 -109.5 -91.5t-135.5 -32.5z" />
    <glyph glyph-name="uni1EB5" unicode="&#x1eb5;" horiz-adv-x="575" 
d="M163 151q0 -19 14 -30t39 -11q47 0 100 27l21 81q-8 1 -32 1q-68 0 -105 -18t-37 -50zM528 235l-58 -223l-185 -19l19 68q-93 -70 -175 -70q-61 0 -97 33.5t-36 91.5q0 83 79.5 131.5t217.5 48.5q4 0 61 -3q1 4 1 17q0 71 -84 71q-83 0 -191 -59l-2 2l53 161
q93 43 197 43q101 0 158 -50.5t57 -138.5q0 -40 -15 -104zM504 791q-25 0 -86 26q-53 21 -69 21q-15 0 -29.5 -9.5t-40.5 -36.5l-59 43q46 63 74 88q25 22 51 22t87 -26q53 -21 69 -21q15 0 29 9t41 37l58 -44q-49 -67 -73 -87q-25 -22 -52 -22zM385 697q84 0 165 68l60 -59
q-97 -123 -236 -123q-128 0 -186 123l63 59q50 -68 134 -68z" />
    <glyph glyph-name="uni1EB6" unicode="&#x1eb6;" horiz-adv-x="824" 
d="M484 506l-146 -229h178zM635 701l115 -701h-202l-16 120h-288l-76 -120h-222l464 701h225zM534 754q-140 0 -197 131l71 59q52 -66 140 -66q83 0 167 66l66 -59q-100 -131 -247 -131zM344 -241q-39 0 -65 25t-26 64q0 40 28 67.5t69 27.5q39 0 65 -25.5t26 -63.5
q0 -40 -28.5 -67.5t-68.5 -27.5z" />
    <glyph glyph-name="uni1EB7" unicode="&#x1eb7;" horiz-adv-x="575" 
d="M163 151q0 -19 14 -30t39 -11q47 0 100 27l21 81q-8 1 -32 1q-68 0 -105 -18t-37 -50zM528 235l-58 -223l-185 -19l19 68q-93 -70 -175 -70q-61 0 -97 33.5t-36 91.5q0 83 79.5 131.5t217.5 48.5q4 0 61 -3q1 4 1 17q0 71 -84 71q-83 0 -191 -59l-2 2l53 161
q93 43 197 43q101 0 158 -50.5t57 -138.5q0 -40 -15 -104zM388 710q81 0 166 78l61 -63q-97 -142 -236 -142q-64 0 -113.5 37.5t-74.5 104.5l66 63q53 -78 131 -78zM210 -241q-39 0 -65 25t-26 64q0 40 28 67.5t69 27.5q39 0 65 -25.5t26 -63.5q0 -40 -28.5 -67.5
t-68.5 -27.5z" />
    <glyph glyph-name="uni1EB8" unicode="&#x1eb8;" horiz-adv-x="602" 
d="M548 169l-72 -169h-476l174 700h487l-42 -169h-288l-27 -107h242l-36 -145h-242l-27 -110h307zM221 -241q-39 0 -65 25t-26 64q0 40 28 67.5t69 27.5q39 0 65 -25.5t26 -63.5q0 -40 -28.5 -67.5t-68.5 -27.5z" />
    <glyph glyph-name="uni1EB9" unicode="&#x1eb9;" horiz-adv-x="574" 
d="M395 330q0 35 -17.5 55t-47.5 20q-34 0 -65 -26t-47 -67h176q1 4 1 18zM492 165l2 -1l-33 -134q-87 -40 -195 -40q-110 0 -175 61t-65 165q0 134 93 225q91 91 227 91q97 0 154 -54t57 -146q0 -59 -19 -116h-343q12 -87 122 -87q85 0 175 36zM210 -246q-39 0 -65 25
t-26 64q0 40 28 67.5t69 27.5q39 0 65 -25.5t26 -63.5q0 -40 -28.5 -67.5t-68.5 -27.5z" />
    <glyph glyph-name="uni1EBA" unicode="&#x1eba;" horiz-adv-x="602" 
d="M548 169l-72 -169h-476l174 700h487l-42 -169h-288l-27 -107h242l-36 -145h-242l-27 -110h307zM609 904q0 -87 -170 -154l-82 29v3q71 33 97.5 51t26.5 33q0 19 -33 19q-54 0 -130 -42l-2 2l27 110q65 34 141 34q55 0 90 -24t35 -61z" />
    <glyph glyph-name="uni1EBB" unicode="&#x1ebb;" horiz-adv-x="574" 
d="M395 330q0 35 -17.5 55t-47.5 20q-34 0 -65 -26t-47 -67h176q1 4 1 18zM492 165l2 -1l-33 -134q-87 -40 -195 -40q-110 0 -175 61t-65 165q0 134 93 225q91 91 227 91q97 0 154 -54t57 -146q0 -59 -19 -116h-343q12 -87 122 -87q85 0 175 36zM261 688l-3 1l31 125
q68 37 138 37q56 0 91 -27t35 -70q0 -46 -39.5 -86.5t-128.5 -84.5l-82 29v2q70 42 95.5 64t25.5 39q0 20 -32 20q-50 0 -131 -49z" />
    <glyph glyph-name="uni1EBC" unicode="&#x1ebc;" horiz-adv-x="602" 
d="M548 169l-72 -169h-476l174 700h487l-42 -169h-288l-27 -107h242l-36 -145h-242l-27 -110h307zM468 906q54 -23 74 -23q17 0 32.5 10.5t45.5 42.5l66 -53q-48 -70 -82.5 -99t-71.5 -29q-31 0 -99 29q-54 23 -75 23q-16 0 -32 -10.5t-46 -42.5l-66 53q48 71 83 99.5
t71 28.5q32 0 100 -29z" />
    <glyph glyph-name="uni1EBD" unicode="&#x1ebd;" horiz-adv-x="574" 
d="M395 330q0 35 -17.5 55t-47.5 20q-34 0 -65 -26t-47 -67h176q1 4 1 18zM492 165l2 -1l-33 -134q-87 -40 -195 -40q-110 0 -175 61t-65 165q0 134 93 225q91 91 227 91q97 0 154 -54t57 -146q0 -59 -19 -116h-343q12 -87 122 -87q85 0 175 36zM404 753q54 -29 75 -29
q14 0 30 11q11 8 52 52l67 -49q-57 -89 -90 -119q-32 -29 -67 -29q-30 0 -88 32q-55 28 -75 28q-16 0 -32 -11.5t-50 -50.5l-67 49q57 89 91 120q31 28 66 28q25 0 88 -32z" />
    <glyph glyph-name="uni1EBE" unicode="&#x1ebe;" horiz-adv-x="602" 
d="M548 169l-72 -169h-476l174 700h487l-42 -169h-288l-27 -107h242l-36 -145h-242l-27 -110h307zM912 1018l-185 -134h-101l87 136h199v-2zM549 919l96 -158h-102l-97 63l-128 -63h-114v2l172 156h173z" />
    <glyph glyph-name="uni1EBF" unicode="&#x1ebf;" horiz-adv-x="574" 
d="M395 330q0 35 -17.5 55t-47.5 20q-34 0 -65 -26t-47 -67h176q1 4 1 18zM492 165l2 -1l-33 -134q-87 -40 -195 -40q-110 0 -175 61t-65 165q0 134 93 225q91 91 227 91q97 0 154 -54t57 -146q0 -59 -19 -116h-343q12 -87 122 -87q85 0 175 36zM826 879l-173 -148h-90
l78 150h185v-2zM493 771l91 -174h-91l-97 69l-137 -69h-101v2l177 172h158z" />
    <glyph glyph-name="uni1EC0" unicode="&#x1ec0;" horiz-adv-x="602" 
d="M548 169l-72 -169h-476l174 700h487l-42 -169h-288l-27 -107h242l-36 -145h-242l-27 -110h307zM556 1020h183l30 -136h-83l-130 135v1zM549 919l96 -158h-102l-97 63l-128 -63h-114v2l172 156h173z" />
    <glyph glyph-name="uni1EC1" unicode="&#x1ec1;" horiz-adv-x="574" 
d="M395 330q0 35 -17.5 55t-47.5 20q-34 0 -65 -26t-47 -67h176q1 4 1 18zM492 165l2 -1l-33 -134q-87 -40 -195 -40q-110 0 -175 61t-65 165q0 134 93 225q91 91 227 91q97 0 154 -54t57 -146q0 -59 -19 -116h-343q12 -87 122 -87q85 0 175 36zM501 881h170l26 -150h-80z
M493 771l91 -174h-91l-97 69l-137 -69h-101v2l177 172h158z" />
    <glyph glyph-name="uni1EC2" unicode="&#x1ec2;" horiz-adv-x="602" 
d="M548 169l-72 -169h-476l174 700h487l-42 -169h-288l-27 -107h242l-36 -145h-242l-27 -110h307zM711 969q0 18 -31 18q-43 0 -105 -31l-2 2l24 91q57 26 117 26q46 0 76 -22t30 -55q0 -35 -30 -64t-98 -59l-67 30v2q86 38 86 62zM549 919l96 -158h-102l-97 63l-128 -63
h-114v2l172 156h173z" />
    <glyph glyph-name="uni1EC3" unicode="&#x1ec3;" horiz-adv-x="574" 
d="M395 330q0 35 -17.5 55t-47.5 20q-34 0 -65 -26t-47 -67h176q1 4 1 18zM492 165l2 -1l-33 -134q-87 -40 -195 -40q-110 0 -175 61t-65 165q0 134 93 225q91 91 227 91q97 0 154 -54t57 -146q0 -59 -19 -116h-343q12 -87 122 -87q85 0 175 36zM679 805q0 18 -27 18
q-43 0 -104 -40l-2 1l25 93q50 29 110 29q45 0 73 -20.5t28 -52.5q0 -35 -29 -64.5t-100 -66.5l-69 24v2q95 51 95 77zM493 771l91 -174h-91l-97 69l-137 -69h-101v2l177 172h158z" />
    <glyph glyph-name="uni1EC4" unicode="&#x1ec4;" horiz-adv-x="602" 
d="M548 169l-72 -169h-476l174 700h487l-42 -169h-288l-27 -107h242l-36 -145h-242l-27 -110h307zM573 944q-22 0 -93 27q-54 23 -73 23q-15 0 -28.5 -10t-37.5 -40l-65 47q38 61 66 86t59 25q24 0 95 -27q51 -22 71 -22q15 0 28.5 10t38.5 40l64 -47q-37 -61 -65.5 -86.5
t-59.5 -25.5zM546 904l99 -143h-102l-98 58l-127 -58h-114v2l169 141h173z" />
    <glyph glyph-name="uni1EC5" unicode="&#x1ec5;" horiz-adv-x="574" 
d="M395 330q0 35 -17.5 55t-47.5 20q-34 0 -65 -26t-47 -67h176q1 4 1 18zM492 165l2 -1l-33 -134q-87 -40 -195 -40q-110 0 -175 61t-65 165q0 134 93 225q91 91 227 91q97 0 154 -54t57 -146q0 -59 -19 -116h-343q12 -87 122 -87q85 0 175 36zM516 786q-24 0 -88 25
q-53 21 -69 21q-15 0 -28.5 -9.5t-40.5 -36.5l-59 44q45 63 71.5 86t53.5 23q24 0 88 -25q53 -21 69 -21q14 0 28 9.5t41 37.5l59 -44q-45 -62 -73 -87q-26 -23 -52 -23zM486 746l98 -149h-91l-100 61l-134 -61h-101v2l170 147h158z" />
    <glyph glyph-name="uni1EC6" unicode="&#x1ec6;" horiz-adv-x="602" 
d="M548 169l-72 -169h-476l174 700h487l-42 -169h-288l-27 -107h242l-36 -145h-242l-27 -110h307zM550 929l93 -168h-101l-95 66l-128 -66h-116v2l174 166h173zM221 -241q-39 0 -65 25t-26 64q0 40 28 67.5t69 27.5q39 0 65 -25.5t26 -63.5q0 -40 -28.5 -67.5t-68.5 -27.5z
" />
    <glyph glyph-name="uni1EC7" unicode="&#x1ec7;" horiz-adv-x="574" 
d="M395 330q0 35 -17.5 55t-47.5 20q-34 0 -65 -26t-47 -67h176q1 4 1 18zM492 165l2 -1l-33 -134q-87 -40 -195 -40q-110 0 -175 61t-65 165q0 134 93 225q91 91 227 91q97 0 154 -54t57 -146q0 -59 -19 -116h-343q12 -87 122 -87q85 0 175 36zM497 791l82 -194h-92l-89 78
l-131 -78h-105v2l177 192h158zM210 -246q-39 0 -65 25t-26 64q0 40 28 67.5t69 27.5q39 0 65 -25.5t26 -63.5q0 -40 -28.5 -67.5t-68.5 -27.5z" />
    <glyph glyph-name="uni1EC8" unicode="&#x1ec8;" horiz-adv-x="338" 
d="M379 700l-174 -700h-202l174 700h202zM477 904q0 -87 -170 -154l-82 29v3q71 33 97.5 51t26.5 33q0 19 -33 19q-54 0 -130 -42l-2 2l27 110q65 34 141 34q55 0 90 -24t35 -61z" />
    <glyph glyph-name="uni1EC9" unicode="&#x1ec9;" horiz-adv-x="305" 
d="M312 518l-129 -518h-190l129 518h190zM124 683l-3 1l31 125q68 37 138 37q56 0 91 -27t35 -70q0 -46 -39.5 -86.5t-128.5 -84.5l-82 29v2q70 42 95.5 64t25.5 39q0 20 -32 20q-50 0 -131 -49z" />
    <glyph glyph-name="uni1ECA" unicode="&#x1eca;" horiz-adv-x="338" 
d="M379 700l-174 -700h-202l174 700h202zM70 -241q-39 0 -65 25t-26 64q0 40 28 67.5t69 27.5q39 0 65 -25.5t26 -63.5q0 -40 -28.5 -67.5t-68.5 -27.5z" />
    <glyph glyph-name="uni1ECB" unicode="&#x1ecb;" horiz-adv-x="305" 
d="M260 781q46 0 76 -27.5t30 -70.5q0 -46 -32.5 -76.5t-81.5 -30.5q-46 0 -76 27.5t-30 70.5q0 46 32.5 76.5t81.5 30.5zM312 518l-129 -518h-190l129 518h190zM53 -241q-39 0 -65 25t-26 64q0 40 28 67.5t69 27.5q39 0 65 -25.5t26 -63.5q0 -40 -28.5 -67.5t-68.5 -27.5z
" />
    <glyph glyph-name="uni1ECC" unicode="&#x1ecc;" horiz-adv-x="821" 
d="M687 106q-120 -120 -296 -120q-148 0 -241 87t-93 226q0 176 122 295q120 120 296 120q148 0 241 -87t93 -226q0 -176 -122 -295zM264 315q0 -66 39.5 -106.5t103.5 -40.5q79 0 138 63q57 63 57 154q0 66 -39.5 106.5t-103.5 40.5q-80 0 -137 -63q-58 -62 -58 -154z
M335 -246q-39 0 -65 25t-26 64q0 40 28 67.5t69 27.5q39 0 65 -25.5t26 -63.5q0 -40 -28.5 -67.5t-68.5 -27.5z" />
    <glyph glyph-name="uni1ECD" unicode="&#x1ecd;" horiz-adv-x="619" 
d="M591 293q0 -130 -89 -219q-89 -88 -221 -88q-112 0 -182 67q-71 66 -71 172q0 131 90 219q88 88 220 88q112 0 183 -66q70 -67 70 -173zM411 282q0 41 -23.5 66t-60.5 25q-49 0 -84 -39q-35 -41 -35 -98q0 -41 23 -65.5t61 -24.5q50 0 84.5 39t34.5 97zM226 -246
q-39 0 -65 25t-26 64q0 40 28 67.5t69 27.5q39 0 65 -25.5t26 -63.5q0 -40 -28.5 -67.5t-68.5 -27.5z" />
    <glyph glyph-name="uni1ECE" unicode="&#x1ece;" horiz-adv-x="821" 
d="M687 106q-120 -120 -296 -120q-148 0 -241 87t-93 226q0 176 122 295q120 120 296 120q148 0 241 -87t93 -226q0 -176 -122 -295zM264 315q0 -66 39.5 -106.5t103.5 -40.5q79 0 138 63q57 63 57 154q0 66 -39.5 106.5t-103.5 40.5q-80 0 -137 -63q-58 -62 -58 -154z
M701 909q0 -87 -170 -154l-82 29v3q71 33 97.5 51t26.5 33q0 19 -33 19q-54 0 -130 -42l-2 2l27 110q65 34 141 34q55 0 90 -24t35 -61z" />
    <glyph glyph-name="uni1ECF" unicode="&#x1ecf;" horiz-adv-x="619" 
d="M591 293q0 -130 -89 -219q-89 -88 -221 -88q-112 0 -182 67q-71 66 -71 172q0 131 90 219q88 88 220 88q112 0 183 -66q70 -67 70 -173zM411 282q0 41 -23.5 66t-60.5 25q-49 0 -84 -39q-35 -41 -35 -98q0 -41 23 -65.5t61 -24.5q50 0 84.5 39t34.5 97zM268 688l-3 1
l31 125q68 37 138 37q56 0 91 -27t35 -70q0 -46 -39.5 -86.5t-128.5 -84.5l-82 29v2q70 42 95.5 64t25.5 39q0 20 -32 20q-50 0 -131 -49z" />
    <glyph glyph-name="uni1ED0" unicode="&#x1ed0;" horiz-adv-x="821" 
d="M687 106q-120 -120 -296 -120q-148 0 -241 87t-93 226q0 176 122 295q120 120 296 120q148 0 241 -87t93 -226q0 -176 -122 -295zM264 315q0 -66 39.5 -106.5t103.5 -40.5q79 0 138 63q57 63 57 154q0 66 -39.5 106.5t-103.5 40.5q-80 0 -137 -63q-58 -62 -58 -154z
M1004 1023l-185 -134h-101l87 136h199v-2zM641 924l96 -158h-102l-97 63l-128 -63h-114v2l172 156h173z" />
    <glyph glyph-name="uni1ED1" unicode="&#x1ed1;" horiz-adv-x="619" 
d="M591 293q0 -130 -89 -219q-89 -88 -221 -88q-112 0 -182 67q-71 66 -71 172q0 131 90 219q88 88 220 88q112 0 183 -66q70 -67 70 -173zM411 282q0 41 -23.5 66t-60.5 25q-49 0 -84 -39q-35 -41 -35 -98q0 -41 23 -65.5t61 -24.5q50 0 84.5 39t34.5 97zM833 879
l-173 -148h-90l78 150h185v-2zM500 771l91 -174h-91l-97 69l-137 -69h-101v2l177 172h158z" />
    <glyph glyph-name="uni1ED2" unicode="&#x1ed2;" horiz-adv-x="821" 
d="M687 106q-120 -120 -296 -120q-148 0 -241 87t-93 226q0 176 122 295q120 120 296 120q148 0 241 -87t93 -226q0 -176 -122 -295zM264 315q0 -66 39.5 -106.5t103.5 -40.5q79 0 138 63q57 63 57 154q0 66 -39.5 106.5t-103.5 40.5q-80 0 -137 -63q-58 -62 -58 -154z
M648 1025h183l30 -136h-83l-130 135v1zM641 924l96 -158h-102l-97 63l-128 -63h-114v2l172 156h173z" />
    <glyph glyph-name="uni1ED3" unicode="&#x1ed3;" horiz-adv-x="619" 
d="M591 293q0 -130 -89 -219q-89 -88 -221 -88q-112 0 -182 67q-71 66 -71 172q0 131 90 219q88 88 220 88q112 0 183 -66q70 -67 70 -173zM411 282q0 41 -23.5 66t-60.5 25q-49 0 -84 -39q-35 -41 -35 -98q0 -41 23 -65.5t61 -24.5q50 0 84.5 39t34.5 97zM508 881h170
l26 -150h-80zM500 771l91 -174h-91l-97 69l-137 -69h-101v2l177 172h158z" />
    <glyph glyph-name="uni1ED4" unicode="&#x1ed4;" horiz-adv-x="821" 
d="M687 106q-120 -120 -296 -120q-148 0 -241 87t-93 226q0 176 122 295q120 120 296 120q148 0 241 -87t93 -226q0 -176 -122 -295zM264 315q0 -66 39.5 -106.5t103.5 -40.5q79 0 138 63q57 63 57 154q0 66 -39.5 106.5t-103.5 40.5q-80 0 -137 -63q-58 -62 -58 -154z
M803 974q0 18 -31 18q-43 0 -105 -31l-2 2l24 91q57 26 117 26q46 0 76 -22t30 -55q0 -35 -30 -64t-98 -59l-67 30v2q86 38 86 62zM641 924l96 -158h-102l-97 63l-128 -63h-114v2l172 156h173z" />
    <glyph glyph-name="uni1ED5" unicode="&#x1ed5;" horiz-adv-x="619" 
d="M591 293q0 -130 -89 -219q-89 -88 -221 -88q-112 0 -182 67q-71 66 -71 172q0 131 90 219q88 88 220 88q112 0 183 -66q70 -67 70 -173zM411 282q0 41 -23.5 66t-60.5 25q-49 0 -84 -39q-35 -41 -35 -98q0 -41 23 -65.5t61 -24.5q50 0 84.5 39t34.5 97zM686 805
q0 18 -27 18q-43 0 -104 -40l-2 1l25 93q50 29 110 29q45 0 73 -20.5t28 -52.5q0 -35 -29 -64.5t-100 -66.5l-69 24v2q95 51 95 77zM500 771l91 -174h-91l-97 69l-137 -69h-101v2l177 172h158z" />
    <glyph glyph-name="uni1ED6" unicode="&#x1ed6;" horiz-adv-x="821" 
d="M687 106q-120 -120 -296 -120q-148 0 -241 87t-93 226q0 176 122 295q120 120 296 120q148 0 241 -87t93 -226q0 -176 -122 -295zM264 315q0 -66 39.5 -106.5t103.5 -40.5q79 0 138 63q57 63 57 154q0 66 -39.5 106.5t-103.5 40.5q-80 0 -137 -63q-58 -62 -58 -154z
M665 949q-22 0 -93 27q-54 23 -73 23q-15 0 -28.5 -10t-37.5 -40l-65 47q38 61 66 86t59 25q24 0 95 -27q51 -22 71 -22q15 0 28.5 10t38.5 40l64 -47q-37 -61 -65.5 -86.5t-59.5 -25.5zM638 909l99 -143h-102l-98 58l-127 -58h-114v2l169 141h173z" />
    <glyph glyph-name="uni1ED7" unicode="&#x1ed7;" horiz-adv-x="619" 
d="M591 293q0 -130 -89 -219q-89 -88 -221 -88q-112 0 -182 67q-71 66 -71 172q0 131 90 219q88 88 220 88q112 0 183 -66q70 -67 70 -173zM411 282q0 41 -23.5 66t-60.5 25q-49 0 -84 -39q-35 -41 -35 -98q0 -41 23 -65.5t61 -24.5q50 0 84.5 39t34.5 97zM523 786
q-24 0 -88 25q-53 21 -69 21q-15 0 -28.5 -9.5t-40.5 -36.5l-59 44q45 63 71.5 86t53.5 23q24 0 88 -25q53 -21 69 -21q14 0 28 9.5t41 37.5l59 -44q-45 -62 -73 -87q-26 -23 -52 -23zM493 746l98 -149h-91l-100 61l-134 -61h-101v2l170 147h158z" />
    <glyph glyph-name="uni1ED8" unicode="&#x1ed8;" horiz-adv-x="821" 
d="M687 106q-120 -120 -296 -120q-148 0 -241 87t-93 226q0 176 122 295q120 120 296 120q148 0 241 -87t93 -226q0 -176 -122 -295zM264 315q0 -66 39.5 -106.5t103.5 -40.5q79 0 138 63q57 63 57 154q0 66 -39.5 106.5t-103.5 40.5q-80 0 -137 -63q-58 -62 -58 -154z
M642 934l93 -168h-101l-95 66l-128 -66h-116v2l174 166h173zM335 -246q-39 0 -65 25t-26 64q0 40 28 67.5t69 27.5q39 0 65 -25.5t26 -63.5q0 -40 -28.5 -67.5t-68.5 -27.5z" />
    <glyph glyph-name="uni1ED9" unicode="&#x1ed9;" horiz-adv-x="619" 
d="M591 293q0 -130 -89 -219q-89 -88 -221 -88q-112 0 -182 67q-71 66 -71 172q0 131 90 219q88 88 220 88q112 0 183 -66q70 -67 70 -173zM411 282q0 41 -23.5 66t-60.5 25q-49 0 -84 -39q-35 -41 -35 -98q0 -41 23 -65.5t61 -24.5q50 0 84.5 39t34.5 97zM504 791l82 -194
h-92l-89 78l-131 -78h-105v2l177 192h158zM226 -246q-39 0 -65 25t-26 64q0 40 28 67.5t69 27.5q39 0 65 -25.5t26 -63.5q0 -40 -28.5 -67.5t-68.5 -27.5z" />
    <glyph glyph-name="uni1EDA" unicode="&#x1eda;" horiz-adv-x="821" 
d="M687 106q-120 -120 -296 -120q-148 0 -241 87t-93 226q0 175 122 292q120 117 295 117q22 0 82 -4t81 -4q69 0 103.5 33.5t43.5 107.5h131q0 -198 -181 -240q75 -81 75 -200q0 -176 -122 -295zM264 315q0 -66 39.5 -106.5t103.5 -40.5q79 0 138 63q57 63 57 154
q0 66 -40 106t-104 40q-79 0 -136 -63q-58 -62 -58 -153zM816 934v-2l-248 -166h-114l120 168h242z" />
    <glyph glyph-name="uni1EDB" unicode="&#x1edb;" horiz-adv-x="619" 
d="M591 293q0 -130 -89 -219q-89 -88 -221 -88q-112 0 -182 67q-71 66 -71 172q0 128 90 215q89 86 220 86q6 0 21.5 -1t30.5 -1q31 -3 53 -3q64 0 94 26.5t35 85.5h113q0 -83 -34.5 -130t-107.5 -64q48 -62 48 -146zM411 282q0 40 -23 63.5t-61 23.5q-50 0 -84.5 -38.5
t-34.5 -95.5q0 -41 23 -65t61 -24q50 0 84.5 39t34.5 97zM676 791v-2l-258 -192h-92l133 194h217z" />
    <glyph glyph-name="uni1EDC" unicode="&#x1edc;" horiz-adv-x="821" 
d="M687 106q-120 -120 -296 -120q-148 0 -241 87t-93 226q0 175 122 292q120 117 295 117q22 0 82 -4t81 -4q69 0 103.5 33.5t43.5 107.5h131q0 -198 -181 -240q75 -81 75 -200q0 -176 -122 -295zM264 315q0 -66 39.5 -106.5t103.5 -40.5q79 0 138 63q57 63 57 154
q0 66 -40 106t-104 40q-79 0 -136 -63q-58 -62 -58 -153zM315 934h214l39 -168h-99l-154 166v2z" />
    <glyph glyph-name="uni1EDD" unicode="&#x1edd;" horiz-adv-x="619" 
d="M591 293q0 -130 -89 -219q-89 -88 -221 -88q-112 0 -182 67q-71 66 -71 172q0 128 90 215q89 86 220 86q6 0 21.5 -1t30.5 -1q31 -3 53 -3q64 0 94 26.5t35 85.5h113q0 -83 -34.5 -130t-107.5 -64q48 -62 48 -146zM411 282q0 40 -23 63.5t-61 23.5q-50 0 -84.5 -38.5
t-34.5 -95.5q0 -41 23 -65t61 -24q50 0 84.5 39t34.5 97zM188 791h191l38 -194h-81z" />
    <glyph glyph-name="uni1EDE" unicode="&#x1ede;" horiz-adv-x="821" 
d="M687 106q-120 -120 -296 -120q-148 0 -241 87t-93 226q0 175 122 292q120 117 295 117q22 0 82 -4t81 -4q69 0 103.5 33.5t43.5 107.5h131q0 -198 -181 -240q75 -81 75 -200q0 -176 -122 -295zM264 315q0 -66 39.5 -106.5t103.5 -40.5q79 0 138 63q57 63 57 154
q0 66 -40 106t-104 40q-79 0 -136 -63q-58 -62 -58 -153zM703 909q0 -87 -170 -154l-82 29v3q71 33 97.5 51t26.5 33q0 19 -33 19q-54 0 -130 -42l-2 2l27 110q65 34 141 34q55 0 90 -24t35 -61z" />
    <glyph glyph-name="uni1EDF" unicode="&#x1edf;" horiz-adv-x="619" 
d="M591 293q0 -130 -89 -219q-89 -88 -221 -88q-112 0 -182 67q-71 66 -71 172q0 128 90 215q89 86 220 86q6 0 21.5 -1t30.5 -1q31 -3 53 -3q64 0 94 26.5t35 85.5h113q0 -83 -34.5 -130t-107.5 -64q48 -62 48 -146zM411 282q0 40 -23 63.5t-61 23.5q-50 0 -84.5 -38.5
t-34.5 -95.5q0 -41 23 -65t61 -24q50 0 84.5 39t34.5 97zM268 688l-3 1l31 125q68 37 138 37q56 0 91 -27t35 -70q0 -46 -39.5 -86.5t-128.5 -84.5l-82 29v2q70 42 95.5 64t25.5 39q0 20 -32 20q-50 0 -131 -49z" />
    <glyph glyph-name="uni1EE0" unicode="&#x1ee0;" horiz-adv-x="821" 
d="M534 911q52 -23 71 -23q17 0 33 11t43 42l66 -53q-47 -71 -80 -99.5t-68 -28.5q-31 0 -95 29q-52 23 -71 23q-17 0 -33 -11t-43 -42l-65 53q46 70 79 99t68 29q31 0 95 -29zM687 106q-120 -120 -296 -120q-148 0 -241 87t-93 226q0 175 122 292q120 117 295 117
q22 0 82 -4t81 -4q69 0 103.5 33.5t43.5 107.5h131q0 -198 -181 -240q75 -81 75 -200q0 -176 -122 -295zM264 315q0 -66 39.5 -106.5t103.5 -40.5q79 0 138 63q57 63 57 154q0 66 -40 106t-104 40q-79 0 -136 -63q-58 -62 -58 -153z" />
    <glyph glyph-name="uni1EE1" unicode="&#x1ee1;" horiz-adv-x="619" 
d="M370 752q49 -28 67 -28q13 0 27 11q15 11 48 52l67 -49q-54 -91 -81 -118q-30 -30 -62 -30q-28 0 -81 32q-49 28 -67 28q-14 0 -27 -10q-11 -9 -48 -52l-67 49q54 91 82 119q29 29 61 29q26 0 81 -33zM591 293q0 -130 -89 -219q-89 -88 -221 -88q-112 0 -182 67
q-71 66 -71 172q0 128 90 215q89 86 220 86q6 0 21.5 -1t30.5 -1q31 -3 53 -3q64 0 94 26.5t35 85.5h113q0 -83 -34.5 -130t-107.5 -64q48 -62 48 -146zM411 282q0 40 -23 63.5t-61 23.5q-50 0 -84.5 -38.5t-34.5 -95.5q0 -41 23 -65t61 -24q50 0 84.5 39t34.5 97z" />
    <glyph glyph-name="uni1EE2" unicode="&#x1ee2;" horiz-adv-x="821" 
d="M687 106q-120 -120 -296 -120q-148 0 -241 87t-93 226q0 175 122 292q120 117 295 117q22 0 82 -4t81 -4q69 0 103.5 33.5t43.5 107.5h131q0 -198 -181 -240q75 -81 75 -200q0 -176 -122 -295zM264 315q0 -66 39.5 -106.5t103.5 -40.5q79 0 138 63q57 63 57 154
q0 66 -40 106t-104 40q-79 0 -136 -63q-58 -62 -58 -153zM333 -246q-39 0 -65 25t-26 64q0 40 28 67.5t69 27.5q39 0 65 -25.5t26 -63.5q0 -40 -28.5 -67.5t-68.5 -27.5z" />
    <glyph glyph-name="uni1EE3" unicode="&#x1ee3;" horiz-adv-x="619" 
d="M591 293q0 -130 -89 -219q-89 -88 -221 -88q-112 0 -182 67q-71 66 -71 172q0 128 90 215q89 86 220 86q6 0 21.5 -1t30.5 -1q31 -3 53 -3q64 0 94 26.5t35 85.5h113q0 -83 -34.5 -130t-107.5 -64q48 -62 48 -146zM411 282q0 40 -23 63.5t-61 23.5q-50 0 -84.5 -38.5
t-34.5 -95.5q0 -41 23 -65t61 -24q50 0 84.5 39t34.5 97zM226 -246q-39 0 -65 25t-26 64q0 40 28 67.5t69 27.5q39 0 65 -25.5t26 -63.5q0 -40 -28.5 -67.5t-68.5 -27.5z" />
    <glyph glyph-name="uni1EE4" unicode="&#x1ee4;" horiz-adv-x="780" 
d="M66 243q0 47 17 114l86 343h202l-93 -373q-8 -37 -8 -55q0 -50 28.5 -78t79.5 -28q57 0 99 38t59 107l96 389h199l-105 -421q-72 -291 -373 -291q-133 0 -210 69q-77 68 -77 186zM308 -246q-39 0 -65 25t-26 64q0 40 28 67.5t69 27.5q39 0 65 -25.5t26 -63.5
q0 -40 -28.5 -67.5t-68.5 -27.5z" />
    <glyph glyph-name="uni1EE5" unicode="&#x1ee5;" horiz-adv-x="633" 
d="M643 518l-129 -518h-183l21 83q-83 -95 -176 -95q-66 0 -106 42.5t-40 112.5q0 39 18 113l66 262h189l-69 -276q-5 -16 -5 -35q0 -54 55 -54q38 0 86 29l83 336h190zM233 -241q-39 0 -65 25t-26 64q0 40 28 67.5t69 27.5q39 0 65 -25.5t26 -63.5q0 -40 -28.5 -67.5
t-68.5 -27.5z" />
    <glyph glyph-name="uni1EE6" unicode="&#x1ee6;" horiz-adv-x="780" 
d="M66 243q0 47 17 114l86 343h202l-93 -373q-8 -37 -8 -55q0 -50 28.5 -78t79.5 -28q57 0 99 38t59 107l96 389h199l-105 -421q-72 -291 -373 -291q-133 0 -210 69q-77 68 -77 186zM698 904q0 -87 -170 -154l-82 29v3q71 33 97.5 51t26.5 33q0 19 -33 19q-54 0 -130 -42
l-2 2l27 110q65 34 141 34q55 0 90 -24t35 -61z" />
    <glyph glyph-name="uni1EE7" unicode="&#x1ee7;" horiz-adv-x="633" 
d="M643 518l-129 -518h-183l21 83q-83 -95 -176 -95q-66 0 -106 42.5t-40 112.5q0 39 18 113l66 262h189l-69 -276q-5 -16 -5 -35q0 -54 55 -54q38 0 86 29l83 336h190zM279 683l-3 1l31 125q68 37 138 37q56 0 91 -27t35 -70q0 -46 -39.5 -86.5t-128.5 -84.5l-82 29v2
q70 42 95.5 64t25.5 39q0 20 -32 20q-50 0 -131 -49z" />
    <glyph glyph-name="uni1EE8" unicode="&#x1ee8;" horiz-adv-x="820" 
d="M353 -12q-133 0 -210 69q-77 68 -77 186q0 47 17 114l86 343h202l-93 -373q-8 -37 -8 -55q0 -50 28.5 -78t79.5 -28q57 0 99 38t59 107l96 389h68q69 0 103 33t43 108h132q0 -194 -171 -237l-81 -325q-72 -291 -373 -291zM811 929v-2l-248 -166h-114l120 168h242z" />
    <glyph glyph-name="uni1EE9" unicode="&#x1ee9;" horiz-adv-x="657" 
d="M622 436l-108 -436h-183l21 83q-83 -95 -176 -95q-66 0 -106 42.5t-40 112.5q0 39 18 113l66 262h189l-69 -276q-5 -16 -5 -35q0 -54 55 -54q38 0 86 29l83 336h67q64 0 94 24.5t34 80.5h114q0 -80 -34 -125.5t-106 -61.5zM687 786v-2l-258 -192h-92l133 194h217z" />
    <glyph glyph-name="uni1EEA" unicode="&#x1eea;" horiz-adv-x="820" 
d="M353 -12q-133 0 -210 69q-77 68 -77 186q0 47 17 114l86 343h202l-93 -373q-8 -37 -8 -55q0 -50 28.5 -78t79.5 -28q57 0 99 38t59 107l96 389h68q69 0 103 33t43 108h132q0 -194 -171 -237l-81 -325q-72 -291 -373 -291zM310 929h214l39 -168h-99l-154 166v2z" />
    <glyph glyph-name="uni1EEB" unicode="&#x1eeb;" horiz-adv-x="657" 
d="M622 436l-108 -436h-183l21 83q-83 -95 -176 -95q-66 0 -106 42.5t-40 112.5q0 39 18 113l66 262h189l-69 -276q-5 -16 -5 -35q0 -54 55 -54q38 0 86 29l83 336h67q64 0 94 24.5t34 80.5h114q0 -80 -34 -125.5t-106 -61.5zM199 786h191l38 -194h-81z" />
    <glyph glyph-name="uni1EEC" unicode="&#x1eec;" horiz-adv-x="820" 
d="M353 -12q-133 0 -210 69q-77 68 -77 186q0 47 17 114l86 343h202l-93 -373q-8 -37 -8 -55q0 -50 28.5 -78t79.5 -28q57 0 99 38t59 107l96 389h68q69 0 103 33t43 108h132q0 -194 -171 -237l-81 -325q-72 -291 -373 -291zM698 904q0 -87 -170 -154l-82 29v3
q71 33 97.5 51t26.5 33q0 19 -33 19q-54 0 -130 -42l-2 2l27 110q65 34 141 34q55 0 90 -24t35 -61z" />
    <glyph glyph-name="uni1EED" unicode="&#x1eed;" horiz-adv-x="657" 
d="M622 436l-108 -436h-183l21 83q-83 -95 -176 -95q-66 0 -106 42.5t-40 112.5q0 39 18 113l66 262h189l-69 -276q-5 -16 -5 -35q0 -54 55 -54q38 0 86 29l83 336h67q64 0 94 24.5t34 80.5h114q0 -80 -34 -125.5t-106 -61.5zM279 683l-3 1l31 125q68 37 138 37q56 0 91 -27
t35 -70q0 -46 -39.5 -86.5t-128.5 -84.5l-82 29v2q70 42 95.5 64t25.5 39q0 20 -32 20q-50 0 -131 -49z" />
    <glyph glyph-name="uni1EEE" unicode="&#x1eee;" horiz-adv-x="820" 
d="M353 -12q-133 0 -210 69q-77 68 -77 186q0 47 17 114l86 343h202l-93 -373q-8 -37 -8 -55q0 -50 28.5 -78t79.5 -28q57 0 99 38t59 107l96 389h68q69 0 103 33t43 108h132q0 -194 -171 -237l-81 -325q-72 -291 -373 -291zM557 906q54 -23 74 -23q17 0 32.5 10.5
t45.5 42.5l66 -53q-48 -70 -82.5 -99t-71.5 -29q-31 0 -99 29q-54 23 -75 23q-16 0 -32 -10.5t-46 -42.5l-66 53q48 71 83 99.5t71 28.5q32 0 100 -29z" />
    <glyph glyph-name="uni1EEF" unicode="&#x1eef;" horiz-adv-x="657" 
d="M622 436l-108 -436h-183l21 83q-83 -95 -176 -95q-66 0 -106 42.5t-40 112.5q0 39 18 113l66 262h189l-69 -276q-5 -16 -5 -35q0 -54 55 -54q38 0 86 29l83 336h67q64 0 94 24.5t34 80.5h114q0 -80 -34 -125.5t-106 -61.5zM422 748q54 -29 75 -29q14 0 30 11q11 8 52 52
l67 -49q-57 -89 -90 -119q-32 -29 -67 -29q-30 0 -88 32q-55 28 -75 28q-16 0 -32 -11.5t-50 -50.5l-67 49q57 89 91 120q31 28 66 28q25 0 88 -32z" />
    <glyph glyph-name="uni1EF0" unicode="&#x1ef0;" horiz-adv-x="820" 
d="M353 -12q-133 0 -210 69q-77 68 -77 186q0 47 17 114l86 343h202l-93 -373q-8 -37 -8 -55q0 -50 28.5 -78t79.5 -28q57 0 99 38t59 107l96 389h68q69 0 103 33t43 108h132q0 -194 -171 -237l-81 -325q-72 -291 -373 -291zM308 -246q-39 0 -65 25t-26 64q0 40 28 67.5
t69 27.5q39 0 65 -25.5t26 -63.5q0 -40 -28.5 -67.5t-68.5 -27.5z" />
    <glyph glyph-name="uni1EF1" unicode="&#x1ef1;" horiz-adv-x="657" 
d="M622 436l-108 -436h-183l21 83q-83 -95 -176 -95q-66 0 -106 42.5t-40 112.5q0 39 18 113l66 262h189l-69 -276q-5 -16 -5 -35q0 -54 55 -54q38 0 86 29l83 336h67q64 0 94 24.5t34 80.5h114q0 -80 -34 -125.5t-106 -61.5zM233 -241q-39 0 -65 25t-26 64q0 40 28 67.5
t69 27.5q39 0 65 -25.5t26 -63.5q0 -40 -28.5 -67.5t-68.5 -27.5z" />
    <glyph glyph-name="Ygrave" unicode="&#x1ef2;" horiz-adv-x="725" 
d="M835 699l-371 -432l-66 -267h-202l68 274l-154 426h216l77 -246l196 246h236v-1zM276 929h214l39 -168h-99l-154 166v2z" />
    <glyph glyph-name="ygrave" unicode="&#x1ef3;" horiz-adv-x="617" 
d="M59 -190q-32 0 -63 9l-31 174l3 2q38 -20 82 -20q68 0 114 49l-94 494h195l39 -293l162 293h208l-303 -493q-68 -113 -142 -164t-170 -51zM188 786h191l38 -194h-81z" />
    <glyph glyph-name="uni1EF4" unicode="&#x1ef4;" horiz-adv-x="725" 
d="M835 699l-371 -432l-66 -267h-202l68 274l-154 426h216l77 -246l196 246h236v-1zM263 -241q-39 0 -65 25t-26 64q0 40 28 67.5t69 27.5q39 0 65 -25.5t26 -63.5q0 -40 -28.5 -67.5t-68.5 -27.5z" />
    <glyph glyph-name="uni1EF5" unicode="&#x1ef5;" horiz-adv-x="617" 
d="M59 -190q-32 0 -63 9l-31 174l3 2q38 -20 82 -20q68 0 114 49l-94 494h195l39 -293l162 293h208l-303 -493q-68 -113 -142 -164t-170 -51zM445 -221q-39 0 -65 25t-26 64q0 40 28 67.5t69 27.5q39 0 65 -25.5t26 -63.5q0 -40 -28.5 -67.5t-68.5 -27.5z" />
    <glyph glyph-name="uni1EF6" unicode="&#x1ef6;" horiz-adv-x="725" 
d="M835 699l-371 -432l-66 -267h-202l68 274l-154 426h216l77 -246l196 246h236v-1zM664 904q0 -87 -170 -154l-82 29v3q71 33 97.5 51t26.5 33q0 19 -33 19q-54 0 -130 -42l-2 2l27 110q65 34 141 34q55 0 90 -24t35 -61z" />
    <glyph glyph-name="uni1EF7" unicode="&#x1ef7;" horiz-adv-x="617" 
d="M59 -190q-32 0 -63 9l-31 174l3 2q38 -20 82 -20q68 0 114 49l-94 494h195l39 -293l162 293h208l-303 -493q-68 -113 -142 -164t-170 -51zM268 683l-3 1l31 125q68 37 138 37q56 0 91 -27t35 -70q0 -46 -39.5 -86.5t-128.5 -84.5l-82 29v2q70 42 95.5 64t25.5 39
q0 20 -32 20q-50 0 -131 -49z" />
    <glyph glyph-name="uni1EF8" unicode="&#x1ef8;" horiz-adv-x="725" 
d="M835 699l-371 -432l-66 -267h-202l68 274l-154 426h216l77 -246l196 246h236v-1zM523 906q54 -23 74 -23q17 0 32.5 10.5t45.5 42.5l66 -53q-48 -70 -82.5 -99t-71.5 -29q-31 0 -99 29q-54 23 -75 23q-16 0 -32 -10.5t-46 -42.5l-66 53q48 71 83 99.5t71 28.5
q32 0 100 -29z" />
    <glyph glyph-name="uni1EF9" unicode="&#x1ef9;" horiz-adv-x="617" 
d="M59 -190q-32 0 -63 9l-31 174l3 2q38 -20 82 -20q68 0 114 49l-94 494h195l39 -293l162 293h208l-303 -493q-68 -113 -142 -164t-170 -51zM411 748q54 -29 75 -29q14 0 30 11q11 8 52 52l67 -49q-57 -89 -90 -119q-32 -29 -67 -29q-30 0 -88 32q-55 28 -75 28
q-16 0 -32 -11.5t-50 -50.5l-67 49q57 89 91 120q31 28 66 28q25 0 88 -32z" />
    <glyph glyph-name="uni2002" unicode="&#x2002;" horiz-adv-x="500" 
 />
    <glyph glyph-name="uni2003" unicode="&#x2003;" horiz-adv-x="1000" 
 />
    <glyph glyph-name="uni2004" unicode="&#x2004;" horiz-adv-x="333" 
 />
    <glyph glyph-name="uni2005" unicode="&#x2005;" horiz-adv-x="250" 
 />
    <glyph glyph-name="uni2007" unicode="&#x2007;" horiz-adv-x="600" 
 />
    <glyph glyph-name="uni2009" unicode="&#x2009;" horiz-adv-x="125" 
 />
    <glyph glyph-name="uni200A" unicode="&#x200a;" horiz-adv-x="42" 
 />
    <glyph glyph-name="uni2011" unicode="&#x2011;" horiz-adv-x="405" 
d="M345 197h-316l41 166h316z" />
    <glyph glyph-name="figuredash" unicode="&#x2012;" horiz-adv-x="600" 
d="M524 270h-488l41 164h488z" />
    <glyph glyph-name="endash" unicode="&#x2013;" horiz-adv-x="564" 
d="M505 199h-475l40 162h475z" />
    <glyph glyph-name="emdash" unicode="&#x2014;" horiz-adv-x="944" 
d="M885 199h-855l40 162h855z" />
    <glyph glyph-name="uni2015" unicode="&#x2015;" horiz-adv-x="944" 
d="M885 199h-855l40 162h855z" />
    <glyph glyph-name="quoteleft" unicode="&#x2018;" horiz-adv-x="281" 
d="M257 480q0 -40 31 -112h-196q-16 39 -16 77q0 65 55 127.5t179 136.5l53 -41q-57 -54 -81.5 -98.5t-24.5 -89.5z" />
    <glyph glyph-name="quoteright" unicode="&#x2019;" horiz-adv-x="281" 
d="M161 588q0 42 -31 112h196q16 -39 16 -78q0 -64 -55.5 -126.5t-178.5 -136.5l-52 40q105 104 105 189z" />
    <glyph glyph-name="quotesinglbase" unicode="&#x201a;" horiz-adv-x="272" 
d="M13 4q0 42 -31 112h196q16 -39 16 -78q0 -64 -55.5 -126.5t-178.5 -136.5l-52 40q105 104 105 189z" />
    <glyph glyph-name="quotedblleft" unicode="&#x201c;" horiz-adv-x="527" 
d="M250 480q0 -38 31 -112h-189q-16 39 -16 77q0 65 55 127.5t179 136.5l46 -41q-57 -54 -81.5 -98.5t-24.5 -89.5zM503 480q0 -40 31 -112h-190q-15 38 -15 77q0 65 55 127.5t178 136.5l46 -41q-105 -101 -105 -188z" />
    <glyph glyph-name="quotedblright" unicode="&#x201d;" horiz-adv-x="527" 
d="M414 588q0 38 -31 112h189q16 -39 16 -78q0 -64 -55.5 -126.5t-178.5 -136.5l-46 40q106 103 106 189zM161 588q0 42 -31 112h190q15 -38 15 -78q0 -65 -55 -127t-178 -136l-46 40q105 104 105 189z" />
    <glyph glyph-name="quotedblbase" unicode="&#x201e;" horiz-adv-x="518" 
d="M265 4q0 38 -31 112h189q16 -39 16 -78q0 -64 -55.5 -126.5t-178.5 -136.5l-46 40q106 103 106 189zM12 4q0 42 -31 112h190q15 -38 15 -78q0 -65 -55 -127t-178 -136l-46 40q105 104 105 189z" />
    <glyph glyph-name="uni201F" unicode="&#x201f;" horiz-adv-x="527" 
d="M423 700h194q-109 -109 -109 -183q0 -43 33 -120l-54 -38q-128 111 -128 204q0 72 64 137zM171 700h193q-108 -108 -108 -183q0 -43 33 -120l-54 -38q-129 110 -129 204q0 71 65 137z" />
    <glyph glyph-name="dagger" unicode="&#x2020;" horiz-adv-x="532" 
d="M485 704l-135 -170h-32l-49 170h216zM364 474l8 31l193 92l-53 -215zM135 597l147 -92l-8 -31l-193 -92zM379 288l-162 -298h-36l-14 298l129 157h32z" />
    <glyph glyph-name="daggerdbl" unicode="&#x2021;" horiz-adv-x="532" 
d="M318 534l-49 170h216l-135 -170h-32zM514 392l-148 88l8 32l193 92zM137 604l147 -92l-8 -32l-192 -88zM395 350l-118 -108h-32l-63 108l117 108h32zM293 188l8 32l192 88l-53 -212zM63 308l148 -88l-8 -32l-193 -92zM226 166h32l50 -170h-216z" />
    <glyph glyph-name="bullet" unicode="&#x2022;" horiz-adv-x="557" 
d="M289 155q-77 0 -128 51q-52 51 -52 129q0 87 60 149q58 61 144 61q77 0 129 -51q51 -51 51 -129q0 -87 -59 -149q-60 -61 -145 -61z" />
    <glyph glyph-name="ellipsis" unicode="&#x2026;" horiz-adv-x="769" 
d="M592 -10q-44 0 -73 29t-29 72q0 48 33 81.5t79 33.5q44 0 73.5 -28.5t29.5 -72.5q0 -49 -33 -82t-80 -33zM339 -10q-44 0 -73 29t-29 72q0 48 33 81.5t79 33.5q44 0 73.5 -28.5t29.5 -72.5q0 -49 -33 -82t-80 -33zM86 -10q-44 0 -73 29t-29 72q0 48 33 81.5t79 33.5
q44 0 73.5 -28.5t29.5 -72.5q0 -49 -33 -82t-80 -33z" />
    <glyph glyph-name="uni202F" unicode="&#x202f;" horiz-adv-x="125" 
 />
    <glyph glyph-name="guilsinglleft" unicode="&#x2039;" horiz-adv-x="410" 
d="M232 248l90 -218l-60 -41l-243 254l8 32l353 254l55 -43z" />
    <glyph glyph-name="guilsinglright" unicode="&#x203a;" horiz-adv-x="410" 
d="M390 275l-7 -32l-353 -254l-55 43l203 238l-90 218l60 41z" />
    <glyph glyph-name="fraction" unicode="&#x2044;" horiz-adv-x="147" 
d="M119 331l-294 -333h-87l335 371l294 333h87z" />
    <glyph glyph-name="uni20A6" unicode="&#x20a6;" horiz-adv-x="903" 
d="M342 462l-48 -195h119zM655 436h-118l70 -197zM777 175l-44 -175h-223l-63 173h-176l-42 -173h-187l44 175h-83l26 101h82l37 151h-82l25 101h82l43 172h229l60 -170h173l41 170h188l-43 -172h82l-25 -101h-82l-37 -151h81l-25 -101h-81z" />
    <glyph glyph-name="uni20A9" unicode="&#x20a9;" horiz-adv-x="1190" 
d="M645 458l-102 -188h112zM909 434h-116l13 -207zM473 434h-114l-1 -209zM492 175l-98 -180h-189l-6 180h-169l25 102h140l-5 150h-125l25 101h97l-6 172h180l-1 -172h165l99 180h152l11 -180h168l86 172h192l-92 -172h93l-25 -101h-122l-80 -150h137l-25 -102h-167
l-96 -180h-187l-9 180h-168z" />
    <glyph glyph-name="dong" unicode="&#x20ab;" horiz-adv-x="632" 
d="M192 204q0 -35 20 -54.5t55 -19.5t80 22l38 151q-33 16 -70 16q-53 0 -88 -33t-35 -82zM616 520l-129 -520h-171l15 62q-73 -73 -154 -73q-67 0 -109.5 51t-42.5 133q0 120 79 199t201 79q51 0 111 -20l22 89h-147l25 102h147l20 79h178l-20 -79h69l-25 -102h-69z
M478 -79l-25 -101h-517l26 101h516z" />
    <glyph glyph-name="Euro" unicode="&#x20ac;" horiz-adv-x="687" 
d="M389 -12q-115 0 -184.5 62t-81.5 175h-114l25 101h90q2 20 7 49h-85l25 101h90q48 111 143 173.5t218 62.5q115 0 207 -57l-40 -180h-2q-73 66 -167 66q-99 0 -146 -77h198l-22 -89h-208q-1 -3 -11 -49h207l-22 -89h-190q12 -78 108 -78q93 0 200 65l2 -2l-71 -195
q-87 -39 -176 -39z" />
    <glyph glyph-name="uni20B1" unicode="&#x20b1;" horiz-adv-x="737" 
d="M509 461q0 39 -25 60.5t-70 21.5h-44l-49 -198h48q62 0 101 32.5t39 83.5zM344 194h-58l-48 -194h-200l98 394h-82l26 101h81l51 205h229q111 0 181 -55t76 -150h86l-25 -101h-74q-30 -94 -120 -147t-221 -53z" />
    <glyph glyph-name="uni20B9" unicode="&#x20b9;" horiz-adv-x="649" 
d="M309 208l231 -205v-3h-230l-275 246l17 30h31q76 0 134 29t84 80h-229l24 96h223q-8 51 -48 79.5t-104 28.5h-45l27 111h566l-25 -101h-224q56 -49 64 -115h129l-25 -101h-116q-22 -57 -76.5 -103t-132.5 -72z" />
    <glyph glyph-name="uni20BA" unicode="&#x20ba;" horiz-adv-x="642" 
d="M238 -6q-112 0 -195 24l43 174l-90 -37l-1 1l29 114l91 37l16 65l-90 -37l-1 2l29 114l90 36l53 213h196l-33 -132l180 74l1 -1l-29 -115l-180 -73l-17 -66l180 74l1 -1l-29 -114l-180 -74l-25 -102q181 5 305 159l5 -1l-6 -210q-57 -58 -147.5 -91t-195.5 -33z" />
    <glyph glyph-name="uni20BD" unicode="&#x20bd;" horiz-adv-x="665" 
d="M503 469q0 75 -97 75h-37l-45 -184h38q65 0 103 29.5t38 79.5zM291 211h239l-23 -94h-239l-29 -117h-201l29 117h-81l24 94h80l15 57h-82l24 94h81l84 338h236q116 0 182 -52t66 -144q0 -110 -87.5 -173t-241.5 -63h-62z" />
    <glyph glyph-name="uni2117" unicode="&#x2117;" horiz-adv-x="913" 
d="M194 68q-118 113 -118 281q0 165 119 282q120 115 285 115t284 -114q118 -113 118 -281q0 -165 -119 -282q-120 -115 -285 -115t-284 114zM478 714q-154 0 -261 -105q-108 -107 -108 -258q0 -153 109 -259q107 -106 262 -106t262 106q107 105 107 257q0 153 -108 259
q-109 106 -263 106zM497 478h-43v-125h42q77 0 77 64q0 29 -20 45t-56 16zM710 426q0 -77 -55.5 -120t-154.5 -43h-44v-138h-140v455h187q98 0 152.5 -40.5t54.5 -113.5z" />
    <glyph glyph-name="uni2120" unicode="&#x2120;" horiz-adv-x="978" 
d="M215 461q-89 42 -89 116q0 59 44 94.5t119 35.5q73 0 137 -35l-16 -107l-2 -1q-65 48 -119 48q-39 0 -39 -23q0 -10 9.5 -17.5t40.5 -22.5q90 -43 90 -117q0 -60 -44.5 -96.5t-119.5 -36.5q-86 0 -145 41l-1 117l2 2q71 -65 142 -65q41 0 41 25q0 11 -9 19t-41 23z
M881 567l-203 -267h-11l-69 265l-76 -259h-115l117 394h159l38 -181l129 181h173l-82 -394h-115z" />
    <glyph glyph-name="trademark" unicode="&#x2122;" horiz-adv-x="1009" 
d="M133 700h365l-27 -106h-123l-72 -288h-117l72 288h-125zM912 567l-203 -267h-11l-69 265l-76 -259h-115l117 394h159l38 -181l129 181h173l-82 -394h-115z" />
    <glyph glyph-name="onethird" unicode="&#x2153;" horiz-adv-x="877" 
d="M358 711l9 -4l-107 -429h-133l60 242l-109 -52l-2 1l32 126zM454 331l-294 -333h-87l335 371l294 333h87zM815 118q0 -55 -48 -89.5t-126 -34.5q-86 0 -142 35l4 108l2 1q67 -44 123 -44q26 0 41 9.5t15 25.5q0 18 -24 32t-81 30l8 34q81 24 112 41t31 38q0 26 -40 26
q-56 0 -139 -44l-2 1l27 104q71 38 155 38q59 0 95 -27t36 -71q0 -81 -112 -124q65 -26 65 -89z" />
    <glyph glyph-name="twothirds" unicode="&#x2154;" horiz-adv-x="951" 
d="M241 383l153 1l-62 -106h-290l6 72l184 151q30 25 42 40t12 29q0 25 -34 25q-64 0 -151 -74l-2 1l30 134q65 51 153 51q62 0 99.5 -30.5t37.5 -80.5q0 -74 -103 -154zM528 331l-294 -333h-87l335 371l294 333h87zM889 118q0 -55 -48 -89.5t-126 -34.5q-86 0 -142 35
l4 108l2 1q67 -44 123 -44q26 0 41 9.5t15 25.5q0 18 -24 32t-81 30l8 34q81 24 112 41t31 38q0 26 -40 26q-56 0 -139 -44l-2 1l27 104q71 38 155 38q59 0 95 -27t36 -71q0 -81 -112 -124q65 -26 65 -89z" />
    <glyph glyph-name="oneeighth" unicode="&#x215b;" horiz-adv-x="921" 
d="M358 711l9 -4l-107 -429h-133l60 242l-109 -52l-2 1l32 126zM454 331l-294 -333h-87l335 371l294 333h87zM852 120q0 -59 -52 -93t-144 -34q-80 0 -125 30t-45 83q0 40 29.5 71t82.5 46q-52 30 -52 84q0 55 49 88.5t130 33.5q73 0 117 -31t44 -83q0 -76 -91 -107
q57 -31 57 -88zM720 343q-21 1 -34.5 -13.5t-13.5 -36.5q0 -18 11 -29t29 -11q21 -1 35 13.5t14 36.5q0 17 -11.5 28.5t-29.5 11.5zM672 176q-23 0 -38.5 -15.5t-15.5 -37.5q0 -20 13 -32t34 -12q24 0 39.5 15t15.5 38q0 19 -13.5 31.5t-34.5 12.5z" />
    <glyph glyph-name="threeeighths" unicode="&#x215c;" horiz-adv-x="971" 
d="M372 396q0 -55 -48 -89.5t-126 -34.5q-86 0 -142 35l4 108l2 1q67 -44 123 -44q26 0 41 9.5t15 25.5q0 18 -24 32t-81 30l8 34q81 24 112 41t31 38q0 26 -40 26q-56 0 -139 -44l-2 1l27 104q71 38 155 38q59 0 95 -27t36 -71q0 -81 -112 -124q65 -26 65 -89zM503 331
l-294 -333h-87l335 371l294 333h87zM901 120q0 -59 -52 -93t-144 -34q-80 0 -125 30t-45 83q0 40 29.5 71t82.5 46q-52 30 -52 84q0 55 49 88.5t130 33.5q73 0 117 -31t44 -83q0 -76 -91 -107q57 -31 57 -88zM769 343q-21 1 -34.5 -13.5t-13.5 -36.5q0 -18 11 -29t29 -11
q21 -1 35 13.5t14 36.5q0 17 -11.5 28.5t-29.5 11.5zM721 176q-23 0 -38.5 -15.5t-15.5 -37.5q0 -20 13 -32t34 -12q24 0 39.5 15t15.5 38q0 19 -13.5 31.5t-34.5 12.5z" />
    <glyph glyph-name="fiveeighths" unicode="&#x215d;" horiz-adv-x="984" 
d="M394 427q0 -71 -55.5 -113.5t-148.5 -42.5q-68 0 -129 28l5 103l2 1q64 -34 119 -34q33 0 53.5 14.5t20.5 37.5q0 42 -69 42q-47 0 -97 -11l-5 5l77 243h281l-28 -104h-190l-18 -56q21 4 51 4q58 0 94.5 -32.5t36.5 -84.5zM517 331l-294 -333h-87l335 371l294 333h87z
M915 120q0 -59 -52 -93t-144 -34q-80 0 -125 30t-45 83q0 40 29.5 71t82.5 46q-52 30 -52 84q0 55 49 88.5t130 33.5q73 0 117 -31t44 -83q0 -76 -91 -107q57 -31 57 -88zM783 343q-21 1 -34.5 -13.5t-13.5 -36.5q0 -18 11 -29t29 -11q21 -1 35 13.5t14 36.5
q0 17 -11.5 28.5t-29.5 11.5zM735 176q-23 0 -38.5 -15.5t-15.5 -37.5q0 -20 13 -32t34 -12q24 0 39.5 15t15.5 38q0 19 -13.5 31.5t-34.5 12.5z" />
    <glyph glyph-name="seveneighths" unicode="&#x215e;" horiz-adv-x="916" 
d="M491 700l2 -5l-280 -417h-146l214 316h-180l42 106h348zM448 331l-294 -333h-87l335 371l294 333h87zM846 120q0 -59 -52 -93t-144 -34q-80 0 -125 30t-45 83q0 40 29.5 71t82.5 46q-52 30 -52 84q0 55 49 88.5t130 33.5q73 0 117 -31t44 -83q0 -76 -91 -107
q57 -31 57 -88zM714 343q-21 1 -34.5 -13.5t-13.5 -36.5q0 -18 11 -29t29 -11q21 -1 35 13.5t14 36.5q0 17 -11.5 28.5t-29.5 11.5zM666 176q-23 0 -38.5 -15.5t-15.5 -37.5q0 -20 13 -32t34 -12q24 0 39.5 15t15.5 38q0 19 -13.5 31.5t-34.5 12.5z" />
    <glyph glyph-name="minus" unicode="&#x2212;" horiz-adv-x="600" 
d="M77 427h529l-38 -154h-530z" />
    <glyph glyph-name="approxequal" unicode="&#x2248;" horiz-adv-x="600" 
d="M374 550q67 -44 86 -44q20 0 44 21.5t70 79.5l74 -48q-67 -110 -111 -154t-87 -44q-34 0 -123 59q-65 44 -85 44q-21 0 -42.5 -17.5t-60.5 -65.5l-71 48q65 105 104 142q37 37 81 37q33 0 121 -58zM318 280q68 -44 86 -44q21 0 42.5 17.5t60.5 65.5l71 -48
q-64 -102 -104 -142q-37 -37 -81 -37q-33 0 -122 58q-67 44 -86 44t-44 -22t-69 -79l-75 48q67 110 112 155q43 43 87 43q34 0 122 -59z" />
    <glyph glyph-name="notequal" unicode="&#x2260;" horiz-adv-x="600" 
d="M353 311h219l-33 -132h-273l-86 -131l-76 54l51 77h-135l33 132h188l51 78h-219l33 132h273l86 131l76 -54l-51 -77h135l-33 -132h-188z" />
    <glyph glyph-name="uni237F" unicode="&#x237f;" horiz-adv-x="548" 
d="M317 178l-70 -281h-127l74 298q-39 21 -61.5 59t-22.5 83q0 71 48 124q47 53 117 59l69 275h127l-73 -292q39 -20 61.5 -58t22.5 -84q0 -70 -47 -123q-48 -53 -118 -60z" />
    <glyph glyph-name="uniA788" unicode="&#xa788;" horiz-adv-x="500" 
d="M248 -66l82 -194h-92l-89 78l-131 -78h-105v2l177 192h158z" />
    <glyph glyph-name="G.alt" horiz-adv-x="781" 
d="M387 262l32 130h357q-19 -198 -119 -302t-269 -104q-151 0 -241 84t-90 223q0 184 124 302q125 117 317 117q161 0 289 -88l-58 -181h-1q-107 88 -233 88q-99 0 -166 -65q-66 -66 -66 -167q0 -65 38.5 -103.5t102.5 -38.5q111 0 155 105h-172z" />
    <glyph glyph-name="Q.alt" horiz-adv-x="829" 
d="M690 127l59 -59l-87 -83l-63 65q-95 -63 -217 -63q-142 0 -234 87q-91 87 -91 224q0 177 122 296q120 120 297 120q145 0 239 -85t94 -218q0 -159 -119 -284zM264 312q0 -68 39 -109.5t100 -41.5q46 0 77 15l-83 89l88 82l83 -91q36 54 36 130q0 65 -39.5 105.5
t-102.5 40.5q-83 0 -140 -63q-58 -64 -58 -157z" />
    <glyph glyph-name="a.alt" horiz-adv-x="639" 
d="M206 226q0 -38 21 -59.5t57 -21.5q42 0 88 31l46 187q-27 9 -64 9q-62 0 -105 -41q-43 -42 -43 -105zM555 153l-15 -153h-176l1 92q-86 -101 -176 -101q-74 0 -118.5 55.5t-44.5 148.5q0 145 91 236q94 94 237 94q74 0 152 -30l129 28l12 -3z" />
    <glyph glyph-name="a.sc" horiz-adv-x="712" 
d="M399 402l-108 -177h127zM543 567l88 -567h-194l-10 87h-214l-53 -87h-207l373 567h217z" />
    <glyph glyph-name="b.sc" horiz-adv-x="608" 
d="M406 395q0 38 -51 38h-73l-23 -92h73q33 0 53.5 15t20.5 39zM360 187q0 40 -55 40h-74l-24 -96h73q36 0 58 15.5t22 40.5zM287 0h-294l141 566h249q96 0 149.5 -37t53.5 -102q0 -47 -29.5 -84t-84.5 -59q76 -36 76 -113q0 -78 -70.5 -124.5t-190.5 -46.5z" />
    <glyph glyph-name="c.sc" horiz-adv-x="574" 
d="M288 -10q-113 0 -182 70q-70 69 -70 181q0 145 98 240t246 95q116 0 198 -56l-38 -171l-3 -1q-69 63 -144 63q-69 0 -113 -43q-45 -44 -45 -107q0 -48 30.5 -77t81.5 -29q81 0 169 58l2 -2l-72 -185q-72 -36 -158 -36z" />
    <glyph glyph-name="d.sc" horiz-adv-x="660" 
d="M443 309q0 47 -31 74.5t-85 27.5h-39l-63 -256h36q78 0 131 44q51 43 51 110zM238 0h-245l141 566h228q124 0 200 -66q75 -66 75 -174q0 -146 -109 -236q-110 -90 -290 -90z" />
    <glyph glyph-name="e.sc" horiz-adv-x="534" 
d="M472 148l-60 -148h-419l141 566h428l-37 -148h-241l-19 -77h211l-29 -115h-211l-19 -78h255z" />
    <glyph glyph-name="f.sc" horiz-adv-x="526" 
d="M266 321h193l-35 -141h-193l-45 -180h-193l141 566h409l-8 -154h-246z" />
    <glyph glyph-name="g.sc" horiz-adv-x="650" 
d="M340 319h271l-72 -278q-114 -50 -225 -50q-125 0 -202 68q-76 67 -76 180q0 153 109 246q109 92 286 92q126 0 219 -41l-40 -158q-91 38 -185 38q-88 0 -141 -46.5t-53 -122.5q0 -52 31.5 -80.5t89.5 -28.5q24 0 41 4l19 73h-97z" />
    <glyph glyph-name="g.scalt" horiz-adv-x="660" 
d="M306 209l28 113h304q-18 -165 -100.5 -250t-223.5 -85q-125 0 -201 70q-76 69 -76 184q0 149 103 243t267 94q126 0 226 -64l-50 -156q-83 64 -178 64q-79 0 -128 -49q-50 -50 -50 -128q0 -52 26.5 -82t72.5 -30q83 0 117 76h-137z" />
    <glyph glyph-name="h.sc" horiz-adv-x="697" 
d="M716 566l-141 -566h-194l51 203h-195l-51 -203h-193l141 566h193l-49 -198h195l49 198h194z" />
    <glyph glyph-name="i.sc" horiz-adv-x="314" 
d="M330 566l-141 -566h-193l141 566h193z" />
    <glyph glyph-name="j.sc" horiz-adv-x="454" 
d="M112 153q68 0 86 74l84 339h194l-97 -390q-44 -183 -244 -183q-74 0 -137 34l2 170l3 1q57 -45 109 -45z" />
    <glyph glyph-name="k.sc" horiz-adv-x="663" 
d="M592 1v-1h-214l-119 210h-21l-52 -210h-193l141 566h193l-51 -205h19l203 205h233v-2l-300 -292z" />
    <glyph glyph-name="l.sc" horiz-adv-x="505" 
d="M443 163l-40 -163h-410l141 566h193l-100 -403h216z" />
    <glyph glyph-name="m.sc" horiz-adv-x="882" 
d="M656 341l-277 -350h-14l-100 350l-97 -341h-189l165 566h236l62 -256l189 256h260l-117 -566h-190z" />
    <glyph glyph-name="n.sc" horiz-adv-x="701" 
d="M532 566h188l-141 -567h-145l-182 304l-72 -303h-187l141 566h181l155 -262z" />
    <glyph glyph-name="o.sc" horiz-adv-x="684" 
d="M380 580q123 0 201 -72t78 -186q0 -141 -99 -239q-98 -97 -244 -97q-123 0 -201 72t-78 186q0 142 99 239q98 97 244 97zM369 417q-57 0 -98 -47t-41 -114q0 -48 26.5 -77t70.5 -29q57 0 98 47t41 113q0 49 -26.5 78t-70.5 29z" />
    <glyph glyph-name="p.sc" horiz-adv-x="589" 
d="M403 368q0 54 -63 54h-52l-32 -129h49q43 0 70.5 21t27.5 54zM588 386q0 -104 -81 -166q-81 -63 -218 -63h-64l-39 -157h-193l141 566h229q106 0 165.5 -47.5t59.5 -132.5z" />
    <glyph glyph-name="q.sc" horiz-adv-x="684" 
d="M443 -121q-65 0 -108 27q-44 28 -95 96q-94 19 -148.5 84t-54.5 158q0 142 99 239q98 97 244 97q121 0 201 -71q78 -70 78 -182q0 -103 -55 -182t-151 -114q27 -26 68 -26q29 0 68 14l2 -2l-59 -125q-46 -13 -89 -13zM369 417q-57 0 -98 -47t-41 -114q0 -48 26.5 -77
t70.5 -29q57 0 98 47t41 113q0 49 -26.5 78t-70.5 29z" />
    <glyph glyph-name="q.scalt" horiz-adv-x="688" 
d="M570 106l52 -50l-76 -74l-55 57q-80 -51 -181 -51q-120 0 -197 71q-76 70 -76 185q0 142 99 240q97 96 245 96q121 0 200 -71q78 -71 78 -183q0 -125 -89 -220zM228 250q0 -52 25.5 -81t69.5 -29q27 0 57 14l-67 71l81 70l59 -66q14 33 14 79q0 49 -26 79t-70 30
q-61 0 -101 -48q-42 -48 -42 -119z" />
    <glyph glyph-name="r.sc" horiz-adv-x="627" 
d="M409 373q0 56 -66 56h-54l-33 -133h54q44 0 71.5 21.5t27.5 55.5zM443 209l124 -209h-207l-106 190h-22l-47 -190h-192l141 566h246q100 0 156.5 -45t56.5 -124q0 -63 -39.5 -112t-110.5 -76z" />
    <glyph glyph-name="s.sc" horiz-adv-x="525" 
d="M324 352q77 -36 108.5 -74.5t31.5 -96.5q0 -87 -65 -139t-176 -52q-123 0 -212 61l1 165l2 1q50 -41 107.5 -64.5t105.5 -23.5q54 0 54 33q0 13 -11.5 23.5t-47.5 28.5q-82 38 -115 77q-31 37 -31 96q0 85 66 137q65 52 175 52t200 -52l-23 -153h-2q-94 66 -183 66
q-50 0 -50 -31q0 -14 13 -25t52 -29z" />
    <glyph glyph-name="t.sc" horiz-adv-x="618" 
d="M101 566h569l-41 -162h-186l-101 -404h-193l101 404h-189z" />
    <glyph glyph-name="u.sc" horiz-adv-x="662" 
d="M45 197q0 36 14 92l69 277h193l-74 -297q-7 -36 -7 -48q0 -33 18.5 -52t51.5 -19q83 0 109 103l77 313h191l-86 -343q-29 -116 -108.5 -176t-203.5 -60q-112 0 -178 57t-66 153z" />
    <glyph glyph-name="v.sc" horiz-adv-x="695" 
d="M760 566l-381 -570h-195l-96 570h200l43 -347l216 347h213z" />
    <glyph glyph-name="w.sc" horiz-adv-x="963" 
d="M476 236l-174 -240h-158l-41 570h198l6 -307l233 313h12l89 -313l162 307h210l-326 -570h-147z" />
    <glyph glyph-name="x.sc" horiz-adv-x="676" 
d="M455 278l141 -278h-208l-69 153l-137 -153h-229v1l283 294l-136 271h206l67 -147l131 147h227v-1z" />
    <glyph glyph-name="y.sc" horiz-adv-x="654" 
d="M727 565l-316 -354l-53 -211h-193l53 215l-140 351h204l62 -194l160 194h223v-1z" />
    <glyph glyph-name="z.sc" horiz-adv-x="621" 
d="M316 154h267l-82 -154h-533l-1 11l348 401h-235l38 154h544l1 -11z" />
    <glyph glyph-name="quoteleftreversed" horiz-adv-x="281" 
d="M171 700h200q-108 -108 -108 -183q0 -43 33 -120l-61 -38q-129 110 -129 204q0 71 65 137z" />
    <glyph glyph-name="guillemotleft.cap" horiz-adv-x="695" 
d="M551 340l78 -217l-59 -41l-230 254l8 32l340 254l54 -43zM253 340l78 -217l-59 -41l-230 254l8 32l340 254l54 -43z" />
    <glyph glyph-name="guillemotright.cap" horiz-adv-x="695" 
d="M400 367l-7 -31l-340 -255l-55 44l192 238l-79 217l60 41zM698 367l-7 -31l-340 -255l-55 44l192 238l-79 217l60 41z" />
    <glyph glyph-name="guilsinglleft.cap" horiz-adv-x="410" 
d="M255 341l90 -218l-60 -41l-243 254l8 32l353 254l55 -43z" />
    <glyph glyph-name="guilsinglright.cap" horiz-adv-x="410" 
d="M413 368l-7 -32l-353 -254l-55 43l203 238l-90 218l60 41z" />
    <glyph glyph-name="parenleft.cap" horiz-adv-x="460" 
d="M524 801l42 -55q-297 -206 -297 -488q0 -160 94 -322l-54 -41q-228 174 -228 388q0 163 112.5 294.5t330.5 223.5z" />
    <glyph glyph-name="parenright.cap" horiz-adv-x="460" 
d="M-19 -105l-42 55q297 206 297 488q0 160 -94 322l54 41q228 -174 228 -388q0 -163 -112.5 -294.5t-330.5 -223.5z" />
    <glyph glyph-name="bracketleft.cap" horiz-adv-x="430" 
d="M350 664l-157 -632h171l-45 -119h-331l216 870h323l-9 -119h-168z" />
    <glyph glyph-name="bracketright.cap" horiz-adv-x="430" 
d="M156 783h331l-216 -870h-322l8 119h168l157 632h-171z" />
    <glyph glyph-name="braceleft.cap" horiz-adv-x="506" 
d="M348 32h88l-45 -119h-135q-87 0 -135 35t-48 98q0 28 12.5 56t49.5 75q40 53 40 74q0 37 -53 48l-97 19l15 58l113 22q44 9 63 26t19 47q0 17 -10 67q-10 51 -10 72q0 79 62.5 126t170.5 47h155l-11 -119h-110q-80 0 -80 -65q0 -17 9 -63q10 -45 10 -64q0 -93 -126 -128
q73 -30 73 -90q0 -35 -50 -104q-38 -52 -38 -73q0 -45 68 -45z" />
    <glyph glyph-name="braceright.cap" horiz-adv-x="506" 
d="M336 86q0 -79 -62.5 -126t-170.5 -47h-154l10 119h110q80 0 80 65q0 17 -9 63q-10 45 -10 64q0 93 126 128q-73 30 -73 90q0 35 50 104q38 52 38 73q0 45 -68 45h-88l46 119h134q87 0 135 -35t48 -98q0 -28 -12.5 -56t-49.5 -75q-40 -53 -40 -74q0 -37 53 -48l97 -19
l-15 -58l-113 -22q-43 -9 -62.5 -26t-19.5 -47q0 -17 10 -67q10 -51 10 -72z" />
    <glyph glyph-name="slash.cap" horiz-adv-x="498" 
d="M624 780l-562 -870h-142l562 870h142z" />
    <glyph glyph-name="bar.cap" horiz-adv-x="393" 
d="M263 780h127l-216 -870h-127z" />
    <glyph glyph-name="backslash.cap" horiz-adv-x="498" 
d="M134 780h124l145 -870h-124z" />
    <glyph glyph-name="hyphen.cap" horiz-adv-x="423" 
d="M375 266h-324l44 175h324z" />
    <glyph glyph-name="endash.cap" horiz-adv-x="567" 
d="M525 273h-475l40 162h475z" />
    <glyph glyph-name="emdash.cap" horiz-adv-x="947" 
d="M905 273h-855l40 162h855z" />
    <glyph glyph-name="periodcentered.cap" horiz-adv-x="318" 
d="M178 230q-50 0 -82.5 32t-32.5 82q0 55 37 92q36 37 88 37q50 0 82.5 -32.5t32.5 -81.5q0 -53 -36 -91q-38 -38 -89 -38z" />
    <glyph glyph-name="ampersand.alt" horiz-adv-x="685" 
d="M203 198q0 -29 26 -47t70 -18q33 0 73 8l37 142h-57q-71 0 -110 -22.5t-39 -62.5zM675 281h-84l-66 -250q-117 -41 -246 -41q-123 0 -193 49.5t-70 137.5q0 77 55.5 132.5t152.5 74.5q-72 43 -72 128q0 88 81 144q79 55 214 55q112 0 212 -42l-23 -152l-3 -1
q-82 47 -176 47q-51 0 -82 -20t-31 -53q0 -62 108 -62h260z" />
    <glyph glyph-name="colon.fig" horiz-adv-x="292" 
d="M201 390q-44 0 -74 29.5t-30 73.5q0 49 33 83t80 34q45 0 74.5 -29t29.5 -74q0 -49 -33 -83t-80 -34zM129 97q-44 0 -74 29.5t-30 73.5q0 49 33 83t80 34q45 0 74.5 -29t29.5 -74q0 -49 -33 -83t-80 -34z" />
    <glyph glyph-name="paragraph.alt" horiz-adv-x="692" 
d="M411 700h104l-174 -700h-104l32 129h-2q-99 0 -158 52.5t-59 141.5q0 113 93 186q94 73 239 74zM553 0h-143l174 700h143z" />
    <glyph glyph-name="zero.osf" horiz-adv-x="652" 
d="M358 555q117 0 190 -70t73 -181q0 -135 -92 -227q-91 -91 -229 -91q-116 0 -189 70q-74 69 -74 180q0 136 92 228q91 91 229 91zM217 248q0 -47 25.5 -76t66.5 -29q57 0 94 43q38 44 38 107q0 47 -26 76t-67 29q-56 0 -93 -43q-38 -44 -38 -107z" />
    <glyph glyph-name="one.osf" horiz-adv-x="433" 
d="M424 552l14 -6l-136 -546h-191l71 287l-160 -69l-1 2l45 182z" />
    <glyph glyph-name="two.osf" horiz-adv-x="583" 
d="M324 149l222 4l-83 -153h-475l12 93l276 182q44 29 60 46t16 33q0 34 -47 34q-85 0 -239 -120l-2 1l34 190q125 93 261 93q89 0 142 -41.5t53 -110.5q0 -114 -172 -213z" />
    <glyph glyph-name="three.osf" horiz-adv-x="576" 
d="M476 24q0 -98 -84 -157q-85 -59 -226 -59q-113 0 -196 33l4 163l1 1q87 -38 184 -38q59 0 94 18.5t35 49.5q0 68 -183 80l9 78q136 50 191 84t55 67q0 21 -16.5 33t-46.5 12q-86 0 -232 -89l-2 2l43 175q109 74 234 74q95 0 152.5 -47.5t57.5 -125.5q0 -127 -174 -203
q100 -45 100 -151z" />
    <glyph glyph-name="four.osf" horiz-adv-x="706" 
d="M402 355l-196 -214h144zM527 141h127l-35 -141h-127l-46 -187h-182l46 187h-335l-3 87l437 459h218z" />
    <glyph glyph-name="five.osf" horiz-adv-x="583" 
d="M499 88q0 -128 -94 -204t-255 -76q-99 0 -181 25l3 164l2 1q92 -29 174 -29q67 0 108.5 26.5t41.5 68.5q0 69 -105 69q-57 0 -155 -19l-8 7l104 419h455l-42 -167h-296l-25 -101q30 6 62 6q96 0 153.5 -51.5t57.5 -138.5z" />
    <glyph glyph-name="six.osf" horiz-adv-x="653" 
d="M616 275q1 -124 -89 -207q-89 -82 -225 -82q-120 0 -190 69q-72 67 -72 181q0 77 42 155t135 177l168 175h233l-245 -248q108 -2 175 -61q68 -62 68 -159zM222 242q0 -45 25 -72.5t67 -27.5q48 0 85 35q35 35 35 86q0 49 -32 75t-92 26q-4 0 -16.5 -0.5t-27.5 -1.5
q-44 -62 -44 -120z" />
    <glyph glyph-name="seven.osf" horiz-adv-x="612" 
d="M666 540l4 -7l-476 -720h-217l380 559h-299l65 168h543z" />
    <glyph glyph-name="eight.osf" horiz-adv-x="656" 
d="M599 204q0 -98 -81 -157q-82 -59 -219 -59q-125 0 -197.5 55t-72.5 148q0 70 47.5 122.5t133.5 76.5q-73 51 -73 145q0 93 77 155q77 60 199 60q108 0 175 -55t67 -143q0 -65 -40 -115.5t-112 -76.5q46 -25 71 -66t25 -90zM404 612q-36 0 -61 -29t-25 -71q0 -34 19 -55
t49 -21q36 0 61.5 29.5t25.5 70.5q0 35 -19 55.5t-50 20.5zM322 311q-43 0 -71 -29t-28 -73q0 -38 23 -60.5t61 -22.5q42 0 69.5 28.5t27.5 72.5q0 38 -22.5 61t-59.5 23z" />
    <glyph glyph-name="nine.osf" horiz-adv-x="641" 
d="M436 -18l-162 -169h-233l231 234q-101 3 -165 64q-63 61 -65 156q-2 123 87 206q88 82 220 82q119 0 189 -67t70 -180q0 -148 -172 -326zM224 276q0 -47 30.5 -73t86.5 -26q4 0 9 0.5t14 1t17 0.5q44 61 44 124q0 45 -24 70.5t-66 25.5q-47 0 -78 -36q-33 -36 -33 -87z
" />
    <glyph glyph-name="plus.osf" horiz-adv-x="600" 
d="M403 350h184l-38 -154h-184l-49 -198h-162l50 198h-185l39 154h184l48 192h161z" />
    <glyph glyph-name="divide.osf" horiz-adv-x="600" 
d="M351 391q-39 0 -66 26.5t-27 65.5q0 43 30 72.5t73 29.5q40 0 66.5 -26.5t26.5 -66.5q0 -43 -29.5 -72t-73.5 -29zM321 337l265 8l-36 -144l-264 8l-265 -8l36 144zM246 -39q-39 0 -66 26.5t-27 65.5q0 43 30 72.5t73 29.5q39 0 65.5 -26.5t26.5 -65.5q0 -43 -29 -72.5
t-73 -29.5z" />
    <glyph glyph-name="minus.osf" horiz-adv-x="600" 
d="M58 350h529l-38 -154h-530z" />
    <glyph glyph-name="equal.osf" horiz-adv-x="600" 
d="M87 444h519l-33 -132h-519zM34 234h519l-33 -132h-519z" />
    <glyph glyph-name="notequal.osf" horiz-adv-x="600" 
d="M334 234h219l-33 -132h-273l-86 -131l-76 54l51 77h-135l33 132h188l51 78h-219l33 132h273l86 131l76 -54l-51 -77h135l-33 -132h-188z" />
    <glyph glyph-name="asciitilde.osf" horiz-adv-x="600" 
d="M331 348q68 -44 87 -44q17 0 39 20q23 23 64 81l76 -48q-73 -131 -114 -174q-41 -44 -81 -44q-36 0 -126 59q-68 44 -87 44t-38 -19q-20 -19 -65 -82l-76 48q74 131 114 174q41 44 81 44q36 0 126 -59z" />
    <glyph glyph-name="approxequal.osf" horiz-adv-x="600" 
d="M355 473q67 -44 86 -44q20 0 44 21.5t70 79.5l74 -48q-67 -110 -111 -154t-87 -44q-35 0 -123 59q-65 44 -85 44q-21 0 -42.5 -17.5t-60.5 -65.5l-71 48q65 105 104 142q37 37 81 37q33 0 121 -58zM299 203q68 -44 86 -44q21 0 42.5 17.5t60.5 65.5l71 -48
q-64 -102 -104 -142q-37 -37 -81 -37q-33 0 -122 58q-67 44 -86 44t-44 -22t-69 -79l-75 48q67 110 112 155q43 43 87 43q33 0 122 -59z" />
    <glyph glyph-name="multiply.osf" horiz-adv-x="600" 
d="M407 264l117 -158l-130 -96l-109 155l-188 -155l-90 117l194 155l-117 158l130 96l109 -155l188 155l90 -117z" />
    <glyph glyph-name="less.osf" horiz-adv-x="600" 
d="M254 264l261 -115l-39 -155l-436 219l29 120l547 220l-43 -173z" />
    <glyph glyph-name="greater.osf" horiz-adv-x="600" 
d="M568 334l-29 -120l-547 -220l43 173l319 116l-261 115l38 155z" />
    <glyph glyph-name="numbersign.osf" horiz-adv-x="642" 
d="M401 317h-131l-24 -94h131zM440 85l-22 -87h-99l22 87h-131l-22 -87h-99l22 87h-113l36 144h114l22 83h-115l36 144h116l22 86h99l-22 -86h131l22 86h99l-22 -86h113l-36 -144h-114l-22 -83h116l-36 -144h-117z" />
    <glyph glyph-name="cent.osf" horiz-adv-x="522" 
d="M469 216l2 -2l-67 -177q-52 -24 -116 -30l-22 -89h-135l27 108q-58 25 -90 79t-32 126q0 113 69 196q70 82 180 101l25 96h134l-25 -99q59 -13 108 -45l-36 -164h-2q-69 55 -136 55q-56 0 -93 -34t-37 -84q0 -39 25 -62t69 -23q75 0 152 48z" />
    </font>
</defs>
</svg>
