<?xml version="1.0" standalone="no"?>
<!DOCTYPE svg PUBLIC "-//W3C//DTD SVG 1.1//EN" "http://www.w3.org/Graphics/SVG/1.1/DTD/svg11.dtd" >
<svg xmlns="http://www.w3.org/2000/svg" xmlns:xlink="http://www.w3.org/1999/xlink" version="1.1">
<metadata>
Created by FontForge 20170731 at Fri Sep 13 06:39:51 2013
 By Aleksey,,,
Copyright (c) 2009-13 by Village Type &#38; Design LLC. All rights reserved.
</metadata>
<defs>
<font id="Medium" horiz-adv-x="700" >
  <font-face 
    font-family="Copernicus"
    font-weight="600"
    font-stretch="normal"
    units-per-em="1000"
    panose-1="2 0 0 0 0 0 0 0 0 0"
    ascent="750"
    descent="-250"
    x-height="530"
    cap-height="780"
    bbox="-150 -307 1458 1242"
    underline-thickness="30"
    underline-position="-160"
    unicode-range="U+0020-F614"
  />
<missing-glyph horiz-adv-x="960" 
d="M90 0v780h780v-780h-780zM480 345l-279 -279h558zM201 714l279 -279l279 279h-558zM435 390l-275 275v-550zM525 390l275 -275v550z" />
    <glyph glyph-name="fi" unicode="fi" horiz-adv-x="719" 
d="M604 530l-5 -94v-340q0 -17 5.5 -27.5t18 -16t23.5 -8t33 -5.5v-39h-260v39q22 3 33 5.5t23.5 8t18 16t5.5 27.5v379h-264v-375q0 -35 19 -44.5t81 -16.5v-39h-280v39q22 3 33 5.5t23.5 8t18 16t5.5 27.5v379h-77v35l77 33v20q0 114 65.5 180.5t182.5 66.5
q79 0 122.5 -28.5t43.5 -72.5q0 -40 -28 -57h-84v30q0 37 -20.5 56.5t-57.5 19.5q-67 0 -95.5 -39t-28.5 -120v-69h369z" />
    <glyph glyph-name="fl" unicode="fl" horiz-adv-x="719" 
d="M498 768l71 42h35l-5 -86v-628q0 -17 5.5 -27.5t18 -16t23.5 -8t33 -5.5v-39h-260v39q22 3 33 5.5t23.5 8t18 16t5.5 27.5v569q-19 38 -59.5 64t-88.5 26q-60 0 -88 -35.5t-28 -110.5v-79h137v-55h-137v-375q0 -35 19 -44.5t81 -16.5v-39h-280v39q22 3 33 5.5t23.5 8
t18 16t5.5 27.5v379h-77v35l77 33v30q0 111 60.5 174t163.5 63q84 0 139 -42z" />
    <glyph glyph-name=".notdef" horiz-adv-x="960" 
d="M90 0v780h780v-780h-780zM480 345l-279 -279h558zM201 714l279 -279l279 279h-558zM435 390l-275 275v-550zM525 390l275 -275v550z" />
    <glyph glyph-name=".null" horiz-adv-x="0" 
 />
    <glyph glyph-name="nonmarkingreturn" horiz-adv-x="333" 
 />
    <glyph glyph-name="space" unicode=" " horiz-adv-x="250" 
 />
    <glyph glyph-name="exclam" unicode="!" horiz-adv-x="324" 
d="M85 67q0 32 22.5 54.5t54.5 22.5t54.5 -22.5t22.5 -54.5t-22.5 -54.5t-54.5 -22.5t-54.5 22.5t-22.5 54.5zM235 780v-46l-25 -264q-3 -35 -9 -92t-10 -96t-4 -67h-50q0 28 -4 67t-10 96t-9 92l-25 264v46h146z" />
    <glyph glyph-name="quotedbl" unicode="&#x22;" horiz-adv-x="378" 
d="M138 510h-62l-26 270h114zM302 510h-62l-26 270h114z" />
    <glyph glyph-name="numbersign" unicode="#" horiz-adv-x="660" 
d="M565 780l-61 -250h126v-50h-138l-44 -180h138v-50h-150l-61 -250h-50l61 250h-180l-61 -250h-50l61 250h-126v50h138l44 180h-138v50h150l61 250h50l-61 -250h180l61 250h50zM262 480l-44 -180h180l44 180h-180z" />
    <glyph glyph-name="dollar" unicode="$" horiz-adv-x="643" 
d="M214 -125l20 120q-108 14 -166 63l-8 187h37q42 -147 148 -185l50 292l-49 20q-42 17 -69.5 31.5t-54.5 38.5t-40.5 58.5t-13.5 79.5q0 91 68.5 150.5t184.5 59.5q15 0 47 -2l20 117h50l-21 -124q94 -18 143 -57v-170h-35q-31 122 -120 160l-45 -268l42 -16
q48 -19 77.5 -35t58.5 -41t42 -59.5t13 -81.5q0 -104 -81.5 -163.5t-207.5 -59.5q-14 0 -21 1l-19 -116h-50zM355 329l-14 5l-48 -284q7 -1 21 -1q83 0 130.5 37t47.5 101q0 53 -33.5 83.5t-103.5 58.5zM168 602q0 -47 27.5 -74.5t89.5 -51.5l29 -12l44 263q-19 4 -44 4
q-69 0 -107.5 -34.5t-38.5 -94.5z" />
    <glyph glyph-name="percent" unicode="%" horiz-adv-x="975" 
d="M50 583q0 100 52 153.5t137 53.5t137 -53.5t52 -153.5t-52 -153.5t-137 -53.5t-137 53.5t-52 153.5zM342 583q0 81 -24.5 121t-78.5 40t-78.5 -40t-24.5 -121t24.5 -121t78.5 -40t78.5 40t24.5 121zM779 780l-517 -780h-66l517 780h66zM925 197q0 -100 -52 -153.5
t-137 -53.5t-137 53.5t-52 153.5t52 153.5t137 53.5t137 -53.5t52 -153.5zM633 197q0 -81 24.5 -121t78.5 -40t78.5 40t24.5 121t-24.5 121t-78.5 40t-78.5 -40t-24.5 -121z" />
    <glyph glyph-name="ampersand" unicode="&#x26;" horiz-adv-x="812" 
d="M670 329q-13 -83 -51 -152l75 -70q36 -35 57 -48t56 -16v-43h-147q-13 7 -25.5 16t-21 18t-25.5 26t-32 31q-101 -101 -251 -101q-52 0 -99 12t-87.5 36t-64.5 67t-24 100q0 81 44 129t133 89q-79 77 -79 173q0 91 60 142.5t157 51.5q93 0 146.5 -47t53.5 -119
q0 -30 -11.5 -56t-26.5 -43t-45 -36t-52 -29t-62 -28l230 -217q28 58 28 118q0 44 -26 59t-88 17v43h293v-43q-59 -2 -83.5 -17.5t-31.5 -62.5zM329 57q116 0 189 69l-276 265q-52 -28 -72 -67t-20 -103q0 -72 51.5 -118t127.5 -46zM228 617q0 -33 14 -63t28 -46t42 -42
q71 30 102 66.5t31 96.5q0 51 -28.5 80.5t-77.5 29.5q-52 0 -81.5 -33.5t-29.5 -88.5z" />
    <glyph glyph-name="quotesingle" unicode="'" horiz-adv-x="214" 
d="M138 510h-62l-26 270h114z" />
    <glyph glyph-name="parenleft" unicode="(" horiz-adv-x="395" 
d="M80 350q0 149 53.5 265.5t164.5 214.5l42 -36q-102 -99 -150.5 -198.5t-48.5 -245.5t48.5 -245.5t150.5 -198.5l-42 -36q-111 98 -164.5 214.5t-53.5 265.5z" />
    <glyph glyph-name="parenright" unicode=")" horiz-adv-x="395" 
d="M315 350q0 -149 -53.5 -265.5t-164.5 -214.5l-42 36q102 99 150.5 198.5t48.5 245.5t-48.5 245.5t-150.5 198.5l42 36q111 -98 164.5 -214.5t53.5 -265.5z" />
    <glyph glyph-name="asterisk" unicode="*" horiz-adv-x="394" 
d="M20 644l14 44l132 -35l8 137h46l8 -137l132 35l14 -44l-128 -49l75 -115l-38 -27l-86 107l-86 -107l-38 27l75 115z" />
    <glyph glyph-name="plus" unicode="+" 
d="M318 20v238h-238v64h238v238h64v-238h238v-64h-238v-238h-64z" />
    <glyph glyph-name="comma" unicode="," horiz-adv-x="324" 
d="M179 0h-45q-51 13 -51 67q0 32 22.5 54.5t54.5 22.5q41 0 63.5 -31.5t22.5 -78.5q0 -75 -48 -129.5t-139 -63.5v46q120 25 120 113z" />
    <glyph glyph-name="hyphen" unicode="-" horiz-adv-x="360" 
d="M310 297h-260v76h260v-76z" />
    <glyph glyph-name="period" unicode="." horiz-adv-x="324" 
d="M85 67q0 32 22.5 54.5t54.5 22.5t54.5 -22.5t22.5 -54.5t-22.5 -54.5t-54.5 -22.5t-54.5 22.5t-22.5 54.5z" />
    <glyph glyph-name="slash" unicode="/" horiz-adv-x="385" 
d="M360 830l-290 -951h-65l290 951h65z" />
    <glyph glyph-name="zero" unicode="0" 
d="M350 790q143 0 223 -113t80 -287t-80 -287t-223 -113t-223 113t-80 287t80 287t223 113zM350 735q-178 0 -178 -345t178 -345t178 345t-178 345z" />
    <glyph glyph-name="one" unicode="1" 
d="M403 790h22v-666q0 -16 5.5 -28.5t19.5 -20.5t27 -13t40 -8.5t46 -5t57 -3.5v-45h-500v45q38 2 57 3.5t46 5t40 8.5t27 13t19.5 20.5t5.5 28.5v516h-195v34l55 8q89 13 135 33.5t93 74.5z" />
    <glyph glyph-name="two" unicode="2" 
d="M192 94h207q74 0 108.5 20t73.5 95h33l-46 -209h-523v24l209 205q118 116 157.5 179.5t39.5 133.5q0 73 -42.5 113t-119.5 40q-62 0 -105 -25.5t-90 -74.5l-27 25q40 74 107 122t160 48q113 0 177 -60t64 -163q0 -39 -15.5 -79t-38 -72.5t-63.5 -75t-76 -74t-93 -83
t-97 -89.5z" />
    <glyph glyph-name="three" unicode="3" 
d="M388 437q101 -16 162.5 -71t61.5 -135q0 -111 -83 -176t-205 -65q-123 0 -194 47t-71 111q0 53 48 78h65v-37q0 -69 42 -109t117 -40q77 0 119.5 42t42.5 115q0 85 -66 130t-173 45h-42l-8 38q45 13 75 23t64 26t54 33.5t33 43.5t13 57q0 52 -35 80.5t-94 28.5
q-96 0 -169 -78l-28 23q70 143 238 143q90 0 146.5 -48t56.5 -122q0 -71 -51.5 -119t-118.5 -64z" />
    <glyph glyph-name="four" unicode="4" 
d="M119 258h292v368zM411 124v76h-372v42l425 538h53v-522h134v-58h-134v-76q0 -47 26.5 -63t88.5 -18v-43h-336v43q62 2 88.5 18t26.5 63z" />
    <glyph glyph-name="five" unicode="5" 
d="M338 -10q-120 0 -188 46t-68 110q0 53 47 78h64v-37q0 -69 40 -108t111 -39q79 0 120 42t41 115q0 107 -99.5 159.5t-265.5 53.5l62 370h240q43 0 66.5 11.5t39.5 43.5h38l-40 -160h-307l-27 -170q86 -4 155.5 -20.5t124.5 -48t85.5 -82.5t30.5 -118q0 -109 -74.5 -177.5
t-195.5 -68.5z" />
    <glyph glyph-name="six" unicode="6" 
d="M543 752q-138 -51 -226.5 -139t-111.5 -199q30 32 81 55.5t111 23.5q104 0 167 -61t63 -169q0 -122 -75 -197.5t-191 -75.5q-129 0 -204 92t-75 227q0 171 116.5 302.5t303.5 178.5zM341 417q-65 0 -139 -50q-4 -25 -4 -64q0 -117 47 -189t123 -72q75 0 112 49.5
t37 137.5q0 91 -46 139.5t-130 48.5z" />
    <glyph glyph-name="seven" unicode="7" 
d="M564 674h-351q-41 0 -62.5 -14.5t-43.5 -57.5h-40l46 178h532v-31l-336 -749h-121z" />
    <glyph glyph-name="eight" unicode="8" 
d="M582 604q0 -63 -44.5 -110.5t-106.5 -68.5l37 -18q144 -72 144 -200q0 -94 -66 -155.5t-196 -61.5q-117 0 -189.5 58t-72.5 150q0 70 46 120.5t122 75.5l-12 6q-62 31 -94.5 76t-32.5 117q0 84 62 140.5t171 56.5q106 0 169 -51t63 -135zM404 323l-110 52
q-61 -39 -83.5 -79.5t-22.5 -97.5q0 -71 43 -113.5t119 -42.5q74 0 117.5 39t43.5 102q0 50 -28 83t-79 57zM315 484l80 -39q56 36 75.5 70.5t19.5 89.5q0 61 -38.5 96.5t-101.5 35.5q-64 0 -100.5 -33t-36.5 -88q0 -47 24.5 -76.5t77.5 -55.5z" />
    <glyph glyph-name="nine" unicode="9" 
d="M188 -10l-41 38q138 51 226.5 139t111.5 199q-30 -32 -81 -55.5t-111 -23.5q-104 0 -167 61t-63 169q0 122 75 197.5t191 75.5q129 0 204 -92t75 -227q0 -171 -116.5 -302.5t-303.5 -178.5zM349 363q65 0 139 50q4 25 4 64q0 117 -47 189t-123 72q-75 0 -112 -49.5
t-37 -137.5q0 -91 46 -139.5t130 -48.5z" />
    <glyph glyph-name="colon" unicode=":" horiz-adv-x="324" 
d="M85 67q0 32 22.5 54.5t54.5 22.5t54.5 -22.5t22.5 -54.5t-22.5 -54.5t-54.5 -22.5t-54.5 22.5t-22.5 54.5zM85 379q0 32 22.5 54.5t54.5 22.5t54.5 -22.5t22.5 -54.5t-22.5 -54.5t-54.5 -22.5t-54.5 22.5t-22.5 54.5z" />
    <glyph glyph-name="semicolon" unicode=";" horiz-adv-x="324" 
d="M179 0h-45q-51 13 -51 67q0 32 22.5 54.5t54.5 22.5q41 0 63.5 -31.5t22.5 -78.5q0 -75 -48 -129.5t-139 -63.5v46q120 25 120 113zM85 379q0 32 22.5 54.5t54.5 22.5t54.5 -22.5t22.5 -54.5t-22.5 -54.5t-54.5 -22.5t-54.5 22.5t-22.5 54.5z" />
    <glyph glyph-name="less" unicode="&#x3c;" 
d="M279 352l-149 -62l149 -62l341 -149v-69l-540 244v72l540 244v-69z" />
    <glyph glyph-name="equal" unicode="=" 
d="M620 338h-540v64h540v-64zM620 178h-540v64h540v-64z" />
    <glyph glyph-name="greater" unicode="&#x3e;" 
d="M421 228l149 62l-149 62l-341 149v69l540 -244v-72l-540 -244v69z" />
    <glyph glyph-name="question" unicode="?" horiz-adv-x="487" 
d="M353 631q0 50 -31 78.5t-87 28.5q-93 0 -93 -105v-41h-89q-23 23 -23 54q0 61 60.5 102.5t144.5 41.5q103 0 162.5 -47.5t59.5 -138.5q0 -64 -34 -112t-101 -97q-47 -34 -66 -65t-19 -80v-35h-33q-32 54 -32 99q0 47 20.5 84.5t67.5 78.5q53 46 68 67q25 37 25 87z
M144 67q0 32 22.5 54.5t54.5 22.5t54.5 -22.5t22.5 -54.5t-22.5 -54.5t-54.5 -22.5t-54.5 22.5t-22.5 54.5z" />
    <glyph glyph-name="at" unicode="@" horiz-adv-x="1116" 
d="M458 103q28 0 56.5 23.5t69.5 79.5q42 59 73 135.5t34 123.5q-19 37 -69 37q-62 0 -112 -45t-75.5 -112t-26.5 -138q0 -104 50 -104zM750 92q97 0 164 84.5t67 219.5q0 165 -100 266t-281 101q-126 0 -231 -68t-165 -184.5t-60 -254.5q0 -182 125 -303t316 -121
q175 0 329 92l18 -37q-62 -51 -158 -81.5t-201 -30.5q-226 0 -369.5 133t-143.5 350q0 113 42 216t113.5 177.5t172 119t212.5 44.5q208 0 332 -116.5t124 -302.5q0 -162 -94 -258.5t-242 -96.5q-83 0 -83 69q0 15 6 44.5t17 76t14 58.5h-4q-34 -76 -65 -120
q-92 -128 -179 -128q-56 0 -84 40t-28 106q0 142 96 252t214 110q78 0 102 -51l62 58h34l-34 -103q-22 -88 -41 -193t-19 -142q0 -26 22 -26z" />
    <glyph glyph-name="A" unicode="A" horiz-adv-x="832" 
d="M608 136l-50 116h-341l-47 -115q-12 -29 -12 -45q0 -25 23.5 -36t83.5 -13v-43h-255v43q28 4 44 12t25 29l269 633l-35 73h129l311 -706q9 -21 25 -29t44 -12v-43h-308v43q60 2 83 12.5t23 35.5q0 19 -12 45zM384 655l-144 -348h294z" />
    <glyph glyph-name="B" unicode="B" horiz-adv-x="793" 
d="M45 0v43q62 2 88.5 18t26.5 63v532q0 47 -26.5 63t-88.5 18v43h372q275 0 275 -195q0 -79 -55.5 -123t-143.5 -59q116 -9 178 -60.5t62 -137.5q0 -92 -77 -148.5t-216 -56.5h-395zM400 373h-130v-245q0 -44 25.5 -59.5t89.5 -15.5h31q97 0 142 37.5t45 118.5
q0 74 -49 119t-154 45zM374 725h-104v-297h105q98 0 144 36t46 114q0 66 -47.5 106.5t-143.5 40.5z" />
    <glyph glyph-name="C" unicode="C" horiz-adv-x="817" 
d="M481 51q111 0 168.5 44.5t94.5 143.5h40l-22 -189q-142 -60 -303 -60q-125 0 -219.5 54.5t-141 141t-46.5 189.5q0 187 119 301t298 114q161 0 274 -67l6 -170h-38q-34 95 -94.5 135t-154.5 40q-76 0 -132.5 -24.5t-89 -68t-48 -98.5t-15.5 -121q0 -72 18 -135.5t54 -116
t95.5 -83t136.5 -30.5z" />
    <glyph glyph-name="D" unicode="D" horiz-adv-x="922" 
d="M439 725h-169v-592q0 -47 25.5 -62.5t89.5 -15.5h80q123 0 202 79.5t79 228.5q0 74 -17 137t-52.5 114.5t-96 81t-141.5 29.5zM45 780h424q99 0 177.5 -30t126.5 -81.5t72.5 -117t24.5 -139.5q0 -193 -115 -302.5t-289 -109.5h-421v43q62 2 88.5 18t26.5 63v532
q0 47 -26.5 63t-88.5 18v43z" />
    <glyph glyph-name="E" unicode="E" horiz-adv-x="806" 
d="M607 270h-38q-9 53 -27.5 76.5t-54.5 23.5h-217v-240q0 -44 25.5 -59.5t89.5 -15.5h133q38 0 61 5t45.5 25.5t37 41t47.5 73.5h37l-35 -200h-666v43q62 2 88.5 18t26.5 63v532q0 47 -26.5 63t-88.5 18v43h661l3 -186h-33q-32 75 -65.5 103t-99.5 28h-241v-300h217
q36 0 54.5 23.5t27.5 76.5h38v-255z" />
    <glyph glyph-name="F" unicode="F" horiz-adv-x="744" 
d="M415 0h-370v43q62 2 88.5 18t26.5 63v532q0 47 -26.5 63t-88.5 18v43h651l3 -186h-33q-32 75 -65.5 103t-99.5 28h-231v-320h197q36 0 54.5 23.5t27.5 76.5h38v-255h-38q-9 53 -27.5 76.5t-54.5 23.5h-197v-226q0 -46 34 -61.5t111 -19.5v-43z" />
    <glyph glyph-name="G" unicode="G" horiz-adv-x="900" 
d="M52 375q0 187 120 301t297 114q161 0 274 -67l6 -170h-38q-34 95 -94.5 135t-154.5 40q-76 0 -132.5 -24.5t-89 -68t-48 -98.5t-15.5 -121q0 -71 18 -135t53 -115.5t93.5 -82t133.5 -30.5q131 0 185 60v138q0 47 -26.5 63t-88.5 18v43h340v-43q-62 -2 -88.5 -18
t-26.5 -63v-181q-129 -80 -311 -80q-125 0 -219.5 54.5t-141 141t-46.5 189.5z" />
    <glyph glyph-name="H" unicode="H" horiz-adv-x="985" 
d="M715 124v246h-445v-246q0 -47 26.5 -63t88.5 -18v-43h-340v43q62 2 88.5 18t26.5 63v532q0 47 -26.5 63t-88.5 18v43h340v-43q-62 -2 -88.5 -18t-26.5 -63v-231h445v231q0 47 -26.5 63t-88.5 18v43h340v-43q-62 -2 -88.5 -18t-26.5 -63v-532q0 -47 26.5 -63t88.5 -18v-43
h-340v43q62 2 88.5 18t26.5 63z" />
    <glyph glyph-name="I" unicode="I" horiz-adv-x="430" 
d="M160 124v532q0 47 -26.5 63t-88.5 18v43h340v-43q-62 -2 -88.5 -18t-26.5 -63v-532q0 -47 26.5 -63t88.5 -18v-43h-340v43q62 2 88.5 18t26.5 63z" />
    <glyph glyph-name="J" unicode="J" horiz-adv-x="583" 
d="M448 656v-434q0 -115 -61 -173.5t-171 -58.5q-99 0 -157.5 38t-58.5 100q0 46 30 71h81v-50q0 -55 30.5 -83t80.5 -28q116 0 116 167v451q0 47 -26.5 63t-88.5 18v43h340v-43q-62 -2 -88.5 -18t-26.5 -63z" />
    <glyph glyph-name="K" unicode="K" horiz-adv-x="840" 
d="M397 429l323 -324q32 -32 55.5 -45t59.5 -17v-43h-145q-56 29 -118 94l-296 303l309 267q26 22 26 42q0 15 -17 21t-75 10v43h294v-43q-38 -2 -63.5 -14.5t-60.5 -42.5zM160 124v532q0 47 -26.5 63t-88.5 18v43h340v-43q-62 -2 -88.5 -18t-26.5 -63v-532q0 -47 26.5 -63
t88.5 -18v-43h-340v43q62 2 88.5 18t26.5 63z" />
    <glyph glyph-name="L" unicode="L" horiz-adv-x="758" 
d="M270 656v-526q0 -44 25.5 -59.5t89.5 -15.5h118q21 0 39 4t30.5 7.5t27 18t21.5 21t22.5 32t21.5 36t26 46.5h37l-37 -220h-646v43q62 2 88.5 18t26.5 63v532q0 47 -26.5 63t-88.5 18v43h340v-43q-62 -2 -88.5 -18t-26.5 -63z" />
    <glyph glyph-name="M" unicode="M" horiz-adv-x="1104" 
d="M866 141l-62 470l-250 -611h-38l-266 615l-60 -474q-2 -16 -2 -27q0 -39 23 -53.5t85 -17.5v-43h-268v43q50 2 70 15.5t25 51.5l71 546q0 45 -19.5 62t-75.5 19v43h208q2 -25 18 -62l236 -552l223 552q16 42 18 62h203v-43q-56 -2 -75.5 -19t-19.5 -62l71 -546
q5 -38 25 -51.5t70 -15.5v-43h-316v43q62 3 85 17.5t23 53.5q0 11 -2 27z" />
    <glyph glyph-name="N" unicode="N" horiz-adv-x="966" 
d="M160 124v547q-36 41 -55.5 53t-59.5 13v43h191l514 -593v469q0 47 -26.5 63t-88.5 18v43h296v-43q-62 -2 -88.5 -18t-26.5 -63v-656h-47l-543 621v-497q0 -47 26.5 -63t88.5 -18v-43h-296v43q62 2 88.5 18t26.5 63z" />
    <glyph glyph-name="O" unicode="O" horiz-adv-x="898" 
d="M471 57q84 0 142 42t84 109.5t26 155.5q0 96 -31 175.5t-99.5 131.5t-165.5 52q-84 0 -142 -42t-84 -109.5t-26 -155.5q0 -96 31 -175.5t99.5 -131.5t165.5 -52zM438 -10q-173 0 -279.5 113.5t-106.5 271.5q0 186 118 300.5t290 114.5q173 0 279.5 -113.5t106.5 -271.5
q0 -186 -118 -300.5t-290 -114.5z" />
    <glyph glyph-name="P" unicode="P" horiz-adv-x="742" 
d="M435 326h-165v-202q0 -46 34 -61.5t111 -19.5v-43h-370v43q62 2 88.5 18t26.5 63v532q0 47 -26.5 63t-88.5 18v43h371q152 0 224 -63t72 -159q0 -104 -69.5 -168t-207.5 -64zM270 725v-344h117q105 0 152 40.5t47 131.5q0 172 -199 172h-117z" />
    <glyph glyph-name="Q" unicode="Q" horiz-adv-x="898" 
d="M579 -146l-171 137q-107 7 -189.5 62.5t-124.5 139.5t-42 182q0 186 118 300.5t290 114.5q173 0 279.5 -113.5t106.5 -271.5q0 -160 -88 -268t-227 -137l193 -110q28 -16 43 -23.5t35 -13.5t41 -6h19v-35q-35 -25 -104 -25q-95 0 -179 67zM471 57q84 0 142 42t84 109.5
t26 155.5q0 96 -31 175.5t-99.5 131.5t-165.5 52q-84 0 -142 -42t-84 -109.5t-26 -155.5q0 -96 31 -175.5t99.5 -131.5t165.5 -52z" />
    <glyph glyph-name="R" unicode="R" horiz-adv-x="848" 
d="M375 725h-105v-320h105q111 0 157.5 38t46.5 122q0 72 -49 116t-155 44zM45 780h364q160 0 228 -61t68 -154q0 -90 -66.5 -144t-176.5 -65q53 -12 108 -73l160 -176q30 -34 53 -47t60 -17v-43h-142q-27 14 -46 31.5t-61 62.5l-181 197q-30 33 -57 46t-70 13h-16v-226
q0 -47 26.5 -63t88.5 -18v-43h-340v43q62 2 88.5 18t26.5 63v532q0 47 -26.5 63t-88.5 18v43z" />
    <glyph glyph-name="S" unicode="S" horiz-adv-x="638" 
d="M294 -10q-71 0 -134.5 18.5t-101.5 49.5l-8 187h37q25 -88 79.5 -142t137.5 -54t130.5 37t47.5 101q0 53 -33.5 83.5t-103.5 58.5l-109 43q-42 17 -69.5 31.5t-54.5 38.5t-40.5 58.5t-13.5 79.5q0 91 68.5 150.5t184.5 59.5q69 0 135 -18t104 -48v-170h-35
q-43 177 -211 177q-69 0 -107.5 -34.5t-38.5 -94.5q0 -47 27.5 -74.5t89.5 -51.5l117 -46q48 -19 77.5 -35t58.5 -41t42 -59.5t13 -81.5q0 -104 -81.5 -163.5t-207.5 -59.5z" />
    <glyph glyph-name="T" unicode="T" horiz-adv-x="820" 
d="M52 780h716l17 -213h-37q-19 41 -26 55t-22 39t-24.5 32.5t-27 18.5t-37 13.5t-47.5 2.5h-99v-604q0 -47 28 -62.5t91 -18.5v-43h-348v43q63 3 91 18.5t28 62.5v604h-99q-28 0 -47.5 -2.5t-37 -13.5t-27 -18.5t-24.5 -32.5t-22 -39t-26 -55h-37z" />
    <glyph glyph-name="U" unicode="U" horiz-adv-x="880" 
d="M240 656v-383q0 -103 55 -158.5t153 -55.5q118 0 177 53t59 170v374q0 47 -26.5 63t-88.5 18v43h296v-43q-62 -2 -88.5 -18t-26.5 -63v-395q0 -131 -87 -201t-217 -70q-149 0 -232.5 68.5t-83.5 204.5v393q0 47 -26.5 63t-88.5 18v43h340v-43q-62 -2 -88.5 -18t-26.5 -63
z" />
    <glyph glyph-name="V" unicode="V" horiz-adv-x="818" 
d="M447 149l199 494q12 29 12 45q0 25 -23.5 36t-83.5 13v43h257v-43q-28 -4 -44 -12t-25 -29l-300 -706h-34l-326 706q-10 21 -25.5 29t-43.5 12v43h308v-43q-60 -2 -83 -12.5t-23 -35.5q0 -19 12 -45z" />
    <glyph glyph-name="W" unicode="W" horiz-adv-x="1156" 
d="M822 164l167 479q12 34 12 45q0 25 -23.5 36t-83.5 13v43h252v-43q-20 -3 -30.5 -6t-21.5 -11.5t-17 -23.5l-259 -706h-34l-198 495l-199 -495h-34l-274 706q-8 20 -24 28.5t-45 12.5v43h303v-43q-60 -2 -83 -12.5t-23 -35.5q0 -14 12 -45l179 -479l157 396l-52 135
q-8 20 -24 28.5t-45 12.5v43h297v-43q-60 -2 -83 -12.5t-23 -35.5q0 -16 12 -45z" />
    <glyph glyph-name="X" unicode="X" horiz-adv-x="867" 
d="M710 681l-218 -259l260 -323q27 -33 48.5 -44.5t56.5 -11.5v-43h-341v43q65 0 83.5 8t18.5 28q0 5 -0.5 9t-2.5 8.5t-3.5 7.5t-5.5 8t-5.5 7t-6.5 8.5t-7 8.5l-175 217l-183 -217q-2 -2 -7 -8.5t-6.5 -8.5t-5.5 -7t-5.5 -8t-3.5 -7.5t-2.5 -8.5t-0.5 -9q0 -20 19 -28
t77 -8v-43h-284v43q35 0 59.5 12t51.5 44l253 300l-226 282q-27 33 -48.5 44.5t-56.5 11.5v43h342v-43q-65 0 -83.5 -8t-18.5 -28q0 -5 0.5 -9t2.5 -8.5t3.5 -7.5t5.5 -8t5.5 -7t6.5 -8.5t7 -8.5l141 -176l147 176q2 2 7 8.5t6.5 8.5t5.5 7t5.5 8t3.5 7.5t2.5 8.5t0.5 9
q0 20 -18.5 28t-83.5 8v43h284v-43q-34 0 -55.5 -11.5t-49.5 -44.5z" />
    <glyph glyph-name="Y" unicode="Y" horiz-adv-x="762" 
d="M406 373l172 271q17 27 17 49q0 23 -21 32.5t-79 11.5v43h257v-43q-47 -7 -69 -41l-250 -381v-191q0 -47 26.5 -63t88.5 -18v-43h-340v43q62 2 88.5 18t26.5 63v189l-244 383q-13 20 -28 28.5t-41 12.5v43h309v-43q-58 -2 -79 -11.5t-21 -32.5q0 -22 17 -49z" />
    <glyph glyph-name="Z" unicode="Z" horiz-adv-x="746" 
d="M183 55h295q21 0 39 4t30.5 7.5t27 18t21.5 21t22.5 32t21.5 36t26 46.5h37l-37 -220h-631v28l502 697h-271q-65 0 -94 -28t-71 -122h-33l3 205h613v-29z" />
    <glyph glyph-name="bracketleft" unicode="[" horiz-adv-x="350" 
d="M160 778v-856h120v-52h-180v960h180v-52h-120z" />
    <glyph glyph-name="backslash" unicode="\" horiz-adv-x="385" 
d="M315 -121l-290 951h65l290 -951h-65z" />
    <glyph glyph-name="bracketright" unicode="]" horiz-adv-x="350" 
d="M190 -78v856h-120v52h180v-960h-180v52h120z" />
    <glyph glyph-name="asciicircum" unicode="^" horiz-adv-x="482" 
d="M277 790l185 -390h-69l-152 325l-152 -325h-69l185 390h72z" />
    <glyph glyph-name="underscore" unicode="_" horiz-adv-x="300" 
d="M280 -200h-260v64h260v-64z" />
    <glyph glyph-name="grave" unicode="`" horiz-adv-x="600" 
d="M114 800h122l84 -208h-45z" />
    <glyph glyph-name="a" unicode="a" horiz-adv-x="610" 
d="M253 62q28 0 53.5 9.5t40.5 19.5t45 33v148l-175 -55q-55 -17 -55 -69q0 -42 24.5 -64t66.5 -22zM492 348v-217q0 -68 47 -68q21 0 44 6l10 -31q-49 -48 -104 -48q-68 0 -94 91q-82 -91 -187 -91q-72 0 -112 38t-40 99q0 33 10.5 57t33.5 39t43 23t56 18l193 57v21
q0 65 -31 105.5t-93 40.5q-83 0 -83 -74q0 -15 5 -48l-83 -10q-22 22 -22 54q0 60 57.5 95t144.5 35q205 0 205 -192z" />
    <glyph glyph-name="b" unicode="b" horiz-adv-x="651" 
d="M85 709l-75 27v24l145 50h35l-5 -86v-277q34 43 83.5 68t106.5 25q111 0 173.5 -71t62.5 -179q0 -135 -83.5 -217.5t-204.5 -82.5q-151 0 -238 67v652zM334 47q80 0 127 53t47 148q0 90 -41 153t-129 63q-44 0 -85 -18.5t-68 -47.5v-225q0 -66 42.5 -96t106.5 -30z" />
    <glyph glyph-name="c" unicode="c" horiz-adv-x="557" 
d="M136 286q0 -98 49 -153.5t141 -55.5q108 0 172 79l29 -13q-19 -63 -77 -108t-155 -45q-122 0 -188.5 76.5t-66.5 181.5q0 131 81 211.5t207 80.5q85 0 136.5 -36.5t51.5 -93.5q0 -47 -39 -64h-68v41q0 95 -101 95q-77 0 -124.5 -52t-47.5 -144z" />
    <glyph glyph-name="d" unicode="d" horiz-adv-x="681" 
d="M317 483q-80 0 -127 -55t-47 -155q0 -84 42.5 -144.5t131.5 -60.5t149 63v217q0 67 -43 101t-106 34zM651 25l-175 -35h-15l5 93q-73 -93 -187 -93q-112 0 -175.5 71t-63.5 179q0 135 82 217.5t200 82.5q87 0 144 -43v212l-75 27v24l145 50h35l-5 -86v-610
q0 -25 11 -33.5t47 -12.5l27 -3v-40z" />
    <glyph glyph-name="e" unicode="e" horiz-adv-x="566" 
d="M305 540q106 0 164 -59t58 -153v-28h-392q0 -106 47.5 -164.5t144.5 -58.5q108 0 172 79l29 -13q-19 -63 -77 -108t-155 -45q-117 0 -186.5 73.5t-69.5 184.5q0 130 74.5 211t190.5 81zM280 478q-58 0 -96 -35t-46 -93h279q0 55 -36 91.5t-101 36.5z" />
    <glyph glyph-name="f" unicode="f" horiz-adv-x="404" 
d="M235 475v-375q0 -35 19 -44.5t81 -16.5v-39h-280v39q22 3 33 5.5t23.5 8t18 16t5.5 27.5v379h-77v35l77 33v30q0 112 61 174.5t165 62.5q67 0 102.5 -23.5t35.5 -66.5q0 -40 -28 -57h-74v30q0 37 -16 51t-45 14q-101 0 -101 -149v-79h137v-55h-137z" />
    <glyph glyph-name="g" unicode="g" horiz-adv-x="596" 
d="M298 540q49 0 89 -14l194 5v-70h-40l-119 16v-2q38 -16 62.5 -52t24.5 -80q0 -87 -61.5 -135.5t-158.5 -48.5q-56 0 -109 17q-36 -28 -36 -59q0 -43 48 -43h225q78 0 120.5 -34.5t42.5 -101.5q0 -82 -80.5 -135t-224.5 -53q-123 0 -184 39.5t-61 94.5q0 21 7.5 37.5
t25.5 30t30.5 20t38.5 18.5q-32 11 -51.5 35.5t-19.5 54.5q0 40 23.5 65t64.5 47q-81 51 -81 147q0 93 64 147t166 54zM396 -22h-244q-26 -30 -26 -73q0 -50 40 -77t115 -27q99 0 155 27.5t56 79.5q0 41 -24 55.5t-72 14.5zM303 209q50 0 76 33.5t26 88.5q0 61 -33.5 108.5
t-97.5 47.5q-51 0 -77 -33.5t-26 -88.5q0 -60 34 -108t98 -48z" />
    <glyph glyph-name="h" unicode="h" horiz-adv-x="701" 
d="M119 709l-75 27v24l145 50h35l-5 -86v-282q37 40 92.5 69t110.5 29q78 0 122.5 -40t44.5 -124v-280q0 -17 5.5 -27.5t18 -16t23.5 -8t33 -5.5v-39h-260v39q22 3 33 5.5t23.5 8t18 16t5.5 27.5v266q0 53 -26.5 75t-78.5 22q-40 0 -86.5 -18t-78.5 -44v-301
q0 -17 5.5 -27.5t18 -16t23.5 -8t33 -5.5v-39h-260v39q22 3 33 5.5t23.5 8t18 16t5.5 27.5v613z" />
    <glyph glyph-name="i" unicode="i" horiz-adv-x="355" 
d="M235 436v-340q0 -17 5.5 -27.5t18 -16t23.5 -8t33 -5.5v-39h-260v39q22 3 33 5.5t23.5 8t18 16t5.5 27.5v335l-75 35v24l145 50h35zM114 696q0 29 20.5 49.5t49.5 20.5t49.5 -20.5t20.5 -49.5t-20.5 -49.5t-49.5 -20.5t-49.5 20.5t-20.5 49.5z" />
    <glyph glyph-name="j" unicode="j" horiz-adv-x="291" 
d="M107 431l-75 35v24l145 50h35l-5 -104v-374q0 -67 -5.5 -98.5t-22.5 -64.5q-30 -57 -133 -147l-31 27l48 77q44 69 44 183v392zM86 696q0 29 20.5 49.5t49.5 20.5t49.5 -20.5t20.5 -49.5t-20.5 -49.5t-49.5 -20.5t-49.5 20.5t-20.5 49.5z" />
    <glyph glyph-name="k" unicode="k" horiz-adv-x="628" 
d="M225 273l175 155q17 17 17 29q0 17 -13 22.5t-56 11.5v39h240v-39q-55 -15 -83 -38l-176 -153l294 -268v-32h-112zM219 724v-628q0 -17 5.5 -27.5t18 -16t23.5 -8t33 -5.5v-39h-260v39q22 3 33 5.5t23.5 8t18 16t5.5 27.5v613l-75 27v24l145 50h35z" />
    <glyph glyph-name="l" unicode="l" horiz-adv-x="345" 
d="M225 724v-628q0 -17 5.5 -27.5t18 -16t23.5 -8t33 -5.5v-39h-260v39q22 3 33 5.5t23.5 8t18 16t5.5 27.5v613l-75 27v24l145 50h35z" />
    <glyph glyph-name="m" unicode="m" horiz-adv-x="1031" 
d="M571 441q30 40 82 69.5t107 29.5q74 0 116.5 -41t42.5 -111v-292q0 -17 5.5 -27.5t18 -16t23.5 -8t33 -5.5v-39h-260v39q22 3 33 5.5t23.5 8t18 16t5.5 27.5v266q0 97 -99 97q-36 0 -76 -16.5t-67 -42.5v-304q0 -17 5.5 -27.5t18 -16t23.5 -8t33 -5.5v-39h-260v39
q22 3 33 5.5t23.5 8t18 16t5.5 27.5v266q0 97 -99 97q-36 0 -76 -16.5t-67 -42.5v-304q0 -17 5.5 -27.5t18 -16t23.5 -8t33 -5.5v-39h-260v39q22 3 33 5.5t23.5 8t18 16t5.5 27.5v335l-75 35v24l145 50h35l-5 -95q31 39 80.5 67t102.5 28q59 0 99 -26t54 -73z" />
    <glyph glyph-name="n" unicode="n" horiz-adv-x="717" 
d="M505 96v266q0 53 -26.5 75t-78.5 22q-40 0 -86.5 -18t-78.5 -44v-301q0 -17 5.5 -27.5t18 -16t23.5 -8t33 -5.5v-39h-260v39q22 3 33 5.5t23.5 8t18 16t5.5 27.5v335l-75 35v24l145 50h35l-5 -98q37 40 92.5 69t110.5 29q78 0 122.5 -40t44.5 -124v-280q0 -17 5.5 -27.5
t18 -16t23.5 -8t33 -5.5v-39h-260v39q22 3 33 5.5t23.5 8t18 16t5.5 27.5z" />
    <glyph glyph-name="o" unicode="o" horiz-adv-x="632" 
d="M336 52q73 0 111.5 52t38.5 137q0 101 -51.5 169t-138.5 68q-73 0 -111.5 -52t-38.5 -137q0 -101 51.5 -169t138.5 -68zM306 -10q-118 0 -192 74.5t-74 190.5q0 128 83.5 206.5t202.5 78.5q118 0 192 -74.5t74 -190.5q0 -128 -83.5 -206.5t-202.5 -78.5z" />
    <glyph glyph-name="p" unicode="p" horiz-adv-x="676" 
d="M348 -10q-85 0 -138 40v-174q0 -17 5.5 -27.5t18 -16t23.5 -8t33 -5.5v-39h-260v39q22 3 33 5.5t23.5 8t18 16t5.5 27.5v575l-75 35v24l145 50h35l-5 -93q33 42 83.5 67.5t107.5 25.5q111 0 173 -71t62 -179q0 -135 -83 -217.5t-205 -82.5zM359 47q80 0 127 53t47 148
q0 57 -14.5 103t-54.5 79.5t-101 33.5q-44 0 -85 -18.5t-68 -47.5v-225q0 -66 42.5 -96t106.5 -30z" />
    <glyph glyph-name="q" unicode="q" horiz-adv-x="646" 
d="M317 483q-80 0 -127 -55t-47 -155q0 -84 42.5 -144.5t131.5 -60.5t149 63v204q0 69 -43 108.5t-106 39.5zM322 540q49 0 94.5 -15.5t72.5 -40.5l56 64h26l-5 -112v-580q0 -17 5.5 -27.5t18 -16t23.5 -8t33 -5.5v-39h-260v39q22 3 33 5.5t23.5 8t18 16t5.5 27.5v227
q-73 -93 -187 -93q-112 0 -175.5 71t-63.5 179q0 135 82 217.5t200 82.5z" />
    <glyph glyph-name="r" unicode="r" horiz-adv-x="472" 
d="M240 540l-5 -153q43 76 79 114.5t86 38.5q32 0 49 -14v-93h-41q-51 0 -88 -18.5t-85 -74.5v-240q0 -35 19 -44.5t81 -16.5v-39h-280v39q22 3 33 5.5t23.5 8t18 16t5.5 27.5v335l-75 35v24l145 50h35z" />
    <glyph glyph-name="s" unicode="s" horiz-adv-x="504" 
d="M247 -10q-116 0 -187 52l-6 133h42q32 -132 151 -132q53 0 82.5 23t29.5 66q0 34 -22 52t-69 32l-70 22q-69 21 -102.5 54t-33.5 97q0 70 50 110.5t135 40.5q97 0 172 -43v-124h-42q-12 60 -44.5 87t-88.5 27q-42 0 -67 -19.5t-25 -57.5q0 -30 17.5 -46.5t56.5 -29.5
l79 -24q75 -22 110 -57.5t35 -103.5q0 -74 -55.5 -116.5t-147.5 -42.5z" />
    <glyph glyph-name="t" unicode="t" horiz-adv-x="410" 
d="M205 644v-114h156v-55h-156v-308q0 -104 92 -104q43 0 80 18l12 -28q-56 -63 -139 -63q-63 0 -104 35t-41 107v343h-77v35q78 47 147 134h30z" />
    <glyph glyph-name="u" unicode="u" horiz-adv-x="678" 
d="M453 -10l5 98q-81 -98 -186 -98q-78 0 -122.5 40t-44.5 124v272q0 26 -14 36.5t-53 15.5l-18 2v40l164 20h26l-5 -104v-268q0 -101 101 -101q70 0 152 66v293q0 26 -14 36.5t-53 15.5l-18 2v40l164 20h26l-5 -104v-322q0 -25 11 -33.5t47 -12.5l27 -3v-40l-175 -35h-15z
" />
    <glyph glyph-name="v" unicode="v" horiz-adv-x="600" 
d="M590 530v-39q-37 -13 -45.5 -18.5t-15.5 -21.5l-209 -461h-23l-226 461q-8 16 -16.5 21.5t-44.5 18.5v39h248v-39q-43 -6 -58.5 -12.5t-15.5 -23.5q0 -12 7 -27l137 -295l127 295q7 18 7 27q0 17 -15.5 23.5t-58.5 12.5v39h202z" />
    <glyph glyph-name="w" unicode="w" horiz-adv-x="882" 
d="M628 138l110 284q9 24 9 33q0 17 -15.5 23.5t-58.5 12.5v39h199v-39q-36 -12 -45 -18t-16 -22l-189 -461h-23l-153 350l-148 -350h-23l-204 461q-7 16 -15.5 21.5t-45.5 18.5v39h245v-39q-43 -6 -58.5 -12.5t-15.5 -23.5q0 -12 9 -33l117 -282l109 263l-19 48
q-7 16 -16 22t-45 18v39h239v-39q-43 -6 -58.5 -12.5t-15.5 -23.5q0 -12 9 -33z" />
    <glyph glyph-name="x" unicode="x" horiz-adv-x="600" 
d="M84 79l165 185l-153 187q-22 28 -69 40v39h249v-39q-39 -8 -49.5 -13t-10.5 -17q0 -11 14 -29l90 -114l94 114q14 17 14 29q0 13 -10 17.5t-49 12.5v39h204v-39q-49 -12 -72 -40l-150 -171l165 -201q21 -26 74 -40v-39h-251v39q39 5 49 10t10 19q0 11 -18 34l-100 122
l-106 -122q-18 -21 -18 -34q0 -14 10 -19t49 -10v-39h-205v39q49 13 74 40z" />
    <glyph glyph-name="y" unicode="y" horiz-adv-x="600" 
d="M283 -1l-212 452q-7 16 -15.5 21.5t-45.5 18.5v39h250v-39q-43 -6 -58.5 -12.5t-15.5 -23.5q0 -12 7 -27l139 -321l123 321q7 18 7 27q0 17 -15.5 23.5t-58.5 12.5v39h202v-39q-35 -12 -44.5 -18.5t-16.5 -21.5l-230 -558q-34 -82 -71 -112.5t-86 -30.5q-27 0 -47.5 10.5
t-28.5 23.5v60h61q52 0 80 17t49 70z" />
    <glyph glyph-name="z" unicode="z" horiz-adv-x="546" 
d="M43 0v22l315 457h-155q-40 0 -64 -22.5t-43 -87.5h-42l14 188h40l12 -27h367v-26l-308 -453h160q44 0 73 25.5t47 94.5h42l-15 -171h-443z" />
    <glyph glyph-name="braceleft" unicode="{" horiz-adv-x="423" 
d="M129 350q53 -16 80.5 -54.5t27.5 -88.5q0 -25 -12.5 -83t-12.5 -93q0 -57 32 -83.5t109 -26.5v-51q-201 0 -201 161q0 35 11.5 93t11.5 83q0 53 -32.5 83.5t-112.5 30.5v58q80 0 112.5 30.5t32.5 83.5q0 25 -11.5 83t-11.5 93q0 161 201 161v-51q-77 0 -109 -26.5
t-32 -83.5q0 -35 12.5 -93t12.5 -83q0 -50 -27.5 -88.5t-80.5 -54.5z" />
    <glyph glyph-name="bar" unicode="|" horiz-adv-x="262" 
d="M162 830v-951h-62v951h62z" />
    <glyph glyph-name="braceright" unicode="}" horiz-adv-x="423" 
d="M294 350q-53 16 -80.5 54.5t-27.5 88.5q0 25 12.5 83t12.5 93q0 57 -32 83.5t-109 26.5v51q201 0 201 -161q0 -35 -11.5 -93t-11.5 -83q0 -53 32.5 -83.5t112.5 -30.5v-58q-80 0 -112.5 -30.5t-32.5 -83.5q0 -25 11.5 -83t11.5 -93q0 -161 -201 -161v51q77 0 109 26.5
t32 83.5q0 35 -12.5 93t-12.5 83q0 50 27.5 88.5t80.5 54.5z" />
    <glyph glyph-name="asciitilde" unicode="~" horiz-adv-x="537" 
d="M82 281l-39 6q21 63 52.5 93t77.5 30q45 0 115 -29.5t98 -29.5q24 0 38 10.5t31 42.5l39 -6q-21 -63 -52.5 -93t-77.5 -30q-45 0 -115 29.5t-98 29.5q-24 0 -38 -10.5t-31 -42.5z" />
    <glyph glyph-name="nbspace" unicode="&#xa0;" horiz-adv-x="240" 
 />
    <glyph glyph-name="exclamdown" unicode="&#xa1;" horiz-adv-x="324" 
d="M85 463q0 32 22.5 54.5t54.5 22.5t54.5 -22.5t22.5 -54.5t-22.5 -54.5t-54.5 -22.5t-54.5 22.5t-22.5 54.5zM235 -204v-46h-146v46l25 264q3 35 9 92t10 96t4 67h50q0 -28 4 -67t10 -96t9 -92z" />
    <glyph glyph-name="cent" unicode="&#xa2;" horiz-adv-x="606" 
d="M205 0l23 111q-86 26 -132 99t-46 161q0 138 84 223t216 87l21 99h50l-22 -102q74 -9 119 -46.5t45 -88.5q0 -48 -41 -67h-70v44q0 75 -66 96l-91 -427q27 -6 57 -6q119 0 187 87l27 -10q-20 -67 -81.5 -114.5t-164.5 -47.5q-23 0 -44 3l-21 -101h-50zM146 411
q0 -153 102 -206l89 418h-4q-79 0 -133 -57t-54 -155z" />
    <glyph glyph-name="sterling" unicode="&#xa3;" horiz-adv-x="777" 
d="M122 379v48h133l15 90q46 273 276 273q80 0 124.5 -29t44.5 -81q0 -24 -12 -43.5t-30 -27.5h-71v40q0 44 -15.5 66.5t-59.5 22.5q-61 0 -89.5 -51t-48.5 -165l-17 -95h198v-48h-207l-24 -137q-9 -44 -18 -77q132 -71 234 -71q62 0 95.5 26.5t33.5 93.5h28q25 -33 25 -81
q0 -143 -172 -143q-71 0 -145.5 34t-127.5 80q-59 -114 -156 -114q-59 0 -88 30t-29 77q0 51 35 83t94 32q32 0 70 -10l29 177h-125zM128 44q59 0 79 102q-33 14 -62 14q-31 0 -49 -18t-18 -45q0 -25 13.5 -39t36.5 -14z" />
    <glyph glyph-name="currency" unicode="&#xa4;" horiz-adv-x="640" 
d="M182 309q0 -83 35 -134t103 -51t103.5 51t35.5 134q0 82 -35.5 133t-103.5 51t-103 -51t-35 -133zM85 309q0 87 47 148l-62 63l39 39l62 -63q64 48 149 48q86 0 148 -48l63 63l39 -39l-62 -62q48 -64 48 -149t-48 -149l62 -61l-40 -40l-62 61q-61 -47 -148 -47
q-86 0 -149 47l-61 -61l-40 40l62 62q-47 61 -47 148z" />
    <glyph glyph-name="yen" unicode="&#xa5;" horiz-adv-x="742" 
d="M101 339v48h169l-181 309q-20 33 -69 41v43h309v-43q-58 -2 -79 -11.5t-21 -32.5q0 -18 17 -49l150 -267l152 267q17 30 17 49q0 23 -21 32.5t-79 11.5v43h257v-43q-26 -4 -41.5 -12.5t-27.5 -28.5l-187 -309h173v-48h-202l-14 -24v-42h216v-48h-216v-101q0 -47 26.5 -63
t88.5 -18v-43h-340v43q62 2 88.5 18t26.5 63v101h-212v48h212v40l-15 26h-197z" />
    <glyph glyph-name="brokenbar" unicode="&#xa6;" horiz-adv-x="262" 
d="M162 830v-406h-62v406h62zM162 285v-406h-62v406h62z" />
    <glyph glyph-name="section" unicode="&#xa7;" horiz-adv-x="518" 
d="M133 694q-30 -54 -30 -155q0 -150 119 -334q7 -10 35 -53t39 -60t32.5 -54t30.5 -59.5t17.5 -51.5t8.5 -53q30 54 30 155q0 150 -119 334q-7 10 -35 53t-39 60t-32.5 54t-30.5 59.5t-17.5 51.5t-8.5 53zM222 -250q-68 0 -108 27.5t-40 72.5q0 42 38 60h60v-18
q0 -40 22.5 -65t61.5 -25t60.5 22t21.5 57q0 38 -21.5 81.5t-73 117t-67.5 99.5q-59 94 -90 179.5t-31 180.5q0 127 67 203t174 76q68 0 108 -27.5t40 -72.5q0 -42 -38 -60h-60v18q0 40 -22.5 65t-61.5 25t-60.5 -22t-21.5 -57q0 -38 21.5 -81.5t73 -117t67.5 -99.5
q59 -94 90 -179.5t31 -180.5q0 -127 -67 -203t-174 -76z" />
    <glyph glyph-name="dieresis" unicode="&#xa8;" horiz-adv-x="600" 
d="M130 696q0 29 20.5 49.5t49.5 20.5t49.5 -20.5t20.5 -49.5t-20.5 -49.5t-49.5 -20.5t-49.5 20.5t-20.5 49.5zM330 696q0 29 20.5 49.5t49.5 20.5t49.5 -20.5t20.5 -49.5t-20.5 -49.5t-49.5 -20.5t-49.5 20.5t-20.5 49.5z" />
    <glyph glyph-name="copyright" unicode="&#xa9;" horiz-adv-x="890" 
d="M45 390q0 166 117 283t283 117t283 -117t117 -283t-117 -283t-283 -117t-283 117t-117 283zM75 390q0 -153 108.5 -261.5t261.5 -108.5t261.5 108.5t108.5 261.5t-108.5 261.5t-261.5 108.5t-261.5 -108.5t-108.5 -261.5zM462 187q67 0 100 27t56 89h33l-14 -123
q-88 -40 -191 -40q-119 0 -188 71t-69 172q0 118 75 190t188 72q101 0 173 -42l4 -114h-31q-21 59 -56 84t-92 25q-83 0 -125 -53.5t-42 -136.5q0 -93 46 -157t133 -64z" />
    <glyph glyph-name="ordfeminine" unicode="&#xaa;" horiz-adv-x="431" 
d="M186 405q37 0 80 33v103l-98 -32q-37 -14 -37 -48q0 -26 15 -41t40 -15zM357 591v-141q0 -47 29 -47q17 0 30 4l7 -26q-38 -36 -84 -36q-51 0 -71 62q-57 -61 -126 -61q-49 0 -77 26.5t-28 69.5q0 30 15 49.5t32.5 27.5t50.5 18l131 39v23q0 44 -19 68.5t-54 24.5
q-53 0 -53 -49q0 -4 1 -9.5t2 -14t2 -14.5l-68 -9q-21 14 -21 41q0 44 42.5 68.5t107.5 24.5q74 0 112.5 -31.5t38.5 -107.5z" />
    <glyph glyph-name="guillemotleft" unicode="&#xab;" horiz-adv-x="477" 
d="M40 269v10l171 190h47l-125 -195l125 -195h-47zM209 269v10l171 190h47l-125 -195l125 -195h-47z" />
    <glyph glyph-name="logicalnot" unicode="&#xac;" 
d="M559 208v303h-479v61h540v-364h-61z" />
    <glyph glyph-name="uni00AD" unicode="&#xad;" horiz-adv-x="360" 
d="M310 297h-260v76h260v-76z" />
    <glyph glyph-name="registered" unicode="&#xae;" horiz-adv-x="471" 
d="M226 693h-24v-80h24q26 0 36.5 10t10.5 33q0 37 -47 37zM135 714h98q44 0 63.5 -17t19.5 -41q0 -25 -19.5 -41.5t-50.5 -18.5q19 -2 36 -20l35 -39q16 -16 31 -18v-17h-45q-17 10 -31 28l-40 49q-14 16 -30 16v-54q0 -22 27 -22v-17h-94v17q16 0 22 4.5t6 17.5v134
q0 13 -5.5 16.5t-22.5 5.5v17zM50 603q0 78 54 132.5t130 54.5q78 0 132.5 -54.5t54.5 -132.5q0 -76 -54.5 -130t-132.5 -54q-76 0 -130 54t-54 130zM76 603q0 -66 46.5 -113.5t111.5 -47.5q66 0 113 47.5t47 113.5q0 67 -47 115t-113 48q-65 0 -111.5 -48t-46.5 -115z" />
    <glyph glyph-name="macron" unicode="&#xaf;" horiz-adv-x="600" 
d="M164 644v64h272v-64h-272z" />
    <glyph glyph-name="degree" unicode="&#xb0;" horiz-adv-x="488" 
d="M60 602q0 80 50.5 134t133.5 54t133.5 -54t50.5 -134t-50.5 -134t-133.5 -54t-133.5 54t-50.5 134zM361 602q0 57 -32 95t-85 38t-85 -38t-32 -95t32 -95t85 -38t85 38t32 95z" />
    <glyph glyph-name="plusminus" unicode="&#xb1;" 
d="M318 170v163h-238v64h238v163h64v-163h238v-64h-238v-163h-64zM620 55h-540v62h540v-62z" />
    <glyph glyph-name="twosuperior" unicode="&#xb2;" horiz-adv-x="422" 
d="M126 375h119q44 0 63 12t44 59h25l-17 -150h-340v25q17 12 68.5 67t60.5 62q64 60 86.5 97t22.5 77q0 42 -25 64.5t-68 22.5q-25 0 -48 -9t-35 -18.5t-31 -27.5l-19 21q58 109 171 109q70 0 109 -36.5t39 -99.5q0 -24 -9 -48t-21.5 -42.5t-37.5 -44t-43.5 -42t-55 -48
t-58.5 -50.5z" />
    <glyph glyph-name="threesuperior" unicode="&#xb3;" horiz-adv-x="432" 
d="M241 565q65 -7 102.5 -43t37.5 -91q0 -69 -51.5 -105t-127.5 -36q-75 0 -118.5 30.5t-43.5 72.5q0 34 30 50h53v-24q0 -92 86 -92q85 0 85 90q0 53 -33.5 79t-91.5 26h-26l-3 25q67 24 99 48t32 60q0 63 -77 63q-58 0 -113 -57l-20 19q52 106 163 106q63 0 97.5 -29
t34.5 -76q0 -78 -115 -116z" />
    <glyph glyph-name="acute" unicode="&#xb4;" horiz-adv-x="600" 
d="M364 800h122l-161 -208h-45z" />
    <glyph glyph-name="paragraph" unicode="&#xb6;" horiz-adv-x="718" 
d="M333 -240v594q-134 0 -208.5 55.5t-74.5 157.5t74.5 157.5t208.5 55.5h315v-43q-62 -2 -88.5 -18t-26.5 -63v-896h-52v977h-96v-977h-52z" />
    <glyph glyph-name="periodcentered" unicode="&#xb7;" horiz-adv-x="324" 
d="M85 335q0 32 22.5 54.5t54.5 22.5t54.5 -22.5t22.5 -54.5t-22.5 -54.5t-54.5 -22.5t-54.5 22.5t-22.5 54.5z" />
    <glyph glyph-name="cedilla" unicode="&#xb8;" horiz-adv-x="600" 
d="M276 8h32l-11 -51q118 -26 118 -106q0 -45 -35.5 -73t-87.5 -28q-50 0 -88 24l10 31q33 -13 70 -13q31 0 49.5 12t18.5 33q0 45 -99 61z" />
    <glyph glyph-name="onesuperior" unicode="&#xb9;" horiz-adv-x="409" 
d="M229 786h22v-406q0 -29 26 -37t92 -12v-35h-324v35q35 2 51.5 3.5t35 6.5t25.5 14.5t7 24.5v285h-119v30l30 5q94 16 154 86z" />
    <glyph glyph-name="ordmasculine" unicode="&#xba;" horiz-adv-x="453" 
d="M238 390q44 0 65.5 34.5t21.5 94.5q0 70 -28.5 118t-81.5 48q-88 0 -88 -129q0 -70 28.5 -118t82.5 -48zM219 345q-85 0 -137 54t-52 132q0 90 58 144.5t145 54.5q86 0 138 -53.5t52 -132.5q0 -89 -58.5 -144t-145.5 -55z" />
    <glyph glyph-name="guillemotright" unicode="&#xbb;" horiz-adv-x="477" 
d="M268 279v-10l-171 -190h-47l125 195l-125 195h47zM437 279v-10l-171 -190h-47l125 195l-125 195h47z" />
    <glyph glyph-name="onequarter" unicode="&#xbc;" horiz-adv-x="1025" 
d="M229 786h22v-406q0 -29 26 -37t92 -12v-35h-324v35q35 2 51.5 3.5t35 6.5t25.5 14.5t7 24.5v285h-119v30l30 5q94 16 154 86zM259 0l517 780h66l-517 -780h-66zM651 168h186v214zM924 0h-87v123h-250v35l280 326h57v-316h81v-45h-81v-123z" />
    <glyph glyph-name="onehalf" unicode="&#xbd;" horiz-adv-x="1084" 
d="M229 786h22v-406q0 -29 26 -37t92 -12v-35h-324v35q35 2 51.5 3.5t35 6.5t25.5 14.5t7 24.5v285h-119v30l30 5q94 16 154 86zM259 0l517 780h66l-517 -780h-66zM788 79h119q44 0 63 12t44 59h25l-17 -150h-340v25q17 12 68.5 67t60.5 62q64 60 86.5 97t22.5 77
q0 42 -25 64.5t-68 22.5q-25 0 -48 -9t-35 -18.5t-31 -27.5l-19 21q58 109 171 109q70 0 109 -36.5t39 -99.5q0 -24 -9 -48t-21.5 -42.5t-37.5 -44t-43.5 -42t-55 -48t-58.5 -50.5z" />
    <glyph glyph-name="threequarters" unicode="&#xbe;" horiz-adv-x="1008" 
d="M241 565q65 -7 102.5 -43t37.5 -91q0 -69 -51.5 -105t-127.5 -36q-75 0 -118.5 30.5t-43.5 72.5q0 34 30 50h53v-24q0 -92 86 -92q85 0 85 90q0 53 -33.5 79t-91.5 26h-26l-3 25q67 24 99 48t32 60q0 63 -77 63q-58 0 -113 -57l-20 19q52 106 163 106q63 0 97.5 -29
t34.5 -76q0 -78 -115 -116zM242 0l517 780h66l-517 -780h-66zM634 168h186v214zM907 0h-87v123h-250v35l280 326h57v-316h81v-45h-81v-123z" />
    <glyph glyph-name="questiondown" unicode="&#xbf;" horiz-adv-x="487" 
d="M134 -91q0 -50 31 -78.5t87 -28.5q93 0 93 105v41h89q23 -23 23 -54q0 -61 -60.5 -102.5t-144.5 -41.5q-103 0 -162.5 47.5t-59.5 138.5q0 64 33 109t102 95q48 35 66.5 63.5t18.5 76.5v35h33q32 -54 32 -99q0 -46 -20 -81t-68 -77q-3 -2 -20.5 -17t-20.5 -18l-16 -16
t-16 -20.5t-9.5 -20.5t-8.5 -26.5t-2 -30.5zM343 463q0 -32 -22.5 -54.5t-54.5 -22.5t-54.5 22.5t-22.5 54.5t22.5 54.5t54.5 22.5t54.5 -22.5t22.5 -54.5z" />
    <glyph glyph-name="Agrave" unicode="&#xc0;" horiz-adv-x="832" 
d="M608 136l-50 116h-341l-47 -115q-12 -29 -12 -45q0 -25 23.5 -36t83.5 -13v-43h-255v43q28 4 44 12t25 29l269 633l-35 73h129l311 -706q9 -21 25 -29t44 -12v-43h-308v43q60 2 83 12.5t23 35.5q0 19 -12 45zM384 655l-144 -348h294zM207 1030h122l84 -208h-45z" />
    <glyph glyph-name="Aacute" unicode="&#xc1;" horiz-adv-x="832" 
d="M608 136l-50 116h-341l-47 -115q-12 -29 -12 -45q0 -25 23.5 -36t83.5 -13v-43h-255v43q28 4 44 12t25 29l269 633l-35 73h129l311 -706q9 -21 25 -29t44 -12v-43h-308v43q60 2 83 12.5t23 35.5q0 19 -12 45zM384 655l-144 -348h294zM443 1030h122l-161 -208h-45z" />
    <glyph glyph-name="Acircumflex" unicode="&#xc2;" horiz-adv-x="832" 
d="M608 136l-50 116h-341l-47 -115q-12 -29 -12 -45q0 -25 23.5 -36t83.5 -13v-43h-255v43q28 4 44 12t25 29l269 633l-35 73h129l311 -706q9 -21 25 -29t44 -12v-43h-308v43q60 2 83 12.5t23 35.5q0 19 -12 45zM384 655l-144 -348h294zM420 1030l150 -208h-46l-138 124
l-138 -124h-46l150 208h68z" />
    <glyph glyph-name="Atilde" unicode="&#xc3;" horiz-adv-x="832" 
d="M608 136l-50 116h-341l-47 -115q-12 -29 -12 -45q0 -25 23.5 -36t83.5 -13v-43h-255v43q28 4 44 12t25 29l269 633l-35 73h129l311 -706q9 -21 25 -29t44 -12v-43h-308v43q60 2 83 12.5t23 35.5q0 19 -12 45zM384 655l-144 -348h294zM465 847q-34 0 -83.5 29.5
t-69.5 29.5q-24 0 -38 -10.5t-31 -42.5l-39 6q21 63 52.5 93t77.5 30q34 0 83.5 -29.5t69.5 -29.5q24 0 38 10.5t31 42.5l39 -6q-21 -63 -52.5 -93t-77.5 -30z" />
    <glyph glyph-name="Adieresis" unicode="&#xc4;" horiz-adv-x="832" 
d="M608 136l-50 116h-341l-47 -115q-12 -29 -12 -45q0 -25 23.5 -36t83.5 -13v-43h-255v43q28 4 44 12t25 29l269 633l-35 73h129l311 -706q9 -21 25 -29t44 -12v-43h-308v43q60 2 83 12.5t23 35.5q0 19 -12 45zM384 655l-144 -348h294zM216 917q0 29 20.5 49.5t49.5 20.5
t49.5 -20.5t20.5 -49.5t-20.5 -49.5t-49.5 -20.5t-49.5 20.5t-20.5 49.5zM416 917q0 29 20.5 49.5t49.5 20.5t49.5 -20.5t20.5 -49.5t-20.5 -49.5t-49.5 -20.5t-49.5 20.5t-20.5 49.5z" />
    <glyph glyph-name="Aring" unicode="&#xc5;" horiz-adv-x="832" 
d="M608 136l-50 116h-341l-47 -115q-12 -29 -12 -45q0 -25 23.5 -36t83.5 -13v-43h-255v43q28 4 44 12t25 29l269 633l-35 73h129l311 -706q9 -21 25 -29t44 -12v-43h-308v43q60 2 83 12.5t23 35.5q0 19 -12 45zM384 655l-144 -348h294zM272 934q0 48 32 81t82 33t82 -33
t32 -81t-32 -81t-82 -33t-82 33t-32 81zM447 934q0 30 -15.5 49t-45.5 19t-45.5 -19t-15.5 -49t15.5 -49t45.5 -19t45.5 19t15.5 49z" />
    <glyph glyph-name="AE" unicode="&#xc6;" horiz-adv-x="1169" 
d="M576 134l-24 118h-315l-61 -115q-12 -21 -12 -45q0 -25 23.5 -36t83.5 -13v-43h-261v43q52 8 69 41l340 634q-36 19 -99 19v43h749l3 -186h-33q-32 75 -65.5 103t-99.5 28h-303l60 -300h219q36 0 54.5 23.5t27.5 76.5h38v-255h-38q-9 53 -27.5 76.5t-54.5 23.5h-208
l49 -240q9 -44 37.5 -59.5t92.5 -15.5h60q38 0 61 5t45.5 25.5t37 41t47.5 73.5h37l-35 -200h-607v43q57 3 85 15t28 46q0 7 -4 30zM465 679l-199 -372h275l-74 372h-2z" />
    <glyph glyph-name="Ccedilla" unicode="&#xc7;" horiz-adv-x="817" 
d="M481 51q111 0 168.5 44.5t94.5 143.5h40l-22 -189q-142 -60 -303 -60l-7 -33q118 -26 118 -106q0 -45 -35.5 -73t-87.5 -28q-50 0 -88 24l10 31q33 -13 70 -13q31 0 49.5 12t18.5 33q0 45 -99 61l19 93q-173 10 -274 121t-101 263q0 187 119 301t298 114q161 0 274 -67
l6 -170h-38q-34 95 -94.5 135t-154.5 40q-76 0 -132.5 -24.5t-89 -68t-48 -98.5t-15.5 -121q0 -72 18 -135.5t54 -116t95.5 -83t136.5 -30.5z" />
    <glyph glyph-name="Egrave" unicode="&#xc8;" horiz-adv-x="806" 
d="M607 270h-38q-9 53 -27.5 76.5t-54.5 23.5h-217v-240q0 -44 25.5 -59.5t89.5 -15.5h133q38 0 61 5t45.5 25.5t37 41t47.5 73.5h37l-35 -200h-666v43q62 2 88.5 18t26.5 63v532q0 47 -26.5 63t-88.5 18v43h661l3 -186h-33q-32 75 -65.5 103t-99.5 28h-241v-300h217
q36 0 54.5 23.5t27.5 76.5h38v-255zM244 1030h122l84 -208h-45z" />
    <glyph glyph-name="Eacute" unicode="&#xc9;" horiz-adv-x="806" 
d="M607 270h-38q-9 53 -27.5 76.5t-54.5 23.5h-217v-240q0 -44 25.5 -59.5t89.5 -15.5h133q38 0 61 5t45.5 25.5t37 41t47.5 73.5h37l-35 -200h-666v43q62 2 88.5 18t26.5 63v532q0 47 -26.5 63t-88.5 18v43h661l3 -186h-33q-32 75 -65.5 103t-99.5 28h-241v-300h217
q36 0 54.5 23.5t27.5 76.5h38v-255zM460 1030h122l-161 -208h-45z" />
    <glyph glyph-name="Ecircumflex" unicode="&#xca;" horiz-adv-x="806" 
d="M607 270h-38q-9 53 -27.5 76.5t-54.5 23.5h-217v-240q0 -44 25.5 -59.5t89.5 -15.5h133q38 0 61 5t45.5 25.5t37 41t47.5 73.5h37l-35 -200h-666v43q62 2 88.5 18t26.5 63v532q0 47 -26.5 63t-88.5 18v43h661l3 -186h-33q-32 75 -65.5 103t-99.5 28h-241v-300h217
q36 0 54.5 23.5t27.5 76.5h38v-255zM437 1030l150 -208h-46l-138 124l-138 -124h-46l150 208h68z" />
    <glyph glyph-name="Edieresis" unicode="&#xcb;" horiz-adv-x="806" 
d="M607 270h-38q-9 53 -27.5 76.5t-54.5 23.5h-217v-240q0 -44 25.5 -59.5t89.5 -15.5h133q38 0 61 5t45.5 25.5t37 41t47.5 73.5h37l-35 -200h-666v43q62 2 88.5 18t26.5 63v532q0 47 -26.5 63t-88.5 18v43h661l3 -186h-33q-32 75 -65.5 103t-99.5 28h-241v-300h217
q36 0 54.5 23.5t27.5 76.5h38v-255zM243 917q0 29 20.5 49.5t49.5 20.5t49.5 -20.5t20.5 -49.5t-20.5 -49.5t-49.5 -20.5t-49.5 20.5t-20.5 49.5zM443 917q0 29 20.5 49.5t49.5 20.5t49.5 -20.5t20.5 -49.5t-20.5 -49.5t-49.5 -20.5t-49.5 20.5t-20.5 49.5z" />
    <glyph glyph-name="Igrave" unicode="&#xcc;" horiz-adv-x="430" 
d="M160 124v532q0 47 -26.5 63t-88.5 18v43h340v-43q-62 -2 -88.5 -18t-26.5 -63v-532q0 -47 26.5 -63t88.5 -18v-43h-340v43q62 2 88.5 18t26.5 63zM36 1030h122l84 -208h-45z" />
    <glyph glyph-name="Iacute" unicode="&#xcd;" horiz-adv-x="430" 
d="M160 124v532q0 47 -26.5 63t-88.5 18v43h340v-43q-62 -2 -88.5 -18t-26.5 -63v-532q0 -47 26.5 -63t88.5 -18v-43h-340v43q62 2 88.5 18t26.5 63zM272 1030h122l-161 -208h-45z" />
    <glyph glyph-name="Icircumflex" unicode="&#xce;" horiz-adv-x="430" 
d="M160 124v532q0 47 -26.5 63t-88.5 18v43h340v-43q-62 -2 -88.5 -18t-26.5 -63v-532q0 -47 26.5 -63t88.5 -18v-43h-340v43q62 2 88.5 18t26.5 63zM249 1030l150 -208h-46l-138 124l-138 -124h-46l150 208h68z" />
    <glyph glyph-name="Idieresis" unicode="&#xcf;" horiz-adv-x="430" 
d="M160 124v532q0 47 -26.5 63t-88.5 18v43h340v-43q-62 -2 -88.5 -18t-26.5 -63v-532q0 -47 26.5 -63t88.5 -18v-43h-340v43q62 2 88.5 18t26.5 63zM45 917q0 29 20.5 49.5t49.5 20.5t49.5 -20.5t20.5 -49.5t-20.5 -49.5t-49.5 -20.5t-49.5 20.5t-20.5 49.5zM245 917
q0 29 20.5 49.5t49.5 20.5t49.5 -20.5t20.5 -49.5t-20.5 -49.5t-49.5 -20.5t-49.5 20.5t-20.5 49.5z" />
    <glyph glyph-name="Eth" unicode="&#xd0;" horiz-adv-x="927" 
d="M50 370v55h115v231q0 47 -26.5 63t-88.5 18v43h424q99 0 177.5 -30t126.5 -81.5t72.5 -117t24.5 -139.5q0 -193 -115 -302.5t-289 -109.5h-421v43q62 2 88.5 18t26.5 63v246h-115zM444 725h-169v-300h207v-55h-207v-237q0 -47 25.5 -62.5t89.5 -15.5h80q123 0 202 79.5
t79 228.5q0 74 -17 137t-52.5 114.5t-96 81t-141.5 29.5z" />
    <glyph glyph-name="Ntilde" unicode="&#xd1;" horiz-adv-x="966" 
d="M160 124v547q-36 41 -55.5 53t-59.5 13v43h191l514 -593v469q0 47 -26.5 63t-88.5 18v43h296v-43q-62 -2 -88.5 -18t-26.5 -63v-656h-47l-543 621v-497q0 -47 26.5 -63t88.5 -18v-43h-296v43q62 2 88.5 18t26.5 63zM558 847q-34 0 -83.5 29.5t-69.5 29.5q-24 0 -38 -10.5
t-31 -42.5l-39 6q21 63 52.5 93t77.5 30q34 0 83.5 -29.5t69.5 -29.5q24 0 38 10.5t31 42.5l39 -6q-21 -63 -52.5 -93t-77.5 -30z" />
    <glyph glyph-name="Ograve" unicode="&#xd2;" horiz-adv-x="898" 
d="M471 57q84 0 142 42t84 109.5t26 155.5q0 96 -31 175.5t-99.5 131.5t-165.5 52q-84 0 -142 -42t-84 -109.5t-26 -155.5q0 -96 31 -175.5t99.5 -131.5t165.5 -52zM438 -10q-173 0 -279.5 113.5t-106.5 271.5q0 186 118 300.5t290 114.5q173 0 279.5 -113.5t106.5 -271.5
q0 -186 -118 -300.5t-290 -114.5zM270 1030h122l84 -208h-45z" />
    <glyph glyph-name="Oacute" unicode="&#xd3;" horiz-adv-x="898" 
d="M471 57q84 0 142 42t84 109.5t26 155.5q0 96 -31 175.5t-99.5 131.5t-165.5 52q-84 0 -142 -42t-84 -109.5t-26 -155.5q0 -96 31 -175.5t99.5 -131.5t165.5 -52zM438 -10q-173 0 -279.5 113.5t-106.5 271.5q0 186 118 300.5t290 114.5q173 0 279.5 -113.5t106.5 -271.5
q0 -186 -118 -300.5t-290 -114.5zM506 1030h122l-161 -208h-45z" />
    <glyph glyph-name="Ocircumflex" unicode="&#xd4;" horiz-adv-x="898" 
d="M471 57q84 0 142 42t84 109.5t26 155.5q0 96 -31 175.5t-99.5 131.5t-165.5 52q-84 0 -142 -42t-84 -109.5t-26 -155.5q0 -96 31 -175.5t99.5 -131.5t165.5 -52zM438 -10q-173 0 -279.5 113.5t-106.5 271.5q0 186 118 300.5t290 114.5q173 0 279.5 -113.5t106.5 -271.5
q0 -186 -118 -300.5t-290 -114.5zM483 1030l150 -208h-46l-138 124l-138 -124h-46l150 208h68z" />
    <glyph glyph-name="Otilde" unicode="&#xd5;" horiz-adv-x="898" 
d="M471 57q84 0 142 42t84 109.5t26 155.5q0 96 -31 175.5t-99.5 131.5t-165.5 52q-84 0 -142 -42t-84 -109.5t-26 -155.5q0 -96 31 -175.5t99.5 -131.5t165.5 -52zM438 -10q-173 0 -279.5 113.5t-106.5 271.5q0 186 118 300.5t290 114.5q173 0 279.5 -113.5t106.5 -271.5
q0 -186 -118 -300.5t-290 -114.5zM515 847q-34 0 -83.5 29.5t-69.5 29.5q-24 0 -38 -10.5t-31 -42.5l-39 6q21 63 52.5 93t77.5 30q34 0 83.5 -29.5t69.5 -29.5q24 0 38 10.5t31 42.5l39 -6q-21 -63 -52.5 -93t-77.5 -30z" />
    <glyph glyph-name="Odieresis" unicode="&#xd6;" horiz-adv-x="898" 
d="M471 57q84 0 142 42t84 109.5t26 155.5q0 96 -31 175.5t-99.5 131.5t-165.5 52q-84 0 -142 -42t-84 -109.5t-26 -155.5q0 -96 31 -175.5t99.5 -131.5t165.5 -52zM438 -10q-173 0 -279.5 113.5t-106.5 271.5q0 186 118 300.5t290 114.5q173 0 279.5 -113.5t106.5 -271.5
q0 -186 -118 -300.5t-290 -114.5zM279 917q0 29 20.5 49.5t49.5 20.5t49.5 -20.5t20.5 -49.5t-20.5 -49.5t-49.5 -20.5t-49.5 20.5t-20.5 49.5zM479 917q0 29 20.5 49.5t49.5 20.5t49.5 -20.5t20.5 -49.5t-20.5 -49.5t-49.5 -20.5t-49.5 20.5t-20.5 49.5z" />
    <glyph glyph-name="multiply" unicode="&#xd7;" 
d="M605 499l-210 -209l210 -209l-46 -46l-209 210l-209 -210l-46 46l210 209l-210 209l46 46l209 -210l209 210z" />
    <glyph glyph-name="Oslash" unicode="&#xd8;" horiz-adv-x="898" 
d="M438 -10q-153 0 -258 92l-89 -92l-36 34l90 94q-93 107 -93 257q0 186 118 300.5t290 114.5q143 0 248 -85l82 85l39 -35l-83 -86q100 -109 100 -264q0 -186 -118 -300.5t-290 -114.5zM471 57q84 0 142 42t84 109.5t26 155.5q0 130 -56 223l-413 -429q79 -101 217 -101z
M175 416q0 -124 50 -215l412 429q-80 93 -210 93q-84 0 -142 -42t-84 -109.5t-26 -155.5z" />
    <glyph glyph-name="Ugrave" unicode="&#xd9;" horiz-adv-x="880" 
d="M240 656v-383q0 -103 55 -158.5t153 -55.5q118 0 177 53t59 170v374q0 47 -26.5 63t-88.5 18v43h296v-43q-62 -2 -88.5 -18t-26.5 -63v-395q0 -131 -87 -201t-217 -70q-149 0 -232.5 68.5t-83.5 204.5v393q0 47 -26.5 63t-88.5 18v43h340v-43q-62 -2 -88.5 -18t-26.5 -63
zM283 1030h122l84 -208h-45z" />
    <glyph glyph-name="Uacute" unicode="&#xda;" horiz-adv-x="880" 
d="M240 656v-383q0 -103 55 -158.5t153 -55.5q118 0 177 53t59 170v374q0 47 -26.5 63t-88.5 18v43h296v-43q-62 -2 -88.5 -18t-26.5 -63v-395q0 -131 -87 -201t-217 -70q-149 0 -232.5 68.5t-83.5 204.5v393q0 47 -26.5 63t-88.5 18v43h340v-43q-62 -2 -88.5 -18t-26.5 -63
zM519 1030h122l-161 -208h-45z" />
    <glyph glyph-name="Ucircumflex" unicode="&#xdb;" horiz-adv-x="880" 
d="M240 656v-383q0 -103 55 -158.5t153 -55.5q118 0 177 53t59 170v374q0 47 -26.5 63t-88.5 18v43h296v-43q-62 -2 -88.5 -18t-26.5 -63v-395q0 -131 -87 -201t-217 -70q-149 0 -232.5 68.5t-83.5 204.5v393q0 47 -26.5 63t-88.5 18v43h340v-43q-62 -2 -88.5 -18t-26.5 -63
zM496 1030l150 -208h-46l-138 124l-138 -124h-46l150 208h68z" />
    <glyph glyph-name="Udieresis" unicode="&#xdc;" horiz-adv-x="880" 
d="M240 656v-383q0 -103 55 -158.5t153 -55.5q118 0 177 53t59 170v374q0 47 -26.5 63t-88.5 18v43h296v-43q-62 -2 -88.5 -18t-26.5 -63v-395q0 -131 -87 -201t-217 -70q-149 0 -232.5 68.5t-83.5 204.5v393q0 47 -26.5 63t-88.5 18v43h340v-43q-62 -2 -88.5 -18t-26.5 -63
zM292 917q0 29 20.5 49.5t49.5 20.5t49.5 -20.5t20.5 -49.5t-20.5 -49.5t-49.5 -20.5t-49.5 20.5t-20.5 49.5zM492 917q0 29 20.5 49.5t49.5 20.5t49.5 -20.5t20.5 -49.5t-20.5 -49.5t-49.5 -20.5t-49.5 20.5t-20.5 49.5z" />
    <glyph glyph-name="Yacute" unicode="&#xdd;" horiz-adv-x="762" 
d="M406 373l172 271q17 27 17 49q0 23 -21 32.5t-79 11.5v43h257v-43q-47 -7 -69 -41l-250 -381v-191q0 -47 26.5 -63t88.5 -18v-43h-340v43q62 2 88.5 18t26.5 63v189l-244 383q-13 20 -28 28.5t-41 12.5v43h309v-43q-58 -2 -79 -11.5t-21 -32.5q0 -22 17 -49zM456 1030
h122l-161 -208h-45z" />
    <glyph glyph-name="Thorn" unicode="&#xde;" horiz-adv-x="742" 
d="M270 569v-344h117q105 0 152 40.5t47 131.5q0 172 -199 172h-117zM270 656v-32h146q152 0 224 -63t72 -159q0 -104 -69.5 -168t-207.5 -64h-165v-46q0 -46 34 -61.5t111 -19.5v-43h-370v43q62 2 88.5 18t26.5 63v532q0 47 -26.5 63t-88.5 18v43h340v-43q-62 -2 -88.5 -18
t-26.5 -63z" />
    <glyph glyph-name="germandbls" unicode="&#xdf;" horiz-adv-x="711" 
d="M235 0h-180v39q22 3 33 5.5t23.5 8t18 16t5.5 27.5v379h-77v35l77 33v17q0 116 60.5 183t179.5 67q95 0 146.5 -45.5t51.5 -120.5q0 -66 -40.5 -121t-106.5 -84q37 -20 51.5 -28t47.5 -27.5t48 -31.5t38 -33.5t33 -40t18.5 -43.5t8.5 -51q0 -88 -53 -141t-144 -53
q-80 0 -126 32.5t-46 80.5q0 46 35 62h62v-34q0 -88 84 -88q46 0 71.5 27t25.5 81q0 64 -67.5 120t-193.5 121v26q92 47 121.5 92.5t29.5 111.5q0 65 -33.5 101t-90.5 36q-111 0 -111 -144v-615z" />
    <glyph glyph-name="agrave" unicode="&#xe0;" horiz-adv-x="610" 
d="M253 62q28 0 53.5 9.5t40.5 19.5t45 33v148l-175 -55q-55 -17 -55 -69q0 -42 24.5 -64t66.5 -22zM492 348v-217q0 -68 47 -68q21 0 44 6l10 -31q-49 -48 -104 -48q-68 0 -94 91q-82 -91 -187 -91q-72 0 -112 38t-40 99q0 33 10.5 57t33.5 39t43 23t56 18l193 57v21
q0 65 -31 105.5t-93 40.5q-83 0 -83 -74q0 -15 5 -48l-83 -10q-22 22 -22 54q0 60 57.5 95t144.5 35q205 0 205 -192zM103 800h122l84 -208h-45z" />
    <glyph glyph-name="aacute" unicode="&#xe1;" horiz-adv-x="610" 
d="M253 62q28 0 53.5 9.5t40.5 19.5t45 33v148l-175 -55q-55 -17 -55 -69q0 -42 24.5 -64t66.5 -22zM492 348v-217q0 -68 47 -68q21 0 44 6l10 -31q-49 -48 -104 -48q-68 0 -94 91q-82 -91 -187 -91q-72 0 -112 38t-40 99q0 33 10.5 57t33.5 39t43 23t56 18l193 57v21
q0 65 -31 105.5t-93 40.5q-83 0 -83 -74q0 -15 5 -48l-83 -10q-22 22 -22 54q0 60 57.5 95t144.5 35q205 0 205 -192zM341 800h122l-161 -208h-45z" />
    <glyph glyph-name="acircumflex" unicode="&#xe2;" horiz-adv-x="610" 
d="M253 62q28 0 53.5 9.5t40.5 19.5t45 33v148l-175 -55q-55 -17 -55 -69q0 -42 24.5 -64t66.5 -22zM492 348v-217q0 -68 47 -68q21 0 44 6l10 -31q-49 -48 -104 -48q-68 0 -94 91q-82 -91 -187 -91q-72 0 -112 38t-40 99q0 33 10.5 57t33.5 39t43 23t56 18l193 57v21
q0 65 -31 105.5t-93 40.5q-83 0 -83 -74q0 -15 5 -48l-83 -10q-22 22 -22 54q0 60 57.5 95t144.5 35q205 0 205 -192zM316 800l150 -208h-46l-138 124l-138 -124h-46l150 208h68z" />
    <glyph glyph-name="atilde" unicode="&#xe3;" horiz-adv-x="610" 
d="M253 62q28 0 53.5 9.5t40.5 19.5t45 33v148l-175 -55q-55 -17 -55 -69q0 -42 24.5 -64t66.5 -22zM492 348v-217q0 -68 47 -68q21 0 44 6l10 -31q-49 -48 -104 -48q-68 0 -94 91q-82 -91 -187 -91q-72 0 -112 38t-40 99q0 33 10.5 57t33.5 39t43 23t56 18l193 57v21
q0 65 -31 105.5t-93 40.5q-83 0 -83 -74q0 -15 5 -48l-83 -10q-22 22 -22 54q0 60 57.5 95t144.5 35q205 0 205 -192zM358 610q-34 0 -83.5 29.5t-69.5 29.5q-24 0 -38 -10.5t-31 -42.5l-39 6q21 63 52.5 93t77.5 30q34 0 83.5 -29.5t69.5 -29.5q24 0 38 10.5t31 42.5l39 -6
q-21 -63 -52.5 -93t-77.5 -30z" />
    <glyph glyph-name="adieresis" unicode="&#xe4;" horiz-adv-x="610" 
d="M253 62q28 0 53.5 9.5t40.5 19.5t45 33v148l-175 -55q-55 -17 -55 -69q0 -42 24.5 -64t66.5 -22zM492 348v-217q0 -68 47 -68q21 0 44 6l10 -31q-49 -48 -104 -48q-68 0 -94 91q-82 -91 -187 -91q-72 0 -112 38t-40 99q0 33 10.5 57t33.5 39t43 23t56 18l193 57v21
q0 65 -31 105.5t-93 40.5q-83 0 -83 -74q0 -15 5 -48l-83 -10q-22 22 -22 54q0 60 57.5 95t144.5 35q205 0 205 -192zM115 696q0 29 20.5 49.5t49.5 20.5t49.5 -20.5t20.5 -49.5t-20.5 -49.5t-49.5 -20.5t-49.5 20.5t-20.5 49.5zM315 696q0 29 20.5 49.5t49.5 20.5
t49.5 -20.5t20.5 -49.5t-20.5 -49.5t-49.5 -20.5t-49.5 20.5t-20.5 49.5z" />
    <glyph glyph-name="aring" unicode="&#xe5;" horiz-adv-x="610" 
d="M253 62q28 0 53.5 9.5t40.5 19.5t45 33v148l-175 -55q-55 -17 -55 -69q0 -42 24.5 -64t66.5 -22zM492 348v-217q0 -68 47 -68q21 0 44 6l10 -31q-49 -48 -104 -48q-68 0 -94 91q-82 -91 -187 -91q-72 0 -112 38t-40 99q0 33 10.5 57t33.5 39t43 23t56 18l193 57v21
q0 65 -31 105.5t-93 40.5q-83 0 -83 -74q0 -15 5 -48l-83 -10q-22 22 -22 54q0 60 57.5 95t144.5 35q205 0 205 -192zM168 696q0 48 32 81t82 33t82 -33t32 -81t-32 -81t-82 -33t-82 33t-32 81zM343 696q0 30 -15.5 49t-45.5 19t-45.5 -19t-15.5 -49t15.5 -49t45.5 -19
t45.5 19t15.5 49z" />
    <glyph glyph-name="ae" unicode="&#xe6;" horiz-adv-x="918" 
d="M657 540q106 0 164 -59t58 -153v-37l-389 -42q22 -172 189 -172q108 0 172 79l29 -13q-19 -63 -77 -108t-155 -45q-148 0 -217 112q-45 -56 -95.5 -84t-127.5 -28q-72 0 -112 38t-40 99q0 67 41.5 100.5t126.5 42.5l168 18v54q0 65 -31 105.5t-93 40.5q-83 0 -83 -74
q0 -15 5 -48l-83 -10q-22 22 -22 54q0 60 57.5 95t144.5 35q135 0 176 -89q67 89 194 89zM632 478q-64 0 -105 -44.5t-41 -135.5l283 30q3 71 -33.5 110.5t-103.5 39.5zM253 62q44 0 86 22.5t72 57.5q-18 46 -19 96l-160 -17q-70 -7 -70 -73q0 -42 24.5 -64t66.5 -22z" />
    <glyph glyph-name="ccedilla" unicode="&#xe7;" horiz-adv-x="557" 
d="M136 286q0 -98 49 -153.5t141 -55.5q108 0 172 79l29 -13q-19 -62 -76 -107t-151 -46l-7 -33q118 -26 118 -106q0 -45 -35.5 -73t-87.5 -28q-50 0 -88 24l10 31q33 -13 70 -13q31 0 49.5 12t18.5 33q0 45 -99 61l19 93q-74 6 -127 45t-77 94t-24 118q0 131 81 211.5
t207 80.5q85 0 136.5 -36.5t51.5 -93.5q0 -47 -39 -64h-68v41q0 95 -101 95q-77 0 -124.5 -52t-47.5 -144z" />
    <glyph glyph-name="egrave" unicode="&#xe8;" horiz-adv-x="566" 
d="M305 540q106 0 164 -59t58 -153v-28h-392q0 -106 47.5 -164.5t144.5 -58.5q108 0 172 79l29 -13q-19 -63 -77 -108t-155 -45q-117 0 -186.5 73.5t-69.5 184.5q0 130 74.5 211t190.5 81zM280 478q-58 0 -96 -35t-46 -93h279q0 55 -36 91.5t-101 36.5zM108 800h122l84 -208
h-45z" />
    <glyph glyph-name="eacute" unicode="&#xe9;" horiz-adv-x="566" 
d="M305 540q106 0 164 -59t58 -153v-28h-392q0 -106 47.5 -164.5t144.5 -58.5q108 0 172 79l29 -13q-19 -63 -77 -108t-155 -45q-117 0 -186.5 73.5t-69.5 184.5q0 130 74.5 211t190.5 81zM280 478q-58 0 -96 -35t-46 -93h279q0 55 -36 91.5t-101 36.5zM346 800h122
l-161 -208h-45z" />
    <glyph glyph-name="ecircumflex" unicode="&#xea;" horiz-adv-x="566" 
d="M305 540q106 0 164 -59t58 -153v-28h-392q0 -106 47.5 -164.5t144.5 -58.5q108 0 172 79l29 -13q-19 -63 -77 -108t-155 -45q-117 0 -186.5 73.5t-69.5 184.5q0 130 74.5 211t190.5 81zM280 478q-58 0 -96 -35t-46 -93h279q0 55 -36 91.5t-101 36.5zM321 800l150 -208
h-46l-138 124l-138 -124h-46l150 208h68z" />
    <glyph glyph-name="edieresis" unicode="&#xeb;" horiz-adv-x="566" 
d="M305 540q106 0 164 -59t58 -153v-28h-392q0 -106 47.5 -164.5t144.5 -58.5q108 0 172 79l29 -13q-19 -63 -77 -108t-155 -45q-117 0 -186.5 73.5t-69.5 184.5q0 130 74.5 211t190.5 81zM280 478q-58 0 -96 -35t-46 -93h279q0 55 -36 91.5t-101 36.5zM117 696
q0 29 20.5 49.5t49.5 20.5t49.5 -20.5t20.5 -49.5t-20.5 -49.5t-49.5 -20.5t-49.5 20.5t-20.5 49.5zM317 696q0 29 20.5 49.5t49.5 20.5t49.5 -20.5t20.5 -49.5t-20.5 -49.5t-49.5 -20.5t-49.5 20.5t-20.5 49.5z" />
    <glyph glyph-name="igrave" unicode="&#xec;" horiz-adv-x="355" 
d="M235 436v-340q0 -17 5.5 -27.5t18 -16t23.5 -8t33 -5.5v-39h-260v39q22 3 33 5.5t23.5 8t18 16t5.5 27.5v335l-75 35v24l145 50h35zM6 800h122l84 -208h-45z" />
    <glyph glyph-name="iacute" unicode="&#xed;" horiz-adv-x="355" 
d="M235 436v-340q0 -17 5.5 -27.5t18 -16t23.5 -8t33 -5.5v-39h-260v39q22 3 33 5.5t23.5 8t18 16t5.5 27.5v335l-75 35v24l145 50h35zM244 800h122l-161 -208h-45z" />
    <glyph glyph-name="icircumflex" unicode="&#xee;" horiz-adv-x="355" 
d="M235 436v-340q0 -17 5.5 -27.5t18 -16t23.5 -8t33 -5.5v-39h-260v39q22 3 33 5.5t23.5 8t18 16t5.5 27.5v335l-75 35v24l145 50h35zM219 800l150 -208h-46l-138 124l-138 -124h-46l150 208h68z" />
    <glyph glyph-name="idieresis" unicode="&#xef;" horiz-adv-x="355" 
d="M235 436v-340q0 -17 5.5 -27.5t18 -16t23.5 -8t33 -5.5v-39h-260v39q22 3 33 5.5t23.5 8t18 16t5.5 27.5v335l-75 35v24l145 50h35zM15 696q0 29 20.5 49.5t49.5 20.5t49.5 -20.5t20.5 -49.5t-20.5 -49.5t-49.5 -20.5t-49.5 20.5t-20.5 49.5zM215 696q0 29 20.5 49.5
t49.5 20.5t49.5 -20.5t20.5 -49.5t-20.5 -49.5t-49.5 -20.5t-49.5 20.5t-20.5 49.5z" />
    <glyph glyph-name="eth" unicode="&#xf0;" horiz-adv-x="624" 
d="M200 580l-18 40l130 59q-74 67 -149 104v9l57 20q89 -32 167 -99l102 47l18 -39l-85 -39q162 -158 162 -380q0 -148 -76.5 -230t-201.5 -82q-119 0 -192.5 78t-73.5 187q0 128 79.5 206.5t196.5 78.5q78 0 132 -40q-28 70 -103 147zM146 291q0 -92 50 -165.5t140 -73.5
q73 0 111.5 51t38.5 136q0 62 -19.5 115t-64 88.5t-106.5 35.5q-73 0 -111.5 -51t-38.5 -136z" />
    <glyph glyph-name="ntilde" unicode="&#xf1;" horiz-adv-x="717" 
d="M505 96v266q0 53 -26.5 75t-78.5 22q-40 0 -86.5 -18t-78.5 -44v-301q0 -17 5.5 -27.5t18 -16t23.5 -8t33 -5.5v-39h-260v39q22 3 33 5.5t23.5 8t18 16t5.5 27.5v335l-75 35v24l145 50h35l-5 -98q37 40 92.5 69t110.5 29q78 0 122.5 -40t44.5 -124v-280q0 -17 5.5 -27.5
t18 -16t23.5 -8t33 -5.5v-39h-260v39q22 3 33 5.5t23.5 8t18 16t5.5 27.5zM436 610q-34 0 -83.5 29.5t-69.5 29.5q-24 0 -38 -10.5t-31 -42.5l-39 6q21 63 52.5 93t77.5 30q34 0 83.5 -29.5t69.5 -29.5q24 0 38 10.5t31 42.5l39 -6q-21 -63 -52.5 -93t-77.5 -30z" />
    <glyph glyph-name="ograve" unicode="&#xf2;" horiz-adv-x="632" 
d="M336 52q73 0 111.5 52t38.5 137q0 101 -51.5 169t-138.5 68q-73 0 -111.5 -52t-38.5 -137q0 -101 51.5 -169t138.5 -68zM306 -10q-118 0 -192 74.5t-74 190.5q0 128 83.5 206.5t202.5 78.5q118 0 192 -74.5t74 -190.5q0 -128 -83.5 -206.5t-202.5 -78.5zM137 800h122
l84 -208h-45z" />
    <glyph glyph-name="oacute" unicode="&#xf3;" horiz-adv-x="632" 
d="M336 52q73 0 111.5 52t38.5 137q0 101 -51.5 169t-138.5 68q-73 0 -111.5 -52t-38.5 -137q0 -101 51.5 -169t138.5 -68zM306 -10q-118 0 -192 74.5t-74 190.5q0 128 83.5 206.5t202.5 78.5q118 0 192 -74.5t74 -190.5q0 -128 -83.5 -206.5t-202.5 -78.5zM375 800h122
l-161 -208h-45z" />
    <glyph glyph-name="ocircumflex" unicode="&#xf4;" horiz-adv-x="632" 
d="M336 52q73 0 111.5 52t38.5 137q0 101 -51.5 169t-138.5 68q-73 0 -111.5 -52t-38.5 -137q0 -101 51.5 -169t138.5 -68zM306 -10q-118 0 -192 74.5t-74 190.5q0 128 83.5 206.5t202.5 78.5q118 0 192 -74.5t74 -190.5q0 -128 -83.5 -206.5t-202.5 -78.5zM350 800
l150 -208h-46l-138 124l-138 -124h-46l150 208h68z" />
    <glyph glyph-name="otilde" unicode="&#xf5;" horiz-adv-x="632" 
d="M336 52q73 0 111.5 52t38.5 137q0 101 -51.5 169t-138.5 68q-73 0 -111.5 -52t-38.5 -137q0 -101 51.5 -169t138.5 -68zM306 -10q-118 0 -192 74.5t-74 190.5q0 128 83.5 206.5t202.5 78.5q118 0 192 -74.5t74 -190.5q0 -128 -83.5 -206.5t-202.5 -78.5zM382 610
q-34 0 -83.5 29.5t-69.5 29.5q-24 0 -38 -10.5t-31 -42.5l-39 6q21 63 52.5 93t77.5 30q34 0 83.5 -29.5t69.5 -29.5q24 0 38 10.5t31 42.5l39 -6q-21 -63 -52.5 -93t-77.5 -30z" />
    <glyph glyph-name="odieresis" unicode="&#xf6;" horiz-adv-x="632" 
d="M336 52q73 0 111.5 52t38.5 137q0 101 -51.5 169t-138.5 68q-73 0 -111.5 -52t-38.5 -137q0 -101 51.5 -169t138.5 -68zM306 -10q-118 0 -192 74.5t-74 190.5q0 128 83.5 206.5t202.5 78.5q118 0 192 -74.5t74 -190.5q0 -128 -83.5 -206.5t-202.5 -78.5zM146 696
q0 29 20.5 49.5t49.5 20.5t49.5 -20.5t20.5 -49.5t-20.5 -49.5t-49.5 -20.5t-49.5 20.5t-20.5 49.5zM346 696q0 29 20.5 49.5t49.5 20.5t49.5 -20.5t20.5 -49.5t-20.5 -49.5t-49.5 -20.5t-49.5 20.5t-20.5 49.5z" />
    <glyph glyph-name="divide" unicode="&#xf7;" 
d="M620 258h-540v64h540v-64zM287 509q0 26 19 45t45 19t45 -19t19 -45t-19 -45t-45 -19t-45 19t-19 45zM287 71q0 26 19 45t45 19t45 -19t19 -45t-19 -45t-45 -19t-45 19t-19 45z" />
    <glyph glyph-name="oslash" unicode="&#xf8;" horiz-adv-x="632" 
d="M306 -10q-90 0 -154 43l-56 -65l-36 31l55 64q-75 75 -75 192q0 128 83.5 206.5t202.5 78.5q89 0 157 -46l57 66l39 -32l-57 -67q70 -73 70 -186q0 -128 -83.5 -206.5t-202.5 -78.5zM146 289q0 -87 36 -147l241 281q-52 55 -127 55q-73 0 -111.5 -52t-38.5 -137zM336 52
q73 0 111.5 52t38.5 137q0 80 -34 140l-240 -278q51 -51 124 -51z" />
    <glyph glyph-name="ugrave" unicode="&#xf9;" horiz-adv-x="678" 
d="M453 -10l5 98q-81 -98 -186 -98q-78 0 -122.5 40t-44.5 124v272q0 26 -14 36.5t-53 15.5l-18 2v40l164 20h26l-5 -104v-268q0 -101 101 -101q70 0 152 66v293q0 26 -14 36.5t-53 15.5l-18 2v40l164 20h26l-5 -104v-322q0 -25 11 -33.5t47 -12.5l27 -3v-40l-175 -35h-15z
M152 800h122l84 -208h-45z" />
    <glyph glyph-name="uacute" unicode="&#xfa;" horiz-adv-x="678" 
d="M453 -10l5 98q-81 -98 -186 -98q-78 0 -122.5 40t-44.5 124v272q0 26 -14 36.5t-53 15.5l-18 2v40l164 20h26l-5 -104v-268q0 -101 101 -101q70 0 152 66v293q0 26 -14 36.5t-53 15.5l-18 2v40l164 20h26l-5 -104v-322q0 -25 11 -33.5t47 -12.5l27 -3v-40l-175 -35h-15z
M390 800h122l-161 -208h-45z" />
    <glyph glyph-name="ucircumflex" unicode="&#xfb;" horiz-adv-x="678" 
d="M453 -10l5 98q-81 -98 -186 -98q-78 0 -122.5 40t-44.5 124v272q0 26 -14 36.5t-53 15.5l-18 2v40l164 20h26l-5 -104v-268q0 -101 101 -101q70 0 152 66v293q0 26 -14 36.5t-53 15.5l-18 2v40l164 20h26l-5 -104v-322q0 -25 11 -33.5t47 -12.5l27 -3v-40l-175 -35h-15z
M365 800l150 -208h-46l-138 124l-138 -124h-46l150 208h68z" />
    <glyph glyph-name="udieresis" unicode="&#xfc;" horiz-adv-x="678" 
d="M453 -10l5 98q-81 -98 -186 -98q-78 0 -122.5 40t-44.5 124v272q0 26 -14 36.5t-53 15.5l-18 2v40l164 20h26l-5 -104v-268q0 -101 101 -101q70 0 152 66v293q0 26 -14 36.5t-53 15.5l-18 2v40l164 20h26l-5 -104v-322q0 -25 11 -33.5t47 -12.5l27 -3v-40l-175 -35h-15z
M161 696q0 29 20.5 49.5t49.5 20.5t49.5 -20.5t20.5 -49.5t-20.5 -49.5t-49.5 -20.5t-49.5 20.5t-20.5 49.5zM361 696q0 29 20.5 49.5t49.5 20.5t49.5 -20.5t20.5 -49.5t-20.5 -49.5t-49.5 -20.5t-49.5 20.5t-20.5 49.5z" />
    <glyph glyph-name="yacute" unicode="&#xfd;" horiz-adv-x="600" 
d="M283 -1l-212 452q-7 16 -15.5 21.5t-45.5 18.5v39h250v-39q-43 -6 -58.5 -12.5t-15.5 -23.5q0 -12 7 -27l139 -321l123 321q7 18 7 27q0 17 -15.5 23.5t-58.5 12.5v39h202v-39q-35 -12 -44.5 -18.5t-16.5 -21.5l-230 -558q-34 -82 -71 -112.5t-86 -30.5q-27 0 -47.5 10.5
t-28.5 23.5v60h61q52 0 80 17t49 70zM364 800h122l-161 -208h-45z" />
    <glyph glyph-name="thorn" unicode="&#xfe;" horiz-adv-x="651" 
d="M185 30v-174q0 -17 5.5 -27.5t18 -16t23.5 -8t33 -5.5v-39h-260v39q22 3 33 5.5t23.5 8t18 16t5.5 27.5v853l-75 27v24l145 50h35l-5 -86v-277q33 42 83.5 67.5t107.5 25.5q111 0 173 -71t62 -179q0 -135 -83 -217.5t-205 -82.5q-85 0 -138 40zM334 47q80 0 127 53
t47 148q0 57 -14.5 103t-54.5 79.5t-101 33.5q-44 0 -85 -18.5t-68 -47.5v-225q0 -66 42.5 -96t106.5 -30z" />
    <glyph glyph-name="ydieresis" unicode="&#xff;" horiz-adv-x="600" 
d="M283 -1l-212 452q-7 16 -15.5 21.5t-45.5 18.5v39h250v-39q-43 -6 -58.5 -12.5t-15.5 -23.5q0 -12 7 -27l139 -321l123 321q7 18 7 27q0 17 -15.5 23.5t-58.5 12.5v39h202v-39q-35 -12 -44.5 -18.5t-16.5 -21.5l-230 -558q-34 -82 -71 -112.5t-86 -30.5q-27 0 -47.5 10.5
t-28.5 23.5v60h61q52 0 80 17t49 70zM135 696q0 29 20.5 49.5t49.5 20.5t49.5 -20.5t20.5 -49.5t-20.5 -49.5t-49.5 -20.5t-49.5 20.5t-20.5 49.5zM335 696q0 29 20.5 49.5t49.5 20.5t49.5 -20.5t20.5 -49.5t-20.5 -49.5t-49.5 -20.5t-49.5 20.5t-20.5 49.5z" />
    <glyph glyph-name="Amacron" unicode="&#x100;" horiz-adv-x="832" 
d="M608 136l-50 116h-341l-47 -115q-12 -29 -12 -45q0 -25 23.5 -36t83.5 -13v-43h-255v43q28 4 44 12t25 29l269 633l-35 73h129l311 -706q9 -21 25 -29t44 -12v-43h-308v43q60 2 83 12.5t23 35.5q0 19 -12 45zM384 655l-144 -348h294zM250 871v64h272v-64h-272z" />
    <glyph glyph-name="amacron" unicode="&#x101;" horiz-adv-x="610" 
d="M253 62q28 0 53.5 9.5t40.5 19.5t45 33v148l-175 -55q-55 -17 -55 -69q0 -42 24.5 -64t66.5 -22zM492 348v-217q0 -68 47 -68q21 0 44 6l10 -31q-49 -48 -104 -48q-68 0 -94 91q-82 -91 -187 -91q-72 0 -112 38t-40 99q0 33 10.5 57t33.5 39t43 23t56 18l193 57v21
q0 65 -31 105.5t-93 40.5q-83 0 -83 -74q0 -15 5 -48l-83 -10q-22 22 -22 54q0 60 57.5 95t144.5 35q205 0 205 -192zM146 644v64h272v-64h-272z" />
    <glyph glyph-name="Abreve" unicode="&#x102;" horiz-adv-x="832" 
d="M608 136l-50 116h-341l-47 -115q-12 -29 -12 -45q0 -25 23.5 -36t83.5 -13v-43h-255v43q28 4 44 12t25 29l269 633l-35 73h129l311 -706q9 -21 25 -29t44 -12v-43h-308v43q60 2 83 12.5t23 35.5q0 19 -12 45zM384 655l-144 -348h294zM386 832q-94 0 -136 50t-42 148h44
q14 -130 134 -130t134 130h44q0 -98 -42 -148t-136 -50z" />
    <glyph glyph-name="abreve" unicode="&#x103;" horiz-adv-x="610" 
d="M253 62q28 0 53.5 9.5t40.5 19.5t45 33v148l-175 -55q-55 -17 -55 -69q0 -42 24.5 -64t66.5 -22zM492 348v-217q0 -68 47 -68q21 0 44 6l10 -31q-49 -48 -104 -48q-68 0 -94 91q-82 -91 -187 -91q-72 0 -112 38t-40 99q0 33 10.5 57t33.5 39t43 23t56 18l193 57v21
q0 65 -31 105.5t-93 40.5q-83 0 -83 -74q0 -15 5 -48l-83 -10q-22 22 -22 54q0 60 57.5 95t144.5 35q205 0 205 -192zM282 602q-94 0 -136 50t-42 148h44q14 -130 134 -130t134 130h44q0 -98 -42 -148t-136 -50z" />
    <glyph glyph-name="Aogonek" unicode="&#x104;" horiz-adv-x="832" 
d="M737 0h-223v43q60 2 83 12.5t23 35.5q0 19 -12 45l-50 116h-341l-47 -115q-12 -29 -12 -45q0 -25 23.5 -36t83.5 -13v-43h-255v43q28 4 44 12t25 29l269 633l-35 73h129l311 -706q9 -21 25 -29t44 -12v-43q-124 -44 -124 -126q0 -31 20 -48t55 -17q18 0 34 3.5t23 7.5
l8 3l10 -31q-40 -42 -105 -42q-52 0 -86 27.5t-34 84.5q0 81 114 138zM384 655l-144 -348h294z" />
    <glyph glyph-name="aogonek" unicode="&#x105;" horiz-adv-x="610" 
d="M253 62q28 0 53.5 9.5t40.5 19.5t45 33v148l-175 -55q-55 -17 -55 -69q0 -42 24.5 -64t66.5 -22zM461 -6q-45 14 -66 87q-82 -91 -187 -91q-72 0 -112 38t-40 99q0 33 10.5 57t33.5 39t43 23t56 18l193 57v21q0 65 -31 105.5t-93 40.5q-83 0 -83 -74q0 -15 5 -48l-83 -10
q-22 22 -22 54q0 60 57.5 95t144.5 35q205 0 205 -192v-217q0 -68 47 -68q21 0 44 6l10 -31q-4 -3 -24 -17t-26 -19t-22.5 -18.5t-22.5 -23t-15.5 -24t-13 -30t-3.5 -32.5q0 -31 20 -48t55 -17q18 0 34 3.5t23 7.5l8 3l10 -31q-40 -42 -105 -42q-52 0 -86 27.5t-34 84.5
q0 74 70 132z" />
    <glyph glyph-name="Cacute" unicode="&#x106;" horiz-adv-x="817" 
d="M481 51q111 0 168.5 44.5t94.5 143.5h40l-22 -189q-142 -60 -303 -60q-125 0 -219.5 54.5t-141 141t-46.5 189.5q0 187 119 301t298 114q161 0 274 -67l6 -170h-38q-34 95 -94.5 135t-154.5 40q-76 0 -132.5 -24.5t-89 -68t-48 -98.5t-15.5 -121q0 -72 18 -135.5t54 -116
t95.5 -83t136.5 -30.5zM521 1030h122l-161 -208h-45z" />
    <glyph glyph-name="cacute" unicode="&#x107;" horiz-adv-x="557" 
d="M136 286q0 -98 49 -153.5t141 -55.5q108 0 172 79l29 -13q-19 -63 -77 -108t-155 -45q-122 0 -188.5 76.5t-66.5 181.5q0 131 81 211.5t207 80.5q85 0 136.5 -36.5t51.5 -93.5q0 -47 -39 -64h-68v41q0 95 -101 95q-77 0 -124.5 -52t-47.5 -144zM362 800h122l-161 -208
h-45z" />
    <glyph glyph-name="Ccircumflex" unicode="&#x108;" horiz-adv-x="817" 
d="M481 51q111 0 168.5 44.5t94.5 143.5h40l-22 -189q-142 -60 -303 -60q-125 0 -219.5 54.5t-141 141t-46.5 189.5q0 187 119 301t298 114q161 0 274 -67l6 -170h-38q-34 95 -94.5 135t-154.5 40q-76 0 -132.5 -24.5t-89 -68t-48 -98.5t-15.5 -121q0 -72 18 -135.5t54 -116
t95.5 -83t136.5 -30.5zM498 1030l150 -208h-46l-138 124l-138 -124h-46l150 208h68z" />
    <glyph glyph-name="ccircumflex" unicode="&#x109;" horiz-adv-x="557" 
d="M136 286q0 -98 49 -153.5t141 -55.5q108 0 172 79l29 -13q-19 -63 -77 -108t-155 -45q-122 0 -188.5 76.5t-66.5 181.5q0 131 81 211.5t207 80.5q85 0 136.5 -36.5t51.5 -93.5q0 -47 -39 -64h-68v41q0 95 -101 95q-77 0 -124.5 -52t-47.5 -144zM337 800l150 -208h-46
l-138 124l-138 -124h-46l150 208h68z" />
    <glyph glyph-name="Cdotaccent" unicode="&#x10a;" horiz-adv-x="817" 
d="M481 51q111 0 168.5 44.5t94.5 143.5h40l-22 -189q-142 -60 -303 -60q-125 0 -219.5 54.5t-141 141t-46.5 189.5q0 187 119 301t298 114q161 0 274 -67l6 -170h-38q-34 95 -94.5 135t-154.5 40q-76 0 -132.5 -24.5t-89 -68t-48 -98.5t-15.5 -121q0 -72 18 -135.5t54 -116
t95.5 -83t136.5 -30.5zM394 916q0 29 20.5 49.5t49.5 20.5t49.5 -20.5t20.5 -49.5t-20.5 -49.5t-49.5 -20.5t-49.5 20.5t-20.5 49.5z" />
    <glyph glyph-name="cdotaccent" unicode="&#x10b;" horiz-adv-x="557" 
d="M136 286q0 -98 49 -153.5t141 -55.5q108 0 172 79l29 -13q-19 -63 -77 -108t-155 -45q-122 0 -188.5 76.5t-66.5 181.5q0 131 81 211.5t207 80.5q85 0 136.5 -36.5t51.5 -93.5q0 -47 -39 -64h-68v41q0 95 -101 95q-77 0 -124.5 -52t-47.5 -144zM233 696q0 29 20.5 49.5
t49.5 20.5t49.5 -20.5t20.5 -49.5t-20.5 -49.5t-49.5 -20.5t-49.5 20.5t-20.5 49.5z" />
    <glyph glyph-name="Ccaron" unicode="&#x10c;" horiz-adv-x="817" 
d="M481 51q111 0 168.5 44.5t94.5 143.5h40l-22 -189q-142 -60 -303 -60q-125 0 -219.5 54.5t-141 141t-46.5 189.5q0 187 119 301t298 114q161 0 274 -67l6 -170h-38q-34 95 -94.5 135t-154.5 40q-76 0 -132.5 -24.5t-89 -68t-48 -98.5t-15.5 -121q0 -72 18 -135.5t54 -116
t95.5 -83t136.5 -30.5zM430 822l-150 208h46l138 -124l138 124h46l-150 -208h-68z" />
    <glyph glyph-name="ccaron" unicode="&#x10d;" horiz-adv-x="557" 
d="M136 286q0 -98 49 -153.5t141 -55.5q108 0 172 79l29 -13q-19 -63 -77 -108t-155 -45q-122 0 -188.5 76.5t-66.5 181.5q0 131 81 211.5t207 80.5q85 0 136.5 -36.5t51.5 -93.5q0 -47 -39 -64h-68v41q0 95 -101 95q-77 0 -124.5 -52t-47.5 -144zM269 592l-150 208h46
l138 -124l138 124h46l-150 -208h-68z" />
    <glyph glyph-name="Dcaron" unicode="&#x10e;" horiz-adv-x="922" 
d="M439 725h-169v-592q0 -47 25.5 -62.5t89.5 -15.5h80q123 0 202 79.5t79 228.5q0 74 -17 137t-52.5 114.5t-96 81t-141.5 29.5zM45 780h424q99 0 177.5 -30t126.5 -81.5t72.5 -117t24.5 -139.5q0 -193 -115 -302.5t-289 -109.5h-421v43q62 2 88.5 18t26.5 63v532
q0 47 -26.5 63t-88.5 18v43zM423 822l-150 208h46l138 -124l138 124h46l-150 -208h-68z" />
    <glyph glyph-name="dcaron" unicode="&#x10f;" horiz-adv-x="681" 
d="M317 483q-80 0 -127 -55t-47 -155q0 -84 42.5 -144.5t131.5 -60.5t149 63v217q0 67 -43 101t-106 34zM651 25l-175 -35h-15l5 93q-73 -93 -187 -93q-112 0 -175.5 71t-63.5 179q0 135 82 217.5t200 82.5q87 0 144 -43v212l-75 27v24l145 50h35l-5 -86v-610
q0 -25 11 -33.5t47 -12.5l27 -3v-40zM624 800h96l-64 -208h-44z" />
    <glyph glyph-name="Dcroat" unicode="&#x110;" horiz-adv-x="927" 
d="M50 370v55h115v231q0 47 -26.5 63t-88.5 18v43h424q99 0 177.5 -30t126.5 -81.5t72.5 -117t24.5 -139.5q0 -193 -115 -302.5t-289 -109.5h-421v43q62 2 88.5 18t26.5 63v246h-115zM444 725h-169v-300h207v-55h-207v-237q0 -47 25.5 -62.5t89.5 -15.5h80q123 0 202 79.5
t79 228.5q0 74 -17 137t-52.5 114.5t-96 81t-141.5 29.5z" />
    <glyph glyph-name="dcroat" unicode="&#x111;" horiz-adv-x="681" 
d="M290 604v45h176v60l-75 27v24l145 50h35l-5 -86v-75h85v-45h-85v-490q0 -25 11 -33.5t47 -12.5l27 -3v-40l-175 -35h-15l5 93q-73 -93 -187 -93q-112 0 -175.5 71t-63.5 179q0 135 82 217.5t200 82.5q87 0 144 -43v107h-176zM317 483q-80 0 -127 -55t-47 -155
q0 -84 42.5 -144.5t131.5 -60.5t149 63v217q0 67 -43 101t-106 34z" />
    <glyph glyph-name="Emacron" unicode="&#x112;" horiz-adv-x="806" 
d="M607 270h-38q-9 53 -27.5 76.5t-54.5 23.5h-217v-240q0 -44 25.5 -59.5t89.5 -15.5h133q38 0 61 5t45.5 25.5t37 41t47.5 73.5h37l-35 -200h-666v43q62 2 88.5 18t26.5 63v532q0 47 -26.5 63t-88.5 18v43h661l3 -186h-33q-32 75 -65.5 103t-99.5 28h-241v-300h217
q36 0 54.5 23.5t27.5 76.5h38v-255zM267 871v64h272v-64h-272z" />
    <glyph glyph-name="emacron" unicode="&#x113;" horiz-adv-x="566" 
d="M305 540q106 0 164 -59t58 -153v-28h-392q0 -106 47.5 -164.5t144.5 -58.5q108 0 172 79l29 -13q-19 -63 -77 -108t-155 -45q-117 0 -186.5 73.5t-69.5 184.5q0 130 74.5 211t190.5 81zM280 478q-58 0 -96 -35t-46 -93h279q0 55 -36 91.5t-101 36.5zM151 644v64h272v-64
h-272z" />
    <glyph glyph-name="Ebreve" unicode="&#x114;" horiz-adv-x="806" 
d="M607 270h-38q-9 53 -27.5 76.5t-54.5 23.5h-217v-240q0 -44 25.5 -59.5t89.5 -15.5h133q38 0 61 5t45.5 25.5t37 41t47.5 73.5h37l-35 -200h-666v43q62 2 88.5 18t26.5 63v532q0 47 -26.5 63t-88.5 18v43h661l3 -186h-33q-32 75 -65.5 103t-99.5 28h-241v-300h217
q36 0 54.5 23.5t27.5 76.5h38v-255zM413 832q-94 0 -136 50t-42 148h44q14 -130 134 -130t134 130h44q0 -98 -42 -148t-136 -50z" />
    <glyph glyph-name="ebreve" unicode="&#x115;" horiz-adv-x="566" 
d="M305 540q106 0 164 -59t58 -153v-28h-392q0 -106 47.5 -164.5t144.5 -58.5q108 0 172 79l29 -13q-19 -63 -77 -108t-155 -45q-117 0 -186.5 73.5t-69.5 184.5q0 130 74.5 211t190.5 81zM280 478q-58 0 -96 -35t-46 -93h279q0 55 -36 91.5t-101 36.5zM287 602
q-94 0 -136 50t-42 148h44q14 -130 134 -130t134 130h44q0 -98 -42 -148t-136 -50z" />
    <glyph glyph-name="Edotaccent" unicode="&#x116;" horiz-adv-x="806" 
d="M607 270h-38q-9 53 -27.5 76.5t-54.5 23.5h-217v-240q0 -44 25.5 -59.5t89.5 -15.5h133q38 0 61 5t45.5 25.5t37 41t47.5 73.5h37l-35 -200h-666v43q62 2 88.5 18t26.5 63v532q0 47 -26.5 63t-88.5 18v43h661l3 -186h-33q-32 75 -65.5 103t-99.5 28h-241v-300h217
q36 0 54.5 23.5t27.5 76.5h38v-255zM333 916q0 29 20.5 49.5t49.5 20.5t49.5 -20.5t20.5 -49.5t-20.5 -49.5t-49.5 -20.5t-49.5 20.5t-20.5 49.5z" />
    <glyph glyph-name="edotaccent" unicode="&#x117;" horiz-adv-x="566" 
d="M305 540q106 0 164 -59t58 -153v-28h-392q0 -106 47.5 -164.5t144.5 -58.5q108 0 172 79l29 -13q-19 -63 -77 -108t-155 -45q-117 0 -186.5 73.5t-69.5 184.5q0 130 74.5 211t190.5 81zM280 478q-58 0 -96 -35t-46 -93h279q0 55 -36 91.5t-101 36.5zM217 696
q0 29 20.5 49.5t49.5 20.5t49.5 -20.5t20.5 -49.5t-20.5 -49.5t-49.5 -20.5t-49.5 20.5t-20.5 49.5z" />
    <glyph glyph-name="Eogonek" unicode="&#x118;" horiz-adv-x="806" 
d="M626 0h-581v43q62 2 88.5 18t26.5 63v532q0 47 -26.5 63t-88.5 18v43h661l3 -186h-33q-32 75 -65.5 103t-99.5 28h-241v-300h217q36 0 54.5 23.5t27.5 76.5h38v-255h-38q-9 53 -27.5 76.5t-54.5 23.5h-217v-240q0 -44 25.5 -59.5t89.5 -15.5h133q38 0 61 5t45.5 25.5
t37 41t47.5 73.5h37l-35 -200q-124 -44 -124 -126q0 -31 20 -48t55 -17q18 0 34 3.5t24 7.5l7 3l10 -31q-40 -42 -105 -42q-52 0 -86 27.5t-34 84.5q0 81 114 138z" />
    <glyph glyph-name="eogonek" unicode="&#x119;" horiz-adv-x="566" 
d="M418 15q-113 -58 -113 -141q0 -31 20 -48t55 -17q18 0 34 3.5t24 7.5l7 3l10 -31q-40 -42 -105 -42q-52 0 -86 27.5t-34 84.5q0 80 85 129q-6 -1 -19 -1q-117 0 -186.5 73.5t-69.5 184.5q0 130 74.5 211t190.5 81q106 0 164 -59t58 -153v-28h-392q0 -106 47.5 -164.5
t144.5 -58.5q108 0 172 79l29 -13q-27 -85 -110 -128zM280 478q-58 0 -96 -35t-46 -93h279q0 55 -36 91.5t-101 36.5z" />
    <glyph glyph-name="Ecaron" unicode="&#x11a;" horiz-adv-x="806" 
d="M607 270h-38q-9 53 -27.5 76.5t-54.5 23.5h-217v-240q0 -44 25.5 -59.5t89.5 -15.5h133q38 0 61 5t45.5 25.5t37 41t47.5 73.5h37l-35 -200h-666v43q62 2 88.5 18t26.5 63v532q0 47 -26.5 63t-88.5 18v43h661l3 -186h-33q-32 75 -65.5 103t-99.5 28h-241v-300h217
q36 0 54.5 23.5t27.5 76.5h38v-255zM382 822l-150 208h46l138 -124l138 124h46l-150 -208h-68z" />
    <glyph glyph-name="ecaron" unicode="&#x11b;" horiz-adv-x="566" 
d="M305 540q106 0 164 -59t58 -153v-28h-392q0 -106 47.5 -164.5t144.5 -58.5q108 0 172 79l29 -13q-19 -63 -77 -108t-155 -45q-117 0 -186.5 73.5t-69.5 184.5q0 130 74.5 211t190.5 81zM280 478q-58 0 -96 -35t-46 -93h279q0 55 -36 91.5t-101 36.5zM253 592l-150 208h46
l138 -124l138 124h46l-150 -208h-68z" />
    <glyph glyph-name="Gcircumflex" unicode="&#x11c;" horiz-adv-x="900" 
d="M52 375q0 187 120 301t297 114q161 0 274 -67l6 -170h-38q-34 95 -94.5 135t-154.5 40q-76 0 -132.5 -24.5t-89 -68t-48 -98.5t-15.5 -121q0 -71 18 -135t53 -115.5t93.5 -82t133.5 -30.5q131 0 185 60v138q0 47 -26.5 63t-88.5 18v43h340v-43q-62 -2 -88.5 -18
t-26.5 -63v-181q-129 -80 -311 -80q-125 0 -219.5 54.5t-141 141t-46.5 189.5zM498 1030l150 -208h-46l-138 124l-138 -124h-46l150 208h68z" />
    <glyph glyph-name="gcircumflex" unicode="&#x11d;" horiz-adv-x="596" 
d="M322 800l150 -208h-46l-138 124l-138 -124h-46l150 208h68zM298 540q49 0 89 -14l194 5v-70h-40l-119 16v-2q38 -16 62.5 -52t24.5 -80q0 -87 -61.5 -135.5t-158.5 -48.5q-56 0 -109 17q-36 -28 -36 -59q0 -43 48 -43h225q78 0 120.5 -34.5t42.5 -101.5q0 -82 -80.5 -135
t-224.5 -53q-123 0 -184 39.5t-61 94.5q0 21 7.5 37.5t25.5 30t30.5 20t38.5 18.5q-32 11 -51.5 35.5t-19.5 54.5q0 40 23.5 65t64.5 47q-81 51 -81 147q0 93 64 147t166 54zM396 -22h-244q-26 -30 -26 -73q0 -50 40 -77t115 -27q99 0 155 27.5t56 79.5q0 41 -24 55.5
t-72 14.5zM303 209q50 0 76 33.5t26 88.5q0 61 -33.5 108.5t-97.5 47.5q-51 0 -77 -33.5t-26 -88.5q0 -60 34 -108t98 -48z" />
    <glyph glyph-name="Gbreve" unicode="&#x11e;" horiz-adv-x="900" 
d="M52 375q0 187 120 301t297 114q161 0 274 -67l6 -170h-38q-34 95 -94.5 135t-154.5 40q-76 0 -132.5 -24.5t-89 -68t-48 -98.5t-15.5 -121q0 -71 18 -135t53 -115.5t93.5 -82t133.5 -30.5q131 0 185 60v138q0 47 -26.5 63t-88.5 18v43h340v-43q-62 -2 -88.5 -18
t-26.5 -63v-181q-129 -80 -311 -80q-125 0 -219.5 54.5t-141 141t-46.5 189.5zM464 832q-94 0 -136 50t-42 148h44q14 -130 134 -130t134 130h44q0 -98 -42 -148t-136 -50z" />
    <glyph glyph-name="gbreve" unicode="&#x11f;" horiz-adv-x="596" 
d="M298 540q49 0 89 -14l194 5v-70h-40l-119 16v-2q38 -16 62.5 -52t24.5 -80q0 -87 -61.5 -135.5t-158.5 -48.5q-56 0 -109 17q-36 -28 -36 -59q0 -43 48 -43h225q78 0 120.5 -34.5t42.5 -101.5q0 -82 -80.5 -135t-224.5 -53q-123 0 -184 39.5t-61 94.5q0 21 7.5 37.5
t25.5 30t30.5 20t38.5 18.5q-32 11 -51.5 35.5t-19.5 54.5q0 40 23.5 65t64.5 47q-81 51 -81 147q0 93 64 147t166 54zM396 -22h-244q-26 -30 -26 -73q0 -50 40 -77t115 -27q99 0 155 27.5t56 79.5q0 41 -24 55.5t-72 14.5zM303 209q50 0 76 33.5t26 88.5q0 61 -33.5 108.5
t-97.5 47.5q-51 0 -77 -33.5t-26 -88.5q0 -60 34 -108t98 -48zM288 602q-94 0 -136 50t-42 148h44q14 -130 134 -130t134 130h44q0 -98 -42 -148t-136 -50z" />
    <glyph glyph-name="Gdotaccent" unicode="&#x120;" horiz-adv-x="900" 
d="M52 375q0 187 120 301t297 114q161 0 274 -67l6 -170h-38q-34 95 -94.5 135t-154.5 40q-76 0 -132.5 -24.5t-89 -68t-48 -98.5t-15.5 -121q0 -71 18 -135t53 -115.5t93.5 -82t133.5 -30.5q131 0 185 60v138q0 47 -26.5 63t-88.5 18v43h340v-43q-62 -2 -88.5 -18
t-26.5 -63v-181q-129 -80 -311 -80q-125 0 -219.5 54.5t-141 141t-46.5 189.5zM394 916q0 29 20.5 49.5t49.5 20.5t49.5 -20.5t20.5 -49.5t-20.5 -49.5t-49.5 -20.5t-49.5 20.5t-20.5 49.5z" />
    <glyph glyph-name="gdotaccent" unicode="&#x121;" horiz-adv-x="596" 
d="M298 540q49 0 89 -14l194 5v-70h-40l-119 16v-2q38 -16 62.5 -52t24.5 -80q0 -87 -61.5 -135.5t-158.5 -48.5q-56 0 -109 17q-36 -28 -36 -59q0 -43 48 -43h225q78 0 120.5 -34.5t42.5 -101.5q0 -82 -80.5 -135t-224.5 -53q-123 0 -184 39.5t-61 94.5q0 21 7.5 37.5
t25.5 30t30.5 20t38.5 18.5q-32 11 -51.5 35.5t-19.5 54.5q0 40 23.5 65t64.5 47q-81 51 -81 147q0 93 64 147t166 54zM396 -22h-244q-26 -30 -26 -73q0 -50 40 -77t115 -27q99 0 155 27.5t56 79.5q0 41 -24 55.5t-72 14.5zM303 209q50 0 76 33.5t26 88.5q0 61 -33.5 108.5
t-97.5 47.5q-51 0 -77 -33.5t-26 -88.5q0 -60 34 -108t98 -48zM218 696q0 29 20.5 49.5t49.5 20.5t49.5 -20.5t20.5 -49.5t-20.5 -49.5t-49.5 -20.5t-49.5 20.5t-20.5 49.5z" />
    <glyph glyph-name="Gcommaaccent" unicode="&#x122;" horiz-adv-x="900" 
d="M52 375q0 187 120 301t297 114q161 0 274 -67l6 -170h-38q-34 95 -94.5 135t-154.5 40q-76 0 -132.5 -24.5t-89 -68t-48 -98.5t-15.5 -121q0 -71 18 -135t53 -115.5t93.5 -82t133.5 -30.5q131 0 185 60v138q0 47 -26.5 63t-88.5 18v43h340v-43q-62 -2 -88.5 -18
t-26.5 -63v-181q-129 -80 -311 -80q-125 0 -219.5 54.5t-141 141t-46.5 189.5zM481 -170h-39q-50 11 -50 60q0 24 19.5 42t49.5 18q36 0 55.5 -24t19.5 -61q0 -111 -128 -115v40q38 4 53 12t20 28z" />
    <glyph glyph-name="gcommaaccent" unicode="&#x123;" horiz-adv-x="596" 
d="M298 540q49 0 89 -14l194 5v-70h-40l-119 16v-2q38 -16 62.5 -52t24.5 -80q0 -87 -61.5 -135.5t-158.5 -48.5q-56 0 -109 17q-36 -28 -36 -59q0 -43 48 -43h225q78 0 120.5 -34.5t42.5 -101.5q0 -82 -80.5 -135t-224.5 -53q-123 0 -184 39.5t-61 94.5q0 21 7.5 37.5
t25.5 30t30.5 20t38.5 18.5q-32 11 -51.5 35.5t-19.5 54.5q0 40 23.5 65t64.5 47q-81 51 -81 147q0 93 64 147t166 54zM396 -22h-244q-26 -30 -26 -73q0 -50 40 -77t115 -27q99 0 155 27.5t56 79.5q0 41 -24 55.5t-72 14.5zM303 209q50 0 76 33.5t26 88.5q0 61 -33.5 108.5
t-97.5 47.5q-51 0 -77 -33.5t-26 -88.5q0 -60 34 -108t98 -48zM272 720h39q50 -11 50 -60q0 -24 -19.5 -42t-49.5 -18q-36 0 -55.5 24t-19.5 61q0 111 128 115v-40q-38 -4 -53 -12t-20 -28z" />
    <glyph glyph-name="Hcircumflex" unicode="&#x124;" horiz-adv-x="985" 
d="M715 124v246h-445v-246q0 -47 26.5 -63t88.5 -18v-43h-340v43q62 2 88.5 18t26.5 63v532q0 47 -26.5 63t-88.5 18v43h340v-43q-62 -2 -88.5 -18t-26.5 -63v-231h445v231q0 47 -26.5 63t-88.5 18v43h340v-43q-62 -2 -88.5 -18t-26.5 -63v-532q0 -47 26.5 -63t88.5 -18v-43
h-340v43q62 2 88.5 18t26.5 63zM526 1030l150 -208h-46l-138 124l-138 -124h-46l150 208h68z" />
    <glyph glyph-name="hcircumflex" unicode="&#x125;" horiz-adv-x="701" 
d="M119 709l-75 27v24l145 50h35l-5 -86v-282q37 40 92.5 69t110.5 29q78 0 122.5 -40t44.5 -124v-280q0 -17 5.5 -27.5t18 -16t23.5 -8t33 -5.5v-39h-260v39q22 3 33 5.5t23.5 8t18 16t5.5 27.5v266q0 53 -26.5 75t-78.5 22q-40 0 -86.5 -18t-78.5 -44v-301
q0 -17 5.5 -27.5t18 -16t23.5 -8t33 -5.5v-39h-260v39q22 3 33 5.5t23.5 8t18 16t5.5 27.5v613zM208 1030l150 -208h-46l-138 124l-138 -124h-46l150 208h68z" />
    <glyph glyph-name="Hbar" unicode="&#x126;" horiz-adv-x="995" 
d="M55 550v53h105v53q0 47 -26.5 63t-88.5 18v43h340v-43q-62 -2 -88.5 -18t-26.5 -63v-53h445v53q0 47 -26.5 63t-88.5 18v43h340v-43q-62 -2 -88.5 -18t-26.5 -63v-53h104v-53h-104v-426q0 -47 26.5 -63t88.5 -18v-43h-340v43q62 2 88.5 18t26.5 63v246h-445v-246
q0 -47 26.5 -63t88.5 -18v-43h-340v43q62 2 88.5 18t26.5 63v426h-105zM270 425h445v125h-445v-125z" />
    <glyph glyph-name="hbar" unicode="&#x127;" horiz-adv-x="701" 
d="M119 709l-75 27v24l145 50h35l-5 -86v-75h186v-45h-186v-162q37 40 92.5 69t110.5 29q78 0 122.5 -40t44.5 -124v-280q0 -17 5.5 -27.5t18 -16t23.5 -8t33 -5.5v-39h-260v39q22 3 33 5.5t23.5 8t18 16t5.5 27.5v266q0 53 -26.5 75t-78.5 22q-40 0 -86.5 -18t-78.5 -44
v-301q0 -17 5.5 -27.5t18 -16t23.5 -8t33 -5.5v-39h-260v39q22 3 33 5.5t23.5 8t18 16t5.5 27.5v508h-75v45h75v60z" />
    <glyph glyph-name="Itilde" unicode="&#x128;" horiz-adv-x="430" 
d="M160 124v532q0 47 -26.5 63t-88.5 18v43h340v-43q-62 -2 -88.5 -18t-26.5 -63v-532q0 -47 26.5 -63t88.5 -18v-43h-340v43q62 2 88.5 18t26.5 63zM281 847q-34 0 -83.5 29.5t-69.5 29.5q-24 0 -38 -10.5t-31 -42.5l-39 6q21 63 52.5 93t77.5 30q34 0 83.5 -29.5
t69.5 -29.5q24 0 38 10.5t31 42.5l39 -6q-21 -63 -52.5 -93t-77.5 -30z" />
    <glyph glyph-name="itilde" unicode="&#x129;" horiz-adv-x="355" 
d="M235 436v-340q0 -17 5.5 -27.5t18 -16t23.5 -8t33 -5.5v-39h-260v39q22 3 33 5.5t23.5 8t18 16t5.5 27.5v335l-75 35v24l145 50h35zM251 610q-34 0 -83.5 29.5t-69.5 29.5q-24 0 -38 -10.5t-31 -42.5l-39 6q21 63 52.5 93t77.5 30q34 0 83.5 -29.5t69.5 -29.5
q24 0 38 10.5t31 42.5l39 -6q-21 -63 -52.5 -93t-77.5 -30z" />
    <glyph glyph-name="Imacron" unicode="&#x12a;" horiz-adv-x="430" 
d="M160 124v532q0 47 -26.5 63t-88.5 18v43h340v-43q-62 -2 -88.5 -18t-26.5 -63v-532q0 -47 26.5 -63t88.5 -18v-43h-340v43q62 2 88.5 18t26.5 63zM79 871v64h272v-64h-272z" />
    <glyph glyph-name="imacron" unicode="&#x12b;" horiz-adv-x="355" 
d="M235 436v-340q0 -17 5.5 -27.5t18 -16t23.5 -8t33 -5.5v-39h-260v39q22 3 33 5.5t23.5 8t18 16t5.5 27.5v335l-75 35v24l145 50h35zM49 644v64h272v-64h-272z" />
    <glyph glyph-name="Ibreve" unicode="&#x12c;" horiz-adv-x="430" 
d="M160 124v532q0 47 -26.5 63t-88.5 18v43h340v-43q-62 -2 -88.5 -18t-26.5 -63v-532q0 -47 26.5 -63t88.5 -18v-43h-340v43q62 2 88.5 18t26.5 63zM215 832q-94 0 -136 50t-42 148h44q14 -130 134 -130t134 130h44q0 -98 -42 -148t-136 -50z" />
    <glyph glyph-name="ibreve" unicode="&#x12d;" horiz-adv-x="355" 
d="M235 436v-340q0 -17 5.5 -27.5t18 -16t23.5 -8t33 -5.5v-39h-260v39q22 3 33 5.5t23.5 8t18 16t5.5 27.5v335l-75 35v24l145 50h35zM185 602q-94 0 -136 50t-42 148h44q14 -130 134 -130t134 130h44q0 -98 -42 -148t-136 -50z" />
    <glyph glyph-name="Iogonek" unicode="&#x12e;" horiz-adv-x="430" 
d="M300 0h-255v43q62 2 88.5 18t26.5 63v532q0 47 -26.5 63t-88.5 18v43h340v-43q-62 -2 -88.5 -18t-26.5 -63v-532q0 -47 26.5 -63t88.5 -18v-43q-124 -44 -124 -126q0 -31 20 -48t55 -17q18 0 34 3.5t24 7.5l7 3l10 -31q-40 -42 -105 -42q-52 0 -86 27.5t-34 84.5
q0 81 114 138z" />
    <glyph glyph-name="iogonek" unicode="&#x12f;" horiz-adv-x="355" 
d="M114 696q0 29 20.5 49.5t49.5 20.5t49.5 -20.5t20.5 -49.5t-20.5 -49.5t-49.5 -20.5t-49.5 20.5t-20.5 49.5zM220 0h-165v39q22 3 33 5.5t23.5 8t18 16t5.5 27.5v335l-75 35v24l145 50h35l-5 -104v-340q0 -17 5.5 -27.5t18 -16t23.5 -8t33 -5.5v-39q-124 -44 -124 -126
q0 -31 20 -48t55 -17q18 0 34 3.5t24 7.5l7 3l10 -31q-40 -42 -105 -42q-52 0 -86 27.5t-34 84.5q0 86 104 138z" />
    <glyph glyph-name="Idotaccent" unicode="&#x130;" horiz-adv-x="430" 
d="M160 124v532q0 47 -26.5 63t-88.5 18v43h340v-43q-62 -2 -88.5 -18t-26.5 -63v-532q0 -47 26.5 -63t88.5 -18v-43h-340v43q62 2 88.5 18t26.5 63zM145 916q0 29 20.5 49.5t49.5 20.5t49.5 -20.5t20.5 -49.5t-20.5 -49.5t-49.5 -20.5t-49.5 20.5t-20.5 49.5z" />
    <glyph glyph-name="dotlessi" unicode="&#x131;" horiz-adv-x="355" 
d="M235 436v-340q0 -17 5.5 -27.5t18 -16t23.5 -8t33 -5.5v-39h-260v39q22 3 33 5.5t23.5 8t18 16t5.5 27.5v335l-75 35v24l145 50h35z" />
    <glyph glyph-name="IJ" unicode="&#x132;" horiz-adv-x="943" 
d="M160 124v532q0 47 -26.5 63t-88.5 18v43h340v-43q-62 -2 -88.5 -18t-26.5 -63v-532q0 -47 26.5 -63t88.5 -18v-43h-340v43q62 2 88.5 18t26.5 63zM808 656v-439q0 -227 -212 -227q-92 0 -144 35.5t-52 97.5q0 51 30 76h81v-55q0 -54 23 -80t59 -26q54 0 79.5 34t25.5 123
v461q0 47 -26.5 63t-88.5 18v43h340v-43q-62 -2 -88.5 -18t-26.5 -63z" />
    <glyph glyph-name="ij" unicode="&#x133;" horiz-adv-x="595" 
d="M135 431l-75 35v24l145 50h35l-5 -104v-340q0 -17 5.5 -27.5t18 -16t23.5 -8t33 -5.5v-39h-260v39q22 3 33 5.5t23.5 8t18 16t5.5 27.5v335zM114 696q0 29 20.5 49.5t49.5 20.5t49.5 -20.5t20.5 -49.5t-20.5 -49.5t-49.5 -20.5t-49.5 20.5t-20.5 49.5zM411 431l-75 35v24
l145 50h35l-5 -104v-374q0 -67 -5.5 -98.5t-22.5 -64.5q-30 -57 -133 -147l-31 27l48 77q44 69 44 183v392zM390 696q0 29 20.5 49.5t49.5 20.5t49.5 -20.5t20.5 -49.5t-20.5 -49.5t-49.5 -20.5t-49.5 20.5t-20.5 49.5z" />
    <glyph glyph-name="Jcircumflex" unicode="&#x134;" horiz-adv-x="583" 
d="M448 656v-434q0 -115 -61 -173.5t-171 -58.5q-99 0 -157.5 38t-58.5 100q0 46 30 71h81v-50q0 -55 30.5 -83t80.5 -28q116 0 116 167v451q0 47 -26.5 63t-88.5 18v43h340v-43q-62 -2 -88.5 -18t-26.5 -63zM423 1030l150 -208h-46l-138 124l-138 -124h-46l150 208h68z" />
    <glyph glyph-name="jcircumflex" unicode="&#x135;" horiz-adv-x="291" 
d="M107 431l-75 35v24l145 50h35l-5 -104v-374q0 -67 -5.5 -98.5t-22.5 -64.5q-30 -57 -133 -147l-31 27l48 77q44 69 44 183v392zM189 800l150 -208h-46l-138 124l-138 -124h-46l150 208h68z" />
    <glyph glyph-name="Kcommaaccent" unicode="&#x136;" horiz-adv-x="840" 
d="M397 429l323 -324q32 -32 55.5 -45t59.5 -17v-43h-145q-56 29 -118 94l-296 303l309 267q26 22 26 42q0 15 -17 21t-75 10v43h294v-43q-38 -2 -63.5 -14.5t-60.5 -42.5zM160 124v532q0 47 -26.5 63t-88.5 18v43h340v-43q-62 -2 -88.5 -18t-26.5 -63v-532q0 -47 26.5 -63
t88.5 -18v-43h-340v43q62 2 88.5 18t26.5 63zM457 -170h-39q-50 11 -50 60q0 24 19.5 42t49.5 18q36 0 55.5 -24t19.5 -61q0 -111 -128 -115v40q38 4 53 12t20 28z" />
    <glyph glyph-name="kcommaaccent" unicode="&#x137;" horiz-adv-x="628" 
d="M225 273l175 155q17 17 17 29q0 17 -13 22.5t-56 11.5v39h240v-39q-55 -15 -83 -38l-176 -153l294 -268v-32h-112zM219 724v-628q0 -17 5.5 -27.5t18 -16t23.5 -8t33 -5.5v-39h-260v39q22 3 33 5.5t23.5 8t18 16t5.5 27.5v613l-75 27v24l145 50h35zM364 -170h-39
q-50 11 -50 60q0 24 19.5 42t49.5 18q36 0 55.5 -24t19.5 -61q0 -111 -128 -115v40q38 4 53 12t20 28z" />
    <glyph glyph-name="kgreenlandic" unicode="&#x138;" horiz-adv-x="644" 
d="M135 431l-75 35v24l145 50h35l-5 -104v-340q0 -17 5.5 -27.5t18 -16t23.5 -8t33 -5.5v-39h-260v39q22 3 33 5.5t23.5 8t18 16t5.5 27.5v335zM241 273l175 155q17 17 17 29q0 17 -13 22.5t-56 11.5v39h240v-39q-55 -15 -83 -38l-176 -153l294 -268v-32h-112z" />
    <glyph glyph-name="Lacute" unicode="&#x139;" horiz-adv-x="758" 
d="M270 656v-526q0 -44 25.5 -59.5t89.5 -15.5h118q21 0 39 4t30.5 7.5t27 18t21.5 21t22.5 32t21.5 36t26 46.5h37l-37 -220h-646v43q62 2 88.5 18t26.5 63v532q0 47 -26.5 63t-88.5 18v43h340v-43q-62 -2 -88.5 -18t-26.5 -63zM287 1030h122l-161 -208h-45z" />
    <glyph glyph-name="lacute" unicode="&#x13a;" horiz-adv-x="345" 
d="M225 724v-628q0 -17 5.5 -27.5t18 -16t23.5 -8t33 -5.5v-39h-260v39q22 3 33 5.5t23.5 8t18 16t5.5 27.5v613l-75 27v24l145 50h35zM222 1030h122l-161 -208h-45z" />
    <glyph glyph-name="Lcommaaccent" unicode="&#x13b;" horiz-adv-x="758" 
d="M270 656v-526q0 -44 25.5 -59.5t89.5 -15.5h118q21 0 39 4t30.5 7.5t27 18t21.5 21t22.5 32t21.5 36t26 46.5h37l-37 -220h-646v43q62 2 88.5 18t26.5 63v532q0 47 -26.5 63t-88.5 18v43h340v-43q-62 -2 -88.5 -18t-26.5 -63zM403 -170h-39q-50 11 -50 60q0 24 19.5 42
t49.5 18q36 0 55.5 -24t19.5 -61q0 -111 -128 -115v40q38 4 53 12t20 28z" />
    <glyph glyph-name="lcommaaccent" unicode="&#x13c;" horiz-adv-x="345" 
d="M225 724v-628q0 -17 5.5 -27.5t18 -16t23.5 -8t33 -5.5v-39h-260v39q22 3 33 5.5t23.5 8t18 16t5.5 27.5v613l-75 27v24l145 50h35zM192 -170h-39q-50 11 -50 60q0 24 19.5 42t49.5 18q36 0 55.5 -24t19.5 -61q0 -111 -128 -115v40q38 4 53 12t20 28z" />
    <glyph glyph-name="Lcaron" unicode="&#x13d;" horiz-adv-x="758" 
d="M270 656v-526q0 -44 25.5 -59.5t89.5 -15.5h118q21 0 39 4t30.5 7.5t27 18t21.5 21t22.5 32t21.5 36t26 46.5h37l-37 -220h-646v43q62 2 88.5 18t26.5 63v532q0 47 -26.5 63t-88.5 18v43h340v-43q-62 -2 -88.5 -18t-26.5 -63zM488 780h96l-64 -208h-44z" />
    <glyph glyph-name="lcaron" unicode="&#x13e;" horiz-adv-x="345" 
d="M225 724v-628q0 -17 5.5 -27.5t18 -16t23.5 -8t33 -5.5v-39h-260v39q22 3 33 5.5t23.5 8t18 16t5.5 27.5v613l-75 27v24l145 50h35zM283 800h96l-64 -208h-44z" />
    <glyph glyph-name="Ldot" unicode="&#x13f;" horiz-adv-x="758" 
d="M270 656v-526q0 -44 25.5 -59.5t89.5 -15.5h118q21 0 39 4t30.5 7.5t27 18t21.5 21t22.5 32t21.5 36t26 46.5h37l-37 -220h-646v43q62 2 88.5 18t26.5 63v532q0 47 -26.5 63t-88.5 18v43h340v-43q-62 -2 -88.5 -18t-26.5 -63zM517 400q0 32 22.5 54.5t54.5 22.5
t54.5 -22.5t22.5 -54.5t-22.5 -54.5t-54.5 -22.5t-54.5 22.5t-22.5 54.5z" />
    <glyph glyph-name="ldot" unicode="&#x140;" horiz-adv-x="388" 
d="M225 724v-628q0 -17 5.5 -27.5t18 -16t23.5 -8t33 -5.5v-39h-260v39q22 3 33 5.5t23.5 8t18 16t5.5 27.5v613l-75 27v24l145 50h35zM292 335q0 32 22.5 54.5t54.5 22.5t54.5 -22.5t22.5 -54.5t-22.5 -54.5t-54.5 -22.5t-54.5 22.5t-22.5 54.5z" />
    <glyph glyph-name="Lslash" unicode="&#x141;" horiz-adv-x="758" 
d="M45 268v58l115 50v280q0 47 -26.5 63t-88.5 18v43h340v-43q-62 -2 -88.5 -18t-26.5 -63v-237l195 85v-58l-195 -85v-231q0 -44 25.5 -59.5t89.5 -15.5h118q21 0 39 4t30.5 7.5t27 18t21.5 21t22.5 32t21.5 36t26 46.5h37l-37 -220h-646v43q62 2 88.5 18t26.5 63v194z" />
    <glyph glyph-name="lslash" unicode="&#x142;" horiz-adv-x="351" 
d="M225 724v-242l85 54v-53l-85 -54v-333q0 -17 5.5 -27.5t18 -16t23.5 -8t33 -5.5v-39h-260v39q22 3 33 5.5t23.5 8t18 16t5.5 27.5v280l-80 -50v53l80 50v280l-75 27v24l145 50h35z" />
    <glyph glyph-name="Nacute" unicode="&#x143;" horiz-adv-x="966" 
d="M160 124v547q-36 41 -55.5 53t-59.5 13v43h191l514 -593v469q0 47 -26.5 63t-88.5 18v43h296v-43q-62 -2 -88.5 -18t-26.5 -63v-656h-47l-543 621v-497q0 -47 26.5 -63t88.5 -18v-43h-296v43q62 2 88.5 18t26.5 63zM549 1030h122l-161 -208h-45z" />
    <glyph glyph-name="nacute" unicode="&#x144;" horiz-adv-x="717" 
d="M505 96v266q0 53 -26.5 75t-78.5 22q-40 0 -86.5 -18t-78.5 -44v-301q0 -17 5.5 -27.5t18 -16t23.5 -8t33 -5.5v-39h-260v39q22 3 33 5.5t23.5 8t18 16t5.5 27.5v335l-75 35v24l145 50h35l-5 -98q37 40 92.5 69t110.5 29q78 0 122.5 -40t44.5 -124v-280q0 -17 5.5 -27.5
t18 -16t23.5 -8t33 -5.5v-39h-260v39q22 3 33 5.5t23.5 8t18 16t5.5 27.5zM429 800h122l-161 -208h-45z" />
    <glyph glyph-name="Ncommaaccent" unicode="&#x145;" horiz-adv-x="966" 
d="M160 124v547q-36 41 -55.5 53t-59.5 13v43h191l514 -593v469q0 47 -26.5 63t-88.5 18v43h296v-43q-62 -2 -88.5 -18t-26.5 -63v-656h-47l-543 621v-497q0 -47 26.5 -63t88.5 -18v-43h-296v43q62 2 88.5 18t26.5 63zM509 -170h-39q-50 11 -50 60q0 24 19.5 42t49.5 18
q36 0 55.5 -24t19.5 -61q0 -111 -128 -115v40q38 4 53 12t20 28z" />
    <glyph glyph-name="ncommaaccent" unicode="&#x146;" horiz-adv-x="717" 
d="M505 96v266q0 53 -26.5 75t-78.5 22q-40 0 -86.5 -18t-78.5 -44v-301q0 -17 5.5 -27.5t18 -16t23.5 -8t33 -5.5v-39h-260v39q22 3 33 5.5t23.5 8t18 16t5.5 27.5v335l-75 35v24l145 50h35l-5 -98q37 40 92.5 69t110.5 29q78 0 122.5 -40t44.5 -124v-280q0 -17 5.5 -27.5
t18 -16t23.5 -8t33 -5.5v-39h-260v39q22 3 33 5.5t23.5 8t18 16t5.5 27.5zM387 -170h-39q-50 11 -50 60q0 24 19.5 42t49.5 18q36 0 55.5 -24t19.5 -61q0 -111 -128 -115v40q38 4 53 12t20 28z" />
    <glyph glyph-name="Ncaron" unicode="&#x147;" horiz-adv-x="966" 
d="M160 124v547q-36 41 -55.5 53t-59.5 13v43h191l514 -593v469q0 47 -26.5 63t-88.5 18v43h296v-43q-62 -2 -88.5 -18t-26.5 -63v-656h-47l-543 621v-497q0 -47 26.5 -63t88.5 -18v-43h-296v43q62 2 88.5 18t26.5 63zM458 822l-150 208h46l138 -124l138 124h46l-150 -208
h-68z" />
    <glyph glyph-name="ncaron" unicode="&#x148;" horiz-adv-x="717" 
d="M505 96v266q0 53 -26.5 75t-78.5 22q-40 0 -86.5 -18t-78.5 -44v-301q0 -17 5.5 -27.5t18 -16t23.5 -8t33 -5.5v-39h-260v39q22 3 33 5.5t23.5 8t18 16t5.5 27.5v335l-75 35v24l145 50h35l-5 -98q37 40 92.5 69t110.5 29q78 0 122.5 -40t44.5 -124v-280q0 -17 5.5 -27.5
t18 -16t23.5 -8t33 -5.5v-39h-260v39q22 3 33 5.5t23.5 8t18 16t5.5 27.5zM336 592l-150 208h46l138 -124l138 124h46l-150 -208h-68z" />
    <glyph glyph-name="Eng" unicode="&#x14a;" horiz-adv-x="966" 
d="M750 21l-524 600v-497q0 -47 26.5 -63t88.5 -18v-43h-296v43q62 2 88.5 18t26.5 63v547q-36 41 -55.5 53t-59.5 13v43h191l514 -593v469q0 47 -26.5 63t-88.5 18v43h296v-43q-62 -2 -88.5 -18t-26.5 -63v-706q0 -94 -40.5 -147t-140.5 -53q-70 0 -116.5 28.5t-46.5 80.5
q0 42 36 66h66v-30q0 -44 20.5 -69.5t61.5 -25.5q94 0 94 123v98z" />
    <glyph glyph-name="eng" unicode="&#x14b;" horiz-adv-x="677" 
d="M505 362q0 53 -26.5 75t-78.5 22q-40 0 -86.5 -18t-78.5 -44v-301q0 -17 5.5 -27.5t18 -16t23.5 -8t33 -5.5v-39h-260v39q22 3 33 5.5t23.5 8t18 16t5.5 27.5v335l-75 35v24l145 50h35l-5 -98q37 40 92.5 69t110.5 29q78 0 122.5 -40t44.5 -124v-451q0 -79 -53 -127
t-140 -48q-71 0 -108 28t-37 70q0 33 22 48h72v-23q0 -33 17 -54.5t50 -21.5q43 0 60 25.5t17 84.5v455z" />
    <glyph glyph-name="Omacron" unicode="&#x14c;" horiz-adv-x="898" 
d="M471 57q84 0 142 42t84 109.5t26 155.5q0 96 -31 175.5t-99.5 131.5t-165.5 52q-84 0 -142 -42t-84 -109.5t-26 -155.5q0 -96 31 -175.5t99.5 -131.5t165.5 -52zM438 -10q-173 0 -279.5 113.5t-106.5 271.5q0 186 118 300.5t290 114.5q173 0 279.5 -113.5t106.5 -271.5
q0 -186 -118 -300.5t-290 -114.5zM313 871v64h272v-64h-272z" />
    <glyph glyph-name="omacron" unicode="&#x14d;" horiz-adv-x="632" 
d="M336 52q73 0 111.5 52t38.5 137q0 101 -51.5 169t-138.5 68q-73 0 -111.5 -52t-38.5 -137q0 -101 51.5 -169t138.5 -68zM306 -10q-118 0 -192 74.5t-74 190.5q0 128 83.5 206.5t202.5 78.5q118 0 192 -74.5t74 -190.5q0 -128 -83.5 -206.5t-202.5 -78.5zM180 644v64h272
v-64h-272z" />
    <glyph glyph-name="Obreve" unicode="&#x14e;" horiz-adv-x="898" 
d="M471 57q84 0 142 42t84 109.5t26 155.5q0 96 -31 175.5t-99.5 131.5t-165.5 52q-84 0 -142 -42t-84 -109.5t-26 -155.5q0 -96 31 -175.5t99.5 -131.5t165.5 -52zM438 -10q-173 0 -279.5 113.5t-106.5 271.5q0 186 118 300.5t290 114.5q173 0 279.5 -113.5t106.5 -271.5
q0 -186 -118 -300.5t-290 -114.5zM449 832q-94 0 -136 50t-42 148h44q14 -130 134 -130t134 130h44q0 -98 -42 -148t-136 -50z" />
    <glyph glyph-name="obreve" unicode="&#x14f;" horiz-adv-x="632" 
d="M336 52q73 0 111.5 52t38.5 137q0 101 -51.5 169t-138.5 68q-73 0 -111.5 -52t-38.5 -137q0 -101 51.5 -169t138.5 -68zM306 -10q-118 0 -192 74.5t-74 190.5q0 128 83.5 206.5t202.5 78.5q118 0 192 -74.5t74 -190.5q0 -128 -83.5 -206.5t-202.5 -78.5zM316 602
q-94 0 -136 50t-42 148h44q14 -130 134 -130t134 130h44q0 -98 -42 -148t-136 -50z" />
    <glyph glyph-name="Ohungarumlaut" unicode="&#x150;" horiz-adv-x="898" 
d="M471 57q84 0 142 42t84 109.5t26 155.5q0 96 -31 175.5t-99.5 131.5t-165.5 52q-84 0 -142 -42t-84 -109.5t-26 -155.5q0 -96 31 -175.5t99.5 -131.5t165.5 -52zM438 -10q-173 0 -279.5 113.5t-106.5 271.5q0 186 118 300.5t290 114.5q173 0 279.5 -113.5t106.5 -271.5
q0 -186 -118 -300.5t-290 -114.5zM412 1030h102l-124 -208h-45zM572 1030h102l-124 -208h-45z" />
    <glyph glyph-name="ohungarumlaut" unicode="&#x151;" horiz-adv-x="632" 
d="M336 52q73 0 111.5 52t38.5 137q0 101 -51.5 169t-138.5 68q-73 0 -111.5 -52t-38.5 -137q0 -101 51.5 -169t138.5 -68zM306 -10q-118 0 -192 74.5t-74 190.5q0 128 83.5 206.5t202.5 78.5q118 0 192 -74.5t74 -190.5q0 -128 -83.5 -206.5t-202.5 -78.5zM269 800h102
l-124 -208h-45zM429 800h102l-124 -208h-45z" />
    <glyph glyph-name="OE" unicode="&#x152;" horiz-adv-x="1306" 
d="M438 -10q-173 0 -279.5 113.5t-106.5 271.5q0 186 118 300.5t290 114.5q44 0 92 -10h654l3 -186h-33q-32 75 -65.5 103t-99.5 28h-329q73 -50 115.5 -129.5t47.5 -170.5h142q36 0 54.5 23.5t27.5 76.5h38v-255h-38q-9 53 -27.5 76.5t-54.5 23.5h-143q-7 -104 -54 -185
t-124 -130h352q38 0 61 5t45.5 25.5t37 41t47.5 73.5h37l-35 -200h-678q-52 -10 -95 -10zM471 57q84 0 142 42t84 109.5t26 155.5q0 96 -31 175.5t-99.5 131.5t-165.5 52q-84 0 -142 -42t-84 -109.5t-26 -155.5q0 -96 31 -175.5t99.5 -131.5t165.5 -52z" />
    <glyph glyph-name="oe" unicode="&#x153;" horiz-adv-x="1012" 
d="M751 540q106 0 164 -59t58 -153v-28h-392q0 -106 47.5 -164.5t144.5 -58.5q108 0 172 79l29 -13q-19 -63 -77 -108t-155 -45q-148 0 -210 115q-37 -55 -96 -85t-130 -30q-118 0 -192 74.5t-74 190.5q0 128 83.5 206.5t202.5 78.5q148 0 216 -115q69 115 209 115zM336 52
q73 0 111.5 52t38.5 137q0 101 -51.5 169t-138.5 68q-73 0 -111.5 -52t-38.5 -137q0 -101 51.5 -169t138.5 -68zM726 478q-58 0 -96 -35t-46 -93h279q0 55 -36 91.5t-101 36.5z" />
    <glyph glyph-name="Racute" unicode="&#x154;" horiz-adv-x="848" 
d="M375 725h-105v-320h105q111 0 157.5 38t46.5 122q0 72 -49 116t-155 44zM45 780h364q160 0 228 -61t68 -154q0 -90 -66.5 -144t-176.5 -65q53 -12 108 -73l160 -176q30 -34 53 -47t60 -17v-43h-142q-27 14 -46 31.5t-61 62.5l-181 197q-30 33 -57 46t-70 13h-16v-226
q0 -47 26.5 -63t88.5 -18v-43h-340v43q62 2 88.5 18t26.5 63v532q0 47 -26.5 63t-88.5 18v43zM427 1030h122l-161 -208h-45z" />
    <glyph glyph-name="racute" unicode="&#x155;" horiz-adv-x="472" 
d="M240 540l-5 -153q43 76 79 114.5t86 38.5q32 0 49 -14v-93h-41q-51 0 -88 -18.5t-85 -74.5v-240q0 -35 19 -44.5t81 -16.5v-39h-280v39q22 3 33 5.5t23.5 8t18 16t5.5 27.5v335l-75 35v24l145 50h35zM331 800h122l-161 -208h-45z" />
    <glyph glyph-name="Rcommaaccent" unicode="&#x156;" horiz-adv-x="848" 
d="M375 725h-105v-320h105q111 0 157.5 38t46.5 122q0 72 -49 116t-155 44zM45 780h364q160 0 228 -61t68 -154q0 -90 -66.5 -144t-176.5 -65q53 -12 108 -73l160 -176q30 -34 53 -47t60 -17v-43h-142q-27 14 -46 31.5t-61 62.5l-181 197q-30 33 -57 46t-70 13h-16v-226
q0 -47 26.5 -63t88.5 -18v-43h-340v43q62 2 88.5 18t26.5 63v532q0 47 -26.5 63t-88.5 18v43zM469 -170h-39q-50 11 -50 60q0 24 19.5 42t49.5 18q36 0 55.5 -24t19.5 -61q0 -111 -128 -115v40q38 4 53 12t20 28z" />
    <glyph glyph-name="rcommaaccent" unicode="&#x157;" horiz-adv-x="472" 
d="M240 540l-5 -153q43 76 79 114.5t86 38.5q32 0 49 -14v-93h-41q-51 0 -88 -18.5t-85 -74.5v-240q0 -35 19 -44.5t81 -16.5v-39h-280v39q22 3 33 5.5t23.5 8t18 16t5.5 27.5v335l-75 35v24l145 50h35zM209 -170h-39q-50 11 -50 60q0 24 19.5 42t49.5 18q36 0 55.5 -24
t19.5 -61q0 -111 -128 -115v40q38 4 53 12t20 28z" />
    <glyph glyph-name="Rcaron" unicode="&#x158;" horiz-adv-x="848" 
d="M375 725h-105v-320h105q111 0 157.5 38t46.5 122q0 72 -49 116t-155 44zM45 780h364q160 0 228 -61t68 -154q0 -90 -66.5 -144t-176.5 -65q53 -12 108 -73l160 -176q30 -34 53 -47t60 -17v-43h-142q-27 14 -46 31.5t-61 62.5l-181 197q-30 33 -57 46t-70 13h-16v-226
q0 -47 26.5 -63t88.5 -18v-43h-340v43q62 2 88.5 18t26.5 63v532q0 47 -26.5 63t-88.5 18v43zM376 822l-150 208h46l138 -124l138 124h46l-150 -208h-68z" />
    <glyph glyph-name="rcaron" unicode="&#x159;" horiz-adv-x="472" 
d="M240 540l-5 -153q43 76 79 114.5t86 38.5q32 0 49 -14v-93h-41q-51 0 -88 -18.5t-85 -74.5v-240q0 -35 19 -44.5t81 -16.5v-39h-280v39q22 3 33 5.5t23.5 8t18 16t5.5 27.5v335l-75 35v24l145 50h35zM238 592l-150 208h46l138 -124l138 124h46l-150 -208h-68z" />
    <glyph glyph-name="Sacute" unicode="&#x15a;" horiz-adv-x="638" 
d="M294 -10q-71 0 -134.5 18.5t-101.5 49.5l-8 187h37q25 -88 79.5 -142t137.5 -54t130.5 37t47.5 101q0 53 -33.5 83.5t-103.5 58.5l-109 43q-42 17 -69.5 31.5t-54.5 38.5t-40.5 58.5t-13.5 79.5q0 91 68.5 150.5t184.5 59.5q69 0 135 -18t104 -48v-170h-35
q-43 177 -211 177q-69 0 -107.5 -34.5t-38.5 -94.5q0 -47 27.5 -74.5t89.5 -51.5l117 -46q48 -19 77.5 -35t58.5 -41t42 -59.5t13 -81.5q0 -104 -81.5 -163.5t-207.5 -59.5zM375 1030h122l-161 -208h-45z" />
    <glyph glyph-name="sacute" unicode="&#x15b;" horiz-adv-x="504" 
d="M247 -10q-116 0 -187 52l-6 133h42q32 -132 151 -132q53 0 82.5 23t29.5 66q0 34 -22 52t-69 32l-70 22q-69 21 -102.5 54t-33.5 97q0 70 50 110.5t135 40.5q97 0 172 -43v-124h-42q-12 60 -44.5 87t-88.5 27q-42 0 -67 -19.5t-25 -57.5q0 -30 17.5 -46.5t56.5 -29.5
l79 -24q75 -22 110 -57.5t35 -103.5q0 -74 -55.5 -116.5t-147.5 -42.5zM295 800h122l-161 -208h-45z" />
    <glyph glyph-name="Scircumflex" unicode="&#x15c;" horiz-adv-x="638" 
d="M294 -10q-71 0 -134.5 18.5t-101.5 49.5l-8 187h37q25 -88 79.5 -142t137.5 -54t130.5 37t47.5 101q0 53 -33.5 83.5t-103.5 58.5l-109 43q-42 17 -69.5 31.5t-54.5 38.5t-40.5 58.5t-13.5 79.5q0 91 68.5 150.5t184.5 59.5q69 0 135 -18t104 -48v-170h-35
q-43 177 -211 177q-69 0 -107.5 -34.5t-38.5 -94.5q0 -47 27.5 -74.5t89.5 -51.5l117 -46q48 -19 77.5 -35t58.5 -41t42 -59.5t13 -81.5q0 -104 -81.5 -163.5t-207.5 -59.5zM352 1030l150 -208h-46l-138 124l-138 -124h-46l150 208h68z" />
    <glyph glyph-name="scircumflex" unicode="&#x15d;" horiz-adv-x="504" 
d="M247 -10q-116 0 -187 52l-6 133h42q32 -132 151 -132q53 0 82.5 23t29.5 66q0 34 -22 52t-69 32l-70 22q-69 21 -102.5 54t-33.5 97q0 70 50 110.5t135 40.5q97 0 172 -43v-124h-42q-12 60 -44.5 87t-88.5 27q-42 0 -67 -19.5t-25 -57.5q0 -30 17.5 -46.5t56.5 -29.5
l79 -24q75 -22 110 -57.5t35 -103.5q0 -74 -55.5 -116.5t-147.5 -42.5zM280 800l150 -208h-46l-138 124l-138 -124h-46l150 208h68z" />
    <glyph glyph-name="Scedilla" unicode="&#x15e;" horiz-adv-x="638" 
d="M583 213q0 -102 -79 -161.5t-201 -61.5l-7 -33q118 -26 118 -106q0 -45 -35.5 -73t-87.5 -28q-50 0 -88 24l10 31q33 -13 70 -13q31 0 49.5 12t18.5 33q0 45 -99 61l19 93q-140 6 -213 67l-8 187h37q25 -88 79.5 -142t137.5 -54t130.5 37t47.5 101q0 53 -33.5 83.5
t-103.5 58.5l-109 43q-42 17 -69.5 31.5t-54.5 38.5t-40.5 58.5t-13.5 79.5q0 91 68.5 150.5t184.5 59.5q69 0 135 -18t104 -48v-170h-35q-43 177 -211 177q-69 0 -107.5 -34.5t-38.5 -94.5q0 -47 27.5 -74.5t89.5 -51.5l117 -46q48 -19 77.5 -35t58.5 -41t42 -59.5
t13 -81.5z" />
    <glyph glyph-name="scedilla" unicode="&#x15f;" horiz-adv-x="504" 
d="M247 -10l-7 -33q118 -26 118 -106q0 -45 -35.5 -73t-87.5 -28q-50 0 -88 24l10 31q33 -13 70 -13q31 0 49.5 12t18.5 33q0 45 -99 61l19 93q-96 7 -155 51l-6 133h42q32 -132 151 -132q53 0 82.5 23t29.5 66q0 34 -22 52t-69 32l-70 22q-69 21 -102.5 54t-33.5 97
q0 70 50 110.5t135 40.5q97 0 172 -43v-124h-42q-12 60 -44.5 87t-88.5 27q-42 0 -67 -19.5t-25 -57.5q0 -30 17.5 -46.5t56.5 -29.5l79 -24q75 -22 110 -57.5t35 -103.5q0 -74 -55.5 -116.5t-147.5 -42.5z" />
    <glyph glyph-name="Scaron" unicode="&#x160;" horiz-adv-x="638" 
d="M294 -10q-71 0 -134.5 18.5t-101.5 49.5l-8 187h37q25 -88 79.5 -142t137.5 -54t130.5 37t47.5 101q0 53 -33.5 83.5t-103.5 58.5l-109 43q-42 17 -69.5 31.5t-54.5 38.5t-40.5 58.5t-13.5 79.5q0 91 68.5 150.5t184.5 59.5q69 0 135 -18t104 -48v-170h-35
q-43 177 -211 177q-69 0 -107.5 -34.5t-38.5 -94.5q0 -47 27.5 -74.5t89.5 -51.5l117 -46q48 -19 77.5 -35t58.5 -41t42 -59.5t13 -81.5q0 -104 -81.5 -163.5t-207.5 -59.5zM284 822l-150 208h46l138 -124l138 124h46l-150 -208h-68z" />
    <glyph glyph-name="scaron" unicode="&#x161;" horiz-adv-x="504" 
d="M247 -10q-116 0 -187 52l-6 133h42q32 -132 151 -132q53 0 82.5 23t29.5 66q0 34 -22 52t-69 32l-70 22q-69 21 -102.5 54t-33.5 97q0 70 50 110.5t135 40.5q97 0 172 -43v-124h-42q-12 60 -44.5 87t-88.5 27q-42 0 -67 -19.5t-25 -57.5q0 -30 17.5 -46.5t56.5 -29.5
l79 -24q75 -22 110 -57.5t35 -103.5q0 -74 -55.5 -116.5t-147.5 -42.5zM212 592l-150 208h46l138 -124l138 124h46l-150 -208h-68z" />
    <glyph glyph-name="Tcommaaccent" unicode="&#x162;" horiz-adv-x="820" 
d="M52 780h716l17 -213h-37q-19 41 -26 55t-22 39t-24.5 32.5t-27 18.5t-37 13.5t-47.5 2.5h-99v-604q0 -47 28 -62.5t91 -18.5v-43h-348v43q63 3 91 18.5t28 62.5v604h-99q-28 0 -47.5 -2.5t-37 -13.5t-27 -18.5t-24.5 -32.5t-22 -39t-26 -55h-37zM427 -170h-39
q-50 11 -50 60q0 24 19.5 42t49.5 18q36 0 55.5 -24t19.5 -61q0 -111 -128 -115v40q38 4 53 12t20 28z" />
    <glyph glyph-name="tcommaaccent" unicode="&#x163;" horiz-adv-x="410" 
d="M205 644v-114h156v-55h-156v-308q0 -104 92 -104q43 0 80 18l12 -28q-56 -63 -139 -63q-63 0 -104 35t-41 107v343h-77v35q78 47 147 134h30zM225 -170h-39q-50 11 -50 60q0 24 19.5 42t49.5 18q36 0 55.5 -24t19.5 -61q0 -111 -128 -115v40q38 4 53 12t20 28z" />
    <glyph glyph-name="Tcaron" unicode="&#x164;" horiz-adv-x="820" 
d="M52 780h716l17 -213h-37q-19 41 -26 55t-22 39t-24.5 32.5t-27 18.5t-37 13.5t-47.5 2.5h-99v-604q0 -47 28 -62.5t91 -18.5v-43h-348v43q63 3 91 18.5t28 62.5v604h-99q-28 0 -47.5 -2.5t-37 -13.5t-27 -18.5t-24.5 -32.5t-22 -39t-26 -55h-37zM376 822l-150 208h46
l138 -124l138 124h46l-150 -208h-68z" />
    <glyph glyph-name="tcaron" unicode="&#x165;" horiz-adv-x="410" 
d="M205 644v-114h156v-55h-156v-308q0 -104 92 -104q43 0 80 18l12 -28q-56 -63 -139 -63q-63 0 -104 35t-41 107v343h-77v35q78 47 147 134h30zM268 800h96l-64 -208h-44z" />
    <glyph glyph-name="Tbar" unicode="&#x166;" horiz-adv-x="820" 
d="M52 780h716l17 -213h-37q-19 41 -26 55t-22 39t-24.5 32.5t-27 18.5t-37 13.5t-47.5 2.5h-99v-325h165v-55h-165v-224q0 -47 28 -62.5t91 -18.5v-43h-348v43q63 3 91 18.5t28 62.5v224h-165v55h165v325h-99q-28 0 -47.5 -2.5t-37 -13.5t-27 -18.5t-24.5 -32.5t-22 -39
t-26 -55h-37z" />
    <glyph glyph-name="tbar" unicode="&#x167;" horiz-adv-x="405" 
d="M28 295v53h77v127h-77v35q78 47 147 134h30v-114h156v-55h-156v-127h155v-53h-155v-128q0 -104 92 -104q43 0 80 18l12 -28q-56 -63 -139 -63q-63 0 -104 35t-41 107v163h-77z" />
    <glyph glyph-name="Utilde" unicode="&#x168;" horiz-adv-x="880" 
d="M240 656v-383q0 -103 55 -158.5t153 -55.5q118 0 177 53t59 170v374q0 47 -26.5 63t-88.5 18v43h296v-43q-62 -2 -88.5 -18t-26.5 -63v-395q0 -131 -87 -201t-217 -70q-149 0 -232.5 68.5t-83.5 204.5v393q0 47 -26.5 63t-88.5 18v43h340v-43q-62 -2 -88.5 -18t-26.5 -63
zM528 847q-34 0 -83.5 29.5t-69.5 29.5q-24 0 -38 -10.5t-31 -42.5l-39 6q21 63 52.5 93t77.5 30q34 0 83.5 -29.5t69.5 -29.5q24 0 38 10.5t31 42.5l39 -6q-21 -63 -52.5 -93t-77.5 -30z" />
    <glyph glyph-name="utilde" unicode="&#x169;" horiz-adv-x="678" 
d="M453 -10l5 98q-81 -98 -186 -98q-78 0 -122.5 40t-44.5 124v272q0 26 -14 36.5t-53 15.5l-18 2v40l164 20h26l-5 -104v-268q0 -101 101 -101q70 0 152 66v293q0 26 -14 36.5t-53 15.5l-18 2v40l164 20h26l-5 -104v-322q0 -25 11 -33.5t47 -12.5l27 -3v-40l-175 -35h-15z
M397 610q-34 0 -83.5 29.5t-69.5 29.5q-24 0 -38 -10.5t-31 -42.5l-39 6q21 63 52.5 93t77.5 30q34 0 83.5 -29.5t69.5 -29.5q24 0 38 10.5t31 42.5l39 -6q-21 -63 -52.5 -93t-77.5 -30z" />
    <glyph glyph-name="Umacron" unicode="&#x16a;" horiz-adv-x="880" 
d="M240 656v-383q0 -103 55 -158.5t153 -55.5q118 0 177 53t59 170v374q0 47 -26.5 63t-88.5 18v43h296v-43q-62 -2 -88.5 -18t-26.5 -63v-395q0 -131 -87 -201t-217 -70q-149 0 -232.5 68.5t-83.5 204.5v393q0 47 -26.5 63t-88.5 18v43h340v-43q-62 -2 -88.5 -18t-26.5 -63
zM326 871v64h272v-64h-272z" />
    <glyph glyph-name="umacron" unicode="&#x16b;" horiz-adv-x="678" 
d="M453 -10l5 98q-81 -98 -186 -98q-78 0 -122.5 40t-44.5 124v272q0 26 -14 36.5t-53 15.5l-18 2v40l164 20h26l-5 -104v-268q0 -101 101 -101q70 0 152 66v293q0 26 -14 36.5t-53 15.5l-18 2v40l164 20h26l-5 -104v-322q0 -25 11 -33.5t47 -12.5l27 -3v-40l-175 -35h-15z
M195 644v64h272v-64h-272z" />
    <glyph glyph-name="Ubreve" unicode="&#x16c;" horiz-adv-x="880" 
d="M240 656v-383q0 -103 55 -158.5t153 -55.5q118 0 177 53t59 170v374q0 47 -26.5 63t-88.5 18v43h296v-43q-62 -2 -88.5 -18t-26.5 -63v-395q0 -131 -87 -201t-217 -70q-149 0 -232.5 68.5t-83.5 204.5v393q0 47 -26.5 63t-88.5 18v43h340v-43q-62 -2 -88.5 -18t-26.5 -63
zM462 832q-94 0 -136 50t-42 148h44q14 -130 134 -130t134 130h44q0 -98 -42 -148t-136 -50z" />
    <glyph glyph-name="ubreve" unicode="&#x16d;" horiz-adv-x="678" 
d="M453 -10l5 98q-81 -98 -186 -98q-78 0 -122.5 40t-44.5 124v272q0 26 -14 36.5t-53 15.5l-18 2v40l164 20h26l-5 -104v-268q0 -101 101 -101q70 0 152 66v293q0 26 -14 36.5t-53 15.5l-18 2v40l164 20h26l-5 -104v-322q0 -25 11 -33.5t47 -12.5l27 -3v-40l-175 -35h-15z
M331 602q-94 0 -136 50t-42 148h44q14 -130 134 -130t134 130h44q0 -98 -42 -148t-136 -50z" />
    <glyph glyph-name="Uring" unicode="&#x16e;" horiz-adv-x="880" 
d="M240 656v-383q0 -103 55 -158.5t153 -55.5q118 0 177 53t59 170v374q0 47 -26.5 63t-88.5 18v43h296v-43q-62 -2 -88.5 -18t-26.5 -63v-395q0 -131 -87 -201t-217 -70q-149 0 -232.5 68.5t-83.5 204.5v393q0 47 -26.5 63t-88.5 18v43h340v-43q-62 -2 -88.5 -18t-26.5 -63
zM348 926q0 48 32 81t82 33t82 -33t32 -81t-32 -81t-82 -33t-82 33t-32 81zM523 926q0 30 -15.5 49t-45.5 19t-45.5 -19t-15.5 -49t15.5 -49t45.5 -19t45.5 19t15.5 49z" />
    <glyph glyph-name="uring" unicode="&#x16f;" horiz-adv-x="678" 
d="M453 -10l5 98q-81 -98 -186 -98q-78 0 -122.5 40t-44.5 124v272q0 26 -14 36.5t-53 15.5l-18 2v40l164 20h26l-5 -104v-268q0 -101 101 -101q70 0 152 66v293q0 26 -14 36.5t-53 15.5l-18 2v40l164 20h26l-5 -104v-322q0 -25 11 -33.5t47 -12.5l27 -3v-40l-175 -35h-15z
M217 696q0 48 32 81t82 33t82 -33t32 -81t-32 -81t-82 -33t-82 33t-32 81zM392 696q0 30 -15.5 49t-45.5 19t-45.5 -19t-15.5 -49t15.5 -49t45.5 -19t45.5 19t15.5 49z" />
    <glyph glyph-name="Uhungarumlaut" unicode="&#x170;" horiz-adv-x="880" 
d="M240 656v-383q0 -103 55 -158.5t153 -55.5q118 0 177 53t59 170v374q0 47 -26.5 63t-88.5 18v43h296v-43q-62 -2 -88.5 -18t-26.5 -63v-395q0 -131 -87 -201t-217 -70q-149 0 -232.5 68.5t-83.5 204.5v393q0 47 -26.5 63t-88.5 18v43h340v-43q-62 -2 -88.5 -18t-26.5 -63
zM425 1030h102l-124 -208h-45zM585 1030h102l-124 -208h-45z" />
    <glyph glyph-name="uhungarumlaut" unicode="&#x171;" horiz-adv-x="678" 
d="M453 -10l5 98q-81 -98 -186 -98q-78 0 -122.5 40t-44.5 124v272q0 26 -14 36.5t-53 15.5l-18 2v40l164 20h26l-5 -104v-268q0 -101 101 -101q70 0 152 66v293q0 26 -14 36.5t-53 15.5l-18 2v40l164 20h26l-5 -104v-322q0 -25 11 -33.5t47 -12.5l27 -3v-40l-175 -35h-15z
M284 800h102l-124 -208h-45zM444 800h102l-124 -208h-45z" />
    <glyph glyph-name="Uogonek" unicode="&#x172;" horiz-adv-x="880" 
d="M240 656v-383q0 -103 55 -158.5t153 -55.5q118 0 177 53t59 170v374q0 47 -26.5 63t-88.5 18v43h296v-43q-62 -2 -88.5 -18t-26.5 -63v-395q0 -103 -55.5 -169t-147.5 -90q-122 -48 -122 -128q0 -31 20 -48t55 -17q18 0 34 3.5t24 7.5l7 3l10 -31q-40 -42 -105 -42
q-52 0 -86 27.5t-34 84.5q0 78 86 128q-144 2 -225 70.5t-81 202.5v393q0 47 -26.5 63t-88.5 18v43h340v-43q-62 -2 -88.5 -18t-26.5 -63z" />
    <glyph glyph-name="uogonek" unicode="&#x173;" horiz-adv-x="678" 
d="M453 -10l5 98q-81 -98 -186 -98q-78 0 -122.5 40t-44.5 124v272q0 26 -14 36.5t-53 15.5l-18 2v40l164 20h26l-5 -104v-268q0 -101 101 -101q70 0 152 66v293q0 26 -14 36.5t-53 15.5l-18 2v40l164 20h26l-5 -104v-322q0 -25 11 -33.5t47 -12.5l27 -3v-40
q-121 -57 -121 -151q0 -31 20 -48t55 -17q18 0 34 3.5t23 7.5l8 3l10 -31q-40 -42 -105 -42q-52 0 -86 27.5t-34 84.5q0 78 82 140l-61 -12h-15z" />
    <glyph glyph-name="Wcircumflex" unicode="&#x174;" horiz-adv-x="1156" 
d="M822 164l167 479q12 34 12 45q0 25 -23.5 36t-83.5 13v43h252v-43q-20 -3 -30.5 -6t-21.5 -11.5t-17 -23.5l-259 -706h-34l-198 495l-199 -495h-34l-274 706q-8 20 -24 28.5t-45 12.5v43h303v-43q-60 -2 -83 -12.5t-23 -35.5q0 -14 12 -45l179 -479l157 396l-52 135
q-8 20 -24 28.5t-45 12.5v43h297v-43q-60 -2 -83 -12.5t-23 -35.5q0 -16 12 -45zM612 1030l150 -208h-46l-138 124l-138 -124h-46l150 208h68z" />
    <glyph glyph-name="wcircumflex" unicode="&#x175;" horiz-adv-x="882" 
d="M628 138l110 284q9 24 9 33q0 17 -15.5 23.5t-58.5 12.5v39h199v-39q-36 -12 -45 -18t-16 -22l-189 -461h-23l-153 350l-148 -350h-23l-204 461q-7 16 -15.5 21.5t-45.5 18.5v39h245v-39q-43 -6 -58.5 -12.5t-15.5 -23.5q0 -12 9 -33l117 -282l109 263l-19 48
q-7 16 -16 22t-45 18v39h239v-39q-43 -6 -58.5 -12.5t-15.5 -23.5q0 -12 9 -33zM485 800l150 -208h-46l-138 124l-138 -124h-46l150 208h68z" />
    <glyph glyph-name="Ycircumflex" unicode="&#x176;" horiz-adv-x="762" 
d="M406 373l172 271q17 27 17 49q0 23 -21 32.5t-79 11.5v43h257v-43q-47 -7 -69 -41l-250 -381v-191q0 -47 26.5 -63t88.5 -18v-43h-340v43q62 2 88.5 18t26.5 63v189l-244 383q-13 20 -28 28.5t-41 12.5v43h309v-43q-58 -2 -79 -11.5t-21 -32.5q0 -22 17 -49zM433 1030
l150 -208h-46l-138 124l-138 -124h-46l150 208h68z" />
    <glyph glyph-name="ycircumflex" unicode="&#x177;" horiz-adv-x="600" 
d="M283 -1l-212 452q-7 16 -15.5 21.5t-45.5 18.5v39h250v-39q-43 -6 -58.5 -12.5t-15.5 -23.5q0 -12 7 -27l139 -321l123 321q7 18 7 27q0 17 -15.5 23.5t-58.5 12.5v39h202v-39q-35 -12 -44.5 -18.5t-16.5 -21.5l-230 -558q-34 -82 -71 -112.5t-86 -30.5q-27 0 -47.5 10.5
t-28.5 23.5v60h61q52 0 80 17t49 70zM339 800l150 -208h-46l-138 124l-138 -124h-46l150 208h68z" />
    <glyph glyph-name="Ydieresis" unicode="&#x178;" horiz-adv-x="762" 
d="M406 373l172 271q17 27 17 49q0 23 -21 32.5t-79 11.5v43h257v-43q-47 -7 -69 -41l-250 -381v-191q0 -47 26.5 -63t88.5 -18v-43h-340v43q62 2 88.5 18t26.5 63v189l-244 383q-13 20 -28 28.5t-41 12.5v43h309v-43q-58 -2 -79 -11.5t-21 -32.5q0 -22 17 -49zM229 917
q0 29 20.5 49.5t49.5 20.5t49.5 -20.5t20.5 -49.5t-20.5 -49.5t-49.5 -20.5t-49.5 20.5t-20.5 49.5zM429 917q0 29 20.5 49.5t49.5 20.5t49.5 -20.5t20.5 -49.5t-20.5 -49.5t-49.5 -20.5t-49.5 20.5t-20.5 49.5z" />
    <glyph glyph-name="Zacute" unicode="&#x179;" horiz-adv-x="746" 
d="M183 55h295q21 0 39 4t30.5 7.5t27 18t21.5 21t22.5 32t21.5 36t26 46.5h37l-37 -220h-631v28l502 697h-271q-65 0 -94 -28t-71 -122h-33l3 205h613v-29zM434 1030h122l-161 -208h-45z" />
    <glyph glyph-name="zacute" unicode="&#x17a;" horiz-adv-x="546" 
d="M43 0v22l315 457h-155q-40 0 -64 -22.5t-43 -87.5h-42l14 188h40l12 -27h367v-26l-308 -453h160q44 0 73 25.5t47 94.5h42l-15 -171h-443zM341 800h122l-161 -208h-45z" />
    <glyph glyph-name="Zdotaccent" unicode="&#x17b;" horiz-adv-x="746" 
d="M183 55h295q21 0 39 4t30.5 7.5t27 18t21.5 21t22.5 32t21.5 36t26 46.5h37l-37 -220h-631v28l502 697h-271q-65 0 -94 -28t-71 -122h-33l3 205h613v-29zM307 916q0 29 20.5 49.5t49.5 20.5t49.5 -20.5t20.5 -49.5t-20.5 -49.5t-49.5 -20.5t-49.5 20.5t-20.5 49.5z" />
    <glyph glyph-name="zdotaccent" unicode="&#x17c;" horiz-adv-x="546" 
d="M43 0v22l315 457h-155q-40 0 -64 -22.5t-43 -87.5h-42l14 188h40l12 -27h367v-26l-308 -453h160q44 0 73 25.5t47 94.5h42l-15 -171h-443zM212 696q0 29 20.5 49.5t49.5 20.5t49.5 -20.5t20.5 -49.5t-20.5 -49.5t-49.5 -20.5t-49.5 20.5t-20.5 49.5z" />
    <glyph glyph-name="Zcaron" unicode="&#x17d;" horiz-adv-x="746" 
d="M183 55h295q21 0 39 4t30.5 7.5t27 18t21.5 21t22.5 32t21.5 36t26 46.5h37l-37 -220h-631v28l502 697h-271q-65 0 -94 -28t-71 -122h-33l3 205h613v-29zM343 822l-150 208h46l138 -124l138 124h46l-150 -208h-68z" />
    <glyph glyph-name="zcaron" unicode="&#x17e;" horiz-adv-x="546" 
d="M43 0v22l315 457h-155q-40 0 -64 -22.5t-43 -87.5h-42l14 188h40l12 -27h367v-26l-308 -453h160q44 0 73 25.5t47 94.5h42l-15 -171h-443zM248 592l-150 208h46l138 -124l138 124h46l-150 -208h-68z" />
    <glyph glyph-name="florin" unicode="&#x192;" horiz-adv-x="557" 
d="M234 -216h-106l54 599h-107l4 47h107l11 123q10 115 69.5 176t159.5 61q131 0 131 -86q0 -20 -10.5 -37t-23.5 -24h-74q3 15 3 30q0 38 -13.5 51.5t-42.5 13.5q-43 0 -63 -34.5t-28 -114.5l-15 -159h137l-4 -47h-137z" />
    <glyph glyph-name="Scommaaccent" unicode="&#x218;" horiz-adv-x="638" 
d="M294 -10q-71 0 -134.5 18.5t-101.5 49.5l-8 187h37q25 -88 79.5 -142t137.5 -54t130.5 37t47.5 101q0 53 -33.5 83.5t-103.5 58.5l-109 43q-42 17 -69.5 31.5t-54.5 38.5t-40.5 58.5t-13.5 79.5q0 91 68.5 150.5t184.5 59.5q69 0 135 -18t104 -48v-170h-35
q-43 177 -211 177q-69 0 -107.5 -34.5t-38.5 -94.5q0 -47 27.5 -74.5t89.5 -51.5l117 -46q48 -19 77.5 -35t58.5 -41t42 -59.5t13 -81.5q0 -104 -81.5 -163.5t-207.5 -59.5zM335 -170h-39q-50 11 -50 60q0 24 19.5 42t49.5 18q36 0 55.5 -24t19.5 -61q0 -111 -128 -115v40
q38 4 53 12t20 28z" />
    <glyph glyph-name="scommaaccent" unicode="&#x219;" horiz-adv-x="504" 
d="M247 -10q-116 0 -187 52l-6 133h42q32 -132 151 -132q53 0 82.5 23t29.5 66q0 34 -22 52t-69 32l-70 22q-69 21 -102.5 54t-33.5 97q0 70 50 110.5t135 40.5q97 0 172 -43v-124h-42q-12 60 -44.5 87t-88.5 27q-42 0 -67 -19.5t-25 -57.5q0 -30 17.5 -46.5t56.5 -29.5
l79 -24q75 -22 110 -57.5t35 -103.5q0 -74 -55.5 -116.5t-147.5 -42.5zM263 -170h-39q-50 11 -50 60q0 24 19.5 42t49.5 18q36 0 55.5 -24t19.5 -61q0 -111 -128 -115v40q38 4 53 12t20 28z" />
    <glyph glyph-name="dotlessj" unicode="&#x237;" horiz-adv-x="291" 
d="M107 431l-75 35v24l145 50h35l-5 -104v-374q0 -67 -5.5 -98.5t-22.5 -64.5q-30 -57 -133 -147l-31 27l48 77q44 69 44 183v392z" />
    <glyph glyph-name="circumflex" unicode="&#x2c6;" horiz-adv-x="600" 
d="M334 800l150 -208h-46l-138 124l-138 -124h-46l150 208h68z" />
    <glyph glyph-name="caron" unicode="&#x2c7;" horiz-adv-x="600" 
d="M266 592l-150 208h46l138 -124l138 124h46l-150 -208h-68z" />
    <glyph glyph-name="breve" unicode="&#x2d8;" horiz-adv-x="600" 
d="M300 602q-94 0 -136 50t-42 148h44q14 -130 134 -130t134 130h44q0 -98 -42 -148t-136 -50z" />
    <glyph glyph-name="dotaccent" unicode="&#x2d9;" horiz-adv-x="600" 
d="M230 696q0 29 20.5 49.5t49.5 20.5t49.5 -20.5t20.5 -49.5t-20.5 -49.5t-49.5 -20.5t-49.5 20.5t-20.5 49.5z" />
    <glyph glyph-name="ring" unicode="&#x2da;" horiz-adv-x="600" 
d="M186 696q0 48 32 81t82 33t82 -33t32 -81t-32 -81t-82 -33t-82 33t-32 81zM361 696q0 30 -15.5 49t-45.5 19t-45.5 -19t-15.5 -49t15.5 -49t45.5 -19t45.5 19t15.5 49z" />
    <glyph glyph-name="ogonek" unicode="&#x2db;" horiz-adv-x="600" 
d="M500 31l17 -31q-124 -44 -124 -126q0 -31 20 -48t55 -17q18 0 34 3.5t24 7.5l7 3l10 -31q-40 -42 -105 -42q-52 0 -86 27.5t-34 84.5q0 60 47 100.5t135 68.5z" />
    <glyph glyph-name="tilde" unicode="&#x2dc;" horiz-adv-x="600" 
d="M365 610q-34 0 -83.5 29.5t-69.5 29.5q-24 0 -38 -10.5t-31 -42.5l-39 6q21 63 52.5 93t77.5 30q34 0 83.5 -29.5t69.5 -29.5q24 0 38 10.5t31 42.5l39 -6q-21 -63 -52.5 -93t-77.5 -30z" />
    <glyph glyph-name="hungarumlaut" unicode="&#x2dd;" horiz-adv-x="600" 
d="M249 800h102l-124 -208h-45zM409 800h102l-124 -208h-45z" />
    <glyph glyph-name="uni0300" unicode="&#x300;" horiz-adv-x="600" 
d="M114 1030h122l84 -208h-45z" />
    <glyph glyph-name="uni0301" unicode="&#x301;" horiz-adv-x="600" 
d="M364 1030h122l-161 -208h-45z" />
    <glyph glyph-name="uni0302" unicode="&#x302;" horiz-adv-x="600" 
d="M334 1030l150 -208h-46l-138 124l-138 -124h-46l150 208h68z" />
    <glyph glyph-name="uni0303" unicode="&#x303;" horiz-adv-x="600" 
d="M365 859q-34 0 -83.5 29.5t-69.5 29.5q-24 0 -38 -10.5t-31 -42.5l-39 6q21 63 52.5 93t77.5 30q34 0 83.5 -29.5t69.5 -29.5q24 0 38 10.5t31 42.5l39 -6q-21 -63 -52.5 -93t-77.5 -30z" />
    <glyph glyph-name="uni0304" unicode="&#x304;" horiz-adv-x="600" 
d="M164 894v64h272v-64h-272z" />
    <glyph glyph-name="uni0306" unicode="&#x306;" horiz-adv-x="600" 
d="M300 832q-94 0 -136 50t-42 148h44q14 -130 134 -130t134 130h44q0 -98 -42 -148t-136 -50z" />
    <glyph glyph-name="uni0307" unicode="&#x307;" horiz-adv-x="600" 
d="M230 926q0 29 20.5 49.5t49.5 20.5t49.5 -20.5t20.5 -49.5t-20.5 -49.5t-49.5 -20.5t-49.5 20.5t-20.5 49.5z" />
    <glyph glyph-name="uni0308" unicode="&#x308;" horiz-adv-x="600" 
d="M130 926q0 29 20.5 49.5t49.5 20.5t49.5 -20.5t20.5 -49.5t-20.5 -49.5t-49.5 -20.5t-49.5 20.5t-20.5 49.5zM330 926q0 29 20.5 49.5t49.5 20.5t49.5 -20.5t20.5 -49.5t-20.5 -49.5t-49.5 -20.5t-49.5 20.5t-20.5 49.5z" />
    <glyph glyph-name="uni030A" unicode="&#x30a;" horiz-adv-x="600" 
d="M186 926q0 48 32 81t82 33t82 -33t32 -81t-32 -81t-82 -33t-82 33t-32 81zM361 926q0 30 -15.5 49t-45.5 19t-45.5 -19t-15.5 -49t15.5 -49t45.5 -19t45.5 19t15.5 49z" />
    <glyph glyph-name="uni030B" unicode="&#x30b;" horiz-adv-x="600" 
d="M249 1030h102l-124 -208h-45zM409 1030h102l-124 -208h-45z" />
    <glyph glyph-name="uni030C" unicode="&#x30c;" horiz-adv-x="600" 
d="M266 822l-150 208h46l138 -124l138 124h46l-150 -208h-68z" />
    <glyph glyph-name="uni030F" unicode="&#x30f;" horiz-adv-x="600" 
d="M249 1030h102l67 -208h-45zM89 1030h102l67 -208h-45z" />
    <glyph glyph-name="uni0311" unicode="&#x311;" horiz-adv-x="600" 
d="M300 1020q94 0 136 -50t42 -148h-44q-14 130 -134 130t-134 -130h-44q0 98 42 148t136 50z" />
    <glyph glyph-name="uni0312" unicode="&#x312;" horiz-adv-x="600" 
d="M283 715h39q48 -11 48 -56q0 -26 -18 -43t-49 -17q-37 0 -58.5 24.5t-21.5 65.5q0 107 133 111v-41q-73 -7 -73 -44z" />
    <glyph glyph-name="Wgrave" unicode="&#x1e80;" horiz-adv-x="1156" 
d="M822 164l167 479q12 34 12 45q0 25 -23.5 36t-83.5 13v43h252v-43q-20 -3 -30.5 -6t-21.5 -11.5t-17 -23.5l-259 -706h-34l-198 495l-199 -495h-34l-274 706q-8 20 -24 28.5t-45 12.5v43h303v-43q-60 -2 -83 -12.5t-23 -35.5q0 -14 12 -45l179 -479l157 396l-52 135
q-8 20 -24 28.5t-45 12.5v43h297v-43q-60 -2 -83 -12.5t-23 -35.5q0 -16 12 -45zM389 1030h122l84 -208h-45z" />
    <glyph glyph-name="wgrave" unicode="&#x1e81;" horiz-adv-x="882" 
d="M628 138l110 284q9 24 9 33q0 17 -15.5 23.5t-58.5 12.5v39h199v-39q-36 -12 -45 -18t-16 -22l-189 -461h-23l-153 350l-148 -350h-23l-204 461q-7 16 -15.5 21.5t-45.5 18.5v39h245v-39q-43 -6 -58.5 -12.5t-15.5 -23.5q0 -12 9 -33l117 -282l109 263l-19 48
q-7 16 -16 22t-45 18v39h239v-39q-43 -6 -58.5 -12.5t-15.5 -23.5q0 -12 9 -33zM262 800h122l84 -208h-45z" />
    <glyph glyph-name="Wacute" unicode="&#x1e82;" horiz-adv-x="1156" 
d="M822 164l167 479q12 34 12 45q0 25 -23.5 36t-83.5 13v43h252v-43q-20 -3 -30.5 -6t-21.5 -11.5t-17 -23.5l-259 -706h-34l-198 495l-199 -495h-34l-274 706q-8 20 -24 28.5t-45 12.5v43h303v-43q-60 -2 -83 -12.5t-23 -35.5q0 -14 12 -45l179 -479l157 396l-52 135
q-8 20 -24 28.5t-45 12.5v43h297v-43q-60 -2 -83 -12.5t-23 -35.5q0 -16 12 -45zM645 1030h122l-161 -208h-45z" />
    <glyph glyph-name="wacute" unicode="&#x1e83;" horiz-adv-x="882" 
d="M628 138l110 284q9 24 9 33q0 17 -15.5 23.5t-58.5 12.5v39h199v-39q-36 -12 -45 -18t-16 -22l-189 -461h-23l-153 350l-148 -350h-23l-204 461q-7 16 -15.5 21.5t-45.5 18.5v39h245v-39q-43 -6 -58.5 -12.5t-15.5 -23.5q0 -12 9 -33l117 -282l109 263l-19 48
q-7 16 -16 22t-45 18v39h239v-39q-43 -6 -58.5 -12.5t-15.5 -23.5q0 -12 9 -33zM520 800h122l-161 -208h-45z" />
    <glyph glyph-name="Wdieresis" unicode="&#x1e84;" horiz-adv-x="1156" 
d="M822 164l167 479q12 34 12 45q0 25 -23.5 36t-83.5 13v43h252v-43q-20 -3 -30.5 -6t-21.5 -11.5t-17 -23.5l-259 -706h-34l-198 495l-199 -495h-34l-274 706q-8 20 -24 28.5t-45 12.5v43h303v-43q-60 -2 -83 -12.5t-23 -35.5q0 -14 12 -45l179 -479l157 396l-52 135
q-8 20 -24 28.5t-45 12.5v43h297v-43q-60 -2 -83 -12.5t-23 -35.5q0 -16 12 -45zM408 1172q0 29 20.5 49.5t49.5 20.5t49.5 -20.5t20.5 -49.5t-20.5 -49.5t-49.5 -20.5t-49.5 20.5t-20.5 49.5zM608 1172q0 29 20.5 49.5t49.5 20.5t49.5 -20.5t20.5 -49.5t-20.5 -49.5
t-49.5 -20.5t-49.5 20.5t-20.5 49.5zM408 917q0 29 20.5 49.5t49.5 20.5t49.5 -20.5t20.5 -49.5t-20.5 -49.5t-49.5 -20.5t-49.5 20.5t-20.5 49.5zM608 917q0 29 20.5 49.5t49.5 20.5t49.5 -20.5t20.5 -49.5t-20.5 -49.5t-49.5 -20.5t-49.5 20.5t-20.5 49.5z" />
    <glyph glyph-name="wdieresis" unicode="&#x1e85;" horiz-adv-x="882" 
d="M628 138l110 284q9 24 9 33q0 17 -15.5 23.5t-58.5 12.5v39h199v-39q-36 -12 -45 -18t-16 -22l-189 -461h-23l-153 350l-148 -350h-23l-204 461q-7 16 -15.5 21.5t-45.5 18.5v39h245v-39q-43 -6 -58.5 -12.5t-15.5 -23.5q0 -12 9 -33l117 -282l109 263l-19 48
q-7 16 -16 22t-45 18v39h239v-39q-43 -6 -58.5 -12.5t-15.5 -23.5q0 -12 9 -33zM281 696q0 29 20.5 49.5t49.5 20.5t49.5 -20.5t20.5 -49.5t-20.5 -49.5t-49.5 -20.5t-49.5 20.5t-20.5 49.5zM481 696q0 29 20.5 49.5t49.5 20.5t49.5 -20.5t20.5 -49.5t-20.5 -49.5
t-49.5 -20.5t-49.5 20.5t-20.5 49.5z" />
    <glyph glyph-name="Eszett" unicode="&#x1e9e;" horiz-adv-x="913" 
d="M621 -10q-56 0 -113.5 18.5t-94.5 49.5l-8 187h37q56 -196 185 -196q70 0 105.5 35t35.5 98q0 113 -137 137l-39 7q-60 11 -100 33.5t-60 69.5v27l175 244q-60 20 -126 20q-118 0 -179.5 -59t-61.5 -170v-368q0 -47 26.5 -63t88.5 -18v-42h-341v42q62 2 89 18t27 63v386
q0 139 90.5 210t258.5 71q161 0 249 -71v-28l-169 -237q22 -21 69 -30l37 -7q89 -17 146.5 -68.5t57.5 -142.5q0 -102 -69 -159t-179 -57z" />
    <glyph glyph-name="enspace" unicode="&#x2002;" horiz-adv-x="500" 
 />
    <glyph glyph-name="emspace" unicode="&#x2003;" horiz-adv-x="1000" 
 />
    <glyph glyph-name="threeperemspace" unicode="&#x2004;" horiz-adv-x="333" 
 />
    <glyph glyph-name="fourperemspace" unicode="&#x2005;" horiz-adv-x="250" 
 />
    <glyph glyph-name="sixperemspace" unicode="&#x2006;" horiz-adv-x="167" 
 />
    <glyph glyph-name="figurespace" unicode="&#x2007;" 
 />
    <glyph glyph-name="punctuationspace" unicode="&#x2008;" horiz-adv-x="280" 
 />
    <glyph glyph-name="thinspace" unicode="&#x2009;" horiz-adv-x="200" 
 />
    <glyph glyph-name="hairspace" unicode="&#x200a;" horiz-adv-x="100" 
 />
    <glyph glyph-name="zerowidthspace" unicode="&#x200b;" horiz-adv-x="0" 
 />
    <glyph glyph-name="figuredash" unicode="&#x2012;" 
d="M650 373v-76h-600v76h600z" />
    <glyph glyph-name="endash" unicode="&#x2013;" horiz-adv-x="500" 
d="M450 297h-400v76h400v-76z" />
    <glyph glyph-name="emdash" unicode="&#x2014;" horiz-adv-x="1000" 
d="M950 373v-76h-900v76h900z" />
    <glyph glyph-name="uni2015" unicode="&#x2015;" horiz-adv-x="1400" 
d="M1350 373v-76h-1300v76h1300z" />
    <glyph glyph-name="doublebar" unicode="&#x2016;" horiz-adv-x="402" 
d="M162 830v-951h-62v951h62zM302 830v-951h-62v951h62z" />
    <glyph glyph-name="quoteleft" unicode="&#x2018;" horiz-adv-x="285" 
d="M114 664h45q51 -13 51 -67q0 -32 -22.5 -54.5t-54.5 -22.5q-41 0 -63.5 31.5t-22.5 78.5q0 75 48 129.5t139 63.5v-46q-120 -25 -120 -113z" />
    <glyph glyph-name="quoteright" unicode="&#x2019;" horiz-adv-x="285" 
d="M181 674h-45q-51 13 -51 67q0 32 22.5 54.5t54.5 22.5q41 0 63.5 -31.5t22.5 -78.5q0 -75 -48 -129.5t-139 -63.5v46q120 25 120 113z" />
    <glyph glyph-name="quotesinglbase" unicode="&#x201a;" horiz-adv-x="285" 
d="M178 0h-45q-51 13 -51 67q0 32 22.5 54.5t54.5 22.5q41 0 63.5 -31.5t22.5 -78.5q0 -75 -48 -129.5t-139 -63.5v46q120 25 120 113z" />
    <glyph glyph-name="reversequoteleft" unicode="&#x201b;" horiz-adv-x="285" 
d="M152 674h-45q0 -88 120 -113v-46q-91 9 -139 63.5t-48 129.5q0 47 22.5 78.5t63.5 31.5q32 0 54.5 -22.5t22.5 -54.5q0 -54 -51 -67z" />
    <glyph glyph-name="quotedblleft" unicode="&#x201c;" horiz-adv-x="505" 
d="M114 664h45q51 -13 51 -67q0 -32 -22.5 -54.5t-54.5 -22.5q-41 0 -63.5 31.5t-22.5 78.5q0 75 48 129.5t139 63.5v-46q-120 -25 -120 -113zM334 664h45q51 -13 51 -67q0 -32 -22.5 -54.5t-54.5 -22.5q-41 0 -63.5 31.5t-22.5 78.5q0 75 48 129.5t139 63.5v-46
q-120 -25 -120 -113z" />
    <glyph glyph-name="quotedblright" unicode="&#x201d;" horiz-adv-x="505" 
d="M401 674h-45q-51 13 -51 67q0 32 22.5 54.5t54.5 22.5q41 0 63.5 -31.5t22.5 -78.5q0 -75 -48 -129.5t-139 -63.5v46q120 25 120 113zM181 674h-45q-51 13 -51 67q0 32 22.5 54.5t54.5 22.5q41 0 63.5 -31.5t22.5 -78.5q0 -75 -48 -129.5t-139 -63.5v46q120 25 120 113z
" />
    <glyph glyph-name="quotedblbase" unicode="&#x201e;" horiz-adv-x="505" 
d="M398 0h-45q-51 13 -51 67q0 32 22.5 54.5t54.5 22.5q41 0 63.5 -31.5t22.5 -78.5q0 -75 -48 -129.5t-139 -63.5v46q120 25 120 113zM178 0h-45q-51 13 -51 67q0 32 22.5 54.5t54.5 22.5q41 0 63.5 -31.5t22.5 -78.5q0 -75 -48 -129.5t-139 -63.5v46q120 25 120 113z" />
    <glyph glyph-name="reversequotedblleft" unicode="&#x201f;" horiz-adv-x="505" 
d="M152 674h-45q0 -88 120 -113v-46q-91 9 -139 63.5t-48 129.5q0 47 22.5 78.5t63.5 31.5q32 0 54.5 -22.5t22.5 -54.5q0 -54 -51 -67zM372 674h-45q0 -88 120 -113v-46q-91 9 -139 63.5t-48 129.5q0 47 22.5 78.5t63.5 31.5q32 0 54.5 -22.5t22.5 -54.5q0 -54 -51 -67z
" />
    <glyph glyph-name="dagger" unicode="&#x2020;" horiz-adv-x="699" 
d="M303 780h93l10 -28l-39 -254l254 39l28 -10v-93l-28 -10l-254 39l39 -224l-39 -489h-35l-39 489l39 224l-254 -39l-28 10v93l28 10l254 -39l-39 254z" />
    <glyph glyph-name="daggerdbl" unicode="&#x2021;" horiz-adv-x="699" 
d="M303 268l29 195l-254 -39l-28 10v93l28 10l254 -39l-39 254l10 28h93l10 -28l-39 -254l254 39l28 -10v-93l-28 -10l-254 39l29 -195l-29 -191l254 39l28 -10v-93l-28 -10l-254 39l39 -254l-10 -28h-93l-10 28l39 254l-254 -39l-28 10v93l28 10l254 -39z" />
    <glyph glyph-name="bullet" unicode="&#x2022;" horiz-adv-x="414" 
d="M85 324q0 50 36 86t86 36t86 -36t36 -86t-36 -86t-86 -36t-86 36t-36 86z" />
    <glyph glyph-name="ellipsis" unicode="&#x2026;" horiz-adv-x="1000" 
d="M95 67q0 32 22.5 54.5t54.5 22.5t54.5 -22.5t22.5 -54.5t-22.5 -54.5t-54.5 -22.5t-54.5 22.5t-22.5 54.5zM423 67q0 32 22.5 54.5t54.5 22.5t54.5 -22.5t22.5 -54.5t-22.5 -54.5t-54.5 -22.5t-54.5 22.5t-22.5 54.5zM751 67q0 32 22.5 54.5t54.5 22.5t54.5 -22.5
t22.5 -54.5t-22.5 -54.5t-54.5 -22.5t-54.5 22.5t-22.5 54.5z" />
    <glyph glyph-name="perthousand" unicode="&#x2030;" horiz-adv-x="1415" 
d="M50 583q0 100 52 153.5t137 53.5t137 -53.5t52 -153.5t-52 -153.5t-137 -53.5t-137 53.5t-52 153.5zM342 583q0 81 -24.5 121t-78.5 40t-78.5 -40t-24.5 -121t24.5 -121t78.5 -40t78.5 40t24.5 121zM779 780l-517 -780h-66l517 780h66zM925 197q0 -100 -52 -153.5
t-137 -53.5t-137 53.5t-52 153.5t52 153.5t137 53.5t137 -53.5t52 -153.5zM633 197q0 -81 24.5 -121t78.5 -40t78.5 40t24.5 121t-24.5 121t-78.5 40t-78.5 -40t-24.5 -121zM1365 197q0 -100 -52 -153.5t-137 -53.5t-137 53.5t-52 153.5t52 153.5t137 53.5t137 -53.5
t52 -153.5zM1073 197q0 -81 24.5 -121t78.5 -40t78.5 40t24.5 121t-24.5 121t-78.5 40t-78.5 -40t-24.5 -121z" />
    <glyph glyph-name="minute" unicode="&#x2032;" horiz-adv-x="180" 
d="M70 780h86l-46 -250h-40v250z" />
    <glyph glyph-name="second" unicode="&#x2033;" horiz-adv-x="330" 
d="M70 780h86l-46 -250h-40v250zM220 780h86l-46 -250h-40v250z" />
    <glyph glyph-name="tripleprime" unicode="&#x2034;" horiz-adv-x="542" 
d="M138 510h-62l-26 270h114zM302 510h-62l-26 270h114zM466 510h-62l-26 270h114z" />
    <glyph glyph-name="guilsinglleft" unicode="&#x2039;" horiz-adv-x="308" 
d="M40 269v10l171 190h47l-125 -195l125 -195h-47z" />
    <glyph glyph-name="guilsinglright" unicode="&#x203a;" horiz-adv-x="308" 
d="M268 279v-10l-171 -190h-47l125 195l-125 195h47z" />
    <glyph glyph-name="interrobang" unicode="&#x203d;" horiz-adv-x="526" 
d="M496 604q0 -66 -33.5 -114.5t-103.5 -95.5q-50 -33 -69.5 -64t-19.5 -81v-35h-36q-35 54 -35 102q0 55 31 91l-19 173v46h106v-46l-13 -110q47 35 68 69t21 83q0 58 -33.5 87t-92.5 29q-58 0 -88.5 -30.5t-30.5 -88.5v-29h-93q-25 23 -25 54q0 62 66 104t163 42
q110 0 173.5 -47.5t63.5 -138.5zM180 67q0 32 22.5 54.5t54.5 22.5t54.5 -22.5t22.5 -54.5t-22.5 -54.5t-54.5 -22.5t-54.5 22.5t-22.5 54.5z" />
    <glyph glyph-name="fraction" unicode="&#x2044;" horiz-adv-x="283" 
d="M-150 0l517 780h66l-517 -780h-66z" />
    <glyph glyph-name="uni2070" unicode="&#x2070;" horiz-adv-x="456" 
d="M135 538q0 -105 18.5 -156t74.5 -51t74.5 51t18.5 156t-18.5 156t-74.5 51t-74.5 -51t-18.5 -156zM418 538q0 -117 -49.5 -182.5t-140.5 -65.5t-140.5 65.5t-49.5 182.5t49.5 182.5t140.5 65.5t140.5 -65.5t49.5 -182.5z" />
    <glyph glyph-name="uni2074" unicode="&#x2074;" horiz-adv-x="453" 
d="M79 464h186v214zM352 296h-87v123h-250v35l280 326h57v-316h81v-45h-81v-123z" />
    <glyph glyph-name="uni2075" unicode="&#x2075;" horiz-adv-x="434" 
d="M210 327q43 0 67 23t24 66q0 129 -218 132l40 232h153q28 0 38.5 5t25.5 25h32l-27 -113h-195l-14 -81q110 -4 174 -46.5t64 -122.5q0 -72 -49 -114.5t-125 -42.5t-118 30t-42 73q0 34 30 50h53v-24q0 -92 87 -92z" />
    <glyph glyph-name="uni2076" unicode="&#x2076;" horiz-adv-x="435" 
d="M340 758q-170 -51 -204 -193q49 45 121 45q66 0 107 -39.5t41 -109.5q0 -78 -52.5 -124.5t-128.5 -46.5q-86 0 -136 56t-50 147q0 107 75.5 188.5t207.5 104.5zM211 554q-47 0 -81 -21q-2 -13 -2 -41q0 -73 27.5 -117t75.5 -44q43 0 66.5 28.5t23.5 77.5q0 53 -29 85
t-81 32z" />
    <glyph glyph-name="uni2077" unicode="&#x2077;" horiz-adv-x="428" 
d="M333 692h-211q-22 0 -35 -15.5t-26 -50.5h-31l25 154h343v-25l-200 -459h-88z" />
    <glyph glyph-name="uni2078" unicode="&#x2078;" horiz-adv-x="435" 
d="M377 672q0 -39 -28.5 -65.5t-70.5 -37.5l21 -9q98 -40 98 -129q0 -64 -46.5 -102.5t-132.5 -38.5q-82 0 -131 33.5t-49 90.5q0 84 107 112l-7 4q-82 41 -82 121q0 61 43.5 98t118.5 37q73 0 116 -31t43 -83zM247 482l-75 31q-59 -33 -59 -93q0 -42 29 -65.5t77 -23.5
q45 0 71 20t26 53q0 28 -17.5 45.5t-51.5 32.5zM196 606l54 -24q55 32 55 91q0 33 -24 52t-65 19q-39 0 -61 -17.5t-22 -47.5q0 -26 15 -43t48 -30z" />
    <glyph glyph-name="uni2079" unicode="&#x2079;" horiz-adv-x="435" 
d="M114 290l-19 28q170 51 204 192q-50 -44 -121 -44q-66 0 -107 39.5t-41 108.5q0 78 52.5 125t128.5 47q86 0 136 -56t50 -148q0 -106 -76 -187.5t-207 -104.5zM224 522q47 0 81 21q2 12 2 41q0 72 -27.5 116.5t-75.5 44.5q-43 0 -66.5 -28.5t-23.5 -78.5q0 -52 29 -84
t81 -32z" />
    <glyph glyph-name="uni207A" unicode="&#x207a;" horiz-adv-x="438" 
d="M194 351v146h-144v49h144v144h50v-144h144v-49h-144v-146h-50z" />
    <glyph glyph-name="uni207B" unicode="&#x207b;" horiz-adv-x="438" 
d="M388 497h-338v49h338v-49z" />
    <glyph glyph-name="uni207C" unicode="&#x207c;" horiz-adv-x="438" 
d="M388 448h-338v49h338v-49zM388 546h-338v48h338v-48z" />
    <glyph glyph-name="uni207D" unicode="&#x207d;" horiz-adv-x="248" 
d="M40 528q0 173 145 299l33 -29q-60 -60 -92.5 -122.5t-32.5 -147.5t32.5 -147.5t92.5 -122.5l-33 -29q-145 126 -145 299z" />
    <glyph glyph-name="uni207E" unicode="&#x207e;" horiz-adv-x="246" 
d="M206 528q0 -173 -143 -299l-33 29q59 60 91 122.5t32 147.5t-32 147.5t-91 122.5l33 29q143 -126 143 -299z" />
    <glyph glyph-name="n.superior" unicode="&#x207f;" horiz-adv-x="511" 
d="M345 424v181q0 32 -15.5 46t-47.5 14q-52 0 -99 -34v-207q0 -22 11 -28.5t39 -9.5v-34h-193v34q19 2 28.5 4t16.5 10.5t7 23.5v223l-48 30v19l117 34h25l-3 -67q63 67 138 67q115 0 115 -113v-193q0 -22 12 -28.5t40 -9.5v-34h-194v34q19 2 28 4t16 10.5t7 23.5z" />
    <glyph glyph-name="uni2080" unicode="&#x2080;" horiz-adv-x="456" 
d="M135 242q0 -105 18.5 -156t74.5 -51t74.5 51t18.5 156t-18.5 156t-74.5 51t-74.5 -51t-18.5 -156zM418 242q0 -117 -49.5 -182.5t-140.5 -65.5t-140.5 65.5t-49.5 182.5t49.5 182.5t140.5 65.5t140.5 -65.5t49.5 -182.5z" />
    <glyph glyph-name="uni2081" unicode="&#x2081;" horiz-adv-x="409" 
d="M229 490h22v-406q0 -29 26 -37t92 -12v-35h-324v35q35 2 51.5 3.5t35 6.5t25.5 14.5t7 24.5v285h-119v30l30 5q94 16 154 86z" />
    <glyph glyph-name="uni2082" unicode="&#x2082;" horiz-adv-x="422" 
d="M126 79h119q44 0 63 12t44 59h25l-17 -150h-340v25q17 12 68.5 67t60.5 62q64 60 86.5 97t22.5 77q0 42 -25 64.5t-68 22.5q-25 0 -48 -9t-35 -18.5t-31 -27.5l-19 21q58 109 171 109q70 0 109 -36.5t39 -99.5q0 -24 -9 -48t-21.5 -42.5t-37.5 -44t-43.5 -42t-55 -48
t-58.5 -50.5z" />
    <glyph glyph-name="uni2083" unicode="&#x2083;" horiz-adv-x="432" 
d="M241 269q65 -7 102.5 -43t37.5 -91q0 -69 -51.5 -105t-127.5 -36q-75 0 -118.5 30.5t-43.5 72.5q0 34 30 50h53v-24q0 -92 86 -92q85 0 85 90q0 53 -33.5 79t-91.5 26h-26l-3 25q67 24 99 48t32 60q0 63 -77 63q-58 0 -113 -57l-20 19q52 106 163 106q63 0 97.5 -29
t34.5 -76q0 -78 -115 -116z" />
    <glyph glyph-name="uni2084" unicode="&#x2084;" horiz-adv-x="453" 
d="M79 168h186v214zM352 0h-87v123h-250v35l280 326h57v-316h81v-45h-81v-123z" />
    <glyph glyph-name="uni2085" unicode="&#x2085;" horiz-adv-x="434" 
d="M210 31q43 0 67 23t24 66q0 129 -218 132l40 232h153q28 0 38.5 5t25.5 25h32l-27 -113h-195l-14 -81q110 -4 174 -46.5t64 -122.5q0 -72 -49 -114.5t-125 -42.5t-118 30t-42 73q0 34 30 50h53v-24q0 -92 87 -92z" />
    <glyph glyph-name="uni2086" unicode="&#x2086;" horiz-adv-x="435" 
d="M340 462q-170 -51 -204 -193q49 45 121 45q66 0 107 -39.5t41 -109.5q0 -78 -52.5 -124.5t-128.5 -46.5q-86 0 -136 56t-50 147q0 107 75.5 188.5t207.5 104.5zM211 258q-47 0 -81 -21q-2 -13 -2 -41q0 -73 27.5 -117t75.5 -44q43 0 66.5 28.5t23.5 77.5q0 53 -29 85
t-81 32z" />
    <glyph glyph-name="uni2087" unicode="&#x2087;" horiz-adv-x="428" 
d="M333 396h-211q-22 0 -35 -15.5t-26 -50.5h-31l25 154h343v-25l-200 -459h-88z" />
    <glyph glyph-name="uni2088" unicode="&#x2088;" horiz-adv-x="435" 
d="M377 376q0 -39 -28.5 -65.5t-70.5 -37.5l21 -9q98 -40 98 -129q0 -64 -46.5 -102.5t-132.5 -38.5q-82 0 -131 33.5t-49 90.5q0 84 107 112l-7 4q-82 41 -82 121q0 61 43.5 98t118.5 37q73 0 116 -31t43 -83zM247 186l-75 31q-59 -33 -59 -93q0 -42 29 -65.5t77 -23.5
q45 0 71 20t26 53q0 28 -17.5 45.5t-51.5 32.5zM196 310l54 -24q55 32 55 91q0 33 -24 52t-65 19q-39 0 -61 -17.5t-22 -47.5q0 -26 15 -43t48 -30z" />
    <glyph glyph-name="uni2089" unicode="&#x2089;" horiz-adv-x="435" 
d="M114 -6l-19 28q170 51 204 192q-50 -44 -121 -44q-66 0 -107 39.5t-41 108.5q0 78 52.5 125t128.5 47q86 0 136 -56t50 -148q0 -106 -76 -187.5t-207 -104.5zM224 226q47 0 81 21q2 12 2 41q0 72 -27.5 116.5t-75.5 44.5q-43 0 -66.5 -28.5t-23.5 -78.5q0 -52 29 -84
t81 -32z" />
    <glyph glyph-name="uni208A" unicode="&#x208a;" horiz-adv-x="438" 
d="M194 55v146h-144v49h144v144h50v-144h144v-49h-144v-146h-50z" />
    <glyph glyph-name="uni208B" unicode="&#x208b;" horiz-adv-x="438" 
d="M388 201h-338v49h338v-49z" />
    <glyph glyph-name="uni208C" unicode="&#x208c;" horiz-adv-x="438" 
d="M388 152h-338v49h338v-49zM388 250h-338v48h338v-48z" />
    <glyph glyph-name="uni208D" unicode="&#x208d;" horiz-adv-x="248" 
d="M40 232q0 173 145 299l33 -29q-60 -60 -92.5 -122.5t-32.5 -147.5t32.5 -147.5t92.5 -122.5l-33 -29q-145 126 -145 299z" />
    <glyph glyph-name="uni208E" unicode="&#x208e;" horiz-adv-x="246" 
d="M206 232q0 -173 -143 -299l-33 29q59 60 91 122.5t32 147.5t-32 147.5t-91 122.5l33 29q143 -126 143 -299z" />
    <glyph glyph-name="Euro" unicode="&#x20ac;" horiz-adv-x="773" 
d="M37 427v48h105q22 151 110 233t218 82q135 0 230 -67l4 -170h-41q-29 97 -75.5 136t-123.5 39q-94 0 -145.5 -69.5t-61.5 -183.5h310l-16 -48h-296v-11q0 -23 2 -67h273l-16 -48h-252q36 -250 219 -250q91 0 134 43.5t75 144.5h44l-19 -189q-118 -60 -253 -60
q-140 0 -222.5 85t-100.5 226h-102v48h98v26q0 18 2 52h-100z" />
    <glyph glyph-name="afii61289" unicode="&#x2113;" horiz-adv-x="364" 
d="M225 -10q-149 0 -149 121v94q-24 -19 -49 -35v81q32 23 48 36v221q0 144 33.5 206.5t105.5 62.5q57 0 85 -40t28 -110q0 -102 -52 -201t-119 -164v-118q0 -45 15 -62t54 -17q36 0 64 12l10 -76q-27 -11 -74 -11zM156 549v-181q42 49 71.5 122t29.5 146q0 69 -42 69
q-59 0 -59 -156z" />
    <glyph glyph-name="numero" unicode="&#x2116;" horiz-adv-x="1529" 
d="M248 671q-36 41 -55.5 53t-59.5 13v43h191l464 -588v426q0 106 35.5 153t115.5 47q113 0 113 -86q0 -44 -28 -61h-74v30q0 33 -8.5 47t-28.5 14q-32 0 -45.5 -31.5t-13.5 -109.5v-621h-47l-493 614v-424q0 -106 -35.5 -153t-115.5 -47q-113 0 -113 86q0 44 28 61h74v-30
q0 -33 8.5 -47t28.5 -14q32 0 45.5 31.5t13.5 109.5v484zM1015 0v64h404v-64h-404zM1230 225q59 0 90 41.5t31 110.5q0 47 -14 88.5t-48 72t-84 30.5q-59 0 -90 -41.5t-31 -110.5q0 -47 14 -88.5t48 -72t84 -30.5zM1209 166q-100 0 -161.5 65.5t-61.5 156.5q0 107 70 173
t170 66t161.5 -65.5t61.5 -156.5q0 -107 -70 -173t-170 -66z" />
    <glyph glyph-name="published" unicode="&#x2117;" horiz-adv-x="890" 
d="M45 390q0 166 117 283t283 117t283 -117t117 -283t-117 -283t-283 -117t-283 117t-117 283zM75 390q0 -153 108.5 -261.5t261.5 -108.5t261.5 108.5t108.5 261.5t-108.5 261.5t-261.5 108.5t-261.5 -108.5t-108.5 -261.5zM490 351h-84v-113q0 -28 20.5 -38t64.5 -10v-31
h-230v31q36 1 50 10t14 38v311q0 29 -14 38t-50 11v31h229q93 0 137.5 -39.5t44.5 -99.5q0 -139 -182 -139zM406 591v-202h68q54 0 80 23.5t26 75.5q0 48 -28.5 75.5t-85.5 27.5h-60z" />
    <glyph glyph-name="servicemark" unicode="&#x2120;" horiz-adv-x="838" 
d="M161 442q-69 0 -107 31l-4 79h25q22 -79 91 -79q30 0 50 13t20 39q0 22 -11.5 34t-39.5 21l-50 17q-83 29 -83 93q0 42 32 68.5t85 26.5q68 0 107 -29v-73h-25q-9 36 -28 54t-57 18q-27 0 -42 -12.5t-15 -35.5q0 -36 46 -50l51 -17q42 -13 64 -35.5t22 -63.5
q0 -48 -37 -73.5t-94 -25.5zM687 532l-20 153l-99 -237h-34l-99 237l-21 -152q-3 -19 -3 -33t9.5 -18.5t35.5 -6.5v-27h-120v27q36 1 39 24l29 225q-1 26 -40 29v27h106q3 -18 7 -28l91 -220l93 220q4 10 7 28h100v-27q-38 -3 -39 -29l29 -225q1 -13 10 -17.5t30 -6.5v-27
h-152v27q26 2 35.5 6.5t9.5 18.5q0 8 -4 32z" />
    <glyph glyph-name="trademark" unicode="&#x2122;" horiz-adv-x="873" 
d="M32 780h316l8 -98h-24q-11 23 -16 32t-13.5 19t-18 12.5t-25.5 2.5h-36v-243q0 -17 11.5 -22.5t38.5 -7.5v-27h-165v27q26 2 38 7.5t12 22.5v243h-36q-29 0 -41 -12t-31 -54h-25zM603 532l93 220q4 10 7 28h100v-27q-38 -3 -39 -29l29 -225q1 -13 10 -17.5t30 -6.5v-27
h-152v27q26 2 35.5 6.5t9.5 18.5q0 8 -4 32l-20 153l-99 -237h-34l-99 237l-21 -152q-3 -19 -3 -33t9.5 -18.5t35.5 -6.5v-27h-120v27q36 1 39 24l29 225q-1 26 -40 29v27h106q3 -18 7 -28z" />
    <glyph glyph-name="estimated" unicode="&#x212e;" horiz-adv-x="802" 
d="M791 358h-649q3 -51 13 -94t31 -82t52.5 -66.5t79 -44t107.5 -16.5q116 0 188 54t85 156h78q-15 -137 -108.5 -206t-247.5 -69q-187 0 -298 108.5t-111 291.5q0 181 108 290t282 109t282 -109t108 -290v-32zM401 726q-67 0 -117 -24.5t-79.5 -68t-44 -95.5t-17.5 -116
h517q-3 64 -18 116t-44 95.5t-79.5 68t-117.5 24.5z" />
    <glyph glyph-name="uni2153" unicode="&#x2153;" horiz-adv-x="1074" 
d="M229 786h22v-406q0 -29 26 -37t92 -12v-35h-324v35q35 2 51.5 3.5t35 6.5t25.5 14.5t7 24.5v285h-119v30l30 5q94 16 154 86zM259 0l517 780h66l-517 -780h-66zM883 269q65 -7 102.5 -43t37.5 -91q0 -69 -51.5 -105t-127.5 -36q-75 0 -118.5 30.5t-43.5 72.5q0 34 30 50
h53v-24q0 -92 86 -92q85 0 85 90q0 53 -33.5 79t-91.5 26h-26l-3 25q67 24 99 48t32 60q0 63 -77 63q-58 0 -113 -57l-20 19q52 106 163 106q63 0 97.5 -29t34.5 -76q0 -78 -115 -116z" />
    <glyph glyph-name="uni2154" unicode="&#x2154;" horiz-adv-x="1087" 
d="M126 375h119q44 0 63 12t44 59h25l-17 -150h-340v25q17 12 68.5 67t60.5 62q64 60 86.5 97t22.5 77q0 42 -25 64.5t-68 22.5q-25 0 -48 -9t-35 -18.5t-31 -27.5l-19 21q58 109 171 109q70 0 109 -36.5t39 -99.5q0 -24 -9 -48t-21.5 -42.5t-37.5 -44t-43.5 -42t-55 -48
t-58.5 -50.5zM272 0l517 780h66l-517 -780h-66zM896 269q65 -7 102.5 -43t37.5 -91q0 -69 -51.5 -105t-127.5 -36q-75 0 -118.5 30.5t-43.5 72.5q0 34 30 50h53v-24q0 -92 86 -92q85 0 85 90q0 53 -33.5 79t-91.5 26h-26l-3 25q67 24 99 48t32 60q0 63 -77 63
q-58 0 -113 -57l-20 19q52 106 163 106q63 0 97.5 -29t34.5 -76q0 -78 -115 -116z" />
    <glyph glyph-name="uni2155" unicode="&#x2155;" horiz-adv-x="1056" 
d="M229 786h22v-406q0 -29 26 -37t92 -12v-35h-324v35q35 2 51.5 3.5t35 6.5t25.5 14.5t7 24.5v285h-119v30l30 5q94 16 154 86zM259 0l517 780h66l-517 -780h-66zM832 31q43 0 67 23t24 66q0 129 -218 132l40 232h153q28 0 38.5 5t25.5 25h32l-27 -113h-195l-14 -81
q110 -4 174 -46.5t64 -122.5q0 -72 -49 -114.5t-125 -42.5t-118 30t-42 73q0 34 30 50h53v-24q0 -92 87 -92z" />
    <glyph glyph-name="uni2156" unicode="&#x2156;" horiz-adv-x="1069" 
d="M126 375h119q44 0 63 12t44 59h25l-17 -150h-340v25q17 12 68.5 67t60.5 62q64 60 86.5 97t22.5 77q0 42 -25 64.5t-68 22.5q-25 0 -48 -9t-35 -18.5t-31 -27.5l-19 21q58 109 171 109q70 0 109 -36.5t39 -99.5q0 -24 -9 -48t-21.5 -42.5t-37.5 -44t-43.5 -42t-55 -48
t-58.5 -50.5zM272 0l517 780h66l-517 -780h-66zM845 31q43 0 67 23t24 66q0 129 -218 132l40 232h153q28 0 38.5 5t25.5 25h32l-27 -113h-195l-14 -81q110 -4 174 -46.5t64 -122.5q0 -72 -49 -114.5t-125 -42.5t-118 30t-42 73q0 34 30 50h53v-24q0 -92 87 -92z" />
    <glyph glyph-name="uni2157" unicode="&#x2157;" horiz-adv-x="1029" 
d="M241 565q65 -7 102.5 -43t37.5 -91q0 -69 -51.5 -105t-127.5 -36q-75 0 -118.5 30.5t-43.5 72.5q0 34 30 50h53v-24q0 -92 86 -92q85 0 85 90q0 53 -33.5 79t-91.5 26h-26l-3 25q67 24 99 48t32 60q0 63 -77 63q-58 0 -113 -57l-20 19q52 106 163 106q63 0 97.5 -29
t34.5 -76q0 -78 -115 -116zM232 0l517 780h66l-517 -780h-66zM805 31q43 0 67 23t24 66q0 129 -218 132l40 232h153q28 0 38.5 5t25.5 25h32l-27 -113h-195l-14 -81q110 -4 174 -46.5t64 -122.5q0 -72 -49 -114.5t-125 -42.5t-118 30t-42 73q0 34 30 50h53v-24q0 -92 87 -92
z" />
    <glyph glyph-name="uni2158" unicode="&#x2158;" horiz-adv-x="1100" 
d="M79 464h186v214zM352 296h-87v123h-250v35l280 326h57v-316h81v-45h-81v-123zM303 0l517 780h66l-517 -780h-66zM876 31q43 0 67 23t24 66q0 129 -218 132l40 232h153q28 0 38.5 5t25.5 25h32l-27 -113h-195l-14 -81q110 -4 174 -46.5t64 -122.5q0 -72 -49 -114.5
t-125 -42.5t-118 30t-42 73q0 34 30 50h53v-24q0 -92 87 -92z" />
    <glyph glyph-name="uni2159" unicode="&#x2159;" horiz-adv-x="1047" 
d="M229 786h22v-406q0 -29 26 -37t92 -12v-35h-324v35q35 2 51.5 3.5t35 6.5t25.5 14.5t7 24.5v285h-119v30l30 5q94 16 154 86zM259 0l517 780h66l-517 -780h-66zM952 462q-170 -51 -204 -193q49 45 121 45q66 0 107 -39.5t41 -109.5q0 -78 -52.5 -124.5t-128.5 -46.5
q-86 0 -136 56t-50 147q0 107 75.5 188.5t207.5 104.5zM823 258q-47 0 -81 -21q-2 -13 -2 -41q0 -73 27.5 -117t75.5 -44q43 0 66.5 28.5t23.5 77.5q0 53 -29 85t-81 32z" />
    <glyph glyph-name="uni215A" unicode="&#x215a;" horiz-adv-x="1022" 
d="M210 327q43 0 67 23t24 66q0 129 -218 132l40 232h153q28 0 38.5 5t25.5 25h32l-27 -113h-195l-14 -81q110 -4 174 -46.5t64 -122.5q0 -72 -49 -114.5t-125 -42.5t-118 30t-42 73q0 34 30 50h53v-24q0 -92 87 -92zM234 0l517 780h66l-517 -780h-66zM927 462
q-170 -51 -204 -193q49 45 121 45q66 0 107 -39.5t41 -109.5q0 -78 -52.5 -124.5t-128.5 -46.5q-86 0 -136 56t-50 147q0 107 75.5 188.5t207.5 104.5zM798 258q-47 0 -81 -21q-2 -13 -2 -41q0 -73 27.5 -117t75.5 -44q43 0 66.5 28.5t23.5 77.5q0 53 -29 85t-81 32z" />
    <glyph glyph-name="uni215B" unicode="&#x215b;" horiz-adv-x="1077" 
d="M229 786h22v-406q0 -29 26 -37t92 -12v-35h-324v35q35 2 51.5 3.5t35 6.5t25.5 14.5t7 24.5v285h-119v30l30 5q94 16 154 86zM259 0l517 780h66l-517 -780h-66zM1019 376q0 -39 -28.5 -65.5t-70.5 -37.5l21 -9q98 -40 98 -129q0 -64 -46.5 -102.5t-132.5 -38.5
q-82 0 -131 33.5t-49 90.5q0 84 107 112l-7 4q-82 41 -82 121q0 61 43.5 98t118.5 37q73 0 116 -31t43 -83zM889 186l-75 31q-59 -33 -59 -93q0 -42 29 -65.5t77 -23.5q45 0 71 20t26 53q0 28 -17.5 45.5t-51.5 32.5zM838 310l54 -24q55 32 55 91q0 33 -24 52t-65 19
q-39 0 -61 -17.5t-22 -47.5q0 -26 15 -43t48 -30z" />
    <glyph glyph-name="uni215C" unicode="&#x215c;" horiz-adv-x="1050" 
d="M241 565q65 -7 102.5 -43t37.5 -91q0 -69 -51.5 -105t-127.5 -36q-75 0 -118.5 30.5t-43.5 72.5q0 34 30 50h53v-24q0 -92 86 -92q85 0 85 90q0 53 -33.5 79t-91.5 26h-26l-3 25q67 24 99 48t32 60q0 63 -77 63q-58 0 -113 -57l-20 19q52 106 163 106q63 0 97.5 -29
t34.5 -76q0 -78 -115 -116zM232 0l517 780h66l-517 -780h-66zM992 376q0 -39 -28.5 -65.5t-70.5 -37.5l21 -9q98 -40 98 -129q0 -64 -46.5 -102.5t-132.5 -38.5q-82 0 -131 33.5t-49 90.5q0 84 107 112l-7 4q-82 41 -82 121q0 61 43.5 98t118.5 37q73 0 116 -31t43 -83z
M862 186l-75 31q-59 -33 -59 -93q0 -42 29 -65.5t77 -23.5q45 0 71 20t26 53q0 28 -17.5 45.5t-51.5 32.5zM811 310l54 -24q55 32 55 91q0 33 -24 52t-65 19q-39 0 -61 -17.5t-22 -47.5q0 -26 15 -43t48 -30z" />
    <glyph glyph-name="uni215D" unicode="&#x215d;" horiz-adv-x="1052" 
d="M210 327q43 0 67 23t24 66q0 129 -218 132l40 232h153q28 0 38.5 5t25.5 25h32l-27 -113h-195l-14 -81q110 -4 174 -46.5t64 -122.5q0 -72 -49 -114.5t-125 -42.5t-118 30t-42 73q0 34 30 50h53v-24q0 -92 87 -92zM234 0l517 780h66l-517 -780h-66zM994 376
q0 -39 -28.5 -65.5t-70.5 -37.5l21 -9q98 -40 98 -129q0 -64 -46.5 -102.5t-132.5 -38.5q-82 0 -131 33.5t-49 90.5q0 84 107 112l-7 4q-82 41 -82 121q0 61 43.5 98t118.5 37q73 0 116 -31t43 -83zM864 186l-75 31q-59 -33 -59 -93q0 -42 29 -65.5t77 -23.5q45 0 71 20
t26 53q0 28 -17.5 45.5t-51.5 32.5zM813 310l54 -24q55 32 55 91q0 33 -24 52t-65 19q-39 0 -61 -17.5t-22 -47.5q0 -26 15 -43t48 -30z" />
    <glyph glyph-name="uni215E" unicode="&#x215e;" horiz-adv-x="956" 
d="M333 692h-211q-22 0 -35 -15.5t-26 -50.5h-31l25 154h343v-25l-200 -459h-88zM138 0l517 780h66l-517 -780h-66zM898 376q0 -39 -28.5 -65.5t-70.5 -37.5l21 -9q98 -40 98 -129q0 -64 -46.5 -102.5t-132.5 -38.5q-82 0 -131 33.5t-49 90.5q0 84 107 112l-7 4
q-82 41 -82 121q0 61 43.5 98t118.5 37q73 0 116 -31t43 -83zM768 186l-75 31q-59 -33 -59 -93q0 -42 29 -65.5t77 -23.5q45 0 71 20t26 53q0 28 -17.5 45.5t-51.5 32.5zM717 310l54 -24q55 32 55 91q0 33 -24 52t-65 19q-39 0 -61 -17.5t-22 -47.5q0 -26 15 -43t48 -30z
" />
    <glyph glyph-name="uni215F" unicode="&#x215f;" horiz-adv-x="692" 
d="M229 786h22v-406q0 -29 26 -37t92 -12v-35h-324v35q35 2 51.5 3.5t35 6.5t25.5 14.5t7 24.5v285h-119v30l30 5q94 16 154 86zM259 0l517 780h66l-517 -780h-66z" />
    <glyph glyph-name="arrowleft" unicode="&#x2190;" horiz-adv-x="860" 
d="M452 101l-411 283v12l411 283v-52l-248 -216h627v-42h-627l248 -216v-52z" />
    <glyph glyph-name="arrowup" unicode="&#x2191;" horiz-adv-x="860" 
d="M141 379l283 411h12l283 -411h-52l-216 248v-627h-42v627l-216 -248h-52z" />
    <glyph glyph-name="arrowright" unicode="&#x2192;" horiz-adv-x="860" 
d="M831 384l-411 -283v52l248 216h-627v42h627l-248 216v52l411 -283v-12z" />
    <glyph glyph-name="arrowdown" unicode="&#x2193;" horiz-adv-x="860" 
d="M424 -10l-283 411h52l216 -248v627h42v-627l216 248h52l-283 -411h-12z" />
    <glyph glyph-name="uni2196" unicode="&#x2196;" horiz-adv-x="860" 
d="M119 290l-90 491l8 9l491 -91l-37 -37l-328 23l444 -443l-30 -30l-443 443l22 -328z" />
    <glyph glyph-name="uni2197" unicode="&#x2197;" horiz-adv-x="860" 
d="M332 699l491 91l8 -9l-90 -491l-37 37l22 328l-443 -443l-30 30l444 443l-328 -23z" />
    <glyph glyph-name="uni2198" unicode="&#x2198;" horiz-adv-x="860" 
d="M741 490l90 -491l-8 -9l-491 91l37 37l328 -23l-444 443l30 30l443 -443l-22 328z" />
    <glyph glyph-name="uni2199" unicode="&#x2199;" horiz-adv-x="860" 
d="M528 81l-491 -91l-8 9l90 491l37 -37l-22 -328l443 443l30 -30l-444 -443l328 23z" />
    <glyph glyph-name="partialdiff" unicode="&#x2202;" horiz-adv-x="642" 
d="M592 359q0 -183 -81 -276t-205 -93q-119 0 -192.5 78t-73.5 187q0 127 81.5 206t192.5 79q59 0 104.5 -26.5t62.5 -63.5q-11 107 -82.5 190.5t-177.5 83.5q-76 0 -141 -36l-17 29q82 73 202 73q83 0 147 -33.5t102.5 -92.5t58 -136t19.5 -169zM336 52q73 0 111.5 51
t38.5 136q0 58 -19 110.5t-64 90.5t-107 38q-73 0 -111.5 -51t-38.5 -136q0 -92 50 -165.5t140 -73.5z" />
    <glyph glyph-name="increment" unicode="&#x2206;" horiz-adv-x="860" 
d="M55 0v37l353 743h44l353 -743v-37h-750zM669 55l-273 570l-266 -570h539z" />
    <glyph glyph-name="product" unicode="&#x220f;" horiz-adv-x="965" 
d="M690 725h-415v-601q0 -47 26.5 -63t88.5 -18v-43h-340v43q62 2 88.5 18t26.5 63v532q0 47 -26.5 63t-88.5 18v43h865v-43q-62 -2 -88.5 -18t-26.5 -63v-532q0 -47 26.5 -63t88.5 -18v-43h-340v43q62 2 88.5 18t26.5 63v601z" />
    <glyph glyph-name="summation" unicode="&#x2211;" horiz-adv-x="660" 
d="M136 95h256q76 0 104.5 17t73.5 93h37l-29 -205h-548v70l300 310l-287 320v80h541l3 -186h-33q-32 75 -65.5 103t-99.5 28h-213l261 -290v-41z" />
    <glyph glyph-name="minus" unicode="&#x2212;" 
d="M620 258h-540v64h540v-64z" />
    <glyph glyph-name="radical" unicode="&#x221a;" horiz-adv-x="775" 
d="M329 114l375 650h62l-445 -764h-70l-109 466h-106v40l199 35z" />
    <glyph glyph-name="infinity" unicode="&#x221e;" horiz-adv-x="880" 
d="M106 318q0 -54 32.5 -84t87.5 -30q43 0 88.5 25.5t81.5 75.5l-96 73q-55 42 -101 42q-42 0 -67.5 -26.5t-25.5 -75.5zM774 333q0 54 -32.5 84t-87.5 30q-43 0 -88.5 -25.5t-81.5 -75.5l96 -73q55 -42 101 -42q42 0 67.5 26.5t25.5 75.5zM509 214l-80 62
q-79 -127 -210 -127q-29 0 -57.5 8t-57 25.5t-46.5 53t-18 83.5q0 87 50.5 135.5t123.5 48.5q43 0 77.5 -15.5t79.5 -50.5l80 -62q79 127 210 127q29 0 57.5 -8t57 -25.5t46.5 -53t18 -83.5q0 -87 -50.5 -135.5t-123.5 -48.5q-43 0 -77.5 15.5t-79.5 50.5z" />
    <glyph glyph-name="integral" unicode="&#x222b;" horiz-adv-x="628" 
d="M212 -11l56 564q10 115 69.5 176t159.5 61q131 0 131 -86q0 -20 -10.5 -37t-23.5 -24h-74q3 15 3 30q0 38 -13.5 51.5t-42.5 13.5q-43 0 -63 -34.5t-28 -114.5l-56 -564q-10 -115 -69.5 -176t-159.5 -61q-131 0 -131 86q0 20 10.5 37t23.5 24h74q-3 -15 -3 -30
q0 -38 13.5 -51.5t42.5 -13.5q43 0 63 34.5t28 114.5z" />
    <glyph glyph-name="approxequal" unicode="&#x2248;" 
d="M485 366q36 0 64.5 12t39.5 24l11 12l30 -50q-5 -7 -15 -17t-48.5 -27t-86.5 -17q-60 0 -137.5 35.5t-127.5 35.5q-36 0 -65 -12t-40 -24l-10 -12l-30 50q5 7 15 17t48.5 27t86.5 17q60 0 137 -35.5t128 -35.5zM485 206q36 0 64.5 12t39.5 24l11 12l30 -50q-5 -7 -15 -17
t-48.5 -27t-86.5 -17q-60 0 -137 35.5t-128 35.5q-36 0 -65 -12t-40 -24l-10 -12l-30 50q5 7 15 17t48.5 27t86.5 17q60 0 137.5 -35.5t127.5 -35.5z" />
    <glyph glyph-name="notequal" unicode="&#x2260;" 
d="M175 83l63 95h-158v64h201l64 96h-265v64h307l64 95h74l-64 -95h159v-64h-201l-64 -96h265v-64h-308l-63 -95h-74z" />
    <glyph glyph-name="equivalence" unicode="&#x2261;" 
d="M620 120h-540v61h540v-61zM620 599h-540v61h540v-61zM620 360h-540v61h540v-61z" />
    <glyph glyph-name="lessequal" unicode="&#x2264;" 
d="M620 16l-540 168v64l540 -168v-64zM136 359l143 -41l341 -101v-68l-540 168v84l540 168v-68l-341 -101z" />
    <glyph glyph-name="greaterequal" unicode="&#x2265;" 
d="M620 184l-540 -168v64l540 168v-64zM421 318l143 41l-143 41l-341 101v68l540 -168v-84l-540 -168v68z" />
    <glyph glyph-name="squaremultiply" unicode="&#x22a0;" horiz-adv-x="976" 
d="M98 0v780h780v-780h-780zM811 717h-646v-654h646v654zM216 165l225 225l-225 225l47 47l225 -225l224 225l48 -47l-225 -225l225 -225l-48 -47l-224 225l-225 -225z" />
    <glyph glyph-name="house" unicode="&#x2302;" horiz-adv-x="850" 
d="M780 0h-710v450l355 340l355 -340v-450z" />
    <glyph glyph-name="blacksquare" unicode="&#x25a0;" horiz-adv-x="976" 
d="M878 780v-780h-780v780h780z" />
    <glyph glyph-name="blacksquare" unicode="&#xe740;" horiz-adv-x="976" 
d="M878 780v-780h-780v780h780z" />
    <glyph glyph-name="whitesquare" unicode="&#x25a1;" horiz-adv-x="976" 
d="M98 0v780h780v-780h-780zM811 717h-646v-654h646v654z" />
    <glyph glyph-name="blacksmallsquare" unicode="&#x25aa;" horiz-adv-x="726" 
d="M628 530v-530h-530v530h530z" />
    <glyph glyph-name="whitesmallsquare" unicode="&#x25ab;" horiz-adv-x="726" 
d="M98 0v530h530v-530h-530zM561 467h-396v-404h396v404z" />
    <glyph glyph-name="triagup" unicode="&#x25b2;" horiz-adv-x="800" 
d="M790 0h-780l390 676z" />
    <glyph glyph-name="triagrt" unicode="&#x25ba;" horiz-adv-x="800" 
d="M34 0v780l676 -390z" />
    <glyph glyph-name="triagdn" unicode="&#x25bc;" horiz-adv-x="800" 
d="M10 780h780l-390 -676z" />
    <glyph glyph-name="triaglf" unicode="&#x25c4;" horiz-adv-x="800" 
d="M710 780v-780l-676 390z" />
    <glyph glyph-name="lozenge" unicode="&#x25ca;" horiz-adv-x="900" 
d="M450 -10l-368 400l368 400l368 -400zM170 390l280 -308l280 308l-280 308z" />
    <glyph glyph-name="whitecircle" unicode="&#x25cb;" horiz-adv-x="976" 
d="M88 390q0 166 117 283t283 117t283 -117t117 -283t-117 -283t-283 -117t-283 117t-117 283zM815 390q0 138 -95.5 235.5t-231.5 97.5q-137 0 -232 -97.5t-95 -235.5t95.5 -235.5t231.5 -97.5q137 0 232 97.5t95 235.5z" />
    <glyph glyph-name="whitecircle" unicode="&#x25ef;" horiz-adv-x="976" 
d="M88 390q0 166 117 283t283 117t283 -117t117 -283t-117 -283t-283 -117t-283 117t-117 283zM815 390q0 138 -95.5 235.5t-231.5 97.5q-137 0 -232 -97.5t-95 -235.5t95.5 -235.5t231.5 -97.5q137 0 232 97.5t95 235.5z" />
    <glyph glyph-name="bullseye" unicode="&#x25ce;" horiz-adv-x="960" 
d="M80 390q0 166 117 283t283 117t283 -117t117 -283t-117 -283t-283 -117t-283 117t-117 283zM330 390q0 62 44 106t106 44t106 -44t44 -106t-44 -106t-106 -44t-106 44t-44 106zM157 339q0 -113 79.5 -192.5t192.5 -79.5t193 79.5t80 192.5t-80 193t-193 80t-192.5 -80
t-79.5 -193z" />
    <glyph glyph-name="blackcircle" unicode="&#x25cf;" horiz-adv-x="976" 
d="M88 390q0 166 117 283t283 117t283 -117t117 -283t-117 -283t-283 -117t-283 117t-117 283z" />
    <glyph glyph-name="uni25E2" unicode="&#x25e2;" horiz-adv-x="800" 
d="M26 202l552 552l202 -754z" />
    <glyph glyph-name="uni25E3" unicode="&#x25e3;" horiz-adv-x="800" 
d="M222 754l552 -552l-754 -202z" />
    <glyph glyph-name="uni25E4" unicode="&#x25e4;" horiz-adv-x="800" 
d="M774 578l-552 -552l-202 754z" />
    <glyph glyph-name="uni25E5" unicode="&#x25e5;" horiz-adv-x="800" 
d="M578 26l-552 552l754 202z" />
    <glyph glyph-name="uni2605" unicode="&#x2605;" horiz-adv-x="880" 
d="M440 180l-260 -190l99 307l-260 189h322l99 306l99 -306h322l-260 -189l99 -307z" />
    <glyph glyph-name="ballotboxwithx" unicode="&#x2612;" horiz-adv-x="710" 
d="M90 0v530h530v-530h-530zM550 464h-390v-398h390v398zM180 136l130 129l-130 129l46 46l129 -130l129 130l46 -46l-130 -129l130 -129l-46 -46l-129 130l-129 -130z" />
    <glyph glyph-name="uni263C" unicode="&#x263c;" horiz-adv-x="960" 
d="M880 390l-169 -30l155 -73l-171 15l132 -112l-162 59l98 -141l-141 98l58 -162l-111 130l15 -170l-74 155l-30 -169l-30 169l-74 -155l15 170l-111 -130l58 162l-141 -98l98 141l-162 -59l132 112l-171 -15l155 73l-169 30l169 30l-155 73l171 -15l-132 112l162 -59
l-98 141l141 -98l-58 162l111 -130l-15 170l74 -155l30 169l30 -169l74 155l-15 -170l111 130l-58 -162l141 98l-98 -141l162 59l-132 -112l171 15l-155 -73z" />
    <glyph glyph-name="uni263E" unicode="&#x263e;" horiz-adv-x="960" 
d="M624 728q-134 0 -229 -99t-95 -239t95 -239t229 -99q50 0 96 15q-107 -77 -240 -77q-166 0 -283 117t-117 283t117 283t283 117q131 0 240 -77q-52 15 -96 15z" />
    <glyph glyph-name="spade" unicode="&#x2660;" horiz-adv-x="900" 
d="M451 790q32 -48 97 -116t136 -114q78 -51 121 -103t43 -123q0 -73 -51 -123.5t-125 -50.5q-69 0 -120.5 46t-79.5 115l-3 -1q8 -102 26.5 -174t55.5 -146h-202q37 74 55.5 146t26.5 174l-3 1q-28 -69 -79.5 -115t-120.5 -46q-74 0 -125 50.5t-51 123.5q0 71 43 123
t121 103q71 46 136 114t97 116h2z" />
    <glyph glyph-name="club" unicode="&#x2663;" horiz-adv-x="900" 
d="M349 0q37 74 55.5 146t26.5 174l-3 1q-28 -69 -79.5 -115t-120.5 -46q-74 0 -125 50.5t-51 123.5q0 79 48.5 129.5t125.5 50.5q40 0 84 -23l2 2q-38 57 -38 117q0 75 50.5 127.5t125.5 52.5t125.5 -52.5t50.5 -127.5q0 -60 -38 -117l2 -2q44 23 84 23q77 0 125.5 -50.5
t48.5 -129.5q0 -73 -51 -123.5t-125 -50.5q-69 0 -120.5 46t-79.5 115l-3 -1q8 -102 26.5 -174t55.5 -146h-202z" />
    <glyph glyph-name="heart" unicode="&#x2665;" horiz-adv-x="900" 
d="M451 -10h-2q-28 43 -94 126.5t-139 166.5q-164 185 -164 301q0 90 52 148t139 58q85 0 132.5 -42.5t72.5 -114.5h4q25 72 72.5 114.5t132.5 42.5q87 0 139 -58t52 -148q0 -116 -164 -301q-73 -83 -139 -166.5t-94 -126.5z" />
    <glyph glyph-name="diamond" unicode="&#x2666;" horiz-adv-x="900" 
d="M817 390q-106 -83 -202.5 -188.5t-163.5 -211.5h-2q-67 106 -163.5 211.5t-202.5 188.5q106 83 202.5 188.5t163.5 211.5h2q67 -106 163.5 -211.5t202.5 -188.5z" />
    <glyph glyph-name="musicflatsign" unicode="&#x266d;" horiz-adv-x="473" 
d="M442 355q0 -93 -56.5 -176.5t-141.5 -139t-185 -83.5v864h58v-366q21 38 64.5 63.5t87.5 25.5q173 0 173 -188zM117 339v-293q41 15 80 38.5t81.5 59.5t68.5 89t26 113q0 129 -110 129q-56 0 -98.5 -43t-47.5 -93z" />
    <glyph glyph-name="musicsharpsign" unicode="&#x266f;" horiz-adv-x="458" 
d="M352 880v-205l90 73v-97l-90 -73v-180l90 73v-97l-90 -73v-301h-58v254l-129 -103v-251h-58v204l-91 -72v97l91 73v179l-91 -72v97l91 73v301h58v-255l129 103v252h58zM165 428v-180l129 103v180z" />
    <glyph glyph-name="uni267B" unicode="&#x267b;" horiz-adv-x="960" 
d="M863 266l1 -2l-96 -167q-15 -22 -21.5 -30t-24 -17t-42.5 -9h-57v-49l-113 136l113 135v-49h145q26 0 50 13t34 26zM186 122h-2l-96 168q-11 21 -15 32t-3 30.5t14 40.5l28 49l-42 24l174 31l59 -166l-41 24q-70 -120 -72 -125q-13 -23 -14 -50t4 -42zM404 779v1h193
q24 -1 36 -2.5t28 -12.5t28 -32l28 -49l43 24l-61 -166l-173 31l41 24l-72 125q-13 23 -36 37.5t-39 16.5zM200 598l67 119q10 17 34 31q46 24 97 10t68 -45l-116 -201zM446 41h-135q-22 0 -44 13q-43 25 -57.5 79.5t4.5 80.5h232v-173zM806 527l69 -117q10 -18 10 -44
q1 -48 -38 -87t-74 -39l-116 201z" />
    <glyph glyph-name="uni267C" unicode="&#x267c;" horiz-adv-x="960" 
d="M880 389q0 -166 -116.5 -282.5t-282.5 -116.5q-167 0 -284 116.5t-117 282.5q0 167 117 284t284 117q166 0 282.5 -117t116.5 -284zM313 645l-52 -92l116 -67l90 156q-13 24 -52.5 34.5t-75.5 -7.5q-18 -11 -26 -24zM415 694v-1q48 -5 71 -44l56 -97l-32 -19l134 -24
l47 129l-33 -19l-22 38q-14 24 -29.5 30.5t-41.5 6.5h-150zM343 121h105v134h-180q-15 -20 -3.5 -62.5t44.5 -61.5q17 -10 34 -10zM249 184h1q-20 44 3 84l56 97l32 -19l-46 129l-135 -24l33 -19l-22 -38q-10 -16 -11 -31.5t2 -23.5t12 -25zM784 407l-53 91l-116 -67
l90 -156q27 0 57.5 30t29.5 68q0 20 -8 34zM776 294l-1 1q-3 -4 -9 -11t-25.5 -18t-39.5 -11h-112v38l-88 -105l88 -105v38h44q28 0 41.5 10.5t26.5 32.5z" />
    <glyph glyph-name="uni267D" unicode="&#x267d;" horiz-adv-x="960" 
d="M880 389q0 -166 -116.5 -282.5t-282.5 -116.5q-167 0 -284 116.5t-117 282.5q0 167 117 284t284 117q166 0 282.5 -117t116.5 -284zM860 389q0 158 -111 269.5t-268 111.5q-158 0 -269.5 -111.5t-111.5 -269.5q0 -157 111.5 -268t269.5 -111q157 0 268 111t111 268z
M261 553l52 92q8 13 26 24q36 18 75.5 7.5t52.5 -34.5l-90 -156zM415 693v1h150q26 0 41.5 -6.5t29.5 -30.5l22 -38l33 19l-47 -129l-134 24l32 19l-56 97q-10 17 -28 28t-30 13zM448 121h-105q-17 0 -34 10q-33 19 -44.5 61.5t3.5 62.5h180v-134zM250 184h-1l-75 130
q-9 17 -12 25t-2 23.5t11 31.5l22 38l-33 19l135 24l46 -129l-32 19l-56 -97q-10 -18 -11 -39t4 -33zM731 498l53 -91q8 -14 8 -34q1 -38 -29.5 -68t-57.5 -30l-90 156zM775 295l1 -1l-75 -130q-9 -15 -15 -22.5t-20 -14t-33 -6.5h-44v-38l-88 105l88 105v-38h112
q20 0 38.5 10t26.5 20z" />
    <glyph glyph-name="mediumwhitecircle" unicode="&#x26aa;" horiz-adv-x="710" 
d="M80 265q0 114 80.5 194.5t194.5 80.5t194.5 -80.5t80.5 -194.5t-80.5 -194.5t-194.5 -80.5t-194.5 80.5t-80.5 194.5zM561 265q0 86 -60.5 147t-145.5 61t-145.5 -61t-60.5 -147t60.5 -147t145.5 -61t145.5 61t60.5 147z" />
    <glyph glyph-name="mediumblackcircle" unicode="&#x26ab;" horiz-adv-x="710" 
d="M80 265q0 114 80.5 194.5t194.5 80.5t194.5 -80.5t80.5 -194.5t-80.5 -194.5t-194.5 -80.5t-194.5 80.5t-80.5 194.5z" />
    <glyph glyph-name="anglebracketleft" unicode="&#x3008;" horiz-adv-x="373" 
d="M254 -130l-179 480l179 480h59l-175 -480l175 -480h-59z" />
    <glyph glyph-name="anglebracketright" unicode="&#x3009;" horiz-adv-x="373" 
d="M298 350l-179 -480h-59l175 480l-175 480h59z" />
    <glyph glyph-name="aogonek.school" unicode="&#xe150;" horiz-adv-x="671" 
d="M307 483q-76 0 -120 -55.5t-44 -154.5q0 -53 14.5 -97t53 -76t96.5 -32q89 0 149 63v204q0 68 -43.5 108t-105.5 40zM641 65v-40q-121 -57 -121 -151q0 -31 20 -48t55 -17q18 0 34 3.5t23 7.5l8 3l10 -31q-40 -42 -105 -42q-52 0 -86 27.5t-34 84.5q0 78 82 140l-61 -12
h-15l5 93q-73 -93 -186 -93q-107 0 -168.5 71t-61.5 179q0 135 78 217.5t194 82.5q106 0 167 -56l56 64h26l-5 -112v-322q0 -25 11 -33.5t47 -12.5z" />
    <glyph glyph-name="a.school" unicode="&#xe151;" horiz-adv-x="671" 
d="M307 483q-76 0 -120 -55.5t-44 -154.5q0 -53 14.5 -97t53 -76t96.5 -32q89 0 149 63v204q0 68 -43.5 108t-105.5 40zM451 -10l5 93q-73 -93 -186 -93q-107 0 -168.5 71t-61.5 179q0 135 78 217.5t194 82.5q106 0 167 -56l56 64h26l-5 -112v-322q0 -25 11 -33.5t47 -12.5
l27 -3v-40l-175 -35h-15z" />
    <glyph glyph-name="agrave.school" unicode="&#xe152;" horiz-adv-x="671" 
d="M307 483q-76 0 -120 -55.5t-44 -154.5q0 -53 14.5 -97t53 -76t96.5 -32q89 0 149 63v204q0 68 -43.5 108t-105.5 40zM451 -10l5 93q-73 -93 -186 -93q-107 0 -168.5 71t-61.5 179q0 135 78 217.5t194 82.5q106 0 167 -56l56 64h26l-5 -112v-322q0 -25 11 -33.5t47 -12.5
l27 -3v-40l-175 -35h-15zM142 800h122l84 -208h-45z" />
    <glyph glyph-name="aacute.school" unicode="&#xe153;" horiz-adv-x="671" 
d="M307 483q-76 0 -120 -55.5t-44 -154.5q0 -53 14.5 -97t53 -76t96.5 -32q89 0 149 63v204q0 68 -43.5 108t-105.5 40zM451 -10l5 93q-73 -93 -186 -93q-107 0 -168.5 71t-61.5 179q0 135 78 217.5t194 82.5q106 0 167 -56l56 64h26l-5 -112v-322q0 -25 11 -33.5t47 -12.5
l27 -3v-40l-175 -35h-15zM380 800h122l-161 -208h-45z" />
    <glyph glyph-name="acircumflex.school" unicode="&#xe154;" horiz-adv-x="671" 
d="M307 483q-76 0 -120 -55.5t-44 -154.5q0 -53 14.5 -97t53 -76t96.5 -32q89 0 149 63v204q0 68 -43.5 108t-105.5 40zM451 -10l5 93q-73 -93 -186 -93q-107 0 -168.5 71t-61.5 179q0 135 78 217.5t194 82.5q106 0 167 -56l56 64h26l-5 -112v-322q0 -25 11 -33.5t47 -12.5
l27 -3v-40l-175 -35h-15zM355 800l150 -208h-46l-138 124l-138 -124h-46l150 208h68z" />
    <glyph glyph-name="adieresis.school" unicode="&#xe155;" horiz-adv-x="671" 
d="M307 483q-76 0 -120 -55.5t-44 -154.5q0 -53 14.5 -97t53 -76t96.5 -32q89 0 149 63v204q0 68 -43.5 108t-105.5 40zM451 -10l5 93q-73 -93 -186 -93q-107 0 -168.5 71t-61.5 179q0 135 78 217.5t194 82.5q106 0 167 -56l56 64h26l-5 -112v-322q0 -25 11 -33.5t47 -12.5
l27 -3v-40l-175 -35h-15zM151 696q0 29 20.5 49.5t49.5 20.5t49.5 -20.5t20.5 -49.5t-20.5 -49.5t-49.5 -20.5t-49.5 20.5t-20.5 49.5zM351 696q0 29 20.5 49.5t49.5 20.5t49.5 -20.5t20.5 -49.5t-20.5 -49.5t-49.5 -20.5t-49.5 20.5t-20.5 49.5z" />
    <glyph glyph-name="atilde.school" unicode="&#xe156;" horiz-adv-x="671" 
d="M307 483q-76 0 -120 -55.5t-44 -154.5q0 -53 14.5 -97t53 -76t96.5 -32q89 0 149 63v204q0 68 -43.5 108t-105.5 40zM451 -10l5 93q-73 -93 -186 -93q-107 0 -168.5 71t-61.5 179q0 135 78 217.5t194 82.5q106 0 167 -56l56 64h26l-5 -112v-322q0 -25 11 -33.5t47 -12.5
l27 -3v-40l-175 -35h-15zM387 610q-34 0 -83.5 29.5t-69.5 29.5q-24 0 -38 -10.5t-31 -42.5l-39 6q21 63 52.5 93t77.5 30q34 0 83.5 -29.5t69.5 -29.5q24 0 38 10.5t31 42.5l39 -6q-21 -63 -52.5 -93t-77.5 -30z" />
    <glyph glyph-name="aring.school" unicode="&#xe157;" horiz-adv-x="671" 
d="M307 483q-76 0 -120 -55.5t-44 -154.5q0 -53 14.5 -97t53 -76t96.5 -32q89 0 149 63v204q0 68 -43.5 108t-105.5 40zM451 -10l5 93q-73 -93 -186 -93q-107 0 -168.5 71t-61.5 179q0 135 78 217.5t194 82.5q106 0 167 -56l56 64h26l-5 -112v-322q0 -25 11 -33.5t47 -12.5
l27 -3v-40l-175 -35h-15zM207 696q0 48 32 81t82 33t82 -33t32 -81t-32 -81t-82 -33t-82 33t-32 81zM382 696q0 30 -15.5 49t-45.5 19t-45.5 -19t-15.5 -49t15.5 -49t45.5 -19t45.5 19t15.5 49z" />
    <glyph glyph-name="amacron.school" unicode="&#xe159;" horiz-adv-x="671" 
d="M307 483q-76 0 -120 -55.5t-44 -154.5q0 -53 14.5 -97t53 -76t96.5 -32q89 0 149 63v204q0 68 -43.5 108t-105.5 40zM451 -10l5 93q-73 -93 -186 -93q-107 0 -168.5 71t-61.5 179q0 135 78 217.5t194 82.5q106 0 167 -56l56 64h26l-5 -112v-322q0 -25 11 -33.5t47 -12.5
l27 -3v-40l-175 -35h-15zM185 644v64h272v-64h-272z" />
    <glyph glyph-name="abreve.school" unicode="&#xe15a;" horiz-adv-x="671" 
d="M307 483q-76 0 -120 -55.5t-44 -154.5q0 -53 14.5 -97t53 -76t96.5 -32q89 0 149 63v204q0 68 -43.5 108t-105.5 40zM451 -10l5 93q-73 -93 -186 -93q-107 0 -168.5 71t-61.5 179q0 135 78 217.5t194 82.5q106 0 167 -56l56 64h26l-5 -112v-322q0 -25 11 -33.5t47 -12.5
l27 -3v-40l-175 -35h-15zM321 602q-94 0 -136 50t-42 148h44q14 -130 134 -130t134 130h44q0 -98 -42 -148t-136 -50z" />
    <glyph glyph-name="ytilde.school" unicode="&#xe160;" horiz-adv-x="638" 
d="M289 -250q-86 0 -144.5 30.5t-58.5 91.5q0 52 39 72h67v-24q0 -62 27.5 -91.5t89.5 -29.5q78 0 113.5 49.5t35.5 155.5v94q-81 -98 -186 -98q-78 0 -122.5 40t-44.5 124v262q0 26 -14 36.5t-53 15.5l-18 2v40l164 20h26l-5 -104v-258q0 -101 101 -101q70 0 152 66v283
q0 26 -14 36.5t-53 15.5l-18 2v40l164 20h26l-5 -104v-443q0 -117 -73 -180t-196 -63zM379 610q-34 0 -83.5 29.5t-69.5 29.5q-24 0 -38 -10.5t-31 -42.5l-39 6q21 63 52.5 93t77.5 30q34 0 83.5 -29.5t69.5 -29.5q24 0 38 10.5t31 42.5l39 -6q-21 -63 -52.5 -93t-77.5 -30z
" />
    <glyph glyph-name="g.school" unicode="&#xe161;" horiz-adv-x="646" 
d="M466 4v88q-73 -93 -187 -93q-112 0 -175.5 67.5t-63.5 173.5q0 135 82 217.5t200 82.5q49 0 94.5 -15.5t72.5 -40.5l56 64h26l-5 -112v-443q0 -116 -77.5 -179.5t-202.5 -63.5q-87 0 -150 31t-63 91q0 52 39 72h67v-24q0 -121 127 -121q80 0 120 48.5t40 156.5zM317 483
q-80 0 -127 -55t-47 -155q0 -83 42 -139.5t132 -56.5q89 0 149 63v195q0 69 -43 108.5t-106 39.5z" />
    <glyph glyph-name="gcircumflex.school" unicode="&#xe163;" horiz-adv-x="646" 
d="M466 4v88q-73 -93 -187 -93q-112 0 -175.5 67.5t-63.5 173.5q0 135 82 217.5t200 82.5q49 0 94.5 -15.5t72.5 -40.5l56 64h26l-5 -112v-443q0 -116 -77.5 -179.5t-202.5 -63.5q-87 0 -150 31t-63 91q0 52 39 72h67v-24q0 -121 127 -121q80 0 120 48.5t40 156.5zM317 483
q-80 0 -127 -55t-47 -155q0 -83 42 -139.5t132 -56.5q89 0 149 63v195q0 69 -43 108.5t-106 39.5zM354 800l150 -208h-46l-138 124l-138 -124h-46l150 208h68z" />
    <glyph glyph-name="gbreve.school" unicode="&#xe166;" horiz-adv-x="646" 
d="M466 4v88q-73 -93 -187 -93q-112 0 -175.5 67.5t-63.5 173.5q0 135 82 217.5t200 82.5q49 0 94.5 -15.5t72.5 -40.5l56 64h26l-5 -112v-443q0 -116 -77.5 -179.5t-202.5 -63.5q-87 0 -150 31t-63 91q0 52 39 72h67v-24q0 -121 127 -121q80 0 120 48.5t40 156.5zM317 483
q-80 0 -127 -55t-47 -155q0 -83 42 -139.5t132 -56.5q89 0 149 63v195q0 69 -43 108.5t-106 39.5zM321 602q-94 0 -136 50t-42 148h44q14 -130 134 -130t134 130h44q0 -98 -42 -148t-136 -50z" />
    <glyph glyph-name="gdotaccent.school" unicode="&#xe167;" horiz-adv-x="646" 
d="M466 4v88q-73 -93 -187 -93q-112 0 -175.5 67.5t-63.5 173.5q0 135 82 217.5t200 82.5q49 0 94.5 -15.5t72.5 -40.5l56 64h26l-5 -112v-443q0 -116 -77.5 -179.5t-202.5 -63.5q-87 0 -150 31t-63 91q0 52 39 72h67v-24q0 -121 127 -121q80 0 120 48.5t40 156.5zM317 483
q-80 0 -127 -55t-47 -155q0 -83 42 -139.5t132 -56.5q89 0 149 63v195q0 69 -43 108.5t-106 39.5zM243 696q0 29 20.5 49.5t49.5 20.5t49.5 -20.5t20.5 -49.5t-20.5 -49.5t-49.5 -20.5t-49.5 20.5t-20.5 49.5z" />
    <glyph glyph-name="gcommaaccent.school" unicode="&#xe168;" horiz-adv-x="646" 
d="M466 4v88q-73 -93 -187 -93q-112 0 -175.5 67.5t-63.5 173.5q0 135 82 217.5t200 82.5q49 0 94.5 -15.5t72.5 -40.5l56 64h26l-5 -112v-443q0 -116 -77.5 -179.5t-202.5 -63.5q-87 0 -150 31t-63 91q0 52 39 72h67v-24q0 -121 127 -121q80 0 120 48.5t40 156.5zM317 483
q-80 0 -127 -55t-47 -155q0 -83 42 -139.5t132 -56.5q89 0 149 63v195q0 69 -43 108.5t-106 39.5zM300 719h39q50 -11 50 -60q0 -24 -19.5 -42t-49.5 -18q-36 0 -55.5 24t-19.5 61q0 111 128 115v-40q-38 -4 -53 -12t-20 -28z" />
    <glyph glyph-name="y.school" unicode="&#xe16b;" horiz-adv-x="638" 
d="M289 -250q-86 0 -144.5 30.5t-58.5 91.5q0 52 39 72h67v-24q0 -62 27.5 -91.5t89.5 -29.5q78 0 113.5 49.5t35.5 155.5v94q-81 -98 -186 -98q-78 0 -122.5 40t-44.5 124v262q0 26 -14 36.5t-53 15.5l-18 2v40l164 20h26l-5 -104v-258q0 -101 101 -101q70 0 152 66v283
q0 26 -14 36.5t-53 15.5l-18 2v40l164 20h26l-5 -104v-443q0 -117 -73 -180t-196 -63z" />
    <glyph glyph-name="ygrave.school" unicode="&#xe16c;" horiz-adv-x="638" 
d="M289 -250q-86 0 -144.5 30.5t-58.5 91.5q0 52 39 72h67v-24q0 -62 27.5 -91.5t89.5 -29.5q78 0 113.5 49.5t35.5 155.5v94q-81 -98 -186 -98q-78 0 -122.5 40t-44.5 124v262q0 26 -14 36.5t-53 15.5l-18 2v40l164 20h26l-5 -104v-258q0 -101 101 -101q70 0 152 66v283
q0 26 -14 36.5t-53 15.5l-18 2v40l164 20h26l-5 -104v-443q0 -117 -73 -180t-196 -63zM134 800h122l84 -208h-45z" />
    <glyph glyph-name="yacute.school" unicode="&#xe16d;" horiz-adv-x="638" 
d="M289 -250q-86 0 -144.5 30.5t-58.5 91.5q0 52 39 72h67v-24q0 -62 27.5 -91.5t89.5 -29.5q78 0 113.5 49.5t35.5 155.5v94q-81 -98 -186 -98q-78 0 -122.5 40t-44.5 124v262q0 26 -14 36.5t-53 15.5l-18 2v40l164 20h26l-5 -104v-258q0 -101 101 -101q70 0 152 66v283
q0 26 -14 36.5t-53 15.5l-18 2v40l164 20h26l-5 -104v-443q0 -117 -73 -180t-196 -63zM372 800h122l-161 -208h-45z" />
    <glyph glyph-name="ycircumflex.school" unicode="&#xe16e;" horiz-adv-x="638" 
d="M289 -250q-86 0 -144.5 30.5t-58.5 91.5q0 52 39 72h67v-24q0 -62 27.5 -91.5t89.5 -29.5q78 0 113.5 49.5t35.5 155.5v94q-81 -98 -186 -98q-78 0 -122.5 40t-44.5 124v262q0 26 -14 36.5t-53 15.5l-18 2v40l164 20h26l-5 -104v-258q0 -101 101 -101q70 0 152 66v283
q0 26 -14 36.5t-53 15.5l-18 2v40l164 20h26l-5 -104v-443q0 -117 -73 -180t-196 -63zM347 800l150 -208h-46l-138 124l-138 -124h-46l150 208h68z" />
    <glyph glyph-name="ydieresis.school" unicode="&#xe16f;" horiz-adv-x="638" 
d="M289 -250q-86 0 -144.5 30.5t-58.5 91.5q0 52 39 72h67v-24q0 -62 27.5 -91.5t89.5 -29.5q78 0 113.5 49.5t35.5 155.5v94q-81 -98 -186 -98q-78 0 -122.5 40t-44.5 124v262q0 26 -14 36.5t-53 15.5l-18 2v40l164 20h26l-5 -104v-258q0 -101 101 -101q70 0 152 66v283
q0 26 -14 36.5t-53 15.5l-18 2v40l164 20h26l-5 -104v-443q0 -117 -73 -180t-196 -63zM143 696q0 29 20.5 49.5t49.5 20.5t49.5 -20.5t20.5 -49.5t-20.5 -49.5t-49.5 -20.5t-49.5 20.5t-20.5 49.5zM343 696q0 29 20.5 49.5t49.5 20.5t49.5 -20.5t20.5 -49.5t-20.5 -49.5
t-49.5 -20.5t-49.5 20.5t-20.5 49.5z" />
    <glyph glyph-name="ymacron.school" unicode="&#xe171;" horiz-adv-x="638" 
d="M289 -250q-86 0 -144.5 30.5t-58.5 91.5q0 52 39 72h67v-24q0 -62 27.5 -91.5t89.5 -29.5q78 0 113.5 49.5t35.5 155.5v94q-81 -98 -186 -98q-78 0 -122.5 40t-44.5 124v262q0 26 -14 36.5t-53 15.5l-18 2v40l164 20h26l-5 -104v-258q0 -101 101 -101q70 0 152 66v283
q0 26 -14 36.5t-53 15.5l-18 2v40l164 20h26l-5 -104v-443q0 -117 -73 -180t-196 -63zM177 644v64h272v-64h-272z" />
    <glyph glyph-name="cordinal" unicode="&#xe181;" horiz-adv-x="400" 
d="M116 560q0 -66 32 -104t93 -38q68 0 111 52l24 -11q-15 -51 -57 -82.5t-109 -31.5q-84 0 -132 52.5t-48 128.5q0 92 57 148t146 56q61 0 98.5 -25.5t37.5 -67.5q0 -37 -28 -47h-60v28q0 70 -63 70q-46 0 -74 -34t-28 -94z" />
    <glyph glyph-name="ordfeminine.school" unicode="&#xe182;" horiz-adv-x="496" 
d="M418 654v-216q0 -18 7 -25.5t28 -8.5l18 -1v-34l-131 -24h-18l4 66q-45 -66 -130 -66q-76 0 -121 48.5t-45 127.5q0 95 57.5 152t142.5 57q80 0 124 -40l37 44h30zM235 687q-51 0 -80 -37t-29 -103q0 -59 27 -98t83 -39q53 0 90 34v145q0 47 -26 72.5t-65 25.5z" />
    <glyph glyph-name="p.smcp" unicode="&#xe200;" horiz-adv-x="614" 
d="M255 224v-127q0 -33 29.5 -44.5t90.5 -13.5v-39h-320v39q47 2 72 14t25 44v370q0 32 -25 44t-72 14v39h308q112 0 161.5 -48t49.5 -122q0 -75 -53 -122.5t-153 -47.5h-113zM255 516v-244h91q63 0 90 29.5t27 90.5q0 124 -126 124h-82z" />
    <glyph glyph-name="p.smcp" unicode="&#xf770;" horiz-adv-x="614" 
d="M255 224v-127q0 -33 29.5 -44.5t90.5 -13.5v-39h-320v39q47 2 72 14t25 44v370q0 32 -25 44t-72 14v39h308q112 0 161.5 -48t49.5 -122q0 -75 -53 -122.5t-153 -47.5h-113zM255 516v-244h91q63 0 90 29.5t27 90.5q0 124 -126 124h-82z" />
    <glyph glyph-name="a.smcp" unicode="&#xe201;" horiz-adv-x="688" 
d="M476 107l-32 66h-254l-29 -66q-8 -19 -8 -32q0 -19 18 -26.5t68 -9.5v-39h-219v39q51 6 63 33l196 439l-26 58h114l238 -497q13 -27 63 -33v-39h-270v39q50 2 68 9.5t18 26.5q0 13 -8 32zM312 453l-101 -232h211z" />
    <glyph glyph-name="a.smcp" unicode="&#xf761;" horiz-adv-x="688" 
d="M476 107l-32 66h-254l-29 -66q-8 -19 -8 -32q0 -19 18 -26.5t68 -9.5v-39h-219v39q51 6 63 33l196 439l-26 58h114l238 -497q13 -27 63 -33v-39h-270v39q50 2 68 9.5t18 26.5q0 13 -8 32zM312 453l-101 -232h211z" />
    <glyph glyph-name="b.smcp" unicode="&#xe202;" horiz-adv-x="660" 
d="M336 516h-81v-202h77q65 0 95 24.5t30 79.5q0 45 -31 71.5t-90 26.5zM55 564h313q199 0 199 -141q0 -57 -40.5 -89.5t-103.5 -42.5q85 -6 131 -42.5t46 -98.5q0 -69 -55.5 -109.5t-156.5 -40.5h-333v39q47 2 72 14t25 44v370q0 32 -25 44t-72 14v39zM334 48h31
q121 0 121 103q0 115 -137 115h-94v-164q0 -31 18 -42.5t61 -11.5z" />
    <glyph glyph-name="b.smcp" unicode="&#xf762;" horiz-adv-x="660" 
d="M336 516h-81v-202h77q65 0 95 24.5t30 79.5q0 45 -31 71.5t-90 26.5zM55 564h313q199 0 199 -141q0 -57 -40.5 -89.5t-103.5 -42.5q85 -6 131 -42.5t46 -98.5q0 -69 -55.5 -109.5t-156.5 -40.5h-333v39q47 2 72 14t25 44v370q0 32 -25 44t-72 14v39zM334 48h31
q121 0 121 103q0 115 -137 115h-94v-164q0 -31 18 -42.5t61 -11.5z" />
    <glyph glyph-name="c.smcp" unicode="&#xe203;" horiz-adv-x="623" 
d="M358 45q73 0 116 34.5t69 105.5h35l-16 -149q-94 -46 -219 -46q-138 0 -218 81.5t-80 199.5q0 135 87 219t216 84q123 0 200 -53l3 -132h-34q-23 68 -65.5 99t-111.5 31q-94 0 -138.5 -61.5t-44.5 -158.5q0 -109 51 -181.5t150 -72.5z" />
    <glyph glyph-name="c.smcp" unicode="&#xf763;" horiz-adv-x="623" 
d="M358 45q73 0 116 34.5t69 105.5h35l-16 -149q-94 -46 -219 -46q-138 0 -218 81.5t-80 199.5q0 135 87 219t216 84q123 0 200 -53l3 -132h-34q-23 68 -65.5 99t-111.5 31q-94 0 -138.5 -61.5t-44.5 -158.5q0 -109 51 -181.5t150 -72.5z" />
    <glyph glyph-name="d.smcp" unicode="&#xe204;" horiz-adv-x="722" 
d="M333 516h-77v-411q0 -34 17 -45.5t60 -11.5h40q85 0 138 54.5t53 165.5q0 248 -231 248zM55 0v39q47 2 72 14t25 44v370q0 32 -25 44t-72 14v39h311q152 0 231.5 -76t79.5 -190q0 -140 -84 -219t-212 -79h-326z" />
    <glyph glyph-name="d.smcp" unicode="&#xf764;" horiz-adv-x="722" 
d="M333 516h-77v-411q0 -34 17 -45.5t60 -11.5h40q85 0 138 54.5t53 165.5q0 248 -231 248zM55 0v39q47 2 72 14t25 44v370q0 32 -25 44t-72 14v39h311q152 0 231.5 -76t79.5 -190q0 -140 -84 -219t-212 -79h-326z" />
    <glyph glyph-name="e.smcp" unicode="&#xe205;" horiz-adv-x="661" 
d="M55 564h510l3 -142h-32q-22 54 -46 74t-72 20h-163v-202h134q26 0 37.5 17t18.5 57h36v-196h-36q-7 40 -18.5 57t-37.5 17h-134v-164q0 -31 18 -42.5t59 -11.5h89q47 0 71 22t69 92h35l-27 -162h-514v39q47 2 72 14t25 44v370q0 32 -25 44t-72 14v39z" />
    <glyph glyph-name="e.smcp" unicode="&#xf765;" horiz-adv-x="661" 
d="M55 564h510l3 -142h-32q-22 54 -46 74t-72 20h-163v-202h134q26 0 37.5 17t18.5 57h36v-196h-36q-7 40 -18.5 57t-37.5 17h-134v-164q0 -31 18 -42.5t59 -11.5h89q47 0 71 22t69 92h35l-27 -162h-514v39q47 2 72 14t25 44v370q0 32 -25 44t-72 14v39z" />
    <glyph glyph-name="f.smcp" unicode="&#xe206;" horiz-adv-x="602" 
d="M255 251v-154q0 -33 29.5 -44.5t90.5 -13.5v-39h-320v39q47 2 72 14t25 44v370q0 32 -25 44t-72 14v39h493l4 -145h-35q-23 54 -48 75.5t-73 21.5h-141v-217h124q26 0 37.5 17t18.5 57h36v-196h-36q-7 40 -18.5 57t-37.5 17h-124z" />
    <glyph glyph-name="f.smcp" unicode="&#xf766;" horiz-adv-x="602" 
d="M255 251v-154q0 -33 29.5 -44.5t90.5 -13.5v-39h-320v39q47 2 72 14t25 44v370q0 32 -25 44t-72 14v39h493l4 -145h-35q-23 54 -48 75.5t-73 21.5h-141v-217h124q26 0 37.5 17t18.5 57h36v-196h-36q-7 40 -18.5 57t-37.5 17h-124z" />
    <glyph glyph-name="g.smcp" unicode="&#xe207;" horiz-adv-x="679" 
d="M567 173v-125q-94 -58 -224 -58q-138 0 -218 81.5t-80 199.5q0 135 87 219t216 84q123 0 200 -53l3 -132h-34q-23 68 -65.5 99t-111.5 31q-94 0 -138.5 -61.5t-44.5 -158.5q0 -109 51 -183t150 -74q74 0 106 32v99q0 33 -22 44.5t-67 13.5v39h279v-39q-45 -2 -66 -13.5
t-21 -44.5z" />
    <glyph glyph-name="g.smcp" unicode="&#xf767;" horiz-adv-x="679" 
d="M567 173v-125q-94 -58 -224 -58q-138 0 -218 81.5t-80 199.5q0 135 87 219t216 84q123 0 200 -53l3 -132h-34q-23 68 -65.5 99t-111.5 31q-94 0 -138.5 -61.5t-44.5 -158.5q0 -109 51 -183t150 -74q74 0 106 32v99q0 33 -22 44.5t-67 13.5v39h279v-39q-45 -2 -66 -13.5
t-21 -44.5z" />
    <glyph glyph-name="h.smcp" unicode="&#xe208;" horiz-adv-x="821" 
d="M566 266h-311v-169q0 -32 25 -44t72 -14v-39h-297v39q47 2 72 14t25 44v370q0 32 -25 44t-72 14v39h297v-39q-47 -2 -72 -14t-25 -44v-152h311v152q0 32 -25 44t-72 14v39h297v-39q-47 -2 -72 -14t-25 -44v-370q0 -32 25 -44t72 -14v-39h-297v39q47 2 72 14t25 44v169z
" />
    <glyph glyph-name="h.smcp" unicode="&#xf768;" horiz-adv-x="821" 
d="M566 266h-311v-169q0 -32 25 -44t72 -14v-39h-297v39q47 2 72 14t25 44v370q0 32 -25 44t-72 14v39h297v-39q-47 -2 -72 -14t-25 -44v-152h311v152q0 32 -25 44t-72 14v39h297v-39q-47 -2 -72 -14t-25 -44v-370q0 -32 25 -44t72 -14v-39h-297v39q47 2 72 14t25 44v169z
" />
    <glyph glyph-name="i.smcp" unicode="&#xe209;" horiz-adv-x="407" 
d="M255 467v-370q0 -32 25 -44t72 -14v-39h-297v39q47 2 72 14t25 44v370q0 32 -25 44t-72 14v39h297v-39q-47 -2 -72 -14t-25 -44z" />
    <glyph glyph-name="i.smcp" unicode="&#xf769;" horiz-adv-x="407" 
d="M255 467v-370q0 -32 25 -44t72 -14v-39h-297v39q47 2 72 14t25 44v370q0 32 -25 44t-72 14v39h297v-39q-47 -2 -72 -14t-25 -44z" />
    <glyph glyph-name="j.smcp" unicode="&#xe20a;" horiz-adv-x="508" 
d="M288 160v307q0 32 -25 44t-72 14v39h297v-39q-47 -2 -72 -14t-25 -44v-296q0 -85 -53.5 -133t-147.5 -48q-82 0 -131 28t-49 81q0 42 36 66h66v-34q0 -45 20.5 -71t61.5 -26q94 0 94 126z" />
    <glyph glyph-name="j.smcp" unicode="&#xf76a;" horiz-adv-x="508" 
d="M288 160v307q0 32 -25 44t-72 14v39h297v-39q-47 -2 -72 -14t-25 -44v-296q0 -85 -53.5 -133t-147.5 -48q-82 0 -131 28t-49 81q0 42 36 66h66v-34q0 -45 20.5 -71t61.5 -26q94 0 94 126z" />
    <glyph glyph-name="k.smcp" unicode="&#xe20b;" horiz-adv-x="696" 
d="M263 287l208 183q21 19 21 31q0 11 -12 16t-50 8v39h223v-39q-43 -4 -81 -36l-203 -173l221 -234q34 -37 91 -43v-39h-138q-36 19 -82 70zM255 467v-370q0 -32 25 -44t72 -14v-39h-297v39q47 2 72 14t25 44v370q0 32 -25 44t-72 14v39h297v-39q-47 -2 -72 -14t-25 -44z
" />
    <glyph glyph-name="k.smcp" unicode="&#xf76b;" horiz-adv-x="696" 
d="M263 287l208 183q21 19 21 31q0 11 -12 16t-50 8v39h223v-39q-43 -4 -81 -36l-203 -173l221 -234q34 -37 91 -43v-39h-138q-36 19 -82 70zM255 467v-370q0 -32 25 -44t72 -14v-39h-297v39q47 2 72 14t25 44v370q0 32 -25 44t-72 14v39h297v-39q-47 -2 -72 -14t-25 -44z
" />
    <glyph glyph-name="l.smcp" unicode="&#xe20c;" horiz-adv-x="625" 
d="M255 467v-366q0 -31 18 -42.5t59 -11.5h79q48 0 71.5 24.5t71.5 109.5h36l-30 -181h-505v39q47 2 72 14t25 44v370q0 32 -25 44t-72 14v39h297v-39q-47 -2 -72 -14t-25 -44z" />
    <glyph glyph-name="l.smcp" unicode="&#xf76c;" horiz-adv-x="625" 
d="M255 467v-366q0 -31 18 -42.5t59 -11.5h79q48 0 71.5 24.5t71.5 109.5h36l-30 -181h-505v39q47 2 72 14t25 44v370q0 32 -25 44t-72 14v39h297v-39q-47 -2 -72 -14t-25 -44z" />
    <glyph glyph-name="m.smcp" unicode="&#xe20d;" horiz-adv-x="907" 
d="M678 123l-43 308l-179 -431h-40l-191 431l-40 -308q-3 -25 -3 -33q0 -28 21.5 -38.5t68.5 -12.5v-39h-233v39q75 3 81 49l51 380q0 31 -19 43t-62 14v39h193q2 -22 13 -47l166 -371l151 371q11 25 13 47h191v-39q-43 -2 -62 -14t-19 -43l51 -377q4 -28 23.5 -39t57.5 -13
v-39h-277v39q48 2 69.5 12.5t21.5 38.5q0 8 -4 33z" />
    <glyph glyph-name="m.smcp" unicode="&#xf76d;" horiz-adv-x="907" 
d="M678 123l-43 308l-179 -431h-40l-191 431l-40 -308q-3 -25 -3 -33q0 -28 21.5 -38.5t68.5 -12.5v-39h-233v39q75 3 81 49l51 380q0 31 -19 43t-62 14v39h193q2 -22 13 -47l166 -371l151 371q11 25 13 47h191v-39q-43 -2 -62 -14t-19 -43l51 -377q4 -28 23.5 -39t57.5 -13
v-39h-277v39q48 2 69.5 12.5t21.5 38.5q0 8 -4 33z" />
    <glyph glyph-name="n.smcp" unicode="&#xe20e;" horiz-adv-x="783" 
d="M579 169v298q0 32 -25 44t-72 14v39h256v-39q-47 -2 -72 -14t-25 -44v-467h-43l-384 439v-342q0 -32 25 -44t72 -14v-39h-256v39q47 2 72 14t25 44v383q-22 26 -41.5 35.5t-53.5 9.5v39h184z" />
    <glyph glyph-name="n.smcp" unicode="&#xf76e;" horiz-adv-x="783" 
d="M579 169v298q0 32 -25 44t-72 14v39h256v-39q-47 -2 -72 -14t-25 -44v-467h-43l-384 439v-342q0 -32 25 -44t72 -14v-39h-256v39q47 2 72 14t25 44v383q-22 26 -41.5 35.5t-53.5 9.5v39h184z" />
    <glyph glyph-name="o.smcp" unicode="&#xe20f;" horiz-adv-x="692" 
d="M360 46q84 0 129.5 61.5t45.5 158.5q0 109 -53.5 180.5t-149.5 71.5q-84 0 -129.5 -61.5t-45.5 -158.5q0 -109 53.5 -180.5t149.5 -71.5zM337 -10q-132 0 -212 83t-80 198q0 135 89 219t221 84t212 -83t80 -198q0 -135 -89 -219t-221 -84z" />
    <glyph glyph-name="o.smcp" unicode="&#xf76f;" horiz-adv-x="692" 
d="M360 46q84 0 129.5 61.5t45.5 158.5q0 109 -53.5 180.5t-149.5 71.5q-84 0 -129.5 -61.5t-45.5 -158.5q0 -109 53.5 -180.5t149.5 -71.5zM337 -10q-132 0 -212 83t-80 198q0 135 89 219t221 84t212 -83t80 -198q0 -135 -89 -219t-221 -84z" />
    <glyph glyph-name="q.smcp" unicode="&#xe211;" horiz-adv-x="692" 
d="M416 -91l-96 82q-125 6 -200 87.5t-75 192.5q0 135 89 219t221 84t212 -83t80 -198q0 -111 -61.5 -189t-160.5 -103l111 -63q63 -34 99 -34h27v-29q-12 -10 -41.5 -18t-57.5 -8q-75 0 -147 60zM360 46q84 0 129.5 61.5t45.5 158.5q0 109 -53.5 180.5t-149.5 71.5
q-84 0 -129.5 -61.5t-45.5 -158.5q0 -109 53.5 -180.5t149.5 -71.5z" />
    <glyph glyph-name="q.smcp" unicode="&#xf771;" horiz-adv-x="692" 
d="M416 -91l-96 82q-125 6 -200 87.5t-75 192.5q0 135 89 219t221 84t212 -83t80 -198q0 -111 -61.5 -189t-160.5 -103l111 -63q63 -34 99 -34h27v-29q-12 -10 -41.5 -18t-57.5 -8q-75 0 -147 60zM360 46q84 0 129.5 61.5t45.5 158.5q0 109 -53.5 180.5t-149.5 71.5
q-84 0 -129.5 -61.5t-45.5 -158.5q0 -109 53.5 -180.5t149.5 -71.5z" />
    <glyph glyph-name="r.smcp" unicode="&#xe212;" horiz-adv-x="699" 
d="M329 516h-75v-221h75q75 0 106.5 27t31.5 86q0 108 -138 108zM254 248v-151q0 -32 25.5 -44t72.5 -14v-39h-297v39q47 2 72 14t25 44v370q0 32 -25 44t-72 14v39h307q116 0 166.5 -43.5t50.5 -112.5q0 -67 -51 -105t-126 -45q28 -4 49.5 -18t46.5 -42l96 -110
q39 -44 90 -51v-37h-131q-34 20 -75 68l-120 139q-19 23 -36 32t-45 9h-23z" />
    <glyph glyph-name="r.smcp" unicode="&#xf772;" horiz-adv-x="699" 
d="M329 516h-75v-221h75q75 0 106.5 27t31.5 86q0 108 -138 108zM254 248v-151q0 -32 25.5 -44t72.5 -14v-39h-297v39q47 2 72 14t25 44v370q0 32 -25 44t-72 14v39h307q116 0 166.5 -43.5t50.5 -112.5q0 -67 -51 -105t-126 -45q28 -4 49.5 -18t46.5 -42l96 -110
q39 -44 90 -51v-37h-131q-34 20 -75 68l-120 139q-19 23 -36 32t-45 9h-23z" />
    <glyph glyph-name="s.smcp" unicode="&#xe213;" horiz-adv-x="532" 
d="M250 -10q-118 0 -183 53l-7 139h36q18 -65 61.5 -102t99.5 -37q125 0 125 91q0 37 -21 58t-70 36l-86 27q-68 22 -105 57.5t-37 99.5q0 73 54 117.5t145 44.5q117 0 183 -49v-127h-34q-16 60 -52 91.5t-102 31.5q-48 0 -75.5 -21.5t-27.5 -60.5q0 -37 19.5 -56.5
t65.5 -34.5l82 -26q73 -23 112 -59t39 -104q0 -81 -62 -125t-160 -44z" />
    <glyph glyph-name="s.smcp" unicode="&#xf773;" horiz-adv-x="532" 
d="M250 -10q-118 0 -183 53l-7 139h36q18 -65 61.5 -102t99.5 -37q125 0 125 91q0 37 -21 58t-70 36l-86 27q-68 22 -105 57.5t-37 99.5q0 73 54 117.5t145 44.5q117 0 183 -49v-127h-34q-16 60 -52 91.5t-102 31.5q-48 0 -75.5 -21.5t-27.5 -60.5q0 -37 19.5 -56.5
t65.5 -34.5l82 -26q73 -23 112 -59t39 -104q0 -81 -62 -125t-160 -44z" />
    <glyph glyph-name="t.smcp" unicode="&#xe214;" horiz-adv-x="633" 
d="M265 97v419h-70q-50 0 -72.5 -25t-57.5 -100h-35l12 173h549l12 -173h-35q-35 75 -57.5 100t-72.5 25h-70v-419q0 -32 25 -44t72 -14v-39h-297v39q47 2 72 14t25 44z" />
    <glyph glyph-name="t.smcp" unicode="&#xf774;" horiz-adv-x="633" 
d="M265 97v419h-70q-50 0 -72.5 -25t-57.5 -100h-35l12 173h549l12 -173h-35q-35 75 -57.5 100t-72.5 25h-70v-419q0 -32 25 -44t72 -14v-39h-297v39q47 2 72 14t25 44z" />
    <glyph glyph-name="u.smcp" unicode="&#xe215;" horiz-adv-x="710" 
d="M593 467v-269q0 -98 -68 -153t-164 -55q-112 0 -178 54t-66 155v268q0 32 -25 44t-72 14v39h297v-39q-47 -2 -72 -14t-25 -44v-260q0 -71 40.5 -114t107.5 -43q78 0 122 40t44 124v253q0 32 -25 44t-72 14v39h253v-39q-47 -2 -72 -14t-25 -44z" />
    <glyph glyph-name="u.smcp" unicode="&#xf775;" horiz-adv-x="710" 
d="M593 467v-269q0 -98 -68 -153t-164 -55q-112 0 -178 54t-66 155v268q0 32 -25 44t-72 14v39h297v-39q-47 -2 -72 -14t-25 -44v-260q0 -71 40.5 -114t107.5 -43q78 0 122 40t44 124v253q0 32 -25 44t-72 14v39h253v-39q-47 -2 -72 -14t-25 -44z" />
    <glyph glyph-name="v.smcp" unicode="&#xe216;" horiz-adv-x="666" 
d="M365 134l141 324q9 22 9 32q0 18 -18 25t-63 10v39h212v-39q-46 -2 -59 -30l-227 -501h-32l-249 501q-14 28 -59 30v39h264v-39q-45 -3 -63 -10t-18 -25q0 -14 9 -32z" />
    <glyph glyph-name="v.smcp" unicode="&#xf776;" horiz-adv-x="666" 
d="M365 134l141 324q9 22 9 32q0 18 -18 25t-63 10v39h212v-39q-46 -2 -59 -30l-227 -501h-32l-249 501q-14 28 -59 30v39h264v-39q-45 -3 -63 -10t-18 -25q0 -14 9 -32z" />
    <glyph glyph-name="w.smcp" unicode="&#xe217;" horiz-adv-x="931" 
d="M623 -6l-141 330l-152 -330h-32l-219 501q-13 30 -59 30v39h257v-39q-43 -1 -61.5 -8.5t-18.5 -26.5q0 -14 9 -35l136 -315l113 246l-48 109q-13 30 -59 30v39h252v-39q-43 -1 -61.5 -8.5t-18.5 -26.5q0 -14 9 -35l129 -310l118 313q9 27 9 32q0 18 -19 26t-62 9v39h207
v-39q-47 0 -59 -30l-197 -501h-32z" />
    <glyph glyph-name="w.smcp" unicode="&#xf777;" horiz-adv-x="931" 
d="M623 -6l-141 330l-152 -330h-32l-219 501q-13 30 -59 30v39h257v-39q-43 -1 -61.5 -8.5t-18.5 -26.5q0 -14 9 -35l136 -315l113 246l-48 109q-13 30 -59 30v39h252v-39q-43 -1 -61.5 -8.5t-18.5 -26.5q0 -14 9 -35l129 -310l118 313q9 27 9 32q0 18 -19 26t-62 9v39h207
v-39q-47 0 -59 -30l-197 -501h-32z" />
    <glyph glyph-name="x.smcp" unicode="&#xe218;" horiz-adv-x="656" 
d="M414 107l-111 140l-115 -140q-21 -25 -21 -37q0 -15 14.5 -22.5t54.5 -8.5v-39h-216v39q44 1 79 43l171 203l-159 198q-33 40 -73 42v39h264v-39q-40 -1 -53 -8t-13 -21q0 -10 17 -33l95 -123l106 123q17 19 17 33t-13 21t-53 8v39h213v-39q-20 -1 -35.5 -8t-23 -14
t-18.5 -20l-161 -182l177 -219q32 -40 79 -43v-39h-270v39q40 1 54.5 8.5t14.5 22.5q0 12 -21 37z" />
    <glyph glyph-name="x.smcp" unicode="&#xf778;" horiz-adv-x="656" 
d="M414 107l-111 140l-115 -140q-21 -25 -21 -37q0 -15 14.5 -22.5t54.5 -8.5v-39h-216v39q44 1 79 43l171 203l-159 198q-33 40 -73 42v39h264v-39q-40 -1 -53 -8t-13 -21q0 -10 17 -33l95 -123l106 123q17 19 17 33t-13 21t-53 8v39h213v-39q-20 -1 -35.5 -8t-23 -14
t-18.5 -20l-161 -182l177 -219q32 -40 79 -43v-39h-270v39q40 1 54.5 8.5t14.5 22.5q0 12 -21 37z" />
    <glyph glyph-name="y.smcp" unicode="&#xe219;" horiz-adv-x="637" 
d="M266 97v121l-187 277q-20 30 -59 30v39h270v-39q-44 -2 -63.5 -9.5t-19.5 -25.5q0 -15 11 -32l123 -189l128 189q11 17 11 32q0 18 -19.5 25.5t-63.5 9.5v39h220v-39q-39 0 -59 -30l-189 -276v-122q0 -32 25 -44t72 -14v-39h-297v39q47 2 72 14t25 44z" />
    <glyph glyph-name="y.smcp" unicode="&#xf779;" horiz-adv-x="637" 
d="M266 97v121l-187 277q-20 30 -59 30v39h270v-39q-44 -2 -63.5 -9.5t-19.5 -25.5q0 -15 11 -32l123 -189l128 189q11 17 11 32q0 18 -19.5 25.5t-63.5 9.5v39h220v-39q-39 0 -59 -30l-189 -276v-122q0 -32 25 -44t72 -14v-39h-297v39q47 2 72 14t25 44z" />
    <glyph glyph-name="z.smcp" unicode="&#xe21a;" horiz-adv-x="609" 
d="M69 404l2 160h467v-26l-359 -490h199q48 0 72 23.5t71 107.5h36l-30 -179h-482v26l360 490h-184q-47 0 -69 -23t-47 -89h-36z" />
    <glyph glyph-name="z.smcp" unicode="&#xf77a;" horiz-adv-x="609" 
d="M69 404l2 160h467v-26l-359 -490h199q48 0 72 23.5t71 107.5h36l-30 -179h-482v26l360 490h-184q-47 0 -69 -23t-47 -89h-36z" />
    <glyph glyph-name="anocross.smcp" unicode="&#xe220;" horiz-adv-x="688" 
d="M312 453l-151 -346q-8 -19 -8 -32q0 -19 18 -26.5t68 -9.5v-39h-219v39q51 6 63 33l196 439l-26 58h114l238 -497q13 -27 63 -33v-39h-270v39q50 2 68 9.5t18 26.5q0 16 -8 32z" />
    <glyph glyph-name="aacute.smcp" unicode="&#xe221;" horiz-adv-x="688" 
d="M476 107l-32 66h-254l-29 -66q-8 -19 -8 -32q0 -19 18 -26.5t68 -9.5v-39h-219v39q51 6 63 33l196 439l-26 58h114l238 -497q13 -27 63 -33v-39h-270v39q50 2 68 9.5t18 26.5q0 13 -8 32zM312 453l-101 -232h211zM377 820h122l-161 -208h-45z" />
    <glyph glyph-name="aacute.smcp" unicode="&#xf7e1;" horiz-adv-x="688" 
d="M476 107l-32 66h-254l-29 -66q-8 -19 -8 -32q0 -19 18 -26.5t68 -9.5v-39h-219v39q51 6 63 33l196 439l-26 58h114l238 -497q13 -27 63 -33v-39h-270v39q50 2 68 9.5t18 26.5q0 13 -8 32zM312 453l-101 -232h211zM377 820h122l-161 -208h-45z" />
    <glyph glyph-name="agrave.smcp" unicode="&#xe222;" horiz-adv-x="688" 
d="M476 107l-32 66h-254l-29 -66q-8 -19 -8 -32q0 -19 18 -26.5t68 -9.5v-39h-219v39q51 6 63 33l196 439l-26 58h114l238 -497q13 -27 63 -33v-39h-270v39q50 2 68 9.5t18 26.5q0 13 -8 32zM312 453l-101 -232h211zM139 820h122l84 -208h-45z" />
    <glyph glyph-name="agrave.smcp" unicode="&#xf7e0;" horiz-adv-x="688" 
d="M476 107l-32 66h-254l-29 -66q-8 -19 -8 -32q0 -19 18 -26.5t68 -9.5v-39h-219v39q51 6 63 33l196 439l-26 58h114l238 -497q13 -27 63 -33v-39h-270v39q50 2 68 9.5t18 26.5q0 13 -8 32zM312 453l-101 -232h211zM139 820h122l84 -208h-45z" />
    <glyph glyph-name="acircumflex.smcp" unicode="&#xe223;" horiz-adv-x="688" 
d="M476 107l-32 66h-254l-29 -66q-8 -19 -8 -32q0 -19 18 -26.5t68 -9.5v-39h-219v39q51 6 63 33l196 439l-26 58h114l238 -497q13 -27 63 -33v-39h-270v39q50 2 68 9.5t18 26.5q0 13 -8 32zM312 453l-101 -232h211zM362 820l150 -208h-46l-138 124l-138 -124h-46l150 208
h68z" />
    <glyph glyph-name="acircumflex.smcp" unicode="&#xf7e2;" horiz-adv-x="688" 
d="M476 107l-32 66h-254l-29 -66q-8 -19 -8 -32q0 -19 18 -26.5t68 -9.5v-39h-219v39q51 6 63 33l196 439l-26 58h114l238 -497q13 -27 63 -33v-39h-270v39q50 2 68 9.5t18 26.5q0 13 -8 32zM312 453l-101 -232h211zM362 820l150 -208h-46l-138 124l-138 -124h-46l150 208
h68z" />
    <glyph glyph-name="adieresis.smcp" unicode="&#xe224;" horiz-adv-x="688" 
d="M476 107l-32 66h-254l-29 -66q-8 -19 -8 -32q0 -19 18 -26.5t68 -9.5v-39h-219v39q51 6 63 33l196 439l-26 58h114l238 -497q13 -27 63 -33v-39h-270v39q50 2 68 9.5t18 26.5q0 13 -8 32zM312 453l-101 -232h211zM148 716q0 29 20.5 49.5t49.5 20.5t49.5 -20.5
t20.5 -49.5t-20.5 -49.5t-49.5 -20.5t-49.5 20.5t-20.5 49.5zM348 716q0 29 20.5 49.5t49.5 20.5t49.5 -20.5t20.5 -49.5t-20.5 -49.5t-49.5 -20.5t-49.5 20.5t-20.5 49.5z" />
    <glyph glyph-name="adieresis.smcp" unicode="&#xf7e4;" horiz-adv-x="688" 
d="M476 107l-32 66h-254l-29 -66q-8 -19 -8 -32q0 -19 18 -26.5t68 -9.5v-39h-219v39q51 6 63 33l196 439l-26 58h114l238 -497q13 -27 63 -33v-39h-270v39q50 2 68 9.5t18 26.5q0 13 -8 32zM312 453l-101 -232h211zM148 716q0 29 20.5 49.5t49.5 20.5t49.5 -20.5
t20.5 -49.5t-20.5 -49.5t-49.5 -20.5t-49.5 20.5t-20.5 49.5zM348 716q0 29 20.5 49.5t49.5 20.5t49.5 -20.5t20.5 -49.5t-20.5 -49.5t-49.5 -20.5t-49.5 20.5t-20.5 49.5z" />
    <glyph glyph-name="atilde.smcp" unicode="&#xe225;" horiz-adv-x="688" 
d="M476 107l-32 66h-254l-29 -66q-8 -19 -8 -32q0 -19 18 -26.5t68 -9.5v-39h-219v39q51 6 63 33l196 439l-26 58h114l238 -497q13 -27 63 -33v-39h-270v39q50 2 68 9.5t18 26.5q0 13 -8 32zM312 453l-101 -232h211zM391 630q-34 0 -83.5 29.5t-69.5 29.5q-24 0 -38 -10.5
t-31 -42.5l-39 6q21 63 52.5 93t77.5 30q34 0 83.5 -29.5t69.5 -29.5q24 0 38 10.5t31 42.5l39 -6q-21 -63 -52.5 -93t-77.5 -30z" />
    <glyph glyph-name="atilde.smcp" unicode="&#xf7e3;" horiz-adv-x="688" 
d="M476 107l-32 66h-254l-29 -66q-8 -19 -8 -32q0 -19 18 -26.5t68 -9.5v-39h-219v39q51 6 63 33l196 439l-26 58h114l238 -497q13 -27 63 -33v-39h-270v39q50 2 68 9.5t18 26.5q0 13 -8 32zM312 453l-101 -232h211zM391 630q-34 0 -83.5 29.5t-69.5 29.5q-24 0 -38 -10.5
t-31 -42.5l-39 6q21 63 52.5 93t77.5 30q34 0 83.5 -29.5t69.5 -29.5q24 0 38 10.5t31 42.5l39 -6q-21 -63 -52.5 -93t-77.5 -30z" />
    <glyph glyph-name="aring.smcp" unicode="&#xe226;" horiz-adv-x="688" 
d="M476 107l-32 66h-254l-29 -66q-8 -19 -8 -32q0 -19 18 -26.5t68 -9.5v-39h-219v39q51 6 63 33l196 439l-26 58h114l238 -497q13 -27 63 -33v-39h-270v39q50 2 68 9.5t18 26.5q0 13 -8 32zM312 453l-101 -232h211zM204 716q0 48 32 81t82 33t82 -33t32 -81t-32 -81
t-82 -33t-82 33t-32 81zM379 716q0 30 -15.5 49t-45.5 19t-45.5 -19t-15.5 -49t15.5 -49t45.5 -19t45.5 19t15.5 49z" />
    <glyph glyph-name="aring.smcp" unicode="&#xf7e5;" horiz-adv-x="688" 
d="M476 107l-32 66h-254l-29 -66q-8 -19 -8 -32q0 -19 18 -26.5t68 -9.5v-39h-219v39q51 6 63 33l196 439l-26 58h114l238 -497q13 -27 63 -33v-39h-270v39q50 2 68 9.5t18 26.5q0 13 -8 32zM312 453l-101 -232h211zM204 716q0 48 32 81t82 33t82 -33t32 -81t-32 -81
t-82 -33t-82 33t-32 81zM379 716q0 30 -15.5 49t-45.5 19t-45.5 -19t-15.5 -49t15.5 -49t45.5 -19t45.5 19t15.5 49z" />
    <glyph glyph-name="amacron.smcp" unicode="&#xe228;" horiz-adv-x="688" 
d="M476 107l-32 66h-254l-29 -66q-8 -19 -8 -32q0 -19 18 -26.5t68 -9.5v-39h-219v39q51 6 63 33l196 439l-26 58h114l238 -497q13 -27 63 -33v-39h-270v39q50 2 68 9.5t18 26.5q0 13 -8 32zM312 453l-101 -232h211zM182 664v64h272v-64h-272z" />
    <glyph glyph-name="amacron.smcp" unicode="&#xf641;" horiz-adv-x="688" 
d="M476 107l-32 66h-254l-29 -66q-8 -19 -8 -32q0 -19 18 -26.5t68 -9.5v-39h-219v39q51 6 63 33l196 439l-26 58h114l238 -497q13 -27 63 -33v-39h-270v39q50 2 68 9.5t18 26.5q0 13 -8 32zM312 453l-101 -232h211zM182 664v64h272v-64h-272z" />
    <glyph glyph-name="abreve.smcp" unicode="&#xe229;" horiz-adv-x="688" 
d="M476 107l-32 66h-254l-29 -66q-8 -19 -8 -32q0 -19 18 -26.5t68 -9.5v-39h-219v39q51 6 63 33l196 439l-26 58h114l238 -497q13 -27 63 -33v-39h-270v39q50 2 68 9.5t18 26.5q0 13 -8 32zM312 453l-101 -232h211zM328 622q-94 0 -136 50t-42 148h44q14 -130 134 -130
t134 130h44q0 -98 -42 -148t-136 -50z" />
    <glyph glyph-name="abreve.smcp" unicode="&#xf640;" horiz-adv-x="688" 
d="M476 107l-32 66h-254l-29 -66q-8 -19 -8 -32q0 -19 18 -26.5t68 -9.5v-39h-219v39q51 6 63 33l196 439l-26 58h114l238 -497q13 -27 63 -33v-39h-270v39q50 2 68 9.5t18 26.5q0 13 -8 32zM312 453l-101 -232h211zM328 622q-94 0 -136 50t-42 148h44q14 -130 134 -130
t134 130h44q0 -98 -42 -148t-136 -50z" />
    <glyph glyph-name="f_f_j" unicode="&#xe22a;" horiz-adv-x="1047" 
d="M802 -248l-31 27l48 77q44 69 44 183v436h-264v-375q0 -35 19 -44.5t81 -16.5v-39h-280v39q22 3 33 5.5t23.5 8t18 16t5.5 27.5v379h-264v-375q0 -35 19 -44.5t81 -16.5v-39h-280v39q22 3 33 5.5t23.5 8t18 16t5.5 27.5v379h-77v35l77 33v30q0 108 49.5 167.5t147.5 59.5
q135 0 135 -90q0 -40 -28 -57h-67v30q0 65 -57 65q-45 0 -62.5 -35.5t-17.5 -113.5v-69h264v33q0 114 65.5 180.5t182.5 66.5q79 0 122.5 -28.5t43.5 -72.5q0 -40 -28 -57h-84v30q0 37 -20.5 56.5t-57.5 19.5q-67 0 -95.5 -39t-28.5 -120v-69h369l-5 -94v-374
q0 -67 -5.5 -98.5t-22.5 -64.5q-30 -57 -133 -147z" />
    <glyph glyph-name="f_f_j" unicode="&#xe384;" horiz-adv-x="1047" 
d="M802 -248l-31 27l48 77q44 69 44 183v436h-264v-375q0 -35 19 -44.5t81 -16.5v-39h-280v39q22 3 33 5.5t23.5 8t18 16t5.5 27.5v379h-264v-375q0 -35 19 -44.5t81 -16.5v-39h-280v39q22 3 33 5.5t23.5 8t18 16t5.5 27.5v379h-77v35l77 33v30q0 108 49.5 167.5t147.5 59.5
q135 0 135 -90q0 -40 -28 -57h-67v30q0 65 -57 65q-45 0 -62.5 -35.5t-17.5 -113.5v-69h264v33q0 114 65.5 180.5t182.5 66.5q79 0 122.5 -28.5t43.5 -72.5q0 -40 -28 -57h-84v30q0 37 -20.5 56.5t-57.5 19.5q-67 0 -95.5 -39t-28.5 -120v-69h369l-5 -94v-374
q0 -67 -5.5 -98.5t-22.5 -64.5q-30 -57 -133 -147z" />
    <glyph glyph-name="f_f_k" unicode="&#xe22b;" horiz-adv-x="1372" 
d="M969 273l175 155q17 17 17 29q0 17 -13 22.5t-56 11.5v39h240v-39q-55 -15 -83 -38l-176 -153l294 -268v-32h-112zM863 96v569q-19 38 -59.5 64t-88.5 26q-60 0 -88 -35.5t-28 -110.5v-79h137v-55h-137v-375q0 -35 19 -44.5t81 -16.5v-39h-280v39q22 3 33 5.5t23.5 8
t18 16t5.5 27.5v379h-264v-375q0 -35 19 -44.5t81 -16.5v-39h-280v39q22 3 33 5.5t23.5 8t18 16t5.5 27.5v379h-77v35l77 33v30q0 108 49.5 167.5t147.5 59.5q135 0 135 -90q0 -40 -28 -57h-67v30q0 65 -57 65q-45 0 -62.5 -35.5t-17.5 -113.5v-69h264v43q0 111 60.5 174
t163.5 63q84 0 139 -42l71 42h35l-5 -86v-628q0 -17 5.5 -27.5t18 -16t23.5 -8t33 -5.5v-39h-260v39q22 3 33 5.5t23.5 8t18 16t5.5 27.5z" />
    <glyph glyph-name="f_f_k" unicode="&#xe385;" horiz-adv-x="1372" 
d="M969 273l175 155q17 17 17 29q0 17 -13 22.5t-56 11.5v39h240v-39q-55 -15 -83 -38l-176 -153l294 -268v-32h-112zM863 96v569q-19 38 -59.5 64t-88.5 26q-60 0 -88 -35.5t-28 -110.5v-79h137v-55h-137v-375q0 -35 19 -44.5t81 -16.5v-39h-280v39q22 3 33 5.5t23.5 8
t18 16t5.5 27.5v379h-264v-375q0 -35 19 -44.5t81 -16.5v-39h-280v39q22 3 33 5.5t23.5 8t18 16t5.5 27.5v379h-77v35l77 33v30q0 108 49.5 167.5t147.5 59.5q135 0 135 -90q0 -40 -28 -57h-67v30q0 65 -57 65q-45 0 -62.5 -35.5t-17.5 -113.5v-69h264v43q0 111 60.5 174
t163.5 63q84 0 139 -42l71 42h35l-5 -86v-628q0 -17 5.5 -27.5t18 -16t23.5 -8t33 -5.5v-39h-260v39q22 3 33 5.5t23.5 8t18 16t5.5 27.5z" />
    <glyph glyph-name="aogonek.smcp" unicode="&#xe22f;" horiz-adv-x="688" 
d="M583 0h-185v39q50 2 68 9.5t18 26.5q0 13 -8 32l-32 66h-254l-29 -66q-8 -19 -8 -32q0 -19 18 -26.5t68 -9.5v-39h-219v39q51 6 63 33l196 439l-26 58h114l238 -497q13 -27 63 -33v-39q-124 -44 -124 -126q0 -31 20 -48t55 -17q18 0 34 3.5t23 7.5l8 3l10 -31
q-40 -42 -105 -42q-52 0 -86 27.5t-34 84.5q0 81 114 138zM312 453l-101 -232h211z" />
    <glyph glyph-name="aogonek.smcp" unicode="&#xf642;" horiz-adv-x="688" 
d="M583 0h-185v39q50 2 68 9.5t18 26.5q0 13 -8 32l-32 66h-254l-29 -66q-8 -19 -8 -32q0 -19 18 -26.5t68 -9.5v-39h-219v39q51 6 63 33l196 439l-26 58h114l238 -497q13 -27 63 -33v-39q-124 -44 -124 -126q0 -31 20 -48t55 -17q18 0 34 3.5t23 7.5l8 3l10 -31
q-40 -42 -105 -42q-52 0 -86 27.5t-34 84.5q0 81 114 138zM312 453l-101 -232h211z" />
    <glyph glyph-name="edieresis.smcp" unicode="&#xe230;" horiz-adv-x="661" 
d="M55 564h510l3 -142h-32q-22 54 -46 74t-72 20h-163v-202h134q26 0 37.5 17t18.5 57h36v-196h-36q-7 40 -18.5 57t-37.5 17h-134v-164q0 -31 18 -42.5t59 -11.5h89q47 0 71 22t69 92h35l-27 -162h-514v39q47 2 72 14t25 44v370q0 32 -25 44t-72 14v39zM165 716
q0 29 20.5 49.5t49.5 20.5t49.5 -20.5t20.5 -49.5t-20.5 -49.5t-49.5 -20.5t-49.5 20.5t-20.5 49.5zM365 716q0 29 20.5 49.5t49.5 20.5t49.5 -20.5t20.5 -49.5t-20.5 -49.5t-49.5 -20.5t-49.5 20.5t-20.5 49.5z" />
    <glyph glyph-name="edieresis.smcp" unicode="&#xf7eb;" horiz-adv-x="661" 
d="M55 564h510l3 -142h-32q-22 54 -46 74t-72 20h-163v-202h134q26 0 37.5 17t18.5 57h36v-196h-36q-7 40 -18.5 57t-37.5 17h-134v-164q0 -31 18 -42.5t59 -11.5h89q47 0 71 22t69 92h35l-27 -162h-514v39q47 2 72 14t25 44v370q0 32 -25 44t-72 14v39zM165 716
q0 29 20.5 49.5t49.5 20.5t49.5 -20.5t20.5 -49.5t-20.5 -49.5t-49.5 -20.5t-49.5 20.5t-20.5 49.5zM365 716q0 29 20.5 49.5t49.5 20.5t49.5 -20.5t20.5 -49.5t-20.5 -49.5t-49.5 -20.5t-49.5 20.5t-20.5 49.5z" />
    </font>
</defs>
</svg>
