<?xml version="1.0" standalone="no"?>
<!DOCTYPE svg PUBLIC "-//W3C//DTD SVG 1.1//EN" "http://www.w3.org/Graphics/SVG/1.1/DTD/svg11.dtd" >
<svg xmlns="http://www.w3.org/2000/svg" xmlns:xlink="http://www.w3.org/1999/xlink" version="1.1">
<metadata>
Created by FontForge 20170731 at Wed Dec  2 22:57:29 2015
 By Aleksey,,,
(C) 2015 Frere-Jones Type LLC
</metadata>
<defs>
<font id="Mallory-Medium" horiz-adv-x="0" >
  <font-face 
    font-family="Mallory Medium"
    font-weight="500"
    font-stretch="normal"
    units-per-em="1000"
    panose-1="2 1 6 1 3 5 1 2 3 4"
    ascent="800"
    descent="-200"
    x-height="506"
    cap-height="700"
    bbox="-382 -263 1448 1084"
    underline-thickness="50"
    underline-position="-225"
    unicode-range="U+000D-FB02"
  />
<missing-glyph horiz-adv-x="700" 
d="M600 960v-1200h-500v1200h500zM350 429l157 481h-315zM150 874v-1028l171 514zM550 -154v1028l-172 -514zM192 -190h315l-157 481z" />
    <glyph glyph-name="fi" unicode="fi" horiz-adv-x="698" 
d="M239 506h162v-97h-161v-409h-118v409h-86v97h86v65q0 87 48 137t132 50q50 0 94 -18l17 -108l-2 -2q-51 26 -92 26q-37 0 -58.5 -22.5t-21.5 -61.5v-66zM558 755q32 0 54 -21.5t22 -52.5t-22 -52.5t-54 -21.5t-54 21.5t-22 52.5t22 52.5t54 21.5zM617 506v-506h-118v506
h118z" />
    <glyph glyph-name="fl" unicode="fl" horiz-adv-x="698" 
d="M239 506h162v-97h-161v-409h-118v409h-86v97h86v65q0 87 48 137t132 50q50 0 94 -18l17 -108l-2 -2q-51 26 -92 26q-37 0 -58.5 -22.5t-21.5 -61.5v-66zM617 759v-759h-118v722z" />
    <glyph glyph-name="f_f" unicode="ff" horiz-adv-x="833" 
d="M239 506h162v-97h-161v-409h-118v409h-86v97h86v65q0 87 48 137t132 50q50 0 94 -18l17 -108l-2 -2q-51 26 -92 26q-37 0 -58.5 -22.5t-21.5 -61.5v-66zM656 506h162v-97h-161v-409h-118v409h-86v97h86v65q0 87 48 137t132 50q50 0 94 -18l17 -108l-2 -2q-51 26 -92 26
q-37 0 -58.5 -22.5t-21.5 -61.5v-66z" />
    <glyph glyph-name="f_f_i" unicode="ffi" horiz-adv-x="1115" 
d="M239 506h162v-97h-161v-409h-118v409h-86v97h86v65q0 87 48 137t132 50q50 0 94 -18l17 -108l-2 -2q-51 26 -92 26q-37 0 -58.5 -22.5t-21.5 -61.5v-66zM656 506h162v-97h-161v-409h-118v409h-86v97h86v65q0 87 48 137t132 50q50 0 94 -18l17 -108l-2 -2q-51 26 -92 26
q-37 0 -58.5 -22.5t-21.5 -61.5v-66zM974 755q32 0 54 -21.5t22 -52.5t-22 -52.5t-54 -21.5t-54 21.5t-22 52.5t22 52.5t54 21.5zM1033 506v-506h-118v506h118z" />
    <glyph glyph-name="f_f_l" unicode="ffl" horiz-adv-x="1115" 
d="M239 506h162v-97h-161v-409h-118v409h-86v97h86v65q0 87 48 137t132 50q50 0 94 -18l17 -108l-2 -2q-51 26 -92 26q-37 0 -58.5 -22.5t-21.5 -61.5v-66zM656 506h162v-97h-161v-409h-118v409h-86v97h86v65q0 87 48 137t132 50q50 0 94 -18l17 -108l-2 -2q-51 26 -92 26
q-37 0 -58.5 -22.5t-21.5 -61.5v-66zM1033 759v-759h-118v722z" />
    <glyph glyph-name=".notdef" horiz-adv-x="700" 
d="M600 960v-1200h-500v1200h500zM350 429l157 481h-315zM150 874v-1028l171 514zM550 -154v1028l-172 -514zM192 -190h315l-157 481z" />
    <glyph glyph-name=".null" 
 />
    <glyph glyph-name="nonmarkingreturn" horiz-adv-x="333" 
 />
    <glyph glyph-name="null" 
 />
    <glyph glyph-name="null" 
 />
    <glyph glyph-name="CR" unicode="&#xd;" horiz-adv-x="217" 
 />
    <glyph glyph-name="space" unicode=" " horiz-adv-x="217" 
 />
    <glyph glyph-name="exclam" unicode="!" horiz-adv-x="271" 
d="M69 700h134v-92l-41 -371h-52l-41 371v92zM136 -9q-33 0 -56.5 23t-23.5 56t23.5 56.5t56.5 23.5t56.5 -23.5t23.5 -56.5q0 -32 -23.5 -55.5t-56.5 -23.5z" />
    <glyph glyph-name="quotedbl" unicode="&#x22;" horiz-adv-x="478" 
d="M297 403l-49 16l77 281h139zM88 403l-49 16l77 281h140z" />
    <glyph glyph-name="numbersign" unicode="#" horiz-adv-x="679" 
d="M275 431l-38 -162h176l39 162h-177zM467 162l-39 -164h-79l39 164h-176l-39 -164h-79l39 164h-104v107h129l38 162h-117v107h142l39 164h79l-39 -164h177l39 164h78l-39 -164h96v-107h-121l-38 -162h109v-107h-134z" />
    <glyph glyph-name="dollar" unicode="$" horiz-adv-x="590" 
d="M174 514q0 -34 21.5 -55.5t72.5 -38.5l17 177q-51 -2 -81 -24t-30 -59zM422 194q0 35 -20.5 56.5t-68.5 37.5l-18 -184q107 11 107 90zM307 -1l-15 -153h-81l15 156q-88 12 -163 63l-23 134l2 1q104 -74 196 -92l19 200q-110 27 -155.5 73t-45.5 125q0 87 66 141t172 55
l12 118h81l-12 -124q75 -11 130 -45v-126h-2q-65 44 -141 63l-18 -190q110 -30 154 -75q42 -47 42 -124q0 -87 -62.5 -141t-170.5 -59z" />
    <glyph glyph-name="percent" unicode="%" horiz-adv-x="927" 
d="M393 512q0 -88 -50 -146q-49 -57 -128 -57q-77 0 -126 57q-50 56 -50 144q0 89 50 147q49 57 128 57q77 0 127 -56q49 -56 49 -146zM493 331l-218 -333h-95l253 371l218 333h96zM215 633q-37 0 -60 -33.5t-23 -87.5q0 -55 23 -88t62 -33q38 0 61 33t23 87q0 56 -23.5 89
t-62.5 33zM533 188q0 88 50 146q49 57 128 57q77 0 127 -56q49 -56 49 -145t-50 -147q-49 -57 -128 -57q-77 0 -126 57q-50 56 -50 145zM711 68q38 0 61 33t23 87q0 55 -23 88.5t-62 33.5q-38 0 -61 -33t-23 -87q0 -55 23 -88.5t62 -33.5z" />
    <glyph glyph-name="ampersand" unicode="&#x26;" horiz-adv-x="715" 
d="M339 622q-38 0 -61 -25t-23 -65q0 -50 47 -120q111 65 111 129q0 35 -21 58t-53 23zM157 180q0 -38 26.5 -63.5t67.5 -25.5q65 0 137 63q-71 71 -129 144q-54 -31 -78 -58.5t-24 -59.5zM697 3v-3h-147q-9 8 -29 26q-3 3 -64 60q-106 -94 -220 -94q-88 0 -142 51
q-55 49 -55 130q0 121 166 199q-62 96 -62 161q0 79 56 130t143 51q75 0 127 -47q50 -47 50 -118q0 -113 -168 -204q39 -50 106 -119q46 54 107 141h121l-1 -3q-99 -139 -158 -206q84 -79 170 -155z" />
    <glyph glyph-name="quotesingle" unicode="'" horiz-adv-x="270" 
d="M88 403l-49 16l77 281h141z" />
    <glyph glyph-name="parenleft" unicode="(" horiz-adv-x="424" 
d="M186 305q0 -231 216 -411l-31 -36q-156 99 -228 206.5t-72 240.5t72 240.5t228 206.5l31 -36q-216 -180 -216 -411z" />
    <glyph glyph-name="parenright" unicode=")" horiz-adv-x="424" 
d="M237 305q0 230 -215 411l31 36q156 -99 228 -206.5t72 -240.5t-72 -240.5t-228 -206.5l-31 36q215 181 215 411z" />
    <glyph glyph-name="asterisk" unicode="*" horiz-adv-x="525" 
d="M272 534h-20l-53 170h127zM306 495l-7 19l145 104l40 -121zM80 618l145 -104l-7 -19l-178 2zM279 452l16 12l144 -107l-104 -74zM86 357l144 107l16 -12l-56 -169z" />
    <glyph glyph-name="plus" unicode="+" horiz-adv-x="600" 
d="M353 401h200v-102h-200v-202h-106v202h-200v102h200v201h106v-201z" />
    <glyph glyph-name="comma" unicode="," horiz-adv-x="224" 
d="M18 -172l-33 30q52 70 64 113q14 48 14 128v34h118q0 -95 -30 -158q-30 -62 -133 -147z" />
    <glyph glyph-name="hyphen" unicode="-" horiz-adv-x="396" 
d="M336 222h-276v109h276v-109z" />
    <glyph glyph-name="period" unicode="." horiz-adv-x="224" 
d="M112 -9q-33 0 -56.5 23.5t-23.5 56.5t23.5 57t56.5 24t56.5 -24t23.5 -57t-23.5 -56.5t-56.5 -23.5z" />
    <glyph glyph-name="slash" unicode="/" horiz-adv-x="468" 
d="M440 740l-351 -870h-96l351 870h96z" />
    <glyph glyph-name="zero" unicode="0" horiz-adv-x="684" 
d="M628 351q0 -159 -80 -262q-79 -103 -207 -103t-206 101q-79 100 -79 262q0 158 80 262q79 103 207 103q127 0 206 -102q79 -101 79 -261zM341 604q-73 0 -118 -70t-45 -183q0 -114 46 -184q45 -71 119 -71q72 0 119 71q45 70 45 182q0 113 -46 184q-47 71 -120 71z" />
    <glyph glyph-name="one" unicode="1" horiz-adv-x="444" 
d="M323 714l17 -5v-709h-121v523l-177 -108v129z" />
    <glyph glyph-name="two" unicode="2" horiz-adv-x="582" 
d="M543 108l-50 -108h-440l-8 38l243 290q53 63 72 100q17 36 17 72q0 43 -28 71t-72 28q-97 0 -202 -136h-2l-16 132q97 115 232 115q93 0 152 -54q57 -54 57 -142q0 -54 -23 -105q-23 -48 -92 -129l-147 -173z" />
    <glyph glyph-name="three" unicode="3" horiz-adv-x="553" 
d="M504 189q0 -87 -69 -143q-69 -57 -170 -57q-58 0 -101 12t-98 45l-19 132l2 1q112 -83 207 -83q54 0 89 27.5t35 70.5q0 53 -50.5 84.5t-170.5 53.5v41q113 40 160 74q45 31 45 76q0 37 -27 59t-72 22q-85 0 -194 -83h-2v124q104 66 209 66q97 0 153 -47t56 -127
q0 -109 -130 -170q70 -23 108.5 -69.5t38.5 -108.5z" />
    <glyph glyph-name="four" unicode="4" horiz-adv-x="633" 
d="M377 572l-205 -323h205v323zM489 249h111v-96h-111v-153h-114v153h-352l-4 29l341 523h129v-456z" />
    <glyph glyph-name="five" unicode="5" horiz-adv-x="582" 
d="M531 224q0 -104 -72 -170q-73 -66 -191 -66q-104 0 -192 43l-15 121q112 -59 200 -59q64 0 105 36t41 92q0 58 -39 90t-109 32q-76 0 -162 -33l-14 7l25 383h390v-108h-291l-12 -161q41 12 95 12q111 0 176 -59t65 -160z" />
    <glyph glyph-name="six" unicode="6" horiz-adv-x="611" 
d="M566 235q0 -105 -75 -177t-187 -72q-116 0 -184 69q-68 70 -68 185q0 68 30 136q26 61 109 179l104 145h142l-145 -193q-34 -46 -47 -68q52 17 107 17q92 0 153 -61t61 -160zM173 242q0 -68 36.5 -110t96.5 -42q61 0 100.5 39.5t39.5 99.5q0 63 -39 96.5t-110 33.5
q-47 0 -98 -11q-26 -60 -26 -106z" />
    <glyph glyph-name="seven" unicode="7" horiz-adv-x="588" 
d="M557 700l8 -13l-329 -687h-130l294 592h-333l-20 108h510z" />
    <glyph glyph-name="eight" unicode="8" horiz-adv-x="622" 
d="M569 186q0 -87 -73 -142q-74 -56 -186 -56t-185 56q-72 56 -72 142q0 116 119 171q-47 25 -72.5 66.5t-25.5 93.5q0 85 67 140q65 55 171 55q105 0 170 -55q66 -55 66 -140q0 -106 -98 -160q57 -25 88 -69.5t31 -101.5zM310 614q-53 0 -85 -29t-32 -76q0 -46 33.5 -76.5
t85.5 -30.5q51 0 84.5 30.5t33.5 76.5t-33 75.5t-87 29.5zM310 308q-57 0 -96.5 -31.5t-39.5 -78.5q0 -50 38.5 -81t99.5 -31t99 31t38 81q0 48 -40 79t-99 31z" />
    <glyph glyph-name="nine" unicode="9" horiz-adv-x="611" 
d="M419 145l-104 -145h-142l145 193q5 6 40 57q-44 -15 -98 -15q-92 0 -154 63q-61 61 -61 163q0 107 74 181q73 72 187 72q115 0 184 -69q68 -70 68 -185q0 -66 -29 -135q-29 -66 -110 -180zM165 467q0 -134 150 -134q51 0 92 9q30 63 30 116q0 68 -36.5 110t-96.5 42
q-61 0 -100 -40.5t-39 -102.5z" />
    <glyph glyph-name="colon" unicode=":" horiz-adv-x="242" 
d="M121 354q-33 0 -56.5 23.5t-23.5 56.5t23.5 57t56.5 24t56.5 -24t23.5 -57t-23.5 -56.5t-56.5 -23.5zM121 -9q-33 0 -56.5 23.5t-23.5 56.5t23.5 57t56.5 24t56.5 -24t23.5 -57t-23.5 -56.5t-56.5 -23.5z" />
    <glyph glyph-name="semicolon" unicode=";" horiz-adv-x="242" 
d="M124 354q-33 0 -56.5 23.5t-23.5 56.5t23.5 57t56.5 24t57 -24t24 -57t-24 -56.5t-57 -23.5zM22 -172l-33 30q52 69 65 114q14 50 14 127v34h117q0 -95 -30 -158q-30 -62 -133 -147z" />
    <glyph glyph-name="less" unicode="&#x3c;" horiz-adv-x="600" 
d="M217 351l323 -147v-113l-490 235v48l490 235v-110z" />
    <glyph glyph-name="equal" unicode="=" horiz-adv-x="600" 
d="M56 499h488v-96h-488v96zM56 297h488v-96h-488v96z" />
    <glyph glyph-name="greater" unicode="&#x3e;" horiz-adv-x="600" 
d="M550 374v-47l-490 -236v111l323 147l-323 147v113z" />
    <glyph glyph-name="question" unicode="?" horiz-adv-x="488" 
d="M44 502l-2 1v125q98 82 210 82q88 0 140.5 -46t52.5 -124q0 -53 -26 -90q-25 -37 -99 -76q-50 -26 -66.5 -40.5t-16.5 -32.5q0 -22 22 -64h-68q-31 35 -42 56.5t-11 45.5q0 29 21 52q21 22 85 55q51 26 68.5 45t17.5 47q0 30 -23 48t-62 18q-49 0 -95.5 -23.5
t-105.5 -78.5zM217 -9q-33 0 -56 23t-23 56t23 56.5t56 23.5t56.5 -23.5t23.5 -56.5t-23.5 -56t-56.5 -23z" />
    <glyph glyph-name="at" unicode="@" horiz-adv-x="1018" 
d="M467 -185q-200 0 -313 103q-114 104 -114 284q0 104 42 203.5t119 177.5q78 78 175.5 120t204.5 42q177 0 287 -102q109 -103 109 -268q0 -139 -71 -230q-72 -90 -186 -90q-53 0 -89.5 22.5t-45.5 60.5q-94 -83 -179 -83q-63 0 -100.5 41.5t-37.5 113.5q0 123 92 212
q90 88 214 88q57 0 113 -29l42 20h34l-74 -303q-5 -26 -5 -38q0 -27 19 -43.5t51 -16.5q77 0 133 80q55 79 55 193q0 155 -98 248q-100 92 -265 92q-98 0 -189 -40t-164 -113q-72 -73 -111 -166t-39 -190q0 -168 104 -263q103 -94 289 -94q157 0 292 53v-35
q-139 -50 -294 -50zM370 226q0 -80 81 -80q53 0 137 57l51 204q-35 13 -69 13q-83 0 -141 -58q-59 -59 -59 -136z" />
    <glyph glyph-name="A" unicode="A" horiz-adv-x="800" 
d="M401 565l-130 -295h255zM467 703l308 -703h-136l-69 163h-344l-72 -163h-130l318 703h125z" />
    <glyph glyph-name="B" unicode="B" horiz-adv-x="629" 
d="M580 200q0 -91 -71 -145q-70 -55 -188 -55h-230v700h232q107 0 167.5 -49t60.5 -135q0 -102 -102 -151q131 -45 131 -165zM311 597h-99v-192h90q57 0 91.5 27.5t34.5 72.5q0 43 -31.5 67.5t-85.5 24.5zM314 307h-102v-204h108q62 0 98.5 28t36.5 74q0 49 -36.5 75.5
t-104.5 26.5z" />
    <glyph glyph-name="C" unicode="C" horiz-adv-x="712" 
d="M401 -12q-151 0 -251 102q-100 100 -100 260q0 155 106 258q106 104 258 104q134 0 232 -83v-144h-2q-113 110 -228 110q-98 0 -167 -70q-70 -70 -70 -172q0 -106 68 -177t167 -71q128 0 244 107l2 -2l-18 -140q-111 -82 -241 -82z" />
    <glyph glyph-name="D" unicode="D" horiz-adv-x="781" 
d="M602 350q0 111 -73 174t-199 63h-113v-474h116q119 0 195 65q74 65 74 172zM332 0h-241v700h241q185 0 292 -93q107 -95 107 -255q0 -157 -110 -255q-110 -97 -289 -97z" />
    <glyph glyph-name="E" unicode="E" horiz-adv-x="593" 
d="M539 111l-30 -111h-418v700h415l30 -111h-319v-181h266v-106h-266v-191h322z" />
    <glyph glyph-name="F" unicode="F" horiz-adv-x="552" 
d="M217 392h246v-109h-246v-283h-126v700h433l-30 -112h-277v-196z" />
    <glyph glyph-name="G" unicode="G" horiz-adv-x="788" 
d="M403 373h300v-298q-134 -85 -291 -85q-161 0 -262 98q-100 97 -100 259q0 159 110 261t279 102q131 0 246 -57v-133q-131 73 -246 73q-112 0 -185 -70q-75 -71 -75 -174q0 -109 68 -177t177 -68q91 0 159 34v132h-180v103z" />
    <glyph glyph-name="H" unicode="H" horiz-adv-x="814" 
d="M723 700v-700h-126v298h-380v-298h-126v700h126v-286h380v286h126z" />
    <glyph glyph-name="I" unicode="I" horiz-adv-x="318" 
d="M222 700v-700h-126v700h126z" />
    <glyph glyph-name="J" unicode="J" horiz-adv-x="472" 
d="M157 106q49 0 76 29t27 82v483h126v-502q0 -98 -54 -153t-150 -55q-74 0 -130 35l-25 133l3 1q66 -53 127 -53z" />
    <glyph glyph-name="K" unicode="K" horiz-adv-x="706" 
d="M700 3v-3h-162l-299 305h-22v-305h-126v700h126v-291h22l298 291h159v-3l-355 -336z" />
    <glyph glyph-name="L" unicode="L" horiz-adv-x="546" 
d="M508 113v-113h-417v700h126v-587h291z" />
    <glyph glyph-name="M" unicode="M" horiz-adv-x="1030" 
d="M816 568l-295 -579h-15l-295 574v-563h-120v700h182l242 -484l240 484h184v-700h-123v568z" />
    <glyph glyph-name="N" unicode="N" horiz-adv-x="822" 
d="M731 700v-704h-62l-457 519l1 -515h-122v700h119l400 -454l-1 454h122z" />
    <glyph glyph-name="O" unicode="O" horiz-adv-x="836" 
d="M417 -14q-157 0 -262 105q-105 103 -105 258q0 153 107 260q107 105 262 105q156 0 263 -104q105 -105 105 -259t-106 -259q-106 -106 -264 -106zM415 598q-99 0 -167 -71q-69 -72 -69 -176q0 -105 69 -177t169 -72q99 0 170 72q70 71 70 175t-70 177q-71 72 -172 72z
" />
    <glyph glyph-name="P" unicode="P" horiz-adv-x="607" 
d="M301 592h-85v-248h82q67 0 106.5 34.5t39.5 94.5q0 55 -38.5 87t-104.5 32zM570 474q0 -109 -73 -173t-196 -64h-84v-237h-126v700h214q123 0 194 -60t71 -166z" />
    <glyph glyph-name="Q" unicode="Q" horiz-adv-x="836" 
d="M645 -148q-77 0 -134.5 31.5t-119.5 105.5q-148 9 -244 112q-97 101 -97 248q0 153 107 260q107 105 262 105q156 0 263 -104q105 -103 105 -257q0 -118 -66 -211q-68 -94 -177 -131q56 -53 123 -53q46 0 95 20l2 -2l-38 -111q-34 -13 -81 -13zM657 349q0 104 -70 177
q-71 72 -172 72q-99 0 -167 -71q-69 -72 -69 -176q0 -105 69 -177t169 -72q99 0 170 72q70 71 70 175z" />
    <glyph glyph-name="R" unicode="R" horiz-adv-x="650" 
d="M307 593h-92v-223h88q58 0 94.5 31.5t36.5 82.5q0 49 -35 79t-92 30zM409 289l250 -289h-154l-227 268h-61v-268h-126v700h222q114 0 181 -56.5t67 -155.5q0 -69 -40.5 -122t-111.5 -77z" />
    <glyph glyph-name="S" unicode="S" horiz-adv-x="560" 
d="M246 304q-101 42 -143.5 90.5t-42.5 119.5q0 90 62 144t164 54q109 0 191 -52v-131h-2q-101 71 -193 71q-46 0 -72.5 -20t-26.5 -55t27 -58q25 -23 111 -61q102 -44 144.5 -92t42.5 -120q0 -94 -66 -149q-66 -57 -173 -57q-118 0 -209 67l-25 152l2 2q57 -51 120 -80
t116 -29q52 0 82 22.5t30 62.5q0 35 -28 60q-26 24 -111 59z" />
    <glyph glyph-name="T" unicode="T" horiz-adv-x="722" 
d="M35 700h652v-113h-263v-587h-126v587h-263v113z" />
    <glyph glyph-name="U" unicode="U" horiz-adv-x="789" 
d="M394 -12q-147 0 -229 85.5t-82 238.5v388h126v-390q0 -99 49 -153t138 -54t138 55t49 155v387h123v-388q0 -153 -82 -238.5t-230 -85.5z" />
    <glyph glyph-name="V" unicode="V" horiz-adv-x="780" 
d="M757 700l-341 -714h-60l-331 714h140l226 -511l231 511h135z" />
    <glyph glyph-name="W" unicode="W" horiz-adv-x="1166" 
d="M582 445l-195 -449h-121l-234 704h137l166 -537l243 546h17l234 -545l174 536h133l-244 -704h-121z" />
    <glyph glyph-name="X" unicode="X" horiz-adv-x="750" 
d="M451 356l272 -356h-149l-201 266l-199 -266h-145l270 354l-263 346h149l192 -255l191 255h146z" />
    <glyph glyph-name="Y" unicode="Y" horiz-adv-x="683" 
d="M675 700l-270 -397v-303h-126v301l-270 399h148l188 -285l187 285h143z" />
    <glyph glyph-name="Z" unicode="Z" horiz-adv-x="704" 
d="M244 112h426l-51 -112h-579l-8 15l418 573h-385v112h591l7 -15z" />
    <glyph glyph-name="bracketleft" unicode="[" horiz-adv-x="419" 
d="M387 -60l-13 -70h-276v870h276l13 -70h-180v-730h180z" />
    <glyph glyph-name="backslash" unicode="\" horiz-adv-x="468" 
d="M29 740h95l351 -870h-95z" />
    <glyph glyph-name="bracketright" unicode="]" horiz-adv-x="419" 
d="M31 670l14 70h276v-870h-276l-14 70h181v730h-181z" />
    <glyph glyph-name="asciicircum" unicode="^" horiz-adv-x="600" 
d="M322 723l237 -388h-116l-144 241l-145 -241h-113l237 388h44z" />
    <glyph glyph-name="underscore" unicode="_" horiz-adv-x="612" 
d="M614 -151h-616v76h616v-76z" />
    <glyph glyph-name="grave" unicode="`" horiz-adv-x="500" 
d="M46 778h151l83 -176h-56l-178 174v2z" />
    <glyph glyph-name="a" unicode="a" horiz-adv-x="572" 
d="M505 300v-288l-116 -20v83q-105 -83 -194 -83q-67 0 -107.5 37t-40.5 99q0 167 341 171q-2 113 -108 113q-83 0 -177 -69l-3 1l22 120q82 51 179 51q99 0 151.5 -55t52.5 -160zM160 137q0 -25 17.5 -39.5t49.5 -14.5q57 0 161 56v94q-228 -16 -228 -96z" />
    <glyph glyph-name="b" unicode="b" horiz-adv-x="621" 
d="M582 267q0 -121 -81 -197q-81 -78 -200 -78q-60 0 -131 25l-82 -18h-11v723l118 37v-322q78 78 168 78q94 0 157 -70q62 -71 62 -178zM296 93q72 0 120 48q48 46 48 119q0 69 -39 111t-101 42q-64 0 -129 -48v-254q49 -18 101 -18z" />
    <glyph glyph-name="c" unicode="c" horiz-adv-x="534" 
d="M484 167l4 -2l-18 -124q-79 -53 -173 -53q-114 0 -186 73t-72 191q0 113 77 190q77 75 193 75q98 0 168 -56v-132h-3q-85 81 -162 81q-66 0 -109 -45q-44 -46 -44 -112q0 -69 41.5 -113t106.5 -44q91 0 177 71z" />
    <glyph glyph-name="d" unicode="d" horiz-adv-x="626" 
d="M158 250q0 -70 40 -113.5t102 -43.5q64 0 131 50v234q-58 35 -118 35q-68 0 -111.5 -45.5t-43.5 -116.5zM549 759v-759h-117v71q-75 -81 -168 -81q-94 0 -159 72q-65 73 -65 180q0 118 73 194q74 77 176 77q74 0 142 -51v260z" />
    <glyph glyph-name="e" unicode="e" horiz-adv-x="563" 
d="M286 425q-53 0 -88.5 -37t-42.5 -97h254q-5 63 -37.5 98.5t-85.5 35.5zM506 146l3 -2l-36 -113q-80 -42 -169 -42q-122 0 -193 72q-72 71 -72 192q0 111 72 189q71 78 178 78q108 0 172 -73q63 -73 63 -190q0 -19 -3 -43h-365q11 -60 54.5 -92.5t110.5 -32.5q90 0 185 57
z" />
    <glyph glyph-name="f" unicode="f" horiz-adv-x="417" 
d="M239 506h162v-97h-161v-409h-118v409h-86v97h86v65q0 87 48 137t132 50q50 0 94 -18l17 -108l-2 -2q-51 26 -92 26q-37 0 -58.5 -22.5t-21.5 -61.5v-66z" />
    <glyph glyph-name="g" unicode="g" horiz-adv-x="626" 
d="M158 257q0 -65 38 -104.5t100 -39.5q66 0 136 53v228q-52 21 -109 21q-71 0 -118 -44q-47 -45 -47 -114zM279 -196q-103 0 -199 46l-22 118l4 3q119 -64 215 -64q71 0 113 39.5t42 107.5v40q-79 -78 -174 -78t-156 67q-62 67 -62 169q0 114 80 188q79 73 199 73
q69 0 136 -26l83 19h11v-449q0 -118 -72 -185.5t-198 -67.5z" />
    <glyph glyph-name="h" unicode="h" horiz-adv-x="612" 
d="M328 411q-34 0 -63.5 -16t-69.5 -56v-339h-118v722l118 37v-344q75 101 175 101q80 0 127.5 -53t47.5 -143v-320h-119v302q0 52 -25.5 80.5t-72.5 28.5z" />
    <glyph glyph-name="i" unicode="i" horiz-adv-x="282" 
d="M141 755q32 0 54 -21.5t22 -52.5t-22 -52.5t-54 -21.5t-54 21.5t-22 52.5t22 52.5t54 21.5zM200 506v-506h-118v506h118z" />
    <glyph glyph-name="j" unicode="j" horiz-adv-x="282" 
d="M141 755q32 0 54 -21.5t22 -52.5t-22 -52.5t-54 -21.5t-54 21.5t-22 52.5t22 52.5t54 21.5zM82 -14v520h118v-516q0 -89 -44 -136.5t-125 -47.5q-27 0 -55 7l-17 94q24 -7 45 -7q78 0 78 86z" />
    <glyph glyph-name="k" unicode="k" horiz-adv-x="569" 
d="M564 3v-3h-148l-195 216h-26v-216h-118v722l118 37v-461h26l185 208h142v-3l-225 -242z" />
    <glyph glyph-name="l" unicode="l" horiz-adv-x="282" 
d="M200 759v-759h-118v722z" />
    <glyph glyph-name="m" unicode="m" horiz-adv-x="927" 
d="M316 411q-31 0 -58 -15t-63 -52v-344h-118v493l117 20v-94q74 97 166 97q54 0 94.5 -28.5t58.5 -79.5q42 57 84 82.5t94 25.5q77 0 122.5 -53t45.5 -143v-320h-118v302q0 51 -24.5 80t-68.5 29q-55 0 -122 -67q1 -5 1 -24v-320h-118v302q0 51 -24.5 80t-68.5 29z" />
    <glyph glyph-name="n" unicode="n" horiz-adv-x="612" 
d="M328 411q-34 0 -63.5 -16t-69.5 -56v-339h-118v493l117 20v-99q41 54 82.5 78t93.5 24q80 0 127.5 -53t47.5 -143v-320h-119v302q0 52 -25.5 80.5t-72.5 28.5z" />
    <glyph glyph-name="o" unicode="o" horiz-adv-x="616" 
d="M307 -14q-117 0 -192 77q-76 76 -76 189q0 110 77 190q76 78 193 78q118 0 193 -76t75 -189q0 -111 -77 -190q-76 -79 -193 -79zM459 255q0 69 -42 115q-43 46 -108 46t-109 -47q-43 -46 -43 -117q0 -70 43 -116q42 -47 107 -47t109 48q43 46 43 118z" />
    <glyph glyph-name="p" unicode="p" horiz-adv-x="626" 
d="M313 93q68 0 112 45.5t44 117.5q0 69 -40 113t-103 44q-64 0 -131 -51v-234q60 -35 118 -35zM587 263q0 -117 -73 -193q-74 -78 -177 -78q-74 0 -142 51v-234h-118v684l117 20v-79q76 82 169 82q96 0 160 -72q64 -73 64 -181z" />
    <glyph glyph-name="q" unicode="q" horiz-adv-x="621" 
d="M533 506h11v-697h-118v258q-77 -77 -168 -77q-93 0 -155 71q-63 71 -63 178q0 121 81 197q80 77 199 77q63 0 132 -25zM158 246q0 -69 38.5 -111t101.5 -42q61 0 128 47v255q-45 17 -100 17q-74 0 -120 -46q-48 -46 -48 -120z" />
    <glyph glyph-name="r" unicode="r" horiz-adv-x="429" 
d="M195 311v-311h-118v493l117 20v-128q56 75 93 102t78 27q15 0 32 -4l8 -125q-11 3 -30 3q-82 0 -180 -77z" />
    <glyph glyph-name="s" unicode="s" horiz-adv-x="509" 
d="M289 303q101 -24 140 -60q38 -36 38 -99q0 -68 -59 -112q-58 -43 -152 -43q-104 0 -198 58l-20 125l3 2q113 -88 225 -88q40 0 64.5 14.5t24.5 37.5q0 25 -25 40q-27 14 -101 32q-97 24 -136 59t-39 93q0 69 56.5 112t148.5 43q91 0 170 -45v-112l-3 -2q-95 62 -176 62
q-39 0 -61.5 -13t-22.5 -35q0 -24 25 -38t98 -31z" />
    <glyph glyph-name="t" unicode="t" horiz-adv-x="458" 
d="M416 138l3 -2l-22 -113q-53 -34 -120 -34q-78 0 -121 47t-43 134v239h-82v97h82v109l116 36v-145h187v-97h-187v-232q0 -84 80 -84q53 0 107 45z" />
    <glyph glyph-name="u" unicode="u" horiz-adv-x="612" 
d="M535 506v-506h-117v92q-41 -54 -82.5 -78t-93.5 -24q-79 0 -126.5 53t-47.5 143v320h118v-303q0 -51 26 -79.5t72 -28.5q34 0 64 16t69 55v340h118z" />
    <glyph glyph-name="v" unicode="v" horiz-adv-x="586" 
d="M571 506l-260 -519h-51l-243 519h129l144 -334l154 334h127z" />
    <glyph glyph-name="w" unicode="w" horiz-adv-x="884" 
d="M440 288l-142 -295h-99l-177 513h125l113 -358l177 364h16l165 -364l125 358h121l-191 -513h-99z" />
    <glyph glyph-name="x" unicode="x" horiz-adv-x="576" 
d="M359 261l194 -261h-137l-130 180l-131 -180h-133l195 259l-183 247h136l120 -166l119 166h133z" />
    <glyph glyph-name="y" unicode="y" horiz-adv-x="568" 
d="M132 -194q-45 0 -87 18l-23 114l3 2q43 -25 86 -25q73 0 106 80l14 32l-212 479h129l143 -347l132 347h127l-221 -542q-65 -158 -197 -158z" />
    <glyph glyph-name="z" unicode="z" horiz-adv-x="544" 
d="M215 97h295l-32 -97h-449l-5 15l290 393h-255v98h442l5 -15z" />
    <glyph glyph-name="braceleft" unicode="{" horiz-adv-x="505" 
d="M365 -60h109l-14 -70h-125q-89 0 -140.5 39.5t-51.5 106.5q0 41 35 112q25 52 25 74q0 28 -20 42.5t-73 23.5l-80 14v46l80 14q53 9 73 23.5t20 42.5q0 22 -25 74q-35 71 -35 112q0 67 51.5 106.5t140.5 39.5h125l14 -70h-109q-102 0 -102 -75q0 -24 24 -80
q30 -69 30 -103q0 -38 -23 -63t-77 -44q54 -19 77 -44t23 -63q0 -34 -30 -103q-24 -56 -24 -80q0 -36 26.5 -55.5t75.5 -19.5z" />
    <glyph glyph-name="bar" unicode="|" horiz-adv-x="386" 
d="M146 740h94v-870h-94v870z" />
    <glyph glyph-name="braceright" unicode="}" horiz-adv-x="505" 
d="M361 16q0 -68 -51.5 -107t-139.5 -39h-125l-14 70h109q102 0 102 75q0 24 -25 80q-30 69 -30 103q0 38 23.5 63t77.5 44q-54 19 -77.5 44t-23.5 63q0 34 30 103q25 56 25 80q0 36 -26.5 55.5t-75.5 19.5h-109l14 70h125q88 0 139.5 -39t51.5 -107q0 -41 -35 -112
q-25 -52 -25 -74q0 -28 20 -42.5t73 -23.5l80 -14v-46l-80 -14q-53 -9 -73 -23.5t-20 -42.5q0 -22 25 -74q35 -71 35 -112z" />
    <glyph glyph-name="asciitilde" unicode="~" horiz-adv-x="600" 
d="M193 459q32 0 128 -61q72 -44 87 -44q17 0 33 20.5t47 81.5l63 -32q-45 -105 -75 -144q-32 -39 -69 -39q-32 0 -128 61q-72 44 -87 44q-17 0 -33 -20.5t-47 -81.5l-63 32q46 106 76 144q30 39 68 39z" />
    <glyph glyph-name="uni00A0" unicode="&#xa0;" horiz-adv-x="217" 
 />
    <glyph glyph-name="exclamdown" unicode="&#xa1;" horiz-adv-x="271" 
d="M136 709q33 0 56 -23t23 -56t-23 -56.5t-56 -23.5t-56.5 23.5t-23.5 56.5t23.5 56t56.5 23zM203 0h-134v92l41 371h51l42 -371v-92z" />
    <glyph glyph-name="cent" unicode="&#xa2;" horiz-adv-x="544" 
d="M490 266l2 -1l-17 -120q-73 -47 -160 -52l-10 -98h-82l11 106q-88 21 -139.5 87.5t-51.5 160.5q0 102 67 173q68 71 173 81l10 102h82l-10 -104q57 -7 118 -50v-125h-2q-72 63 -128 73l-29 -303q85 6 166 70zM157 350q0 -50 24 -87.5t67 -54.5l28 291q-54 -12 -86.5 -53
t-32.5 -96z" />
    <glyph glyph-name="sterling" unicode="&#xa3;" horiz-adv-x="586" 
d="M252 106l290 1l-25 -107h-460l-5 37q111 108 132 140q23 34 23 66q0 26 -12 51l-150 -3v79l104 2q-51 84 -51 147q0 86 64 140q64 53 168 53q94 0 189 -51l15 -128h-3q-107 72 -194 72q-52 0 -83 -25.5t-31 -67.5q0 -25 11 -52q9 -23 47 -85l198 3v-80l-159 -1
q7 -28 7 -49q0 -62 -75 -142z" />
    <glyph glyph-name="yen" unicode="&#xa5;" horiz-adv-x="642" 
d="M380 222h192v-71h-192v-151h-118v151h-192v71h192v71h-192v70h155l-205 337h140l164 -286l163 286h135l-205 -337h155v-70h-192v-71z" />
    <glyph glyph-name="section" unicode="&#xa7;" horiz-adv-x="649" 
d="M152 281q0 -38 38 -64q37 -25 149 -58q39 -12 63 -22q95 42 95 100q0 38 -38 64q-36 24 -149 58q-39 12 -63 22q-95 -42 -95 -100zM533 -28q0 -73 -59 -120q-58 -46 -155 -46q-109 0 -211 53l-21 129l2 2q130 -81 230 -81q43 0 68.5 18.5t25.5 48.5t-26 49t-95 40
q-143 43 -200 89q-56 44 -56 113q0 107 138 156q-58 46 -58 123q0 75 59 120.5t155 45.5q119 0 203 -46v-118h-2q-113 61 -201 61q-43 0 -68.5 -18.5t-25.5 -48.5q0 -31 26 -49.5t96 -39.5q145 -44 200 -87q55 -45 55 -115q0 -107 -138 -156q58 -48 58 -123z" />
    <glyph glyph-name="dieresis" unicode="&#xa8;" horiz-adv-x="500" 
d="M357 599q-31 0 -52 21t-21 52q0 30 21 51t52 21t52 -21t21 -51q0 -31 -21 -52t-52 -21zM143 599q-31 0 -52 21t-21 52q0 30 21 51t52 21t52 -21t21 -51q0 -31 -21 -52t-52 -21z" />
    <glyph glyph-name="copyright" unicode="&#xa9;" horiz-adv-x="890" 
d="M160 68q-118 113 -118 281q0 165 119 282q120 115 285 115t284 -114q118 -113 118 -281q0 -165 -119 -282q-120 -115 -285 -115t-284 114zM444 714q-154 0 -261 -105q-108 -107 -108 -258q0 -153 109 -259q107 -106 262 -106t262 106q107 105 107 257q0 153 -108 259
q-109 106 -263 106zM463 191q88 0 169 65l2 -1l-14 -88q-73 -52 -163 -52q-105 0 -176 66t-71 168t73 169q71 67 181 67q92 0 163 -58v-91h-2q-78 72 -159 72q-71 0 -119 -45q-49 -45 -49 -112q0 -69 48 -114q47 -46 117 -46z" />
    <glyph glyph-name="ordfeminine" unicode="&#xaa;" horiz-adv-x="505" 
d="M156 445q0 -38 49 -38q48 0 119 40v62q-168 -8 -168 -64zM414 556v-211h-88v58q-75 -63 -146 -63q-49 0 -80 27t-31 69q0 117 255 121q-1 76 -79 76q-61 0 -133 -48l-3 1l17 86q63 35 136 35q74 0 113 -38.5t39 -112.5zM428 190h-362v68h362v-68z" />
    <glyph glyph-name="guillemotleft" unicode="&#xab;" horiz-adv-x="640" 
d="M303 263l243 251l42 -24l-148 -236l148 -238l-42 -24l-243 250v21zM40 263l243 251l42 -24l-148 -236l148 -238l-42 -24l-243 250v21z" />
    <glyph glyph-name="registered" unicode="&#xae;" horiz-adv-x="552" 
d="M504 497q0 -94 -67 -158q-68 -65 -161 -65q-94 0 -161 65q-67 64 -67 157q0 95 67 159q67 65 161 65q95 0 162 -64q66 -64 66 -159zM477 496q0 86 -58 143q-59 57 -144 57q-84 0 -142 -58t-58 -142q0 -86 58 -141q59 -57 144 -57t143 58q57 57 57 140zM270 589h-31v-84
h29q52 0 52 42t-50 42zM318 475l89 -101h-65l-81 91h-22v-91h-53v258h89q46 0 72.5 -22t26.5 -60q0 -56 -56 -75z" />
    <glyph glyph-name="overscore" unicode="&#xaf;" horiz-adv-x="500" 
d="M426 625h-352v82h352v-82z" />
    <glyph glyph-name="degree" unicode="&#xb0;" horiz-adv-x="527" 
d="M46 497q0 92 63 155q62 62 155 62q91 0 155 -62q62 -62 62 -153q0 -92 -62 -154q-64 -62 -156 -62t-154 62q-63 61 -63 152zM143 499q0 -56 35 -94.5t87 -38.5q51 0 85 39q34 37 34 93q0 55 -35 95q-35 39 -86 39t-85 -39q-35 -40 -35 -94z" />
    <glyph glyph-name="plusminus" unicode="&#xb1;" horiz-adv-x="600" 
d="M353 501h197v-100h-197v-200h-106v200h-197v100h197v199h106v-199zM49 94h502v-94h-502v94z" />
    <glyph glyph-name="acute" unicode="&#xb4;" horiz-adv-x="500" 
d="M454 776l-178 -174h-56l83 176h151v-2z" />
    <glyph glyph-name="uni00B5" unicode="&#xb5;" horiz-adv-x="622" 
d="M174 53l14 -203v-41h-111v697h118v-303q0 -51 26 -80t72 -29q62 0 133 70v342h119v-506h-89l-18 91q-72 -94 -148 -94q-72 0 -116 56z" />
    <glyph glyph-name="paragraph" unicode="&#xb6;" horiz-adv-x="689" 
d="M517 596h-88v-596h-73v222h-34q-129 0 -207 63q-78 61 -78 170q0 111 85 178t221 67h258v-700h-84v596zM154 441q0 -69 48.5 -110t128.5 -41h25v306h-20q-85 0 -133.5 -40.5t-48.5 -114.5z" />
    <glyph glyph-name="middot" unicode="&#xb7;" horiz-adv-x="234" 
d="M117 196q-33 0 -56.5 23.5t-23.5 56.5t23.5 57t56.5 24t57 -24t24 -57t-24 -56.5t-57 -23.5z" />
    <glyph glyph-name="cedilla" unicode="&#xb8;" horiz-adv-x="500" 
d="M353 -118q0 -38 -35 -61t-94 -23q-35 0 -70 9l-27 53l3 3q42 -14 81 -14q55 0 55 30q0 26 -51 26q-29 0 -46 -3l-4 4l61 100h68l-36 -53q95 -6 95 -71z" />
    <glyph glyph-name="ordmasculine" unicode="&#xba;" horiz-adv-x="504" 
d="M53 525q0 78 57 132t143 54q87 0 143 -53q55 -52 55 -132q0 -79 -57 -133t-143 -54q-87 0 -142 54q-56 53 -56 132zM359 526q0 47 -30 77.5t-76 30.5q-48 0 -78.5 -31t-30.5 -78t30 -78t77 -31t77.5 31.5t30.5 78.5zM433 190h-363v68h363v-68z" />
    <glyph glyph-name="guillemotright" unicode="&#xbb;" horiz-adv-x="640" 
d="M337 242l-243 -250l-42 24l148 236l-148 237l42 24l243 -250v-21zM600 242l-243 -250l-42 24l148 236l-148 237l42 24l243 -250v-21z" />
    <glyph glyph-name="onequarter" unicode="&#xbc;" horiz-adv-x="825" 
d="M222 709l10 -3v-421h-89v290l-113 -66v91zM423 335l-220 -337h-82l254 367l220 337h82zM651 342l-112 -190h112v190zM734 152h67v-66h-67v-86h-84v86h-212l-3 21l192 311h107v-266z" />
    <glyph glyph-name="onehalf" unicode="&#xbd;" horiz-adv-x="859" 
d="M222 709l10 -3v-421h-89v290l-113 -66v91zM423 335l-220 -337h-82l254 367l220 337h82zM836 75l-31 -75h-272l-8 36l144 164q52 60 52 92q0 22 -15 36.5t-39 14.5q-56 0 -124 -78h-2l-9 90q60 66 144 66q61 0 97.5 -32.5t36.5 -85.5q0 -34 -14.5 -63.5t-54.5 -74.5
l-81 -90h176z" />
    <glyph glyph-name="threequarters" unicode="&#xbe;" horiz-adv-x="861" 
d="M319 398q0 -51 -43.5 -85t-107.5 -34q-63 0 -128 33l-11 86l2 1q69 -47 129 -47q31 0 50 14t19 37q0 26 -29 42t-104 32v33q75 27 100 43.5t25 39.5q0 40 -57 40q-54 0 -121 -49h-2v82q61 40 134 40q62 0 99 -28t37 -75q0 -65 -82 -101q90 -30 90 -104zM459 335
l-220 -337h-82l254 367l220 337h82zM686 342l-112 -190h112v190zM769 152h67v-66h-67v-86h-84v86h-212l-3 21l192 311h107v-266z" />
    <glyph glyph-name="questiondown" unicode="&#xbf;" horiz-adv-x="488" 
d="M270 709q33 0 56.5 -23.5t23.5 -56.5t-23.5 -56t-56.5 -23t-56 23t-23 56t23 56.5t56 23.5zM444 198l2 -1v-125q-94 -82 -210 -82q-88 0 -140.5 46t-52.5 124q0 53 26 91q25 36 99 75q49 27 65.5 41t16.5 32q0 23 -22 63h69q32 -34 42.5 -55t10.5 -46q0 -28 -20 -51
q-18 -20 -86 -56q-51 -26 -68.5 -45t-17.5 -47q0 -30 23 -48t62 -18q48 0 94.5 23.5t106.5 78.5z" />
    <glyph glyph-name="Agrave" unicode="&#xc0;" horiz-adv-x="800" 
d="M401 565l-130 -295h255zM467 703l308 -703h-136l-69 163h-344l-72 -163h-130l318 703h125zM195 916h163l80 -147h-63l-180 145v2z" />
    <glyph glyph-name="Aacute" unicode="&#xc1;" horiz-adv-x="800" 
d="M401 565l-130 -295h255zM467 703l308 -703h-136l-69 163h-344l-72 -163h-130l318 703h125zM611 914l-180 -145h-63l80 147h163v-2z" />
    <glyph glyph-name="Acircumflex" unicode="&#xc2;" horiz-adv-x="800" 
d="M401 565l-130 -295h255zM467 703l308 -703h-136l-69 163h-344l-72 -163h-130l318 703h125zM587 771v-2h-67l-116 70l-116 -70h-69v2l127 145h114z" />
    <glyph glyph-name="Atilde" unicode="&#xc3;" horiz-adv-x="800" 
d="M401 565l-130 -295h255zM467 703l308 -703h-136l-69 163h-344l-72 -163h-130l318 703h125zM420 881q48 -25 63 -25q14 0 27 10q12 10 46 49l47 -36q-44 -66 -70 -89t-57 -23q-23 0 -86 31q-48 25 -64 25q-15 0 -26 -10q-12 -9 -47 -49l-47 36q44 66 71 90q25 22 56 22
q24 0 87 -31z" />
    <glyph glyph-name="Adieresis" unicode="&#xc4;" horiz-adv-x="800" 
d="M401 565l-130 -295h255zM467 703l308 -703h-136l-69 163h-344l-72 -163h-130l318 703h125zM510 913q31 0 52.5 -21.5t21.5 -52.5t-21.5 -52t-52.5 -21t-52.5 21t-21.5 52t21.5 52.5t52.5 21.5zM296 913q31 0 52.5 -21.5t21.5 -52.5t-21.5 -52t-52.5 -21t-52.5 21
t-21.5 52t21.5 52.5t52.5 21.5z" />
    <glyph glyph-name="Aring" unicode="&#xc5;" horiz-adv-x="800" 
d="M481 747q0 33 -22.5 56t-54.5 23t-54.5 -23t-22.5 -56q0 -32 22.5 -55t54.5 -23t54.5 23t22.5 55zM400 566l-129 -296h255zM489 652l286 -652h-136l-69 163h-344l-72 -163h-130l295 652q-43 37 -43 95q0 52 38 90q37 37 90 37q55 0 92 -37t37 -90q0 -57 -44 -95z" />
    <glyph glyph-name="AE" unicode="&#xc6;" horiz-adv-x="1015" 
d="M514 592l-205 -322h205v322zM962 111l-30 -111h-418v163h-274l-105 -163h-129l448 700h475l30 -111h-320v-181h266v-106h-266v-191h323z" />
    <glyph glyph-name="Ccedilla" unicode="&#xc7;" horiz-adv-x="712" 
d="M502 -123q0 -38 -35 -61t-94 -23q-35 0 -70 9l-27 53l3 3q42 -14 81 -14q55 0 55 30q0 26 -51 26q-29 0 -46 -3l-4 4l54 88q-142 14 -229 113q-89 100 -89 248q0 155 106 258q106 104 258 104q134 0 232 -83v-144h-2q-113 110 -228 110q-98 0 -167 -70q-70 -70 -70 -172
q0 -106 68 -177t167 -71q128 0 244 107l2 -2l-18 -140q-101 -74 -207 -81l-28 -41q95 -6 95 -71z" />
    <glyph glyph-name="Egrave" unicode="&#xc8;" horiz-adv-x="593" 
d="M539 111l-30 -111h-418v700h415l30 -111h-319v-181h266v-106h-266v-191h322zM102 916h163l80 -147h-63l-180 145v2z" />
    <glyph glyph-name="Eacute" unicode="&#xc9;" horiz-adv-x="593" 
d="M539 111l-30 -111h-418v700h415l30 -111h-319v-181h266v-106h-266v-191h322zM518 914l-180 -145h-63l80 147h163v-2z" />
    <glyph glyph-name="Ecircumflex" unicode="&#xca;" horiz-adv-x="593" 
d="M539 111l-30 -111h-418v700h415l30 -111h-319v-181h266v-106h-266v-191h322zM494 771v-2h-67l-116 70l-116 -70h-69v2l127 145h114z" />
    <glyph glyph-name="Edieresis" unicode="&#xcb;" horiz-adv-x="593" 
d="M539 111l-30 -111h-418v700h415l30 -111h-319v-181h266v-106h-266v-191h322zM417 913q31 0 52.5 -21.5t21.5 -52.5t-21.5 -52t-52.5 -21t-52.5 21t-21.5 52t21.5 52.5t52.5 21.5zM203 913q31 0 52.5 -21.5t21.5 -52.5t-21.5 -52t-52.5 -21t-52.5 21t-21.5 52t21.5 52.5
t52.5 21.5z" />
    <glyph glyph-name="Igrave" unicode="&#xcc;" horiz-adv-x="318" 
d="M222 700v-700h-126v700h126zM-49 916h163l80 -147h-63l-180 145v2z" />
    <glyph glyph-name="Iacute" unicode="&#xcd;" horiz-adv-x="318" 
d="M222 700v-700h-126v700h126zM367 914l-180 -145h-63l80 147h163v-2z" />
    <glyph glyph-name="Icircumflex" unicode="&#xce;" horiz-adv-x="318" 
d="M222 700v-700h-126v700h126zM343 771v-2h-67l-116 70l-116 -70h-69v2l127 145h114z" />
    <glyph glyph-name="Idieresis" unicode="&#xcf;" horiz-adv-x="318" 
d="M222 700v-700h-126v700h126zM266 913q31 0 52.5 -21.5t21.5 -52.5t-21.5 -52t-52.5 -21t-52.5 21t-21.5 52t21.5 52.5t52.5 21.5zM52 913q31 0 52.5 -21.5t21.5 -52.5t-21.5 -52t-52.5 -21t-52.5 21t-21.5 52t21.5 52.5t52.5 21.5z" />
    <glyph glyph-name="Eth" unicode="&#xd0;" horiz-adv-x="803" 
d="M237 399h174v-86h-174v-200h118q118 0 194 65q74 65 74 172q0 111 -72.5 174t-199.5 63h-114v-188zM353 0h-240v312h-90v88h90v300h240q185 0 292 -93q107 -95 107 -255q0 -157 -110 -255q-110 -97 -289 -97z" />
    <glyph glyph-name="Ntilde" unicode="&#xd1;" horiz-adv-x="822" 
d="M731 700v-704h-62l-457 519l1 -515h-122v700h119l400 -454l-1 454h122zM428 881q48 -25 63 -25q14 0 27 10q12 10 46 49l47 -36q-44 -66 -70 -89t-57 -23q-23 0 -86 31q-48 25 -64 25q-15 0 -26 -10q-12 -9 -47 -49l-47 36q44 66 71 90q25 22 56 22q24 0 87 -31z" />
    <glyph glyph-name="Ograve" unicode="&#xd2;" horiz-adv-x="836" 
d="M417 -14q-157 0 -262 105q-105 103 -105 258q0 153 107 260q107 105 262 105q156 0 263 -104q105 -105 105 -259t-106 -259q-106 -106 -264 -106zM415 598q-99 0 -167 -71q-69 -72 -69 -176q0 -105 69 -177t169 -72q99 0 170 72q70 71 70 175t-70 177q-71 72 -172 72z
M210 921h163l80 -147h-63l-180 145v2z" />
    <glyph glyph-name="Oacute" unicode="&#xd3;" horiz-adv-x="836" 
d="M417 -14q-157 0 -262 105q-105 103 -105 258q0 153 107 260q107 105 262 105q156 0 263 -104q105 -105 105 -259t-106 -259q-106 -106 -264 -106zM415 598q-99 0 -167 -71q-69 -72 -69 -176q0 -105 69 -177t169 -72q99 0 170 72q70 71 70 175t-70 177q-71 72 -172 72z
M626 919l-180 -145h-63l80 147h163v-2z" />
    <glyph glyph-name="Ocircumflex" unicode="&#xd4;" horiz-adv-x="836" 
d="M417 -14q-157 0 -262 105q-105 103 -105 258q0 153 107 260q107 105 262 105q156 0 263 -104q105 -105 105 -259t-106 -259q-106 -106 -264 -106zM415 598q-99 0 -167 -71q-69 -72 -69 -176q0 -105 69 -177t169 -72q99 0 170 72q70 71 70 175t-70 177q-71 72 -172 72z
M602 776v-2h-67l-116 70l-116 -70h-69v2l127 145h114z" />
    <glyph glyph-name="Otilde" unicode="&#xd5;" horiz-adv-x="836" 
d="M417 -14q-157 0 -262 105q-105 103 -105 258q0 153 107 260q107 105 262 105q156 0 263 -104q105 -105 105 -259t-106 -259q-106 -106 -264 -106zM415 598q-99 0 -167 -71q-69 -72 -69 -176q0 -105 69 -177t169 -72q99 0 170 72q70 71 70 175t-70 177q-71 72 -172 72z
M435 886q48 -25 63 -25q14 0 27 10q12 10 46 49l47 -36q-44 -66 -70 -89t-57 -23q-23 0 -86 31q-48 25 -64 25q-15 0 -26 -10q-12 -9 -47 -49l-47 36q44 66 71 90q25 22 56 22q24 0 87 -31z" />
    <glyph glyph-name="Odieresis" unicode="&#xd6;" horiz-adv-x="836" 
d="M417 -14q-157 0 -262 105q-105 103 -105 258q0 153 107 260q107 105 262 105q156 0 263 -104q105 -105 105 -259t-106 -259q-106 -106 -264 -106zM415 598q-99 0 -167 -71q-69 -72 -69 -176q0 -105 69 -177t169 -72q99 0 170 72q70 71 70 175t-70 177q-71 72 -172 72z
M525 918q31 0 52.5 -21.5t21.5 -52.5t-21.5 -52t-52.5 -21t-52.5 21t-21.5 52t21.5 52.5t52.5 21.5zM311 918q31 0 52.5 -21.5t21.5 -52.5t-21.5 -52t-52.5 -21t-52.5 21t-21.5 52t21.5 52.5t52.5 21.5z" />
    <glyph glyph-name="multiply" unicode="&#xd7;" horiz-adv-x="600" 
d="M371 351l167 -165l-74 -74l-164 168l-165 -168l-73 73l167 166l-167 165l74 74l164 -168l165 168l73 -74z" />
    <glyph glyph-name="Oslash" unicode="&#xd8;" horiz-adv-x="836" 
d="M421 603q-105 0 -176 -74t-71 -184q0 -90 52 -158l320 383q-58 33 -125 33zM415 97q105 0 176 74t71 184q0 90 -52 158l-319 -383q58 -33 124 -33zM787 351q0 -154 -106 -259q-106 -106 -264 -106q-109 0 -201 58l-73 -87h-115l121 143q-99 104 -99 249q0 153 107 260
q107 105 262 105q109 0 201 -58l74 87h114l-120 -142q99 -105 99 -250z" />
    <glyph glyph-name="Ugrave" unicode="&#xd9;" horiz-adv-x="789" 
d="M394 -12q-147 0 -229 85.5t-82 238.5v388h126v-390q0 -99 49 -153t138 -54t138 55t49 155v387h123v-388q0 -153 -82 -238.5t-230 -85.5zM186 916h163l80 -147h-63l-180 145v2z" />
    <glyph glyph-name="Uacute" unicode="&#xda;" horiz-adv-x="789" 
d="M394 -12q-147 0 -229 85.5t-82 238.5v388h126v-390q0 -99 49 -153t138 -54t138 55t49 155v387h123v-388q0 -153 -82 -238.5t-230 -85.5zM602 914l-180 -145h-63l80 147h163v-2z" />
    <glyph glyph-name="Ucircumflex" unicode="&#xdb;" horiz-adv-x="789" 
d="M394 -12q-147 0 -229 85.5t-82 238.5v388h126v-390q0 -99 49 -153t138 -54t138 55t49 155v387h123v-388q0 -153 -82 -238.5t-230 -85.5zM578 771v-2h-67l-116 70l-116 -70h-69v2l127 145h114z" />
    <glyph glyph-name="Udieresis" unicode="&#xdc;" horiz-adv-x="789" 
d="M394 -12q-147 0 -229 85.5t-82 238.5v388h126v-390q0 -99 49 -153t138 -54t138 55t49 155v387h123v-388q0 -153 -82 -238.5t-230 -85.5zM501 913q31 0 52.5 -21.5t21.5 -52.5t-21.5 -52t-52.5 -21t-52.5 21t-21.5 52t21.5 52.5t52.5 21.5zM287 913q31 0 52.5 -21.5
t21.5 -52.5t-21.5 -52t-52.5 -21t-52.5 21t-21.5 52t21.5 52.5t52.5 21.5z" />
    <glyph glyph-name="Yacute" unicode="&#xdd;" horiz-adv-x="683" 
d="M675 700l-270 -397v-303h-126v301l-270 399h148l188 -285l187 285h143zM550 914l-180 -145h-63l80 147h163v-2z" />
    <glyph glyph-name="Thorn" unicode="&#xde;" horiz-adv-x="622" 
d="M453 357q0 53 -37 84t-100 31h-100v-234h93q67 0 105.5 31.5t38.5 87.5zM580 359q0 -103 -74 -165q-75 -63 -195 -63h-94v-131h-126v700h126v-122h107q118 0 187 -58.5t69 -160.5z" />
    <glyph glyph-name="germandbls" unicode="&#xdf;" horiz-adv-x="686" 
d="M642 179q0 -83 -56 -136q-56 -52 -148 -52q-62 0 -116 21l-18 115l3 2q72 -38 123 -38q41 0 67 25.5t26 64.5q0 55 -48.5 93.5t-150.5 64.5l-10 34q76 55 103 94q26 40 26 86q0 45 -27.5 73t-70.5 28q-49 0 -77 -32.5t-28 -87.5v-534h-118v409h-86v97h86v23
q0 106 60.5 167.5t166.5 61.5q95 0 154 -53q59 -54 59 -137q0 -52 -21.5 -94t-71.5 -84q92 -36 132.5 -85.5t40.5 -125.5z" />
    <glyph glyph-name="agrave" unicode="&#xe0;" horiz-adv-x="572" 
d="M505 300v-288l-116 -20v83q-105 -83 -194 -83q-67 0 -107.5 37t-40.5 99q0 167 341 171q-2 113 -108 113q-83 0 -177 -69l-3 1l22 120q82 51 179 51q99 0 151.5 -55t52.5 -160zM160 137q0 -25 17.5 -39.5t49.5 -14.5q57 0 161 56v94q-228 -16 -228 -96zM96 778h151
l83 -176h-56l-178 174v2z" />
    <glyph glyph-name="aacute" unicode="&#xe1;" horiz-adv-x="572" 
d="M505 300v-288l-116 -20v83q-105 -83 -194 -83q-67 0 -107.5 37t-40.5 99q0 167 341 171q-2 113 -108 113q-83 0 -177 -69l-3 1l22 120q82 51 179 51q99 0 151.5 -55t52.5 -160zM160 137q0 -25 17.5 -39.5t49.5 -14.5q57 0 161 56v94q-228 -16 -228 -96zM504 776
l-178 -174h-56l83 176h151v-2z" />
    <glyph glyph-name="acircumflex" unicode="&#xe2;" horiz-adv-x="572" 
d="M505 300v-288l-116 -20v83q-105 -83 -194 -83q-67 0 -107.5 37t-40.5 99q0 167 341 171q-2 113 -108 113q-83 0 -177 -69l-3 1l22 120q82 51 179 51q99 0 151.5 -55t52.5 -160zM160 137q0 -25 17.5 -39.5t49.5 -14.5q57 0 161 56v94q-228 -16 -228 -96zM482 604v-2h-57
l-124 91l-125 -91h-58v2l130 174h104z" />
    <glyph glyph-name="atilde" unicode="&#xe3;" horiz-adv-x="572" 
d="M505 300v-288l-116 -20v83q-105 -83 -194 -83q-67 0 -107.5 37t-40.5 99q0 167 341 171q-2 113 -108 113q-83 0 -177 -69l-3 1l22 120q82 51 179 51q99 0 151.5 -55t52.5 -160zM160 137q0 -25 17.5 -39.5t49.5 -14.5q57 0 161 56v94q-228 -16 -228 -96zM315 723
q48 -29 62 -29q11 0 21 9q9 8 49 60l54 -34q-49 -82 -73 -105q-25 -25 -56 -25q-21 0 -87 37q-48 29 -62 29q-12 0 -22 -10q-14 -14 -48 -59l-54 34q49 82 74 107q24 24 55 24q23 0 87 -38z" />
    <glyph glyph-name="adieresis" unicode="&#xe4;" horiz-adv-x="572" 
d="M505 300v-288l-116 -20v83q-105 -83 -194 -83q-67 0 -107.5 37t-40.5 99q0 167 341 171q-2 113 -108 113q-83 0 -177 -69l-3 1l22 120q82 51 179 51q99 0 151.5 -55t52.5 -160zM160 137q0 -25 17.5 -39.5t49.5 -14.5q57 0 161 56v94q-228 -16 -228 -96zM407 599
q-31 0 -52 21t-21 52q0 30 21 51t52 21t52 -21t21 -51q0 -31 -21 -52t-52 -21zM193 599q-31 0 -52 21t-21 52q0 30 21 51t52 21t52 -21t21 -51q0 -31 -21 -52t-52 -21z" />
    <glyph glyph-name="aring" unicode="&#xe5;" horiz-adv-x="572" 
d="M505 300v-288l-116 -20v83q-105 -83 -194 -83q-67 0 -107.5 37t-40.5 99q0 167 341 171q-2 113 -108 113q-83 0 -177 -69l-3 1l22 120q82 51 179 51q99 0 151.5 -55t52.5 -160zM160 137q0 -25 17.5 -39.5t49.5 -14.5q57 0 161 56v94q-228 -16 -228 -96zM300 597
q-53 0 -90 37t-37 90q0 52 37 89t90 37t90 -37t37 -89q0 -53 -37 -90t-90 -37zM300 802q-31 0 -53 -23t-22 -55q0 -33 22 -56t53 -23t53 23t22 56q0 32 -22 55t-53 23z" />
    <glyph glyph-name="ae" unicode="&#xe6;" horiz-adv-x="911" 
d="M633 425q-53 0 -88.5 -37t-42.5 -97h255q-6 63 -39 98.5t-85 35.5zM160 137q0 -25 18 -39.5t49 -14.5q69 0 178 70q-13 36 -15 80q-230 -16 -230 -96zM854 146l3 -2l-37 -113q-80 -42 -169 -42q-141 0 -214 99q-122 -96 -233 -96q-72 0 -114.5 36.5t-42.5 99.5
q0 167 341 171q-2 113 -108 113q-83 0 -177 -69l-3 1l22 120q80 51 178 51q110 0 163 -72q71 77 176 77q107 0 170 -73q62 -74 62 -190q0 -19 -3 -43h-366q11 -59 54.5 -92t111.5 -33q92 0 186 57z" />
    <glyph glyph-name="ccedilla" unicode="&#xe7;" horiz-adv-x="534" 
d="M392 -123q0 -38 -35 -61t-94 -23q-35 0 -70 9l-27 53l3 3q42 -14 81 -14q55 0 55 30q0 26 -51 26q-29 0 -46 -3l-4 4l55 89q-100 13 -160 85q-60 71 -60 177q0 113 77 190q77 75 193 75q98 0 168 -56v-132h-3q-85 81 -162 81q-66 0 -109 -45q-44 -46 -44 -112
q0 -69 41.5 -113t106.5 -44q91 0 177 71l4 -2l-18 -124q-68 -45 -145 -52l-28 -41q95 -6 95 -71z" />
    <glyph glyph-name="egrave" unicode="&#xe8;" horiz-adv-x="563" 
d="M286 425q-53 0 -88.5 -37t-42.5 -97h254q-5 63 -37.5 98.5t-85.5 35.5zM506 146l3 -2l-36 -113q-80 -42 -169 -42q-122 0 -193 72q-72 71 -72 192q0 111 72 189q71 78 178 78q108 0 172 -73q63 -73 63 -190q0 -19 -3 -43h-365q11 -60 54.5 -92.5t110.5 -32.5q90 0 185 57
zM88 783h151l83 -176h-56l-178 174v2z" />
    <glyph glyph-name="eacute" unicode="&#xe9;" horiz-adv-x="563" 
d="M286 425q-53 0 -88.5 -37t-42.5 -97h254q-5 63 -37.5 98.5t-85.5 35.5zM506 146l3 -2l-36 -113q-80 -42 -169 -42q-122 0 -193 72q-72 71 -72 192q0 111 72 189q71 78 178 78q108 0 172 -73q63 -73 63 -190q0 -19 -3 -43h-365q11 -60 54.5 -92.5t110.5 -32.5q90 0 185 57
zM496 781l-178 -174h-56l83 176h151v-2z" />
    <glyph glyph-name="ecircumflex" unicode="&#xea;" horiz-adv-x="563" 
d="M286 425q-53 0 -88.5 -37t-42.5 -97h254q-5 63 -37.5 98.5t-85.5 35.5zM506 146l3 -2l-36 -113q-80 -42 -169 -42q-122 0 -193 72q-72 71 -72 192q0 111 72 189q71 78 178 78q108 0 172 -73q63 -73 63 -190q0 -19 -3 -43h-365q11 -60 54.5 -92.5t110.5 -32.5q90 0 185 57
zM474 609v-2h-57l-124 91l-125 -91h-58v2l130 174h104z" />
    <glyph glyph-name="edieresis" unicode="&#xeb;" horiz-adv-x="563" 
d="M286 425q-53 0 -88.5 -37t-42.5 -97h254q-5 63 -37.5 98.5t-85.5 35.5zM506 146l3 -2l-36 -113q-80 -42 -169 -42q-122 0 -193 72q-72 71 -72 192q0 111 72 189q71 78 178 78q108 0 172 -73q63 -73 63 -190q0 -19 -3 -43h-365q11 -60 54.5 -92.5t110.5 -32.5q90 0 185 57
zM399 604q-31 0 -52 21t-21 52q0 30 21 51t52 21t52 -21t21 -51q0 -31 -21 -52t-52 -21zM185 604q-31 0 -52 21t-21 52q0 30 21 51t52 21t52 -21t21 -51q0 -31 -21 -52t-52 -21z" />
    <glyph glyph-name="igrave" unicode="&#xec;" horiz-adv-x="282" 
d="M200 506v-506h-118v506h118zM-63 778h151l83 -176h-56l-178 174v2z" />
    <glyph glyph-name="iacute" unicode="&#xed;" horiz-adv-x="282" 
d="M200 506v-506h-118v506h118zM345 776l-178 -174h-56l83 176h151v-2z" />
    <glyph glyph-name="icircumflex" unicode="&#xee;" horiz-adv-x="282" 
d="M200 506v-506h-118v506h118zM323 604v-2h-57l-124 91l-125 -91h-58v2l130 174h104z" />
    <glyph glyph-name="idieresis" unicode="&#xef;" horiz-adv-x="282" 
d="M200 506v-506h-118v506h118zM248 599q-31 0 -52 21t-21 52q0 30 21 51t52 21t52 -21t21 -51q0 -31 -21 -52t-52 -21zM34 599q-31 0 -52 21t-21 52q0 30 21 51t52 21t52 -21t21 -51q0 -31 -21 -52t-52 -21z" />
    <glyph glyph-name="eth" unicode="&#xf0;" horiz-adv-x="605" 
d="M478 56q-73 -70 -184 -70t-182 71q-72 71 -72 171q0 99 68 170q68 69 167 69q94 0 162 -62q-37 88 -152 181l-75 -65l-47 47l71 59q-7 6 -46 35q-21 14 -37 26l68 71q19 -13 91 -66l77 66l47 -46l-73 -62q102 -90 149.5 -181t47.5 -197q0 -137 -80 -217zM441 232
q0 62 -39 100.5t-102 38.5t-102.5 -39.5t-39.5 -102.5q0 -60 39 -100t99 -40q62 0 104 42q41 41 41 101z" />
    <glyph glyph-name="ntilde" unicode="&#xf1;" horiz-adv-x="612" 
d="M328 411q-34 0 -63.5 -16t-69.5 -56v-339h-118v493l117 20v-99q41 54 82.5 78t93.5 24q80 0 127.5 -53t47.5 -143v-320h-119v302q0 52 -25.5 80.5t-72.5 28.5zM326 723q48 -29 62 -29q10 0 21 9q9 8 49 60l54 -34q-49 -82 -73 -105q-25 -25 -56 -25q-21 0 -87 37
q-48 29 -62 29q-12 0 -22 -10q-14 -14 -48 -59l-54 34q50 82 74 107q24 24 55 24q23 0 87 -38z" />
    <glyph glyph-name="ograve" unicode="&#xf2;" horiz-adv-x="616" 
d="M307 -14q-117 0 -192 77q-76 76 -76 189q0 110 77 190q76 78 193 78q118 0 193 -76t75 -189q0 -111 -77 -190q-76 -79 -193 -79zM459 255q0 69 -42 115q-43 46 -108 46t-109 -47q-43 -46 -43 -117q0 -70 43 -116q42 -47 107 -47t109 48q43 46 43 118zM104 783h151
l83 -176h-56l-178 174v2z" />
    <glyph glyph-name="oacute" unicode="&#xf3;" horiz-adv-x="616" 
d="M307 -14q-117 0 -192 77q-76 76 -76 189q0 110 77 190q76 78 193 78q118 0 193 -76t75 -189q0 -111 -77 -190q-76 -79 -193 -79zM459 255q0 69 -42 115q-43 46 -108 46t-109 -47q-43 -46 -43 -117q0 -70 43 -116q42 -47 107 -47t109 48q43 46 43 118zM512 781l-178 -174
h-56l83 176h151v-2z" />
    <glyph glyph-name="ocircumflex" unicode="&#xf4;" horiz-adv-x="616" 
d="M307 -14q-117 0 -192 77q-76 76 -76 189q0 110 77 190q76 78 193 78q118 0 193 -76t75 -189q0 -111 -77 -190q-76 -79 -193 -79zM459 255q0 69 -42 115q-43 46 -108 46t-109 -47q-43 -46 -43 -117q0 -70 43 -116q42 -47 107 -47t109 48q43 46 43 118zM490 609v-2h-57
l-124 91l-125 -91h-58v2l130 174h104z" />
    <glyph glyph-name="otilde" unicode="&#xf5;" horiz-adv-x="616" 
d="M307 -14q-117 0 -192 77q-76 76 -76 189q0 110 77 190q76 78 193 78q118 0 193 -76t75 -189q0 -111 -77 -190q-76 -79 -193 -79zM459 255q0 69 -42 115q-43 46 -108 46t-109 -47q-43 -46 -43 -117q0 -70 43 -116q42 -47 107 -47t109 48q43 46 43 118zM323 728
q48 -29 62 -29q11 0 21 9q9 8 49 60l54 -34q-49 -82 -73 -105q-25 -25 -56 -25q-21 0 -87 37q-48 29 -62 29q-12 0 -22 -10q-14 -14 -48 -59l-54 34q50 83 74 107t55 24q23 0 87 -38z" />
    <glyph glyph-name="odieresis" unicode="&#xf6;" horiz-adv-x="616" 
d="M307 -14q-117 0 -192 77q-76 76 -76 189q0 110 77 190q76 78 193 78q118 0 193 -76t75 -189q0 -111 -77 -190q-76 -79 -193 -79zM459 255q0 69 -42 115q-43 46 -108 46t-109 -47q-43 -46 -43 -117q0 -70 43 -116q42 -47 107 -47t109 48q43 46 43 118zM415 604
q-31 0 -52 21t-21 52q0 30 21 51t52 21t52 -21t21 -51q0 -31 -21 -52t-52 -21zM201 604q-31 0 -52 21t-21 52q0 30 21 51t52 21t52 -21t21 -51q0 -31 -21 -52t-52 -21z" />
    <glyph glyph-name="divide" unicode="&#xf7;" horiz-adv-x="600" 
d="M300 479q-32 0 -55 22.5t-23 54.5t23 55t55 23t55 -23t23 -55t-23 -54.5t-55 -22.5zM300 398l253 1v-98l-253 1l-253 -1v98zM300 65q-32 0 -55 23t-23 55t23 54.5t55 22.5t55 -22.5t23 -54.5t-23 -55t-55 -23z" />
    <glyph glyph-name="oslash" unicode="&#xf8;" horiz-adv-x="616" 
d="M313 421q-73 0 -116 -49q-45 -50 -45 -125q0 -56 28 -96l201 254q-31 16 -68 16zM303 85q71 0 116 49q45 50 45 125q0 56 -28 96l-201 -254q31 -16 68 -16zM577 255q0 -111 -77 -190q-76 -79 -193 -79q-75 0 -136 35l-49 -62h-102l90 111q-71 76 -71 182q0 110 77 190
q76 78 193 78q75 0 136 -35l49 62h102l-89 -110q70 -76 70 -182z" />
    <glyph glyph-name="ugrave" unicode="&#xf9;" horiz-adv-x="612" 
d="M535 506v-506h-117v92q-41 -54 -82.5 -78t-93.5 -24q-79 0 -126.5 53t-47.5 143v320h118v-303q0 -51 26 -79.5t72 -28.5q34 0 64 16t69 55v340h118zM98 778h151l83 -176h-56l-178 174v2z" />
    <glyph glyph-name="uacute" unicode="&#xfa;" horiz-adv-x="612" 
d="M535 506v-506h-117v92q-41 -54 -82.5 -78t-93.5 -24q-79 0 -126.5 53t-47.5 143v320h118v-303q0 -51 26 -79.5t72 -28.5q34 0 64 16t69 55v340h118zM506 776l-178 -174h-56l83 176h151v-2z" />
    <glyph glyph-name="ucircumflex" unicode="&#xfb;" horiz-adv-x="612" 
d="M535 506v-506h-117v92q-41 -54 -82.5 -78t-93.5 -24q-79 0 -126.5 53t-47.5 143v320h118v-303q0 -51 26 -79.5t72 -28.5q34 0 64 16t69 55v340h118zM484 604v-2h-57l-124 91l-125 -91h-58v2l130 174h104z" />
    <glyph glyph-name="udieresis" unicode="&#xfc;" horiz-adv-x="612" 
d="M535 506v-506h-117v92q-41 -54 -82.5 -78t-93.5 -24q-79 0 -126.5 53t-47.5 143v320h118v-303q0 -51 26 -79.5t72 -28.5q34 0 64 16t69 55v340h118zM409 599q-31 0 -52 21t-21 52q0 30 21 51t52 21t52 -21t21 -51q0 -31 -21 -52t-52 -21zM195 599q-31 0 -52 21t-21 52
q0 30 21 51t52 21t52 -21t21 -51q0 -31 -21 -52t-52 -21z" />
    <glyph glyph-name="yacute" unicode="&#xfd;" horiz-adv-x="568" 
d="M132 -194q-45 0 -87 18l-23 114l3 2q43 -25 86 -25q73 0 106 80l14 32l-212 479h129l143 -347l132 347h127l-221 -542q-65 -158 -197 -158zM489 776l-178 -174h-56l83 176h151v-2z" />
    <glyph glyph-name="thorn" unicode="&#xfe;" horiz-adv-x="626" 
d="M313 93q68 0 112 45.5t44 117.5q0 69 -40 113t-103 44q-64 0 -131 -51v-234q60 -35 118 -35zM587 263q0 -118 -73 -194q-74 -77 -178 -77q-75 0 -141 51v-235l-118 1v913l118 37v-324q75 81 168 81q96 0 160 -72q64 -73 64 -181z" />
    <glyph glyph-name="ydieresis" unicode="&#xff;" horiz-adv-x="568" 
d="M132 -194q-45 0 -87 18l-23 114l3 2q43 -25 86 -25q73 0 106 80l14 32l-212 479h129l143 -347l132 347h127l-221 -542q-65 -158 -197 -158zM392 599q-31 0 -52 21t-21 52q0 30 21 51t52 21t52 -21t21 -51q0 -31 -21 -52t-52 -21zM178 599q-31 0 -52 21t-21 52q0 30 21 51
t52 21t52 -21t21 -51q0 -31 -21 -52t-52 -21z" />
    <glyph glyph-name="Amacron" unicode="&#x100;" horiz-adv-x="800" 
d="M401 565l-130 -295h255zM467 703l308 -703h-136l-69 163h-344l-72 -163h-130l318 703h125zM590 792h-374v83h374v-83z" />
    <glyph glyph-name="amacron" unicode="&#x101;" horiz-adv-x="572" 
d="M505 300v-288l-116 -20v83q-105 -83 -194 -83q-67 0 -107.5 37t-40.5 99q0 167 341 171q-2 113 -108 113q-83 0 -177 -69l-3 1l22 120q82 51 179 51q99 0 151.5 -55t52.5 -160zM160 137q0 -25 17.5 -39.5t49.5 -14.5q57 0 161 56v94q-228 -16 -228 -96zM476 625h-352v82
h352v-82z" />
    <glyph glyph-name="Abreve" unicode="&#x102;" horiz-adv-x="800" 
d="M401 565l-130 -295h255zM467 703l308 -703h-136l-69 163h-344l-72 -163h-130l318 703h125zM403 767q-118 0 -191 123l46 37q41 -39 74 -55t71 -16t71 16t74 55l46 -37q-73 -123 -191 -123z" />
    <glyph glyph-name="abreve" unicode="&#x103;" horiz-adv-x="572" 
d="M505 300v-288l-116 -20v83q-105 -83 -194 -83q-67 0 -107.5 37t-40.5 99q0 167 341 171q-2 113 -108 113q-83 0 -177 -69l-3 1l22 120q82 51 179 51q99 0 151.5 -55t52.5 -160zM160 137q0 -25 17.5 -39.5t49.5 -14.5q57 0 161 56v94q-228 -16 -228 -96zM300 595
q-110 0 -182 139l53 35q35 -44 65 -62.5t64 -18.5t64 18.5t65 62.5l53 -35q-72 -139 -182 -139z" />
    <glyph glyph-name="Aogonek" unicode="&#x104;" horiz-adv-x="800" 
d="M401 565l-130 -295h255zM764 -139h16l-16 -49q-30 -8 -71 -8q-53 0 -83 20t-30 57q0 33 46 86l29 33h-16l-69 163h-344l-72 -163h-130l318 703h125l308 -703h-50l-32 -55q-15 -26 -15 -44q0 -40 86 -40z" />
    <glyph glyph-name="aogonek" unicode="&#x105;" horiz-adv-x="572" 
d="M434 -194q-53 0 -83 20t-30 57q0 33 46 86l22 25v81q-105 -83 -194 -83q-67 0 -107.5 37t-40.5 99q0 167 341 171q-2 113 -108 113q-83 0 -177 -69l-3 1l22 120q82 51 179 51q99 0 151.5 -55t52.5 -160v-288l-37 -6l-34 -59q-15 -26 -15 -44q0 -40 86 -40h16l-16 -49
q-30 -8 -71 -8zM160 137q0 -25 17.5 -39.5t49.5 -14.5q57 0 161 56v94q-228 -16 -228 -96z" />
    <glyph glyph-name="Cacute" unicode="&#x106;" horiz-adv-x="712" 
d="M401 -12q-151 0 -251 102q-100 100 -100 260q0 155 106 258q106 104 258 104q134 0 232 -83v-144h-2q-113 110 -228 110q-98 0 -167 -70q-70 -70 -70 -172q0 -106 68 -177t167 -71q128 0 244 107l2 -2l-18 -140q-111 -82 -241 -82zM609 919l-180 -145h-63l80 147h163v-2z
" />
    <glyph glyph-name="cacute" unicode="&#x107;" horiz-adv-x="534" 
d="M484 167l4 -2l-18 -124q-79 -53 -173 -53q-114 0 -186 73t-72 191q0 113 77 190q77 75 193 75q98 0 168 -56v-132h-3q-85 81 -162 81q-66 0 -109 -45q-44 -46 -44 -112q0 -69 41.5 -113t106.5 -44q91 0 177 71zM495 781l-178 -174h-56l83 176h151v-2z" />
    <glyph glyph-name="Ccircumflex" unicode="&#x108;" horiz-adv-x="712" 
d="M401 -12q-151 0 -251 102q-100 100 -100 260q0 155 106 258q106 104 258 104q134 0 232 -83v-144h-2q-113 110 -228 110q-98 0 -167 -70q-70 -70 -70 -172q0 -106 68 -177t167 -71q128 0 244 107l2 -2l-18 -140q-111 -82 -241 -82zM585 776v-2h-67l-116 70l-116 -70h-69
v2l127 145h114z" />
    <glyph glyph-name="ccircumflex" unicode="&#x109;" horiz-adv-x="534" 
d="M484 167l4 -2l-18 -124q-79 -53 -173 -53q-114 0 -186 73t-72 191q0 113 77 190q77 75 193 75q98 0 168 -56v-132h-3q-85 81 -162 81q-66 0 -109 -45q-44 -46 -44 -112q0 -69 41.5 -113t106.5 -44q91 0 177 71zM473 609v-2h-57l-124 91l-125 -91h-58v2l130 174h104z" />
    <glyph glyph-name="Cdotaccent" unicode="&#x10a;" horiz-adv-x="712" 
d="M401 -12q-151 0 -251 102q-100 100 -100 260q0 155 106 258q106 104 258 104q134 0 232 -83v-144h-2q-113 110 -228 110q-98 0 -167 -70q-70 -70 -70 -172q0 -106 68 -177t167 -71q128 0 244 107l2 -2l-18 -140q-111 -82 -241 -82zM401 917q31 0 52.5 -21t21.5 -52
t-21.5 -52t-52.5 -21t-52.5 21t-21.5 52t21.5 52t52.5 21z" />
    <glyph glyph-name="cdotaccent" unicode="&#x10b;" horiz-adv-x="534" 
d="M484 167l4 -2l-18 -124q-79 -53 -173 -53q-114 0 -186 73t-72 191q0 113 77 190q77 75 193 75q98 0 168 -56v-132h-3q-85 81 -162 81q-66 0 -109 -45q-44 -46 -44 -112q0 -69 41.5 -113t106.5 -44q91 0 177 71zM291 603q-31 0 -52 21t-21 51t21 51t52 21t52 -21t21 -51
t-21 -51t-52 -21z" />
    <glyph glyph-name="Ccaron" unicode="&#x10c;" horiz-adv-x="712" 
d="M401 -12q-151 0 -251 102q-100 100 -100 260q0 155 106 258q106 104 258 104q134 0 232 -83v-144h-2q-113 110 -228 110q-98 0 -167 -70q-70 -70 -70 -172q0 -106 68 -177t167 -71q128 0 244 107l2 -2l-18 -140q-111 -82 -241 -82zM585 918v-2l-127 -145h-114l-127 145v2
h67l116 -70l116 70h69z" />
    <glyph glyph-name="ccaron" unicode="&#x10d;" horiz-adv-x="534" 
d="M484 167l4 -2l-18 -124q-79 -53 -173 -53q-114 0 -186 73t-72 191q0 113 77 190q77 75 193 75q98 0 168 -56v-132h-3q-85 81 -162 81q-66 0 -109 -45q-44 -46 -44 -112q0 -69 41.5 -113t106.5 -44q91 0 177 71zM473 783v-2l-130 -174h-104l-130 174v2h57l124 -91l125 91
h58z" />
    <glyph glyph-name="Dcaron" unicode="&#x10e;" horiz-adv-x="781" 
d="M602 350q0 111 -73 174t-199 63h-113v-474h116q119 0 195 65q74 65 74 172zM332 0h-241v700h241q185 0 292 -93q107 -95 107 -255q0 -157 -110 -255q-110 -97 -289 -97zM566 913v-2l-127 -145h-114l-127 145v2h67l116 -70l116 70h69z" />
    <glyph glyph-name="dcaron" unicode="&#x10f;" horiz-adv-x="626" 
d="M158 250q0 -70 40 -113.5t102 -43.5q64 0 131 50v234q-58 35 -118 35q-68 0 -111.5 -45.5t-43.5 -116.5zM549 759v-759h-117v71q-75 -81 -168 -81q-94 0 -159 72q-65 73 -65 180q0 118 73 194q74 77 176 77q74 0 142 -51v260zM652 549h-51q24 49 24 100q0 52 -24 100h102
q9 -31 9 -56q0 -72 -60 -144z" />
    <glyph glyph-name="Dcroat" unicode="&#x110;" horiz-adv-x="803" 
d="M237 399h174v-86h-174v-200h118q118 0 194 65q74 65 74 172q0 111 -72.5 174t-199.5 63h-114v-188zM353 0h-240v312h-90v88h90v300h240q185 0 292 -93q107 -95 107 -255q0 -157 -110 -255q-110 -97 -289 -97z" />
    <glyph glyph-name="dslash" unicode="&#x111;" horiz-adv-x="635" 
d="M158 247q0 -69 40 -112t102 -43q64 0 131 49v231q-59 33 -118 33q-67 0 -111 -44q-44 -46 -44 -114zM549 581v-581h-117v69q-75 -79 -168 -79q-94 0 -159 72q-65 71 -65 177q0 114 74 191q73 76 177 76q70 0 140 -49v124h-136v70h136v71l118 37v-108h76v-70h-76z" />
    <glyph glyph-name="Emacron" unicode="&#x112;" horiz-adv-x="593" 
d="M539 111l-30 -111h-418v700h415l30 -111h-319v-181h266v-106h-266v-191h322zM497 792h-374v83h374v-83z" />
    <glyph glyph-name="emacron" unicode="&#x113;" horiz-adv-x="563" 
d="M286 425q-53 0 -88.5 -37t-42.5 -97h254q-5 63 -37.5 98.5t-85.5 35.5zM506 146l3 -2l-36 -113q-80 -42 -169 -42q-122 0 -193 72q-72 71 -72 192q0 111 72 189q71 78 178 78q108 0 172 -73q63 -73 63 -190q0 -19 -3 -43h-365q11 -60 54.5 -92.5t110.5 -32.5q90 0 185 57
zM468 630h-352v82h352v-82z" />
    <glyph glyph-name="Ebreve" unicode="&#x114;" horiz-adv-x="593" 
d="M539 111l-30 -111h-418v700h415l30 -111h-319v-181h266v-106h-266v-191h322zM310 767q-118 0 -191 123l46 37q41 -39 74 -55t71 -16t71 16t74 55l46 -37q-73 -123 -191 -123z" />
    <glyph glyph-name="ebreve" unicode="&#x115;" horiz-adv-x="563" 
d="M286 425q-53 0 -88.5 -37t-42.5 -97h254q-5 63 -37.5 98.5t-85.5 35.5zM506 146l3 -2l-36 -113q-80 -42 -169 -42q-122 0 -193 72q-72 71 -72 192q0 111 72 189q71 78 178 78q108 0 172 -73q63 -73 63 -190q0 -19 -3 -43h-365q11 -60 54.5 -92.5t110.5 -32.5q90 0 185 57
zM292 600q-110 0 -182 139l53 35q35 -44 65 -62.5t64 -18.5t64 18.5t65 62.5l53 -35q-72 -139 -182 -139z" />
    <glyph glyph-name="Edotaccent" unicode="&#x116;" horiz-adv-x="593" 
d="M539 111l-30 -111h-418v700h415l30 -111h-319v-181h266v-106h-266v-191h322zM310 912q31 0 52.5 -21t21.5 -52t-21.5 -52t-52.5 -21t-52.5 21t-21.5 52t21.5 52t52.5 21z" />
    <glyph glyph-name="edotaccent" unicode="&#x117;" horiz-adv-x="563" 
d="M286 425q-53 0 -88.5 -37t-42.5 -97h254q-5 63 -37.5 98.5t-85.5 35.5zM506 146l3 -2l-36 -113q-80 -42 -169 -42q-122 0 -193 72q-72 71 -72 192q0 111 72 189q71 78 178 78q108 0 172 -73q63 -73 63 -190q0 -19 -3 -43h-365q11 -60 54.5 -92.5t110.5 -32.5q90 0 185 57
zM292 603q-31 0 -52 21t-21 51t21 51t52 21t52 -21t21 -51t-21 -51t-52 -21z" />
    <glyph glyph-name="Eogonek" unicode="&#x118;" horiz-adv-x="593" 
d="M515 -139h16l-16 -49q-30 -8 -71 -8q-53 0 -83 20t-30 57q0 33 46 86l29 33h-315v700h415l30 -111h-319v-181h266v-106h-266v-191h322l-30 -111h-33l-32 -55q-15 -26 -15 -44q0 -40 86 -40z" />
    <glyph glyph-name="eogonek" unicode="&#x119;" horiz-adv-x="563" 
d="M445 -139h15l-15 -49q-32 -8 -71 -8q-53 0 -83 19.5t-30 55.5q0 21 13 40t45 43l39 31q-17 -3 -54 -3q-122 0 -193 72q-72 71 -72 191q0 111 72 189q71 78 178 78q108 0 172 -73q63 -73 63 -190q0 -19 -3 -43h-365q11 -60 54.5 -92.5t110.5 -32.5q90 0 185 57l3 -2
l-36 -112l-82 -80q-30 -33 -30 -52q0 -21 19 -30t65 -9zM286 425q-53 0 -88.5 -37t-42.5 -97h254q-5 63 -37.5 98.5t-85.5 35.5z" />
    <glyph glyph-name="Ecaron" unicode="&#x11a;" horiz-adv-x="593" 
d="M539 111l-30 -111h-418v700h415l30 -111h-319v-181h266v-106h-266v-191h322zM494 913v-2l-127 -145h-114l-127 145v2h67l116 -70l116 70h69z" />
    <glyph glyph-name="ecaron" unicode="&#x11b;" horiz-adv-x="563" 
d="M286 425q-53 0 -88.5 -37t-42.5 -97h254q-5 63 -37.5 98.5t-85.5 35.5zM506 146l3 -2l-36 -113q-80 -42 -169 -42q-122 0 -193 72q-72 71 -72 192q0 111 72 189q71 78 178 78q108 0 172 -73q63 -73 63 -190q0 -19 -3 -43h-365q11 -60 54.5 -92.5t110.5 -32.5q90 0 185 57
zM474 783v-2l-130 -174h-104l-130 174v2h57l124 -91l125 91h58z" />
    <glyph glyph-name="Gcircumflex" unicode="&#x11c;" horiz-adv-x="788" 
d="M403 373h300v-298q-134 -85 -291 -85q-161 0 -262 98q-100 97 -100 259q0 159 110 261t279 102q131 0 246 -57v-133q-131 73 -246 73q-112 0 -185 -70q-75 -71 -75 -174q0 -109 68 -177t177 -68q91 0 159 34v132h-180v103zM600 776v-2h-67l-116 70l-116 -70h-69v2
l127 145h114z" />
    <glyph glyph-name="gcircumflex" unicode="&#x11d;" horiz-adv-x="626" 
d="M158 257q0 -65 38 -104.5t100 -39.5q66 0 136 53v228q-52 21 -109 21q-71 0 -118 -44q-47 -45 -47 -114zM279 -196q-103 0 -199 46l-22 118l4 3q119 -64 215 -64q71 0 113 39.5t42 107.5v40q-79 -78 -174 -78t-156 67q-62 67 -62 169q0 114 80 188q79 73 199 73
q69 0 136 -26l83 19h11v-449q0 -118 -72 -185.5t-198 -67.5zM500 604v-2h-57l-124 91l-125 -91h-58v2l130 174h104z" />
    <glyph glyph-name="Gbreve" unicode="&#x11e;" horiz-adv-x="788" 
d="M403 373h300v-298q-134 -85 -291 -85q-161 0 -262 98q-100 97 -100 259q0 159 110 261t279 102q131 0 246 -57v-133q-131 73 -246 73q-112 0 -185 -70q-75 -71 -75 -174q0 -109 68 -177t177 -68q91 0 159 34v132h-180v103zM416 772q-118 0 -191 123l46 37q41 -39 74 -55
t71 -16t71 16t74 55l46 -37q-73 -123 -191 -123z" />
    <glyph glyph-name="gbreve" unicode="&#x11f;" horiz-adv-x="626" 
d="M158 257q0 -65 38 -104.5t100 -39.5q66 0 136 53v228q-52 21 -109 21q-71 0 -118 -44q-47 -45 -47 -114zM279 -196q-103 0 -199 46l-22 118l4 3q119 -64 215 -64q71 0 113 39.5t42 107.5v40q-79 -78 -174 -78t-156 67q-62 67 -62 169q0 114 80 188q79 73 199 73
q69 0 136 -26l83 19h11v-449q0 -118 -72 -185.5t-198 -67.5zM318 595q-110 0 -182 139l53 35q35 -44 65 -62.5t64 -18.5t64 18.5t65 62.5l53 -35q-72 -139 -182 -139z" />
    <glyph glyph-name="Gdotaccent" unicode="&#x120;" horiz-adv-x="788" 
d="M403 373h300v-298q-134 -85 -291 -85q-161 0 -262 98q-100 97 -100 259q0 159 110 261t279 102q131 0 246 -57v-133q-131 73 -246 73q-112 0 -185 -70q-75 -71 -75 -174q0 -109 68 -177t177 -68q91 0 159 34v132h-180v103zM416 917q31 0 52.5 -21t21.5 -52t-21.5 -52
t-52.5 -21t-52.5 21t-21.5 52t21.5 52t52.5 21z" />
    <glyph glyph-name="gdotaccent" unicode="&#x121;" horiz-adv-x="626" 
d="M158 257q0 -65 38 -104.5t100 -39.5q66 0 136 53v228q-52 21 -109 21q-71 0 -118 -44q-47 -45 -47 -114zM279 -196q-103 0 -199 46l-22 118l4 3q119 -64 215 -64q71 0 113 39.5t42 107.5v40q-79 -78 -174 -78t-156 67q-62 67 -62 169q0 114 80 188q79 73 199 73
q69 0 136 -26l83 19h11v-449q0 -118 -72 -185.5t-198 -67.5zM318 598q-31 0 -52 21t-21 51t21 51t52 21t52 -21t21 -51t-21 -51t-52 -21z" />
    <glyph glyph-name="uni0122" unicode="&#x122;" horiz-adv-x="788" 
d="M403 373h300v-298q-134 -85 -291 -85q-161 0 -262 98q-100 97 -100 259q0 159 110 261t279 102q131 0 246 -57v-133q-131 73 -246 73q-112 0 -185 -70q-75 -71 -75 -174q0 -109 68 -177t177 -68q91 0 159 34v132h-180v103zM509 -151q0 -57 -128 -111l-61 24v3
q39 21 55 35.5t16 28.5q0 13 -16 24.5t-57 28.5v3l121 35q70 -29 70 -71z" />
    <glyph glyph-name="uni0123" unicode="&#x123;" horiz-adv-x="626" 
d="M158 257q0 -65 38 -104.5t100 -39.5q66 0 136 53v228q-52 21 -109 21q-71 0 -118 -44q-47 -45 -47 -114zM279 -196q-103 0 -199 46l-22 118l4 3q119 -64 215 -64q71 0 113 39.5t42 107.5v40q-79 -78 -174 -78t-156 67q-62 67 -62 169q0 114 80 188q79 73 199 73
q69 0 136 -26l83 19h11v-449q0 -118 -72 -185.5t-198 -67.5zM222 672q0 31 30 59t98 60l61 -24v-3q-71 -42 -71 -70q0 -15 15 -26.5t58 -32.5v-4l-121 -35q-70 30 -70 76z" />
    <glyph glyph-name="Hcircumflex" unicode="&#x124;" horiz-adv-x="814" 
d="M723 700v-700h-126v298h-380v-298h-126v700h126v-286h380v286h126zM591 771v-2h-67l-116 70l-116 -70h-69v2l127 145h114z" />
    <glyph glyph-name="hcircumflex" unicode="&#x125;" horiz-adv-x="612" 
d="M328 411q-34 0 -63.5 -16t-69.5 -56v-339h-118v722l118 37v-344q75 101 175 101q80 0 127.5 -53t47.5 -143v-320h-119v302q0 52 -25.5 80.5t-72.5 28.5zM319 794v-2h-57l-124 91l-125 -91h-58v2l130 174h104z" />
    <glyph glyph-name="Hbar" unicode="&#x126;" horiz-adv-x="857" 
d="M237 517v-136h383v136h-383zM744 514v-514h-124v267h-383v-267h-124v514h-90v82h90v104h124v-105h383v105h124v-104h90v-82h-90z" />
    <glyph glyph-name="hbar" unicode="&#x127;" horiz-adv-x="621" 
d="M337 408q-35 0 -64.5 -16t-68.5 -55v-337h-119v581h-75v70h75v71l119 37v-108h137v-70h-137v-168q75 101 175 101q79 0 126.5 -53.5t47.5 -143.5v-317h-118v300q0 51 -26 79.5t-72 28.5z" />
    <glyph glyph-name="Itilde" unicode="&#x128;" horiz-adv-x="318" 
d="M222 700v-700h-126v700h126zM176 881q48 -25 63 -25q14 0 27 10q12 10 46 49l47 -36q-44 -66 -70 -89t-57 -23q-23 0 -86 31q-48 25 -64 25q-15 0 -26 -10q-12 -9 -47 -49l-47 36q44 66 71 90q25 22 56 22q24 0 87 -31z" />
    <glyph glyph-name="itilde" unicode="&#x129;" horiz-adv-x="282" 
d="M200 506v-506h-118v506h118zM156 723q48 -29 62 -29q10 0 21 9q9 8 49 60l54 -34q-49 -82 -73 -105q-25 -25 -56 -25q-21 0 -87 37q-48 29 -62 29q-12 0 -22 -10q-14 -14 -48 -59l-54 34q50 82 74 107q24 24 55 24q23 0 87 -38z" />
    <glyph glyph-name="Imacron" unicode="&#x12a;" horiz-adv-x="318" 
d="M222 700v-700h-126v700h126zM306 792h-294v83h294v-83z" />
    <glyph glyph-name="imacron" unicode="&#x12b;" horiz-adv-x="282" 
d="M200 506v-506h-118v506h118zM288 625h-294v82h294v-82z" />
    <glyph glyph-name="Ibreve" unicode="&#x12c;" horiz-adv-x="318" 
d="M222 700v-700h-126v700h126zM159 767q-118 0 -191 123l46 37q41 -39 74 -55t71 -16t71 16t74 55l46 -37q-73 -123 -191 -123z" />
    <glyph glyph-name="ibreve" unicode="&#x12d;" horiz-adv-x="282" 
d="M200 506v-506h-118v506h118zM141 595q-110 0 -182 139l53 35q35 -44 65 -62.5t64 -18.5t64 18.5t65 62.5l53 -35q-72 -139 -182 -139z" />
    <glyph glyph-name="Iogonek" unicode="&#x12e;" horiz-adv-x="318" 
d="M239 -139h16l-16 -49q-30 -8 -71 -8q-53 0 -83 20t-30 57q0 33 46 86l29 33h-34v700h126v-700h-22l-32 -55q-15 -26 -15 -44q0 -40 86 -40z" />
    <glyph glyph-name="iogonek" unicode="&#x12f;" horiz-adv-x="282" 
d="M141 755q32 0 54 -21.5t22 -52.5t-22 -52.5t-54 -21.5t-54 21.5t-22 52.5t22 52.5t54 21.5zM219 -139h16l-16 -49q-30 -8 -71 -8q-53 0 -83 20t-30 57q0 33 46 86l29 33h-28v506h118v-506h-20l-32 -55q-15 -26 -15 -44q0 -40 86 -40z" />
    <glyph glyph-name="Idot" unicode="&#x130;" horiz-adv-x="318" 
d="M222 700v-700h-126v700h126zM159 912q31 0 52.5 -21t21.5 -52t-21.5 -52t-52.5 -21t-52.5 21t-21.5 52t21.5 52t52.5 21z" />
    <glyph glyph-name="dotlessi" unicode="&#x131;" horiz-adv-x="282" 
d="M200 506v-506h-118v506h118z" />
    <glyph glyph-name="Jcircumflex" unicode="&#x134;" horiz-adv-x="472" 
d="M157 106q49 0 76 29t27 82v483h126v-502q0 -98 -54 -153t-150 -55q-74 0 -130 35l-25 133l3 1q66 -53 127 -53zM510 771v-2h-67l-116 70l-116 -70h-69v2l127 145h114z" />
    <glyph glyph-name="jcircumflex" unicode="&#x135;" horiz-adv-x="282" 
d="M82 -14v520h118v-516q0 -89 -44 -136.5t-125 -47.5q-27 0 -55 7l-17 94q24 -7 45 -7q78 0 78 86zM323 604v-2h-57l-124 91l-125 -91h-58v2l130 174h104z" />
    <glyph glyph-name="uni0136" unicode="&#x136;" horiz-adv-x="706" 
d="M700 3v-3h-162l-299 305h-22v-305h-126v700h126v-291h22l298 291h159v-3l-355 -336zM473 -147q0 -57 -128 -111l-61 24v3q39 21 55 35.5t16 28.5q0 13 -16 24.5t-57 28.5v3l121 35q70 -29 70 -71z" />
    <glyph glyph-name="uni0137" unicode="&#x137;" horiz-adv-x="569" 
d="M564 3v-3h-148l-195 216h-26v-216h-118v722l118 37v-461h26l185 208h142v-3l-225 -242zM404 -147q0 -57 -128 -111l-61 24v3q39 21 55 35.5t16 28.5q0 13 -16 24.5t-57 28.5v3l121 35q70 -29 70 -71z" />
    <glyph glyph-name="Lacute" unicode="&#x139;" horiz-adv-x="546" 
d="M508 113v-113h-417v700h126v-587h291zM370 914l-180 -145h-63l80 147h163v-2z" />
    <glyph glyph-name="lacute" unicode="&#x13a;" horiz-adv-x="282" 
d="M200 759v-759h-118v722zM345 991l-178 -174h-56l83 176h151v-2z" />
    <glyph glyph-name="uni013B" unicode="&#x13b;" horiz-adv-x="546" 
d="M508 113v-113h-417v700h126v-587h291zM396 -147q0 -57 -128 -111l-61 24v3q39 21 55 35.5t16 28.5q0 13 -16 24.5t-57 28.5v3l121 35q70 -29 70 -71z" />
    <glyph glyph-name="uni013C" unicode="&#x13c;" horiz-adv-x="282" 
d="M200 759v-759h-118v722zM237 -147q0 -57 -128 -111l-61 24v3q39 21 55 35.5t16 28.5q0 13 -16 24.5t-57 28.5v3l121 35q70 -29 70 -71z" />
    <glyph glyph-name="Lcaron" unicode="&#x13d;" horiz-adv-x="546" 
d="M508 113v-113h-417v700h126v-587h291zM332 549h-51q24 49 24 100q0 52 -24 100h102q9 -31 9 -56q0 -72 -60 -144z" />
    <glyph glyph-name="lcaron" unicode="&#x13e;" horiz-adv-x="282" 
d="M200 759v-759h-118v722zM302 549h-51q24 49 24 100q0 52 -24 100h102q9 -31 9 -56q0 -72 -60 -144z" />
    <glyph glyph-name="Lslash" unicode="&#x141;" horiz-adv-x="568" 
d="M239 113h291v-113h-417v238l-88 -62h-2v109l90 63v352h126v-276l158 109h2v-109l-160 -111v-200z" />
    <glyph glyph-name="lslash" unicode="&#x142;" horiz-adv-x="332" 
d="M317 429l-92 -66v-363h-118v290l-90 -64h-2v100l92 65v331l118 37v-294l90 64h2v-100z" />
    <glyph glyph-name="Nacute" unicode="&#x143;" horiz-adv-x="822" 
d="M731 700v-704h-62l-457 519l1 -515h-122v700h119l400 -454l-1 454h122zM619 914l-180 -145h-63l80 147h163v-2z" />
    <glyph glyph-name="nacute" unicode="&#x144;" horiz-adv-x="612" 
d="M328 411q-34 0 -63.5 -16t-69.5 -56v-339h-118v493l117 20v-99q41 54 82.5 78t93.5 24q80 0 127.5 -53t47.5 -143v-320h-119v302q0 52 -25.5 80.5t-72.5 28.5zM515 776l-178 -174h-56l83 176h151v-2z" />
    <glyph glyph-name="uni0145" unicode="&#x145;" horiz-adv-x="822" 
d="M731 700v-704h-62l-457 519l1 -515h-122v700h119l400 -454l-1 454h122zM516 -147q0 -57 -128 -111l-61 24v3q39 21 55 35.5t16 28.5q0 13 -16 24.5t-57 28.5v3l121 35q70 -29 70 -71z" />
    <glyph glyph-name="uni0146" unicode="&#x146;" horiz-adv-x="612" 
d="M328 411q-34 0 -63.5 -16t-69.5 -56v-339h-118v493l117 20v-99q41 54 82.5 78t93.5 24q80 0 127.5 -53t47.5 -143v-320h-119v302q0 52 -25.5 80.5t-72.5 28.5zM407 -146q0 -57 -128 -111l-61 24v3q39 21 55 35.5t16 28.5q0 13 -16 24.5t-57 28.5v3l121 35q70 -29 70 -71z
" />
    <glyph glyph-name="Ncaron" unicode="&#x147;" horiz-adv-x="822" 
d="M731 700v-704h-62l-457 519l1 -515h-122v700h119l400 -454l-1 454h122zM595 913v-2l-127 -145h-114l-127 145v2h67l116 -70l116 70h69z" />
    <glyph glyph-name="ncaron" unicode="&#x148;" horiz-adv-x="612" 
d="M328 411q-34 0 -63.5 -16t-69.5 -56v-339h-118v493l117 20v-99q41 54 82.5 78t93.5 24q80 0 127.5 -53t47.5 -143v-320h-119v302q0 52 -25.5 80.5t-72.5 28.5zM493 778v-2l-130 -174h-104l-130 174v2h57l124 -91l125 91h58z" />
    <glyph glyph-name="Eng" unicode="&#x14a;" horiz-adv-x="822" 
d="M507 -205q-35 0 -69 8l-18 109l1 1q29 -10 67 -10q56 0 88.5 32.5t32.5 90.5v6l-397 477l1 -509h-122v700h119l399 -480v480h122v-668q0 -113 -59 -175t-165 -62z" />
    <glyph glyph-name="eng" unicode="&#x14b;" horiz-adv-x="612" 
d="M365 -194q-35 0 -58 10l-17 93q22 -9 49 -9q41 0 64 23.5t23 65.5v313q0 52 -25.5 80.5t-72.5 28.5q-34 0 -63.5 -16t-69.5 -56v-339h-118v493l117 20v-99q41 54 82.5 78t93.5 24q80 0 127.5 -53t47.5 -143v-329q0 -89 -47 -137t-133 -48z" />
    <glyph glyph-name="Omacron" unicode="&#x14c;" horiz-adv-x="836" 
d="M417 -14q-157 0 -262 105q-105 103 -105 258q0 153 107 260q107 105 262 105q156 0 263 -104q105 -105 105 -259t-106 -259q-106 -106 -264 -106zM415 598q-99 0 -167 -71q-69 -72 -69 -176q0 -105 69 -177t169 -72q99 0 170 72q70 71 70 175t-70 177q-71 72 -172 72z
M605 797h-374v83h374v-83z" />
    <glyph glyph-name="omacron" unicode="&#x14d;" horiz-adv-x="616" 
d="M307 -14q-117 0 -192 77q-76 76 -76 189q0 110 77 190q76 78 193 78q118 0 193 -76t75 -189q0 -111 -77 -190q-76 -79 -193 -79zM459 255q0 69 -42 115q-43 46 -108 46t-109 -47q-43 -46 -43 -117q0 -70 43 -116q42 -47 107 -47t109 48q43 46 43 118zM484 630h-352v82
h352v-82z" />
    <glyph glyph-name="Obreve" unicode="&#x14e;" horiz-adv-x="836" 
d="M417 -14q-157 0 -262 105q-105 103 -105 258q0 153 107 260q107 105 262 105q156 0 263 -104q105 -105 105 -259t-106 -259q-106 -106 -264 -106zM415 598q-99 0 -167 -71q-69 -72 -69 -176q0 -105 69 -177t169 -72q99 0 170 72q70 71 70 175t-70 177q-71 72 -172 72z
M418 772q-118 0 -191 123l46 37q41 -39 74 -55t71 -16t71 16t74 55l46 -37q-73 -123 -191 -123z" />
    <glyph glyph-name="obreve" unicode="&#x14f;" horiz-adv-x="616" 
d="M307 -14q-117 0 -192 77q-76 76 -76 189q0 110 77 190q76 78 193 78q118 0 193 -76t75 -189q0 -111 -77 -190q-76 -79 -193 -79zM459 255q0 69 -42 115q-43 46 -108 46t-109 -47q-43 -46 -43 -117q0 -70 43 -116q42 -47 107 -47t109 48q43 46 43 118zM308 600
q-110 0 -182 139l53 35q35 -44 65 -62.5t64 -18.5t64 18.5t65 62.5l53 -35q-72 -139 -182 -139z" />
    <glyph glyph-name="Ohungarumlaut" unicode="&#x150;" horiz-adv-x="836" 
d="M417 -14q-157 0 -262 105q-105 103 -105 258q0 153 107 260q107 105 262 105q156 0 263 -104q105 -105 105 -259t-106 -259q-106 -106 -264 -106zM415 598q-99 0 -167 -71q-69 -72 -69 -176q0 -105 69 -177t169 -72q99 0 170 72q70 71 70 175t-70 177q-71 72 -172 72z
M695 919l-166 -145h-62l81 147h147v-2zM505 919l-166 -145h-62l81 147h147v-2z" />
    <glyph glyph-name="ohungarumlaut" unicode="&#x151;" horiz-adv-x="616" 
d="M307 -14q-117 0 -192 77q-76 76 -76 189q0 110 77 190q76 78 193 78q118 0 193 -76t75 -189q0 -111 -77 -190q-76 -79 -193 -79zM459 255q0 69 -42 115q-43 46 -108 46t-109 -47q-43 -46 -43 -117q0 -70 43 -116q42 -47 107 -47t109 48q43 46 43 118zM583 781l-167 -174
h-54l83 176h138v-2zM393 781l-166 -174h-55l83 176h138v-2z" />
    <glyph glyph-name="OE" unicode="&#x152;" horiz-adv-x="1022" 
d="M180 350q0 -111 73 -174.5t200 -63.5h68v476h-71q-121 0 -195 -65q-75 -64 -75 -173zM969 111l-30 -111h-490q-186 0 -292 94q-107 93 -107 254q0 158 111 255q109 97 288 97h487l30 -111h-320v-181h266v-106h-266v-191h323z" />
    <glyph glyph-name="oe" unicode="&#x153;" horiz-adv-x="981" 
d="M704 425q-53 0 -89 -36.5t-43 -97.5h255q-6 63 -38.5 98.5t-84.5 35.5zM459 255q0 69 -42 115q-43 46 -108 46t-109 -47q-43 -46 -43 -117q0 -70 43 -116q42 -47 107 -47t109 48q43 46 43 118zM726 -11q-146 0 -213 102q-77 -105 -213 -105q-113 0 -187 77t-74 189
t76 189q75 78 188 78q138 0 213 -104q69 105 197 105q106 0 167 -73t61 -190q0 -19 -3 -43h-364q11 -60 54 -92.5t110 -32.5q92 0 186 57l3 -2l-36 -113q-80 -42 -165 -42z" />
    <glyph glyph-name="Racute" unicode="&#x154;" horiz-adv-x="650" 
d="M307 593h-92v-223h88q58 0 94.5 31.5t36.5 82.5q0 49 -35 79t-92 30zM409 289l250 -289h-154l-227 268h-61v-268h-126v700h222q114 0 181 -56.5t67 -155.5q0 -69 -40.5 -122t-111.5 -77zM518 914l-180 -145h-63l80 147h163v-2z" />
    <glyph glyph-name="racute" unicode="&#x155;" horiz-adv-x="429" 
d="M195 311v-311h-118v493l117 20v-128q56 75 93 102t78 27q15 0 32 -4l8 -125q-11 3 -30 3q-82 0 -180 -77zM443 776l-178 -174h-56l83 176h151v-2z" />
    <glyph glyph-name="uni0156" unicode="&#x156;" horiz-adv-x="650" 
d="M307 593h-92v-223h88q58 0 94.5 31.5t36.5 82.5q0 49 -35 79t-92 30zM409 289l250 -289h-154l-227 268h-61v-268h-126v700h222q114 0 181 -56.5t67 -155.5q0 -69 -40.5 -122t-111.5 -77zM446 -147q0 -57 -128 -111l-61 24v3q39 21 55 35.5t16 28.5q0 13 -16 24.5
t-57 28.5v3l121 35q70 -29 70 -71z" />
    <glyph glyph-name="uni0157" unicode="&#x157;" horiz-adv-x="429" 
d="M195 311v-311h-118v493l117 20v-128q56 75 93 102t78 27q15 0 32 -4l8 -125q-11 3 -30 3q-82 0 -180 -77zM232 -147q0 -57 -128 -111l-61 24v3q39 21 55 35.5t16 28.5q0 13 -16 24.5t-57 28.5v3l121 35q70 -29 70 -71z" />
    <glyph glyph-name="Rcaron" unicode="&#x158;" horiz-adv-x="650" 
d="M307 593h-92v-223h88q58 0 94.5 31.5t36.5 82.5q0 49 -35 79t-92 30zM409 289l250 -289h-154l-227 268h-61v-268h-126v700h222q114 0 181 -56.5t67 -155.5q0 -69 -40.5 -122t-111.5 -77zM494 913v-2l-127 -145h-114l-127 145v2h67l116 -70l116 70h69z" />
    <glyph glyph-name="rcaron" unicode="&#x159;" horiz-adv-x="429" 
d="M195 311v-311h-118v493l117 20v-128q56 75 93 102t78 27q15 0 32 -4l8 -125q-11 3 -30 3q-82 0 -180 -77zM421 778v-2l-130 -174h-104l-130 174v2h57l124 -91l125 91h58z" />
    <glyph glyph-name="Sacute" unicode="&#x15a;" horiz-adv-x="560" 
d="M246 304q-101 42 -143.5 90.5t-42.5 119.5q0 90 62 144t164 54q109 0 191 -52v-131h-2q-101 71 -193 71q-46 0 -72.5 -20t-26.5 -55t27 -58q25 -23 111 -61q102 -44 144.5 -92t42.5 -120q0 -94 -66 -149q-66 -57 -173 -57q-118 0 -209 67l-25 152l2 2q57 -51 120 -80
t116 -29q52 0 82 22.5t30 62.5q0 35 -28 60q-26 24 -111 59zM499 919l-180 -145h-63l80 147h163v-2z" />
    <glyph glyph-name="sacute" unicode="&#x15b;" horiz-adv-x="509" 
d="M289 303q101 -24 140 -60q38 -36 38 -99q0 -68 -59 -112q-58 -43 -152 -43q-104 0 -198 58l-20 125l3 2q113 -88 225 -88q40 0 64.5 14.5t24.5 37.5q0 25 -25 40q-27 14 -101 32q-97 24 -136 59t-39 93q0 69 56.5 112t148.5 43q91 0 170 -45v-112l-3 -2q-95 62 -176 62
q-39 0 -61.5 -13t-22.5 -35q0 -24 25 -38t98 -31zM464 778l-178 -174h-56l83 176h151v-2z" />
    <glyph glyph-name="Scircumflex" unicode="&#x15c;" horiz-adv-x="560" 
d="M246 304q-101 42 -143.5 90.5t-42.5 119.5q0 90 62 144t164 54q109 0 191 -52v-131h-2q-101 71 -193 71q-46 0 -72.5 -20t-26.5 -55t27 -58q25 -23 111 -61q102 -44 144.5 -92t42.5 -120q0 -94 -66 -149q-66 -57 -173 -57q-118 0 -209 67l-25 152l2 2q57 -51 120 -80
t116 -29q52 0 82 22.5t30 62.5q0 35 -28 60q-26 24 -111 59zM475 776v-2h-67l-116 70l-116 -70h-69v2l127 145h114z" />
    <glyph glyph-name="scircumflex" unicode="&#x15d;" horiz-adv-x="509" 
d="M289 303q101 -24 140 -60q38 -36 38 -99q0 -68 -59 -112q-58 -43 -152 -43q-104 0 -198 58l-20 125l3 2q113 -88 225 -88q40 0 64.5 14.5t24.5 37.5q0 25 -25 40q-27 14 -101 32q-97 24 -136 59t-39 93q0 69 56.5 112t148.5 43q91 0 170 -45v-112l-3 -2q-95 62 -176 62
q-39 0 -61.5 -13t-22.5 -35q0 -24 25 -38t98 -31zM442 606v-2h-57l-124 91l-125 -91h-58v2l130 174h104z" />
    <glyph glyph-name="uni015E" unicode="&#x15e;" horiz-adv-x="560" 
d="M371 -123q0 -38 -35 -61t-94 -23q-35 0 -70 9l-27 53l3 3q42 -14 81 -14q55 0 55 30q0 26 -51 26q-29 0 -46 -3l-4 4l54 88q-100 8 -177 66l-25 152l2 2q57 -51 120 -80t116 -29q52 0 82 22.5t30 62.5q0 35 -28 60q-26 24 -111 59q-101 42 -143.5 90.5t-42.5 119.5
q0 90 62 144t164 54q109 0 191 -52v-131h-2q-101 71 -193 71q-46 0 -72.5 -20t-26.5 -55t27 -58q25 -23 111 -61q102 -44 144.5 -92t42.5 -120q0 -85 -55.5 -140t-148.5 -64l-28 -42q95 -6 95 -71z" />
    <glyph glyph-name="uni015F" unicode="&#x15f;" horiz-adv-x="509" 
d="M350 -120q0 -38 -35 -61t-94 -23q-35 0 -70 9l-27 53l3 3q42 -14 81 -14q55 0 55 30q0 26 -51 26q-29 0 -46 -3l-4 4l53 87q-79 7 -157 56l-20 125l3 2q113 -88 225 -88q40 0 64.5 14.5t24.5 37.5q0 25 -25 40q-27 14 -101 32q-97 24 -136 59t-39 93q0 69 56.5 112
t148.5 43q91 0 170 -45v-112l-3 -2q-95 62 -176 62q-39 0 -61.5 -13t-22.5 -35q0 -24 25 -38t98 -31q101 -24 140 -60q38 -36 38 -99q0 -64 -51 -106t-135 -48l-26 -39q95 -6 95 -71z" />
    <glyph glyph-name="Scaron" unicode="&#x160;" horiz-adv-x="560" 
d="M246 304q-101 42 -143.5 90.5t-42.5 119.5q0 90 62 144t164 54q109 0 191 -52v-131h-2q-101 71 -193 71q-46 0 -72.5 -20t-26.5 -55t27 -58q25 -23 111 -61q102 -44 144.5 -92t42.5 -120q0 -94 -66 -149q-66 -57 -173 -57q-118 0 -209 67l-25 152l2 2q57 -51 120 -80
t116 -29q52 0 82 22.5t30 62.5q0 35 -28 60q-26 24 -111 59zM475 918v-2l-127 -145h-114l-127 145v2h67l116 -70l116 70h69z" />
    <glyph glyph-name="scaron" unicode="&#x161;" horiz-adv-x="509" 
d="M289 303q101 -24 140 -60q38 -36 38 -99q0 -68 -59 -112q-58 -43 -152 -43q-104 0 -198 58l-20 125l3 2q113 -88 225 -88q40 0 64.5 14.5t24.5 37.5q0 25 -25 40q-27 14 -101 32q-97 24 -136 59t-39 93q0 69 56.5 112t148.5 43q91 0 170 -45v-112l-3 -2q-95 62 -176 62
q-39 0 -61.5 -13t-22.5 -35q0 -24 25 -38t98 -31zM442 780v-2l-130 -174h-104l-130 174v2h57l124 -91l125 91h58z" />
    <glyph glyph-name="uni0162" unicode="&#x162;" horiz-adv-x="722" 
d="M459 -118q0 -38 -35 -61t-94 -23q-35 0 -70 9l-27 53l3 3q42 -14 81 -14q55 0 55 30q0 26 -51 26q-29 0 -46 -3l-4 4l57 94h-30v587h-263v113h652v-113h-263v-587h-28l-32 -47q95 -6 95 -71z" />
    <glyph glyph-name="uni0163" unicode="&#x163;" horiz-adv-x="458" 
d="M362 -118q0 -38 -35 -61t-94 -23q-35 0 -70 9l-27 53l3 3q42 -14 81 -14q55 0 55 30q0 26 -51 26q-29 0 -46 -3l-4 4l54 89q-115 29 -115 175v239h-82v97h82v109l116 36v-145h187v-97h-187v-232q0 -84 80 -84q53 0 107 45l3 -2l-22 -113q-46 -29 -105 -34l-25 -36
q95 -6 95 -71z" />
    <glyph glyph-name="Tcaron" unicode="&#x164;" horiz-adv-x="722" 
d="M35 700h652v-113h-263v-587h-126v587h-263v113zM545 913v-2l-127 -145h-114l-127 145v2h67l116 -70l116 70h69z" />
    <glyph glyph-name="tcaron" unicode="&#x165;" horiz-adv-x="458" 
d="M416 138l3 -2l-22 -113q-53 -34 -120 -34q-78 0 -121 47t-43 134v239h-82v97h82v109l116 36v-145h187v-97h-187v-232q0 -84 80 -84q53 0 107 45zM334 568h-51q24 50 24 100q0 52 -24 100h102q9 -31 9 -56q0 -72 -60 -144z" />
    <glyph glyph-name="Tbar" unicode="&#x166;" horiz-adv-x="722" 
d="M423 369h149v-87h-149v-282h-124v282h-149v87h149v218h-264v113h652v-113h-264v-218z" />
    <glyph glyph-name="tbar" unicode="&#x167;" horiz-adv-x="458" 
d="M416 135l3 -2l-22 -110q-53 -34 -120 -34q-78 0 -121 47t-43 134v67h-80v70h80v104h-82v95h82v109l116 36v-145h187v-95h-187v-104h154v-70h-154v-63q0 -84 81 -84q52 0 106 45z" />
    <glyph glyph-name="Utilde" unicode="&#x168;" horiz-adv-x="789" 
d="M394 -12q-147 0 -229 85.5t-82 238.5v388h126v-390q0 -99 49 -153t138 -54t138 55t49 155v387h123v-388q0 -153 -82 -238.5t-230 -85.5zM411 881q48 -25 63 -25q14 0 27 10q12 10 46 49l47 -36q-44 -66 -70 -89t-57 -23q-23 0 -86 31q-48 25 -64 25q-15 0 -26 -10
q-12 -9 -47 -49l-47 36q44 66 71 90q25 22 56 22q24 0 87 -31z" />
    <glyph glyph-name="utilde" unicode="&#x169;" horiz-adv-x="612" 
d="M535 506v-506h-117v92q-41 -54 -82.5 -78t-93.5 -24q-79 0 -126.5 53t-47.5 143v320h118v-303q0 -51 26 -79.5t72 -28.5q34 0 64 16t69 55v340h118zM317 723q48 -29 62 -29q11 0 21 9q9 8 49 60l54 -34q-49 -82 -73 -105q-25 -25 -56 -25q-21 0 -87 37q-48 29 -62 29
q-12 0 -22 -10q-14 -14 -48 -59l-54 34q50 82 74 107q24 24 55 24q23 0 87 -38z" />
    <glyph glyph-name="Umacron" unicode="&#x16a;" horiz-adv-x="789" 
d="M394 -12q-147 0 -229 85.5t-82 238.5v388h126v-390q0 -99 49 -153t138 -54t138 55t49 155v387h123v-388q0 -153 -82 -238.5t-230 -85.5zM581 792h-374v83h374v-83z" />
    <glyph glyph-name="umacron" unicode="&#x16b;" horiz-adv-x="612" 
d="M535 506v-506h-117v92q-41 -54 -82.5 -78t-93.5 -24q-79 0 -126.5 53t-47.5 143v320h118v-303q0 -51 26 -79.5t72 -28.5q34 0 64 16t69 55v340h118zM478 625h-352v82h352v-82z" />
    <glyph glyph-name="Ubreve" unicode="&#x16c;" horiz-adv-x="789" 
d="M394 -12q-147 0 -229 85.5t-82 238.5v388h126v-390q0 -99 49 -153t138 -54t138 55t49 155v387h123v-388q0 -153 -82 -238.5t-230 -85.5zM394 767q-118 0 -191 123l46 37q41 -39 74 -55t71 -16t71 16t74 55l46 -37q-73 -123 -191 -123z" />
    <glyph glyph-name="ubreve" unicode="&#x16d;" horiz-adv-x="612" 
d="M535 506v-506h-117v92q-41 -54 -82.5 -78t-93.5 -24q-79 0 -126.5 53t-47.5 143v320h118v-303q0 -51 26 -79.5t72 -28.5q34 0 64 16t69 55v340h118zM302 595q-110 0 -182 139l53 35q35 -44 65 -62.5t64 -18.5t64 18.5t65 62.5l53 -35q-72 -139 -182 -139z" />
    <glyph glyph-name="Uring" unicode="&#x16e;" horiz-adv-x="789" 
d="M394 -12q-147 0 -229 85.5t-82 238.5v388h126v-390q0 -99 49 -153t138 -54t138 55t49 155v387h123v-388q0 -153 -82 -238.5t-230 -85.5zM394 766q-55 0 -92 34t-37 84t37.5 84t91.5 34t91.5 -34t37.5 -84t-37 -84t-92 -34zM394 954q-33 0 -55 -20t-22 -50t22 -50t55 -20
t55 20t22 50t-22 50t-55 20z" />
    <glyph glyph-name="uring" unicode="&#x16f;" horiz-adv-x="612" 
d="M535 506v-506h-117v92q-41 -54 -82.5 -78t-93.5 -24q-79 0 -126.5 53t-47.5 143v320h118v-303q0 -51 26 -79.5t72 -28.5q34 0 64 16t69 55v340h118zM302 597q-53 0 -90 37t-37 90q0 52 37 89t90 37t90 -37t37 -89q0 -53 -37 -90t-90 -37zM302 802q-31 0 -53 -23t-22 -55
q0 -33 22 -56t53 -23t53 23t22 56q0 32 -22 55t-53 23z" />
    <glyph glyph-name="Uhungarumlaut" unicode="&#x170;" horiz-adv-x="789" 
d="M394 -12q-147 0 -229 85.5t-82 238.5v388h126v-390q0 -99 49 -153t138 -54t138 55t49 155v387h123v-388q0 -153 -82 -238.5t-230 -85.5zM671 914l-166 -145h-62l81 147h147v-2zM481 914l-166 -145h-62l81 147h147v-2z" />
    <glyph glyph-name="uhungarumlaut" unicode="&#x171;" horiz-adv-x="612" 
d="M535 506v-506h-117v92q-41 -54 -82.5 -78t-93.5 -24q-79 0 -126.5 53t-47.5 143v320h118v-303q0 -51 26 -79.5t72 -28.5q34 0 64 16t69 55v340h118zM577 776l-167 -174h-54l83 176h138v-2zM387 776l-166 -174h-55l83 176h138v-2z" />
    <glyph glyph-name="Uogonek" unicode="&#x172;" horiz-adv-x="789" 
d="M409 -201q-53 0 -83 20t-30 57q0 33 46 86l24 27q-134 8 -208.5 93t-74.5 230v388h126v-390q0 -99 49 -153t138 -54t138 55t49 155v387h123v-388q0 -141 -70 -225t-198 -97l-29 -50q-15 -26 -15 -44q0 -40 86 -40h16l-16 -49q-30 -8 -71 -8z" />
    <glyph glyph-name="uogonek" unicode="&#x173;" horiz-adv-x="612" 
d="M537 -139h16l-16 -49q-30 -8 -71 -8q-53 0 -83 20t-30 57q0 33 46 86l29 33h-10v92q-41 -54 -82.5 -78t-93.5 -24q-79 0 -126.5 53t-47.5 143v320h118v-303q0 -51 26 -79.5t72 -28.5q34 0 64 16t69 55v340h118v-506h-37l-32 -55q-15 -26 -15 -44q0 -40 86 -40z" />
    <glyph glyph-name="Wcircumflex" unicode="&#x174;" horiz-adv-x="1166" 
d="M582 445l-195 -449h-121l-234 704h137l166 -537l243 546h17l234 -545l174 536h133l-244 -704h-121zM771 771v-2h-67l-116 70l-116 -70h-69v2l127 145h114z" />
    <glyph glyph-name="wcircumflex" unicode="&#x175;" horiz-adv-x="884" 
d="M440 288l-142 -295h-99l-177 513h125l113 -358l177 364h16l165 -364l125 358h121l-191 -513h-99zM628 604v-2h-57l-124 91l-125 -91h-58v2l130 174h104z" />
    <glyph glyph-name="Ycircumflex" unicode="&#x176;" horiz-adv-x="683" 
d="M675 700l-270 -397v-303h-126v301l-270 399h148l188 -285l187 285h143zM526 771v-2h-67l-116 70l-116 -70h-69v2l127 145h114z" />
    <glyph glyph-name="ycircumflex" unicode="&#x177;" horiz-adv-x="568" 
d="M132 -194q-45 0 -87 18l-23 114l3 2q43 -25 86 -25q73 0 106 80l14 32l-212 479h129l143 -347l132 347h127l-221 -542q-65 -158 -197 -158zM467 604v-2h-57l-124 91l-125 -91h-58v2l130 174h104z" />
    <glyph glyph-name="Ydieresis" unicode="&#x178;" horiz-adv-x="683" 
d="M675 700l-270 -397v-303h-126v301l-270 399h148l188 -285l187 285h143zM449 913q31 0 52.5 -21.5t21.5 -52.5t-21.5 -52t-52.5 -21t-52.5 21t-21.5 52t21.5 52.5t52.5 21.5zM235 913q31 0 52.5 -21.5t21.5 -52.5t-21.5 -52t-52.5 -21t-52.5 21t-21.5 52t21.5 52.5
t52.5 21.5z" />
    <glyph glyph-name="Zacute" unicode="&#x179;" horiz-adv-x="704" 
d="M244 112h426l-51 -112h-579l-8 15l418 573h-385v112h591l7 -15zM561 914l-180 -145h-63l80 147h163v-2z" />
    <glyph glyph-name="zacute" unicode="&#x17a;" horiz-adv-x="544" 
d="M215 97h295l-32 -97h-449l-5 15l290 393h-255v98h442l5 -15zM483 776l-178 -174h-56l83 176h151v-2z" />
    <glyph glyph-name="Zdotaccent" unicode="&#x17b;" horiz-adv-x="704" 
d="M244 112h426l-51 -112h-579l-8 15l418 573h-385v112h591l7 -15zM353 912q31 0 52.5 -21t21.5 -52t-21.5 -52t-52.5 -21t-52.5 21t-21.5 52t21.5 52t52.5 21z" />
    <glyph glyph-name="zdotaccent" unicode="&#x17c;" horiz-adv-x="544" 
d="M215 97h295l-32 -97h-449l-5 15l290 393h-255v98h442l5 -15zM279 598q-31 0 -52 21t-21 51t21 51t52 21t52 -21t21 -51t-21 -51t-52 -21z" />
    <glyph glyph-name="Zcaron" unicode="&#x17d;" horiz-adv-x="704" 
d="M244 112h426l-51 -112h-579l-8 15l418 573h-385v112h591l7 -15zM537 913v-2l-127 -145h-114l-127 145v2h67l116 -70l116 70h69z" />
    <glyph glyph-name="zcaron" unicode="&#x17e;" horiz-adv-x="544" 
d="M215 97h295l-32 -97h-449l-5 15l290 393h-255v98h442l5 -15zM461 778v-2l-130 -174h-104l-130 174v2h57l124 -91l125 91h58z" />
    <glyph glyph-name="uni018F" unicode="&#x18f;" horiz-adv-x="770" 
d="M720 350q0 -157 -98 -261q-99 -103 -251 -103q-147 0 -236 99q-90 99 -90 263v52h542q-14 92 -77 145t-157 53q-131 0 -258 -90l-3 2l21 131q118 71 249 71q162 0 260 -98q98 -100 98 -264zM374 98q82 0 143 56q59 56 71 145h-415q9 -94 62.5 -147.5t138.5 -53.5z" />
    <glyph glyph-name="Ohorn" unicode="&#x1a0;" horiz-adv-x="836" 
d="M787 348q0 -154 -106 -257q-107 -105 -264 -105q-156 0 -262 104q-105 104 -105 256q0 155 107 259q106 103 267 103q25 0 82 -4q40 -4 74 -4q59 0 85 20t26 66q0 24 -6 55h101q7 -30 7 -57q0 -64 -37.5 -104t-108.5 -52q67 -50 103.5 -123t36.5 -157zM415 595
q-99 0 -167 -71q-69 -70 -69 -175t69 -175q69 -72 169 -72q99 0 170 72q70 70 70 174q0 105 -70 176q-71 71 -172 71z" />
    <glyph glyph-name="ohorn" unicode="&#x1a1;" horiz-adv-x="616" 
d="M577 251q0 -110 -77 -187q-76 -78 -193 -78t-192 77q-76 76 -76 186q0 113 78 189q78 75 199 75q7 0 13.5 -0.5t18.5 -1t23 -0.5q10 0 20 -0.5t16 -1t11 -0.5q88 0 88 66q0 23 -6 46h91q8 -24 8 -54q0 -49 -28.5 -80t-82.5 -41q89 -77 89 -195zM459 253q0 69 -42 114
q-43 45 -108 45t-109 -45q-43 -46 -43 -116t43 -116q42 -46 107 -46t109 47q43 46 43 117z" />
    <glyph glyph-name="Uhorn" unicode="&#x1af;" horiz-adv-x="822" 
d="M394 -12q-147 0 -229 85.5t-82 238.5v388h126v-390q0 -99 49 -153t138 -54t138 55t49 155v387h44q59 0 85 20t26 66q0 24 -6 55h101q7 -30 7 -57q0 -124 -134 -154v-318q0 -153 -82 -238.5t-230 -85.5z" />
    <glyph glyph-name="uhorn" unicode="&#x1b0;" horiz-adv-x="633" 
d="M535 442v-442h-117v92q-41 -54 -82.5 -78t-93.5 -24q-79 0 -126.5 53t-47.5 143v320h118v-303q0 -51 26 -79.5t72 -28.5q34 0 64 16t69 55v340h44q53 0 76.5 14.5t23.5 47.5q0 15 -7 43h92q7 -23 7 -47q0 -102 -118 -122z" />
    <glyph glyph-name="uni01CD" unicode="&#x1cd;" horiz-adv-x="800" 
d="M401 565l-130 -295h255zM467 703l308 -703h-136l-69 163h-344l-72 -163h-130l318 703h125zM587 913v-2l-127 -145h-114l-127 145v2h67l116 -70l116 70h69z" />
    <glyph glyph-name="uni01CE" unicode="&#x1ce;" horiz-adv-x="572" 
d="M505 300v-288l-116 -20v83q-105 -83 -194 -83q-67 0 -107.5 37t-40.5 99q0 167 341 171q-2 113 -108 113q-83 0 -177 -69l-3 1l22 120q82 51 179 51q99 0 151.5 -55t52.5 -160zM160 137q0 -25 17.5 -39.5t49.5 -14.5q57 0 161 56v94q-228 -16 -228 -96zM482 778v-2
l-130 -174h-104l-130 174v2h57l124 -91l125 91h58z" />
    <glyph glyph-name="uni01CF" unicode="&#x1cf;" horiz-adv-x="318" 
d="M222 700v-700h-126v700h126zM343 913v-2l-127 -145h-114l-127 145v2h67l116 -70l116 70h69z" />
    <glyph glyph-name="uni01D0" unicode="&#x1d0;" horiz-adv-x="282" 
d="M200 506v-506h-118v506h118zM323 778v-2l-130 -174h-104l-130 174v2h57l124 -91l125 91h58z" />
    <glyph glyph-name="uni01D1" unicode="&#x1d1;" horiz-adv-x="836" 
d="M417 -14q-157 0 -262 105q-105 103 -105 258q0 153 107 260q107 105 262 105q156 0 263 -104q105 -105 105 -259t-106 -259q-106 -106 -264 -106zM415 598q-99 0 -167 -71q-69 -72 -69 -176q0 -105 69 -177t169 -72q99 0 170 72q70 71 70 175t-70 177q-71 72 -172 72z
M602 918v-2l-127 -145h-114l-127 145v2h67l116 -70l116 70h69z" />
    <glyph glyph-name="uni01D2" unicode="&#x1d2;" horiz-adv-x="616" 
d="M307 -14q-117 0 -192 77q-76 76 -76 189q0 110 77 190q76 78 193 78q118 0 193 -76t75 -189q0 -111 -77 -190q-76 -79 -193 -79zM459 255q0 69 -42 115q-43 46 -108 46t-109 -47q-43 -46 -43 -117q0 -70 43 -116q42 -47 107 -47t109 48q43 46 43 118zM490 783v-2
l-130 -174h-104l-130 174v2h57l124 -91l125 91h58z" />
    <glyph glyph-name="uni01D3" unicode="&#x1d3;" horiz-adv-x="789" 
d="M394 -12q-147 0 -229 85.5t-82 238.5v388h126v-390q0 -99 49 -153t138 -54t138 55t49 155v387h123v-388q0 -153 -82 -238.5t-230 -85.5zM578 913v-2l-127 -145h-114l-127 145v2h67l116 -70l116 70h69z" />
    <glyph glyph-name="uni01D4" unicode="&#x1d4;" horiz-adv-x="612" 
d="M535 506v-506h-117v92q-41 -54 -82.5 -78t-93.5 -24q-79 0 -126.5 53t-47.5 143v320h118v-303q0 -51 26 -79.5t72 -28.5q34 0 64 16t69 55v340h118zM484 778v-2l-130 -174h-104l-130 174v2h57l124 -91l125 91h58z" />
    <glyph glyph-name="uni01D5" unicode="&#x1d5;" horiz-adv-x="789" 
d="M394 -12q-147 0 -229 85.5t-82 238.5v388h126v-390q0 -99 49 -153t138 -54t138 55t49 155v387h123v-388q0 -153 -82 -238.5t-230 -85.5zM570 957h-352v77h352v-77zM501 911q31 0 52.5 -21t21.5 -51q0 -31 -21.5 -52t-52.5 -21t-52.5 21t-21.5 52q0 30 21.5 51t52.5 21z
M287 911q31 0 52.5 -21t21.5 -51q0 -31 -21.5 -52t-52.5 -21t-52.5 21t-21.5 52q0 30 21.5 51t52.5 21z" />
    <glyph glyph-name="uni01D6" unicode="&#x1d6;" horiz-adv-x="612" 
d="M535 506v-506h-117v92q-41 -54 -82.5 -78t-93.5 -24q-79 0 -126.5 53t-47.5 143v320h118v-303q0 -51 26 -79.5t72 -28.5q34 0 64 16t69 55v340h118zM478 877v-75h-352v75h352zM409 599q-31 0 -52 21t-21 51q0 29 21.5 50t51.5 21t51.5 -21t21.5 -50q0 -30 -21.5 -51
t-51.5 -21zM195 599q-30 0 -51.5 21t-21.5 51q0 29 21.5 50t51.5 21t51.5 -21t21.5 -50q0 -30 -21 -51t-52 -21z" />
    <glyph glyph-name="uni01D7" unicode="&#x1d7;" horiz-adv-x="789" 
d="M394 -12q-147 0 -229 85.5t-82 238.5v388h126v-390q0 -99 49 -153t138 -54t138 55t49 155v387h123v-388q0 -153 -82 -238.5t-230 -85.5zM566 1068l-151 -133h-58l61 135h148v-2zM501 911q31 0 52.5 -21t21.5 -51q0 -31 -21.5 -52t-52.5 -21t-52.5 21t-21.5 52
q0 30 21.5 51t52.5 21zM287 911q31 0 52.5 -21t21.5 -51q0 -31 -21.5 -52t-52.5 -21t-52.5 21t-21.5 52q0 30 21.5 51t52.5 21z" />
    <glyph glyph-name="uni01D8" unicode="&#x1d8;" horiz-adv-x="612" 
d="M535 506v-506h-117v92q-41 -54 -82.5 -78t-93.5 -24q-79 0 -126.5 53t-47.5 143v320h118v-303q0 -51 26 -79.5t72 -28.5q34 0 64 16t69 55v340h118zM475 912l-149 -141h-54l61 143h142v-2zM409 599q-31 0 -52 21t-21 51q0 29 21.5 50t51.5 21t51.5 -21t21.5 -50
q0 -30 -21.5 -51t-51.5 -21zM195 599q-30 0 -51.5 21t-21.5 51q0 29 21.5 50t51.5 21t51.5 -21t21.5 -50q0 -30 -21 -51t-52 -21z" />
    <glyph glyph-name="uni01D9" unicode="&#x1d9;" horiz-adv-x="789" 
d="M394 -12q-147 0 -229 85.5t-82 238.5v388h126v-390q0 -99 49 -153t138 -54t138 55t49 155v387h123v-388q0 -153 -82 -238.5t-230 -85.5zM569 1070v-2l-131 -133h-88l-131 133v2h64l110 -57l110 57h66zM501 911q31 0 52.5 -21t21.5 -51q0 -31 -21.5 -52t-52.5 -21
t-52.5 21t-21.5 52q0 30 21.5 51t52.5 21zM287 911q31 0 52.5 -21t21.5 -51q0 -31 -21.5 -52t-52.5 -21t-52.5 21t-21.5 52q0 30 21.5 51t52.5 21z" />
    <glyph glyph-name="uni01DA" unicode="&#x1da;" horiz-adv-x="612" 
d="M535 506v-506h-117v92q-41 -54 -82.5 -78t-93.5 -24q-79 0 -126.5 53t-47.5 143v320h118v-303q0 -51 26 -79.5t72 -28.5q34 0 64 16t69 55v340h118zM477 916v-2l-133 -140h-84l-133 140v2h63l111 -65l111 65h65zM409 599q-31 0 -52 21t-21 51q0 29 21.5 50t51.5 21
t51.5 -21t21.5 -50q0 -30 -21.5 -51t-51.5 -21zM195 599q-30 0 -51.5 21t-21.5 51q0 29 21.5 50t51.5 21t51.5 -21t21.5 -50q0 -30 -21 -51t-52 -21z" />
    <glyph glyph-name="uni01DB" unicode="&#x1db;" horiz-adv-x="789" 
d="M394 -12q-147 0 -229 85.5t-82 238.5v388h126v-390q0 -99 49 -153t138 -54t138 55t49 155v387h123v-388q0 -153 -82 -238.5t-230 -85.5zM222 1070h148l61 -135h-58l-151 133v2zM287 766q-31 0 -52.5 21t-21.5 52q0 30 21.5 51t52.5 21t52.5 -21t21.5 -51q0 -31 -21.5 -52
t-52.5 -21zM501 766q-31 0 -52.5 21t-21.5 52q0 30 21.5 51t52.5 21t52.5 -21t21.5 -51q0 -31 -21.5 -52t-52.5 -21z" />
    <glyph glyph-name="uni01DC" unicode="&#x1dc;" horiz-adv-x="612" 
d="M535 506v-506h-117v92q-41 -54 -82.5 -78t-93.5 -24q-79 0 -126.5 53t-47.5 143v320h118v-303q0 -51 26 -79.5t72 -28.5q34 0 64 16t69 55v340h118zM129 914h142l61 -143h-54l-149 141v2zM409 599q-31 0 -52 21t-21 51q0 29 21.5 50t51.5 21t51.5 -21t21.5 -50
q0 -30 -21.5 -51t-51.5 -21zM195 599q-30 0 -51.5 21t-21.5 51q0 29 21.5 50t51.5 21t51.5 -21t21.5 -50q0 -30 -21 -51t-52 -21z" />
    <glyph glyph-name="Gcaron" unicode="&#x1e6;" horiz-adv-x="788" 
d="M403 373h300v-298q-134 -85 -291 -85q-161 0 -262 98q-100 97 -100 259q0 159 110 261t279 102q131 0 246 -57v-133q-131 73 -246 73q-112 0 -185 -70q-75 -71 -75 -174q0 -109 68 -177t177 -68q91 0 159 34v132h-180v103zM600 918v-2l-127 -145h-114l-127 145v2h67
l116 -70l116 70h69z" />
    <glyph glyph-name="gcaron" unicode="&#x1e7;" horiz-adv-x="626" 
d="M158 257q0 -65 38 -104.5t100 -39.5q66 0 136 53v228q-52 21 -109 21q-71 0 -118 -44q-47 -45 -47 -114zM279 -196q-103 0 -199 46l-22 118l4 3q119 -64 215 -64q71 0 113 39.5t42 107.5v40q-79 -78 -174 -78t-156 67q-62 67 -62 169q0 114 80 188q79 73 199 73
q69 0 136 -26l83 19h11v-449q0 -118 -72 -185.5t-198 -67.5zM500 778v-2l-130 -174h-104l-130 174v2h57l124 -91l125 91h58z" />
    <glyph glyph-name="uni01EA" unicode="&#x1ea;" horiz-adv-x="836" 
d="M433 -201q-53 0 -83 20t-30 57q0 33 46 86l22 25q-149 11 -242 113q-96 104 -96 249q0 153 107 260q107 105 262 105q156 0 263 -104q105 -105 105 -259q0 -141 -92 -244q-91 -102 -234 -119l-28 -48q-15 -26 -15 -44q0 -40 86 -40h16l-16 -49q-30 -8 -71 -8zM415 598
q-99 0 -167 -71q-69 -72 -69 -176q0 -105 69 -177t169 -72q99 0 170 72q70 71 70 175t-70 177q-71 72 -172 72z" />
    <glyph glyph-name="uni01EB" unicode="&#x1eb;" horiz-adv-x="616" 
d="M323 -201q-53 0 -83 20t-30 57q0 33 46 86l22 25q-107 11 -172 86q-67 74 -67 179q0 110 77 190q76 78 193 78q118 0 193 -76t75 -189q0 -100 -63 -175q-63 -76 -162 -91l-29 -49q-15 -26 -15 -44q0 -40 86 -40h16l-16 -49q-30 -8 -71 -8zM459 255q0 69 -42 115
q-43 46 -108 46t-109 -47q-43 -46 -43 -117q0 -70 43 -116q42 -47 107 -47t109 48q43 46 43 118z" />
    <glyph glyph-name="uni01F0" unicode="&#x1f0;" horiz-adv-x="282" 
d="M82 -14v520h118v-516q0 -89 -44 -136.5t-125 -47.5q-27 0 -55 7l-17 94q24 -7 45 -7q78 0 78 86zM323 778v-2l-130 -174h-104l-130 174v2h57l124 -91l125 91h58z" />
    <glyph glyph-name="uni01F8" unicode="&#x1f8;" horiz-adv-x="822" 
d="M731 700v-704h-62l-457 519l1 -515h-122v700h119l400 -454l-1 454h122zM203 916h163l80 -147h-63l-180 145v2z" />
    <glyph glyph-name="uni01F9" unicode="&#x1f9;" horiz-adv-x="612" 
d="M328 411q-34 0 -63.5 -16t-69.5 -56v-339h-118v493l117 20v-99q41 54 82.5 78t93.5 24q80 0 127.5 -53t47.5 -143v-320h-119v302q0 52 -25.5 80.5t-72.5 28.5zM107 778h151l83 -176h-56l-178 174v2z" />
    <glyph glyph-name="Aringacute" unicode="&#x1fa;" horiz-adv-x="800" 
d="M481 747q0 33 -22.5 56t-54.5 23t-54.5 -23t-22.5 -56q0 -32 22.5 -55t54.5 -23t54.5 23t22.5 55zM400 566l-129 -296h255zM489 652l286 -652h-136l-69 163h-344l-72 -163h-130l295 652q-43 37 -43 95q0 52 38 90q37 37 90 37q55 0 92 -37t37 -90q0 -57 -44 -95z
M607 1059l-180 -145h-63l80 147h163v-2z" />
    <glyph glyph-name="aringacute" unicode="&#x1fb;" horiz-adv-x="572" 
d="M505 300v-288l-116 -20v83q-105 -83 -194 -83q-67 0 -107.5 37t-40.5 99q0 167 341 171q-2 113 -108 113q-83 0 -177 -69l-3 1l22 120q82 51 179 51q99 0 151.5 -55t52.5 -160zM160 137q0 -25 17.5 -39.5t49.5 -14.5q57 0 161 56v94q-228 -16 -228 -96zM458 1003
l-127 -112h-50l62 114h115v-2zM300 597q-53 0 -90 37t-37 90q0 52 37 89t90 37t90 -37t37 -89q0 -53 -37 -90t-90 -37zM300 802q-31 0 -53 -23t-22 -55q0 -33 22 -56t53 -23t53 23t22 56q0 32 -22 55t-53 23z" />
    <glyph glyph-name="AEacute" unicode="&#x1fc;" horiz-adv-x="1015" 
d="M514 592l-205 -322h205v322zM962 111l-30 -111h-418v163h-274l-105 -163h-129l448 700h475l30 -111h-320v-181h266v-106h-266v-191h323zM839 914l-180 -145h-63l80 147h163v-2z" />
    <glyph glyph-name="aeacute" unicode="&#x1fd;" horiz-adv-x="911" 
d="M633 425q-53 0 -88.5 -37t-42.5 -97h255q-6 63 -39 98.5t-85 35.5zM160 137q0 -25 18 -39.5t49 -14.5q69 0 178 70q-13 36 -15 80q-230 -16 -230 -96zM854 146l3 -2l-37 -113q-80 -42 -169 -42q-141 0 -214 99q-122 -96 -233 -96q-72 0 -114.5 36.5t-42.5 99.5
q0 167 341 171q-2 113 -108 113q-83 0 -177 -69l-3 1l22 120q80 51 178 51q110 0 163 -72q71 77 176 77q107 0 170 -73q62 -74 62 -190q0 -19 -3 -43h-366q11 -59 54.5 -92t111.5 -33q92 0 186 57zM672 776l-178 -174h-56l83 176h151v-2z" />
    <glyph glyph-name="Oslashacute" unicode="&#x1fe;" horiz-adv-x="836" 
d="M421 603q-105 0 -176 -74t-71 -184q0 -90 52 -158l320 383q-58 33 -125 33zM415 97q105 0 176 74t71 184q0 90 -52 158l-319 -383q58 -33 124 -33zM787 351q0 -154 -106 -259q-106 -106 -264 -106q-109 0 -201 58l-73 -87h-115l121 143q-99 104 -99 249q0 153 107 260
q107 105 262 105q109 0 201 -58l74 87h114l-120 -142q99 -105 99 -250zM626 919l-180 -145h-63l80 147h163v-2z" />
    <glyph glyph-name="oslashacute" unicode="&#x1ff;" horiz-adv-x="616" 
d="M313 421q-73 0 -116 -49q-45 -50 -45 -125q0 -56 28 -96l201 254q-31 16 -68 16zM303 85q71 0 116 49q45 50 45 125q0 56 -28 96l-201 -254q31 -16 68 -16zM577 255q0 -111 -77 -190q-76 -79 -193 -79q-75 0 -136 35l-49 -62h-102l90 111q-71 76 -71 182q0 110 77 190
q76 78 193 78q75 0 136 -35l49 62h102l-89 -110q70 -76 70 -182zM512 781l-178 -174h-56l83 176h151v-2z" />
    <glyph glyph-name="uni0218" unicode="&#x218;" horiz-adv-x="560" 
d="M246 304q-101 42 -143.5 90.5t-42.5 119.5q0 90 62 144t164 54q109 0 191 -52v-131h-2q-101 71 -193 71q-46 0 -72.5 -20t-26.5 -55t27 -58q25 -23 111 -61q102 -44 144.5 -92t42.5 -120q0 -94 -66 -149q-66 -57 -173 -57q-118 0 -209 67l-25 152l2 2q57 -51 120 -80
t116 -29q52 0 82 22.5t30 62.5q0 35 -28 60q-26 24 -111 59zM364 -152q0 -57 -128 -111l-61 24v3q39 21 55 35.5t16 28.5q0 13 -16 24.5t-57 28.5v3l121 35q70 -29 70 -71z" />
    <glyph glyph-name="uni0219" unicode="&#x219;" horiz-adv-x="509" 
d="M289 303q101 -24 140 -60q38 -36 38 -99q0 -68 -59 -112q-58 -43 -152 -43q-104 0 -198 58l-20 125l3 2q113 -88 225 -88q40 0 64.5 14.5t24.5 37.5q0 25 -25 40q-27 14 -101 32q-97 24 -136 59t-39 93q0 69 56.5 112t148.5 43q91 0 170 -45v-112l-3 -2q-95 62 -176 62
q-39 0 -61.5 -13t-22.5 -35q0 -24 25 -38t98 -31zM343 -149q0 -57 -128 -111l-61 24v3q39 21 55 35.5t16 28.5q0 13 -16 24.5t-57 28.5v3l121 35q70 -29 70 -71z" />
    <glyph glyph-name="uni021A" unicode="&#x21a;" horiz-adv-x="722" 
d="M35 700h652v-113h-263v-587h-126v587h-263v113zM457 -147q0 -57 -128 -111l-61 24v3q39 21 55 35.5t16 28.5q0 13 -16 24.5t-57 28.5v3l121 35q70 -29 70 -71z" />
    <glyph glyph-name="uni021B" unicode="&#x21b;" horiz-adv-x="458" 
d="M416 138l3 -2l-22 -113q-53 -34 -120 -34q-78 0 -121 47t-43 134v239h-82v97h82v109l116 36v-145h187v-97h-187v-232q0 -84 80 -84q53 0 107 45zM355 -147q0 -57 -128 -111l-61 24v3q39 21 55 35.5t16 28.5q0 13 -16 24.5t-57 28.5v3l121 35q70 -29 70 -71z" />
    <glyph glyph-name="uni0226" unicode="&#x226;" horiz-adv-x="800" 
d="M401 565l-130 -295h255zM467 703l308 -703h-136l-69 163h-344l-72 -163h-130l318 703h125zM403 912q31 0 52.5 -21t21.5 -52t-21.5 -52t-52.5 -21t-52.5 21t-21.5 52t21.5 52t52.5 21z" />
    <glyph glyph-name="uni0227" unicode="&#x227;" horiz-adv-x="572" 
d="M505 300v-288l-116 -20v83q-105 -83 -194 -83q-67 0 -107.5 37t-40.5 99q0 167 341 171q-2 113 -108 113q-83 0 -177 -69l-3 1l22 120q82 51 179 51q99 0 151.5 -55t52.5 -160zM160 137q0 -25 17.5 -39.5t49.5 -14.5q57 0 161 56v94q-228 -16 -228 -96zM300 598
q-31 0 -52 21t-21 51t21 51t52 21t52 -21t21 -51t-21 -51t-52 -21z" />
    <glyph glyph-name="uni022E" unicode="&#x22e;" horiz-adv-x="836" 
d="M417 -14q-157 0 -262 105q-105 103 -105 258q0 153 107 260q107 105 262 105q156 0 263 -104q105 -105 105 -259t-106 -259q-106 -106 -264 -106zM415 598q-99 0 -167 -71q-69 -72 -69 -176q0 -105 69 -177t169 -72q99 0 170 72q70 71 70 175t-70 177q-71 72 -172 72z
M418 917q31 0 52.5 -21t21.5 -52t-21.5 -52t-52.5 -21t-52.5 21t-21.5 52t21.5 52t52.5 21z" />
    <glyph glyph-name="uni022F" unicode="&#x22f;" horiz-adv-x="616" 
d="M307 -14q-117 0 -192 77q-76 76 -76 189q0 110 77 190q76 78 193 78q118 0 193 -76t75 -189q0 -111 -77 -190q-76 -79 -193 -79zM459 255q0 69 -42 115q-43 46 -108 46t-109 -47q-43 -46 -43 -117q0 -70 43 -116q42 -47 107 -47t109 48q43 46 43 118zM308 603
q-31 0 -52 21t-21 51t21 51t52 21t52 -21t21 -51t-21 -51t-52 -21z" />
    <glyph glyph-name="uni0232" unicode="&#x232;" horiz-adv-x="683" 
d="M675 700l-270 -397v-303h-126v301l-270 399h148l188 -285l187 285h143zM529 792h-374v83h374v-83z" />
    <glyph glyph-name="uni0233" unicode="&#x233;" horiz-adv-x="568" 
d="M132 -194q-45 0 -87 18l-23 114l3 2q43 -25 86 -25q73 0 106 80l14 32l-212 479h129l143 -347l132 347h127l-221 -542q-65 -158 -197 -158zM461 625h-352v82h352v-82z" />
    <glyph glyph-name="uni0237" unicode="&#x237;" horiz-adv-x="282" 
d="M82 -14v520h118v-516q0 -89 -44 -136.5t-125 -47.5q-27 0 -55 7l-17 94q24 -7 45 -7q78 0 78 86z" />
    <glyph glyph-name="uni0259" unicode="&#x259;" horiz-adv-x="563" 
d="M525 253q0 -112 -71 -189q-72 -78 -180 -78t-171 73t-63 190q0 16 3 43h364q-11 59 -54 91.5t-110 32.5q-88 0 -186 -56l-3 2l37 113q81 41 169 41q121 0 194 -71q71 -73 71 -192zM277 80q53 0 89.5 37.5t42.5 97.5h-255q5 -63 38 -99t85 -36z" />
    <glyph glyph-name="uni02B9" unicode="&#x2b9;" horiz-adv-x="270" 
d="M88 403l-49 16l77 281h141z" />
    <glyph glyph-name="uni02BA" unicode="&#x2ba;" horiz-adv-x="478" 
d="M297 403l-49 16l77 281h139zM88 403l-49 16l77 281h140z" />
    <glyph glyph-name="uni02BB" unicode="&#x2bb;" horiz-adv-x="236" 
d="M142 537q0 -25 11 -50q12 -28 47 -82h-125q-41 58 -41 112q0 37 27 77q25 39 111 115l37 -27q-67 -93 -67 -145z" />
    <glyph glyph-name="uni02BC" unicode="&#x2bc;" horiz-adv-x="236" 
d="M95 568q0 26 -10 49q-11 24 -48 83h124q42 -60 42 -112q0 -35 -26 -76q-25 -37 -113 -116l-37 28q68 93 68 144z" />
    <glyph glyph-name="uni02BE" unicode="&#x2be;" horiz-adv-x="202" 
d="M176 675q0 -57 -39 -91.5t-104 -34.5v58q36 0 58 18.5t22 49.5q0 30 -21.5 48.5t-58.5 20.5v58q66 0 104.5 -34.5t38.5 -92.5z" />
    <glyph glyph-name="uni02BF" unicode="&#x2bf;" horiz-adv-x="202" 
d="M26 675q0 57 39.5 92t103.5 35v-58q-36 -1 -57.5 -19.5t-21.5 -49.5t21 -49t58 -19v-58q-65 0 -104 34t-39 92z" />
    <glyph glyph-name="circumflex" unicode="&#x2c6;" horiz-adv-x="500" 
d="M432 604v-2h-57l-124 91l-125 -91h-58v2l130 174h104z" />
    <glyph glyph-name="caron" unicode="&#x2c7;" horiz-adv-x="500" 
d="M432 778v-2l-130 -174h-104l-130 174v2h57l124 -91l125 91h58z" />
    <glyph glyph-name="uni02C8" unicode="&#x2c8;" horiz-adv-x="182" 
d="M121 799v-248h-61v248h61z" />
    <glyph glyph-name="uni02CC" unicode="&#x2cc;" horiz-adv-x="182" 
d="M121 57v-248h-61v248h61z" />
    <glyph glyph-name="uni02CD" unicode="&#x2cd;" horiz-adv-x="500" 
d="M426 -178h-352v82h352v-82z" />
    <glyph glyph-name="breve" unicode="&#x2d8;" horiz-adv-x="500" 
d="M250 595q-110 0 -182 139l53 35q35 -44 65 -62.5t64 -18.5t64 18.5t65 62.5l53 -35q-72 -139 -182 -139z" />
    <glyph glyph-name="dotaccent" unicode="&#x2d9;" horiz-adv-x="500" 
d="M250 598q-31 0 -52 21t-21 51t21 51t52 21t52 -21t21 -51t-21 -51t-52 -21z" />
    <glyph glyph-name="ring" unicode="&#x2da;" horiz-adv-x="500" 
d="M250 597q-53 0 -90 37t-37 90q0 52 37 89t90 37t90 -37t37 -89q0 -53 -37 -90t-90 -37zM250 802q-31 0 -53 -23t-22 -55q0 -33 22 -56t53 -23t53 23t22 56q0 32 -22 55t-53 23z" />
    <glyph glyph-name="ogonek" unicode="&#x2db;" horiz-adv-x="500" 
d="M336 -139h16l-16 -49q-30 -8 -71 -8q-53 0 -83 20t-30 57q0 33 46 86l38 43h67l-38 -65q-15 -26 -15 -44q0 -40 86 -40z" />
    <glyph glyph-name="tilde" unicode="&#x2dc;" horiz-adv-x="500" 
d="M265 723q48 -29 62 -29q11 0 21 9q9 8 49 60l54 -34q-49 -82 -73 -105q-25 -25 -56 -25q-21 0 -87 37q-48 29 -62 29q-12 0 -22 -10q-14 -14 -48 -59l-54 34q49 82 74 107q24 24 55 24q23 0 87 -38z" />
    <glyph glyph-name="hungarumlaut" unicode="&#x2dd;" horiz-adv-x="500" 
d="M525 776l-167 -174h-54l83 176h138v-2zM335 776l-166 -174h-55l83 176h138v-2z" />
    <glyph glyph-name="uni0300" unicode="&#x300;" 
d="M-204 778h151l83 -176h-56l-178 174v2z" />
    <glyph glyph-name="uni0301" unicode="&#x301;" 
d="M204 776l-178 -174h-56l83 176h151v-2z" />
    <glyph glyph-name="uni0302" unicode="&#x302;" 
d="M182 604v-2h-57l-124 91l-125 -91h-58v2l130 174h104z" />
    <glyph glyph-name="uni0303" unicode="&#x303;" 
d="M15 723q48 -29 62 -29q11 0 21 9q9 8 49 60l54 -34q-49 -82 -73 -105q-25 -25 -56 -25q-21 0 -87 37q-48 29 -62 29q-12 0 -22 -10q-14 -14 -48 -59l-54 34q49 81 73 107q25 24 56 24q23 0 87 -38z" />
    <glyph glyph-name="uni0304" unicode="&#x304;" 
d="M176 625h-352v82h352v-82z" />
    <glyph glyph-name="uni0306" unicode="&#x306;" 
d="M-182 595q-110 0 -182 139l53 35q35 -44 65 -62.5t64 -18.5t64 18.5t65 62.5l53 -35q-72 -139 -182 -139z" />
    <glyph glyph-name="uni0307" unicode="&#x307;" 
d="M-73 598q-31 0 -52 21t-21 51t21 51t52 21t52 -21t21 -51t-21 -51t-52 -21z" />
    <glyph glyph-name="uni0308" unicode="&#x308;" 
d="M107 599q-31 0 -52 21t-21 52q0 30 21 51t52 21t52 -21t21 -51q0 -31 -21 -52t-52 -21zM-107 599q-31 0 -52 21t-21 52q0 30 21 51t52 21t52 -21t21 -51q0 -31 -21 -52t-52 -21z" />
    <glyph glyph-name="uni0309" unicode="&#x309;" 
d="M130 738q0 -32 -24 -64q-26 -32 -96 -81l-61 18v2q53 45 75 68q18 19 18 37q0 29 -38 29q-49 0 -115 -49h-2v86q61 45 131 45q51 0 81.5 -25t30.5 -66z" />
    <glyph glyph-name="uni030A" unicode="&#x30a;" 
d="M-127 597q-53 0 -90 37t-37 90q0 52 37 89t90 37t90 -37t37 -89q0 -53 -37 -90t-90 -37zM-127 802q-31 0 -53 -23t-22 -55q0 -33 22 -56t53 -23t53 23t22 56q0 32 -22 55t-53 23z" />
    <glyph glyph-name="uni030B" unicode="&#x30b;" 
d="M275 776l-167 -174h-54l83 176h138v-2zM85 776l-166 -174h-55l83 176h138v-2z" />
    <glyph glyph-name="uni030C" unicode="&#x30c;" 
d="M182 778v-2l-130 -174h-104l-130 174v2h57l124 -91l125 91h58z" />
    <glyph glyph-name="uni0312" unicode="&#x312;" 
d="M-96 672q0 31 30 59t98 60l61 -24v-3q-71 -42 -71 -70q0 -15 15 -26.5t58 -32.5v-4l-121 -35q-70 30 -70 76z" />
    <glyph glyph-name="uni0315" unicode="&#x315;" 
d="M51 555h-51q24 49 24 100q0 52 -24 100h102q9 -31 9 -56q0 -72 -60 -144z" />
    <glyph glyph-name="uni0323" unicode="&#x323;" 
d="M-73 -223q-31 0 -52 21t-21 51t21 51t52 21t52 -21t21 -51t-21 -51t-52 -21z" />
    <glyph glyph-name="uni0324" unicode="&#x324;" 
d="M107 -224q-31 0 -52 21t-21 52q0 30 21 51t52 21t52 -21t21 -51q0 -31 -21 -52t-52 -21zM-107 -224q-31 0 -52 21t-21 52q0 30 21 51t52 21t52 -21t21 -51q0 -31 -21 -52t-52 -21z" />
    <glyph glyph-name="uni0326" unicode="&#x326;" 
d="M96 -147q0 -57 -128 -111l-61 24v3q39 21 55 35.5t16 28.5q0 13 -16 24.5t-57 28.5v3l121 35q70 -29 70 -71z" />
    <glyph glyph-name="uni0327" unicode="&#x327;" 
d="M103 -118q0 -38 -35 -61t-94 -23q-35 0 -70 9l-27 53l3 3q42 -14 81 -14q55 0 55 30q0 26 -51 26q-29 0 -46 -3l-4 4l61 100h68l-36 -53q95 -6 95 -71z" />
    <glyph glyph-name="uni0328" unicode="&#x328;" 
d="M86 -139h16l-16 -49q-30 -8 -71 -8q-53 0 -83 20t-30 57q0 33 46 86l38 43h67l-38 -65q-15 -26 -15 -44q0 -40 86 -40z" />
    <glyph glyph-name="uni032D" unicode="&#x32d;" 
d="M182 -256v-2h-57l-124 91l-125 -91h-58v2l130 174h104z" />
    <glyph glyph-name="uni032E" unicode="&#x32e;" 
d="M-182 -261q-110 0 -182 139l53 35q35 -44 65 -62.5t64 -18.5t64 18.5t65 62.5l53 -35q-72 -139 -182 -139z" />
    <glyph glyph-name="uni0331" unicode="&#x331;" 
d="M176 -187h-352v82h352v-82z" />
    <glyph glyph-name="uni0E3F" unicode="&#xe3f;" horiz-adv-x="662" 
d="M369 0v-157h-80v157h-198v700h198v121h80v-121q103 -2 161.5 -50t58.5 -131q0 -49 -27.5 -89.5t-77.5 -65.5q61 -22 95 -65t34 -99q0 -90 -66.5 -144t-177.5 -56zM291 403v197h-83v-197h83zM471 508q0 41 -27 65t-77 27v-196q50 4 77 31.5t27 72.5zM291 309h-83v-209h83
v209zM494 203q0 48 -33 75.5t-94 30.5v-209q59 2 93 29.5t34 73.5z" />
    <glyph glyph-name="uni1E06" unicode="&#x1e06;" horiz-adv-x="629" 
d="M580 200q0 -91 -71 -145q-70 -55 -188 -55h-230v700h232q107 0 167.5 -49t60.5 -135q0 -102 -102 -151q131 -45 131 -165zM311 597h-99v-192h90q57 0 91.5 27.5t34.5 72.5q0 43 -31.5 67.5t-85.5 24.5zM314 307h-102v-204h108q62 0 98.5 28t36.5 74q0 49 -36.5 75.5
t-104.5 26.5zM501 -187h-352v82h352v-82z" />
    <glyph glyph-name="uni1E07" unicode="&#x1e07;" horiz-adv-x="621" 
d="M582 267q0 -121 -81 -197q-81 -78 -200 -78q-60 0 -131 25l-82 -18h-11v723l118 37v-322q78 78 168 78q94 0 157 -70q62 -71 62 -178zM296 93q72 0 120 48q48 46 48 119q0 69 -39 111t-101 42q-64 0 -129 -48v-254q49 -18 101 -18zM486 -187h-352v82h352v-82z" />
    <glyph glyph-name="uni1E0C" unicode="&#x1e0c;" horiz-adv-x="781" 
d="M602 350q0 111 -73 174t-199 63h-113v-474h116q119 0 195 65q74 65 74 172zM332 0h-241v700h241q185 0 292 -93q107 -95 107 -255q0 -157 -110 -255q-110 -97 -289 -97zM382 -223q-31 0 -52 21t-21 51t21 51t52 21t52 -21t21 -51t-21 -51t-52 -21z" />
    <glyph glyph-name="uni1E0D" unicode="&#x1e0d;" horiz-adv-x="626" 
d="M158 250q0 -70 40 -113.5t102 -43.5q64 0 131 50v234q-58 35 -118 35q-68 0 -111.5 -45.5t-43.5 -116.5zM549 759v-759h-117v71q-75 -81 -168 -81q-94 0 -159 72q-65 73 -65 180q0 118 73 194q74 77 176 77q74 0 142 -51v260zM310 -223q-31 0 -52 21t-21 51t21 51t52 21
t52 -21t21 -51t-21 -51t-52 -21z" />
    <glyph glyph-name="uni1E0E" unicode="&#x1e0e;" horiz-adv-x="781" 
d="M602 350q0 111 -73 174t-199 63h-113v-474h116q119 0 195 65q74 65 74 172zM332 0h-241v700h241q185 0 292 -93q107 -95 107 -255q0 -157 -110 -255q-110 -97 -289 -97zM558 -187h-352v82h352v-82z" />
    <glyph glyph-name="uni1E0F" unicode="&#x1e0f;" horiz-adv-x="626" 
d="M158 250q0 -70 40 -113.5t102 -43.5q64 0 131 50v234q-58 35 -118 35q-68 0 -111.5 -45.5t-43.5 -116.5zM549 759v-759h-117v71q-75 -81 -168 -81q-94 0 -159 72q-65 73 -65 180q0 118 73 194q74 77 176 77q74 0 142 -51v260zM486 -187h-352v82h352v-82z" />
    <glyph glyph-name="uni1E12" unicode="&#x1e12;" horiz-adv-x="781" 
d="M602 350q0 111 -73 174t-199 63h-113v-474h116q119 0 195 65q74 65 74 172zM332 0h-241v700h241q185 0 292 -93q107 -95 107 -255q0 -157 -110 -255q-110 -97 -289 -97zM564 -256v-2h-57l-124 91l-125 -91h-58v2l130 174h104z" />
    <glyph glyph-name="uni1E13" unicode="&#x1e13;" horiz-adv-x="626" 
d="M158 250q0 -70 40 -113.5t102 -43.5q64 0 131 50v234q-58 35 -118 35q-68 0 -111.5 -45.5t-43.5 -116.5zM549 759v-759h-117v71q-75 -81 -168 -81q-94 0 -159 72q-65 73 -65 180q0 118 73 194q74 77 176 77q74 0 142 -51v260zM492 -256v-2h-57l-124 91l-125 -91h-58v2
l130 174h104z" />
    <glyph glyph-name="uni1E20" unicode="&#x1e20;" horiz-adv-x="788" 
d="M403 373h300v-298q-134 -85 -291 -85q-161 0 -262 98q-100 97 -100 259q0 159 110 261t279 102q131 0 246 -57v-133q-131 73 -246 73q-112 0 -185 -70q-75 -71 -75 -174q0 -109 68 -177t177 -68q91 0 159 34v132h-180v103zM603 797h-374v83h374v-83z" />
    <glyph glyph-name="uni1E21" unicode="&#x1e21;" horiz-adv-x="626" 
d="M158 257q0 -65 38 -104.5t100 -39.5q66 0 136 53v228q-52 21 -109 21q-71 0 -118 -44q-47 -45 -47 -114zM279 -196q-103 0 -199 46l-22 118l4 3q119 -64 215 -64q71 0 113 39.5t42 107.5v40q-79 -78 -174 -78t-156 67q-62 67 -62 169q0 114 80 188q79 73 199 73
q69 0 136 -26l83 19h11v-449q0 -118 -72 -185.5t-198 -67.5zM494 625h-352v82h352v-82z" />
    <glyph glyph-name="uni1E24" unicode="&#x1e24;" horiz-adv-x="814" 
d="M723 700v-700h-126v298h-380v-298h-126v700h126v-286h380v286h126zM407 -219q-31 0 -52 21t-21 51t21 51t52 21t52 -21t21 -51t-21 -51t-52 -21z" />
    <glyph glyph-name="uni1E25" unicode="&#x1e25;" horiz-adv-x="612" 
d="M328 411q-34 0 -63.5 -16t-69.5 -56v-339h-118v722l118 37v-344q75 101 175 101q80 0 127.5 -53t47.5 -143v-320h-119v302q0 52 -25.5 80.5t-72.5 28.5zM310 -218q-31 0 -52 21t-21 51t21 51t52 21t52 -21t21 -51t-21 -51t-52 -21z" />
    <glyph glyph-name="uni1E28" unicode="&#x1e28;" horiz-adv-x="814" 
d="M255 -118q0 -38 -35 -61t-94 -23q-35 0 -70 9l-27 53l3 3q42 -14 81 -14q55 0 55 30q0 26 -51 26q-29 0 -46 -3l-4 4l57 94h-33v700h126v-286h380v286h126v-700h-126v298h-380v-298h-25l-32 -47q95 -6 95 -71z" />
    <glyph glyph-name="uni1E29" unicode="&#x1e29;" horiz-adv-x="612" 
d="M237 -118q0 -38 -35 -61t-94 -23q-35 0 -70 9l-27 53l3 3q42 -14 81 -14q55 0 55 30q0 26 -51 26q-29 0 -46 -3l-4 4l57 94h-29v722l118 37v-344q75 101 175 101q80 0 127.5 -53t47.5 -143v-320h-119v302q0 52 -25.5 80.5t-72.5 28.5q-34 0 -63.5 -16t-69.5 -56v-339h-21
l-32 -47q95 -6 95 -71z" />
    <glyph glyph-name="uni1E2A" unicode="&#x1e2a;" horiz-adv-x="814" 
d="M723 700v-700h-126v298h-380v-298h-126v700h126v-286h380v286h126zM407 -261q-110 0 -182 139l53 35q35 -44 65 -62.5t64 -18.5t64 18.5t65 62.5l53 -35q-72 -139 -182 -139z" />
    <glyph glyph-name="uni1E2B" unicode="&#x1e2b;" horiz-adv-x="612" 
d="M328 411q-34 0 -63.5 -16t-69.5 -56v-339h-118v722l118 37v-344q75 101 175 101q80 0 127.5 -53t47.5 -143v-320h-119v302q0 52 -25.5 80.5t-72.5 28.5zM310 -261q-110 0 -182 139l53 35q35 -44 65 -62.5t64 -18.5t64 18.5t65 62.5l53 -35q-72 -139 -182 -139z" />
    <glyph glyph-name="uni1E32" unicode="&#x1e32;" horiz-adv-x="706" 
d="M700 3v-3h-162l-299 305h-22v-305h-126v700h126v-291h22l298 291h159v-3l-355 -336zM377 -223q-31 0 -52 21t-21 51t21 51t52 21t52 -21t21 -51t-21 -51t-52 -21z" />
    <glyph glyph-name="uni1E33" unicode="&#x1e33;" horiz-adv-x="569" 
d="M564 3v-3h-148l-195 216h-26v-216h-118v722l118 37v-461h26l185 208h142v-3l-225 -242zM308 -223q-31 0 -52 21t-21 51t21 51t52 21t52 -21t21 -51t-21 -51t-52 -21z" />
    <glyph glyph-name="uni1E34" unicode="&#x1e34;" horiz-adv-x="706" 
d="M700 3v-3h-162l-299 305h-22v-305h-126v700h126v-291h22l298 291h159v-3l-355 -336zM553 -187h-352v82h352v-82z" />
    <glyph glyph-name="uni1E35" unicode="&#x1e35;" horiz-adv-x="569" 
d="M564 3v-3h-148l-195 216h-26v-216h-118v722l118 37v-461h26l185 208h142v-3l-225 -242zM484 -187h-352v82h352v-82z" />
    <glyph glyph-name="uni1E36" unicode="&#x1e36;" horiz-adv-x="546" 
d="M508 113v-113h-417v700h126v-587h291zM300 -223q-31 0 -52 21t-21 51t21 51t52 21t52 -21t21 -51t-21 -51t-52 -21z" />
    <glyph glyph-name="uni1E37" unicode="&#x1e37;" horiz-adv-x="282" 
d="M200 759v-759h-118v722zM141 -223q-31 0 -52 21t-21 51t21 51t52 21t52 -21t21 -51t-21 -51t-52 -21z" />
    <glyph glyph-name="uni1E38" unicode="&#x1e38;" horiz-adv-x="546" 
d="M508 113v-113h-417v700h126v-587h291zM309 792h-294v83h294v-83zM300 -223q-31 0 -52 21t-21 51t21 51t52 21t52 -21t21 -51t-21 -51t-52 -21z" />
    <glyph glyph-name="uni1E39" unicode="&#x1e39;" horiz-adv-x="282" 
d="M200 759v-759h-118v722zM288 840h-294v82h294v-82zM141 -223q-31 0 -52 21t-21 51t21 51t52 21t52 -21t21 -51t-21 -51t-52 -21z" />
    <glyph glyph-name="uni1E3A" unicode="&#x1e3a;" horiz-adv-x="546" 
d="M508 113v-113h-417v700h126v-587h291zM476 -187h-352v82h352v-82z" />
    <glyph glyph-name="uni1E3B" unicode="&#x1e3b;" horiz-adv-x="282" 
d="M200 759v-759h-118v722zM288 -187h-294v82h294v-82z" />
    <glyph glyph-name="uni1E3C" unicode="&#x1e3c;" horiz-adv-x="546" 
d="M508 113v-113h-417v700h126v-587h291zM482 -256v-2h-57l-124 91l-125 -91h-58v2l130 174h104z" />
    <glyph glyph-name="uni1E3D" unicode="&#x1e3d;" horiz-adv-x="282" 
d="M200 759v-759h-118v722zM323 -256v-2h-57l-124 91l-125 -91h-58v2l130 174h104z" />
    <glyph glyph-name="uni1E3E" unicode="&#x1e3e;" horiz-adv-x="1030" 
d="M816 568l-295 -579h-15l-295 574v-563h-120v700h182l242 -484l240 484h184v-700h-123v568zM723 914l-180 -145h-63l80 147h163v-2z" />
    <glyph glyph-name="uni1E3F" unicode="&#x1e3f;" horiz-adv-x="927" 
d="M316 411q-31 0 -58 -15t-63 -52v-344h-118v493l117 20v-94q74 97 166 97q54 0 94.5 -28.5t58.5 -79.5q42 57 84 82.5t94 25.5q77 0 122.5 -53t45.5 -143v-320h-118v302q0 51 -24.5 80t-68.5 29q-55 0 -122 -67q1 -5 1 -24v-320h-118v302q0 51 -24.5 80t-68.5 29zM672 776
l-178 -174h-56l83 176h151v-2z" />
    <glyph glyph-name="uni1E40" unicode="&#x1e40;" horiz-adv-x="1030" 
d="M816 568l-295 -579h-15l-295 574v-563h-120v700h182l242 -484l240 484h184v-700h-123v568zM515 912q31 0 52.5 -21t21.5 -52t-21.5 -52t-52.5 -21t-52.5 21t-21.5 52t21.5 52t52.5 21z" />
    <glyph glyph-name="uni1E41" unicode="&#x1e41;" horiz-adv-x="927" 
d="M316 411q-31 0 -58 -15t-63 -52v-344h-118v493l117 20v-94q74 97 166 97q54 0 94.5 -28.5t58.5 -79.5q42 57 84 82.5t94 25.5q77 0 122.5 -53t45.5 -143v-320h-118v302q0 51 -24.5 80t-68.5 29q-55 0 -122 -67q1 -5 1 -24v-320h-118v302q0 51 -24.5 80t-68.5 29zM468 598
q-31 0 -52 21t-21 51t21 51t52 21t52 -21t21 -51t-21 -51t-52 -21z" />
    <glyph glyph-name="uni1E42" unicode="&#x1e42;" horiz-adv-x="1030" 
d="M816 568l-295 -579h-15l-295 574v-563h-120v700h182l242 -484l240 484h184v-700h-123v568zM514 -224q-31 0 -52 21t-21 51t21 51t52 21t52 -21t21 -51t-21 -51t-52 -21z" />
    <glyph glyph-name="uni1E43" unicode="&#x1e43;" horiz-adv-x="927" 
d="M316 411q-31 0 -58 -15t-63 -52v-344h-118v493l117 20v-94q74 97 166 97q54 0 94.5 -28.5t58.5 -79.5q42 57 84 82.5t94 25.5q77 0 122.5 -53t45.5 -143v-320h-118v302q0 51 -24.5 80t-68.5 29q-55 0 -122 -67q1 -5 1 -24v-320h-118v302q0 51 -24.5 80t-68.5 29z
M468 -223q-31 0 -52 21t-21 51t21 51t52 21t52 -21t21 -51t-21 -51t-52 -21z" />
    <glyph glyph-name="uni1E44" unicode="&#x1e44;" horiz-adv-x="822" 
d="M731 700v-704h-62l-457 519l1 -515h-122v700h119l400 -454l-1 454h122zM411 912q31 0 52.5 -21t21.5 -52t-21.5 -52t-52.5 -21t-52.5 21t-21.5 52t21.5 52t52.5 21z" />
    <glyph glyph-name="uni1E45" unicode="&#x1e45;" horiz-adv-x="612" 
d="M328 411q-34 0 -63.5 -16t-69.5 -56v-339h-118v493l117 20v-99q41 54 82.5 78t93.5 24q80 0 127.5 -53t47.5 -143v-320h-119v302q0 52 -25.5 80.5t-72.5 28.5zM311 598q-31 0 -52 21t-21 51t21 51t52 21t52 -21t21 -51t-21 -51t-52 -21z" />
    <glyph glyph-name="uni1E46" unicode="&#x1e46;" horiz-adv-x="822" 
d="M731 700v-704h-62l-457 519l1 -515h-122v700h119l400 -454l-1 454h122zM420 -219q-31 0 -52 21t-21 51t21 51t52 21t52 -21t21 -51t-21 -51t-52 -21z" />
    <glyph glyph-name="uni1E47" unicode="&#x1e47;" horiz-adv-x="612" 
d="M328 411q-34 0 -63.5 -16t-69.5 -56v-339h-118v493l117 20v-99q41 54 82.5 78t93.5 24q80 0 127.5 -53t47.5 -143v-320h-119v302q0 52 -25.5 80.5t-72.5 28.5zM311 -218q-31 0 -52 21t-21 51t21 51t52 21t52 -21t21 -51t-21 -51t-52 -21z" />
    <glyph glyph-name="uni1E48" unicode="&#x1e48;" horiz-adv-x="822" 
d="M731 700v-704h-62l-457 519l1 -515h-122v700h119l400 -454l-1 454h122zM596 -187h-352v82h352v-82z" />
    <glyph glyph-name="uni1E49" unicode="&#x1e49;" horiz-adv-x="612" 
d="M328 411q-34 0 -63.5 -16t-69.5 -56v-339h-118v493l117 20v-99q41 54 82.5 78t93.5 24q80 0 127.5 -53t47.5 -143v-320h-119v302q0 52 -25.5 80.5t-72.5 28.5zM487 -187h-352v82h352v-82z" />
    <glyph glyph-name="uni1E4A" unicode="&#x1e4a;" horiz-adv-x="822" 
d="M731 700v-704h-62l-457 519l1 -515h-122v700h119l400 -454l-1 454h122zM602 -256v-2h-57l-124 91l-125 -91h-58v2l130 174h104z" />
    <glyph glyph-name="uni1E4B" unicode="&#x1e4b;" horiz-adv-x="612" 
d="M328 411q-34 0 -63.5 -16t-69.5 -56v-339h-118v493l117 20v-99q41 54 82.5 78t93.5 24q80 0 127.5 -53t47.5 -143v-320h-119v302q0 52 -25.5 80.5t-72.5 28.5zM493 -255v-2h-57l-124 91l-125 -91h-58v2l130 174h104z" />
    <glyph glyph-name="uni1E58" unicode="&#x1e58;" horiz-adv-x="650" 
d="M307 593h-92v-223h88q58 0 94.5 31.5t36.5 82.5q0 49 -35 79t-92 30zM409 289l250 -289h-154l-227 268h-61v-268h-126v700h222q114 0 181 -56.5t67 -155.5q0 -69 -40.5 -122t-111.5 -77zM310 912q31 0 52.5 -21t21.5 -52t-21.5 -52t-52.5 -21t-52.5 21t-21.5 52t21.5 52
t52.5 21z" />
    <glyph glyph-name="uni1E59" unicode="&#x1e59;" horiz-adv-x="429" 
d="M195 311v-311h-118v493l117 20v-128q56 75 93 102t78 27q15 0 32 -4l8 -125q-11 3 -30 3q-82 0 -180 -77zM239 598q-31 0 -52 21t-21 51t21 51t52 21t52 -21t21 -51t-21 -51t-52 -21z" />
    <glyph glyph-name="uni1E5A" unicode="&#x1e5a;" horiz-adv-x="650" 
d="M307 593h-92v-223h88q58 0 94.5 31.5t36.5 82.5q0 49 -35 79t-92 30zM409 289l250 -289h-154l-227 268h-61v-268h-126v700h222q114 0 181 -56.5t67 -155.5q0 -69 -40.5 -122t-111.5 -77zM350 -223q-31 0 -52 21t-21 51t21 51t52 21t52 -21t21 -51t-21 -51t-52 -21z" />
    <glyph glyph-name="uni1E5B" unicode="&#x1e5b;" horiz-adv-x="429" 
d="M195 311v-311h-118v493l117 20v-128q56 75 93 102t78 27q15 0 32 -4l8 -125q-11 3 -30 3q-82 0 -180 -77zM136 -223q-31 0 -52 21t-21 51t21 51t52 21t52 -21t21 -51t-21 -51t-52 -21z" />
    <glyph glyph-name="uni1E5C" unicode="&#x1e5c;" horiz-adv-x="650" 
d="M307 593h-92v-223h88q58 0 94.5 31.5t36.5 82.5q0 49 -35 79t-92 30zM409 289l250 -289h-154l-227 268h-61v-268h-126v700h222q114 0 181 -56.5t67 -155.5q0 -69 -40.5 -122t-111.5 -77zM497 792h-374v83h374v-83zM350 -223q-31 0 -52 21t-21 51t21 51t52 21t52 -21
t21 -51t-21 -51t-52 -21z" />
    <glyph glyph-name="uni1E5D" unicode="&#x1e5d;" horiz-adv-x="429" 
d="M195 311v-311h-118v493l117 20v-128q56 75 93 102t78 27q15 0 32 -4l8 -125q-11 3 -30 3q-82 0 -180 -77zM386 625h-294v82h294v-82zM136 -223q-31 0 -52 21t-21 51t21 51t52 21t52 -21t21 -51t-21 -51t-52 -21z" />
    <glyph glyph-name="uni1E5E" unicode="&#x1e5e;" horiz-adv-x="650" 
d="M307 593h-92v-223h88q58 0 94.5 31.5t36.5 82.5q0 49 -35 79t-92 30zM409 289l250 -289h-154l-227 268h-61v-268h-126v700h222q114 0 181 -56.5t67 -155.5q0 -69 -40.5 -122t-111.5 -77zM526 -187h-352v82h352v-82z" />
    <glyph glyph-name="uni1E5F" unicode="&#x1e5f;" horiz-adv-x="429" 
d="M195 311v-311h-118v493l117 20v-128q56 75 93 102t78 27q15 0 32 -4l8 -125q-11 3 -30 3q-82 0 -180 -77zM283 -187h-294v82h294v-82z" />
    <glyph glyph-name="uni1E62" unicode="&#x1e62;" horiz-adv-x="560" 
d="M246 304q-101 42 -143.5 90.5t-42.5 119.5q0 90 62 144t164 54q109 0 191 -52v-131h-2q-101 71 -193 71q-46 0 -72.5 -20t-26.5 -55t27 -58q25 -23 111 -61q102 -44 144.5 -92t42.5 -120q0 -94 -66 -149q-66 -57 -173 -57q-118 0 -209 67l-25 152l2 2q57 -51 120 -80
t116 -29q52 0 82 22.5t30 62.5q0 35 -28 60q-26 24 -111 59zM268 -228q-31 0 -52 21t-21 51t21 51t52 21t52 -21t21 -51t-21 -51t-52 -21z" />
    <glyph glyph-name="uni1E63" unicode="&#x1e63;" horiz-adv-x="509" 
d="M289 303q101 -24 140 -60q38 -36 38 -99q0 -68 -59 -112q-58 -43 -152 -43q-104 0 -198 58l-20 125l3 2q113 -88 225 -88q40 0 64.5 14.5t24.5 37.5q0 25 -25 40q-27 14 -101 32q-97 24 -136 59t-39 93q0 69 56.5 112t148.5 43q91 0 170 -45v-112l-3 -2q-95 62 -176 62
q-39 0 -61.5 -13t-22.5 -35q0 -24 25 -38t98 -31zM247 -225q-31 0 -52 21t-21 51t21 51t52 21t52 -21t21 -51t-21 -51t-52 -21z" />
    <glyph glyph-name="uni1E6C" unicode="&#x1e6c;" horiz-adv-x="722" 
d="M35 700h652v-113h-263v-587h-126v587h-263v113zM361 -223q-31 0 -52 21t-21 51t21 51t52 21t52 -21t21 -51t-21 -51t-52 -21z" />
    <glyph glyph-name="uni1E6D" unicode="&#x1e6d;" horiz-adv-x="458" 
d="M416 138l3 -2l-22 -113q-53 -34 -120 -34q-78 0 -121 47t-43 134v239h-82v97h82v109l116 36v-145h187v-97h-187v-232q0 -84 80 -84q53 0 107 45zM259 -223q-31 0 -52 21t-21 51t21 51t52 21t52 -21t21 -51t-21 -51t-52 -21z" />
    <glyph glyph-name="uni1E6E" unicode="&#x1e6e;" horiz-adv-x="722" 
d="M35 700h652v-113h-263v-587h-126v587h-263v113zM537 -187h-352v82h352v-82z" />
    <glyph glyph-name="uni1E6F" unicode="&#x1e6f;" horiz-adv-x="458" 
d="M416 138l3 -2l-22 -113q-53 -34 -120 -34q-78 0 -121 47t-43 134v239h-82v97h82v109l116 36v-145h187v-97h-187v-232q0 -84 80 -84q53 0 107 45zM406 -187h-294v82h294v-82z" />
    <glyph glyph-name="uni1E70" unicode="&#x1e70;" horiz-adv-x="722" 
d="M35 700h652v-113h-263v-587h-126v587h-263v113zM543 -256v-2h-57l-124 91l-125 -91h-58v2l130 174h104z" />
    <glyph glyph-name="uni1E71" unicode="&#x1e71;" horiz-adv-x="458" 
d="M416 138l3 -2l-22 -113q-53 -34 -120 -34q-78 0 -121 47t-43 134v239h-82v97h82v109l116 36v-145h187v-97h-187v-232q0 -84 80 -84q53 0 107 45zM441 -256v-2h-57l-124 91l-125 -91h-58v2l130 174h104z" />
    <glyph glyph-name="uni1E7E" unicode="&#x1e7e;" horiz-adv-x="780" 
d="M757 700l-341 -714h-60l-331 714h140l226 -511l231 511h135zM387 -231q-31 0 -52 21t-21 51t21 51t52 21t52 -21t21 -51t-21 -51t-52 -21z" />
    <glyph glyph-name="uni1E7F" unicode="&#x1e7f;" horiz-adv-x="586" 
d="M571 506l-260 -519h-51l-243 519h129l144 -334l154 334h127zM287 -223q-31 0 -52 21t-21 51t21 51t52 21t52 -21t21 -51t-21 -51t-52 -21z" />
    <glyph glyph-name="Wgrave" unicode="&#x1e80;" horiz-adv-x="1166" 
d="M582 445l-195 -449h-121l-234 704h137l166 -537l243 546h17l234 -545l174 536h133l-244 -704h-121zM379 916h163l80 -147h-63l-180 145v2z" />
    <glyph glyph-name="wgrave" unicode="&#x1e81;" horiz-adv-x="884" 
d="M440 288l-142 -295h-99l-177 513h125l113 -358l177 364h16l165 -364l125 358h121l-191 -513h-99zM242 778h151l83 -176h-56l-178 174v2z" />
    <glyph glyph-name="Wacute" unicode="&#x1e82;" horiz-adv-x="1166" 
d="M582 445l-195 -449h-121l-234 704h137l166 -537l243 546h17l234 -545l174 536h133l-244 -704h-121zM795 914l-180 -145h-63l80 147h163v-2z" />
    <glyph glyph-name="wacute" unicode="&#x1e83;" horiz-adv-x="884" 
d="M440 288l-142 -295h-99l-177 513h125l113 -358l177 364h16l165 -364l125 358h121l-191 -513h-99zM650 776l-178 -174h-56l83 176h151v-2z" />
    <glyph glyph-name="Wdieresis" unicode="&#x1e84;" horiz-adv-x="1166" 
d="M582 445l-195 -449h-121l-234 704h137l166 -537l243 546h17l234 -545l174 536h133l-244 -704h-121zM694 913q31 0 52.5 -21.5t21.5 -52.5t-21.5 -52t-52.5 -21t-52.5 21t-21.5 52t21.5 52.5t52.5 21.5zM480 913q31 0 52.5 -21.5t21.5 -52.5t-21.5 -52t-52.5 -21t-52.5 21
t-21.5 52t21.5 52.5t52.5 21.5z" />
    <glyph glyph-name="wdieresis" unicode="&#x1e85;" horiz-adv-x="884" 
d="M440 288l-142 -295h-99l-177 513h125l113 -358l177 364h16l165 -364l125 358h121l-191 -513h-99zM553 599q-31 0 -52 21t-21 52q0 30 21 51t52 21t52 -21t21 -51q0 -31 -21 -52t-52 -21zM339 599q-31 0 -52 21t-21 52q0 30 21 51t52 21t52 -21t21 -51q0 -31 -21 -52
t-52 -21z" />
    <glyph glyph-name="uni1E8C" unicode="&#x1e8c;" horiz-adv-x="750" 
d="M451 356l272 -356h-149l-201 266l-199 -266h-145l270 354l-263 346h149l192 -255l191 255h146zM483 913q31 0 52.5 -21.5t21.5 -52.5t-21.5 -52t-52.5 -21t-52.5 21t-21.5 52t21.5 52.5t52.5 21.5zM269 913q31 0 52.5 -21.5t21.5 -52.5t-21.5 -52t-52.5 -21t-52.5 21
t-21.5 52t21.5 52.5t52.5 21.5z" />
    <glyph glyph-name="uni1E8D" unicode="&#x1e8d;" horiz-adv-x="576" 
d="M359 261l194 -261h-137l-130 180l-131 -180h-133l195 259l-183 247h136l120 -166l119 166h133zM395 599q-31 0 -52 21t-21 52q0 30 21 51t52 21t52 -21t21 -51q0 -31 -21 -52t-52 -21zM181 599q-31 0 -52 21t-21 52q0 30 21 51t52 21t52 -21t21 -51q0 -31 -21 -52
t-52 -21z" />
    <glyph glyph-name="uni1E8E" unicode="&#x1e8e;" horiz-adv-x="683" 
d="M675 700l-270 -397v-303h-126v301l-270 399h148l188 -285l187 285h143zM342 912q31 0 52.5 -21t21.5 -52t-21.5 -52t-52.5 -21t-52.5 21t-21.5 52t21.5 52t52.5 21z" />
    <glyph glyph-name="uni1E8F" unicode="&#x1e8f;" horiz-adv-x="568" 
d="M132 -194q-45 0 -87 18l-23 114l3 2q43 -25 86 -25q73 0 106 80l14 32l-212 479h129l143 -347l132 347h127l-221 -542q-65 -158 -197 -158zM285 598q-31 0 -52 21t-21 51t21 51t52 21t52 -21t21 -51t-21 -51t-52 -21z" />
    <glyph glyph-name="uni1E90" unicode="&#x1e90;" horiz-adv-x="704" 
d="M244 112h426l-51 -112h-579l-8 15l418 573h-385v112h591l7 -15zM537 771v-2h-67l-116 70l-116 -70h-69v2l127 145h114z" />
    <glyph glyph-name="uni1E91" unicode="&#x1e91;" horiz-adv-x="544" 
d="M215 97h295l-32 -97h-449l-5 15l290 393h-255v98h442l5 -15zM461 604v-2h-57l-124 91l-125 -91h-58v2l130 174h104z" />
    <glyph glyph-name="uni1E92" unicode="&#x1e92;" horiz-adv-x="704" 
d="M244 112h426l-51 -112h-579l-8 15l418 573h-385v112h591l7 -15zM351 -223q-31 0 -52 21t-21 51t21 51t52 21t52 -21t21 -51t-21 -51t-52 -21z" />
    <glyph glyph-name="uni1E93" unicode="&#x1e93;" horiz-adv-x="544" 
d="M215 97h295l-32 -97h-449l-5 15l290 393h-255v98h442l5 -15zM266 -223q-31 0 -52 21t-21 51t21 51t52 21t52 -21t21 -51t-21 -51t-52 -21z" />
    <glyph glyph-name="uni1E94" unicode="&#x1e94;" horiz-adv-x="704" 
d="M244 112h426l-51 -112h-579l-8 15l418 573h-385v112h591l7 -15zM527 -187h-352v82h352v-82z" />
    <glyph glyph-name="uni1E95" unicode="&#x1e95;" horiz-adv-x="544" 
d="M215 97h295l-32 -97h-449l-5 15l290 393h-255v98h442l5 -15zM442 -187h-352v82h352v-82z" />
    <glyph glyph-name="uni1E96" unicode="&#x1e96;" horiz-adv-x="612" 
d="M328 411q-34 0 -63.5 -16t-69.5 -56v-339h-118v722l118 37v-344q75 101 175 101q80 0 127.5 -53t47.5 -143v-320h-119v302q0 52 -25.5 80.5t-72.5 28.5zM486 -187h-352v82h352v-82z" />
    <glyph glyph-name="uni1E9E" unicode="&#x1e9e;" horiz-adv-x="714" 
d="M671 183q0 -85 -60 -140q-59 -55 -155 -55q-72 0 -135 27l-23 130l2 1q81 -47 149 -47q44 0 72 24.5t28 62.5q0 45 -44 74q-40 26 -179 68l-5 15l162 229q-47 28 -115 28q-76 0 -118 -47t-42 -132v-421h-125v417q0 140 76 218.5t212 78.5q72 0 141 -26t120 -72v-14
l-151 -214q106 -36 148 -82t42 -123z" />
    <glyph glyph-name="uni1EA0" unicode="&#x1ea0;" horiz-adv-x="800" 
d="M401 565l-130 -295h255zM467 703l308 -703h-136l-69 163h-344l-72 -163h-130l318 703h125zM399 -223q-31 0 -52 21t-21 51t21 51t52 21t52 -21t21 -51t-21 -51t-52 -21z" />
    <glyph glyph-name="uni1EA1" unicode="&#x1ea1;" horiz-adv-x="572" 
d="M505 300v-288l-116 -20v83q-105 -83 -194 -83q-67 0 -107.5 37t-40.5 99q0 167 341 171q-2 113 -108 113q-83 0 -177 -69l-3 1l22 120q82 51 179 51q99 0 151.5 -55t52.5 -160zM160 137q0 -25 17.5 -39.5t49.5 -14.5q57 0 161 56v94q-228 -16 -228 -96zM291 -223
q-31 0 -52 21t-21 51t21 51t52 21t52 -21t21 -51t-21 -51t-52 -21z" />
    <glyph glyph-name="uni1EA2" unicode="&#x1ea2;" horiz-adv-x="800" 
d="M401 565l-130 -295h255zM467 703l308 -703h-136l-69 163h-344l-72 -163h-130l318 703h125zM534 880q0 -30 -25 -55t-95 -63l-61 17v2q62 41 76 54q17 14 17 26q0 23 -39 23q-48 0 -114 -37h-2v73q59 35 127 35q55 0 85.5 -20t30.5 -55z" />
    <glyph glyph-name="uni1EA3" unicode="&#x1ea3;" horiz-adv-x="572" 
d="M505 300v-288l-116 -20v83q-105 -83 -194 -83q-67 0 -107.5 37t-40.5 99q0 167 341 171q-2 113 -108 113q-83 0 -177 -69l-3 1l22 120q82 51 179 51q99 0 151.5 -55t52.5 -160zM160 137q0 -25 17.5 -39.5t49.5 -14.5q57 0 161 56v94q-228 -16 -228 -96zM430 738
q0 -32 -24 -64q-26 -32 -96 -81l-61 18v2q53 45 75 68q18 19 18 37q0 29 -38 29q-49 0 -115 -49h-2v86q61 45 131 45q51 0 81.5 -25t30.5 -66z" />
    <glyph glyph-name="uni1EA4" unicode="&#x1ea4;" horiz-adv-x="800" 
d="M401 565l-130 -295h255zM467 703l308 -703h-136l-69 163h-344l-72 -163h-130l318 703h125zM744 995l-155 -114h-62l67 116h150v-2zM587 771v-2h-67l-116 69l-116 -69h-69v2l127 143h114z" />
    <glyph glyph-name="uni1EA5" unicode="&#x1ea5;" horiz-adv-x="572" 
d="M505 300v-288l-116 -20v83q-105 -83 -194 -83q-67 0 -107.5 37t-40.5 99q0 167 341 171q-2 113 -108 113q-83 0 -177 -69l-3 1l22 120q82 51 179 51q99 0 151.5 -55t52.5 -160zM160 137q0 -25 17.5 -39.5t49.5 -14.5q57 0 161 56v94q-228 -16 -228 -96zM617 865
l-133 -132h-51l62 133h122v-1zM482 604v-2h-56l-125 70l-125 -70h-58v2l130 147h104z" />
    <glyph glyph-name="uni1EA6" unicode="&#x1ea6;" horiz-adv-x="800" 
d="M401 565l-130 -295h255zM467 703l308 -703h-136l-69 163h-344l-72 -163h-130l318 703h125zM469 997h149l67 -116h-61l-155 114v2zM587 771v-2h-67l-116 69l-116 -69h-69v2l127 143h114z" />
    <glyph glyph-name="uni1EA7" unicode="&#x1ea7;" horiz-adv-x="572" 
d="M505 300v-288l-116 -20v83q-105 -83 -194 -83q-67 0 -107.5 37t-40.5 99q0 167 341 171q-2 113 -108 113q-83 0 -177 -69l-3 1l22 120q82 51 179 51q99 0 151.5 -55t52.5 -160zM160 137q0 -25 17.5 -39.5t49.5 -14.5q57 0 161 56v94q-228 -16 -228 -96zM362 866h123
l61 -133h-51l-133 132v1zM482 604v-2h-56l-125 70l-125 -70h-58v2l130 147h104z" />
    <glyph glyph-name="uni1EA8" unicode="&#x1ea8;" horiz-adv-x="800" 
d="M401 565l-130 -295h255zM467 703l308 -703h-136l-69 163h-344l-72 -163h-130l318 703h125zM694 977q0 -25 -21 -45t-82 -52l-54 14v2q46 28 62.5 41.5t16.5 23.5q0 17 -28 17q-46 0 -101 -30h-1v61q51 29 113 29q44 0 69.5 -16.5t25.5 -44.5zM587 771v-2h-67l-116 69
l-116 -69h-69v2l127 143h114z" />
    <glyph glyph-name="uni1EA9" unicode="&#x1ea9;" horiz-adv-x="572" 
d="M505 300v-288l-116 -20v83q-105 -83 -194 -83q-67 0 -107.5 37t-40.5 99q0 167 341 171q-2 113 -108 113q-83 0 -177 -69l-3 1l22 120q82 51 179 51q99 0 151.5 -55t52.5 -160zM160 137q0 -25 17.5 -39.5t49.5 -14.5q57 0 161 56v94q-228 -16 -228 -96zM608 829
q0 -25 -19 -47q-21 -24 -86 -64l-54 15v2q49 34 65.5 49t16.5 28q0 23 -32 23q-41 0 -102 -37h-2v66q53 35 115 35q45 0 71.5 -19t26.5 -51zM482 604v-2h-56l-125 70l-125 -70h-58v2l130 147h104z" />
    <glyph glyph-name="uni1EAA" unicode="&#x1eaa;" horiz-adv-x="800" 
d="M401 565l-130 -295h255zM467 703l308 -703h-136l-69 163h-344l-72 -163h-130l318 703h125zM416 1030q45 -23 61 -23q15 0 26 10q13 11 43 44l44 -32q-43 -61 -68 -82q-22 -19 -51 -19q-23 0 -81 29q-47 23 -61 23q-15 0 -25 -9q-14 -13 -44 -45l-44 31q44 63 68 82
q22 19 51 19q23 0 81 -28zM587 771v-2h-67l-116 56l-116 -56h-69v2l123 120h122z" />
    <glyph glyph-name="uni1EAB" unicode="&#x1eab;" horiz-adv-x="572" 
d="M505 300v-288l-116 -20v83q-105 -83 -194 -83q-67 0 -107.5 37t-40.5 99q0 167 341 171q-2 113 -108 113q-83 0 -177 -69l-3 1l22 120q82 51 179 51q99 0 151.5 -55t52.5 -160zM160 137q0 -25 17.5 -39.5t49.5 -14.5q57 0 161 56v94q-228 -16 -228 -96zM312 876
q42 -19 54 -19q13 0 23.5 8.5t37.5 39.5l44 -30q-41 -62 -62 -81q-21 -18 -46 -18q-20 0 -75 25q-41 20 -54 20q-12 0 -22 -8t-39 -40l-44 29q41 62 62 80t46 18q22 0 75 -24zM482 604v-2h-56l-125 62l-125 -62h-58v2l126 129h112z" />
    <glyph glyph-name="uni1EAC" unicode="&#x1eac;" horiz-adv-x="800" 
d="M401 565l-130 -295h255zM467 703l308 -703h-136l-69 163h-344l-72 -163h-130l318 703h125zM587 771v-2h-67l-116 70l-116 -70h-69v2l127 145h114zM399 -223q-31 0 -52 21t-21 51t21 51t52 21t52 -21t21 -51t-21 -51t-52 -21z" />
    <glyph glyph-name="uni1EAD" unicode="&#x1ead;" horiz-adv-x="572" 
d="M505 300v-288l-116 -20v83q-105 -83 -194 -83q-67 0 -107.5 37t-40.5 99q0 167 341 171q-2 113 -108 113q-83 0 -177 -69l-3 1l22 120q82 51 179 51q99 0 151.5 -55t52.5 -160zM160 137q0 -25 17.5 -39.5t49.5 -14.5q57 0 161 56v94q-228 -16 -228 -96zM482 604v-2h-57
l-124 91l-125 -91h-58v2l130 174h104zM291 -223q-31 0 -52 21t-21 51t21 51t52 21t52 -21t21 -51t-21 -51t-52 -21z" />
    <glyph glyph-name="uni1EAE" unicode="&#x1eae;" horiz-adv-x="800" 
d="M401 565l-130 -295h255zM467 703l308 -703h-136l-69 163h-344l-72 -163h-130l318 703h125zM570 1037l-152 -123h-56l62 124h146v-1zM403 767q-119 0 -191 112l40 36q76 -60 151 -60t151 60l40 -36q-72 -112 -191 -112z" />
    <glyph glyph-name="uni1EAF" unicode="&#x1eaf;" horiz-adv-x="572" 
d="M505 300v-288l-116 -20v83q-105 -83 -194 -83q-67 0 -107.5 37t-40.5 99q0 167 341 171q-2 113 -108 113q-83 0 -177 -69l-3 1l22 120q82 51 179 51q99 0 151.5 -55t52.5 -160zM160 137q0 -25 17.5 -39.5t49.5 -14.5q57 0 161 56v94q-228 -16 -228 -96zM467 889
l-150 -130h-52l61 132h141v-2zM299 595q-110 0 -182 111l42 37q70 -65 139 -65t141 68l42 -35q-71 -116 -182 -116z" />
    <glyph glyph-name="uni1EB0" unicode="&#x1eb0;" horiz-adv-x="800" 
d="M401 565l-130 -295h255zM467 703l308 -703h-136l-69 163h-344l-72 -163h-130l318 703h125zM236 1038h146l62 -124h-56l-152 123v1zM403 767q-119 0 -191 112l40 36q76 -60 151 -60t151 60l40 -36q-72 -112 -191 -112z" />
    <glyph glyph-name="uni1EB1" unicode="&#x1eb1;" horiz-adv-x="572" 
d="M505 300v-288l-116 -20v83q-105 -83 -194 -83q-67 0 -107.5 37t-40.5 99q0 167 341 171q-2 113 -108 113q-83 0 -177 -69l-3 1l22 120q82 51 179 51q99 0 151.5 -55t52.5 -160zM160 137q0 -25 17.5 -39.5t49.5 -14.5q57 0 161 56v94q-228 -16 -228 -96zM133 891h141
l61 -132h-52l-150 130v2zM299 595q-108 0 -182 111l42 37q70 -65 139 -65t141 68l42 -35q-71 -116 -182 -116z" />
    <glyph glyph-name="uni1EB2" unicode="&#x1eb2;" horiz-adv-x="800" 
d="M401 565l-130 -295h255zM467 703l308 -703h-136l-69 163h-344l-72 -163h-130l318 703h125zM523 1018q0 -23 -22 -45q-23 -23 -90 -60l-58 16v1q52 33 68 46.5t16 24.5q0 19 -31 19q-43 0 -106 -33h-1v66q58 31 120 31q47 0 75.5 -18.5t28.5 -47.5zM403 767
q-119 0 -191 112l40 36q76 -60 151 -60t151 60l40 -36q-72 -112 -191 -112z" />
    <glyph glyph-name="uni1EB3" unicode="&#x1eb3;" horiz-adv-x="572" 
d="M505 300v-288l-116 -20v83q-105 -83 -194 -83q-67 0 -107.5 37t-40.5 99q0 167 341 171q-2 113 -108 113q-83 0 -177 -69l-3 1l22 120q82 51 179 51q99 0 151.5 -55t52.5 -160zM160 137q0 -25 17.5 -39.5t49.5 -14.5q57 0 161 56v94q-228 -16 -228 -96zM416 859
q0 -26 -23 -50t-84 -60l-54 15v2q49 33 65.5 48t16.5 28q0 23 -32 23q-46 0 -104 -37h-1v67q49 34 117 34q46 0 72.5 -19t26.5 -51zM299 595q-110 0 -182 111l42 37q70 -65 139 -65t141 68l42 -35q-71 -116 -182 -116z" />
    <glyph glyph-name="uni1EB4" unicode="&#x1eb4;" horiz-adv-x="800" 
d="M401 565l-130 -295h255zM467 703l308 -703h-136l-69 163h-344l-72 -163h-130l318 703h125zM424 1046q43 -23 60 -23q14 0 25.5 9t43.5 44l45 -32q-42 -58 -68 -80q-25 -20 -53 -20q-24 0 -81 28q-45 22 -60 22q-14 0 -25 -8q-11 -9 -42 -42l-45 32q44 61 66 79
q23 19 53 19q23 0 81 -28zM403 767q-119 0 -191 112l40 36q76 -60 151 -60t151 60l40 -36q-72 -112 -191 -112z" />
    <glyph glyph-name="uni1EB5" unicode="&#x1eb5;" horiz-adv-x="572" 
d="M505 300v-288l-116 -20v83q-105 -83 -194 -83q-67 0 -107.5 37t-40.5 99q0 167 341 171q-2 113 -108 113q-83 0 -177 -69l-3 1l22 120q82 51 179 51q99 0 151.5 -55t52.5 -160zM160 137q0 -25 17.5 -39.5t49.5 -14.5q57 0 161 56v94q-228 -16 -228 -96zM315 882
q41 -20 54 -20q15 0 26.5 8t39.5 37l44 -31q-45 -62 -66 -78q-22 -17 -45 -17q-26 0 -83 28q-41 20 -54 20q-14 0 -25 -7.5t-41 -37.5l-44 30q45 62 66 78q22 17 45 17t83 -27zM299 595q-110 0 -182 111l42 37q70 -65 139 -65t141 68l42 -35q-71 -116 -182 -116z" />
    <glyph glyph-name="uni1EB6" unicode="&#x1eb6;" horiz-adv-x="800" 
d="M401 565l-130 -295h255zM467 703l308 -703h-136l-69 163h-344l-72 -163h-130l318 703h125zM403 767q-118 0 -191 123l46 37q41 -39 74 -55t71 -16t71 16t74 55l46 -37q-73 -123 -191 -123zM399 -223q-31 0 -52 21t-21 51t21 51t52 21t52 -21t21 -51t-21 -51t-52 -21z" />
    <glyph glyph-name="uni1EB7" unicode="&#x1eb7;" horiz-adv-x="572" 
d="M505 300v-288l-116 -20v83q-105 -83 -194 -83q-67 0 -107.5 37t-40.5 99q0 167 341 171q-2 113 -108 113q-83 0 -177 -69l-3 1l22 120q82 51 179 51q99 0 151.5 -55t52.5 -160zM160 137q0 -25 17.5 -39.5t49.5 -14.5q57 0 161 56v94q-228 -16 -228 -96zM300 595
q-110 0 -182 139l53 35q35 -44 65 -62.5t64 -18.5t64 18.5t65 62.5l53 -35q-72 -139 -182 -139zM291 -223q-31 0 -52 21t-21 51t21 51t52 21t52 -21t21 -51t-21 -51t-52 -21z" />
    <glyph glyph-name="uni1EB8" unicode="&#x1eb8;" horiz-adv-x="593" 
d="M539 111l-30 -111h-418v700h415l30 -111h-319v-181h266v-106h-266v-191h322zM310 -223q-31 0 -52 21t-21 51t21 51t52 21t52 -21t21 -51t-21 -51t-52 -21z" />
    <glyph glyph-name="uni1EB9" unicode="&#x1eb9;" horiz-adv-x="563" 
d="M286 425q-53 0 -88.5 -37t-42.5 -97h254q-5 63 -37.5 98.5t-85.5 35.5zM506 146l3 -2l-36 -113q-80 -42 -169 -42q-122 0 -193 72q-72 71 -72 192q0 111 72 189q71 78 178 78q108 0 172 -73q63 -73 63 -190q0 -19 -3 -43h-365q11 -60 54.5 -92.5t110.5 -32.5q90 0 185 57
zM298 -228q-31 0 -52 21t-21 51t21 51t52 21t52 -21t21 -51t-21 -51t-52 -21z" />
    <glyph glyph-name="uni1EBA" unicode="&#x1eba;" horiz-adv-x="593" 
d="M539 111l-30 -111h-418v700h415l30 -111h-319v-181h266v-106h-266v-191h322zM441 880q0 -30 -25 -55t-95 -63l-61 17v2q62 41 76 54q17 14 17 26q0 23 -39 23q-48 0 -114 -37h-2v73q59 35 127 35q55 0 85.5 -20t30.5 -55z" />
    <glyph glyph-name="uni1EBB" unicode="&#x1ebb;" horiz-adv-x="563" 
d="M286 425q-53 0 -88.5 -37t-42.5 -97h254q-5 63 -37.5 98.5t-85.5 35.5zM506 146l3 -2l-36 -113q-80 -42 -169 -42q-122 0 -193 72q-72 71 -72 192q0 111 72 189q71 78 178 78q108 0 172 -73q63 -73 63 -190q0 -19 -3 -43h-365q11 -60 54.5 -92.5t110.5 -32.5q90 0 185 57
zM422 743q0 -33 -24 -64q-26 -31 -96 -81l-61 18v2q53 45 75 68q18 20 18 37q0 29 -38 29q-49 0 -115 -49h-2v86q61 45 131 45q51 0 81.5 -25t30.5 -66z" />
    <glyph glyph-name="uni1EBC" unicode="&#x1ebc;" horiz-adv-x="593" 
d="M539 111l-30 -111h-418v700h415l30 -111h-319v-181h266v-106h-266v-191h322zM327 881q48 -25 63 -25q14 0 27 10q12 10 46 49l47 -36q-44 -66 -70 -89t-57 -23q-23 0 -86 31q-48 25 -64 25q-15 0 -26 -10q-12 -9 -47 -49l-47 36q44 66 71 90q25 22 56 22q24 0 87 -31z
" />
    <glyph glyph-name="uni1EBD" unicode="&#x1ebd;" horiz-adv-x="563" 
d="M286 425q-53 0 -88.5 -37t-42.5 -97h254q-5 63 -37.5 98.5t-85.5 35.5zM506 146l3 -2l-36 -113q-80 -42 -169 -42q-122 0 -193 72q-72 71 -72 192q0 111 72 189q71 78 178 78q108 0 172 -73q63 -73 63 -190q0 -19 -3 -43h-365q11 -60 54.5 -92.5t110.5 -32.5q90 0 185 57
zM307 728q48 -29 62 -29q11 0 21 9q9 8 49 60l54 -34q-49 -82 -73 -105q-25 -25 -56 -25q-21 0 -87 37q-48 29 -62 29q-12 0 -22 -10q-14 -14 -48 -59l-54 34q49 83 74 107q24 24 55 24q23 0 87 -38z" />
    <glyph glyph-name="uni1EBE" unicode="&#x1ebe;" horiz-adv-x="593" 
d="M539 111l-30 -111h-418v700h415l30 -111h-319v-181h266v-106h-266v-191h322zM651 995l-155 -114h-62l67 116h150v-2zM494 771v-2h-67l-116 69l-116 -69h-69v2l127 143h114z" />
    <glyph glyph-name="uni1EBF" unicode="&#x1ebf;" horiz-adv-x="563" 
d="M286 425q-53 0 -88.5 -37t-42.5 -97h254q-5 63 -37.5 98.5t-85.5 35.5zM506 146l3 -2l-36 -113q-80 -42 -169 -42q-122 0 -193 72q-72 71 -72 192q0 111 72 189q71 78 178 78q108 0 172 -73q63 -73 63 -190q0 -19 -3 -43h-365q11 -60 54.5 -92.5t110.5 -32.5q90 0 185 57
zM609 870l-133 -132h-51l62 133h122v-1zM474 609v-2h-56l-125 70l-125 -70h-58v2l130 147h104z" />
    <glyph glyph-name="uni1EC0" unicode="&#x1ec0;" horiz-adv-x="593" 
d="M539 111l-30 -111h-418v700h415l30 -111h-319v-181h266v-106h-266v-191h322zM376 997h149l67 -116h-61l-155 114v2zM494 771v-2h-67l-116 69l-116 -69h-69v2l127 143h114z" />
    <glyph glyph-name="uni1EC1" unicode="&#x1ec1;" horiz-adv-x="563" 
d="M286 425q-53 0 -88.5 -37t-42.5 -97h254q-5 63 -37.5 98.5t-85.5 35.5zM506 146l3 -2l-36 -113q-80 -42 -169 -42q-122 0 -193 72q-72 71 -72 192q0 111 72 189q71 78 178 78q108 0 172 -73q63 -73 63 -190q0 -19 -3 -43h-365q11 -60 54.5 -92.5t110.5 -32.5q90 0 185 57
zM354 871h123l61 -133h-51l-133 132v1zM474 609v-2h-56l-125 70l-125 -70h-58v2l130 147h104z" />
    <glyph glyph-name="uni1EC2" unicode="&#x1ec2;" horiz-adv-x="593" 
d="M539 111l-30 -111h-418v700h415l30 -111h-319v-181h266v-106h-266v-191h322zM601 977q0 -25 -21 -45t-82 -52l-54 14v2q46 28 62.5 41.5t16.5 23.5q0 17 -28 17q-45 0 -101 -30h-1v61q51 29 113 29q44 0 69.5 -16.5t25.5 -44.5zM494 771v-2h-67l-116 69l-116 -69h-69v2
l127 143h114z" />
    <glyph glyph-name="uni1EC3" unicode="&#x1ec3;" horiz-adv-x="563" 
d="M286 425q-53 0 -88.5 -37t-42.5 -97h254q-5 63 -37.5 98.5t-85.5 35.5zM506 146l3 -2l-36 -113q-80 -42 -169 -42q-122 0 -193 72q-72 71 -72 192q0 111 72 189q71 78 178 78q108 0 172 -73q63 -73 63 -190q0 -19 -3 -43h-365q11 -60 54.5 -92.5t110.5 -32.5q90 0 185 57
zM600 834q0 -25 -19 -47q-21 -24 -86 -64l-54 15v2q49 34 65.5 49t16.5 28q0 23 -32 23q-41 0 -102 -37h-2v66q53 35 115 35q45 0 71.5 -19t26.5 -51zM474 609v-2h-56l-125 70l-125 -70h-58v2l130 147h104z" />
    <glyph glyph-name="uni1EC4" unicode="&#x1ec4;" horiz-adv-x="593" 
d="M539 111l-30 -111h-418v700h415l30 -111h-319v-181h266v-106h-266v-191h322zM323 1030q45 -23 61 -23q15 0 26 10q13 11 43 44l44 -32q-43 -61 -68 -82q-22 -19 -51 -19q-23 0 -81 29q-47 23 -61 23t-25 -9q-14 -13 -44 -45l-44 31q44 63 68 82q22 19 51 19q23 0 81 -28z
M494 771v-2h-67l-116 56l-116 -56h-69v2l123 120h122z" />
    <glyph glyph-name="uni1EC5" unicode="&#x1ec5;" horiz-adv-x="563" 
d="M286 425q-53 0 -88.5 -37t-42.5 -97h254q-5 63 -37.5 98.5t-85.5 35.5zM506 146l3 -2l-36 -113q-80 -42 -169 -42q-122 0 -193 72q-72 71 -72 192q0 111 72 189q71 78 178 78q108 0 172 -73q63 -73 63 -190q0 -19 -3 -43h-365q11 -60 54.5 -92.5t110.5 -32.5q90 0 185 57
zM304 881q42 -19 54 -19q13 0 23.5 8.5t37.5 39.5l44 -30q-41 -62 -62 -81q-21 -18 -46 -18q-20 0 -75 25q-41 20 -54 20q-12 0 -22 -8t-39 -40l-44 29q41 62 62 80t46 18q22 0 75 -24zM474 609v-2h-56l-125 62l-125 -62h-58v2l126 129h112z" />
    <glyph glyph-name="uni1EC6" unicode="&#x1ec6;" horiz-adv-x="593" 
d="M539 111l-30 -111h-418v700h415l30 -111h-319v-181h266v-106h-266v-191h322zM494 771v-2h-67l-116 70l-116 -70h-69v2l127 145h114zM310 -223q-31 0 -52 21t-21 51t21 51t52 21t52 -21t21 -51t-21 -51t-52 -21z" />
    <glyph glyph-name="uni1EC7" unicode="&#x1ec7;" horiz-adv-x="563" 
d="M286 425q-53 0 -88.5 -37t-42.5 -97h254q-5 63 -37.5 98.5t-85.5 35.5zM506 146l3 -2l-36 -113q-80 -42 -169 -42q-122 0 -193 72q-72 71 -72 192q0 111 72 189q71 78 178 78q108 0 172 -73q63 -73 63 -190q0 -19 -3 -43h-365q11 -60 54.5 -92.5t110.5 -32.5q90 0 185 57
zM474 609v-2h-57l-124 91l-125 -91h-58v2l130 174h104zM298 -228q-31 0 -52 21t-21 51t21 51t52 21t52 -21t21 -51t-21 -51t-52 -21z" />
    <glyph glyph-name="uni1EC8" unicode="&#x1ec8;" horiz-adv-x="318" 
d="M222 700v-700h-126v700h126zM290 880q0 -30 -25 -55t-95 -63l-61 17v2q62 41 76 54q17 14 17 26q0 23 -39 23q-48 0 -114 -37h-2v73q59 35 127 35q55 0 85.5 -20t30.5 -55z" />
    <glyph glyph-name="uni1EC9" unicode="&#x1ec9;" horiz-adv-x="282" 
d="M200 506v-506h-118v506h118zM271 738q0 -32 -24 -64q-25 -32 -96 -81l-61 18v2q53 45 75 68q18 19 18 37q0 29 -38 29q-49 0 -115 -49h-2v86q61 45 131 45q51 0 81.5 -25t30.5 -66z" />
    <glyph glyph-name="uni1ECA" unicode="&#x1eca;" horiz-adv-x="318" 
d="M222 700v-700h-126v700h126zM159 -223q-31 0 -52 21t-21 51t21 51t52 21t52 -21t21 -51t-21 -51t-52 -21z" />
    <glyph glyph-name="uni1ECB" unicode="&#x1ecb;" horiz-adv-x="282" 
d="M141 755q32 0 54 -21.5t22 -52.5t-22 -52.5t-54 -21.5t-54 21.5t-22 52.5t22 52.5t54 21.5zM200 506v-506h-118v506h118zM141 -223q-31 0 -52 21t-21 51t21 51t52 21t52 -21t21 -51t-21 -51t-52 -21z" />
    <glyph glyph-name="uni1ECC" unicode="&#x1ecc;" horiz-adv-x="836" 
d="M417 -14q-157 0 -262 105q-105 103 -105 258q0 153 107 260q107 105 262 105q156 0 263 -104q105 -105 105 -259t-106 -259q-106 -106 -264 -106zM415 598q-99 0 -167 -71q-69 -72 -69 -176q0 -105 69 -177t169 -72q99 0 170 72q70 71 70 175t-70 177q-71 72 -172 72z
M418 -228q-31 0 -52 21t-21 51t21 51t52 21t52 -21t21 -51t-21 -51t-52 -21z" />
    <glyph glyph-name="uni1ECD" unicode="&#x1ecd;" horiz-adv-x="616" 
d="M307 -14q-117 0 -192 77q-76 76 -76 189q0 110 77 190q76 78 193 78q118 0 193 -76t75 -189q0 -111 -77 -190q-76 -79 -193 -79zM459 255q0 69 -42 115q-43 46 -108 46t-109 -47q-43 -46 -43 -117q0 -70 43 -116q42 -47 107 -47t109 48q43 46 43 118zM308 -228
q-31 0 -52 21t-21 51t21 51t52 21t52 -21t21 -51t-21 -51t-52 -21z" />
    <glyph glyph-name="uni1ECE" unicode="&#x1ece;" horiz-adv-x="836" 
d="M417 -14q-157 0 -262 105q-105 103 -105 258q0 153 107 260q107 105 262 105q156 0 263 -104q105 -105 105 -259t-106 -259q-106 -106 -264 -106zM415 598q-99 0 -167 -71q-69 -72 -69 -176q0 -105 69 -177t169 -72q99 0 170 72q70 71 70 175t-70 177q-71 72 -172 72z
M549 885q0 -30 -25 -55t-95 -63l-61 17v2q62 41 76 54q17 14 17 26q0 23 -39 23q-48 0 -114 -37h-2v73q59 35 127 35q55 0 85.5 -20t30.5 -55z" />
    <glyph glyph-name="uni1ECF" unicode="&#x1ecf;" horiz-adv-x="616" 
d="M307 -14q-117 0 -192 77q-76 76 -76 189q0 110 77 190q76 78 193 78q118 0 193 -76t75 -189q0 -111 -77 -190q-76 -79 -193 -79zM459 255q0 69 -42 115q-43 46 -108 46t-109 -47q-43 -46 -43 -117q0 -70 43 -116q42 -47 107 -47t109 48q43 46 43 118zM438 743
q0 -33 -24 -64q-26 -31 -96 -81l-61 18v2q53 45 75 68q18 20 18 37q0 29 -38 29q-49 0 -115 -49h-2v86q61 45 131 45q51 0 81.5 -25t30.5 -66z" />
    <glyph glyph-name="uni1ED0" unicode="&#x1ed0;" horiz-adv-x="836" 
d="M417 -14q-157 0 -262 105q-105 103 -105 258q0 153 107 260q107 105 262 105q156 0 263 -104q105 -105 105 -259t-106 -259q-106 -106 -264 -106zM415 598q-99 0 -167 -71q-69 -72 -69 -176q0 -105 69 -177t169 -72q99 0 170 72q70 71 70 175t-70 177q-71 72 -172 72z
M759 1000l-155 -114h-62l67 116h150v-2zM602 776v-2h-67l-116 69l-116 -69h-69v2l127 143h114z" />
    <glyph glyph-name="uni1ED1" unicode="&#x1ed1;" horiz-adv-x="616" 
d="M307 -14q-117 0 -192 77q-76 76 -76 189q0 110 77 190q76 78 193 78q118 0 193 -76t75 -189q0 -111 -77 -190q-76 -79 -193 -79zM459 255q0 69 -42 115q-43 46 -108 46t-109 -47q-43 -46 -43 -117q0 -70 43 -116q42 -47 107 -47t109 48q43 46 43 118zM625 870l-133 -132
h-51l62 133h122v-1zM490 609v-2h-56l-125 70l-125 -70h-58v2l130 147h104z" />
    <glyph glyph-name="uni1ED2" unicode="&#x1ed2;" horiz-adv-x="836" 
d="M417 -14q-157 0 -262 105q-105 103 -105 258q0 153 107 260q107 105 262 105q156 0 263 -104q105 -105 105 -259t-106 -259q-106 -106 -264 -106zM415 598q-99 0 -167 -71q-69 -72 -69 -176q0 -105 69 -177t169 -72q99 0 170 72q70 71 70 175t-70 177q-71 72 -172 72z
M484 1002h149l67 -116h-61l-155 114v2zM602 776v-2h-67l-116 69l-116 -69h-69v2l127 143h114z" />
    <glyph glyph-name="uni1ED3" unicode="&#x1ed3;" horiz-adv-x="616" 
d="M307 -14q-117 0 -192 77q-76 76 -76 189q0 110 77 190q76 78 193 78q118 0 193 -76t75 -189q0 -111 -77 -190q-76 -79 -193 -79zM459 255q0 69 -42 115q-43 46 -108 46t-109 -47q-43 -46 -43 -117q0 -70 43 -116q42 -47 107 -47t109 48q43 46 43 118zM370 871h123
l61 -133h-51l-133 132v1zM490 609v-2h-56l-125 70l-125 -70h-58v2l130 147h104z" />
    <glyph glyph-name="uni1ED4" unicode="&#x1ed4;" horiz-adv-x="836" 
d="M417 -14q-157 0 -262 105q-105 103 -105 258q0 153 107 260q107 105 262 105q156 0 263 -104q105 -105 105 -259t-106 -259q-106 -106 -264 -106zM415 598q-99 0 -167 -71q-69 -72 -69 -176q0 -105 69 -177t169 -72q99 0 170 72q70 71 70 175t-70 177q-71 72 -172 72z
M709 982q0 -25 -21 -45t-82 -52l-54 14v2q46 28 62.5 41.5t16.5 23.5q0 17 -28 17q-45 0 -101 -30h-1v61q51 29 113 29q44 0 69.5 -16.5t25.5 -44.5zM602 776v-2h-67l-116 69l-116 -69h-69v2l127 143h114z" />
    <glyph glyph-name="uni1ED5" unicode="&#x1ed5;" horiz-adv-x="616" 
d="M307 -14q-117 0 -192 77q-76 76 -76 189q0 110 77 190q76 78 193 78q118 0 193 -76t75 -189q0 -111 -77 -190q-76 -79 -193 -79zM459 255q0 69 -42 115q-43 46 -108 46t-109 -47q-43 -46 -43 -117q0 -70 43 -116q42 -47 107 -47t109 48q43 46 43 118zM616 834
q0 -25 -19 -47q-21 -24 -86 -64l-54 15v2q49 34 65.5 49t16.5 28q0 23 -32 23q-41 0 -102 -37h-2v66q53 35 115 35q45 0 71.5 -19t26.5 -51zM490 609v-2h-56l-125 70l-125 -70h-58v2l130 147h104z" />
    <glyph glyph-name="uni1ED6" unicode="&#x1ed6;" horiz-adv-x="836" 
d="M417 -14q-157 0 -262 105q-105 103 -105 258q0 153 107 260q107 105 262 105q156 0 263 -104q105 -105 105 -259t-106 -259q-106 -106 -264 -106zM415 598q-99 0 -167 -71q-69 -72 -69 -176q0 -105 69 -177t169 -72q99 0 170 72q70 71 70 175t-70 177q-71 72 -172 72z
M431 1035q45 -23 61 -23q15 0 26 10q13 11 43 44l44 -32q-43 -61 -68 -82q-22 -19 -51 -19q-23 0 -81 29q-47 23 -61 23q-15 0 -25 -9q-14 -13 -44 -45l-44 31q44 63 68 82q22 19 51 19q23 0 81 -28zM602 776v-2h-67l-116 56l-116 -56h-69v2l123 120h122z" />
    <glyph glyph-name="uni1ED7" unicode="&#x1ed7;" horiz-adv-x="616" 
d="M307 -14q-117 0 -192 77q-76 76 -76 189q0 110 77 190q76 78 193 78q118 0 193 -76t75 -189q0 -111 -77 -190q-76 -79 -193 -79zM459 255q0 69 -42 115q-43 46 -108 46t-109 -47q-43 -46 -43 -117q0 -70 43 -116q42 -47 107 -47t109 48q43 46 43 118zM320 881
q42 -19 54 -19q13 0 23.5 8.5t37.5 39.5l44 -30q-41 -62 -62 -81q-21 -18 -46 -18q-20 0 -75 25q-41 20 -54 20q-12 0 -22 -8t-39 -40l-44 29q41 62 62 80t46 18q22 0 75 -24zM490 609v-2h-56l-125 62l-125 -62h-58v2l126 129h112z" />
    <glyph glyph-name="uni1ED8" unicode="&#x1ed8;" horiz-adv-x="836" 
d="M417 -14q-157 0 -262 105q-105 103 -105 258q0 153 107 260q107 105 262 105q156 0 263 -104q105 -105 105 -259t-106 -259q-106 -106 -264 -106zM415 598q-99 0 -167 -71q-69 -72 -69 -176q0 -105 69 -177t169 -72q99 0 170 72q70 71 70 175t-70 177q-71 72 -172 72z
M602 776v-2h-67l-116 70l-116 -70h-69v2l127 145h114zM418 -228q-31 0 -52 21t-21 51t21 51t52 21t52 -21t21 -51t-21 -51t-52 -21z" />
    <glyph glyph-name="uni1ED9" unicode="&#x1ed9;" horiz-adv-x="616" 
d="M307 -14q-117 0 -192 77q-76 76 -76 189q0 110 77 190q76 78 193 78q118 0 193 -76t75 -189q0 -111 -77 -190q-76 -79 -193 -79zM459 255q0 69 -42 115q-43 46 -108 46t-109 -47q-43 -46 -43 -117q0 -70 43 -116q42 -47 107 -47t109 48q43 46 43 118zM490 609v-2h-57
l-124 91l-125 -91h-58v2l130 174h104zM308 -228q-31 0 -52 21t-21 51t21 51t52 21t52 -21t21 -51t-21 -51t-52 -21z" />
    <glyph glyph-name="uni1EDA" unicode="&#x1eda;" horiz-adv-x="836" 
d="M787 348q0 -154 -106 -257q-107 -105 -264 -105q-156 0 -262 104q-105 104 -105 256q0 155 107 259q106 103 267 103q25 0 82 -4q40 -4 74 -4q59 0 85 20t26 66q0 24 -6 55h101q7 -30 7 -57q0 -64 -37.5 -104t-108.5 -52q67 -50 103.5 -123t36.5 -157zM415 595
q-99 0 -167 -71q-69 -70 -69 -175t69 -175q69 -72 169 -72q99 0 170 72q70 70 70 174q0 105 -70 176q-71 71 -172 71zM626 919l-180 -145h-63l80 147h163v-2z" />
    <glyph glyph-name="uni1EDB" unicode="&#x1edb;" horiz-adv-x="616" 
d="M577 251q0 -110 -77 -187q-76 -78 -193 -78t-192 77q-76 76 -76 186q0 113 78 189q78 75 199 75q7 0 13.5 -0.5t18.5 -1t23 -0.5q10 0 20 -0.5t16 -1t11 -0.5q88 0 88 66q0 23 -6 46h91q8 -24 8 -54q0 -49 -28.5 -80t-82.5 -41q89 -77 89 -195zM459 253q0 69 -42 114
q-43 45 -108 45t-109 -45q-43 -46 -43 -116t43 -116q42 -46 107 -46t109 47q43 46 43 117zM512 781l-178 -174h-56l83 176h151v-2z" />
    <glyph glyph-name="uni1EDC" unicode="&#x1edc;" horiz-adv-x="836" 
d="M787 348q0 -154 -106 -257q-107 -105 -264 -105q-156 0 -262 104q-105 104 -105 256q0 155 107 259q106 103 267 103q25 0 82 -4q40 -4 74 -4q59 0 85 20t26 66q0 24 -6 55h101q7 -30 7 -57q0 -64 -37.5 -104t-108.5 -52q67 -50 103.5 -123t36.5 -157zM415 595
q-99 0 -167 -71q-69 -70 -69 -175t69 -175q69 -72 169 -72q99 0 170 72q70 70 70 174q0 105 -70 176q-71 71 -172 71zM210 921h163l80 -147h-63l-180 145v2z" />
    <glyph glyph-name="uni1EDD" unicode="&#x1edd;" horiz-adv-x="616" 
d="M577 251q0 -110 -77 -187q-76 -78 -193 -78t-192 77q-76 76 -76 186q0 113 78 189q78 75 199 75q7 0 13.5 -0.5t18.5 -1t23 -0.5q10 0 20 -0.5t16 -1t11 -0.5q88 0 88 66q0 23 -6 46h91q8 -24 8 -54q0 -49 -28.5 -80t-82.5 -41q89 -77 89 -195zM459 253q0 69 -42 114
q-43 45 -108 45t-109 -45q-43 -46 -43 -116t43 -116q42 -46 107 -46t109 47q43 46 43 117zM104 783h151l83 -176h-56l-178 174v2z" />
    <glyph glyph-name="uni1EDE" unicode="&#x1ede;" horiz-adv-x="836" 
d="M787 348q0 -154 -106 -257q-107 -105 -264 -105q-156 0 -262 104q-105 104 -105 256q0 155 107 259q106 103 267 103q25 0 82 -4q40 -4 74 -4q59 0 85 20t26 66q0 24 -6 55h101q7 -30 7 -57q0 -64 -37.5 -104t-108.5 -52q67 -50 103.5 -123t36.5 -157zM415 595
q-99 0 -167 -71q-69 -70 -69 -175t69 -175q69 -72 169 -72q99 0 170 72q70 70 70 174q0 105 -70 176q-71 71 -172 71zM549 885q0 -30 -25 -55t-95 -63l-61 17v2q62 41 76 54q17 14 17 26q0 23 -39 23q-48 0 -114 -37h-2v73q59 35 127 35q55 0 85.5 -20t30.5 -55z" />
    <glyph glyph-name="uni1EDF" unicode="&#x1edf;" horiz-adv-x="616" 
d="M577 251q0 -110 -77 -187q-76 -78 -193 -78t-192 77q-76 76 -76 186q0 113 78 189q78 75 199 75q7 0 13.5 -0.5t18.5 -1t23 -0.5q10 0 20 -0.5t16 -1t11 -0.5q88 0 88 66q0 23 -6 46h91q8 -24 8 -54q0 -49 -28.5 -80t-82.5 -41q89 -77 89 -195zM459 253q0 69 -42 114
q-43 45 -108 45t-109 -45q-43 -46 -43 -116t43 -116q42 -46 107 -46t109 47q43 46 43 117zM438 743q0 -33 -24 -64q-26 -31 -96 -81l-61 18v2q53 45 75 68q18 20 18 37q0 29 -38 29q-49 0 -115 -49h-2v86q61 45 131 45q51 0 81.5 -25t30.5 -66z" />
    <glyph glyph-name="uni1EE0" unicode="&#x1ee0;" horiz-adv-x="836" 
d="M787 348q0 -154 -106 -257q-107 -105 -264 -105q-156 0 -262 104q-105 104 -105 256q0 155 107 259q106 103 267 103q25 0 82 -4q40 -4 74 -4q59 0 85 20t26 66q0 24 -6 55h101q7 -30 7 -57q0 -64 -37.5 -104t-108.5 -52q67 -50 103.5 -123t36.5 -157zM415 595
q-99 0 -167 -71q-69 -70 -69 -175t69 -175q69 -72 169 -72q99 0 170 72q70 70 70 174q0 105 -70 176q-71 71 -172 71zM431 886q48 -25 63 -25q14 0 27 10q12 10 46 49l47 -36q-44 -66 -70 -89t-57 -23q-23 0 -86 31q-48 25 -64 25q-15 0 -26 -10q-12 -9 -47 -49l-47 36
q44 66 71 90q25 22 56 22q24 0 87 -31z" />
    <glyph glyph-name="uni1EE1" unicode="&#x1ee1;" horiz-adv-x="616" 
d="M310 726q47 -28 60 -28q11 0 22 11q14 14 47 58l52 -32q-47 -79 -72 -105q-26 -26 -55 -26q-23 0 -86 38q-47 28 -60 28q-10 0 -21 -9t-48 -60l-52 32q45 80 72 107q25 24 55 24q23 0 86 -38zM577 251q0 -110 -77 -187q-76 -78 -193 -78t-192 77q-76 76 -76 186
q0 113 78 189q78 75 199 75q7 0 13.5 -0.5t18.5 -1t23 -0.5q10 0 20 -0.5t16 -1t11 -0.5q88 0 88 66q0 23 -6 46h91q8 -24 8 -54q0 -49 -28.5 -80t-82.5 -41q89 -77 89 -195zM459 253q0 69 -42 114q-43 45 -108 45t-109 -45q-43 -46 -43 -116t43 -116q42 -46 107 -46t109 47
q43 46 43 117z" />
    <glyph glyph-name="uni1EE2" unicode="&#x1ee2;" horiz-adv-x="836" 
d="M787 348q0 -154 -106 -257q-107 -105 -264 -105q-156 0 -262 104q-105 104 -105 256q0 155 107 259q106 103 267 103q25 0 82 -4q40 -4 74 -4q59 0 85 20t26 66q0 24 -6 55h101q7 -30 7 -57q0 -64 -37.5 -104t-108.5 -52q67 -50 103.5 -123t36.5 -157zM415 595
q-99 0 -167 -71q-69 -70 -69 -175t69 -175q69 -72 169 -72q99 0 170 72q70 70 70 174q0 105 -70 176q-71 71 -172 71zM418 -228q-31 0 -52 21t-21 51t21 51t52 21t52 -21t21 -51t-21 -51t-52 -21z" />
    <glyph glyph-name="uni1EE3" unicode="&#x1ee3;" horiz-adv-x="616" 
d="M577 251q0 -110 -77 -187q-76 -78 -193 -78t-192 77q-76 76 -76 186q0 113 78 189q78 75 199 75q7 0 13.5 -0.5t18.5 -1t23 -0.5q10 0 20 -0.5t16 -1t11 -0.5q88 0 88 66q0 23 -6 46h91q8 -24 8 -54q0 -49 -28.5 -80t-82.5 -41q89 -77 89 -195zM459 253q0 69 -42 114
q-43 45 -108 45t-109 -45q-43 -46 -43 -116t43 -116q42 -46 107 -46t109 47q43 46 43 117zM308 -228q-31 0 -52 21t-21 51t21 51t52 21t52 -21t21 -51t-21 -51t-52 -21z" />
    <glyph glyph-name="uni1EE4" unicode="&#x1ee4;" horiz-adv-x="789" 
d="M394 -12q-147 0 -229 85.5t-82 238.5v388h126v-390q0 -99 49 -153t138 -54t138 55t49 155v387h123v-388q0 -153 -82 -238.5t-230 -85.5zM394 -228q-31 0 -52 21t-21 51t21 51t52 21t52 -21t21 -51t-21 -51t-52 -21z" />
    <glyph glyph-name="uni1EE5" unicode="&#x1ee5;" horiz-adv-x="612" 
d="M535 506v-506h-117v92q-41 -54 -82.5 -78t-93.5 -24q-79 0 -126.5 53t-47.5 143v320h118v-303q0 -51 26 -79.5t72 -28.5q34 0 64 16t69 55v340h118zM302 -223q-31 0 -52 21t-21 51t21 51t52 21t52 -21t21 -51t-21 -51t-52 -21z" />
    <glyph glyph-name="uni1EE6" unicode="&#x1ee6;" horiz-adv-x="789" 
d="M394 -12q-147 0 -229 85.5t-82 238.5v388h126v-390q0 -99 49 -153t138 -54t138 55t49 155v387h123v-388q0 -153 -82 -238.5t-230 -85.5zM525 880q0 -30 -25 -55t-95 -63l-61 17v2q62 41 76 54q17 14 17 26q0 23 -39 23q-48 0 -114 -37h-2v73q59 35 127 35q55 0 85.5 -20
t30.5 -55z" />
    <glyph glyph-name="uni1EE7" unicode="&#x1ee7;" horiz-adv-x="612" 
d="M535 506v-506h-117v92q-41 -54 -82.5 -78t-93.5 -24q-79 0 -126.5 53t-47.5 143v320h118v-303q0 -51 26 -79.5t72 -28.5q34 0 64 16t69 55v340h118zM432 738q0 -32 -24 -64q-26 -32 -96 -81l-61 18v2q53 45 75 68q18 19 18 37q0 29 -38 29q-49 0 -115 -49h-2v86
q61 45 131 45q51 0 81.5 -25t30.5 -66z" />
    <glyph glyph-name="uni1EE8" unicode="&#x1ee8;" horiz-adv-x="822" 
d="M394 -12q-147 0 -229 85.5t-82 238.5v388h126v-390q0 -99 49 -153t138 -54t138 55t49 155v387h44q59 0 85 20t26 66q0 24 -6 55h101q7 -30 7 -57q0 -124 -134 -154v-318q0 -153 -82 -238.5t-230 -85.5zM602 914l-180 -145h-63l80 147h163v-2z" />
    <glyph glyph-name="uni1EE9" unicode="&#x1ee9;" horiz-adv-x="633" 
d="M535 442v-442h-117v92q-41 -54 -82.5 -78t-93.5 -24q-79 0 -126.5 53t-47.5 143v320h118v-303q0 -51 26 -79.5t72 -28.5q34 0 64 16t69 55v340h44q53 0 76.5 14.5t23.5 47.5q0 15 -7 43h92q7 -23 7 -47q0 -102 -118 -122zM506 776l-178 -174h-56l83 176h151v-2z" />
    <glyph glyph-name="uni1EEA" unicode="&#x1eea;" horiz-adv-x="822" 
d="M394 -12q-147 0 -229 85.5t-82 238.5v388h126v-390q0 -99 49 -153t138 -54t138 55t49 155v387h44q59 0 85 20t26 66q0 24 -6 55h101q7 -30 7 -57q0 -124 -134 -154v-318q0 -153 -82 -238.5t-230 -85.5zM186 916h163l80 -147h-63l-180 145v2z" />
    <glyph glyph-name="uni1EEB" unicode="&#x1eeb;" horiz-adv-x="633" 
d="M535 442v-442h-117v92q-41 -54 -82.5 -78t-93.5 -24q-79 0 -126.5 53t-47.5 143v320h118v-303q0 -51 26 -79.5t72 -28.5q34 0 64 16t69 55v340h44q53 0 76.5 14.5t23.5 47.5q0 15 -7 43h92q7 -23 7 -47q0 -102 -118 -122zM98 778h151l83 -176h-56l-178 174v2z" />
    <glyph glyph-name="uni1EEC" unicode="&#x1eec;" horiz-adv-x="822" 
d="M394 -12q-147 0 -229 85.5t-82 238.5v388h126v-390q0 -99 49 -153t138 -54t138 55t49 155v387h44q59 0 85 20t26 66q0 24 -6 55h101q7 -30 7 -57q0 -124 -134 -154v-318q0 -153 -82 -238.5t-230 -85.5zM525 880q0 -30 -25 -55t-95 -63l-61 17v2q62 41 76 54q17 14 17 26
q0 23 -39 23q-48 0 -114 -37h-2v73q59 35 127 35q55 0 85.5 -20t30.5 -55z" />
    <glyph glyph-name="uni1EED" unicode="&#x1eed;" horiz-adv-x="633" 
d="M535 442v-442h-117v92q-41 -54 -82.5 -78t-93.5 -24q-79 0 -126.5 53t-47.5 143v320h118v-303q0 -51 26 -79.5t72 -28.5q34 0 64 16t69 55v340h44q53 0 76.5 14.5t23.5 47.5q0 15 -7 43h92q7 -23 7 -47q0 -102 -118 -122zM432 738q0 -32 -24 -64q-26 -32 -96 -81l-61 18
v2q53 45 75 68q18 19 18 37q0 29 -38 29q-49 0 -115 -49h-2v86q61 45 131 45q51 0 81.5 -25t30.5 -66z" />
    <glyph glyph-name="uni1EEE" unicode="&#x1eee;" horiz-adv-x="822" 
d="M394 -12q-147 0 -229 85.5t-82 238.5v388h126v-390q0 -99 49 -153t138 -54t138 55t49 155v387h44q59 0 85 20t26 66q0 24 -6 55h101q7 -30 7 -57q0 -124 -134 -154v-318q0 -153 -82 -238.5t-230 -85.5zM411 881q48 -25 63 -25q14 0 27 10q12 10 46 49l47 -36
q-44 -66 -70 -89t-57 -23q-23 0 -86 31q-48 25 -64 25q-15 0 -26 -10q-12 -9 -47 -49l-47 36q44 66 71 90q25 22 56 22q24 0 87 -31z" />
    <glyph glyph-name="uni1EEF" unicode="&#x1eef;" horiz-adv-x="633" 
d="M535 442v-442h-117v92q-41 -54 -82.5 -78t-93.5 -24q-79 0 -126.5 53t-47.5 143v320h118v-303q0 -51 26 -79.5t72 -28.5q34 0 64 16t69 55v340h44q53 0 76.5 14.5t23.5 47.5q0 15 -7 43h92q7 -23 7 -47q0 -102 -118 -122zM317 723q48 -29 62 -29q11 0 21 9q9 8 49 60
l54 -34q-49 -82 -73 -105q-25 -25 -56 -25q-21 0 -87 37q-48 29 -62 29q-12 0 -22 -10q-14 -14 -48 -59l-54 34q50 82 74 107q24 24 55 24q23 0 87 -38z" />
    <glyph glyph-name="uni1EF0" unicode="&#x1ef0;" horiz-adv-x="822" 
d="M394 -12q-147 0 -229 85.5t-82 238.5v388h126v-390q0 -99 49 -153t138 -54t138 55t49 155v387h44q59 0 85 20t26 66q0 24 -6 55h101q7 -30 7 -57q0 -124 -134 -154v-318q0 -153 -82 -238.5t-230 -85.5zM394 -228q-31 0 -52 21t-21 51t21 51t52 21t52 -21t21 -51t-21 -51
t-52 -21z" />
    <glyph glyph-name="uni1EF1" unicode="&#x1ef1;" horiz-adv-x="633" 
d="M535 442v-442h-117v92q-41 -54 -82.5 -78t-93.5 -24q-79 0 -126.5 53t-47.5 143v320h118v-303q0 -51 26 -79.5t72 -28.5q34 0 64 16t69 55v340h44q53 0 76.5 14.5t23.5 47.5q0 15 -7 43h92q7 -23 7 -47q0 -102 -118 -122zM302 -223q-31 0 -52 21t-21 51t21 51t52 21
t52 -21t21 -51t-21 -51t-52 -21z" />
    <glyph glyph-name="Ygrave" unicode="&#x1ef2;" horiz-adv-x="683" 
d="M675 700l-270 -397v-303h-126v301l-270 399h148l188 -285l187 285h143zM134 916h163l80 -147h-63l-180 145v2z" />
    <glyph glyph-name="ygrave" unicode="&#x1ef3;" horiz-adv-x="568" 
d="M132 -194q-45 0 -87 18l-23 114l3 2q43 -25 86 -25q73 0 106 80l14 32l-212 479h129l143 -347l132 347h127l-221 -542q-65 -158 -197 -158zM81 778h151l83 -176h-56l-178 174v2z" />
    <glyph glyph-name="uni1EF4" unicode="&#x1ef4;" horiz-adv-x="683" 
d="M675 700l-270 -397v-303h-126v301l-270 399h148l188 -285l187 285h143zM342 -223q-31 0 -52 21t-21 51t21 51t52 21t52 -21t21 -51t-21 -51t-52 -21z" />
    <glyph glyph-name="uni1EF5" unicode="&#x1ef5;" horiz-adv-x="568" 
d="M132 -194q-45 0 -87 18l-23 114l3 2q43 -25 86 -25q73 0 106 80l14 32l-212 479h129l143 -347l132 347h127l-221 -542q-65 -158 -197 -158zM473 -218q-31 0 -52 21t-21 51t21 51t52 21t52 -21t21 -51t-21 -51t-52 -21z" />
    <glyph glyph-name="uni1EF6" unicode="&#x1ef6;" horiz-adv-x="683" 
d="M675 700l-270 -397v-303h-126v301l-270 399h148l188 -285l187 285h143zM473 880q0 -30 -25 -55t-95 -63l-61 17v2q62 41 76 54q17 14 17 26q0 23 -39 23q-48 0 -114 -37h-2v73q59 35 127 35q55 0 85.5 -20t30.5 -55z" />
    <glyph glyph-name="uni1EF7" unicode="&#x1ef7;" horiz-adv-x="568" 
d="M132 -194q-45 0 -87 18l-23 114l3 2q43 -25 86 -25q73 0 106 80l14 32l-212 479h129l143 -347l132 347h127l-221 -542q-65 -158 -197 -158zM415 738q0 -32 -24 -64q-25 -32 -96 -81l-61 18v2q53 45 75 68q18 19 18 37q0 29 -38 29q-49 0 -115 -49h-2v86q61 45 131 45
q51 0 81.5 -25t30.5 -66z" />
    <glyph glyph-name="uni1EF8" unicode="&#x1ef8;" horiz-adv-x="683" 
d="M675 700l-270 -397v-303h-126v301l-270 399h148l188 -285l187 285h143zM359 881q48 -25 63 -25q14 0 27 10q12 10 46 49l47 -36q-44 -66 -70 -89t-57 -23q-23 0 -86 31q-48 25 -64 25q-15 0 -26 -10q-12 -9 -47 -49l-47 36q44 66 71 90q25 22 56 22q24 0 87 -31z" />
    <glyph glyph-name="uni1EF9" unicode="&#x1ef9;" horiz-adv-x="568" 
d="M132 -194q-45 0 -87 18l-23 114l3 2q43 -25 86 -25q73 0 106 80l14 32l-212 479h129l143 -347l132 347h127l-221 -542q-65 -158 -197 -158zM300 723q48 -29 62 -29q10 0 21 9q9 8 49 60l54 -34q-49 -82 -73 -105q-25 -25 -56 -25q-21 0 -87 37q-48 29 -62 29
q-12 0 -22 -10q-14 -14 -48 -59l-54 34q49 82 74 107q24 24 55 24q23 0 87 -38z" />
    <glyph glyph-name="uni2002" unicode="&#x2002;" horiz-adv-x="500" 
 />
    <glyph glyph-name="uni2003" unicode="&#x2003;" horiz-adv-x="1000" 
 />
    <glyph glyph-name="uni2004" unicode="&#x2004;" horiz-adv-x="333" 
 />
    <glyph glyph-name="uni2005" unicode="&#x2005;" horiz-adv-x="250" 
 />
    <glyph glyph-name="uni2007" unicode="&#x2007;" horiz-adv-x="600" 
 />
    <glyph glyph-name="uni2009" unicode="&#x2009;" horiz-adv-x="125" 
 />
    <glyph glyph-name="uni200A" unicode="&#x200a;" horiz-adv-x="42" 
 />
    <glyph glyph-name="uni2011" unicode="&#x2011;" horiz-adv-x="396" 
d="M336 222h-276v109h276v-109z" />
    <glyph glyph-name="figuredash" unicode="&#x2012;" horiz-adv-x="600" 
d="M525 296h-450v109h450v-109z" />
    <glyph glyph-name="endash" unicode="&#x2013;" horiz-adv-x="556" 
d="M496 224h-436v105h436v-105z" />
    <glyph glyph-name="emdash" unicode="&#x2014;" horiz-adv-x="936" 
d="M876 224h-816v105h816v-105z" />
    <glyph glyph-name="uni2015" unicode="&#x2015;" horiz-adv-x="936" 
d="M876 224h-816v105h816v-105z" />
    <glyph glyph-name="quoteleft" unicode="&#x2018;" horiz-adv-x="236" 
d="M142 537q0 -25 11 -50q12 -28 47 -82h-125q-41 58 -41 112q0 37 27 77q25 39 111 115l37 -27q-67 -93 -67 -145z" />
    <glyph glyph-name="quoteright" unicode="&#x2019;" horiz-adv-x="236" 
d="M95 568q0 26 -10 49q-11 24 -48 83h124q42 -60 42 -112q0 -35 -26 -76q-25 -37 -113 -116l-37 28q68 93 68 144z" />
    <glyph glyph-name="quotesinglbase" unicode="&#x201a;" horiz-adv-x="216" 
d="M77 -16q0 26 -10 49q-11 24 -48 83h124q42 -60 42 -112q0 -35 -26 -76q-25 -37 -113 -116l-37 28q68 93 68 144z" />
    <glyph glyph-name="quotedblleft" unicode="&#x201c;" horiz-adv-x="443" 
d="M349 538q0 -26 11 -51q12 -28 47 -82h-123q-42 62 -42 112q0 37 27 77q25 39 111 115l36 -26q-67 -93 -67 -145zM140 538q0 -26 10 -49q10 -24 48 -84h-123q-41 58 -41 112q0 37 27 77q25 39 111 115l36 -26q-68 -92 -68 -145z" />
    <glyph glyph-name="quotedblright" unicode="&#x201d;" horiz-adv-x="443" 
d="M95 568q0 26 -10 49q-11 24 -48 83h122q42 -60 42 -112q0 -36 -27 -77q-29 -43 -111 -115l-36 28q68 93 68 144zM303 568q0 27 -10 51q-11 24 -48 81h123q42 -60 42 -112q0 -36 -27 -77q-29 -43 -111 -115l-36 28q67 89 67 144z" />
    <glyph glyph-name="quotedblbase" unicode="&#x201e;" horiz-adv-x="423" 
d="M77 -16q0 26 -10 49q-11 24 -48 83h122q42 -60 42 -112q0 -38 -27 -78t-111 -114l-36 28q68 93 68 144zM285 -16q0 27 -10 51q-11 24 -48 81h123q42 -60 42 -112q0 -38 -27 -78t-111 -114l-36 28q67 89 67 144z" />
    <glyph glyph-name="uni201F" unicode="&#x201f;" horiz-adv-x="443" 
d="M284 700h123q-35 -52 -47 -81q-11 -27 -11 -51q0 -55 67 -144l-36 -28q-82 72 -111 115q-27 41 -27 77q0 52 42 112zM75 700h123q-37 -59 -48 -83q-10 -23 -10 -49q0 -55 68 -144l-36 -28q-82 72 -111 115q-27 41 -27 77q0 51 41 112z" />
    <glyph glyph-name="dagger" unicode="&#x2020;" horiz-adv-x="532" 
d="M277 534h-22l-55 170h132zM306 484v21l170 56v-133zM56 561l170 -56v-21l-170 -56v133zM279 -10h-26l-49 298l51 167h22l51 -167z" />
    <glyph glyph-name="daggerdbl" unicode="&#x2021;" horiz-adv-x="532" 
d="M277 534h-22l-55 170h132zM306 485v22l170 55v-131zM56 562l170 -55v-22l-170 -54v131zM277 242h-22l-51 108l51 108h22l51 -108zM56 269l170 -54v-22l-170 -55v131zM306 193v22l170 54v-131zM255 166h22l55 -170h-132z" />
    <glyph glyph-name="bullet" unicode="&#x2022;" horiz-adv-x="524" 
d="M262 188q-68 0 -114 48q-48 48 -48 114t48 114q46 48 114 48q66 0 114 -48q47 -49 47 -114t-47 -114q-48 -48 -114 -48z" />
    <glyph glyph-name="ellipsis" unicode="&#x2026;" horiz-adv-x="650" 
d="M542 -9q-32 0 -54.5 22.5t-22.5 54.5t22.5 54.5t54.5 22.5t54.5 -22.5t22.5 -54.5t-22.5 -54.5t-54.5 -22.5zM325 -9q-32 0 -54.5 22.5t-22.5 54.5t22.5 54.5t54.5 22.5t54.5 -22.5t22.5 -54.5t-22.5 -54.5t-54.5 -22.5zM109 -9q-32 0 -54.5 22.5t-22.5 54.5t22.5 54.5
t54.5 22.5t54.5 -22.5t22.5 -54.5t-22.5 -54.5t-54.5 -22.5z" />
    <glyph glyph-name="uni202F" unicode="&#x202f;" horiz-adv-x="125" 
 />
    <glyph glyph-name="guilsinglleft" unicode="&#x2039;" horiz-adv-x="387" 
d="M40 263l254 251l42 -24l-159 -236l159 -238l-42 -24l-254 250v21z" />
    <glyph glyph-name="guilsinglright" unicode="&#x203a;" horiz-adv-x="387" 
d="M347 242l-253 -250l-42 24l158 236l-158 238l42 24l253 -251v-21z" />
    <glyph glyph-name="fraction" unicode="&#x2044;" horiz-adv-x="102" 
d="M75 335l-220 -337h-82l254 367l220 337h82z" />
    <glyph glyph-name="uni20A6" unicode="&#x20a6;" horiz-adv-x="890" 
d="M239 586v-116h71zM474 405l64 -105h111l-1 105h-174zM239 403l1 -105h174l-64 105h-111zM649 233h-71l71 -116v116zM762 230v-230h-166l-140 230h-216v-230h-114v230h-95v70h95v103h-95v70h95v227h168l138 -227h216v227h114v-227h95v-70h-95v-103h95v-70h-95z" />
    <glyph glyph-name="uni20A9" unicode="&#x20a9;" horiz-adv-x="1156" 
d="M577 594l-33 -125h66zM728 404l28 -104h99l24 104h-151zM281 404l24 -104h98l27 104h-149zM527 403l-27 -104h154l-27 104h-100zM839 234h-66l36 -133zM385 234h-65l30 -132zM482 230l-61 -234h-150l-61 234h-159v70h141l-27 103h-120v70h102l-59 227h124l53 -227h183
l62 234h138l62 -234h185l53 227h119l-59 -227h102v-70h-120l-27 -103h140v-70h-158l-61 -234h-150l-61 234h-191z" />
    <glyph glyph-name="dong" unicode="&#x20ab;" horiz-adv-x="617" 
d="M157 221q0 -61 35 -97t93 -36q56 0 116 43v199q-51 29 -105 29q-63 0 -101 -37.5t-38 -100.5zM513 546v-547h-109v63q-69 -72 -153 -72q-89 0 -147 63q-59 64 -59 161q0 103 65 171q64 67 158 67q70 0 133 -41v135h-167v71h167v83h112v-83h84v-71h-84zM522 -94v-71h-468
v71h468z" />
    <glyph glyph-name="Euro" unicode="&#x20ac;" horiz-adv-x="682" 
d="M432 -12q-116 0 -192.5 66.5t-100.5 188.5h-110v70h101q-1 8 -1 36q0 10 1 21v20h-101v70h112q26 118 104 185t189 67q104 0 188 -48v-125h-2q-97 64 -176 64q-68 0 -115 -38t-66 -108h263v-67h-273q-1 -7 -1 -28v-22q0 -20 1 -27h273v-67h-263q18 -72 64 -110.5
t114 -38.5q49 0 90 12q42 13 95 46h2l-16 -123q-45 -25 -84 -34.5t-96 -9.5z" />
    <glyph glyph-name="uni20B1" unicode="&#x20b1;" horiz-adv-x="684" 
d="M329 598h-87v-104h237q-9 49 -49 76.5t-101 27.5zM242 431v-104h87q62 0 101 27t49 77h-237zM329 226h-86v-226h-117v427h-95v70h95v203h206q116 0 186.5 -53.5t79.5 -149.5h74v-70h-76q-14 -93 -86 -147t-181 -54z" />
    <glyph glyph-name="uni20B9" unicode="&#x20b9;" horiz-adv-x="630" 
d="M278 220l278 -218v-2h-165l-335 265l5 17h44q95 0 151.5 33t69.5 95h-267v69h267q-24 126 -222 126h-50v95h518v-70h-225q94 -54 107 -151h114v-70h-114q-9 -67 -54 -115.5t-122 -73.5z" />
    <glyph glyph-name="uni20BA" unicode="&#x20ba;" horiz-adv-x="620" 
d="M264 -5q-66 0 -138 17v198l-95 -44v91l95 42v91l-95 -44v91l95 42v221h120v-169l207 96v-91l-207 -93v-92l207 96v-91l-207 -93v-159q9 0 18.5 -1t13.5 -1q186 0 282 195h3l32 -126q-45 -84 -131.5 -130t-199.5 -46z" />
    <glyph glyph-name="uni20BD" unicode="&#x20bd;" horiz-adv-x="619" 
d="M330 596h-84v-240h76q68 0 105.5 32.5t37.5 91.5q0 56 -35 86t-100 30zM249 207h267v-68h-267v-139h-123v139h-95v68h95v79h-95v68h95v346h212q117 0 183 -53.5t66 -148.5q0 -100 -70 -156t-192 -56h-76v-79z" />
    <glyph glyph-name="uni2117" unicode="&#x2117;" horiz-adv-x="890" 
d="M160 68q-118 113 -118 281q0 165 119 282q120 115 285 115t284 -114q118 -113 118 -281q0 -165 -119 -282q-120 -115 -285 -115t-284 114zM444 714q-154 0 -261 -105q-108 -107 -108 -258q0 -153 109 -259q107 -106 262 -106t262 106q107 105 107 257q0 153 -108 259
q-109 106 -263 106zM461 511h-67v-161h66q46 0 72 22t26 61q0 36 -26.5 57t-70.5 21zM644 436q0 -69 -50.5 -110t-134.5 -41h-65v-160h-86v455h156q84 0 132 -38t48 -106z" />
    <glyph glyph-name="uni2120" unicode="&#x2120;" horiz-adv-x="967" 
d="M172 469q-73 28 -97 57q-24 27 -24 67q0 52 38.5 83t102.5 31q66 0 115 -29v-82q-62 41 -120 41q-24 0 -38.5 -10t-14.5 -27t14.5 -29t59.5 -29q71 -28 96 -56q23 -29 23 -67q0 -55 -39.5 -87.5t-105.5 -32.5q-74 0 -125 39l-13 85q80 -54 142 -54q26 0 43 12t17 31
q0 16 -14.5 28t-59.5 29zM811 608l-157 -309h-11l-157 309v-302h-78v394h119l123 -250l122 250h119v-394h-80v302z" />
    <glyph glyph-name="trademark" unicode="&#x2122;" horiz-adv-x="1014" 
d="M28 700h357v-73h-138v-321h-81v321h-138v73zM858 608l-157 -309h-11l-157 309v-302h-78v394h119l123 -251l122 251h119v-394h-80v302z" />
    <glyph glyph-name="onethird" unicode="&#x2153;" horiz-adv-x="853" 
d="M222 709l10 -3v-421h-89v290l-113 -66v91zM423 335l-220 -337h-82l254 367l220 337h82zM815 113q0 -51 -43.5 -85t-107.5 -34q-63 0 -128 33l-11 86l2 1q69 -47 129 -47q31 0 50 14t19 37q0 26 -29 42t-104 32v33q75 27 100 43.5t25 39.5q0 40 -57 40q-54 0 -121 -49h-2
v82q61 40 134 40q62 0 99 -28t37 -75q0 -65 -82 -101q90 -30 90 -104z" />
    <glyph glyph-name="twothirds" unicode="&#x2154;" horiz-adv-x="919" 
d="M342 360l-31 -75h-272l-8 36l144 164q52 60 52 92q0 22 -15 36.5t-39 14.5q-56 0 -124 -78h-2l-9 90q60 66 144 66q61 0 97.5 -32.5t36.5 -85.5q0 -34 -14.5 -63.5t-54.5 -74.5l-81 -90h176zM489 335l-220 -337h-82l254 367l220 337h82zM881 113q0 -51 -43.5 -85
t-107.5 -34q-63 0 -128 33l-11 86l2 1q69 -47 129 -47q31 0 50 14t19 37q0 26 -29 42t-104 32v33q75 27 100 43.5t25 39.5q0 40 -57 40q-54 0 -121 -49h-2v82q61 40 134 40q62 0 99 -28t37 -75q0 -65 -82 -101q90 -30 90 -104z" />
    <glyph glyph-name="oneeighth" unicode="&#x215b;" horiz-adv-x="869" 
d="M222 709l10 -3v-421h-89v290l-113 -66v91zM423 335l-220 -337h-82l254 367l220 337h82zM828 110q0 -52 -45.5 -84.5t-119.5 -32.5t-119 32.5t-45 84.5q0 71 75 102q-62 29 -62 94q0 52 41.5 84t110.5 32q68 0 109.5 -32t41.5 -84q0 -65 -62 -94q75 -31 75 -102zM663 356
q-30 0 -48 -15.5t-18 -40.5q0 -26 18.5 -42.5t48.5 -16.5q29 0 47.5 16.5t18.5 42.5q0 25 -18.5 40.5t-48.5 15.5zM663 180q-34 0 -55 -17t-21 -45q0 -27 20.5 -43t56.5 -16q35 0 55.5 16t20.5 43q0 28 -21.5 45t-55.5 17z" />
    <glyph glyph-name="threeeighths" unicode="&#x215c;" horiz-adv-x="905" 
d="M319 398q0 -51 -43.5 -85t-107.5 -34q-63 0 -128 33l-11 86l2 1q69 -47 129 -47q31 0 50 14t19 37q0 26 -29 42t-104 32v33q75 27 100 43.5t25 39.5q0 40 -57 40q-54 0 -121 -49h-2v82q61 40 134 40q62 0 99 -28t37 -75q0 -65 -82 -101q90 -30 90 -104zM459 335
l-220 -337h-82l254 367l220 337h82zM864 110q0 -52 -45.5 -84.5t-119.5 -32.5t-119 32.5t-45 84.5q0 71 75 102q-62 29 -62 94q0 52 41.5 84t110.5 32q68 0 109.5 -32t41.5 -84q0 -65 -62 -94q75 -31 75 -102zM699 356q-30 0 -48 -15.5t-18 -40.5q0 -26 18.5 -42.5
t48.5 -16.5q29 0 47.5 16.5t18.5 42.5q0 25 -18.5 40.5t-48.5 15.5zM699 180q-34 0 -55 -17t-21 -45q0 -27 20.5 -43t56.5 -16q35 0 55.5 16t20.5 43q0 28 -21.5 45t-55.5 17z" />
    <glyph glyph-name="fiveeighths" unicode="&#x215d;" horiz-adv-x="922" 
d="M341 418q0 -63 -47.5 -101.5t-124.5 -38.5q-58 0 -118 24l-9 80l2 1q67 -33 116 -33q42 0 67 19t25 51q0 29 -23 45t-65 16q-41 0 -103 -17l-7 4l15 232h250v-75h-182l-7 -82q28 5 54 5q72 0 114.5 -35t42.5 -95zM476 335l-220 -337h-82l254 367l220 337h82zM881 110
q0 -52 -45.5 -84.5t-119.5 -32.5t-119 32.5t-45 84.5q0 71 75 102q-62 29 -62 94q0 52 41.5 84t110.5 32q68 0 109.5 -32t41.5 -84q0 -65 -62 -94q75 -31 75 -102zM716 356q-30 0 -48 -15.5t-18 -40.5q0 -26 18.5 -42.5t48.5 -16.5q29 0 47.5 16.5t18.5 42.5
q0 25 -18.5 40.5t-48.5 15.5zM716 180q-34 0 -55 -17t-21 -45q0 -27 20.5 -43t56.5 -16q35 0 55.5 16t20.5 43q0 28 -21.5 45t-55.5 17z" />
    <glyph glyph-name="seveneighths" unicode="&#x215e;" horiz-adv-x="863" 
d="M351 700l4 -7l-194 -408h-95l167 340h-188l-13 75h319zM416 335l-220 -337h-82l254 367l220 337h82zM822 110q0 -52 -45.5 -84.5t-119.5 -32.5t-119 32.5t-45 84.5q0 71 75 102q-62 29 -62 94q0 52 41.5 84t110.5 32q68 0 109.5 -32t41.5 -84q0 -65 -62 -94
q75 -31 75 -102zM657 356q-30 0 -48 -15.5t-18 -40.5q0 -26 18.5 -42.5t48.5 -16.5q29 0 47.5 16.5t18.5 42.5q0 25 -18.5 40.5t-48.5 15.5zM657 180q-34 0 -55 -17t-21 -45q0 -27 20.5 -43t56.5 -16q35 0 55.5 16t20.5 43q0 28 -21.5 45t-55.5 17z" />
    <glyph glyph-name="minus" unicode="&#x2212;" horiz-adv-x="600" 
d="M47 401h506v-102h-506v102z" />
    <glyph glyph-name="approxequal" unicode="&#x2248;" horiz-adv-x="600" 
d="M190 583q33 0 129 -61q68 -44 86 -44t33.5 20t46.5 82l64 -32q-45 -105 -74 -139q-32 -39 -70 -39q-32 0 -128 61q-72 44 -88 44q-17 0 -32.5 -20t-46.5 -82l-64 32q41 98 74 139q31 39 70 39zM195 330q32 0 128 -61q72 -44 88 -44t33 20q12 16 46 82l64 -32
q-42 -101 -73 -139q-31 -39 -71 -39q-33 0 -129 61q-68 44 -86 44t-33.5 -20t-46.5 -82l-64 32q45 104 74 140q32 38 70 38z" />
    <glyph glyph-name="notequal" unicode="&#x2260;" horiz-adv-x="600" 
d="M313 297h231v-96h-277l-63 -133l-62 29l49 104h-135v96h181l50 106h-231v96h277l63 133l62 -29l-49 -104h135v-96h-181z" />
    <glyph glyph-name="uni237F" unicode="&#x237f;" horiz-adv-x="584" 
d="M339 197v-287h-94v287q-52 12 -86.5 55.5t-34.5 97.5t34.5 97.5t86.5 55.5v277h94v-277q53 -13 87 -56t34 -97t-34 -97t-87 -56z" />
    <glyph glyph-name="uniA788" unicode="&#xa788;" horiz-adv-x="500" 
d="M432 -249v-2h-57l-124 91l-125 -91h-58v2l130 174h104z" />
    <glyph glyph-name="G.alt" horiz-adv-x="794" 
d="M402 373h348v-26q0 -166 -94 -263q-95 -98 -252 -98q-155 0 -254 101q-100 100 -100 259q0 158 105 263q104 104 262 104q161 0 280 -106l-31 -127l-2 -1q-65 61 -124 88.5t-124 27.5q-102 0 -169 -72q-68 -73 -68 -178q0 -110 64 -177q65 -68 163 -68q85 0 141 44.5
t72 125.5h-217v103z" />
    <glyph glyph-name="Q.alt" horiz-adv-x="841" 
d="M179 351q0 -105 68 -176q67 -72 168 -72q76 0 135 41l-125 104l73 80l123 -109q37 62 37 135q0 103 -70 173q-71 71 -172 71q-100 0 -168 -71q-69 -72 -69 -176zM714 140l82 -69l-73 -79l-83 74q-101 -77 -228 -77q-154 0 -258 105q-104 104 -104 257q0 154 106 259
q107 104 263 104q157 0 263 -102q105 -104 105 -252q0 -123 -73 -220z" />
    <glyph glyph-name="a.alt" horiz-adv-x="624" 
d="M158 246q0 -69 37 -110.5t97 -41.5q68 0 134 55v247q-48 16 -100 16q-74 0 -120 -46q-48 -46 -48 -120zM544 155l20 -155h-116l-15 79q-42 -47 -82.5 -68t-92.5 -21q-92 0 -155 71t-63 177q0 122 81 198q80 77 201 77q61 0 133 -24l78 17h11v-351z" />
    <glyph glyph-name="a.sc" horiz-adv-x="675" 
d="M338 446l-96 -229h190zM403 562l245 -562h-129l-50 121h-266l-51 -121h-125l252 562h124z" />
    <glyph glyph-name="b.sc" horiz-adv-x="567" 
d="M520 160q0 -73 -56.5 -116.5t-151.5 -43.5h-233v560h230q88 0 138.5 -39.5t50.5 -108.5q0 -82 -83 -121q105 -37 105 -131zM298 464h-105v-135h97q43 0 67.5 19t24.5 52q0 30 -22 47t-62 17zM304 239h-111v-144h114q43 0 68.5 20t25.5 54q0 33 -25.5 51.5t-71.5 18.5z
" />
    <glyph glyph-name="c.sc" horiz-adv-x="591" 
d="M332 -12q-123 0 -204 82t-81 210q0 124 85 208q86 83 210 83q109 0 187 -63v-131h-2q-93 87 -179 87q-73 0 -126 -53q-52 -52 -52 -129q0 -80 51 -133t127 -53q100 0 189 82l2 -1l-15 -128q-88 -61 -192 -61z" />
    <glyph glyph-name="d.sc" horiz-adv-x="651" 
d="M483 280q0 83 -54 130t-149 47h-82v-354h84q91 0 146 48t55 129zM280 0h-201v560h202q150 0 238 -74q86 -75 86 -205q0 -127 -89 -204t-236 -77z" />
    <glyph glyph-name="e.sc" horiz-adv-x="526" 
d="M478 101l-25 -101h-374v560h372l24 -102h-279v-129h235v-92h-235v-136h282z" />
    <glyph glyph-name="f.sc" horiz-adv-x="499" 
d="M198 316h218v-100h-218v-216h-119v560h388l-25 -103h-244v-141z" />
    <glyph glyph-name="g.sc" horiz-adv-x="653" 
d="M333 303h246v-245q-110 -66 -236 -66q-134 0 -215 78q-81 76 -81 208q0 128 89 211q88 82 228 82q109 0 200 -44v-118q-101 56 -195 56q-89 0 -144 -52q-56 -53 -56 -136q0 -85 50.5 -133.5t137.5 -48.5q64 0 110 21v98h-134v89z" />
    <glyph glyph-name="g.scalt" horiz-adv-x="661" 
d="M331 303h285v-25q0 -135 -74 -212q-75 -78 -203 -78q-127 0 -209 82q-83 83 -83 210q0 126 86 210q86 83 212 83q129 0 226 -81l-31 -110h-2q-50 46 -93.5 65.5t-94.5 19.5q-79 0 -130 -53q-52 -52 -52 -135t50 -136t125 -53q61 0 101 32t53 90h-166v91z" />
    <glyph glyph-name="h.sc" horiz-adv-x="681" 
d="M602 560v-560h-120v231h-284v-231h-119v560h119v-222h284v222h120z" />
    <glyph glyph-name="i.sc" horiz-adv-x="286" 
d="M203 560v-560h-119v560h119z" />
    <glyph glyph-name="j.sc" horiz-adv-x="410" 
d="M137 96q38 0 59 22.5t21 64.5v377h119v-397q0 -80 -47 -126t-127 -46q-57 0 -110 28l-20 117l1 2q59 -42 104 -42z" />
    <glyph glyph-name="k.sc" horiz-adv-x="608" 
d="M593 2v-2h-151l-214 236h-30v-236h-119v560h119v-227h28l215 227h147v-2l-262 -269z" />
    <glyph glyph-name="l.sc" horiz-adv-x="491" 
d="M450 106v-106h-371v560h119v-454h252z" />
    <glyph glyph-name="m.sc" horiz-adv-x="867" 
d="M669 436l-228 -446h-17l-228 446l1 -436h-117v560h176l178 -363l178 363h175v-560h-119z" />
    <glyph glyph-name="n.sc" horiz-adv-x="687" 
d="M608 560v-563h-67l-345 394l1 -391h-118v560h120l292 -337l-1 337h118z" />
    <glyph glyph-name="o.sc" horiz-adv-x="691" 
d="M346 574q128 0 213 -85t85 -208t-86 -209t-213 -86t-212 85q-86 84 -86 208t86 210q85 85 213 85zM346 93q75 0 126 53q50 53 50 133q0 79 -50 134q-51 54 -127 54q-75 0 -126 -53q-51 -54 -51 -133q0 -80 51 -134t127 -54z" />
    <glyph glyph-name="p.sc" horiz-adv-x="549" 
d="M286 459h-89v-182h85q51 0 81.5 25.5t30.5 68.5q0 40 -29 64t-79 24zM512 375q0 -90 -61.5 -142.5t-164.5 -52.5h-88v-180h-119v560h212q103 0 162 -49t59 -136z" />
    <glyph glyph-name="q.sc" horiz-adv-x="691" 
d="M521 -119q-65 0 -112 26t-93 86q-117 10 -193 91q-76 80 -76 196q0 124 87 209q85 85 212 85q128 0 213 -84q86 -84 86 -206q0 -92 -52 -165t-140 -105q40 -43 97 -43q41 0 77 16l3 -2l-35 -92q-32 -12 -74 -12zM346 93q75 0 126 54q51 53 51 132q0 80 -51 134t-127 54
q-75 0 -126 -53q-51 -54 -51 -133q0 -80 51 -134t127 -54z" />
    <glyph glyph-name="q.scalt" horiz-adv-x="695" 
d="M168 280q0 -79 51 -133q49 -55 120 -55q58 0 102 29l-97 85l62 64l94 -85q23 43 23 95q0 79 -51 133q-52 54 -127 54t-126 -53q-51 -54 -51 -134zM585 110l63 -54l-62 -65l-64 58q-80 -59 -186 -59q-120 0 -204 86q-85 85 -85 205q0 123 87 208q85 85 212 85
q126 0 212 -83q86 -84 86 -204q0 -99 -59 -177z" />
    <glyph glyph-name="r.sc" horiz-adv-x="585" 
d="M294 462h-97v-168h93q44 0 71.5 23.5t27.5 60.5q0 39 -25.5 61.5t-69.5 22.5zM394 224l189 -224h-144l-168 204h-73v-204h-119v560h223q97 0 151 -46t54 -130q0 -54 -29.5 -96t-83.5 -64z" />
    <glyph glyph-name="s.sc" horiz-adv-x="504" 
d="M253 471q-39 0 -61 -15.5t-22 -42.5q0 -26 22 -42q25 -18 90 -40q98 -31 136 -71q37 -40 37 -104q0 -73 -58 -119q-59 -47 -152 -47q-102 0 -188 58l-19 125l2 1q115 -86 209 -86q42 0 66.5 16.5t24.5 45.5q0 27 -23 44q-22 16 -94 42q-99 33 -133 72q-36 38 -36 101
q0 71 57 116q56 44 146 44q95 0 172 -40v-116h-2q-94 58 -174 58z" />
    <glyph glyph-name="t.sc" horiz-adv-x="615" 
d="M36 560h543v-106h-212v-454h-119v454h-212v106z" />
    <glyph glyph-name="u.sc" horiz-adv-x="657" 
d="M328 -10q-120 0 -188 69.5t-68 191.5v309h120v-309q0 -75 36 -116t102 -41t102 41.5t36 117.5v307h116v-309q0 -122 -68 -191.5t-188 -69.5z" />
    <glyph glyph-name="v.sc" horiz-adv-x="658" 
d="M633 560l-262 -566h-89l-255 566h133l170 -405l176 405h127z" />
    <glyph glyph-name="w.sc" horiz-adv-x="975" 
d="M488 335l-156 -338h-104l-192 563h130l126 -403l190 411h16l187 -411l130 403h127l-199 -563h-105z" />
    <glyph glyph-name="x.sc" horiz-adv-x="635" 
d="M387 285l218 -285h-138l-152 205l-150 -205h-135l217 284l-211 276h139l145 -196l143 196h136z" />
    <glyph glyph-name="y.sc" horiz-adv-x="606" 
d="M593 560l-230 -323v-237h-119v237l-230 323h140l153 -227l152 227h134z" />
    <glyph glyph-name="z.sc" horiz-adv-x="595" 
d="M237 101h323l-31 -101h-487l-5 14l315 445h-288v101h482l6 -14z" />
    <glyph glyph-name="quoteleftreversed" horiz-adv-x="236" 
d="M75 700h125q-35 -52 -47 -81q-11 -27 -11 -51q0 -55 67 -144l-37 -28q-82 72 -111 115q-27 41 -27 77q0 51 41 112z" />
    <glyph glyph-name="guillemotleft.cap" horiz-adv-x="640" 
d="M303 362l243 251l42 -24l-148 -236l148 -238l-42 -24l-243 250v21zM40 362l243 251l42 -24l-148 -236l148 -238l-42 -24l-243 250v21z" />
    <glyph glyph-name="guillemotright.cap" horiz-adv-x="640" 
d="M337 341l-243 -250l-42 24l148 236l-148 237l42 24l243 -250v-21zM600 341l-243 -250l-42 24l148 236l-148 237l42 24l243 -250v-21z" />
    <glyph glyph-name="guilsinglleft.cap" horiz-adv-x="387" 
d="M40 362l254 251l42 -24l-159 -236l159 -238l-42 -24l-254 250v21z" />
    <glyph glyph-name="guilsinglright.cap" horiz-adv-x="387" 
d="M347 341l-253 -250l-42 24l158 236l-158 238l42 24l253 -251v-21z" />
    <glyph glyph-name="parenleft.cap" horiz-adv-x="424" 
d="M186 348q0 -231 216 -411l-31 -36q-156 99 -228 206.5t-72 240.5t72 240.5t228 206.5l31 -36q-216 -180 -216 -411z" />
    <glyph glyph-name="parenright.cap" horiz-adv-x="424" 
d="M237 348q0 230 -215 411l31 36q156 -99 228 -206.5t72 -240.5t-72 -240.5t-228 -206.5l-31 36q215 181 215 411z" />
    <glyph glyph-name="bracketleft.cap" horiz-adv-x="419" 
d="M387 -17l-13 -70h-276v870h276l13 -70h-180v-730h180z" />
    <glyph glyph-name="bracketright.cap" horiz-adv-x="419" 
d="M31 713l14 70h276v-870h-276l-14 70h181v730h-181z" />
    <glyph glyph-name="braceleft.cap" horiz-adv-x="505" 
d="M365 -17h109l-14 -70h-125q-89 0 -140.5 39.5t-51.5 106.5q0 41 35 112q25 52 25 74q0 28 -20 42.5t-73 23.5l-80 14v46l80 14q53 9 73 23.5t20 42.5q0 22 -25 74q-35 71 -35 112q0 67 51.5 106.5t140.5 39.5h125l14 -70h-109q-102 0 -102 -75q0 -24 24 -80
q30 -69 30 -103q0 -38 -23 -63t-77 -44q54 -19 77 -44t23 -63q0 -34 -30 -103q-24 -56 -24 -80q0 -36 26.5 -55.5t75.5 -19.5z" />
    <glyph glyph-name="braceright.cap" horiz-adv-x="505" 
d="M361 59q0 -68 -51.5 -107t-139.5 -39h-125l-14 70h109q102 0 102 75q0 24 -25 80q-30 69 -30 103q0 38 23.5 63t77.5 44q-54 19 -77.5 44t-23.5 63q0 34 30 103q25 56 25 80q0 36 -26.5 55.5t-75.5 19.5h-109l14 70h125q88 0 139.5 -39t51.5 -107q0 -41 -35 -112
q-25 -52 -25 -74q0 -28 20 -42.5t73 -23.5l80 -14v-46l-80 -14q-53 -9 -73 -23.5t-20 -42.5q0 -22 25 -74q35 -71 35 -112z" />
    <glyph glyph-name="slash.cap" horiz-adv-x="468" 
d="M456 780l-351 -870h-96l351 870h96z" />
    <glyph glyph-name="bar.cap" horiz-adv-x="386" 
d="M146 780h94v-870h-94v870z" />
    <glyph glyph-name="backslash.cap" horiz-adv-x="468" 
d="M13 780h95l351 -870h-95z" />
    <glyph glyph-name="hyphen.cap" horiz-adv-x="409" 
d="M344 300h-279v111h279v-111z" />
    <glyph glyph-name="endash.cap" horiz-adv-x="563" 
d="M499 303h-436v105h436v-105z" />
    <glyph glyph-name="emdash.cap" horiz-adv-x="943" 
d="M879 303h-816v105h816v-105z" />
    <glyph glyph-name="periodcentered.cap" horiz-adv-x="265" 
d="M133 261q-37 0 -63.5 26.5t-26.5 62.5q0 37 26.5 63.5t63.5 26.5q36 0 62.5 -27t26.5 -63t-26.5 -62.5t-62.5 -26.5z" />
    <glyph glyph-name="colon.fig" horiz-adv-x="261" 
d="M131 418q-33 0 -57 23.5t-24 56.5t24 57t57 24t56.5 -24t23.5 -57t-23.5 -56.5t-56.5 -23.5zM131 122q-33 0 -57 23.5t-24 56.5t24 57t57 24t56.5 -24t23.5 -57t-23.5 -56.5t-56.5 -23.5z" />
    <glyph glyph-name="paragraph.alt" horiz-adv-x="625" 
d="M537 0h-84v700h84v-700zM294 700h74v-700h-74v150h-14q-107 0 -172 56q-66 56 -66 149q0 96 66 151.5t179 55.5h7v138z" />
    <glyph glyph-name="zero.osf" horiz-adv-x="638" 
d="M318 -14q-118 0 -194 79q-77 79 -77 196q0 119 78 198q78 80 195 80q118 0 194 -79q77 -80 77 -197q0 -118 -77 -198q-78 -79 -196 -79zM476 261q0 75 -45 125t-113 50q-66 0 -111 -50t-45 -123q0 -74 45 -124t113 -50q66 0 111 50t45 122z" />
    <glyph glyph-name="one.osf" horiz-adv-x="402" 
d="M290 536l22 -4v-532h-118v367l-160 -94v116z" />
    <glyph glyph-name="two.osf" horiz-adv-x="549" 
d="M255 99l263 1l-40 -100h-437l-6 31l235 209q49 45 67.5 72t18.5 52q0 32 -20.5 50t-57.5 18q-95 0 -204 -134h-2l-24 115q106 124 244 124q84 0 134.5 -44.5t50.5 -117.5q0 -46 -28.5 -89.5t-100.5 -105.5z" />
    <glyph glyph-name="three.osf" horiz-adv-x="550" 
d="M496 13q0 -91 -75 -149q-74 -58 -189 -58q-94 0 -171 25l-19 114q88 -36 187 -36q65 0 107.5 30.5t42.5 77.5q0 106 -225 107l-10 51q120 50 169 89t49 83q0 37 -27 60.5t-70 23.5q-86 0 -199 -106h-2v126q100 84 215 84q91 0 146 -48t55 -127q0 -105 -136 -177
q72 -15 112 -60t40 -110z" />
    <glyph glyph-name="four.osf" horiz-adv-x="649" 
d="M382 396l-207 -301h207v301zM492 95h129v-95h-129v-191h-113v191h-358l-5 36l342 495h134v-436z" />
    <glyph glyph-name="five.osf" horiz-adv-x="573" 
d="M527 55q0 -114 -90 -182q-91 -67 -243 -67q-58 0 -125 14l-17 114q78 -22 140 -22q93 0 151.5 38t58.5 98q0 52 -38.5 81.5t-106.5 29.5q-81 0 -160 -25l-13 9v382h407v-109h-299v-164q40 10 99 10q103 0 170 -56q66 -55 66 -151z" />
    <glyph glyph-name="six.osf" horiz-adv-x="634" 
d="M589 240q0 -109 -75 -181q-76 -73 -196 -73q-123 0 -194.5 68.5t-71.5 185.5q0 68 29 138q27 64 106 178l137 192h140l-167 -232q-2 -3 -7 -10t-13.5 -19t-16.5 -24q62 15 106 15q96 0 160 -67q63 -67 63 -171zM172 244q0 -71 40 -112.5t108 -41.5q65 0 108 43
q42 42 42 104q0 66 -43.5 105.5t-114.5 39.5q-47 0 -107 -13q-33 -67 -33 -125z" />
    <glyph glyph-name="seven.osf" horiz-adv-x="586" 
d="M550 525l8 -12l-333 -704h-131l297 608h-328l-20 108h507z" />
    <glyph glyph-name="eight.osf" horiz-adv-x="624" 
d="M570 197q0 -91 -73 -149q-73 -60 -186 -60q-111 0 -184 59q-73 58 -73 147q0 59 33.5 107.5t92.5 76.5q-49 27 -76.5 72.5t-27.5 98.5q0 87 67 147t170 60q101 0 169 -60q66 -60 66 -147q0 -52 -27 -97t-76 -73q59 -27 92 -75t33 -107zM311 657q-52 0 -85 -33t-33 -83
q0 -48 35 -83t85 -35q48 0 83 35q34 34 34 83t-34 82.5t-85 33.5zM311 330q-55 0 -96 -35q-41 -36 -41 -86q0 -53 40 -88t99 -35q58 0 97 35t39 88q0 50 -41 86q-41 35 -97 35z" />
    <glyph glyph-name="nine.osf" horiz-adv-x="613" 
d="M423 -36l-110 -155h-140l142 198q16 21 46 66q-52 -16 -100 -16q-93 0 -154 66q-62 65 -62 167q0 108 73 178q74 71 187 71q117 0 187 -70q69 -71 69 -186q0 -70 -28 -136t-110 -183zM164 293q0 -64 40.5 -101.5t108.5 -37.5q56 0 99 11q30 65 30 115q0 69 -37.5 111
t-100.5 42q-60 0 -100 -40t-40 -100z" />
    <glyph glyph-name="plus.osf" horiz-adv-x="600" 
d="M353 318h200v-102h-200v-202h-106v202h-200v102h200v201h106v-201z" />
    <glyph glyph-name="divide.osf" horiz-adv-x="600" 
d="M300 396q-32 0 -55 22.5t-23 54.5t23 55t55 23t55 -23t23 -55t-23 -54.5t-55 -22.5zM300 315l253 1v-98l-253 1l-253 -1v98zM300 -18q-32 0 -55 23t-23 55t23 54.5t55 22.5t55 -22.5t23 -54.5t-23 -55t-55 -23z" />
    <glyph glyph-name="minus.osf" horiz-adv-x="600" 
d="M47 318h506v-102h-506v102z" />
    <glyph glyph-name="equal.osf" horiz-adv-x="600" 
d="M56 416h488v-96h-488v96zM56 214h488v-96h-488v96z" />
    <glyph glyph-name="notequal.osf" horiz-adv-x="600" 
d="M313 214h231v-96h-277l-63 -133l-62 29l49 104h-135v96h181l50 106h-231v96h277l63 133l62 -29l-49 -104h135v-96h-181z" />
    <glyph glyph-name="asciitilde.osf" horiz-adv-x="600" 
d="M193 376q32 0 128 -61q72 -44 87 -44q17 0 33 20.5t47 81.5l63 -32q-45 -105 -75 -144q-32 -39 -69 -39q-32 0 -128 61q-72 44 -87 44q-17 0 -33 -20.5t-47 -81.5l-63 32q46 106 76 144q30 39 68 39z" />
    <glyph glyph-name="approxequal.osf" horiz-adv-x="600" 
d="M190 500q33 0 129 -61q68 -44 86 -44t33.5 20t46.5 82l64 -32q-45 -105 -74 -139q-32 -39 -70 -39q-32 0 -128 61q-72 44 -88 44q-17 0 -32.5 -20t-46.5 -82l-64 32q41 98 74 139q31 39 70 39zM195 247q32 0 128 -61q72 -44 88 -44t33 20q12 16 46 82l64 -32
q-42 -101 -73 -139q-31 -39 -71 -39q-33 0 -129 61q-68 44 -86 44t-33.5 -20t-46.5 -82l-64 32q45 104 74 140q32 38 70 38z" />
    <glyph glyph-name="multiply.osf" horiz-adv-x="600" 
d="M371 268l167 -165l-74 -74l-164 168l-165 -168l-73 73l167 166l-167 165l74 74l164 -168l165 168l73 -74z" />
    <glyph glyph-name="less.osf" horiz-adv-x="600" 
d="M217 268l323 -147v-113l-490 235v48l490 235v-110z" />
    <glyph glyph-name="greater.osf" horiz-adv-x="600" 
d="M550 291v-47l-490 -236v111l323 147l-323 147v113z" />
    <glyph glyph-name="numbersign.osf" horiz-adv-x="642" 
d="M412 325h-145l-37 -125h145zM418 101l-30 -103h-71l30 103h-145l-30 -103h-71l30 103h-100v100h129l35 123h-124v99h153l30 104h71l-30 -104h145l30 104h71l-30 -104h100v-99h-129l-35 -123h124v-100h-153z" />
    <glyph glyph-name="cent.osf" horiz-adv-x="552" 
d="M494 179l2 -1l-17 -120q-73 -47 -160 -52l-10 -98h-82l11 106q-88 21 -139.5 87.5t-51.5 160.5q0 102 67 173q68 71 173 81l10 102h82l-10 -104q57 -7 118 -50v-125h-2q-72 63 -128 73l-29 -303q85 6 166 70zM161 263q0 -50 24 -87.5t67 -54.5l28 291q-54 -12 -86.5 -53
t-32.5 -96z" />
    <glyph glyph-name="zero.tab" horiz-adv-x="600" 
d="M557 351q0 -172 -68 -268.5t-190 -96.5t-189 95t-67 268q0 172 68 268.5t190 96.5q121 0 188.5 -96t67.5 -267zM299 607q-65 0 -101.5 -67.5t-36.5 -188.5q0 -122 37 -190t103 -68q65 0 101.5 67.5t36.5 188.5q0 122 -37 190t-103 68z" />
    <glyph glyph-name="one.tab" horiz-adv-x="600" 
d="M384 102h154v-102h-444v102h168v433l-168 -99v126l262 152l28 -6v-606z" />
    <glyph glyph-name="two.tab" horiz-adv-x="600" 
d="M245 107l317 1l-24 -108h-497l-3 38l284 309q47 51 66 84.5t19 65.5q0 46 -29.5 74.5t-77.5 28.5q-110 0 -218 -158h-2l-29 121q100 147 259 147q98 0 157 -55t59 -146q0 -55 -26 -105q-26 -51 -95 -124z" />
    <glyph glyph-name="three.tab" horiz-adv-x="600" 
d="M546 182q0 -84 -71 -138q-71 -55 -181 -55q-117 0 -227 65l-18 132l2 1q131 -90 235 -90q60 0 97.5 27t37.5 71q0 52 -52 80q-52 27 -200 54v48q137 39 187 70q51 30 51 75q0 38 -30 59.5t-81 21.5q-110 0 -225 -110l-2 1v124q100 94 235 94q103 0 164 -47t61 -126
q0 -122 -154 -176q171 -41 171 -181z" />
    <glyph glyph-name="four.tab" horiz-adv-x="600" 
d="M362 246v357l-213 -357h213zM476 249h104v-96h-104v-153h-115v153h-332l-13 52l303 500h157v-456z" />
    <glyph glyph-name="five.tab" horiz-adv-x="600" 
d="M548 224q0 -103 -75 -169q-76 -67 -197 -67q-110 0 -200 42l-15 117l2 1q111 -56 207 -56q68 0 111 36.5t43 92.5t-41 88t-113 32q-85 0 -173 -33l-14 7l25 385h405v-106h-306l-12 -164q46 13 102 13q113 0 183 -59q68 -59 68 -160z" />
    <glyph glyph-name="six.tab" horiz-adv-x="600" 
d="M562 230q0 -105 -73 -174q-73 -70 -189 -70q-118 0 -187 69q-70 69 -70 185q0 68 29 137q29 68 107 178l103 145h140l-142 -193q-22 -32 -46 -68q55 17 110 17q93 0 156 -63q62 -65 62 -163zM162 241q0 -68 38.5 -109.5t101.5 -41.5q62 0 102 39t40 96q0 63 -40.5 99
t-110.5 36q-50 0 -105 -11q-26 -61 -26 -108z" />
    <glyph glyph-name="seven.tab" horiz-adv-x="600" 
d="M573 700l4 -17l-333 -683h-131l300 592h-347l-20 108h527z" />
    <glyph glyph-name="eight.tab" horiz-adv-x="600" 
d="M554 187q0 -87 -72 -142q-74 -57 -183 -57q-110 0 -181 56q-72 56 -72 143q0 55 31 99.5t87 70.5q-46 25 -71.5 66.5t-25.5 92.5q0 86 66 141q65 55 168 55t167 -55q65 -56 65 -141q0 -105 -97 -159q56 -25 87 -69.5t31 -100.5zM299 614q-51 0 -84 -30t-33 -75t34 -76
t85 -31q50 0 83.5 31t33.5 76q0 44 -34.5 74.5t-84.5 30.5zM299 308q-57 0 -95 -31q-40 -31 -40 -79t39.5 -80t97.5 -32t96.5 31.5t38.5 80.5q0 48 -40 79t-97 31z" />
    <glyph glyph-name="nine.tab" horiz-adv-x="600" 
d="M421 145l-103 -145h-140l142 193q24 35 42 63q-58 -16 -106 -16q-92 0 -155 65t-63 164q0 104 74 175q73 70 188 70q118 0 188 -69q69 -69 69 -185q0 -68 -29 -137q-29 -68 -107 -178zM156 473q0 -63 40.5 -99.5t110.5 -36.5q49 0 104 11q27 57 27 111q0 68 -38.5 109.5
t-101.5 41.5q-60 0 -101 -39q-41 -41 -41 -98z" />
    <glyph glyph-name="twodotleader" horiz-adv-x="600" 
d="M450 -9q-33 0 -56.5 23.5t-23.5 55.5q0 33 23.5 56.5t56.5 23.5t56.5 -23.5t23.5 -56.5t-23.5 -56t-56.5 -23zM150 -9q-33 0 -56.5 23.5t-23.5 55.5q0 33 23.5 56.5t56.5 23.5t56.5 -23.5t23.5 -56.5t-23.5 -56t-56.5 -23z" />
    <glyph glyph-name="quotedbl.tab" horiz-adv-x="600" 
d="M378 403l-49 16l76 281h136zM136 403l-49 16l76 281h136z" />
    <glyph glyph-name="quotesingle.tab" horiz-adv-x="301" 
d="M107 403l-49 16l76 281h136z" />
    <glyph glyph-name="period.tab" horiz-adv-x="300" 
d="M150 -9q-35 0 -60.5 25t-25.5 60t25.5 60.5t60.5 25.5t60.5 -25.5t25.5 -60.5t-25 -60t-61 -25z" />
    <glyph glyph-name="comma.tab" horiz-adv-x="300" 
d="M43 -171l-43 34q53 68 74 128q20 62 24 157h130q-3 -104 -40 -171q-38 -68 -145 -148z" />
    <glyph glyph-name="colon.tab" horiz-adv-x="300" 
d="M150 344q-35 0 -60.5 25t-25.5 60t25.5 60.5t60.5 25.5t60.5 -25.5t25.5 -60.5t-25 -60t-61 -25zM150 -9q-35 0 -60.5 25t-25.5 60t25.5 60.5t60.5 25.5t60.5 -25.5t25.5 -60.5t-25 -60t-61 -25z" />
    <glyph glyph-name="colon.figtab" horiz-adv-x="300" 
d="M150 418q-33 0 -56.5 23.5t-23.5 56.5t23.5 57t56.5 24t56.5 -24t23.5 -57t-23.5 -56.5t-56.5 -23.5zM150 122q-33 0 -56.5 23.5t-23.5 56.5t23.5 57t56.5 24t56.5 -24t23.5 -57t-23.5 -56.5t-56.5 -23.5z" />
    <glyph glyph-name="periodcentered.tab" horiz-adv-x="300" 
d="M150 265q-35 0 -60.5 25t-25.5 60t25.5 60.5t60.5 25.5t60.5 -25.5t25.5 -60.5t-25 -60t-61 -25z" />
    <glyph glyph-name="slash.tab" horiz-adv-x="600" 
d="M594 783l-485 -870h-106l485 870h106z" />
    <glyph glyph-name="dollar.tab" horiz-adv-x="600" 
d="M168 514q0 -37 23 -58t83 -39l17 180q-56 0 -89.5 -22.5t-33.5 -60.5zM440 194q0 36 -22.5 57t-78.5 38l-18 -185q57 4 88 27.5t31 62.5zM313 -1l-15 -153h-82l15 155q-91 12 -174 64l-23 134l2 1q112 -74 208 -92l19 200q-117 29 -165 74.5t-48 123.5q0 87 69 141
t181 55l11 118h82l-12 -123q75 -11 141 -46v-126h-2q-72 46 -153 63l-18 -190q116 -30 163 -75q46 -46 46 -124q0 -87 -66 -140.5t-179 -59.5z" />
    <glyph glyph-name="sterling.tab" horiz-adv-x="600" 
d="M250 106l305 1l-25 -107h-475l-5 37q112 103 138 138q25 34 25 68q0 26 -13 51l-157 -3v79l108 2q-55 88 -55 150q0 86 63.5 138t169.5 52q105 0 203 -51l15 -129h-3q-118 73 -209 73q-52 0 -83 -25t-31 -67q0 -24 11 -51q9 -21 52 -87l206 3v-80l-165 -1q8 -27 8 -46
q0 -35 -18.5 -68t-64.5 -77z" />
    <glyph glyph-name="yen.tab" horiz-adv-x="600" 
d="M357 218h187v-70h-187v-148h-114v148h-187v70h187v72h-187v70h155l-193 340h131l154 -296l153 296h126l-193 -340h155v-70h-187v-72z" />
    <glyph glyph-name="Euro.tab" horiz-adv-x="600" 
d="M386 -12q-105 0 -174.5 67t-91.5 188h-90v70h82q-1 8 -1 36q0 32 1 41h-82v70h92q24 118 96 185t176 67q90 0 162 -46v-123h-2q-87 61 -151 61q-60 0 -102 -38t-59 -109h217v-67h-226q-1 -7 -1 -27v-24q0 -21 1 -26h226v-67h-218q17 -72 58 -111t101 -39q43 0 77.5 12
t82.5 44h2l-16 -121q-70 -43 -160 -43z" />
    <glyph glyph-name="zero.sup" horiz-adv-x="429" 
d="M395 615q0 -95 -50 -156q-51 -60 -131 -60q-82 0 -131 59t-49 156q0 96 51 156q49 60 131 60q80 0 130 -59q49 -59 49 -156zM215 754q-42 0 -67 -38t-25 -101t25 -101.5t67 -38.5q41 0 66 38t25 101t-25 101.5t-66 38.5z" />
    <glyph glyph-name="one.sup" horiz-adv-x="299" 
d="M222 831l10 -3v-421h-89v290l-113 -66v91z" />
    <glyph glyph-name="two.sup" horiz-adv-x="364" 
d="M342 482l-31 -75h-272l-8 36l144 164q52 60 52 92q0 22 -15 36.5t-39 14.5q-56 0 -124 -78h-2l-9 90q60 66 144 66q61 0 97.5 -32.5t36.5 -85.5q0 -34 -14.5 -63.5t-54.5 -74.5l-81 -90h176z" />
    <glyph glyph-name="three.sup" horiz-adv-x="357" 
d="M319 520q0 -51 -43.5 -85t-107.5 -34q-63 0 -128 33l-11 86l2 1q69 -47 129 -47q31 0 50 14t19 37q0 26 -29 42t-104 32v33q75 27 100 43.5t25 39.5q0 40 -57 40q-54 0 -121 -49h-2v82q61 40 134 40q62 0 99 -28t37 -75q0 -65 -82 -101q90 -30 90 -104z" />
    <glyph glyph-name="four.sup" horiz-adv-x="405" 
d="M230 749l-112 -190h112v190zM313 559h67v-66h-67v-86h-84v86h-212l-3 21l192 311h107v-266z" />
    <glyph glyph-name="five.sup" horiz-adv-x="378" 
d="M341 540q0 -63 -47.5 -101.5t-124.5 -38.5q-58 0 -118 24l-9 80l2 1q67 -33 116 -33q42 0 67 19t25 51q0 29 -23 45t-65 16q-41 0 -103 -17l-7 4l15 232h250v-75h-182l-7 -82q28 5 54 5q72 0 114.5 -35t42.5 -95z" />
    <glyph glyph-name="six.sup" horiz-adv-x="390" 
d="M363 549q0 -64 -48 -107q-47 -43 -120 -43q-75 0 -119 41.5t-44 110.5q0 40 18 80q17 38 69 107l63 84h104l-100 -123q-1 -1 -20 -27q30 10 64 10q58 0 95.5 -37t37.5 -96zM120 552q0 -37 21 -59.5t55 -22.5t56.5 21.5t22.5 53.5q0 34 -21.5 52.5t-61.5 18.5
q-31 0 -58 -7q-14 -33 -14 -57z" />
    <glyph glyph-name="seven.sup" horiz-adv-x="373" 
d="M351 822l4 -7l-194 -408h-95l167 340h-188l-13 75h319z" />
    <glyph glyph-name="eight.sup" horiz-adv-x="405" 
d="M367 517q0 -52 -45.5 -84.5t-119.5 -32.5t-119 32.5t-45 84.5q0 71 75 102q-62 29 -62 94q0 52 41.5 84t110.5 32q68 0 109.5 -32t41.5 -84q0 -65 -62 -94q75 -31 75 -102zM202 763q-30 0 -48 -15.5t-18 -40.5q0 -26 18.5 -42.5t48.5 -16.5q29 0 47.5 16.5t18.5 42.5
q0 25 -18.5 40.5t-48.5 15.5zM202 587q-34 0 -55 -17t-21 -45q0 -27 20.5 -43t56.5 -16q35 0 55.5 16t20.5 43q0 28 -21.5 45t-55.5 17z" />
    <glyph glyph-name="nine.sup" horiz-adv-x="390" 
d="M274 491l-63 -84h-104l100 123q12 15 16 21q-27 -9 -61 -9q-57 0 -94.5 38t-37.5 98q-1 66 46 110q46 43 121 43t119 -41.5t44 -110.5q0 -39 -17 -79q-17 -39 -69 -109zM117 682q0 -36 21.5 -55t60.5 -19q30 0 57 7q16 31 16 63q0 36 -21 58.5t-55 22.5t-56.5 -22
t-22.5 -55z" />
    <glyph glyph-name="zero.inf" horiz-adv-x="429" 
d="M395 74q0 -95 -50 -156q-51 -60 -131 -60q-82 0 -131 59t-49 156q0 96 51 156q49 60 131 60q80 0 130 -59q49 -59 49 -156zM215 213q-42 0 -67 -38t-25 -101t25 -101.5t67 -38.5q41 0 66 38t25 101t-25 101.5t-66 38.5z" />
    </font>
</defs>
</svg>
