<?xml version="1.0" standalone="no"?>
<!DOCTYPE svg PUBLIC "-//W3C//DTD SVG 1.1//EN" "http://www.w3.org/Graphics/SVG/1.1/DTD/svg11.dtd" >
<svg xmlns="http://www.w3.org/2000/svg" xmlns:xlink="http://www.w3.org/1999/xlink" version="1.1">
<metadata>
Created by FontForge 20170731 at Mon Nov 30 08:34:47 2015
 By Aleksey,,,
(C) 2015 Frere-Jones Type LLC
</metadata>
<defs>
<font id="MalloryLight-Regular" horiz-adv-x="0" >
  <font-face 
    font-family="Mallory Light"
    font-weight="400"
    font-stretch="normal"
    units-per-em="1000"
    panose-1="2 1 4 1 3 5 1 2 3 4"
    ascent="800"
    descent="-200"
    x-height="494"
    cap-height="700"
    bbox="-215 -263 1396 1072"
    underline-thickness="50"
    underline-position="-225"
    unicode-range="U+000D-FB02"
  />
<missing-glyph horiz-adv-x="700" 
d="M600 -240h-500v1200h500v-1200zM507 910h-315l158 -481zM150 -154l171 514l-171 514v-1028zM550 874l-172 -514l172 -514v1028zM507 -190l-157 481l-158 -481h315z" />
    <glyph glyph-name="fi" unicode="fi" horiz-adv-x="639" 
d="M366 494v-58h-168v-436h-67v436h-90v58h90v92q0 78 41.5 123t113.5 45q23 0 43 -5t40 -16l12 -69l-2 -1q-28 17 -48 23.5t-42 6.5q-42 0 -66.5 -28t-24.5 -76v-95h168zM511 719q20 0 34 -14.5t14 -34.5q0 -21 -14 -35t-35 -14q-20 0 -34 14.5t-14 34.5t14.5 34.5
t34.5 14.5zM544 0h-67v494h67v-494z" />
    <glyph glyph-name="fl" unicode="fl" horiz-adv-x="639" 
d="M366 494v-58h-168v-436h-67v436h-90v58h90v92q0 78 41.5 123t113.5 45q23 0 43 -5t40 -16l12 -69l-2 -1q-28 17 -48 23.5t-42 6.5q-42 0 -66.5 -28t-24.5 -76v-95h168zM544 0h-67v730l67 25v-755z" />
    <glyph glyph-name="f_f" unicode="ff" horiz-adv-x="764" 
d="M366 494v-58h-168v-436h-67v436h-90v58h90v92q0 78 41.5 123t113.5 45q23 0 43 -5t40 -16l12 -69l-2 -1q-28 17 -48 23.5t-42 6.5q-42 0 -66.5 -28t-24.5 -76v-95h168zM748 494v-58h-168v-436h-67v436h-90v58h90v92q0 78 41.5 123t113.5 45q23 0 43 -5t40 -16l12 -69
l-2 -1q-28 17 -48 23.5t-42 6.5q-42 0 -66.5 -28t-24.5 -76v-95h168z" />
    <glyph glyph-name="f_f_i" unicode="ffi" horiz-adv-x="1021" 
d="M366 494v-58h-168v-436h-67v436h-90v58h90v92q0 78 41.5 123t113.5 45q23 0 43 -5t40 -16l12 -69l-2 -1q-28 17 -48 23.5t-42 6.5q-42 0 -66.5 -28t-24.5 -76v-95h168zM748 494v-58h-168v-436h-67v436h-90v58h90v92q0 78 41.5 123t113.5 45q23 0 43 -5t40 -16l12 -69
l-2 -1q-28 17 -48 23.5t-42 6.5q-42 0 -66.5 -28t-24.5 -76v-95h168zM893 719q20 0 34 -14.5t14 -34.5q0 -21 -14 -35t-35 -14q-20 0 -34 14.5t-14 34.5t14.5 34.5t34.5 14.5zM926 0h-67v494h67v-494z" />
    <glyph glyph-name="f_f_l" unicode="ffl" horiz-adv-x="1021" 
d="M366 494v-58h-168v-436h-67v436h-90v58h90v92q0 78 41.5 123t113.5 45q23 0 43 -5t40 -16l12 -69l-2 -1q-28 17 -48 23.5t-42 6.5q-42 0 -66.5 -28t-24.5 -76v-95h168zM748 494v-58h-168v-436h-67v436h-90v58h90v92q0 78 41.5 123t113.5 45q23 0 43 -5t40 -16l12 -69
l-2 -1q-28 17 -48 23.5t-42 6.5q-42 0 -66.5 -28t-24.5 -76v-95h168zM926 0h-67v730l67 25v-755z" />
    <glyph glyph-name=".notdef" horiz-adv-x="700" 
d="M600 -240h-500v1200h500v-1200zM507 910h-315l158 -481zM150 -154l171 514l-171 514v-1028zM550 874l-172 -514l172 -514v1028zM507 -190l-157 481l-158 -481h315z" />
    <glyph glyph-name=".null" 
 />
    <glyph glyph-name=".null" 
 />
    <glyph glyph-name="nonmarkingreturn" horiz-adv-x="333" 
 />
    <glyph glyph-name="CR" unicode="&#xd;" horiz-adv-x="218" 
 />
    <glyph glyph-name="space" unicode=" " horiz-adv-x="218" 
 />
    <glyph glyph-name="exclam" unicode="!" horiz-adv-x="251" 
d="M161 700v-133l-20 -363h-31l-20 363v133h71zM125 -7q-22 0 -37.5 15.5t-15.5 37.5t15.5 37.5t37.5 15.5t38 -15.5t16 -37.5t-16 -37.5t-38 -15.5z" />
    <glyph glyph-name="quotedbl" unicode="&#x22;" horiz-adv-x="417" 
d="M229 422l88 278h84l-143 -289zM44 422l87 278h85l-143 -289z" />
    <glyph glyph-name="numbersign" unicode="#" horiz-adv-x="670" 
d="M214 250h204l47 200h-204zM407 -2h-48l45 190h-204l-45 -190h-48l45 190h-122v62h136l47 200h-133v62h147l45 190h48l-45 -190h204l45 190h48l-45 -190h113v-62h-127l-47 -200h124v-62h-138z" />
    <glyph glyph-name="dollar" unicode="$" horiz-adv-x="579" 
d="M284 641q-67 0 -109.5 -31.5t-42.5 -81.5q0 -48 32.5 -78.5t112.5 -56.5l24 247q-3 1 -7 1h-10zM459 182q0 49 -32.5 80t-110.5 55l-25 -258q76 0 122 33.5t46 89.5zM286 -2l-16 -161h-48l17 164q-49 6 -95 24t-83 45l-16 82l2 1q48 -36 99.5 -59.5t99.5 -30.5l25 267
q-113 32 -157.5 76.5t-44.5 116.5q0 80 62 129.5t161 49.5h14l12 121h48l-12 -126q36 -5 70.5 -18.5t65.5 -33.5v-75h-2q-33 24 -69 40t-72 24l-25 -255q112 -32 156 -77t44 -117q0 -85 -65.5 -136t-170.5 -51z" />
    <glyph glyph-name="percent" unicode="%" horiz-adv-x="921" 
d="M383 515q0 -88 -46.5 -144t-119.5 -56t-119 55.5t-46 143.5t46.5 144t119.5 56t119 -56t46 -143zM256 -2h-63l248 365l224 339h63l-247 -365zM217 662q-47 0 -77 -41.5t-30 -105.5q0 -65 30.5 -106.5t78.5 -41.5q47 0 76.5 41t29.5 105q0 66 -30 107.5t-78 41.5zM539 185
q0 88 46.5 144t119.5 56t119 -55.5t46 -143.5t-46.5 -144t-119.5 -56t-119 56t-46 143zM705 38q46 0 76.5 41.5t30.5 105.5q0 66 -30 107t-79 41q-46 0 -76 -41t-30 -105q0 -66 30 -107.5t78 -41.5z" />
    <glyph glyph-name="ampersand" unicode="&#x26;" horiz-adv-x="686" 
d="M325 658q-47 0 -79 -31.5t-32 -78.5q0 -35 15 -70.5t51 -85.5q72 40 108 81t36 83q0 44 -28.5 73t-70.5 29zM111 166q0 -48 34.5 -80.5t86.5 -32.5q46 0 89 23.5t91 74.5q-48 47 -86.5 89.5t-68.5 81.5q-79 -42 -112.5 -78t-33.5 -78zM663 0h-88q-41 36 -69 62t-51 48
q-59 -61 -113.5 -89t-114.5 -28q-80 0 -131 47.5t-51 120.5q0 61 42 110t136 96q-40 56 -57.5 98t-17.5 81q0 73 51.5 120.5t130.5 47.5q68 0 114 -44t46 -110q0 -58 -44.5 -111t-132.5 -100q31 -38 65.5 -76t74.5 -77q23 28 51 65t70 96h74l-1 -3q-53 -74 -88 -119.5
t-64 -79.5q38 -36 79.5 -74t88.5 -78v-3z" />
    <glyph glyph-name="quotesingle" unicode="'" horiz-adv-x="231" 
d="M44 422l87 278h85l-143 -289z" />
    <glyph glyph-name="parenleft" unicode="(" horiz-adv-x="398" 
d="M144 305q0 -120 54.5 -222.5t169.5 -197.5l-21 -25q-142 104 -204.5 209.5t-62.5 235.5t62.5 235.5t204.5 209.5l21 -25q-115 -95 -169.5 -197.5t-54.5 -222.5z" />
    <glyph glyph-name="parenright" unicode=")" horiz-adv-x="398" 
d="M254 305q0 120 -54.5 222.5t-170.5 197.5l21 25q142 -103 204.5 -209t62.5 -236t-62.5 -236t-204.5 -209l-21 25q116 95 170.5 197.5t54.5 222.5z" />
    <glyph glyph-name="asterisk" unicode="*" horiz-adv-x="524" 
d="M255 534l-31 176h77l-32 -176h-14zM297 513l155 86l24 -74l-174 -26zM228 513l-5 -14l-174 26l23 74zM290 468l128 -120l-63 -44l-76 155zM235 468l11 -9l-77 -155l-62 44z" />
    <glyph glyph-name="plus" unicode="+" horiz-adv-x="600" 
d="M550 381v-59h-219v-222h-62v222h-219v59h219v220h62v-220h219z" />
    <glyph glyph-name="comma" unicode="," horiz-adv-x="183" 
d="M8 -161l-21 19q49 60 63.5 100t14.5 106v24h69q0 -78 -24 -129.5t-102 -119.5z" />
    <glyph glyph-name="hyphen" unicode="-" horiz-adv-x="371" 
d="M60 240v63h250v-63h-250z" />
    <glyph glyph-name="period" unicode="." horiz-adv-x="183" 
d="M91 -7q-22 0 -37.5 15.5t-15.5 37.5t15.5 37.5t37.5 15.5t37.5 -15.5t15.5 -37.5t-15.5 -37.5t-37.5 -15.5z" />
    <glyph glyph-name="slash" unicode="/" horiz-adv-x="440" 
d="M52 -130h-58l354 870h59z" />
    <glyph glyph-name="zero" unicode="0" horiz-adv-x="661" 
d="M596 351q0 -160 -74 -262.5t-192 -102.5t-191.5 101.5t-73.5 261.5t74 262.5t192 102.5t191.5 -101.5t73.5 -261.5zM329 651q-86 0 -140.5 -84t-54.5 -216q0 -133 55 -217.5t143 -84.5q86 0 140.5 84t54.5 216q0 133 -55.5 217.5t-142.5 84.5z" />
    <glyph glyph-name="one" unicode="1" horiz-adv-x="423" 
d="M296 707v-707h-68v603l-185 -124v75l238 157z" />
    <glyph glyph-name="two" unicode="2" horiz-adv-x="572" 
d="M491 0h-431l-6 16l255 299q60 71 82.5 115t22.5 90q0 55 -36.5 91.5t-93.5 36.5q-56 0 -107.5 -35.5t-99.5 -108.5h-2l-12 78q46 65 102 96.5t122 31.5q86 0 140 -51t54 -133q0 -57 -24.5 -107.5t-91.5 -129.5l-198 -227h358z" />
    <glyph glyph-name="three" unicode="3" horiz-adv-x="549" 
d="M487 179q0 -82 -65.5 -136t-158.5 -54q-53 0 -97 13t-101 47l-13 82l2 1q58 -43 106.5 -61.5t100.5 -18.5q66 0 111 36t45 92q0 67 -62 108t-183 53v29q120 31 175.5 71.5t55.5 98.5q0 48 -35.5 78.5t-92.5 30.5q-46 0 -94.5 -19.5t-102.5 -61.5h-2v76q55 37 102 52
t101 15q87 0 140.5 -45.5t53.5 -119.5q0 -59 -40.5 -104.5t-119.5 -75.5q83 -21 128.5 -70t45.5 -117z" />
    <glyph glyph-name="four" unicode="4" horiz-adv-x="618" 
d="M127 231h273v384zM581 231v-57h-117v-174h-65v174h-363l-4 18l367 513l4 -2v2h61v-474h117z" />
    <glyph glyph-name="five" unicode="5" horiz-adv-x="573" 
d="M517 217q0 -99 -70 -164t-180 -65q-52 0 -99 12t-91 36l-11 76q52 -32 101 -47t99 -15q78 0 129.5 46.5t51.5 117.5t-47 113t-126 42q-43 0 -88 -11t-83 -31l-14 8l26 365h372v-63h-312l-17 -230q32 13 63 18.5t66 5.5q103 0 166.5 -58.5t63.5 -155.5z" />
    <glyph glyph-name="six" unicode="6" horiz-adv-x="586" 
d="M535 222q0 -100 -69 -168t-173 -68q-107 0 -170.5 66t-63.5 177q0 70 31.5 141.5t113.5 182.5l110 147h81l-130 -173q-23 -31 -42 -59t-35 -54q34 13 65 18.5t65 5.5q93 0 155 -60.5t62 -155.5zM128 231q0 -84 45.5 -134t121.5 -50q75 0 123.5 49t48.5 122
q0 77 -48.5 119.5t-132.5 42.5q-29 0 -60 -5t-67 -15q-16 -33 -23.5 -64.5t-7.5 -64.5z" />
    <glyph glyph-name="seven" unicode="7" horiz-adv-x="559" 
d="M527 688l-328 -688h-75l311 638h-375l-15 62h477z" />
    <glyph glyph-name="eight" unicode="8" horiz-adv-x="605" 
d="M544 180q0 -82 -69.5 -137t-172.5 -55t-172 55t-69 137q0 58 35.5 105t97.5 71q-53 25 -83.5 69.5t-30.5 97.5q0 80 64 134.5t159 54.5t158.5 -54.5t63.5 -134.5q0 -53 -30 -97t-83 -69q62 -25 97 -71.5t35 -105.5zM301 652q-67 0 -110 -37.5t-43 -94.5t45.5 -96.5
t109.5 -39.5q65 0 110 39.5t45 96.5t-44.5 94.5t-112.5 37.5zM302 326q-70 0 -121.5 -40t-51.5 -98q0 -61 50 -100.5t125 -39.5q74 0 123.5 39.5t49.5 100.5q0 57 -52.5 97.5t-122.5 40.5z" />
    <glyph glyph-name="nine" unicode="9" horiz-adv-x="586" 
d="M381 147l-109 -147h-81l129 173q20 27 38 52.5t34 51.5q-32 -11 -62 -16.5t-62 -5.5q-94 0 -155.5 61t-61.5 158q0 101 69 170.5t173 69.5q106 0 169.5 -66t63.5 -177q0 -71 -31.5 -142.5t-113.5 -181.5zM119 478q0 -79 48 -122t133 -43q27 0 57 4.5t66 14.5
q17 36 25.5 69t8.5 68q0 84 -45 134t-121 50q-75 0 -123.5 -50t-48.5 -125z" />
    <glyph glyph-name="colon" unicode=":" horiz-adv-x="199" 
d="M99 395q-22 0 -37.5 15.5t-15.5 37.5t15.5 37.5t37.5 15.5t38 -15.5t16 -37.5t-15.5 -37.5t-38.5 -15.5zM99 -7q-22 0 -37.5 15.5t-15.5 37.5t15.5 37.5t37.5 15.5t38 -15.5t16 -37.5t-16 -37.5t-38 -15.5z" />
    <glyph glyph-name="semicolon" unicode=";" horiz-adv-x="199" 
d="M102 395q-22 0 -37.5 15.5t-15.5 37.5t15.5 37.5t37.5 15.5t37.5 -15.5t15.5 -37.5t-15 -37.5t-38 -15.5zM13 -161l-21 19q49 60 63.5 100t14.5 106v24h69q0 -78 -24 -129.5t-102 -119.5z" />
    <glyph glyph-name="less" unicode="&#x3c;" horiz-adv-x="600" 
d="M526 165v-67l-462 242v23l462 241v-65l-362 -187z" />
    <glyph glyph-name="equal" unicode="=" horiz-adv-x="600" 
d="M540 481v-59h-480v59h480zM540 281v-59h-480v59h480z" />
    <glyph glyph-name="greater" unicode="&#x3e;" horiz-adv-x="600" 
d="M536 340l-462 -242v66l362 187l-362 187v66l462 -241v-23z" />
    <glyph glyph-name="question" unicode="?" horiz-adv-x="482" 
d="M43 537v77q46 48 98 72t109 24q79 0 129 -44.5t50 -115.5q0 -48 -26 -85t-97 -81q-56 -34 -74.5 -53t-18.5 -42q0 -15 6.5 -32.5t23.5 -47.5h-41q-30 38 -39.5 58t-9.5 43q0 29 21.5 54t86.5 65q59 35 80.5 61.5t21.5 60.5q0 42 -33 69.5t-83 27.5q-51 0 -100 -27
t-102 -85zM217 -7q-22 0 -37.5 15.5t-15.5 37.5t15.5 37.5t37.5 15.5t37.5 -15.5t15.5 -37.5t-15.5 -37.5t-37.5 -15.5z" />
    <glyph glyph-name="at" unicode="@" horiz-adv-x="1044" 
d="M480 -185q-196 0 -309 105.5t-113 287.5q0 104 41 202.5t116 174.5q76 77 173 118.5t203 41.5q179 0 288 -103.5t109 -273.5q0 -133 -66.5 -220.5t-170.5 -87.5q-51 0 -85.5 26.5t-38.5 68.5q-57 -49 -105.5 -72t-93.5 -23q-62 0 -99.5 40t-37.5 108q0 54 24 108t68 98
q43 42 96.5 65.5t109.5 23.5q30 0 60 -9t58 -26l34 28h20l-69 -292q-3 -13 -4 -21.5t-1 -16.5q0 -35 20.5 -54.5t57.5 -19.5q80 0 136.5 80.5t56.5 194.5q0 160 -100 255t-268 95q-99 0 -190.5 -39.5t-162.5 -112.5q-71 -72 -109.5 -165t-38.5 -190q0 -171 104 -268.5
t288 -97.5q77 0 145 12t134 38v-31q-71 -25 -138 -36.5t-142 -11.5zM353 215q0 -47 25 -73t69 -26q37 0 82.5 22t102.5 67l52 216q-23 14 -48 20.5t-52 6.5q-91 0 -161 -72.5t-70 -160.5z" />
    <glyph glyph-name="A" unicode="A" horiz-adv-x="781" 
d="M222 254h334l-165 372zM745 0h-76l-85 191h-390l-87 -191h-73l326 705h67z" />
    <glyph glyph-name="B" unicode="B" horiz-adv-x="607" 
d="M550 194q0 -88 -66.5 -141t-174.5 -53h-204v700h200q98 0 155 -48.5t57 -131.5q0 -53 -29 -93.5t-82 -63.5q69 -19 106.5 -63t37.5 -106zM300 638h-127v-251h120q68 0 111 36t43 93q0 56 -39.5 89t-107.5 33zM173 327v-265h139q77 0 122.5 36.5t45.5 96.5t-46.5 96
t-122.5 36h-138z" />
    <glyph glyph-name="C" unicode="C" horiz-adv-x="729" 
d="M405 -12q-146 0 -246 103t-100 259q0 73 27 139t77 117q51 51 117 78.5t138 27.5q69 0 131 -24.5t111 -70.5v-85h-2q-57 58 -117.5 86.5t-125.5 28.5q-116 0 -200 -87t-84 -208q0 -127 82 -213t197 -86q70 0 135 30t123 89l2 -2l-11 -84q-55 -49 -118.5 -73.5
t-135.5 -24.5z" />
    <glyph glyph-name="D" unicode="D" horiz-adv-x="782" 
d="M650 350q0 131 -88.5 208.5t-234.5 77.5h-152v-572h156q140 0 229.5 79t89.5 207zM329 0h-224v700h224q179 0 286 -94.5t107 -253.5q0 -158 -109.5 -255t-283.5 -97z" />
    <glyph glyph-name="E" unicode="E" horiz-adv-x="570" 
d="M492 0h-387v700h384l23 -64h-337v-248h286v-64h-286v-260h340z" />
    <glyph glyph-name="F" unicode="F" horiz-adv-x="537" 
d="M441 375v-64h-266v-311h-70v700h398l-23 -64h-305v-261h266z" />
    <glyph glyph-name="G" unicode="G" horiz-adv-x="793" 
d="M695 356v-285q-69 -43 -134 -62t-141 -19q-159 0 -260 99t-101 258q0 158 108 260.5t273 102.5q67 0 127 -16t114 -48v-79q-59 38 -120 57.5t-123 19.5q-131 0 -219 -84.5t-88 -210.5q0 -131 82.5 -212.5t211.5 -81.5q58 0 106 13t95 40v183h-223v65h292z" />
    <glyph glyph-name="H" unicode="H" horiz-adv-x="814" 
d="M709 0h-70v326h-464v-326h-70v700h70v-309h464v309h70v-700z" />
    <glyph glyph-name="I" unicode="I" horiz-adv-x="291" 
d="M180 0h-70v700h70v-700z" />
    <glyph glyph-name="J" unicode="J" horiz-adv-x="453" 
d="M166 56q52 0 82.5 33.5t30.5 90.5v520h70v-527q0 -84 -47 -133.5t-127 -49.5q-35 0 -65.5 10t-57.5 30l-17 83l2 1q32 -29 64.5 -43.5t64.5 -14.5z" />
    <glyph glyph-name="K" unicode="K" horiz-adv-x="680" 
d="M661 0h-95l-356 328h-35v-328h-70v700h70v-311h36l352 311h92v-3l-388 -337l394 -357v-3z" />
    <glyph glyph-name="L" unicode="L" horiz-adv-x="527" 
d="M493 0h-388v700h70v-636h318v-64z" />
    <glyph glyph-name="M" unicode="M" horiz-adv-x="1017" 
d="M514 -11h-14l-329 636v-625h-66v700h102l301 -588l300 588h104v-700h-69v627z" />
    <glyph glyph-name="N" unicode="N" horiz-adv-x="825" 
d="M719 -4h-25l-522 603v-599h-67v700h66l481 -555v555h67v-704z" />
    <glyph glyph-name="O" unicode="O" horiz-adv-x="845" 
d="M421 -14q-152 0 -257 105.5t-105 257.5q0 153 105.5 259t258.5 106q152 0 257.5 -105.5t105.5 -257.5q0 -153 -106 -259t-259 -106zM420 649q-120 0 -204.5 -87t-84.5 -211q0 -126 85 -213t206 -87q120 0 206 87t86 211q0 125 -86 212.5t-208 87.5z" />
    <glyph glyph-name="P" unicode="P" horiz-adv-x="575" 
d="M292 637h-117v-301h112q79 0 126.5 42t47.5 112q0 66 -46.5 106.5t-122.5 40.5zM532 490q0 -99 -68 -158t-178 -59h-111v-273h-70v700h190q107 0 172 -56.5t65 -153.5z" />
    <glyph glyph-name="Q" unicode="Q" horiz-adv-x="845" 
d="M663 -158q-79 0 -138.5 34t-116.5 110q-148 5 -248.5 110t-100.5 253q0 153 105.5 259t258.5 106q152 0 257.5 -105.5t105.5 -257.5q0 -132 -80.5 -231.5t-207.5 -125.5q37 -46 77.5 -66.5t94.5 -20.5q22 0 44.5 3.5t43.5 9.5l1 -1l-22 -67q-21 -5 -39 -7.5t-35 -2.5z
M714 349q0 125 -86 212.5t-208 87.5q-120 0 -204.5 -87t-84.5 -211q0 -126 85 -213t206 -87q120 0 206 87t86 211z" />
    <glyph glyph-name="R" unicode="R" horiz-adv-x="620" 
d="M294 637h-120v-283h116q69 0 116 41t47 103q0 63 -44 101t-115 38zM623 0h-89l-260 291h-99v-291h-70v700h192q103 0 165 -54.5t62 -147.5q0 -72 -47.5 -126t-124.5 -71z" />
    <glyph glyph-name="S" unicode="S" horiz-adv-x="556" 
d="M258 326q-106 49 -145.5 94.5t-39.5 108.5q0 81 58 132t148 51q51 0 95 -13t88 -42v-79h-2q-47 35 -92 52t-92 17q-59 0 -97 -31t-38 -81q0 -43 31.5 -74t131.5 -76q105 -49 145.5 -95.5t40.5 -111.5q0 -83 -62 -136.5t-156 -53.5q-57 0 -110 19.5t-98 55.5l-19 97l2 1
q52 -51 112 -79.5t117 -28.5q62 0 104 33.5t42 86.5q0 44 -34 77t-130 76z" />
    <glyph glyph-name="T" unicode="T" horiz-adv-x="704" 
d="M671 700v-64h-284v-636h-70v636h-284v64h638z" />
    <glyph glyph-name="U" unicode="U" horiz-adv-x="784" 
d="M392 -12q-137 0 -216.5 82.5t-79.5 224.5v405h70v-407q0 -112 61 -176t167 -64q105 0 165.5 64t60.5 178v405h68v-404q0 -143 -79.5 -225.5t-216.5 -82.5z" />
    <glyph glyph-name="V" unicode="V" horiz-adv-x="769" 
d="M390 -14h-17l-337 714h78l270 -587l275 587h75z" />
    <glyph glyph-name="W" unicode="W" horiz-adv-x="1181" 
d="M356 -6h-68l-246 706h76l208 -613l260 618h14l255 -618l212 613h74l-253 -706h-68l-230 564z" />
    <glyph glyph-name="X" unicode="X" horiz-adv-x="731" 
d="M691 0h-85l-243 308l-241 -308h-82l281 355l-273 345h84l235 -296l234 296h82l-275 -345z" />
    <glyph glyph-name="Y" unicode="Y" horiz-adv-x="660" 
d="M366 319v-319h-70v317l-277 383h84l229 -320l228 320h81z" />
    <glyph glyph-name="Z" unicode="Z" horiz-adv-x="699" 
d="M655 64l-35 -64h-570l-6 11l481 625h-447v64h563l6 -11l-481 -625h489z" />
    <glyph glyph-name="bracketleft" unicode="[" horiz-adv-x="403" 
d="M351 -130h-238v870h238l13 -44h-188v-782h188z" />
    <glyph glyph-name="backslash" unicode="\" horiz-adv-x="440" 
d="M92 740l354 -870h-58l-355 870h59z" />
    <glyph glyph-name="bracketright" unicode="]" horiz-adv-x="403" 
d="M52 740h238v-870h-238l-13 44h188v782h-188z" />
    <glyph glyph-name="asciicircum" unicode="^" horiz-adv-x="600" 
d="M547 335h-67l-180 301l-181 -301h-66l236 390h22z" />
    <glyph glyph-name="underscore" unicode="_" horiz-adv-x="600" 
d="M-2 -132v49h604v-49h-604z" />
    <glyph glyph-name="grave" unicode="`" horiz-adv-x="500" 
d="M179 758l91 -162h-33l-147 161v1h89z" />
    <glyph glyph-name="a" unicode="a" horiz-adv-x="562" 
d="M120 124q0 -34 25.5 -55t66.5 -21q39 0 87.5 20.5t112.5 63.5v114q-148 -7 -220 -36.5t-72 -85.5zM478 11l-66 -18v94q-61 -50 -112 -73t-100 -23q-64 0 -105 36t-41 94q0 85 88 126t270 45v12q0 67 -32.5 103t-93.5 36q-44 0 -89 -18t-92 -54l-2 1l14 76
q43 29 86.5 42.5t91.5 13.5q87 0 135 -51t48 -145v-297z" />
    <glyph glyph-name="b" unicode="b" horiz-adv-x="616" 
d="M566 258q0 -116 -75 -191t-187 -75q-38 0 -76.5 11t-80.5 35l-44 -38h-13v730l67 25v-340q46 47 90 68t95 21q94 0 159 -70t65 -176zM303 50q83 0 139.5 58.5t56.5 145.5q0 84 -50 137t-125 53q-42 0 -81.5 -18t-85.5 -58v-274q38 -22 74 -33t72 -11z" />
    <glyph glyph-name="c" unicode="c" horiz-adv-x="538" 
d="M488 125l-13 -77q-43 -30 -87 -45t-89 -15q-109 0 -179.5 72.5t-70.5 185.5q0 110 74 185t185 75q49 0 91 -15.5t79 -46.5v-81h-2q-42 42 -83.5 62t-85.5 20q-81 0 -136 -57.5t-55 -139.5q0 -87 52.5 -143t133.5 -56q44 0 91.5 20t91.5 57z" />
    <glyph glyph-name="d" unicode="d" horiz-adv-x="618" 
d="M117 242q0 -84 51 -138t126 -54q43 0 83 18.5t85 58.5v257q-41 30 -79 44.5t-77 14.5q-81 0 -135 -57.5t-54 -143.5zM528 0h-66v79q-47 -47 -90 -68t-94 -21q-96 0 -162.5 71t-66.5 178q0 113 72 188t176 75q44 0 85 -15.5t80 -47.5v291l66 25v-755z" />
    <glyph glyph-name="e" unicode="e" horiz-adv-x="558" 
d="M283 449q-69 0 -116.5 -50.5t-52.5 -127.5h328q-4 82 -46.5 130t-112.5 48zM491 110l-24 -74q-42 -25 -82 -36t-85 -11q-114 0 -183 70.5t-69 188.5q0 109 68 184.5t170 75.5q101 0 162 -71t61 -183q0 -7 -0.5 -16t-1.5 -18h-391q9 -80 59.5 -125t131.5 -45q43 0 90 16
t92 45z" />
    <glyph glyph-name="f" unicode="f" horiz-adv-x="382" 
d="M366 494v-58h-168v-436h-67v436h-90v58h90v92q0 78 41.5 123t113.5 45q23 0 43 -5t40 -16l12 -69l-2 -1q-28 17 -48 23.5t-42 6.5q-42 0 -66.5 -28t-24.5 -76v-95h168z" />
    <glyph glyph-name="g" unicode="g" horiz-adv-x="618" 
d="M116 251q0 -80 49 -130.5t126 -50.5q43 0 84 19t86 59v251q-39 24 -75.5 35t-74.5 11q-82 0 -138.5 -56t-56.5 -138zM277 -193q-49 0 -97 11.5t-95 34.5l-16 75l2 2q55 -32 106 -47t103 -15q81 0 131 49t50 132v51q-46 -46 -91.5 -67t-96.5 -21q-97 0 -160.5 66.5
t-63.5 168.5q0 110 75.5 182.5t185.5 72.5q40 0 78 -11t81 -36l46 39h12v-445q0 -112 -67.5 -177t-182.5 -65z" />
    <glyph glyph-name="h" unicode="h" horiz-adv-x="603" 
d="M328 445q-44 0 -83 -24t-88 -80v-341h-67v730l67 25v-362q44 59 89 85.5t98 26.5q80 0 128 -52.5t48 -142.5v-310h-66v304q0 66 -33.5 103.5t-92.5 37.5z" />
    <glyph glyph-name="i" unicode="i" horiz-adv-x="257" 
d="M129 719q20 0 34 -14.5t14 -34.5q0 -21 -14 -35t-35 -14q-20 0 -34 14.5t-14 34.5t14.5 34.5t34.5 14.5zM162 0h-67v494h67v-494z" />
    <glyph glyph-name="j" unicode="j" horiz-adv-x="257" 
d="M130 719q20 0 34 -14.5t14 -34.5q0 -21 -14 -35t-35 -14q-20 0 -34 14.5t-14 34.5t14.5 34.5t34.5 14.5zM96 494h67v-538q0 -69 -37 -108t-100 -39q-13 0 -26 2t-23 6l-10 59q12 -4 24.5 -6.5t25.5 -2.5q37 0 58 23t21 65v539z" />
    <glyph glyph-name="k" unicode="k" horiz-adv-x="534" 
d="M518 0h-88l-241 225h-32v-225h-67v730l67 25v-478h34l228 217h85v-3l-258 -239l272 -249v-3z" />
    <glyph glyph-name="l" unicode="l" horiz-adv-x="257" 
d="M162 0h-67v730l67 25v-755z" />
    <glyph glyph-name="m" unicode="m" horiz-adv-x="930" 
d="M315 445q-40 0 -77 -24t-81 -78v-343h-67v483l67 18v-104q42 56 84.5 82t91.5 26q56 0 98 -30.5t60 -85.5q45 61 90 88.5t97 27.5q76 0 122.5 -52.5t46.5 -142.5v-310h-66v304q0 66 -32 103.5t-88 37.5q-39 0 -77.5 -24t-83.5 -76q1 -12 1.5 -20t0.5 -15v-310h-66v304
q0 66 -32.5 103.5t-88.5 37.5z" />
    <glyph glyph-name="n" unicode="n" horiz-adv-x="603" 
d="M328 445q-44 0 -83 -24t-88 -80v-341h-67v483l67 18v-108q44 59 89 85.5t98 26.5q80 0 128 -52.5t48 -142.5v-310h-66v304q0 66 -33.5 103.5t-92.5 37.5z" />
    <glyph glyph-name="o" unicode="o" horiz-adv-x="616" 
d="M306 -14q-111 0 -184.5 76t-73.5 184q0 109 74.5 185.5t186.5 76.5t185 -75.5t73 -184.5t-74.5 -185.5t-186.5 -76.5zM500 247q0 86 -54.5 143.5t-137.5 57.5t-137.5 -57.5t-54.5 -143.5t54.5 -144t136.5 -58q83 0 138 58.5t55 143.5z" />
    <glyph glyph-name="p" unicode="p" horiz-adv-x="618" 
d="M312 50q80 0 134.5 58t54.5 143q0 84 -51 138.5t-126 54.5q-42 0 -81.5 -18t-85.5 -58v-260q40 -30 78.5 -44t76.5 -14zM569 255q0 -113 -72 -188t-176 -75q-43 0 -83.5 15.5t-80.5 46.5v-242h-67v673l67 14v-83q46 47 89 67.5t94 20.5q96 0 162.5 -71t66.5 -178z" />
    <glyph glyph-name="q" unicode="q" horiz-adv-x="616" 
d="M525 494v-682h-66v267q-46 -47 -90 -68t-95 -21q-95 0 -160 70t-65 176q0 116 75.5 191t187.5 75q38 0 76 -11t80 -35l44 38h13zM117 240q0 -84 50 -137t125 -53q42 0 82 18.5t85 58.5v273q-38 22 -74 32.5t-72 10.5q-83 0 -139.5 -58.5t-56.5 -144.5z" />
    <glyph glyph-name="r" unicode="r" horiz-adv-x="402" 
d="M157 325v-325h-67v483l67 18v-127q64 77 101 102.5t78 25.5q7 0 14 -1t18 -4l5 -70q-7 3 -14 4t-15 1q-42 0 -84 -23.5t-103 -83.5z" />
    <glyph glyph-name="s" unicode="s" horiz-adv-x="492" 
d="M267 280q100 -25 137.5 -58.5t37.5 -89.5q0 -62 -54 -102.5t-136 -40.5q-54 0 -103.5 16t-93.5 49l-13 81l2 2q50 -43 104.5 -66t109.5 -23q52 0 86 23t34 57t-28.5 53.5t-114.5 41.5q-99 25 -136 57.5t-37 85.5q0 61 52 100t132 39q41 0 82.5 -12t80.5 -36v-71l-3 -1
q-40 29 -83.5 44.5t-83.5 15.5q-50 0 -81.5 -20.5t-31.5 -52.5t27.5 -50.5t113.5 -41.5z" />
    <glyph glyph-name="t" unicode="t" horiz-adv-x="434" 
d="M397 102l-16 -73q-26 -19 -56.5 -29.5t-61.5 -10.5q-65 0 -103.5 40.5t-38.5 110.5v296h-86v58h86v117l65 25v-142h207v-58h-207v-293q0 -45 23.5 -69.5t65.5 -24.5q30 0 60.5 14t58.5 40z" />
    <glyph glyph-name="u" unicode="u" horiz-adv-x="603" 
d="M512 0h-66v102q-44 -59 -88.5 -86t-98.5 -27q-80 0 -128 52.5t-48 142.5v310h66v-305q0 -66 33.5 -103t92.5 -37q43 0 83 24t88 80v341h66v-494z" />
    <glyph glyph-name="v" unicode="v" horiz-adv-x="567" 
d="M286 -12h-15l-245 506h73l182 -392l189 392h72z" />
    <glyph glyph-name="w" unicode="w" horiz-adv-x="869" 
d="M273 -7h-55l-187 501h70l148 -413l180 417h14l174 -418l154 414h68l-196 -501h-55l-154 371z" />
    <glyph glyph-name="x" unicode="x" horiz-adv-x="550" 
d="M517 0h-78l-164 209l-165 -209h-77l203 253l-192 241h78l154 -196l154 196h76l-191 -239z" />
    <glyph glyph-name="y" unicode="y" horiz-adv-x="533" 
d="M114 -191q-20 0 -39.5 5t-40.5 16l-13 67l2 2q23 -15 42.5 -21.5t39.5 -6.5q38 1 65 25t48 76l23 52l-215 470h73l176 -397l162 397h73l-231 -543q-30 -73 -70 -107t-95 -35z" />
    <glyph glyph-name="z" unicode="z" horiz-adv-x="527" 
d="M489 57l-20 -57h-437l-3 10l343 426h-310v58h420l4 -10l-344 -427h347z" />
    <glyph glyph-name="braceleft" unicode="{" horiz-adv-x="492" 
d="M453 -86l-13 -44h-100q-84 0 -132.5 38.5t-48.5 105.5q0 20 6.5 43t26.5 66q17 35 22 51.5t5 29.5q0 33 -24 52t-78 26l-67 8v30l67 8q54 7 78 26t24 52q0 13 -5 29.5t-22 51.5q-20 43 -26.5 66t-6.5 43q0 67 48.5 105.5t132.5 38.5h100l13 -44h-102q-60 0 -92 -24.5
t-32 -70.5q0 -16 5.5 -34.5t22.5 -57.5q18 -41 23.5 -61.5t5.5 -37.5q0 -39 -23 -64.5t-73 -40.5q50 -15 73 -40.5t23 -64.5q0 -17 -5.5 -37.5t-23.5 -61.5q-17 -39 -22.5 -57.5t-5.5 -34.5q0 -46 32.5 -70.5t91.5 -24.5h102z" />
    <glyph glyph-name="bar" unicode="|" horiz-adv-x="359" 
d="M209 740v-870h-59v870h59z" />
    <glyph glyph-name="braceright" unicode="}" horiz-adv-x="492" 
d="M333 14q0 -67 -48.5 -105.5t-132.5 -38.5h-100l-13 44h102q60 0 92 24.5t32 70.5q0 16 -5.5 34.5t-22.5 57.5q-18 41 -23.5 61.5t-5.5 37.5q0 39 23 64.5t73 40.5q-50 15 -73 40.5t-23 64.5q0 17 5.5 37.5t23.5 61.5q17 39 22.5 57.5t5.5 34.5q0 46 -32.5 70.5
t-91.5 24.5h-102l13 44h100q84 0 132.5 -38.5t48.5 -105.5q0 -20 -6.5 -43t-26.5 -66q-17 -35 -22 -51.5t-5 -29.5q0 -33 24 -52t78 -26l67 -8v-30l-67 -8q-54 -7 -78 -26t-24 -52q0 -13 5 -29.5t22 -51.5q20 -43 26.5 -66t6.5 -43z" />
    <glyph glyph-name="asciitilde" unicode="~" horiz-adv-x="600" 
d="M192 436q16 0 41.5 -11t81.5 -46q46 -29 65 -37.5t30 -8.5q23 0 42 21t52 82l41 -21q-42 -86 -71 -117.5t-66 -31.5q-16 0 -41.5 11t-81.5 46q-46 29 -65 38t-30 9q-23 0 -42 -21t-52 -82l-41 20q42 86 70.5 117.5t66.5 31.5z" />
    <glyph glyph-name="uni00A0" unicode="&#xa0;" horiz-adv-x="218" 
 />
    <glyph glyph-name="exclamdown" unicode="&#xa1;" horiz-adv-x="251" 
d="M125 707q22 0 38 -15.5t16 -37.5t-16 -37.5t-38 -15.5t-37.5 15.5t-15.5 37.5t15.5 37.5t37.5 15.5zM90 0v133l20 363h31l20 -363v-133h-71z" />
    <glyph glyph-name="cent" unicode="&#xa2;" horiz-adv-x="530" 
d="M115 349q0 -70 37 -120.5t99 -64.5l37 376q-75 -5 -124 -59.5t-49 -131.5zM476 225l-12 -73q-38 -25 -82 -38.5t-90 -13.5l-11 -106h-48l11 110q-87 15 -140 81.5t-53 162.5q0 102 68.5 173.5t172.5 76.5l10 107h48l-10 -109q34 -4 65.5 -17t62.5 -35v-77h-2
q-36 32 -67.5 48.5t-65.5 21.5l-36 -378q45 1 91.5 18.5t86.5 48.5z" />
    <glyph glyph-name="sterling" unicode="&#xa3;" horiz-adv-x="579" 
d="M186 62h337l-15 -62h-443l-4 16q103 95 135.5 137t32.5 78q0 19 -5.5 36.5t-19.5 42.5h-151v51h121q-36 59 -48.5 94t-12.5 71q0 82 59 134t154 52q45 0 90 -12.5t91 -38.5l11 -79h-3q-50 34 -97.5 51t-93.5 17q-64 0 -104 -34t-40 -88q0 -31 12.5 -62.5t56.5 -104.5h212
v-51h-184q9 -20 13.5 -38.5t4.5 -36.5q0 -37 -21.5 -72.5t-87.5 -100.5z" />
    <glyph glyph-name="yen" unicode="&#xa5;" horiz-adv-x="620" 
d="M542 213v-46h-199v-167h-66v167h-200v46h200v94h-200v46h179l-226 347h78l203 -317l203 317h76l-226 -347h178v-46h-199v-94h199z" />
    <glyph glyph-name="section" unicode="&#xa7;" horiz-adv-x="626" 
d="M111 278q0 -44 41.5 -74t155.5 -67q37 -13 46 -16.5t17 -6.5q70 23 107 55.5t37 72.5q0 44 -39.5 73t-156.5 67q-18 6 -34.5 12t-31.5 12q-69 -24 -105.5 -56.5t-36.5 -71.5zM507 -42q0 -66 -55.5 -108t-141.5 -42q-56 0 -108.5 15t-97.5 44l-15 81l2 1q56 -39 112 -59.5
t109 -20.5q56 0 92.5 25.5t36.5 64.5t-33 65t-124 56q-134 44 -187 87t-53 106q0 53 41 94t116 64q-43 25 -62.5 56t-19.5 74q0 67 56 109t145 42q51 0 98 -11t90 -32v-72h-1q-50 27 -97.5 40.5t-91.5 13.5q-58 0 -95 -25.5t-37 -65.5q0 -41 31 -66t125 -55
q137 -44 188.5 -86t51.5 -106q0 -53 -42 -94.5t-118 -63.5q44 -25 64.5 -56.5t20.5 -74.5z" />
    <glyph glyph-name="dieresis" unicode="&#xa8;" horiz-adv-x="500" 
d="M353 599q-20 0 -34.5 14.5t-14.5 34.5t14.5 34.5t34.5 14.5t34.5 -14.5t14.5 -34.5t-14.5 -34.5t-34.5 -14.5zM147 599q-20 0 -34.5 14.5t-14.5 34.5t14.5 34.5t34.5 14.5t34.5 -14.5t14.5 -34.5t-14.5 -34.5t-34.5 -14.5z" />
    <glyph glyph-name="copyright" unicode="&#xa9;" horiz-adv-x="890" 
d="M160 68q-57 55 -87.5 128t-30.5 153t31 153t88 129q57 55 131 85t154 30q81 0 154 -29.5t130 -84.5t87.5 -128t30.5 -153t-31 -153t-88 -129q-57 -55 -131 -85t-154 -30q-81 0 -154 29.5t-130 84.5zM445 718q-155 0 -264 -107t-109 -261t109 -261t264 -107
q156 0 264.5 107t108.5 261t-108.5 261t-264.5 107zM457 170q44 0 85.5 15t79.5 45l2 -1l-9 -56q-37 -26 -76.5 -38.5t-83.5 -12.5q-100 0 -167.5 64.5t-67.5 164.5q0 98 69.5 163.5t171.5 65.5q45 0 85 -13.5t73 -40.5v-58h-2q-38 32 -77.5 48t-79.5 16q-78 0 -132.5 -52
t-54.5 -127q0 -80 53.5 -131.5t130.5 -51.5z" />
    <glyph glyph-name="ordfeminine" unicode="&#xaa;" horiz-adv-x="482" 
d="M129 439q0 -24 17.5 -38.5t45.5 -14.5q29 0 65.5 15.5t79.5 45.5v75q-104 -5 -156 -25.5t-52 -57.5zM390 355l-52 -7v64q-39 -35 -78.5 -52.5t-76.5 -17.5q-47 0 -77 26t-30 67q0 59 64.5 89.5t196.5 34.5v7q0 46 -22.5 70t-65.5 24q-32 0 -65.5 -13t-69.5 -40h-2l11 58
q31 21 63.5 31t69.5 10q64 0 99 -35.5t35 -101.5v-214zM71 201v44h340v-44h-340z" />
    <glyph glyph-name="guillemotleft" unicode="&#xab;" horiz-adv-x="627" 
d="M533 501l26 -15l-174 -238l174 -240l-26 -15l-228 248v12zM281 501l26 -15l-174 -238l174 -240l-26 -15l-227 248v12z" />
    <glyph glyph-name="registered" unicode="&#xae;" horiz-adv-x="550" 
d="M497 506q0 -91 -65 -154.5t-158 -63.5q-92 0 -156.5 63t-64.5 154t64.5 154.5t157.5 63.5t157.5 -63t64.5 -154zM473 505q0 83 -57 139.5t-141 56.5q-83 0 -140.5 -57t-57.5 -139q0 -83 57 -139.5t141 -56.5q83 0 140.5 57t57.5 139zM268 604h-37v-92h36q27 0 42 12.5
t15 33.5t-15 33.5t-41 12.5zM391 387h-45l-88 94h-27v-94h-35v248h76q39 0 63.5 -20.5t24.5 -54.5q0 -27 -16.5 -46.5t-45.5 -27.5z" />
    <glyph glyph-name="macron" unicode="&#xaf;" horiz-adv-x="500" 
d="M86 623v52h328v-52h-328z" />
    <glyph glyph-name="degree" unicode="&#xb0;" horiz-adv-x="534" 
d="M57 499q0 90 61 152.5t150 62.5q88 0 149 -62.5t61 -151.5q0 -90 -61 -152t-151 -62q-89 0 -149 62t-60 151zM115 501q0 -69 44 -116.5t109 -47.5q64 0 108 47.5t44 114.5q0 68 -44.5 116t-108.5 48t-108 -47.5t-44 -114.5z" />
    <glyph glyph-name="plusminus" unicode="&#xb1;" horiz-adv-x="600" 
d="M543 480v-60h-212v-221h-62v221h-212v60h212v220h62v-220h212zM543 58v-58h-486v58h486z" />
    <glyph glyph-name="acute" unicode="&#xb4;" horiz-adv-x="500" 
d="M263 596h-33l91 162h89v-1z" />
    <glyph glyph-name="uni00B5" unicode="&#xb5;" horiz-adv-x="610" 
d="M145 63l8 -211v-40h-63v682h67v-305q0 -66 33.5 -103t92.5 -37q44 0 84 24.5t87 80.5v340h66v-494h-50l-12 106q-45 -59 -88 -86t-91 -27q-43 0 -76.5 17.5t-57.5 52.5z" />
    <glyph glyph-name="paragraph" unicode="&#xb6;" horiz-adv-x="668" 
d="M420 640v-640h-48v255h-56q-115 0 -188 60.5t-73 160.5q0 99 75 161.5t188 62.5h253v-700h-49v640h-102zM123 468q0 -74 55 -121t139 -47h55v340h-55q-86 0 -140 -47t-54 -125z" />
    <glyph glyph-name="periodcentered" unicode="&#xb7;" horiz-adv-x="212" 
d="M106 218q-22 0 -37.5 15.5t-15.5 37.5t15.5 38t37.5 16t37.5 -16t15.5 -38t-15.5 -37.5t-37.5 -15.5z" />
    <glyph glyph-name="cedilla" unicode="&#xb8;" horiz-adv-x="500" 
d="M344 -119q0 -34 -31 -55t-83 -21q-18 0 -34 2t-32 7l-21 40l2 2q22 -8 40.5 -11.5t38.5 -3.5q32 0 50 10t18 28q0 15 -14 23t-40 8q-12 0 -22.5 -1t-35.5 -6l-3 4l58 98h45l-38 -60h10q44 0 68 -16.5t24 -47.5z" />
    <glyph glyph-name="ordmasculine" unicode="&#xba;" horiz-adv-x="495" 
d="M57 525q0 77 55 131.5t137 54.5t135.5 -54t53.5 -131q0 -78 -54.5 -132.5t-136.5 -54.5t-136 54.5t-54 131.5zM384 525q0 58 -38.5 97.5t-97.5 39.5t-97.5 -39t-38.5 -97q0 -59 38.5 -98.5t96.5 -39.5q59 0 98 39.5t39 97.5zM73 201v44h349v-44h-349z" />
    <glyph glyph-name="guillemotright" unicode="&#xbb;" horiz-adv-x="627" 
d="M94 -7l-26 15l174 238l-174 240l26 15l227 -248v-12zM346 -7l-26 15l173 238l-173 240l26 15l227 -248v-12z" />
    <glyph glyph-name="onequarter" unicode="&#xbc;" horiz-adv-x="780" 
d="M199 705v-418h-54v336l-116 -73v58l161 99zM164 -2h-58l249 363l225 341h58l-249 -363zM482 141h151v216zM754 141v-43h-70v-98h-51v98h-219l-2 13l212 305h60v-275h70z" />
    <glyph glyph-name="onehalf" unicode="&#xbd;" horiz-adv-x="815" 
d="M199 705v-418h-54v336l-116 -73v58l161 99zM164 -2h-58l249 363l225 341h58l-249 -363zM765 0h-264l-5 18l150 172q37 42 49.5 65.5t12.5 46.5q0 30 -20 49t-52 19t-63 -20.5t-62 -63.5h-2l-8 58q28 37 63.5 56t75.5 19q55 0 89 -30.5t34 -80.5q0 -32 -15 -62t-57 -77
l-109 -121h207z" />
    <glyph glyph-name="threequarters" unicode="&#xbe;" horiz-adv-x="834" 
d="M307 394q0 -49 -41 -81t-100 -32q-34 0 -64 8t-59 26l-9 58l2 1q34 -24 65 -35.5t63 -11.5q38 0 62.5 19t24.5 49q0 35 -35.5 56.5t-110.5 32.5v24q75 21 106.5 42t31.5 52q0 25 -20.5 41t-52.5 16q-27 0 -57 -12.5t-63 -36.5h-2v56q31 21 62 30.5t65 9.5
q56 0 89.5 -27.5t33.5 -72.5q0 -34 -24 -60.5t-70 -43.5q49 -14 76 -42t27 -66zM217 -2h-58l249 363l225 341h58l-249 -363zM535 141h151v216zM807 141v-43h-70v-98h-51v98h-219l-2 13l212 305h60v-275h70z" />
    <glyph glyph-name="questiondown" unicode="&#xbf;" horiz-adv-x="482" 
d="M439 86v77l-2 1q-49 -53 -98.5 -82.5t-103.5 -29.5q-49 0 -82.5 27.5t-33.5 69.5q0 37 24 63.5t78 58.5q54 34 80.5 59.5t26.5 59.5q0 27 -11.5 48.5t-36.5 52.5h-41q15 -26 22 -44.5t7 -35.5q0 -23 -19 -42t-73 -53q-55 -34 -89 -70.5t-34 -95.5q0 -72 51.5 -116
t126.5 -44q66 0 117.5 28t90.5 68zM318 654q0 22 -15.5 37.5t-37.5 15.5t-37.5 -15.5t-15.5 -37.5t15.5 -37.5t37.5 -15.5t37.5 15.5t15.5 37.5z" />
    <glyph glyph-name="Agrave" unicode="&#xc0;" horiz-adv-x="781" 
d="M222 254h334l-165 372zM745 0h-76l-85 191h-390l-87 -191h-73l326 705h67zM325 914l90 -141h-37l-150 140v1h97z" />
    <glyph glyph-name="Aacute" unicode="&#xc1;" horiz-adv-x="781" 
d="M222 254h334l-165 372zM745 0h-76l-85 191h-390l-87 -191h-73l326 705h67zM406 773h-37l90 141h97v-1z" />
    <glyph glyph-name="Acircumflex" unicode="&#xc2;" horiz-adv-x="781" 
d="M222 254h334l-165 372zM745 0h-76l-85 191h-390l-87 -191h-73l326 705h67zM554 773h-41l-121 90l-121 -90h-41v1l131 140h62l131 -140v-1z" />
    <glyph glyph-name="Atilde" unicode="&#xc3;" horiz-adv-x="781" 
d="M222 254h334l-165 372zM745 0h-76l-85 191h-390l-87 -191h-73l326 705h67zM404 862q33 -21 47 -27.5t23 -6.5q15 0 29 14t48 65l31 -21q-41 -69 -63.5 -91t-50.5 -22q-13 0 -31 8t-57 33q-33 21 -47 27.5t-23 6.5q-15 0 -29 -14t-48 -65l-31 21q41 69 63.5 91t50.5 22
q13 0 31 -8t57 -33z" />
    <glyph glyph-name="Adieresis" unicode="&#xc4;" horiz-adv-x="781" 
d="M222 254h334l-165 372zM745 0h-76l-85 191h-390l-87 -191h-73l326 705h67zM500 873q21 0 35 -14.5t14 -35.5t-14 -35t-35 -14t-35 14t-14 35t14 35.5t35 14.5zM284 873q21 0 35 -14.5t14 -35.5t-14 -35t-35 -14t-35 14t-14 35t14 35.5t35 14.5z" />
    <glyph glyph-name="Aring" unicode="&#xc5;" horiz-adv-x="781" 
d="M482 769q0 35 -26 60.5t-63 25.5q-38 0 -63.5 -25t-25.5 -61t25.5 -61t63.5 -25t63.5 25t25.5 61zM222 254h334l-165 373zM745 0h-76l-85 191h-390l-87 -191h-73l305 661q-32 14 -51 43.5t-19 64.5q0 50 36 84.5t88 34.5q53 0 88.5 -34.5t35.5 -84.5q0 -35 -19.5 -64.5
t-51.5 -43.5z" />
    <glyph glyph-name="AE" unicode="&#xc6;" horiz-adv-x="968" 
d="M252 254h252v382zM890 0h-386v191h-293l-126 -191h-75l461 700h416l23 -64h-336v-248h285v-64h-285v-260h339z" />
    <glyph glyph-name="Ccedilla" unicode="&#xc7;" horiz-adv-x="729" 
d="M500 -124q0 -34 -31 -55t-83 -21q-18 0 -34 2t-32 7l-21 40l2 2q22 -8 40.5 -11.5t38.5 -3.5q32 0 50 10t18 28q0 15 -14 23t-40 8q-12 0 -22.5 -1t-35.5 -6l-3 4l51 87q-139 8 -232 109.5t-93 251.5q0 73 27 139t77 117q51 51 117 78.5t138 27.5q69 0 131 -24.5
t111 -70.5v-85h-2q-57 58 -117.5 86.5t-125.5 28.5q-116 0 -200 -87t-84 -208q0 -127 82 -213t197 -86q70 0 135 30t123 89l2 -2l-11 -84q-50 -45 -108 -69.5t-122 -27.5l-31 -49h10q44 0 68 -16.5t24 -47.5z" />
    <glyph glyph-name="Egrave" unicode="&#xc8;" horiz-adv-x="570" 
d="M492 0h-387v700h384l23 -64h-337v-248h286v-64h-286v-260h340zM240 914l90 -141h-37l-150 140v1h97z" />
    <glyph glyph-name="Eacute" unicode="&#xc9;" horiz-adv-x="570" 
d="M492 0h-387v700h384l23 -64h-337v-248h286v-64h-286v-260h340zM321 773h-37l90 141h97v-1z" />
    <glyph glyph-name="Ecircumflex" unicode="&#xca;" horiz-adv-x="570" 
d="M492 0h-387v700h384l23 -64h-337v-248h286v-64h-286v-260h340zM469 773h-41l-121 90l-121 -90h-41v1l131 140h62l131 -140v-1z" />
    <glyph glyph-name="Edieresis" unicode="&#xcb;" horiz-adv-x="570" 
d="M492 0h-387v700h384l23 -64h-337v-248h286v-64h-286v-260h340zM415 873q21 0 35 -14.5t14 -35.5t-14 -35t-35 -14t-35 14t-14 35t14 35.5t35 14.5zM199 873q21 0 35 -14.5t14 -35.5t-14 -35t-35 -14t-35 14t-14 35t14 35.5t35 14.5z" />
    <glyph glyph-name="Igrave" unicode="&#xcc;" horiz-adv-x="291" 
d="M180 0h-70v700h70v-700zM78 914l90 -141h-37l-150 140v1h97z" />
    <glyph glyph-name="Iacute" unicode="&#xcd;" horiz-adv-x="291" 
d="M180 0h-70v700h70v-700zM159 773h-37l90 141h97v-1z" />
    <glyph glyph-name="Icircumflex" unicode="&#xce;" horiz-adv-x="291" 
d="M180 0h-70v700h70v-700zM307 773h-41l-121 90l-121 -90h-41v1l131 140h62l131 -140v-1z" />
    <glyph glyph-name="Idieresis" unicode="&#xcf;" horiz-adv-x="291" 
d="M180 0h-70v700h70v-700zM253 873q21 0 35 -14.5t14 -35.5t-14 -35t-35 -14t-35 14t-14 35t14 35.5t35 14.5zM37 873q21 0 35 -14.5t14 -35.5t-14 -35t-35 -14t-35 14t-14 35t14 35.5t35 14.5z" />
    <glyph glyph-name="Eth" unicode="&#xd0;" horiz-adv-x="802" 
d="M394 384v-52h-200v-268h157q140 0 229.5 79t89.5 207q0 131 -88.5 208.5t-234.5 77.5h-153v-252h200zM349 0h-224v332h-106v52h106v316h224q179 0 286 -94.5t107 -253.5q0 -158 -109.5 -255t-283.5 -97z" />
    <glyph glyph-name="Ntilde" unicode="&#xd1;" horiz-adv-x="825" 
d="M719 -4h-25l-522 603v-599h-67v700h66l481 -555v555h67v-704zM424 862q33 -21 47 -27.5t23 -6.5q15 0 29 14t48 65l31 -21q-41 -69 -63.5 -91t-50.5 -22q-13 0 -31 8t-57 33q-33 21 -47 27.5t-23 6.5q-15 0 -29 -14t-48 -65l-31 21q41 69 63.5 91t50.5 22q13 0 31 -8
t57 -33z" />
    <glyph glyph-name="Ograve" unicode="&#xd2;" horiz-adv-x="845" 
d="M421 -14q-152 0 -257 105.5t-105 257.5q0 153 105.5 259t258.5 106q152 0 257.5 -105.5t105.5 -257.5q0 -153 -106 -259t-259 -106zM420 649q-120 0 -204.5 -87t-84.5 -211q0 -126 85 -213t206 -87q120 0 206 87t86 211q0 125 -86 212.5t-208 87.5zM355 919l90 -141h-37
l-150 140v1h97z" />
    <glyph glyph-name="Oacute" unicode="&#xd3;" horiz-adv-x="845" 
d="M421 -14q-152 0 -257 105.5t-105 257.5q0 153 105.5 259t258.5 106q152 0 257.5 -105.5t105.5 -257.5q0 -153 -106 -259t-259 -106zM420 649q-120 0 -204.5 -87t-84.5 -211q0 -126 85 -213t206 -87q120 0 206 87t86 211q0 125 -86 212.5t-208 87.5zM436 778h-37l90 141
h97v-1z" />
    <glyph glyph-name="Ocircumflex" unicode="&#xd4;" horiz-adv-x="845" 
d="M421 -14q-152 0 -257 105.5t-105 257.5q0 153 105.5 259t258.5 106q152 0 257.5 -105.5t105.5 -257.5q0 -153 -106 -259t-259 -106zM420 649q-120 0 -204.5 -87t-84.5 -211q0 -126 85 -213t206 -87q120 0 206 87t86 211q0 125 -86 212.5t-208 87.5zM584 778h-41l-121 90
l-121 -90h-41v1l131 140h62l131 -140v-1z" />
    <glyph glyph-name="Otilde" unicode="&#xd5;" horiz-adv-x="845" 
d="M421 -14q-152 0 -257 105.5t-105 257.5q0 153 105.5 259t258.5 106q152 0 257.5 -105.5t105.5 -257.5q0 -153 -106 -259t-259 -106zM420 649q-120 0 -204.5 -87t-84.5 -211q0 -126 85 -213t206 -87q120 0 206 87t86 211q0 125 -86 212.5t-208 87.5zM434 867
q33 -21 47 -27.5t23 -6.5q15 0 29 14t48 65l31 -21q-41 -69 -63.5 -91t-50.5 -22q-13 0 -31 8t-57 33q-33 21 -47 27.5t-23 6.5q-15 0 -29 -14t-48 -65l-31 21q41 69 63.5 91t50.5 22q13 0 31 -8t57 -33z" />
    <glyph glyph-name="Odieresis" unicode="&#xd6;" horiz-adv-x="845" 
d="M421 -14q-152 0 -257 105.5t-105 257.5q0 153 105.5 259t258.5 106q152 0 257.5 -105.5t105.5 -257.5q0 -153 -106 -259t-259 -106zM420 649q-120 0 -204.5 -87t-84.5 -211q0 -126 85 -213t206 -87q120 0 206 87t86 211q0 125 -86 212.5t-208 87.5zM530 878
q21 0 35 -14.5t14 -35.5t-14 -35t-35 -14t-35 14t-14 35t14 35.5t35 14.5zM314 878q21 0 35 -14.5t14 -35.5t-14 -35t-35 -14t-35 14t-14 35t14 35.5t35 14.5z" />
    <glyph glyph-name="multiply" unicode="&#xd7;" horiz-adv-x="600" 
d="M522 175l-44 -45l-178 182l-179 -182l-43 44l181 178l-181 178l44 45l178 -181l178 180l43 -44l-180 -177z" />
    <glyph glyph-name="Oslash" unicode="&#xd8;" horiz-adv-x="845" 
d="M423 651q-123 0 -208.5 -88t-85.5 -215q0 -60 21 -114t60 -96l385 459q-37 26 -81 40t-91 14zM421 49q123 0 209 88t86 215q0 60 -21 114t-60 96l-385 -459q37 -26 81 -40t90 -14zM786 351q0 -153 -106 -259t-259 -106q-57 0 -111.5 17.5t-101.5 51.5l-83 -98h-71
l113 133q-52 51 -80 118t-28 141q0 153 105.5 259t258.5 106q58 0 112.5 -17.5t101.5 -51.5l82 98h72l-113 -133q52 -50 80 -117.5t28 -141.5z" />
    <glyph glyph-name="Ugrave" unicode="&#xd9;" horiz-adv-x="784" 
d="M392 -12q-137 0 -216.5 82.5t-79.5 224.5v405h70v-407q0 -112 61 -176t167 -64q105 0 165.5 64t60.5 178v405h68v-404q0 -143 -79.5 -225.5t-216.5 -82.5zM326 914l90 -141h-37l-150 140v1h97z" />
    <glyph glyph-name="Uacute" unicode="&#xda;" horiz-adv-x="784" 
d="M392 -12q-137 0 -216.5 82.5t-79.5 224.5v405h70v-407q0 -112 61 -176t167 -64q105 0 165.5 64t60.5 178v405h68v-404q0 -143 -79.5 -225.5t-216.5 -82.5zM407 773h-37l90 141h97v-1z" />
    <glyph glyph-name="Ucircumflex" unicode="&#xdb;" horiz-adv-x="784" 
d="M392 -12q-137 0 -216.5 82.5t-79.5 224.5v405h70v-407q0 -112 61 -176t167 -64q105 0 165.5 64t60.5 178v405h68v-404q0 -143 -79.5 -225.5t-216.5 -82.5zM555 773h-41l-121 90l-121 -90h-41v1l131 140h62l131 -140v-1z" />
    <glyph glyph-name="Udieresis" unicode="&#xdc;" horiz-adv-x="784" 
d="M392 -12q-137 0 -216.5 82.5t-79.5 224.5v405h70v-407q0 -112 61 -176t167 -64q105 0 165.5 64t60.5 178v405h68v-404q0 -143 -79.5 -225.5t-216.5 -82.5zM501 873q21 0 35 -14.5t14 -35.5t-14 -35t-35 -14t-35 14t-14 35t14 35.5t35 14.5zM285 873q21 0 35 -14.5
t14 -35.5t-14 -35t-35 -14t-35 14t-14 35t14 35.5t35 14.5z" />
    <glyph glyph-name="Yacute" unicode="&#xdd;" horiz-adv-x="660" 
d="M366 319v-319h-70v317l-277 383h84l229 -320l228 320h81zM344 773h-37l90 141h97v-1z" />
    <glyph glyph-name="Thorn" unicode="&#xde;" horiz-adv-x="593" 
d="M473 359q0 66 -45 105.5t-120 39.5h-133v-292h126q78 0 125 39.5t47 107.5zM544 362q0 -97 -67.5 -155t-177.5 -58h-124v-149h-70v700h70v-133h137q105 0 168.5 -55.5t63.5 -149.5z" />
    <glyph glyph-name="germandbls" unicode="&#xdf;" horiz-adv-x="640" 
d="M595 166q0 -77 -52.5 -126t-133.5 -49q-34 0 -60.5 6t-59.5 21l-12 73l2 1q38 -23 68 -32.5t62 -9.5q51 0 85 32.5t34 81.5q0 66 -56 111t-172 71l-7 21q92 60 125 104t33 97q0 54 -35 89.5t-89 35.5q-59 0 -94 -41t-35 -108v-544h-67v436h-90v58h90v48q0 96 54 154
t145 58q82 0 135.5 -51t53.5 -128q0 -57 -28 -103t-94 -95q105 -34 151.5 -84t46.5 -127z" />
    <glyph glyph-name="agrave" unicode="&#xe0;" horiz-adv-x="562" 
d="M120 124q0 -34 25.5 -55t66.5 -21q39 0 87.5 20.5t112.5 63.5v114q-148 -7 -220 -36.5t-72 -85.5zM478 11l-66 -18v94q-61 -50 -112 -73t-100 -23q-64 0 -105 36t-41 94q0 85 88 126t270 45v12q0 67 -32.5 103t-93.5 36q-44 0 -89 -18t-92 -54l-2 1l14 76
q43 29 86.5 42.5t91.5 13.5q87 0 135 -51t48 -145v-297zM216 758l91 -162h-33l-147 161v1h89z" />
    <glyph glyph-name="aacute" unicode="&#xe1;" horiz-adv-x="562" 
d="M120 124q0 -34 25.5 -55t66.5 -21q39 0 87.5 20.5t112.5 63.5v114q-148 -7 -220 -36.5t-72 -85.5zM478 11l-66 -18v94q-61 -50 -112 -73t-100 -23q-64 0 -105 36t-41 94q0 85 88 126t270 45v12q0 67 -32.5 103t-93.5 36q-44 0 -89 -18t-92 -54l-2 1l14 76
q43 29 86.5 42.5t91.5 13.5q87 0 135 -51t48 -145v-297zM300 596h-33l91 162h89v-1z" />
    <glyph glyph-name="acircumflex" unicode="&#xe2;" horiz-adv-x="562" 
d="M120 124q0 -34 25.5 -55t66.5 -21q39 0 87.5 20.5t112.5 63.5v114q-148 -7 -220 -36.5t-72 -85.5zM478 11l-66 -18v94q-61 -50 -112 -73t-100 -23q-64 0 -105 36t-41 94q0 85 88 126t270 45v12q0 67 -32.5 103t-93.5 36q-44 0 -89 -18t-92 -54l-2 1l14 76
q43 29 86.5 42.5t91.5 13.5q87 0 135 -51t48 -145v-297zM444 596h-34l-123 106l-122 -106h-35v1l126 161h62l126 -161v-1z" />
    <glyph glyph-name="atilde" unicode="&#xe3;" horiz-adv-x="562" 
d="M120 124q0 -34 25.5 -55t66.5 -21q39 0 87.5 20.5t112.5 63.5v114q-148 -7 -220 -36.5t-72 -85.5zM478 11l-66 -18v94q-61 -50 -112 -73t-100 -23q-64 0 -105 36t-41 94q0 85 88 126t270 45v12q0 67 -32.5 103t-93.5 36q-44 0 -89 -18t-92 -54l-2 1l14 76
q43 29 86.5 42.5t91.5 13.5q87 0 135 -51t48 -145v-297zM301 693q32 -23 45 -30t22 -7q14 0 28 15.5t49 74.5l34 -20q-42 -79 -65 -103.5t-51 -24.5q-14 0 -32.5 9.5t-57.5 38.5q-32 23 -45 30t-22 7q-15 0 -29 -15.5t-48 -73.5l-34 20q41 78 64 102.5t52 24.5
q14 0 32.5 -9.5t57.5 -38.5z" />
    <glyph glyph-name="adieresis" unicode="&#xe4;" horiz-adv-x="562" 
d="M120 124q0 -34 25.5 -55t66.5 -21q39 0 87.5 20.5t112.5 63.5v114q-148 -7 -220 -36.5t-72 -85.5zM478 11l-66 -18v94q-61 -50 -112 -73t-100 -23q-64 0 -105 36t-41 94q0 85 88 126t270 45v12q0 67 -32.5 103t-93.5 36q-44 0 -89 -18t-92 -54l-2 1l14 76
q43 29 86.5 42.5t91.5 13.5q87 0 135 -51t48 -145v-297zM390 599q-20 0 -34.5 14.5t-14.5 34.5t14.5 34.5t34.5 14.5t34.5 -14.5t14.5 -34.5t-14.5 -34.5t-34.5 -14.5zM184 599q-20 0 -34.5 14.5t-14.5 34.5t14.5 34.5t34.5 14.5t34.5 -14.5t14.5 -34.5t-14.5 -34.5
t-34.5 -14.5z" />
    <glyph glyph-name="aring" unicode="&#xe5;" horiz-adv-x="562" 
d="M120 124q0 -34 25.5 -55t66.5 -21q39 0 87.5 20.5t112.5 63.5v114q-148 -7 -220 -36.5t-72 -85.5zM478 11l-66 -18v94q-61 -50 -112 -73t-100 -23q-64 0 -105 36t-41 94q0 85 88 126t270 45v12q0 67 -32.5 103t-93.5 36q-44 0 -89 -18t-92 -54l-2 1l14 76
q43 29 86.5 42.5t91.5 13.5q87 0 135 -51t48 -145v-297zM287 594q-52 0 -88 36t-36 87q0 52 36 88t88 36t88 -36t36 -88q0 -51 -36 -87t-88 -36zM287 808q-37 0 -62.5 -26.5t-25.5 -64.5t25.5 -64t62.5 -26t62.5 26t25.5 64t-25.5 64.5t-62.5 26.5z" />
    <glyph glyph-name="ae" unicode="&#xe6;" horiz-adv-x="910" 
d="M637 449q-68 0 -114 -50.5t-52 -127.5h323q-4 82 -46 130t-111 48zM120 124q0 -34 26 -55t66 -21q41 0 94 24t118 71q-8 24 -12.5 50t-4.5 53q-146 -7 -216.5 -36.5t-70.5 -85.5zM843 110l-24 -74q-42 -25 -81 -36t-83 -11q-69 0 -123.5 28.5t-86.5 81.5
q-69 -56 -127.5 -82t-112.5 -26q-67 0 -109 35.5t-42 94.5q0 84 87 125.5t266 45.5v17q0 65 -31 99.5t-90 34.5q-44 0 -89 -18t-92 -54l-2 1l14 76q43 29 86.5 42.5t91.5 13.5q60 0 100.5 -24.5t59.5 -71.5q34 48 82 74t104 26q100 0 160 -71t60 -183q0 -7 -0.5 -16
t-1.5 -18h-386q8 -79 58.5 -124.5t129.5 -45.5q43 0 89 15.5t91 45.5z" />
    <glyph glyph-name="ccedilla" unicode="&#xe7;" horiz-adv-x="538" 
d="M386 -122q0 -34 -31 -55t-83 -21q-18 0 -34 2t-32 7l-21 40l2 2q22 -8 40.5 -11.5t38.5 -3.5q32 0 50 10t18 28q0 15 -14 23t-40 8q-12 0 -22.5 -1t-35.5 -6l-3 4l51 86q-99 10 -160 80.5t-61 175.5q0 110 74 185t185 75q49 0 91 -15.5t79 -46.5v-81h-2q-42 42 -83.5 62
t-85.5 20q-81 0 -136 -57.5t-55 -139.5q0 -87 52.5 -143t133.5 -56q44 0 91.5 20t91.5 57l3 -1l-13 -77q-39 -28 -79.5 -42.5t-82.5 -17.5l-29 -46h10q44 0 68 -16.5t24 -47.5z" />
    <glyph glyph-name="egrave" unicode="&#xe8;" horiz-adv-x="558" 
d="M283 449q-69 0 -116.5 -50.5t-52.5 -127.5h328q-4 82 -46.5 130t-112.5 48zM491 110l-24 -74q-42 -25 -82 -36t-85 -11q-114 0 -183 70.5t-69 188.5q0 109 68 184.5t170 75.5q101 0 162 -71t61 -183q0 -7 -0.5 -16t-1.5 -18h-391q9 -80 59.5 -125t131.5 -45q43 0 90 16
t92 45zM217 761l91 -162h-33l-147 161v1h89z" />
    <glyph glyph-name="eacute" unicode="&#xe9;" horiz-adv-x="558" 
d="M283 449q-69 0 -116.5 -50.5t-52.5 -127.5h328q-4 82 -46.5 130t-112.5 48zM491 110l-24 -74q-42 -25 -82 -36t-85 -11q-114 0 -183 70.5t-69 188.5q0 109 68 184.5t170 75.5q101 0 162 -71t61 -183q0 -7 -0.5 -16t-1.5 -18h-391q9 -80 59.5 -125t131.5 -45q43 0 90 16
t92 45zM301 599h-33l91 162h89v-1z" />
    <glyph glyph-name="ecircumflex" unicode="&#xea;" horiz-adv-x="558" 
d="M283 449q-69 0 -116.5 -50.5t-52.5 -127.5h328q-4 82 -46.5 130t-112.5 48zM491 110l-24 -74q-42 -25 -82 -36t-85 -11q-114 0 -183 70.5t-69 188.5q0 109 68 184.5t170 75.5q101 0 162 -71t61 -183q0 -7 -0.5 -16t-1.5 -18h-391q9 -80 59.5 -125t131.5 -45q43 0 90 16
t92 45zM445 599h-34l-123 106l-122 -106h-35v1l126 161h62l126 -161v-1z" />
    <glyph glyph-name="edieresis" unicode="&#xeb;" horiz-adv-x="558" 
d="M283 449q-69 0 -116.5 -50.5t-52.5 -127.5h328q-4 82 -46.5 130t-112.5 48zM491 110l-24 -74q-42 -25 -82 -36t-85 -11q-114 0 -183 70.5t-69 188.5q0 109 68 184.5t170 75.5q101 0 162 -71t61 -183q0 -7 -0.5 -16t-1.5 -18h-391q9 -80 59.5 -125t131.5 -45q43 0 90 16
t92 45zM391 602q-20 0 -34.5 14.5t-14.5 34.5t14.5 34.5t34.5 14.5t34.5 -14.5t14.5 -34.5t-14.5 -34.5t-34.5 -14.5zM185 602q-20 0 -34.5 14.5t-14.5 34.5t14.5 34.5t34.5 14.5t34.5 -14.5t14.5 -34.5t-14.5 -34.5t-34.5 -14.5z" />
    <glyph glyph-name="igrave" unicode="&#xec;" horiz-adv-x="257" 
d="M162 0h-67v494h67v-494zM58 758l91 -162h-33l-147 161v1h89z" />
    <glyph glyph-name="iacute" unicode="&#xed;" horiz-adv-x="257" 
d="M162 0h-67v494h67v-494zM142 596h-33l91 162h89v-1z" />
    <glyph glyph-name="icircumflex" unicode="&#xee;" horiz-adv-x="257" 
d="M162 0h-67v494h67v-494zM286 596h-34l-123 106l-122 -106h-35v1l126 161h62l126 -161v-1z" />
    <glyph glyph-name="idieresis" unicode="&#xef;" horiz-adv-x="257" 
d="M162 0h-67v494h67v-494zM232 599q-20 0 -34.5 14.5t-14.5 34.5t14.5 34.5t34.5 14.5t34.5 -14.5t14.5 -34.5t-14.5 -34.5t-34.5 -14.5zM26 599q-20 0 -34.5 14.5t-14.5 34.5t14.5 34.5t34.5 14.5t34.5 -14.5t14.5 -34.5t-14.5 -34.5t-34.5 -14.5z" />
    <glyph glyph-name="eth" unicode="&#xf0;" horiz-adv-x="603" 
d="M469 54q-33 -33 -78.5 -50.5t-97.5 -17.5q-105 0 -175 69t-70 168t68.5 169t168.5 70q57 0 104 -22t82 -65q-20 63 -62.5 120.5t-113.5 116.5l-72 -73l-35 31l71 71q-20 16 -42.5 32.5t-48.5 34.5l36 47q26 -18 51 -35.5t47 -35.5l70 71l35 -31l-70 -69q105 -93 156 -190
t51 -208q0 -67 -18 -115.5t-57 -87.5zM477 230q0 76 -50.5 125t-130.5 49q-78 0 -129 -51t-51 -128t50.5 -128.5t126.5 -51.5q80 0 132 52.5t52 132.5z" />
    <glyph glyph-name="ntilde" unicode="&#xf1;" horiz-adv-x="603" 
d="M328 445q-44 0 -83 -24t-88 -80v-341h-67v483l67 18v-108q44 59 89 85.5t98 26.5q80 0 128 -52.5t48 -142.5v-310h-66v304q0 66 -33.5 103.5t-92.5 37.5zM320 693q32 -23 45 -30t22 -7q14 0 28 15.5t49 74.5l34 -20q-42 -79 -65 -103.5t-51 -24.5q-14 0 -32.5 9.5
t-57.5 38.5q-32 23 -45 30t-22 7q-15 0 -29 -15.5t-48 -73.5l-34 20q41 78 64 102.5t52 24.5q14 0 32.5 -9.5t57.5 -38.5z" />
    <glyph glyph-name="ograve" unicode="&#xf2;" horiz-adv-x="616" 
d="M306 -14q-111 0 -184.5 76t-73.5 184q0 109 74.5 185.5t186.5 76.5t185 -75.5t73 -184.5t-74.5 -185.5t-186.5 -76.5zM500 247q0 86 -54.5 143.5t-137.5 57.5t-137.5 -57.5t-54.5 -143.5t54.5 -144t136.5 -58q83 0 138 58.5t55 143.5zM237 761l91 -162h-33l-147 161v1h89
z" />
    <glyph glyph-name="oacute" unicode="&#xf3;" horiz-adv-x="616" 
d="M306 -14q-111 0 -184.5 76t-73.5 184q0 109 74.5 185.5t186.5 76.5t185 -75.5t73 -184.5t-74.5 -185.5t-186.5 -76.5zM500 247q0 86 -54.5 143.5t-137.5 57.5t-137.5 -57.5t-54.5 -143.5t54.5 -144t136.5 -58q83 0 138 58.5t55 143.5zM321 599h-33l91 162h89v-1z" />
    <glyph glyph-name="ocircumflex" unicode="&#xf4;" horiz-adv-x="616" 
d="M306 -14q-111 0 -184.5 76t-73.5 184q0 109 74.5 185.5t186.5 76.5t185 -75.5t73 -184.5t-74.5 -185.5t-186.5 -76.5zM500 247q0 86 -54.5 143.5t-137.5 57.5t-137.5 -57.5t-54.5 -143.5t54.5 -144t136.5 -58q83 0 138 58.5t55 143.5zM465 599h-34l-123 106l-122 -106
h-35v1l126 161h62l126 -161v-1z" />
    <glyph glyph-name="otilde" unicode="&#xf5;" horiz-adv-x="616" 
d="M306 -14q-111 0 -184.5 76t-73.5 184q0 109 74.5 185.5t186.5 76.5t185 -75.5t73 -184.5t-74.5 -185.5t-186.5 -76.5zM500 247q0 86 -54.5 143.5t-137.5 57.5t-137.5 -57.5t-54.5 -143.5t54.5 -144t136.5 -58q83 0 138 58.5t55 143.5zM322 696q32 -23 45 -30t22 -7
q14 0 28 15.5t49 74.5l34 -20q-42 -79 -65 -103.5t-51 -24.5q-14 0 -32.5 9.5t-57.5 38.5q-32 23 -45 30t-22 7q-15 0 -29 -15.5t-48 -73.5l-34 20q41 78 64 102.5t52 24.5q14 0 32.5 -9.5t57.5 -38.5z" />
    <glyph glyph-name="odieresis" unicode="&#xf6;" horiz-adv-x="616" 
d="M306 -14q-111 0 -184.5 76t-73.5 184q0 109 74.5 185.5t186.5 76.5t185 -75.5t73 -184.5t-74.5 -185.5t-186.5 -76.5zM500 247q0 86 -54.5 143.5t-137.5 57.5t-137.5 -57.5t-54.5 -143.5t54.5 -144t136.5 -58q83 0 138 58.5t55 143.5zM411 602q-20 0 -34.5 14.5
t-14.5 34.5t14.5 34.5t34.5 14.5t34.5 -14.5t14.5 -34.5t-14.5 -34.5t-34.5 -14.5zM205 602q-20 0 -34.5 14.5t-14.5 34.5t14.5 34.5t34.5 14.5t34.5 -14.5t14.5 -34.5t-14.5 -34.5t-34.5 -14.5z" />
    <glyph glyph-name="divide" unicode="&#xf7;" horiz-adv-x="600" 
d="M300 501q-22 0 -37.5 15.5t-15.5 37.5t15.5 38t37.5 16t37.5 -16t15.5 -38t-15.5 -37.5t-37.5 -15.5zM550 381v-59h-500v59h500zM300 94q-22 0 -37.5 15.5t-15.5 37.5t15.5 37.5t37.5 15.5t37.5 -15.5t15.5 -37.5t-15.5 -37.5t-37.5 -15.5z" />
    <glyph glyph-name="oslash" unicode="&#xf8;" horiz-adv-x="616" 
d="M311 450q-86 0 -141.5 -58.5t-55.5 -147.5q0 -39 13 -75t37 -63l249 315q-22 14 -48 21.5t-54 7.5zM305 43q85 0 141 59t56 148q0 39 -13 75t-37 63l-249 -316q23 -14 49 -21.5t53 -7.5zM567 248q0 -109 -74.5 -185.5t-186.5 -76.5q-38 0 -73.5 10t-66.5 30l-58 -73h-68
l85 106q-37 37 -57 86t-20 101q0 109 74.5 185.5t186.5 76.5q39 0 74.5 -10t66.5 -30l58 73h68l-85 -106q36 -37 56 -86t20 -101z" />
    <glyph glyph-name="ugrave" unicode="&#xf9;" horiz-adv-x="603" 
d="M512 0h-66v102q-44 -59 -88.5 -86t-98.5 -27q-80 0 -128 52.5t-48 142.5v310h66v-305q0 -66 33.5 -103t92.5 -37q43 0 83 24t88 80v341h66v-494zM227 758l91 -162h-33l-147 161v1h89z" />
    <glyph glyph-name="uacute" unicode="&#xfa;" horiz-adv-x="603" 
d="M512 0h-66v102q-44 -59 -88.5 -86t-98.5 -27q-80 0 -128 52.5t-48 142.5v310h66v-305q0 -66 33.5 -103t92.5 -37q43 0 83 24t88 80v341h66v-494zM311 596h-33l91 162h89v-1z" />
    <glyph glyph-name="ucircumflex" unicode="&#xfb;" horiz-adv-x="603" 
d="M512 0h-66v102q-44 -59 -88.5 -86t-98.5 -27q-80 0 -128 52.5t-48 142.5v310h66v-305q0 -66 33.5 -103t92.5 -37q43 0 83 24t88 80v341h66v-494zM455 596h-34l-123 106l-122 -106h-35v1l126 161h62l126 -161v-1z" />
    <glyph glyph-name="udieresis" unicode="&#xfc;" horiz-adv-x="603" 
d="M512 0h-66v102q-44 -59 -88.5 -86t-98.5 -27q-80 0 -128 52.5t-48 142.5v310h66v-305q0 -66 33.5 -103t92.5 -37q43 0 83 24t88 80v341h66v-494zM401 599q-20 0 -34.5 14.5t-14.5 34.5t14.5 34.5t34.5 14.5t34.5 -14.5t14.5 -34.5t-14.5 -34.5t-34.5 -14.5zM195 599
q-20 0 -34.5 14.5t-14.5 34.5t14.5 34.5t34.5 14.5t34.5 -14.5t14.5 -34.5t-14.5 -34.5t-34.5 -14.5z" />
    <glyph glyph-name="yacute" unicode="&#xfd;" horiz-adv-x="533" 
d="M114 -191q-20 0 -39.5 5t-40.5 16l-13 67l2 2q23 -15 42.5 -21.5t39.5 -6.5q38 1 65 25t48 76l23 52l-215 470h73l176 -397l162 397h73l-231 -543q-30 -73 -70 -107t-95 -35zM278 596h-33l91 162h89v-1z" />
    <glyph glyph-name="thorn" unicode="&#xfe;" horiz-adv-x="621" 
d="M314 50q81 0 135.5 57.5t54.5 143.5q0 84 -51.5 138.5t-126.5 54.5q-42 0 -82 -18t-85 -58v-259q42 -31 79 -45t76 -14zM571 255q0 -113 -72 -188t-176 -75q-43 0 -83 15t-81 47v-243l-66 1v918l66 25v-339q46 47 89 67.5t94 20.5q96 0 162.5 -71t66.5 -178z" />
    <glyph glyph-name="ydieresis" unicode="&#xff;" horiz-adv-x="533" 
d="M114 -191q-20 0 -39.5 5t-40.5 16l-13 67l2 2q23 -15 42.5 -21.5t39.5 -6.5q38 1 65 25t48 76l23 52l-215 470h73l176 -397l162 397h73l-231 -543q-30 -73 -70 -107t-95 -35zM368 599q-20 0 -34.5 14.5t-14.5 34.5t14.5 34.5t34.5 14.5t34.5 -14.5t14.5 -34.5
t-14.5 -34.5t-34.5 -14.5zM162 599q-20 0 -34.5 14.5t-14.5 34.5t14.5 34.5t34.5 14.5t34.5 -14.5t14.5 -34.5t-14.5 -34.5t-34.5 -14.5z" />
    <glyph glyph-name="Amacron" unicode="&#x100;" horiz-adv-x="781" 
d="M222 254h334l-165 372zM745 0h-76l-85 191h-390l-87 -191h-73l326 705h67zM218 798v52h348v-52h-348z" />
    <glyph glyph-name="amacron" unicode="&#x101;" horiz-adv-x="562" 
d="M120 124q0 -34 25.5 -55t66.5 -21q39 0 87.5 20.5t112.5 63.5v114q-148 -7 -220 -36.5t-72 -85.5zM478 11l-66 -18v94q-61 -50 -112 -73t-100 -23q-64 0 -105 36t-41 94q0 85 88 126t270 45v12q0 67 -32.5 103t-93.5 36q-44 0 -89 -18t-92 -54l-2 1l14 76
q43 29 86.5 42.5t91.5 13.5q87 0 135 -51t48 -145v-297zM123 623v52h328v-52h-328z" />
    <glyph glyph-name="Abreve" unicode="&#x102;" horiz-adv-x="781" 
d="M222 254h334l-165 372zM745 0h-76l-85 191h-390l-87 -191h-73l326 705h67zM392 774q-53 0 -95 28t-80 91l28 20q43 -47 76 -64.5t71 -17.5t71 17.5t76 64.5l28 -20q-38 -63 -80 -91t-95 -28z" />
    <glyph glyph-name="abreve" unicode="&#x103;" horiz-adv-x="562" 
d="M120 124q0 -34 25.5 -55t66.5 -21q39 0 87.5 20.5t112.5 63.5v114q-148 -7 -220 -36.5t-72 -85.5zM478 11l-66 -18v94q-61 -50 -112 -73t-100 -23q-64 0 -105 36t-41 94q0 85 88 126t270 45v12q0 67 -32.5 103t-93.5 36q-44 0 -89 -18t-92 -54l-2 1l14 76
q43 29 86.5 42.5t91.5 13.5q87 0 135 -51t48 -145v-297zM287 592q-51 0 -89.5 32.5t-72.5 105.5l32 18q35 -54 64.5 -75t65.5 -21t65.5 21t64.5 75l32 -18q-34 -73 -72.5 -105.5t-89.5 -32.5z" />
    <glyph glyph-name="Aogonek" unicode="&#x104;" horiz-adv-x="781" 
d="M222 254h334l-165 372zM765 -152l-10 -32q-15 -4 -33.5 -6.5t-35.5 -2.5q-43 0 -67.5 18t-24.5 51q0 17 9.5 36t32.5 49l32 41l-84 189h-390l-87 -191h-73l326 705h67l318 -705h-37l-31 -55q-13 -22 -17.5 -34t-4.5 -24q0 -20 17 -29.5t54 -9.5h39z" />
    <glyph glyph-name="aogonek" unicode="&#x105;" horiz-adv-x="562" 
d="M429 -193q-43 0 -67.5 18t-24.5 51q0 17 9.5 36t32.5 49l33 43v83q-61 -50 -112 -73t-100 -23q-64 0 -105 36t-41 94q0 85 88 126t270 45v12q0 67 -32.5 103t-93.5 36q-44 0 -89 -18t-92 -54l-2 1l14 76q43 29 86.5 42.5t91.5 13.5q87 0 135 -51t48 -145v-297l-24 -7
l-34 -59q-13 -22 -17.5 -34t-4.5 -24q0 -20 17 -29.5t54 -9.5h39l-10 -32q-15 -4 -33.5 -6.5t-35.5 -2.5zM120 124q0 -34 25.5 -55t66.5 -21q39 0 87.5 20.5t112.5 63.5v114q-148 -7 -220 -36.5t-72 -85.5z" />
    <glyph glyph-name="Cacute" unicode="&#x106;" horiz-adv-x="729" 
d="M405 -12q-146 0 -246 103t-100 259q0 73 27 139t77 117q51 51 117 78.5t138 27.5q69 0 131 -24.5t111 -70.5v-85h-2q-57 58 -117.5 86.5t-125.5 28.5q-116 0 -200 -87t-84 -208q0 -127 82 -213t197 -86q70 0 135 30t123 89l2 -2l-11 -84q-55 -49 -118.5 -73.5
t-135.5 -24.5zM423 778h-37l90 141h97v-1z" />
    <glyph glyph-name="cacute" unicode="&#x107;" horiz-adv-x="538" 
d="M488 125l-13 -77q-43 -30 -87 -45t-89 -15q-109 0 -179.5 72.5t-70.5 185.5q0 110 74 185t185 75q49 0 91 -15.5t79 -46.5v-81h-2q-42 42 -83.5 62t-85.5 20q-81 0 -136 -57.5t-55 -139.5q0 -87 52.5 -143t133.5 -56q44 0 91.5 20t91.5 57zM306 599h-33l91 162h89v-1z
" />
    <glyph glyph-name="Ccircumflex" unicode="&#x108;" horiz-adv-x="729" 
d="M405 -12q-146 0 -246 103t-100 259q0 73 27 139t77 117q51 51 117 78.5t138 27.5q69 0 131 -24.5t111 -70.5v-85h-2q-57 58 -117.5 86.5t-125.5 28.5q-116 0 -200 -87t-84 -208q0 -127 82 -213t197 -86q70 0 135 30t123 89l2 -2l-11 -84q-55 -49 -118.5 -73.5
t-135.5 -24.5zM571 778h-41l-121 90l-121 -90h-41v1l131 140h62l131 -140v-1z" />
    <glyph glyph-name="ccircumflex" unicode="&#x109;" horiz-adv-x="538" 
d="M488 125l-13 -77q-43 -30 -87 -45t-89 -15q-109 0 -179.5 72.5t-70.5 185.5q0 110 74 185t185 75q49 0 91 -15.5t79 -46.5v-81h-2q-42 42 -83.5 62t-85.5 20q-81 0 -136 -57.5t-55 -139.5q0 -87 52.5 -143t133.5 -56q44 0 91.5 20t91.5 57zM450 599h-34l-123 106
l-122 -106h-35v1l126 161h62l126 -161v-1z" />
    <glyph glyph-name="Cdotaccent" unicode="&#x10a;" horiz-adv-x="729" 
d="M405 -12q-146 0 -246 103t-100 259q0 73 27 139t77 117q51 51 117 78.5t138 27.5q69 0 131 -24.5t111 -70.5v-85h-2q-57 58 -117.5 86.5t-125.5 28.5q-116 0 -200 -87t-84 -208q0 -127 82 -213t197 -86q70 0 135 30t123 89l2 -2l-11 -84q-55 -49 -118.5 -73.5
t-135.5 -24.5zM409 878q21 0 35.5 -14.5t14.5 -35.5q0 -20 -14.5 -34.5t-35.5 -14.5t-35.5 14.5t-14.5 34.5q0 21 14.5 35.5t35.5 14.5z" />
    <glyph glyph-name="cdotaccent" unicode="&#x10b;" horiz-adv-x="538" 
d="M488 125l-13 -77q-43 -30 -87 -45t-89 -15q-109 0 -179.5 72.5t-70.5 185.5q0 110 74 185t185 75q49 0 91 -15.5t79 -46.5v-81h-2q-42 42 -83.5 62t-85.5 20q-81 0 -136 -57.5t-55 -139.5q0 -87 52.5 -143t133.5 -56q44 0 91.5 20t91.5 57zM293 602q-20 0 -34.5 14.5
t-14.5 34.5t14.5 34.5t34.5 14.5t34.5 -14.5t14.5 -34.5t-14.5 -34.5t-34.5 -14.5z" />
    <glyph glyph-name="Ccaron" unicode="&#x10c;" horiz-adv-x="729" 
d="M405 -12q-146 0 -246 103t-100 259q0 73 27 139t77 117q51 51 117 78.5t138 27.5q69 0 131 -24.5t111 -70.5v-85h-2q-57 58 -117.5 86.5t-125.5 28.5q-116 0 -200 -87t-84 -208q0 -127 82 -213t197 -86q70 0 135 30t123 89l2 -2l-11 -84q-55 -49 -118.5 -73.5
t-135.5 -24.5zM571 917l-131 -140h-62l-131 140v1h41l121 -90l121 90h41v-1z" />
    <glyph glyph-name="ccaron" unicode="&#x10d;" horiz-adv-x="538" 
d="M488 125l-13 -77q-43 -30 -87 -45t-89 -15q-109 0 -179.5 72.5t-70.5 185.5q0 110 74 185t185 75q49 0 91 -15.5t79 -46.5v-81h-2q-42 42 -83.5 62t-85.5 20q-81 0 -136 -57.5t-55 -139.5q0 -87 52.5 -143t133.5 -56q44 0 91.5 20t91.5 57zM450 760l-126 -161h-62
l-126 161v1h34l123 -106l122 106h35v-1z" />
    <glyph glyph-name="Dcaron" unicode="&#x10e;" horiz-adv-x="782" 
d="M650 350q0 131 -88.5 208.5t-234.5 77.5h-152v-572h156q140 0 229.5 79t89.5 207zM329 0h-224v700h224q179 0 286 -94.5t107 -253.5q0 -158 -109.5 -255t-283.5 -97zM541 912l-131 -140h-62l-131 140v1h41l121 -90l121 90h41v-1z" />
    <glyph glyph-name="dcaron" unicode="&#x10f;" horiz-adv-x="618" 
d="M117 242q0 -84 51 -138t126 -54q43 0 83 18.5t85 58.5v257q-41 30 -79 44.5t-77 14.5q-81 0 -135 -57.5t-54 -143.5zM528 0h-66v79q-47 -47 -90 -68t-94 -21q-96 0 -162.5 71t-66.5 178q0 113 72 188t176 75q44 0 85 -15.5t80 -47.5v291l66 25v-755zM623 548h-34
q14 30 20 54t6 46q0 25 -6 49t-20 52h65q7 -19 10 -36t3 -35q0 -31 -11 -63t-33 -67z" />
    <glyph glyph-name="Dcroat" unicode="&#x110;" horiz-adv-x="802" 
d="M394 384v-52h-200v-268h157q140 0 229.5 79t89.5 207q0 131 -88.5 208.5t-234.5 77.5h-153v-252h200zM349 0h-224v332h-106v52h106v316h224q179 0 286 -94.5t107 -253.5q0 -158 -109.5 -255t-283.5 -97z" />
    <glyph glyph-name="dcroat" unicode="&#x111;" horiz-adv-x="624" 
d="M117 241q0 -83 51.5 -137t125.5 -54q43 0 83 18t85 57v257q-41 30 -78.5 44t-77.5 14q-80 0 -134.5 -57t-54.5 -142zM528 0h-66v78q-47 -47 -90.5 -67.5t-93.5 -20.5q-96 0 -162.5 70.5t-66.5 176.5q0 112 72 187t176 75q44 0 84.5 -15.5t80.5 -46.5v154h-165v47h165v92
l66 25v-117h82v-47h-82v-591z" />
    <glyph glyph-name="Emacron" unicode="&#x112;" horiz-adv-x="570" 
d="M492 0h-387v700h384l23 -64h-337v-248h286v-64h-286v-260h340zM133 798v52h348v-52h-348z" />
    <glyph glyph-name="emacron" unicode="&#x113;" horiz-adv-x="558" 
d="M283 449q-69 0 -116.5 -50.5t-52.5 -127.5h328q-4 82 -46.5 130t-112.5 48zM491 110l-24 -74q-42 -25 -82 -36t-85 -11q-114 0 -183 70.5t-69 188.5q0 109 68 184.5t170 75.5q101 0 162 -71t61 -183q0 -7 -0.5 -16t-1.5 -18h-391q9 -80 59.5 -125t131.5 -45q43 0 90 16
t92 45zM124 626v52h328v-52h-328z" />
    <glyph glyph-name="Ebreve" unicode="&#x114;" horiz-adv-x="570" 
d="M492 0h-387v700h384l23 -64h-337v-248h286v-64h-286v-260h340zM307 774q-53 0 -95 28t-80 91l28 20q43 -47 76 -64.5t71 -17.5t71 17.5t76 64.5l28 -20q-38 -63 -80 -91t-95 -28z" />
    <glyph glyph-name="ebreve" unicode="&#x115;" horiz-adv-x="558" 
d="M283 449q-69 0 -116.5 -50.5t-52.5 -127.5h328q-4 82 -46.5 130t-112.5 48zM491 110l-24 -74q-42 -25 -82 -36t-85 -11q-114 0 -183 70.5t-69 188.5q0 109 68 184.5t170 75.5q101 0 162 -71t61 -183q0 -7 -0.5 -16t-1.5 -18h-391q9 -80 59.5 -125t131.5 -45q43 0 90 16
t92 45zM288 595q-51 0 -89.5 32.5t-72.5 105.5l32 18q35 -54 64.5 -75t65.5 -21t65.5 21t64.5 75l32 -18q-34 -73 -72.5 -105.5t-89.5 -32.5z" />
    <glyph glyph-name="Edotaccent" unicode="&#x116;" horiz-adv-x="570" 
d="M492 0h-387v700h384l23 -64h-337v-248h286v-64h-286v-260h340zM307 873q21 0 35.5 -14.5t14.5 -35.5q0 -20 -14.5 -34.5t-35.5 -14.5t-35.5 14.5t-14.5 34.5q0 21 14.5 35.5t35.5 14.5z" />
    <glyph glyph-name="edotaccent" unicode="&#x117;" horiz-adv-x="558" 
d="M283 449q-69 0 -116.5 -50.5t-52.5 -127.5h328q-4 82 -46.5 130t-112.5 48zM491 110l-24 -74q-42 -25 -82 -36t-85 -11q-114 0 -183 70.5t-69 188.5q0 109 68 184.5t170 75.5q101 0 162 -71t61 -183q0 -7 -0.5 -16t-1.5 -18h-391q9 -80 59.5 -125t131.5 -45q43 0 90 16
t92 45zM288 602q-20 0 -34.5 14.5t-14.5 34.5t14.5 34.5t34.5 14.5t34.5 -14.5t14.5 -34.5t-14.5 -34.5t-34.5 -14.5z" />
    <glyph glyph-name="Eogonek" unicode="&#x118;" horiz-adv-x="570" 
d="M515 -152l-10 -32q-15 -4 -33.5 -6.5t-35.5 -2.5q-43 0 -67.5 18t-24.5 51q0 17 9.5 36t32.5 49l30 39h-311v700h384l23 -64h-337v-248h286v-64h-286v-260h340l-23 -64h-34l-31 -55q-13 -22 -17.5 -34t-4.5 -24q0 -20 17 -29.5t54 -9.5h39z" />
    <glyph glyph-name="eogonek" unicode="&#x119;" horiz-adv-x="558" 
d="M460 -152l-10 -32q-16 -4 -34.5 -6.5t-35.5 -2.5q-42 0 -65.5 17.5t-23.5 48.5q0 19 10.5 36.5t41.5 48.5l44 43q-19 -6 -41 -9t-46 -3q-114 0 -183 70.5t-69 188.5q0 109 68 184.5t170 75.5q101 0 162 -71t61 -183q0 -7 -0.5 -16t-1.5 -18h-391q9 -80 59.5 -125
t131.5 -45q43 0 90 16t92 45l2 -1l-24 -74l-80 -88q-19 -21 -27 -35.5t-8 -27.5q0 -20 15.5 -28.5t50.5 -8.5h42zM283 449q-69 0 -116.5 -50.5t-52.5 -127.5h328q-4 82 -46.5 130t-112.5 48z" />
    <glyph glyph-name="Ecaron" unicode="&#x11a;" horiz-adv-x="570" 
d="M492 0h-387v700h384l23 -64h-337v-248h286v-64h-286v-260h340zM469 912l-131 -140h-62l-131 140v1h41l121 -90l121 90h41v-1z" />
    <glyph glyph-name="ecaron" unicode="&#x11b;" horiz-adv-x="558" 
d="M283 449q-69 0 -116.5 -50.5t-52.5 -127.5h328q-4 82 -46.5 130t-112.5 48zM491 110l-24 -74q-42 -25 -82 -36t-85 -11q-114 0 -183 70.5t-69 188.5q0 109 68 184.5t170 75.5q101 0 162 -71t61 -183q0 -7 -0.5 -16t-1.5 -18h-391q9 -80 59.5 -125t131.5 -45q43 0 90 16
t92 45zM445 760l-126 -161h-62l-126 161v1h34l123 -106l122 106h35v-1z" />
    <glyph glyph-name="Gcircumflex" unicode="&#x11c;" horiz-adv-x="793" 
d="M695 356v-285q-69 -43 -134 -62t-141 -19q-159 0 -260 99t-101 258q0 158 108 260.5t273 102.5q67 0 127 -16t114 -48v-79q-59 38 -120 57.5t-123 19.5q-131 0 -219 -84.5t-88 -210.5q0 -131 82.5 -212.5t211.5 -81.5q58 0 106 13t95 40v183h-223v65h292zM583 778h-41
l-121 90l-121 -90h-41v1l131 140h62l131 -140v-1z" />
    <glyph glyph-name="gcircumflex" unicode="&#x11d;" horiz-adv-x="618" 
d="M116 251q0 -80 49 -130.5t126 -50.5q43 0 84 19t86 59v251q-39 24 -75.5 35t-74.5 11q-82 0 -138.5 -56t-56.5 -138zM277 -193q-49 0 -97 11.5t-95 34.5l-16 75l2 2q55 -32 106 -47t103 -15q81 0 131 49t50 132v51q-46 -46 -91.5 -67t-96.5 -21q-97 0 -160.5 66.5
t-63.5 168.5q0 110 75.5 182.5t185.5 72.5q40 0 78 -11t81 -36l46 39h12v-445q0 -112 -67.5 -177t-182.5 -65zM467 596h-34l-123 106l-122 -106h-35v1l126 161h62l126 -161v-1z" />
    <glyph glyph-name="Gbreve" unicode="&#x11e;" horiz-adv-x="793" 
d="M695 356v-285q-69 -43 -134 -62t-141 -19q-159 0 -260 99t-101 258q0 158 108 260.5t273 102.5q67 0 127 -16t114 -48v-79q-59 38 -120 57.5t-123 19.5q-131 0 -219 -84.5t-88 -210.5q0 -131 82.5 -212.5t211.5 -81.5q58 0 106 13t95 40v183h-223v65h292zM421 779
q-53 0 -95 28t-80 91l28 20q43 -47 76 -64.5t71 -17.5t71 17.5t76 64.5l28 -20q-38 -63 -80 -91t-95 -28z" />
    <glyph glyph-name="gbreve" unicode="&#x11f;" horiz-adv-x="618" 
d="M116 251q0 -80 49 -130.5t126 -50.5q43 0 84 19t86 59v251q-39 24 -75.5 35t-74.5 11q-82 0 -138.5 -56t-56.5 -138zM277 -193q-49 0 -97 11.5t-95 34.5l-16 75l2 2q55 -32 106 -47t103 -15q81 0 131 49t50 132v51q-46 -46 -91.5 -67t-96.5 -21q-97 0 -160.5 66.5
t-63.5 168.5q0 110 75.5 182.5t185.5 72.5q40 0 78 -11t81 -36l46 39h12v-445q0 -112 -67.5 -177t-182.5 -65zM310 592q-51 0 -89.5 32.5t-72.5 105.5l32 18q35 -54 64.5 -75t65.5 -21t65.5 21t64.5 75l32 -18q-34 -73 -72.5 -105.5t-89.5 -32.5z" />
    <glyph glyph-name="Gdotaccent" unicode="&#x120;" horiz-adv-x="793" 
d="M695 356v-285q-69 -43 -134 -62t-141 -19q-159 0 -260 99t-101 258q0 158 108 260.5t273 102.5q67 0 127 -16t114 -48v-79q-59 38 -120 57.5t-123 19.5q-131 0 -219 -84.5t-88 -210.5q0 -131 82.5 -212.5t211.5 -81.5q58 0 106 13t95 40v183h-223v65h292zM421 878
q21 0 35.5 -14.5t14.5 -35.5q0 -20 -14.5 -34.5t-35.5 -14.5t-35.5 14.5t-14.5 34.5q0 21 14.5 35.5t35.5 14.5z" />
    <glyph glyph-name="gdotaccent" unicode="&#x121;" horiz-adv-x="618" 
d="M116 251q0 -80 49 -130.5t126 -50.5q43 0 84 19t86 59v251q-39 24 -75.5 35t-74.5 11q-82 0 -138.5 -56t-56.5 -138zM277 -193q-49 0 -97 11.5t-95 34.5l-16 75l2 2q55 -32 106 -47t103 -15q81 0 131 49t50 132v51q-46 -46 -91.5 -67t-96.5 -21q-97 0 -160.5 66.5
t-63.5 168.5q0 110 75.5 182.5t185.5 72.5q40 0 78 -11t81 -36l46 39h12v-445q0 -112 -67.5 -177t-182.5 -65zM310 599q-20 0 -34.5 14.5t-14.5 34.5t14.5 34.5t34.5 14.5t34.5 -14.5t14.5 -34.5t-14.5 -34.5t-34.5 -14.5z" />
    <glyph glyph-name="uni0122" unicode="&#x122;" horiz-adv-x="793" 
d="M695 356v-285q-69 -43 -134 -62t-141 -19q-159 0 -260 99t-101 258q0 158 108 260.5t273 102.5q67 0 127 -16t114 -48v-79q-59 38 -120 57.5t-123 19.5q-131 0 -219 -84.5t-88 -210.5q0 -131 82.5 -212.5t211.5 -81.5q58 0 106 13t95 40v183h-223v65h292zM491 -160
q0 -24 -21 -47.5t-73 -55.5l-37 15v1q34 24 49 41.5t15 32.5q0 16 -12.5 28t-53.5 35v2l69 21q35 -18 49.5 -34.5t14.5 -38.5z" />
    <glyph glyph-name="uni0123" unicode="&#x123;" horiz-adv-x="618" 
d="M116 251q0 -80 49 -130.5t126 -50.5q43 0 84 19t86 59v251q-39 24 -75.5 35t-74.5 11q-82 0 -138.5 -56t-56.5 -138zM277 -193q-49 0 -97 11.5t-95 34.5l-16 75l2 2q55 -32 106 -47t103 -15q81 0 131 49t50 132v51q-46 -46 -91.5 -67t-96.5 -21q-97 0 -160.5 66.5
t-63.5 168.5q0 110 75.5 182.5t185.5 72.5q40 0 78 -11t81 -36l46 39h12v-445q0 -112 -67.5 -177t-182.5 -65zM239 669q0 26 22 52t72 57l37 -15v-2q-33 -24 -48.5 -43t-15.5 -35q0 -17 13 -30t53 -36v-3l-69 -21q-35 19 -49.5 36t-14.5 40z" />
    <glyph glyph-name="Hcircumflex" unicode="&#x124;" horiz-adv-x="814" 
d="M709 0h-70v326h-464v-326h-70v700h70v-309h464v309h70v-700zM569 773h-41l-121 90l-121 -90h-41v1l131 140h62l131 -140v-1z" />
    <glyph glyph-name="hcircumflex" unicode="&#x125;" horiz-adv-x="603" 
d="M328 445q-44 0 -83 -24t-88 -80v-341h-67v730l67 25v-362q44 59 89 85.5t98 26.5q80 0 128 -52.5t48 -142.5v-310h-66v304q0 66 -33.5 103.5t-92.5 37.5zM281 797h-34l-123 106l-122 -106h-35v1l126 161h62l126 -161v-1z" />
    <glyph glyph-name="Hbar" unicode="&#x126;" horiz-adv-x="854" 
d="M194 358h466v170h-466v-170zM729 0h-69v293h-466v-293h-69v526h-106v53h106v121h69v-121h466v121h69v-121h106v-53h-106v-526z" />
    <glyph glyph-name="hbar" unicode="&#x127;" horiz-adv-x="608" 
d="M333 445q-44 0 -83.5 -24t-87.5 -81v-340h-66v591h-82v47h82v92l66 25v-117h162v-47h-162v-199q44 59 88.5 86t98.5 27q80 0 128 -52.5t48 -142.5v-310h-66v304q0 66 -33.5 103.5t-92.5 37.5z" />
    <glyph glyph-name="Itilde" unicode="&#x128;" horiz-adv-x="291" 
d="M180 0h-70v700h70v-700zM157 862q33 -21 47 -27.5t23 -6.5q15 0 29 14t48 65l31 -21q-41 -69 -63.5 -91t-50.5 -22q-13 0 -31 8t-57 33q-33 21 -47 27.5t-23 6.5q-15 0 -29 -14t-48 -65l-31 21q41 69 63.5 91t50.5 22q13 0 31 -8t57 -33z" />
    <glyph glyph-name="itilde" unicode="&#x129;" horiz-adv-x="257" 
d="M162 0h-67v494h67v-494zM143 693q32 -23 45 -30t22 -7q14 0 28 15.5t49 74.5l34 -20q-42 -79 -65 -103.5t-51 -24.5q-14 0 -32.5 9.5t-57.5 38.5q-32 23 -45 30t-22 7q-15 0 -29 -15.5t-48 -73.5l-34 20q41 78 64 102.5t52 24.5q14 0 32.5 -9.5t57.5 -38.5z" />
    <glyph glyph-name="Imacron" unicode="&#x12a;" horiz-adv-x="291" 
d="M180 0h-70v700h70v-700zM11 798v52h268v-52h-268z" />
    <glyph glyph-name="imacron" unicode="&#x12b;" horiz-adv-x="257" 
d="M162 0h-67v494h67v-494zM-5 623v52h268v-52h-268z" />
    <glyph glyph-name="Ibreve" unicode="&#x12c;" horiz-adv-x="291" 
d="M180 0h-70v700h70v-700zM145 774q-53 0 -95 28t-80 91l28 20q43 -47 76 -64.5t71 -17.5t71 17.5t76 64.5l28 -20q-38 -63 -80 -91t-95 -28z" />
    <glyph glyph-name="ibreve" unicode="&#x12d;" horiz-adv-x="257" 
d="M162 0h-67v494h67v-494zM129 592q-51 0 -89.5 32.5t-72.5 105.5l32 18q35 -54 64.5 -75t65.5 -21t65.5 21t64.5 75l32 -18q-34 -73 -72.5 -105.5t-89.5 -32.5z" />
    <glyph glyph-name="Iogonek" unicode="&#x12e;" horiz-adv-x="291" 
d="M222 -152l-10 -32q-15 -4 -33.5 -6.5t-35.5 -2.5q-43 0 -67.5 18t-24.5 51q0 17 9.5 36t32.5 49l30 39h-13v700h70v-700h-15l-31 -55q-13 -22 -17.5 -34t-4.5 -24q0 -20 17 -29.5t54 -9.5h39z" />
    <glyph glyph-name="iogonek" unicode="&#x12f;" horiz-adv-x="257" 
d="M129 719q20 0 34 -14.5t14 -34.5q0 -21 -14 -35t-35 -14q-20 0 -34 14.5t-14 34.5t14.5 34.5t34.5 14.5zM205 -152l-10 -32q-15 -4 -33.5 -6.5t-35.5 -2.5q-43 0 -67.5 18t-24.5 51q0 17 9.5 36t32.5 49l30 39h-11v494h67v-494h-14l-31 -55q-13 -22 -17.5 -34t-4.5 -24
q0 -20 17 -29.5t54 -9.5h39z" />
    <glyph glyph-name="Idotaccent" unicode="&#x130;" horiz-adv-x="291" 
d="M180 0h-70v700h70v-700zM145 873q21 0 35.5 -14.5t14.5 -35.5q0 -20 -14.5 -34.5t-35.5 -14.5t-35.5 14.5t-14.5 34.5q0 21 14.5 35.5t35.5 14.5z" />
    <glyph glyph-name="dotlessi" unicode="&#x131;" horiz-adv-x="257" 
d="M162 0h-67v494h67v-494z" />
    <glyph glyph-name="Jcircumflex" unicode="&#x134;" horiz-adv-x="453" 
d="M166 56q52 0 82.5 33.5t30.5 90.5v520h70v-527q0 -84 -47 -133.5t-127 -49.5q-35 0 -65.5 10t-57.5 30l-17 83l2 1q32 -29 64.5 -43.5t64.5 -14.5zM477 773h-41l-121 90l-121 -90h-41v1l131 140h62l131 -140v-1z" />
    <glyph glyph-name="jcircumflex" unicode="&#x135;" horiz-adv-x="257" 
d="M96 494h67v-539q0 -68 -35 -107t-95 -39q-16 0 -31 3t-26 8l-10 59q15 -6 29 -9t29 -3q35 0 53.5 22t18.5 64v541zM286 596h-34l-123 106l-122 -106h-35v1l126 161h62l126 -161v-1z" />
    <glyph glyph-name="uni0136" unicode="&#x136;" horiz-adv-x="680" 
d="M661 0h-95l-356 328h-35v-328h-70v700h70v-311h36l352 311h92v-3l-388 -337l394 -357v-3zM438 -155q0 -24 -21 -47.5t-73 -55.5l-37 15v1q34 24 49 41.5t15 32.5q0 16 -12.5 28t-53.5 35v2l69 21q35 -18 49.5 -34.5t14.5 -38.5z" />
    <glyph glyph-name="uni0137" unicode="&#x137;" horiz-adv-x="527" 
d="M518 0h-88l-241 225h-32v-225h-67v730l67 25v-478h34l228 217h85v-3l-258 -239l272 -249v-3zM362 -155q0 -24 -21 -47.5t-73 -55.5l-37 15v1q34 24 49 41.5t15 32.5q0 16 -12.5 28t-53.5 35v2l69 21q35 -18 49.5 -34.5t14.5 -38.5z" />
    <glyph glyph-name="Lacute" unicode="&#x139;" horiz-adv-x="527" 
d="M493 0h-388v700h70v-636h318v-64zM157 773h-37l90 141h97v-1z" />
    <glyph glyph-name="lacute" unicode="&#x13a;" horiz-adv-x="257" 
d="M162 0h-67v730l67 25v-755zM142 822h-33l91 162h89v-1z" />
    <glyph glyph-name="uni013B" unicode="&#x13b;" horiz-adv-x="527" 
d="M493 0h-388v700h70v-636h318v-64zM370 -155q0 -24 -21 -47.5t-73 -55.5l-37 15v1q34 24 49 41.5t15 32.5q0 16 -12.5 28t-53.5 35v2l69 21q35 -18 49.5 -34.5t14.5 -38.5z" />
    <glyph glyph-name="uni013C" unicode="&#x13c;" horiz-adv-x="257" 
d="M162 0h-67v730l67 25v-755zM200 -155q0 -24 -21 -47.5t-73 -55.5l-37 15v1q34 24 49 41.5t15 32.5q0 16 -12.5 28t-53.5 35v2l69 21q35 -18 49.5 -34.5t14.5 -38.5z" />
    <glyph glyph-name="Lcaron" unicode="&#x13d;" horiz-adv-x="527" 
d="M493 0h-388v700h70v-636h318v-64zM282 545h-34q14 30 20 54t6 46q0 25 -6 49t-20 52h65q7 -19 10 -36t3 -35q0 -31 -11 -63t-33 -67z" />
    <glyph glyph-name="lcaron" unicode="&#x13e;" horiz-adv-x="257" 
d="M162 0h-67v730l67 25v-755zM257 548h-34q14 30 20 54t6 46q0 25 -6 49t-20 52h65q7 -19 10 -36t3 -35q0 -31 -11 -63t-33 -67z" />
    <glyph glyph-name="Lslash" unicode="&#x141;" horiz-adv-x="547" 
d="M513 64v-64h-388v270l-104 -75h-2v64l106 77v364h70v-320l175 126h2v-64l-177 -127v-251h318z" />
    <glyph glyph-name="lslash" unicode="&#x142;" horiz-adv-x="284" 
d="M175 367v-367h-66v322l-92 -71h-2v61l94 72v346l66 25v-327l92 72h2v-60z" />
    <glyph glyph-name="Nacute" unicode="&#x143;" horiz-adv-x="825" 
d="M719 -4h-25l-522 603v-599h-67v700h66l481 -555v555h67v-704zM426 773h-37l90 141h97v-1z" />
    <glyph glyph-name="nacute" unicode="&#x144;" horiz-adv-x="603" 
d="M328 445q-44 0 -83 -24t-88 -80v-341h-67v483l67 18v-108q44 59 89 85.5t98 26.5q80 0 128 -52.5t48 -142.5v-310h-66v304q0 66 -33.5 103.5t-92.5 37.5zM319 596h-33l91 162h89v-1z" />
    <glyph glyph-name="uni0145" unicode="&#x145;" horiz-adv-x="825" 
d="M719 -4h-25l-522 603v-599h-67v700h66l481 -555v555h67v-704zM489 -155q0 -24 -21 -47.5t-73 -55.5l-37 15v1q34 24 49 41.5t15 32.5q0 16 -12.5 28t-53.5 35v2l69 21q35 -18 49.5 -34.5t14.5 -38.5z" />
    <glyph glyph-name="uni0146" unicode="&#x146;" horiz-adv-x="603" 
d="M328 445q-44 0 -83 -24t-88 -80v-341h-67v483l67 18v-108q44 59 89 85.5t98 26.5q80 0 128 -52.5t48 -142.5v-310h-66v304q0 66 -33.5 103.5t-92.5 37.5zM377 -155q0 -24 -21 -47.5t-73 -55.5l-37 15v1q34 24 49 41.5t15 32.5q0 16 -12.5 28t-53.5 35v2l69 21
q35 -18 49.5 -34.5t14.5 -38.5z" />
    <glyph glyph-name="Ncaron" unicode="&#x147;" horiz-adv-x="825" 
d="M719 -4h-25l-522 603v-599h-67v700h66l481 -555v555h67v-704zM574 912l-131 -140h-62l-131 140v1h41l121 -90l121 90h41v-1z" />
    <glyph glyph-name="ncaron" unicode="&#x148;" horiz-adv-x="603" 
d="M328 445q-44 0 -83 -24t-88 -80v-341h-67v483l67 18v-108q44 59 89 85.5t98 26.5q80 0 128 -52.5t48 -142.5v-310h-66v304q0 66 -33.5 103.5t-92.5 37.5zM463 757l-126 -161h-62l-126 161v1h34l123 -106l122 106h35v-1z" />
    <glyph glyph-name="Eng" unicode="&#x14a;" horiz-adv-x="825" 
d="M519 -191q-21 0 -40.5 2.5t-37.5 8.5l-13 66l1 1q20 -8 41 -12t42 -4q63 0 101.5 40t38.5 107v7l-480 572v-597h-67v700h66l481 -574v574h67v-679q0 -98 -54.5 -155t-145.5 -57z" />
    <glyph glyph-name="eng" unicode="&#x14b;" horiz-adv-x="600" 
d="M382 -191q-19 0 -34 3.5t-27 9.5l-10 59q14 -7 29.5 -10.5t33.5 -3.5q37 0 58.5 23.5t21.5 65.5v348q0 66 -33.5 103.5t-92.5 37.5q-44 0 -83 -24t-88 -80v-341h-67v483l67 18v-108q44 59 89 85.5t98 26.5q80 0 128 -52.5t48 -142.5v-352q0 -70 -37 -109.5t-101 -39.5z
" />
    <glyph glyph-name="Omacron" unicode="&#x14c;" horiz-adv-x="845" 
d="M421 -14q-152 0 -257 105.5t-105 257.5q0 153 105.5 259t258.5 106q152 0 257.5 -105.5t105.5 -257.5q0 -153 -106 -259t-259 -106zM420 649q-120 0 -204.5 -87t-84.5 -211q0 -126 85 -213t206 -87q120 0 206 87t86 211q0 125 -86 212.5t-208 87.5zM248 803v52h348v-52
h-348z" />
    <glyph glyph-name="omacron" unicode="&#x14d;" horiz-adv-x="616" 
d="M306 -14q-111 0 -184.5 76t-73.5 184q0 109 74.5 185.5t186.5 76.5t185 -75.5t73 -184.5t-74.5 -185.5t-186.5 -76.5zM500 247q0 86 -54.5 143.5t-137.5 57.5t-137.5 -57.5t-54.5 -143.5t54.5 -144t136.5 -58q83 0 138 58.5t55 143.5zM144 626v52h328v-52h-328z" />
    <glyph glyph-name="Obreve" unicode="&#x14e;" horiz-adv-x="845" 
d="M421 -14q-152 0 -257 105.5t-105 257.5q0 153 105.5 259t258.5 106q152 0 257.5 -105.5t105.5 -257.5q0 -153 -106 -259t-259 -106zM420 649q-120 0 -204.5 -87t-84.5 -211q0 -126 85 -213t206 -87q120 0 206 87t86 211q0 125 -86 212.5t-208 87.5zM422 779q-53 0 -95 28
t-80 91l28 20q43 -47 76 -64.5t71 -17.5t71 17.5t76 64.5l28 -20q-38 -63 -80 -91t-95 -28z" />
    <glyph glyph-name="obreve" unicode="&#x14f;" horiz-adv-x="616" 
d="M306 -14q-111 0 -184.5 76t-73.5 184q0 109 74.5 185.5t186.5 76.5t185 -75.5t73 -184.5t-74.5 -185.5t-186.5 -76.5zM500 247q0 86 -54.5 143.5t-137.5 57.5t-137.5 -57.5t-54.5 -143.5t54.5 -144t136.5 -58q83 0 138 58.5t55 143.5zM308 595q-51 0 -89.5 32.5
t-72.5 105.5l32 18q35 -54 64.5 -75t65.5 -21t65.5 21t64.5 75l32 -18q-34 -73 -72.5 -105.5t-89.5 -32.5z" />
    <glyph glyph-name="Ohungarumlaut" unicode="&#x150;" horiz-adv-x="845" 
d="M421 -14q-152 0 -257 105.5t-105 257.5q0 153 105.5 259t258.5 106q152 0 257.5 -105.5t105.5 -257.5q0 -153 -106 -259t-259 -106zM420 649q-120 0 -204.5 -87t-84.5 -211q0 -126 85 -213t206 -87q120 0 206 87t86 211q0 125 -86 212.5t-208 87.5zM520 778h-36l90 141
h91v-1zM332 778h-36l89 141h92v-1z" />
    <glyph glyph-name="ohungarumlaut" unicode="&#x151;" horiz-adv-x="616" 
d="M306 -14q-111 0 -184.5 76t-73.5 184q0 109 74.5 185.5t186.5 76.5t185 -75.5t73 -184.5t-74.5 -185.5t-186.5 -76.5zM500 247q0 86 -54.5 143.5t-137.5 57.5t-137.5 -57.5t-54.5 -143.5t54.5 -144t136.5 -58q83 0 138 58.5t55 143.5zM409 599h-34l91 162h84v-1zM221 599
h-34l91 162h84v-1z" />
    <glyph glyph-name="OE" unicode="&#x152;" horiz-adv-x="985" 
d="M131 350q0 -132 88.5 -209t235.5 -77h66v572h-70q-141 0 -230.5 -79t-89.5 -207zM907 0h-454q-179 0 -286 94.5t-107 253.5q0 158 109.5 255t283.5 97h451l23 -64h-336v-248h285v-64h-285v-260h339z" />
    <glyph glyph-name="oe" unicode="&#x153;" horiz-adv-x="998" 
d="M723 449q-69 0 -116.5 -50.5t-52.5 -127.5h328q-4 82 -46.5 130t-112.5 48zM490 247q0 86 -53 143.5t-134 57.5t-134 -58t-53 -143q0 -87 53 -144.5t133 -57.5q81 0 134.5 58.5t53.5 143.5zM743 -11q-77 0 -134.5 34t-87.5 96q-34 -62 -92.5 -97.5t-129.5 -35.5
q-108 0 -179.5 75.5t-71.5 184.5t72.5 185.5t181.5 76.5q72 0 130 -35.5t90 -98.5q30 63 84.5 98.5t122.5 35.5q100 0 160 -71t60 -183q0 -7 -0.5 -16t-1.5 -18h-391q9 -80 59.5 -125t131.5 -45q43 0 90 16t92 45l2 -1l-23 -74q-43 -25 -82 -36t-83 -11z" />
    <glyph glyph-name="Racute" unicode="&#x154;" horiz-adv-x="620" 
d="M294 637h-120v-283h116q69 0 116 41t47 103q0 63 -44 101t-115 38zM623 0h-89l-260 291h-99v-291h-70v700h192q103 0 165 -54.5t62 -147.5q0 -72 -47.5 -126t-124.5 -71zM315 773h-37l90 141h97v-1z" />
    <glyph glyph-name="racute" unicode="&#x155;" horiz-adv-x="402" 
d="M157 325v-325h-67v483l67 18v-127q64 77 101 102.5t78 25.5q7 0 14 -1t18 -4l5 -70q-7 3 -14 4t-15 1q-42 0 -84 -23.5t-103 -83.5zM232 596h-33l91 162h89v-1z" />
    <glyph glyph-name="uni0156" unicode="&#x156;" horiz-adv-x="620" 
d="M294 637h-120v-283h116q69 0 116 41t47 103q0 63 -44 101t-115 38zM623 0h-89l-260 291h-99v-291h-70v700h192q103 0 165 -54.5t62 -147.5q0 -72 -47.5 -126t-124.5 -71zM418 -155q0 -24 -21 -47.5t-73 -55.5l-37 15v1q34 24 49 41.5t15 32.5q0 16 -12.5 28t-53.5 35v2
l69 21q35 -18 49.5 -34.5t14.5 -38.5z" />
    <glyph glyph-name="uni0157" unicode="&#x157;" horiz-adv-x="402" 
d="M157 325v-325h-67v483l67 18v-127q64 77 101 102.5t78 25.5q7 0 14 -1t18 -4l5 -70q-7 3 -14 4t-15 1q-42 0 -84 -23.5t-103 -83.5zM195 -155q0 -24 -21 -47.5t-73 -55.5l-37 15v1q34 24 49 41.5t15 32.5q0 16 -12.5 28t-53.5 35v2l69 21q35 -18 49.5 -34.5t14.5 -38.5z
" />
    <glyph glyph-name="Rcaron" unicode="&#x158;" horiz-adv-x="620" 
d="M294 637h-120v-283h116q69 0 116 41t47 103q0 63 -44 101t-115 38zM623 0h-89l-260 291h-99v-291h-70v700h192q103 0 165 -54.5t62 -147.5q0 -72 -47.5 -126t-124.5 -71zM463 912l-131 -140h-62l-131 140v1h41l121 -90l121 90h41v-1z" />
    <glyph glyph-name="rcaron" unicode="&#x159;" horiz-adv-x="402" 
d="M157 325v-325h-67v483l67 18v-127q64 77 101 102.5t78 25.5q7 0 14 -1t18 -4l5 -70q-7 3 -14 4t-15 1q-42 0 -84 -23.5t-103 -83.5zM376 757l-126 -161h-62l-126 161v1h34l123 -106l122 106h35v-1z" />
    <glyph glyph-name="Sacute" unicode="&#x15a;" horiz-adv-x="556" 
d="M258 326q-106 49 -145.5 94.5t-39.5 108.5q0 81 58 132t148 51q51 0 95 -13t88 -42v-79h-2q-47 35 -92 52t-92 17q-59 0 -97 -31t-38 -81q0 -43 31.5 -74t131.5 -76q105 -49 145.5 -95.5t40.5 -111.5q0 -83 -62 -136.5t-156 -53.5q-57 0 -110 19.5t-98 55.5l-19 97l2 1
q52 -51 112 -79.5t117 -28.5q62 0 104 33.5t42 86.5q0 44 -34 77t-130 76zM298 778h-37l90 141h97v-1z" />
    <glyph glyph-name="sacute" unicode="&#x15b;" horiz-adv-x="492" 
d="M267 280q100 -25 137.5 -58.5t37.5 -89.5q0 -62 -54 -102.5t-136 -40.5q-54 0 -103.5 16t-93.5 49l-13 81l2 2q50 -43 104.5 -66t109.5 -23q52 0 86 23t34 57t-28.5 53.5t-114.5 41.5q-99 25 -136 57.5t-37 85.5q0 61 52 100t132 39q41 0 82.5 -12t80.5 -36v-71l-3 -1
q-40 29 -83.5 44.5t-83.5 15.5q-50 0 -81.5 -20.5t-31.5 -52.5t27.5 -50.5t113.5 -41.5zM263 597h-33l91 162h89v-1z" />
    <glyph glyph-name="Scircumflex" unicode="&#x15c;" horiz-adv-x="556" 
d="M258 326q-106 49 -145.5 94.5t-39.5 108.5q0 81 58 132t148 51q51 0 95 -13t88 -42v-79h-2q-47 35 -92 52t-92 17q-59 0 -97 -31t-38 -81q0 -43 31.5 -74t131.5 -76q105 -49 145.5 -95.5t40.5 -111.5q0 -83 -62 -136.5t-156 -53.5q-57 0 -110 19.5t-98 55.5l-19 97l2 1
q52 -51 112 -79.5t117 -28.5q62 0 104 33.5t42 86.5q0 44 -34 77t-130 76zM446 778h-41l-121 90l-121 -90h-41v1l131 140h62l131 -140v-1z" />
    <glyph glyph-name="scircumflex" unicode="&#x15d;" horiz-adv-x="492" 
d="M267 280q100 -25 137.5 -58.5t37.5 -89.5q0 -62 -54 -102.5t-136 -40.5q-54 0 -103.5 16t-93.5 49l-13 81l2 2q50 -43 104.5 -66t109.5 -23q52 0 86 23t34 57t-28.5 53.5t-114.5 41.5q-99 25 -136 57.5t-37 85.5q0 61 52 100t132 39q41 0 82.5 -12t80.5 -36v-71l-3 -1
q-40 29 -83.5 44.5t-83.5 15.5q-50 0 -81.5 -20.5t-31.5 -52.5t27.5 -50.5t113.5 -41.5zM407 597h-34l-123 106l-122 -106h-35v1l126 161h62l126 -161v-1z" />
    <glyph glyph-name="uni015E" unicode="&#x15e;" horiz-adv-x="556" 
d="M360 -124q0 -34 -31 -55t-83 -21q-18 0 -34 2t-32 7l-21 40l2 2q22 -8 40.5 -11.5t38.5 -3.5q32 0 50 10t18 28q0 15 -14 23t-40 8q-12 0 -22.5 -1t-35.5 -6l-3 4l52 87q-49 4 -95.5 23t-85.5 51l-19 97l2 1q52 -51 112 -79.5t117 -28.5q62 0 104 33.5t42 86.5
q0 44 -34 77t-130 76q-106 49 -145.5 94.5t-39.5 108.5q0 81 58 132t148 51q51 0 95 -13t88 -42v-79h-2q-47 35 -92 52t-92 17q-59 0 -97 -31t-38 -81q0 -43 31.5 -74t131.5 -76q105 -49 145.5 -95.5t40.5 -111.5q0 -79 -56.5 -132t-144.5 -58l-31 -48h10q44 0 68 -16.5
t24 -47.5z" />
    <glyph glyph-name="uni015F" unicode="&#x15f;" horiz-adv-x="492" 
d="M333 -120q0 -34 -31 -55t-83 -21q-18 0 -34 2t-32 7l-21 40l2 2q22 -8 40.5 -11.5t38.5 -3.5q32 0 50 10t18 28q0 15 -14 23t-40 8q-12 0 -22.5 -1t-35.5 -6l-3 4l50 85q-43 4 -83 20t-78 43l-13 81l2 2q50 -43 104.5 -66t109.5 -23q52 0 86 23t34 57t-28.5 53.5
t-114.5 41.5q-99 25 -136 57.5t-37 85.5q0 61 52 100t132 39q41 0 82.5 -12t80.5 -36v-71l-3 -1q-40 29 -83.5 44.5t-83.5 15.5q-50 0 -81.5 -20.5t-31.5 -52.5t27.5 -50.5t113.5 -41.5q100 -25 137.5 -58.5t37.5 -89.5q0 -60 -51.5 -100.5t-130.5 -42.5l-29 -45h10
q44 0 68 -16.5t24 -47.5z" />
    <glyph glyph-name="Scaron" unicode="&#x160;" horiz-adv-x="556" 
d="M258 326q-106 49 -145.5 94.5t-39.5 108.5q0 81 58 132t148 51q51 0 95 -13t88 -42v-79h-2q-47 35 -92 52t-92 17q-59 0 -97 -31t-38 -81q0 -43 31.5 -74t131.5 -76q105 -49 145.5 -95.5t40.5 -111.5q0 -83 -62 -136.5t-156 -53.5q-57 0 -110 19.5t-98 55.5l-19 97l2 1
q52 -51 112 -79.5t117 -28.5q62 0 104 33.5t42 86.5q0 44 -34 77t-130 76zM446 917l-131 -140h-62l-131 140v1h41l121 -90l121 90h41v-1z" />
    <glyph glyph-name="scaron" unicode="&#x161;" horiz-adv-x="492" 
d="M267 280q100 -25 137.5 -58.5t37.5 -89.5q0 -62 -54 -102.5t-136 -40.5q-54 0 -103.5 16t-93.5 49l-13 81l2 2q50 -43 104.5 -66t109.5 -23q52 0 86 23t34 57t-28.5 53.5t-114.5 41.5q-99 25 -136 57.5t-37 85.5q0 61 52 100t132 39q41 0 82.5 -12t80.5 -36v-71l-3 -1
q-40 29 -83.5 44.5t-83.5 15.5q-50 0 -81.5 -20.5t-31.5 -52.5t27.5 -50.5t113.5 -41.5zM407 758l-126 -161h-62l-126 161v1h34l123 -106l122 106h35v-1z" />
    <glyph glyph-name="uni0162" unicode="&#x162;" horiz-adv-x="704" 
d="M441 -119q0 -34 -31 -55t-83 -21q-18 0 -34 2t-32 7l-21 40l2 2q22 -8 40.5 -11.5t38.5 -3.5q32 0 50 10t18 28q0 15 -14 23t-40 8q-12 0 -22.5 -1t-35.5 -6l-3 4l55 93h-12v636h-284v64h638v-64h-284v-636h-13l-35 -55h10q44 0 68 -16.5t24 -47.5z" />
    <glyph glyph-name="uni0163" unicode="&#x163;" horiz-adv-x="434" 
d="M341 -119q0 -34 -31 -55t-83 -21q-18 0 -34 2t-32 7l-21 40l2 2q22 -8 40.5 -11.5t38.5 -3.5q32 0 50 10t18 28q0 15 -14 23t-40 8q-12 0 -22.5 -1t-35.5 -6l-3 4l51 86q-49 12 -76.5 50t-27.5 97v296h-86v58h86v117l65 25v-142h207v-58h-207v-293q0 -45 23.5 -69.5
t65.5 -24.5q30 0 60.5 14t58.5 40l3 -1l-16 -73q-26 -19 -55.5 -29.5t-58.5 -10.5l-28 -44h10q44 0 68 -16.5t24 -47.5z" />
    <glyph glyph-name="Tcaron" unicode="&#x164;" horiz-adv-x="704" 
d="M671 700v-64h-284v-636h-70v636h-284v64h638zM514 912l-131 -140h-62l-131 140v1h41l121 -90l121 90h41v-1z" />
    <glyph glyph-name="tcaron" unicode="&#x165;" horiz-adv-x="434" 
d="M397 102l-16 -73q-26 -19 -56.5 -29.5t-61.5 -10.5q-65 0 -103.5 40.5t-38.5 110.5v296h-86v58h86v117l65 25v-142h207v-58h-207v-293q0 -45 23.5 -69.5t65.5 -24.5q30 0 60.5 14t58.5 40zM298 564h-34q14 30 20 54t6 46q0 25 -6 49t-20 52h65q7 -19 10 -36t3 -35
q0 -31 -11 -63t-33 -67z" />
    <glyph glyph-name="Tbar" unicode="&#x166;" horiz-adv-x="704" 
d="M554 372v-53h-167v-319h-69v319h-167v53h167v264h-285v64h638v-64h-284v-264h167z" />
    <glyph glyph-name="tbar" unicode="&#x167;" horiz-adv-x="434" 
d="M397 102l-16 -73q-26 -19 -56.5 -29.5t-61.5 -10.5q-65 0 -103.5 40.5t-38.5 110.5v110h-86v47h86v139h-86v58h86v117l65 25v-142h207v-58h-207v-139h166v-47h-166v-107q0 -45 23.5 -69.5t65.5 -24.5q30 0 60.5 14t58.5 40z" />
    <glyph glyph-name="Utilde" unicode="&#x168;" horiz-adv-x="784" 
d="M392 -12q-137 0 -216.5 82.5t-79.5 224.5v405h70v-407q0 -112 61 -176t167 -64q105 0 165.5 64t60.5 178v405h68v-404q0 -143 -79.5 -225.5t-216.5 -82.5zM405 862q33 -21 47 -27.5t23 -6.5q15 0 29 14t48 65l31 -21q-41 -69 -63.5 -91t-50.5 -22q-13 0 -31 8t-57 33
q-33 21 -47 27.5t-23 6.5q-15 0 -29 -14t-48 -65l-31 21q41 69 63.5 91t50.5 22q13 0 31 -8t57 -33z" />
    <glyph glyph-name="utilde" unicode="&#x169;" horiz-adv-x="603" 
d="M512 0h-66v102q-44 -59 -88.5 -86t-98.5 -27q-80 0 -128 52.5t-48 142.5v310h66v-305q0 -66 33.5 -103t92.5 -37q43 0 83 24t88 80v341h66v-494zM312 693q32 -23 45 -30t22 -7q14 0 28 15.5t49 74.5l34 -20q-42 -79 -65 -103.5t-51 -24.5q-14 0 -32.5 9.5t-57.5 38.5
q-32 23 -45 30t-22 7q-15 0 -29 -15.5t-48 -73.5l-34 20q41 78 64 102.5t52 24.5q14 0 32.5 -9.5t57.5 -38.5z" />
    <glyph glyph-name="Umacron" unicode="&#x16a;" horiz-adv-x="784" 
d="M392 -12q-137 0 -216.5 82.5t-79.5 224.5v405h70v-407q0 -112 61 -176t167 -64q105 0 165.5 64t60.5 178v405h68v-404q0 -143 -79.5 -225.5t-216.5 -82.5zM219 798v52h348v-52h-348z" />
    <glyph glyph-name="umacron" unicode="&#x16b;" horiz-adv-x="603" 
d="M512 0h-66v102q-44 -59 -88.5 -86t-98.5 -27q-80 0 -128 52.5t-48 142.5v310h66v-305q0 -66 33.5 -103t92.5 -37q43 0 83 24t88 80v341h66v-494zM134 623v52h328v-52h-328z" />
    <glyph glyph-name="Ubreve" unicode="&#x16c;" horiz-adv-x="784" 
d="M392 -12q-137 0 -216.5 82.5t-79.5 224.5v405h70v-407q0 -112 61 -176t167 -64q105 0 165.5 64t60.5 178v405h68v-404q0 -143 -79.5 -225.5t-216.5 -82.5zM393 774q-53 0 -95 28t-80 91l28 20q43 -47 76 -64.5t71 -17.5t71 17.5t76 64.5l28 -20q-38 -63 -80 -91t-95 -28z
" />
    <glyph glyph-name="ubreve" unicode="&#x16d;" horiz-adv-x="603" 
d="M512 0h-66v102q-44 -59 -88.5 -86t-98.5 -27q-80 0 -128 52.5t-48 142.5v310h66v-305q0 -66 33.5 -103t92.5 -37q43 0 83 24t88 80v341h66v-494zM298 592q-51 0 -89.5 32.5t-72.5 105.5l32 18q35 -54 64.5 -75t65.5 -21t65.5 21t64.5 75l32 -18q-34 -73 -72.5 -105.5
t-89.5 -32.5z" />
    <glyph glyph-name="Uring" unicode="&#x16e;" horiz-adv-x="784" 
d="M392 -12q-137 0 -216.5 82.5t-79.5 224.5v405h70v-407q0 -112 61 -176t167 -64q105 0 165.5 64t60.5 178v405h68v-404q0 -143 -79.5 -225.5t-216.5 -82.5zM393 773q-52 0 -88 33t-36 81t35.5 80.5t88.5 32.5t88.5 -32.5t35.5 -80.5t-36 -81t-88 -33zM393 967
q-38 0 -63.5 -23t-25.5 -57t25.5 -57.5t63.5 -23.5t63 23.5t25 57.5t-25.5 57t-62.5 23z" />
    <glyph glyph-name="uring" unicode="&#x16f;" horiz-adv-x="603" 
d="M512 0h-66v102q-44 -59 -88.5 -86t-98.5 -27q-80 0 -128 52.5t-48 142.5v310h66v-305q0 -66 33.5 -103t92.5 -37q43 0 83 24t88 80v341h66v-494zM298 594q-52 0 -88 36t-36 87q0 52 36 88t88 36t88 -36t36 -88q0 -51 -36 -87t-88 -36zM298 808q-37 0 -62.5 -26.5
t-25.5 -64.5t25.5 -64t62.5 -26t62.5 26t25.5 64t-25.5 64.5t-62.5 26.5z" />
    <glyph glyph-name="Uhungarumlaut" unicode="&#x170;" horiz-adv-x="784" 
d="M392 -12q-137 0 -216.5 82.5t-79.5 224.5v405h70v-407q0 -112 61 -176t167 -64q105 0 165.5 64t60.5 178v405h68v-404q0 -143 -79.5 -225.5t-216.5 -82.5zM491 773h-36l90 141h91v-1zM303 773h-36l89 141h92v-1z" />
    <glyph glyph-name="uhungarumlaut" unicode="&#x171;" horiz-adv-x="603" 
d="M512 0h-66v102q-44 -59 -88.5 -86t-98.5 -27q-80 0 -128 52.5t-48 142.5v310h66v-305q0 -66 33.5 -103t92.5 -37q43 0 83 24t88 80v341h66v-494zM399 596h-34l91 162h84v-1zM211 596h-34l91 162h84v-1z" />
    <glyph glyph-name="Uogonek" unicode="&#x172;" horiz-adv-x="784" 
d="M398 -198q-43 0 -67.5 18t-24.5 51q0 17 9.5 36t32.5 49l25 32q-129 6 -203 88t-74 219v405h70v-407q0 -112 61 -176t167 -64q105 0 165.5 64t60.5 178v405h68v-404q0 -136 -72.5 -217.5t-198.5 -89.5l-28 -49q-13 -22 -17.5 -34t-4.5 -24q0 -20 17 -29.5t54 -9.5h39
l-10 -32q-15 -4 -33.5 -6.5t-35.5 -2.5z" />
    <glyph glyph-name="uogonek" unicode="&#x173;" horiz-adv-x="603" 
d="M545 -152l-10 -32q-15 -4 -33.5 -6.5t-35.5 -2.5q-43 0 -67.5 18t-24.5 51q0 17 9.5 36t32.5 49l30 39v102q-44 -59 -88.5 -86t-98.5 -27q-80 0 -128 52.5t-48 142.5v310h66v-305q0 -66 33.5 -103t92.5 -37q43 0 83 24t88 80v341h66v-494h-24l-31 -55q-13 -22 -17.5 -34
t-4.5 -24q0 -20 17 -29.5t54 -9.5h39z" />
    <glyph glyph-name="Wcircumflex" unicode="&#x174;" horiz-adv-x="1181" 
d="M356 -6h-68l-246 706h76l208 -613l260 618h14l255 -618l212 613h74l-253 -706h-68l-230 564zM754 773h-41l-121 90l-121 -90h-41v1l131 140h62l131 -140v-1z" />
    <glyph glyph-name="wcircumflex" unicode="&#x175;" horiz-adv-x="869" 
d="M273 -7h-55l-187 501h70l148 -413l180 417h14l174 -418l154 414h68l-196 -501h-55l-154 371zM593 596h-34l-123 106l-122 -106h-35v1l126 161h62l126 -161v-1z" />
    <glyph glyph-name="Ycircumflex" unicode="&#x176;" horiz-adv-x="660" 
d="M366 319v-319h-70v317l-277 383h84l229 -320l228 320h81zM492 773h-41l-121 90l-121 -90h-41v1l131 140h62l131 -140v-1z" />
    <glyph glyph-name="ycircumflex" unicode="&#x177;" horiz-adv-x="533" 
d="M114 -191q-20 0 -39.5 5t-40.5 16l-13 67l2 2q23 -15 42.5 -21.5t39.5 -6.5q38 1 65 25t48 76l23 52l-215 470h73l176 -397l162 397h73l-231 -543q-30 -73 -70 -107t-95 -35zM422 596h-34l-123 106l-122 -106h-35v1l126 161h62l126 -161v-1z" />
    <glyph glyph-name="Ydieresis" unicode="&#x178;" horiz-adv-x="660" 
d="M366 319v-319h-70v317l-277 383h84l229 -320l228 320h81zM438 873q21 0 35 -14.5t14 -35.5t-14 -35t-35 -14t-35 14t-14 35t14 35.5t35 14.5zM222 873q21 0 35 -14.5t14 -35.5t-14 -35t-35 -14t-35 14t-14 35t14 35.5t35 14.5z" />
    <glyph glyph-name="Zacute" unicode="&#x179;" horiz-adv-x="699" 
d="M655 64l-35 -64h-570l-6 11l481 625h-447v64h563l6 -11l-481 -625h489zM368 773h-37l90 141h97v-1z" />
    <glyph glyph-name="zacute" unicode="&#x17a;" horiz-adv-x="527" 
d="M489 57l-20 -57h-437l-3 10l343 426h-310v58h420l4 -10l-344 -427h347zM282 596h-33l91 162h89v-1z" />
    <glyph glyph-name="Zdotaccent" unicode="&#x17b;" horiz-adv-x="699" 
d="M655 64l-35 -64h-570l-6 11l481 625h-447v64h563l6 -11l-481 -625h489zM354 873q21 0 35.5 -14.5t14.5 -35.5q0 -20 -14.5 -34.5t-35.5 -14.5t-35.5 14.5t-14.5 34.5q0 21 14.5 35.5t35.5 14.5z" />
    <glyph glyph-name="zdotaccent" unicode="&#x17c;" horiz-adv-x="527" 
d="M489 57l-20 -57h-437l-3 10l343 426h-310v58h420l4 -10l-344 -427h347zM269 599q-20 0 -34.5 14.5t-14.5 34.5t14.5 34.5t34.5 14.5t34.5 -14.5t14.5 -34.5t-14.5 -34.5t-34.5 -14.5z" />
    <glyph glyph-name="Zcaron" unicode="&#x17d;" horiz-adv-x="699" 
d="M655 64l-35 -64h-570l-6 11l481 625h-447v64h563l6 -11l-481 -625h489zM516 912l-131 -140h-62l-131 140v1h41l121 -90l121 90h41v-1z" />
    <glyph glyph-name="zcaron" unicode="&#x17e;" horiz-adv-x="527" 
d="M489 57l-20 -57h-437l-3 10l343 426h-310v58h420l4 -10l-344 -427h347zM426 757l-126 -161h-62l-126 161v1h34l123 -106l122 106h35v-1z" />
    <glyph glyph-name="uni018F" unicode="&#x18f;" horiz-adv-x="774" 
d="M715 348q0 -156 -97 -259t-243 -103q-143 0 -231.5 100t-88.5 262v34h586q-11 119 -86 192t-188 73q-66 0 -130.5 -24.5t-133.5 -75.5l-3 1l11 80q65 44 128 64t131 20q154 0 249.5 -100.5t95.5 -263.5zM377 51q105 0 180.5 76t84.5 192h-515q7 -121 75 -194.5t175 -73.5
z" />
    <glyph glyph-name="Ohorn" unicode="&#x1a0;" horiz-adv-x="844" 
d="M786 349q0 -152 -106 -257.5t-259 -105.5q-152 0 -257 105t-105 255q0 153 106 257.5t262 104.5q14 0 29.5 -0.5t45.5 -2.5t46 -2.5t30 -0.5q79 0 114 20t35 65q0 14 -2 27t-7 27h63q4 -10 6 -22t2 -28q0 -65 -48 -99t-143 -36q87 -45 137.5 -126.5t50.5 -180.5zM420 644
q-120 0 -204.5 -86t-84.5 -209q0 -124 85 -211t206 -87q120 0 206 87t86 209q0 124 -86 210.5t-208 86.5z" />
    <glyph glyph-name="ohorn" unicode="&#x1a1;" horiz-adv-x="614" 
d="M567 246q0 -108 -74.5 -184t-186.5 -76q-110 0 -184 75t-74 182q0 110 76 184t192 74h21q12 0 37 -1q24 -1 34 -1h18q55 0 83.5 17t28.5 49q0 12 -2 22t-8 26h59q6 -12 8.5 -24.5t2.5 -26.5q0 -46 -38 -73t-106 -31q52 -34 82.5 -91.5t30.5 -120.5zM500 245
q0 85 -54.5 141.5t-137.5 56.5t-137.5 -57t-54.5 -141q0 -85 54.5 -142.5t136.5 -57.5q83 0 138 57.5t55 142.5z" />
    <glyph glyph-name="Uhorn" unicode="&#x1af;" horiz-adv-x="810" 
d="M392 -12q-137 0 -216.5 82.5t-79.5 224.5v405h70v-407q0 -112 61 -176t167 -64q105 0 165.5 64t60.5 178v405h21q61 0 91 21.5t30 65.5q0 16 -2 29t-7 25h64q4 -12 6 -24.5t2 -25.5q0 -56 -35 -91t-102 -45v-359q0 -143 -79.5 -225.5t-216.5 -82.5z" />
    <glyph glyph-name="uhorn" unicode="&#x1b0;" horiz-adv-x="625" 
d="M512 0h-66v102q-44 -59 -88.5 -86t-98.5 -27q-80 0 -128 52.5t-48 142.5v310h66v-305q0 -66 33.5 -103t92.5 -37q43 0 83 24t88 80v341h23q54 0 80 16.5t26 49.5q0 11 -1.5 21.5t-5.5 22.5h59q4 -10 5.5 -20t1.5 -23q0 -47 -31.5 -75t-90.5 -35v-451z" />
    <glyph glyph-name="uni01CD" unicode="&#x1cd;" horiz-adv-x="781" 
d="M222 254h334l-165 372zM745 0h-76l-85 191h-390l-87 -191h-73l326 705h67zM554 912l-131 -140h-62l-131 140v1h41l121 -90l121 90h41v-1z" />
    <glyph glyph-name="uni01CE" unicode="&#x1ce;" horiz-adv-x="562" 
d="M120 124q0 -34 25.5 -55t66.5 -21q39 0 87.5 20.5t112.5 63.5v114q-148 -7 -220 -36.5t-72 -85.5zM478 11l-66 -18v94q-61 -50 -112 -73t-100 -23q-64 0 -105 36t-41 94q0 85 88 126t270 45v12q0 67 -32.5 103t-93.5 36q-44 0 -89 -18t-92 -54l-2 1l14 76
q43 29 86.5 42.5t91.5 13.5q87 0 135 -51t48 -145v-297zM444 757l-126 -161h-62l-126 161v1h34l123 -106l122 106h35v-1z" />
    <glyph glyph-name="uni01CF" unicode="&#x1cf;" horiz-adv-x="291" 
d="M180 0h-70v700h70v-700zM307 912l-131 -140h-62l-131 140v1h41l121 -90l121 90h41v-1z" />
    <glyph glyph-name="uni01D0" unicode="&#x1d0;" horiz-adv-x="257" 
d="M162 0h-67v494h67v-494zM286 757l-126 -161h-62l-126 161v1h34l123 -106l122 106h35v-1z" />
    <glyph glyph-name="uni01D1" unicode="&#x1d1;" horiz-adv-x="845" 
d="M421 -14q-152 0 -257 105.5t-105 257.5q0 153 105.5 259t258.5 106q152 0 257.5 -105.5t105.5 -257.5q0 -153 -106 -259t-259 -106zM420 649q-120 0 -204.5 -87t-84.5 -211q0 -126 85 -213t206 -87q120 0 206 87t86 211q0 125 -86 212.5t-208 87.5zM584 917l-131 -140
h-62l-131 140v1h41l121 -90l121 90h41v-1z" />
    <glyph glyph-name="uni01D2" unicode="&#x1d2;" horiz-adv-x="616" 
d="M306 -14q-111 0 -184.5 76t-73.5 184q0 109 74.5 185.5t186.5 76.5t185 -75.5t73 -184.5t-74.5 -185.5t-186.5 -76.5zM500 247q0 86 -54.5 143.5t-137.5 57.5t-137.5 -57.5t-54.5 -143.5t54.5 -144t136.5 -58q83 0 138 58.5t55 143.5zM465 760l-126 -161h-62l-126 161v1
h34l123 -106l122 106h35v-1z" />
    <glyph glyph-name="uni01D3" unicode="&#x1d3;" horiz-adv-x="784" 
d="M392 -12q-137 0 -216.5 82.5t-79.5 224.5v405h70v-407q0 -112 61 -176t167 -64q105 0 165.5 64t60.5 178v405h68v-404q0 -143 -79.5 -225.5t-216.5 -82.5zM555 912l-131 -140h-62l-131 140v1h41l121 -90l121 90h41v-1z" />
    <glyph glyph-name="uni01D4" unicode="&#x1d4;" horiz-adv-x="603" 
d="M512 0h-66v102q-44 -59 -88.5 -86t-98.5 -27q-80 0 -128 52.5t-48 142.5v310h66v-305q0 -66 33.5 -103t92.5 -37q43 0 83 24t88 80v341h66v-494zM455 757l-126 -161h-62l-126 161v1h34l123 -106l122 106h35v-1z" />
    <glyph glyph-name="uni01D5" unicode="&#x1d5;" horiz-adv-x="784" 
d="M392 -12q-137 0 -216.5 82.5t-79.5 224.5v405h70v-407q0 -112 61 -176t167 -64q105 0 165.5 64t60.5 178v405h68v-404q0 -143 -79.5 -225.5t-216.5 -82.5zM238 936v49h310v-49h-310zM501 873q21 0 35 -14.5t14 -35.5t-14 -35t-35 -14t-35 14t-14 35t14 35.5t35 14.5z
M285 873q21 0 35 -14.5t14 -35.5t-14 -35t-35 -14t-35 14t-14 35t14 35.5t35 14.5z" />
    <glyph glyph-name="uni01D6" unicode="&#x1d6;" horiz-adv-x="603" 
d="M512 0h-66v102q-44 -59 -88.5 -86t-98.5 -27q-80 0 -128 52.5t-48 142.5v310h66v-305q0 -66 33.5 -103t92.5 -37q43 0 83 24t88 80v341h66v-494zM453 762h-310v50h310v-50zM401 599q-20 0 -34.5 14.5t-14.5 34.5t14.5 34.5t34.5 14.5t34.5 -14.5t14.5 -34.5t-14.5 -34.5
t-34.5 -14.5zM195 599q-20 0 -34.5 14.5t-14.5 34.5t14.5 34.5t34.5 14.5t34.5 -14.5t14.5 -34.5t-14.5 -34.5t-34.5 -14.5z" />
    <glyph glyph-name="uni01D7" unicode="&#x1d7;" horiz-adv-x="784" 
d="M392 -12q-137 0 -216.5 82.5t-79.5 224.5v405h70v-407q0 -112 61 -176t167 -64q105 0 165.5 64t60.5 178v405h68v-404q0 -143 -79.5 -225.5t-216.5 -82.5zM403 911h-33l72 125h89v-1zM501 873q21 0 35 -14.5t14 -35.5t-14 -35t-35 -14t-35 14t-14 35t14 35.5t35 14.5z
M285 873q21 0 35 -14.5t14 -35.5t-14 -35t-35 -14t-35 14t-14 35t14 35.5t35 14.5z" />
    <glyph glyph-name="uni01D8" unicode="&#x1d8;" horiz-adv-x="603" 
d="M512 0h-66v102q-44 -59 -88.5 -86t-98.5 -27q-80 0 -128 52.5t-48 142.5v310h66v-305q0 -66 33.5 -103t92.5 -37q43 0 83 24t88 80v341h66v-494zM311 738h-33l74 137h89v-1zM401 599q-20 0 -34.5 14.5t-14.5 34.5t14.5 34.5t34.5 14.5t34.5 -14.5t14.5 -34.5t-14.5 -34.5
t-34.5 -14.5zM195 599q-20 0 -34.5 14.5t-14.5 34.5t14.5 34.5t34.5 14.5t34.5 -14.5t14.5 -34.5t-14.5 -34.5t-34.5 -14.5z" />
    <glyph glyph-name="uni01D9" unicode="&#x1d9;" horiz-adv-x="784" 
d="M392 -12q-137 0 -216.5 82.5t-79.5 224.5v405h70v-407q0 -112 61 -176t167 -64q105 0 165.5 64t60.5 178v405h68v-404q0 -143 -79.5 -225.5t-216.5 -82.5zM544 1035l-127 -126h-49l-127 126v1h38l112 -74l113 74h40v-1zM501 873q21 0 35 -14.5t14 -35.5t-14 -35t-35 -14
t-35 14t-14 35t14 35.5t35 14.5zM285 873q21 0 35 -14.5t14 -35.5t-14 -35t-35 -14t-35 14t-14 35t14 35.5t35 14.5z" />
    <glyph glyph-name="uni01DA" unicode="&#x1da;" horiz-adv-x="603" 
d="M512 0h-66v102q-44 -59 -88.5 -86t-98.5 -27q-80 0 -128 52.5t-48 142.5v310h66v-305q0 -66 33.5 -103t92.5 -37q43 0 83 24t88 80v341h66v-494zM456 875l-134 -134h-48l-134 134v1h37l120 -82l121 82h38v-1zM401 599q-20 0 -34.5 14.5t-14.5 34.5t14.5 34.5t34.5 14.5
t34.5 -14.5t14.5 -34.5t-14.5 -34.5t-34.5 -14.5zM195 599q-20 0 -34.5 14.5t-14.5 34.5t14.5 34.5t34.5 14.5t34.5 -14.5t14.5 -34.5t-14.5 -34.5t-34.5 -14.5z" />
    <glyph glyph-name="uni01DB" unicode="&#x1db;" horiz-adv-x="784" 
d="M392 -12q-137 0 -216.5 82.5t-79.5 224.5v405h70v-407q0 -112 61 -176t167 -64q105 0 165.5 64t60.5 178v405h68v-404q0 -143 -79.5 -225.5t-216.5 -82.5zM344 1036l72 -125h-33l-128 124v1h89zM285 774q-21 0 -35 14t-14 35t14 35.5t35 14.5t35 -14.5t14 -35.5t-14 -35
t-35 -14zM501 774q-21 0 -35 14t-14 35t14 35.5t35 14.5t35 -14.5t14 -35.5t-14 -35t-35 -14z" />
    <glyph glyph-name="uni01DC" unicode="&#x1dc;" horiz-adv-x="603" 
d="M512 0h-66v102q-44 -59 -88.5 -86t-98.5 -27q-80 0 -128 52.5t-48 142.5v310h66v-305q0 -66 33.5 -103t92.5 -37q43 0 83 24t88 80v341h66v-494zM244 875l74 -137h-33l-130 136v1h89zM401 599q-20 0 -34.5 14.5t-14.5 34.5t14.5 34.5t34.5 14.5t34.5 -14.5t14.5 -34.5
t-14.5 -34.5t-34.5 -14.5zM195 599q-20 0 -34.5 14.5t-14.5 34.5t14.5 34.5t34.5 14.5t34.5 -14.5t14.5 -34.5t-14.5 -34.5t-34.5 -14.5z" />
    <glyph glyph-name="Gcaron" unicode="&#x1e6;" horiz-adv-x="793" 
d="M695 356v-285q-69 -43 -134 -62t-141 -19q-159 0 -260 99t-101 258q0 158 108 260.5t273 102.5q67 0 127 -16t114 -48v-79q-59 38 -120 57.5t-123 19.5q-131 0 -219 -84.5t-88 -210.5q0 -131 82.5 -212.5t211.5 -81.5q58 0 106 13t95 40v183h-223v65h292zM583 917
l-131 -140h-62l-131 140v1h41l121 -90l121 90h41v-1z" />
    <glyph glyph-name="gcaron" unicode="&#x1e7;" horiz-adv-x="618" 
d="M116 251q0 -80 49 -130.5t126 -50.5q43 0 84 19t86 59v251q-39 24 -75.5 35t-74.5 11q-82 0 -138.5 -56t-56.5 -138zM277 -193q-49 0 -97 11.5t-95 34.5l-16 75l2 2q55 -32 106 -47t103 -15q81 0 131 49t50 132v51q-46 -46 -91.5 -67t-96.5 -21q-97 0 -160.5 66.5
t-63.5 168.5q0 110 75.5 182.5t185.5 72.5q40 0 78 -11t81 -36l46 39h12v-445q0 -112 -67.5 -177t-182.5 -65zM467 757l-126 -161h-62l-126 161v1h34l123 -106l122 106h35v-1z" />
    <glyph glyph-name="uni01EA" unicode="&#x1ea;" horiz-adv-x="845" 
d="M427 -198q-43 0 -67.5 18t-24.5 51q0 17 9.5 36t32.5 49l24 31q-146 8 -244 111.5t-98 250.5q0 153 105.5 259t258.5 106q152 0 257.5 -105.5t105.5 -257.5q0 -147 -98 -251t-243 -113l-27 -47q-13 -22 -17.5 -34t-4.5 -24q0 -20 17 -29.5t54 -9.5h39l-10 -32
q-15 -4 -33.5 -6.5t-35.5 -2.5zM420 649q-120 0 -204.5 -87t-84.5 -211q0 -126 85 -213t206 -87q120 0 206 87t86 211q0 125 -86 212.5t-208 87.5z" />
    <glyph glyph-name="uni01EB" unicode="&#x1eb;" horiz-adv-x="616" 
d="M313 -196q-43 0 -67.5 18t-24.5 51q0 17 9.5 36t32.5 49l22 29q-103 7 -170 81.5t-67 177.5q0 109 74.5 185.5t186.5 76.5t185 -75.5t73 -184.5q0 -102 -67 -177t-170 -84l-26 -45q-13 -22 -17.5 -34t-4.5 -24q0 -20 17 -29.5t54 -9.5h39l-10 -32q-15 -4 -33.5 -6.5
t-35.5 -2.5zM500 247q0 86 -54.5 143.5t-137.5 57.5t-137.5 -57.5t-54.5 -143.5t54.5 -144t136.5 -58q83 0 138 58.5t55 143.5z" />
    <glyph glyph-name="uni01F0" unicode="&#x1f0;" horiz-adv-x="257" 
d="M96 494h67v-539q0 -68 -35 -107t-95 -39q-16 0 -31 3t-26 8l-10 59q15 -6 29 -9t29 -3q35 0 53.5 22t18.5 64v541zM286 757l-126 -161h-62l-126 161v1h34l123 -106l122 106h35v-1z" />
    <glyph glyph-name="uni01F8" unicode="&#x1f8;" horiz-adv-x="825" 
d="M719 -4h-25l-522 603v-599h-67v700h66l481 -555v555h67v-704zM345 914l90 -141h-37l-150 140v1h97z" />
    <glyph glyph-name="uni01F9" unicode="&#x1f9;" horiz-adv-x="603" 
d="M328 445q-44 0 -83 -24t-88 -80v-341h-67v483l67 18v-108q44 59 89 85.5t98 26.5q80 0 128 -52.5t48 -142.5v-310h-66v304q0 66 -33.5 103.5t-92.5 37.5zM235 758l91 -162h-33l-147 161v1h89z" />
    <glyph glyph-name="Aringacute" unicode="&#x1fa;" horiz-adv-x="781" 
d="M482 769q0 35 -26 60.5t-63 25.5q-38 0 -63.5 -25t-25.5 -61t25.5 -61t63.5 -25t63.5 25t25.5 61zM222 254h334l-165 373zM745 0h-76l-85 191h-390l-87 -191h-73l305 661q-32 14 -51 43.5t-19 64.5q0 50 36 84.5t88 34.5q53 0 88.5 -34.5t35.5 -84.5q0 -35 -19.5 -64.5
t-51.5 -43.5zM404 931h-37l90 141h97v-1z" />
    <glyph glyph-name="aringacute" unicode="&#x1fb;" horiz-adv-x="562" 
d="M120 124q0 -34 25.5 -55t66.5 -21q39 0 87.5 20.5t112.5 63.5v114q-148 -7 -220 -36.5t-72 -85.5zM478 11l-66 -18v94q-61 -50 -112 -73t-100 -23q-64 0 -105 36t-41 94q0 85 88 126t270 45v12q0 67 -32.5 103t-93.5 36q-44 0 -89 -18t-92 -54l-2 1l14 76
q43 29 86.5 42.5t91.5 13.5q87 0 135 -51t48 -145v-297zM310 889h-33l66 105h76v-1zM287 594q-52 0 -88 36t-36 87q0 52 36 88t88 36t88 -36t36 -88q0 -51 -36 -87t-88 -36zM287 808q-37 0 -62.5 -26.5t-25.5 -64.5t25.5 -64t62.5 -26t62.5 26t25.5 64t-25.5 64.5
t-62.5 26.5z" />
    <glyph glyph-name="AEacute" unicode="&#x1fc;" horiz-adv-x="968" 
d="M252 254h252v382zM890 0h-386v191h-293l-126 -191h-75l461 700h416l23 -64h-336v-248h285v-64h-285v-260h339zM635 773h-37l90 141h97v-1z" />
    <glyph glyph-name="aeacute" unicode="&#x1fd;" horiz-adv-x="910" 
d="M637 449q-68 0 -114 -50.5t-52 -127.5h323q-4 82 -46 130t-111 48zM120 124q0 -34 26 -55t66 -21q41 0 94 24t118 71q-8 24 -12.5 50t-4.5 53q-146 -7 -216.5 -36.5t-70.5 -85.5zM843 110l-24 -74q-42 -25 -81 -36t-83 -11q-69 0 -123.5 28.5t-86.5 81.5
q-69 -56 -127.5 -82t-112.5 -26q-67 0 -109 35.5t-42 94.5q0 84 87 125.5t266 45.5v17q0 65 -31 99.5t-90 34.5q-44 0 -89 -18t-92 -54l-2 1l14 76q43 29 86.5 42.5t91.5 13.5q60 0 100.5 -24.5t59.5 -71.5q34 48 82 74t104 26q100 0 160 -71t60 -183q0 -7 -0.5 -16
t-1.5 -18h-386q8 -79 58.5 -124.5t129.5 -45.5q43 0 89 15.5t91 45.5zM480 604h-33l91 162h89v-1z" />
    <glyph glyph-name="Oslashacute" unicode="&#x1fe;" horiz-adv-x="845" 
d="M423 651q-123 0 -208.5 -88t-85.5 -215q0 -60 21 -114t60 -96l385 459q-37 26 -81 40t-91 14zM421 49q123 0 209 88t86 215q0 60 -21 114t-60 96l-385 -459q37 -26 81 -40t90 -14zM786 351q0 -153 -106 -259t-259 -106q-57 0 -111.5 17.5t-101.5 51.5l-83 -98h-71
l113 133q-52 51 -80 118t-28 141q0 153 105.5 259t258.5 106q58 0 112.5 -17.5t101.5 -51.5l82 98h72l-113 -133q52 -50 80 -117.5t28 -141.5zM436 778h-37l90 141h97v-1z" />
    <glyph glyph-name="oslashacute" unicode="&#x1ff;" horiz-adv-x="616" 
d="M311 450q-86 0 -141.5 -58.5t-55.5 -147.5q0 -39 13 -75t37 -63l249 315q-22 14 -48 21.5t-54 7.5zM305 43q85 0 141 59t56 148q0 39 -13 75t-37 63l-249 -316q23 -14 49 -21.5t53 -7.5zM567 248q0 -109 -74.5 -185.5t-186.5 -76.5q-38 0 -73.5 10t-66.5 30l-58 -73h-68
l85 106q-37 37 -57 86t-20 101q0 109 74.5 185.5t186.5 76.5q39 0 74.5 -10t66.5 -30l58 73h68l-85 -106q36 -37 56 -86t20 -101zM321 599h-33l91 162h89v-1z" />
    <glyph glyph-name="uni0218" unicode="&#x218;" horiz-adv-x="556" 
d="M258 326q-106 49 -145.5 94.5t-39.5 108.5q0 81 58 132t148 51q51 0 95 -13t88 -42v-79h-2q-47 35 -92 52t-92 17q-59 0 -97 -31t-38 -81q0 -43 31.5 -74t131.5 -76q105 -49 145.5 -95.5t40.5 -111.5q0 -83 -62 -136.5t-156 -53.5q-57 0 -110 19.5t-98 55.5l-19 97l2 1
q52 -51 112 -79.5t117 -28.5q62 0 104 33.5t42 86.5q0 44 -34 77t-130 76zM337 -160q0 -24 -21 -47.5t-73 -55.5l-37 15v1q34 24 49 41.5t15 32.5q0 16 -12.5 28t-53.5 35v2l69 21q35 -18 49.5 -34.5t14.5 -38.5z" />
    <glyph glyph-name="uni0219" unicode="&#x219;" horiz-adv-x="492" 
d="M267 280q100 -25 137.5 -58.5t37.5 -89.5q0 -62 -54 -102.5t-136 -40.5q-54 0 -103.5 16t-93.5 49l-13 81l2 2q50 -43 104.5 -66t109.5 -23q52 0 86 23t34 57t-28.5 53.5t-114.5 41.5q-99 25 -136 57.5t-37 85.5q0 61 52 100t132 39q41 0 82.5 -12t80.5 -36v-71l-3 -1
q-40 29 -83.5 44.5t-83.5 15.5q-50 0 -81.5 -20.5t-31.5 -52.5t27.5 -50.5t113.5 -41.5zM310 -156q0 -24 -21 -47.5t-73 -55.5l-37 15v1q34 24 49 41.5t15 32.5q0 16 -12.5 28t-53.5 35v2l69 21q35 -18 49.5 -34.5t14.5 -38.5z" />
    <glyph glyph-name="uni021A" unicode="&#x21a;" horiz-adv-x="704" 
d="M671 700v-64h-284v-636h-70v636h-284v64h638zM423 -155q0 -24 -21 -47.5t-73 -55.5l-37 15v1q34 24 49 41.5t15 32.5q0 16 -12.5 28t-53.5 35v2l69 21q35 -18 49.5 -34.5t14.5 -38.5z" />
    <glyph glyph-name="uni021B" unicode="&#x21b;" horiz-adv-x="434" 
d="M397 102l-16 -73q-26 -19 -56.5 -29.5t-61.5 -10.5q-65 0 -103.5 40.5t-38.5 110.5v296h-86v58h86v117l65 25v-142h207v-58h-207v-293q0 -45 23.5 -69.5t65.5 -24.5q30 0 60.5 14t58.5 40zM318 -155q0 -24 -21 -47.5t-73 -55.5l-37 15v1q34 24 49 41.5t15 32.5
q0 16 -12.5 28t-53.5 35v2l69 21q35 -18 49.5 -34.5t14.5 -38.5z" />
    <glyph glyph-name="uni0226" unicode="&#x226;" horiz-adv-x="781" 
d="M222 254h334l-165 372zM745 0h-76l-85 191h-390l-87 -191h-73l326 705h67zM392 873q21 0 35.5 -14.5t14.5 -35.5q0 -20 -14.5 -34.5t-35.5 -14.5t-35.5 14.5t-14.5 34.5q0 21 14.5 35.5t35.5 14.5z" />
    <glyph glyph-name="uni0227" unicode="&#x227;" horiz-adv-x="562" 
d="M120 124q0 -34 25.5 -55t66.5 -21q39 0 87.5 20.5t112.5 63.5v114q-148 -7 -220 -36.5t-72 -85.5zM478 11l-66 -18v94q-61 -50 -112 -73t-100 -23q-64 0 -105 36t-41 94q0 85 88 126t270 45v12q0 67 -32.5 103t-93.5 36q-44 0 -89 -18t-92 -54l-2 1l14 76
q43 29 86.5 42.5t91.5 13.5q87 0 135 -51t48 -145v-297zM287 599q-20 0 -34.5 14.5t-14.5 34.5t14.5 34.5t34.5 14.5t34.5 -14.5t14.5 -34.5t-14.5 -34.5t-34.5 -14.5z" />
    <glyph glyph-name="uni022E" unicode="&#x22e;" horiz-adv-x="845" 
d="M421 -14q-152 0 -257 105.5t-105 257.5q0 153 105.5 259t258.5 106q152 0 257.5 -105.5t105.5 -257.5q0 -153 -106 -259t-259 -106zM420 649q-120 0 -204.5 -87t-84.5 -211q0 -126 85 -213t206 -87q120 0 206 87t86 211q0 125 -86 212.5t-208 87.5zM422 878
q21 0 35.5 -14.5t14.5 -35.5q0 -20 -14.5 -34.5t-35.5 -14.5t-35.5 14.5t-14.5 34.5q0 21 14.5 35.5t35.5 14.5z" />
    <glyph glyph-name="uni022F" unicode="&#x22f;" horiz-adv-x="616" 
d="M306 -14q-111 0 -184.5 76t-73.5 184q0 109 74.5 185.5t186.5 76.5t185 -75.5t73 -184.5t-74.5 -185.5t-186.5 -76.5zM500 247q0 86 -54.5 143.5t-137.5 57.5t-137.5 -57.5t-54.5 -143.5t54.5 -144t136.5 -58q83 0 138 58.5t55 143.5zM308 602q-20 0 -34.5 14.5
t-14.5 34.5t14.5 34.5t34.5 14.5t34.5 -14.5t14.5 -34.5t-14.5 -34.5t-34.5 -14.5z" />
    <glyph glyph-name="uni0232" unicode="&#x232;" horiz-adv-x="660" 
d="M366 319v-319h-70v317l-277 383h84l229 -320l228 320h81zM156 798v52h348v-52h-348z" />
    <glyph glyph-name="uni0233" unicode="&#x233;" horiz-adv-x="533" 
d="M114 -191q-20 0 -39.5 5t-40.5 16l-13 67l2 2q23 -15 42.5 -21.5t39.5 -6.5q38 1 65 25t48 76l23 52l-215 470h73l176 -397l162 397h73l-231 -543q-30 -73 -70 -107t-95 -35zM101 623v52h328v-52h-328z" />
    <glyph glyph-name="uni0237" unicode="&#x237;" horiz-adv-x="257" 
d="M96 494h67v-539q0 -68 -35 -107t-95 -39q-16 0 -31 3t-26 8l-10 59q15 -6 29 -9t29 -3q35 0 53.5 22t18.5 64v541z" />
    <glyph glyph-name="uni0259" unicode="&#x259;" horiz-adv-x="558" 
d="M509 246q0 -109 -67.5 -184.5t-169.5 -75.5t-162.5 71t-60.5 183q0 7 0.5 16t1.5 18h390q-9 80 -59.5 125t-130.5 45q-43 0 -90 -15.5t-93 -45.5l-1 1l24 74q43 25 82.5 36t84.5 11q114 0 182.5 -71t68.5 -188zM275 44q68 0 115.5 51.5t52.5 127.5h-327
q4 -82 46.5 -130.5t112.5 -48.5z" />
    <glyph glyph-name="uni02B9" unicode="&#x2b9;" horiz-adv-x="231" 
d="M44 422l87 278h85l-143 -289z" />
    <glyph glyph-name="uni02BA" unicode="&#x2ba;" horiz-adv-x="417" 
d="M229 422l88 278h84l-143 -289zM44 422l87 278h85l-143 -289z" />
    <glyph glyph-name="uni02BB" unicode="&#x2bb;" horiz-adv-x="201" 
d="M101 547q0 -24 10 -47.5t47 -79.5h-72q-27 39 -37 64.5t-10 51.5q0 31 18.5 64t88.5 107l23 -18q-37 -51 -52.5 -83.5t-15.5 -58.5z" />
    <glyph glyph-name="uni02BC" unicode="&#x2bc;" horiz-adv-x="201" 
d="M99 574q0 24 -10 47.5t-47 78.5h73q26 -38 36 -63.5t10 -52.5q0 -22 -9 -44.5t-29 -48.5q-7 -9 -15.5 -19.5t-52.5 -58.5l-24 18q36 48 52 82t16 61z" />
    <glyph glyph-name="uni02BE" unicode="&#x2be;" horiz-adv-x="203" 
d="M173 676q0 -55 -38.5 -89.5t-98.5 -34.5v39q42 1 68 24.5t26 60.5q0 38 -26 61t-68 24v39q61 0 99 -34.5t38 -89.5z" />
    <glyph glyph-name="uni02BF" unicode="&#x2bf;" horiz-adv-x="203" 
d="M31 676q0 55 38.5 89.5t97.5 34.5v-39q-42 -1 -68 -24.5t-26 -60.5q0 -38 26 -61t68 -24v-39q-60 0 -98 34.5t-38 89.5z" />
    <glyph glyph-name="circumflex" unicode="&#x2c6;" horiz-adv-x="500" 
d="M407 596h-34l-123 106l-122 -106h-35v1l126 161h62l126 -161v-1z" />
    <glyph glyph-name="caron" unicode="&#x2c7;" horiz-adv-x="500" 
d="M407 757l-126 -161h-62l-126 161v1h34l123 -106l122 106h35v-1z" />
    <glyph glyph-name="uni02C8" unicode="&#x2c8;" horiz-adv-x="180" 
d="M110 554h-40v244h40v-244z" />
    <glyph glyph-name="uni02CC" unicode="&#x2cc;" horiz-adv-x="180" 
d="M110 -188h-40v244h40v-244z" />
    <glyph glyph-name="uni02CD" unicode="&#x2cd;" horiz-adv-x="500" 
d="M86 -180v52h328v-52h-328z" />
    <glyph glyph-name="breve" unicode="&#x2d8;" horiz-adv-x="500" 
d="M250 592q-51 0 -89.5 32.5t-72.5 105.5l32 18q35 -54 64.5 -75t65.5 -21t65.5 21t64.5 75l32 -18q-34 -73 -72.5 -105.5t-89.5 -32.5z" />
    <glyph glyph-name="dotaccent" unicode="&#x2d9;" horiz-adv-x="500" 
d="M250 599q-20 0 -34.5 14.5t-14.5 34.5t14.5 34.5t34.5 14.5t34.5 -14.5t14.5 -34.5t-14.5 -34.5t-34.5 -14.5z" />
    <glyph glyph-name="ring" unicode="&#x2da;" horiz-adv-x="500" 
d="M250 594q-52 0 -88 36t-36 87q0 52 36 88t88 36t88 -36t36 -88q0 -51 -36 -87t-88 -36zM250 808q-37 0 -62.5 -26.5t-25.5 -64.5t25.5 -64t62.5 -26t62.5 26t25.5 64t-25.5 64.5t-62.5 26.5z" />
    <glyph glyph-name="ogonek" unicode="&#x2db;" horiz-adv-x="500" 
d="M334 -152l-10 -32q-15 -4 -33.5 -6.5t-35.5 -2.5q-43 0 -67.5 18t-24.5 51q0 17 9.5 36t32.5 49l38 49h40l-37 -65q-13 -22 -17.5 -34t-4.5 -24q0 -20 17 -29.5t54 -9.5h39z" />
    <glyph glyph-name="tilde" unicode="&#x2dc;" horiz-adv-x="500" 
d="M264 693q32 -23 45 -30t22 -7q14 0 28 15.5t49 74.5l34 -20q-42 -79 -65 -103.5t-51 -24.5q-14 0 -32.5 9.5t-57.5 38.5q-32 23 -45 30t-22 7q-15 0 -29 -15.5t-48 -73.5l-34 20q41 78 64 102.5t52 24.5q14 0 32.5 -9.5t57.5 -38.5z" />
    <glyph glyph-name="hungarumlaut" unicode="&#x2dd;" horiz-adv-x="500" 
d="M351 596h-34l91 162h84v-1zM163 596h-34l91 162h84v-1z" />
    <glyph glyph-name="uni0300" unicode="&#x300;" 
d="M-71 758l91 -162h-33l-147 161v1h89z" />
    <glyph glyph-name="uni0301" unicode="&#x301;" 
d="M13 596h-33l91 162h89v-1z" />
    <glyph glyph-name="uni0302" unicode="&#x302;" 
d="M157 596h-34l-123 106l-122 -106h-35v1l126 161h62l126 -161v-1z" />
    <glyph glyph-name="uni0303" unicode="&#x303;" 
d="M14 693q32 -23 45 -30t22 -7q14 0 28 15.5t49 74.5l34 -20q-42 -79 -65 -103.5t-51 -24.5q-14 0 -32.5 9.5t-57.5 38.5q-32 23 -45 30t-22 7q-15 0 -29 -15.5t-48 -73.5l-34 20q41 78 64 102.5t52 24.5q14 0 32.5 -9.5t57.5 -38.5z" />
    <glyph glyph-name="uni0304" unicode="&#x304;" 
d="M-164 623v52h328v-52h-328z" />
    <glyph glyph-name="uni0306" unicode="&#x306;" 
d="M0 592q-51 0 -89.5 32.5t-72.5 105.5l32 18q35 -54 64.5 -75t65.5 -21t65.5 21t64.5 75l32 -18q-34 -73 -72.5 -105.5t-89.5 -32.5z" />
    <glyph glyph-name="uni0307" unicode="&#x307;" 
d="M0 599q-20 0 -34.5 14.5t-14.5 34.5t14.5 34.5t34.5 14.5t34.5 -14.5t14.5 -34.5t-14.5 -34.5t-34.5 -14.5z" />
    <glyph glyph-name="uni0308" unicode="&#x308;" 
d="M103 599q-20 0 -34.5 14.5t-14.5 34.5t14.5 34.5t34.5 14.5t34.5 -14.5t14.5 -34.5t-14.5 -34.5t-34.5 -14.5zM-103 599q-20 0 -34.5 14.5t-14.5 34.5t14.5 34.5t34.5 14.5t34.5 -14.5t14.5 -34.5t-14.5 -34.5t-34.5 -14.5z" />
    <glyph glyph-name="uni0309" unicode="&#x309;" 
d="M117 727q0 -31 -22 -59t-92 -77l-38 12v2q62 50 80.5 70.5t18.5 40.5q0 19 -14 30t-39 11q-27 0 -54.5 -12t-59.5 -37h-1v57q28 22 57.5 32.5t62.5 10.5q46 0 73.5 -22t27.5 -59z" />
    <glyph glyph-name="uni030A" unicode="&#x30a;" 
d="M0 594q-52 0 -88 36t-36 87q0 52 36 88t88 36t88 -36t36 -88q0 -51 -36 -87t-88 -36zM0 808q-37 0 -62.5 -26.5t-25.5 -64.5t25.5 -64t62.5 -26t62.5 26t25.5 64t-25.5 64.5t-62.5 26.5z" />
    <glyph glyph-name="uni030B" unicode="&#x30b;" 
d="M101 596h-34l91 162h84v-1zM-87 596h-34l91 162h84v-1z" />
    <glyph glyph-name="uni030C" unicode="&#x30c;" 
d="M157 757l-126 -161h-62l-126 161v1h34l123 -106l122 106h35v-1z" />
    <glyph glyph-name="uni0312" unicode="&#x312;" 
d="M-71 669q0 26 22 52t72 57l37 -15v-2q-33 -24 -48.5 -43t-15.5 -35q0 -17 13 -30t53 -36v-3l-69 -21q-35 19 -49.5 36t-14.5 40z" />
    <glyph glyph-name="uni0315" unicode="&#x315;" 
d="M34 550h-34q14 30 20 54t6 46q0 25 -6 49t-20 52h65q7 -19 10 -36t3 -35q0 -31 -11 -63t-33 -67z" />
    <glyph glyph-name="uni0323" unicode="&#x323;" 
d="M0 -186q-20 0 -34.5 14.5t-14.5 34.5t14.5 34.5t34.5 14.5t34.5 -14.5t14.5 -34.5t-14.5 -34.5t-34.5 -14.5z" />
    <glyph glyph-name="uni0324" unicode="&#x324;" 
d="M103 -186q-20 0 -34.5 14.5t-14.5 34.5t14.5 34.5t34.5 14.5t34.5 -14.5t14.5 -34.5t-14.5 -34.5t-34.5 -14.5zM-103 -186q-20 0 -34.5 14.5t-14.5 34.5t14.5 34.5t34.5 14.5t34.5 -14.5t14.5 -34.5t-14.5 -34.5t-34.5 -14.5z" />
    <glyph glyph-name="uni0326" unicode="&#x326;" 
d="M71 -155q0 -24 -21 -47.5t-73 -55.5l-37 15v1q34 24 49 41.5t15 32.5q0 16 -12.5 28t-53.5 35v2l69 21q35 -18 49.5 -34.5t14.5 -38.5z" />
    <glyph glyph-name="uni0327" unicode="&#x327;" 
d="M94 -119q0 -34 -31 -55t-83 -21q-18 0 -34 2t-32 7l-21 40l2 2q22 -8 40.5 -11.5t38.5 -3.5q32 0 50 10t18 28q0 15 -14 23t-40 8q-12 0 -22.5 -1t-35.5 -6l-3 4l58 98h45l-38 -60h10q44 0 68 -16.5t24 -47.5z" />
    <glyph glyph-name="uni0328" unicode="&#x328;" 
d="M84 -152l-10 -32q-15 -4 -33.5 -6.5t-35.5 -2.5q-43 0 -67.5 18t-24.5 51q0 17 9.5 36t32.5 49l38 49h40l-37 -65q-13 -22 -17.5 -34t-4.5 -24q0 -20 17 -29.5t54 -9.5h39z" />
    <glyph glyph-name="uni032D" unicode="&#x32d;" 
d="M157 -246h-34l-123 106l-122 -106h-35v1l126 161h62l126 -161v-1z" />
    <glyph glyph-name="uni032E" unicode="&#x32e;" 
d="M0 -244q-51 0 -89.5 32.5t-72.5 105.5l32 18q35 -54 64.5 -75t65.5 -21t65.5 21t64.5 75l32 -18q-34 -73 -72.5 -105.5t-89.5 -32.5z" />
    <glyph glyph-name="uni0331" unicode="&#x331;" 
d="M-164 -164v52h328v-52h-328z" />
    <glyph glyph-name="uni0E3F" unicode="&#xe3f;" horiz-adv-x="651" 
d="M302 641h-131v-255h131v255zM495 517q0 57 -39.5 90.5t-107.5 33.5h-2v-255q67 1 108 37t41 94zM171 328v-269h131v269h-131zM525 194q0 61 -47.5 97.5t-122.5 36.5h-9v-269h11q75 0 121.5 37.5t46.5 97.5zM592 194q0 -88 -65 -141t-172 -53h-8v-163h-46v163h-196v700
h196v123h46v-123h2q98 0 155 -47.5t57 -130.5q0 -52 -30 -94t-84 -65q68 -19 106.5 -64t38.5 -105z" />
    <glyph glyph-name="uni1E06" unicode="&#x1e06;" horiz-adv-x="607" 
d="M550 194q0 -88 -66.5 -141t-174.5 -53h-204v700h200q98 0 155 -48.5t57 -131.5q0 -53 -29 -93.5t-82 -63.5q69 -19 106.5 -63t37.5 -106zM300 638h-127v-251h120q68 0 111 36t43 93q0 56 -39.5 89t-107.5 33zM173 327v-265h139q77 0 122.5 36.5t45.5 96.5t-46.5 96
t-122.5 36h-138zM152 -164v52h328v-52h-328z" />
    <glyph glyph-name="uni1E07" unicode="&#x1e07;" horiz-adv-x="616" 
d="M566 258q0 -116 -75 -191t-187 -75q-38 0 -76.5 11t-80.5 35l-44 -38h-13v730l67 25v-340q46 47 90 68t95 21q94 0 159 -70t65 -176zM303 50q83 0 139.5 58.5t56.5 145.5q0 84 -50 137t-125 53q-42 0 -81.5 -18t-85.5 -58v-274q38 -22 74 -33t72 -11zM144 -164v52h328
v-52h-328z" />
    <glyph glyph-name="uni1E0C" unicode="&#x1e0c;" horiz-adv-x="782" 
d="M650 350q0 131 -88.5 208.5t-234.5 77.5h-152v-572h156q140 0 229.5 79t89.5 207zM329 0h-224v700h224q179 0 286 -94.5t107 -253.5q0 -158 -109.5 -255t-283.5 -97zM379 -186q-20 0 -34.5 14.5t-14.5 34.5t14.5 34.5t34.5 14.5t34.5 -14.5t14.5 -34.5t-14.5 -34.5
t-34.5 -14.5z" />
    <glyph glyph-name="uni1E0D" unicode="&#x1e0d;" horiz-adv-x="618" 
d="M117 242q0 -84 51 -138t126 -54q43 0 83 18.5t85 58.5v257q-41 30 -79 44.5t-77 14.5q-81 0 -135 -57.5t-54 -143.5zM528 0h-66v79q-47 -47 -90 -68t-94 -21q-96 0 -162.5 71t-66.5 178q0 113 72 188t176 75q44 0 85 -15.5t80 -47.5v291l66 25v-755zM306 -186
q-20 0 -34.5 14.5t-14.5 34.5t14.5 34.5t34.5 14.5t34.5 -14.5t14.5 -34.5t-14.5 -34.5t-34.5 -14.5z" />
    <glyph glyph-name="uni1E0E" unicode="&#x1e0e;" horiz-adv-x="782" 
d="M650 350q0 131 -88.5 208.5t-234.5 77.5h-152v-572h156q140 0 229.5 79t89.5 207zM329 0h-224v700h224q179 0 286 -94.5t107 -253.5q0 -158 -109.5 -255t-283.5 -97zM215 -164v52h328v-52h-328z" />
    <glyph glyph-name="uni1E0F" unicode="&#x1e0f;" horiz-adv-x="618" 
d="M117 242q0 -84 51 -138t126 -54q43 0 83 18.5t85 58.5v257q-41 30 -79 44.5t-77 14.5q-81 0 -135 -57.5t-54 -143.5zM528 0h-66v79q-47 -47 -90 -68t-94 -21q-96 0 -162.5 71t-66.5 178q0 113 72 188t176 75q44 0 85 -15.5t80 -47.5v291l66 25v-755zM142 -164v52h328v-52
h-328z" />
    <glyph glyph-name="uni1E12" unicode="&#x1e12;" horiz-adv-x="782" 
d="M650 350q0 131 -88.5 208.5t-234.5 77.5h-152v-572h156q140 0 229.5 79t89.5 207zM329 0h-224v700h224q179 0 286 -94.5t107 -253.5q0 -158 -109.5 -255t-283.5 -97zM536 -246h-34l-123 106l-122 -106h-35v1l126 161h62l126 -161v-1z" />
    <glyph glyph-name="uni1E13" unicode="&#x1e13;" horiz-adv-x="618" 
d="M117 242q0 -84 51 -138t126 -54q43 0 83 18.5t85 58.5v257q-41 30 -79 44.5t-77 14.5q-81 0 -135 -57.5t-54 -143.5zM528 0h-66v79q-47 -47 -90 -68t-94 -21q-96 0 -162.5 71t-66.5 178q0 113 72 188t176 75q44 0 85 -15.5t80 -47.5v291l66 25v-755zM463 -246h-34
l-123 106l-122 -106h-35v1l126 161h62l126 -161v-1z" />
    <glyph glyph-name="uni1E20" unicode="&#x1e20;" horiz-adv-x="793" 
d="M695 356v-285q-69 -43 -134 -62t-141 -19q-159 0 -260 99t-101 258q0 158 108 260.5t273 102.5q67 0 127 -16t114 -48v-79q-59 38 -120 57.5t-123 19.5q-131 0 -219 -84.5t-88 -210.5q0 -131 82.5 -212.5t211.5 -81.5q58 0 106 13t95 40v183h-223v65h292zM247 803v52h348
v-52h-348z" />
    <glyph glyph-name="uni1E21" unicode="&#x1e21;" horiz-adv-x="618" 
d="M116 251q0 -80 49 -130.5t126 -50.5q43 0 84 19t86 59v251q-39 24 -75.5 35t-74.5 11q-82 0 -138.5 -56t-56.5 -138zM277 -193q-49 0 -97 11.5t-95 34.5l-16 75l2 2q55 -32 106 -47t103 -15q81 0 131 49t50 132v51q-46 -46 -91.5 -67t-96.5 -21q-97 0 -160.5 66.5
t-63.5 168.5q0 110 75.5 182.5t185.5 72.5q40 0 78 -11t81 -36l46 39h12v-445q0 -112 -67.5 -177t-182.5 -65zM146 623v52h328v-52h-328z" />
    <glyph glyph-name="uni1E24" unicode="&#x1e24;" horiz-adv-x="814" 
d="M709 0h-70v326h-464v-326h-70v700h70v-309h464v309h70v-700zM407 -183q-20 0 -34.5 14.5t-14.5 34.5t14.5 34.5t34.5 14.5t34.5 -14.5t14.5 -34.5t-14.5 -34.5t-34.5 -14.5z" />
    <glyph glyph-name="uni1E25" unicode="&#x1e25;" horiz-adv-x="603" 
d="M328 445q-44 0 -83 -24t-88 -80v-341h-67v730l67 25v-362q44 59 89 85.5t98 26.5q80 0 128 -52.5t48 -142.5v-310h-66v304q0 66 -33.5 103.5t-92.5 37.5zM305 -179q-20 0 -34.5 14.5t-14.5 34.5t14.5 34.5t34.5 14.5t34.5 -14.5t14.5 -34.5t-14.5 -34.5t-34.5 -14.5z" />
    <glyph glyph-name="uni1E28" unicode="&#x1e28;" horiz-adv-x="814" 
d="M230 -119q0 -34 -31 -55t-83 -21q-18 0 -34 2t-32 7l-21 40l2 2q22 -8 40.5 -11.5t38.5 -3.5q32 0 50 10t18 28q0 15 -14 23t-40 8q-12 0 -22.5 -1t-35.5 -6l-3 4l55 93h-13v700h70v-309h464v309h70v-700h-70v326h-464v-326h-12l-35 -55h10q44 0 68 -16.5t24 -47.5z" />
    <glyph glyph-name="uni1E29" unicode="&#x1e29;" horiz-adv-x="603" 
d="M214 -119q0 -34 -31 -55t-83 -21q-18 0 -34 2t-32 7l-21 40l2 2q22 -8 40.5 -11.5t38.5 -3.5q32 0 50 10t18 28q0 15 -14 23t-40 8q-12 0 -22.5 -1t-35.5 -6l-3 4l55 93h-12v730l67 25v-362q44 59 89 85.5t98 26.5q80 0 128 -52.5t48 -142.5v-310h-66v304
q0 66 -33.5 103.5t-92.5 37.5q-44 0 -83 -24t-88 -80v-341h-10l-35 -55h10q44 0 68 -16.5t24 -47.5z" />
    <glyph glyph-name="uni1E2A" unicode="&#x1e2a;" horiz-adv-x="814" 
d="M709 0h-70v326h-464v-326h-70v700h70v-309h464v309h70v-700zM407 -244q-51 0 -89.5 32.5t-72.5 105.5l32 18q35 -54 64.5 -75t65.5 -21t65.5 21t64.5 75l32 -18q-34 -73 -72.5 -105.5t-89.5 -32.5z" />
    <glyph glyph-name="uni1E2B" unicode="&#x1e2b;" horiz-adv-x="603" 
d="M328 445q-44 0 -83 -24t-88 -80v-341h-67v730l67 25v-362q44 59 89 85.5t98 26.5q80 0 128 -52.5t48 -142.5v-310h-66v304q0 66 -33.5 103.5t-92.5 37.5zM305 -244q-51 0 -89.5 32.5t-72.5 105.5l32 18q35 -54 64.5 -75t65.5 -21t65.5 21t64.5 75l32 -18
q-34 -73 -72.5 -105.5t-89.5 -32.5z" />
    <glyph glyph-name="uni1E32" unicode="&#x1e32;" horiz-adv-x="680" 
d="M661 0h-95l-356 328h-35v-328h-70v700h70v-311h36l352 311h92v-3l-388 -337l394 -357v-3zM367 -186q-20 0 -34.5 14.5t-14.5 34.5t14.5 34.5t34.5 14.5t34.5 -14.5t14.5 -34.5t-14.5 -34.5t-34.5 -14.5z" />
    <glyph glyph-name="uni1E33" unicode="&#x1e33;" horiz-adv-x="527" 
d="M518 0h-88l-241 225h-32v-225h-67v730l67 25v-478h34l228 217h85v-3l-258 -239l272 -249v-3zM291 -186q-20 0 -34.5 14.5t-14.5 34.5t14.5 34.5t34.5 14.5t34.5 -14.5t14.5 -34.5t-14.5 -34.5t-34.5 -14.5z" />
    <glyph glyph-name="uni1E34" unicode="&#x1e34;" horiz-adv-x="680" 
d="M661 0h-95l-356 328h-35v-328h-70v700h70v-311h36l352 311h92v-3l-388 -337l394 -357v-3zM203 -164v52h328v-52h-328z" />
    <glyph glyph-name="uni1E35" unicode="&#x1e35;" horiz-adv-x="527" 
d="M518 0h-88l-241 225h-32v-225h-67v730l67 25v-478h34l228 217h85v-3l-258 -239l272 -249v-3zM127 -164v52h328v-52h-328z" />
    <glyph glyph-name="uni1E36" unicode="&#x1e36;" horiz-adv-x="527" 
d="M493 0h-388v700h70v-636h318v-64zM299 -186q-20 0 -34.5 14.5t-14.5 34.5t14.5 34.5t34.5 14.5t34.5 -14.5t14.5 -34.5t-14.5 -34.5t-34.5 -14.5z" />
    <glyph glyph-name="uni1E37" unicode="&#x1e37;" horiz-adv-x="257" 
d="M162 0h-67v730l67 25v-755zM129 -186q-20 0 -34.5 14.5t-14.5 34.5t14.5 34.5t34.5 14.5t34.5 -14.5t14.5 -34.5t-14.5 -34.5t-34.5 -14.5z" />
    <glyph glyph-name="uni1E38" unicode="&#x1e38;" horiz-adv-x="527" 
d="M493 0h-388v700h70v-636h318v-64zM9 798v52h268v-52h-268zM299 -186q-20 0 -34.5 14.5t-14.5 34.5t14.5 34.5t34.5 14.5t34.5 -14.5t14.5 -34.5t-14.5 -34.5t-34.5 -14.5z" />
    <glyph glyph-name="uni1E39" unicode="&#x1e39;" horiz-adv-x="257" 
d="M162 0h-67v730l67 25v-755zM-5 849v52h268v-52h-268zM129 -186q-20 0 -34.5 14.5t-14.5 34.5t14.5 34.5t34.5 14.5t34.5 -14.5t14.5 -34.5t-14.5 -34.5t-34.5 -14.5z" />
    <glyph glyph-name="uni1E3A" unicode="&#x1e3a;" horiz-adv-x="527" 
d="M493 0h-388v700h70v-636h318v-64zM135 -164v52h328v-52h-328z" />
    <glyph glyph-name="uni1E3B" unicode="&#x1e3b;" horiz-adv-x="257" 
d="M162 0h-67v730l67 25v-755zM-5 -164v52h268v-52h-268z" />
    <glyph glyph-name="uni1E3C" unicode="&#x1e3c;" horiz-adv-x="527" 
d="M493 0h-388v700h70v-636h318v-64zM456 -246h-34l-123 106l-122 -106h-35v1l126 161h62l126 -161v-1z" />
    <glyph glyph-name="uni1E3D" unicode="&#x1e3d;" horiz-adv-x="257" 
d="M162 0h-67v730l67 25v-755zM286 -246h-34l-123 106l-122 -106h-35v1l126 161h62l126 -161v-1z" />
    <glyph glyph-name="uni1E3E" unicode="&#x1e3e;" horiz-adv-x="1017" 
d="M514 -11h-14l-329 636v-625h-66v700h102l301 -588l300 588h104v-700h-69v627zM523 773h-37l90 141h97v-1z" />
    <glyph glyph-name="uni1E3F" unicode="&#x1e3f;" horiz-adv-x="930" 
d="M315 445q-40 0 -77 -24t-81 -78v-343h-67v483l67 18v-104q42 56 84.5 82t91.5 26q56 0 98 -30.5t60 -85.5q45 61 90 88.5t97 27.5q76 0 122.5 -52.5t46.5 -142.5v-310h-66v304q0 66 -32 103.5t-88 37.5q-39 0 -77.5 -24t-83.5 -76q1 -12 1.5 -20t0.5 -15v-310h-66v304
q0 66 -32.5 103.5t-88.5 37.5zM482 596h-33l91 162h89v-1z" />
    <glyph glyph-name="uni1E40" unicode="&#x1e40;" horiz-adv-x="1017" 
d="M514 -11h-14l-329 636v-625h-66v700h102l301 -588l300 588h104v-700h-69v627zM509 873q21 0 35.5 -14.5t14.5 -35.5q0 -20 -14.5 -34.5t-35.5 -14.5t-35.5 14.5t-14.5 34.5q0 21 14.5 35.5t35.5 14.5z" />
    <glyph glyph-name="uni1E41" unicode="&#x1e41;" horiz-adv-x="930" 
d="M315 445q-40 0 -77 -24t-81 -78v-343h-67v483l67 18v-104q42 56 84.5 82t91.5 26q56 0 98 -30.5t60 -85.5q45 61 90 88.5t97 27.5q76 0 122.5 -52.5t46.5 -142.5v-310h-66v304q0 66 -32 103.5t-88 37.5q-39 0 -77.5 -24t-83.5 -76q1 -12 1.5 -20t0.5 -15v-310h-66v304
q0 66 -32.5 103.5t-88.5 37.5zM469 599q-20 0 -34.5 14.5t-14.5 34.5t14.5 34.5t34.5 14.5t34.5 -14.5t14.5 -34.5t-14.5 -34.5t-34.5 -14.5z" />
    <glyph glyph-name="uni1E42" unicode="&#x1e42;" horiz-adv-x="1017" 
d="M514 -11h-14l-329 636v-625h-66v700h102l301 -588l300 588h104v-700h-69v627zM508 -186q-20 0 -34.5 14.5t-14.5 34.5t14.5 34.5t34.5 14.5t34.5 -14.5t14.5 -34.5t-14.5 -34.5t-34.5 -14.5z" />
    <glyph glyph-name="uni1E43" unicode="&#x1e43;" horiz-adv-x="930" 
d="M315 445q-40 0 -77 -24t-81 -78v-343h-67v483l67 18v-104q42 56 84.5 82t91.5 26q56 0 98 -30.5t60 -85.5q45 61 90 88.5t97 27.5q76 0 122.5 -52.5t46.5 -142.5v-310h-66v304q0 66 -32 103.5t-88 37.5q-39 0 -77.5 -24t-83.5 -76q1 -12 1.5 -20t0.5 -15v-310h-66v304
q0 66 -32.5 103.5t-88.5 37.5zM469 -186q-20 0 -34.5 14.5t-14.5 34.5t14.5 34.5t34.5 14.5t34.5 -14.5t14.5 -34.5t-14.5 -34.5t-34.5 -14.5z" />
    <glyph glyph-name="uni1E44" unicode="&#x1e44;" horiz-adv-x="825" 
d="M719 -4h-25l-522 603v-599h-67v700h66l481 -555v555h67v-704zM412 873q21 0 35.5 -14.5t14.5 -35.5q0 -20 -14.5 -34.5t-35.5 -14.5t-35.5 14.5t-14.5 34.5q0 21 14.5 35.5t35.5 14.5z" />
    <glyph glyph-name="uni1E45" unicode="&#x1e45;" horiz-adv-x="603" 
d="M328 445q-44 0 -83 -24t-88 -80v-341h-67v483l67 18v-108q44 59 89 85.5t98 26.5q80 0 128 -52.5t48 -142.5v-310h-66v304q0 66 -33.5 103.5t-92.5 37.5zM306 599q-20 0 -34.5 14.5t-14.5 34.5t14.5 34.5t34.5 14.5t34.5 -14.5t14.5 -34.5t-14.5 -34.5t-34.5 -14.5z" />
    <glyph glyph-name="uni1E46" unicode="&#x1e46;" horiz-adv-x="825" 
d="M719 -4h-25l-522 603v-599h-67v700h66l481 -555v555h67v-704zM418 -183q-20 0 -34.5 14.5t-14.5 34.5t14.5 34.5t34.5 14.5t34.5 -14.5t14.5 -34.5t-14.5 -34.5t-34.5 -14.5z" />
    <glyph glyph-name="uni1E47" unicode="&#x1e47;" horiz-adv-x="603" 
d="M328 445q-44 0 -83 -24t-88 -80v-341h-67v483l67 18v-108q44 59 89 85.5t98 26.5q80 0 128 -52.5t48 -142.5v-310h-66v304q0 66 -33.5 103.5t-92.5 37.5zM306 -179q-20 0 -34.5 14.5t-14.5 34.5t14.5 34.5t34.5 14.5t34.5 -14.5t14.5 -34.5t-14.5 -34.5t-34.5 -14.5z" />
    <glyph glyph-name="uni1E48" unicode="&#x1e48;" horiz-adv-x="825" 
d="M719 -4h-25l-522 603v-599h-67v700h66l481 -555v555h67v-704zM254 -164v52h328v-52h-328z" />
    <glyph glyph-name="uni1E49" unicode="&#x1e49;" horiz-adv-x="603" 
d="M328 445q-44 0 -83 -24t-88 -80v-341h-67v483l67 18v-108q44 59 89 85.5t98 26.5q80 0 128 -52.5t48 -142.5v-310h-66v304q0 66 -33.5 103.5t-92.5 37.5zM142 -164v52h328v-52h-328z" />
    <glyph glyph-name="uni1E4A" unicode="&#x1e4a;" horiz-adv-x="825" 
d="M719 -4h-25l-522 603v-599h-67v700h66l481 -555v555h67v-704zM575 -246h-34l-123 106l-122 -106h-35v1l126 161h62l126 -161v-1z" />
    <glyph glyph-name="uni1E4B" unicode="&#x1e4b;" horiz-adv-x="603" 
d="M328 445q-44 0 -83 -24t-88 -80v-341h-67v483l67 18v-108q44 59 89 85.5t98 26.5q80 0 128 -52.5t48 -142.5v-310h-66v304q0 66 -33.5 103.5t-92.5 37.5zM463 -246h-34l-123 106l-122 -106h-35v1l126 161h62l126 -161v-1z" />
    <glyph glyph-name="uni1E58" unicode="&#x1e58;" horiz-adv-x="620" 
d="M294 637h-120v-283h116q69 0 116 41t47 103q0 63 -44 101t-115 38zM623 0h-89l-260 291h-99v-291h-70v700h192q103 0 165 -54.5t62 -147.5q0 -72 -47.5 -126t-124.5 -71zM301 873q21 0 35.5 -14.5t14.5 -35.5q0 -20 -14.5 -34.5t-35.5 -14.5t-35.5 14.5t-14.5 34.5
q0 21 14.5 35.5t35.5 14.5z" />
    <glyph glyph-name="uni1E59" unicode="&#x1e59;" horiz-adv-x="402" 
d="M157 325v-325h-67v483l67 18v-127q64 77 101 102.5t78 25.5q7 0 14 -1t18 -4l5 -70q-7 3 -14 4t-15 1q-42 0 -84 -23.5t-103 -83.5zM219 599q-20 0 -34.5 14.5t-14.5 34.5t14.5 34.5t34.5 14.5t34.5 -14.5t14.5 -34.5t-14.5 -34.5t-34.5 -14.5z" />
    <glyph glyph-name="uni1E5A" unicode="&#x1e5a;" horiz-adv-x="620" 
d="M294 637h-120v-283h116q69 0 116 41t47 103q0 63 -44 101t-115 38zM623 0h-89l-260 291h-99v-291h-70v700h192q103 0 165 -54.5t62 -147.5q0 -72 -47.5 -126t-124.5 -71zM347 -186q-20 0 -34.5 14.5t-14.5 34.5t14.5 34.5t34.5 14.5t34.5 -14.5t14.5 -34.5t-14.5 -34.5
t-34.5 -14.5z" />
    <glyph glyph-name="uni1E5B" unicode="&#x1e5b;" horiz-adv-x="402" 
d="M157 325v-325h-67v483l67 18v-127q64 77 101 102.5t78 25.5q7 0 14 -1t18 -4l5 -70q-7 3 -14 4t-15 1q-42 0 -84 -23.5t-103 -83.5zM124 -186q-20 0 -34.5 14.5t-14.5 34.5t14.5 34.5t34.5 14.5t34.5 -14.5t14.5 -34.5t-14.5 -34.5t-34.5 -14.5z" />
    <glyph glyph-name="uni1E5C" unicode="&#x1e5c;" horiz-adv-x="620" 
d="M294 637h-120v-283h116q69 0 116 41t47 103q0 63 -44 101t-115 38zM623 0h-89l-260 291h-99v-291h-70v700h192q103 0 165 -54.5t62 -147.5q0 -72 -47.5 -126t-124.5 -71zM127 798v52h348v-52h-348zM347 -186q-20 0 -34.5 14.5t-14.5 34.5t14.5 34.5t34.5 14.5t34.5 -14.5
t14.5 -34.5t-14.5 -34.5t-34.5 -14.5z" />
    <glyph glyph-name="uni1E5D" unicode="&#x1e5d;" horiz-adv-x="402" 
d="M157 325v-325h-67v483l67 18v-127q64 77 101 102.5t78 25.5q7 0 14 -1t18 -4l5 -70q-7 3 -14 4t-15 1q-42 0 -84 -23.5t-103 -83.5zM85 623v52h268v-52h-268zM124 -186q-20 0 -34.5 14.5t-14.5 34.5t14.5 34.5t34.5 14.5t34.5 -14.5t14.5 -34.5t-14.5 -34.5t-34.5 -14.5z
" />
    <glyph glyph-name="uni1E5E" unicode="&#x1e5e;" horiz-adv-x="620" 
d="M294 637h-120v-283h116q69 0 116 41t47 103q0 63 -44 101t-115 38zM623 0h-89l-260 291h-99v-291h-70v700h192q103 0 165 -54.5t62 -147.5q0 -72 -47.5 -126t-124.5 -71zM183 -164v52h328v-52h-328z" />
    <glyph glyph-name="uni1E5F" unicode="&#x1e5f;" horiz-adv-x="402" 
d="M157 325v-325h-67v483l67 18v-127q64 77 101 102.5t78 25.5q7 0 14 -1t18 -4l5 -70q-7 3 -14 4t-15 1q-42 0 -84 -23.5t-103 -83.5zM-10 -164v52h268v-52h-268z" />
    <glyph glyph-name="uni1E62" unicode="&#x1e62;" horiz-adv-x="556" 
d="M258 326q-106 49 -145.5 94.5t-39.5 108.5q0 81 58 132t148 51q51 0 95 -13t88 -42v-79h-2q-47 35 -92 52t-92 17q-59 0 -97 -31t-38 -81q0 -43 31.5 -74t131.5 -76q105 -49 145.5 -95.5t40.5 -111.5q0 -83 -62 -136.5t-156 -53.5q-57 0 -110 19.5t-98 55.5l-19 97l2 1
q52 -51 112 -79.5t117 -28.5q62 0 104 33.5t42 86.5q0 44 -34 77t-130 76zM266 -191q-20 0 -34.5 14.5t-14.5 34.5t14.5 34.5t34.5 14.5t34.5 -14.5t14.5 -34.5t-14.5 -34.5t-34.5 -14.5z" />
    <glyph glyph-name="uni1E63" unicode="&#x1e63;" horiz-adv-x="492" 
d="M267 280q100 -25 137.5 -58.5t37.5 -89.5q0 -62 -54 -102.5t-136 -40.5q-54 0 -103.5 16t-93.5 49l-13 81l2 2q50 -43 104.5 -66t109.5 -23q52 0 86 23t34 57t-28.5 53.5t-114.5 41.5q-99 25 -136 57.5t-37 85.5q0 61 52 100t132 39q41 0 82.5 -12t80.5 -36v-71l-3 -1
q-40 29 -83.5 44.5t-83.5 15.5q-50 0 -81.5 -20.5t-31.5 -52.5t27.5 -50.5t113.5 -41.5zM239 -187q-20 0 -34.5 14.5t-14.5 34.5t14.5 34.5t34.5 14.5t34.5 -14.5t14.5 -34.5t-14.5 -34.5t-34.5 -14.5z" />
    <glyph glyph-name="uni1E6C" unicode="&#x1e6c;" horiz-adv-x="704" 
d="M671 700v-64h-284v-636h-70v636h-284v64h638zM352 -186q-20 0 -34.5 14.5t-14.5 34.5t14.5 34.5t34.5 14.5t34.5 -14.5t14.5 -34.5t-14.5 -34.5t-34.5 -14.5z" />
    <glyph glyph-name="uni1E6D" unicode="&#x1e6d;" horiz-adv-x="434" 
d="M397 102l-16 -73q-26 -19 -56.5 -29.5t-61.5 -10.5q-65 0 -103.5 40.5t-38.5 110.5v296h-86v58h86v117l65 25v-142h207v-58h-207v-293q0 -45 23.5 -69.5t65.5 -24.5q30 0 60.5 14t58.5 40zM247 -186q-20 0 -34.5 14.5t-14.5 34.5t14.5 34.5t34.5 14.5t34.5 -14.5
t14.5 -34.5t-14.5 -34.5t-34.5 -14.5z" />
    <glyph glyph-name="uni1E6E" unicode="&#x1e6e;" horiz-adv-x="704" 
d="M671 700v-64h-284v-636h-70v636h-284v64h638zM188 -164v52h328v-52h-328z" />
    <glyph glyph-name="uni1E6F" unicode="&#x1e6f;" horiz-adv-x="434" 
d="M397 102l-16 -73q-26 -19 -56.5 -29.5t-61.5 -10.5q-65 0 -103.5 40.5t-38.5 110.5v296h-86v58h86v117l65 25v-142h207v-58h-207v-293q0 -45 23.5 -69.5t65.5 -24.5q30 0 60.5 14t58.5 40zM113 -164v52h268v-52h-268z" />
    <glyph glyph-name="uni1E70" unicode="&#x1e70;" horiz-adv-x="704" 
d="M671 700v-64h-284v-636h-70v636h-284v64h638zM509 -246h-34l-123 106l-122 -106h-35v1l126 161h62l126 -161v-1z" />
    <glyph glyph-name="uni1E71" unicode="&#x1e71;" horiz-adv-x="434" 
d="M397 102l-16 -73q-26 -19 -56.5 -29.5t-61.5 -10.5q-65 0 -103.5 40.5t-38.5 110.5v296h-86v58h86v117l65 25v-142h207v-58h-207v-293q0 -45 23.5 -69.5t65.5 -24.5q30 0 60.5 14t58.5 40zM404 -246h-34l-123 106l-122 -106h-35v1l126 161h62l126 -161v-1z" />
    <glyph glyph-name="uni1E7E" unicode="&#x1e7e;" horiz-adv-x="769" 
d="M390 -14h-17l-337 714h78l270 -587l275 587h75zM382 -191q-20 0 -34.5 14.5t-14.5 34.5t14.5 34.5t34.5 14.5t34.5 -14.5t14.5 -34.5t-14.5 -34.5t-34.5 -14.5z" />
    <glyph glyph-name="uni1E7F" unicode="&#x1e7f;" horiz-adv-x="567" 
d="M286 -12h-15l-245 506h73l182 -392l189 392h72zM280 -186q-20 0 -34.5 14.5t-14.5 34.5t14.5 34.5t34.5 14.5t34.5 -14.5t14.5 -34.5t-14.5 -34.5t-34.5 -14.5z" />
    <glyph glyph-name="Wgrave" unicode="&#x1e80;" horiz-adv-x="1181" 
d="M356 -6h-68l-246 706h76l208 -613l260 618h14l255 -618l212 613h74l-253 -706h-68l-230 564zM525 914l90 -141h-37l-150 140v1h97z" />
    <glyph glyph-name="wgrave" unicode="&#x1e81;" horiz-adv-x="869" 
d="M273 -7h-55l-187 501h70l148 -413l180 417h14l174 -418l154 414h68l-196 -501h-55l-154 371zM365 758l91 -162h-33l-147 161v1h89z" />
    <glyph glyph-name="Wacute" unicode="&#x1e82;" horiz-adv-x="1181" 
d="M356 -6h-68l-246 706h76l208 -613l260 618h14l255 -618l212 613h74l-253 -706h-68l-230 564zM606 773h-37l90 141h97v-1z" />
    <glyph glyph-name="wacute" unicode="&#x1e83;" horiz-adv-x="869" 
d="M273 -7h-55l-187 501h70l148 -413l180 417h14l174 -418l154 414h68l-196 -501h-55l-154 371zM449 596h-33l91 162h89v-1z" />
    <glyph glyph-name="Wdieresis" unicode="&#x1e84;" horiz-adv-x="1181" 
d="M356 -6h-68l-246 706h76l208 -613l260 618h14l255 -618l212 613h74l-253 -706h-68l-230 564zM700 873q21 0 35 -14.5t14 -35.5t-14 -35t-35 -14t-35 14t-14 35t14 35.5t35 14.5zM484 873q21 0 35 -14.5t14 -35.5t-14 -35t-35 -14t-35 14t-14 35t14 35.5t35 14.5z" />
    <glyph glyph-name="wdieresis" unicode="&#x1e85;" horiz-adv-x="869" 
d="M273 -7h-55l-187 501h70l148 -413l180 417h14l174 -418l154 414h68l-196 -501h-55l-154 371zM539 599q-20 0 -34.5 14.5t-14.5 34.5t14.5 34.5t34.5 14.5t34.5 -14.5t14.5 -34.5t-14.5 -34.5t-34.5 -14.5zM333 599q-20 0 -34.5 14.5t-14.5 34.5t14.5 34.5t34.5 14.5
t34.5 -14.5t14.5 -34.5t-14.5 -34.5t-34.5 -14.5z" />
    <glyph glyph-name="uni1E8C" unicode="&#x1e8c;" horiz-adv-x="731" 
d="M691 0h-85l-243 308l-241 -308h-82l281 355l-273 345h84l235 -296l234 296h82l-275 -345zM473 873q21 0 35 -14.5t14 -35.5t-14 -35t-35 -14t-35 14t-14 35t14 35.5t35 14.5zM257 873q21 0 35 -14.5t14 -35.5t-14 -35t-35 -14t-35 14t-14 35t14 35.5t35 14.5z" />
    <glyph glyph-name="uni1E8D" unicode="&#x1e8d;" horiz-adv-x="550" 
d="M517 0h-78l-164 209l-165 -209h-77l203 253l-192 241h78l154 -196l154 196h76l-191 -239zM378 599q-20 0 -34.5 14.5t-14.5 34.5t14.5 34.5t34.5 14.5t34.5 -14.5t14.5 -34.5t-14.5 -34.5t-34.5 -14.5zM172 599q-20 0 -34.5 14.5t-14.5 34.5t14.5 34.5t34.5 14.5
t34.5 -14.5t14.5 -34.5t-14.5 -34.5t-34.5 -14.5z" />
    <glyph glyph-name="uni1E8E" unicode="&#x1e8e;" horiz-adv-x="660" 
d="M366 319v-319h-70v317l-277 383h84l229 -320l228 320h81zM330 873q21 0 35.5 -14.5t14.5 -35.5q0 -20 -14.5 -34.5t-35.5 -14.5t-35.5 14.5t-14.5 34.5q0 21 14.5 35.5t35.5 14.5z" />
    <glyph glyph-name="uni1E8F" unicode="&#x1e8f;" horiz-adv-x="533" 
d="M114 -191q-20 0 -39.5 5t-40.5 16l-13 67l2 2q23 -15 42.5 -21.5t39.5 -6.5q38 1 65 25t48 76l23 52l-215 470h73l176 -397l162 397h73l-231 -543q-30 -73 -70 -107t-95 -35zM265 599q-20 0 -34.5 14.5t-14.5 34.5t14.5 34.5t34.5 14.5t34.5 -14.5t14.5 -34.5
t-14.5 -34.5t-34.5 -14.5z" />
    <glyph glyph-name="uni1E90" unicode="&#x1e90;" horiz-adv-x="699" 
d="M655 64l-35 -64h-570l-6 11l481 625h-447v64h563l6 -11l-481 -625h489zM516 773h-41l-121 90l-121 -90h-41v1l131 140h62l131 -140v-1z" />
    <glyph glyph-name="uni1E91" unicode="&#x1e91;" horiz-adv-x="527" 
d="M489 57l-20 -57h-437l-3 10l343 426h-310v58h420l4 -10l-344 -427h347zM426 596h-34l-123 106l-122 -106h-35v1l126 161h62l126 -161v-1z" />
    <glyph glyph-name="uni1E92" unicode="&#x1e92;" horiz-adv-x="699" 
d="M655 64l-35 -64h-570l-6 11l481 625h-447v64h563l6 -11l-481 -625h489zM350 -186q-20 0 -34.5 14.5t-14.5 34.5t14.5 34.5t34.5 14.5t34.5 -14.5t14.5 -34.5t-14.5 -34.5t-34.5 -14.5z" />
    <glyph glyph-name="uni1E93" unicode="&#x1e93;" horiz-adv-x="527" 
d="M489 57l-20 -57h-437l-3 10l343 426h-310v58h420l4 -10l-344 -427h347zM260 -186q-20 0 -34.5 14.5t-14.5 34.5t14.5 34.5t34.5 14.5t34.5 -14.5t14.5 -34.5t-14.5 -34.5t-34.5 -14.5z" />
    <glyph glyph-name="uni1E94" unicode="&#x1e94;" horiz-adv-x="699" 
d="M655 64l-35 -64h-570l-6 11l481 625h-447v64h563l6 -11l-481 -625h489zM186 -164v52h328v-52h-328z" />
    <glyph glyph-name="uni1E95" unicode="&#x1e95;" horiz-adv-x="527" 
d="M489 57l-20 -57h-437l-3 10l343 426h-310v58h420l4 -10l-344 -427h347zM96 -164v52h328v-52h-328z" />
    <glyph glyph-name="uni1E96" unicode="&#x1e96;" horiz-adv-x="603" 
d="M328 445q-44 0 -83 -24t-88 -80v-341h-67v730l67 25v-362q44 59 89 85.5t98 26.5q80 0 128 -52.5t48 -142.5v-310h-66v304q0 66 -33.5 103.5t-92.5 37.5zM141 -164v52h328v-52h-328z" />
    <glyph glyph-name="uni1E9E" unicode="&#x1e9e;" horiz-adv-x="692" 
d="M638 169q0 -78 -55 -129.5t-140 -51.5q-37 0 -66.5 6.5t-65.5 23.5l-19 82l2 1q46 -27 78.5 -37.5t71.5 -10.5q52 0 88 33.5t36 82.5q0 57 -48.5 93.5t-188.5 80.5l-3 12l185 247q-30 21 -70.5 33.5t-83.5 12.5q-88 0 -140.5 -58t-52.5 -156v-434h-70v432
q0 130 71.5 205.5t195.5 75.5q68 0 131.5 -25t104.5 -66v-11l-175 -233q124 -44 169 -89.5t45 -119.5z" />
    <glyph glyph-name="uni1EA0" unicode="&#x1ea0;" horiz-adv-x="781" 
d="M222 254h334l-165 372zM745 0h-76l-85 191h-390l-87 -191h-73l326 705h67zM390 -186q-20 0 -34.5 14.5t-14.5 34.5t14.5 34.5t34.5 14.5t34.5 -14.5t14.5 -34.5t-14.5 -34.5t-34.5 -14.5z" />
    <glyph glyph-name="uni1EA1" unicode="&#x1ea1;" horiz-adv-x="562" 
d="M120 124q0 -34 25.5 -55t66.5 -21q39 0 87.5 20.5t112.5 63.5v114q-148 -7 -220 -36.5t-72 -85.5zM478 11l-66 -18v94q-61 -50 -112 -73t-100 -23q-64 0 -105 36t-41 94q0 85 88 126t270 45v12q0 67 -32.5 103t-93.5 36q-44 0 -89 -18t-92 -54l-2 1l14 76
q43 29 86.5 42.5t91.5 13.5q87 0 135 -51t48 -145v-297zM280 -186q-20 0 -34.5 14.5t-14.5 34.5t14.5 34.5t34.5 14.5t34.5 -14.5t14.5 -34.5t-14.5 -34.5t-34.5 -14.5z" />
    <glyph glyph-name="uni1EA2" unicode="&#x1ea2;" horiz-adv-x="781" 
d="M222 254h334l-165 372zM745 0h-76l-85 191h-390l-87 -191h-73l326 705h67zM511 882q0 -29 -23 -51.5t-92 -58.5l-40 13v2q59 33 80 50.5t21 35.5q0 16 -15.5 25t-41.5 9q-28 0 -57 -9t-63 -28h-1v48q31 18 61 26t64 8q49 0 78 -19t29 -51z" />
    <glyph glyph-name="uni1EA3" unicode="&#x1ea3;" horiz-adv-x="562" 
d="M120 124q0 -34 25.5 -55t66.5 -21q39 0 87.5 20.5t112.5 63.5v114q-148 -7 -220 -36.5t-72 -85.5zM478 11l-66 -18v94q-61 -50 -112 -73t-100 -23q-64 0 -105 36t-41 94q0 85 88 126t270 45v12q0 67 -32.5 103t-93.5 36q-44 0 -89 -18t-92 -54l-2 1l14 76
q43 29 86.5 42.5t91.5 13.5q87 0 135 -51t48 -145v-297zM404 727q0 -31 -22 -59t-92 -77l-38 12v2q62 50 80.5 70.5t18.5 40.5q0 19 -14 30t-39 11q-27 0 -54.5 -12t-59.5 -37h-1v57q28 22 57.5 32.5t62.5 10.5q46 0 73.5 -22t27.5 -59z" />
    <glyph glyph-name="uni1EA4" unicode="&#x1ea4;" horiz-adv-x="781" 
d="M222 254h334l-165 372zM745 0h-76l-85 191h-390l-87 -191h-73l326 705h67zM545 882h-36l73 105h92v-1zM554 773h-41l-121 86l-121 -86h-41v1l131 136h62l131 -136v-1z" />
    <glyph glyph-name="uni1EA5" unicode="&#x1ea5;" horiz-adv-x="562" 
d="M120 124q0 -34 25.5 -55t66.5 -21q39 0 87.5 20.5t112.5 63.5v114q-148 -7 -220 -36.5t-72 -85.5zM478 11l-66 -18v94q-61 -50 -112 -73t-100 -23q-64 0 -105 36t-41 94q0 85 88 126t270 45v12q0 67 -32.5 103t-93.5 36q-44 0 -89 -18t-92 -54l-2 1l14 76
q43 29 86.5 42.5t91.5 13.5q87 0 135 -51t48 -145v-297zM564 850l-120 -129h-32l75 129h77zM449 596h-34l-128 88l-127 -88h-35v1l131 140h62l131 -140v-1z" />
    <glyph glyph-name="uni1EA6" unicode="&#x1ea6;" horiz-adv-x="781" 
d="M222 254h334l-165 372zM745 0h-76l-85 191h-390l-87 -191h-73l326 705h67zM563 987l74 -105h-37l-128 104v1h91zM554 773h-41l-121 86l-121 -86h-41v1l131 136h62l131 -136v-1z" />
    <glyph glyph-name="uni1EA7" unicode="&#x1ea7;" horiz-adv-x="562" 
d="M120 124q0 -34 25.5 -55t66.5 -21q39 0 87.5 20.5t112.5 63.5v114q-148 -7 -220 -36.5t-72 -85.5zM478 11l-66 -18v94q-61 -50 -112 -73t-100 -23q-64 0 -105 36t-41 94q0 85 88 126t270 45v12q0 67 -32.5 103t-93.5 36q-44 0 -89 -18t-92 -54l-2 1l14 76
q43 29 86.5 42.5t91.5 13.5q87 0 135 -51t48 -145v-297zM438 850l74 -129h-32l-120 129h78zM449 596h-34l-128 88l-127 -88h-35v1l131 140h62l131 -140v-1z" />
    <glyph glyph-name="uni1EA8" unicode="&#x1ea8;" horiz-adv-x="781" 
d="M222 254h334l-165 372zM745 0h-76l-85 191h-390l-87 -191h-73l326 705h67zM654 972q0 -21 -17.5 -38.5t-71.5 -48.5l-34 10v1q46 31 60.5 44.5t14.5 24.5q0 10 -9 15.5t-25 5.5q-22 0 -46 -7.5t-51 -23.5h-1v41q26 15 50.5 22t51.5 7q36 0 57 -14t21 -39zM554 773h-41
l-121 86l-121 -86h-41v1l131 136h62l131 -136v-1z" />
    <glyph glyph-name="uni1EA9" unicode="&#x1ea9;" horiz-adv-x="562" 
d="M120 124q0 -34 25.5 -55t66.5 -21q39 0 87.5 20.5t112.5 63.5v114q-148 -7 -220 -36.5t-72 -85.5zM478 11l-66 -18v94q-61 -50 -112 -73t-100 -23q-64 0 -105 36t-41 94q0 85 88 126t270 45v12q0 67 -32.5 103t-93.5 36q-44 0 -89 -18t-92 -54l-2 1l14 76
q43 29 86.5 42.5t91.5 13.5q87 0 135 -51t48 -145v-297zM567 809q0 -22 -17 -42t-78 -60l-35 12v1q47 34 63.5 50t16.5 31q0 13 -11 20.5t-30 7.5q-24 0 -50 -9t-53 -28h-1v46q26 18 52.5 26t55.5 8q40 0 63.5 -17t23.5 -46zM449 596h-34l-128 88l-127 -88h-35v1l131 140h62
l131 -140v-1z" />
    <glyph glyph-name="uni1EAA" unicode="&#x1eaa;" horiz-adv-x="781" 
d="M222 254h334l-165 372zM745 0h-76l-85 191h-390l-87 -191h-73l326 705h67zM403 1003q31 -16 43.5 -21t20.5 -5q14 0 27.5 12.5t39.5 48.5l29 -18q-36 -57 -56 -75.5t-45 -18.5q-11 0 -28 6t-53 25q-31 16 -43.5 21t-20.5 5q-14 0 -27.5 -12.5t-39.5 -48.5l-29 18
q36 57 56 75.5t45 18.5q11 0 28 -6t53 -25zM554 773h-41l-121 69l-121 -69h-41v1l128 113h68l128 -113v-1z" />
    <glyph glyph-name="uni1EAB" unicode="&#x1eab;" horiz-adv-x="562" 
d="M120 124q0 -34 25.5 -55t66.5 -21q39 0 87.5 20.5t112.5 63.5v114q-148 -7 -220 -36.5t-72 -85.5zM478 11l-66 -18v94q-61 -50 -112 -73t-100 -23q-64 0 -105 36t-41 94q0 85 88 126t270 45v12q0 67 -32.5 103t-93.5 36q-44 0 -89 -18t-92 -54l-2 1l14 76
q43 29 86.5 42.5t91.5 13.5q87 0 135 -51t48 -145v-297zM297 842q27 -14 38 -18.5t18 -4.5q14 0 26.5 11.5t36.5 45.5l28 -18q-34 -57 -52.5 -74.5t-41.5 -17.5q-11 0 -26 5.5t-47 23.5q-27 15 -38 19.5t-18 4.5q-13 0 -25.5 -11t-37.5 -46l-28 17q34 57 52.5 74.5
t41.5 17.5q11 0 26 -5.5t47 -23.5zM449 596h-34l-128 75l-127 -75h-35v1l129 123h66l129 -123v-1z" />
    <glyph glyph-name="uni1EAC" unicode="&#x1eac;" horiz-adv-x="781" 
d="M222 254h334l-165 372zM745 0h-76l-85 191h-390l-87 -191h-73l326 705h67zM554 773h-41l-121 90l-121 -90h-41v1l131 140h62l131 -140v-1zM390 -186q-20 0 -34.5 14.5t-14.5 34.5t14.5 34.5t34.5 14.5t34.5 -14.5t14.5 -34.5t-14.5 -34.5t-34.5 -14.5z" />
    <glyph glyph-name="uni1EAD" unicode="&#x1ead;" horiz-adv-x="562" 
d="M120 124q0 -34 25.5 -55t66.5 -21q39 0 87.5 20.5t112.5 63.5v114q-148 -7 -220 -36.5t-72 -85.5zM478 11l-66 -18v94q-61 -50 -112 -73t-100 -23q-64 0 -105 36t-41 94q0 85 88 126t270 45v12q0 67 -32.5 103t-93.5 36q-44 0 -89 -18t-92 -54l-2 1l14 76
q43 29 86.5 42.5t91.5 13.5q87 0 135 -51t48 -145v-297zM444 596h-34l-123 106l-122 -106h-35v1l126 161h62l126 -161v-1zM280 -186q-20 0 -34.5 14.5t-14.5 34.5t14.5 34.5t34.5 14.5t34.5 -14.5t14.5 -34.5t-14.5 -34.5t-34.5 -14.5z" />
    <glyph glyph-name="uni1EAE" unicode="&#x1eae;" horiz-adv-x="781" 
d="M222 254h334l-165 372zM745 0h-76l-85 191h-390l-87 -191h-73l326 705h67zM390 911h-31l72 118h88v-1zM392 774q-54 0 -96 25.5t-79 82.5l25 21q40 -40 74.5 -56t75.5 -16t75.5 16t74.5 56l25 -21q-37 -57 -79 -82.5t-96 -25.5z" />
    <glyph glyph-name="uni1EAF" unicode="&#x1eaf;" horiz-adv-x="562" 
d="M120 124q0 -34 25.5 -55t66.5 -21q39 0 87.5 20.5t112.5 63.5v114q-148 -7 -220 -36.5t-72 -85.5zM478 11l-66 -18v94q-61 -50 -112 -73t-100 -23q-64 0 -105 36t-41 94q0 85 88 126t270 45v12q0 67 -32.5 103t-93.5 36q-44 0 -89 -18t-92 -54l-2 1l14 76
q43 29 86.5 42.5t91.5 13.5q87 0 135 -51t48 -145v-297zM422 862l-131 -129h-31l74 129h88zM286 592q-51 0 -90 26t-72 84l26 20q37 -43 67.5 -59t68.5 -16q39 0 70.5 17.5t66.5 59.5l26 -19q-31 -58 -71 -85.5t-92 -27.5z" />
    <glyph glyph-name="uni1EB0" unicode="&#x1eb0;" horiz-adv-x="781" 
d="M222 254h334l-165 372zM745 0h-76l-85 191h-390l-87 -191h-73l326 705h67zM353 1029l72 -118h-31l-129 117v1h88zM392 774q-54 0 -96 25.5t-79 82.5l25 21q40 -40 74.5 -56t75.5 -16t75.5 16t74.5 56l25 -21q-37 -57 -79 -82.5t-96 -25.5z" />
    <glyph glyph-name="uni1EB1" unicode="&#x1eb1;" horiz-adv-x="562" 
d="M120 124q0 -34 25.5 -55t66.5 -21q39 0 87.5 20.5t112.5 63.5v114q-148 -7 -220 -36.5t-72 -85.5zM478 11l-66 -18v94q-61 -50 -112 -73t-100 -23q-64 0 -105 36t-41 94q0 85 88 126t270 45v12q0 67 -32.5 103t-93.5 36q-44 0 -89 -18t-92 -54l-2 1l14 76
q43 29 86.5 42.5t91.5 13.5q87 0 135 -51t48 -145v-297zM240 862l74 -129h-31l-131 129h88zM286 592q-51 0 -90 26t-72 84l26 20q37 -43 67.5 -59t68.5 -16q39 0 70.5 17.5t66.5 59.5l26 -19q-31 -58 -71 -85.5t-92 -27.5z" />
    <glyph glyph-name="uni1EB2" unicode="&#x1eb2;" horiz-adv-x="781" 
d="M222 254h334l-165 372zM745 0h-76l-85 191h-390l-87 -191h-73l326 705h67zM500 1008q0 -22 -19.5 -42t-85.5 -60l-37 12v1q56 37 72 52t16 29q0 12 -11.5 19.5t-30.5 7.5q-24 0 -51 -9t-58 -28h-1v45q31 18 57.5 26t57.5 8q40 0 65.5 -17t25.5 -44zM392 774
q-54 0 -96 25.5t-79 82.5l25 21q40 -40 74.5 -56t75.5 -16t75.5 16t74.5 56l25 -21q-37 -57 -79 -82.5t-96 -25.5z" />
    <glyph glyph-name="uni1EB3" unicode="&#x1eb3;" horiz-adv-x="562" 
d="M120 124q0 -34 25.5 -55t66.5 -21q39 0 87.5 20.5t112.5 63.5v114q-148 -7 -220 -36.5t-72 -85.5zM478 11l-66 -18v94q-61 -50 -112 -73t-100 -23q-64 0 -105 36t-41 94q0 85 88 126t270 45v12q0 67 -32.5 103t-93.5 36q-44 0 -89 -18t-92 -54l-2 1l14 76
q43 29 86.5 42.5t91.5 13.5q87 0 135 -51t48 -145v-297zM397 845q0 -23 -19 -44.5t-87 -64.5l-35 12v1q55 39 72.5 55.5t17.5 31.5q0 14 -13 23t-34 9q-26 0 -52.5 -10t-57.5 -32h-1v48q28 19 56 28t59 9q43 0 68.5 -17.5t25.5 -48.5zM286 592q-51 0 -90 26t-72 84l26 20
q37 -43 67.5 -59t68.5 -16q39 0 70.5 17.5t66.5 59.5l26 -19q-31 -58 -71 -85.5t-92 -27.5z" />
    <glyph glyph-name="uni1EB4" unicode="&#x1eb4;" horiz-adv-x="781" 
d="M222 254h334l-165 372zM745 0h-76l-85 191h-390l-87 -191h-73l326 705h67zM407 1013q31 -16 43.5 -21t20.5 -5q15 0 28.5 12.5t39.5 49.5l28 -19q-36 -58 -56 -76t-44 -18q-12 0 -28.5 6t-53.5 26q-31 16 -43.5 21t-20.5 5q-14 0 -27 -12.5t-38 -47.5l-29 18
q35 56 55 74.5t44 18.5q11 0 28 -6t53 -26zM392 774q-54 0 -96 25.5t-79 82.5l25 21q40 -40 74.5 -56t75.5 -16t75.5 16t74.5 56l25 -21q-37 -57 -79 -82.5t-96 -25.5z" />
    <glyph glyph-name="uni1EB5" unicode="&#x1eb5;" horiz-adv-x="562" 
d="M120 124q0 -34 25.5 -55t66.5 -21q39 0 87.5 20.5t112.5 63.5v114q-148 -7 -220 -36.5t-72 -85.5zM478 11l-66 -18v94q-61 -50 -112 -73t-100 -23q-64 0 -105 36t-41 94q0 85 88 126t270 45v12q0 67 -32.5 103t-93.5 36q-44 0 -89 -18t-92 -54l-2 1l14 76
q43 29 86.5 42.5t91.5 13.5q87 0 135 -51t48 -145v-297zM299 840q26 -15 37.5 -19.5t18.5 -4.5q15 0 28 11.5t38 44.5l29 -19q-38 -57 -56.5 -73.5t-40.5 -16.5q-12 0 -28 6t-50 26q-26 15 -37.5 19.5t-18.5 4.5q-14 0 -27 -11.5t-39 -44.5l-29 17q38 57 56.5 73.5
t40.5 16.5q12 0 28 -6t50 -24zM286 592q-51 0 -90 26t-72 84l26 20q37 -43 67.5 -59t68.5 -16q39 0 70.5 17.5t66.5 59.5l26 -19q-31 -58 -71 -85.5t-92 -27.5z" />
    <glyph glyph-name="uni1EB6" unicode="&#x1eb6;" horiz-adv-x="781" 
d="M222 254h334l-165 372zM745 0h-76l-85 191h-390l-87 -191h-73l326 705h67zM392 774q-53 0 -95 28t-80 91l28 20q43 -47 76 -64.5t71 -17.5t71 17.5t76 64.5l28 -20q-38 -63 -80 -91t-95 -28zM390 -186q-20 0 -34.5 14.5t-14.5 34.5t14.5 34.5t34.5 14.5t34.5 -14.5
t14.5 -34.5t-14.5 -34.5t-34.5 -14.5z" />
    <glyph glyph-name="uni1EB7" unicode="&#x1eb7;" horiz-adv-x="562" 
d="M120 124q0 -34 25.5 -55t66.5 -21q39 0 87.5 20.5t112.5 63.5v114q-148 -7 -220 -36.5t-72 -85.5zM478 11l-66 -18v94q-61 -50 -112 -73t-100 -23q-64 0 -105 36t-41 94q0 85 88 126t270 45v12q0 67 -32.5 103t-93.5 36q-44 0 -89 -18t-92 -54l-2 1l14 76
q43 29 86.5 42.5t91.5 13.5q87 0 135 -51t48 -145v-297zM287 592q-51 0 -89.5 32.5t-72.5 105.5l32 18q35 -54 64.5 -75t65.5 -21t65.5 21t64.5 75l32 -18q-34 -73 -72.5 -105.5t-89.5 -32.5zM280 -186q-20 0 -34.5 14.5t-14.5 34.5t14.5 34.5t34.5 14.5t34.5 -14.5
t14.5 -34.5t-14.5 -34.5t-34.5 -14.5z" />
    <glyph glyph-name="uni1EB8" unicode="&#x1eb8;" horiz-adv-x="570" 
d="M492 0h-387v700h384l23 -64h-337v-248h286v-64h-286v-260h340zM307 -186q-20 0 -34.5 14.5t-14.5 34.5t14.5 34.5t34.5 14.5t34.5 -14.5t14.5 -34.5t-14.5 -34.5t-34.5 -14.5z" />
    <glyph glyph-name="uni1EB9" unicode="&#x1eb9;" horiz-adv-x="558" 
d="M283 449q-69 0 -116.5 -50.5t-52.5 -127.5h328q-4 82 -46.5 130t-112.5 48zM491 110l-24 -74q-42 -25 -82 -36t-85 -11q-114 0 -183 70.5t-69 188.5q0 109 68 184.5t170 75.5q101 0 162 -71t61 -183q0 -7 -0.5 -16t-1.5 -18h-391q9 -80 59.5 -125t131.5 -45q43 0 90 16
t92 45zM292 -189q-20 0 -34.5 14.5t-14.5 34.5t14.5 34.5t34.5 14.5t34.5 -14.5t14.5 -34.5t-14.5 -34.5t-34.5 -14.5z" />
    <glyph glyph-name="uni1EBA" unicode="&#x1eba;" horiz-adv-x="570" 
d="M492 0h-387v700h384l23 -64h-337v-248h286v-64h-286v-260h340zM426 882q0 -29 -23 -51.5t-92 -58.5l-40 13v2q59 33 80 50.5t21 35.5q0 16 -15.5 25t-41.5 9q-28 0 -57 -9t-63 -28h-1v48q31 18 61 26t64 8q49 0 78 -19t29 -51z" />
    <glyph glyph-name="uni1EBB" unicode="&#x1ebb;" horiz-adv-x="558" 
d="M283 449q-69 0 -116.5 -50.5t-52.5 -127.5h328q-4 82 -46.5 130t-112.5 48zM491 110l-24 -74q-42 -25 -82 -36t-85 -11q-114 0 -183 70.5t-69 188.5q0 109 68 184.5t170 75.5q101 0 162 -71t61 -183q0 -7 -0.5 -16t-1.5 -18h-391q9 -80 59.5 -125t131.5 -45q43 0 90 16
t92 45zM405 730q0 -31 -22 -59t-92 -77l-38 12v2q62 50 80.5 70.5t18.5 40.5q0 19 -14 30t-39 11q-27 0 -54.5 -12t-59.5 -37h-1v57q28 22 57.5 32.5t62.5 10.5q46 0 73.5 -22t27.5 -59z" />
    <glyph glyph-name="uni1EBC" unicode="&#x1ebc;" horiz-adv-x="570" 
d="M492 0h-387v700h384l23 -64h-337v-248h286v-64h-286v-260h340zM319 862q33 -21 47 -27.5t23 -6.5q15 0 29 14t48 65l31 -21q-41 -69 -63.5 -91t-50.5 -22q-13 0 -31 8t-57 33q-33 21 -47 27.5t-23 6.5q-15 0 -29 -14t-48 -65l-31 21q41 69 63.5 91t50.5 22q13 0 31 -8
t57 -33z" />
    <glyph glyph-name="uni1EBD" unicode="&#x1ebd;" horiz-adv-x="558" 
d="M283 449q-69 0 -116.5 -50.5t-52.5 -127.5h328q-4 82 -46.5 130t-112.5 48zM491 110l-24 -74q-42 -25 -82 -36t-85 -11q-114 0 -183 70.5t-69 188.5q0 109 68 184.5t170 75.5q101 0 162 -71t61 -183q0 -7 -0.5 -16t-1.5 -18h-391q9 -80 59.5 -125t131.5 -45q43 0 90 16
t92 45zM302 696q32 -23 45 -30t22 -7q14 0 28 15.5t49 74.5l34 -20q-42 -79 -65 -103.5t-51 -24.5q-14 0 -32.5 9.5t-57.5 38.5q-32 23 -45 30t-22 7q-15 0 -29 -15.5t-48 -73.5l-34 20q41 78 64 102.5t52 24.5q14 0 32.5 -9.5t57.5 -38.5z" />
    <glyph glyph-name="uni1EBE" unicode="&#x1ebe;" horiz-adv-x="570" 
d="M492 0h-387v700h384l23 -64h-337v-248h286v-64h-286v-260h340zM460 882h-36l73 105h92v-1zM469 773h-41l-121 86l-121 -86h-41v1l131 136h62l131 -136v-1z" />
    <glyph glyph-name="uni1EBF" unicode="&#x1ebf;" horiz-adv-x="558" 
d="M283 449q-69 0 -116.5 -50.5t-52.5 -127.5h328q-4 82 -46.5 130t-112.5 48zM491 110l-24 -74q-42 -25 -82 -36t-85 -11q-114 0 -183 70.5t-69 188.5q0 109 68 184.5t170 75.5q101 0 162 -71t61 -183q0 -7 -0.5 -16t-1.5 -18h-391q9 -80 59.5 -125t131.5 -45q43 0 90 16
t92 45zM565 853l-120 -129h-32l75 129h77zM450 599h-34l-128 88l-127 -88h-35v1l131 140h62l131 -140v-1z" />
    <glyph glyph-name="uni1EC0" unicode="&#x1ec0;" horiz-adv-x="570" 
d="M492 0h-387v700h384l23 -64h-337v-248h286v-64h-286v-260h340zM478 987l74 -105h-37l-128 104v1h91zM469 773h-41l-121 86l-121 -86h-41v1l131 136h62l131 -136v-1z" />
    <glyph glyph-name="uni1EC1" unicode="&#x1ec1;" horiz-adv-x="558" 
d="M283 449q-69 0 -116.5 -50.5t-52.5 -127.5h328q-4 82 -46.5 130t-112.5 48zM491 110l-24 -74q-42 -25 -82 -36t-85 -11q-114 0 -183 70.5t-69 188.5q0 109 68 184.5t170 75.5q101 0 162 -71t61 -183q0 -7 -0.5 -16t-1.5 -18h-391q9 -80 59.5 -125t131.5 -45q43 0 90 16
t92 45zM439 853l74 -129h-32l-120 129h78zM450 599h-34l-128 88l-127 -88h-35v1l131 140h62l131 -140v-1z" />
    <glyph glyph-name="uni1EC2" unicode="&#x1ec2;" horiz-adv-x="570" 
d="M492 0h-387v700h384l23 -64h-337v-248h286v-64h-286v-260h340zM569 972q0 -21 -17.5 -38.5t-71.5 -48.5l-34 10v1q46 31 60.5 44.5t14.5 24.5q0 10 -9 15.5t-25 5.5q-22 0 -46 -7.5t-51 -23.5h-1v41q26 15 50.5 22t51.5 7q36 0 57 -14t21 -39zM469 773h-41l-121 86
l-121 -86h-41v1l131 136h62l131 -136v-1z" />
    <glyph glyph-name="uni1EC3" unicode="&#x1ec3;" horiz-adv-x="558" 
d="M283 449q-69 0 -116.5 -50.5t-52.5 -127.5h328q-4 82 -46.5 130t-112.5 48zM491 110l-24 -74q-42 -25 -82 -36t-85 -11q-114 0 -183 70.5t-69 188.5q0 109 68 184.5t170 75.5q101 0 162 -71t61 -183q0 -7 -0.5 -16t-1.5 -18h-391q9 -80 59.5 -125t131.5 -45q43 0 90 16
t92 45zM568 812q0 -22 -17 -42t-78 -60l-35 12v1q47 34 63.5 50t16.5 31q0 13 -11 20.5t-30 7.5q-24 0 -50 -9t-53 -28h-1v46q26 18 52.5 26t55.5 8q40 0 63.5 -17t23.5 -46zM450 599h-34l-128 88l-127 -88h-35v1l131 140h62l131 -140v-1z" />
    <glyph glyph-name="uni1EC4" unicode="&#x1ec4;" horiz-adv-x="570" 
d="M492 0h-387v700h384l23 -64h-337v-248h286v-64h-286v-260h340zM318 1003q31 -16 43.5 -21t20.5 -5q14 0 27.5 12.5t39.5 48.5l29 -18q-36 -57 -56 -75.5t-45 -18.5q-11 0 -28 6t-53 25q-31 16 -43.5 21t-20.5 5q-14 0 -27.5 -12.5t-39.5 -48.5l-29 18q36 57 56 75.5
t45 18.5q11 0 28 -6t53 -25zM469 773h-41l-121 69l-121 -69h-41v1l128 113h68l128 -113v-1z" />
    <glyph glyph-name="uni1EC5" unicode="&#x1ec5;" horiz-adv-x="558" 
d="M283 449q-69 0 -116.5 -50.5t-52.5 -127.5h328q-4 82 -46.5 130t-112.5 48zM491 110l-24 -74q-42 -25 -82 -36t-85 -11q-114 0 -183 70.5t-69 188.5q0 109 68 184.5t170 75.5q101 0 162 -71t61 -183q0 -7 -0.5 -16t-1.5 -18h-391q9 -80 59.5 -125t131.5 -45q43 0 90 16
t92 45zM298 845q27 -14 38 -18.5t18 -4.5q14 0 26.5 11.5t36.5 45.5l28 -18q-34 -57 -52.5 -74.5t-41.5 -17.5q-11 0 -26 5.5t-47 23.5q-27 15 -38 19.5t-18 4.5q-13 0 -25.5 -11t-37.5 -46l-28 17q34 57 52.5 74.5t41.5 17.5q11 0 26 -5.5t47 -23.5zM450 599h-34l-128 75
l-127 -75h-35v1l129 123h66l129 -123v-1z" />
    <glyph glyph-name="uni1EC6" unicode="&#x1ec6;" horiz-adv-x="570" 
d="M492 0h-387v700h384l23 -64h-337v-248h286v-64h-286v-260h340zM469 773h-41l-121 90l-121 -90h-41v1l131 140h62l131 -140v-1zM307 -186q-20 0 -34.5 14.5t-14.5 34.5t14.5 34.5t34.5 14.5t34.5 -14.5t14.5 -34.5t-14.5 -34.5t-34.5 -14.5z" />
    <glyph glyph-name="uni1EC7" unicode="&#x1ec7;" horiz-adv-x="558" 
d="M283 449q-69 0 -116.5 -50.5t-52.5 -127.5h328q-4 82 -46.5 130t-112.5 48zM491 110l-24 -74q-42 -25 -82 -36t-85 -11q-114 0 -183 70.5t-69 188.5q0 109 68 184.5t170 75.5q101 0 162 -71t61 -183q0 -7 -0.5 -16t-1.5 -18h-391q9 -80 59.5 -125t131.5 -45q43 0 90 16
t92 45zM445 599h-34l-123 106l-122 -106h-35v1l126 161h62l126 -161v-1zM292 -189q-20 0 -34.5 14.5t-14.5 34.5t14.5 34.5t34.5 14.5t34.5 -14.5t14.5 -34.5t-14.5 -34.5t-34.5 -14.5z" />
    <glyph glyph-name="uni1EC8" unicode="&#x1ec8;" horiz-adv-x="291" 
d="M180 0h-70v700h70v-700zM264 882q0 -29 -23 -51.5t-92 -58.5l-40 13v2q59 33 80 50.5t21 35.5q0 16 -15.5 25t-41.5 9q-28 0 -57 -9t-63 -28h-1v48q31 18 61 26t64 8q49 0 78 -19t29 -51z" />
    <glyph glyph-name="uni1EC9" unicode="&#x1ec9;" horiz-adv-x="257" 
d="M162 0h-67v494h67v-494zM246 727q0 -31 -22 -59t-92 -77l-38 12v2q62 50 80.5 70.5t18.5 40.5q0 19 -14 30t-39 11q-27 0 -54.5 -12t-59.5 -37h-1v57q28 22 57.5 32.5t62.5 10.5q46 0 73.5 -22t27.5 -59z" />
    <glyph glyph-name="uni1ECA" unicode="&#x1eca;" horiz-adv-x="291" 
d="M180 0h-70v700h70v-700zM145 -186q-20 0 -34.5 14.5t-14.5 34.5t14.5 34.5t34.5 14.5t34.5 -14.5t14.5 -34.5t-14.5 -34.5t-34.5 -14.5z" />
    <glyph glyph-name="uni1ECB" unicode="&#x1ecb;" horiz-adv-x="257" 
d="M129 719q20 0 34 -14.5t14 -34.5q0 -21 -14 -35t-35 -14q-20 0 -34 14.5t-14 34.5t14.5 34.5t34.5 14.5zM162 0h-67v494h67v-494zM129 -186q-20 0 -34.5 14.5t-14.5 34.5t14.5 34.5t34.5 14.5t34.5 -14.5t14.5 -34.5t-14.5 -34.5t-34.5 -14.5z" />
    <glyph glyph-name="uni1ECC" unicode="&#x1ecc;" horiz-adv-x="845" 
d="M421 -14q-152 0 -257 105.5t-105 257.5q0 153 105.5 259t258.5 106q152 0 257.5 -105.5t105.5 -257.5q0 -153 -106 -259t-259 -106zM420 649q-120 0 -204.5 -87t-84.5 -211q0 -126 85 -213t206 -87q120 0 206 87t86 211q0 125 -86 212.5t-208 87.5zM422 -191
q-20 0 -34.5 14.5t-14.5 34.5t14.5 34.5t34.5 14.5t34.5 -14.5t14.5 -34.5t-14.5 -34.5t-34.5 -14.5z" />
    <glyph glyph-name="uni1ECD" unicode="&#x1ecd;" horiz-adv-x="616" 
d="M306 -14q-111 0 -184.5 76t-73.5 184q0 109 74.5 185.5t186.5 76.5t185 -75.5t73 -184.5t-74.5 -185.5t-186.5 -76.5zM500 247q0 86 -54.5 143.5t-137.5 57.5t-137.5 -57.5t-54.5 -143.5t54.5 -144t136.5 -58q83 0 138 58.5t55 143.5zM308 -189q-20 0 -34.5 14.5
t-14.5 34.5t14.5 34.5t34.5 14.5t34.5 -14.5t14.5 -34.5t-14.5 -34.5t-34.5 -14.5z" />
    <glyph glyph-name="uni1ECE" unicode="&#x1ece;" horiz-adv-x="845" 
d="M421 -14q-152 0 -257 105.5t-105 257.5q0 153 105.5 259t258.5 106q152 0 257.5 -105.5t105.5 -257.5q0 -153 -106 -259t-259 -106zM420 649q-120 0 -204.5 -87t-84.5 -211q0 -126 85 -213t206 -87q120 0 206 87t86 211q0 125 -86 212.5t-208 87.5zM541 887
q0 -29 -23 -51.5t-92 -58.5l-40 13v2q59 33 80 50.5t21 35.5q0 16 -15.5 25t-41.5 9q-28 0 -57 -9t-63 -28h-1v48q31 18 61 26t64 8q49 0 78 -19t29 -51z" />
    <glyph glyph-name="uni1ECF" unicode="&#x1ecf;" horiz-adv-x="616" 
d="M306 -14q-111 0 -184.5 76t-73.5 184q0 109 74.5 185.5t186.5 76.5t185 -75.5t73 -184.5t-74.5 -185.5t-186.5 -76.5zM500 247q0 86 -54.5 143.5t-137.5 57.5t-137.5 -57.5t-54.5 -143.5t54.5 -144t136.5 -58q83 0 138 58.5t55 143.5zM425 730q0 -31 -22 -59t-92 -77
l-38 12v2q62 50 80.5 70.5t18.5 40.5q0 19 -14 30t-39 11q-27 0 -54.5 -12t-59.5 -37h-1v57q28 22 57.5 32.5t62.5 10.5q46 0 73.5 -22t27.5 -59z" />
    <glyph glyph-name="uni1ED0" unicode="&#x1ed0;" horiz-adv-x="845" 
d="M421 -14q-152 0 -257 105.5t-105 257.5q0 153 105.5 259t258.5 106q152 0 257.5 -105.5t105.5 -257.5q0 -153 -106 -259t-259 -106zM420 649q-120 0 -204.5 -87t-84.5 -211q0 -126 85 -213t206 -87q120 0 206 87t86 211q0 125 -86 212.5t-208 87.5zM575 887h-36l73 105
h92v-1zM584 778h-41l-121 86l-121 -86h-41v1l131 136h62l131 -136v-1z" />
    <glyph glyph-name="uni1ED1" unicode="&#x1ed1;" horiz-adv-x="616" 
d="M306 -14q-111 0 -184.5 76t-73.5 184q0 109 74.5 185.5t186.5 76.5t185 -75.5t73 -184.5t-74.5 -185.5t-186.5 -76.5zM500 247q0 86 -54.5 143.5t-137.5 57.5t-137.5 -57.5t-54.5 -143.5t54.5 -144t136.5 -58q83 0 138 58.5t55 143.5zM585 853l-120 -129h-32l75 129h77z
M470 599h-34l-128 88l-127 -88h-35v1l131 140h62l131 -140v-1z" />
    <glyph glyph-name="uni1ED2" unicode="&#x1ed2;" horiz-adv-x="845" 
d="M421 -14q-152 0 -257 105.5t-105 257.5q0 153 105.5 259t258.5 106q152 0 257.5 -105.5t105.5 -257.5q0 -153 -106 -259t-259 -106zM420 649q-120 0 -204.5 -87t-84.5 -211q0 -126 85 -213t206 -87q120 0 206 87t86 211q0 125 -86 212.5t-208 87.5zM593 992l74 -105h-37
l-128 104v1h91zM584 778h-41l-121 86l-121 -86h-41v1l131 136h62l131 -136v-1z" />
    <glyph glyph-name="uni1ED3" unicode="&#x1ed3;" horiz-adv-x="616" 
d="M306 -14q-111 0 -184.5 76t-73.5 184q0 109 74.5 185.5t186.5 76.5t185 -75.5t73 -184.5t-74.5 -185.5t-186.5 -76.5zM500 247q0 86 -54.5 143.5t-137.5 57.5t-137.5 -57.5t-54.5 -143.5t54.5 -144t136.5 -58q83 0 138 58.5t55 143.5zM459 853l74 -129h-32l-120 129h78z
M470 599h-34l-128 88l-127 -88h-35v1l131 140h62l131 -140v-1z" />
    <glyph glyph-name="uni1ED4" unicode="&#x1ed4;" horiz-adv-x="845" 
d="M421 -14q-152 0 -257 105.5t-105 257.5q0 153 105.5 259t258.5 106q152 0 257.5 -105.5t105.5 -257.5q0 -153 -106 -259t-259 -106zM420 649q-120 0 -204.5 -87t-84.5 -211q0 -126 85 -213t206 -87q120 0 206 87t86 211q0 125 -86 212.5t-208 87.5zM684 977
q0 -21 -17.5 -38.5t-71.5 -48.5l-34 10v1q46 31 60.5 44.5t14.5 24.5q0 10 -9 15.5t-25 5.5q-22 0 -46 -7.5t-51 -23.5h-1v41q26 15 50.5 22t51.5 7q36 0 57 -14t21 -39zM584 778h-41l-121 86l-121 -86h-41v1l131 136h62l131 -136v-1z" />
    <glyph glyph-name="uni1ED5" unicode="&#x1ed5;" horiz-adv-x="616" 
d="M306 -14q-111 0 -184.5 76t-73.5 184q0 109 74.5 185.5t186.5 76.5t185 -75.5t73 -184.5t-74.5 -185.5t-186.5 -76.5zM500 247q0 86 -54.5 143.5t-137.5 57.5t-137.5 -57.5t-54.5 -143.5t54.5 -144t136.5 -58q83 0 138 58.5t55 143.5zM588 812q0 -22 -17 -42t-78 -60
l-35 12v1q47 34 63.5 50t16.5 31q0 13 -11 20.5t-30 7.5q-24 0 -50 -9t-53 -28h-1v46q26 18 52.5 26t55.5 8q40 0 63.5 -17t23.5 -46zM470 599h-34l-128 88l-127 -88h-35v1l131 140h62l131 -140v-1z" />
    <glyph glyph-name="uni1ED6" unicode="&#x1ed6;" horiz-adv-x="845" 
d="M421 -14q-152 0 -257 105.5t-105 257.5q0 153 105.5 259t258.5 106q152 0 257.5 -105.5t105.5 -257.5q0 -153 -106 -259t-259 -106zM420 649q-120 0 -204.5 -87t-84.5 -211q0 -126 85 -213t206 -87q120 0 206 87t86 211q0 125 -86 212.5t-208 87.5zM433 1008
q31 -16 43.5 -21t20.5 -5q14 0 27.5 12.5t39.5 48.5l29 -18q-36 -57 -56 -75.5t-45 -18.5q-11 0 -28 6t-53 25q-31 16 -43.5 21t-20.5 5q-14 0 -27.5 -12.5t-39.5 -48.5l-29 18q36 57 56 75.5t45 18.5q11 0 28 -6t53 -25zM584 778h-41l-121 69l-121 -69h-41v1l128 113h68
l128 -113v-1z" />
    <glyph glyph-name="uni1ED7" unicode="&#x1ed7;" horiz-adv-x="616" 
d="M306 -14q-111 0 -184.5 76t-73.5 184q0 109 74.5 185.5t186.5 76.5t185 -75.5t73 -184.5t-74.5 -185.5t-186.5 -76.5zM500 247q0 86 -54.5 143.5t-137.5 57.5t-137.5 -57.5t-54.5 -143.5t54.5 -144t136.5 -58q83 0 138 58.5t55 143.5zM318 845q27 -14 38 -18.5t18 -4.5
q14 0 26.5 11.5t36.5 45.5l28 -18q-34 -57 -52.5 -74.5t-41.5 -17.5q-11 0 -26 5.5t-47 23.5q-27 15 -38 19.5t-18 4.5q-13 0 -25.5 -11t-37.5 -46l-28 17q34 57 52.5 74.5t41.5 17.5q11 0 26 -5.5t47 -23.5zM470 599h-34l-128 75l-127 -75h-35v1l129 123h66l129 -123v-1z
" />
    <glyph glyph-name="uni1ED8" unicode="&#x1ed8;" horiz-adv-x="845" 
d="M421 -14q-152 0 -257 105.5t-105 257.5q0 153 105.5 259t258.5 106q152 0 257.5 -105.5t105.5 -257.5q0 -153 -106 -259t-259 -106zM420 649q-120 0 -204.5 -87t-84.5 -211q0 -126 85 -213t206 -87q120 0 206 87t86 211q0 125 -86 212.5t-208 87.5zM584 778h-41l-121 90
l-121 -90h-41v1l131 140h62l131 -140v-1zM422 -191q-20 0 -34.5 14.5t-14.5 34.5t14.5 34.5t34.5 14.5t34.5 -14.5t14.5 -34.5t-14.5 -34.5t-34.5 -14.5z" />
    <glyph glyph-name="uni1ED9" unicode="&#x1ed9;" horiz-adv-x="616" 
d="M306 -14q-111 0 -184.5 76t-73.5 184q0 109 74.5 185.5t186.5 76.5t185 -75.5t73 -184.5t-74.5 -185.5t-186.5 -76.5zM500 247q0 86 -54.5 143.5t-137.5 57.5t-137.5 -57.5t-54.5 -143.5t54.5 -144t136.5 -58q83 0 138 58.5t55 143.5zM465 599h-34l-123 106l-122 -106
h-35v1l126 161h62l126 -161v-1zM308 -189q-20 0 -34.5 14.5t-14.5 34.5t14.5 34.5t34.5 14.5t34.5 -14.5t14.5 -34.5t-14.5 -34.5t-34.5 -14.5z" />
    <glyph glyph-name="uni1EDA" unicode="&#x1eda;" horiz-adv-x="844" 
d="M786 349q0 -152 -106 -257.5t-259 -105.5q-152 0 -257 105t-105 255q0 153 106 257.5t262 104.5q14 0 29.5 -0.5t45.5 -2.5t46 -2.5t30 -0.5q79 0 114 20t35 65q0 14 -2 27t-7 27h63q4 -10 6 -22t2 -28q0 -65 -48 -99t-143 -36q87 -45 137.5 -126.5t50.5 -180.5zM420 644
q-120 0 -204.5 -86t-84.5 -209q0 -124 85 -211t206 -87q120 0 206 87t86 209q0 124 -86 210.5t-208 86.5zM436 776h-37l90 141h97v-1z" />
    <glyph glyph-name="uni1EDB" unicode="&#x1edb;" horiz-adv-x="614" 
d="M567 246q0 -108 -74.5 -184t-186.5 -76q-110 0 -184 75t-74 182q0 110 76 184t192 74h21q12 0 37 -1q24 -1 34 -1h18q55 0 83.5 17t28.5 49q0 12 -2 22t-8 26h59q6 -12 8.5 -24.5t2.5 -26.5q0 -46 -38 -73t-106 -31q52 -34 82.5 -91.5t30.5 -120.5zM500 245
q0 85 -54.5 141.5t-137.5 56.5t-137.5 -57t-54.5 -141q0 -85 54.5 -142.5t136.5 -57.5q83 0 138 57.5t55 142.5zM321 599h-33l91 162h89v-1z" />
    <glyph glyph-name="uni1EDC" unicode="&#x1edc;" horiz-adv-x="844" 
d="M786 349q0 -152 -106 -257.5t-259 -105.5q-152 0 -257 105t-105 255q0 153 106 257.5t262 104.5q14 0 29.5 -0.5t45.5 -2.5t46 -2.5t30 -0.5q79 0 114 20t35 65q0 14 -2 27t-7 27h63q4 -10 6 -22t2 -28q0 -65 -48 -99t-143 -36q87 -45 137.5 -126.5t50.5 -180.5zM420 644
q-120 0 -204.5 -86t-84.5 -209q0 -124 85 -211t206 -87q120 0 206 87t86 209q0 124 -86 210.5t-208 86.5zM355 917l90 -141h-37l-150 140v1h97z" />
    <glyph glyph-name="uni1EDD" unicode="&#x1edd;" horiz-adv-x="614" 
d="M567 246q0 -108 -74.5 -184t-186.5 -76q-110 0 -184 75t-74 182q0 110 76 184t192 74h21q12 0 37 -1q24 -1 34 -1h18q55 0 83.5 17t28.5 49q0 12 -2 22t-8 26h59q6 -12 8.5 -24.5t2.5 -26.5q0 -46 -38 -73t-106 -31q52 -34 82.5 -91.5t30.5 -120.5zM500 245
q0 85 -54.5 141.5t-137.5 56.5t-137.5 -57t-54.5 -141q0 -85 54.5 -142.5t136.5 -57.5q83 0 138 57.5t55 142.5zM237 761l91 -162h-33l-147 161v1h89z" />
    <glyph glyph-name="uni1EDE" unicode="&#x1ede;" horiz-adv-x="844" 
d="M786 349q0 -152 -106 -257.5t-259 -105.5q-152 0 -257 105t-105 255q0 153 106 257.5t262 104.5q14 0 29.5 -0.5t45.5 -2.5t46 -2.5t30 -0.5q79 0 114 20t35 65q0 14 -2 27t-7 27h63q4 -10 6 -22t2 -28q0 -65 -48 -99t-143 -36q87 -45 137.5 -126.5t50.5 -180.5zM420 644
q-120 0 -204.5 -86t-84.5 -209q0 -124 85 -211t206 -87q120 0 206 87t86 209q0 124 -86 210.5t-208 86.5zM541 885q0 -29 -23 -51.5t-92 -58.5l-40 13v2q59 33 80 50.5t21 35.5q0 16 -15.5 25t-41.5 9q-28 0 -57 -9t-63 -28h-1v48q31 18 61 26t64 8q49 0 78 -19t29 -51z" />
    <glyph glyph-name="uni1EDF" unicode="&#x1edf;" horiz-adv-x="614" 
d="M567 246q0 -108 -74.5 -184t-186.5 -76q-110 0 -184 75t-74 182q0 110 76 184t192 74h21q12 0 37 -1q24 -1 34 -1h18q55 0 83.5 17t28.5 49q0 12 -2 22t-8 26h59q6 -12 8.5 -24.5t2.5 -26.5q0 -46 -38 -73t-106 -31q52 -34 82.5 -91.5t30.5 -120.5zM500 245
q0 85 -54.5 141.5t-137.5 56.5t-137.5 -57t-54.5 -141q0 -85 54.5 -142.5t136.5 -57.5q83 0 138 57.5t55 142.5zM425 730q0 -31 -22 -59t-92 -77l-38 12v2q62 50 80.5 70.5t18.5 40.5q0 19 -14 30t-39 11q-27 0 -54.5 -12t-59.5 -37h-1v57q28 22 57.5 32.5t62.5 10.5
q46 0 73.5 -22t27.5 -59z" />
    <glyph glyph-name="uni1EE0" unicode="&#x1ee0;" horiz-adv-x="844" 
d="M786 349q0 -152 -106 -257.5t-259 -105.5q-152 0 -257 105t-105 255q0 153 106 257.5t262 104.5q14 0 29.5 -0.5t45.5 -2.5t46 -2.5t30 -0.5q79 0 114 20t35 65q0 14 -2 27t-7 27h63q4 -10 6 -22t2 -28q0 -65 -48 -99t-143 -36q87 -45 137.5 -126.5t50.5 -180.5zM420 644
q-120 0 -204.5 -86t-84.5 -209q0 -124 85 -211t206 -87q120 0 206 87t86 209q0 124 -86 210.5t-208 86.5zM434 865q33 -21 47 -27.5t23 -6.5q15 0 29 14t48 65l31 -21q-41 -69 -63.5 -91t-50.5 -22q-13 0 -31 8t-57 33q-33 21 -47 27.5t-23 6.5q-15 0 -29 -14t-48 -65
l-31 21q41 69 63.5 91t50.5 22q13 0 31 -8t57 -33z" />
    <glyph glyph-name="uni1EE1" unicode="&#x1ee1;" horiz-adv-x="614" 
d="M315 697q32 -24 45.5 -31t22.5 -7q15 0 29.5 17t46.5 72l35 -20q-44 -80 -66.5 -103.5t-50.5 -23.5q-13 0 -31.5 9t-56.5 38q-33 24 -46.5 31t-22.5 7q-15 0 -29.5 -17t-47.5 -72l-34 20q44 80 66.5 103.5t49.5 23.5q13 0 32 -9t58 -38zM567 246q0 -108 -74.5 -184
t-186.5 -76q-110 0 -184 75t-74 182q0 110 76 184t192 74h21q12 0 37 -1q24 -1 34 -1h18q55 0 83.5 17t28.5 49q0 12 -2 22t-8 26h59q6 -12 8.5 -24.5t2.5 -26.5q0 -46 -38 -73t-106 -31q52 -34 82.5 -91.5t30.5 -120.5zM500 245q0 85 -54.5 141.5t-137.5 56.5t-137.5 -57
t-54.5 -141q0 -85 54.5 -142.5t136.5 -57.5q83 0 138 57.5t55 142.5z" />
    <glyph glyph-name="uni1EE2" unicode="&#x1ee2;" horiz-adv-x="844" 
d="M786 349q0 -152 -106 -257.5t-259 -105.5q-152 0 -257 105t-105 255q0 153 106 257.5t262 104.5q14 0 29.5 -0.5t45.5 -2.5t46 -2.5t30 -0.5q79 0 114 20t35 65q0 14 -2 27t-7 27h63q4 -10 6 -22t2 -28q0 -65 -48 -99t-143 -36q87 -45 137.5 -126.5t50.5 -180.5zM420 644
q-120 0 -204.5 -86t-84.5 -209q0 -124 85 -211t206 -87q120 0 206 87t86 209q0 124 -86 210.5t-208 86.5zM422 -189q-20 0 -34.5 14.5t-14.5 34.5t14.5 34.5t34.5 14.5t34.5 -14.5t14.5 -34.5t-14.5 -34.5t-34.5 -14.5z" />
    <glyph glyph-name="uni1EE3" unicode="&#x1ee3;" horiz-adv-x="614" 
d="M567 246q0 -108 -74.5 -184t-186.5 -76q-110 0 -184 75t-74 182q0 110 76 184t192 74h21q12 0 37 -1q24 -1 34 -1h18q55 0 83.5 17t28.5 49q0 12 -2 22t-8 26h59q6 -12 8.5 -24.5t2.5 -26.5q0 -46 -38 -73t-106 -31q52 -34 82.5 -91.5t30.5 -120.5zM500 245
q0 85 -54.5 141.5t-137.5 56.5t-137.5 -57t-54.5 -141q0 -85 54.5 -142.5t136.5 -57.5q83 0 138 57.5t55 142.5zM308 -189q-20 0 -34.5 14.5t-14.5 34.5t14.5 34.5t34.5 14.5t34.5 -14.5t14.5 -34.5t-14.5 -34.5t-34.5 -14.5z" />
    <glyph glyph-name="uni1EE4" unicode="&#x1ee4;" horiz-adv-x="784" 
d="M392 -12q-137 0 -216.5 82.5t-79.5 224.5v405h70v-407q0 -112 61 -176t167 -64q105 0 165.5 64t60.5 178v405h68v-404q0 -143 -79.5 -225.5t-216.5 -82.5zM393 -191q-20 0 -34.5 14.5t-14.5 34.5t14.5 34.5t34.5 14.5t34.5 -14.5t14.5 -34.5t-14.5 -34.5t-34.5 -14.5z
" />
    <glyph glyph-name="uni1EE5" unicode="&#x1ee5;" horiz-adv-x="603" 
d="M512 0h-66v102q-44 -59 -88.5 -86t-98.5 -27q-80 0 -128 52.5t-48 142.5v310h66v-305q0 -66 33.5 -103t92.5 -37q43 0 83 24t88 80v341h66v-494zM298 -186q-20 0 -34.5 14.5t-14.5 34.5t14.5 34.5t34.5 14.5t34.5 -14.5t14.5 -34.5t-14.5 -34.5t-34.5 -14.5z" />
    <glyph glyph-name="uni1EE6" unicode="&#x1ee6;" horiz-adv-x="784" 
d="M392 -12q-137 0 -216.5 82.5t-79.5 224.5v405h70v-407q0 -112 61 -176t167 -64q105 0 165.5 64t60.5 178v405h68v-404q0 -143 -79.5 -225.5t-216.5 -82.5zM512 882q0 -29 -23 -51.5t-92 -58.5l-40 13v2q59 33 80 50.5t21 35.5q0 16 -15.5 25t-41.5 9q-28 0 -57 -9
t-63 -28h-1v48q31 18 61 26t64 8q49 0 78 -19t29 -51z" />
    <glyph glyph-name="uni1EE7" unicode="&#x1ee7;" horiz-adv-x="603" 
d="M512 0h-66v102q-44 -59 -88.5 -86t-98.5 -27q-80 0 -128 52.5t-48 142.5v310h66v-305q0 -66 33.5 -103t92.5 -37q43 0 83 24t88 80v341h66v-494zM415 727q0 -31 -22 -59t-92 -77l-38 12v2q62 50 80.5 70.5t18.5 40.5q0 19 -14 30t-39 11q-27 0 -54.5 -12t-59.5 -37h-1v57
q28 22 57.5 32.5t62.5 10.5q46 0 73.5 -22t27.5 -59z" />
    <glyph glyph-name="uni1EE8" unicode="&#x1ee8;" horiz-adv-x="810" 
d="M392 -12q-137 0 -216.5 82.5t-79.5 224.5v405h70v-407q0 -112 61 -176t167 -64q105 0 165.5 64t60.5 178v405h21q61 0 91 21.5t30 65.5q0 16 -2 29t-7 25h64q4 -12 6 -24.5t2 -25.5q0 -56 -35 -91t-102 -45v-359q0 -143 -79.5 -225.5t-216.5 -82.5zM407 773h-37l90 141
h97v-1z" />
    <glyph glyph-name="uni1EE9" unicode="&#x1ee9;" horiz-adv-x="625" 
d="M512 0h-66v102q-44 -59 -88.5 -86t-98.5 -27q-80 0 -128 52.5t-48 142.5v310h66v-305q0 -66 33.5 -103t92.5 -37q43 0 83 24t88 80v341h23q54 0 80 16.5t26 49.5q0 11 -1.5 21.5t-5.5 22.5h59q4 -10 5.5 -20t1.5 -23q0 -47 -31.5 -75t-90.5 -35v-451zM311 596h-33l91 162
h89v-1z" />
    <glyph glyph-name="uni1EEA" unicode="&#x1eea;" horiz-adv-x="810" 
d="M392 -12q-137 0 -216.5 82.5t-79.5 224.5v405h70v-407q0 -112 61 -176t167 -64q105 0 165.5 64t60.5 178v405h21q61 0 91 21.5t30 65.5q0 16 -2 29t-7 25h64q4 -12 6 -24.5t2 -25.5q0 -56 -35 -91t-102 -45v-359q0 -143 -79.5 -225.5t-216.5 -82.5zM326 914l90 -141h-37
l-150 140v1h97z" />
    <glyph glyph-name="uni1EEB" unicode="&#x1eeb;" horiz-adv-x="625" 
d="M512 0h-66v102q-44 -59 -88.5 -86t-98.5 -27q-80 0 -128 52.5t-48 142.5v310h66v-305q0 -66 33.5 -103t92.5 -37q43 0 83 24t88 80v341h23q54 0 80 16.5t26 49.5q0 11 -1.5 21.5t-5.5 22.5h59q4 -10 5.5 -20t1.5 -23q0 -47 -31.5 -75t-90.5 -35v-451zM227 758l91 -162
h-33l-147 161v1h89z" />
    <glyph glyph-name="uni1EEC" unicode="&#x1eec;" horiz-adv-x="810" 
d="M392 -12q-137 0 -216.5 82.5t-79.5 224.5v405h70v-407q0 -112 61 -176t167 -64q105 0 165.5 64t60.5 178v405h21q61 0 91 21.5t30 65.5q0 16 -2 29t-7 25h64q4 -12 6 -24.5t2 -25.5q0 -56 -35 -91t-102 -45v-359q0 -143 -79.5 -225.5t-216.5 -82.5zM512 882
q0 -29 -23 -51.5t-92 -58.5l-40 13v2q59 33 80 50.5t21 35.5q0 16 -15.5 25t-41.5 9q-28 0 -57 -9t-63 -28h-1v48q31 18 61 26t64 8q49 0 78 -19t29 -51z" />
    <glyph glyph-name="uni1EED" unicode="&#x1eed;" horiz-adv-x="625" 
d="M512 0h-66v102q-44 -59 -88.5 -86t-98.5 -27q-80 0 -128 52.5t-48 142.5v310h66v-305q0 -66 33.5 -103t92.5 -37q43 0 83 24t88 80v341h23q54 0 80 16.5t26 49.5q0 11 -1.5 21.5t-5.5 22.5h59q4 -10 5.5 -20t1.5 -23q0 -47 -31.5 -75t-90.5 -35v-451zM415 727
q0 -31 -22 -59t-92 -77l-38 12v2q62 50 80.5 70.5t18.5 40.5q0 19 -14 30t-39 11q-27 0 -54.5 -12t-59.5 -37h-1v57q28 22 57.5 32.5t62.5 10.5q46 0 73.5 -22t27.5 -59z" />
    <glyph glyph-name="uni1EEE" unicode="&#x1eee;" horiz-adv-x="810" 
d="M392 -12q-137 0 -216.5 82.5t-79.5 224.5v405h70v-407q0 -112 61 -176t167 -64q105 0 165.5 64t60.5 178v405h21q61 0 91 21.5t30 65.5q0 16 -2 29t-7 25h64q4 -12 6 -24.5t2 -25.5q0 -56 -35 -91t-102 -45v-359q0 -143 -79.5 -225.5t-216.5 -82.5zM405 862
q33 -21 47 -27.5t23 -6.5q15 0 29 14t48 65l31 -21q-41 -69 -63.5 -91t-50.5 -22q-13 0 -31 8t-57 33q-33 21 -47 27.5t-23 6.5q-15 0 -29 -14t-48 -65l-31 21q41 69 63.5 91t50.5 22q13 0 31 -8t57 -33z" />
    <glyph glyph-name="uni1EEF" unicode="&#x1eef;" horiz-adv-x="625" 
d="M512 0h-66v102q-44 -59 -88.5 -86t-98.5 -27q-80 0 -128 52.5t-48 142.5v310h66v-305q0 -66 33.5 -103t92.5 -37q43 0 83 24t88 80v341h23q54 0 80 16.5t26 49.5q0 11 -1.5 21.5t-5.5 22.5h59q4 -10 5.5 -20t1.5 -23q0 -47 -31.5 -75t-90.5 -35v-451zM312 693
q32 -23 45 -30t22 -7q14 0 28 15.5t49 74.5l34 -20q-42 -79 -65 -103.5t-51 -24.5q-14 0 -32.5 9.5t-57.5 38.5q-32 23 -45 30t-22 7q-15 0 -29 -15.5t-48 -73.5l-34 20q41 78 64 102.5t52 24.5q14 0 32.5 -9.5t57.5 -38.5z" />
    <glyph glyph-name="uni1EF0" unicode="&#x1ef0;" horiz-adv-x="810" 
d="M392 -12q-137 0 -216.5 82.5t-79.5 224.5v405h70v-407q0 -112 61 -176t167 -64q105 0 165.5 64t60.5 178v405h21q61 0 91 21.5t30 65.5q0 16 -2 29t-7 25h64q4 -12 6 -24.5t2 -25.5q0 -56 -35 -91t-102 -45v-359q0 -143 -79.5 -225.5t-216.5 -82.5zM393 -191
q-20 0 -34.5 14.5t-14.5 34.5t14.5 34.5t34.5 14.5t34.5 -14.5t14.5 -34.5t-14.5 -34.5t-34.5 -14.5z" />
    <glyph glyph-name="uni1EF1" unicode="&#x1ef1;" horiz-adv-x="625" 
d="M512 0h-66v102q-44 -59 -88.5 -86t-98.5 -27q-80 0 -128 52.5t-48 142.5v310h66v-305q0 -66 33.5 -103t92.5 -37q43 0 83 24t88 80v341h23q54 0 80 16.5t26 49.5q0 11 -1.5 21.5t-5.5 22.5h59q4 -10 5.5 -20t1.5 -23q0 -47 -31.5 -75t-90.5 -35v-451zM298 -186
q-20 0 -34.5 14.5t-14.5 34.5t14.5 34.5t34.5 14.5t34.5 -14.5t14.5 -34.5t-14.5 -34.5t-34.5 -14.5z" />
    <glyph glyph-name="Ygrave" unicode="&#x1ef2;" horiz-adv-x="660" 
d="M366 319v-319h-70v317l-277 383h84l229 -320l228 320h81zM263 914l90 -141h-37l-150 140v1h97z" />
    <glyph glyph-name="ygrave" unicode="&#x1ef3;" horiz-adv-x="533" 
d="M114 -191q-20 0 -39.5 5t-40.5 16l-13 67l2 2q23 -15 42.5 -21.5t39.5 -6.5q38 1 65 25t48 76l23 52l-215 470h73l176 -397l162 397h73l-231 -543q-30 -73 -70 -107t-95 -35zM194 758l91 -162h-33l-147 161v1h89z" />
    <glyph glyph-name="uni1EF4" unicode="&#x1ef4;" horiz-adv-x="660" 
d="M366 319v-319h-70v317l-277 383h84l229 -320l228 320h81zM330 -186q-20 0 -34.5 14.5t-14.5 34.5t14.5 34.5t34.5 14.5t34.5 -14.5t14.5 -34.5t-14.5 -34.5t-34.5 -14.5z" />
    <glyph glyph-name="uni1EF5" unicode="&#x1ef5;" horiz-adv-x="533" 
d="M114 -191q-20 0 -39.5 5t-40.5 16l-13 67l2 2q23 -15 42.5 -21.5t39.5 -6.5q38 1 65 25t48 76l23 52l-215 470h73l176 -397l162 397h73l-231 -543q-30 -73 -70 -107t-95 -35zM426 -186q-20 0 -34.5 14.5t-14.5 34.5t14.5 34.5t34.5 14.5t34.5 -14.5t14.5 -34.5
t-14.5 -34.5t-34.5 -14.5z" />
    <glyph glyph-name="uni1EF6" unicode="&#x1ef6;" horiz-adv-x="660" 
d="M366 319v-319h-70v317l-277 383h84l229 -320l228 320h81zM449 882q0 -29 -23 -51.5t-92 -58.5l-40 13v2q59 33 80 50.5t21 35.5q0 16 -15.5 25t-41.5 9q-28 0 -57 -9t-63 -28h-1v48q31 18 61 26t64 8q49 0 78 -19t29 -51z" />
    <glyph glyph-name="uni1EF7" unicode="&#x1ef7;" horiz-adv-x="533" 
d="M114 -191q-20 0 -39.5 5t-40.5 16l-13 67l2 2q23 -15 42.5 -21.5t39.5 -6.5q38 1 65 25t48 76l23 52l-215 470h73l176 -397l162 397h73l-231 -543q-30 -73 -70 -107t-95 -35zM382 727q0 -31 -22 -59t-92 -77l-38 12v2q62 50 80.5 70.5t18.5 40.5q0 19 -14 30t-39 11
q-27 0 -54.5 -12t-59.5 -37h-1v57q28 22 57.5 32.5t62.5 10.5q46 0 73.5 -22t27.5 -59z" />
    <glyph glyph-name="uni1EF8" unicode="&#x1ef8;" horiz-adv-x="660" 
d="M366 319v-319h-70v317l-277 383h84l229 -320l228 320h81zM342 862q33 -21 47 -27.5t23 -6.5q15 0 29 14t48 65l31 -21q-41 -69 -63.5 -91t-50.5 -22q-13 0 -31 8t-57 33q-33 21 -47 27.5t-23 6.5q-15 0 -29 -14t-48 -65l-31 21q41 69 63.5 91t50.5 22q13 0 31 -8t57 -33z
" />
    <glyph glyph-name="uni1EF9" unicode="&#x1ef9;" horiz-adv-x="533" 
d="M114 -191q-20 0 -39.5 5t-40.5 16l-13 67l2 2q23 -15 42.5 -21.5t39.5 -6.5q38 1 65 25t48 76l23 52l-215 470h73l176 -397l162 397h73l-231 -543q-30 -73 -70 -107t-95 -35zM279 693q32 -23 45 -30t22 -7q14 0 28 15.5t49 74.5l34 -20q-42 -79 -65 -103.5t-51 -24.5
q-14 0 -32.5 9.5t-57.5 38.5q-32 23 -45 30t-22 7q-15 0 -29 -15.5t-48 -73.5l-34 20q41 78 64 102.5t52 24.5q14 0 32.5 -9.5t57.5 -38.5z" />
    <glyph glyph-name="uni2002" unicode="&#x2002;" horiz-adv-x="500" 
 />
    <glyph glyph-name="uni2003" unicode="&#x2003;" horiz-adv-x="1000" 
 />
    <glyph glyph-name="uni2004" unicode="&#x2004;" horiz-adv-x="333" 
 />
    <glyph glyph-name="uni2005" unicode="&#x2005;" horiz-adv-x="250" 
 />
    <glyph glyph-name="uni2007" unicode="&#x2007;" horiz-adv-x="600" 
 />
    <glyph glyph-name="uni2009" unicode="&#x2009;" horiz-adv-x="125" 
 />
    <glyph glyph-name="uni200A" unicode="&#x200a;" horiz-adv-x="42" 
 />
    <glyph glyph-name="uni2011" unicode="&#x2011;" horiz-adv-x="371" 
d="M60 240v63h250v-63h-250z" />
    <glyph glyph-name="figuredash" unicode="&#x2012;" horiz-adv-x="600" 
d="M78 318v64h444v-64h-444z" />
    <glyph glyph-name="endash" unicode="&#x2013;" horiz-adv-x="545" 
d="M60 241v61h424v-61h-424z" />
    <glyph glyph-name="emdash" unicode="&#x2014;" horiz-adv-x="925" 
d="M60 241v61h804v-61h-804z" />
    <glyph glyph-name="uni2015" unicode="&#x2015;" horiz-adv-x="925" 
d="M60 241v61h804v-61h-804z" />
    <glyph glyph-name="quoteleft" unicode="&#x2018;" horiz-adv-x="201" 
d="M101 547q0 -24 10 -47.5t47 -79.5h-72q-27 39 -37 64.5t-10 51.5q0 31 18.5 64t88.5 107l23 -18q-37 -51 -52.5 -83.5t-15.5 -58.5z" />
    <glyph glyph-name="quoteright" unicode="&#x2019;" horiz-adv-x="201" 
d="M99 574q0 24 -10 47.5t-47 78.5h73q26 -38 36 -63.5t10 -52.5q0 -22 -9 -44.5t-29 -48.5q-7 -9 -15.5 -19.5t-52.5 -58.5l-24 18q36 48 52 82t16 61z" />
    <glyph glyph-name="quotesinglbase" unicode="&#x201a;" horiz-adv-x="188" 
d="M88 -15q0 24 -10 47.5t-47 78.5h73q26 -38 36 -63.5t10 -52.5q0 -22 -9 -44.5t-29 -48.5q-7 -9 -15.5 -19.5t-52.5 -58.5l-24 18q36 48 52 82t16 61z" />
    <glyph glyph-name="quotedblleft" unicode="&#x201c;" horiz-adv-x="381" 
d="M282 547q0 -24 10 -47.5t47 -79.5h-73q-26 40 -36 65t-10 51q0 31 18.5 64t88.5 107l23 -18q-36 -48 -52 -81.5t-16 -60.5zM101 547q0 -24 10 -47.5t47 -79.5h-72q-27 39 -37 64.5t-10 51.5q0 31 18.5 64t88.5 107l23 -18q-37 -51 -52.5 -83.5t-15.5 -58.5z" />
    <glyph glyph-name="quotedblright" unicode="&#x201d;" horiz-adv-x="381" 
d="M99 574q0 24 -10 47.5t-47 78.5h73q26 -38 36 -63.5t10 -52.5q0 -22 -9 -44.5t-29 -48.5q-7 -9 -15.5 -19.5t-52.5 -58.5l-24 18q36 48 52 82t16 61zM280 574q0 24 -10 47.5t-47 78.5h73q26 -38 36 -63.5t10 -52.5q0 -29 -17.5 -61t-89.5 -110l-23 18q36 48 52 82t16 61z
" />
    <glyph glyph-name="quotedblbase" unicode="&#x201e;" horiz-adv-x="369" 
d="M88 -15q0 24 -10 47.5t-47 78.5h73q26 -38 36 -63.5t10 -52.5q0 -22 -9 -44.5t-29 -48.5q-7 -9 -15.5 -19.5t-52.5 -58.5l-24 18q36 48 52 82t16 61zM269 -15q0 24 -10 47.5t-47 78.5h73q26 -38 36 -63.5t10 -52.5q0 -29 -17.5 -61t-89.5 -110l-23 18q36 48 52 82t16 61z
" />
    <glyph glyph-name="uni201F" unicode="&#x201f;" horiz-adv-x="381" 
d="M266 700h73q-37 -55 -47 -78.5t-10 -47.5q0 -27 16 -61t52 -82l-23 -18q-72 78 -89.5 110t-17.5 61q0 26 10 51t36 65zM86 700h72q-37 -55 -47 -78.5t-10 -47.5q0 -26 15.5 -59.5t52.5 -83.5l-23 -18q-72 78 -89.5 110t-17.5 61q0 26 10 51.5t37 64.5z" />
    <glyph glyph-name="dagger" unicode="&#x2020;" horiz-adv-x="532" 
d="M259 534l-31 170h76l-31 -170h-14zM304 502l170 33v-76l-170 29v14zM228 502v-14l-170 -29v76zM258 -10l-29 298l30 170h14l30 -170l-29 -298h-16z" />
    <glyph glyph-name="daggerdbl" unicode="&#x2021;" horiz-adv-x="532" 
d="M259 534l-31 170h76l-31 -170h-14zM304 502l170 33v-76l-170 29v14zM228 502v-14l-170 -29v76zM259 242l-30 108l30 108h14l30 -108l-30 -108h-14zM228 210v-14l-170 -30v76zM304 210l170 32v-76l-170 30v14zM273 166l31 -170h-76l31 170h14z" />
    <glyph glyph-name="bullet" unicode="&#x2022;" horiz-adv-x="445" 
d="M223 238q-48 0 -82 34.5t-34 82.5q0 47 34.5 81.5t81.5 34.5q48 0 81.5 -34t33.5 -82q0 -49 -33.5 -83t-81.5 -34z" />
    <glyph glyph-name="ellipsis" unicode="&#x2026;" horiz-adv-x="542" 
d="M452 -7q-21 0 -36 15t-15 36t15 36t36 15t36 -15t15 -36t-15 -36t-36 -15zM271 -7q-21 0 -36 15t-15 36t15 36t36 15t36 -15t15 -36t-15 -36t-36 -15zM89 -7q-21 0 -36 15t-15 36t15 36t36 15t36 -15t15 -36t-15 -36t-36 -15z" />
    <glyph glyph-name="uni202F" unicode="&#x202f;" horiz-adv-x="125" 
 />
    <glyph glyph-name="guilsinglleft" unicode="&#x2039;" horiz-adv-x="385" 
d="M291 501l26 -15l-184 -238l184 -240l-26 -15l-237 248v12z" />
    <glyph glyph-name="guilsinglright" unicode="&#x203a;" horiz-adv-x="385" 
d="M94 -7l-26 15l184 238l-184 240l26 15l237 -248v-12z" />
    <glyph glyph-name="fraction" unicode="&#x2044;" horiz-adv-x="102" 
d="M-157 -2h-58l249 363l225 341h58l-249 -363z" />
    <glyph glyph-name="uni20A6" unicode="&#x20a6;" horiz-adv-x="891" 
d="M213 450h130l-130 196v-196zM517 296h161v110h-234zM213 296h232l-73 110h-159v-110zM546 252l132 -199v199h-132zM742 0h-101l-166 250h-262v-250h-64v250h-110v46h110v110h-110v46h110v248h100l164 -248h265v248h64v-248h110v-46h-110v-110h110v-46h-110v-250z" />
    <glyph glyph-name="uni20A9" unicode="&#x20a9;" horiz-adv-x="1134" 
d="M509 447h116l-58 198zM727 300h142l27 104h-199zM267 300h141l30 104h-197zM466 299h201l-30 104h-141zM740 256l63 -215l55 215h-118zM278 256l55 -214l62 214h-117zM377 -6h-92l-70 260h-154v45h141l-28 105h-124v45h112l-68 251h71l64 -251h223l74 255h84l74 -255h224
l64 251h68l-68 -251h112v-45h-124l-28 -105h141v-45h-154l-70 -260h-93l-75 260h-228z" />
    <glyph glyph-name="dong" unicode="&#x20ab;" horiz-adv-x="608" 
d="M118 222q0 -76 46 -124t115 -48q39 0 73 14.5t71 46.5v242q-33 24 -65.5 35t-68.5 11q-74 0 -122.5 -49.5t-48.5 -127.5zM487 -1h-63v66q-38 -39 -76 -56.5t-84 -17.5q-89 0 -150 64.5t-61 162.5q0 103 65 170.5t157 67.5q42 0 78 -12t70 -38v155h-191v45h191v94h64v-94
h84v-45h-84v-562zM503 -157h-444v46h444v-46z" />
    <glyph glyph-name="Euro" unicode="&#x20ac;" horiz-adv-x="669" 
d="M608 106l-10 -74q-45 -25 -83 -34.5t-90 -9.5q-110 0 -184 69.5t-96 192.5h-113v46h107q-1 20 -1.5 31.5t-0.5 21.5q0 15 0.5 29.5t2.5 28.5h-108v46h115q24 120 99 189.5t182 69.5q49 0 91 -11t88 -36v-73h-2q-54 33 -92 45.5t-81 12.5q-81 0 -138.5 -52t-77.5 -145h300
v-46h-308q-1 -13 -2 -27.5t-1 -28.5t1 -28t2 -27h308v-46h-301q20 -94 76.5 -147t136.5 -53q48 0 88 12.5t90 43.5h2z" />
    <glyph glyph-name="uni20B1" unicode="&#x20b1;" horiz-adv-x="660" 
d="M321 641h-115v-142h289q-6 65 -53 103.5t-121 38.5zM206 317h112q73 0 121 38t56 102h-289v-140zM315 258h-109v-258h-64v455h-110v46h110v199h182q103 0 167 -53.5t70 -145.5h84v-46h-85q-10 -89 -77 -143t-168 -54z" />
    <glyph glyph-name="uni20B9" unicode="&#x20b9;" horiz-adv-x="606" 
d="M209 236l313 -234v-2h-98l-361 272l3 12h54q108 0 172 40.5t73 114.5h-298v46h298q-9 72 -71 112.5t-164 40.5h-66v62h482v-46h-237q55 -26 87 -69.5t38 -99.5h108v-46h-108q-8 -81 -67 -134t-158 -69z" />
    <glyph glyph-name="uni20BA" unicode="&#x20ba;" horiz-adv-x="597" 
d="M269 -5q-33 0 -64.5 4.5t-62.5 14.5v222l-110 -51v60l110 49v122l-110 -51v60l110 49v226h67v-196l226 103v-59l-226 -102v-122l226 103v-59l-226 -102v-204q17 -4 33 -5.5t33 -1.5q89 0 158.5 48.5t114.5 140.5h2l20 -74q-43 -83 -122 -129t-179 -46z" />
    <glyph glyph-name="uni20BD" unicode="&#x20bd;" horiz-adv-x="597" 
d="M324 640h-115v-286h107q79 0 124.5 38.5t45.5 106.5q0 65 -43.5 103t-118.5 38zM501 198v-46h-291v-152h-68v152h-110v46h110v108h-110v46h110v348h185q105 0 166.5 -51.5t61.5 -141.5q0 -93 -65.5 -147t-175.5 -54h-104v-108h291z" />
    <glyph glyph-name="uni2117" unicode="&#x2117;" horiz-adv-x="890" 
d="M160 68q-57 55 -87.5 128t-30.5 153t31 153t88 129q57 55 131 85t154 30q81 0 154 -29.5t130 -84.5t87.5 -128t30.5 -153t-31 -153t-88 -129q-57 -55 -131 -85t-154 -30q-81 0 -154 29.5t-130 84.5zM445 718q-155 0 -264 -107t-109 -261t109 -261t264 -107
q156 0 264.5 107t108.5 261t-108.5 261t-264.5 107zM466 537h-86v-188h86q50 0 81 26.5t31 69.5q0 42 -30.5 67t-81.5 25zM629 445q0 -63 -46.5 -101.5t-119.5 -38.5h-83v-180h-52v456h140q74 0 117.5 -36.5t43.5 -99.5z" />
    <glyph glyph-name="uni2120" unicode="&#x2120;" horiz-adv-x="964" 
d="M176 484q-74 29 -97.5 55t-23.5 62q0 47 36 76t94 29q33 0 61.5 -8t53.5 -24v-54q-28 19 -58.5 30t-59.5 11q-34 0 -55 -15.5t-21 -40.5q0 -21 17 -37t73 -39q73 -29 96.5 -55t23.5 -62q0 -49 -38.5 -80t-97.5 -31q-34 0 -66 10.5t-60 30.5l-9 58q34 -26 70.5 -40
t68.5 -14q36 0 59.5 17.5t23.5 44.5q0 21 -17 37t-74 39zM656 301h-10l-181 343v-337h-49v393h75l160 -310l161 310h74v-393h-50v337z" />
    <glyph glyph-name="trademark" unicode="&#x2122;" horiz-adv-x="1011" 
d="M387 700v-46h-156v-348h-50v348h-156v46h362zM703 301h-10l-180 343v-337h-49v393h74l161 -310l161 310h74v-393h-50v337z" />
    <glyph glyph-name="onethird" unicode="&#x2153;" horiz-adv-x="806" 
d="M199 705v-418h-54v336l-116 -73v58l161 99zM164 -2h-58l249 363l225 341h58l-249 -363zM766 107q0 -49 -41 -81t-100 -32q-34 0 -64 8t-59 26l-9 58l2 1q34 -24 65 -35.5t63 -11.5q38 0 62.5 19t24.5 49q0 35 -35.5 56.5t-110.5 32.5v24q75 21 106.5 42t31.5 52
q0 25 -20.5 41t-52.5 16q-27 0 -57 -12.5t-63 -36.5h-2v56q31 21 62 30.5t65 9.5q56 0 89.5 -27.5t33.5 -72.5q0 -34 -24 -60.5t-70 -43.5q49 -14 76 -42t27 -66z" />
    <glyph glyph-name="twothirds" unicode="&#x2154;" horiz-adv-x="889" 
d="M304 287h-264l-5 18l150 172q37 42 49.5 65.5t12.5 46.5q0 30 -20 49t-52 19t-63 -20.5t-62 -63.5h-2l-8 58q28 37 63.5 56t75.5 19q55 0 89 -30.5t34 -80.5q0 -32 -15 -62t-57 -77l-109 -121h207zM247 -2h-58l249 363l225 341h58l-249 -363zM848 107q0 -49 -41 -81
t-100 -32q-34 0 -64 8t-59 26l-9 58l2 1q34 -24 65 -35.5t63 -11.5q38 0 62.5 19t24.5 49q0 35 -35.5 56.5t-110.5 32.5v24q75 21 106.5 42t31.5 52q0 25 -20.5 41t-52.5 16q-27 0 -57 -12.5t-63 -36.5h-2v56q31 21 62 30.5t65 9.5q56 0 89.5 -27.5t33.5 -72.5
q0 -34 -24 -60.5t-70 -43.5q49 -14 76 -42t27 -66z" />
    <glyph glyph-name="oneeighth" unicode="&#x215b;" horiz-adv-x="822" 
d="M199 705v-418h-54v336l-116 -73v58l161 99zM164 -2h-58l249 363l225 341h58l-249 -363zM782 108q0 -50 -43 -82.5t-109 -32.5t-109 32.5t-43 82.5q0 34 21 61t59 41q-32 15 -50 40t-18 57q0 48 40 80.5t100 32.5q61 0 100.5 -32.5t39.5 -80.5q0 -31 -18 -56.5t-49 -40.5
q37 -15 58 -41.5t21 -60.5zM630 376q-38 0 -62.5 -20.5t-24.5 -51.5q0 -32 25 -53t62 -21t62.5 21t25.5 53q0 31 -25 51.5t-63 20.5zM630 188q-42 0 -70 -21.5t-28 -54.5q0 -34 27.5 -55t71.5 -21t71 21t27 55q0 33 -28.5 54.5t-70.5 21.5z" />
    <glyph glyph-name="threeeighths" unicode="&#x215c;" horiz-adv-x="875" 
d="M307 394q0 -49 -41 -81t-100 -32q-34 0 -64 8t-59 26l-9 58l2 1q34 -24 65 -35.5t63 -11.5q38 0 62.5 19t24.5 49q0 35 -35.5 56.5t-110.5 32.5v24q75 21 106.5 42t31.5 52q0 25 -20.5 41t-52.5 16q-27 0 -57 -12.5t-63 -36.5h-2v56q31 21 62 30.5t65 9.5
q56 0 89.5 -27.5t33.5 -72.5q0 -34 -24 -60.5t-70 -43.5q49 -14 76 -42t27 -66zM217 -2h-58l249 363l225 341h58l-249 -363zM835 108q0 -50 -43 -82.5t-109 -32.5t-109 32.5t-43 82.5q0 34 21 61t59 41q-32 15 -50 40t-18 57q0 48 40 80.5t100 32.5q61 0 100.5 -32.5
t39.5 -80.5q0 -31 -18 -56.5t-49 -40.5q37 -15 58 -41.5t21 -60.5zM683 376q-38 0 -62.5 -20.5t-24.5 -51.5q0 -32 25 -53t62 -21t62.5 21t25.5 53q0 31 -25 51.5t-63 20.5zM683 188q-42 0 -70 -21.5t-28 -54.5q0 -34 27.5 -55t71.5 -21t71 21t27 55q0 33 -28.5 54.5
t-70.5 21.5z" />
    <glyph glyph-name="fiveeighths" unicode="&#x215d;" horiz-adv-x="886" 
d="M325 417q0 -60 -45 -98.5t-115 -38.5q-32 0 -60 6.5t-55 20.5l-7 54l2 1q32 -18 60 -26.5t58 -8.5q47 0 77.5 25t30.5 64q0 38 -27.5 60t-75.5 22q-24 0 -51.5 -6t-52.5 -16l-8 3l15 221h235v-48h-189l-10 -119q16 5 34.5 7.5t37.5 2.5q66 0 106 -34t40 -92zM228 -2h-58
l249 363l225 341h58l-249 -363zM846 108q0 -50 -43 -82.5t-109 -32.5t-109 32.5t-43 82.5q0 34 21 61t59 41q-32 15 -50 40t-18 57q0 48 40 80.5t100 32.5q61 0 100.5 -32.5t39.5 -80.5q0 -31 -18 -56.5t-49 -40.5q37 -15 58 -41.5t21 -60.5zM694 376q-38 0 -62.5 -20.5
t-24.5 -51.5q0 -32 25 -53t62 -21t62.5 21t25.5 53q0 31 -25 51.5t-63 20.5zM694 188q-42 0 -70 -21.5t-28 -54.5q0 -34 27.5 -55t71.5 -21t71 21t27 55q0 33 -28.5 54.5t-70.5 21.5z" />
    <glyph glyph-name="seveneighths" unicode="&#x215e;" horiz-adv-x="818" 
d="M328 693l-196 -406h-59l180 365h-216l-10 48h297zM160 -2h-58l249 363l225 341h58l-249 -363zM777 108q0 -50 -43 -82.5t-109 -32.5t-109 32.5t-43 82.5q0 34 21 61t59 41q-32 15 -50 40t-18 57q0 48 40 80.5t100 32.5q61 0 100.5 -32.5t39.5 -80.5q0 -31 -18 -56.5
t-49 -40.5q37 -15 58 -41.5t21 -60.5zM625 376q-38 0 -62.5 -20.5t-24.5 -51.5q0 -32 25 -53t62 -21t62.5 21t25.5 53q0 31 -25 51.5t-63 20.5zM625 188q-42 0 -70 -21.5t-28 -54.5q0 -34 27.5 -55t71.5 -21t71 21t27 55q0 33 -28.5 54.5t-70.5 21.5z" />
    <glyph glyph-name="minus" unicode="&#x2212;" horiz-adv-x="600" 
d="M550 381v-59h-500v59h500z" />
    <glyph glyph-name="approxequal" unicode="&#x2248;" horiz-adv-x="600" 
d="M190 553q16 0 41 -11t81 -45q47 -29 66.5 -38t30.5 -9q23 0 42 21.5t51 81.5l41 -21q-41 -85 -70 -117t-66 -32q-16 0 -41 11t-81 45q-47 29 -66.5 38t-30.5 9q-23 0 -42 -21.5t-51 -81.5l-41 21q41 85 70 117t66 32zM193 320q16 0 41 -11t81 -46q47 -29 66.5 -38
t30.5 -9q22 0 41 21t52 82l41 -20q-41 -85 -70 -117t-66 -32q-16 0 -41 11t-81 45q-47 29 -66.5 38t-30.5 9q-23 0 -42 -21.5t-51 -81.5l-41 21q41 85 70 117t66 32z" />
    <glyph glyph-name="notequal" unicode="&#x2260;" horiz-adv-x="600" 
d="M540 281v-59h-277l-66 -140l-40 18l57 122h-154v59h182l67 141h-249v59h277l66 141l40 -19l-58 -122h155v-59h-182l-67 -141h249z" />
    <glyph glyph-name="uni237F" unicode="&#x237f;" horiz-adv-x="530" 
d="M294 236v-325h-59v325q-40 8 -65.5 40t-25.5 74q0 41 25.5 73t65.5 40v317h59v-316q40 -8 66 -40.5t26 -73.5t-26 -73.5t-66 -40.5z" />
    <glyph glyph-name="uniA788" unicode="&#xa788;" horiz-adv-x="500" 
d="M407 -257h-34l-123 106l-122 -106h-35v1l126 161h62l126 -161v-1z" />
    <glyph glyph-name="G.alt" horiz-adv-x="800" 
d="M747 356v-18q0 -159 -93 -255.5t-246 -96.5q-149 0 -249 101.5t-100 257.5q0 158 104.5 262.5t260.5 104.5q78 0 149 -28t129 -82l-15 -78h-2q-59 60 -125.5 91t-137.5 31q-123 0 -207 -86.5t-84 -213.5q0 -128 80.5 -211.5t198.5 -83.5q110 0 181 65t83 175h-260v65h333
z" />
    <glyph glyph-name="Q.alt" horiz-adv-x="850" 
d="M131 352q0 -125 84 -212t205 -87q50 0 94.5 16t84.5 47l-139 119l46 52l141 -124q33 40 50 88t17 102q0 123 -86 209.5t-208 86.5q-120 0 -204.5 -86.5t-84.5 -210.5zM784 47l-46 -53l-88 77q-50 -41 -109 -62t-122 -21q-151 0 -255.5 105t-104.5 257q0 153 105.5 258.5
t258.5 105.5q152 0 257.5 -104t105.5 -255q0 -65 -22.5 -126t-64.5 -110z" />
    <glyph glyph-name="a.alt" horiz-adv-x="617" 
d="M117 238q0 -84 47.5 -135.5t121.5 -51.5q44 0 85.5 20.5t87.5 64.5v270q-36 19 -70.5 28t-70.5 9q-86 0 -143.5 -58.5t-57.5 -146.5zM545 0h-66l-16 89q-46 -52 -92 -75.5t-99 -23.5q-95 0 -159 69t-64 175q0 116 77.5 192t190.5 76q38 0 75.5 -9.5t78.5 -30.5l42 32h12
v-352z" />
    <glyph glyph-name="a.sc" horiz-adv-x="662" 
d="M201 202h259l-129 285zM623 0h-73l-65 144h-310l-66 -144h-70l261 555h67z" />
    <glyph glyph-name="b.sc" horiz-adv-x="547" 
d="M492 153q0 -69 -54 -111t-143 -42h-200v552h195q81 0 128.5 -38.5t47.5 -104.5q0 -41 -23 -72.5t-66 -50.5q55 -15 85 -49.5t30 -83.5zM286 493h-126v-183h119q54 0 87.5 25.5t33.5 67.5t-30.5 66t-83.5 24zM160 252v-193h137q57 0 92.5 27t35.5 71q0 43 -35.5 69
t-93.5 26h-136z" />
    <glyph glyph-name="c.sc" horiz-adv-x="603" 
d="M335 -11q-118 0 -199 81t-81 205q0 121 83.5 204t203.5 83q56 0 106 -18.5t87 -53.5v-80h-2q-44 45 -92.5 68t-99.5 23q-89 0 -153.5 -66t-64.5 -158q0 -97 64 -161.5t154 -64.5q53 0 103.5 23t96.5 68l2 -1l-9 -77q-44 -37 -93.5 -56t-105.5 -19z" />
    <glyph glyph-name="d.sc" horiz-adv-x="650" 
d="M527 275q0 99 -67.5 158t-178.5 59h-120v-432h123q106 0 174.5 59.5t68.5 155.5zM282 0h-187v552h187q142 0 227.5 -75t85.5 -200q0 -124 -87.5 -200.5t-225.5 -76.5z" />
    <glyph glyph-name="e.sc" horiz-adv-x="507" 
d="M440 0h-345v552h343l18 -60h-295v-183h250v-58h-250v-191h298z" />
    <glyph glyph-name="f.sc" horiz-adv-x="480" 
d="M401 298v-59h-240v-239h-66v552h355l-19 -60h-270v-194h240z" />
    <glyph glyph-name="g.sc" horiz-adv-x="646" 
d="M564 284v-228q-56 -34 -108.5 -49t-111.5 -15q-128 0 -208.5 78t-80.5 204q0 125 86.5 206.5t218.5 81.5q52 0 98.5 -11.5t94.5 -35.5v-72q-50 29 -97.5 43t-96.5 14q-101 0 -168.5 -63.5t-67.5 -160.5q0 -101 63.5 -162t164.5 -61q42 0 77.5 9t71.5 29v135h-170v58h234z
" />
    <glyph glyph-name="g.scalt" horiz-adv-x="657" 
d="M606 284v-18q0 -127 -73.5 -202.5t-195.5 -75.5q-119 0 -200.5 81.5t-81.5 204.5t84 206t207 83q63 0 118 -20.5t105 -63.5l-18 -67h-2q-49 46 -98 67.5t-105 21.5q-95 0 -159 -64.5t-64 -161.5t62.5 -161.5t153.5 -64.5q83 0 136 47.5t63 129.5h-199v58h267z" />
    <glyph glyph-name="h.sc" horiz-adv-x="675" 
d="M579 0h-66v250h-352v-250h-66v552h66v-241h352v241h66v-552z" />
    <glyph glyph-name="i.sc" horiz-adv-x="267" 
d="M166 0h-66v552h66v-552z" />
    <glyph glyph-name="j.sc" horiz-adv-x="397" 
d="M141 52q44 0 70 28.5t26 77.5v394h67v-403q0 -71 -42 -114t-111 -43q-31 0 -57.5 8t-49.5 24l-15 75h2q31 -25 57.5 -36t52.5 -11z" />
    <glyph glyph-name="k.sc" horiz-adv-x="580" 
d="M558 0h-88l-267 254h-42v-254h-66v552h66v-242h41l265 242h87v-2l-298 -266l302 -282v-2z" />
    <glyph glyph-name="l.sc" horiz-adv-x="476" 
d="M437 0h-342v552h66v-491h276v-61z" />
    <glyph glyph-name="m.sc" horiz-adv-x="856" 
d="M434 -9h-14l-260 491v-482h-64v552h99l233 -447l233 447h99v-552h-66v482z" />
    <glyph glyph-name="n.sc" horiz-adv-x="687" 
d="M591 -3h-29l-402 460v-457h-65v552h68l363 -419v419h65v-555z" />
    <glyph glyph-name="o.sc" horiz-adv-x="692" 
d="M347 566q121 0 205.5 -84.5t84.5 -205.5t-85 -205.5t-206 -84.5t-206 84.5t-85 204.5q0 121 85.5 206t206.5 85zM347 48q92 0 157 66t65 161q0 96 -65 162.5t-158 66.5t-158 -66t-65 -161q0 -96 65.5 -162.5t158.5 -66.5z" />
    <glyph glyph-name="p.sc" horiz-adv-x="522" 
d="M278 492h-117v-226h112q61 0 99 31.5t38 83.5q0 50 -36.5 80.5t-95.5 30.5zM476 383q0 -80 -56 -128t-147 -48h-112v-207h-66v552h185q89 0 142.5 -45.5t53.5 -123.5z" />
    <glyph glyph-name="q.sc" horiz-adv-x="692" 
d="M535 -123q-64 0 -111 26.5t-92 85.5q-117 5 -197 88t-80 199q0 120 85.5 205t206.5 85t205.5 -84.5t84.5 -204.5q0 -101 -62.5 -179t-159.5 -101q27 -34 58 -49t73 -15q19 0 36.5 2.5t34.5 8.5l1 -1l-20 -58q-14 -4 -29.5 -6t-33.5 -2zM347 48q92 0 157 66t65 161
q0 96 -65 162.5t-158 66.5t-158 -66t-65 -161q0 -96 65.5 -162.5t158.5 -66.5z" />
    <glyph glyph-name="q.scalt" horiz-adv-x="697" 
d="M123 277q0 -95 64.5 -162t154.5 -67q36 0 69.5 11t62.5 33l-111 99l41 43l112 -101q26 32 39.5 68t13.5 75q0 95 -65 161.5t-158 66.5t-158 -66t-65 -161zM628 34l-42 -43l-65 59q-38 -30 -84 -45.5t-97 -15.5q-118 0 -201.5 84.5t-83.5 203.5q0 120 85.5 204.5
t206.5 84.5q120 0 205 -84t85 -202q0 -52 -19 -100.5t-54 -89.5z" />
    <glyph glyph-name="r.sc" horiz-adv-x="559" 
d="M283 492h-122v-213h118q53 0 89 31t36 77q0 48 -33 76.5t-88 28.5zM547 0h-83l-198 221h-105v-221h-66v552h189q86 0 136.5 -43.5t50.5 -119.5q0 -58 -36 -100t-97 -58z" />
    <glyph glyph-name="s.sc" horiz-adv-x="497" 
d="M248 502q-48 0 -79.5 -23.5t-31.5 -60.5q0 -35 27.5 -58t109.5 -53q93 -34 128.5 -71t35.5 -94q0 -66 -54 -109t-136 -43q-49 0 -96.5 16.5t-88.5 47.5l-14 80l2 1q46 -40 98.5 -63t100.5 -23q54 0 88.5 25t34.5 65q0 36 -28.5 60t-111.5 54q-94 34 -128 69.5t-34 92.5
q0 63 51 104.5t129 41.5q44 0 84 -11t80 -36v-74l-1 1q-42 31 -83.5 46t-82.5 15z" />
    <glyph glyph-name="t.sc" horiz-adv-x="597" 
d="M558 552v-62h-226v-490h-67v490h-226v62h519z" />
    <glyph glyph-name="u.sc" horiz-adv-x="653" 
d="M326 -10q-111 0 -175 65.5t-64 178.5v318h67v-319q0 -86 46.5 -135t127.5 -49t127 49.5t46 136.5v317h64v-318q0 -113 -64 -178.5t-175 -65.5z" />
    <glyph glyph-name="v.sc" horiz-adv-x="641" 
d="M336 -8h-35l-263 560h74l209 -460l213 460h70z" />
    <glyph glyph-name="w.sc" horiz-adv-x="977" 
d="M305 -4h-61l-198 556h72l160 -470l205 475h15l202 -477l164 472h69l-202 -556h-62l-180 425z" />
    <glyph glyph-name="x.sc" horiz-adv-x="614" 
d="M572 0h-80l-186 236l-187 -236h-76l223 280l-217 272h79l180 -228l180 228h77l-218 -271z" />
    <glyph glyph-name="y.sc" horiz-adv-x="585" 
d="M326 247v-247h-66v247l-233 305h80l187 -250l187 250h77z" />
    <glyph glyph-name="z.sc" horiz-adv-x="589" 
d="M539 58l-21 -58h-466l-4 11l368 482h-340v59h451l5 -11l-370 -483h377z" />
    <glyph glyph-name="quoteleftreversed" horiz-adv-x="201" 
d="M86 700h72q-37 -55 -47 -78.5t-10 -47.5q0 -26 15.5 -59.5t52.5 -83.5l-23 -18q-72 78 -89.5 110t-17.5 61q0 26 10 51.5t37 64.5z" />
    <glyph glyph-name="guillemotleft.cap" horiz-adv-x="627" 
d="M533 610l26 -15l-174 -238l174 -240l-26 -15l-228 248v12zM281 610l26 -15l-174 -238l174 -240l-26 -15l-227 248v12z" />
    <glyph glyph-name="guillemotright.cap" horiz-adv-x="627" 
d="M94 102l-26 15l174 238l-174 240l26 15l227 -248v-12zM346 102l-26 15l173 238l-173 240l26 15l227 -248v-12z" />
    <glyph glyph-name="guilsinglleft.cap" horiz-adv-x="385" 
d="M291 610l26 -15l-184 -238l184 -240l-26 -15l-237 248v12z" />
    <glyph glyph-name="guilsinglright.cap" horiz-adv-x="385" 
d="M94 102l-26 15l184 238l-184 240l26 15l237 -248v-12z" />
    <glyph glyph-name="parenleft.cap" horiz-adv-x="398" 
d="M144 348q0 -120 54.5 -222.5t169.5 -197.5l-21 -25q-142 104 -204.5 209.5t-62.5 235.5t62.5 235.5t204.5 209.5l21 -25q-115 -95 -169.5 -197.5t-54.5 -222.5z" />
    <glyph glyph-name="parenright.cap" horiz-adv-x="398" 
d="M254 348q0 120 -54.5 222.5t-170.5 197.5l21 25q142 -103 204.5 -209t62.5 -236t-62.5 -236t-204.5 -209l-21 25q116 95 170.5 197.5t54.5 222.5z" />
    <glyph glyph-name="bracketleft.cap" horiz-adv-x="403" 
d="M351 -87h-238v870h238l13 -44h-188v-782h188z" />
    <glyph glyph-name="bracketright.cap" horiz-adv-x="403" 
d="M52 783h238v-870h-238l-13 44h188v782h-188z" />
    <glyph glyph-name="braceleft.cap" horiz-adv-x="492" 
d="M453 -43l-13 -44h-100q-84 0 -132.5 38.5t-48.5 105.5q0 20 6.5 43t26.5 66q17 35 22 51.5t5 29.5q0 33 -24 52t-78 26l-67 8v30l67 8q54 7 78 26t24 52q0 13 -5 29.5t-22 51.5q-20 43 -26.5 66t-6.5 43q0 67 48.5 105.5t132.5 38.5h100l13 -44h-102q-60 0 -92 -24.5
t-32 -70.5q0 -16 5.5 -34.5t22.5 -57.5q18 -41 23.5 -61.5t5.5 -37.5q0 -39 -23 -64.5t-73 -40.5q50 -15 73 -40.5t23 -64.5q0 -17 -5.5 -37.5t-23.5 -61.5q-17 -39 -22.5 -57.5t-5.5 -34.5q0 -46 32.5 -70.5t91.5 -24.5h102z" />
    <glyph glyph-name="braceright.cap" horiz-adv-x="492" 
d="M333 57q0 -67 -48.5 -105.5t-132.5 -38.5h-100l-13 44h102q60 0 92 24.5t32 70.5q0 16 -5.5 34.5t-22.5 57.5q-18 41 -23.5 61.5t-5.5 37.5q0 39 23 64.5t73 40.5q-50 15 -73 40.5t-23 64.5q0 17 5.5 37.5t23.5 61.5q17 39 22.5 57.5t5.5 34.5q0 46 -32.5 70.5
t-91.5 24.5h-102l13 44h100q84 0 132.5 -38.5t48.5 -105.5q0 -20 -6.5 -43t-26.5 -66q-17 -35 -22 -51.5t-5 -29.5q0 -33 24 -52t78 -26l67 -8v-30l-67 -8q-54 -7 -78 -26t-24 -52q0 -13 5 -29.5t22 -51.5q20 -43 26.5 -66t6.5 -43z" />
    <glyph glyph-name="slash.cap" horiz-adv-x="440" 
d="M68 -90h-58l354 870h59z" />
    <glyph glyph-name="bar.cap" horiz-adv-x="359" 
d="M209 780v-870h-59v870h59z" />
    <glyph glyph-name="backslash.cap" horiz-adv-x="440" 
d="M76 780l354 -870h-58l-355 870h59z" />
    <glyph glyph-name="hyphen.cap" horiz-adv-x="393" 
d="M65 327v62h263v-62h-263z" />
    <glyph glyph-name="endash.cap" horiz-adv-x="549" 
d="M62 328v61h424v-61h-424z" />
    <glyph glyph-name="emdash.cap" horiz-adv-x="929" 
d="M62 328v61h804v-61h-804z" />
    <glyph glyph-name="periodcentered.cap" horiz-adv-x="227" 
d="M114 297q-24 0 -41 17t-17 41t17 41t41 17t40.5 -17t16.5 -41t-16.5 -41t-40.5 -17z" />
    <glyph glyph-name="colon.fig" horiz-adv-x="233" 
d="M116 443q-22 0 -37.5 15.5t-15.5 37.5t15.5 37.5t37.5 15.5t38 -15.5t16 -37.5t-16 -37.5t-38 -15.5zM116 153q-22 0 -37.5 16t-15.5 38q0 21 16 37t37 16q22 0 38 -16t16 -37q0 -22 -15.5 -38t-38.5 -16z" />
    <glyph glyph-name="paragraph.alt" horiz-adv-x="534" 
d="M389 0v700h50v-700h-50zM303 700v-700h-49v146h-7q-86 0 -141.5 57.5t-55.5 151.5t55 151t143 57h6v137h49z" />
    <glyph glyph-name="zero.osf" horiz-adv-x="624" 
d="M311 -14q-112 0 -186 77.5t-74 192.5t75 193.5t187 78.5t186 -77.5t74 -192.5q0 -116 -74.5 -194t-187.5 -78zM507 256q0 89 -56.5 150.5t-139.5 61.5q-81 0 -137.5 -61t-56.5 -149q0 -89 56.5 -150.5t139.5 -61.5q81 0 137.5 61t56.5 149z" />
    <glyph glyph-name="one.osf" horiz-adv-x="402" 
d="M283 521v-521h-66v423l-178 -123v69l228 156z" />
    <glyph glyph-name="two.osf" horiz-adv-x="528" 
d="M494 59l-29 -59h-417l-4 14l242 214q56 49 78.5 81.5t22.5 64.5q0 42 -29.5 67t-78.5 25q-53 0 -102.5 -31.5t-103.5 -100.5h-1l-18 67q53 65 108 95t121 30q76 0 123 -41.5t47 -107.5q0 -44 -25.5 -83.5t-98.5 -104.5l-151 -130h316z" />
    </font>
</defs>
</svg>
