<?xml version="1.0" standalone="no"?>
<!DOCTYPE svg PUBLIC "-//W3C//DTD SVG 1.1//EN" "http://www.w3.org/Graphics/SVG/1.1/DTD/svg11.dtd" >
<svg xmlns="http://www.w3.org/2000/svg" xmlns:xlink="http://www.w3.org/1999/xlink" version="1.1">
<metadata>
Created by FontForge 20170731 at Wed Dec  2 22:55:42 2015
 By Aleksey,,,
(C) 2015 Frere-Jones Type LLC
</metadata>
<defs>
<font id="Mallory-Bold" horiz-adv-x="0" >
  <font-face 
    font-family="Mallory"
    font-weight="700"
    font-stretch="normal"
    units-per-em="1000"
    panose-1="2 1 8 1 3 5 1 2 3 4"
    ascent="800"
    descent="-200"
    x-height="511"
    cap-height="700"
    bbox="-412 -270 1483 1108"
    underline-thickness="50"
    underline-position="-225"
    unicode-range="U+000D-FB02"
  />
<missing-glyph horiz-adv-x="700" 
d="M600 960v-1200h-500v1200h500zM350 429l157 481h-315zM150 874v-1028l171 514zM550 -154v1028l-172 -514zM192 -190h315l-157 481z" />
    <glyph glyph-name="fi" unicode="fi" horiz-adv-x="727" 
d="M259 511h159v-118h-156v-393h-150v393h-82v118h82v50q0 92 51 144t141 52q55 0 109 -19l17 -122l-3 -2q-49 23 -89 23q-37 0 -58 -20.5t-21 -56.5v-49zM581 767q39 0 65.5 -25t26.5 -62t-26.5 -62t-65.5 -25t-65.5 25t-26.5 62t26.5 62t65.5 25zM656 511v-511h-151v511
h151z" />
    <glyph glyph-name="fl" unicode="fl" horiz-adv-x="727" 
d="M259 511h159v-118h-156v-393h-150v393h-82v118h82v50q0 92 51 144t141 52q55 0 109 -19l17 -122l-3 -2q-49 23 -89 23q-37 0 -58 -20.5t-21 -56.5v-49zM656 758v-758h-151v718z" />
    <glyph glyph-name="f_f" unicode="ff" horiz-adv-x="868" 
d="M259 511h159v-118h-156v-393h-150v393h-82v118h82v50q0 92 51 144t141 52q55 0 109 -19l17 -122l-3 -2q-49 23 -89 23q-37 0 -58 -20.5t-21 -56.5v-49zM693 511h159v-118h-156v-393h-150v393h-82v118h82v50q0 92 51 144t141 52q55 0 109 -19l17 -122l-3 -2q-49 23 -89 23
q-37 0 -58 -20.5t-21 -56.5v-49z" />
    <glyph glyph-name="f_f_i" unicode="ffi" horiz-adv-x="1161" 
d="M259 511h159v-118h-156v-393h-150v393h-82v118h82v50q0 92 51 144t141 52q55 0 109 -19l17 -122l-3 -2q-49 23 -89 23q-37 0 -58 -20.5t-21 -56.5v-49zM693 511h159v-118h-156v-393h-150v393h-82v118h82v50q0 92 51 144t141 52q55 0 109 -19l17 -122l-3 -2q-49 23 -89 23
q-37 0 -58 -20.5t-21 -56.5v-49zM1015 767q39 0 65.5 -25t26.5 -62t-26.5 -62t-65.5 -25t-65.5 25t-26.5 62t26.5 62t65.5 25zM1090 511v-511h-151v511h151z" />
    <glyph glyph-name="f_f_l" unicode="ffl" horiz-adv-x="1161" 
d="M259 511h159v-118h-156v-393h-150v393h-82v118h82v50q0 92 51 144t141 52q55 0 109 -19l17 -122l-3 -2q-49 23 -89 23q-37 0 -58 -20.5t-21 -56.5v-49zM693 511h159v-118h-156v-393h-150v393h-82v118h82v50q0 92 51 144t141 52q55 0 109 -19l17 -122l-3 -2q-49 23 -89 23
q-37 0 -58 -20.5t-21 -56.5v-49zM1090 758v-758h-151v718z" />
    <glyph glyph-name=".notdef" horiz-adv-x="700" 
d="M600 960v-1200h-500v1200h500zM350 429l157 481h-315zM150 874v-1028l171 514zM550 -154v1028l-172 -514zM192 -190h315l-157 481z" />
    <glyph glyph-name=".null" 
 />
    <glyph glyph-name="nonmarkingreturn" horiz-adv-x="333" 
 />
    <glyph glyph-name="null" 
 />
    <glyph glyph-name="null" 
 />
    <glyph glyph-name="CR" unicode="&#xd;" horiz-adv-x="219" 
 />
    <glyph glyph-name="space" unicode=" " horiz-adv-x="219" 
 />
    <glyph glyph-name="exclam" unicode="!" horiz-adv-x="286" 
d="M54 700h179v-72l-56 -379h-67l-56 379v72zM144 -10q-38 0 -65 27t-27 65t27 65t65 27t64.5 -27t26.5 -65t-26.5 -65t-64.5 -27z" />
    <glyph glyph-name="quotedbl" unicode="&#x22;" horiz-adv-x="518" 
d="M330 396l-65 18l70 286h172zM100 396l-64 18l70 286h171z" />
    <glyph glyph-name="numbersign" unicode="#" horiz-adv-x="694" 
d="M450 423h-164l-34 -146h163zM482 145l-35 -147h-99l35 147h-163l-35 -147h-99l35 147h-95v134h127l35 142h-112v134h144l35 147h98l-35 -147h164l35 147h98l-35 -147h87v-134h-119l-34 -142h103v-134h-135z" />
    <glyph glyph-name="dollar" unicode="$" horiz-adv-x="594" 
d="M323 -1l-13 -138h-106l14 142q-90 12 -161 59l-24 157l2 1q148 -93 253 -93q51 0 79 18.5t28 52.5t-28 53.5t-105 38.5q-124 32 -170 79q-47 49 -47 129q0 88 65.5 143.5t175.5 60.5l11 112h106l-11 -120q68 -12 125 -43v-149h-2q-50 31 -110 51t-108 20q-43 0 -68.5 -18
t-25.5 -48q0 -32 26 -50q25 -19 105 -40q128 -35 174 -81t46 -130q0 -88 -62 -143t-169 -64z" />
    <glyph glyph-name="percent" unicode="%" horiz-adv-x="921" 
d="M397 511q0 -91 -52 -147q-52 -58 -132 -58q-78 0 -129 57t-51 146q0 90 51 148q51 57 131 57q79 0 131 -57q51 -57 51 -146zM493 328l-215 -330h-107l255 374l216 330h108zM214 619q-33 0 -53 -29.5t-20 -78.5t20.5 -78.5t54.5 -29.5q33 0 53 29t20 78q0 50 -20 79.5
t-55 29.5zM525 189q0 90 51 148q51 57 130 57q80 0 131 -56q51 -57 51 -147t-51 -147q-52 -58 -132 -58q-79 0 -129 57q-51 56 -51 146zM707 82q34 0 54 29.5t20 77.5q0 50 -20.5 80t-54.5 30q-33 0 -53.5 -29.5t-20.5 -78.5t20.5 -79t54.5 -30z" />
    <glyph glyph-name="ampersand" unicode="&#x26;" horiz-adv-x="732" 
d="M346 603q-34 0 -54 -21t-20 -55q0 -43 44 -108q97 55 97 113q0 31 -19 51t-48 20zM180 186q0 -34 23.5 -56.5t60.5 -22.5q54 0 114 48q-61 63 -117 130q-81 -51 -81 -99zM718 3v-3h-176q-47 43 -84 77q-105 -86 -220 -86q-94 0 -149 51q-57 51 -57 133q0 123 165 198
q-59 91 -59 158q0 79 58 131t149 52q84 0 138 -48t54 -121q0 -110 -165 -199q62 -74 92 -104q42 47 97 124h147v-3q-100 -137 -162 -202q25 -25 59 -56q26 -25 113 -102z" />
    <glyph glyph-name="quotesingle" unicode="'" horiz-adv-x="293" 
d="M101 396l-65 18l70 286h175z" />
    <glyph glyph-name="parenleft" unicode="(" horiz-adv-x="440" 
d="M215 305q0 -114 49 -211.5t157 -195.5l-38 -43q-165 98 -241 206t-76 244t76 244t241 206l38 -43q-108 -98 -157 -195.5t-49 -211.5z" />
    <glyph glyph-name="parenright" unicode=")" horiz-adv-x="440" 
d="M225 305q0 114 -49.5 212t-156.5 195l38 43q165 -96 241 -205t76 -245t-76 -245t-241 -205l-38 43q107 97 156.5 195t49.5 212z" />
    <glyph glyph-name="asterisk" unicode="*" horiz-adv-x="535" 
d="M279 534h-23l-68 170h159zM316 490l-7 22l140 117l50 -151zM86 629l140 -117l-7 -22l-183 -12zM286 444l17 14l156 -99l-130 -92zM76 359l156 99l18 -14l-44 -177z" />
    <glyph glyph-name="plus" unicode="+" horiz-adv-x="600" 
d="M366 413h193v-126h-193v-193h-132v193h-193v126h193v192h132v-192z" />
    <glyph glyph-name="comma" unicode="," horiz-adv-x="243" 
d="M20 -176l-40 37q52 71 66 120q13 48 13 146v32h147q0 -106 -33 -172q-34 -65 -153 -163z" />
    <glyph glyph-name="hyphen" unicode="-" horiz-adv-x="400" 
d="M347 211h-294v135h294v-135z" />
    <glyph glyph-name="period" unicode="." horiz-adv-x="243" 
d="M122 -10q-39 0 -66.5 27.5t-27.5 66.5t27.5 66.5t66.5 27.5t66.5 -27.5t27.5 -66.5t-27.5 -66.5t-66.5 -27.5z" />
    <glyph glyph-name="slash" unicode="/" horiz-adv-x="482" 
d="M457 740l-351 -870h-114l351 870h114z" />
    <glyph glyph-name="zero" unicode="0" horiz-adv-x="694" 
d="M646 351q0 -160 -84 -262q-84 -103 -216 -103t-215 101t-83 262q0 159 84 262t216 103t215 -101q83 -103 83 -262zM346 576q-65 0 -104.5 -62t-39.5 -163q0 -102 40 -164.5t106 -62.5q65 0 104.5 62t39.5 163q0 102 -40 164q-40 63 -106 63z" />
    <glyph glyph-name="one" unicode="1" horiz-adv-x="454" 
d="M346 715l17 -5v-710h-155v474l-168 -99v163z" />
    <glyph glyph-name="two" unicode="2" horiz-adv-x="589" 
d="M556 136l-51 -136h-456l-10 69l245 275q43 50 61 83q15 29 15 60q0 36 -24 59t-62 23q-95 0 -206 -131h-2l-15 163q101 110 244 110q99 0 159 -55.5t60 -146.5q0 -57 -24 -106t-93 -126l-126 -143z" />
    <glyph glyph-name="three" unicode="3" horiz-adv-x="562" 
d="M517 189q0 -87 -71 -143q-70 -57 -176 -57q-114 0 -209 57l-19 155l2 1q113 -82 210 -82q48 0 78 22t30 58q0 44 -47 73q-48 28 -167 56v46q120 48 158 74q42 27 42 64q0 30 -24 48.5t-65 18.5q-86 0 -196 -81h-2v144q104 68 221 68q102 0 162 -48t60 -129
q0 -109 -131 -169q70 -23 107 -68.5t37 -107.5z" />
    <glyph glyph-name="four" unicode="4" horiz-adv-x="646" 
d="M367 557l-174 -298h174v298zM511 259h108v-117h-108v-142h-146v142h-345l-5 39l323 524h173v-446z" />
    <glyph glyph-name="five" unicode="5" horiz-adv-x="588" 
d="M543 226q0 -106 -75 -172q-76 -66 -199 -66q-113 0 -199 42l-15 143q113 -55 202 -55q58 0 93.5 29.5t35.5 77.5q0 50 -36 77t-102 27q-73 0 -161 -29l-13 7l26 393h410v-135h-293l-10 -129q41 9 86 9q117 0 183.5 -58t66.5 -161z" />
    <glyph glyph-name="six" unicode="6" horiz-adv-x="623" 
d="M585 242q0 -109 -77 -183q-77 -73 -197 -73q-121 0 -194 71q-72 71 -72 187q0 67 29 136q26 61 109 179l100 141h181l-166 -214q-10 -14 -22 -30q40 10 87 10q97 0 159 -61q63 -61 63 -163zM198 246q0 -59 31.5 -95t83.5 -36t86 34t34 85q0 55 -34.5 84.5t-97.5 29.5
q-31 0 -80 -7q-23 -50 -23 -95z" />
    <glyph glyph-name="seven" unicode="7" horiz-adv-x="599" 
d="M575 700l7 -11l-324 -689h-163l275 564h-310l-20 136h535z" />
    <glyph glyph-name="eight" unicode="8" horiz-adv-x="636" 
d="M589 186q0 -88 -75 -143q-76 -55 -197 -55q-124 0 -197 55q-74 54 -74 143q0 120 122 171q-49 25 -75 66.5t-26 93.5q0 86 70 141q69 54 182 54q112 0 181 -54q69 -56 69 -141q0 -52 -26 -93.5t-75 -66.5q121 -51 121 -171zM317 595q-46 0 -73.5 -25t-27.5 -66t29 -68
t74 -27q44 0 72.5 27t28.5 68q0 40 -28.5 65.5t-74.5 25.5zM317 301q-49 0 -82.5 -28t-33.5 -69q0 -44 32.5 -71.5t85.5 -27.5q52 0 84 27.5t32 71.5q0 41 -34.5 69t-83.5 28z" />
    <glyph glyph-name="nine" unicode="9" horiz-adv-x="623" 
d="M440 141l-100 -141h-181l166 214l13 19q-34 -8 -74 -8q-99 0 -163 62q-63 61 -63 166q0 112 77 187q77 74 197 74q123 0 194 -70q72 -70 72 -188q0 -69 -28 -134q-27 -65 -110 -181zM190 461q0 -118 132 -118q36 0 76 6q27 55 27 105q0 59 -32 95t-84 36q-53 0 -86 -34.5
t-33 -89.5z" />
    <glyph glyph-name="colon" unicode=":" horiz-adv-x="258" 
d="M129 333q-39 0 -66.5 27.5t-27.5 66.5t27.5 66.5t66.5 27.5t66.5 -27.5t27.5 -66.5t-27.5 -66.5t-66.5 -27.5zM129 -10q-39 0 -66.5 27.5t-27.5 66.5t27.5 66.5t66.5 27.5t66.5 -27.5t27.5 -66.5t-27.5 -66.5t-66.5 -27.5z" />
    <glyph glyph-name="semicolon" unicode=";" horiz-adv-x="258" 
d="M132 333q-39 0 -66.5 27.5t-27.5 65.5q0 39 27.5 66.5t66.5 27.5t66.5 -27.5t27.5 -66.5q0 -38 -27.5 -65.5t-66.5 -27.5zM23 -176l-40 37q53 71 66 120q13 48 13 146v32h147q0 -106 -33 -172q-34 -65 -153 -163z" />
    <glyph glyph-name="less" unicode="&#x3c;" horiz-adv-x="600" 
d="M233 351l308 -131v-138l-491 228v80l491 229v-135z" />
    <glyph glyph-name="equal" unicode="=" horiz-adv-x="600" 
d="M49 509h502v-113h-502v113zM49 304h502v-113h-502v113z" />
    <glyph glyph-name="greater" unicode="&#x3e;" horiz-adv-x="600" 
d="M550 391v-81l-491 -228v135l308 133l-308 131v138z" />
    <glyph glyph-name="question" unicode="?" horiz-adv-x="495" 
d="M39 482l-2 1v149q96 78 218 78q94 0 149.5 -47t55.5 -126q0 -57 -25 -92q-25 -36 -101 -76q-48 -25 -64 -39t-16 -32q0 -19 15 -49h-82q-54 54 -54 98q0 31 23.5 55t86.5 54q44 23 58.5 37.5t14.5 35.5q0 23 -19 36.5t-52 13.5q-95 0 -206 -97zM221 -10q-38 0 -65 27
t-27 65t27 65t65 27t65 -27t27 -65t-27 -65t-65 -27z" />
    <glyph glyph-name="at" unicode="@" horiz-adv-x="1018" 
d="M467 -185q-200 0 -313 103q-115 103 -115 284q0 104 42.5 203t118.5 178q77 78 175.5 120t205.5 42q179 0 288 -102q109 -103 109 -268q0 -141 -76 -232t-193 -91q-57 0 -93.5 22.5t-44.5 62.5q-54 -46 -93.5 -65t-83.5 -19q-62 0 -99 43t-37 116q0 121 89 212
q90 88 213 88q67 0 125 -33l42 25h48l-74 -302q-5 -24 -5 -39q0 -26 17 -40.5t47 -14.5q74 0 129 78q54 76 54 187q0 155 -99 248q-100 92 -265 92q-98 0 -190 -40t-164 -113q-71 -73 -110.5 -166t-39.5 -190q0 -168 104 -263q103 -94 290 -94q157 0 292 53v-35
q-139 -50 -294 -50zM385 235q0 -34 19 -52.5t54 -18.5q50 0 115 45l45 183q-26 11 -60 11q-72 0 -122 -50q-51 -51 -51 -118z" />
    <glyph glyph-name="A" unicode="A" horiz-adv-x="813" 
d="M406 538l-112 -265h220zM495 702l300 -702h-173l-58 144h-320l-60 -144h-167l307 702h171z" />
    <glyph glyph-name="B" unicode="B" horiz-adv-x="643" 
d="M601 201q0 -92 -71 -146q-71 -55 -191 -55h-260v700h259q111 0 173.5 -49t62.5 -136q0 -99 -99 -150q126 -47 126 -164zM319 576h-87v-166h81q49 0 78 23.5t29 62.5q0 38 -26.5 59t-74.5 21zM323 299h-91v-175h95q54 0 85 23.5t31 63.5q0 43 -31 65.5t-89 22.5z" />
    <glyph glyph-name="C" unicode="C" horiz-adv-x="702" 
d="M397 -12q-153 0 -253 102q-101 101 -101 260q0 154 105 258q106 104 261 104q131 0 231 -80v-172h-3q-105 103 -217 103q-90 0 -150 -60q-61 -61 -61 -151q0 -95 60 -155q60 -61 150 -61q123 0 232 100l2 -2l-21 -171q-108 -75 -235 -75z" />
    <glyph glyph-name="D" unicode="D" horiz-adv-x="779" 
d="M570 350q0 98 -63.5 153.5t-176.5 55.5h-89v-418h91q109 0 173.5 56.5t64.5 152.5zM332 0h-253v700h253q189 0 296 -92q107 -93 107 -256q0 -160 -109 -256q-110 -96 -294 -96z" />
    <glyph glyph-name="E" unicode="E" horiz-adv-x="600" 
d="M554 137l-28 -137h-447v700h444l28 -137h-312v-148h259v-123h-259v-155h315z" />
    <glyph glyph-name="F" unicode="F" horiz-adv-x="566" 
d="M241 394h239v-132h-239v-262h-162v700h462l-29 -140h-271v-166z" />
    <glyph glyph-name="G" unicode="G" horiz-adv-x="776" 
d="M396 383h306v-315q-143 -78 -293 -78q-165 0 -265 97q-101 98 -101 257q0 163 111 265q110 101 286 101q132 0 244 -54v-160q-126 68 -238 68q-103 0 -170 -61t-67 -156q0 -99 61 -158t163 -59q60 0 120 20v117h-157v116z" />
    <glyph glyph-name="H" unicode="H" horiz-adv-x="811" 
d="M732 700v-700h-161v281h-330v-281h-162v700h162v-271h330v271h161z" />
    <glyph glyph-name="I" unicode="I" horiz-adv-x="328" 
d="M244 700v-700h-161v700h161z" />
    <glyph glyph-name="J" unicode="J" horiz-adv-x="489" 
d="M154 136q47 0 73.5 28t26.5 78v458h161v-488q0 -103 -60 -162t-163 -59q-80 0 -144 36l-25 157l3 1q67 -49 128 -49z" />
    <glyph glyph-name="K" unicode="K" horiz-adv-x="728" 
d="M725 3v-3h-202l-262 293h-20v-293h-162v700h162v-280h21l261 280h197v-3l-325 -335z" />
    <glyph glyph-name="L" unicode="L" horiz-adv-x="557" 
d="M522 145v-145h-443v700h162v-555h281z" />
    <glyph glyph-name="M" unicode="M" horiz-adv-x="1028" 
d="M792 516l-272 -526h-14l-273 523v-513h-154v700h224l211 -423l210 423h225v-700h-157v516z" />
    <glyph glyph-name="N" unicode="N" horiz-adv-x="822" 
d="M743 700v-703h-103l-404 460l2 -457h-159v700h156l350 -399l-1 399h159z" />
    <glyph glyph-name="O" unicode="O" horiz-adv-x="831" 
d="M414 -14q-159 0 -265 104q-106 103 -106 259q0 153 107 260q106 105 266 105q159 0 266 -104q106 -105 106 -259q0 -155 -107 -260t-267 -105zM413 568q-87 0 -146 -62q-59 -64 -59 -155q0 -93 60 -156q58 -63 147 -63q87 0 148 63q60 63 60 154q0 92 -61 156
q-62 63 -149 63z" />
    <glyph glyph-name="P" unicode="P" horiz-adv-x="622" 
d="M307 567h-69v-216h67q60 0 94.5 30t34.5 82q0 48 -34 76t-93 28zM593 466q0 -112 -76 -178q-77 -66 -204 -66h-72v-222h-162v700h232q133 0 207.5 -61.5t74.5 -172.5z" />
    <glyph glyph-name="Q" unicode="Q" horiz-adv-x="831" 
d="M626 -149q-81 0 -138 32.5t-114 108.5q-145 13 -238 114q-93 100 -93 243q0 155 107 260q106 105 266 105t266 -103t106 -255q0 -116 -61 -204t-168 -129q46 -47 111 -47q45 0 96 22l3 -2l-45 -129q-39 -16 -98 -16zM623 349q0 92 -61 156q-62 63 -149 63t-146 -62
q-59 -64 -59 -155q0 -93 60 -156q58 -63 147 -63q87 0 148 63q60 63 60 154z" />
    <glyph glyph-name="R" unicode="R" horiz-adv-x="669" 
d="M314 570h-76v-198h73q53 0 85 27.5t32 73.5q0 44 -31 70.5t-83 26.5zM449 281l233 -281h-192l-207 254h-42v-254h-162v700h244q126 0 195.5 -57t69.5 -161q0 -67 -36.5 -119.5t-102.5 -81.5z" />
    <glyph glyph-name="S" unicode="S" horiz-adv-x="571" 
d="M246 290q-110 42 -153 91t-43 123q0 94 66 151t177 57q115 0 201 -51v-154h-2q-104 70 -202 70q-39 0 -61 -16t-22 -44t24 -47q23 -20 99 -51q108 -42 153 -91.5t45 -125.5q0 -98 -69 -156q-68 -58 -184 -58q-122 0 -219 66l-24 173l2 1q60 -48 126 -76.5t117 -28.5
q44 0 69 18t25 50q0 30 -25 49q-27 21 -100 50z" />
    <glyph glyph-name="T" unicode="T" horiz-adv-x="727" 
d="M33 700h661v-145h-250v-555h-161v555h-250v145z" />
    <glyph glyph-name="U" unicode="U" horiz-adv-x="787" 
d="M393 -12q-153 0 -237 86t-84 243v383h161v-386q0 -86 42.5 -133.5t119.5 -47.5t119.5 47.5t42.5 135.5v384h158v-383q0 -157 -84 -243t-238 -86z" />
    <glyph glyph-name="V" unicode="V" horiz-adv-x="794" 
d="M777 700l-325 -711h-116l-318 711h178l202 -480l208 480h171z" />
    <glyph glyph-name="W" unicode="W" horiz-adv-x="1154" 
d="M576 377l-172 -381h-152l-224 704h174l143 -489l227 498h16l223 -499l148 490h168l-231 -704h-152z" />
    <glyph glyph-name="X" unicode="X" horiz-adv-x="764" 
d="M479 358l267 -358h-191l-176 239l-172 -239h-187l264 353l-258 347h191l167 -227l165 227h187z" />
    <glyph glyph-name="Y" unicode="Y" horiz-adv-x="704" 
d="M700 700l-267 -412v-288h-161v287l-267 413h187l164 -268l164 268h180z" />
    <glyph glyph-name="Z" unicode="Z" horiz-adv-x="714" 
d="M293 141h390l-52 -141h-600l-7 14l384 545h-349v141h612l7 -14z" />
    <glyph glyph-name="bracketleft" unicode="[" horiz-adv-x="429" 
d="M401 -45l-15 -85h-299v870h299l15 -85h-175v-700h175z" />
    <glyph glyph-name="backslash" unicode="\" horiz-adv-x="482" 
d="M25 740h113l351 -870h-113z" />
    <glyph glyph-name="bracketright" unicode="]" horiz-adv-x="429" 
d="M28 655l15 85h299v-870h-299l-15 85h175v700h-175z" />
    <glyph glyph-name="asciicircum" unicode="^" horiz-adv-x="600" 
d="M339 719l229 -384h-142l-128 222l-127 -222h-139l229 384h78z" />
    <glyph glyph-name="underscore" unicode="_" horiz-adv-x="631" 
d="M634 -163h-637v90h637v-90z" />
    <glyph glyph-name="grave" unicode="`" horiz-adv-x="500" 
d="M24 782h181l85 -185h-72l-194 183v2z" />
    <glyph glyph-name="a" unicode="a" horiz-adv-x="576" 
d="M177 144q0 -49 61 -49q50 0 132 42v91q-193 -13 -193 -84zM520 294v-282l-146 -19v77q-100 -79 -186 -79q-67 0 -108 37.5t-41 100.5q0 84 81.5 125.5t249.5 44.5q-6 99 -104 99q-82 0 -174 -65l-3 2l23 137q83 49 186 49q109 0 165.5 -58t56.5 -169z" />
    <glyph glyph-name="b" unicode="b" horiz-adv-x="630" 
d="M596 269q0 -121 -81 -198q-81 -78 -203 -78q-59 0 -137 26l-95 -21h-13v720l152 40v-309q71 72 159 72q94 0 156 -71q62 -73 62 -181zM302 118q65 0 106 40t41 104q0 60 -34.5 96.5t-90.5 36.5q-54 0 -105 -32v-231q39 -14 83 -14z" />
    <glyph glyph-name="c" unicode="c" horiz-adv-x="525" 
d="M481 186l3 -2l-18 -147q-80 -49 -171 -49q-116 0 -188 74q-73 73 -73 194q0 115 77 192q77 75 196 75q95 0 168 -52v-151l-3 -1q-81 69 -155 69q-59 0 -96 -37.5t-37 -95.5t36 -95t93 -37q86 0 168 63z" />
    <glyph glyph-name="d" unicode="d" horiz-adv-x="635" 
d="M181 253q0 -60 35 -98t90 -38q54 0 111 39v209q-49 28 -102 28q-59 0 -96.5 -39t-37.5 -101zM568 758v-758h-148v72q-73 -82 -166 -82t-156 73q-64 71 -64 181q0 118 72 197q71 78 175 78q71 0 136 -50v249z" />
    <glyph glyph-name="e" unicode="e" horiz-adv-x="569" 
d="M289 416q-45 0 -75 -31.5t-36 -83.5h216q-5 54 -33 84.5t-72 30.5zM520 158l3 -2l-41 -127q-84 -40 -176 -40q-125 0 -198 73q-75 74 -75 195q0 112 74 191q74 77 185 77q112 0 178 -73q65 -74 65 -194q0 -4 -1.5 -20t-1.5 -23h-353q12 -51 52 -79t102 -28q89 0 187 50z
" />
    <glyph glyph-name="f" unicode="f" horiz-adv-x="434" 
d="M259 511h159v-118h-156v-393h-150v393h-82v118h82v50q0 92 51 144t141 52q55 0 109 -19l17 -122l-3 -2q-49 23 -89 23q-37 0 -58 -20.5t-21 -56.5v-49z" />
    <glyph glyph-name="g" unicode="g" horiz-adv-x="635" 
d="M181 264q0 -55 34 -88.5t88 -33.5q57 0 115 38v199q-50 17 -96 17q-61 0 -101 -37t-40 -95zM283 -195q-105 0 -203 46l-24 137l3 3q115 -61 212 -61q69 0 108 35t39 99v32q-73 -69 -165 -69q-95 0 -157 66q-62 65 -62 167q0 115 79 187q80 71 201 71q70 0 145 -26l97 21
h12v-439q0 -126 -76 -197.5t-209 -71.5z" />
    <glyph glyph-name="h" unicode="h" horiz-adv-x="624" 
d="M328 390q-50 0 -109 -49v-341h-152v718l152 40v-333q41 52 82 75t92 23q79 0 125.5 -53t46.5 -144v-326h-151v295q0 45 -22.5 70t-63.5 25z" />
    <glyph glyph-name="i" unicode="i" horiz-adv-x="294" 
d="M147 767q39 0 65.5 -25t26.5 -62t-26.5 -62t-65.5 -25t-65.5 25t-26.5 62t26.5 62t65.5 25zM222 511v-511h-151v511h151z" />
    <glyph glyph-name="j" unicode="j" horiz-adv-x="294" 
d="M148 767q39 0 65 -25t26 -62t-26 -62t-65 -25t-65.5 25t-26.5 62q0 38 26 62.5t66 24.5zM72 1v510h151v-502q0 -97 -49.5 -149t-140.5 -52q-31 0 -61 7l-23 109q19 -6 43 -6q80 0 80 83z" />
    <glyph glyph-name="k" unicode="k" horiz-adv-x="588" 
d="M587 3v-3h-181l-164 210h-23v-210h-152v718l152 40v-451h22l160 204h172v-2l-200 -244z" />
    <glyph glyph-name="l" unicode="l" horiz-adv-x="294" 
d="M222 758v-758h-151v718z" />
    <glyph glyph-name="m" unicode="m" horiz-adv-x="942" 
d="M318 390q-48 0 -99 -44v-346h-152v499l148 19v-92q74 97 168 97q54 0 93.5 -26.5t58.5 -76.5q41 55 83 79t95 24q78 0 124 -53t46 -144v-326h-152v295q0 45 -21 70t-60 25q-46 0 -100 -44q1 -5 1 -20v-326h-152v295q0 45 -21 70t-60 25z" />
    <glyph glyph-name="n" unicode="n" horiz-adv-x="624" 
d="M328 390q-50 0 -109 -49v-341h-152v499l148 19v-98q79 103 178 103q79 0 125.5 -53t46.5 -144v-326h-151v295q0 45 -22.5 70t-63.5 25z" />
    <glyph glyph-name="o" unicode="o" horiz-adv-x="619" 
d="M309 -14q-121 0 -198 78q-78 76 -78 191q0 113 79 192q80 78 198 78q120 0 199 -77q77 -77 77 -191q0 -113 -79 -192t-198 -79zM439 257q0 60 -36.5 99.5t-92.5 39.5q-57 0 -93.5 -40t-36.5 -101q0 -60 37 -100t92 -40q56 0 93 40.5t37 101.5z" />
    <glyph glyph-name="p" unicode="p" horiz-adv-x="635" 
d="M320 118q59 0 96.5 39t37.5 101q0 60 -35 98t-90 38q-51 0 -110 -37v-211q49 -28 101 -28zM601 267q0 -117 -71 -196q-72 -79 -175 -79q-74 0 -136 50v-231h-152v688l148 19v-79q73 82 166 82q94 0 157 -72q63 -73 63 -182z" />
    <glyph glyph-name="q" unicode="q" horiz-adv-x="630" 
d="M551 513h12v-702h-151v252q-73 -73 -160 -73q-94 0 -156 72q-62 73 -62 181q0 121 81 199q82 77 203 77q60 0 138 -26zM181 250q0 -60 34.5 -96.5t90.5 -36.5q52 0 106 32v230q-39 14 -84 14q-64 0 -105.5 -40t-41.5 -103z" />
    <glyph glyph-name="r" unicode="r" horiz-adv-x="446" 
d="M389 361q-78 0 -170 -62v-299h-152v499l148 19v-133q53 75 90 104.5t78 29.5q13 0 33 -4l9 -157q-12 3 -36 3z" />
    <glyph glyph-name="s" unicode="s" horiz-adv-x="510" 
d="M294 314q103 -25 142 -63t39 -101q0 -72 -60 -116q-62 -45 -160 -45q-109 0 -202 56l-20 137l3 2q121 -83 228 -83q32 0 51.5 11.5t19.5 29.5q0 21 -22 33q-23 12 -90 30q-98 26 -138 62t-40 96q0 72 58.5 115.5t156.5 43.5q96 0 179 -44v-128l-3 -1q-95 62 -182 62
q-32 0 -50.5 -10.5t-18.5 -27.5q0 -19 21 -30q23 -13 88 -29z" />
    <glyph glyph-name="t" unicode="t" horiz-adv-x="470" 
d="M431 158l3 -2l-23 -132q-59 -35 -132 -35q-85 0 -129.5 49.5t-44.5 144.5v210h-78v118h78v109l149 37v-146h177v-118h-177v-197q0 -79 77 -79q45 0 100 41z" />
    <glyph glyph-name="u" unicode="u" horiz-adv-x="624" 
d="M557 511v-511h-147v92q-42 -54 -83.5 -78.5t-95.5 -24.5q-79 0 -125.5 53t-46.5 144v325h152v-294q0 -46 22 -71t63 -25q50 0 110 50v340h151z" />
    <glyph glyph-name="v" unicode="v" horiz-adv-x="612" 
d="M601 511l-250 -523h-101l-238 523h165l128 -315l135 315h161z" />
    <glyph glyph-name="w" unicode="w" horiz-adv-x="887" 
d="M442 248l-126 -254h-126l-174 517h159l98 -323l166 330h15l159 -330l105 323h154l-184 -517h-125z" />
    <glyph glyph-name="x" unicode="x" horiz-adv-x="601" 
d="M395 262l189 -262h-170l-116 166l-116 -166h-165l190 262l-180 249h171l105 -152l105 152h165z" />
    <glyph glyph-name="y" unicode="y" horiz-adv-x="592" 
d="M145 -192q-48 0 -88 17l-29 138l2 2q45 -23 85 -23q78 0 111 79l-213 490h164l126 -321l115 321h161l-205 -516q-72 -187 -229 -187z" />
    <glyph glyph-name="z" unicode="z" horiz-adv-x="552" 
d="M256 119h269l-35 -119h-465l-5 14l265 379h-230v118h461l5 -13z" />
    <glyph glyph-name="braceleft" unicode="{" horiz-adv-x="525" 
d="M381 -45h116l-15 -85h-146q-91 0 -143 38.5t-52 104.5q0 38 35 112q25 52 25 74q0 26 -19 40t-68 23l-86 16v54l86 16q49 9 68 23t19 40q0 22 -25 74q-35 74 -35 112q0 66 52 104.5t143 38.5h146l15 -85h-116q-89 0 -89 -64q0 -23 23 -74q29 -68 29 -104
q0 -39 -25.5 -64.5t-81.5 -43.5q56 -18 81.5 -43.5t25.5 -64.5q0 -36 -29 -104q-23 -51 -23 -74q0 -64 89 -64z" />
    <glyph glyph-name="bar" unicode="|" horiz-adv-x="389" 
d="M140 740h109v-870h-109v870z" />
    <glyph glyph-name="braceright" unicode="}" horiz-adv-x="525" 
d="M385 13q0 -66 -52.5 -104.5t-142.5 -38.5h-147l-15 85h116q89 0 89 64q0 23 -22 74q-29 68 -29 104q0 39 25 64.5t81 43.5q-56 18 -81 43.5t-25 64.5q0 36 29 104q22 51 22 74q0 64 -89 64h-116l15 85h147q90 0 142.5 -38.5t52.5 -104.5q0 -38 -35 -112q-25 -52 -25 -74
q0 -26 19 -40t67 -23l86 -16v-54l-86 -16q-48 -9 -67 -23t-19 -40q0 -22 25 -74q35 -74 35 -112z" />
    <glyph glyph-name="asciitilde" unicode="~" horiz-adv-x="600" 
d="M191 470q35 0 131 -60q68 -43 86 -43q16 0 33 20q16 21 47 81l73 -36q-52 -123 -80 -160q-31 -42 -72 -42q-35 0 -131 61q-68 43 -86 43q-17 0 -32 -19q-16 -19 -48 -83l-73 36q51 123 80 161q32 41 72 41z" />
    <glyph glyph-name="uni00A0" unicode="&#xa0;" horiz-adv-x="219" 
 />
    <glyph glyph-name="exclamdown" unicode="&#xa1;" horiz-adv-x="286" 
d="M143 710q38 0 65 -27t27 -65t-27 -65t-65 -27t-65 27t-27 65t27 65t65 27zM233 0h-179v72l55 379h67l57 -379v-72z" />
    <glyph glyph-name="cent" unicode="&#xa2;" horiz-adv-x="534" 
d="M485 281l2 -1l-17 -143q-72 -43 -148 -47l-10 -94h-106l11 105q-84 24 -132 90t-48 157q0 100 63 170q64 71 166 86l10 100h106l-10 -100q54 -10 108 -45v-144h-2q-80 63 -153 63q-62 0 -101 -36t-39 -93t38 -93t98 -36q85 0 164 61z" />
    <glyph glyph-name="sterling" unicode="&#xa3;" horiz-adv-x="597" 
d="M277 130l286 3l-34 -133h-474l-6 67q96 92 120 125q21 32 21 69q0 11 -2 21l-144 -8v93l98 4q-54 85 -54 148q0 85 67 139q68 53 179 53q107 0 204 -50l15 -151h-3q-109 68 -197 68q-45 0 -71.5 -22t-26.5 -58q0 -22 10.5 -46t42.5 -73l190 8v-93l-151 -4q2 -22 2 -23
q0 -59 -72 -137z" />
    <glyph glyph-name="yen" unicode="&#xa5;" horiz-adv-x="667" 
d="M411 224h189v-85h-189v-139h-155v139h-189v85h189v61h-189v84h143l-194 331h182l139 -264l139 264h176l-194 -331h142v-84h-189v-61z" />
    <glyph glyph-name="section" unicode="&#xa7;" horiz-adv-x="680" 
d="M178 285q0 -33 36 -56q35 -23 142 -53q26 -6 74 -25q72 35 72 82q0 34 -35 57q-33 20 -143 53q-41 11 -73 25q-73 -34 -73 -83zM565 -19q0 -77 -63 -127q-63 -48 -166 -48q-113 0 -219 51l-22 151l2 1q136 -76 234 -76q37 0 58.5 14.5t21.5 39.5q0 24 -26.5 40.5
t-97.5 37.5q-142 40 -198 86q-56 44 -56 112q0 106 133 156q-51 42 -51 119q0 78 63 126t166 48q122 0 216 -47v-140h-2q-121 61 -209 61q-36 0 -58 -15t-22 -39q0 -26 26.5 -42t97.5 -37q142 -41 198 -85q56 -45 56 -113q0 -105 -133 -155q51 -45 51 -119z" />
    <glyph glyph-name="dieresis" unicode="&#xa8;" horiz-adv-x="500" 
d="M363 593q-36 0 -60.5 24t-24.5 59t24.5 58.5t60.5 23.5t60.5 -23.5t24.5 -58.5t-24.5 -59t-60.5 -24zM137 593q-36 0 -60.5 24t-24.5 59t24.5 58.5t60.5 23.5t60.5 -23.5t24.5 -58.5t-24.5 -59t-60.5 -24z" />
    <glyph glyph-name="copyright" unicode="&#xa9;" horiz-adv-x="890" 
d="M160 68q-118 113 -118 281q0 165 119 282q120 115 285 115t284 -114q118 -113 118 -281q0 -165 -119 -282q-120 -115 -285 -115t-284 114zM444 714q-154 0 -261 -105q-108 -107 -108 -258q0 -153 109 -259q107 -106 262 -106t262 106q107 105 107 257q0 153 -108 259
q-109 106 -263 106zM471 211q85 0 162 60l2 -2l-15 -107q-70 -47 -159 -47q-109 0 -179 66q-71 65 -71 168t73 170q72 66 184 66q92 0 160 -54v-110h-2q-78 67 -153 67q-63 0 -105 -39t-42 -98q0 -62 41 -101t104 -39z" />
    <glyph glyph-name="ordfeminine" unicode="&#xaa;" horiz-adv-x="513" 
d="M169 447q0 -35 47 -35q37 0 94 28v62q-141 -7 -141 -55zM426 549v-206h-112v51q-70 -57 -140 -57q-49 0 -79.5 27t-30.5 70q0 60 59.5 88.5t186.5 30.5q-6 67 -74 67q-59 0 -131 -43l-3 1l17 98q65 33 142 33q81 0 123 -40.5t42 -119.5zM439 185h-378v82h378v-82z" />
    <glyph glyph-name="guillemotleft" unicode="&#xab;" horiz-adv-x="665" 
d="M311 269l261 252l51 -32l-141 -232l141 -234l-51 -32l-261 252v26zM32 269l261 252l51 -32l-141 -232l141 -234l-51 -32l-261 252v26z" />
    <glyph glyph-name="registered" unicode="&#xae;" horiz-adv-x="561" 
d="M518 490q0 -98 -69 -165q-71 -68 -169 -68t-168 68q-69 67 -69 164q0 98 70 165q70 68 167 68q99 0 169 -67q69 -67 69 -165zM490 489q0 89 -60 149q-62 59 -151 59q-88 0 -148 -60t-60 -148q0 -89 60 -147q61 -59 150 -59q87 0 149 60q60 59 60 146zM275 577h-26v-78h24
q48 0 48 39t-46 39zM339 464l84 -102h-83l-72 89h-19v-89h-70v268h101q54 0 83.5 -23t29.5 -65q0 -55 -54 -78z" />
    <glyph glyph-name="overscore" unicode="&#xaf;" horiz-adv-x="500" 
d="M438 618h-376v96h376v-96z" />
    <glyph glyph-name="degree" unicode="&#xb0;" horiz-adv-x="532" 
d="M39 495q0 94 65 157q65 62 163 62q97 0 162 -62q64 -63 64 -156q0 -94 -65 -156t-163 -62q-97 0 -162 62q-64 61 -64 155zM158 497q0 -51 31 -85t78 -34q45 0 75.5 34t30.5 84q0 51 -31 85.5t-77 34.5q-45 0 -76 -34.5t-31 -84.5z" />
    <glyph glyph-name="plusminus" unicode="&#xb1;" horiz-adv-x="600" 
d="M365 514h186v-123h-186v-186h-130v186h-186v123h186v186h130v-186zM46 111h508v-111h-508v111z" />
    <glyph glyph-name="acute" unicode="&#xb4;" horiz-adv-x="500" 
d="M476 780l-194 -183h-72l85 185h181v-2z" />
    <glyph glyph-name="uni00B5" unicode="&#xb5;" horiz-adv-x="632" 
d="M191 53l16 -201v-41h-140v700h152v-296q0 -46 22 -71t63 -25q51 0 110 49v343h151v-511h-108l-23 77q-61 -80 -130 -80q-66 0 -113 56z" />
    <glyph glyph-name="paragraph" unicode="&#xb6;" horiz-adv-x="718" 
d="M523 571h-80v-571h-87v210h-34q-134 0 -212 63q-79 63 -79 173q0 117 89 186q89 68 236 68h280v-700h-113v571zM173 430q0 -64 45.5 -102t121.5 -38h16v281h-11q-79 0 -125.5 -37.5t-46.5 -103.5z" />
    <glyph glyph-name="middot" unicode="&#xb7;" horiz-adv-x="254" 
d="M127 184q-39 0 -66.5 27.5t-27.5 66.5t27.5 66.5t66.5 27.5t66.5 -27.5t27.5 -66.5t-27.5 -66.5t-66.5 -27.5z" />
    <glyph glyph-name="cedilla" unicode="&#xb8;" horiz-adv-x="500" 
d="M372 -122q0 -40 -40.5 -65t-108.5 -25q-47 0 -86 11l-26 59l3 3q55 -15 93 -15q56 0 56 30q0 27 -56 27q-31 0 -51 -3l-4 4l68 103h82l-39 -54q109 -6 109 -75z" />
    <glyph glyph-name="ordmasculine" unicode="&#xba;" horiz-adv-x="510" 
d="M47 525q0 79 60 133q59 53 149 53t149 -53q58 -52 58 -133q0 -80 -59 -133t-150 -53q-90 0 -149 53q-58 52 -58 133zM350 526q0 42 -26 69t-68 27q-44 0 -70.5 -27t-26.5 -70t27 -70t69 -27t68.5 28t26.5 70zM444 185h-378v82h378v-82z" />
    <glyph glyph-name="guillemotright" unicode="&#xbb;" horiz-adv-x="665" 
d="M354 242l-261 -252l-51 32l141 232l-141 234l51 32l261 -252v-26zM633 242l-261 -252l-50 32l140 232l-140 234l50 32l261 -252v-26z" />
    <glyph glyph-name="onequarter" unicode="&#xbc;" horiz-adv-x="842" 
d="M233 710l10 -3v-425h-109v267l-107 -59v108zM432 335l-220 -337h-84l254 367l220 337h84zM657 335l-97 -177h97v177zM758 158h66v-76h-66v-82h-103v82h-210l-4 26l186 313h131v-263z" />
    <glyph glyph-name="onehalf" unicode="&#xbd;" horiz-adv-x="873" 
d="M233 710l10 -3v-425h-109v267l-107 -59v108zM432 335l-220 -337h-84l254 367l220 337h84zM851 89l-32 -89h-283l-8 51l144 157q46 52 46 80q0 19 -12.5 31t-33.5 12q-55 0 -126 -77h-2l-9 107q64 64 152 64q64 0 102 -33.5t38 -88.5q0 -35 -15.5 -65.5t-54.5 -72.5
l-71 -76h165z" />
    <glyph glyph-name="threequarters" unicode="&#xbe;" horiz-adv-x="876" 
d="M329 396q0 -53 -44 -86.5t-113 -33.5q-73 0 -134 34l-12 97l2 1q71 -47 132 -47q28 0 44 11.5t16 31.5q0 23 -27 37.5t-103 33.5v34q71 26 98 42q25 15 25 36q0 16 -13.5 25.5t-37.5 9.5q-52 0 -123 -49h-2v93q64 40 142 40q65 0 104 -28.5t39 -76.5q0 -65 -83 -101
q90 -29 90 -104zM465 335l-220 -337h-84l254 367l220 337h84zM690 335l-97 -177h97v177zM791 158h66v-76h-66v-82h-103v82h-210l-4 26l186 313h131v-263z" />
    <glyph glyph-name="questiondown" unicode="&#xbf;" horiz-adv-x="495" 
d="M274 709q38 0 65 -27t27 -65t-27 -65t-65 -27t-65 27t-27 65t27 65t65 27zM456 217h2v-150q-100 -77 -218 -77q-94 0 -149.5 47t-55.5 126q0 55 25 92q26 36 101 76q48 25 64.5 39t16.5 31q0 16 -16 49h83q53 -52 53 -97q0 -31 -23.5 -54.5t-86.5 -55.5
q-43 -22 -57.5 -36.5t-14.5 -35.5q0 -23 18.5 -36.5t51.5 -13.5q96 0 206 96z" />
    <glyph glyph-name="Agrave" unicode="&#xc0;" horiz-adv-x="813" 
d="M406 538l-112 -265h220zM495 702l300 -702h-173l-58 144h-320l-60 -144h-167l307 702h171zM178 922h193l82 -157h-82l-193 155v2z" />
    <glyph glyph-name="Aacute" unicode="&#xc1;" horiz-adv-x="813" 
d="M406 538l-112 -265h220zM495 702l300 -702h-173l-58 144h-320l-60 -144h-167l307 702h171zM638 920l-193 -155h-82l82 157h193v-2z" />
    <glyph glyph-name="Acircumflex" unicode="&#xc2;" horiz-adv-x="813" 
d="M406 538l-112 -265h220zM495 702l300 -702h-173l-58 144h-320l-60 -144h-167l307 702h171zM608 767v-2h-86l-114 68l-114 -68h-86v2l130 155h140z" />
    <glyph glyph-name="Atilde" unicode="&#xc3;" horiz-adv-x="813" 
d="M406 538l-112 -265h220zM495 702l300 -702h-173l-58 144h-320l-60 -144h-167l307 702h171zM427 892q49 -24 65 -24q15 0 28 10q10 8 48 47l57 -44q-52 -73 -79 -96q-28 -24 -63 -24q-26 0 -87 30q-48 24 -64 24q-15 0 -27 -9q-11 -7 -49 -47l-57 44q54 74 80 96
q29 24 62 24q25 0 86 -31z" />
    <glyph glyph-name="Adieresis" unicode="&#xc4;" horiz-adv-x="813" 
d="M406 538l-112 -265h220zM495 702l300 -702h-173l-58 144h-320l-60 -144h-167l307 702h171zM521 928q36 0 61 -24t25 -59q0 -36 -25 -60t-61 -24t-60.5 24t-24.5 60q0 35 24.5 59t60.5 24zM295 928q36 0 60.5 -24t24.5 -59q0 -36 -24.5 -60t-60.5 -24t-61 24t-25 60
q0 35 25 59t61 24z" />
    <glyph glyph-name="Aring" unicode="&#xc5;" horiz-adv-x="813" 
d="M486 744q0 32 -22 54t-55 22t-55 -22t-22 -54t22 -54t55 -22t55 22t22 54zM406 539l-112 -266h220zM513 660l282 -660h-173l-58 144h-320l-60 -144h-167l288 660q-32 37 -32 84q0 54 40 93q41 38 96 38q56 0 97 -38q39 -39 39 -93q0 -47 -32 -84z" />
    <glyph glyph-name="AE" unicode="&#xc6;" horiz-adv-x="1036" 
d="M515 572l-181 -299h181v299zM990 137l-28 -137h-447v144h-259l-89 -144h-165l427 700h530l28 -137h-312v-148h259v-123h-259v-155h315z" />
    <glyph glyph-name="Ccedilla" unicode="&#xc7;" horiz-adv-x="702" 
d="M516 -127q0 -40 -40.5 -65t-108.5 -25q-47 0 -86 11l-26 59l3 3q55 -15 93 -15q56 0 56 30q0 27 -56 27q-31 0 -51 -3l-4 4l60 91q-138 15 -225 115q-88 98 -88 245q0 154 105 258q106 104 261 104q131 0 231 -80v-172h-3q-105 103 -217 103q-90 0 -150 -60
q-61 -61 -61 -151q0 -95 60 -155q60 -61 150 -61q123 0 232 100l2 -2l-21 -171q-96 -66 -195 -73l-30 -42q109 -6 109 -75z" />
    <glyph glyph-name="Egrave" unicode="&#xc8;" horiz-adv-x="600" 
d="M554 137l-28 -137h-447v700h444l28 -137h-312v-148h259v-123h-259v-155h315zM83 922h193l82 -157h-82l-193 155v2z" />
    <glyph glyph-name="Eacute" unicode="&#xc9;" horiz-adv-x="600" 
d="M554 137l-28 -137h-447v700h444l28 -137h-312v-148h259v-123h-259v-155h315zM543 920l-193 -155h-82l82 157h193v-2z" />
    <glyph glyph-name="Ecircumflex" unicode="&#xca;" horiz-adv-x="600" 
d="M554 137l-28 -137h-447v700h444l28 -137h-312v-148h259v-123h-259v-155h315zM513 767v-2h-86l-114 68l-114 -68h-86v2l130 155h140z" />
    <glyph glyph-name="Edieresis" unicode="&#xcb;" horiz-adv-x="600" 
d="M554 137l-28 -137h-447v700h444l28 -137h-312v-148h259v-123h-259v-155h315zM426 928q36 0 61 -24t25 -59q0 -36 -25 -60t-61 -24t-60.5 24t-24.5 60q0 35 24.5 59t60.5 24zM200 928q36 0 60.5 -24t24.5 -59q0 -36 -24.5 -60t-60.5 -24t-61 24t-25 60q0 35 25 59t61 24z
" />
    <glyph glyph-name="Igrave" unicode="&#xcc;" horiz-adv-x="328" 
d="M244 700v-700h-161v700h161zM-66 922h193l82 -157h-82l-193 155v2z" />
    <glyph glyph-name="Iacute" unicode="&#xcd;" horiz-adv-x="328" 
d="M244 700v-700h-161v700h161zM394 920l-193 -155h-82l82 157h193v-2z" />
    <glyph glyph-name="Icircumflex" unicode="&#xce;" horiz-adv-x="328" 
d="M244 700v-700h-161v700h161zM364 767v-2h-86l-114 68l-114 -68h-86v2l130 155h140z" />
    <glyph glyph-name="Idieresis" unicode="&#xcf;" horiz-adv-x="328" 
d="M244 700v-700h-161v700h161zM277 928q36 0 61 -24t25 -59q0 -36 -25 -60t-61 -24t-60.5 24t-24.5 60q0 35 24.5 59t60.5 24zM51 928q36 0 60.5 -24t24.5 -59q0 -36 -24.5 -60t-60.5 -24t-61 24t-25 60q0 35 25 59t61 24z" />
    <glyph glyph-name="Eth" unicode="&#xd0;" horiz-adv-x="803" 
d="M262 407h151v-104h-151v-162h94q108 0 173 57q65 56 65 152q0 98 -63.5 153.5t-176.5 55.5h-92v-152zM356 0h-253v299h-83v111h83v290h253q189 0 296 -92q107 -93 107 -256q0 -160 -109 -256q-110 -96 -294 -96z" />
    <glyph glyph-name="Ntilde" unicode="&#xd1;" horiz-adv-x="822" 
d="M743 700v-703h-103l-404 460l2 -457h-159v700h156l350 -399l-1 399h159zM430 892q49 -24 65 -24q15 0 28 10q10 8 48 47l57 -44q-52 -73 -79 -96q-29 -24 -63 -24q-26 0 -87 30q-48 24 -64 24q-15 0 -27 -9q-11 -7 -49 -47l-57 44q54 74 80 96q28 24 62 24q25 0 86 -31z
" />
    <glyph glyph-name="Ograve" unicode="&#xd2;" horiz-adv-x="831" 
d="M414 -14q-159 0 -265 104q-106 103 -106 259q0 153 107 260q106 105 266 105q159 0 266 -104q106 -105 106 -259q0 -155 -107 -260t-267 -105zM413 568q-87 0 -146 -62q-59 -64 -59 -155q0 -93 60 -156q58 -63 147 -63q87 0 148 63q60 63 60 154q0 92 -61 156
q-62 63 -149 63zM185 927h193l82 -157h-82l-193 155v2z" />
    <glyph glyph-name="Oacute" unicode="&#xd3;" horiz-adv-x="831" 
d="M414 -14q-159 0 -265 104q-106 103 -106 259q0 153 107 260q106 105 266 105q159 0 266 -104q106 -105 106 -259q0 -155 -107 -260t-267 -105zM413 568q-87 0 -146 -62q-59 -64 -59 -155q0 -93 60 -156q58 -63 147 -63q87 0 148 63q60 63 60 154q0 92 -61 156
q-62 63 -149 63zM645 925l-193 -155h-82l82 157h193v-2z" />
    <glyph glyph-name="Ocircumflex" unicode="&#xd4;" horiz-adv-x="831" 
d="M414 -14q-159 0 -265 104q-106 103 -106 259q0 153 107 260q106 105 266 105q159 0 266 -104q106 -105 106 -259q0 -155 -107 -260t-267 -105zM413 568q-87 0 -146 -62q-59 -64 -59 -155q0 -93 60 -156q58 -63 147 -63q87 0 148 63q60 63 60 154q0 92 -61 156
q-62 63 -149 63zM615 772v-2h-86l-114 68l-114 -68h-86v2l130 155h140z" />
    <glyph glyph-name="Otilde" unicode="&#xd5;" horiz-adv-x="831" 
d="M414 -14q-159 0 -265 104q-106 103 -106 259q0 153 107 260q106 105 266 105q159 0 266 -104q106 -105 106 -259q0 -155 -107 -260t-267 -105zM413 568q-87 0 -146 -62q-59 -64 -59 -155q0 -93 60 -156q58 -63 147 -63q87 0 148 63q60 63 60 154q0 92 -61 156
q-62 63 -149 63zM434 897q49 -24 65 -24q15 0 28 10q10 8 48 47l57 -44q-52 -73 -79 -96q-29 -24 -63 -24q-26 0 -87 30q-48 24 -64 24q-15 0 -27 -9q-11 -7 -49 -47l-57 44q54 74 80 96q29 24 62 24q25 0 86 -31z" />
    <glyph glyph-name="Odieresis" unicode="&#xd6;" horiz-adv-x="831" 
d="M414 -14q-159 0 -265 104q-106 103 -106 259q0 153 107 260q106 105 266 105q159 0 266 -104q106 -105 106 -259q0 -155 -107 -260t-267 -105zM413 568q-87 0 -146 -62q-59 -64 -59 -155q0 -93 60 -156q58 -63 147 -63q87 0 148 63q60 63 60 154q0 92 -61 156
q-62 63 -149 63zM528 933q36 0 61 -24t25 -59q0 -36 -25 -60t-61 -24t-60.5 24t-24.5 60q0 35 24.5 59t60.5 24zM302 933q36 0 60.5 -24t24.5 -59q0 -36 -24.5 -60t-60.5 -24t-61 24t-25 60q0 35 25 59t61 24z" />
    <glyph glyph-name="multiply" unicode="&#xd7;" horiz-adv-x="600" 
d="M389 351l160 -158l-93 -92l-156 161l-158 -161l-91 90l161 159l-161 159l93 92l157 -161l157 161l91 -91z" />
    <glyph glyph-name="Oslash" unicode="&#xd8;" horiz-adv-x="831" 
d="M418 573q-92 0 -154 -65t-62 -162q0 -74 39 -132l274 337q-45 22 -97 22zM413 127q92 0 154 65t62 162q0 74 -39 132l-275 -337q45 -22 98 -22zM788 351q0 -155 -107 -260t-267 -105q-103 0 -194 51l-67 -80h-131l118 143q-97 103 -97 249q0 153 107 260q106 105 266 105
q106 0 194 -51l67 80h132l-119 -144q98 -104 98 -248z" />
    <glyph glyph-name="Ugrave" unicode="&#xd9;" horiz-adv-x="787" 
d="M393 -12q-153 0 -237 86t-84 243v383h161v-386q0 -86 42.5 -133.5t119.5 -47.5t119.5 47.5t42.5 135.5v384h158v-383q0 -157 -84 -243t-238 -86zM163 922h193l82 -157h-82l-193 155v2z" />
    <glyph glyph-name="Uacute" unicode="&#xda;" horiz-adv-x="787" 
d="M393 -12q-153 0 -237 86t-84 243v383h161v-386q0 -86 42.5 -133.5t119.5 -47.5t119.5 47.5t42.5 135.5v384h158v-383q0 -157 -84 -243t-238 -86zM623 920l-193 -155h-82l82 157h193v-2z" />
    <glyph glyph-name="Ucircumflex" unicode="&#xdb;" horiz-adv-x="787" 
d="M393 -12q-153 0 -237 86t-84 243v383h161v-386q0 -86 42.5 -133.5t119.5 -47.5t119.5 47.5t42.5 135.5v384h158v-383q0 -157 -84 -243t-238 -86zM593 767v-2h-86l-114 68l-114 -68h-86v2l130 155h140z" />
    <glyph glyph-name="Udieresis" unicode="&#xdc;" horiz-adv-x="787" 
d="M393 -12q-153 0 -237 86t-84 243v383h161v-386q0 -86 42.5 -133.5t119.5 -47.5t119.5 47.5t42.5 135.5v384h158v-383q0 -157 -84 -243t-238 -86zM506 928q36 0 61 -24t25 -59q0 -36 -25 -60t-61 -24t-60.5 24t-24.5 60q0 35 24.5 59t60.5 24zM280 928q36 0 60.5 -24
t24.5 -59q0 -36 -24.5 -60t-60.5 -24t-61 24t-25 60q0 35 25 59t61 24z" />
    <glyph glyph-name="Yacute" unicode="&#xdd;" horiz-adv-x="704" 
d="M700 700l-267 -412v-288h-161v287l-267 413h187l164 -268l164 268h180zM582 920l-193 -155h-82l82 157h193v-2z" />
    <glyph glyph-name="Thorn" unicode="&#xde;" horiz-adv-x="637" 
d="M442 356q0 48 -32.5 75t-90.5 27h-81v-207h76q60 0 94 28t34 77zM601 358q0 -107 -76 -171t-203 -64h-81v-123h-162v700h162v-114h90q126 0 198 -60.5t72 -167.5z" />
    <glyph glyph-name="germandbls" unicode="&#xdf;" horiz-adv-x="705" 
d="M667 183q0 -86 -58 -138q-59 -53 -155 -53q-64 0 -116 19l-18 133l3 2q57 -33 111 -33q36 0 59 22t23 57q0 94 -178 145l-11 37q64 50 89.5 87.5t25.5 80.5q0 40 -23.5 64.5t-62.5 24.5q-44 0 -69 -29.5t-25 -78.5v-523h-150v393h-82v118h82v6q0 113 65 176.5t183 63.5
q104 0 168 -54q63 -54 63 -139q0 -99 -91 -173q90 -37 128.5 -85t38.5 -123z" />
    <glyph glyph-name="agrave" unicode="&#xe0;" horiz-adv-x="576" 
d="M177 144q0 -49 61 -49q50 0 132 42v91q-193 -13 -193 -84zM520 294v-282l-146 -19v77q-100 -79 -186 -79q-67 0 -108 37.5t-41 100.5q0 84 81.5 125.5t249.5 44.5q-6 99 -104 99q-82 0 -174 -65l-3 2l23 137q83 49 186 49q109 0 165.5 -58t56.5 -169zM77 782h181l85 -185
h-72l-194 183v2z" />
    <glyph glyph-name="aacute" unicode="&#xe1;" horiz-adv-x="576" 
d="M177 144q0 -49 61 -49q50 0 132 42v91q-193 -13 -193 -84zM520 294v-282l-146 -19v77q-100 -79 -186 -79q-67 0 -108 37.5t-41 100.5q0 84 81.5 125.5t249.5 44.5q-6 99 -104 99q-82 0 -174 -65l-3 2l23 137q83 49 186 49q109 0 165.5 -58t56.5 -169zM529 780l-194 -183
h-72l85 185h181v-2z" />
    <glyph glyph-name="acircumflex" unicode="&#xe2;" horiz-adv-x="576" 
d="M177 144q0 -49 61 -49q50 0 132 42v91q-193 -13 -193 -84zM520 294v-282l-146 -19v77q-100 -79 -186 -79q-67 0 -108 37.5t-41 100.5q0 84 81.5 125.5t249.5 44.5q-6 99 -104 99q-82 0 -174 -65l-3 2l23 137q83 49 186 49q109 0 165.5 -58t56.5 -169zM499 599v-2h-75
l-120 86l-121 -86h-76v2l132 183h128z" />
    <glyph glyph-name="atilde" unicode="&#xe3;" horiz-adv-x="576" 
d="M177 144q0 -49 61 -49q50 0 132 42v91q-193 -13 -193 -84zM520 294v-282l-146 -19v77q-100 -79 -186 -79q-67 0 -108 37.5t-41 100.5q0 84 81.5 125.5t249.5 44.5q-6 99 -104 99q-82 0 -174 -65l-3 2l23 137q83 49 186 49q109 0 165.5 -58t56.5 -169zM315 734
q48 -28 64 -28q13 0 24 10q9 8 48 56l64 -41q-50 -85 -76 -111q-28 -28 -62 -28q-23 0 -86 36q-50 28 -64 28q-12 0 -23 -9q-10 -9 -49 -57l-64 41q49 84 76 111t62 27q22 0 86 -35z" />
    <glyph glyph-name="adieresis" unicode="&#xe4;" horiz-adv-x="576" 
d="M177 144q0 -49 61 -49q50 0 132 42v91q-193 -13 -193 -84zM520 294v-282l-146 -19v77q-100 -79 -186 -79q-67 0 -108 37.5t-41 100.5q0 84 81.5 125.5t249.5 44.5q-6 99 -104 99q-82 0 -174 -65l-3 2l23 137q83 49 186 49q109 0 165.5 -58t56.5 -169zM416 593
q-36 0 -60.5 24t-24.5 59t24.5 58.5t60.5 23.5t60.5 -23.5t24.5 -58.5t-24.5 -59t-60.5 -24zM190 593q-36 0 -60.5 24t-24.5 59t24.5 58.5t60.5 23.5t60.5 -23.5t24.5 -58.5t-24.5 -59t-60.5 -24z" />
    <glyph glyph-name="aring" unicode="&#xe5;" horiz-adv-x="576" 
d="M177 144q0 -49 61 -49q50 0 132 42v91q-193 -13 -193 -84zM520 294v-282l-146 -19v77q-100 -79 -186 -79q-67 0 -108 37.5t-41 100.5q0 84 81.5 125.5t249.5 44.5q-6 99 -104 99q-82 0 -174 -65l-3 2l23 137q83 49 186 49q109 0 165.5 -58t56.5 -169zM303 590
q-55 0 -93 39q-39 37 -39 92t39 92q38 38 93 38q54 0 94 -38q38 -38 38 -92t-38 -92q-39 -39 -94 -39zM303 797q-31 0 -52 -22t-21 -54t21 -54.5t52 -22.5t52 22.5t21 54.5t-21 54t-52 22z" />
    <glyph glyph-name="ae" unicode="&#xe6;" horiz-adv-x="906" 
d="M626 416q-45 0 -75 -31.5t-36 -83.5h216q-5 54 -33 84.5t-72 30.5zM177 144q0 -23 16.5 -36t44.5 -13q59 0 151 57q-15 41 -16 76q-196 -13 -196 -84zM857 158l3 -2l-41 -127q-84 -40 -176 -40q-141 0 -215 94q-121 -92 -234 -92q-71 0 -113 37t-42 101q0 84 81.5 125.5
t249.5 44.5q-6 99 -104 99q-82 0 -174 -65l-3 2l23 137q83 49 183 49q108 0 164 -65q69 69 173 69q111 0 175 -73t64 -194q0 -19 -3 -43h-356q12 -51 53.5 -79t104.5 -28q90 0 187 50z" />
    <glyph glyph-name="ccedilla" unicode="&#xe7;" horiz-adv-x="525" 
d="M408 -127q0 -40 -40.5 -65t-108.5 -25q-47 0 -86 11l-26 59l3 3q55 -15 93 -15q56 0 56 30q0 27 -56 27q-31 0 -51 -3l-4 4l61 92q-97 15 -156 87q-59 71 -59 178q0 115 77 192q77 75 196 75q95 0 168 -52v-151l-3 -1q-81 69 -155 69q-59 0 -96 -37.5t-37 -95.5t36 -95
t93 -37q86 0 168 63l3 -2l-18 -147q-70 -40 -137 -47l-30 -42q109 -6 109 -75z" />
    <glyph glyph-name="egrave" unicode="&#xe8;" horiz-adv-x="569" 
d="M289 416q-45 0 -75 -31.5t-36 -83.5h216q-5 54 -33 84.5t-72 30.5zM520 158l3 -2l-41 -127q-84 -40 -176 -40q-125 0 -198 73q-75 74 -75 195q0 112 74 191q74 77 185 77q112 0 178 -73q65 -74 65 -194q0 -4 -1.5 -20t-1.5 -23h-353q12 -51 52 -79t102 -28q89 0 187 50z
M70 787h181l85 -185h-72l-194 183v2z" />
    <glyph glyph-name="eacute" unicode="&#xe9;" horiz-adv-x="569" 
d="M289 416q-45 0 -75 -31.5t-36 -83.5h216q-5 54 -33 84.5t-72 30.5zM520 158l3 -2l-41 -127q-84 -40 -176 -40q-125 0 -198 73q-75 74 -75 195q0 112 74 191q74 77 185 77q112 0 178 -73q65 -74 65 -194q0 -4 -1.5 -20t-1.5 -23h-353q12 -51 52 -79t102 -28q89 0 187 50z
M522 785l-194 -183h-72l85 185h181v-2z" />
    <glyph glyph-name="ecircumflex" unicode="&#xea;" horiz-adv-x="569" 
d="M289 416q-45 0 -75 -31.5t-36 -83.5h216q-5 54 -33 84.5t-72 30.5zM520 158l3 -2l-41 -127q-84 -40 -176 -40q-125 0 -198 73q-75 74 -75 195q0 112 74 191q74 77 185 77q112 0 178 -73q65 -74 65 -194q0 -4 -1.5 -20t-1.5 -23h-353q12 -51 52 -79t102 -28q89 0 187 50z
M492 604v-2h-75l-120 86l-121 -86h-76v2l132 183h128z" />
    <glyph glyph-name="edieresis" unicode="&#xeb;" horiz-adv-x="569" 
d="M289 416q-45 0 -75 -31.5t-36 -83.5h216q-5 54 -33 84.5t-72 30.5zM520 158l3 -2l-41 -127q-84 -40 -176 -40q-125 0 -198 73q-75 74 -75 195q0 112 74 191q74 77 185 77q112 0 178 -73q65 -74 65 -194q0 -4 -1.5 -20t-1.5 -23h-353q12 -51 52 -79t102 -28q89 0 187 50z
M409 598q-36 0 -60.5 24t-24.5 59t24.5 58.5t60.5 23.5t60.5 -23.5t24.5 -58.5t-24.5 -59t-60.5 -24zM183 598q-36 0 -60.5 24t-24.5 59t24.5 58.5t60.5 23.5t60.5 -23.5t24.5 -58.5t-24.5 -59t-60.5 -24z" />
    <glyph glyph-name="igrave" unicode="&#xec;" horiz-adv-x="294" 
d="M222 511v-511h-151v511h151zM-79 782h181l85 -185h-72l-194 183v2z" />
    <glyph glyph-name="iacute" unicode="&#xed;" horiz-adv-x="294" 
d="M222 511v-511h-151v511h151zM373 780l-194 -183h-72l85 185h181v-2z" />
    <glyph glyph-name="icircumflex" unicode="&#xee;" horiz-adv-x="294" 
d="M222 511v-511h-151v511h151zM343 599v-2h-75l-120 86l-121 -86h-76v2l132 183h128z" />
    <glyph glyph-name="idieresis" unicode="&#xef;" horiz-adv-x="294" 
d="M222 511v-511h-151v511h151zM260 593q-36 0 -60.5 24t-24.5 59t24.5 58.5t60.5 23.5t60.5 -23.5t24.5 -58.5t-24.5 -59t-60.5 -24zM34 593q-36 0 -60.5 24t-24.5 59t24.5 58.5t60.5 23.5t60.5 -23.5t24.5 -58.5t-24.5 -59t-60.5 -24z" />
    <glyph glyph-name="eth" unicode="&#xf0;" horiz-adv-x="611" 
d="M489 60q-74 -74 -193 -74q-112 0 -186 72t-74 177q0 100 68 170q68 69 168 69q81 0 142 -43q-37 72 -130 148l-76 -60l-48 52l68 52q-4 3 -32 22.5t-50 35.5l93 77q35 -23 85 -61l77 61l48 -52l-70 -54q98 -87 144 -177t46 -197q0 -138 -80 -218zM423 238
q0 53 -33.5 86.5t-86.5 33.5t-86.5 -34t-33.5 -88q0 -52 33 -86.5t84 -34.5q53 0 88 35.5t35 87.5z" />
    <glyph glyph-name="ntilde" unicode="&#xf1;" horiz-adv-x="624" 
d="M328 390q-50 0 -109 -49v-341h-152v499l148 19v-98q79 103 178 103q79 0 125.5 -53t46.5 -144v-326h-151v295q0 45 -22.5 70t-63.5 25zM329 734q48 -28 64 -28q13 0 24 10q9 8 48 56l64 -41q-50 -85 -76 -111q-28 -28 -62 -28q-23 0 -86 36q-50 28 -64 28q-13 0 -23 -9
t-49 -57l-64 41q49 84 76 111t62 27q22 0 86 -35z" />
    <glyph glyph-name="ograve" unicode="&#xf2;" horiz-adv-x="619" 
d="M309 -14q-121 0 -198 78q-78 76 -78 191q0 113 79 192q80 78 198 78q120 0 199 -77q77 -77 77 -191q0 -113 -79 -192t-198 -79zM439 257q0 60 -36.5 99.5t-92.5 39.5q-57 0 -93.5 -40t-36.5 -101q0 -60 37 -100t92 -40q56 0 93 40.5t37 101.5zM83 787h181l85 -185h-72
l-194 183v2z" />
    <glyph glyph-name="oacute" unicode="&#xf3;" horiz-adv-x="619" 
d="M309 -14q-121 0 -198 78q-78 76 -78 191q0 113 79 192q80 78 198 78q120 0 199 -77q77 -77 77 -191q0 -113 -79 -192t-198 -79zM439 257q0 60 -36.5 99.5t-92.5 39.5q-57 0 -93.5 -40t-36.5 -101q0 -60 37 -100t92 -40q56 0 93 40.5t37 101.5zM535 785l-194 -183h-72
l85 185h181v-2z" />
    <glyph glyph-name="ocircumflex" unicode="&#xf4;" horiz-adv-x="619" 
d="M309 -14q-121 0 -198 78q-78 76 -78 191q0 113 79 192q80 78 198 78q120 0 199 -77q77 -77 77 -191q0 -113 -79 -192t-198 -79zM439 257q0 60 -36.5 99.5t-92.5 39.5q-57 0 -93.5 -40t-36.5 -101q0 -60 37 -100t92 -40q56 0 93 40.5t37 101.5zM505 604v-2h-75l-120 86
l-121 -86h-76v2l132 183h128z" />
    <glyph glyph-name="otilde" unicode="&#xf5;" horiz-adv-x="619" 
d="M309 -14q-121 0 -198 78q-78 76 -78 191q0 113 79 192q80 78 198 78q120 0 199 -77q77 -77 77 -191q0 -113 -79 -192t-198 -79zM439 257q0 60 -36.5 99.5t-92.5 39.5q-57 0 -93.5 -40t-36.5 -101q0 -60 37 -100t92 -40q56 0 93 40.5t37 101.5zM321 739q48 -28 64 -28
q13 0 24 10q9 8 48 56l64 -41q-50 -85 -76 -111q-28 -28 -62 -28q-23 0 -86 36q-50 28 -64 28q-13 0 -23 -9t-49 -57l-64 41q49 84 76 111t62 27q22 0 86 -35z" />
    <glyph glyph-name="odieresis" unicode="&#xf6;" horiz-adv-x="619" 
d="M309 -14q-121 0 -198 78q-78 76 -78 191q0 113 79 192q80 78 198 78q120 0 199 -77q77 -77 77 -191q0 -113 -79 -192t-198 -79zM439 257q0 60 -36.5 99.5t-92.5 39.5q-57 0 -93.5 -40t-36.5 -101q0 -60 37 -100t92 -40q56 0 93 40.5t37 101.5zM422 598q-36 0 -60.5 24
t-24.5 59t24.5 58.5t60.5 23.5t60.5 -23.5t24.5 -58.5t-24.5 -59t-60.5 -24zM196 598q-36 0 -60.5 24t-24.5 59t24.5 58.5t60.5 23.5t60.5 -23.5t24.5 -58.5t-24.5 -59t-60.5 -24z" />
    <glyph glyph-name="divide" unicode="&#xf7;" horiz-adv-x="600" 
d="M300 474q-36 0 -61 25t-25 61t25 61.5t61 25.5t61 -25.5t25 -61.5t-25 -61t-61 -25zM300 406l259 4v-120l-259 4l-259 -4v120zM300 53q-36 0 -61 25t-25 61t25 61.5t61 25.5t61 -25.5t25 -61.5t-25 -61t-61 -25z" />
    <glyph glyph-name="oslash" unicode="&#xf8;" horiz-adv-x="619" 
d="M313 401q-62 0 -100.5 -42t-38.5 -108q0 -44 21 -79l172 218q-25 11 -54 11zM305 110q62 0 101 42.5t39 108.5q0 41 -21 78l-172 -217q24 -12 53 -12zM586 257q0 -113 -79 -192t-198 -79q-74 0 -137 33l-46 -58h-112l90 111q-71 77 -71 183q0 113 79 192q80 78 198 78
q74 0 137 -33l45 58h113l-90 -110q71 -77 71 -183z" />
    <glyph glyph-name="ugrave" unicode="&#xf9;" horiz-adv-x="624" 
d="M557 511v-511h-147v92q-42 -54 -83.5 -78.5t-95.5 -24.5q-79 0 -125.5 53t-46.5 144v325h152v-294q0 -46 22 -71t63 -25q50 0 110 50v340h151zM83 782h181l85 -185h-72l-194 183v2z" />
    <glyph glyph-name="uacute" unicode="&#xfa;" horiz-adv-x="624" 
d="M557 511v-511h-147v92q-42 -54 -83.5 -78.5t-95.5 -24.5q-79 0 -125.5 53t-46.5 144v325h152v-294q0 -46 22 -71t63 -25q50 0 110 50v340h151zM535 780l-194 -183h-72l85 185h181v-2z" />
    <glyph glyph-name="ucircumflex" unicode="&#xfb;" horiz-adv-x="624" 
d="M557 511v-511h-147v92q-42 -54 -83.5 -78.5t-95.5 -24.5q-79 0 -125.5 53t-46.5 144v325h152v-294q0 -46 22 -71t63 -25q50 0 110 50v340h151zM505 599v-2h-75l-120 86l-121 -86h-76v2l132 183h128z" />
    <glyph glyph-name="udieresis" unicode="&#xfc;" horiz-adv-x="624" 
d="M557 511v-511h-147v92q-42 -54 -83.5 -78.5t-95.5 -24.5q-79 0 -125.5 53t-46.5 144v325h152v-294q0 -46 22 -71t63 -25q50 0 110 50v340h151zM422 593q-36 0 -60.5 24t-24.5 59t24.5 58.5t60.5 23.5t60.5 -23.5t24.5 -58.5t-24.5 -59t-60.5 -24zM196 593q-36 0 -60.5 24
t-24.5 59t24.5 58.5t60.5 23.5t60.5 -23.5t24.5 -58.5t-24.5 -59t-60.5 -24z" />
    <glyph glyph-name="yacute" unicode="&#xfd;" horiz-adv-x="592" 
d="M145 -192q-48 0 -88 17l-29 138l2 2q45 -23 85 -23q78 0 111 79l-213 490h164l126 -321l115 321h161l-205 -516q-72 -187 -229 -187zM525 780l-194 -183h-72l85 185h181v-2z" />
    <glyph glyph-name="thorn" unicode="&#xfe;" horiz-adv-x="635" 
d="M320 118q59 0 96.5 39t37.5 101q0 60 -35 98t-90 38q-51 0 -110 -37v-211q49 -28 101 -28zM601 267q0 -119 -72 -197t-178 -78q-68 0 -132 49v-230h-152v907l152 40v-315q72 78 162 78q94 0 157 -72q63 -73 63 -182z" />
    <glyph glyph-name="ydieresis" unicode="&#xff;" horiz-adv-x="592" 
d="M145 -192q-48 0 -88 17l-29 138l2 2q45 -23 85 -23q78 0 111 79l-213 490h164l126 -321l115 321h161l-205 -516q-72 -187 -229 -187zM412 593q-36 0 -60.5 24t-24.5 59t24.5 58.5t60.5 23.5t60.5 -23.5t24.5 -58.5t-24.5 -59t-60.5 -24zM186 593q-36 0 -60.5 24t-24.5 59
t24.5 58.5t60.5 23.5t60.5 -23.5t24.5 -58.5t-24.5 -59t-60.5 -24z" />
    <glyph glyph-name="Amacron" unicode="&#x100;" horiz-adv-x="813" 
d="M406 538l-112 -265h220zM495 702l300 -702h-173l-58 144h-320l-60 -144h-167l307 702h171zM607 786h-398v100h398v-100z" />
    <glyph glyph-name="amacron" unicode="&#x101;" horiz-adv-x="576" 
d="M177 144q0 -49 61 -49q50 0 132 42v91q-193 -13 -193 -84zM520 294v-282l-146 -19v77q-100 -79 -186 -79q-67 0 -108 37.5t-41 100.5q0 84 81.5 125.5t249.5 44.5q-6 99 -104 99q-82 0 -174 -65l-3 2l23 137q83 49 186 49q109 0 165.5 -58t56.5 -169zM491 618h-376v96
h376v-96z" />
    <glyph glyph-name="Abreve" unicode="&#x102;" horiz-adv-x="813" 
d="M406 538l-112 -265h220zM495 702l300 -702h-173l-58 144h-320l-60 -144h-167l307 702h171zM408 761q-128 0 -206 126l54 48q77 -69 152 -69t152 69l54 -48q-78 -126 -206 -126z" />
    <glyph glyph-name="abreve" unicode="&#x103;" horiz-adv-x="576" 
d="M177 144q0 -49 61 -49q50 0 132 42v91q-193 -13 -193 -84zM520 294v-282l-146 -19v77q-100 -79 -186 -79q-67 0 -108 37.5t-41 100.5q0 84 81.5 125.5t249.5 44.5q-6 99 -104 99q-82 0 -174 -65l-3 2l23 137q83 49 186 49q109 0 165.5 -58t56.5 -169zM303 589
q-115 0 -196 141l61 48q67 -80 135 -80t135 80l61 -47q-80 -142 -196 -142z" />
    <glyph glyph-name="Aogonek" unicode="&#x104;" horiz-adv-x="813" 
d="M406 538l-112 -265h220zM785 -137h12l-18 -54q-49 -9 -81 -9q-59 0 -92 21t-33 58q0 35 55 91l29 30h-35l-58 144h-320l-60 -144h-167l307 702h171l300 -702h-52l-29 -51q-17 -30 -17 -45q0 -41 88 -41z" />
    <glyph glyph-name="aogonek" unicode="&#x105;" horiz-adv-x="576" 
d="M434 -196q-59 0 -92 21t-33 58q0 35 55 91l20 20l-10 -1v77q-100 -79 -186 -79q-67 0 -108 37.5t-41 100.5q0 84 81.5 125.5t249.5 44.5q-6 99 -104 99q-82 0 -174 -65l-3 2l23 137q83 49 186 49q109 0 165.5 -58t56.5 -169v-282l-39 -5l-31 -54q-17 -30 -17 -45
q0 -41 88 -41h12l-18 -54q-49 -9 -81 -9zM177 144q0 -49 61 -49q50 0 132 42v91q-193 -13 -193 -84z" />
    <glyph glyph-name="Cacute" unicode="&#x106;" horiz-adv-x="702" 
d="M397 -12q-153 0 -253 102q-101 101 -101 260q0 154 105 258q106 104 261 104q131 0 231 -80v-172h-3q-105 103 -217 103q-90 0 -150 -60q-61 -61 -61 -151q0 -95 60 -155q60 -61 150 -61q123 0 232 100l2 -2l-21 -171q-108 -75 -235 -75zM625 925l-193 -155h-82l82 157
h193v-2z" />
    <glyph glyph-name="cacute" unicode="&#x107;" horiz-adv-x="525" 
d="M481 186l3 -2l-18 -147q-80 -49 -171 -49q-116 0 -188 74q-73 73 -73 194q0 115 77 192q77 75 196 75q95 0 168 -52v-151l-3 -1q-81 69 -155 69q-59 0 -96 -37.5t-37 -95.5t36 -95t93 -37q86 0 168 63zM514 785l-194 -183h-72l85 185h181v-2z" />
    <glyph glyph-name="Ccircumflex" unicode="&#x108;" horiz-adv-x="702" 
d="M397 -12q-153 0 -253 102q-101 101 -101 260q0 154 105 258q106 104 261 104q131 0 231 -80v-172h-3q-105 103 -217 103q-90 0 -150 -60q-61 -61 -61 -151q0 -95 60 -155q60 -61 150 -61q123 0 232 100l2 -2l-21 -171q-108 -75 -235 -75zM595 772v-2h-86l-114 68
l-114 -68h-86v2l130 155h140z" />
    <glyph glyph-name="ccircumflex" unicode="&#x109;" horiz-adv-x="525" 
d="M481 186l3 -2l-18 -147q-80 -49 -171 -49q-116 0 -188 74q-73 73 -73 194q0 115 77 192q77 75 196 75q95 0 168 -52v-151l-3 -1q-81 69 -155 69q-59 0 -96 -37.5t-37 -95.5t36 -95t93 -37q86 0 168 63zM484 604v-2h-75l-120 86l-121 -86h-76v2l132 183h128z" />
    <glyph glyph-name="Cdotaccent" unicode="&#x10a;" horiz-adv-x="702" 
d="M397 -12q-153 0 -253 102q-101 101 -101 260q0 154 105 258q106 104 261 104q131 0 231 -80v-172h-3q-105 103 -217 103q-90 0 -150 -60q-61 -61 -61 -151q0 -95 60 -155q60 -61 150 -61q123 0 232 100l2 -2l-21 -171q-108 -75 -235 -75zM395 932q36 0 60.5 -24t24.5 -60
q0 -35 -24.5 -59t-60.5 -24t-60.5 24t-24.5 59q0 36 24.5 60t60.5 24z" />
    <glyph glyph-name="cdotaccent" unicode="&#x10b;" horiz-adv-x="525" 
d="M481 186l3 -2l-18 -147q-80 -49 -171 -49q-116 0 -188 74q-73 73 -73 194q0 115 77 192q77 75 196 75q95 0 168 -52v-151l-3 -1q-81 69 -155 69q-59 0 -96 -37.5t-37 -95.5t36 -95t93 -37q86 0 168 63zM288 596q-35 0 -59 23.5t-24 58.5q0 34 24 57.5t59 23.5t59 -23.5
t24 -57.5q0 -35 -24 -58.5t-59 -23.5z" />
    <glyph glyph-name="Ccaron" unicode="&#x10c;" horiz-adv-x="702" 
d="M397 -12q-153 0 -253 102q-101 101 -101 260q0 154 105 258q106 104 261 104q131 0 231 -80v-172h-3q-105 103 -217 103q-90 0 -150 -60q-61 -61 -61 -151q0 -95 60 -155q60 -61 150 -61q123 0 232 100l2 -2l-21 -171q-108 -75 -235 -75zM595 925v-2l-130 -155h-140
l-130 155v2h86l114 -68l114 68h86z" />
    <glyph glyph-name="ccaron" unicode="&#x10d;" horiz-adv-x="525" 
d="M481 186l3 -2l-18 -147q-80 -49 -171 -49q-116 0 -188 74q-73 73 -73 194q0 115 77 192q77 75 196 75q95 0 168 -52v-151l-3 -1q-81 69 -155 69q-59 0 -96 -37.5t-37 -95.5t36 -95t93 -37q86 0 168 63zM484 787v-2l-132 -183h-128l-132 183v2h75l120 -86l121 86h76z" />
    <glyph glyph-name="Dcaron" unicode="&#x10e;" horiz-adv-x="779" 
d="M570 350q0 98 -63.5 153.5t-176.5 55.5h-89v-418h91q109 0 173.5 56.5t64.5 152.5zM332 0h-253v700h253q189 0 296 -92q107 -93 107 -256q0 -160 -109 -256q-110 -96 -294 -96zM579 920v-2l-130 -155h-140l-130 155v2h86l114 -68l114 68h86z" />
    <glyph glyph-name="dcaron" unicode="&#x10f;" horiz-adv-x="635" 
d="M181 253q0 -60 35 -98t90 -38q54 0 111 39v209q-49 28 -102 28q-59 0 -96.5 -39t-37.5 -101zM568 758v-758h-148v72q-73 -82 -166 -82t-156 73q-64 71 -64 181q0 118 72 197q71 78 175 78q71 0 136 -50v249zM673 550h-60q22 43 22 98q0 54 -22 99h117q8 -27 8 -49
q0 -76 -65 -148z" />
    <glyph glyph-name="Dcroat" unicode="&#x110;" horiz-adv-x="803" 
d="M262 407h151v-104h-151v-162h94q108 0 173 57q65 56 65 152q0 98 -63.5 153.5t-176.5 55.5h-92v-152zM356 0h-253v299h-83v111h83v290h253q189 0 296 -92q107 -93 107 -256q0 -160 -109 -256q-110 -96 -294 -96z" />
    <glyph glyph-name="dslash" unicode="&#x111;" horiz-adv-x="641" 
d="M181 249q0 -60 35 -96.5t90 -36.5q50 0 111 37v206q-49 26 -102 26q-59 0 -96.5 -38t-37.5 -98zM568 573v-573h-148v71q-74 -81 -166 -81q-93 0 -156 72q-64 70 -64 178q0 116 72 193q72 76 178 76q68 0 133 -48v112h-126v80h126v65l151 40v-105h68v-80h-68z" />
    <glyph glyph-name="Emacron" unicode="&#x112;" horiz-adv-x="600" 
d="M554 137l-28 -137h-447v700h444l28 -137h-312v-148h259v-123h-259v-155h315zM512 786h-398v100h398v-100z" />
    <glyph glyph-name="emacron" unicode="&#x113;" horiz-adv-x="569" 
d="M289 416q-45 0 -75 -31.5t-36 -83.5h216q-5 54 -33 84.5t-72 30.5zM520 158l3 -2l-41 -127q-84 -40 -176 -40q-125 0 -198 73q-75 74 -75 195q0 112 74 191q74 77 185 77q112 0 178 -73q65 -74 65 -194q0 -4 -1.5 -20t-1.5 -23h-353q12 -51 52 -79t102 -28q89 0 187 50z
M484 623h-376v96h376v-96z" />
    <glyph glyph-name="Ebreve" unicode="&#x114;" horiz-adv-x="600" 
d="M554 137l-28 -137h-447v700h444l28 -137h-312v-148h259v-123h-259v-155h315zM313 761q-128 0 -206 126l54 48q77 -69 152 -69t152 69l54 -48q-78 -126 -206 -126z" />
    <glyph glyph-name="ebreve" unicode="&#x115;" horiz-adv-x="569" 
d="M289 416q-45 0 -75 -31.5t-36 -83.5h216q-5 54 -33 84.5t-72 30.5zM520 158l3 -2l-41 -127q-84 -40 -176 -40q-125 0 -198 73q-75 74 -75 195q0 112 74 191q74 77 185 77q112 0 178 -73q65 -74 65 -194q0 -4 -1.5 -20t-1.5 -23h-353q12 -51 52 -79t102 -28q89 0 187 50z
M296 594q-115 0 -196 141l61 48q67 -80 135 -80t135 80l61 -47q-80 -142 -196 -142z" />
    <glyph glyph-name="Edotaccent" unicode="&#x116;" horiz-adv-x="600" 
d="M554 137l-28 -137h-447v700h444l28 -137h-312v-148h259v-123h-259v-155h315zM313 927q36 0 60.5 -24t24.5 -60q0 -35 -24.5 -59t-60.5 -24t-60.5 24t-24.5 59q0 36 24.5 60t60.5 24z" />
    <glyph glyph-name="edotaccent" unicode="&#x117;" horiz-adv-x="569" 
d="M289 416q-45 0 -75 -31.5t-36 -83.5h216q-5 54 -33 84.5t-72 30.5zM520 158l3 -2l-41 -127q-84 -40 -176 -40q-125 0 -198 73q-75 74 -75 195q0 112 74 191q74 77 185 77q112 0 178 -73q65 -74 65 -194q0 -4 -1.5 -20t-1.5 -23h-353q12 -51 52 -79t102 -28q89 0 187 50z
M296 596q-35 0 -59 23.5t-24 58.5q0 34 24 57.5t59 23.5t59 -23.5t24 -57.5q0 -35 -24 -58.5t-59 -23.5z" />
    <glyph glyph-name="Eogonek" unicode="&#x118;" horiz-adv-x="600" 
d="M533 -137h12l-18 -54q-49 -9 -81 -9q-59 0 -92 21t-33 58q0 35 55 91l29 30h-326v700h444l28 -137h-312v-148h259v-123h-259v-155h315l-28 -137h-35l-29 -51q-17 -30 -17 -45q0 -41 88 -41z" />
    <glyph glyph-name="eogonek" unicode="&#x119;" horiz-adv-x="569" 
d="M458 -137h12l-17 -54q-50 -9 -82 -9q-57 0 -89.5 19.5t-32.5 55.5q0 23 16 43t56 48l37 28q-16 -3 -52 -3q-125 0 -198 73q-75 73 -75 194q0 111 74 190q74 77 185 77q112 0 178 -73q65 -74 65 -194q0 -4 -1.5 -20t-1.5 -23h-353q12 -51 52 -79t102 -28q89 0 187 50l3 -2
l-41 -125l-76 -77q-30 -30 -30 -53q0 -20 19 -29t63 -9zM289 416q-45 0 -75 -31.5t-36 -83.5h216q-5 54 -33 84.5t-72 30.5z" />
    <glyph glyph-name="Ecaron" unicode="&#x11a;" horiz-adv-x="600" 
d="M554 137l-28 -137h-447v700h444l28 -137h-312v-148h259v-123h-259v-155h315zM513 920v-2l-130 -155h-140l-130 155v2h86l114 -68l114 68h86z" />
    <glyph glyph-name="ecaron" unicode="&#x11b;" horiz-adv-x="569" 
d="M289 416q-45 0 -75 -31.5t-36 -83.5h216q-5 54 -33 84.5t-72 30.5zM520 158l3 -2l-41 -127q-84 -40 -176 -40q-125 0 -198 73q-75 74 -75 195q0 112 74 191q74 77 185 77q112 0 178 -73q65 -74 65 -194q0 -4 -1.5 -20t-1.5 -23h-353q12 -51 52 -79t102 -28q89 0 187 50z
M492 787v-2l-132 -183h-128l-132 183v2h75l120 -86l121 86h76z" />
    <glyph glyph-name="Gcircumflex" unicode="&#x11c;" horiz-adv-x="776" 
d="M396 383h306v-315q-143 -78 -293 -78q-165 0 -265 97q-101 98 -101 257q0 163 111 265q110 101 286 101q132 0 244 -54v-160q-126 68 -238 68q-103 0 -170 -61t-67 -156q0 -99 61 -158t163 -59q60 0 120 20v117h-157v116zM614 772v-2h-86l-114 68l-114 -68h-86v2l130 155
h140z" />
    <glyph glyph-name="gcircumflex" unicode="&#x11d;" horiz-adv-x="635" 
d="M181 264q0 -55 34 -88.5t88 -33.5q57 0 115 38v199q-50 17 -96 17q-61 0 -101 -37t-40 -95zM283 -195q-105 0 -203 46l-24 137l3 3q115 -61 212 -61q69 0 108 35t39 99v32q-73 -69 -165 -69q-95 0 -157 66q-62 65 -62 167q0 115 79 187q80 71 201 71q70 0 145 -26l97 21
h12v-439q0 -126 -76 -197.5t-209 -71.5zM519 599v-2h-75l-120 86l-121 -86h-76v2l132 183h128z" />
    <glyph glyph-name="Gbreve" unicode="&#x11e;" horiz-adv-x="776" 
d="M396 383h306v-315q-143 -78 -293 -78q-165 0 -265 97q-101 98 -101 257q0 163 111 265q110 101 286 101q132 0 244 -54v-160q-126 68 -238 68q-103 0 -170 -61t-67 -156q0 -99 61 -158t163 -59q60 0 120 20v117h-157v116zM414 766q-128 0 -206 126l54 48q77 -69 152 -69
t152 69l54 -48q-78 -126 -206 -126z" />
    <glyph glyph-name="gbreve" unicode="&#x11f;" horiz-adv-x="635" 
d="M181 264q0 -55 34 -88.5t88 -33.5q57 0 115 38v199q-50 17 -96 17q-61 0 -101 -37t-40 -95zM283 -195q-105 0 -203 46l-24 137l3 3q115 -61 212 -61q69 0 108 35t39 99v32q-73 -69 -165 -69q-95 0 -157 66q-62 65 -62 167q0 115 79 187q80 71 201 71q70 0 145 -26l97 21
h12v-439q0 -126 -76 -197.5t-209 -71.5zM323 589q-115 0 -196 141l61 48q67 -80 135 -80t135 80l61 -47q-80 -142 -196 -142z" />
    <glyph glyph-name="Gdotaccent" unicode="&#x120;" horiz-adv-x="776" 
d="M396 383h306v-315q-143 -78 -293 -78q-165 0 -265 97q-101 98 -101 257q0 163 111 265q110 101 286 101q132 0 244 -54v-160q-126 68 -238 68q-103 0 -170 -61t-67 -156q0 -99 61 -158t163 -59q60 0 120 20v117h-157v116zM414 932q36 0 60.5 -24t24.5 -60
q0 -35 -24.5 -59t-60.5 -24t-60.5 24t-24.5 59q0 36 24.5 60t60.5 24z" />
    <glyph glyph-name="gdotaccent" unicode="&#x121;" horiz-adv-x="635" 
d="M181 264q0 -55 34 -88.5t88 -33.5q57 0 115 38v199q-50 17 -96 17q-61 0 -101 -37t-40 -95zM283 -195q-105 0 -203 46l-24 137l3 3q115 -61 212 -61q69 0 108 35t39 99v32q-73 -69 -165 -69q-95 0 -157 66q-62 65 -62 167q0 115 79 187q80 71 201 71q70 0 145 -26l97 21
h12v-439q0 -126 -76 -197.5t-209 -71.5zM323 591q-35 0 -59 23.5t-24 58.5q0 34 24 57.5t59 23.5t59 -23.5t24 -57.5q0 -35 -24 -58.5t-59 -23.5z" />
    <glyph glyph-name="uni0122" unicode="&#x122;" horiz-adv-x="776" 
d="M396 383h306v-315q-143 -78 -293 -78q-165 0 -265 97q-101 98 -101 257q0 163 111 265q110 101 286 101q132 0 244 -54v-160q-126 68 -238 68q-103 0 -170 -61t-67 -156q0 -99 61 -158t163 -59q60 0 120 20v117h-157v116zM522 -148q0 -62 -148 -120l-73 29v3q73 38 73 65
q0 14 -16.5 25.5t-59.5 29.5v4l151 41q73 -29 73 -77z" />
    <glyph glyph-name="uni0123" unicode="&#x123;" horiz-adv-x="635" 
d="M181 264q0 -55 34 -88.5t88 -33.5q57 0 115 38v199q-50 17 -96 17q-61 0 -101 -37t-40 -95zM283 -195q-105 0 -203 46l-24 137l3 3q115 -61 212 -61q69 0 108 35t39 99v32q-73 -69 -165 -69q-95 0 -157 66q-62 65 -62 167q0 115 79 187q80 71 201 71q70 0 145 -26l97 21
h12v-439q0 -126 -76 -197.5t-209 -71.5zM212 671q0 67 148 126l73 -29v-3q-73 -40 -73 -69q0 -16 16.5 -28.5t59.5 -31.5v-4l-151 -42q-39 17 -56 36t-17 45z" />
    <glyph glyph-name="Hcircumflex" unicode="&#x124;" horiz-adv-x="811" 
d="M732 700v-700h-161v281h-330v-281h-162v700h162v-271h330v271h161zM606 767v-2h-86l-114 68l-114 -68h-86v2l130 155h140z" />
    <glyph glyph-name="hcircumflex" unicode="&#x125;" horiz-adv-x="624" 
d="M328 390q-50 0 -109 -49v-341h-152v718l152 40v-333q41 52 82 75t92 23q79 0 125.5 -53t46.5 -144v-326h-151v295q0 45 -22.5 70t-63.5 25zM340 791v-2h-75l-120 86l-121 -86h-76v2l132 183h128z" />
    <glyph glyph-name="Hbar" unicode="&#x126;" horiz-adv-x="859" 
d="M263 516v-119h333v119h-333zM756 513v-513h-160v256h-333v-256h-160v513h-84v95h84v92h160v-94h333v94h160v-92h84v-95h-84z" />
    <glyph glyph-name="hbar" unicode="&#x127;" horiz-adv-x="630" 
d="M334 383q-50 0 -109 -48v-335h-152v573h-67v80h67v65l152 40v-105h128v-80h-128v-155q41 52 82 75t92 23q79 0 125.5 -53t46.5 -144v-319h-151v288q0 46 -22.5 70.5t-63.5 24.5z" />
    <glyph glyph-name="Itilde" unicode="&#x128;" horiz-adv-x="328" 
d="M244 700v-700h-161v700h161zM183 892q49 -24 65 -24q15 0 28 10q10 8 48 47l57 -44q-52 -73 -79 -96q-28 -24 -63 -24q-26 0 -87 30q-48 24 -64 24q-15 0 -27 -9q-11 -7 -49 -47l-57 44q54 74 80 96q29 24 62 24q25 0 86 -31z" />
    <glyph glyph-name="itilde" unicode="&#x129;" horiz-adv-x="294" 
d="M222 511v-511h-151v511h151zM159 734q48 -28 64 -28q13 0 24 10q9 8 48 56l64 -41q-50 -85 -76 -111q-28 -28 -62 -28q-23 0 -86 36q-50 28 -64 28q-13 0 -23 -9t-49 -57l-64 41q49 84 76 111t62 27q22 0 86 -35z" />
    <glyph glyph-name="Imacron" unicode="&#x12a;" horiz-adv-x="328" 
d="M244 700v-700h-161v700h161zM323 786h-318v100h318v-100z" />
    <glyph glyph-name="imacron" unicode="&#x12b;" horiz-adv-x="294" 
d="M222 511v-511h-151v511h151zM306 618h-318v96h318v-96z" />
    <glyph glyph-name="Ibreve" unicode="&#x12c;" horiz-adv-x="328" 
d="M244 700v-700h-161v700h161zM164 761q-128 0 -206 126l54 48q77 -69 152 -69t152 69l54 -48q-78 -126 -206 -126z" />
    <glyph glyph-name="ibreve" unicode="&#x12d;" horiz-adv-x="294" 
d="M222 511v-511h-151v511h151zM147 589q-115 0 -196 141l61 48q67 -80 135 -80t135 80l61 -47q-80 -142 -196 -142z" />
    <glyph glyph-name="Iogonek" unicode="&#x12e;" horiz-adv-x="328" 
d="M258 -137h12l-18 -54q-49 -9 -81 -9q-59 0 -92 21t-33 58q0 35 55 91l29 30h-47v700h161v-700h-28l-29 -51q-17 -30 -17 -45q0 -41 88 -41z" />
    <glyph glyph-name="iogonek" unicode="&#x12f;" horiz-adv-x="294" 
d="M147 767q39 0 65.5 -25t26.5 -62t-26.5 -62t-65.5 -25t-65.5 25t-26.5 62t26.5 62t65.5 25zM237 -137h12l-18 -54q-49 -9 -81 -9q-59 0 -92 21t-33 58q0 35 55 91l29 30h-38v511h151v-511h-27l-29 -51q-17 -30 -17 -45q0 -41 88 -41z" />
    <glyph glyph-name="Idot" unicode="&#x130;" horiz-adv-x="328" 
d="M244 700v-700h-161v700h161zM164 927q36 0 60.5 -24t24.5 -60q0 -35 -24.5 -59t-60.5 -24t-60.5 24t-24.5 59q0 36 24.5 60t60.5 24z" />
    <glyph glyph-name="dotlessi" unicode="&#x131;" horiz-adv-x="294" 
d="M222 511v-511h-151v511h151z" />
    <glyph glyph-name="Jcircumflex" unicode="&#x134;" horiz-adv-x="489" 
d="M154 136q47 0 73.5 28t26.5 78v458h161v-488q0 -103 -60 -162t-163 -59q-80 0 -144 36l-25 157l3 1q67 -49 128 -49zM538 767v-2h-86l-114 68l-114 -68h-86v2l130 155h140z" />
    <glyph glyph-name="jcircumflex" unicode="&#x135;" horiz-adv-x="294" 
d="M72 1v510h151v-502q0 -97 -49.5 -149t-140.5 -52q-31 0 -61 7l-23 109q19 -6 43 -6q80 0 80 83zM343 599v-2h-75l-120 86l-121 -86h-76v2l132 183h128z" />
    <glyph glyph-name="uni0136" unicode="&#x136;" horiz-adv-x="728" 
d="M725 3v-3h-202l-262 293h-20v-293h-162v700h162v-280h21l261 280h197v-3l-325 -335zM494 -145q0 -62 -148 -120l-73 29v3q73 38 73 65q0 14 -16.5 25.5t-59.5 29.5v4l151 41q73 -29 73 -77z" />
    <glyph glyph-name="uni0137" unicode="&#x137;" horiz-adv-x="588" 
d="M587 3v-3h-181l-164 210h-23v-210h-152v718l152 40v-451h22l160 204h172v-2l-200 -244zM426 -145q0 -62 -148 -120l-73 29v3q73 38 73 65q0 14 -16.5 25.5t-59.5 29.5v4l151 41q73 -29 73 -77z" />
    <glyph glyph-name="Lacute" unicode="&#x139;" horiz-adv-x="557" 
d="M522 145v-145h-443v700h162v-555h281zM399 920l-193 -155h-82l82 157h193v-2z" />
    <glyph glyph-name="lacute" unicode="&#x13a;" horiz-adv-x="294" 
d="M222 758v-758h-151v718zM373 991l-194 -183h-72l85 185h181v-2z" />
    <glyph glyph-name="uni013B" unicode="&#x13b;" horiz-adv-x="557" 
d="M522 145v-145h-443v700h162v-555h281zM413 -145q0 -62 -148 -120l-73 29v3q73 38 73 65q0 14 -16.5 25.5t-59.5 29.5v4l151 41q73 -29 73 -77z" />
    <glyph glyph-name="uni013C" unicode="&#x13c;" horiz-adv-x="294" 
d="M222 758v-758h-151v718zM258 -145q0 -62 -148 -120l-73 29v3q73 38 73 65q0 14 -16.5 25.5t-59.5 29.5v4l151 41q73 -29 73 -77z" />
    <glyph glyph-name="Lcaron" unicode="&#x13d;" horiz-adv-x="557" 
d="M522 145v-145h-443v700h162v-555h281zM355 549h-60q22 43 22 98q0 54 -22 99h117q8 -27 8 -49q0 -76 -65 -148z" />
    <glyph glyph-name="lcaron" unicode="&#x13e;" horiz-adv-x="294" 
d="M222 758v-758h-151v718zM328 550h-60q22 43 22 98q0 54 -22 99h117q8 -27 8 -49q0 -76 -65 -148z" />
    <glyph glyph-name="Lslash" unicode="&#x141;" horiz-adv-x="581" 
d="M264 145h282v-145h-443v219l-82 -56h-2v138l84 57v342h161v-248l152 104h2v-138l-154 -106v-167z" />
    <glyph glyph-name="lslash" unicode="&#x142;" horiz-adv-x="345" 
d="M333 417l-85 -59v-358h-151v265l-83 -58h-2v123l85 59v329l151 40v-276l83 58h2v-123z" />
    <glyph glyph-name="Nacute" unicode="&#x143;" horiz-adv-x="822" 
d="M743 700v-703h-103l-404 460l2 -457h-159v700h156l350 -399l-1 399h159zM641 920l-193 -155h-82l82 157h193v-2z" />
    <glyph glyph-name="nacute" unicode="&#x144;" horiz-adv-x="624" 
d="M328 390q-50 0 -109 -49v-341h-152v499l148 19v-98q79 103 178 103q79 0 125.5 -53t46.5 -144v-326h-151v295q0 45 -22.5 70t-63.5 25zM543 780l-194 -183h-72l85 185h181v-2z" />
    <glyph glyph-name="uni0145" unicode="&#x145;" horiz-adv-x="822" 
d="M743 700v-703h-103l-404 460l2 -457h-159v700h156l350 -399l-1 399h159zM529 -145q0 -62 -148 -120l-73 29v3q73 38 73 65q0 14 -16.5 25.5t-59.5 29.5v4l151 41q73 -29 73 -77z" />
    <glyph glyph-name="uni0146" unicode="&#x146;" horiz-adv-x="624" 
d="M328 390q-50 0 -109 -49v-341h-152v499l148 19v-98q79 103 178 103q79 0 125.5 -53t46.5 -144v-326h-151v295q0 45 -22.5 70t-63.5 25zM428 -143q0 -62 -148 -120l-73 29v3q73 38 73 65q0 14 -16.5 25.5t-59.5 29.5v4l151 41q73 -29 73 -77z" />
    <glyph glyph-name="Ncaron" unicode="&#x147;" horiz-adv-x="822" 
d="M743 700v-703h-103l-404 460l2 -457h-159v700h156l350 -399l-1 399h159zM611 920v-2l-130 -155h-140l-130 155v2h86l114 -68l114 68h86z" />
    <glyph glyph-name="ncaron" unicode="&#x148;" horiz-adv-x="624" 
d="M328 390q-50 0 -109 -49v-341h-152v499l148 19v-98q79 103 178 103q79 0 125.5 -53t46.5 -144v-326h-151v295q0 45 -22.5 70t-63.5 25zM513 782v-2l-132 -183h-128l-132 183v2h75l120 -86l121 86h76z" />
    <glyph glyph-name="Eng" unicode="&#x14a;" horiz-adv-x="822" 
d="M505 -220q-36 0 -76 8l-20 133l1 2q26 -9 66 -9q50 0 79 29t29 80v13l-348 411l2 -447h-159v700h154l351 -417v417h159v-669q0 -121 -62 -186t-176 -65z" />
    <glyph glyph-name="eng" unicode="&#x14b;" horiz-adv-x="624" 
d="M375 -192q-36 0 -59 9l-23 108q18 -6 41 -6q38 0 59 21t21 60v295q0 45 -22.5 70t-63.5 25q-50 0 -109 -49v-341h-152v499l148 19v-98q79 103 178 103q79 0 125.5 -53t46.5 -144v-324q0 -93 -49.5 -143.5t-140.5 -50.5z" />
    <glyph glyph-name="Omacron" unicode="&#x14c;" horiz-adv-x="831" 
d="M414 -14q-159 0 -265 104q-106 103 -106 259q0 153 107 260q106 105 266 105q159 0 266 -104q106 -105 106 -259q0 -155 -107 -260t-267 -105zM413 568q-87 0 -146 -62q-59 -64 -59 -155q0 -93 60 -156q58 -63 147 -63q87 0 148 63q60 63 60 154q0 92 -61 156
q-62 63 -149 63zM614 791h-398v100h398v-100z" />
    <glyph glyph-name="omacron" unicode="&#x14d;" horiz-adv-x="619" 
d="M309 -14q-121 0 -198 78q-78 76 -78 191q0 113 79 192q80 78 198 78q120 0 199 -77q77 -77 77 -191q0 -113 -79 -192t-198 -79zM439 257q0 60 -36.5 99.5t-92.5 39.5q-57 0 -93.5 -40t-36.5 -101q0 -60 37 -100t92 -40q56 0 93 40.5t37 101.5zM497 623h-376v96h376v-96z
" />
    <glyph glyph-name="Obreve" unicode="&#x14e;" horiz-adv-x="831" 
d="M414 -14q-159 0 -265 104q-106 103 -106 259q0 153 107 260q106 105 266 105q159 0 266 -104q106 -105 106 -259q0 -155 -107 -260t-267 -105zM413 568q-87 0 -146 -62q-59 -64 -59 -155q0 -93 60 -156q58 -63 147 -63q87 0 148 63q60 63 60 154q0 92 -61 156
q-62 63 -149 63zM415 766q-128 0 -206 126l54 48q77 -69 152 -69t152 69l54 -48q-78 -126 -206 -126z" />
    <glyph glyph-name="obreve" unicode="&#x14f;" horiz-adv-x="619" 
d="M309 -14q-121 0 -198 78q-78 76 -78 191q0 113 79 192q80 78 198 78q120 0 199 -77q77 -77 77 -191q0 -113 -79 -192t-198 -79zM439 257q0 60 -36.5 99.5t-92.5 39.5q-57 0 -93.5 -40t-36.5 -101q0 -60 37 -100t92 -40q56 0 93 40.5t37 101.5zM309 594q-115 0 -196 141
l61 48q67 -80 135 -80t135 80l61 -47q-80 -142 -196 -142z" />
    <glyph glyph-name="Ohungarumlaut" unicode="&#x150;" horiz-adv-x="831" 
d="M414 -14q-159 0 -265 104q-106 103 -106 259q0 153 107 260q106 105 266 105q159 0 266 -104q106 -105 106 -259q0 -155 -107 -260t-267 -105zM413 568q-87 0 -146 -62q-59 -64 -59 -155q0 -93 60 -156q58 -63 147 -63q87 0 148 63q60 63 60 154q0 92 -61 156
q-62 63 -149 63zM712 925l-176 -155h-78l86 157h168v-2zM519 925l-172 -155h-78l82 157h168v-2z" />
    <glyph glyph-name="ohungarumlaut" unicode="&#x151;" horiz-adv-x="619" 
d="M309 -14q-121 0 -198 78q-78 76 -78 191q0 113 79 192q80 78 198 78q120 0 199 -77q77 -77 77 -191q0 -113 -79 -192t-198 -79zM439 257q0 60 -36.5 99.5t-92.5 39.5q-57 0 -93.5 -40t-36.5 -101q0 -60 37 -100t92 -40q56 0 93 40.5t37 101.5zM609 785l-181 -183h-68
l85 185h164v-2zM416 785l-181 -183h-68l85 185h164v-2z" />
    <glyph glyph-name="OE" unicode="&#x152;" horiz-adv-x="1026" 
d="M208 350q0 -100 65 -156t180 -56h53v424h-55q-111 0 -177 -57t-66 -155zM981 137l-29 -137h-505q-189 0 -296 93q-108 91 -108 255q0 160 110 256q109 96 294 96h502l29 -137h-313v-148h259v-123h-259v-155h316z" />
    <glyph glyph-name="oe" unicode="&#x153;" horiz-adv-x="975" 
d="M695 416q-45 0 -75 -31.5t-36 -83.5h216q-5 54 -33 84.5t-72 30.5zM439 257q0 60 -36.5 99.5t-92.5 39.5q-57 0 -93.5 -40t-36.5 -101q0 -60 37 -100t92 -40q56 0 93 40.5t37 101.5zM718 -11q-138 0 -210 92q-79 -95 -210 -95q-115 0 -190 78q-75 76 -75 191
q0 112 77 192q76 78 193 78q131 0 207 -94q74 94 195 94q109 0 172 -73q63 -74 63 -194q0 -19 -3 -43h-352q12 -51 52 -79t102 -28q89 0 187 50l3 -2l-40 -127q-83 -40 -171 -40z" />
    <glyph glyph-name="Racute" unicode="&#x154;" horiz-adv-x="669" 
d="M314 570h-76v-198h73q53 0 85 27.5t32 73.5q0 44 -31 70.5t-83 26.5zM449 281l233 -281h-192l-207 254h-42v-254h-162v700h244q126 0 195.5 -57t69.5 -161q0 -67 -36.5 -119.5t-102.5 -81.5zM547 920l-193 -155h-82l82 157h193v-2z" />
    <glyph glyph-name="racute" unicode="&#x155;" horiz-adv-x="446" 
d="M389 361q-78 0 -170 -62v-299h-152v499l148 19v-133q53 75 90 104.5t78 29.5q13 0 33 -4l9 -157q-12 3 -36 3zM471 780l-194 -183h-72l85 185h181v-2z" />
    <glyph glyph-name="uni0156" unicode="&#x156;" horiz-adv-x="669" 
d="M314 570h-76v-198h73q53 0 85 27.5t32 73.5q0 44 -31 70.5t-83 26.5zM449 281l233 -281h-192l-207 254h-42v-254h-162v700h244q126 0 195.5 -57t69.5 -161q0 -67 -36.5 -119.5t-102.5 -81.5zM465 -145q0 -62 -148 -120l-73 29v3q73 38 73 65q0 14 -16.5 25.5t-59.5 29.5
v4l151 41q73 -29 73 -77z" />
    <glyph glyph-name="uni0157" unicode="&#x157;" horiz-adv-x="446" 
d="M389 361q-78 0 -170 -62v-299h-152v499l148 19v-133q53 75 90 104.5t78 29.5q13 0 33 -4l9 -157q-12 3 -36 3zM254 -145q0 -62 -148 -120l-73 29v3q73 38 73 65q0 14 -16.5 25.5t-59.5 29.5v4l151 41q73 -29 73 -77z" />
    <glyph glyph-name="Rcaron" unicode="&#x158;" horiz-adv-x="669" 
d="M314 570h-76v-198h73q53 0 85 27.5t32 73.5q0 44 -31 70.5t-83 26.5zM449 281l233 -281h-192l-207 254h-42v-254h-162v700h244q126 0 195.5 -57t69.5 -161q0 -67 -36.5 -119.5t-102.5 -81.5zM517 920v-2l-130 -155h-140l-130 155v2h86l114 -68l114 68h86z" />
    <glyph glyph-name="rcaron" unicode="&#x159;" horiz-adv-x="446" 
d="M389 361q-78 0 -170 -62v-299h-152v499l148 19v-133q53 75 90 104.5t78 29.5q13 0 33 -4l9 -157q-12 3 -36 3zM441 782v-2l-132 -183h-128l-132 183v2h75l120 -86l121 86h76z" />
    <glyph glyph-name="Sacute" unicode="&#x15a;" horiz-adv-x="571" 
d="M246 290q-110 42 -153 91t-43 123q0 94 66 151t177 57q115 0 201 -51v-154h-2q-104 70 -202 70q-39 0 -61 -16t-22 -44t24 -47q23 -20 99 -51q108 -42 153 -91.5t45 -125.5q0 -98 -69 -156q-68 -58 -184 -58q-122 0 -219 66l-24 173l2 1q60 -48 126 -76.5t117 -28.5
q44 0 69 18t25 50q0 30 -25 49q-27 21 -100 50zM527 925l-193 -155h-82l82 157h193v-2z" />
    <glyph glyph-name="sacute" unicode="&#x15b;" horiz-adv-x="510" 
d="M294 314q103 -25 142 -63t39 -101q0 -72 -60 -116q-62 -45 -160 -45q-109 0 -202 56l-20 137l3 2q121 -83 228 -83q32 0 51.5 11.5t19.5 29.5q0 21 -22 33q-23 12 -90 30q-98 26 -138 62t-40 96q0 72 58.5 115.5t156.5 43.5q96 0 179 -44v-128l-3 -1q-95 62 -182 62
q-32 0 -50.5 -10.5t-18.5 -27.5q0 -19 21 -30q23 -13 88 -29zM487 782l-194 -183h-72l85 185h181v-2z" />
    <glyph glyph-name="Scircumflex" unicode="&#x15c;" horiz-adv-x="571" 
d="M246 290q-110 42 -153 91t-43 123q0 94 66 151t177 57q115 0 201 -51v-154h-2q-104 70 -202 70q-39 0 -61 -16t-22 -44t24 -47q23 -20 99 -51q108 -42 153 -91.5t45 -125.5q0 -98 -69 -156q-68 -58 -184 -58q-122 0 -219 66l-24 173l2 1q60 -48 126 -76.5t117 -28.5
q44 0 69 18t25 50q0 30 -25 49q-27 21 -100 50zM497 772v-2h-86l-114 68l-114 -68h-86v2l130 155h140z" />
    <glyph glyph-name="scircumflex" unicode="&#x15d;" horiz-adv-x="510" 
d="M294 314q103 -25 142 -63t39 -101q0 -72 -60 -116q-62 -45 -160 -45q-109 0 -202 56l-20 137l3 2q121 -83 228 -83q32 0 51.5 11.5t19.5 29.5q0 21 -22 33q-23 12 -90 30q-98 26 -138 62t-40 96q0 72 58.5 115.5t156.5 43.5q96 0 179 -44v-128l-3 -1q-95 62 -182 62
q-32 0 -50.5 -10.5t-18.5 -27.5q0 -19 21 -30q23 -13 88 -29zM457 601v-2h-75l-120 86l-121 -86h-76v2l132 183h128z" />
    <glyph glyph-name="uni015E" unicode="&#x15e;" horiz-adv-x="571" 
d="M397 -127q0 -40 -40.5 -65t-108.5 -25q-48 0 -86 11l-26 59l3 3q55 -15 93 -15q56 0 56 30q0 27 -56 27q-31 0 -51 -3l-4 4l60 91q-100 8 -181 64l-24 173l2 1q60 -48 126 -76.5t117 -28.5q44 0 69 18t25 50q0 30 -25 49q-27 21 -100 50q-110 42 -153 91t-43 123
q0 94 66 151t177 57q115 0 201 -51v-154h-2q-104 70 -202 70q-39 0 -61 -16t-22 -44t24 -47q23 -20 99 -51q108 -42 153 -91.5t45 -125.5q0 -87 -56 -143.5t-153 -68.5l-31 -42q109 -6 109 -75z" />
    <glyph glyph-name="uni015F" unicode="&#x15f;" horiz-adv-x="510" 
d="M370 -124q0 -40 -40.5 -65t-108.5 -25q-47 0 -86 11l-26 59l3 3q55 -15 93 -15q56 0 56 30q0 27 -56 27q-31 0 -51 -3l-4 4l59 89q-85 11 -156 54l-20 137l3 2q121 -83 228 -83q32 0 51.5 11.5t19.5 29.5q0 21 -22 33q-23 12 -90 30q-98 26 -138 62t-40 96
q0 72 58.5 115.5t156.5 43.5q96 0 179 -44v-128l-3 -1q-95 62 -182 62q-32 0 -50.5 -10.5t-18.5 -27.5q0 -19 21 -30q23 -13 88 -29q103 -25 142 -63t39 -101q0 -65 -50.5 -108.5t-134.5 -50.5l-29 -40q109 -6 109 -75z" />
    <glyph glyph-name="Scaron" unicode="&#x160;" horiz-adv-x="571" 
d="M246 290q-110 42 -153 91t-43 123q0 94 66 151t177 57q115 0 201 -51v-154h-2q-104 70 -202 70q-39 0 -61 -16t-22 -44t24 -47q23 -20 99 -51q108 -42 153 -91.5t45 -125.5q0 -98 -69 -156q-68 -58 -184 -58q-122 0 -219 66l-24 173l2 1q60 -48 126 -76.5t117 -28.5
q44 0 69 18t25 50q0 30 -25 49q-27 21 -100 50zM497 925v-2l-130 -155h-140l-130 155v2h86l114 -68l114 68h86z" />
    <glyph glyph-name="scaron" unicode="&#x161;" horiz-adv-x="510" 
d="M294 314q103 -25 142 -63t39 -101q0 -72 -60 -116q-62 -45 -160 -45q-109 0 -202 56l-20 137l3 2q121 -83 228 -83q32 0 51.5 11.5t19.5 29.5q0 21 -22 33q-23 12 -90 30q-98 26 -138 62t-40 96q0 72 58.5 115.5t156.5 43.5q96 0 179 -44v-128l-3 -1q-95 62 -182 62
q-32 0 -50.5 -10.5t-18.5 -27.5q0 -19 21 -30q23 -13 88 -29zM457 784v-2l-132 -183h-128l-132 183v2h75l120 -86l121 86h76z" />
    <glyph glyph-name="uni0162" unicode="&#x162;" horiz-adv-x="727" 
d="M482 -122q0 -40 -40.5 -65t-108.5 -25q-47 0 -86 11l-26 59l3 3q55 -15 93 -15q56 0 56 30q0 27 -56 27q-31 0 -51 -3l-4 4l63 96h-42v555h-250v145h661v-145h-250v-555h-37l-34 -47q109 -6 109 -75z" />
    <glyph glyph-name="uni0163" unicode="&#x163;" horiz-adv-x="470" 
d="M383 -122q0 -40 -40.5 -65t-108.5 -25q-48 0 -86 11l-26 59l3 3q55 -15 93 -15q56 0 56 30q0 27 -56 27q-31 0 -51 -3l-4 4l60 91q-118 31 -118 188v210h-78v118h78v109l149 37v-146h177v-118h-177v-197q0 -79 77 -79q45 0 100 41l3 -2l-23 -132q-48 -29 -110 -34
l-27 -37q109 -6 109 -75z" />
    <glyph glyph-name="Tcaron" unicode="&#x164;" horiz-adv-x="727" 
d="M33 700h661v-145h-250v-555h-161v555h-250v145zM564 920v-2l-130 -155h-140l-130 155v2h86l114 -68l114 68h86z" />
    <glyph glyph-name="tcaron" unicode="&#x165;" horiz-adv-x="470" 
d="M431 158l3 -2l-23 -132q-59 -35 -132 -35q-85 0 -129.5 49.5t-44.5 144.5v210h-78v118h78v109l149 37v-146h177v-118h-177v-197q0 -79 77 -79q45 0 100 41zM360 566h-60q22 43 22 98q0 54 -22 99h117q8 -27 8 -49q0 -76 -65 -148z" />
    <glyph glyph-name="Tbar" unicode="&#x166;" horiz-adv-x="727" 
d="M444 368h144v-108h-144v-260h-160v260h-145v108h145v187h-251v145h661v-145h-250v-187z" />
    <glyph glyph-name="tbar" unicode="&#x167;" horiz-adv-x="470" 
d="M431 149l3 -2l-23 -123q-59 -35 -132 -35q-85 0 -129.5 49.5t-44.5 144.5v49h-74v79h74v88h-78v112h78v109l149 37v-146h177v-112h-177v-88h142v-79h-142v-43q0 -78 78 -78q49 0 99 38z" />
    <glyph glyph-name="Utilde" unicode="&#x168;" horiz-adv-x="787" 
d="M393 -12q-153 0 -237 86t-84 243v383h161v-386q0 -86 42.5 -133.5t119.5 -47.5t119.5 47.5t42.5 135.5v384h158v-383q0 -157 -84 -243t-238 -86zM412 892q49 -24 65 -24q15 0 28 10q10 8 48 47l57 -44q-52 -73 -79 -96q-29 -24 -63 -24q-26 0 -87 30q-48 24 -64 24
q-15 0 -27 -9q-11 -7 -49 -47l-57 44q54 74 80 96q28 24 62 24q25 0 86 -31z" />
    <glyph glyph-name="utilde" unicode="&#x169;" horiz-adv-x="624" 
d="M557 511v-511h-147v92q-42 -54 -83.5 -78.5t-95.5 -24.5q-79 0 -125.5 53t-46.5 144v325h152v-294q0 -46 22 -71t63 -25q50 0 110 50v340h151zM321 734q48 -28 64 -28q13 0 24 10q9 8 48 56l64 -41q-50 -85 -76 -111q-28 -28 -62 -28q-23 0 -86 36q-50 28 -64 28
q-13 0 -23 -9t-49 -57l-64 41q49 84 76 111t62 27q22 0 86 -35z" />
    <glyph glyph-name="Umacron" unicode="&#x16a;" horiz-adv-x="787" 
d="M393 -12q-153 0 -237 86t-84 243v383h161v-386q0 -86 42.5 -133.5t119.5 -47.5t119.5 47.5t42.5 135.5v384h158v-383q0 -157 -84 -243t-238 -86zM592 786h-398v100h398v-100z" />
    <glyph glyph-name="umacron" unicode="&#x16b;" horiz-adv-x="624" 
d="M557 511v-511h-147v92q-42 -54 -83.5 -78.5t-95.5 -24.5q-79 0 -125.5 53t-46.5 144v325h152v-294q0 -46 22 -71t63 -25q50 0 110 50v340h151zM497 618h-376v96h376v-96z" />
    <glyph glyph-name="Ubreve" unicode="&#x16c;" horiz-adv-x="787" 
d="M393 -12q-153 0 -237 86t-84 243v383h161v-386q0 -86 42.5 -133.5t119.5 -47.5t119.5 47.5t42.5 135.5v384h158v-383q0 -157 -84 -243t-238 -86zM393 761q-128 0 -206 126l54 48q77 -69 152 -69t152 69l54 -48q-78 -126 -206 -126z" />
    <glyph glyph-name="ubreve" unicode="&#x16d;" horiz-adv-x="624" 
d="M557 511v-511h-147v92q-42 -54 -83.5 -78.5t-95.5 -24.5q-79 0 -125.5 53t-46.5 144v325h152v-294q0 -46 22 -71t63 -25q50 0 110 50v340h151zM309 589q-115 0 -196 141l61 48q67 -80 135 -80t135 80l61 -47q-80 -142 -196 -142z" />
    <glyph glyph-name="Uring" unicode="&#x16e;" horiz-adv-x="787" 
d="M393 -12q-153 0 -237 86t-84 243v383h161v-386q0 -86 42.5 -133.5t119.5 -47.5t119.5 47.5t42.5 135.5v384h158v-383q0 -157 -84 -243t-238 -86zM393 760q-57 0 -96 36q-40 36 -40 89q0 52 40 88q39 36 96 36t97 -36q39 -36 39 -88q0 -53 -39 -89q-40 -36 -97 -36z
M393 955q-33 0 -55 -20t-22 -50t22 -50t55 -20t55 20t22 50t-22 50t-55 20z" />
    <glyph glyph-name="uring" unicode="&#x16f;" horiz-adv-x="624" 
d="M557 511v-511h-147v92q-42 -54 -83.5 -78.5t-95.5 -24.5q-79 0 -125.5 53t-46.5 144v325h152v-294q0 -46 22 -71t63 -25q50 0 110 50v340h151zM309 590q-55 0 -93 39q-39 37 -39 92t39 92q38 38 93 38q54 0 94 -38q38 -38 38 -92t-38 -92q-39 -39 -94 -39zM309 797
q-31 0 -52 -22t-21 -54t21 -54.5t52 -22.5t52 22.5t21 54.5t-21 54t-52 22z" />
    <glyph glyph-name="Uhungarumlaut" unicode="&#x170;" horiz-adv-x="787" 
d="M393 -12q-153 0 -237 86t-84 243v383h161v-386q0 -86 42.5 -133.5t119.5 -47.5t119.5 47.5t42.5 135.5v384h158v-383q0 -157 -84 -243t-238 -86zM690 920l-176 -155h-78l86 157h168v-2zM497 920l-172 -155h-78l82 157h168v-2z" />
    <glyph glyph-name="uhungarumlaut" unicode="&#x171;" horiz-adv-x="624" 
d="M557 511v-511h-147v92q-42 -54 -83.5 -78.5t-95.5 -24.5q-79 0 -125.5 53t-46.5 144v325h152v-294q0 -46 22 -71t63 -25q50 0 110 50v340h151zM609 780l-181 -183h-68l85 185h164v-2zM416 780l-181 -183h-68l85 185h164v-2z" />
    <glyph glyph-name="Uogonek" unicode="&#x172;" horiz-adv-x="787" 
d="M403 -205q-59 0 -92 21t-33 58q0 35 55 91l24 24q-137 11 -211 96t-74 232v383h161v-386q0 -86 42.5 -133.5t119.5 -47.5t119.5 47.5t42.5 135.5v384h158v-383q0 -142 -70 -227t-199 -99l-27 -47q-17 -30 -17 -45q0 -41 88 -41h12l-18 -54q-49 -9 -81 -9z" />
    <glyph glyph-name="uogonek" unicode="&#x173;" horiz-adv-x="624" 
d="M559 -137h12l-18 -54q-49 -9 -81 -9q-59 0 -92 21t-33 58q0 35 55 91l29 30h-21v92q-42 -54 -83.5 -78.5t-95.5 -24.5q-79 0 -125.5 53t-46.5 144v325h152v-294q0 -46 22 -71t63 -25q50 0 110 50v340h151v-511h-40l-29 -51q-17 -30 -17 -45q0 -41 88 -41z" />
    <glyph glyph-name="Wcircumflex" unicode="&#x174;" horiz-adv-x="1154" 
d="M576 377l-172 -381h-152l-224 704h174l143 -489l227 498h16l223 -499l148 490h168l-231 -704h-152zM783 767v-2h-86l-114 68l-114 -68h-86v2l130 155h140z" />
    <glyph glyph-name="wcircumflex" unicode="&#x175;" horiz-adv-x="887" 
d="M442 248l-126 -254h-126l-174 517h159l98 -323l166 330h15l159 -330l105 323h154l-184 -517h-125zM645 599v-2h-75l-120 86l-121 -86h-76v2l132 183h128z" />
    <glyph glyph-name="Ycircumflex" unicode="&#x176;" horiz-adv-x="704" 
d="M700 700l-267 -412v-288h-161v287l-267 413h187l164 -268l164 268h180zM552 767v-2h-86l-114 68l-114 -68h-86v2l130 155h140z" />
    <glyph glyph-name="ycircumflex" unicode="&#x177;" horiz-adv-x="592" 
d="M145 -192q-48 0 -88 17l-29 138l2 2q45 -23 85 -23q78 0 111 79l-213 490h164l126 -321l115 321h161l-205 -516q-72 -187 -229 -187zM495 599v-2h-75l-120 86l-121 -86h-76v2l132 183h128z" />
    <glyph glyph-name="Ydieresis" unicode="&#x178;" horiz-adv-x="704" 
d="M700 700l-267 -412v-288h-161v287l-267 413h187l164 -268l164 268h180zM465 928q36 0 61 -24t25 -59q0 -36 -25 -60t-61 -24t-60.5 24t-24.5 60q0 35 24.5 59t60.5 24zM239 928q36 0 60.5 -24t24.5 -59q0 -36 -24.5 -60t-60.5 -24t-61 24t-25 60q0 35 25 59t61 24z" />
    <glyph glyph-name="Zacute" unicode="&#x179;" horiz-adv-x="714" 
d="M293 141h390l-52 -141h-600l-7 14l384 545h-349v141h612l7 -14zM588 920l-193 -155h-82l82 157h193v-2z" />
    <glyph glyph-name="zacute" unicode="&#x17a;" horiz-adv-x="552" 
d="M256 119h269l-35 -119h-465l-5 14l265 379h-230v118h461l5 -13zM512 780l-194 -183h-72l85 185h181v-2z" />
    <glyph glyph-name="Zdotaccent" unicode="&#x17b;" horiz-adv-x="714" 
d="M293 141h390l-52 -141h-600l-7 14l384 545h-349v141h612l7 -14zM358 927q36 0 60.5 -24t24.5 -60q0 -35 -24.5 -59t-60.5 -24t-60.5 24t-24.5 59q0 36 24.5 60t60.5 24z" />
    <glyph glyph-name="zdotaccent" unicode="&#x17c;" horiz-adv-x="552" 
d="M256 119h269l-35 -119h-465l-5 14l265 379h-230v118h461l5 -13zM286 591q-35 0 -59 23.5t-24 58.5q0 34 24 57.5t59 23.5t59 -23.5t24 -57.5q0 -35 -24 -58.5t-59 -23.5z" />
    <glyph glyph-name="Zcaron" unicode="&#x17d;" horiz-adv-x="714" 
d="M293 141h390l-52 -141h-600l-7 14l384 545h-349v141h612l7 -14zM558 920v-2l-130 -155h-140l-130 155v2h86l114 -68l114 68h86z" />
    <glyph glyph-name="zcaron" unicode="&#x17e;" horiz-adv-x="552" 
d="M256 119h269l-35 -119h-465l-5 14l265 379h-230v118h461l5 -13zM482 782v-2l-132 -183h-128l-132 183v2h75l120 -86l121 86h76z" />
    <glyph glyph-name="uni018F" unicode="&#x18f;" horiz-adv-x="770" 
d="M727 350q0 -159 -99 -261q-100 -103 -256 -103q-150 0 -241 100q-91 98 -91 265v54h519q-14 79 -69.5 122t-143.5 43q-125 0 -259 -81l-3 2l30 157q117 63 250 63q167 0 265 -97q98 -98 98 -264zM375 122q72 0 122.5 47t62.5 123h-360q8 -79 55 -124.5t120 -45.5z" />
    <glyph glyph-name="Ohorn" unicode="&#x1a0;" horiz-adv-x="831" 
d="M788 347q0 -153 -107 -257t-267 -104q-158 0 -265 104q-106 103 -106 257t107 258q106 103 270 103q27 0 84 -4q36 -4 67 -4q107 0 107 87q0 23 -5 54h115q9 -36 9 -66q0 -128 -137 -158q62 -49 95 -119t33 -151zM413 565q-87 0 -146 -62t-59 -153q0 -92 60 -155
q58 -63 147 -63q87 0 148 63q60 61 60 153q0 91 -60 154q-61 63 -150 63z" />
    <glyph glyph-name="ohorn" unicode="&#x1a1;" horiz-adv-x="619" 
d="M586 251q0 -111 -79 -187q-79 -78 -198 -78q-121 0 -198 77q-78 77 -78 189q0 114 80 191q79 76 203 76q25 0 52 -3q11 0 21.5 -0.5t17 -1t11.5 -0.5q83 0 83 66q0 18 -5 47h101q9 -31 9 -58q0 -101 -106 -126q86 -75 86 -192zM439 255q0 60 -36.5 98.5t-92.5 38.5
q-57 0 -93.5 -39t-36.5 -99t36.5 -99.5t92.5 -39.5q57 0 93.5 40t36.5 100z" />
    <glyph glyph-name="Uhorn" unicode="&#x1af;" horiz-adv-x="825" 
d="M393 -12q-153 0 -237 86t-84 243v383h161v-386q0 -86 42.5 -133.5t119.5 -47.5t119.5 47.5t42.5 135.5v384h63q55 0 80.5 21t25.5 66q0 29 -4 54h115q9 -36 9 -66q0 -122 -131 -157v-301q0 -157 -84 -243t-238 -86z" />
    <glyph glyph-name="uhorn" unicode="&#x1b0;" horiz-adv-x="646" 
d="M557 439v-439h-147v92q-42 -54 -83.5 -78.5t-95.5 -24.5q-79 0 -125.5 53t-46.5 144v325h152v-294q0 -46 22 -71t63 -25q50 0 110 50v340h66q48 0 69.5 15t21.5 48l-5 43h102q8 -26 8 -53q0 -101 -111 -125z" />
    <glyph glyph-name="uni01CD" unicode="&#x1cd;" horiz-adv-x="813" 
d="M406 538l-112 -265h220zM495 702l300 -702h-173l-58 144h-320l-60 -144h-167l307 702h171zM608 920v-2l-130 -155h-140l-130 155v2h86l114 -68l114 68h86z" />
    <glyph glyph-name="uni01CE" unicode="&#x1ce;" horiz-adv-x="576" 
d="M177 144q0 -49 61 -49q50 0 132 42v91q-193 -13 -193 -84zM520 294v-282l-146 -19v77q-100 -79 -186 -79q-67 0 -108 37.5t-41 100.5q0 84 81.5 125.5t249.5 44.5q-6 99 -104 99q-82 0 -174 -65l-3 2l23 137q83 49 186 49q109 0 165.5 -58t56.5 -169zM499 782v-2
l-132 -183h-128l-132 183v2h75l120 -86l121 86h76z" />
    <glyph glyph-name="uni01CF" unicode="&#x1cf;" horiz-adv-x="328" 
d="M244 700v-700h-161v700h161zM364 920v-2l-130 -155h-140l-130 155v2h86l114 -68l114 68h86z" />
    <glyph glyph-name="uni01D0" unicode="&#x1d0;" horiz-adv-x="294" 
d="M222 511v-511h-151v511h151zM343 782v-2l-132 -183h-128l-132 183v2h75l120 -86l121 86h76z" />
    <glyph glyph-name="uni01D1" unicode="&#x1d1;" horiz-adv-x="831" 
d="M414 -14q-159 0 -265 104q-106 103 -106 259q0 153 107 260q106 105 266 105q159 0 266 -104q106 -105 106 -259q0 -155 -107 -260t-267 -105zM413 568q-87 0 -146 -62q-59 -64 -59 -155q0 -93 60 -156q58 -63 147 -63q87 0 148 63q60 63 60 154q0 92 -61 156
q-62 63 -149 63zM615 925v-2l-130 -155h-140l-130 155v2h86l114 -68l114 68h86z" />
    <glyph glyph-name="uni01D2" unicode="&#x1d2;" horiz-adv-x="619" 
d="M309 -14q-121 0 -198 78q-78 76 -78 191q0 113 79 192q80 78 198 78q120 0 199 -77q77 -77 77 -191q0 -113 -79 -192t-198 -79zM439 257q0 60 -36.5 99.5t-92.5 39.5q-57 0 -93.5 -40t-36.5 -101q0 -60 37 -100t92 -40q56 0 93 40.5t37 101.5zM505 787v-2l-132 -183h-128
l-132 183v2h75l120 -86l121 86h76z" />
    <glyph glyph-name="uni01D3" unicode="&#x1d3;" horiz-adv-x="787" 
d="M393 -12q-153 0 -237 86t-84 243v383h161v-386q0 -86 42.5 -133.5t119.5 -47.5t119.5 47.5t42.5 135.5v384h158v-383q0 -157 -84 -243t-238 -86zM593 920v-2l-130 -155h-140l-130 155v2h86l114 -68l114 68h86z" />
    <glyph glyph-name="uni01D4" unicode="&#x1d4;" horiz-adv-x="624" 
d="M557 511v-511h-147v92q-42 -54 -83.5 -78.5t-95.5 -24.5q-79 0 -125.5 53t-46.5 144v325h152v-294q0 -46 22 -71t63 -25q50 0 110 50v340h151zM505 782v-2l-132 -183h-128l-132 183v2h75l120 -86l121 86h76z" />
    <glyph glyph-name="uni01D5" unicode="&#x1d5;" horiz-adv-x="787" 
d="M393 -12q-153 0 -237 86t-84 243v383h161v-386q0 -86 42.5 -133.5t119.5 -47.5t119.5 47.5t42.5 135.5v384h158v-383q0 -157 -84 -243t-238 -86zM580 968h-374v90h374v-90zM507 924q36 0 60.5 -23.5t24.5 -57.5q0 -35 -24.5 -58.5t-60.5 -23.5q-37 0 -61.5 23.5
t-24.5 58.5t24.5 58t61.5 23zM279 924q37 0 61.5 -23t24.5 -58t-24.5 -58.5t-61.5 -23.5q-36 0 -60.5 23.5t-24.5 58.5q0 34 24.5 57.5t60.5 23.5z" />
    <glyph glyph-name="uni01D6" unicode="&#x1d6;" horiz-adv-x="624" 
d="M557 511v-511h-147v92q-42 -54 -83.5 -78.5t-95.5 -24.5q-79 0 -125.5 53t-46.5 144v325h152v-294q0 -46 22 -71t63 -25q50 0 110 50v340h151zM497 892v-86h-376v86h376zM422 593q-35 0 -59.5 23.5t-24.5 56.5t24.5 56.5t59.5 23.5t59.5 -23.5t24.5 -56.5t-24.5 -56.5
t-59.5 -23.5zM196 593q-35 0 -59.5 23.5t-24.5 56.5t24.5 56.5t59.5 23.5t59.5 -23.5t24.5 -56.5t-24.5 -56.5t-59.5 -23.5z" />
    <glyph glyph-name="uni01D7" unicode="&#x1d7;" horiz-adv-x="787" 
d="M393 -12q-153 0 -237 86t-84 243v383h161v-386q0 -86 42.5 -133.5t119.5 -47.5t119.5 47.5t42.5 135.5v384h158v-383q0 -157 -84 -243t-238 -86zM587 1088l-163 -140h-77l61 142h179v-2zM507 924q36 0 60.5 -23.5t24.5 -57.5q0 -35 -24.5 -58.5t-60.5 -23.5
q-37 0 -61.5 23.5t-24.5 58.5t24.5 58t61.5 23zM279 924q37 0 61.5 -23t24.5 -58t-24.5 -58.5t-61.5 -23.5q-36 0 -60.5 23.5t-24.5 58.5q0 34 24.5 57.5t60.5 23.5z" />
    <glyph glyph-name="uni01D8" unicode="&#x1d8;" horiz-adv-x="624" 
d="M557 511v-511h-147v92q-42 -54 -83.5 -78.5t-95.5 -24.5q-79 0 -125.5 53t-46.5 144v325h152v-294q0 -46 22 -71t63 -25q50 0 110 50v340h151zM496 925l-156 -144h-67l59 146h164v-2zM422 593q-35 0 -59.5 23.5t-24.5 56.5t24.5 56.5t59.5 23.5t59.5 -23.5t24.5 -56.5
t-24.5 -56.5t-59.5 -23.5zM196 593q-35 0 -59.5 23.5t-24.5 56.5t24.5 56.5t59.5 23.5t59.5 -23.5t24.5 -56.5t-24.5 -56.5t-59.5 -23.5z" />
    <glyph glyph-name="uni01D9" unicode="&#x1d9;" horiz-adv-x="787" 
d="M393 -12q-153 0 -237 86t-84 243v383h161v-386q0 -86 42.5 -133.5t119.5 -47.5t119.5 47.5t42.5 135.5v384h158v-383q0 -157 -84 -243t-238 -86zM587 1090v-2l-137 -140h-114l-137 140v2h85l109 -56l108 56h86zM507 924q36 0 60.5 -23.5t24.5 -57.5q0 -35 -24.5 -58.5
t-60.5 -23.5q-37 0 -61.5 23.5t-24.5 58.5t24.5 58t61.5 23zM279 924q37 0 61.5 -23t24.5 -58t-24.5 -58.5t-61.5 -23.5q-36 0 -60.5 23.5t-24.5 58.5q0 34 24.5 57.5t60.5 23.5z" />
    <glyph glyph-name="uni01DA" unicode="&#x1da;" horiz-adv-x="624" 
d="M557 511v-511h-147v92q-42 -54 -83.5 -78.5t-95.5 -24.5q-79 0 -125.5 53t-46.5 144v325h152v-294q0 -46 22 -71t63 -25q50 0 110 50v340h151zM497 931v-2l-133 -145h-110l-133 145v2h81l106 -61l106 61h83zM422 593q-35 0 -59.5 23.5t-24.5 56.5t24.5 56.5t59.5 23.5
t59.5 -23.5t24.5 -56.5t-24.5 -56.5t-59.5 -23.5zM196 593q-35 0 -59.5 23.5t-24.5 56.5t24.5 56.5t59.5 23.5t59.5 -23.5t24.5 -56.5t-24.5 -56.5t-59.5 -23.5z" />
    <glyph glyph-name="uni01DB" unicode="&#x1db;" horiz-adv-x="787" 
d="M393 -12q-153 0 -237 86t-84 243v383h161v-386q0 -86 42.5 -133.5t119.5 -47.5t119.5 47.5t42.5 135.5v384h158v-383q0 -157 -84 -243t-238 -86zM199 1090h179l61 -142h-77l-163 140v2zM279 761q-36 0 -60.5 23.5t-24.5 58.5q0 34 24.5 57.5t60.5 23.5q37 0 61.5 -23
t24.5 -58t-24.5 -58.5t-61.5 -23.5zM507 761q-37 0 -61.5 23.5t-24.5 58.5t24.5 58t61.5 23q36 0 60.5 -23.5t24.5 -57.5q0 -35 -24.5 -58.5t-60.5 -23.5z" />
    <glyph glyph-name="uni01DC" unicode="&#x1dc;" horiz-adv-x="624" 
d="M557 511v-511h-147v92q-42 -54 -83.5 -78.5t-95.5 -24.5q-79 0 -125.5 53t-46.5 144v325h152v-294q0 -46 22 -71t63 -25q50 0 110 50v340h151zM122 927h164l59 -146h-67l-156 144v2zM422 593q-35 0 -59.5 23.5t-24.5 56.5t24.5 56.5t59.5 23.5t59.5 -23.5t24.5 -56.5
t-24.5 -56.5t-59.5 -23.5zM196 593q-35 0 -59.5 23.5t-24.5 56.5t24.5 56.5t59.5 23.5t59.5 -23.5t24.5 -56.5t-24.5 -56.5t-59.5 -23.5z" />
    <glyph glyph-name="Gcaron" unicode="&#x1e6;" horiz-adv-x="776" 
d="M396 383h306v-315q-143 -78 -293 -78q-165 0 -265 97q-101 98 -101 257q0 163 111 265q110 101 286 101q132 0 244 -54v-160q-126 68 -238 68q-103 0 -170 -61t-67 -156q0 -99 61 -158t163 -59q60 0 120 20v117h-157v116zM614 925v-2l-130 -155h-140l-130 155v2h86
l114 -68l114 68h86z" />
    <glyph glyph-name="gcaron" unicode="&#x1e7;" horiz-adv-x="635" 
d="M181 264q0 -55 34 -88.5t88 -33.5q57 0 115 38v199q-50 17 -96 17q-61 0 -101 -37t-40 -95zM283 -195q-105 0 -203 46l-24 137l3 3q115 -61 212 -61q69 0 108 35t39 99v32q-73 -69 -165 -69q-95 0 -157 66q-62 65 -62 167q0 115 79 187q80 71 201 71q70 0 145 -26l97 21
h12v-439q0 -126 -76 -197.5t-209 -71.5zM519 782v-2l-132 -183h-128l-132 183v2h75l120 -86l121 86h76z" />
    <glyph glyph-name="uni01EA" unicode="&#x1ea;" horiz-adv-x="831" 
d="M425 -205q-59 0 -92 21t-33 58q0 35 55 91l22 23q-146 14 -240 115t-94 246q0 153 107 260q106 105 266 105q159 0 266 -104q106 -105 106 -259q0 -141 -90 -242q-90 -102 -231 -120l-26 -45q-17 -30 -17 -45q0 -41 88 -41h12l-18 -54q-49 -9 -81 -9zM413 568
q-87 0 -146 -62q-59 -64 -59 -155q0 -93 60 -156q58 -63 147 -63q87 0 148 63q60 63 60 154q0 92 -61 156q-62 63 -149 63z" />
    <glyph glyph-name="uni01EB" unicode="&#x1eb;" horiz-adv-x="619" 
d="M319 -205q-59 0 -92 21t-33 58q0 35 55 91l23 23q-106 12 -172 88q-67 74 -67 179q0 113 79 192q80 78 198 78q120 0 199 -77q77 -77 77 -191q0 -98 -62 -174q-63 -77 -162 -93l-27 -46q-17 -30 -17 -45q0 -41 88 -41h12l-18 -54q-49 -9 -81 -9zM439 257q0 60 -36.5 99.5
t-92.5 39.5q-57 0 -93.5 -40t-36.5 -101q0 -60 37 -100t92 -40q56 0 93 40.5t37 101.5z" />
    <glyph glyph-name="uni01F0" unicode="&#x1f0;" horiz-adv-x="294" 
d="M72 1v510h151v-502q0 -97 -49.5 -149t-140.5 -52q-31 0 -61 7l-23 109q19 -6 43 -6q80 0 80 83zM343 782v-2l-132 -183h-128l-132 183v2h75l120 -86l121 86h76z" />
    <glyph glyph-name="uni01F8" unicode="&#x1f8;" horiz-adv-x="822" 
d="M743 700v-703h-103l-404 460l2 -457h-159v700h156l350 -399l-1 399h159zM181 922h193l82 -157h-82l-193 155v2z" />
    <glyph glyph-name="uni01F9" unicode="&#x1f9;" horiz-adv-x="624" 
d="M328 390q-50 0 -109 -49v-341h-152v499l148 19v-98q79 103 178 103q79 0 125.5 -53t46.5 -144v-326h-151v295q0 45 -22.5 70t-63.5 25zM91 782h181l85 -185h-72l-194 183v2z" />
    <glyph glyph-name="Aringacute" unicode="&#x1fa;" horiz-adv-x="813" 
d="M486 744q0 32 -22 54t-55 22t-55 -22t-22 -54t22 -54t55 -22t55 22t22 54zM406 539l-112 -266h220zM513 660l282 -660h-173l-58 144h-320l-60 -144h-167l288 660q-32 37 -32 84q0 54 40 93q41 38 96 38q56 0 97 -38q39 -39 39 -93q0 -47 -32 -84zM634 1068l-193 -155h-82
l82 157h193v-2z" />
    <glyph glyph-name="aringacute" unicode="&#x1fb;" horiz-adv-x="576" 
d="M177 144q0 -49 61 -49q50 0 132 42v91q-193 -13 -193 -84zM520 294v-282l-146 -19v77q-100 -79 -186 -79q-67 0 -108 37.5t-41 100.5q0 84 81.5 125.5t249.5 44.5q-6 99 -104 99q-82 0 -174 -65l-3 2l23 137q83 49 186 49q109 0 165.5 -58t56.5 -169zM473 1010l-137 -120
h-59l65 122h131v-2zM303 590q-55 0 -93 39q-39 37 -39 92t39 92q38 38 93 38q54 0 94 -38q38 -38 38 -92t-38 -92q-39 -39 -94 -39zM303 797q-31 0 -52 -22t-21 -54t21 -54.5t52 -22.5t52 22.5t21 54.5t-21 54t-52 22z" />
    <glyph glyph-name="AEacute" unicode="&#x1fc;" horiz-adv-x="1036" 
d="M515 572l-181 -299h181v299zM990 137l-28 -137h-447v144h-259l-89 -144h-165l427 700h530l28 -137h-312v-148h259v-123h-259v-155h315zM857 920l-193 -155h-82l82 157h193v-2z" />
    <glyph glyph-name="aeacute" unicode="&#x1fd;" horiz-adv-x="906" 
d="M626 416q-45 0 -75 -31.5t-36 -83.5h216q-5 54 -33 84.5t-72 30.5zM177 144q0 -23 16.5 -36t44.5 -13q59 0 151 57q-15 41 -16 76q-196 -13 -196 -84zM857 158l3 -2l-41 -127q-84 -40 -176 -40q-141 0 -215 94q-121 -92 -234 -92q-71 0 -113 37t-42 101q0 84 81.5 125.5
t249.5 44.5q-6 99 -104 99q-82 0 -174 -65l-3 2l23 137q83 49 183 49q108 0 164 -65q69 69 173 69q111 0 175 -73t64 -194q0 -19 -3 -43h-356q12 -51 53.5 -79t104.5 -28q90 0 187 50zM690 780l-194 -183h-72l85 185h181v-2z" />
    <glyph glyph-name="Oslashacute" unicode="&#x1fe;" horiz-adv-x="831" 
d="M418 573q-92 0 -154 -65t-62 -162q0 -74 39 -132l274 337q-45 22 -97 22zM413 127q92 0 154 65t62 162q0 74 -39 132l-275 -337q45 -22 98 -22zM788 351q0 -155 -107 -260t-267 -105q-103 0 -194 51l-67 -80h-131l118 143q-97 103 -97 249q0 153 107 260q106 105 266 105
q106 0 194 -51l67 80h132l-119 -144q98 -104 98 -248zM645 925l-193 -155h-82l82 157h193v-2z" />
    <glyph glyph-name="oslashacute" unicode="&#x1ff;" horiz-adv-x="619" 
d="M313 401q-62 0 -100.5 -42t-38.5 -108q0 -44 21 -79l172 218q-25 11 -54 11zM305 110q62 0 101 42.5t39 108.5q0 41 -21 78l-172 -217q24 -12 53 -12zM586 257q0 -113 -79 -192t-198 -79q-74 0 -137 33l-46 -58h-112l90 111q-71 77 -71 183q0 113 79 192q80 78 198 78
q74 0 137 -33l45 58h113l-90 -110q71 -77 71 -183zM535 785l-194 -183h-72l85 185h181v-2z" />
    <glyph glyph-name="uni0218" unicode="&#x218;" horiz-adv-x="571" 
d="M246 290q-110 42 -153 91t-43 123q0 94 66 151t177 57q115 0 201 -51v-154h-2q-104 70 -202 70q-39 0 -61 -16t-22 -44t24 -47q23 -20 99 -51q108 -42 153 -91.5t45 -125.5q0 -98 -69 -156q-68 -58 -184 -58q-122 0 -219 66l-24 173l2 1q60 -48 126 -76.5t117 -28.5
q44 0 69 18t25 50q0 30 -25 49q-27 21 -100 50zM386 -150q0 -62 -148 -120l-73 29v3q73 38 73 65q0 14 -16.5 25.5t-59.5 29.5v4l151 41q73 -29 73 -77z" />
    <glyph glyph-name="uni0219" unicode="&#x219;" horiz-adv-x="510" 
d="M294 314q103 -25 142 -63t39 -101q0 -72 -60 -116q-62 -45 -160 -45q-109 0 -202 56l-20 137l3 2q121 -83 228 -83q32 0 51.5 11.5t19.5 29.5q0 21 -22 33q-23 12 -90 30q-98 26 -138 62t-40 96q0 72 58.5 115.5t156.5 43.5q96 0 179 -44v-128l-3 -1q-95 62 -182 62
q-32 0 -50.5 -10.5t-18.5 -27.5q0 -19 21 -30q23 -13 88 -29zM359 -147q0 -62 -148 -120l-73 29v3q73 38 73 65q0 14 -16.5 25.5t-59.5 29.5v4l151 41q73 -29 73 -77z" />
    <glyph glyph-name="uni021A" unicode="&#x21a;" horiz-adv-x="727" 
d="M33 700h661v-145h-250v-555h-161v555h-250v145zM475 -145q0 -62 -148 -120l-73 29v3q73 38 73 65q0 14 -16.5 25.5t-59.5 29.5v4l151 41q73 -29 73 -77z" />
    <glyph glyph-name="uni021B" unicode="&#x21b;" horiz-adv-x="470" 
d="M431 158l3 -2l-23 -132q-59 -35 -132 -35q-85 0 -129.5 49.5t-44.5 144.5v210h-78v118h78v109l149 37v-146h177v-118h-177v-197q0 -79 77 -79q45 0 100 41zM372 -145q0 -62 -148 -120l-73 29v3q73 38 73 65q0 14 -16.5 25.5t-59.5 29.5v4l151 41q73 -29 73 -77z" />
    <glyph glyph-name="uni0226" unicode="&#x226;" horiz-adv-x="813" 
d="M406 538l-112 -265h220zM495 702l300 -702h-173l-58 144h-320l-60 -144h-167l307 702h171zM408 927q36 0 60.5 -24t24.5 -60q0 -35 -24.5 -59t-60.5 -24t-60.5 24t-24.5 59q0 36 24.5 60t60.5 24z" />
    <glyph glyph-name="uni0227" unicode="&#x227;" horiz-adv-x="576" 
d="M177 144q0 -49 61 -49q50 0 132 42v91q-193 -13 -193 -84zM520 294v-282l-146 -19v77q-100 -79 -186 -79q-67 0 -108 37.5t-41 100.5q0 84 81.5 125.5t249.5 44.5q-6 99 -104 99q-82 0 -174 -65l-3 2l23 137q83 49 186 49q109 0 165.5 -58t56.5 -169zM303 591
q-35 0 -59 23.5t-24 58.5q0 34 24 57.5t59 23.5t59 -23.5t24 -57.5q0 -35 -24 -58.5t-59 -23.5z" />
    <glyph glyph-name="uni022E" unicode="&#x22e;" horiz-adv-x="831" 
d="M414 -14q-159 0 -265 104q-106 103 -106 259q0 153 107 260q106 105 266 105q159 0 266 -104q106 -105 106 -259q0 -155 -107 -260t-267 -105zM413 568q-87 0 -146 -62q-59 -64 -59 -155q0 -93 60 -156q58 -63 147 -63q87 0 148 63q60 63 60 154q0 92 -61 156
q-62 63 -149 63zM415 932q36 0 60.5 -24t24.5 -60q0 -35 -24.5 -59t-60.5 -24t-60.5 24t-24.5 59q0 36 24.5 60t60.5 24z" />
    <glyph glyph-name="uni022F" unicode="&#x22f;" horiz-adv-x="619" 
d="M309 -14q-121 0 -198 78q-78 76 -78 191q0 113 79 192q80 78 198 78q120 0 199 -77q77 -77 77 -191q0 -113 -79 -192t-198 -79zM439 257q0 60 -36.5 99.5t-92.5 39.5q-57 0 -93.5 -40t-36.5 -101q0 -60 37 -100t92 -40q56 0 93 40.5t37 101.5zM309 596q-35 0 -59 23.5
t-24 58.5q0 34 24 57.5t59 23.5t59 -23.5t24 -57.5q0 -35 -24 -58.5t-59 -23.5z" />
    <glyph glyph-name="uni0232" unicode="&#x232;" horiz-adv-x="704" 
d="M700 700l-267 -412v-288h-161v287l-267 413h187l164 -268l164 268h180zM551 786h-398v100h398v-100z" />
    <glyph glyph-name="uni0233" unicode="&#x233;" horiz-adv-x="592" 
d="M145 -192q-48 0 -88 17l-29 138l2 2q45 -23 85 -23q78 0 111 79l-213 490h164l126 -321l115 321h161l-205 -516q-72 -187 -229 -187zM487 618h-376v96h376v-96z" />
    <glyph glyph-name="uni0237" unicode="&#x237;" horiz-adv-x="294" 
d="M72 1v510h151v-502q0 -97 -49.5 -149t-140.5 -52q-31 0 -61 7l-23 109q19 -6 43 -6q80 0 80 83z" />
    <glyph glyph-name="uni0259" unicode="&#x259;" horiz-adv-x="569" 
d="M536 255q0 -115 -73 -191q-73 -78 -186 -78q-112 0 -177 74q-66 74 -66 194q0 19 3 43h353q-12 51 -52 79t-102 28q-89 0 -187 -51l-3 3l41 127q82 39 176 39q125 0 199 -73q74 -74 74 -194zM280 95q44 0 74.5 32t36.5 84h-216q5 -54 33 -85t72 -31z" />
    <glyph glyph-name="uni02B9" unicode="&#x2b9;" horiz-adv-x="293" 
d="M101 396l-65 18l70 286h175z" />
    <glyph glyph-name="uni02BA" unicode="&#x2ba;" horiz-adv-x="518" 
d="M330 396l-65 18l70 286h172zM100 396l-64 18l70 286h171z" />
    <glyph glyph-name="uni02BB" unicode="&#x2bb;" horiz-adv-x="257" 
d="M166 529q0 -24 11 -51q12 -28 49 -90h-158q-38 62 -38 113q0 45 36.5 93.5t120.5 114.5l46 -33q-38 -53 -53 -87q-14 -33 -14 -60z" />
    <glyph glyph-name="uni02BC" unicode="&#x2bc;" horiz-adv-x="257" 
d="M91 559q0 28 -10 52q-8 20 -50 89h158q38 -62 38 -113q0 -45 -36.5 -93.5t-120.5 -114.5l-46 33q39 55 53 86t14 61z" />
    <glyph glyph-name="uni02BE" unicode="&#x2be;" horiz-adv-x="206" 
d="M181 674q0 -59 -41 -95t-108 -36v63q37 0 59 18.5t22 49.5t-21.5 48.5t-59.5 18.5v63q69 0 109 -35t40 -95z" />
    <glyph glyph-name="uni02BF" unicode="&#x2bf;" horiz-adv-x="206" 
d="M25 674q0 59 40.5 94.5t108.5 35.5v-63q-37 0 -58.5 -18t-21.5 -49t21 -49t59 -19v-63q-68 0 -108.5 35.5t-40.5 95.5z" />
    <glyph glyph-name="circumflex" unicode="&#x2c6;" horiz-adv-x="500" 
d="M446 599v-2h-75l-120 86l-121 -86h-76v2l132 183h128z" />
    <glyph glyph-name="caron" unicode="&#x2c7;" horiz-adv-x="500" 
d="M446 782v-2l-132 -183h-128l-132 183v2h75l120 -86l121 86h76z" />
    <glyph glyph-name="uni02C8" unicode="&#x2c8;" horiz-adv-x="177" 
d="M122 801v-255h-67v255h67z" />
    <glyph glyph-name="uni02CC" unicode="&#x2cc;" horiz-adv-x="177" 
d="M122 66v-255h-67v255h67z" />
    <glyph glyph-name="uni02CD" unicode="&#x2cd;" horiz-adv-x="500" 
d="M438 -185h-376v96h376v-96z" />
    <glyph glyph-name="breve" unicode="&#x2d8;" horiz-adv-x="500" 
d="M250 589q-115 0 -196 141l61 48q67 -80 135 -80t135 80l61 -47q-80 -142 -196 -142z" />
    <glyph glyph-name="dotaccent" unicode="&#x2d9;" horiz-adv-x="500" 
d="M250 591q-35 0 -59 23.5t-24 58.5q0 34 24 57.5t59 23.5t59 -23.5t24 -57.5q0 -35 -24 -58.5t-59 -23.5z" />
    <glyph glyph-name="ring" unicode="&#x2da;" horiz-adv-x="500" 
d="M250 590q-56 0 -93 39q-39 37 -39 92t39 92q38 38 93 38q54 0 94 -38q38 -38 38 -92t-38 -92q-39 -39 -94 -39zM250 797q-31 0 -52 -22t-21 -54t21 -54.5t52 -22.5t52 22.5t21 54.5t-21 54t-52 22z" />
    <glyph glyph-name="ogonek" unicode="&#x2db;" horiz-adv-x="500" 
d="M347 -137h12l-18 -54q-49 -9 -81 -9q-59 0 -92 21t-33 58q0 35 55 91l39 40h82l-35 -61q-17 -30 -17 -45q0 -41 88 -41z" />
    <glyph glyph-name="tilde" unicode="&#x2dc;" horiz-adv-x="500" 
d="M262 734q48 -28 64 -28q13 0 24 10q9 8 48 56l64 -41q-50 -85 -76 -111q-28 -28 -62 -28q-23 0 -86 36q-50 28 -64 28q-12 0 -23 -9q-10 -9 -49 -57l-64 41q49 84 76 111t62 27q22 0 86 -35z" />
    <glyph glyph-name="hungarumlaut" unicode="&#x2dd;" horiz-adv-x="500" 
d="M550 780l-181 -183h-68l85 185h164v-2zM357 780l-181 -183h-68l85 185h164v-2z" />
    <glyph glyph-name="uni0300" unicode="&#x300;" 
d="M-226 782h181l85 -185h-72l-194 183v2z" />
    <glyph glyph-name="uni0301" unicode="&#x301;" 
d="M226 780l-194 -183h-72l85 185h181v-2z" />
    <glyph glyph-name="uni0302" unicode="&#x302;" 
d="M196 599v-2h-75l-120 86l-121 -86h-76v2l132 183h128z" />
    <glyph glyph-name="uni0303" unicode="&#x303;" 
d="M12 734q48 -28 64 -28q13 0 24 10q9 8 48 56l64 -41q-50 -85 -76 -111q-28 -28 -62 -28q-23 0 -86 36q-50 28 -64 28q-12 0 -24 -9q-10 -11 -48 -57l-64 41q48 83 75 111q29 27 63 27q22 0 86 -35z" />
    <glyph glyph-name="uni0304" unicode="&#x304;" 
d="M188 618h-376v96h376v-96z" />
    <glyph glyph-name="uni0306" unicode="&#x306;" 
d="M-196 589q-115 0 -196 141l61 48q67 -80 135 -80t135 80l61 -47q-80 -142 -196 -142z" />
    <glyph glyph-name="uni0307" unicode="&#x307;" 
d="M-83 591q-35 0 -59 23.5t-24 58.5q0 34 24 57.5t59 23.5t59 -23.5t24 -57.5q0 -35 -24 -58.5t-59 -23.5z" />
    <glyph glyph-name="uni0308" unicode="&#x308;" 
d="M113 593q-36 0 -60.5 24t-24.5 59t24.5 58.5t60.5 23.5t60.5 -23.5t24.5 -58.5t-24.5 -59t-60.5 -24zM-113 593q-36 0 -60.5 24t-24.5 59t24.5 58.5t60.5 23.5t60.5 -23.5t24.5 -58.5t-24.5 -59t-60.5 -24z" />
    <glyph glyph-name="uni0309" unicode="&#x309;" 
d="M141 741q0 -35 -27 -70q-26 -33 -102 -85l-70 22v2q43 36 74 67q19 19 19 36q0 27 -35 27q-51 0 -118 -48h-2v99q64 46 142 46q55 0 87 -26t32 -70z" />
    <glyph glyph-name="uni030A" unicode="&#x30a;" 
d="M-132 590q-55 0 -94 39q-38 38 -38 92t38 92q40 38 94 38t94 -38q38 -38 38 -92t-38 -92q-39 -39 -94 -39zM-132 797q-31 0 -52 -22t-21 -54t21 -54.5t52 -22.5t52 22.5t21 54.5t-21 54t-52 22z" />
    <glyph glyph-name="uni030B" unicode="&#x30b;" 
d="M300 780l-181 -183h-68l85 185h164v-2zM107 780l-181 -183h-68l85 185h164v-2z" />
    <glyph glyph-name="uni030C" unicode="&#x30c;" 
d="M196 782v-2l-132 -183h-128l-132 183v2h75l120 -86l121 86h76z" />
    <glyph glyph-name="uni0312" unicode="&#x312;" 
d="M-111 671q0 67 148 126l73 -29v-3q-73 -40 -73 -69q0 -16 16.5 -28.5t59.5 -31.5v-4l-151 -42q-39 17 -56 36t-17 45z" />
    <glyph glyph-name="uni0315" unicode="&#x315;" 
d="M60 564h-60q22 43 22 98q0 54 -22 99h117q8 -27 8 -49q0 -76 -65 -148z" />
    <glyph glyph-name="uni0323" unicode="&#x323;" 
d="M-83 -231q-35 0 -59 23.5t-24 58.5q0 34 24 57.5t59 23.5t59 -23.5t24 -57.5q0 -35 -24 -58.5t-59 -23.5z" />
    <glyph glyph-name="uni0324" unicode="&#x324;" 
d="M113 -236q-36 0 -60.5 24t-24.5 59t24.5 58.5t60.5 23.5t60.5 -23.5t24.5 -58.5t-24.5 -59t-60.5 -24zM-113 -236q-36 0 -60.5 24t-24.5 59t24.5 58.5t60.5 23.5t60.5 -23.5t24.5 -58.5t-24.5 -59t-60.5 -24z" />
    <glyph glyph-name="uni0326" unicode="&#x326;" 
d="M111 -145q0 -62 -148 -120l-73 29v3q73 38 73 65q0 14 -16.5 25.5t-59.5 29.5v4l151 41q73 -29 73 -77z" />
    <glyph glyph-name="uni0327" unicode="&#x327;" 
d="M122 -122q0 -40 -40.5 -65t-108.5 -25q-47 0 -86 11l-26 59l3 3q55 -15 93 -15q56 0 56 30q0 27 -56 27q-31 0 -51 -3l-4 4l68 103h82l-39 -54q109 -6 109 -75z" />
    <glyph glyph-name="uni0328" unicode="&#x328;" 
d="M97 -137h12l-18 -54q-49 -9 -81 -9q-59 0 -92 21t-33 58q0 35 55 91l39 40h82l-35 -61q-17 -30 -17 -45q0 -41 88 -41z" />
    <glyph glyph-name="uni032D" unicode="&#x32d;" 
d="M196 -257v-2h-75l-120 86l-121 -86h-76v2l132 183h128z" />
    <glyph glyph-name="uni032E" unicode="&#x32e;" 
d="M-196 -263q-115 0 -196 141l61 48q67 -80 135 -80t135 80l61 -47q-80 -142 -196 -142z" />
    <glyph glyph-name="uni0331" unicode="&#x331;" 
d="M188 -191h-376v96h376v-96z" />
    <glyph glyph-name="uni0E3F" unicode="&#xe3f;" horiz-adv-x="664" 
d="M380 0v-147h-104v147h-197v700h197v118h104v-118q103 -4 160.5 -52.5t57.5 -130.5q0 -47 -25.5 -87.5t-71.5 -65.5q121 -49 121 -163q0 -89 -65.5 -143t-176.5 -58zM348 579h-119v-170h115q50 0 78 23.5t28 66.5q0 39 -26.5 59.5t-75.5 20.5zM348 300h-119v-180h124
q54 0 85 23.5t31 65.5q0 44 -31.5 67.5t-89.5 23.5z" />
    <glyph glyph-name="uni1E06" unicode="&#x1e06;" horiz-adv-x="643" 
d="M601 201q0 -92 -71 -146q-71 -55 -191 -55h-260v700h259q111 0 173.5 -49t62.5 -136q0 -99 -99 -150q126 -47 126 -164zM319 576h-87v-166h81q49 0 78 23.5t29 62.5q0 38 -26.5 59t-74.5 21zM323 299h-91v-175h95q54 0 85 23.5t31 63.5q0 43 -31 65.5t-89 22.5zM518 -191
h-376v96h376v-96z" />
    <glyph glyph-name="uni1E07" unicode="&#x1e07;" horiz-adv-x="630" 
d="M596 269q0 -121 -81 -198q-81 -78 -203 -78q-59 0 -137 26l-95 -21h-13v720l152 40v-309q71 72 159 72q94 0 156 -71q62 -73 62 -181zM302 118q65 0 106 40t41 104q0 60 -34.5 96.5t-90.5 36.5q-54 0 -105 -32v-231q39 -14 83 -14zM502 -191h-376v96h376v-96z" />
    <glyph glyph-name="uni1E0C" unicode="&#x1e0c;" horiz-adv-x="779" 
d="M570 350q0 98 -63.5 153.5t-176.5 55.5h-89v-418h91q109 0 173.5 56.5t64.5 152.5zM332 0h-253v700h253q189 0 296 -92q107 -93 107 -256q0 -160 -109 -256q-110 -96 -294 -96zM379 -231q-35 0 -59 23.5t-24 58.5q0 34 24 57.5t59 23.5t59 -23.5t24 -57.5
q0 -35 -24 -58.5t-59 -23.5z" />
    <glyph glyph-name="uni1E0D" unicode="&#x1e0d;" horiz-adv-x="635" 
d="M181 253q0 -60 35 -98t90 -38q54 0 111 39v209q-49 28 -102 28q-59 0 -96.5 -39t-37.5 -101zM568 758v-758h-148v72q-73 -82 -166 -82t-156 73q-64 71 -64 181q0 118 72 197q71 78 175 78q71 0 136 -50v249zM316 -231q-35 0 -59 23.5t-24 58.5q0 34 24 57.5t59 23.5
t59 -23.5t24 -57.5q0 -35 -24 -58.5t-59 -23.5z" />
    <glyph glyph-name="uni1E0E" unicode="&#x1e0e;" horiz-adv-x="779" 
d="M570 350q0 98 -63.5 153.5t-176.5 55.5h-89v-418h91q109 0 173.5 56.5t64.5 152.5zM332 0h-253v700h253q189 0 296 -92q107 -93 107 -256q0 -160 -109 -256q-110 -96 -294 -96zM567 -191h-376v96h376v-96z" />
    <glyph glyph-name="uni1E0F" unicode="&#x1e0f;" horiz-adv-x="635" 
d="M181 253q0 -60 35 -98t90 -38q54 0 111 39v209q-49 28 -102 28q-59 0 -96.5 -39t-37.5 -101zM568 758v-758h-148v72q-73 -82 -166 -82t-156 73q-64 71 -64 181q0 118 72 197q71 78 175 78q71 0 136 -50v249zM504 -191h-376v96h376v-96z" />
    <glyph glyph-name="uni1E12" unicode="&#x1e12;" horiz-adv-x="779" 
d="M570 350q0 98 -63.5 153.5t-176.5 55.5h-89v-418h91q109 0 173.5 56.5t64.5 152.5zM332 0h-253v700h253q189 0 296 -92q107 -93 107 -256q0 -160 -109 -256q-110 -96 -294 -96zM575 -257v-2h-75l-120 86l-121 -86h-76v2l132 183h128z" />
    <glyph glyph-name="uni1E13" unicode="&#x1e13;" horiz-adv-x="635" 
d="M181 253q0 -60 35 -98t90 -38q54 0 111 39v209q-49 28 -102 28q-59 0 -96.5 -39t-37.5 -101zM568 758v-758h-148v72q-73 -82 -166 -82t-156 73q-64 71 -64 181q0 118 72 197q71 78 175 78q71 0 136 -50v249zM512 -257v-2h-75l-120 86l-121 -86h-76v2l132 183h128z" />
    <glyph glyph-name="uni1E20" unicode="&#x1e20;" horiz-adv-x="776" 
d="M396 383h306v-315q-143 -78 -293 -78q-165 0 -265 97q-101 98 -101 257q0 163 111 265q110 101 286 101q132 0 244 -54v-160q-126 68 -238 68q-103 0 -170 -61t-67 -156q0 -99 61 -158t163 -59q60 0 120 20v117h-157v116zM613 791h-398v100h398v-100z" />
    <glyph glyph-name="uni1E21" unicode="&#x1e21;" horiz-adv-x="635" 
d="M181 264q0 -55 34 -88.5t88 -33.5q57 0 115 38v199q-50 17 -96 17q-61 0 -101 -37t-40 -95zM283 -195q-105 0 -203 46l-24 137l3 3q115 -61 212 -61q69 0 108 35t39 99v32q-73 -69 -165 -69q-95 0 -157 66q-62 65 -62 167q0 115 79 187q80 71 201 71q70 0 145 -26l97 21
h12v-439q0 -126 -76 -197.5t-209 -71.5zM511 618h-376v96h376v-96z" />
    <glyph glyph-name="uni1E24" unicode="&#x1e24;" horiz-adv-x="811" 
d="M732 700v-700h-161v281h-330v-281h-162v700h162v-271h330v271h161zM406 -228q-35 0 -59 23.5t-24 58.5q0 34 24 57.5t59 23.5t59 -23.5t24 -57.5q0 -35 -24 -58.5t-59 -23.5z" />
    <glyph glyph-name="uni1E25" unicode="&#x1e25;" horiz-adv-x="624" 
d="M328 390q-50 0 -109 -49v-341h-152v718l152 40v-333q41 52 82 75t92 23q79 0 125.5 -53t46.5 -144v-326h-151v295q0 45 -22.5 70t-63.5 25zM316 -226q-35 0 -59 23.5t-24 58.5q0 34 24 57.5t59 23.5t59 -23.5t24 -57.5q0 -35 -24 -58.5t-59 -23.5z" />
    <glyph glyph-name="uni1E28" unicode="&#x1e28;" horiz-adv-x="811" 
d="M280 -122q0 -40 -40.5 -65t-108.5 -25q-47 0 -86 11l-26 59l3 3q55 -15 93 -15q56 0 56 30q0 27 -56 27q-31 0 -51 -3l-4 4l63 96h-44v700h162v-271h330v271h161v-700h-161v281h-330v-281h-36l-34 -47q109 -6 109 -75z" />
    <glyph glyph-name="uni1E29" unicode="&#x1e29;" horiz-adv-x="624" 
d="M263 -122q0 -40 -40.5 -65t-108.5 -25q-48 0 -86 11l-26 59l3 3q55 -15 93 -15q56 0 56 30q0 27 -56 27q-31 0 -51 -3l-4 4l63 96h-39v718l152 40v-333q41 52 82 75t92 23q79 0 125.5 -53t46.5 -144v-326h-151v295q0 45 -22.5 70t-63.5 25q-50 0 -109 -49v-341h-31
l-34 -47q109 -6 109 -75z" />
    <glyph glyph-name="uni1E2A" unicode="&#x1e2a;" horiz-adv-x="811" 
d="M732 700v-700h-161v281h-330v-281h-162v700h162v-271h330v271h161zM406 -263q-115 0 -196 141l61 48q67 -80 135 -80t135 80l61 -47q-80 -142 -196 -142z" />
    <glyph glyph-name="uni1E2B" unicode="&#x1e2b;" horiz-adv-x="624" 
d="M328 390q-50 0 -109 -49v-341h-152v718l152 40v-333q41 52 82 75t92 23q79 0 125.5 -53t46.5 -144v-326h-151v295q0 45 -22.5 70t-63.5 25zM316 -263q-115 0 -196 141l61 48q67 -80 135 -80t135 80l61 -47q-80 -142 -196 -142z" />
    <glyph glyph-name="uni1E32" unicode="&#x1e32;" horiz-adv-x="728" 
d="M725 3v-3h-202l-262 293h-20v-293h-162v700h162v-280h21l261 280h197v-3l-325 -335zM383 -231q-35 0 -59 23.5t-24 58.5q0 34 24 57.5t59 23.5t59 -23.5t24 -57.5q0 -35 -24 -58.5t-59 -23.5z" />
    <glyph glyph-name="uni1E33" unicode="&#x1e33;" horiz-adv-x="588" 
d="M587 3v-3h-181l-164 210h-23v-210h-152v718l152 40v-451h22l160 204h172v-2l-200 -244zM315 -231q-35 0 -59 23.5t-24 58.5q0 34 24 57.5t59 23.5t59 -23.5t24 -57.5q0 -35 -24 -58.5t-59 -23.5z" />
    <glyph glyph-name="uni1E34" unicode="&#x1e34;" horiz-adv-x="728" 
d="M725 3v-3h-202l-262 293h-20v-293h-162v700h162v-280h21l261 280h197v-3l-325 -335zM571 -191h-376v96h376v-96z" />
    <glyph glyph-name="uni1E35" unicode="&#x1e35;" horiz-adv-x="588" 
d="M587 3v-3h-181l-164 210h-23v-210h-152v718l152 40v-451h22l160 204h172v-2l-200 -244zM503 -191h-376v96h376v-96z" />
    <glyph glyph-name="uni1E36" unicode="&#x1e36;" horiz-adv-x="557" 
d="M522 145v-145h-443v700h162v-555h281zM302 -231q-35 0 -59 23.5t-24 58.5q0 34 24 57.5t59 23.5t59 -23.5t24 -57.5q0 -35 -24 -58.5t-59 -23.5z" />
    <glyph glyph-name="uni1E37" unicode="&#x1e37;" horiz-adv-x="294" 
d="M222 758v-758h-151v718zM147 -231q-35 0 -59 23.5t-24 58.5q0 34 24 57.5t59 23.5t59 -23.5t24 -57.5q0 -35 -24 -58.5t-59 -23.5z" />
    <glyph glyph-name="uni1E38" unicode="&#x1e38;" horiz-adv-x="557" 
d="M522 145v-145h-443v700h162v-555h281zM328 786h-318v100h318v-100zM302 -231q-35 0 -59 23.5t-24 58.5q0 34 24 57.5t59 23.5t59 -23.5t24 -57.5q0 -35 -24 -58.5t-59 -23.5z" />
    <glyph glyph-name="uni1E39" unicode="&#x1e39;" horiz-adv-x="294" 
d="M222 758v-758h-151v718zM306 829h-318v96h318v-96zM147 -231q-35 0 -59 23.5t-24 58.5q0 34 24 57.5t59 23.5t59 -23.5t24 -57.5q0 -35 -24 -58.5t-59 -23.5z" />
    <glyph glyph-name="uni1E3A" unicode="&#x1e3a;" horiz-adv-x="557" 
d="M522 145v-145h-443v700h162v-555h281zM490 -191h-376v96h376v-96z" />
    <glyph glyph-name="uni1E3B" unicode="&#x1e3b;" horiz-adv-x="294" 
d="M222 758v-758h-151v718zM306 -191h-318v96h318v-96z" />
    <glyph glyph-name="uni1E3C" unicode="&#x1e3c;" horiz-adv-x="557" 
d="M522 145v-145h-443v700h162v-555h281zM498 -257v-2h-75l-120 86l-121 -86h-76v2l132 183h128z" />
    <glyph glyph-name="uni1E3D" unicode="&#x1e3d;" horiz-adv-x="294" 
d="M222 758v-758h-151v718zM343 -257v-2h-75l-120 86l-121 -86h-76v2l132 183h128z" />
    <glyph glyph-name="uni1E3E" unicode="&#x1e3e;" horiz-adv-x="1028" 
d="M792 516l-272 -526h-14l-273 523v-513h-154v700h224l211 -423l210 423h225v-700h-157v516zM744 920l-193 -155h-82l82 157h193v-2z" />
    <glyph glyph-name="uni1E3F" unicode="&#x1e3f;" horiz-adv-x="942" 
d="M318 390q-48 0 -99 -44v-346h-152v499l148 19v-92q74 97 168 97q54 0 93.5 -26.5t58.5 -76.5q41 55 83 79t95 24q78 0 124 -53t46 -144v-326h-152v295q0 45 -21 70t-60 25q-46 0 -100 -44q1 -5 1 -20v-326h-152v295q0 45 -21 70t-60 25zM701 780l-194 -183h-72l85 185
h181v-2z" />
    <glyph glyph-name="uni1E40" unicode="&#x1e40;" horiz-adv-x="1028" 
d="M792 516l-272 -526h-14l-273 523v-513h-154v700h224l211 -423l210 423h225v-700h-157v516zM514 927q36 0 60.5 -24t24.5 -60q0 -35 -24.5 -59t-60.5 -24t-60.5 24t-24.5 59q0 36 24.5 60t60.5 24z" />
    <glyph glyph-name="uni1E41" unicode="&#x1e41;" horiz-adv-x="942" 
d="M318 390q-48 0 -99 -44v-346h-152v499l148 19v-92q74 97 168 97q54 0 93.5 -26.5t58.5 -76.5q41 55 83 79t95 24q78 0 124 -53t46 -144v-326h-152v295q0 45 -21 70t-60 25q-46 0 -100 -44q1 -5 1 -20v-326h-152v295q0 45 -21 70t-60 25zM475 591q-35 0 -59 23.5t-24 58.5
q0 34 24 57.5t59 23.5t59 -23.5t24 -57.5q0 -35 -24 -58.5t-59 -23.5z" />
    <glyph glyph-name="uni1E42" unicode="&#x1e42;" horiz-adv-x="1028" 
d="M792 516l-272 -526h-14l-273 523v-513h-154v700h224l211 -423l210 423h225v-700h-157v516zM513 -233q-35 0 -59 23.5t-24 58.5q0 34 24 57.5t59 23.5t59 -23.5t24 -57.5q0 -35 -24 -58.5t-59 -23.5z" />
    <glyph glyph-name="uni1E43" unicode="&#x1e43;" horiz-adv-x="942" 
d="M318 390q-48 0 -99 -44v-346h-152v499l148 19v-92q74 97 168 97q54 0 93.5 -26.5t58.5 -76.5q41 55 83 79t95 24q78 0 124 -53t46 -144v-326h-152v295q0 45 -21 70t-60 25q-46 0 -100 -44q1 -5 1 -20v-326h-152v295q0 45 -21 70t-60 25zM475 -231q-35 0 -59 23.5
t-24 58.5q0 34 24 57.5t59 23.5t59 -23.5t24 -57.5q0 -35 -24 -58.5t-59 -23.5z" />
    <glyph glyph-name="uni1E44" unicode="&#x1e44;" horiz-adv-x="822" 
d="M743 700v-703h-103l-404 460l2 -457h-159v700h156l350 -399l-1 399h159zM411 927q36 0 60.5 -24t24.5 -60q0 -35 -24.5 -59t-60.5 -24t-60.5 24t-24.5 59q0 36 24.5 60t60.5 24z" />
    <glyph glyph-name="uni1E45" unicode="&#x1e45;" horiz-adv-x="624" 
d="M328 390q-50 0 -109 -49v-341h-152v499l148 19v-98q79 103 178 103q79 0 125.5 -53t46.5 -144v-326h-151v295q0 45 -22.5 70t-63.5 25zM317 591q-35 0 -59 23.5t-24 58.5q0 34 24 57.5t59 23.5t59 -23.5t24 -57.5q0 -35 -24 -58.5t-59 -23.5z" />
    <glyph glyph-name="uni1E46" unicode="&#x1e46;" horiz-adv-x="822" 
d="M743 700v-703h-103l-404 460l2 -457h-159v700h156l350 -399l-1 399h159zM418 -228q-35 0 -59 23.5t-24 58.5q0 34 24 57.5t59 23.5t59 -23.5t24 -57.5q0 -35 -24 -58.5t-59 -23.5z" />
    <glyph glyph-name="uni1E47" unicode="&#x1e47;" horiz-adv-x="624" 
d="M328 390q-50 0 -109 -49v-341h-152v499l148 19v-98q79 103 178 103q79 0 125.5 -53t46.5 -144v-326h-151v295q0 45 -22.5 70t-63.5 25zM317 -226q-35 0 -59 23.5t-24 58.5q0 34 24 57.5t59 23.5t59 -23.5t24 -57.5q0 -35 -24 -58.5t-59 -23.5z" />
    <glyph glyph-name="uni1E48" unicode="&#x1e48;" horiz-adv-x="822" 
d="M743 700v-703h-103l-404 460l2 -457h-159v700h156l350 -399l-1 399h159zM606 -191h-376v96h376v-96z" />
    <glyph glyph-name="uni1E49" unicode="&#x1e49;" horiz-adv-x="624" 
d="M328 390q-50 0 -109 -49v-341h-152v499l148 19v-98q79 103 178 103q79 0 125.5 -53t46.5 -144v-326h-151v295q0 45 -22.5 70t-63.5 25zM505 -191h-376v96h376v-96z" />
    <glyph glyph-name="uni1E4A" unicode="&#x1e4a;" horiz-adv-x="822" 
d="M743 700v-703h-103l-404 460l2 -457h-159v700h156l350 -399l-1 399h159zM614 -257v-2h-75l-120 86l-121 -86h-76v2l132 183h128z" />
    <glyph glyph-name="uni1E4B" unicode="&#x1e4b;" horiz-adv-x="624" 
d="M328 390q-50 0 -109 -49v-341h-152v499l148 19v-98q79 103 178 103q79 0 125.5 -53t46.5 -144v-326h-151v295q0 45 -22.5 70t-63.5 25zM513 -255v-2h-75l-120 86l-121 -86h-76v2l132 183h128z" />
    <glyph glyph-name="uni1E58" unicode="&#x1e58;" horiz-adv-x="669" 
d="M314 570h-76v-198h73q53 0 85 27.5t32 73.5q0 44 -31 70.5t-83 26.5zM449 281l233 -281h-192l-207 254h-42v-254h-162v700h244q126 0 195.5 -57t69.5 -161q0 -67 -36.5 -119.5t-102.5 -81.5zM317 927q36 0 60.5 -24t24.5 -60q0 -35 -24.5 -59t-60.5 -24t-60.5 24
t-24.5 59q0 36 24.5 60t60.5 24z" />
    <glyph glyph-name="uni1E59" unicode="&#x1e59;" horiz-adv-x="446" 
d="M389 361q-78 0 -170 -62v-299h-152v499l148 19v-133q53 75 90 104.5t78 29.5q13 0 33 -4l9 -157q-12 3 -36 3zM245 591q-35 0 -59 23.5t-24 58.5q0 34 24 57.5t59 23.5t59 -23.5t24 -57.5q0 -35 -24 -58.5t-59 -23.5z" />
    <glyph glyph-name="uni1E5A" unicode="&#x1e5a;" horiz-adv-x="669" 
d="M314 570h-76v-198h73q53 0 85 27.5t32 73.5q0 44 -31 70.5t-83 26.5zM449 281l233 -281h-192l-207 254h-42v-254h-162v700h244q126 0 195.5 -57t69.5 -161q0 -67 -36.5 -119.5t-102.5 -81.5zM354 -231q-35 0 -59 23.5t-24 58.5q0 34 24 57.5t59 23.5t59 -23.5t24 -57.5
q0 -35 -24 -58.5t-59 -23.5z" />
    <glyph glyph-name="uni1E5B" unicode="&#x1e5b;" horiz-adv-x="446" 
d="M389 361q-78 0 -170 -62v-299h-152v499l148 19v-133q53 75 90 104.5t78 29.5q13 0 33 -4l9 -157q-12 3 -36 3zM143 -231q-35 0 -59 23.5t-24 58.5q0 34 24 57.5t59 23.5t59 -23.5t24 -57.5q0 -35 -24 -58.5t-59 -23.5z" />
    <glyph glyph-name="uni1E5C" unicode="&#x1e5c;" horiz-adv-x="669" 
d="M314 570h-76v-198h73q53 0 85 27.5t32 73.5q0 44 -31 70.5t-83 26.5zM449 281l233 -281h-192l-207 254h-42v-254h-162v700h244q126 0 195.5 -57t69.5 -161q0 -67 -36.5 -119.5t-102.5 -81.5zM516 786h-398v100h398v-100zM354 -231q-35 0 -59 23.5t-24 58.5q0 34 24 57.5
t59 23.5t59 -23.5t24 -57.5q0 -35 -24 -58.5t-59 -23.5z" />
    <glyph glyph-name="uni1E5D" unicode="&#x1e5d;" horiz-adv-x="446" 
d="M389 361q-78 0 -170 -62v-299h-152v499l148 19v-133q53 75 90 104.5t78 29.5q13 0 33 -4l9 -157q-12 3 -36 3zM404 618h-318v96h318v-96zM143 -231q-35 0 -59 23.5t-24 58.5q0 34 24 57.5t59 23.5t59 -23.5t24 -57.5q0 -35 -24 -58.5t-59 -23.5z" />
    <glyph glyph-name="uni1E5E" unicode="&#x1e5e;" horiz-adv-x="669" 
d="M314 570h-76v-198h73q53 0 85 27.5t32 73.5q0 44 -31 70.5t-83 26.5zM449 281l233 -281h-192l-207 254h-42v-254h-162v700h244q126 0 195.5 -57t69.5 -161q0 -67 -36.5 -119.5t-102.5 -81.5zM542 -191h-376v96h376v-96z" />
    <glyph glyph-name="uni1E5F" unicode="&#x1e5f;" horiz-adv-x="446" 
d="M389 361q-78 0 -170 -62v-299h-152v499l148 19v-133q53 75 90 104.5t78 29.5q13 0 33 -4l9 -157q-12 3 -36 3zM302 -191h-318v96h318v-96z" />
    <glyph glyph-name="uni1E62" unicode="&#x1e62;" horiz-adv-x="571" 
d="M246 290q-110 42 -153 91t-43 123q0 94 66 151t177 57q115 0 201 -51v-154h-2q-104 70 -202 70q-39 0 -61 -16t-22 -44t24 -47q23 -20 99 -51q108 -42 153 -91.5t45 -125.5q0 -98 -69 -156q-68 -58 -184 -58q-122 0 -219 66l-24 173l2 1q60 -48 126 -76.5t117 -28.5
q44 0 69 18t25 50q0 30 -25 49q-27 21 -100 50zM275 -236q-35 0 -59 23.5t-24 58.5q0 34 24 57.5t59 23.5t59 -23.5t24 -57.5q0 -35 -24 -58.5t-59 -23.5z" />
    <glyph glyph-name="uni1E63" unicode="&#x1e63;" horiz-adv-x="510" 
d="M294 314q103 -25 142 -63t39 -101q0 -72 -60 -116q-62 -45 -160 -45q-109 0 -202 56l-20 137l3 2q121 -83 228 -83q32 0 51.5 11.5t19.5 29.5q0 21 -22 33q-23 12 -90 30q-98 26 -138 62t-40 96q0 72 58.5 115.5t156.5 43.5q96 0 179 -44v-128l-3 -1q-95 62 -182 62
q-32 0 -50.5 -10.5t-18.5 -27.5q0 -19 21 -30q23 -13 88 -29zM248 -233q-35 0 -59 23.5t-24 58.5q0 34 24 57.5t59 23.5t59 -23.5t24 -57.5q0 -35 -24 -58.5t-59 -23.5z" />
    <glyph glyph-name="uni1E6C" unicode="&#x1e6c;" horiz-adv-x="727" 
d="M33 700h661v-145h-250v-555h-161v555h-250v145zM364 -231q-35 0 -59 23.5t-24 58.5q0 34 24 57.5t59 23.5t59 -23.5t24 -57.5q0 -35 -24 -58.5t-59 -23.5z" />
    <glyph glyph-name="uni1E6D" unicode="&#x1e6d;" horiz-adv-x="470" 
d="M431 158l3 -2l-23 -132q-59 -35 -132 -35q-85 0 -129.5 49.5t-44.5 144.5v210h-78v118h78v109l149 37v-146h177v-118h-177v-197q0 -79 77 -79q45 0 100 41zM261 -231q-35 0 -59 23.5t-24 58.5q0 34 24 57.5t59 23.5t59 -23.5t24 -57.5q0 -35 -24 -58.5t-59 -23.5z" />
    <glyph glyph-name="uni1E6E" unicode="&#x1e6e;" horiz-adv-x="727" 
d="M33 700h661v-145h-250v-555h-161v555h-250v145zM552 -191h-376v96h376v-96z" />
    <glyph glyph-name="uni1E6F" unicode="&#x1e6f;" horiz-adv-x="470" 
d="M431 158l3 -2l-23 -132q-59 -35 -132 -35q-85 0 -129.5 49.5t-44.5 144.5v210h-78v118h78v109l149 37v-146h177v-118h-177v-197q0 -79 77 -79q45 0 100 41zM420 -191h-318v96h318v-96z" />
    <glyph glyph-name="uni1E70" unicode="&#x1e70;" horiz-adv-x="727" 
d="M33 700h661v-145h-250v-555h-161v555h-250v145zM560 -257v-2h-75l-120 86l-121 -86h-76v2l132 183h128z" />
    <glyph glyph-name="uni1E71" unicode="&#x1e71;" horiz-adv-x="470" 
d="M431 158l3 -2l-23 -132q-59 -35 -132 -35q-85 0 -129.5 49.5t-44.5 144.5v210h-78v118h78v109l149 37v-146h177v-118h-177v-197q0 -79 77 -79q45 0 100 41zM457 -257v-2h-75l-120 86l-121 -86h-76v2l132 183h128z" />
    <glyph glyph-name="uni1E7E" unicode="&#x1e7e;" horiz-adv-x="794" 
d="M777 700l-325 -711h-116l-318 711h178l202 -480l208 480h171zM395 -237q-35 0 -59 23.5t-24 58.5q0 34 24 57.5t59 23.5t59 -23.5t24 -57.5q0 -35 -24 -58.5t-59 -23.5z" />
    <glyph glyph-name="uni1E7F" unicode="&#x1e7f;" horiz-adv-x="612" 
d="M601 511l-250 -523h-101l-238 523h165l128 -315l135 315h161zM302 -231q-35 0 -59 23.5t-24 58.5q0 34 24 57.5t59 23.5t59 -23.5t24 -57.5q0 -35 -24 -58.5t-59 -23.5z" />
    <glyph glyph-name="Wgrave" unicode="&#x1e80;" horiz-adv-x="1154" 
d="M576 377l-172 -381h-152l-224 704h174l143 -489l227 498h16l223 -499l148 490h168l-231 -704h-152zM353 922h193l82 -157h-82l-193 155v2z" />
    <glyph glyph-name="wgrave" unicode="&#x1e81;" horiz-adv-x="887" 
d="M442 248l-126 -254h-126l-174 517h159l98 -323l166 330h15l159 -330l105 323h154l-184 -517h-125zM223 782h181l85 -185h-72l-194 183v2z" />
    <glyph glyph-name="Wacute" unicode="&#x1e82;" horiz-adv-x="1154" 
d="M576 377l-172 -381h-152l-224 704h174l143 -489l227 498h16l223 -499l148 490h168l-231 -704h-152zM813 920l-193 -155h-82l82 157h193v-2z" />
    <glyph glyph-name="wacute" unicode="&#x1e83;" horiz-adv-x="887" 
d="M442 248l-126 -254h-126l-174 517h159l98 -323l166 330h15l159 -330l105 323h154l-184 -517h-125zM675 780l-194 -183h-72l85 185h181v-2z" />
    <glyph glyph-name="Wdieresis" unicode="&#x1e84;" horiz-adv-x="1154" 
d="M576 377l-172 -381h-152l-224 704h174l143 -489l227 498h16l223 -499l148 490h168l-231 -704h-152zM696 928q36 0 61 -24t25 -59q0 -36 -25 -60t-61 -24t-60.5 24t-24.5 60q0 35 24.5 59t60.5 24zM470 928q36 0 60.5 -24t24.5 -59q0 -36 -24.5 -60t-60.5 -24t-61 24
t-25 60q0 35 25 59t61 24z" />
    <glyph glyph-name="wdieresis" unicode="&#x1e85;" horiz-adv-x="887" 
d="M442 248l-126 -254h-126l-174 517h159l98 -323l166 330h15l159 -330l105 323h154l-184 -517h-125zM562 593q-36 0 -60.5 24t-24.5 59t24.5 58.5t60.5 23.5t60.5 -23.5t24.5 -58.5t-24.5 -59t-60.5 -24zM336 593q-36 0 -60.5 24t-24.5 59t24.5 58.5t60.5 23.5t60.5 -23.5
t24.5 -58.5t-24.5 -59t-60.5 -24z" />
    <glyph glyph-name="uni1E8C" unicode="&#x1e8c;" horiz-adv-x="764" 
d="M479 358l267 -358h-191l-176 239l-172 -239h-187l264 353l-258 347h191l167 -227l165 227h187zM496 928q36 0 61 -24t25 -59q0 -36 -25 -60t-61 -24t-60.5 24t-24.5 60q0 35 24.5 59t60.5 24zM270 928q36 0 60.5 -24t24.5 -59q0 -36 -24.5 -60t-60.5 -24t-61 24t-25 60
q0 35 25 59t61 24z" />
    <glyph glyph-name="uni1E8D" unicode="&#x1e8d;" horiz-adv-x="601" 
d="M395 262l189 -262h-170l-116 166l-116 -166h-165l190 262l-180 249h171l105 -152l105 152h165zM414 593q-36 0 -60.5 24t-24.5 59t24.5 58.5t60.5 23.5t60.5 -23.5t24.5 -58.5t-24.5 -59t-60.5 -24zM188 593q-36 0 -60.5 24t-24.5 59t24.5 58.5t60.5 23.5t60.5 -23.5
t24.5 -58.5t-24.5 -59t-60.5 -24z" />
    <glyph glyph-name="uni1E8E" unicode="&#x1e8e;" horiz-adv-x="704" 
d="M700 700l-267 -412v-288h-161v287l-267 413h187l164 -268l164 268h180zM352 927q36 0 60.5 -24t24.5 -60q0 -35 -24.5 -59t-60.5 -24t-60.5 24t-24.5 59q0 36 24.5 60t60.5 24z" />
    <glyph glyph-name="uni1E8F" unicode="&#x1e8f;" horiz-adv-x="592" 
d="M145 -192q-48 0 -88 17l-29 138l2 2q45 -23 85 -23q78 0 111 79l-213 490h164l126 -321l115 321h161l-205 -516q-72 -187 -229 -187zM299 591q-35 0 -59 23.5t-24 58.5q0 34 24 57.5t59 23.5t59 -23.5t24 -57.5q0 -35 -24 -58.5t-59 -23.5z" />
    <glyph glyph-name="uni1E90" unicode="&#x1e90;" horiz-adv-x="714" 
d="M293 141h390l-52 -141h-600l-7 14l384 545h-349v141h612l7 -14zM558 767v-2h-86l-114 68l-114 -68h-86v2l130 155h140z" />
    <glyph glyph-name="uni1E91" unicode="&#x1e91;" horiz-adv-x="552" 
d="M256 119h269l-35 -119h-465l-5 14l265 379h-230v118h461l5 -13zM482 599v-2h-75l-120 86l-121 -86h-76v2l132 183h128z" />
    <glyph glyph-name="uni1E92" unicode="&#x1e92;" horiz-adv-x="714" 
d="M293 141h390l-52 -141h-600l-7 14l384 545h-349v141h612l7 -14zM352 -231q-35 0 -59 23.5t-24 58.5q0 34 24 57.5t59 23.5t59 -23.5t24 -57.5q0 -35 -24 -58.5t-59 -23.5z" />
    <glyph glyph-name="uni1E93" unicode="&#x1e93;" horiz-adv-x="552" 
d="M256 119h269l-35 -119h-465l-5 14l265 379h-230v118h461l5 -13zM270 -231q-35 0 -59 23.5t-24 58.5q0 34 24 57.5t59 23.5t59 -23.5t24 -57.5q0 -35 -24 -58.5t-59 -23.5z" />
    <glyph glyph-name="uni1E94" unicode="&#x1e94;" horiz-adv-x="714" 
d="M293 141h390l-52 -141h-600l-7 14l384 545h-349v141h612l7 -14zM540 -191h-376v96h376v-96z" />
    <glyph glyph-name="uni1E95" unicode="&#x1e95;" horiz-adv-x="552" 
d="M256 119h269l-35 -119h-465l-5 14l265 379h-230v118h461l5 -13zM458 -191h-376v96h376v-96z" />
    <glyph glyph-name="uni1E96" unicode="&#x1e96;" horiz-adv-x="624" 
d="M328 390q-50 0 -109 -49v-341h-152v718l152 40v-333q41 52 82 75t92 23q79 0 125.5 -53t46.5 -144v-326h-151v295q0 45 -22.5 70t-63.5 25zM504 -191h-376v96h376v-96z" />
    <glyph glyph-name="uni1E9E" unicode="&#x1e9e;" horiz-adv-x="728" 
d="M690 191q0 -89 -62 -145q-63 -57 -161 -57q-71 0 -134 25l-23 149l2 1q79 -43 138 -43q38 0 61.5 20.5t23.5 53.5q0 41 -39 66q-38 25 -160 61l-4 14l138 216q-39 21 -94 21q-69 0 -106.5 -43.5t-37.5 -122.5v-407h-160v402q0 148 79.5 229.5t223.5 81.5q155 0 275 -96
v-13l-135 -211q95 -33 135 -80t40 -122z" />
    <glyph glyph-name="uni1EA0" unicode="&#x1ea0;" horiz-adv-x="813" 
d="M406 538l-112 -265h220zM495 702l300 -702h-173l-58 144h-320l-60 -144h-167l307 702h171zM406 -231q-35 0 -59 23.5t-24 58.5q0 34 24 57.5t59 23.5t59 -23.5t24 -57.5q0 -35 -24 -58.5t-59 -23.5z" />
    <glyph glyph-name="uni1EA1" unicode="&#x1ea1;" horiz-adv-x="576" 
d="M177 144q0 -49 61 -49q50 0 132 42v91q-193 -13 -193 -84zM520 294v-282l-146 -19v77q-100 -79 -186 -79q-67 0 -108 37.5t-41 100.5q0 84 81.5 125.5t249.5 44.5q-6 99 -104 99q-82 0 -174 -65l-3 2l23 137q83 49 186 49q109 0 165.5 -58t56.5 -169zM293 -231
q-35 0 -59 23.5t-24 58.5q0 34 24 57.5t59 23.5t59 -23.5t24 -57.5q0 -35 -24 -58.5t-59 -23.5z" />
    <glyph glyph-name="uni1EA2" unicode="&#x1ea2;" horiz-adv-x="813" 
d="M406 538l-112 -265h220zM495 702l300 -702h-173l-58 144h-320l-60 -144h-167l307 702h171zM552 889q0 -33 -26 -62q-26 -27 -103 -71l-70 21v2q61 42 76 56q17 15 17 28q0 22 -36 22q-48 0 -117 -39h-2v88q67 37 139 37q57 0 89.5 -22t32.5 -60z" />
    <glyph glyph-name="uni1EA3" unicode="&#x1ea3;" horiz-adv-x="576" 
d="M177 144q0 -49 61 -49q50 0 132 42v91q-193 -13 -193 -84zM520 294v-282l-146 -19v77q-100 -79 -186 -79q-67 0 -108 37.5t-41 100.5q0 84 81.5 125.5t249.5 44.5q-6 99 -104 99q-82 0 -174 -65l-3 2l23 137q83 49 186 49q109 0 165.5 -58t56.5 -169zM444 741
q0 -35 -27 -70q-26 -33 -102 -85l-70 22v2q43 36 74 67q19 19 19 36q0 27 -35 27q-51 0 -118 -48h-2v99q64 46 142 46q55 0 87 -26t32 -70z" />
    <glyph glyph-name="uni1EA4" unicode="&#x1ea4;" horiz-adv-x="813" 
d="M406 538l-112 -265h220zM495 702l300 -702h-173l-58 144h-320l-60 -144h-167l307 702h171zM787 1006l-162 -124h-77l65 126h174v-2zM608 767v-2h-86l-114 67l-114 -67h-86v2l130 149h140z" />
    <glyph glyph-name="uni1EA5" unicode="&#x1ea5;" horiz-adv-x="576" 
d="M177 144q0 -49 61 -49q50 0 132 42v91q-193 -13 -193 -84zM520 294v-282l-146 -19v77q-100 -79 -186 -79q-67 0 -108 37.5t-41 100.5q0 84 81.5 125.5t249.5 44.5q-6 99 -104 99q-82 0 -174 -65l-3 2l23 137q83 49 186 49q109 0 165.5 -58t56.5 -169zM654 869l-144 -139
h-64l61 141h147v-2zM499 599v-2h-74l-121 70l-123 -70h-74v2l132 159h128z" />
    <glyph glyph-name="uni1EA6" unicode="&#x1ea6;" horiz-adv-x="813" 
d="M406 538l-112 -265h220zM495 702l300 -702h-173l-58 144h-320l-60 -144h-167l307 702h171zM475 1008h174l65 -126h-77l-162 124v2zM608 767v-2h-85l-114 67l-114 -67h-87v2l130 149h140z" />
    <glyph glyph-name="uni1EA7" unicode="&#x1ea7;" horiz-adv-x="576" 
d="M177 144q0 -49 61 -49q50 0 132 42v91q-193 -13 -193 -84zM520 294v-282l-146 -19v77q-100 -79 -186 -79q-67 0 -108 37.5t-41 100.5q0 84 81.5 125.5t249.5 44.5q-6 99 -104 99q-82 0 -174 -65l-3 2l23 137q83 49 186 49q109 0 165.5 -58t56.5 -169zM367 871h147
l61 -141h-64l-144 139v2zM499 599v-2h-74l-121 70l-123 -70h-74v2l132 159h128z" />
    <glyph glyph-name="uni1EA8" unicode="&#x1ea8;" horiz-adv-x="813" 
d="M406 538l-112 -265h220zM495 702l300 -702h-173l-58 144h-320l-60 -144h-167l307 702h171zM722 987q0 -28 -22 -50q-23 -23 -88 -60l-61 18v2q49 33 64 45.5t15 22.5q0 17 -28 17q-44 0 -101 -31h-2v73q58 31 122 31q46 0 73.5 -18.5t27.5 -49.5zM608 767v-2h-85l-114 67
l-114 -67h-87v2l130 149h140z" />
    <glyph glyph-name="uni1EA9" unicode="&#x1ea9;" horiz-adv-x="576" 
d="M177 144q0 -49 61 -49q50 0 132 42v91q-193 -13 -193 -84zM520 294v-282l-146 -19v77q-100 -79 -186 -79q-67 0 -108 37.5t-41 100.5q0 84 81.5 125.5t249.5 44.5q-6 99 -104 99q-82 0 -174 -65l-3 2l23 137q83 49 186 49q109 0 165.5 -58t56.5 -169zM634 827
q0 -27 -21 -52q-21 -24 -87 -67l-60 19v2q49 36 64 50.5t15 26.5q0 21 -29 21q-42 0 -100 -36h-1v73q54 36 119 36q46 0 73 -20t27 -53zM499 599v-2h-74l-121 70l-123 -70h-74v2l132 159h128z" />
    <glyph glyph-name="uni1EAA" unicode="&#x1eaa;" horiz-adv-x="813" 
d="M406 538l-112 -265h220zM495 702l300 -702h-173l-58 144h-320l-60 -144h-167l307 702h171zM421 1050q48 -23 63 -23t27.5 9.5t42.5 43.5l51 -37q-47 -66 -72 -86q-25 -22 -55 -22q-25 0 -83 28q-46 22 -63 22q-15 0 -27.5 -9.5t-42.5 -42.5l-51 37q49 67 73 87
q24 21 54 21q25 0 83 -28zM608 767v-2h-85l-114 57l-114 -57h-87v2l127 130h146z" />
    <glyph glyph-name="uni1EAB" unicode="&#x1eab;" horiz-adv-x="576" 
d="M177 144q0 -49 61 -49q50 0 132 42v91q-193 -13 -193 -84zM520 294v-282l-146 -19v77q-100 -79 -186 -79q-67 0 -108 37.5t-41 100.5q0 84 81.5 125.5t249.5 44.5q-6 99 -104 99q-82 0 -174 -65l-3 2l23 137q83 49 186 49q109 0 165.5 -58t56.5 -169zM314 891
q42 -20 57 -20q13 0 25 9t38 39l51 -35q-40 -62 -65 -85q-24 -21 -53 -21q-20 0 -75 25q-45 20 -57 20q-13 0 -24.5 -8.5t-38.5 -37.5l-51 34q42 64 64 83q24 21 54 21q19 0 75 -24zM499 599v-2h-74l-121 62l-123 -62h-74v2l129 138h134z" />
    <glyph glyph-name="uni1EAC" unicode="&#x1eac;" horiz-adv-x="813" 
d="M406 538l-112 -265h220zM495 702l300 -702h-173l-58 144h-320l-60 -144h-167l307 702h171zM608 767v-2h-86l-114 68l-114 -68h-86v2l130 155h140zM406 -231q-35 0 -59 23.5t-24 58.5q0 34 24 57.5t59 23.5t59 -23.5t24 -57.5q0 -35 -24 -58.5t-59 -23.5z" />
    <glyph glyph-name="uni1EAD" unicode="&#x1ead;" horiz-adv-x="576" 
d="M177 144q0 -49 61 -49q50 0 132 42v91q-193 -13 -193 -84zM520 294v-282l-146 -19v77q-100 -79 -186 -79q-67 0 -108 37.5t-41 100.5q0 84 81.5 125.5t249.5 44.5q-6 99 -104 99q-82 0 -174 -65l-3 2l23 137q83 49 186 49q109 0 165.5 -58t56.5 -169zM499 599v-2h-75
l-120 86l-121 -86h-76v2l132 183h128zM293 -231q-35 0 -59 23.5t-24 58.5q0 34 24 57.5t59 23.5t59 -23.5t24 -57.5q0 -35 -24 -58.5t-59 -23.5z" />
    <glyph glyph-name="uni1EAE" unicode="&#x1eae;" horiz-adv-x="813" 
d="M406 538l-112 -265h220zM495 702l300 -702h-173l-58 144h-320l-60 -144h-167l307 702h171zM598 1057l-163 -133h-75l60 134h178v-1zM408 761q-128 0 -206 116l50 45q76 -59 156 -59t156 59l50 -45q-78 -116 -206 -116z" />
    <glyph glyph-name="uni1EAF" unicode="&#x1eaf;" horiz-adv-x="576" 
d="M177 144q0 -49 61 -49q50 0 132 42v91q-193 -13 -193 -84zM520 294v-282l-146 -19v77q-100 -79 -186 -79q-67 0 -108 37.5t-41 100.5q0 84 81.5 125.5t249.5 44.5q-6 99 -104 99q-82 0 -174 -65l-3 2l23 137q83 49 186 49q109 0 165.5 -58t56.5 -169zM483 901l-155 -136
h-66l59 138h162v-2zM302 589q-115 0 -195 117l52 47q40 -36 72.5 -51t70.5 -15q74 0 143 68l53 -45q-77 -121 -196 -121z" />
    <glyph glyph-name="uni1EB0" unicode="&#x1eb0;" horiz-adv-x="813" 
d="M406 538l-112 -265h220zM495 702l300 -702h-173l-58 144h-320l-60 -144h-167l307 702h171zM218 1058h178l60 -134h-75l-163 133v1zM408 761q-128 0 -206 116l50 45q76 -59 156 -59t156 59l50 -45q-78 -116 -206 -116z" />
    <glyph glyph-name="uni1EB1" unicode="&#x1eb1;" horiz-adv-x="576" 
d="M177 144q0 -49 61 -49q50 0 132 42v91q-193 -13 -193 -84zM520 294v-282l-146 -19v77q-100 -79 -186 -79q-67 0 -108 37.5t-41 100.5q0 84 81.5 125.5t249.5 44.5q-6 99 -104 99q-82 0 -174 -65l-3 2l23 137q83 49 186 49q109 0 165.5 -58t56.5 -169zM123 903h162
l59 -138h-66l-155 136v2zM302 589q-115 0 -195 117l52 47q71 -66 143 -66q71 0 143 68l53 -45q-77 -121 -196 -121z" />
    <glyph glyph-name="uni1EB2" unicode="&#x1eb2;" horiz-adv-x="813" 
d="M406 538l-112 -265h220zM495 702l300 -702h-173l-58 144h-320l-60 -144h-167l307 702h171zM537 1034q0 -25 -23 -50q-21 -23 -97 -67l-67 20v1q53 35 69 48.5t16 24.5q0 19 -30 19q-45 0 -109 -34h-1v78q64 34 131 34q50 0 80.5 -20.5t30.5 -53.5zM408 761
q-128 0 -206 116l50 45q76 -59 156 -59t156 59l50 -45q-78 -116 -206 -116z" />
    <glyph glyph-name="uni1EB3" unicode="&#x1eb3;" horiz-adv-x="576" 
d="M177 144q0 -49 61 -49q50 0 132 42v91q-193 -13 -193 -84zM520 294v-282l-146 -19v77q-100 -79 -186 -79q-67 0 -108 37.5t-41 100.5q0 84 81.5 125.5t249.5 44.5q-6 99 -104 99q-82 0 -174 -65l-3 2l23 137q83 49 186 49q109 0 165.5 -58t56.5 -169zM426 870
q0 -27 -22 -52q-21 -24 -91 -66l-61 18v2q51 37 66 50.5t15 25.5q0 20 -30 20q-45 0 -105 -36h-1v75q57 35 126 35q48 0 75.5 -19.5t27.5 -52.5zM302 589q-115 0 -195 117l52 47q40 -36 72.5 -51t70.5 -15q74 0 143 68l53 -45q-77 -121 -196 -121z" />
    <glyph glyph-name="uni1EB4" unicode="&#x1eb4;" horiz-adv-x="813" 
d="M406 538l-112 -265h220zM495 702l300 -702h-173l-58 144h-320l-60 -144h-167l307 702h171zM427 1064q43 -22 61 -22q14 0 26 9q11 7 46 42l53 -39q-48 -63 -75 -85q-26 -21 -58 -21q-25 0 -82 28q-48 21 -60 21q-14 0 -25 -8q-9 -6 -46 -41l-53 39q47 62 74 84
q26 20 58 20q21 0 81 -27zM408 761q-128 0 -206 116l50 45q76 -59 156 -59t156 59l50 -45q-78 -116 -206 -116z" />
    <glyph glyph-name="uni1EB5" unicode="&#x1eb5;" horiz-adv-x="576" 
d="M177 144q0 -49 61 -49q50 0 132 42v91q-193 -13 -193 -84zM520 294v-282l-146 -19v77q-100 -79 -186 -79q-67 0 -108 37.5t-41 100.5q0 84 81.5 125.5t249.5 44.5q-6 99 -104 99q-82 0 -174 -65l-3 2l23 137q83 49 186 49q109 0 165.5 -58t56.5 -169zM317 898
q42 -20 56 -20t25 8t41 39l52 -36q-45 -64 -67 -83q-24 -21 -52 -21q-25 0 -83 28q-45 20 -56 20q-14 0 -26 -8t-40 -36l-52 35q42 59 66.5 80t52.5 21q21 0 83 -27zM302 589q-115 0 -195 117l52 47q40 -36 72.5 -51t70.5 -15q74 0 143 68l53 -45q-77 -121 -196 -121z" />
    <glyph glyph-name="uni1EB6" unicode="&#x1eb6;" horiz-adv-x="813" 
d="M406 538l-112 -265h220zM495 702l300 -702h-173l-58 144h-320l-60 -144h-167l307 702h171zM408 761q-128 0 -206 126l54 48q77 -69 152 -69t152 69l54 -48q-78 -126 -206 -126zM406 -231q-35 0 -59 23.5t-24 58.5q0 34 24 57.5t59 23.5t59 -23.5t24 -57.5
q0 -35 -24 -58.5t-59 -23.5z" />
    <glyph glyph-name="uni1EB7" unicode="&#x1eb7;" horiz-adv-x="576" 
d="M177 144q0 -49 61 -49q50 0 132 42v91q-193 -13 -193 -84zM520 294v-282l-146 -19v77q-100 -79 -186 -79q-67 0 -108 37.5t-41 100.5q0 84 81.5 125.5t249.5 44.5q-6 99 -104 99q-82 0 -174 -65l-3 2l23 137q83 49 186 49q109 0 165.5 -58t56.5 -169zM303 589
q-115 0 -196 141l61 48q67 -80 135 -80t135 80l61 -47q-80 -142 -196 -142zM293 -231q-35 0 -59 23.5t-24 58.5q0 34 24 57.5t59 23.5t59 -23.5t24 -57.5q0 -35 -24 -58.5t-59 -23.5z" />
    <glyph glyph-name="uni1EB8" unicode="&#x1eb8;" horiz-adv-x="600" 
d="M554 137l-28 -137h-447v700h444l28 -137h-312v-148h259v-123h-259v-155h315zM313 -231q-35 0 -59 23.5t-24 58.5q0 34 24 57.5t59 23.5t59 -23.5t24 -57.5q0 -35 -24 -58.5t-59 -23.5z" />
    <glyph glyph-name="uni1EB9" unicode="&#x1eb9;" horiz-adv-x="569" 
d="M289 416q-45 0 -75 -31.5t-36 -83.5h216q-5 54 -33 84.5t-72 30.5zM520 158l3 -2l-41 -127q-84 -40 -176 -40q-125 0 -198 73q-75 74 -75 195q0 112 74 191q74 77 185 77q112 0 178 -73q65 -74 65 -194q0 -4 -1.5 -20t-1.5 -23h-353q12 -51 52 -79t102 -28q89 0 187 50z
M300 -236q-35 0 -59 23.5t-24 58.5q0 34 24 57.5t59 23.5t59 -23.5t24 -57.5q0 -35 -24 -58.5t-59 -23.5z" />
    <glyph glyph-name="uni1EBA" unicode="&#x1eba;" horiz-adv-x="600" 
d="M554 137l-28 -137h-447v700h444l28 -137h-312v-148h259v-123h-259v-155h315zM457 889q0 -33 -26 -62q-26 -27 -103 -71l-70 21v2q61 42 76 56q17 15 17 28q0 22 -36 22q-48 0 -117 -39h-2v88q67 37 139 37q57 0 89.5 -22t32.5 -60z" />
    <glyph glyph-name="uni1EBB" unicode="&#x1ebb;" horiz-adv-x="569" 
d="M289 416q-45 0 -75 -31.5t-36 -83.5h216q-5 54 -33 84.5t-72 30.5zM520 158l3 -2l-41 -127q-84 -40 -176 -40q-125 0 -198 73q-75 74 -75 195q0 112 74 191q74 77 185 77q112 0 178 -73q65 -74 65 -194q0 -4 -1.5 -20t-1.5 -23h-353q12 -51 52 -79t102 -28q89 0 187 50z
M437 746q0 -36 -27 -70q-26 -33 -102 -85l-70 22v2q43 36 74 67q19 19 19 36q0 27 -35 27q-51 0 -118 -48h-2v99q64 46 142 46q55 0 87 -26t32 -70z" />
    <glyph glyph-name="uni1EBC" unicode="&#x1ebc;" horiz-adv-x="600" 
d="M554 137l-28 -137h-447v700h444l28 -137h-312v-148h259v-123h-259v-155h315zM332 892q49 -24 65 -24q15 0 28 10q10 8 48 47l57 -44q-52 -73 -79 -96q-29 -24 -63 -24q-26 0 -87 30q-48 24 -64 24q-15 0 -27 -9q-11 -7 -49 -47l-57 44q54 74 80 96q28 24 62 24
q25 0 86 -31z" />
    <glyph glyph-name="uni1EBD" unicode="&#x1ebd;" horiz-adv-x="569" 
d="M289 416q-45 0 -75 -31.5t-36 -83.5h216q-5 54 -33 84.5t-72 30.5zM520 158l3 -2l-41 -127q-84 -40 -176 -40q-125 0 -198 73q-75 74 -75 195q0 112 74 191q74 77 185 77q112 0 178 -73q65 -74 65 -194q0 -4 -1.5 -20t-1.5 -23h-353q12 -51 52 -79t102 -28q89 0 187 50z
M308 739q48 -28 64 -28q13 0 24 10q9 8 48 56l64 -41q-50 -85 -76 -111q-28 -28 -62 -28q-23 0 -86 36q-50 28 -64 28q-12 0 -23 -9q-10 -9 -49 -57l-64 41q49 84 76 111t62 27q22 0 86 -35z" />
    <glyph glyph-name="uni1EBE" unicode="&#x1ebe;" horiz-adv-x="600" 
d="M554 137l-28 -137h-447v700h444l28 -137h-312v-148h259v-123h-259v-155h315zM692 1006l-162 -124h-77l65 126h174v-2zM513 767v-2h-86l-114 67l-114 -67h-86v2l130 149h140z" />
    <glyph glyph-name="uni1EBF" unicode="&#x1ebf;" horiz-adv-x="569" 
d="M289 416q-45 0 -75 -31.5t-36 -83.5h216q-5 54 -33 84.5t-72 30.5zM520 158l3 -2l-41 -127q-84 -40 -176 -40q-125 0 -198 73q-75 74 -75 195q0 112 74 191q74 77 185 77q112 0 178 -73q65 -74 65 -194q0 -4 -1.5 -20t-1.5 -23h-353q12 -51 52 -79t102 -28q89 0 187 50z
M647 874l-144 -139h-64l61 141h147v-2zM492 604v-2h-74l-121 70l-123 -70h-74v2l132 159h128z" />
    <glyph glyph-name="uni1EC0" unicode="&#x1ec0;" horiz-adv-x="600" 
d="M554 137l-28 -137h-447v700h444l28 -137h-312v-148h259v-123h-259v-155h315zM380 1008h174l65 -126h-77l-162 124v2zM513 767v-2h-85l-114 67l-114 -67h-87v2l130 149h140z" />
    <glyph glyph-name="uni1EC1" unicode="&#x1ec1;" horiz-adv-x="569" 
d="M289 416q-45 0 -75 -31.5t-36 -83.5h216q-5 54 -33 84.5t-72 30.5zM520 158l3 -2l-41 -127q-84 -40 -176 -40q-125 0 -198 73q-75 74 -75 195q0 112 74 191q74 77 185 77q112 0 178 -73q65 -74 65 -194q0 -4 -1.5 -20t-1.5 -23h-353q12 -51 52 -79t102 -28q89 0 187 50z
M360 876h147l61 -141h-64l-144 139v2zM492 604v-2h-74l-121 70l-123 -70h-74v2l132 159h128z" />
    <glyph glyph-name="uni1EC2" unicode="&#x1ec2;" horiz-adv-x="600" 
d="M554 137l-28 -137h-447v700h444l28 -137h-312v-148h259v-123h-259v-155h315zM627 987q0 -28 -22 -50q-23 -23 -88 -60l-61 18v2q49 33 64 45.5t15 22.5q0 17 -28 17q-44 0 -101 -31h-2v73q58 31 122 31q46 0 73.5 -18.5t27.5 -49.5zM513 767v-2h-85l-114 67l-114 -67h-87
v2l130 149h140z" />
    <glyph glyph-name="uni1EC3" unicode="&#x1ec3;" horiz-adv-x="569" 
d="M289 416q-45 0 -75 -31.5t-36 -83.5h216q-5 54 -33 84.5t-72 30.5zM520 158l3 -2l-41 -127q-84 -40 -176 -40q-125 0 -198 73q-75 74 -75 195q0 112 74 191q74 77 185 77q112 0 178 -73q65 -74 65 -194q0 -4 -1.5 -20t-1.5 -23h-353q12 -51 52 -79t102 -28q89 0 187 50z
M627 832q0 -26 -21 -52q-21 -24 -87 -67l-60 19v2q49 36 64 50.5t15 26.5q0 21 -29 21q-41 0 -100 -36h-1v73q54 36 119 36q46 0 73 -20t27 -53zM492 604v-2h-74l-121 70l-123 -70h-74v2l132 159h128z" />
    <glyph glyph-name="uni1EC4" unicode="&#x1ec4;" horiz-adv-x="600" 
d="M554 137l-28 -137h-447v700h444l28 -137h-312v-148h259v-123h-259v-155h315zM326 1050q48 -23 63 -23t27.5 9.5t42.5 43.5l51 -37q-47 -66 -72 -86q-25 -22 -55 -22q-25 0 -83 28q-46 22 -63 22q-15 0 -27.5 -9.5t-42.5 -42.5l-51 37q49 67 73 87q24 21 54 21
q25 0 83 -28zM513 767v-2h-85l-114 57l-114 -57h-87v2l127 130h146z" />
    <glyph glyph-name="uni1EC5" unicode="&#x1ec5;" horiz-adv-x="569" 
d="M289 416q-45 0 -75 -31.5t-36 -83.5h216q-5 54 -33 84.5t-72 30.5zM520 158l3 -2l-41 -127q-84 -40 -176 -40q-125 0 -198 73q-75 74 -75 195q0 112 74 191q74 77 185 77q112 0 178 -73q65 -74 65 -194q0 -4 -1.5 -20t-1.5 -23h-353q12 -51 52 -79t102 -28q89 0 187 50z
M307 896q42 -20 57 -20q13 0 25 9t38 39l51 -35q-40 -62 -65 -85q-24 -21 -53 -21q-20 0 -75 25q-45 20 -57 20q-13 0 -24.5 -8.5t-38.5 -37.5l-51 34q42 64 64 83q24 21 54 21q19 0 75 -24zM492 604v-2h-74l-121 62l-123 -62h-74v2l129 138h134z" />
    <glyph glyph-name="uni1EC6" unicode="&#x1ec6;" horiz-adv-x="600" 
d="M554 137l-28 -137h-447v700h444l28 -137h-312v-148h259v-123h-259v-155h315zM513 767v-2h-86l-114 68l-114 -68h-86v2l130 155h140zM313 -231q-35 0 -59 23.5t-24 58.5q0 34 24 57.5t59 23.5t59 -23.5t24 -57.5q0 -35 -24 -58.5t-59 -23.5z" />
    <glyph glyph-name="uni1EC7" unicode="&#x1ec7;" horiz-adv-x="569" 
d="M289 416q-45 0 -75 -31.5t-36 -83.5h216q-5 54 -33 84.5t-72 30.5zM520 158l3 -2l-41 -127q-84 -40 -176 -40q-125 0 -198 73q-75 74 -75 195q0 112 74 191q74 77 185 77q112 0 178 -73q65 -74 65 -194q0 -4 -1.5 -20t-1.5 -23h-353q12 -51 52 -79t102 -28q89 0 187 50z
M492 604v-2h-75l-120 86l-121 -86h-76v2l132 183h128zM300 -236q-35 0 -59 23.5t-24 58.5q0 34 24 57.5t59 23.5t59 -23.5t24 -57.5q0 -35 -24 -58.5t-59 -23.5z" />
    <glyph glyph-name="uni1EC8" unicode="&#x1ec8;" horiz-adv-x="328" 
d="M244 700v-700h-161v700h161zM308 889q0 -33 -26 -62q-26 -27 -103 -71l-70 21v2q61 42 76 56q17 15 17 28q0 22 -36 22q-48 0 -117 -39h-2v88q67 37 139 37q57 0 89.5 -22t32.5 -60z" />
    <glyph glyph-name="uni1EC9" unicode="&#x1ec9;" horiz-adv-x="294" 
d="M222 511v-511h-151v511h151zM288 741q0 -35 -27 -70q-26 -33 -102 -85l-70 22v2q43 36 74 67q19 19 19 36q0 27 -35 27q-51 0 -118 -48h-2v99q64 46 142 46q55 0 87 -26t32 -70z" />
    <glyph glyph-name="uni1ECA" unicode="&#x1eca;" horiz-adv-x="328" 
d="M244 700v-700h-161v700h161zM164 -231q-35 0 -59 23.5t-24 58.5q0 34 24 57.5t59 23.5t59 -23.5t24 -57.5q0 -35 -24 -58.5t-59 -23.5z" />
    <glyph glyph-name="uni1ECB" unicode="&#x1ecb;" horiz-adv-x="294" 
d="M147 767q39 0 65.5 -25t26.5 -62t-26.5 -62t-65.5 -25t-65.5 25t-26.5 62t26.5 62t65.5 25zM222 511v-511h-151v511h151zM147 -231q-35 0 -59 23.5t-24 58.5q0 34 24 57.5t59 23.5t59 -23.5t24 -57.5q0 -35 -24 -58.5t-59 -23.5z" />
    <glyph glyph-name="uni1ECC" unicode="&#x1ecc;" horiz-adv-x="831" 
d="M414 -14q-159 0 -265 104q-106 103 -106 259q0 153 107 260q106 105 266 105q159 0 266 -104q106 -105 106 -259q0 -155 -107 -260t-267 -105zM413 568q-87 0 -146 -62q-59 -64 -59 -155q0 -93 60 -156q58 -63 147 -63q87 0 148 63q60 63 60 154q0 92 -61 156
q-62 63 -149 63zM415 -236q-35 0 -59 23.5t-24 58.5q0 34 24 57.5t59 23.5t59 -23.5t24 -57.5q0 -35 -24 -58.5t-59 -23.5z" />
    <glyph glyph-name="uni1ECD" unicode="&#x1ecd;" horiz-adv-x="619" 
d="M309 -14q-121 0 -198 78q-78 76 -78 191q0 113 79 192q80 78 198 78q120 0 199 -77q77 -77 77 -191q0 -113 -79 -192t-198 -79zM439 257q0 60 -36.5 99.5t-92.5 39.5q-57 0 -93.5 -40t-36.5 -101q0 -60 37 -100t92 -40q56 0 93 40.5t37 101.5zM309 -236q-35 0 -59 23.5
t-24 58.5q0 34 24 57.5t59 23.5t59 -23.5t24 -57.5q0 -35 -24 -58.5t-59 -23.5z" />
    <glyph glyph-name="uni1ECE" unicode="&#x1ece;" horiz-adv-x="831" 
d="M414 -14q-159 0 -265 104q-106 103 -106 259q0 153 107 260q106 105 266 105q159 0 266 -104q106 -105 106 -259q0 -155 -107 -260t-267 -105zM413 568q-87 0 -146 -62q-59 -64 -59 -155q0 -93 60 -156q58 -63 147 -63q87 0 148 63q60 63 60 154q0 92 -61 156
q-62 63 -149 63zM559 894q0 -33 -26 -62q-26 -27 -103 -71l-70 21v2q61 42 76 56q17 15 17 28q0 22 -36 22q-48 0 -117 -39h-2v88q67 37 139 37q57 0 89.5 -22t32.5 -60z" />
    <glyph glyph-name="uni1ECF" unicode="&#x1ecf;" horiz-adv-x="619" 
d="M309 -14q-121 0 -198 78q-78 76 -78 191q0 113 79 192q80 78 198 78q120 0 199 -77q77 -77 77 -191q0 -113 -79 -192t-198 -79zM439 257q0 60 -36.5 99.5t-92.5 39.5q-57 0 -93.5 -40t-36.5 -101q0 -60 37 -100t92 -40q56 0 93 40.5t37 101.5zM450 746q0 -36 -27 -70
q-26 -33 -102 -85l-70 22v2q43 36 74 67q19 19 19 36q0 27 -35 27q-51 0 -118 -48h-2v99q64 46 142 46q55 0 87 -26t32 -70z" />
    <glyph glyph-name="uni1ED0" unicode="&#x1ed0;" horiz-adv-x="831" 
d="M414 -14q-159 0 -265 104q-106 103 -106 259q0 153 107 260q106 105 266 105q159 0 266 -104q106 -105 106 -259q0 -155 -107 -260t-267 -105zM413 568q-87 0 -146 -62q-59 -64 -59 -155q0 -93 60 -156q58 -63 147 -63q87 0 148 63q60 63 60 154q0 92 -61 156
q-62 63 -149 63zM794 1011l-162 -124h-77l65 126h174v-2zM615 772v-2h-86l-114 67l-114 -67h-86v2l130 149h140z" />
    <glyph glyph-name="uni1ED1" unicode="&#x1ed1;" horiz-adv-x="619" 
d="M309 -14q-121 0 -198 78q-78 76 -78 191q0 113 79 192q80 78 198 78q120 0 199 -77q77 -77 77 -191q0 -113 -79 -192t-198 -79zM439 257q0 60 -36.5 99.5t-92.5 39.5q-57 0 -93.5 -40t-36.5 -101q0 -60 37 -100t92 -40q56 0 93 40.5t37 101.5zM660 874l-144 -139h-64
l61 141h147v-2zM505 604v-2h-74l-121 70l-123 -70h-74v2l132 159h128z" />
    <glyph glyph-name="uni1ED2" unicode="&#x1ed2;" horiz-adv-x="831" 
d="M414 -14q-159 0 -265 104q-106 103 -106 259q0 153 107 260q106 105 266 105q159 0 266 -104q106 -105 106 -259q0 -155 -107 -260t-267 -105zM413 568q-87 0 -146 -62q-59 -64 -59 -155q0 -93 60 -156q58 -63 147 -63q87 0 148 63q60 63 60 154q0 92 -61 156
q-62 63 -149 63zM482 1013h174l65 -126h-77l-162 124v2zM615 772v-2h-85l-114 67l-114 -67h-87v2l130 149h140z" />
    <glyph glyph-name="uni1ED3" unicode="&#x1ed3;" horiz-adv-x="619" 
d="M309 -14q-121 0 -198 78q-78 76 -78 191q0 113 79 192q80 78 198 78q120 0 199 -77q77 -77 77 -191q0 -113 -79 -192t-198 -79zM439 257q0 60 -36.5 99.5t-92.5 39.5q-57 0 -93.5 -40t-36.5 -101q0 -60 37 -100t92 -40q56 0 93 40.5t37 101.5zM373 876h147l61 -141h-64
l-144 139v2zM505 604v-2h-74l-121 70l-123 -70h-74v2l132 159h128z" />
    <glyph glyph-name="uni1ED4" unicode="&#x1ed4;" horiz-adv-x="831" 
d="M414 -14q-159 0 -265 104q-106 103 -106 259q0 153 107 260q106 105 266 105q159 0 266 -104q106 -105 106 -259q0 -155 -107 -260t-267 -105zM413 568q-87 0 -146 -62q-59 -64 -59 -155q0 -93 60 -156q58 -63 147 -63q87 0 148 63q60 63 60 154q0 92 -61 156
q-62 63 -149 63zM729 992q0 -28 -22 -50q-23 -23 -88 -60l-61 18v2q49 33 64 45.5t15 22.5q0 17 -28 17q-44 0 -101 -31h-2v73q58 31 122 31q46 0 73.5 -18.5t27.5 -49.5zM615 772v-2h-85l-114 67l-114 -67h-87v2l130 149h140z" />
    <glyph glyph-name="uni1ED5" unicode="&#x1ed5;" horiz-adv-x="619" 
d="M309 -14q-121 0 -198 78q-78 76 -78 191q0 113 79 192q80 78 198 78q120 0 199 -77q77 -77 77 -191q0 -113 -79 -192t-198 -79zM439 257q0 60 -36.5 99.5t-92.5 39.5q-57 0 -93.5 -40t-36.5 -101q0 -60 37 -100t92 -40q56 0 93 40.5t37 101.5zM640 832q0 -26 -21 -52
q-21 -24 -87 -67l-60 19v2q49 36 64 50.5t15 26.5q0 21 -29 21q-42 0 -100 -36h-1v73q54 36 119 36q46 0 73 -20t27 -53zM505 604v-2h-74l-121 70l-123 -70h-74v2l132 159h128z" />
    <glyph glyph-name="uni1ED6" unicode="&#x1ed6;" horiz-adv-x="831" 
d="M414 -14q-159 0 -265 104q-106 103 -106 259q0 153 107 260q106 105 266 105q159 0 266 -104q106 -105 106 -259q0 -155 -107 -260t-267 -105zM413 568q-87 0 -146 -62q-59 -64 -59 -155q0 -93 60 -156q58 -63 147 -63q87 0 148 63q60 63 60 154q0 92 -61 156
q-62 63 -149 63zM428 1055q48 -23 63 -23t27.5 9.5t42.5 43.5l51 -37q-47 -66 -72 -86q-25 -22 -55 -22q-25 0 -83 28q-46 22 -63 22q-15 0 -27.5 -9.5t-42.5 -42.5l-51 37q49 67 73 87q24 21 54 21q25 0 83 -28zM615 772v-2h-85l-114 57l-114 -57h-87v2l127 130h146z" />
    <glyph glyph-name="uni1ED7" unicode="&#x1ed7;" horiz-adv-x="619" 
d="M309 -14q-121 0 -198 78q-78 76 -78 191q0 113 79 192q80 78 198 78q120 0 199 -77q77 -77 77 -191q0 -113 -79 -192t-198 -79zM439 257q0 60 -36.5 99.5t-92.5 39.5q-57 0 -93.5 -40t-36.5 -101q0 -60 37 -100t92 -40q56 0 93 40.5t37 101.5zM320 896q42 -20 57 -20
q13 0 25 9t38 39l51 -35q-40 -62 -65 -85q-24 -21 -53 -21q-20 0 -75 25q-45 20 -57 20q-13 0 -24.5 -8.5t-38.5 -37.5l-51 34q42 64 64 83q24 21 54 21q19 0 75 -24zM505 604v-2h-74l-121 62l-123 -62h-74v2l129 138h134z" />
    <glyph glyph-name="uni1ED8" unicode="&#x1ed8;" horiz-adv-x="831" 
d="M414 -14q-159 0 -265 104q-106 103 -106 259q0 153 107 260q106 105 266 105q159 0 266 -104q106 -105 106 -259q0 -155 -107 -260t-267 -105zM413 568q-87 0 -146 -62q-59 -64 -59 -155q0 -93 60 -156q58 -63 147 -63q87 0 148 63q60 63 60 154q0 92 -61 156
q-62 63 -149 63zM615 772v-2h-86l-114 68l-114 -68h-86v2l130 155h140zM415 -236q-35 0 -59 23.5t-24 58.5q0 34 24 57.5t59 23.5t59 -23.5t24 -57.5q0 -35 -24 -58.5t-59 -23.5z" />
    <glyph glyph-name="uni1ED9" unicode="&#x1ed9;" horiz-adv-x="619" 
d="M309 -14q-121 0 -198 78q-78 76 -78 191q0 113 79 192q80 78 198 78q120 0 199 -77q77 -77 77 -191q0 -113 -79 -192t-198 -79zM439 257q0 60 -36.5 99.5t-92.5 39.5q-57 0 -93.5 -40t-36.5 -101q0 -60 37 -100t92 -40q56 0 93 40.5t37 101.5zM505 604v-2h-75l-120 86
l-121 -86h-76v2l132 183h128zM309 -236q-35 0 -59 23.5t-24 58.5q0 34 24 57.5t59 23.5t59 -23.5t24 -57.5q0 -35 -24 -58.5t-59 -23.5z" />
    <glyph glyph-name="uni1EDA" unicode="&#x1eda;" horiz-adv-x="831" 
d="M788 347q0 -153 -107 -257t-267 -104q-158 0 -265 104q-106 103 -106 257t107 258q106 103 270 103q27 0 84 -4q36 -4 67 -4q107 0 107 87q0 23 -5 54h115q9 -36 9 -66q0 -128 -137 -158q62 -49 95 -119t33 -151zM413 565q-87 0 -146 -62t-59 -153q0 -92 60 -155
q58 -63 147 -63q87 0 148 63q60 61 60 153q0 91 -60 154q-61 63 -150 63zM645 925l-193 -155h-82l82 157h193v-2z" />
    <glyph glyph-name="uni1EDB" unicode="&#x1edb;" horiz-adv-x="619" 
d="M586 251q0 -111 -79 -187q-79 -78 -198 -78q-121 0 -198 77q-78 77 -78 189q0 114 80 191q79 76 203 76q25 0 52 -3q11 0 21.5 -0.5t17 -1t11.5 -0.5q83 0 83 66q0 18 -5 47h101q9 -31 9 -58q0 -101 -106 -126q86 -75 86 -192zM439 255q0 60 -36.5 98.5t-92.5 38.5
q-57 0 -93.5 -39t-36.5 -99t36.5 -99.5t92.5 -39.5q57 0 93.5 40t36.5 100zM535 785l-194 -183h-72l85 185h181v-2z" />
    <glyph glyph-name="uni1EDC" unicode="&#x1edc;" horiz-adv-x="831" 
d="M788 347q0 -153 -107 -257t-267 -104q-158 0 -265 104q-106 103 -106 257t107 258q106 103 270 103q27 0 84 -4q36 -4 67 -4q107 0 107 87q0 23 -5 54h115q9 -36 9 -66q0 -128 -137 -158q62 -49 95 -119t33 -151zM413 565q-87 0 -146 -62t-59 -153q0 -92 60 -155
q58 -63 147 -63q87 0 148 63q60 61 60 153q0 91 -60 154q-61 63 -150 63zM185 927h193l82 -157h-82l-193 155v2z" />
    <glyph glyph-name="uni1EDD" unicode="&#x1edd;" horiz-adv-x="619" 
d="M586 251q0 -111 -79 -187q-79 -78 -198 -78q-121 0 -198 77q-78 77 -78 189q0 114 80 191q79 76 203 76q25 0 52 -3q11 0 21.5 -0.5t17 -1t11.5 -0.5q83 0 83 66q0 18 -5 47h101q9 -31 9 -58q0 -101 -106 -126q86 -75 86 -192zM439 255q0 60 -36.5 98.5t-92.5 38.5
q-57 0 -93.5 -39t-36.5 -99t36.5 -99.5t92.5 -39.5q57 0 93.5 40t36.5 100zM83 787h181l85 -185h-72l-194 183v2z" />
    <glyph glyph-name="uni1EDE" unicode="&#x1ede;" horiz-adv-x="831" 
d="M788 347q0 -153 -107 -257t-267 -104q-158 0 -265 104q-106 103 -106 257t107 258q106 103 270 103q27 0 84 -4q36 -4 67 -4q107 0 107 87q0 23 -5 54h115q9 -36 9 -66q0 -128 -137 -158q62 -49 95 -119t33 -151zM413 565q-87 0 -146 -62t-59 -153q0 -92 60 -155
q58 -63 147 -63q87 0 148 63q60 61 60 153q0 91 -60 154q-61 63 -150 63zM559 894q0 -33 -26 -62q-26 -27 -103 -71l-70 21v2q61 42 76 56q17 15 17 28q0 22 -36 22q-48 0 -117 -39h-2v88q67 37 139 37q57 0 89.5 -22t32.5 -60z" />
    <glyph glyph-name="uni1EDF" unicode="&#x1edf;" horiz-adv-x="619" 
d="M586 251q0 -111 -79 -187q-79 -78 -198 -78q-121 0 -198 77q-78 77 -78 189q0 114 80 191q79 76 203 76q25 0 52 -3q11 0 21.5 -0.5t17 -1t11.5 -0.5q83 0 83 66q0 18 -5 47h101q9 -31 9 -58q0 -101 -106 -126q86 -75 86 -192zM439 255q0 60 -36.5 98.5t-92.5 38.5
q-57 0 -93.5 -39t-36.5 -99t36.5 -99.5t92.5 -39.5q57 0 93.5 40t36.5 100zM450 746q0 -36 -27 -70q-26 -33 -102 -85l-70 22v2q43 36 74 67q19 19 19 36q0 27 -35 27q-51 0 -118 -48h-2v99q64 46 142 46q55 0 87 -26t32 -70z" />
    <glyph glyph-name="uni1EE0" unicode="&#x1ee0;" horiz-adv-x="831" 
d="M788 347q0 -153 -107 -257t-267 -104q-158 0 -265 104q-106 103 -106 257t107 258q106 103 270 103q27 0 84 -4q36 -4 67 -4q107 0 107 87q0 23 -5 54h115q9 -36 9 -66q0 -128 -137 -158q62 -49 95 -119t33 -151zM413 565q-87 0 -146 -62t-59 -153q0 -92 60 -155
q58 -63 147 -63q87 0 148 63q60 61 60 153q0 91 -60 154q-61 63 -150 63zM423 897q49 -24 65 -24q15 0 28 10q10 8 48 47l57 -44q-52 -73 -79 -96q-28 -24 -63 -24q-26 0 -87 30q-48 24 -64 24q-15 0 -27 -9q-11 -7 -49 -47l-57 44q54 74 80 96q29 24 62 24q25 0 86 -31z
" />
    <glyph glyph-name="uni1EE1" unicode="&#x1ee1;" horiz-adv-x="619" 
d="M307 734q46 -27 60 -27q13 0 23 10q13 13 45 56l57 -35q-44 -81 -71 -112q-27 -29 -60 -29q-23 0 -83 36q-45 28 -60 28q-12 0 -22 -9q-7 -6 -47 -57l-57 34q47 85 72 113t59 28q23 0 84 -36zM586 251q0 -111 -79 -187q-79 -78 -198 -78q-121 0 -198 77q-78 77 -78 189
q0 114 80 191q79 76 203 76q25 0 52 -3q11 0 21.5 -0.5t17 -1t11.5 -0.5q83 0 83 66q0 18 -5 47h101q9 -31 9 -58q0 -101 -106 -126q86 -75 86 -192zM439 255q0 60 -36.5 98.5t-92.5 38.5q-57 0 -93.5 -39t-36.5 -99t36.5 -99.5t92.5 -39.5q57 0 93.5 40t36.5 100z" />
    <glyph glyph-name="uni1EE2" unicode="&#x1ee2;" horiz-adv-x="831" 
d="M788 347q0 -153 -107 -257t-267 -104q-158 0 -265 104q-106 103 -106 257t107 258q106 103 270 103q27 0 84 -4q36 -4 67 -4q107 0 107 87q0 23 -5 54h115q9 -36 9 -66q0 -128 -137 -158q62 -49 95 -119t33 -151zM413 565q-87 0 -146 -62t-59 -153q0 -92 60 -155
q58 -63 147 -63q87 0 148 63q60 61 60 153q0 91 -60 154q-61 63 -150 63zM415 -236q-35 0 -59 23.5t-24 58.5q0 34 24 57.5t59 23.5t59 -23.5t24 -57.5q0 -35 -24 -58.5t-59 -23.5z" />
    <glyph glyph-name="uni1EE3" unicode="&#x1ee3;" horiz-adv-x="619" 
d="M586 251q0 -111 -79 -187q-79 -78 -198 -78q-121 0 -198 77q-78 77 -78 189q0 114 80 191q79 76 203 76q25 0 52 -3q11 0 21.5 -0.5t17 -1t11.5 -0.5q83 0 83 66q0 18 -5 47h101q9 -31 9 -58q0 -101 -106 -126q86 -75 86 -192zM439 255q0 60 -36.5 98.5t-92.5 38.5
q-57 0 -93.5 -39t-36.5 -99t36.5 -99.5t92.5 -39.5q57 0 93.5 40t36.5 100zM309 -236q-35 0 -59 23.5t-24 58.5q0 34 24 57.5t59 23.5t59 -23.5t24 -57.5q0 -35 -24 -58.5t-59 -23.5z" />
    <glyph glyph-name="uni1EE4" unicode="&#x1ee4;" horiz-adv-x="787" 
d="M393 -12q-153 0 -237 86t-84 243v383h161v-386q0 -86 42.5 -133.5t119.5 -47.5t119.5 47.5t42.5 135.5v384h158v-383q0 -157 -84 -243t-238 -86zM393 -236q-35 0 -59 23.5t-24 58.5q0 34 24 57.5t59 23.5t59 -23.5t24 -57.5q0 -35 -24 -58.5t-59 -23.5z" />
    <glyph glyph-name="uni1EE5" unicode="&#x1ee5;" horiz-adv-x="624" 
d="M557 511v-511h-147v92q-42 -54 -83.5 -78.5t-95.5 -24.5q-79 0 -125.5 53t-46.5 144v325h152v-294q0 -46 22 -71t63 -25q50 0 110 50v340h151zM309 -231q-35 0 -59 23.5t-24 58.5q0 34 24 57.5t59 23.5t59 -23.5t24 -57.5q0 -35 -24 -58.5t-59 -23.5z" />
    <glyph glyph-name="uni1EE6" unicode="&#x1ee6;" horiz-adv-x="787" 
d="M393 -12q-153 0 -237 86t-84 243v383h161v-386q0 -86 42.5 -133.5t119.5 -47.5t119.5 47.5t42.5 135.5v384h158v-383q0 -157 -84 -243t-238 -86zM537 889q0 -33 -26 -62q-26 -27 -103 -71l-70 21v2q61 42 76 56q17 15 17 28q0 22 -36 22q-48 0 -117 -39h-2v88
q67 37 139 37q57 0 89.5 -22t32.5 -60z" />
    <glyph glyph-name="uni1EE7" unicode="&#x1ee7;" horiz-adv-x="624" 
d="M557 511v-511h-147v92q-42 -54 -83.5 -78.5t-95.5 -24.5q-79 0 -125.5 53t-46.5 144v325h152v-294q0 -46 22 -71t63 -25q50 0 110 50v340h151zM450 741q0 -35 -27 -70q-26 -33 -102 -85l-70 22v2q43 36 74 67q19 19 19 36q0 27 -35 27q-51 0 -118 -48h-2v99q64 46 142 46
q55 0 87 -26t32 -70z" />
    <glyph glyph-name="uni1EE8" unicode="&#x1ee8;" horiz-adv-x="825" 
d="M393 -12q-153 0 -237 86t-84 243v383h161v-386q0 -86 42.5 -133.5t119.5 -47.5t119.5 47.5t42.5 135.5v384h63q55 0 80.5 21t25.5 66q0 29 -4 54h115q9 -36 9 -66q0 -122 -131 -157v-301q0 -157 -84 -243t-238 -86zM623 920l-193 -155h-82l82 157h193v-2z" />
    <glyph glyph-name="uni1EE9" unicode="&#x1ee9;" horiz-adv-x="646" 
d="M557 439v-439h-147v92q-42 -54 -83.5 -78.5t-95.5 -24.5q-79 0 -125.5 53t-46.5 144v325h152v-294q0 -46 22 -71t63 -25q50 0 110 50v340h66q48 0 69.5 15t21.5 48l-5 43h102q8 -26 8 -53q0 -101 -111 -125zM535 780l-194 -183h-72l85 185h181v-2z" />
    <glyph glyph-name="uni1EEA" unicode="&#x1eea;" horiz-adv-x="825" 
d="M393 -12q-153 0 -237 86t-84 243v383h161v-386q0 -86 42.5 -133.5t119.5 -47.5t119.5 47.5t42.5 135.5v384h63q55 0 80.5 21t25.5 66q0 29 -4 54h115q9 -36 9 -66q0 -122 -131 -157v-301q0 -157 -84 -243t-238 -86zM163 922h193l82 -157h-82l-193 155v2z" />
    <glyph glyph-name="uni1EEB" unicode="&#x1eeb;" horiz-adv-x="646" 
d="M557 439v-439h-147v92q-42 -54 -83.5 -78.5t-95.5 -24.5q-79 0 -125.5 53t-46.5 144v325h152v-294q0 -46 22 -71t63 -25q50 0 110 50v340h66q48 0 69.5 15t21.5 48l-5 43h102q8 -26 8 -53q0 -101 -111 -125zM83 782h181l85 -185h-72l-194 183v2z" />
    <glyph glyph-name="uni1EEC" unicode="&#x1eec;" horiz-adv-x="825" 
d="M393 -12q-153 0 -237 86t-84 243v383h161v-386q0 -86 42.5 -133.5t119.5 -47.5t119.5 47.5t42.5 135.5v384h63q55 0 80.5 21t25.5 66q0 29 -4 54h115q9 -36 9 -66q0 -122 -131 -157v-301q0 -157 -84 -243t-238 -86zM537 889q0 -33 -26 -62q-26 -27 -103 -71l-70 21v2
q61 42 76 56q17 15 17 28q0 22 -36 22q-48 0 -117 -39h-2v88q67 37 139 37q57 0 89.5 -22t32.5 -60z" />
    <glyph glyph-name="uni1EED" unicode="&#x1eed;" horiz-adv-x="646" 
d="M557 439v-439h-147v92q-42 -54 -83.5 -78.5t-95.5 -24.5q-79 0 -125.5 53t-46.5 144v325h152v-294q0 -46 22 -71t63 -25q50 0 110 50v340h66q48 0 69.5 15t21.5 48l-5 43h102q8 -26 8 -53q0 -101 -111 -125zM450 741q0 -35 -27 -70q-26 -33 -102 -85l-70 22v2
q43 36 74 67q19 19 19 36q0 27 -35 27q-51 0 -118 -48h-2v99q64 46 142 46q55 0 87 -26t32 -70z" />
    <glyph glyph-name="uni1EEE" unicode="&#x1eee;" horiz-adv-x="825" 
d="M393 -12q-153 0 -237 86t-84 243v383h161v-386q0 -86 42.5 -133.5t119.5 -47.5t119.5 47.5t42.5 135.5v384h63q55 0 80.5 21t25.5 66q0 29 -4 54h115q9 -36 9 -66q0 -122 -131 -157v-301q0 -157 -84 -243t-238 -86zM412 892q49 -24 65 -24q15 0 28 10q10 8 48 47l57 -44
q-52 -73 -79 -96q-29 -24 -63 -24q-26 0 -87 30q-48 24 -64 24q-15 0 -27 -9q-11 -7 -49 -47l-57 44q54 74 80 96q28 24 62 24q25 0 86 -31z" />
    <glyph glyph-name="uni1EEF" unicode="&#x1eef;" horiz-adv-x="646" 
d="M557 439v-439h-147v92q-42 -54 -83.5 -78.5t-95.5 -24.5q-79 0 -125.5 53t-46.5 144v325h152v-294q0 -46 22 -71t63 -25q50 0 110 50v340h66q48 0 69.5 15t21.5 48l-5 43h102q8 -26 8 -53q0 -101 -111 -125zM321 734q48 -28 64 -28q13 0 24 10q9 8 48 56l64 -41
q-50 -85 -76 -111q-28 -28 -62 -28q-23 0 -86 36q-50 28 -64 28q-13 0 -23 -9t-49 -57l-64 41q49 84 76 111t62 27q22 0 86 -35z" />
    <glyph glyph-name="uni1EF0" unicode="&#x1ef0;" horiz-adv-x="825" 
d="M393 -12q-153 0 -237 86t-84 243v383h161v-386q0 -86 42.5 -133.5t119.5 -47.5t119.5 47.5t42.5 135.5v384h63q55 0 80.5 21t25.5 66q0 29 -4 54h115q9 -36 9 -66q0 -122 -131 -157v-301q0 -157 -84 -243t-238 -86zM393 -236q-35 0 -59 23.5t-24 58.5q0 34 24 57.5
t59 23.5t59 -23.5t24 -57.5q0 -35 -24 -58.5t-59 -23.5z" />
    <glyph glyph-name="uni1EF1" unicode="&#x1ef1;" horiz-adv-x="646" 
d="M557 439v-439h-147v92q-42 -54 -83.5 -78.5t-95.5 -24.5q-79 0 -125.5 53t-46.5 144v325h152v-294q0 -46 22 -71t63 -25q50 0 110 50v340h66q48 0 69.5 15t21.5 48l-5 43h102q8 -26 8 -53q0 -101 -111 -125zM309 -231q-35 0 -59 23.5t-24 58.5q0 34 24 57.5t59 23.5
t59 -23.5t24 -57.5q0 -35 -24 -58.5t-59 -23.5z" />
    <glyph glyph-name="Ygrave" unicode="&#x1ef2;" horiz-adv-x="704" 
d="M700 700l-267 -412v-288h-161v287l-267 413h187l164 -268l164 268h180zM122 922h193l82 -157h-82l-193 155v2z" />
    <glyph glyph-name="ygrave" unicode="&#x1ef3;" horiz-adv-x="592" 
d="M145 -192q-48 0 -88 17l-29 138l2 2q45 -23 85 -23q78 0 111 79l-213 490h164l126 -321l115 321h161l-205 -516q-72 -187 -229 -187zM73 782h181l85 -185h-72l-194 183v2z" />
    <glyph glyph-name="uni1EF4" unicode="&#x1ef4;" horiz-adv-x="704" 
d="M700 700l-267 -412v-288h-161v287l-267 413h187l164 -268l164 268h180zM352 -231q-35 0 -59 23.5t-24 58.5q0 34 24 57.5t59 23.5t59 -23.5t24 -57.5q0 -35 -24 -58.5t-59 -23.5z" />
    <glyph glyph-name="uni1EF5" unicode="&#x1ef5;" horiz-adv-x="592" 
d="M145 -192q-48 0 -88 17l-29 138l2 2q45 -23 85 -23q78 0 111 79l-213 490h164l126 -321l115 321h161l-205 -516q-72 -187 -229 -187zM499 -219q-35 0 -59 23.5t-24 58.5q0 34 24 57.5t59 23.5t59 -23.5t24 -57.5q0 -35 -24 -58.5t-59 -23.5z" />
    <glyph glyph-name="uni1EF6" unicode="&#x1ef6;" horiz-adv-x="704" 
d="M700 700l-267 -412v-288h-161v287l-267 413h187l164 -268l164 268h180zM496 889q0 -33 -26 -62q-26 -27 -103 -71l-70 21v2q61 42 76 56q17 15 17 28q0 22 -36 22q-48 0 -117 -39h-2v88q67 37 139 37q57 0 89.5 -22t32.5 -60z" />
    <glyph glyph-name="uni1EF7" unicode="&#x1ef7;" horiz-adv-x="592" 
d="M145 -192q-48 0 -88 17l-29 138l2 2q45 -23 85 -23q78 0 111 79l-213 490h164l126 -321l115 321h161l-205 -516q-72 -187 -229 -187zM440 741q0 -35 -27 -70q-26 -33 -102 -85l-70 22v2q43 36 74 67q19 19 19 36q0 27 -35 27q-51 0 -118 -48h-2v99q64 46 142 46
q55 0 87 -26t32 -70z" />
    <glyph glyph-name="uni1EF8" unicode="&#x1ef8;" horiz-adv-x="704" 
d="M700 700l-267 -412v-288h-161v287l-267 413h187l164 -268l164 268h180zM371 892q49 -24 65 -24q15 0 28 10q10 8 48 47l57 -44q-52 -73 -79 -96q-28 -24 -63 -24q-26 0 -87 30q-48 24 -64 24q-15 0 -27 -9q-11 -7 -49 -47l-57 44q54 74 80 96q29 24 62 24q25 0 86 -31z
" />
    <glyph glyph-name="uni1EF9" unicode="&#x1ef9;" horiz-adv-x="592" 
d="M145 -192q-48 0 -88 17l-29 138l2 2q45 -23 85 -23q78 0 111 79l-213 490h164l126 -321l115 321h161l-205 -516q-72 -187 -229 -187zM311 734q48 -28 64 -28q13 0 24 10q9 8 48 56l64 -41q-50 -85 -76 -111q-28 -28 -62 -28q-23 0 -86 36q-50 28 -64 28q-13 0 -23 -9
t-49 -57l-64 41q49 84 76 111t62 27q22 0 86 -35z" />
    <glyph glyph-name="uni2002" unicode="&#x2002;" horiz-adv-x="500" 
 />
    <glyph glyph-name="uni2003" unicode="&#x2003;" horiz-adv-x="1000" 
 />
    <glyph glyph-name="uni2004" unicode="&#x2004;" horiz-adv-x="333" 
 />
    <glyph glyph-name="uni2005" unicode="&#x2005;" horiz-adv-x="250" 
 />
    <glyph glyph-name="uni2007" unicode="&#x2007;" horiz-adv-x="600" 
 />
    <glyph glyph-name="uni2009" unicode="&#x2009;" horiz-adv-x="125" 
 />
    <glyph glyph-name="uni200A" unicode="&#x200a;" horiz-adv-x="42" 
 />
    <glyph glyph-name="uni2011" unicode="&#x2011;" horiz-adv-x="400" 
d="M347 211h-294v135h294v-135z" />
    <glyph glyph-name="figuredash" unicode="&#x2012;" horiz-adv-x="600" 
d="M533 284h-466v135h466v-135z" />
    <glyph glyph-name="endash" unicode="&#x2013;" horiz-adv-x="560" 
d="M507 213h-454v131h454v-131z" />
    <glyph glyph-name="emdash" unicode="&#x2014;" horiz-adv-x="940" 
d="M887 213h-834v131h834v-131z" />
    <glyph glyph-name="uni2015" unicode="&#x2015;" horiz-adv-x="940" 
d="M887 213h-834v131h834v-131z" />
    <glyph glyph-name="quoteleft" unicode="&#x2018;" horiz-adv-x="257" 
d="M166 529q0 -24 11 -51q12 -28 49 -90h-158q-38 62 -38 113q0 45 36.5 93.5t120.5 114.5l46 -33q-38 -53 -53 -87q-14 -33 -14 -60z" />
    <glyph glyph-name="quoteright" unicode="&#x2019;" horiz-adv-x="257" 
d="M91 559q0 28 -10 52q-8 20 -50 89h158q38 -62 38 -113q0 -45 -36.5 -93.5t-120.5 -114.5l-46 33q39 55 53 86t14 61z" />
    <glyph glyph-name="quotesinglbase" unicode="&#x201a;" horiz-adv-x="242" 
d="M78 -25q0 28 -10 52q-8 20 -50 89h158q38 -62 38 -113q0 -45 -36.5 -93.5t-120.5 -114.5l-46 33q39 55 53 86t14 61z" />
    <glyph glyph-name="quotedblleft" unicode="&#x201c;" horiz-adv-x="482" 
d="M391 531q0 -28 10 -52q14 -33 50 -91h-154q-38 58 -38 113q0 45 36.5 93.5t120.5 114.5l42 -29q-40 -58 -54 -89q-13 -30 -13 -60zM162 531q0 -28 10 -52q14 -33 50 -91h-154q-38 62 -38 113q0 45 36.5 93.5t120.5 114.5l42 -29q-40 -58 -54 -89q-13 -30 -13 -60z" />
    <glyph glyph-name="quotedblright" unicode="&#x201d;" horiz-adv-x="482" 
d="M91 559q0 28 -10 52q-8 20 -50 89h154q38 -58 38 -113q0 -45 -36.5 -93.5t-120.5 -114.5l-42 33q39 55 53 86t14 61zM320 559q0 28 -10 52q-8 20 -50 89h154q38 -62 38 -113q0 -45 -36.5 -93.5t-120.5 -114.5l-42 33q39 55 53 86t14 61z" />
    <glyph glyph-name="quotedblbase" unicode="&#x201e;" horiz-adv-x="467" 
d="M77 -25q0 28 -10 52q-8 20 -50 89h154q38 -58 38 -113q0 -45 -36.5 -93.5t-120.5 -114.5l-42 33q39 55 53 86t14 61zM306 -25q0 28 -10 52q-8 20 -50 89h154q38 -62 38 -113q0 -45 -36.5 -93.5t-120.5 -114.5l-42 33q39 55 53 86t14 61z" />
    <glyph glyph-name="uni201F" unicode="&#x201f;" horiz-adv-x="482" 
d="M297 700h154q-39 -64 -49 -89q-11 -27 -11 -52q0 -30 14 -61t53 -86l-42 -33q-84 66 -120.5 114.5t-36.5 93.5q0 55 38 113zM68 700h154q-39 -64 -49 -89q-11 -27 -11 -52q0 -30 14 -61t53 -86l-42 -33q-84 66 -120.5 114.5t-36.5 93.5q0 51 38 113z" />
    <glyph glyph-name="dagger" unicode="&#x2020;" horiz-adv-x="532" 
d="M279 534h-26l-72 170h170zM308 479v26l170 72v-170zM54 577l170 -72v-26l-170 -72v170zM281 -10h-30l-67 298l69 162h26l69 -162z" />
    <glyph glyph-name="daggerdbl" unicode="&#x2021;" horiz-adv-x="532" 
d="M279 534h-26l-72 170h170zM308 483v26l170 72v-168zM54 581l170 -72v-26l-170 -70v168zM279 242h-26l-69 108l69 108h26l69 -108zM54 287l170 -70v-26l-170 -72v168zM308 191v26l170 70v-168zM253 166h26l72 -170h-170z" />
    <glyph glyph-name="bullet" unicode="&#x2022;" horiz-adv-x="539" 
d="M270 173q-74 0 -126 52t-52 125t52 125t126 52q73 0 125 -52t52 -125t-52 -125t-125 -52z" />
    <glyph glyph-name="ellipsis" unicode="&#x2026;" horiz-adv-x="705" 
d="M586 -10q-38 0 -64.5 27t-26.5 65q0 37 26.5 64t64.5 27t65 -27t27 -64q0 -38 -27 -65t-65 -27zM353 -10q-38 0 -65 27t-27 65q0 37 27 64t65 27t64.5 -27t26.5 -64q0 -38 -26.5 -65t-64.5 -27zM119 -10q-38 0 -64.5 27t-26.5 65q0 37 26.5 64t64.5 27t65 -27t27 -64
q0 -38 -27 -65t-65 -27z" />
    <glyph glyph-name="uni202F" unicode="&#x202f;" horiz-adv-x="125" 
 />
    <glyph glyph-name="guilsinglleft" unicode="&#x2039;" horiz-adv-x="398" 
d="M32 269l273 252l50 -32l-152 -232l152 -234l-50 -32l-273 252v26z" />
    <glyph glyph-name="guilsinglright" unicode="&#x203a;" horiz-adv-x="398" 
d="M366 243l-273 -252l-51 32l153 232l-153 234l51 32l273 -252v-26z" />
    <glyph glyph-name="fraction" unicode="&#x2044;" horiz-adv-x="102" 
d="M76 335l-220 -337h-84l254 367l220 337h84z" />
    <glyph glyph-name="uni20A6" unicode="&#x20a6;" horiz-adv-x="896" 
d="M260 528l2 -244h147zM630 419h-145l147 -241zM776 205v-205h-195l-124 204h-195l1 -204h-147v205h-89v84h89v125h-89v84h89v202h199l122 -201h193l-1 201h147v-202h90v-84h-90v-125h90v-84h-90z" />
    <glyph glyph-name="uni20A9" unicode="&#x20a9;" horiz-adv-x="1175" 
d="M585 529l-67 -244h136zM877 418h-135l73 -258zM434 418h-133l61 -257zM496 205l-57 -209h-168l-57 209h-163v84h141l-34 125h-123v84h100l-55 202h154l48 -202h174l59 209h145l59 -209h177l48 202h149l-55 -202h98v-84h-121l-34 -125h139v-84h-161l-57 -209h-167l-59 209
h-180z" />
    <glyph glyph-name="dong" unicode="&#x20ab;" horiz-adv-x="623" 
d="M179 224q0 -53 30 -84.5t80 -31.5q48 0 98 33v179q-47 24 -90 24q-53 0 -85.5 -33t-32.5 -87zM530 534v-535h-138v63q-66 -72 -150 -72q-87 0 -144 64q-58 64 -58 162q0 105 64 170q63 66 158 66q70 0 125 -37v119h-158v85h158v81h143v-81h77v-85h-77zM540 -87v-85h-491
v85h491z" />
    <glyph glyph-name="Euro" unicode="&#x20ac;" horiz-adv-x="684" 
d="M433 -12q-121 0 -200 64t-105 183h-105v84h94q-1 7 -1 30q0 26 1 34h-94v84h107q28 115 109 180t196 65q107 0 192 -49v-156h-2q-97 67 -178 67q-124 0 -159 -114h235v-77h-246v-64h246v-77h-236q32 -116 161 -116q51 0 92 13t92 46h2l-18 -151q-79 -46 -183 -46z" />
    <glyph glyph-name="uni20B1" unicode="&#x20b1;" horiz-adv-x="708" 
d="M338 573h-69v-238h69q64 0 99.5 32t35.5 90q0 53 -36 84.5t-99 31.5zM343 211h-73v-211h-154v412h-89v84h89v204h225q123 0 196.5 -53t84.5 -151h74v-84h-76q-15 -94 -89.5 -147.5t-187.5 -53.5z" />
    <glyph glyph-name="uni20B9" unicode="&#x20b9;" horiz-adv-x="639" 
d="M305 214l270 -211v-3h-202l-324 256l6 23h36q184 0 210 120h-251v81h251q-26 118 -211 118h-43v102h540v-84h-218q79 -48 97 -134h118v-85h-116q-18 -128 -163 -183z" />
    <glyph glyph-name="uni20BA" unicode="&#x20ba;" horiz-adv-x="628" 
d="M262 -6q-65 0 -146 17v190l-89 -41v102l89 39v80l-89 -41v102l89 40v218h155v-153l183 85v-102l-183 -83v-79l183 84v-102l-183 -83v-133h13q178 0 282 179h2l37 -153q-48 -78 -138.5 -122t-204.5 -44z" />
    <glyph glyph-name="uni20BD" unicode="&#x20bd;" horiz-adv-x="639" 
d="M337 571h-66v-213h61q60 0 93 29t33 81q0 50 -31.5 76.5t-89.5 26.5zM274 209h255v-80h-255v-129h-158v129h-89v80h89v69h-89v80h89v342h235q122 0 192 -55t70 -152q0 -102 -71 -158.5t-199 -56.5h-69v-69z" />
    <glyph glyph-name="uni2117" unicode="&#x2117;" horiz-adv-x="890" 
d="M160 68q-118 113 -118 281q0 165 119 282q120 115 285 115t284 -114q118 -113 118 -281q0 -165 -119 -282q-120 -115 -285 -115t-284 114zM444 714q-154 0 -261 -105q-108 -107 -108 -258q0 -153 109 -259q107 -106 262 -106t262 106q107 105 107 257q0 153 -108 259
q-109 106 -263 106zM462 496h-56v-145h55q42 0 65 19.5t23 54.5q0 33 -23 52t-64 19zM659 431q0 -72 -53 -114t-144 -42h-55v-150h-111v455h170q91 0 142 -39.5t51 -109.5z" />
    <glyph glyph-name="uni2120" unicode="&#x2120;" horiz-adv-x="969" 
d="M171 462q-72 26 -98 54t-26 72q0 54 40.5 86.5t108.5 32.5q73 0 122 -29v-92q-68 40 -125 40q-44 0 -44 -30q0 -13 13 -23t53 -24q71 -26 97 -54t26 -72q0 -57 -41 -90.5t-110 -33.5q-77 0 -133 38l-12 96q80 -52 147 -52q22 0 35 9.5t13 24.5q0 13 -13 23t-53 24z
M807 587l-148 -288h-11l-148 286v-279h-95v394h142l107 -219l107 219h142v-394h-96v281z" />
    <glyph glyph-name="trademark" unicode="&#x2122;" horiz-adv-x="1011" 
d="M25 700h362v-88h-132v-306h-98v306h-132v88zM849 587l-148 -288h-11l-147 285v-278h-95v394h142l107 -219l107 219h141v-394h-96v281z" />
    <glyph glyph-name="onethird" unicode="&#x2153;" horiz-adv-x="865" 
d="M233 710l10 -3v-425h-109v267l-107 -59v108zM432 335l-220 -337h-84l254 367l220 337h84zM834 114q0 -53 -44 -86.5t-113 -33.5q-73 0 -134 34l-12 97l2 1q71 -47 132 -47q28 0 44 11.5t16 31.5q0 23 -27 37.5t-103 33.5v34q71 26 98 42q25 15 25 36q0 16 -13.5 25.5
t-37.5 9.5q-52 0 -123 -49h-2v93q64 40 142 40q65 0 104 -28.5t39 -76.5q0 -65 -83 -101q90 -29 90 -104z" />
    <glyph glyph-name="twothirds" unicode="&#x2154;" horiz-adv-x="929" 
d="M350 371l-32 -89h-283l-8 51l144 157q46 52 46 80q0 19 -12.5 31t-33.5 12q-55 0 -126 -77h-2l-9 107q64 64 152 64q64 0 102 -33.5t38 -88.5q0 -35 -15.5 -65.5t-54.5 -72.5l-71 -76h165zM496 335l-220 -337h-84l254 367l220 337h84zM898 114q0 -53 -44 -86.5
t-113 -33.5q-73 0 -134 34l-12 97l2 1q71 -47 132 -47q28 0 44 11.5t16 31.5q0 23 -27 37.5t-103 33.5v34q71 26 98 42q25 15 25 36q0 16 -13.5 25.5t-37.5 9.5q-52 0 -123 -49h-2v93q64 40 142 40q65 0 104 -28.5t39 -76.5q0 -65 -83 -101q90 -29 90 -104z" />
    <glyph glyph-name="oneeighth" unicode="&#x215b;" horiz-adv-x="893" 
d="M233 710l10 -3v-425h-109v267l-107 -59v108zM432 335l-220 -337h-84l254 367l220 337h84zM852 111q0 -54 -47.5 -86t-126.5 -32t-126 32t-47 86q0 71 76 102q-63 31 -63 96q0 52 43.5 84t117.5 32q73 0 117 -32t44 -84q0 -65 -64 -96q76 -31 76 -102zM678 350
q-25 0 -40.5 -14t-15.5 -37t16 -38t41 -15t40.5 14.5t15.5 38.5q0 23 -15.5 37t-41.5 14zM678 177q-29 0 -47 -15.5t-18 -39.5q0 -25 17.5 -39.5t48.5 -14.5q30 0 47.5 14.5t17.5 39.5q0 24 -18.5 39.5t-47.5 15.5z" />
    <glyph glyph-name="threeeighths" unicode="&#x215c;" horiz-adv-x="926" 
d="M329 396q0 -53 -44 -86.5t-113 -33.5q-73 0 -134 34l-12 97l2 1q71 -47 132 -47q28 0 44 11.5t16 31.5q0 23 -27 37.5t-103 33.5v34q71 26 98 42q25 15 25 36q0 16 -13.5 25.5t-37.5 9.5q-52 0 -123 -49h-2v93q64 40 142 40q65 0 104 -28.5t39 -76.5q0 -65 -83 -101
q90 -29 90 -104zM465 335l-220 -337h-84l254 367l220 337h84zM885 111q0 -54 -47.5 -86t-126.5 -32t-126 32t-47 86q0 71 76 102q-63 31 -63 96q0 52 43.5 84t117.5 32q73 0 117 -32t44 -84q0 -65 -64 -96q76 -31 76 -102zM711 350q-25 0 -40.5 -14t-15.5 -37t16 -38t41 -15
t40.5 14.5t15.5 38.5q0 23 -15.5 37t-41.5 14zM711 177q-29 0 -47 -15.5t-18 -39.5q0 -25 17.5 -39.5t48.5 -14.5q30 0 47.5 14.5t17.5 39.5q0 24 -18.5 39.5t-47.5 15.5z" />
    <glyph glyph-name="fiveeighths" unicode="&#x215d;" horiz-adv-x="943" 
d="M348 416q0 -64 -49 -102.5t-131 -38.5q-59 0 -121 23l-10 90l1 1q73 -30 118 -30q38 0 60 16t22 44q0 54 -80 54q-40 0 -104 -15l-7 3l15 239h264v-88h-185l-6 -69q17 4 51 4q76 0 119 -34.5t43 -96.5zM482 335l-220 -337h-84l254 367l220 337h84zM902 111
q0 -54 -47.5 -86t-126.5 -32t-126 32t-47 86q0 71 76 102q-63 31 -63 96q0 52 43.5 84t117.5 32q73 0 117 -32t44 -84q0 -65 -64 -96q76 -31 76 -102zM728 350q-25 0 -40.5 -14t-15.5 -37t16 -38t41 -15t40.5 14.5t15.5 38.5q0 23 -15.5 37t-41.5 14zM728 177
q-29 0 -47 -15.5t-18 -39.5q0 -25 17.5 -39.5t48.5 -14.5q30 0 47.5 14.5t17.5 39.5q0 24 -18.5 39.5t-47.5 15.5z" />
    <glyph glyph-name="seveneighths" unicode="&#x215e;" horiz-adv-x="883" 
d="M365 700l4 -6l-194 -412h-115l159 329h-178l-13 89h337zM423 335l-220 -337h-84l254 367l220 337h84zM843 111q0 -54 -47.5 -86t-126.5 -32t-126 32t-47 86q0 71 76 102q-63 31 -63 96q0 52 43.5 84t117.5 32q73 0 117 -32t44 -84q0 -65 -64 -96q76 -31 76 -102zM669 350
q-25 0 -40.5 -14t-15.5 -37t16 -38t41 -15t40.5 14.5t15.5 38.5q0 23 -15.5 37t-41.5 14zM669 177q-29 0 -47 -15.5t-18 -39.5q0 -25 17.5 -39.5t48.5 -14.5q30 0 47.5 14.5t17.5 39.5q0 24 -18.5 39.5t-47.5 15.5z" />
    <glyph glyph-name="minus" unicode="&#x2212;" horiz-adv-x="600" 
d="M41 413h518v-126h-518v126z" />
    <glyph glyph-name="approxequal" unicode="&#x2248;" horiz-adv-x="600" 
d="M189 595q33 0 133 -61q67 -43 84 -43q16 0 33 20q17 22 47 82l74 -37q-44 -106 -77 -149q-33 -41 -76 -41q-35 0 -131 61q-68 43 -86 43q-17 0 -32 -20q-13 -15 -47 -82l-74 36q44 108 77 150q32 41 75 41zM193 334q35 0 131 -60q68 -43 86 -43q16 0 33 20q14 18 46 81
l74 -36q-44 -108 -77 -150q-32 -41 -75 -41q-33 0 -133 61q-67 43 -84 43t-32 -19q-15 -18 -48 -82l-74 36q45 110 78 150q31 40 75 40z" />
    <glyph glyph-name="notequal" unicode="&#x2260;" horiz-adv-x="600" 
d="M323 304h228v-113h-282l-63 -132l-74 34l47 98h-130v113h184l44 92h-228v113h282l63 132l74 -34l-47 -98h130v-113h-184z" />
    <glyph glyph-name="uni237F" unicode="&#x237f;" horiz-adv-x="567" 
d="M338 191v-281h-109v281q-54 14 -88.5 58.5t-34.5 100.5t34.5 100.5t88.5 58.5v271h109v-271q54 -14 88.5 -58.5t34.5 -100.5t-34.5 -100.5t-88.5 -58.5z" />
    <glyph glyph-name="uniA788" unicode="&#xa788;" horiz-adv-x="500" 
d="M446 -254v-2h-75l-120 86l-121 -86h-76v2l132 183h128z" />
    <glyph glyph-name="G.alt" horiz-adv-x="788" 
d="M393 381h358v-33q0 -168 -93 -265q-94 -97 -255 -97q-157 0 -258 101q-102 101 -102 258q0 159 107 263t267 104q156 0 279 -98l-41 -150h-2q-66 54 -120.5 77.5t-113.5 23.5q-91 0 -151 -63t-60 -160q0 -95 56 -156q56 -60 143 -60q72 0 119.5 36.5t63.5 103.5h-197v115
z" />
    <glyph glyph-name="Q.alt" horiz-adv-x="837" 
d="M208 349q0 -93 59 -157q58 -64 147 -64q61 0 111 32l-117 99l80 83l111 -101q26 47 26 109q0 91 -61 155q-62 63 -150 63t-146 -63q-60 -63 -60 -156zM715 140l81 -69l-79 -82l-81 73q-100 -74 -229 -74q-155 0 -259 105q-105 103 -105 257t107 259q106 105 266 105
q158 0 265 -102q107 -104 107 -251q0 -125 -73 -221z" />
    <glyph glyph-name="a.alt" horiz-adv-x="632" 
d="M181 250q0 -59 33 -95.5t85 -36.5q56 0 113 41v221q-39 13 -84 13q-64 0 -105.5 -40t-41.5 -103zM563 154l19 -154h-146l-14 79q-41 -48 -81.5 -68.5t-91.5 -20.5q-91 0 -153 72q-62 71 -62 178q0 123 82 201q81 78 206 78q63 0 138 -26l91 20h12v-359z" />
    <glyph glyph-name="a.sc" horiz-adv-x="693" 
d="M345 426l-81 -205h160zM432 565l239 -565h-165l-41 105h-242l-42 -105h-158l242 565h167z" />
    <glyph glyph-name="b.sc" horiz-adv-x="586" 
d="M544 162q0 -75 -58 -118.5t-157 -43.5h-260v563h255q94 0 147 -40t53 -110q0 -78 -82 -121q102 -38 102 -130zM305 450h-90v-115h85q37 0 57.5 16t20.5 44q0 26 -19.5 40.5t-53.5 14.5zM311 233h-96v-121h98q37 0 58.5 17t21.5 45t-21.5 43.5t-60.5 15.5z" />
    <glyph glyph-name="c.sc" horiz-adv-x="586" 
d="M330 -11q-126 0 -208 82t-82 210q0 125 85 209t213 84q110 0 187 -59v-154h-2q-86 78 -169 78q-66 0 -111 -45t-45 -111q0 -71 44 -115.5t113 -44.5q93 0 177 72l3 -1l-18 -152q-82 -53 -187 -53z" />
    <glyph glyph-name="d.sc" horiz-adv-x="657" 
d="M462 281q0 73 -46.5 114t-129.5 41h-63v-309h63q82 0 129 41t47 113zM283 0h-214v563h218q157 0 243.5 -74t86.5 -207q0 -129 -89 -206q-89 -76 -245 -76z" />
    <glyph glyph-name="e.sc" horiz-adv-x="532" 
d="M489 123l-23 -123h-397v563h395l22 -123h-267v-105h225v-103h-225v-109h270z" />
    <glyph glyph-name="f.sc" horiz-adv-x="511" 
d="M223 318h206v-118h-206v-200h-154v563h410l-23 -127h-233v-118z" />
    <glyph glyph-name="g.sc" horiz-adv-x="652" 
d="M330 310h257v-258q-113 -61 -242 -61q-139 0 -222 78q-83 77 -83 210q0 132 91 214q90 81 235 81q110 0 206 -42v-139q-108 49 -193 49q-82 0 -133 -45.5t-51 -120.5q0 -76 45.5 -118.5t126.5 -42.5q47 0 81 11v89h-118v95z" />
    <glyph glyph-name="g.scalt" horiz-adv-x="661" 
d="M325 311h297v-31q0 -137 -75.5 -215t-208.5 -78q-131 0 -214 83q-84 82 -84 210q0 127 87 211t218 84q130 0 229 -76l-39 -128h-2q-89 75 -177 75q-72 0 -117.5 -47t-45.5 -122t42 -121t110 -46q52 0 86.5 26t45.5 75h-152v100z" />
    <glyph glyph-name="h.sc" horiz-adv-x="689" 
d="M620 563v-563h-153v218h-244v-218h-154v563h154v-211h244v211h153z" />
    <glyph glyph-name="i.sc" horiz-adv-x="300" 
d="M227 563v-563h-154v563h154z" />
    <glyph glyph-name="j.sc" horiz-adv-x="431" 
d="M136 123q36 0 56.5 21.5t20.5 60.5v358h153v-386q0 -86 -52 -135.5t-141 -49.5q-64 0 -124 30l-20 138l2 1q56 -38 105 -38z" />
    <glyph glyph-name="k.sc" horiz-adv-x="634" 
d="M622 2v-2h-185l-187 224h-27v-224h-154v563h154v-217h24l189 217h181v-2l-242 -269z" />
    <glyph glyph-name="l.sc" horiz-adv-x="499" 
d="M460 132v-132h-391v563h154v-431h237z" />
    <glyph glyph-name="m.sc" horiz-adv-x="874" 
d="M653 388l-209 -397h-16l-209 396l1 -387h-150v563h211l157 -316l156 316h210v-563h-153z" />
    <glyph glyph-name="n.sc" horiz-adv-x="695" 
d="M626 563v-565h-103l-304 346l2 -344h-152v563h149l257 -297l-1 297h152z" />
    <glyph glyph-name="o.sc" horiz-adv-x="688" 
d="M345 577q132 0 218 -85q86 -86 86 -210t-87 -210q-89 -86 -218 -86q-132 0 -217 85q-87 84 -87 209q0 126 88 211q88 86 217 86zM345 119q64 0 107 46q42 45 42 115t-42 117q-43 46 -108 46q-64 0 -107 -45q-43 -46 -43 -116q0 -69 44 -116t107 -47z" />
    <glyph glyph-name="p.sc" horiz-adv-x="567" 
d="M292 442h-71v-158h68q45 0 71 22t26 60q0 35 -25.5 55.5t-68.5 20.5zM536 372q0 -96 -63.5 -149.5t-174.5 -53.5h-75v-169h-154v563h232q109 0 172 -50.5t63 -140.5z" />
    <glyph glyph-name="q.sc" horiz-adv-x="688" 
d="M509 -120q-69 0 -117 27t-92 90q-115 13 -187 93q-73 79 -73 191q0 126 88 211q86 85 217 85q129 0 217 -83q87 -84 87 -206q0 -90 -48.5 -160.5t-131.5 -102.5q32 -38 85 -38q42 0 80 18l3 -2l-41 -109q-36 -14 -87 -14zM345 119q64 0 107 46t43 115q0 71 -43 117
t-108 46q-64 0 -107 -45q-43 -46 -43 -116q0 -69 44 -116t107 -47z" />
    <glyph glyph-name="q.scalt" horiz-adv-x="694" 
d="M193 280q0 -71 43 -118q44 -48 104 -48q49 0 83 22l-91 79l63 67l87 -76q15 35 15 73q0 70 -44 117t-109 47t-108 -46t-43 -117zM591 112l63 -52l-66 -70l-64 57q-82 -58 -188 -58q-125 0 -210 85q-86 86 -86 208q0 125 88 210q86 85 217 85q129 0 217 -83
q87 -84 87 -206q0 -96 -58 -176z" />
    <glyph glyph-name="r.sc" horiz-adv-x="605" 
d="M299 447h-79v-152h77q40 0 64.5 21t24.5 55q0 35 -23.5 55.5t-63.5 20.5zM429 222l177 -222h-180l-152 197h-52v-197h-153v563h252q100 0 157 -48t57 -133q0 -110 -106 -160z" />
    <glyph glyph-name="s.sc" horiz-adv-x="515" 
d="M261 455q-69 0 -69 -45q0 -21 18 -34t74 -31q110 -32 151 -73q40 -40 40 -109q0 -77 -62 -125q-63 -48 -164 -48q-106 0 -195 56l-18 144l2 1q115 -84 217 -84q74 0 74 49q0 22 -20.5 36t-79.5 33q-104 31 -145 73q-39 40 -39 106q0 75 61 121q62 47 159 47
q103 0 180 -40v-134h-2q-97 57 -182 57z" />
    <glyph glyph-name="t.sc" horiz-adv-x="619" 
d="M31 563h557v-133h-202v-430h-153v430h-202v133z" />
    <glyph glyph-name="u.sc" horiz-adv-x="661" 
d="M330 -11q-125 0 -196 71t-71 197v306h154v-309q0 -65 30 -99.5t85 -34.5t85 35t30 100v308h151v-306q0 -126 -71 -197t-197 -71z" />
    <glyph glyph-name="v.sc" horiz-adv-x="677" 
d="M658 563l-252 -568h-138l-248 568h170l151 -378l155 378h162z" />
    <glyph glyph-name="w.sc" horiz-adv-x="971" 
d="M488 286l-142 -289h-127l-187 566h166l107 -358l176 365h15l175 -362l108 355h162l-191 -566h-128z" />
    <glyph glyph-name="x.sc" horiz-adv-x="654" 
d="M418 286l213 -286h-176l-131 183l-128 -183h-172l212 285l-206 278h176l125 -174l122 174h172z" />
    <glyph glyph-name="y.sc" horiz-adv-x="630" 
d="M621 563l-229 -337v-226h-154v226l-229 337h177l133 -211l133 211h169z" />
    <glyph glyph-name="z.sc" horiz-adv-x="609" 
d="M284 125h299l-37 -125h-509l-5 13l289 424h-262v126h508l5 -13z" />
    <glyph glyph-name="quoteleftreversed" horiz-adv-x="257" 
d="M68 700h158q-39 -64 -49 -89q-11 -27 -11 -52q0 -30 14 -61t53 -86l-46 -33q-84 66 -120.5 114.5t-36.5 93.5q0 51 38 113z" />
    <glyph glyph-name="guillemotleft.cap" horiz-adv-x="665" 
d="M311 364l261 252l51 -32l-141 -232l141 -234l-51 -32l-261 252v26zM32 364l261 252l51 -32l-141 -232l141 -234l-51 -32l-261 252v26z" />
    <glyph glyph-name="guillemotright.cap" horiz-adv-x="665" 
d="M354 337l-261 -252l-51 32l141 232l-141 234l51 32l261 -252v-26zM633 337l-261 -252l-50 32l140 232l-140 234l50 32l261 -252v-26z" />
    <glyph glyph-name="guilsinglleft.cap" horiz-adv-x="398" 
d="M32 364l273 252l50 -32l-152 -232l152 -234l-50 -32l-273 252v26z" />
    <glyph glyph-name="guilsinglright.cap" horiz-adv-x="398" 
d="M366 338l-273 -252l-51 32l153 232l-153 234l51 32l273 -252v-26z" />
    <glyph glyph-name="parenleft.cap" horiz-adv-x="440" 
d="M215 348q0 -114 49 -211.5t157 -195.5l-38 -43q-165 98 -241 206t-76 244t76 244t241 206l38 -43q-108 -98 -157 -195.5t-49 -211.5z" />
    <glyph glyph-name="parenright.cap" horiz-adv-x="440" 
d="M225 348q0 114 -49.5 212t-156.5 195l38 43q165 -96 241 -205t76 -245t-76 -245t-241 -205l-38 43q107 97 156.5 195t49.5 212z" />
    <glyph glyph-name="bracketleft.cap" horiz-adv-x="429" 
d="M401 -2l-15 -85h-299v870h299l15 -85h-175v-700h175z" />
    <glyph glyph-name="bracketright.cap" horiz-adv-x="429" 
d="M28 698l15 85h299v-870h-299l-15 85h175v700h-175z" />
    <glyph glyph-name="braceleft.cap" horiz-adv-x="525" 
d="M381 -2h116l-15 -85h-146q-91 0 -143 38.5t-52 104.5q0 38 35 112q25 52 25 74q0 26 -19 40t-68 23l-86 16v54l86 16q49 9 68 23t19 40q0 22 -25 74q-35 74 -35 112q0 66 52 104.5t143 38.5h146l15 -85h-116q-89 0 -89 -64q0 -23 23 -74q29 -68 29 -104
q0 -39 -25.5 -64.5t-81.5 -43.5q56 -18 81.5 -43.5t25.5 -64.5q0 -36 -29 -104q-23 -51 -23 -74q0 -64 89 -64z" />
    <glyph glyph-name="braceright.cap" horiz-adv-x="525" 
d="M385 56q0 -66 -52.5 -104.5t-142.5 -38.5h-147l-15 85h116q89 0 89 64q0 23 -22 74q-29 68 -29 104q0 39 25 64.5t81 43.5q-56 18 -81 43.5t-25 64.5q0 36 29 104q22 51 22 74q0 64 -89 64h-116l15 85h147q90 0 142.5 -38.5t52.5 -104.5q0 -38 -35 -112q-25 -52 -25 -74
q0 -26 19 -40t67 -23l86 -16v-54l-86 -16q-48 -9 -67 -23t-19 -40q0 -22 25 -74q35 -74 35 -112z" />
    <glyph glyph-name="slash.cap" horiz-adv-x="482" 
d="M473 780l-351 -870h-114l351 870h114z" />
    <glyph glyph-name="bar.cap" horiz-adv-x="389" 
d="M140 780h109v-870h-109v870z" />
    <glyph glyph-name="backslash.cap" horiz-adv-x="482" 
d="M9 780h113l351 -870h-113z" />
    <glyph glyph-name="hyphen.cap" horiz-adv-x="416" 
d="M358 284h-300v141h300v-141z" />
    <glyph glyph-name="endash.cap" horiz-adv-x="565" 
d="M509 290h-454v131h454v-131z" />
    <glyph glyph-name="emdash.cap" horiz-adv-x="945" 
d="M889 290h-834v131h834v-131z" />
    <glyph glyph-name="periodcentered.cap" horiz-adv-x="290" 
d="M145 247q-43 0 -73.5 30.5t-30.5 73.5t30.5 73.5t73.5 30.5t73.5 -30.5t30.5 -73.5t-30.5 -73.5t-73.5 -30.5z" />
    <glyph glyph-name="colon.fig" horiz-adv-x="275" 
d="M138 405q-39 0 -66.5 27.5t-27.5 66.5t27.5 66.5t66.5 27.5t66.5 -27.5t27.5 -66.5t-27.5 -66.5t-66.5 -27.5zM138 111q-39 0 -66.5 27.5t-27.5 66.5q0 38 27.5 65.5t66.5 27.5t66.5 -27.5t27.5 -65.5q0 -39 -27.5 -66.5t-66.5 -27.5z" />
    <glyph glyph-name="paragraph.alt" horiz-adv-x="656" 
d="M574 0h-111v700h111v-700zM298 700h88v-700h-88v140h-10q-115 0 -183 58q-70 58 -70 157q0 101 70 159t190 58h3v128z" />
    <glyph glyph-name="zero.osf" horiz-adv-x="645" 
d="M321 -14q-123 0 -202 79t-79 200t81 201q80 80 202 80q124 0 203 -79t79 -200t-80 -201q-82 -80 -204 -80zM459 265q0 66 -39 109.5t-99 43.5q-59 0 -96 -43q-39 -43 -39 -108q0 -66 38.5 -109.5t98.5 -43.5q59 0 97.5 43t38.5 108z" />
    <glyph glyph-name="one.osf" horiz-adv-x="416" 
d="M318 544l19 -4v-540h-152v332l-153 -81v144z" />
    <glyph glyph-name="two.osf" horiz-adv-x="564" 
d="M295 122l244 3l-39 -125h-457l-7 56l230 195q42 36 58.5 60t16.5 46q0 26 -17 40.5t-47 14.5q-45 0 -93 -30.5t-111 -99.5h-2l-22 144q111 118 253 118q90 0 143.5 -45t53.5 -120q0 -50 -32 -96t-104 -103z" />
    <glyph glyph-name="three.osf" horiz-adv-x="562" 
d="M516 14q0 -91 -77 -150q-78 -57 -199 -57q-104 0 -180 27l-19 136q89 -34 189 -34q61 0 98.5 25t37.5 65q0 46 -52 69t-166 27l-10 62q123 55 168 88q45 34 45 72q0 30 -22.5 49t-59.5 19q-87 0 -207 -100h-2v148q106 83 231 83q95 0 153 -49t58 -129q0 -106 -136 -177
q72 -18 111 -63t39 -111z" />
    <glyph glyph-name="four.osf" horiz-adv-x="675" 
d="M380 379l-182 -263h182v263zM521 116h129v-116h-129v-189h-144v189h-355l-7 59l339 479h167v-422z" />
    <glyph glyph-name="five.osf" horiz-adv-x="577" 
d="M539 62q0 -118 -91 -187q-92 -68 -247 -68q-70 0 -138 14l-18 138q86 -20 145 -20q86 0 137.5 32t51.5 84q0 44 -34 68t-96 24q-79 0 -162 -24l-12 8v401h427v-136h-296v-135q56 9 97 9q106 0 171 -56t65 -152z" />
    <glyph glyph-name="six.osf" horiz-adv-x="643" 
d="M603 247q0 -113 -78 -186q-79 -75 -204 -75q-128 0 -202 71t-74 187q0 69 29 141q28 69 102 175l132 186h176l-170 -235q-6 -10 -22 -31q45 8 79 8q100 0 166 -67t66 -174zM194 253q0 -63 35 -99.5t95 -36.5q57 0 94 36.5t37 90.5q0 59 -39 93.5t-104 34.5q-44 0 -90 -10
q-28 -56 -28 -109z" />
    <glyph glyph-name="seven.osf" horiz-adv-x="598" 
d="M571 532l7 -10l-329 -711h-167l281 585h-304l-21 136h533z" />
    <glyph glyph-name="eight.osf" horiz-adv-x="639" 
d="M591 198q0 -93 -76 -151q-77 -59 -196 -59q-120 0 -196 58t-76 149q0 60 33.5 107.5t94.5 74.5q-50 26 -77.5 70.5t-27.5 99.5q0 89 70 147q71 59 180 59t179 -58q69 -58 69 -148q0 -54 -27.5 -98.5t-77.5 -70.5q61 -26 94.5 -73t33.5 -107zM319 635q-45 0 -73 -28.5
t-28 -73.5q0 -43 29 -73.5t73 -30.5q42 0 71 30.5t29 73.5q0 44 -28.5 73t-72.5 29zM319 321q-49 0 -83 -31t-34 -76q0 -47 33.5 -78t84.5 -31q50 0 83 31t33 78q0 45 -34 76t-83 31z" />
    <glyph glyph-name="nine.osf" horiz-adv-x="626" 
d="M444 -40l-104 -149h-176l149 207q24 33 27 38q-34 -8 -70 -8q-102 0 -166 66q-65 67 -65 173q0 111 77 185t195 74q123 0 197 -72q73 -72 73 -192q0 -71 -28 -139q-27 -65 -109 -183zM189 290q0 -57 36.5 -90.5t97.5 -33.5q52 0 84 9q26 61 26 103q0 61 -33.5 98.5
t-89.5 37.5q-53 0 -87 -35t-34 -89z" />
    <glyph glyph-name="plus.osf" horiz-adv-x="600" 
d="M366 333h193v-126h-193v-193h-132v193h-193v126h193v192h132v-192z" />
    <glyph glyph-name="divide.osf" horiz-adv-x="600" 
d="M300 394q-36 0 -61 25t-25 61t25 61.5t61 25.5t61 -25.5t25 -61.5t-25 -61t-61 -25zM300 326l259 4v-120l-259 4l-259 -4v120zM300 -27q-36 0 -61 25t-25 61t25 61.5t61 25.5t61 -25.5t25 -61.5t-25 -61t-61 -25z" />
    <glyph glyph-name="minus.osf" horiz-adv-x="600" 
d="M41 333h518v-126h-518v126z" />
    <glyph glyph-name="equal.osf" horiz-adv-x="600" 
d="M49 429h502v-113h-502v113zM49 224h502v-113h-502v113z" />
    <glyph glyph-name="notequal.osf" horiz-adv-x="600" 
d="M323 224h228v-113h-282l-63 -132l-74 34l47 98h-130v113h184l44 92h-228v113h282l63 132l74 -34l-47 -98h130v-113h-184z" />
    <glyph glyph-name="asciitilde.osf" horiz-adv-x="600" 
d="M191 390q35 0 131 -60q68 -43 86 -43q16 0 33 20q16 21 47 81l73 -36q-52 -123 -80 -160q-31 -42 -72 -42q-35 0 -131 61q-68 43 -86 43q-17 0 -32 -19q-16 -19 -48 -83l-73 36q51 123 80 161q32 41 72 41z" />
    <glyph glyph-name="approxequal.osf" horiz-adv-x="600" 
d="M189 515q33 0 133 -61q67 -43 84 -43q16 0 33 20q17 22 47 82l74 -37q-44 -106 -77 -149q-33 -41 -76 -41q-35 0 -131 61q-68 43 -86 43q-17 0 -32 -20q-13 -15 -47 -82l-74 36q44 108 77 150q32 41 75 41zM193 254q35 0 131 -60q68 -43 86 -43q16 0 33 20q14 18 46 81
l74 -36q-44 -108 -77 -150q-32 -41 -75 -41q-33 0 -133 61q-67 43 -84 43t-32 -19q-15 -18 -48 -82l-74 36q45 110 78 150q31 40 75 40z" />
    <glyph glyph-name="multiply.osf" horiz-adv-x="600" 
d="M389 271l160 -158l-93 -92l-156 161l-158 -161l-91 90l161 159l-161 159l93 92l157 -161l157 161l91 -91z" />
    <glyph glyph-name="less.osf" horiz-adv-x="600" 
d="M233 271l308 -131v-138l-491 228v80l491 229v-135z" />
    <glyph glyph-name="greater.osf" horiz-adv-x="600" 
d="M550 311v-81l-491 -228v135l308 133l-308 131v138z" />
    <glyph glyph-name="numbersign.osf" horiz-adv-x="642" 
d="M402 321h-131l-31 -110h131zM423 93l-27 -95h-85l27 95h-131l-27 -95h-84l27 95h-94v121h127l30 104h-117v120h150l27 96h85l-27 -96h131l27 96h84l-27 -96h94v-120h-127l-30 -104h117v-121h-150z" />
    <glyph glyph-name="cent.osf" horiz-adv-x="540" 
d="M488 198l2 -1l-17 -143q-72 -43 -148 -47l-10 -94h-106l11 105q-84 24 -132 90t-48 157q0 99 63 170q64 71 166 86l10 100h106l-10 -100q54 -10 108 -45v-144h-2q-80 63 -153 63q-62 0 -101 -36t-39 -93t38 -93t98 -36q85 0 164 61z" />
    <glyph glyph-name="zero.tab" horiz-adv-x="600" 
d="M564 351q0 -173 -70 -269t-195 -96t-194 95t-69 268t70 269t195 96q124 0 193.5 -95.5t69.5 -267.5zM299 579q-56 0 -86.5 -59t-30.5 -169q0 -111 31 -170.5t88 -59.5q56 0 86.5 59.5t30.5 168.5q0 111 -31 170.5t-88 59.5z" />
    <glyph glyph-name="one.tab" horiz-adv-x="600" 
d="M400 132h149v-132h-466v132h162v366l-162 -86v152l287 151l30 -8v-575z" />
    <glyph glyph-name="two.tab" horiz-adv-x="600" 
d="M275 133l295 3l-25 -136h-503l-4 69l272 288q42 47 58 74.5t16 54.5q0 38 -24.5 61.5t-65.5 23.5q-51 0 -102 -35.5t-113 -115.5h-2l-28 153q105 138 265 138q101 0 161 -56t60 -149q0 -59 -27 -110q-28 -51 -100 -125z" />
    <glyph glyph-name="three.tab" horiz-adv-x="600" 
d="M554 183q0 -86 -72 -140t-184 -54q-128 0 -233 62l-19 154l2 1q121 -82 232 -82q53 0 84.5 21t31.5 57q0 42 -48 68q-51 25 -189 56v52q133 42 179 69t46 64q0 30 -26.5 48t-71.5 18q-109 0 -221 -97h-2v147q102 84 240 84q108 0 172 -48t64 -128q0 -116 -148 -173
q163 -42 163 -179z" />
    <glyph glyph-name="four.tab" horiz-adv-x="600" 
d="M347 255v327l-181 -327h181zM491 259h95v-117h-95v-142h-146v142h-321l-12 62l288 501h191v-446z" />
    <glyph glyph-name="five.tab" horiz-adv-x="600" 
d="M556 227q0 -106 -78 -172q-77 -67 -203 -67q-113 0 -204 39l-16 136l2 1q117 -50 205 -50q61 0 99 30.5t38 78.5q0 49 -36.5 76t-102.5 27q-78 0 -173 -31l-13 7l26 398h421v-129h-304l-9 -137q50 11 93 11q118 0 186.5 -58t68.5 -160z" />
    <glyph glyph-name="six.tab" horiz-adv-x="600" 
d="M570 238q0 -110 -75 -180q-77 -72 -196 -72q-122 0 -193 71q-72 71 -72 187q0 71 28 137t105 178l99 141h176l-159 -214q-12 -16 -20 -30q41 10 85 10q94 0 159 -63q63 -65 63 -165zM182 245q0 -58 33 -93.5t88 -35.5q52 0 86.5 33.5t34.5 82.5q0 55 -35.5 86t-96.5 31
q-36 0 -86 -8q-24 -49 -24 -96z" />
    <glyph glyph-name="seven.tab" horiz-adv-x="600" 
d="M579 700l4 -14l-321 -686h-164l275 564h-315l-20 136h541z" />
    <glyph glyph-name="eight.tab" horiz-adv-x="600" 
d="M561 188q0 -89 -73 -144q-74 -56 -189 -56q-114 0 -187 56q-73 55 -73 144q0 56 30.5 100t86.5 69q-98 51 -98 158q0 86 68 142q67 55 175 55q107 0 174 -55t67 -142q0 -107 -98 -158q56 -25 86.5 -68.5t30.5 -100.5zM299 595q-44 0 -72 -26t-28 -66t29 -67t73 -27
q43 0 71.5 27t28.5 67t-29 66t-73 26zM299 301q-47 0 -80 -28t-33 -69q0 -43 32.5 -71t82.5 -28q49 0 81 27.5t32 71.5q0 41 -33.5 69t-81.5 28z" />
    <glyph glyph-name="nine.tab" horiz-adv-x="600" 
d="M433 141l-99 -141h-176l159 214l18 27q-41 -10 -83 -10q-94 0 -158 64t-64 165q0 110 76 182q75 72 195 72q123 0 194 -70q71 -71 71 -188q0 -70 -28 -136q-29 -69 -105 -179zM176 466q0 -54 35.5 -86t96.5 -32q39 0 85 8q25 53 25 99q0 58 -33 93.5t-88 35.5
q-52 0 -86.5 -34t-34.5 -84z" />
    <glyph glyph-name="twodotleader" horiz-adv-x="600" 
d="M450 -10q-38 0 -65 27t-27 65q0 37 27 64t65 27t65 -27t27 -64q0 -38 -27 -65t-65 -27zM150 -10q-38 0 -65 27t-27 65q0 37 27 64t65 27t65 -27t27 -64q0 -38 -27 -65t-65 -27z" />
    <glyph glyph-name="quotedbl.tab" horiz-adv-x="600" 
d="M390 396l-64 18l67 286h162zM139 396l-64 18l67 286h162z" />
    <glyph glyph-name="quotesingle.tab" horiz-adv-x="303" 
d="M115 396l-65 18l68 286h162z" />
    <glyph glyph-name="period.tab" horiz-adv-x="300" 
d="M150 -10q-40 0 -69 29t-29 69q0 39 29 68t69 29q41 0 69.5 -28.5t28.5 -68.5t-28.5 -69t-69.5 -29z" />
    <glyph glyph-name="comma.tab" horiz-adv-x="300" 
d="M32 -179l-51 39q57 70 79 137q20 66 22 175h160q-3 -119 -47 -198q-45 -77 -163 -153z" />
    <glyph glyph-name="colon.tab" horiz-adv-x="300" 
d="M150 326q-40 0 -69 29t-29 68q0 40 29 69t69 29q41 0 69.5 -29t28.5 -69t-28.5 -68.5t-69.5 -28.5zM150 -10q-40 0 -69 29t-29 69q0 39 29 68t69 29q41 0 69.5 -28.5t28.5 -68.5t-28.5 -69t-69.5 -29z" />
    <glyph glyph-name="colon.figtab" horiz-adv-x="300" 
d="M150 405q-39 0 -66.5 27.5t-27.5 66.5t27.5 66.5t66.5 27.5t66.5 -27.5t27.5 -66.5t-27.5 -66.5t-66.5 -27.5zM150 111q-39 0 -66.5 27.5t-27.5 66.5q0 38 27.5 65.5t66.5 27.5t66.5 -27.5t27.5 -65.5q0 -39 -27.5 -66.5t-66.5 -27.5z" />
    <glyph glyph-name="periodcentered.tab" horiz-adv-x="300" 
d="M150 253q-40 0 -69 29t-29 69q0 39 29 68t69 29q41 0 69.5 -28.5t28.5 -68.5t-28.5 -69t-69.5 -29z" />
    <glyph glyph-name="slash.tab" horiz-adv-x="600" 
d="M595 783l-471 -870h-122l471 870h122z" />
    <glyph glyph-name="dollar.tab" horiz-adv-x="600" 
d="M328 -1l-14 -138h-106l14 142q-92 12 -169 59l-24 157l2 1q157 -93 264 -93q54 0 83.5 18.5t29.5 52.5t-28 53t-112 39q-129 33 -178 80q-49 46 -49 128q0 88 68 144q67 55 182 60l11 112h106l-11 -119q71 -12 133 -44v-149h-2q-52 32 -114.5 51.5t-114.5 19.5
q-45 0 -72 -18t-27 -48q0 -33 27 -51q25 -18 111 -39q131 -34 181 -81q48 -47 48 -130q0 -88 -64 -143t-175 -64z" />
    <glyph glyph-name="sterling.tab" horiz-adv-x="600" 
d="M273 130l290 3l-34 -133h-477l-7 67q102 92 125 125q22 31 22 69q0 2 -0.5 4.5t-1 7t-0.5 9.5l-149 -8v93l100 4q-57 90 -57 150q0 85 67 137q67 53 176 53q118 0 211 -50l15 -154h-3q-109 71 -202 71q-45 0 -71 -21.5t-26 -56.5q0 -22 10 -43q8 -21 47 -78l190 8v-93
l-149 -4q1 -7 1.5 -12.5t0.5 -7.5q0 -63 -78 -140z" />
    <glyph glyph-name="yen.tab" horiz-adv-x="600" 
d="M374 216h173v-84h-173v-132h-148v132h-173v84h173v61h-173v84h139l-180 339h165l127 -286l126 286h158l-180 -339h139v-84h-173v-61z" />
    <glyph glyph-name="Euro.tab" horiz-adv-x="600" 
d="M383 -12q-108 0 -180 64.5t-95 182.5h-83v84h73q-1 7 -1 30q0 26 1 34h-73v84h85q26 115 100 180t180 65q96 0 168 -44v-149h-2q-85 57 -152 57q-53 0 -90 -30t-53 -86h198v-77h-207v-64h207v-77h-198q31 -118 142 -118q81 0 160 52h2l-18 -145q-71 -43 -164 -43z" />
    <glyph glyph-name="zero.sup" horiz-adv-x="437" 
d="M409 614q0 -96 -53 -157q-54 -61 -138 -61t-137 60q-52 58 -52 157q0 95 54 157q52 61 137 61q84 0 137 -60q52 -59 52 -157zM219 740q-38 0 -60 -34.5t-22 -91.5q0 -58 22 -92.5t60 -34.5q37 0 59 34t22 92q0 57 -22 92t-59 35z" />
    <glyph glyph-name="one.sup" horiz-adv-x="301" 
d="M233 832l10 -3v-425h-109v267l-107 -59v108z" />
    <glyph glyph-name="two.sup" horiz-adv-x="370" 
d="M350 493l-32 -89h-283l-8 51l144 157q46 52 46 80q0 19 -12.5 31t-33.5 12q-55 0 -126 -77h-2l-9 107q64 64 152 64q64 0 102 -33.5t38 -88.5q0 -35 -15.5 -65.5t-54.5 -72.5l-71 -76h165z" />
    <glyph glyph-name="three.sup" horiz-adv-x="361" 
d="M329 518q0 -53 -44 -86.5t-113 -33.5q-73 0 -134 34l-12 97l2 1q71 -47 132 -47q28 0 44 11.5t16 31.5q0 23 -27 37.5t-103 33.5v34q71 26 98 42q25 15 25 36q0 16 -13.5 25.5t-37.5 9.5q-52 0 -123 -49h-2v93q64 40 142 40q65 0 104 -28.5t39 -76.5q0 -65 -83 -101
q90 -29 90 -104z" />
    <glyph glyph-name="four.sup" horiz-adv-x="414" 
d="M227 739l-97 -177h97v177zM328 562h66v-76h-66v-82h-103v82h-210l-4 26l186 313h131v-263z" />
    <glyph glyph-name="five.sup" horiz-adv-x="379" 
d="M348 538q0 -64 -49 -102.5t-131 -38.5q-59 0 -121 23l-10 90l1 1q73 -30 118 -30q38 0 60 16t22 44q0 54 -80 54q-40 0 -104 -15l-7 3l15 239h264v-88h-185l-6 -69q17 4 51 4q76 0 119 -34.5t43 -96.5z" />
    <glyph glyph-name="six.sup" horiz-adv-x="397" 
d="M375 551q0 -68 -49 -111q-50 -44 -127 -44q-78 0 -125 42.5t-47 112.5q0 41 18 81q16 36 68 107l62 83h127l-113 -134q-5 -5 -6 -8q28 6 54 6q61 0 99.5 -37.5t38.5 -97.5zM134 552q0 -32 18.5 -52t47.5 -20t48.5 19t19.5 47q0 30 -19.5 46.5t-54.5 16.5q-23 0 -47 -5
q-13 -27 -13 -52z" />
    <glyph glyph-name="seven.sup" horiz-adv-x="382" 
d="M365 822l4 -6l-194 -412h-115l159 329h-178l-13 89h337z" />
    <glyph glyph-name="eight.sup" horiz-adv-x="413" 
d="M380 515q0 -54 -47.5 -86t-126.5 -32t-126 32t-47 86q0 71 76 102q-63 31 -63 96q0 52 43.5 84t117.5 32q73 0 117 -32t44 -84q0 -65 -64 -96q76 -31 76 -102zM206 754q-25 0 -40.5 -14t-15.5 -37t16 -38t41 -15t40.5 14.5t15.5 38.5q0 23 -15.5 37t-41.5 14zM206 581
q-29 0 -47 -15.5t-18 -39.5q0 -25 17.5 -39.5t48.5 -14.5q30 0 47.5 14.5t17.5 39.5q0 24 -18.5 39.5t-47.5 15.5z" />
    </font>
</defs>
</svg>
