<?xml version="1.0" standalone="no"?>
<!DOCTYPE svg PUBLIC "-//W3C//DTD SVG 1.1//EN" "http://www.w3.org/Graphics/SVG/1.1/DTD/svg11.dtd" >
<svg xmlns="http://www.w3.org/2000/svg" xmlns:xlink="http://www.w3.org/1999/xlink" version="1.1">
<metadata>
Created by FontForge 20170731 at Fri Sep 13 06:39:48 2013
 By Aleksey,,,
Copyright (c) 2009-13 by Village Type &#38; Design LLC. All rights reserved.
</metadata>
<defs>
<font id="BookItalic" horiz-adv-x="700" >
  <font-face 
    font-family="Copernicus"
    font-weight="600"
    font-style="italic"
    font-stretch="normal"
    units-per-em="1000"
    panose-1="2 0 0 0 0 0 0 0 0 0"
    ascent="750"
    descent="-250"
    x-height="533"
    cap-height="780"
    bbox="-190 -307 1370 1047"
    underline-thickness="30"
    underline-position="-160"
    unicode-range="U+0020-F614"
  />
<missing-glyph horiz-adv-x="960" 
d="M90 0v780h780v-780h-780zM480 345l-279 -279h558zM201 714l279 -279l279 279h-558zM435 390l-275 275v-550zM525 390l275 -275v550z" />
    <glyph glyph-name="fi" unicode="fi" horiz-adv-x="650" 
d="M236 523h232q69 0 69 -54q0 -44 -33 -197t-33 -196q0 -28 25 -28q35 0 94 82l24 -16q-64 -124 -150 -124q-69 0 -69 68q0 44 33 198.5t33 197.5q0 26 -28 26h-204l-63 -413q-25 -163 -81 -240t-148 -77q-62 0 -94.5 23.5t-32.5 60.5q0 45 36 59h33q6 -101 78 -101
q53 0 85 49.5t49 169.5l64 469h-76l9 43h72l7 45q16 103 84.5 172t165.5 69q53 0 80.5 -21t27.5 -54q0 -43 -29 -60h-35q-3 89 -82 89q-51 0 -84.5 -39.5t-48.5 -133.5z" />
    <glyph glyph-name="fl" unicode="fl" horiz-adv-x="647" 
d="M516 777l56 33h20q-8 -94 -65 -392t-57 -342q0 -28 24 -28q36 0 95 82l23 -16q-63 -124 -149 -124q-67 0 -67 73q0 49 52 329t56 309q-28 66 -108 66q-62 0 -99 -42.5t-51 -134.5l-10 -67h143l-9 -43h-141l-63 -413q-25 -163 -81 -240t-148 -77q-62 0 -94.5 23.5
t-32.5 60.5q0 45 36 59h33q6 -101 78 -101q53 0 85 49.5t49 169.5l64 469h-76l9 43h72l7 45q16 103 84.5 172t164.5 69q63 0 100 -32z" />
    <glyph glyph-name=".notdef" horiz-adv-x="960" 
d="M90 0v780h780v-780h-780zM480 345l-279 -279h558zM201 714l279 -279l279 279h-558zM435 390l-275 275v-550zM525 390l275 -275v550z" />
    <glyph glyph-name=".null" horiz-adv-x="0" 
 />
    <glyph glyph-name="nonmarkingreturn" horiz-adv-x="333" 
 />
    <glyph glyph-name="space" unicode=" " horiz-adv-x="200" 
 />
    <glyph glyph-name="exclam" unicode="!" horiz-adv-x="315" 
d="M284 780l-5 -46l-56 -292q-36 -183 -44 -245h-38q3 35 16 245l16 292l5 46h106zM79 53q0 26 18.5 45t44.5 19t45 -19t19 -45t-19 -44.5t-45 -18.5t-44.5 18.5t-18.5 44.5z" />
    <glyph glyph-name="quotedbl" unicode="&#x22;" horiz-adv-x="333" 
d="M156 524h-43l5 256h95zM308 524h-43l5 256h95z" />
    <glyph glyph-name="numbersign" unicode="#" horiz-adv-x="677" 
d="M622 780l-79 -235h113l-5 -42h-122l-73 -220h123l-5 -42h-132l-80 -241h-46l80 241h-183l-80 -241h-46l80 241h-108l5 42h117l74 220h-119l5 42h128l78 235h46l-79 -235h184l78 235h46zM300 503l-73 -220h183l74 220h-184z" />
    <glyph glyph-name="dollar" unicode="$" horiz-adv-x="616" 
d="M289 -10q-5 0 -15 0.5t-14 0.5l-24 -116h-41l24 120q-105 17 -168 72l17 183h25q25 -172 137 -205l68 332l-8 5q-85 48 -122 95t-37 115q0 89 63 143.5t167 54.5q14 0 22 -1l24 116h41l-25 -120q89 -12 153 -58l-20 -159h-23q-20 137 -120 167l-61 -296
q100 -55 147.5 -108t47.5 -132q0 -100 -72 -154.5t-186 -54.5zM469 185q0 55 -32 92.5t-102 78.5l-66 -319q9 -1 27 -1q173 0 173 149zM204 607q0 -50 25.5 -81.5t85.5 -66.5l58 284q-3 0 -9.5 0.5t-10.5 0.5q-70 0 -109.5 -37t-39.5 -100z" />
    <glyph glyph-name="percent" unicode="%" horiz-adv-x="1012" 
d="M853 780l-604 -780h-56l604 780h56zM285 375q-78 0 -124.5 47t-46.5 129q0 100 50 169.5t141 69.5q78 0 124.5 -47t46.5 -129q0 -100 -50 -169.5t-141 -69.5zM404 630q0 119 -99 119q-33 0 -57.5 -20.5t-37 -54t-18.5 -68t-6 -71.5q0 -119 99 -119q33 0 57.5 20.5t37 54
t18.5 68t6 71.5zM761 364q-33 0 -57.5 -20.5t-37 -54t-18.5 -68t-6 -71.5q0 -119 99 -119q33 0 57.5 20.5t37 54t18.5 68t6 71.5q0 119 -99 119zM761 405q78 0 124.5 -47t46.5 -129q0 -100 -50 -169.5t-141 -69.5q-78 0 -124.5 47t-46.5 129q0 100 50 169.5t141 69.5z" />
    <glyph glyph-name="ampersand" unicode="&#x26;" horiz-adv-x="936" 
d="M806 362q-49 0 -109 39q38 -34 38 -105q0 -54 -21.5 -106t-64 -98t-115.5 -74t-165 -28q-153 0 -241 66.5t-88 174.5q0 92 64 155.5t150 89.5q-34 16 -54 48.5t-20 73.5q0 77 65 134.5t166 57.5q81 0 125 -30t44 -81q0 -25 -14.5 -43.5t-36.5 -25.5h-34q5 25 5 41
q0 44 -26.5 71.5t-79.5 27.5q-63 0 -100.5 -39t-37.5 -95q0 -93 106 -110l-9 -27q-107 -19 -168 -76.5t-61 -147.5q0 -94 75 -152.5t193 -58.5q78 0 138.5 24t94.5 62.5t51 80.5t17 84q0 79 -46 125t-122 46q-38 0 -62.5 -19t-24.5 -50q0 -51 93 -51v-22q0 -20 -18.5 -34
t-44.5 -14q-33 0 -52 23.5t-19 66.5q0 55 41 107t120 52q47 0 98 -26t96 -52t79 -26q38 0 62.5 19t24.5 50q0 51 -93 51v22q0 20 18.5 34t44.5 14q33 0 52 -23.5t19 -66.5q0 -54 -39.5 -106.5t-113.5 -52.5z" />
    <glyph glyph-name="quotesingle" unicode="'" horiz-adv-x="181" 
d="M156 524h-43l5 256h95z" />
    <glyph glyph-name="parenleft" unicode="(" horiz-adv-x="395" 
d="M386 830l33 -27q-127 -107 -195.5 -236t-68.5 -311q0 -113 36.5 -194t115.5 -164l-38 -28q-165 162 -165 386q0 346 282 574z" />
    <glyph glyph-name="parenright" unicode=")" horiz-adv-x="395" 
d="M48 -130l-33 27q127 107 195.5 236t68.5 311q0 113 -36.5 194t-115.5 164l38 28q165 -162 165 -386q0 -346 -282 -574z" />
    <glyph glyph-name="asterisk" unicode="*" horiz-adv-x="379" 
d="M230 579l-109 -92l-27 26l101 100l-118 75l20 32l124 -69l37 141l39 -8l-24 -142l140 9l4 -36l-140 -17l52 -135l-38 -13z" />
    <glyph glyph-name="plus" unicode="+" 
d="M277 15l30 245h-242l7 51h242l30 244h56l-30 -244h242l-7 -51h-242l-30 -245h-56z" />
    <glyph glyph-name="comma" unicode="," horiz-adv-x="315" 
d="M161 -4h-37q-45 12 -45 57q0 28 18 46t46 18q36 0 55 -28t19 -65q0 -68 -56.5 -116.5t-146.5 -57.5l7 38q60 9 100 40.5t40 67.5z" />
    <glyph glyph-name="hyphen" unicode="-" horiz-adv-x="348" 
d="M310 309h-248l8 58h248z" />
    <glyph glyph-name="period" unicode="." horiz-adv-x="315" 
d="M79 53q0 26 18.5 45t44.5 19t45 -19t19 -45t-19 -44.5t-45 -18.5t-44.5 18.5t-18.5 44.5z" />
    <glyph glyph-name="slash" unicode="/" horiz-adv-x="378" 
d="M429 830l-408 -951h-55l407 951h56z" />
    <glyph glyph-name="zero" unicode="0" 
d="M308 35q46 0 85 20.5t65.5 53.5t47 77.5t32.5 89.5t18 93q6 51 6 94q0 79 -16.5 140.5t-56 101.5t-97.5 40q-56 0 -101.5 -29.5t-74 -80t-46 -105t-25.5 -115.5q-7 -49 -7 -98q0 -79 16.5 -140.5t56 -101.5t97.5 -40zM308 -10q-88 0 -148.5 49t-86 120.5t-25.5 157.5
q0 63 12.5 127t40 126.5t66.5 111t97.5 78.5t127.5 30q88 0 148.5 -49t86 -120.5t25.5 -157.5q0 -63 -12.5 -127t-40 -126.5t-66.5 -111t-97.5 -78.5t-127.5 -30z" />
    <glyph glyph-name="one" unicode="1" 
d="M447 790h11l-78 -644q-4 -26 -4 -42q0 -20 12.5 -33t39 -19.5t56 -9.5t76.5 -6h4l-4 -36h-481l4 36q57 3 84.5 6t60 11t46.5 23t17 39l67 551h-198l3 22l58 8q97 12 136 27t90 67z" />
    <glyph glyph-name="two" unicode="2" 
d="M146 66h184q80 0 122 21t92 97h26l-61 -184h-483l1 13q271 242 336 310q98 101 120 175q10 35 10 78q0 71 -39.5 108t-108.5 37q-39 0 -70 -8t-58.5 -28t-42.5 -34.5t-44 -46.5l-19 21q47 78 109.5 121.5t154.5 43.5q101 0 157 -54t56 -140q0 -47 -18 -93t-42 -82
t-73.5 -85t-86 -80.5t-108.5 -92t-114 -97.5z" />
    <glyph glyph-name="three" unicode="3" 
d="M240 411q120 40 184.5 88.5t64.5 125.5q0 48 -31.5 75t-86.5 27q-109 0 -210 -129l-21 23q102 169 261 169q85 0 130.5 -42.5t45.5 -111.5q0 -41 -19.5 -77t-52.5 -61t-63.5 -41t-65.5 -28q88 -3 144.5 -58t56.5 -136q0 -59 -25 -107.5t-65 -77.5t-88.5 -44.5
t-98.5 -15.5q-119 0 -179 51.5t-60 115.5q0 65 57 87h43q-9 -36 -9 -69q0 -59 37.5 -101.5t109.5 -42.5q91 0 141.5 50t50.5 143q0 73 -46 120.5t-120 47.5q-31 0 -76 -13z" />
    <glyph glyph-name="four" unicode="4" 
d="M96 246h331l47 389zM411 116l10 84h-399l4 33l524 547h20l-65 -534h132l-6 -46h-132l-8 -68q-3 -24 -3 -33q0 -38 26.5 -50.5t85.5 -15.5l-4 -33h-321l4 33q43 2 67 7.5t42.5 23.5t22.5 52z" />
    <glyph glyph-name="five" unicode="5" 
d="M312 31q83 0 132.5 51.5t49.5 135.5q0 62 -25.5 105.5t-72 67t-101 33.5t-123.5 10l82 346h232q42 0 66 12t44 46h35l-65 -133h-287l-46 -203q50 -1 97 -10t91.5 -29t77 -49t52.5 -72t20 -96q0 -115 -71.5 -185.5t-186.5 -70.5q-119 0 -179 51.5t-60 115.5q0 65 57 87h43
q-9 -36 -9 -69q0 -59 37.5 -101.5t109.5 -42.5z" />
    <glyph glyph-name="six" unicode="6" 
d="M607 754q-150 -38 -267.5 -129t-156.5 -227q74 90 197 90q104 0 164.5 -61.5t60.5 -160.5q0 -122 -77 -199t-189 -77q-123 0 -190.5 85t-67.5 206q0 177 137 317.5t377 191.5zM343 431q-101 0 -170 -75q-6 -37 -6 -77q0 -107 42.5 -174.5t129.5 -67.5t133 58.5t46 152.5
q0 86 -48 134.5t-127 48.5z" />
    <glyph glyph-name="seven" unicode="7" 
d="M570 704h-303q-39 0 -62 -15t-48 -56h-35l65 147h456l-3 -24l-406 -756h-85z" />
    <glyph glyph-name="eight" unicode="8" 
d="M608 607q0 -73 -55.5 -124t-128.5 -71l41 -26q58 -36 86 -77.5t28 -104.5q0 -85 -66 -149.5t-186 -64.5q-114 0 -184.5 61t-70.5 152q0 80 59 135t153 79l-16 10q-96 59 -96 166q0 81 58 139t158 58q104 0 162 -50.5t58 -132.5zM406 342l-92 58q-84 -36 -120 -84.5
t-36 -113.5q0 -73 46 -121.5t121 -48.5q77 0 126 43t49 123q0 85 -94 144zM333 474l66 -43q68 30 99 69.5t31 104.5q0 62 -37.5 102.5t-102.5 40.5q-61 0 -102 -38t-41 -98q0 -47 21.5 -78.5t65.5 -59.5z" />
    <glyph glyph-name="nine" unicode="9" 
d="M82 26q149 37 266.5 128t156.5 227q-74 -89 -196 -89q-104 0 -164.5 61.5t-60.5 160.5q0 122 77 199t189 77q123 0 190.5 -85t67.5 -206q0 -177 -137 -317.5t-377 -191.5zM346 349q102 0 169 75q7 34 7 77q0 107 -42.5 174.5t-129.5 67.5t-133 -58.5t-46 -152.5
q0 -86 48 -134.5t127 -48.5z" />
    <glyph glyph-name="colon" unicode=":" horiz-adv-x="315" 
d="M79 53q0 26 18.5 45t44.5 19t45 -19t19 -45t-19 -44.5t-45 -18.5t-44.5 18.5t-18.5 44.5zM124 375q0 26 18.5 45t44.5 19t45 -19t19 -45t-19 -44.5t-45 -18.5t-44.5 18.5t-18.5 44.5z" />
    <glyph glyph-name="semicolon" unicode=";" horiz-adv-x="315" 
d="M161 -4h-37q-45 12 -45 57q0 28 18 46t46 18q36 0 55 -28t19 -65q0 -68 -56.5 -116.5t-146.5 -57.5l7 38q60 9 100 40.5t40 67.5zM124 375q0 26 18.5 45t44.5 19t45 -19t19 -45t-19 -44.5t-45 -18.5t-44.5 18.5t-18.5 44.5z" />
    <glyph glyph-name="less" unicode="&#x3c;" 
d="M276 351l-163 -68l146 -65l330 -153l-6 -55l-510 244l7 63l570 244l-6 -53z" />
    <glyph glyph-name="equal" unicode="=" 
d="M624 318h-540l6 50h540zM606 172h-540l6 50h540z" />
    <glyph glyph-name="greater" unicode="&#x3e;" 
d="M436 220l163 68l-146 65l-330 153l6 55l510 -244l-7 -63l-570 -244l6 53z" />
    <glyph glyph-name="question" unicode="?" horiz-adv-x="513" 
d="M317 463q67 39 95.5 73t28.5 91q0 53 -33 86.5t-88 33.5q-61 0 -92 -31t-31 -82q0 -21 5 -46h-69q-20 22 -20 56q0 66 60.5 106t146.5 40q95 0 149 -47t54 -121q0 -76 -37.5 -120t-121.5 -92q-70 -40 -97.5 -77.5t-27.5 -97.5v-34h-26q-25 45 -25 95q0 53 32.5 92
t96.5 75zM150 53q0 26 18.5 45t44.5 19t45 -19t19 -45t-19 -44.5t-45 -18.5t-44.5 18.5t-18.5 44.5z" />
    <glyph glyph-name="at" unicode="@" horiz-adv-x="1108" 
d="M460 98q29 0 58.5 21.5t71.5 76.5q48 62 80.5 143t34.5 131q-19 47 -73 47q-94 0 -158 -94t-65 -219q0 -106 51 -106zM748 92q102 0 170.5 88t68.5 223q0 174 -98 276.5t-283 102.5q-132 0 -238 -68.5t-164.5 -185t-58.5 -256.5q0 -194 117 -316.5t302 -122.5
q195 0 343 95l16 -32q-60 -49 -158 -79.5t-201 -30.5q-223 0 -358.5 134.5t-135.5 351.5q0 149 70.5 276.5t194 202.5t271.5 75q207 0 329.5 -115.5t122.5 -307.5q0 -157 -90.5 -253.5t-237.5 -96.5q-82 0 -82 57q0 13 7 47t17.5 80t14.5 63h-4q-4 -8 -13.5 -32t-20 -43
t-27.5 -42q-55 -74 -95.5 -102t-85.5 -28q-55 0 -81.5 40.5t-26.5 110.5q0 140 89 248t210 108q39 0 64 -16t33 -37l66 60h25l-34 -102q-22 -88 -41.5 -198t-19.5 -147q0 -28 23 -28z" />
    <glyph glyph-name="A" unicode="A" horiz-adv-x="786" 
d="M589 136l-34 124h-335l-66 -125q-19 -35 -19 -58q0 -22 19.5 -32t80.5 -12l-4 -33h-242l4 33q56 5 76 42l350 656l-17 62h88l200 -718q10 -39 63 -42l-4 -33h-270l4 33q63 1 90 10t27 30q0 22 -11 63zM441 673l-197 -368h298z" />
    <glyph glyph-name="B" unicode="B" horiz-adv-x="765" 
d="M411 378h-131l-26 -218q-4 -36 -4 -59q0 -58 95 -58h44q104 0 164.5 43.5t60.5 134.5q0 157 -203 157zM445 736h-121l-38 -314h106q108 0 165 39.5t57 131.5q0 69 -45 106t-124 37zM126 780h333q117 0 182 -46.5t65 -127.5q0 -97 -63 -146.5t-162 -58.5q110 -8 168 -57
t58 -124q0 -107 -88.5 -163.5t-237.5 -56.5h-351l4 33q31 1 51.5 4.5t39.5 12t29 25t13 41.5l65 533q3 21 3 36q0 25 -15.5 39t-36.5 17.5t-61 5.5z" />
    <glyph glyph-name="C" unicode="C" horiz-adv-x="777" 
d="M409 35q95 0 161.5 50t116.5 146h28l-43 -180q-47 -30 -119.5 -45.5t-143.5 -15.5q-151 0 -244.5 90.5t-93.5 256.5q0 83 25 161.5t72.5 144.5t127.5 106.5t180 40.5q159 0 266 -79l-13 -158h-22q-16 92 -81 141.5t-150 49.5q-103 0 -176 -56.5t-105.5 -143.5t-32.5 -194
q0 -150 69.5 -232.5t177.5 -82.5z" />
    <glyph glyph-name="D" unicode="D" horiz-adv-x="858" 
d="M397 0h-367l4 33q31 1 51.5 4.5t39.5 12t29 25t13 41.5l65 533q3 21 3 36q0 25 -15.5 39t-36.5 17.5t-61 5.5l4 33h345q180 0 271 -92.5t91 -232.5q0 -210 -122 -332.5t-314 -122.5zM350 44h40q156 0 253.5 104t97.5 294q0 133 -72.5 213.5t-218.5 80.5h-126l-71 -579
q-4 -36 -4 -59q0 -30 23.5 -42t77.5 -12z" />
    <glyph glyph-name="E" unicode="E" horiz-adv-x="777" 
d="M665 0h-635l4 33q31 1 51.5 4.5t39.5 12t29 25t13 41.5l65 533q3 21 3 36q0 25 -15.5 39t-36.5 17.5t-61 5.5l4 33h629l-19 -177h-20q-23 77 -53 105t-96 28h-243l-39 -317h223q36 0 57 25.5t37 79.5h27l-31 -253h-27q-3 53 -18.5 78.5t-51.5 25.5h-221l-27 -218
q-4 -36 -4 -59q0 -30 25 -42t87 -12h129q33 0 55.5 4.5t39 11.5t36 28t33.5 40t43 62h26z" />
    <glyph glyph-name="F" unicode="F" horiz-adv-x="698" 
d="M126 780h607l-19 -177h-20q-23 77 -53 105t-96 28h-221l-42 -341h200q36 0 57 25.5t37 79.5h28l-31 -253h-28q-3 54 -18 79t-51 25h-199l-24 -191q-4 -36 -4 -59q0 -31 27 -47t100 -20l-4 -34h-342l4 33q31 1 51.5 4.5t39.5 12t29 25t13 41.5l65 533q3 21 3 36
q0 25 -15.5 39t-36.5 17.5t-61 5.5z" />
    <glyph glyph-name="G" unicode="G" horiz-adv-x="812" 
d="M599 106l14 117q2 21 2 36q0 25 -15.5 39t-36.5 17.5t-61 5.5l4 33h326l-4 -33q-31 -1 -51.5 -4.5t-39.5 -12t-29 -25t-13 -41.5l-21 -171q-111 -77 -265 -77q-151 0 -244.5 90.5t-93.5 256.5q0 83 25 161.5t72.5 144.5t127.5 106.5t180 40.5q159 0 266 -79l-13 -158h-22
q-16 92 -81 141.5t-150 49.5q-103 0 -176 -56.5t-105.5 -143.5t-32.5 -194q0 -150 69.5 -232.5t177.5 -82.5q58 0 109 18.5t81 52.5z" />
    <glyph glyph-name="H" unicode="H" horiz-adv-x="959" 
d="M656 780h326l-4 -33q-31 -1 -51.5 -4.5t-39.5 -12t-29 -25t-13 -41.5l-65 -533q-3 -21 -3 -36q0 -25 15.5 -39t36.5 -17.5t61 -5.5l-4 -33h-326l4 33q31 1 51.5 4.5t39.5 12t29 25t13 41.5l31 258h-449l-29 -243q-3 -21 -3 -36q0 -25 15.5 -39t36.5 -17.5t61 -5.5l-4 -33
h-326l4 33q31 1 51.5 4.5t39.5 12t29 25t13 41.5l65 533q3 21 3 36q0 25 -15.5 39t-36.5 17.5t-61 5.5l4 33h326l-4 -33q-31 -1 -51.5 -4.5t-39.5 -12t-29 -25t-13 -41.5l-30 -245h449l28 230q3 21 3 36q0 25 -15.5 39t-36.5 17.5t-61 5.5z" />
    <glyph glyph-name="I" unicode="I" horiz-adv-x="429" 
d="M126 780h326l-4 -33q-31 -1 -51.5 -4.5t-39.5 -12t-29 -25t-13 -41.5l-65 -533q-3 -21 -3 -36q0 -25 15.5 -39t36.5 -17.5t61 -5.5l-4 -33h-326l4 33q31 1 51.5 4.5t39.5 12t29 25t13 41.5l65 533q3 21 3 36q0 25 -15.5 39t-36.5 17.5t-61 5.5z" />
    <glyph glyph-name="J" unicode="J" horiz-adv-x="544" 
d="M334 199l54 450q2 21 2 36q0 25 -15.5 39t-36.5 17.5t-61 5.5l4 33h326l-4 -33q-31 -1 -51.5 -4.5t-39.5 -12t-29 -25t-13 -41.5l-54 -448q-14 -114 -67.5 -170t-154.5 -56q-93 0 -140.5 36t-47.5 92q0 53 44 74h65q-14 -34 -14 -63q0 -44 23 -72t70 -28q63 0 95.5 37
t44.5 133z" />
    <glyph glyph-name="K" unicode="K" horiz-adv-x="824" 
d="M385 416l217 -261q56 -66 95.5 -94t95.5 -28l-4 -33h-143q-61 46 -122 120l-226 276l301 279q30 28 30 41q0 16 -15 21.5t-68 9.5l4 33h271l-4 -33q-46 -1 -74.5 -14.5t-68.5 -50.5zM126 780h326l-4 -33q-31 -1 -51.5 -4.5t-39.5 -12t-29 -25t-13 -41.5l-65 -533
q-3 -21 -3 -36q0 -25 15.5 -39t36.5 -17.5t61 -5.5l-4 -33h-326l4 33q31 1 51.5 4.5t39.5 12t29 25t13 41.5l65 533q3 21 3 36q0 25 -15.5 39t-36.5 17.5t-61 5.5z" />
    <glyph glyph-name="L" unicode="L" horiz-adv-x="722" 
d="M315 664l-62 -507q-4 -36 -4 -59q0 -30 23 -42t70 -12h127q65 0 105.5 34.5t103.5 126.5h24l-62 -205h-610l4 33q31 1 51.5 4.5t39.5 12t29 25t13 41.5l65 533q3 21 3 36q0 25 -15.5 39t-36.5 17.5t-61 5.5l4 33h326l-4 -33q-31 -1 -51.5 -4.5t-39.5 -12t-29 -25
t-13 -41.5z" />
    <glyph glyph-name="M" unicode="M" horiz-adv-x="1065" 
d="M526 139l301 582q20 41 24 59h171l-4 -34q-56 -2 -78 -19t-27 -62l22 -565q1 -36 20 -50.5t67 -16.5l-4 -33h-287l4 33q63 4 91.5 22t26.5 76l-19 497l-331 -628h-23l-157 628l-150 -500q-6 -25 -6 -41q0 -29 22 -40t79 -14l-4 -33h-257l4 33q49 2 70.5 15.5t32.5 51.5
l169 565q0 46 -15.5 62.5t-69.5 18.5l4 34h170q0 -20 11 -66z" />
    <glyph glyph-name="N" unicode="N" horiz-adv-x="924" 
d="M708 146l60 503q3 22 3 36q0 25 -15.5 39t-36.5 17.5t-61 5.5l4 33h297l-4 -33q-64 -3 -95.5 -19t-37.5 -64l-81 -664h-32l-426 636l-62 -505q-3 -22 -3 -36q0 -25 15.5 -39t36.5 -17.5t61 -5.5l-4 -33h-297l4 33q31 1 51.5 4.5t39.5 12t29 25t13 41.5l69 564
q-32 43 -51.5 55t-63.5 12l4 33h162z" />
    <glyph glyph-name="O" unicode="O" horiz-adv-x="809" 
d="M395 36q71 0 129 34t94 91.5t55.5 128.5t19.5 148q0 137 -63 221.5t-170 84.5q-71 0 -129 -34t-94 -91.5t-55.5 -128.5t-19.5 -148q0 -137 63 -221.5t170 -84.5zM385 -10q-142 0 -228 91t-86 249q0 89 28 172t78 147t126 102.5t167 38.5q142 0 228 -91t86 -249
q0 -89 -28 -172t-78 -147t-126 -102.5t-167 -38.5z" />
    <glyph glyph-name="P" unicode="P" horiz-adv-x="724" 
d="M275 336l-22 -176q-4 -27 -4 -59q0 -31 27 -47t100 -20l-4 -34h-342l4 33q31 1 51.5 4.5t39.5 12t29 25t13 41.5l65 533q3 21 3 36q0 25 -15.5 39t-36.5 17.5t-61 5.5l4 33h328q280 0 280 -202q0 -120 -79.5 -181t-222.5 -61h-157zM324 736l-44 -356h154q209 0 209 190
q0 80 -48.5 123t-142.5 43h-128z" />
    <glyph glyph-name="Q" unicode="Q" horiz-adv-x="809" 
d="M784 450q0 -113 -41.5 -212t-124 -166t-189.5 -79l156 -113q40 -29 73 -37.5t76 -8.5h21v-19q-48 -32 -109 -32q-91 0 -162 71l-139 138q-125 13 -199.5 102t-74.5 236q0 89 28 172t78 147t126 102.5t167 38.5q142 0 228 -91t86 -249zM395 36q71 0 129 34t94 91.5
t55.5 128.5t19.5 148q0 137 -63 221.5t-170 84.5q-71 0 -129 -34t-94 -91.5t-55.5 -128.5t-19.5 -148q0 -137 63 -221.5t170 -84.5z" />
    <glyph glyph-name="R" unicode="R" horiz-adv-x="817" 
d="M432 736h-108l-41 -334h124q210 0 210 179q0 155 -185 155zM278 359l-28 -228q-3 -21 -3 -36q0 -25 15.5 -39t36.5 -17.5t61 -5.5l-4 -33h-326l4 33q31 1 51.5 4.5t39.5 12t29 25t13 41.5l65 533q3 21 3 36q0 25 -15.5 39t-36.5 17.5t-61 5.5l4 33h309q134 0 203.5 -48.5
t69.5 -139.5q0 -108 -73 -166t-182 -65l134 -187q62 -86 102 -113.5t97 -27.5l-4 -33h-152q-68 64 -122 142l-150 217h-80z" />
    <glyph glyph-name="S" unicode="S" horiz-adv-x="616" 
d="M289 -10q-72 0 -135 21t-103 56l17 183h25q17 -114 68.5 -164t134.5 -50q173 0 173 149q0 34 -11 60t-37.5 50t-53.5 41.5t-77 45.5q-85 48 -122 95t-37 115q0 89 63 143.5t167 54.5q129 0 215 -63l-20 -159h-23q-12 86 -58 131t-122 45q-70 0 -109.5 -37t-39.5 -100
q0 -55 31.5 -88.5t107.5 -74.5q105 -57 154.5 -111t49.5 -134q0 -100 -72 -154.5t-186 -54.5z" />
    <glyph glyph-name="T" unicode="T" horiz-adv-x="744" 
d="M400 738h-73q-41 0 -69 -6t-46.5 -13t-39.5 -31.5t-32.5 -41.5t-39.5 -63h-25l41 197h656l-7 -197h-21q-11 32 -15 42l-13 32.5t-14 28t-15 19t-19 16.5t-23 9t-30.5 7t-38.5 1h-95l-74 -607q-3 -21 -3 -36q0 -25 15.5 -39t36.5 -17.5t61 -5.5l-4 -33h-326l4 33
q64 3 95.5 19t37.5 64z" />
    <glyph glyph-name="U" unicode="U" horiz-adv-x="856" 
d="M148 318l40 331q3 21 3 36q0 25 -15.5 39t-36.5 17.5t-61 5.5l4 33h326l-4 -33q-64 -3 -95.5 -19t-37.5 -64l-44 -350q-6 -50 -6 -82q0 -88 57 -136.5t150 -48.5q228 0 258 249l42 353q3 22 3 36q0 25 -15.5 39t-36.5 17.5t-61 5.5l4 33h297l-4 -33q-31 -1 -51.5 -4.5
t-39.5 -12t-29 -25t-13 -41.5l-47 -388q-16 -134 -99.5 -210t-211.5 -76q-132 0 -207.5 60t-75.5 181q0 24 7 87z" />
    <glyph glyph-name="V" unicode="V" horiz-adv-x="763" 
d="M380 121l267 513q23 44 23 65q0 26 -22 36t-85 12l4 33h255l-4 -33q-30 -3 -47 -12t-28 -30l-380 -717h-26l-187 717q-11 41 -65 42l4 33h273l-4 -33q-63 -2 -91 -12.5t-28 -33.5q0 -22 6 -43z" />
    <glyph glyph-name="W" unicode="W" horiz-adv-x="1120" 
d="M634 658l132 -531l243 507q23 49 23 65q0 26 -22 36t-85 12l4 33h250l-4 -33q-57 -6 -75 -42l-353 -717h-19l-135 524l-258 -524h-19l-166 717q-10 41 -65 42l4 33h270l-4 -33q-63 -2 -91 -12.5t-28 -33.5q0 -15 6 -43l120 -522l215 438l-33 131q-11 41 -65 42l4 33h268
l-4 -33q-64 -2 -91.5 -12.5t-27.5 -35.5q0 -20 6 -41z" />
    <glyph glyph-name="X" unicode="X" horiz-adv-x="804" 
d="M561 128l-148 233l-212 -231q-38 -42 -38 -65q0 -17 18 -24.5t77 -7.5l-4 -33h-265l4 33q37 0 60.5 13t55.5 49l278 306l-182 284q-25 39 -45.5 50.5t-58.5 11.5l4 33h300l-4 -33q-64 0 -86 -8.5t-22 -30.5q0 -21 22 -56l128 -203l182 200q37 42 37 64q0 19 -18 26.5
t-82 7.5l5 33h268l-6 -33q-33 0 -53 -11.5t-56 -50.5l-251 -275l202 -315q24 -37 44 -49.5t56 -12.5l-4 -33h-297l4 33q66 0 88.5 8.5t22.5 27.5q0 20 -24 59z" />
    <glyph glyph-name="Y" unicode="Y" horiz-adv-x="760" 
d="M332 116l25 209l-207 381q-12 21 -25.5 30.5t-39.5 10.5l4 33h280l-4 -33q-64 0 -88.5 -10t-24.5 -33q0 -21 13 -45l152 -287l223 282q23 29 23 50q0 23 -20.5 32.5t-79.5 10.5l4 33h252l-4 -33q-27 -3 -42 -11t-33 -30l-302 -378l-23 -197q-2 -21 -2 -36q0 -37 26 -48
t86 -14l-4 -33h-326l4 33q31 1 51.5 4.5t39.5 12t29 25t13 41.5z" />
    <glyph glyph-name="Z" unicode="Z" horiz-adv-x="721" 
d="M142 44h284q40 0 61 3t46.5 20t46 40t64.5 77h22l-57 -184h-585l2 20l578 716h-269q-69 0 -106.5 -27t-76.5 -101h-22l25 172h569l-2 -21z" />
    <glyph glyph-name="bracketleft" unicode="[" horiz-adv-x="333" 
d="M224 788l-106 -876h120l-6 -42h-169l117 960h169l-5 -42h-120z" />
    <glyph glyph-name="backslash" unicode="\" horiz-adv-x="378" 
d="M290 -121l-173 951h53l173 -951h-53z" />
    <glyph glyph-name="bracketright" unicode="]" horiz-adv-x="333" 
d="M142 -88l106 876h-120l5 42h169l-117 -960h-169l6 42h120z" />
    <glyph glyph-name="asciicircum" unicode="^" horiz-adv-x="476" 
d="M296 735l-194 -335h-64l232 390h64l138 -390h-61z" />
    <glyph glyph-name="underscore" unicode="_" horiz-adv-x="300" 
d="M242 -200h-260l8 53h260z" />
    <glyph glyph-name="grave" unicode="`" horiz-adv-x="600" 
d="M209 800h98l84 -208h-33z" />
    <glyph glyph-name="a" unicode="a" horiz-adv-x="614" 
d="M170 38q52 0 125 101q50 68 86.5 150.5t49.5 153.5q-7 24 -29.5 39.5t-51.5 15.5q-62 0 -117 -54.5t-85 -134.5t-31 -161q0 -110 53 -110zM365 58q0 66 40 202h-4q-29 -75 -78 -143q-50 -69 -91 -98t-83 -29q-111 0 -111 150q0 96 43.5 187.5t114.5 148.5t146 57
q39 0 66 -15.5t38 -41.5l65 66h27l-35 -111q-23 -92 -41.5 -203t-18.5 -152q0 -28 24 -28q34 0 95 82l23 -16q-64 -124 -150 -124q-33 0 -51.5 17.5t-18.5 50.5z" />
    <glyph glyph-name="b" unicode="b" horiz-adv-x="593" 
d="M420 481q-47 0 -116.5 -68.5t-120 -156.5t-50.5 -141q0 -41 29 -63t72 -22q75 0 131.5 57t82 137t25.5 164q0 47 -11.5 70t-41.5 23zM168 716l-77 29l1 16l146 49h21q-70 -415 -122 -575h4q34 73 79 137t107.5 112.5t121.5 48.5q54 0 80 -38t26 -96q0 -96 -43.5 -190.5
t-120 -156.5t-162.5 -62q-67 0 -113.5 30.5t-60.5 75.5q8 43 32 163t37 188t27 149t17 120z" />
    <glyph glyph-name="c" unicode="c" horiz-adv-x="451" 
d="M287 487q-77 0 -123.5 -87t-46.5 -197q0 -83 25 -122.5t82 -39.5q87 0 157 111l26 -18q-31 -61 -84 -102.5t-120 -41.5q-83 0 -124 52.5t-41 132.5q0 146 80 252t200 106q58 0 88.5 -26.5t30.5 -61.5q0 -37 -32 -53h-33q-3 43 -24.5 69t-60.5 26z" />
    <glyph glyph-name="d" unicode="d" horiz-adv-x="629" 
d="M179 38q52 0 127 99q53 70 91.5 152.5t51.5 151.5q-25 57 -92 57q-63 0 -119 -54.5t-87 -135t-32 -160.5q0 -110 60 -110zM499 716l-77 29l1 16l148 49h20q-134 -662 -134 -734q0 -28 24 -28q36 0 95 82l23 -16q-63 -124 -149 -124q-33 0 -51.5 17.5t-18.5 50.5
q0 56 40 201h-4q-25 -64 -81 -142q-91 -127 -178 -127q-59 0 -89 40t-30 110q0 96 44.5 187.5t117.5 148.5t150 57q74 0 108 -48q36 183 41 231z" />
    <glyph glyph-name="e" unicode="e" horiz-adv-x="471" 
d="M399 153l26 -18q-34 -67 -90.5 -106t-123.5 -39q-86 0 -129.5 50t-43.5 142q0 87 33 166.5t98.5 132t147.5 52.5q54 0 86.5 -25t32.5 -72q0 -33 -16 -62t-41 -50.5t-69.5 -44t-87.5 -38.5t-109 -39v-10q0 -79 30 -115.5t80 -36.5q58 0 98.5 29t77.5 84zM293 490
q-69 0 -117 -74.5t-60 -175.5q130 48 187.5 89t57.5 96q0 30 -17.5 47.5t-50.5 17.5z" />
    <glyph glyph-name="f" unicode="f" horiz-adv-x="352" 
d="M229 480l-63 -413q-25 -163 -81 -240t-148 -77q-62 0 -94.5 23.5t-32.5 60.5q0 45 36 59h33q6 -101 78 -101q53 0 85 49.5t49 169.5l64 469h-76l9 43h72l7 46q15 106 76 173.5t150 67.5q49 0 73 -20t24 -53q0 -39 -30 -58h-31q-6 84 -80 84q-39 0 -63 -33t-35 -106
l-15 -101h143l-9 -43h-141z" />
    <glyph glyph-name="g" unicode="g" horiz-adv-x="534" 
d="M228 149q-24 0 -47 5q-43 -22 -43 -52q0 -21 34 -32l146 -46q57 -18 89 -46t32 -81q0 -67 -72.5 -107t-175.5 -40q-108 0 -174.5 40t-66.5 103q0 97 158 131q-23 20 -23 53q0 48 68 88q-79 35 -79 131q0 105 63.5 171t155.5 66q68 0 108 -40q42 55 92 55q26 0 41 -14
t15 -38q0 -18 -12 -33.5t-27 -20.5h-26q0 46 -29 46q-17 0 -39 -11q30 -38 30 -91q0 -105 -63.5 -171t-154.5 -66zM288 -38l-154 49q-58 -20 -83.5 -46t-25.5 -67q0 -52 47.5 -81t121.5 -29q89 0 135.5 26.5t46.5 72.5q0 31 -20.5 45.5t-67.5 29.5zM240 187q53 0 94 52
t41 139q0 117 -93 117q-53 0 -94 -52t-41 -139q0 -117 93 -117z" />
    <glyph glyph-name="h" unicode="h" horiz-adv-x="631" 
d="M125 0h-70q105 547 124 716l-77 29l1 16l146 49h20q-83 -502 -130 -654h4q37 90 82 169.5t110.5 143.5t127.5 64q64 0 64 -73q0 -56 -37.5 -203.5t-37.5 -180.5q0 -28 25 -28q35 0 94 82l24 -16q-64 -124 -150 -124q-33 0 -51.5 17.5t-18.5 50.5q0 32 39.5 188t39.5 200
q0 34 -23 34q-40 0 -99.5 -69.5t-117.5 -182.5t-89 -228z" />
    <glyph glyph-name="i" unicode="i" horiz-adv-x="366" 
d="M253 469q0 -44 -33 -197t-33 -196q0 -28 25 -28q35 0 94 82l24 -16q-64 -124 -150 -124q-69 0 -69 68q0 44 33 197t33 196q0 21 -19 21q-25 0 -54.5 -26.5t-53.5 -64.5l-28 15q35 71 79 104t85 33q33 0 50 -17.5t17 -46.5zM231 635q-24 0 -40 15.5t-16 38.5q0 25 17 44
t43 19q24 0 40 -15.5t16 -38.5q0 -25 -17 -44t-43 -19z" />
    <glyph glyph-name="j" unicode="j" horiz-adv-x="311" 
d="M157 472q-25 0 -54 -26.5t-53 -64.5l-28 15q35 71 79 104t85 33q33 0 50 -17.5t17 -46.5q0 -31 -5 -66l-39 -251q-34 -223 -82 -312.5t-132 -89.5q-51 0 -78 22t-27 57q0 39 37 54h33q0 -48 10.5 -71.5t36.5 -23.5q38 0 62 53t46 194l55 351q6 37 6 65q0 21 -19 21z
M234 635q-24 0 -40 15.5t-16 38.5q0 25 17 44t43 19q24 0 40 -15.5t16 -38.5q0 -25 -17 -44t-43 -19z" />
    <glyph glyph-name="k" unicode="k" horiz-adv-x="589" 
d="M179 716l-77 29l1 16l146 49h20q-37 -246 -75 -431q100 154 219 154q49 0 75.5 -24.5t26.5 -67.5q0 -113 -179 -195l60 -141q15 -36 25 -47.5t28 -11.5q47 0 100 82l25 -16q-69 -122 -155 -122q-31 0 -49.5 20t-35.5 63l-61 154q-65 -18 -111 -28l-38 -199h-69
q109 582 124 716zM185 330l-18 -95q264 57 264 188q0 57 -51 57q-40 0 -84.5 -34.5t-110.5 -115.5z" />
    <glyph glyph-name="l" unicode="l" horiz-adv-x="316" 
d="M65 63q0 47 54 329.5t58 323.5l-77 29l1 16l140 49h20q-8 -94 -65 -392t-57 -342q0 -28 24 -28q36 0 95 82l23 -16q-63 -124 -149 -124q-67 0 -67 73z" />
    <glyph glyph-name="m" unicode="m" horiz-adv-x="973" 
d="M550 356l-53 -200h4q154 377 306 377q63 0 63 -73q0 -56 -37.5 -203.5t-37.5 -180.5q0 -28 24 -28q36 0 95 82l23 -16q-64 -124 -149 -124q-70 0 -70 68q0 32 39.5 188t39.5 200q0 34 -22 34q-60 0 -149.5 -149t-143.5 -331h-70q79 385 79 446q0 34 -20 34
q-61 0 -150.5 -148.5t-144.5 -331.5h-70l74 414q4 24 4 37q0 21 -19 21q-25 0 -54.5 -26.5t-53.5 -64.5l-28 15q35 71 79 104t85 33q33 0 50.5 -17.5t17.5 -46.5q0 -19 -14 -78l-56 -235h4q155 377 306 377q65 0 65 -73q0 -45 -16 -104z" />
    <glyph glyph-name="n" unicode="n" horiz-adv-x="682" 
d="M427 58q0 32 39 188t39 200q0 34 -23 34q-40 0 -99.5 -69.5t-117.5 -182.5t-89 -228h-70l74 414q4 24 4 37q0 21 -19 21q-25 0 -54.5 -26.5t-53.5 -64.5l-28 15q35 71 79 104t85 33q33 0 50.5 -17.5t17.5 -46.5q0 -19 -14 -78l-57 -235h4q37 90 82 169.5t110.5 143.5
t127.5 64q64 0 64 -73q0 -56 -37.5 -203.5t-37.5 -180.5q0 -28 25 -28q35 0 94 82l24 -16q-64 -124 -150 -124q-69 0 -69 68z" />
    <glyph glyph-name="o" unicode="o" horiz-adv-x="512" 
d="M221 33q78 0 127 86.5t49 205.5q0 78 -26.5 121.5t-79.5 43.5q-78 0 -127 -86.5t-49 -205.5q0 -78 26.5 -121.5t79.5 -43.5zM203 -10q-83 0 -124 52.5t-41 138.5q0 85 31 164.5t94.5 133.5t144.5 54q84 0 125 -52.5t41 -138.5q0 -85 -31.5 -164.5t-95 -133.5t-144.5 -54z
" />
    <glyph glyph-name="p" unicode="p" horiz-adv-x="648" 
d="M289 28q75 0 131.5 58t82 138t25.5 164q0 47 -11.5 69.5t-41.5 22.5q-50 0 -115.5 -69t-115.5 -164t-64 -173q15 -22 45.5 -34t63.5 -12zM291 -10q-76 0 -118 37q-29 -165 -29 -186q0 -13 4.5 -21.5t10 -13.5t18 -9t20.5 -5.5t26 -3.5l-5 -28h-240l5 28q41 3 61.5 14
t26.5 43l102 569q4 24 4 37q0 21 -19 21q-25 0 -54.5 -26.5t-53.5 -64.5l-27 15q35 71 79 104t85 33q32 0 50 -17.5t18 -46.5q0 -24 -14 -78l-43 -166h5q25 57 54 107t67 97.5t85 75.5t96 28q54 0 79.5 -37.5t25.5 -96.5q0 -102 -41 -196t-115.5 -153.5t-162.5 -59.5z" />
    <glyph glyph-name="q" unicode="q" horiz-adv-x="574" 
d="M157 -10q-59 0 -89 40t-30 110q0 96 44.5 187.5t117.5 148.5t150 57q33 0 63 -14.5t43 -42.5l72 66h26l-35 -111q-26 -115 -67.5 -334t-41.5 -256q0 -13 4.5 -21.5t10 -13.5t18 -9t20.5 -5.5t26 -3.5l-5 -28h-240l5 28q41 3 61 14t26 43q46 282 84 414h-4
q-25 -64 -81 -142q-91 -127 -178 -127zM179 38q52 0 127 99q53 70 91.5 152.5t51.5 151.5q-25 57 -92 57q-63 0 -119 -54.5t-87 -135t-32 -160.5q0 -110 60 -110z" />
    <glyph glyph-name="r" unicode="r" horiz-adv-x="499" 
d="M191 156h4q91 250 168 332q42 45 85 45q59 0 59 -55q0 -20 -12.5 -38t-29.5 -26h-30q0 42 -28 42q-41 0 -106.5 -128t-124.5 -328h-70l74 414q4 24 4 37q0 21 -19 21q-25 0 -54.5 -26.5t-53.5 -64.5l-28 15q36 71 79.5 104t84.5 33q65 0 65 -64q0 -19 -14 -78z" />
    <glyph glyph-name="s" unicode="s" horiz-adv-x="410" 
d="M190 28q37 0 57 20t20 52t-18 64t-44 59t-52 54.5t-44 60.5t-18 67q0 57 43 92.5t116 35.5q62 0 96 -25t34 -64q0 -37 -31 -47h-26q-5 40 -32.5 67t-69.5 27q-30 0 -48 -17.5t-18 -44.5q0 -33 27.5 -72.5t60.5 -71.5t60.5 -75.5t27.5 -83.5q0 -62 -46 -99t-122 -37
q-68 0 -108 27t-40 65q0 44 37 57h22q18 -111 116 -111z" />
    <glyph glyph-name="t" unicode="t" horiz-adv-x="394" 
d="M218 480l-61 -348q-7 -42 -7 -58q0 -32 27 -32q31 0 70.5 31.5t70.5 80.5l27 -18q-38 -64 -88 -105t-103 -41q-72 0 -72 73q0 25 6 63l60 354h-73l6 27q40 18 72 47t76 81h17l-20 -112h138l-8 -43h-138z" />
    <glyph glyph-name="u" unicode="u" horiz-adv-x="653" 
d="M406 58q0 40 71 309h-4q-24 -59 -42.5 -101t-49.5 -98.5t-60 -91.5t-67.5 -60.5t-78.5 -25.5q-34 0 -53.5 22t-19.5 60q0 56 37 201t37 178q0 21 -19 21q-25 0 -54.5 -26.5t-53.5 -64.5l-28 15q35 71 79 104t85 33q33 0 50.5 -17.5t17.5 -46.5q0 -32 -39 -185.5
t-39 -197.5q0 -43 34 -43q60 0 141 144.5t140 335.5h72q-78 -373 -78 -447q0 -28 25 -28q33 0 94 82l23 -16q-64 -124 -150 -124q-33 0 -51.5 17.5t-18.5 50.5z" />
    <glyph glyph-name="v" unicode="v" horiz-adv-x="548" 
d="M449 402q0 35 -23.5 53t-62.5 18v23q20 37 74 37q39 0 60 -26t21 -67q0 -146 -272 -450h-34q-32 277 -67 414q-9 34 -17 49t-24 15q-25 0 -43 -18t-44 -59l-27 15q62 127 138 127q36 0 53 -21.5t28 -62.5q19 -67 36 -181.5t22 -197.5q182 210 182 332z" />
    <glyph glyph-name="w" unicode="w" horiz-adv-x="819" 
d="M719 402q0 35 -23 53t-62 18v23q20 37 74 37q39 0 60 -26t21 -67q0 -84 -75.5 -210t-178.5 -240h-39q-25 269 -49 360h-4q-45 -150 -199 -360h-41q-36 328 -58 414q-7 25 -11 35.5t-11.5 19.5t-18.5 9q-25 0 -43 -18t-44 -59l-27 15q62 127 138 127q36 0 53 -21.5
t28 -62.5q36 -127 50 -380q61 83 111 186.5t50 167.5q0 23 -12.5 50.5t-26.5 43.5q20 16 45 16t41 -17t28 -66q18 -73 37 -190.5t23 -193.5q67 78 115.5 172.5t48.5 163.5z" />
    <glyph glyph-name="x" unicode="x" horiz-adv-x="574" 
d="M291 127l-14 84q-54 -115 -100.5 -168t-101.5 -53q-32 0 -55 16t-23 47q0 40 38 59h18q9 -59 52 -59q67 0 161 208l-16 91q-13 73 -26 97t-36 24q-38 0 -93 -85l-25 17q67 128 151 128q41 0 60 -32.5t32 -108.5l9 -54q43 92 86 143.5t99 51.5q33 0 53 -16t20 -46
q0 -36 -36 -60h-24q-7 59 -46 59q-33 0 -66 -47t-76 -140l27 -133q14 -67 24 -86.5t31 -19.5q40 0 99 81l20 -20q-70 -115 -143 -115q-43 0 -65 31t-34 106z" />
    <glyph glyph-name="y" unicode="y" horiz-adv-x="555" 
d="M213 450q28 -95 55 -234.5t34 -246.5q74 119 110.5 205.5t36.5 164.5q0 135 -105 135v22q23 37 73 37q46 0 69.5 -33.5t23.5 -87.5q0 -179 -139 -401q-49 -79 -96.5 -132.5t-91.5 -80.5t-81.5 -37.5t-79.5 -10.5q-57 0 -94.5 23.5t-37.5 64.5q0 19 10.5 34.5t27.5 20.5
h27q12 -93 100 -93q106 0 192 102q-12 125 -43 278.5t-55 224.5q-9 32 -19 47.5t-25 15.5q-25 0 -43 -18t-44 -59l-28 15q64 127 139 127q37 0 55 -22t29 -61z" />
    <glyph glyph-name="z" unicode="z" horiz-adv-x="546" 
d="M109 168l328 241q-41 1 -127 27.5t-128 26.5q-51 0 -51 -41q0 -28 30 -43l-12 -28q-57 22 -57 76q0 51 32 78.5t89 27.5q45 0 125 -30t140 -36v55q6 11 19 11q30 0 30 -42q0 -33 -22.5 -63t-75.5 -70l-339 -249q35 11 66 11q45 0 111.5 -32t115.5 -32q27 0 44 12t17 34
q0 23 -31 46l14 24q54 -26 54 -79q0 -47 -32.5 -75t-90.5 -28q-50 0 -97.5 18.5t-88 37.5t-75.5 19q-24 0 -36 -9v-55q-6 -11 -20 -11q-29 0 -29 42q0 66 97 136z" />
    <glyph glyph-name="braceleft" unicode="{" horiz-adv-x="410" 
d="M136 350q91 -28 91 -121q0 -30 -25 -103t-25 -119q0 -48 32 -71.5t107 -23.5l-5 -42q-183 0 -183 134q0 47 24 120.5t24 104.5q0 99 -131 99l5 44q162 0 162 150q0 15 -3 50t-3 54q0 42 9 75t31.5 64t68.5 48t113 17l-5 -42q-95 0 -131.5 -38t-36.5 -120q0 -21 3.5 -57.5
t3.5 -53.5q0 -59 -31.5 -105t-94.5 -64z" />
    <glyph glyph-name="bar" unicode="|" horiz-adv-x="257" 
d="M228 830l-116 -951h-52l116 951h52z" />
    <glyph glyph-name="braceright" unicode="}" horiz-adv-x="410" 
d="M296 350q-91 28 -91 121q0 30 25 103t25 119q0 48 -32 71.5t-107 23.5l5 42q183 0 183 -134q0 -47 -24 -120.5t-24 -104.5q0 -99 131 -99l-5 -44q-162 0 -162 -150q0 -15 3 -50t3 -54q0 -42 -9 -75t-31.5 -64t-68.5 -48t-113 -17l5 42q95 0 131.5 38t36.5 120
q0 21 -3.5 57.5t-3.5 53.5q0 59 31.5 105t94.5 64z" />
    <glyph glyph-name="asciitilde" unicode="~" horiz-adv-x="523" 
d="M82 275h-36q48 116 124 116q46 0 118.5 -30t102.5 -30q23 0 35.5 12t31.5 46h36q-46 -116 -124 -116q-46 0 -118 30.5t-102 30.5q-23 0 -36 -12.5t-32 -46.5z" />
    <glyph glyph-name="nbspace" unicode="&#xa0;" horiz-adv-x="240" 
 />
    <glyph glyph-name="exclamdown" unicode="&#xa1;" horiz-adv-x="315" 
d="M57 -240l5 46l56 292q36 183 44 245h38q-3 -35 -16 -245l-16 -292l-5 -46h-106zM262 487q0 -26 -18.5 -45t-44.5 -19t-45 19t-19 45t19 44.5t45 18.5t44.5 -18.5t18.5 -44.5z" />
    <glyph glyph-name="cent" unicode="&#xa2;" horiz-adv-x="534" 
d="M173 -6l30 102q-67 16 -100 70.5t-33 130.5q0 145 79.5 251t219.5 117l36 121h43l-35 -121q59 -4 90 -31t31 -62q0 -38 -37 -56h-39q-5 74 -61 95l-137 -469q7 -1 22 -1q104 0 186 120l31 -19q-36 -65 -97.5 -109t-139.5 -44h-17l-28 -95h-44zM154 313q0 -126 66 -159
l135 463q-65 -2 -112.5 -49t-68 -113.5t-20.5 -141.5z" />
    <glyph glyph-name="sterling" unicode="&#xa3;" horiz-adv-x="768" 
d="M396 560l-38 -140h217l-7 -42h-221l-58 -219q19 -8 80.5 -37t107 -44.5t83.5 -15.5q47 0 74 22.5t27 61.5q0 41 -35 68l19 22q73 -36 73 -112q0 -67 -42 -100.5t-117 -33.5q-39 0 -85 15.5t-68.5 27.5t-74.5 44.5t-55 34.5q-51 -122 -162 -122q-51 0 -78.5 27t-27.5 73
q0 52 36.5 83t93.5 31q45 0 84 -21l44 195h-124l6 42h127l35 154q49 216 246 216q68 0 109.5 -30t41.5 -78q0 -19 -10 -34t-25 -20h-58q5 17 5 36q0 36 -19.5 61t-62.5 25q-54 0 -86 -48t-55 -142zM113 36q71 0 98 106q-32 18 -73 18q-37 0 -57.5 -18.5t-20.5 -51.5
q0 -24 14.5 -39t38.5 -15z" />
    <glyph glyph-name="currency" unicode="&#xa4;" horiz-adv-x="629" 
d="M305 81q-94 0 -154 49l-74 -65l-34 39l73 65q-36 52 -36 122q0 105 62 172l-47 54l41 35l48 -54q59 39 137 39q93 0 154 -50l74 66l34 -39l-73 -65q36 -53 36 -122q0 -105 -62 -172l47 -54l-41 -35l-48 54q-61 -39 -137 -39zM305 126q74 0 119 59t45 142q0 77 -37 121
t-111 44t-119 -59t-45 -142q0 -77 37 -121t111 -44z" />
    <glyph glyph-name="yen" unicode="&#xa5;" horiz-adv-x="733" 
d="M121 373l5 41h169l-143 292q-19 38 -65 41l4 33h278l-4 -33q-64 0 -88.5 -10t-24.5 -33q0 -21 13 -45l132 -287l203 282q23 33 23 50q0 23 -20.5 32.5t-79.5 10.5l4 33h252l-4 -33q-27 -3 -42.5 -11t-32.5 -30l-218 -292h176l-5 -41h-202l-33 -45l-3 -19h230l-4 -40h-230
l-16 -138q-2 -21 -2 -36q0 -37 26 -48t86 -14l-4 -33h-324l4 33q31 1 51.5 4.5t39.5 12t29 25t13 41.5l18 153h-223l4 40h224l2 16l-24 48h-194z" />
    <glyph glyph-name="brokenbar" unicode="&#xa6;" horiz-adv-x="257" 
d="M162 285l-50 -406h-52l50 406h52zM228 830l-49 -406h-52l49 406h52z" />
    <glyph glyph-name="section" unicode="&#xa7;" horiz-adv-x="510" 
d="M408 160q0 -73 -20 -144t-57 -131t-99 -97.5t-138 -37.5q-66 0 -99.5 24.5t-33.5 61.5q0 44 52 67h56q-7 -14 -7 -38q0 -64 67 -64q53 0 80.5 31.5t27.5 87.5q0 49 -21.5 106t-47 104.5t-47 122.5t-21.5 155q0 73 19.5 144t57 131.5t99 97.5t137.5 37q66 0 100 -24.5
t34 -61.5q0 -46 -53 -66h-56q8 16 8 37q0 64 -68 64q-53 0 -80.5 -31.5t-27.5 -87.5q0 -49 21.5 -106t47.5 -104t47.5 -122.5t21.5 -155.5zM143 402q0 -66 22 -138t48 -123t48 -111.5t22 -107.5q0 -30 -11 -49q41 49 66.5 127t25.5 167q0 66 -22 138t-48 123t-48 111.5
t-22 107.5q0 27 11 49q-41 -49 -66.5 -127.5t-25.5 -166.5z" />
    <glyph glyph-name="dieresis" unicode="&#xa8;" horiz-adv-x="600" 
d="M197 628q-24 0 -40 15.5t-16 38.5q0 25 17 44t43 19q24 0 40 -15.5t16 -38.5q0 -25 -17 -44t-43 -19zM397 628q-24 0 -40 15.5t-16 38.5q0 25 17 44t43 19q24 0 40 -15.5t16 -38.5q0 -25 -17 -44t-43 -19z" />
    <glyph glyph-name="copyright" unicode="&#xa9;" horiz-adv-x="890" 
d="M64 390q0 166 117 283t283 117t283 -117t117 -283t-117 -283t-283 -117t-283 117t-117 283zM94 390q0 -153 108.5 -261.5t261.5 -108.5t261.5 108.5t108.5 261.5t-108.5 261.5t-261.5 108.5t-261.5 -108.5t-108.5 -261.5zM460 178q61 0 103.5 32.5t77.5 94.5h22l-32 -123
q-76 -42 -178 -42q-106 0 -169.5 57.5t-63.5 157.5q0 73 31.5 138t97.5 108.5t152 43.5q100 0 170 -51l-12 -106h-19q-14 60 -48 88.5t-95 28.5q-97 0 -147.5 -73.5t-50.5 -178.5q0 -84 43.5 -129.5t117.5 -45.5z" />
    <glyph glyph-name="ordfeminine" unicode="&#xaa;" horiz-adv-x="443" 
d="M166 386q38 0 89 75q32 46 55 103.5t29 98.5q-14 34 -52 34q-67 0 -112 -72t-46 -160q0 -79 37 -79zM296 395q0 26 27 139h-2q-22 -53 -51 -95q-64 -94 -127 -94q-81 0 -81 108q0 107 68.5 191t154.5 84q54 0 76 -39l45 45h25l-25 -78q-16 -64 -29 -140.5t-13 -106.5
q0 -19 15 -19q24 0 63 52l19 -13q-49 -84 -112 -84q-53 0 -53 50z" />
    <glyph glyph-name="guillemotleft" unicode="&#xab;" horiz-adv-x="464" 
d="M64 269l1 10l192 190h37l-152 -195l104 -195h-37zM222 269l1 10l191 190h37l-152 -195l104 -195h-37z" />
    <glyph glyph-name="logicalnot" unicode="&#xac;" 
d="M540 208l38 317h-486l5 47h540l-45 -364h-52z" />
    <glyph glyph-name="uni00AD" unicode="&#xad;" horiz-adv-x="348" 
d="M310 309h-248l8 58h248z" />
    <glyph glyph-name="registered" unicode="&#xae;" horiz-adv-x="471" 
d="M90 603q0 78 54 132.5t130 54.5q78 0 132.5 -54.5t54.5 -132.5q0 -76 -54.5 -130t-132.5 -54q-76 0 -130 54t-54 130zM116 603q0 -66 46.5 -113.5t111.5 -47.5q66 0 113 47.5t47 113.5q0 67 -47 115t-113 48q-65 0 -111.5 -48t-46.5 -115zM199 714h96q76 0 76 -53
q0 -26 -19.5 -42t-46.5 -19l37 -50q24 -32 39 -32l-1 -16h-42q-21 19 -39 45l-33 49h-20l-5 -40q-2 -14 -2 -19q0 -10 5 -14.5t19 -4.5l-2 -16h-88l2 16q16 0 20.5 5t6.5 20l15 118q2 16 2 19q0 11 -4 14.5t-18 3.5zM259 694l-11 -81h27q57 0 57 48q0 33 -42 33h-31z" />
    <glyph glyph-name="macron" unicode="&#xaf;" horiz-adv-x="600" 
d="M165 652l6 52h264l-6 -52h-264z" />
    <glyph glyph-name="degree" unicode="&#xb0;" horiz-adv-x="486" 
d="M264 464q61 0 100 44t39 116q0 55 -30 88t-82 33q-61 0 -100 -44t-39 -116q0 -55 30 -88t82 -33zM264 419q-79 0 -125 47t-46 119q0 85 55.5 145t142.5 60q79 0 125 -47t46 -119q0 -85 -55.5 -145t-142.5 -60z" />
    <glyph glyph-name="plusminus" unicode="&#xb1;" 
d="M312 152l22 176h-242l6 51h242l22 176h56l-22 -176h242l-6 -51h-242l-22 -176h-56zM599 58h-540l6 48h540z" />
    <glyph glyph-name="twosuperior" unicode="&#xb2;" horiz-adv-x="383" 
d="M120 352h104q49 0 71 12t52 60h22l-39 -128h-311l2 14q183 162 229 217.5t46 121.5q0 39 -22.5 60.5t-62.5 21.5t-65.5 -16t-55.5 -48l-16 14q60 105 165 105q63 0 98.5 -32.5t35.5 -84.5q0 -35 -10.5 -64t-38 -61.5t-50 -54t-73.5 -65.5t-81 -72z" />
    <glyph glyph-name="threesuperior" unicode="&#xb3;" horiz-adv-x="392" 
d="M162 551q145 48 145 124q0 29 -18 45.5t-51 16.5q-63 0 -119 -69l-17 16q60 102 162 102q55 0 85.5 -27t30.5 -72q0 -82 -118 -117q55 -7 86.5 -41.5t31.5 -85.5q0 -73 -54 -113t-125 -40q-75 0 -113.5 31.5t-38.5 71.5q0 42 37 57h38q-5 -25 -5 -43q0 -37 21.5 -62.5
t61.5 -25.5q50 0 77.5 30t27.5 86q0 44 -26 72.5t-69 28.5q-17 0 -44 -6z" />
    <glyph glyph-name="acute" unicode="&#xb4;" horiz-adv-x="600" 
d="M319 800h107l-219 -208h-33z" />
    <glyph glyph-name="paragraph" unicode="&#xb6;" horiz-adv-x="714" 
d="M277 -240l74 608q-116 0 -182 48.5t-66 138.5q0 113 79 169t209 56h315l-4 -35q-62 -2 -90.5 -18t-34.5 -63l-111 -904h-46l120 987h-96l-120 -987h-47z" />
    <glyph glyph-name="periodcentered" unicode="&#xb7;" horiz-adv-x="318" 
d="M114 329q0 26 18.5 45t44.5 19t45 -19t19 -45t-19 -44.5t-45 -18.5t-44.5 18.5t-18.5 44.5z" />
    <glyph glyph-name="cedilla" unicode="&#xb8;" horiz-adv-x="600" 
d="M294 12h29l-27 -54q48 -7 80 -32.5t32 -70.5q0 -51 -32 -78t-80 -27q-63 0 -103 40l19 22q39 -24 80 -24q25 0 42.5 13t17.5 40q0 35 -31.5 53t-77.5 21z" />
    <glyph glyph-name="onesuperior" unicode="&#xb9;" horiz-adv-x="339" 
d="M270 786h17l-50 -403q-2 -14 -2 -24q0 -20 23 -26t82 -10l-3 -27h-296l2 27q35 2 52 3.5t36.5 6.5t28 14.5t10.5 24.5l38 313h-121l2 23l37 6q53 8 84 23t60 49z" />
    <glyph glyph-name="ordmasculine" unicode="&#xba;" horiz-adv-x="375" 
d="M198 377q51 0 83 62.5t32 144.5q0 112 -65 112q-51 0 -83.5 -63.5t-32.5 -144.5q0 -111 66 -111zM188 345q-62 0 -94 38t-32 100q0 95 54.5 170t141.5 75q62 0 93.5 -38t31.5 -100q0 -95 -54.5 -170t-140.5 -75z" />
    <glyph glyph-name="guillemotright" unicode="&#xbb;" horiz-adv-x="464" 
d="M264 279l-1 -10l-193 -190h-37l152 195l-104 195h37zM421 279l-1 -10l-193 -190h-36l152 195l-104 195h36z" />
    <glyph glyph-name="onequarter" unicode="&#xbc;" horiz-adv-x="916" 
d="M270 786h17l-50 -403q-2 -14 -2 -24q0 -20 23 -26t82 -10l-3 -27h-296l2 27q35 2 52 3.5t36.5 6.5t28 14.5t10.5 24.5l38 313h-121l2 23l37 6q53 8 84 23t60 49zM178 0l639 780h56l-639 -780h-56zM551 161h188l27 225zM786 0h-67l15 126h-239l2 26l314 332h34l-39 -323
h79l-5 -35h-79z" />
    <glyph glyph-name="onehalf" unicode="&#xbd;" horiz-adv-x="984" 
d="M691 56h104q49 0 71 12t52 60h22l-39 -128h-311l2 14q183 162 229 217.5t46 121.5q0 39 -22.5 60.5t-62.5 21.5t-65.5 -16t-55.5 -48l-16 14q59 105 165 105q63 0 98.5 -32.5t35.5 -84.5q0 -35 -10.5 -64t-38 -61.5t-50 -54t-73.5 -65.5t-81 -72zM270 786h17l-50 -403
q-2 -14 -2 -24q0 -20 23 -26t82 -10l-3 -27h-296l2 27q35 2 52 3.5t36.5 6.5t28 14.5t10.5 24.5l38 313h-121l2 23l37 6q53 8 84 23t60 49zM178 0l639 780h56l-639 -780h-56z" />
    <glyph glyph-name="threequarters" unicode="&#xbe;" horiz-adv-x="923" 
d="M162 551q145 48 145 124q0 29 -18 45.5t-51 16.5q-63 0 -119 -69l-17 16q60 102 162 102q55 0 85.5 -27t30.5 -72q0 -82 -118 -117q55 -7 86.5 -41.5t31.5 -85.5q0 -73 -54 -113t-125 -40q-75 0 -113.5 31.5t-38.5 71.5q0 42 37 57h38q-5 -25 -5 -43q0 -37 21.5 -62.5
t61.5 -25.5q50 0 77.5 30t27.5 86q0 44 -26 72.5t-69 28.5q-17 0 -44 -6zM185 0l639 780h56l-639 -780h-56zM558 161h188l27 225zM793 0h-67l15 126h-239l2 26l314 332h34l-39 -323h79l-5 -35h-79z" />
    <glyph glyph-name="questiondown" unicode="&#xbf;" horiz-adv-x="513" 
d="M249 60q-67 -39 -95.5 -73t-28.5 -91q0 -53 33 -86.5t88 -33.5q61 0 92 31t31 82q0 21 -5 46h69q20 -22 20 -56q0 -65 -60.5 -105.5t-146.5 -40.5q-95 0 -149 47t-54 121q0 76 37.5 120t121.5 92q70 40 97.5 77.5t27.5 97.5v34h26q25 -45 25 -95q0 -53 -32.5 -92
t-96.5 -75zM416 470q0 -26 -18.5 -45t-44.5 -19t-45 19t-19 45t19 44.5t45 18.5t44.5 -18.5t18.5 -44.5z" />
    <glyph glyph-name="Agrave" unicode="&#xc0;" horiz-adv-x="786" 
d="M589 136l-34 124h-335l-66 -125q-19 -35 -19 -58q0 -22 19.5 -32t80.5 -12l-4 -33h-242l4 33q56 5 76 42l350 656l-17 62h88l200 -718q10 -39 63 -42l-4 -33h-270l4 33q63 1 90 10t27 30q0 22 -11 63zM441 673l-197 -368h298zM291 1030h98l84 -208h-33z" />
    <glyph glyph-name="Aacute" unicode="&#xc1;" horiz-adv-x="786" 
d="M589 136l-34 124h-335l-66 -125q-19 -35 -19 -58q0 -22 19.5 -32t80.5 -12l-4 -33h-242l4 33q56 5 76 42l350 656l-17 62h88l200 -718q10 -39 63 -42l-4 -33h-270l4 33q63 1 90 10t27 30q0 22 -11 63zM441 673l-197 -368h298zM589 1030h107l-219 -208h-33z" />
    <glyph glyph-name="Acircumflex" unicode="&#xc2;" horiz-adv-x="786" 
d="M589 136l-34 124h-335l-66 -125q-19 -35 -19 -58q0 -22 19.5 -32t80.5 -12l-4 -33h-242l4 33q56 5 76 42l350 656l-17 62h88l200 -718q10 -39 63 -42l-4 -33h-270l4 33q63 1 90 10t27 30q0 22 -11 63zM441 673l-197 -368h298zM514 1030l122 -208h-34l-121 137l-163 -137
h-34l174 208h56z" />
    <glyph glyph-name="Atilde" unicode="&#xc3;" horiz-adv-x="786" 
d="M589 136l-34 124h-335l-66 -125q-19 -35 -19 -58q0 -22 19.5 -32t80.5 -12l-4 -33h-242l4 33q56 5 76 42l350 656l-17 62h88l200 -718q10 -39 63 -42l-4 -33h-270l4 33q63 1 90 10t27 30q0 22 -11 63zM441 673l-197 -368h298zM639 964l35 -6q-56 -111 -140 -111
q-30 0 -71.5 32t-64.5 32q-25 0 -43 -12.5t-39 -44.5l-35 6q56 111 140 111q30 0 71.5 -32t64.5 -32q25 0 43 12.5t39 44.5z" />
    <glyph glyph-name="Adieresis" unicode="&#xc4;" horiz-adv-x="786" 
d="M589 136l-34 124h-335l-66 -125q-19 -35 -19 -58q0 -22 19.5 -32t80.5 -12l-4 -33h-242l4 33q56 5 76 42l350 656l-17 62h88l200 -718q10 -39 63 -42l-4 -33h-270l4 33q63 1 90 10t27 30q0 22 -11 63zM441 673l-197 -368h298zM374 853q-24 0 -40 15.5t-16 38.5
q0 25 17 44t43 19q24 0 40 -15.5t16 -38.5q0 -25 -17 -44t-43 -19zM574 853q-24 0 -40 15.5t-16 38.5q0 25 17 44t43 19q24 0 40 -15.5t16 -38.5q0 -25 -17 -44t-43 -19z" />
    <glyph glyph-name="Aring" unicode="&#xc5;" horiz-adv-x="786" 
d="M589 136l-34 124h-335l-66 -125q-19 -35 -19 -58q0 -22 19.5 -32t80.5 -12l-4 -33h-242l4 33q56 5 76 42l350 656l-17 62h88l200 -718q10 -39 63 -42l-4 -33h-270l4 33q63 1 90 10t27 30q0 22 -11 63zM441 673l-197 -368h298zM538 939q0 60 -54 60q-35 0 -53 -25.5
t-18 -62.5q0 -60 54 -60q35 0 53 25.5t18 62.5zM587 942q0 -56 -35.5 -93t-90.5 -37q-44 0 -70.5 27.5t-26.5 68.5q0 56 35.5 93t90.5 37q44 0 70.5 -27.5t26.5 -68.5z" />
    <glyph glyph-name="AE" unicode="&#xc6;" horiz-adv-x="1124" 
d="M242 259l-77 -124q-19 -31 -19 -58q0 -22 18.5 -31.5t80.5 -11.5l-4 -34h-252l4 34q54 9 76 41l431 655q-32 14 -98 16l4 34h696l-20 -177h-20q-23 77 -53 105t-96 28h-314l25 -317h230q36 0 57 25.5t37 79.5h27l-31 -253h-27q-3 53 -18.5 78.5t-51.5 25.5h-220l20 -256
q4 -45 33 -60t99 -15h57q33 0 55.5 4.5t39 11.5t36 28t33.5 40t43 62h26l-58 -190h-575l4 34q29 1 49 4t39.5 9.5t29.5 19.5t10 32q0 18 -1 32l-10 128h-315zM524 685h-2l-249 -382h281z" />
    <glyph glyph-name="Ccedilla" unicode="&#xc7;" horiz-adv-x="777" 
d="M409 35q95 0 161.5 50t116.5 146h28l-43 -180q-47 -30 -119.5 -45.5t-143.5 -15.5l-16 -32q48 -7 80 -32.5t32 -70.5q0 -51 -32 -78t-80 -27q-63 0 -103 40l19 22q39 -24 80 -24q25 0 42.5 13t17.5 40q0 35 -31.5 53t-77.5 21l40 76q-139 9 -224 98.5t-85 247.5
q0 83 25 161.5t72.5 144.5t127.5 106.5t180 40.5q159 0 266 -79l-13 -158h-22q-16 92 -81 141.5t-150 49.5q-103 0 -176 -56.5t-105.5 -143.5t-32.5 -194q0 -150 69.5 -232.5t177.5 -82.5z" />
    <glyph glyph-name="Egrave" unicode="&#xc8;" horiz-adv-x="777" 
d="M317 1030h98l84 -208h-33zM665 0h-635l4 33q31 1 51.5 4.5t39.5 12t29 25t13 41.5l65 533q3 21 3 36q0 25 -15.5 39t-36.5 17.5t-61 5.5l4 33h629l-19 -177h-20q-23 77 -53 105t-96 28h-243l-39 -317h223q36 0 57 25.5t37 79.5h27l-31 -253h-27q-3 53 -18.5 78.5
t-51.5 25.5h-221l-27 -218q-4 -36 -4 -59q0 -30 25 -42t87 -12h129q33 0 55.5 4.5t39 11.5t36 28t33.5 40t43 62h26z" />
    <glyph glyph-name="Eacute" unicode="&#xc9;" horiz-adv-x="777" 
d="M597 1030h107l-219 -208h-33zM665 0h-635l4 33q31 1 51.5 4.5t39.5 12t29 25t13 41.5l65 533q3 21 3 36q0 25 -15.5 39t-36.5 17.5t-61 5.5l4 33h629l-19 -177h-20q-23 77 -53 105t-96 28h-243l-39 -317h223q36 0 57 25.5t37 79.5h27l-31 -253h-27q-3 53 -18.5 78.5
t-51.5 25.5h-221l-27 -218q-4 -36 -4 -59q0 -30 25 -42t87 -12h129q33 0 55.5 4.5t39 11.5t36 28t33.5 40t43 62h26z" />
    <glyph glyph-name="Ecircumflex" unicode="&#xca;" horiz-adv-x="777" 
d="M665 0h-635l4 33q31 1 51.5 4.5t39.5 12t29 25t13 41.5l65 533q3 21 3 36q0 25 -15.5 39t-36.5 17.5t-61 5.5l4 33h629l-19 -177h-20q-23 77 -53 105t-96 28h-243l-39 -317h223q36 0 57 25.5t37 79.5h27l-31 -253h-27q-3 53 -18.5 78.5t-51.5 25.5h-221l-27 -218
q-4 -36 -4 -59q0 -30 25 -42t87 -12h129q33 0 55.5 4.5t39 11.5t36 28t33.5 40t43 62h26zM526 1030l122 -208h-34l-121 137l-163 -137h-34l174 208h56z" />
    <glyph glyph-name="Edieresis" unicode="&#xcb;" horiz-adv-x="777" 
d="M386 853q-24 0 -40 15.5t-16 38.5q0 25 17 44t43 19q24 0 40 -15.5t16 -38.5q0 -25 -17 -44t-43 -19zM586 853q-24 0 -40 15.5t-16 38.5q0 25 17 44t43 19q24 0 40 -15.5t16 -38.5q0 -25 -17 -44t-43 -19zM665 0h-635l4 33q31 1 51.5 4.5t39.5 12t29 25t13 41.5l65 533
q3 21 3 36q0 25 -15.5 39t-36.5 17.5t-61 5.5l4 33h629l-19 -177h-20q-23 77 -53 105t-96 28h-243l-39 -317h223q36 0 57 25.5t37 79.5h27l-31 -253h-27q-3 53 -18.5 78.5t-51.5 25.5h-221l-27 -218q-4 -36 -4 -59q0 -30 25 -42t87 -12h129q33 0 55.5 4.5t39 11.5t36 28
t33.5 40t43 62h26z" />
    <glyph glyph-name="Igrave" unicode="&#xcc;" horiz-adv-x="429" 
d="M126 780h326l-4 -33q-31 -1 -51.5 -4.5t-39.5 -12t-29 -25t-13 -41.5l-65 -533q-3 -21 -3 -36q0 -25 15.5 -39t36.5 -17.5t61 -5.5l-4 -33h-326l4 33q31 1 51.5 4.5t39.5 12t29 25t13 41.5l65 533q3 21 3 36q0 25 -15.5 39t-36.5 17.5t-61 5.5zM123 1030h98l84 -208h-33z
" />
    <glyph glyph-name="Iacute" unicode="&#xcd;" horiz-adv-x="429" 
d="M126 780h326l-4 -33q-31 -1 -51.5 -4.5t-39.5 -12t-29 -25t-13 -41.5l-65 -533q-3 -21 -3 -36q0 -25 15.5 -39t36.5 -17.5t61 -5.5l-4 -33h-326l4 33q31 1 51.5 4.5t39.5 12t29 25t13 41.5l65 533q3 21 3 36q0 25 -15.5 39t-36.5 17.5t-61 5.5zM421 1030h107l-219 -208
h-33z" />
    <glyph glyph-name="Icircumflex" unicode="&#xce;" horiz-adv-x="429" 
d="M126 780h326l-4 -33q-31 -1 -51.5 -4.5t-39.5 -12t-29 -25t-13 -41.5l-65 -533q-3 -21 -3 -36q0 -25 15.5 -39t36.5 -17.5t61 -5.5l-4 -33h-326l4 33q31 1 51.5 4.5t39.5 12t29 25t13 41.5l65 533q3 21 3 36q0 25 -15.5 39t-36.5 17.5t-61 5.5zM346 1030l122 -208h-34
l-121 137l-163 -137h-34l174 208h56z" />
    <glyph glyph-name="Idieresis" unicode="&#xcf;" horiz-adv-x="429" 
d="M126 780h326l-4 -33q-31 -1 -51.5 -4.5t-39.5 -12t-29 -25t-13 -41.5l-65 -533q-3 -21 -3 -36q0 -25 15.5 -39t36.5 -17.5t61 -5.5l-4 -33h-326l4 33q31 1 51.5 4.5t39.5 12t29 25t13 41.5l65 533q3 21 3 36q0 25 -15.5 39t-36.5 17.5t-61 5.5zM204 853q-24 0 -40 15.5
t-16 38.5q0 25 17 44t43 19q24 0 40 -15.5t16 -38.5q0 -25 -17 -44t-43 -19zM404 853q-24 0 -40 15.5t-16 38.5q0 25 17 44t43 19q24 0 40 -15.5t16 -38.5q0 -25 -17 -44t-43 -19z" />
    <glyph glyph-name="Eth" unicode="&#xd0;" horiz-adv-x="858" 
d="M84 375l5 44h115l28 230q3 21 3 36q0 25 -15.5 39t-36.5 17.5t-61 5.5l4 33h345q180 0 271 -92.5t91 -232.5q0 -210 -122 -332.5t-314 -122.5h-367l4 33q31 1 51.5 4.5t39.5 12t29 25t13 41.5l31 259h-114zM350 44h40q156 0 253.5 104t97.5 294q0 133 -72.5 213.5
t-218.5 80.5h-126l-39 -317h255l-5 -44h-256l-26 -218q-4 -36 -4 -59q0 -30 23.5 -42t77.5 -12z" />
    <glyph glyph-name="Ntilde" unicode="&#xd1;" horiz-adv-x="924" 
d="M718 964l35 -6q-56 -111 -140 -111q-30 0 -71.5 32t-64.5 32q-25 0 -43 -12.5t-39 -44.5l-35 6q56 111 140 111q30 0 71.5 -32t64.5 -32q25 0 43 12.5t39 44.5zM708 146l60 503q3 22 3 36q0 25 -15.5 39t-36.5 17.5t-61 5.5l4 33h297l-4 -33q-64 -3 -95.5 -19t-37.5 -64
l-81 -664h-32l-426 636l-62 -505q-3 -22 -3 -36q0 -25 15.5 -39t36.5 -17.5t61 -5.5l-4 -33h-297l4 33q31 1 51.5 4.5t39.5 12t29 25t13 41.5l69 564q-32 43 -51.5 55t-63.5 12l4 33h162z" />
    <glyph glyph-name="Ograve" unicode="&#xd2;" horiz-adv-x="809" 
d="M308 1030h98l84 -208h-33zM395 36q71 0 129 34t94 91.5t55.5 128.5t19.5 148q0 137 -63 221.5t-170 84.5q-71 0 -129 -34t-94 -91.5t-55.5 -128.5t-19.5 -148q0 -137 63 -221.5t170 -84.5zM385 -10q-142 0 -228 91t-86 249q0 89 28 172t78 147t126 102.5t167 38.5
q142 0 228 -91t86 -249q0 -89 -28 -172t-78 -147t-126 -102.5t-167 -38.5z" />
    <glyph glyph-name="Oacute" unicode="&#xd3;" horiz-adv-x="809" 
d="M608 1030h107l-219 -208h-33zM395 36q71 0 129 34t94 91.5t55.5 128.5t19.5 148q0 137 -63 221.5t-170 84.5q-71 0 -129 -34t-94 -91.5t-55.5 -128.5t-19.5 -148q0 -137 63 -221.5t170 -84.5zM385 -10q-142 0 -228 91t-86 249q0 89 28 172t78 147t126 102.5t167 38.5
q142 0 228 -91t86 -249q0 -89 -28 -172t-78 -147t-126 -102.5t-167 -38.5z" />
    <glyph glyph-name="Ocircumflex" unicode="&#xd4;" horiz-adv-x="809" 
d="M395 36q71 0 129 34t94 91.5t55.5 128.5t19.5 148q0 137 -63 221.5t-170 84.5q-71 0 -129 -34t-94 -91.5t-55.5 -128.5t-19.5 -148q0 -137 63 -221.5t170 -84.5zM385 -10q-142 0 -228 91t-86 249q0 89 28 172t78 147t126 102.5t167 38.5q142 0 228 -91t86 -249
q0 -89 -28 -172t-78 -147t-126 -102.5t-167 -38.5zM536 1030l122 -208h-34l-121 137l-163 -137h-34l174 208h56z" />
    <glyph glyph-name="Otilde" unicode="&#xd5;" horiz-adv-x="809" 
d="M666 964l35 -6q-56 -111 -140 -111q-30 0 -71.5 32t-64.5 32q-25 0 -43 -12.5t-39 -44.5l-35 6q56 111 140 111q30 0 71.5 -32t64.5 -32q25 0 43 12.5t39 44.5zM395 36q71 0 129 34t94 91.5t55.5 128.5t19.5 148q0 137 -63 221.5t-170 84.5q-71 0 -129 -34t-94 -91.5
t-55.5 -128.5t-19.5 -148q0 -137 63 -221.5t170 -84.5zM385 -10q-142 0 -228 91t-86 249q0 89 28 172t78 147t126 102.5t167 38.5q142 0 228 -91t86 -249q0 -89 -28 -172t-78 -147t-126 -102.5t-167 -38.5z" />
    <glyph glyph-name="Odieresis" unicode="&#xd6;" horiz-adv-x="809" 
d="M391 853q-24 0 -40 15.5t-16 38.5q0 25 17 44t43 19q24 0 40 -15.5t16 -38.5q0 -25 -17 -44t-43 -19zM591 853q-24 0 -40 15.5t-16 38.5q0 25 17 44t43 19q24 0 40 -15.5t16 -38.5q0 -25 -17 -44t-43 -19zM395 36q71 0 129 34t94 91.5t55.5 128.5t19.5 148
q0 137 -63 221.5t-170 84.5q-71 0 -129 -34t-94 -91.5t-55.5 -128.5t-19.5 -148q0 -137 63 -221.5t170 -84.5zM385 -10q-142 0 -228 91t-86 249q0 89 28 172t78 147t126 102.5t167 38.5q142 0 228 -91t86 -249q0 -89 -28 -172t-78 -147t-126 -102.5t-167 -38.5z" />
    <glyph glyph-name="multiply" unicode="&#xd7;" 
d="M74 73l243 217l-189 212l39 34l188 -213l238 214l31 -37l-239 -214l187 -213l-39 -34l-185 215l-243 -218z" />
    <glyph glyph-name="Oslash" unicode="&#xd8;" horiz-adv-x="809" 
d="M385 -10q-140 0 -224 86l-81 -86l-32 28l85 92q-62 87 -62 220q0 89 28 172t78 147t126 102.5t167 38.5q135 0 220 -83l78 83l34 -29l-83 -89q65 -89 65 -222q0 -89 -28 -172t-78 -147t-126 -102.5t-167 -38.5zM395 36q71 0 129 34t94 91.5t55.5 128.5t19.5 148
q0 96 -33 171l-445 -475q65 -98 180 -98zM162 342q0 -95 31 -168l444 475q-65 95 -177 95q-71 0 -129 -34t-94 -91.5t-55.5 -128.5t-19.5 -148z" />
    <glyph glyph-name="Ugrave" unicode="&#xd9;" horiz-adv-x="856" 
d="M361 1030h98l84 -208h-33zM148 318l40 331q3 21 3 36q0 25 -15.5 39t-36.5 17.5t-61 5.5l4 33h326l-4 -33q-64 -3 -95.5 -19t-37.5 -64l-44 -350q-6 -50 -6 -82q0 -88 57 -136.5t150 -48.5q228 0 258 249l42 353q3 22 3 36q0 25 -15.5 39t-36.5 17.5t-61 5.5l4 33h297
l-4 -33q-31 -1 -51.5 -4.5t-39.5 -12t-29 -25t-13 -41.5l-47 -388q-16 -134 -99.5 -210t-211.5 -76q-132 0 -207.5 60t-75.5 181q0 24 7 87z" />
    <glyph glyph-name="Uacute" unicode="&#xda;" horiz-adv-x="856" 
d="M652 1030h107l-219 -208h-33zM148 318l40 331q3 21 3 36q0 25 -15.5 39t-36.5 17.5t-61 5.5l4 33h326l-4 -33q-64 -3 -95.5 -19t-37.5 -64l-44 -350q-6 -50 -6 -82q0 -88 57 -136.5t150 -48.5q228 0 258 249l42 353q3 22 3 36q0 25 -15.5 39t-36.5 17.5t-61 5.5l4 33h297
l-4 -33q-31 -1 -51.5 -4.5t-39.5 -12t-29 -25t-13 -41.5l-47 -388q-16 -134 -99.5 -210t-211.5 -76q-132 0 -207.5 60t-75.5 181q0 24 7 87z" />
    <glyph glyph-name="Ucircumflex" unicode="&#xdb;" horiz-adv-x="856" 
d="M148 318l40 331q3 21 3 36q0 25 -15.5 39t-36.5 17.5t-61 5.5l4 33h326l-4 -33q-64 -3 -95.5 -19t-37.5 -64l-44 -350q-6 -50 -6 -82q0 -88 57 -136.5t150 -48.5q228 0 258 249l42 353q3 22 3 36q0 25 -15.5 39t-36.5 17.5t-61 5.5l4 33h297l-4 -33q-31 -1 -51.5 -4.5
t-39.5 -12t-29 -25t-13 -41.5l-47 -388q-16 -134 -99.5 -210t-211.5 -76q-132 0 -207.5 60t-75.5 181q0 24 7 87zM575 1030l122 -208h-34l-121 137l-163 -137h-34l174 208h56z" />
    <glyph glyph-name="Udieresis" unicode="&#xdc;" horiz-adv-x="856" 
d="M433 853q-24 0 -40 15.5t-16 38.5q0 25 17 44t43 19q24 0 40 -15.5t16 -38.5q0 -25 -17 -44t-43 -19zM633 853q-24 0 -40 15.5t-16 38.5q0 25 17 44t43 19q24 0 40 -15.5t16 -38.5q0 -25 -17 -44t-43 -19zM148 318l40 331q3 21 3 36q0 25 -15.5 39t-36.5 17.5t-61 5.5
l4 33h326l-4 -33q-64 -3 -95.5 -19t-37.5 -64l-44 -350q-6 -50 -6 -82q0 -88 57 -136.5t150 -48.5q228 0 258 249l42 353q3 22 3 36q0 25 -15.5 39t-36.5 17.5t-61 5.5l4 33h297l-4 -33q-31 -1 -51.5 -4.5t-39.5 -12t-29 -25t-13 -41.5l-47 -388q-16 -134 -99.5 -210
t-211.5 -76q-132 0 -207.5 60t-75.5 181q0 24 7 87z" />
    <glyph glyph-name="Yacute" unicode="&#xdd;" horiz-adv-x="760" 
d="M332 116l25 209l-207 381q-12 21 -25.5 30.5t-39.5 10.5l4 33h280l-4 -33q-64 0 -88.5 -10t-24.5 -33q0 -21 13 -45l152 -287l223 282q23 29 23 50q0 23 -20.5 32.5t-79.5 10.5l4 33h252l-4 -33q-27 -3 -42 -11t-33 -30l-302 -378l-23 -197q-2 -21 -2 -36q0 -37 26 -48
t86 -14l-4 -33h-326l4 33q31 1 51.5 4.5t39.5 12t29 25t13 41.5zM591 1030h107l-219 -208h-33z" />
    <glyph glyph-name="Thorn" unicode="&#xde;" horiz-adv-x="724" 
d="M305 580l-45 -363h144q98 0 158.5 48.5t60.5 144.5q0 170 -190 170h-128zM433 171h-179q-7 -67 -7 -76q0 -19 9.5 -31.5t30 -18.5t39.5 -8.5t50 -3.5l-4 -33h-342l4 33q31 1 51.5 4.5t39.5 12t29 25t13 41.5l65 533q3 21 3 36q0 25 -15.5 39t-36.5 17.5t-61 5.5l4 33h326
l-4 -33q-31 -1 -51.5 -4.5t-39.5 -12t-29 -25t-13 -41.5l-5 -40h123q286 0 286 -206q0 -109 -77.5 -178t-208.5 -69z" />
    <glyph glyph-name="germandbls" unicode="&#xdf;" horiz-adv-x="650" 
d="M248 601l-82 -534q-25 -163 -81 -240t-148 -77q-62 0 -94.5 23.5t-32.5 60.5q0 45 36 59h33q6 -101 78 -101q53 0 85 49.5t49 169.5l64 469h-76l9 43h72l7 45q19 113 91.5 177.5t174.5 64.5q81 0 127 -45t46 -107q0 -137 -193 -232q42 -28 64.5 -45t55 -47t48 -63.5
t15.5 -71.5q0 -92 -59.5 -150.5t-158.5 -58.5q-68 0 -108 27t-40 65q0 44 37 57h22q19 -111 116 -111q56 0 94 37t38 101q0 38 -14.5 70t-47.5 63t-59 50t-75 51l5 24q112 53 151.5 94.5t39.5 120.5q0 57 -39 92.5t-96 35.5q-63 0 -102.5 -42.5t-51.5 -123.5z" />
    <glyph glyph-name="agrave" unicode="&#xe0;" horiz-adv-x="614" 
d="M170 38q52 0 125 101q50 68 86.5 150.5t49.5 153.5q-7 24 -29.5 39.5t-51.5 15.5q-62 0 -117 -54.5t-85 -134.5t-31 -161q0 -110 53 -110zM365 58q0 66 40 202h-4q-29 -75 -78 -143q-50 -69 -91 -98t-83 -29q-111 0 -111 150q0 96 43.5 187.5t114.5 148.5t146 57
q39 0 66 -15.5t38 -41.5l65 66h27l-35 -111q-23 -92 -41.5 -203t-18.5 -152q0 -28 24 -28q34 0 95 82l23 -16q-64 -124 -150 -124q-33 0 -51.5 17.5t-18.5 50.5zM176 800h98l84 -208h-33z" />
    <glyph glyph-name="aacute" unicode="&#xe1;" horiz-adv-x="614" 
d="M170 38q52 0 125 101q50 68 86.5 150.5t49.5 153.5q-7 24 -29.5 39.5t-51.5 15.5q-62 0 -117 -54.5t-85 -134.5t-31 -161q0 -110 53 -110zM365 58q0 66 40 202h-4q-29 -75 -78 -143q-50 -69 -91 -98t-83 -29q-111 0 -111 150q0 96 43.5 187.5t114.5 148.5t146 57
q39 0 66 -15.5t38 -41.5l65 66h27l-35 -111q-23 -92 -41.5 -203t-18.5 -152q0 -28 24 -28q34 0 95 82l23 -16q-64 -124 -150 -124q-33 0 -51.5 17.5t-18.5 50.5zM463 800h107l-219 -208h-33z" />
    <glyph glyph-name="acircumflex" unicode="&#xe2;" horiz-adv-x="614" 
d="M170 38q52 0 125 101q50 68 86.5 150.5t49.5 153.5q-7 24 -29.5 39.5t-51.5 15.5q-62 0 -117 -54.5t-85 -134.5t-31 -161q0 -110 53 -110zM365 58q0 66 40 202h-4q-29 -75 -78 -143q-50 -69 -91 -98t-83 -29q-111 0 -111 150q0 96 43.5 187.5t114.5 148.5t146 57
q39 0 66 -15.5t38 -41.5l65 66h27l-35 -111q-23 -92 -41.5 -203t-18.5 -152q0 -28 24 -28q34 0 95 82l23 -16q-64 -124 -150 -124q-33 0 -51.5 17.5t-18.5 50.5zM401 800l122 -208h-34l-121 137l-163 -137h-34l174 208h56z" />
    <glyph glyph-name="atilde" unicode="&#xe3;" horiz-adv-x="614" 
d="M170 38q52 0 125 101q50 68 86.5 150.5t49.5 153.5q-7 24 -29.5 39.5t-51.5 15.5q-62 0 -117 -54.5t-85 -134.5t-31 -161q0 -110 53 -110zM365 58q0 66 40 202h-4q-29 -75 -78 -143q-50 -69 -91 -98t-83 -29q-111 0 -111 150q0 96 43.5 187.5t114.5 148.5t146 57
q39 0 66 -15.5t38 -41.5l65 66h27l-35 -111q-23 -92 -41.5 -203t-18.5 -152q0 -28 24 -28q34 0 95 82l23 -16q-64 -124 -150 -124q-33 0 -51.5 17.5t-18.5 50.5zM520 727l35 -6q-56 -111 -140 -111q-30 0 -71.5 32t-64.5 32q-25 0 -43 -12.5t-39 -44.5l-35 6q56 111 140 111
q30 0 71.5 -32t64.5 -32q25 0 43 12.5t39 44.5z" />
    <glyph glyph-name="adieresis" unicode="&#xe4;" horiz-adv-x="614" 
d="M170 38q52 0 125 101q50 68 86.5 150.5t49.5 153.5q-7 24 -29.5 39.5t-51.5 15.5q-62 0 -117 -54.5t-85 -134.5t-31 -161q0 -110 53 -110zM365 58q0 66 40 202h-4q-29 -75 -78 -143q-50 -69 -91 -98t-83 -29q-111 0 -111 150q0 96 43.5 187.5t114.5 148.5t146 57
q39 0 66 -15.5t38 -41.5l65 66h27l-35 -111q-23 -92 -41.5 -203t-18.5 -152q0 -28 24 -28q34 0 95 82l23 -16q-64 -124 -150 -124q-33 0 -51.5 17.5t-18.5 50.5zM258 628q-24 0 -40 15.5t-16 38.5q0 25 17 44t43 19q24 0 40 -15.5t16 -38.5q0 -25 -17 -44t-43 -19zM458 628
q-24 0 -40 15.5t-16 38.5q0 25 17 44t43 19q24 0 40 -15.5t16 -38.5q0 -25 -17 -44t-43 -19z" />
    <glyph glyph-name="aring" unicode="&#xe5;" horiz-adv-x="614" 
d="M170 38q52 0 125 101q50 68 86.5 150.5t49.5 153.5q-7 24 -29.5 39.5t-51.5 15.5q-62 0 -117 -54.5t-85 -134.5t-31 -161q0 -110 53 -110zM365 58q0 66 40 202h-4q-29 -75 -78 -143q-50 -69 -91 -98t-83 -29q-111 0 -111 150q0 96 43.5 187.5t114.5 148.5t146 57
q39 0 66 -15.5t38 -41.5l65 66h27l-35 -111q-23 -92 -41.5 -203t-18.5 -152q0 -28 24 -28q34 0 95 82l23 -16q-64 -124 -150 -124q-33 0 -51.5 17.5t-18.5 50.5zM424 707q0 60 -54 60q-35 0 -53 -25.5t-18 -62.5q0 -60 54 -60q35 0 53 25.5t18 62.5zM473 710
q0 -56 -35.5 -93t-90.5 -37q-44 0 -70.5 27.5t-26.5 68.5q0 56 35.5 93t90.5 37q44 0 70.5 -27.5t26.5 -68.5z" />
    <glyph glyph-name="ae" unicode="&#xe6;" horiz-adv-x="781" 
d="M709 153l26 -18q-34 -67 -90.5 -106t-123.5 -39q-159 0 -172 166q-107 -166 -198 -166q-113 0 -113 152q0 74 27.5 147t71 126t98 85.5t106.5 32.5q82 0 122 -66q73 66 164 66q54 0 86.5 -25t32.5 -72q0 -33 -16 -62t-41 -50.5t-69.5 -44t-87.5 -38.5t-109 -39v-10
q0 -79 30 -115.5t80 -36.5q58 0 98.5 29t77.5 84zM173 38q72 0 177 179q11 134 87 223q-34 58 -88 58q-62 0 -116.5 -54t-85 -134t-30.5 -159q0 -58 12.5 -85.5t43.5 -27.5zM603 490q-69 0 -117 -74.5t-60 -175.5q130 48 187.5 89t57.5 96q0 30 -17.5 47.5t-50.5 17.5z" />
    <glyph glyph-name="ccedilla" unicode="&#xe7;" horiz-adv-x="451" 
d="M287 487q-77 0 -123.5 -87t-46.5 -197q0 -83 25 -122.5t82 -39.5q87 0 157 111l26 -18q-31 -61 -84 -102.5t-120 -41.5q-10 0 -14 1l-16 -33q48 -7 80 -32.5t32 -70.5q0 -51 -32 -78t-80 -27q-63 0 -103 40l19 22q39 -24 80 -24q25 0 42.5 13t17.5 40q0 35 -31.5 53
t-77.5 21l41 79q-62 13 -92.5 62.5t-30.5 118.5q0 146 80 252t200 106q58 0 88.5 -26.5t30.5 -61.5q0 -37 -32 -53h-33q-3 43 -24.5 69t-60.5 26z" />
    <glyph glyph-name="egrave" unicode="&#xe8;" horiz-adv-x="471" 
d="M399 153l26 -18q-34 -67 -90.5 -106t-123.5 -39q-86 0 -129.5 50t-43.5 142q0 87 33 166.5t98.5 132t147.5 52.5q54 0 86.5 -25t32.5 -72q0 -33 -16 -62t-41 -50.5t-69.5 -44t-87.5 -38.5t-109 -39v-10q0 -79 30 -115.5t80 -36.5q58 0 98.5 29t77.5 84zM293 490
q-69 0 -117 -74.5t-60 -175.5q130 48 187.5 89t57.5 96q0 30 -17.5 47.5t-50.5 17.5zM150 800h98l84 -208h-33z" />
    <glyph glyph-name="eacute" unicode="&#xe9;" horiz-adv-x="471" 
d="M416 800h107l-219 -208h-33zM399 153l26 -18q-34 -67 -90.5 -106t-123.5 -39q-86 0 -129.5 50t-43.5 142q0 87 33 166.5t98.5 132t147.5 52.5q54 0 86.5 -25t32.5 -72q0 -33 -16 -62t-41 -50.5t-69.5 -44t-87.5 -38.5t-109 -39v-10q0 -79 30 -115.5t80 -36.5
q58 0 98.5 29t77.5 84zM293 490q-69 0 -117 -74.5t-60 -175.5q130 48 187.5 89t57.5 96q0 30 -17.5 47.5t-50.5 17.5z" />
    <glyph glyph-name="ecircumflex" unicode="&#xea;" horiz-adv-x="471" 
d="M359 800l122 -208h-34l-121 137l-163 -137h-34l174 208h56zM399 153l26 -18q-34 -67 -90.5 -106t-123.5 -39q-86 0 -129.5 50t-43.5 142q0 87 33 166.5t98.5 132t147.5 52.5q54 0 86.5 -25t32.5 -72q0 -33 -16 -62t-41 -50.5t-69.5 -44t-87.5 -38.5t-109 -39v-10
q0 -79 30 -115.5t80 -36.5q58 0 98.5 29t77.5 84zM293 490q-69 0 -117 -74.5t-60 -175.5q130 48 187.5 89t57.5 96q0 30 -17.5 47.5t-50.5 17.5z" />
    <glyph glyph-name="edieresis" unicode="&#xeb;" horiz-adv-x="471" 
d="M223 628q-24 0 -40 15.5t-16 38.5q0 25 17 44t43 19q24 0 40 -15.5t16 -38.5q0 -25 -17 -44t-43 -19zM423 628q-24 0 -40 15.5t-16 38.5q0 25 17 44t43 19q24 0 40 -15.5t16 -38.5q0 -25 -17 -44t-43 -19zM399 153l26 -18q-34 -67 -90.5 -106t-123.5 -39q-86 0 -129.5 50
t-43.5 142q0 87 33 166.5t98.5 132t147.5 52.5q54 0 86.5 -25t32.5 -72q0 -33 -16 -62t-41 -50.5t-69.5 -44t-87.5 -38.5t-109 -39v-10q0 -79 30 -115.5t80 -36.5q58 0 98.5 29t77.5 84zM293 490q-69 0 -117 -74.5t-60 -175.5q130 48 187.5 89t57.5 96q0 30 -17.5 47.5
t-50.5 17.5z" />
    <glyph glyph-name="igrave" unicode="&#xec;" horiz-adv-x="366" 
d="M253 469q0 -44 -33 -197t-33 -196q0 -28 25 -28q35 0 94 82l24 -16q-64 -124 -150 -124q-69 0 -69 68q0 44 33 197t33 196q0 21 -19 21q-25 0 -54.5 -26.5t-53.5 -64.5l-28 15q35 71 79 104t85 33q33 0 50 -17.5t17 -46.5zM50 800h98l84 -208h-33z" />
    <glyph glyph-name="iacute" unicode="&#xed;" horiz-adv-x="366" 
d="M338 800h107l-219 -208h-33zM253 469q0 -44 -33 -197t-33 -196q0 -28 25 -28q35 0 94 82l24 -16q-64 -124 -150 -124q-69 0 -69 68q0 44 33 197t33 196q0 21 -19 21q-25 0 -54.5 -26.5t-53.5 -64.5l-28 15q35 71 79 104t85 33q33 0 50 -17.5t17 -46.5z" />
    <glyph glyph-name="icircumflex" unicode="&#xee;" horiz-adv-x="366" 
d="M266 800l122 -208h-34l-121 137l-163 -137h-34l174 208h56zM253 469q0 -44 -33 -197t-33 -196q0 -28 25 -28q35 0 94 82l24 -16q-64 -124 -150 -124q-69 0 -69 68q0 44 33 197t33 196q0 21 -19 21q-25 0 -54.5 -26.5t-53.5 -64.5l-28 15q35 71 79 104t85 33
q33 0 50 -17.5t17 -46.5z" />
    <glyph glyph-name="idieresis" unicode="&#xef;" horiz-adv-x="366" 
d="M126 628q-24 0 -40 15.5t-16 38.5q0 25 17 44t43 19q24 0 40 -15.5t16 -38.5q0 -25 -17 -44t-43 -19zM326 628q-24 0 -40 15.5t-16 38.5q0 25 17 44t43 19q24 0 40 -15.5t16 -38.5q0 -25 -17 -44t-43 -19zM253 469q0 -44 -33 -197t-33 -196q0 -28 25 -28q35 0 94 82
l24 -16q-64 -124 -150 -124q-69 0 -69 68q0 44 33 197t33 196q0 21 -19 21q-25 0 -54.5 -26.5t-53.5 -64.5l-28 15q35 71 79 104t85 33q33 0 50 -17.5t17 -46.5z" />
    <glyph glyph-name="eth" unicode="&#xf0;" horiz-adv-x="512" 
d="M173 591l-16 34l155 59q-44 60 -105 102v5l24 16q78 -46 129 -104l89 34l16 -33l-81 -31q91 -126 91 -320q0 -93 -31 -175t-92.5 -135t-140.5 -53q-86 0 -129.5 51.5t-43.5 139.5t32.5 168t94 132t138.5 52q62 0 98 -44q-18 85 -68 164zM221 33q78 0 127 86.5t49 205.5
q0 78 -26.5 121.5t-79.5 43.5q-78 0 -127 -86.5t-49 -205.5q0 -78 26.5 -121.5t79.5 -43.5z" />
    <glyph glyph-name="ntilde" unicode="&#xf1;" horiz-adv-x="682" 
d="M427 58q0 32 39 188t39 200q0 34 -23 34q-40 0 -99.5 -69.5t-117.5 -182.5t-89 -228h-70l74 414q4 24 4 37q0 21 -19 21q-25 0 -54.5 -26.5t-53.5 -64.5l-28 15q35 71 79 104t85 33q33 0 50.5 -17.5t17.5 -46.5q0 -19 -14 -78l-57 -235h4q37 90 82 169.5t110.5 143.5
t127.5 64q64 0 64 -73q0 -56 -37.5 -203.5t-37.5 -180.5q0 -28 25 -28q35 0 94 82l24 -16q-64 -124 -150 -124q-69 0 -69 68zM562 727l35 -6q-56 -111 -140 -111q-30 0 -71.5 32t-64.5 32q-25 0 -43 -12.5t-39 -44.5l-35 6q56 111 140 111q30 0 71.5 -32t64.5 -32
q25 0 43 12.5t39 44.5z" />
    <glyph glyph-name="ograve" unicode="&#xf2;" horiz-adv-x="512" 
d="M221 33q78 0 127 86.5t49 205.5q0 78 -26.5 121.5t-79.5 43.5q-78 0 -127 -86.5t-49 -205.5q0 -78 26.5 -121.5t79.5 -43.5zM203 -10q-83 0 -124 52.5t-41 138.5q0 85 31 164.5t94.5 133.5t144.5 54q84 0 125 -52.5t41 -138.5q0 -85 -31.5 -164.5t-95 -133.5t-144.5 -54z
M141 800h98l84 -208h-33z" />
    <glyph glyph-name="oacute" unicode="&#xf3;" horiz-adv-x="512" 
d="M439 800h107l-219 -208h-33zM221 33q78 0 127 86.5t49 205.5q0 78 -26.5 121.5t-79.5 43.5q-78 0 -127 -86.5t-49 -205.5q0 -78 26.5 -121.5t79.5 -43.5zM203 -10q-83 0 -124 52.5t-41 138.5q0 85 31 164.5t94.5 133.5t144.5 54q84 0 125 -52.5t41 -138.5
q0 -85 -31.5 -164.5t-95 -133.5t-144.5 -54z" />
    <glyph glyph-name="ocircumflex" unicode="&#xf4;" horiz-adv-x="512" 
d="M359 800l122 -208h-34l-121 137l-163 -137h-34l174 208h56zM221 33q78 0 127 86.5t49 205.5q0 78 -26.5 121.5t-79.5 43.5q-78 0 -127 -86.5t-49 -205.5q0 -78 26.5 -121.5t79.5 -43.5zM203 -10q-83 0 -124 52.5t-41 138.5q0 85 31 164.5t94.5 133.5t144.5 54
q84 0 125 -52.5t41 -138.5q0 -85 -31.5 -164.5t-95 -133.5t-144.5 -54z" />
    <glyph glyph-name="otilde" unicode="&#xf5;" horiz-adv-x="512" 
d="M221 33q78 0 127 86.5t49 205.5q0 78 -26.5 121.5t-79.5 43.5q-78 0 -127 -86.5t-49 -205.5q0 -78 26.5 -121.5t79.5 -43.5zM203 -10q-83 0 -124 52.5t-41 138.5q0 85 31 164.5t94.5 133.5t144.5 54q84 0 125 -52.5t41 -138.5q0 -85 -31.5 -164.5t-95 -133.5t-144.5 -54z
M487 727l35 -6q-56 -111 -140 -111q-30 0 -71.5 32t-64.5 32q-25 0 -43 -12.5t-39 -44.5l-35 6q56 111 140 111q30 0 71.5 -32t64.5 -32q25 0 43 12.5t39 44.5z" />
    <glyph glyph-name="odieresis" unicode="&#xf6;" horiz-adv-x="512" 
d="M226 628q-24 0 -40 15.5t-16 38.5q0 25 17 44t43 19q24 0 40 -15.5t16 -38.5q0 -25 -17 -44t-43 -19zM426 628q-24 0 -40 15.5t-16 38.5q0 25 17 44t43 19q24 0 40 -15.5t16 -38.5q0 -25 -17 -44t-43 -19zM221 33q78 0 127 86.5t49 205.5q0 78 -26.5 121.5t-79.5 43.5
q-78 0 -127 -86.5t-49 -205.5q0 -78 26.5 -121.5t79.5 -43.5zM203 -10q-83 0 -124 52.5t-41 138.5q0 85 31 164.5t94.5 133.5t144.5 54q84 0 125 -52.5t41 -138.5q0 -85 -31.5 -164.5t-95 -133.5t-144.5 -54z" />
    <glyph glyph-name="divide" unicode="&#xf7;" 
d="M609 260h-540l7 51h540zM313 507q0 23 17 39.5t41 16.5t41.5 -16.5t17.5 -39.5t-17.5 -39.5t-41.5 -16.5t-41 16.5t-17 39.5zM257 64q0 23 17 39.5t41 16.5t41.5 -16.5t17.5 -39.5t-17.5 -39.5t-41.5 -16.5t-41 16.5t-17 39.5z" />
    <glyph glyph-name="oslash" unicode="&#xf8;" horiz-adv-x="512" 
d="M208 -10q-70 0 -111 38l-52 -63l-31 24l57 71q-28 47 -28 121q0 85 31 164.5t94.5 133.5t144.5 54q70 0 112 -39l49 61l33 -25l-56 -68q28 -49 28 -120q0 -85 -31.5 -164.5t-95 -133.5t-144.5 -54zM120 198q0 -42 7 -70l253 311q-28 51 -84 51q-78 0 -127 -86.5
t-49 -205.5zM226 33q78 0 127 86.5t49 205.5q0 40 -7 69l-253 -310q26 -51 84 -51z" />
    <glyph glyph-name="ugrave" unicode="&#xf9;" horiz-adv-x="653" 
d="M406 58q0 40 71 309h-4q-24 -59 -42.5 -101t-49.5 -98.5t-60 -91.5t-67.5 -60.5t-78.5 -25.5q-34 0 -53.5 22t-19.5 60q0 56 37 201t37 178q0 21 -19 21q-25 0 -54.5 -26.5t-53.5 -64.5l-28 15q35 71 79 104t85 33q33 0 50.5 -17.5t17.5 -46.5q0 -32 -39 -185.5
t-39 -197.5q0 -43 34 -43q60 0 141 144.5t140 335.5h72q-78 -373 -78 -447q0 -28 25 -28q33 0 94 82l23 -16q-64 -124 -150 -124q-33 0 -51.5 17.5t-18.5 50.5zM206 800h98l84 -208h-33z" />
    <glyph glyph-name="uacute" unicode="&#xfa;" horiz-adv-x="653" 
d="M491 800h107l-219 -208h-33zM406 58q0 40 71 309h-4q-24 -59 -42.5 -101t-49.5 -98.5t-60 -91.5t-67.5 -60.5t-78.5 -25.5q-34 0 -53.5 22t-19.5 60q0 56 37 201t37 178q0 21 -19 21q-25 0 -54.5 -26.5t-53.5 -64.5l-28 15q35 71 79 104t85 33q33 0 50.5 -17.5
t17.5 -46.5q0 -32 -39 -185.5t-39 -197.5q0 -43 34 -43q60 0 141 144.5t140 335.5h72q-78 -373 -78 -447q0 -28 25 -28q33 0 94 82l23 -16q-64 -124 -150 -124q-33 0 -51.5 17.5t-18.5 50.5z" />
    <glyph glyph-name="ucircumflex" unicode="&#xfb;" horiz-adv-x="653" 
d="M431 800l122 -208h-34l-121 137l-163 -137h-34l174 208h56zM406 58q0 40 71 309h-4q-24 -59 -42.5 -101t-49.5 -98.5t-60 -91.5t-67.5 -60.5t-78.5 -25.5q-34 0 -53.5 22t-19.5 60q0 56 37 201t37 178q0 21 -19 21q-25 0 -54.5 -26.5t-53.5 -64.5l-28 15q35 71 79 104
t85 33q33 0 50.5 -17.5t17.5 -46.5q0 -32 -39 -185.5t-39 -197.5q0 -43 34 -43q60 0 141 144.5t140 335.5h72q-78 -373 -78 -447q0 -28 25 -28q33 0 94 82l23 -16q-64 -124 -150 -124q-33 0 -51.5 17.5t-18.5 50.5z" />
    <glyph glyph-name="udieresis" unicode="&#xfc;" horiz-adv-x="653" 
d="M291 628q-24 0 -40 15.5t-16 38.5q0 25 17 44t43 19q24 0 40 -15.5t16 -38.5q0 -25 -17 -44t-43 -19zM491 628q-24 0 -40 15.5t-16 38.5q0 25 17 44t43 19q24 0 40 -15.5t16 -38.5q0 -25 -17 -44t-43 -19zM406 58q0 40 71 309h-4q-24 -59 -42.5 -101t-49.5 -98.5
t-60 -91.5t-67.5 -60.5t-78.5 -25.5q-34 0 -53.5 22t-19.5 60q0 56 37 201t37 178q0 21 -19 21q-25 0 -54.5 -26.5t-53.5 -64.5l-28 15q35 71 79 104t85 33q33 0 50.5 -17.5t17.5 -46.5q0 -32 -39 -185.5t-39 -197.5q0 -43 34 -43q60 0 141 144.5t140 335.5h72
q-78 -373 -78 -447q0 -28 25 -28q33 0 94 82l23 -16q-64 -124 -150 -124q-33 0 -51.5 17.5t-18.5 50.5z" />
    <glyph glyph-name="yacute" unicode="&#xfd;" horiz-adv-x="555" 
d="M213 450q28 -95 55 -234.5t34 -246.5q74 119 110.5 205.5t36.5 164.5q0 135 -105 135v22q23 37 73 37q46 0 69.5 -33.5t23.5 -87.5q0 -179 -139 -401q-49 -79 -96.5 -132.5t-91.5 -80.5t-81.5 -37.5t-79.5 -10.5q-57 0 -94.5 23.5t-37.5 64.5q0 19 10.5 34.5t27.5 20.5
h27q12 -93 100 -93q106 0 192 102q-12 125 -43 278.5t-55 224.5q-9 32 -19 47.5t-25 15.5q-25 0 -43 -18t-44 -59l-28 15q64 127 139 127q37 0 55 -22t29 -61zM385 800h107l-219 -208h-33z" />
    <glyph glyph-name="thorn" unicode="&#xfe;" horiz-adv-x="588" 
d="M138 225h5q25 57 54 107t67 97.5t85 75.5t96 28q54 0 79.5 -37.5t25.5 -96.5q0 -102 -41 -196t-115.5 -153.5t-162.5 -59.5q-76 0 -118 37q-29 -165 -29 -186q0 -13 4.5 -21.5t10 -13.5t18 -9t20.5 -5.5t26 -3.5l-5 -28h-240l5 28q41 3 61.5 14t26.5 43l157 871l-77 29
l1 16l146 49h21q-85 -476 -121 -585zM229 28q75 0 131.5 58t82 138t25.5 164q0 47 -11.5 69.5t-41.5 22.5q-50 0 -115.5 -69t-115.5 -164t-64 -173q15 -22 45.5 -34t63.5 -12z" />
    <glyph glyph-name="ydieresis" unicode="&#xff;" horiz-adv-x="555" 
d="M213 450q28 -95 55 -234.5t34 -246.5q74 119 110.5 205.5t36.5 164.5q0 135 -105 135v22q23 37 73 37q46 0 69.5 -33.5t23.5 -87.5q0 -179 -139 -401q-49 -79 -96.5 -132.5t-91.5 -80.5t-81.5 -37.5t-79.5 -10.5q-57 0 -94.5 23.5t-37.5 64.5q0 19 10.5 34.5t27.5 20.5
h27q12 -93 100 -93q106 0 192 102q-12 125 -43 278.5t-55 224.5q-9 32 -19 47.5t-25 15.5q-25 0 -43 -18t-44 -59l-28 15q64 127 139 127q37 0 55 -22t29 -61zM192 628q-24 0 -40 15.5t-16 38.5q0 25 17 44t43 19q24 0 40 -15.5t16 -38.5q0 -25 -17 -44t-43 -19zM392 628
q-24 0 -40 15.5t-16 38.5q0 25 17 44t43 19q24 0 40 -15.5t16 -38.5q0 -25 -17 -44t-43 -19z" />
    <glyph glyph-name="Amacron" unicode="&#x100;" horiz-adv-x="786" 
d="M589 136l-34 124h-335l-66 -125q-19 -35 -19 -58q0 -22 19.5 -32t80.5 -12l-4 -33h-242l4 33q56 5 76 42l350 656l-17 62h88l200 -718q10 -39 63 -42l-4 -33h-270l4 33q63 1 90 10t27 30q0 22 -11 63zM441 673l-197 -368h298zM332 880l6 52h264l-6 -52h-264z" />
    <glyph glyph-name="amacron" unicode="&#x101;" horiz-adv-x="614" 
d="M170 38q52 0 125 101q50 68 86.5 150.5t49.5 153.5q-7 24 -29.5 39.5t-51.5 15.5q-62 0 -117 -54.5t-85 -134.5t-31 -161q0 -110 53 -110zM365 58q0 66 40 202h-4q-29 -75 -78 -143q-50 -69 -91 -98t-83 -29q-111 0 -111 150q0 96 43.5 187.5t114.5 148.5t146 57
q39 0 66 -15.5t38 -41.5l65 66h27l-35 -111q-23 -92 -41.5 -203t-18.5 -152q0 -28 24 -28q34 0 95 82l23 -16q-64 -124 -150 -124q-33 0 -51.5 17.5t-18.5 50.5zM237 652l6 52h264l-6 -52h-264z" />
    <glyph glyph-name="Abreve" unicode="&#x102;" horiz-adv-x="786" 
d="M589 136l-34 124h-335l-66 -125q-19 -35 -19 -58q0 -22 19.5 -32t80.5 -12l-4 -33h-242l4 33q56 5 76 42l350 656l-17 62h88l200 -718q10 -39 63 -42l-4 -33h-270l4 33q63 1 90 10t27 30q0 22 -11 63zM441 673l-197 -368h298zM461 833q-75 0 -114 39.5t-39 114.5
q0 21 3 45h37q0 -142 120 -142q124 0 155 142h37q-25 -199 -199 -199z" />
    <glyph glyph-name="abreve" unicode="&#x103;" horiz-adv-x="614" 
d="M170 38q52 0 125 101q50 68 86.5 150.5t49.5 153.5q-7 24 -29.5 39.5t-51.5 15.5q-62 0 -117 -54.5t-85 -134.5t-31 -161q0 -110 53 -110zM365 58q0 66 40 202h-4q-29 -75 -78 -143q-50 -69 -91 -98t-83 -29q-111 0 -111 150q0 96 43.5 187.5t114.5 148.5t146 57
q39 0 66 -15.5t38 -41.5l65 66h27l-35 -111q-23 -92 -41.5 -203t-18.5 -152q0 -28 24 -28q34 0 95 82l23 -16q-64 -124 -150 -124q-33 0 -51.5 17.5t-18.5 50.5zM356 601q-75 0 -114 39.5t-39 114.5q0 21 3 45h37q0 -142 120 -142q124 0 155 142h37q-25 -199 -199 -199z" />
    <glyph glyph-name="Aogonek" unicode="&#x104;" horiz-adv-x="786" 
d="M589 136l-34 124h-335l-66 -125q-19 -35 -19 -58q0 -22 19.5 -32t80.5 -12l-4 -33h-242l4 33q56 5 76 42l350 656l-17 62h88l200 -718q10 -39 63 -42l-4 -33q-150 -46 -150 -137q0 -66 76 -66q31 0 68 15l6 -25q-40 -37 -104 -37q-44 0 -76 25t-32 70q0 98 128 155h-186
l4 33q63 1 90 10t27 30q0 22 -11 63zM441 673l-197 -368h298z" />
    <glyph glyph-name="aogonek" unicode="&#x105;" horiz-adv-x="614" 
d="M365 58q0 66 40 202h-4q-29 -75 -78 -143q-50 -69 -91 -98t-83 -29q-111 0 -111 150q0 96 43.5 187.5t114.5 148.5t146 57q39 0 66 -15.5t38 -41.5l65 66h27l-35 -111q-23 -95 -41.5 -200t-18.5 -145q0 -28 18 -28q17 0 39 17t62 55l20 -20q-40 -43 -104 -99.5
t-87.5 -87.5t-23.5 -66q0 -60 75 -60q31 0 68 15l6 -25q-40 -37 -104 -37q-44 0 -75 25t-31 70q0 76 108 150q-49 9 -49 63zM170 38q52 0 125 101q50 68 86.5 150.5t49.5 153.5q-7 24 -29.5 39.5t-51.5 15.5q-62 0 -117 -54.5t-85 -134.5t-31 -161q0 -110 53 -110z" />
    <glyph glyph-name="Cacute" unicode="&#x106;" horiz-adv-x="777" 
d="M409 35q95 0 161.5 50t116.5 146h28l-43 -180q-47 -30 -119.5 -45.5t-143.5 -15.5q-151 0 -244.5 90.5t-93.5 256.5q0 83 25 161.5t72.5 144.5t127.5 106.5t180 40.5q159 0 266 -79l-13 -158h-22q-16 92 -81 141.5t-150 49.5q-103 0 -176 -56.5t-105.5 -143.5t-32.5 -194
q0 -150 69.5 -232.5t177.5 -82.5zM594 1030h107l-219 -208h-33z" />
    <glyph glyph-name="cacute" unicode="&#x107;" horiz-adv-x="451" 
d="M419 800h107l-219 -208h-33zM287 487q-77 0 -123.5 -87t-46.5 -197q0 -83 25 -122.5t82 -39.5q87 0 157 111l26 -18q-31 -61 -84 -102.5t-120 -41.5q-83 0 -124 52.5t-41 132.5q0 146 80 252t200 106q58 0 88.5 -26.5t30.5 -61.5q0 -37 -32 -53h-33q-3 43 -24.5 69
t-60.5 26z" />
    <glyph glyph-name="Ccircumflex" unicode="&#x108;" horiz-adv-x="777" 
d="M409 35q95 0 161.5 50t116.5 146h28l-43 -180q-47 -30 -119.5 -45.5t-143.5 -15.5q-151 0 -244.5 90.5t-93.5 256.5q0 83 25 161.5t72.5 144.5t127.5 106.5t180 40.5q159 0 266 -79l-13 -158h-22q-16 92 -81 141.5t-150 49.5q-103 0 -176 -56.5t-105.5 -143.5t-32.5 -194
q0 -150 69.5 -232.5t177.5 -82.5zM531 1030l122 -208h-34l-121 137l-163 -137h-34l174 208h56z" />
    <glyph glyph-name="ccircumflex" unicode="&#x109;" horiz-adv-x="451" 
d="M366 800l122 -208h-34l-121 137l-163 -137h-34l174 208h56zM287 487q-77 0 -123.5 -87t-46.5 -197q0 -83 25 -122.5t82 -39.5q87 0 157 111l26 -18q-31 -61 -84 -102.5t-120 -41.5q-83 0 -124 52.5t-41 132.5q0 146 80 252t200 106q58 0 88.5 -26.5t30.5 -61.5
q0 -37 -32 -53h-33q-3 43 -24.5 69t-60.5 26z" />
    <glyph glyph-name="Cdotaccent" unicode="&#x10a;" horiz-adv-x="777" 
d="M483 851q-24 0 -40 15.5t-16 38.5q0 25 17 44t43 19q24 0 40 -15.5t16 -38.5q0 -25 -17 -44t-43 -19zM409 35q95 0 161.5 50t116.5 146h28l-43 -180q-47 -30 -119.5 -45.5t-143.5 -15.5q-151 0 -244.5 90.5t-93.5 256.5q0 83 25 161.5t72.5 144.5t127.5 106.5t180 40.5
q159 0 266 -79l-13 -158h-22q-16 92 -81 141.5t-150 49.5q-103 0 -176 -56.5t-105.5 -143.5t-32.5 -194q0 -150 69.5 -232.5t177.5 -82.5z" />
    <glyph glyph-name="cdotaccent" unicode="&#x10b;" horiz-adv-x="451" 
d="M287 487q-77 0 -123.5 -87t-46.5 -197q0 -83 25 -122.5t82 -39.5q87 0 157 111l26 -18q-31 -61 -84 -102.5t-120 -41.5q-83 0 -124 52.5t-41 132.5q0 146 80 252t200 106q58 0 88.5 -26.5t30.5 -61.5q0 -37 -32 -53h-33q-3 43 -24.5 69t-60.5 26zM326 628q-24 0 -40 15.5
t-16 38.5q0 25 17 44t43 19q24 0 40 -15.5t16 -38.5q0 -25 -17 -44t-43 -19z" />
    <glyph glyph-name="Ccaron" unicode="&#x10c;" horiz-adv-x="777" 
d="M409 35q95 0 161.5 50t116.5 146h28l-43 -180q-47 -30 -119.5 -45.5t-143.5 -15.5q-151 0 -244.5 90.5t-93.5 256.5q0 83 25 161.5t72.5 144.5t127.5 106.5t180 40.5q159 0 266 -79l-13 -158h-22q-16 92 -81 141.5t-150 49.5q-103 0 -176 -56.5t-105.5 -143.5t-32.5 -194
q0 -150 69.5 -232.5t177.5 -82.5zM452 822l-122 208h34l121 -137l163 137h34l-174 -208h-56z" />
    <glyph glyph-name="ccaron" unicode="&#x10d;" horiz-adv-x="451" 
d="M285 592l-122 208h34l121 -137l163 137h34l-174 -208h-56zM287 487q-77 0 -123.5 -87t-46.5 -197q0 -83 25 -122.5t82 -39.5q87 0 157 111l26 -18q-31 -61 -84 -102.5t-120 -41.5q-83 0 -124 52.5t-41 132.5q0 146 80 252t200 106q58 0 88.5 -26.5t30.5 -61.5
q0 -37 -32 -53h-33q-3 43 -24.5 69t-60.5 26z" />
    <glyph glyph-name="Dcaron" unicode="&#x10e;" horiz-adv-x="858" 
d="M456 822l-122 208h34l121 -137l163 137h34l-174 -208h-56zM397 0h-367l4 33q31 1 51.5 4.5t39.5 12t29 25t13 41.5l65 533q3 21 3 36q0 25 -15.5 39t-36.5 17.5t-61 5.5l4 33h345q180 0 271 -92.5t91 -232.5q0 -210 -122 -332.5t-314 -122.5zM350 44h40q156 0 253.5 104
t97.5 294q0 133 -72.5 213.5t-218.5 80.5h-126l-71 -579q-4 -36 -4 -59q0 -30 23.5 -42t77.5 -12z" />
    <glyph glyph-name="dcaron" unicode="&#x10f;" horiz-adv-x="629" 
d="M667 800h93l-123 -208h-31zM179 38q52 0 127 99q53 70 91.5 152.5t51.5 151.5q-25 57 -92 57q-63 0 -119 -54.5t-87 -135t-32 -160.5q0 -110 60 -110zM499 716l-77 29l1 16l148 49h20q-134 -662 -134 -734q0 -28 24 -28q36 0 95 82l23 -16q-63 -124 -149 -124
q-33 0 -51.5 17.5t-18.5 50.5q0 56 40 201h-4q-25 -64 -81 -142q-91 -127 -178 -127q-59 0 -89 40t-30 110q0 96 44.5 187.5t117.5 148.5t150 57q74 0 108 -48q36 183 41 231z" />
    <glyph glyph-name="Dcroat" unicode="&#x110;" horiz-adv-x="858" 
d="M84 375l5 44h115l28 230q3 21 3 36q0 25 -15.5 39t-36.5 17.5t-61 5.5l4 33h345q180 0 271 -92.5t91 -232.5q0 -210 -122 -332.5t-314 -122.5h-367l4 33q31 1 51.5 4.5t39.5 12t29 25t13 41.5l31 259h-114zM350 44h40q156 0 253.5 104t97.5 294q0 133 -72.5 213.5
t-218.5 80.5h-126l-39 -317h255l-5 -44h-256l-26 -218q-4 -36 -4 -59q0 -30 23.5 -42t77.5 -12z" />
    <glyph glyph-name="dcroat" unicode="&#x111;" horiz-adv-x="629" 
d="M499 716l-77 29l1 16l148 49h20l-34 -167h97l-8 -38h-96q-93 -483 -93 -529q0 -28 24 -28q36 0 95 82l23 -16q-63 -124 -149 -124q-33 0 -51.5 17.5t-18.5 50.5q0 56 40 201h-4q-25 -64 -81 -142q-91 -127 -178 -127q-59 0 -89 40t-30 110q0 96 44.5 187.5t117.5 148.5
t150 57q74 0 108 -48q21 106 23 120h-186l8 38h185zM179 38q52 0 127 99q53 70 91.5 152.5t51.5 151.5q-25 57 -92 57q-63 0 -119 -54.5t-87 -135t-32 -160.5q0 -110 60 -110z" />
    <glyph glyph-name="Emacron" unicode="&#x112;" horiz-adv-x="777" 
d="M347 880l6 52h264l-6 -52h-264zM665 0h-635l4 33q31 1 51.5 4.5t39.5 12t29 25t13 41.5l65 533q3 21 3 36q0 25 -15.5 39t-36.5 17.5t-61 5.5l4 33h629l-19 -177h-20q-23 77 -53 105t-96 28h-243l-39 -317h223q36 0 57 25.5t37 79.5h27l-31 -253h-27q-3 53 -18.5 78.5
t-51.5 25.5h-221l-27 -218q-4 -36 -4 -59q0 -30 25 -42t87 -12h129q33 0 55.5 4.5t39 11.5t36 28t33.5 40t43 62h26z" />
    <glyph glyph-name="emacron" unicode="&#x113;" horiz-adv-x="471" 
d="M399 153l26 -18q-34 -67 -90.5 -106t-123.5 -39q-86 0 -129.5 50t-43.5 142q0 87 33 166.5t98.5 132t147.5 52.5q54 0 86.5 -25t32.5 -72q0 -33 -16 -62t-41 -50.5t-69.5 -44t-87.5 -38.5t-109 -39v-10q0 -79 30 -115.5t80 -36.5q58 0 98.5 29t77.5 84zM293 490
q-69 0 -117 -74.5t-60 -175.5q130 48 187.5 89t57.5 96q0 30 -17.5 47.5t-50.5 17.5zM176 652l6 52h264l-6 -52h-264z" />
    <glyph glyph-name="Ebreve" unicode="&#x114;" horiz-adv-x="777" 
d="M492 833q-75 0 -114 39.5t-39 114.5q0 21 3 45h37q0 -142 120 -142q124 0 155 142h37q-25 -199 -199 -199zM665 0h-635l4 33q31 1 51.5 4.5t39.5 12t29 25t13 41.5l65 533q3 21 3 36q0 25 -15.5 39t-36.5 17.5t-61 5.5l4 33h629l-19 -177h-20q-23 77 -53 105t-96 28h-243
l-39 -317h223q36 0 57 25.5t37 79.5h27l-31 -253h-27q-3 53 -18.5 78.5t-51.5 25.5h-221l-27 -218q-4 -36 -4 -59q0 -30 25 -42t87 -12h129q33 0 55.5 4.5t39 11.5t36 28t33.5 40t43 62h26z" />
    <glyph glyph-name="ebreve" unicode="&#x115;" horiz-adv-x="471" 
d="M399 153l26 -18q-34 -67 -90.5 -106t-123.5 -39q-86 0 -129.5 50t-43.5 142q0 87 33 166.5t98.5 132t147.5 52.5q54 0 86.5 -25t32.5 -72q0 -33 -16 -62t-41 -50.5t-69.5 -44t-87.5 -38.5t-109 -39v-10q0 -79 30 -115.5t80 -36.5q58 0 98.5 29t77.5 84zM293 490
q-69 0 -117 -74.5t-60 -175.5q130 48 187.5 89t57.5 96q0 30 -17.5 47.5t-50.5 17.5zM312 601q-75 0 -114 39.5t-39 114.5q0 21 3 45h37q0 -142 120 -142q124 0 155 142h37q-25 -199 -199 -199z" />
    <glyph glyph-name="Edotaccent" unicode="&#x116;" horiz-adv-x="777" 
d="M486 851q-24 0 -40 15.5t-16 38.5q0 25 17 44t43 19q24 0 40 -15.5t16 -38.5q0 -25 -17 -44t-43 -19zM665 0h-635l4 33q31 1 51.5 4.5t39.5 12t29 25t13 41.5l65 533q3 21 3 36q0 25 -15.5 39t-36.5 17.5t-61 5.5l4 33h629l-19 -177h-20q-23 77 -53 105t-96 28h-243
l-39 -317h223q36 0 57 25.5t37 79.5h27l-31 -253h-27q-3 53 -18.5 78.5t-51.5 25.5h-221l-27 -218q-4 -36 -4 -59q0 -30 25 -42t87 -12h129q33 0 55.5 4.5t39 11.5t36 28t33.5 40t43 62h26z" />
    <glyph glyph-name="edotaccent" unicode="&#x117;" horiz-adv-x="471" 
d="M399 153l26 -18q-34 -67 -90.5 -106t-123.5 -39q-86 0 -129.5 50t-43.5 142q0 87 33 166.5t98.5 132t147.5 52.5q54 0 86.5 -25t32.5 -72q0 -33 -16 -62t-41 -50.5t-69.5 -44t-87.5 -38.5t-109 -39v-10q0 -79 30 -115.5t80 -36.5q58 0 98.5 29t77.5 84zM293 490
q-69 0 -117 -74.5t-60 -175.5q130 48 187.5 89t57.5 96q0 30 -17.5 47.5t-50.5 17.5zM324 628q-24 0 -40 15.5t-16 38.5q0 25 17 44t43 19q24 0 40 -15.5t16 -38.5q0 -25 -17 -44t-43 -19z" />
    <glyph glyph-name="Eogonek" unicode="&#x118;" horiz-adv-x="777" 
d="M126 780h629l-19 -177h-20q-23 77 -53 105t-96 28h-243l-39 -317h223q36 0 57 25.5t37 79.5h27l-31 -253h-27q-3 53 -18.5 78.5t-51.5 25.5h-221l-27 -218q-4 -36 -4 -59q0 -30 25 -42t87 -12h129q33 0 55.5 4.5t39 11.5t36 28t33.5 40t43 62h26l-58 -190
q-150 -46 -150 -137q0 -66 76 -66q31 0 68 15l6 -25q-40 -37 -104 -37q-44 0 -76 25t-32 70q0 98 128 155h-551l4 33q31 1 51.5 4.5t39.5 12t29 25t13 41.5l65 533q3 21 3 36q0 25 -15.5 39t-36.5 17.5t-61 5.5z" />
    <glyph glyph-name="eogonek" unicode="&#x119;" horiz-adv-x="471" 
d="M399 153l26 -18q-48 -94 -135 -130q-84 -55 -84 -137q0 -33 20 -52t56 -19q31 0 68 15l6 -25q-40 -37 -104 -37q-44 0 -75 25.5t-31 70.5q0 86 73 144q-181 0 -181 192q0 87 33 166.5t98.5 132t147.5 52.5q54 0 86.5 -25t32.5 -72q0 -33 -16 -62t-41 -50.5t-69.5 -44
t-87.5 -38.5t-109 -39v-10q0 -79 30 -115.5t80 -36.5q58 0 98.5 29t77.5 84zM293 490q-69 0 -117 -74.5t-60 -175.5q130 48 187.5 89t57.5 96q0 30 -17.5 47.5t-50.5 17.5z" />
    <glyph glyph-name="Ecaron" unicode="&#x11a;" horiz-adv-x="777" 
d="M446 822l-122 208h34l121 -137l163 137h34l-174 -208h-56zM665 0h-635l4 33q31 1 51.5 4.5t39.5 12t29 25t13 41.5l65 533q3 21 3 36q0 25 -15.5 39t-36.5 17.5t-61 5.5l4 33h629l-19 -177h-20q-23 77 -53 105t-96 28h-243l-39 -317h223q36 0 57 25.5t37 79.5h27
l-31 -253h-27q-3 53 -18.5 78.5t-51.5 25.5h-221l-27 -218q-4 -36 -4 -59q0 -30 25 -42t87 -12h129q33 0 55.5 4.5t39 11.5t36 28t33.5 40t43 62h26z" />
    <glyph glyph-name="ecaron" unicode="&#x11b;" horiz-adv-x="471" 
d="M274 592l-122 208h34l121 -137l163 137h34l-174 -208h-56zM399 153l26 -18q-34 -67 -90.5 -106t-123.5 -39q-86 0 -129.5 50t-43.5 142q0 87 33 166.5t98.5 132t147.5 52.5q54 0 86.5 -25t32.5 -72q0 -33 -16 -62t-41 -50.5t-69.5 -44t-87.5 -38.5t-109 -39v-10
q0 -79 30 -115.5t80 -36.5q58 0 98.5 29t77.5 84zM293 490q-69 0 -117 -74.5t-60 -175.5q130 48 187.5 89t57.5 96q0 30 -17.5 47.5t-50.5 17.5z" />
    <glyph glyph-name="Gcircumflex" unicode="&#x11c;" horiz-adv-x="812" 
d="M599 106l14 117q2 21 2 36q0 25 -15.5 39t-36.5 17.5t-61 5.5l4 33h326l-4 -33q-31 -1 -51.5 -4.5t-39.5 -12t-29 -25t-13 -41.5l-21 -171q-111 -77 -265 -77q-151 0 -244.5 90.5t-93.5 256.5q0 83 25 161.5t72.5 144.5t127.5 106.5t180 40.5q159 0 266 -79l-13 -158h-22
q-16 92 -81 141.5t-150 49.5q-103 0 -176 -56.5t-105.5 -143.5t-32.5 -194q0 -150 69.5 -232.5t177.5 -82.5q58 0 109 18.5t81 52.5zM521 1030l122 -208h-34l-121 137l-163 -137h-34l174 208h56z" />
    <glyph glyph-name="gcircumflex" unicode="&#x11d;" horiz-adv-x="534" 
d="M360 800l122 -208h-34l-121 137l-163 -137h-34l174 208h56zM228 149q-24 0 -47 5q-43 -22 -43 -52q0 -21 34 -32l146 -46q57 -18 89 -46t32 -81q0 -67 -72.5 -107t-175.5 -40q-108 0 -174.5 40t-66.5 103q0 97 158 131q-23 20 -23 53q0 48 68 88q-79 35 -79 131
q0 105 63.5 171t155.5 66q68 0 108 -40q42 55 92 55q26 0 41 -14t15 -38q0 -18 -12 -33.5t-27 -20.5h-26q0 46 -29 46q-17 0 -39 -11q30 -38 30 -91q0 -105 -63.5 -171t-154.5 -66zM288 -38l-154 49q-58 -20 -83.5 -46t-25.5 -67q0 -52 47.5 -81t121.5 -29q89 0 135.5 26.5
t46.5 72.5q0 31 -20.5 45.5t-67.5 29.5zM240 187q53 0 94 52t41 139q0 117 -93 117q-53 0 -94 -52t-41 -139q0 -117 93 -117z" />
    <glyph glyph-name="Gbreve" unicode="&#x11e;" horiz-adv-x="812" 
d="M479 833q-75 0 -114 39.5t-39 114.5q0 21 3 45h37q0 -142 120 -142q124 0 155 142h37q-25 -199 -199 -199zM599 106l14 117q2 21 2 36q0 25 -15.5 39t-36.5 17.5t-61 5.5l4 33h326l-4 -33q-31 -1 -51.5 -4.5t-39.5 -12t-29 -25t-13 -41.5l-21 -171q-111 -77 -265 -77
q-151 0 -244.5 90.5t-93.5 256.5q0 83 25 161.5t72.5 144.5t127.5 106.5t180 40.5q159 0 266 -79l-13 -158h-22q-16 92 -81 141.5t-150 49.5q-103 0 -176 -56.5t-105.5 -143.5t-32.5 -194q0 -150 69.5 -232.5t177.5 -82.5q58 0 109 18.5t81 52.5z" />
    <glyph glyph-name="gbreve" unicode="&#x11f;" horiz-adv-x="534" 
d="M228 149q-24 0 -47 5q-43 -22 -43 -52q0 -21 34 -32l146 -46q57 -18 89 -46t32 -81q0 -67 -72.5 -107t-175.5 -40q-108 0 -174.5 40t-66.5 103q0 97 158 131q-23 20 -23 53q0 48 68 88q-79 35 -79 131q0 105 63.5 171t155.5 66q68 0 108 -40q42 55 92 55q26 0 41 -14
t15 -38q0 -18 -12 -33.5t-27 -20.5h-26q0 46 -29 46q-17 0 -39 -11q30 -38 30 -91q0 -105 -63.5 -171t-154.5 -66zM288 -38l-154 49q-58 -20 -83.5 -46t-25.5 -67q0 -52 47.5 -81t121.5 -29q89 0 135.5 26.5t46.5 72.5q0 31 -20.5 45.5t-67.5 29.5zM240 187q53 0 94 52
t41 139q0 117 -93 117q-53 0 -94 -52t-41 -139q0 -117 93 -117zM307 601q-75 0 -114 39.5t-39 114.5q0 21 3 45h37q0 -142 120 -142q124 0 155 142h37q-25 -199 -199 -199z" />
    <glyph glyph-name="Gdotaccent" unicode="&#x120;" horiz-adv-x="812" 
d="M479 851q-24 0 -40 15.5t-16 38.5q0 25 17 44t43 19q24 0 40 -15.5t16 -38.5q0 -25 -17 -44t-43 -19zM599 106l14 117q2 21 2 36q0 25 -15.5 39t-36.5 17.5t-61 5.5l4 33h326l-4 -33q-31 -1 -51.5 -4.5t-39.5 -12t-29 -25t-13 -41.5l-21 -171q-111 -77 -265 -77
q-151 0 -244.5 90.5t-93.5 256.5q0 83 25 161.5t72.5 144.5t127.5 106.5t180 40.5q159 0 266 -79l-13 -158h-22q-16 92 -81 141.5t-150 49.5q-103 0 -176 -56.5t-105.5 -143.5t-32.5 -194q0 -150 69.5 -232.5t177.5 -82.5q58 0 109 18.5t81 52.5z" />
    <glyph glyph-name="gdotaccent" unicode="&#x121;" horiz-adv-x="534" 
d="M228 149q-24 0 -47 5q-43 -22 -43 -52q0 -21 34 -32l146 -46q57 -18 89 -46t32 -81q0 -67 -72.5 -107t-175.5 -40q-108 0 -174.5 40t-66.5 103q0 97 158 131q-23 20 -23 53q0 48 68 88q-79 35 -79 131q0 105 63.5 171t155.5 66q68 0 108 -40q42 55 92 55q26 0 41 -14
t15 -38q0 -18 -12 -33.5t-27 -20.5h-26q0 46 -29 46q-17 0 -39 -11q30 -38 30 -91q0 -105 -63.5 -171t-154.5 -66zM288 -38l-154 49q-58 -20 -83.5 -46t-25.5 -67q0 -52 47.5 -81t121.5 -29q89 0 135.5 26.5t46.5 72.5q0 31 -20.5 45.5t-67.5 29.5zM240 187q53 0 94 52
t41 139q0 117 -93 117q-53 0 -94 -52t-41 -139q0 -117 93 -117zM318 628q-24 0 -40 15.5t-16 38.5q0 25 17 44t43 19q24 0 40 -15.5t16 -38.5q0 -25 -17 -44t-43 -19z" />
    <glyph glyph-name="Gcommaaccent" unicode="&#x122;" horiz-adv-x="812" 
d="M373 -164h-31q-44 11 -44 52q0 24 16 40t43 16q33 0 50 -20.5t17 -51.5q0 -48 -38.5 -84t-106.5 -38l6 34q36 4 55.5 15.5t32.5 36.5zM599 106l14 117q2 21 2 36q0 25 -15.5 39t-36.5 17.5t-61 5.5l4 33h326l-4 -33q-31 -1 -51.5 -4.5t-39.5 -12t-29 -25t-13 -41.5
l-21 -171q-111 -77 -265 -77q-151 0 -244.5 90.5t-93.5 256.5q0 83 25 161.5t72.5 144.5t127.5 106.5t180 40.5q159 0 266 -79l-13 -158h-22q-16 92 -81 141.5t-150 49.5q-103 0 -176 -56.5t-105.5 -143.5t-32.5 -194q0 -150 69.5 -232.5t177.5 -82.5q58 0 109 18.5t81 52.5
z" />
    <glyph glyph-name="gcommaaccent" unicode="&#x123;" horiz-adv-x="534" 
d="M300 706h31q44 -11 44 -52q0 -24 -16 -40t-43 -16q-33 0 -50 20.5t-17 51.5q0 48 38.5 84t106.5 38l-6 -34q-36 -4 -55.5 -15.5t-32.5 -36.5zM228 149q-24 0 -47 5q-43 -22 -43 -52q0 -21 34 -32l146 -46q57 -18 89 -46t32 -81q0 -67 -72.5 -107t-175.5 -40
q-108 0 -174.5 40t-66.5 103q0 97 158 131q-23 20 -23 53q0 48 68 88q-79 35 -79 131q0 105 63.5 171t155.5 66q68 0 108 -40q42 55 92 55q26 0 41 -14t15 -38q0 -18 -12 -33.5t-27 -20.5h-26q0 46 -29 46q-17 0 -39 -11q30 -38 30 -91q0 -105 -63.5 -171t-154.5 -66z
M288 -38l-154 49q-58 -20 -83.5 -46t-25.5 -67q0 -52 47.5 -81t121.5 -29q89 0 135.5 26.5t46.5 72.5q0 31 -20.5 45.5t-67.5 29.5zM240 187q53 0 94 52t41 139q0 117 -93 117q-53 0 -94 -52t-41 -139q0 -117 93 -117z" />
    <glyph glyph-name="Hcircumflex" unicode="&#x124;" horiz-adv-x="959" 
d="M656 780h326l-4 -33q-31 -1 -51.5 -4.5t-39.5 -12t-29 -25t-13 -41.5l-65 -533q-3 -21 -3 -36q0 -25 15.5 -39t36.5 -17.5t61 -5.5l-4 -33h-326l4 33q31 1 51.5 4.5t39.5 12t29 25t13 41.5l31 258h-449l-29 -243q-3 -21 -3 -36q0 -25 15.5 -39t36.5 -17.5t61 -5.5l-4 -33
h-326l4 33q31 1 51.5 4.5t39.5 12t29 25t13 41.5l65 533q3 21 3 36q0 25 -15.5 39t-36.5 17.5t-61 5.5l4 33h326l-4 -33q-31 -1 -51.5 -4.5t-39.5 -12t-29 -25t-13 -41.5l-30 -245h449l28 230q3 21 3 36q0 25 -15.5 39t-36.5 17.5t-61 5.5zM611 1030l122 -208h-34l-121 137
l-163 -137h-34l174 208h56z" />
    <glyph glyph-name="hcircumflex" unicode="&#x125;" horiz-adv-x="631" 
d="M125 0h-70q105 547 124 716l-77 29l1 16l146 49h20q-83 -502 -130 -654h4q37 90 82 169.5t110.5 143.5t127.5 64q64 0 64 -73q0 -56 -37.5 -203.5t-37.5 -180.5q0 -28 25 -28q35 0 94 82l24 -16q-64 -124 -150 -124q-33 0 -51.5 17.5t-18.5 50.5q0 32 39.5 188t39.5 200
q0 34 -23 34q-40 0 -99.5 -69.5t-117.5 -182.5t-89 -228zM278 1030l122 -208h-34l-121 137l-163 -137h-34l174 208h56z" />
    <glyph glyph-name="Hbar" unicode="&#x126;" horiz-adv-x="959" 
d="M656 780h326l-4 -33q-31 -1 -51.5 -4.5t-39.5 -12t-29 -25t-13 -41.5l-8 -61h122l-6 -45h-121l-52 -427q-3 -21 -3 -36q0 -25 15.5 -39t36.5 -17.5t61 -5.5l-4 -33h-326l4 33q31 1 51.5 4.5t39.5 12t29 25t13 41.5l31 258h-449l-29 -243q-3 -21 -3 -36q0 -25 15.5 -39
t36.5 -17.5t61 -5.5l-4 -33h-326l4 33q31 1 51.5 4.5t39.5 12t29 25t13 41.5l54 442h-117l5 45h117l6 46q3 21 3 36q0 25 -15.5 39t-36.5 17.5t-61 5.5l4 33h326l-4 -33q-31 -1 -51.5 -4.5t-39.5 -12t-29 -25t-13 -41.5l-8 -61h449l6 46q3 21 3 36q0 25 -15.5 39t-36.5 17.5
t-61 5.5zM285 419h449l17 139h-449z" />
    <glyph glyph-name="hbar" unicode="&#x127;" horiz-adv-x="631" 
d="M69 605l8 38h92l10 73l-77 29l1 16l146 49h20l-28 -167h187l-8 -38h-186q-56 -321 -95 -449h4q37 90 82 169.5t110.5 143.5t127.5 64q64 0 64 -73q0 -56 -37.5 -203.5t-37.5 -180.5q0 -28 25 -28q35 0 94 82l24 -16q-64 -124 -150 -124q-33 0 -51.5 17.5t-18.5 50.5
q0 32 39.5 188t39.5 200q0 34 -23 34q-40 0 -99.5 -69.5t-117.5 -182.5t-89 -228h-70q80 418 109 605h-95z" />
    <glyph glyph-name="Itilde" unicode="&#x128;" horiz-adv-x="429" 
d="M126 780h326l-4 -33q-31 -1 -51.5 -4.5t-39.5 -12t-29 -25t-13 -41.5l-65 -533q-3 -21 -3 -36q0 -25 15.5 -39t36.5 -17.5t61 -5.5l-4 -33h-326l4 33q31 1 51.5 4.5t39.5 12t29 25t13 41.5l65 533q3 21 3 36q0 25 -15.5 39t-36.5 17.5t-61 5.5zM462 964l35 -6
q-56 -111 -140 -111q-30 0 -71.5 32t-64.5 32q-25 0 -43 -12.5t-39 -44.5l-35 6q56 111 140 111q30 0 71.5 -32t64.5 -32q25 0 43 12.5t39 44.5z" />
    <glyph glyph-name="itilde" unicode="&#x129;" horiz-adv-x="366" 
d="M253 469q0 -44 -33 -197t-33 -196q0 -28 25 -28q35 0 94 82l24 -16q-64 -124 -150 -124q-69 0 -69 68q0 44 33 197t33 196q0 21 -19 21q-25 0 -54.5 -26.5t-53.5 -64.5l-28 15q35 71 79 104t85 33q33 0 50 -17.5t17 -46.5zM370 727l33 -6q-53 -111 -132 -111
q-28 0 -67.5 32t-60.5 32q-24 0 -41 -12.5t-36 -44.5l-33 6q53 111 132 111q28 0 67.5 -32t60.5 -32q24 0 41 12.5t36 44.5z" />
    <glyph glyph-name="Imacron" unicode="&#x12a;" horiz-adv-x="429" 
d="M126 780h326l-4 -33q-31 -1 -51.5 -4.5t-39.5 -12t-29 -25t-13 -41.5l-65 -533q-3 -21 -3 -36q0 -25 15.5 -39t36.5 -17.5t61 -5.5l-4 -33h-326l4 33q31 1 51.5 4.5t39.5 12t29 25t13 41.5l65 533q3 21 3 36q0 25 -15.5 39t-36.5 17.5t-61 5.5zM170 880l6 52h264l-6 -52
h-264z" />
    <glyph glyph-name="imacron" unicode="&#x12b;" horiz-adv-x="366" 
d="M102 652l6 52h234l-6 -52h-234zM253 469q0 -44 -33 -197t-33 -196q0 -28 25 -28q35 0 94 82l24 -16q-64 -124 -150 -124q-69 0 -69 68q0 44 33 197t33 196q0 21 -19 21q-25 0 -54.5 -26.5t-53.5 -64.5l-28 15q35 71 79 104t85 33q33 0 50 -17.5t17 -46.5z" />
    <glyph glyph-name="Ibreve" unicode="&#x12c;" horiz-adv-x="429" 
d="M126 780h326l-4 -33q-31 -1 -51.5 -4.5t-39.5 -12t-29 -25t-13 -41.5l-65 -533q-3 -21 -3 -36q0 -25 15.5 -39t36.5 -17.5t61 -5.5l-4 -33h-326l4 33q31 1 51.5 4.5t39.5 12t29 25t13 41.5l65 533q3 21 3 36q0 25 -15.5 39t-36.5 17.5t-61 5.5zM302 833q-75 0 -114 39.5
t-39 114.5q0 21 3 45h37q0 -142 120 -142q124 0 155 142h37q-25 -199 -199 -199z" />
    <glyph glyph-name="ibreve" unicode="&#x12d;" horiz-adv-x="366" 
d="M253 469q0 -44 -33 -197t-33 -196q0 -28 25 -28q35 0 94 82l24 -16q-64 -124 -150 -124q-69 0 -69 68q0 44 33 197t33 196q0 21 -19 21q-25 0 -54.5 -26.5t-53.5 -64.5l-28 15q35 71 79 104t85 33q33 0 50 -17.5t17 -46.5zM222 601q-75 0 -114 39.5t-39 114.5q0 21 3 45
h37q0 -142 120 -142q124 0 155 142h37q-25 -199 -199 -199z" />
    <glyph glyph-name="Iogonek" unicode="&#x12e;" horiz-adv-x="429" 
d="M126 780h326l-4 -33q-31 -1 -51.5 -4.5t-39.5 -12t-29 -25t-13 -41.5l-65 -533q-3 -21 -3 -36q0 -25 15.5 -39t36.5 -17.5t61 -5.5l-4 -33q-150 -46 -150 -137q0 -66 76 -66q31 0 68 15l6 -25q-40 -37 -104 -37q-44 0 -76 25t-32 70q0 98 128 155h-242l4 33
q31 1 51.5 4.5t39.5 12t29 25t13 41.5l65 533q3 21 3 36q0 25 -15.5 39t-36.5 17.5t-61 5.5z" />
    <glyph glyph-name="iogonek" unicode="&#x12f;" horiz-adv-x="366" 
d="M188 86q0 -13 6 -20.5t13 -7.5q17 0 39 17t62 55l20 -20q-40 -43 -104 -99.5t-87.5 -87.5t-23.5 -66q0 -60 75 -60q31 0 68 15l6 -25q-40 -37 -104 -37q-44 0 -75 25t-31 70q0 76 108 150q-49 9 -49 63q0 44 33 197t33 196q0 21 -19 21q-25 0 -54.5 -26.5t-53.5 -64.5
l-28 15q35 71 79 104t85 33q33 0 50 -17.5t17 -46.5q0 -44 -32.5 -192t-32.5 -191zM231 635q-24 0 -40 15.5t-16 38.5q0 25 17 44t43 19q24 0 40 -15.5t16 -38.5q0 -25 -17 -44t-43 -19z" />
    <glyph glyph-name="Idotaccent" unicode="&#x130;" horiz-adv-x="429" 
d="M126 780h326l-4 -33q-31 -1 -51.5 -4.5t-39.5 -12t-29 -25t-13 -41.5l-65 -533q-3 -21 -3 -36q0 -25 15.5 -39t36.5 -17.5t61 -5.5l-4 -33h-326l4 33q31 1 51.5 4.5t39.5 12t29 25t13 41.5l65 533q3 21 3 36q0 25 -15.5 39t-36.5 17.5t-61 5.5zM306 851q-24 0 -40 15.5
t-16 38.5q0 25 17 44t43 19q24 0 40 -15.5t16 -38.5q0 -25 -17 -44t-43 -19z" />
    <glyph glyph-name="dotlessi" unicode="&#x131;" horiz-adv-x="366" 
d="M253 469q0 -44 -33 -197t-33 -196q0 -28 25 -28q35 0 94 82l24 -16q-64 -124 -150 -124q-69 0 -69 68q0 44 33 197t33 196q0 21 -19 21q-25 0 -54.5 -26.5t-53.5 -64.5l-28 15q35 71 79 104t85 33q33 0 50 -17.5t17 -46.5z" />
    <glyph glyph-name="IJ" unicode="&#x132;" horiz-adv-x="924" 
d="M126 780h326l-4 -33q-31 -1 -51.5 -4.5t-39.5 -12t-29 -25t-13 -41.5l-65 -533q-3 -21 -3 -36q0 -25 15.5 -39t36.5 -17.5t61 -5.5l-4 -33h-326l4 33q31 1 51.5 4.5t39.5 12t29 25t13 41.5l65 533q3 21 3 36q0 25 -15.5 39t-36.5 17.5t-61 5.5zM714 199l54 450q2 21 2 36
q0 25 -15.5 39t-36.5 17.5t-61 5.5l4 33h326l-4 -33q-31 -1 -51.5 -4.5t-39.5 -12t-29 -25t-13 -41.5l-54 -448q-14 -114 -67.5 -170t-154.5 -56q-93 0 -140.5 36t-47.5 92q0 53 44 74h65q-14 -34 -14 -63q0 -44 23 -72t70 -28q63 0 95.5 37t44.5 133z" />
    <glyph glyph-name="ij" unicode="&#x133;" horiz-adv-x="621" 
d="M253 469q0 -44 -33 -197t-33 -196q0 -28 25 -28q35 0 94 82l24 -16q-64 -124 -150 -124q-69 0 -69 68q0 44 33 197t33 196q0 21 -19 21q-25 0 -54.5 -26.5t-53.5 -64.5l-28 15q35 71 79 104t85 33q33 0 50 -17.5t17 -46.5zM231 635q-24 0 -40 15.5t-16 38.5q0 25 17 44
t43 19q24 0 40 -15.5t16 -38.5q0 -25 -17 -44t-43 -19zM448 472q-25 0 -54 -26.5t-53 -64.5l-28 15q35 71 79 104t85 33q33 0 50 -17.5t17 -46.5q0 -31 -5 -66l-39 -251q-34 -223 -82 -312.5t-132 -89.5q-51 0 -78 22t-27 57q0 39 37 54h33q0 -48 10.5 -71.5t36.5 -23.5
q38 0 62 53t46 194l55 351q6 37 6 65q0 21 -19 21zM525 635q-24 0 -40 15.5t-16 38.5q0 25 17 44t43 19q24 0 40 -15.5t16 -38.5q0 -25 -17 -44t-43 -19z" />
    <glyph glyph-name="Jcircumflex" unicode="&#x134;" horiz-adv-x="544" 
d="M334 199l54 450q2 21 2 36q0 25 -15.5 39t-36.5 17.5t-61 5.5l4 33h326l-4 -33q-31 -1 -51.5 -4.5t-39.5 -12t-29 -25t-13 -41.5l-54 -448q-14 -114 -67.5 -170t-154.5 -56q-93 0 -140.5 36t-47.5 92q0 53 44 74h65q-14 -34 -14 -63q0 -44 23 -72t70 -28q63 0 95.5 37
t44.5 133zM497 1030l122 -208h-34l-121 137l-163 -137h-34l174 208h56z" />
    <glyph glyph-name="jcircumflex" unicode="&#x135;" horiz-adv-x="311" 
d="M50 381l-28 15q35 71 79 104t85 33q33 0 50 -17.5t17 -46.5q0 -31 -5 -66l-39 -251q-34 -223 -82 -312.5t-132 -89.5q-51 0 -78 22t-27 57q0 39 37 54h33q0 -48 10.5 -71.5t36.5 -23.5q38 0 62 53t46 194l55 351q6 37 6 65q0 21 -19 21q-25 0 -54 -26.5t-53 -64.5z
M260 800l122 -208h-34l-121 137l-163 -137h-34l174 208h56z" />
    <glyph glyph-name="Kcommaaccent" unicode="&#x136;" horiz-adv-x="824" 
d="M433 -164h-31q-44 11 -44 52q0 24 16 40t43 16q33 0 50 -20.5t17 -51.5q0 -48 -38.5 -84t-106.5 -38l6 34q36 4 55.5 15.5t32.5 36.5zM385 416l217 -261q56 -66 95.5 -94t95.5 -28l-4 -33h-143q-61 46 -122 120l-226 276l301 279q30 28 30 41q0 16 -15 21.5t-68 9.5l4 33
h271l-4 -33q-46 -1 -74.5 -14.5t-68.5 -50.5zM126 780h326l-4 -33q-31 -1 -51.5 -4.5t-39.5 -12t-29 -25t-13 -41.5l-65 -533q-3 -21 -3 -36q0 -25 15.5 -39t36.5 -17.5t61 -5.5l-4 -33h-326l4 33q31 1 51.5 4.5t39.5 12t29 25t13 41.5l65 533q3 21 3 36q0 25 -15.5 39
t-36.5 17.5t-61 5.5z" />
    <glyph glyph-name="kcommaaccent" unicode="&#x137;" horiz-adv-x="589" 
d="M246 -164h-31q-44 11 -44 52q0 24 16 40t43 16q33 0 50 -20.5t17 -51.5q0 -48 -38.5 -84t-106.5 -38l6 34q36 4 55.5 15.5t32.5 36.5zM179 716l-77 29l1 16l146 49h20q-37 -246 -75 -431q100 154 219 154q49 0 75.5 -24.5t26.5 -67.5q0 -113 -179 -195l60 -141
q15 -36 25 -47.5t28 -11.5q47 0 100 82l25 -16q-69 -122 -155 -122q-31 0 -49.5 20t-35.5 63l-61 154q-65 -18 -111 -28l-38 -199h-69q109 582 124 716zM185 330l-18 -95q264 57 264 188q0 57 -51 57q-40 0 -84.5 -34.5t-110.5 -115.5z" />
    <glyph glyph-name="kgreenlandic" unicode="&#x138;" horiz-adv-x="641" 
d="M235 329l-17 -94q265 57 265 188q0 57 -51 57q-40 0 -85.5 -35t-111.5 -116zM243 379q100 154 222 154q49 0 75.5 -24.5t26.5 -67.5q0 -113 -179 -195l60 -141q15 -36 25 -47.5t28 -11.5q47 0 100 82l25 -16q-69 -122 -155 -122q-31 0 -49.5 20t-35.5 63l-61 154
q-58 -16 -113 -28l-35 -199h-70l74 421q3 18 3 30q0 21 -19 21q-25 0 -54.5 -26.5t-53.5 -64.5l-28 15q35 71 79 104t85 33q62 0 62 -64q0 -18 -12 -90z" />
    <glyph glyph-name="Lacute" unicode="&#x139;" horiz-adv-x="722" 
d="M444 1030h107l-219 -208h-33zM315 664l-62 -507q-4 -36 -4 -59q0 -30 23 -42t70 -12h127q65 0 105.5 34.5t103.5 126.5h24l-62 -205h-610l4 33q31 1 51.5 4.5t39.5 12t29 25t13 41.5l65 533q3 21 3 36q0 25 -15.5 39t-36.5 17.5t-61 5.5l4 33h326l-4 -33
q-31 -1 -51.5 -4.5t-39.5 -12t-29 -25t-13 -41.5z" />
    <glyph glyph-name="lacute" unicode="&#x13a;" horiz-adv-x="316" 
d="M348 1047h107l-219 -208h-33zM65 63q0 47 54 329.5t58 323.5l-77 29l1 16l140 49h20q-8 -94 -65 -392t-57 -342q0 -28 24 -28q36 0 95 82l23 -16q-63 -124 -149 -124q-67 0 -67 73z" />
    <glyph glyph-name="Lcommaaccent" unicode="&#x13b;" horiz-adv-x="722" 
d="M389 -164h-31q-44 11 -44 52q0 24 16 40t43 16q33 0 50 -20.5t17 -51.5q0 -48 -38.5 -84t-106.5 -38l6 34q36 4 55.5 15.5t32.5 36.5zM315 664l-62 -507q-4 -36 -4 -59q0 -30 23 -42t70 -12h127q65 0 105.5 34.5t103.5 126.5h24l-62 -205h-610l4 33q31 1 51.5 4.5
t39.5 12t29 25t13 41.5l65 533q3 21 3 36q0 25 -15.5 39t-36.5 17.5t-61 5.5l4 33h326l-4 -33q-31 -1 -51.5 -4.5t-39.5 -12t-29 -25t-13 -41.5z" />
    <glyph glyph-name="lcommaaccent" unicode="&#x13c;" horiz-adv-x="316" 
d="M121 -164h-31q-44 11 -44 52q0 24 16 40t43 16q33 0 50 -20.5t17 -51.5q0 -48 -38.5 -84t-106.5 -38l6 34q36 4 55.5 15.5t32.5 36.5zM65 63q0 47 54 329.5t58 323.5l-77 29l1 16l140 49h20q-8 -94 -65 -392t-57 -342q0 -28 24 -28q36 0 95 82l23 -16q-63 -124 -149 -124
q-67 0 -67 73z" />
    <glyph glyph-name="Lcaron" unicode="&#x13d;" horiz-adv-x="722" 
d="M574 780h93l-123 -208h-31zM315 664l-62 -507q-4 -36 -4 -59q0 -30 23 -42t70 -12h127q65 0 105.5 34.5t103.5 126.5h24l-62 -205h-610l4 33q31 1 51.5 4.5t39.5 12t29 25t13 41.5l65 533q3 21 3 36q0 25 -15.5 39t-36.5 17.5t-61 5.5l4 33h326l-4 -33q-31 -1 -51.5 -4.5
t-39.5 -12t-29 -25t-13 -41.5z" />
    <glyph glyph-name="lcaron" unicode="&#x13e;" horiz-adv-x="316" 
d="M345 800h93l-123 -208h-31zM65 63q0 47 54 329.5t58 323.5l-77 29l1 16l140 49h20q-8 -94 -65 -392t-57 -342q0 -28 24 -28q36 0 95 82l23 -16q-63 -124 -149 -124q-67 0 -67 73z" />
    <glyph glyph-name="Ldot" unicode="&#x13f;" horiz-adv-x="722" 
d="M315 664l-62 -507q-4 -36 -4 -59q0 -30 23 -42t70 -12h127q65 0 105.5 34.5t103.5 126.5h24l-62 -205h-610l4 33q31 1 51.5 4.5t39.5 12t29 25t13 41.5l65 533q3 21 3 36q0 25 -15.5 39t-36.5 17.5t-61 5.5l4 33h326l-4 -33q-31 -1 -51.5 -4.5t-39.5 -12t-29 -25
t-13 -41.5zM540 400q0 26 18.5 45t44.5 19t45 -19t19 -45t-19 -44.5t-45 -18.5t-44.5 18.5t-18.5 44.5z" />
    <glyph glyph-name="ldot" unicode="&#x140;" horiz-adv-x="354" 
d="M273 399q0 26 18.5 45t44.5 19t45 -19t19 -45t-19 -44.5t-45 -18.5t-44.5 18.5t-18.5 44.5zM65 63q0 47 54 329.5t58 323.5l-77 29l1 16l140 49h20q-8 -94 -65 -392t-57 -342q0 -28 24 -28q36 0 95 82l23 -16q-63 -124 -149 -124q-67 0 -67 73z" />
    <glyph glyph-name="Lslash" unicode="&#x141;" horiz-adv-x="722" 
d="M315 664l-32 -256l214 98l-6 -50l-214 -99l-24 -200q-4 -36 -4 -59q0 -30 23 -42t70 -12h127q65 0 105.5 34.5t103.5 126.5h24l-62 -205h-610l4 33q31 1 51.5 4.5t39.5 12t29 25t13 41.5l25 204l-126 -57l6 50l126 58l34 278q3 21 3 36q0 25 -15.5 39t-36.5 17.5t-61 5.5
l4 33h326l-4 -33q-31 -1 -51.5 -4.5t-39.5 -12t-29 -25t-13 -41.5z" />
    <glyph glyph-name="lslash" unicode="&#x142;" horiz-adv-x="326" 
d="M70 63q0 46 48 301l-75 -48l10 52l75 48q51 261 54 300l-77 29l1 16l140 49h20q-7 -85 -57 -349l105 68l-9 -51l-106 -68q-55 -295 -55 -334q0 -28 24 -28q36 0 95 82l23 -16q-63 -124 -149 -124q-67 0 -67 73z" />
    <glyph glyph-name="Nacute" unicode="&#x143;" horiz-adv-x="924" 
d="M624 1030h107l-219 -208h-33zM708 146l60 503q3 22 3 36q0 25 -15.5 39t-36.5 17.5t-61 5.5l4 33h297l-4 -33q-64 -3 -95.5 -19t-37.5 -64l-81 -664h-32l-426 636l-62 -505q-3 -22 -3 -36q0 -25 15.5 -39t36.5 -17.5t61 -5.5l-4 -33h-297l4 33q31 1 51.5 4.5t39.5 12
t29 25t13 41.5l69 564q-32 43 -51.5 55t-63.5 12l4 33h162z" />
    <glyph glyph-name="nacute" unicode="&#x144;" horiz-adv-x="682" 
d="M505 800h107l-219 -208h-33zM427 58q0 32 39 188t39 200q0 34 -23 34q-40 0 -99.5 -69.5t-117.5 -182.5t-89 -228h-70l74 414q4 24 4 37q0 21 -19 21q-25 0 -54.5 -26.5t-53.5 -64.5l-28 15q35 71 79 104t85 33q33 0 50.5 -17.5t17.5 -46.5q0 -19 -14 -78l-57 -235h4
q37 90 82 169.5t110.5 143.5t127.5 64q64 0 64 -73q0 -56 -37.5 -203.5t-37.5 -180.5q0 -28 25 -28q35 0 94 82l24 -16q-64 -124 -150 -124q-69 0 -69 68z" />
    <glyph glyph-name="Ncommaaccent" unicode="&#x145;" horiz-adv-x="924" 
d="M465 -164h-31q-44 11 -44 52q0 24 16 40t43 16q33 0 50 -20.5t17 -51.5q0 -48 -38.5 -84t-106.5 -38l6 34q36 4 55.5 15.5t32.5 36.5zM708 146l60 503q3 22 3 36q0 25 -15.5 39t-36.5 17.5t-61 5.5l4 33h297l-4 -33q-64 -3 -95.5 -19t-37.5 -64l-81 -664h-32l-426 636
l-62 -505q-3 -22 -3 -36q0 -25 15.5 -39t36.5 -17.5t61 -5.5l-4 -33h-297l4 33q31 1 51.5 4.5t39.5 12t29 25t13 41.5l69 564q-32 43 -51.5 55t-63.5 12l4 33h162z" />
    <glyph glyph-name="ncommaaccent" unicode="&#x146;" horiz-adv-x="682" 
d="M303 -164h-31q-44 11 -44 52q0 24 16 40t43 16q33 0 50 -20.5t17 -51.5q0 -48 -38.5 -84t-106.5 -38l6 34q36 4 55.5 15.5t32.5 36.5zM427 58q0 32 39 188t39 200q0 34 -23 34q-40 0 -99.5 -69.5t-117.5 -182.5t-89 -228h-70l74 414q4 24 4 37q0 21 -19 21
q-25 0 -54.5 -26.5t-53.5 -64.5l-28 15q35 71 79 104t85 33q33 0 50.5 -17.5t17.5 -46.5q0 -19 -14 -78l-57 -235h4q37 90 82 169.5t110.5 143.5t127.5 64q64 0 64 -73q0 -56 -37.5 -203.5t-37.5 -180.5q0 -28 25 -28q35 0 94 82l24 -16q-64 -124 -150 -124q-69 0 -69 68z
" />
    <glyph glyph-name="Ncaron" unicode="&#x147;" horiz-adv-x="924" 
d="M502 822l-122 208h34l121 -137l163 137h34l-174 -208h-56zM708 146l60 503q3 22 3 36q0 25 -15.5 39t-36.5 17.5t-61 5.5l4 33h297l-4 -33q-64 -3 -95.5 -19t-37.5 -64l-81 -664h-32l-426 636l-62 -505q-3 -22 -3 -36q0 -25 15.5 -39t36.5 -17.5t61 -5.5l-4 -33h-297
l4 33q31 1 51.5 4.5t39.5 12t29 25t13 41.5l69 564q-32 43 -51.5 55t-63.5 12l4 33h162z" />
    <glyph glyph-name="ncaron" unicode="&#x148;" horiz-adv-x="682" 
d="M361 592l-122 208h34l121 -137l163 137h34l-174 -208h-56zM427 58q0 32 39 188t39 200q0 34 -23 34q-40 0 -99.5 -69.5t-117.5 -182.5t-89 -228h-70l74 414q4 24 4 37q0 21 -19 21q-25 0 -54.5 -26.5t-53.5 -64.5l-28 15q35 71 79 104t85 33q33 0 50.5 -17.5t17.5 -46.5
q0 -19 -14 -78l-57 -235h4q37 90 82 169.5t110.5 143.5t127.5 64q64 0 64 -73q0 -56 -37.5 -203.5t-37.5 -180.5q0 -28 25 -28q35 0 94 82l24 -16q-64 -124 -150 -124q-69 0 -69 68z" />
    <glyph glyph-name="Eng" unicode="&#x14a;" horiz-adv-x="924" 
d="M683 -62l12 82l-412 616l-62 -505q-3 -22 -3 -36q0 -25 15.5 -39t36.5 -17.5t61 -5.5l-4 -33h-297l4 33q31 1 51.5 4.5t39.5 12t29 25t13 41.5l69 564q-32 43 -51.5 55t-63.5 12l4 33h162l421 -634l60 503q3 22 3 36q0 25 -15.5 39t-36.5 17.5t-61 5.5l4 33h297l-4 -33
q-64 -3 -95.5 -19t-37.5 -64l-89 -727q-11 -91 -53.5 -139t-124.5 -48q-80 0 -115.5 33t-35.5 75q0 47 36 65h52q-8 -16 -8 -44q0 -40 18.5 -65.5t55.5 -25.5q57 0 85 34t40 116z" />
    <glyph glyph-name="eng" unicode="&#x14b;" horiz-adv-x="611" 
d="M432 50l50 255q23 113 23 141q0 34 -23 34q-40 0 -99.5 -69.5t-117.5 -182.5t-89 -228h-70l74 414q4 24 4 37q0 21 -19 21q-25 0 -54.5 -26.5t-53.5 -64.5l-28 15q35 71 79 104t85 33q33 0 50.5 -17.5t17.5 -46.5q0 -19 -14 -78l-57 -235h4q37 90 82 169.5t110.5 143.5
t127.5 64q64 0 64 -73q0 -51 -23 -163l-46 -238q-32 -163 -83 -236t-127 -73q-51 0 -78 22t-27 57q0 39 37 54h33q0 -48 10.5 -71.5t36.5 -23.5q37 0 65.5 60t55.5 202z" />
    <glyph glyph-name="Omacron" unicode="&#x14c;" horiz-adv-x="809" 
d="M369 880l6 52h264l-6 -52h-264zM395 36q71 0 129 34t94 91.5t55.5 128.5t19.5 148q0 137 -63 221.5t-170 84.5q-71 0 -129 -34t-94 -91.5t-55.5 -128.5t-19.5 -148q0 -137 63 -221.5t170 -84.5zM385 -10q-142 0 -228 91t-86 249q0 89 28 172t78 147t126 102.5t167 38.5
q142 0 228 -91t86 -249q0 -89 -28 -172t-78 -147t-126 -102.5t-167 -38.5z" />
    <glyph glyph-name="omacron" unicode="&#x14d;" horiz-adv-x="512" 
d="M193 652l6 52h264l-6 -52h-264zM221 33q78 0 127 86.5t49 205.5q0 78 -26.5 121.5t-79.5 43.5q-78 0 -127 -86.5t-49 -205.5q0 -78 26.5 -121.5t79.5 -43.5zM203 -10q-83 0 -124 52.5t-41 138.5q0 85 31 164.5t94.5 133.5t144.5 54q84 0 125 -52.5t41 -138.5
q0 -85 -31.5 -164.5t-95 -133.5t-144.5 -54z" />
    <glyph glyph-name="Obreve" unicode="&#x14e;" horiz-adv-x="809" 
d="M497 833q-75 0 -114 39.5t-39 114.5q0 21 3 45h37q0 -142 120 -142q124 0 155 142h37q-25 -199 -199 -199zM395 36q71 0 129 34t94 91.5t55.5 128.5t19.5 148q0 137 -63 221.5t-170 84.5q-71 0 -129 -34t-94 -91.5t-55.5 -128.5t-19.5 -148q0 -137 63 -221.5t170 -84.5z
M385 -10q-142 0 -228 91t-86 249q0 89 28 172t78 147t126 102.5t167 38.5q142 0 228 -91t86 -249q0 -89 -28 -172t-78 -147t-126 -102.5t-167 -38.5z" />
    <glyph glyph-name="obreve" unicode="&#x14f;" horiz-adv-x="512" 
d="M221 33q78 0 127 86.5t49 205.5q0 78 -26.5 121.5t-79.5 43.5q-78 0 -127 -86.5t-49 -205.5q0 -78 26.5 -121.5t79.5 -43.5zM203 -10q-83 0 -124 52.5t-41 138.5q0 85 31 164.5t94.5 133.5t144.5 54q84 0 125 -52.5t41 -138.5q0 -85 -31.5 -164.5t-95 -133.5t-144.5 -54z
M323 601q-75 0 -114 39.5t-39 114.5q0 21 3 45h37q0 -142 120 -142q124 0 155 142h37q-25 -199 -199 -199z" />
    <glyph glyph-name="Ohungarumlaut" unicode="&#x150;" horiz-adv-x="809" 
d="M395 36q71 0 129 34t94 91.5t55.5 128.5t19.5 148q0 137 -63 221.5t-170 84.5q-71 0 -129 -34t-94 -91.5t-55.5 -128.5t-19.5 -148q0 -137 63 -221.5t170 -84.5zM385 -10q-142 0 -228 91t-86 249q0 89 28 172t78 147t126 102.5t167 38.5q142 0 228 -91t86 -249
q0 -89 -28 -172t-78 -147t-126 -102.5t-167 -38.5zM477 1030h90l-145 -208h-38zM631 1030h90l-145 -208h-38z" />
    <glyph glyph-name="ohungarumlaut" unicode="&#x151;" horiz-adv-x="512" 
d="M305 800h90l-145 -208h-38zM459 800h90l-145 -208h-38zM221 33q78 0 127 86.5t49 205.5q0 78 -26.5 121.5t-79.5 43.5q-78 0 -127 -86.5t-49 -205.5q0 -78 26.5 -121.5t79.5 -43.5zM203 -10q-83 0 -124 52.5t-41 138.5q0 85 31 164.5t94.5 133.5t144.5 54q84 0 125 -52.5
t41 -138.5q0 -85 -31.5 -164.5t-95 -133.5t-144.5 -54z" />
    <glyph glyph-name="OE" unicode="&#x152;" horiz-adv-x="1185" 
d="M385 -10q-142 0 -228 91t-86 249q0 89 28 172t78 147t126 102.5t167 38.5q41 0 86 -10h607l-19 -177h-20q-23 77 -53 105t-96 28h-320q129 -91 129 -286q0 -6 -0.5 -16t-0.5 -15h133q36 0 57 25.5t37 79.5h27l-31 -253h-27q-3 53 -18.5 78.5t-51.5 25.5h-130
q-15 -106 -66.5 -193.5t-132.5 -137.5h318q33 0 55.5 4.5t39 11.5t36 28t33.5 40t43 62h26l-58 -190h-600q-47 -10 -88 -10zM395 36q71 0 129 34t94 91.5t55.5 128.5t19.5 148q0 137 -63 221.5t-170 84.5q-71 0 -129 -34t-94 -91.5t-55.5 -128.5t-19.5 -148
q0 -137 63 -221.5t170 -84.5z" />
    <glyph glyph-name="oe" unicode="&#x153;" horiz-adv-x="813" 
d="M741 153l26 -18q-34 -67 -90.5 -106t-123.5 -39q-122 0 -159 108q-79 -108 -191 -108q-83 0 -124 52.5t-41 138.5q0 85 31 164.5t94.5 133.5t144.5 54q115 0 151 -108q84 108 200 108q54 0 86.5 -25t32.5 -72q0 -33 -16 -62t-41 -50.5t-69.5 -44t-87.5 -38.5t-109 -39
v-10q0 -79 30 -115.5t80 -36.5q58 0 98.5 29t77.5 84zM221 33q78 0 127 86.5t49 205.5q0 78 -26.5 121.5t-79.5 43.5q-78 0 -127 -86.5t-49 -205.5q0 -78 26.5 -121.5t79.5 -43.5zM635 490q-69 0 -117 -74.5t-60 -175.5q130 48 187.5 89t57.5 96q0 30 -17.5 47.5t-50.5 17.5
z" />
    <glyph glyph-name="Racute" unicode="&#x154;" horiz-adv-x="817" 
d="M432 736h-108l-41 -334h124q210 0 210 179q0 155 -185 155zM278 359l-28 -228q-3 -21 -3 -36q0 -25 15.5 -39t36.5 -17.5t61 -5.5l-4 -33h-326l4 33q31 1 51.5 4.5t39.5 12t29 25t13 41.5l65 533q3 21 3 36q0 25 -15.5 39t-36.5 17.5t-61 5.5l4 33h309q134 0 203.5 -48.5
t69.5 -139.5q0 -108 -73 -166t-182 -65l134 -187q62 -86 102 -113.5t97 -27.5l-4 -33h-152q-68 64 -122 142l-150 217h-80zM565 1030h107l-219 -208h-33z" />
    <glyph glyph-name="racute" unicode="&#x155;" horiz-adv-x="499" 
d="M437 800h107l-219 -208h-33zM191 156h4q91 250 168 332q42 45 85 45q59 0 59 -55q0 -20 -12.5 -38t-29.5 -26h-30q0 42 -28 42q-41 0 -106.5 -128t-124.5 -328h-70l74 414q4 24 4 37q0 21 -19 21q-25 0 -54.5 -26.5t-53.5 -64.5l-28 15q36 71 79.5 104t84.5 33
q65 0 65 -64q0 -19 -14 -78z" />
    <glyph glyph-name="Rcommaaccent" unicode="&#x156;" horiz-adv-x="817" 
d="M403 -164h-31q-44 11 -44 52q0 24 16 40t43 16q33 0 50 -20.5t17 -51.5q0 -48 -38.5 -84t-106.5 -38l6 34q36 4 55.5 15.5t32.5 36.5zM432 736h-108l-41 -334h124q210 0 210 179q0 155 -185 155zM278 359l-28 -228q-3 -21 -3 -36q0 -25 15.5 -39t36.5 -17.5t61 -5.5
l-4 -33h-326l4 33q31 1 51.5 4.5t39.5 12t29 25t13 41.5l65 533q3 21 3 36q0 25 -15.5 39t-36.5 17.5t-61 5.5l4 33h309q134 0 203.5 -48.5t69.5 -139.5q0 -108 -73 -166t-182 -65l134 -187q62 -86 102 -113.5t97 -27.5l-4 -33h-152q-68 64 -122 142l-150 217h-80z" />
    <glyph glyph-name="rcommaaccent" unicode="&#x157;" horiz-adv-x="502" 
d="M143 -164h-31q-44 11 -44 52q0 24 16 40t43 16q33 0 50 -20.5t17 -51.5q0 -48 -38.5 -84t-106.5 -38l6 34q36 4 55.5 15.5t32.5 36.5zM194 156h4q91 250 168 332q42 45 85 45q59 0 59 -55q0 -20 -12.5 -38t-29.5 -26h-30q0 42 -28 42q-41 0 -106.5 -128t-124.5 -328h-70
l74 414q4 24 4 37q0 21 -19 21q-25 0 -54.5 -26.5t-53.5 -64.5l-28 15q36 71 79.5 104t84.5 33q65 0 65 -64q0 -19 -14 -78z" />
    <glyph glyph-name="Rcaron" unicode="&#x158;" horiz-adv-x="817" 
d="M407 822l-122 208h34l121 -137l163 137h34l-174 -208h-56zM432 736h-108l-41 -334h124q210 0 210 179q0 155 -185 155zM278 359l-28 -228q-3 -21 -3 -36q0 -25 15.5 -39t36.5 -17.5t61 -5.5l-4 -33h-326l4 33q31 1 51.5 4.5t39.5 12t29 25t13 41.5l65 533q3 21 3 36
q0 25 -15.5 39t-36.5 17.5t-61 5.5l4 33h309q134 0 203.5 -48.5t69.5 -139.5q0 -108 -73 -166t-182 -65l134 -187q62 -86 102 -113.5t97 -27.5l-4 -33h-152q-68 64 -122 142l-150 217h-80z" />
    <glyph glyph-name="rcaron" unicode="&#x159;" horiz-adv-x="499" 
d="M283 592l-122 208h34l121 -137l163 137h34l-174 -208h-56zM191 156h4q91 250 168 332q42 45 85 45q59 0 59 -55q0 -20 -12.5 -38t-29.5 -26h-30q0 42 -28 42q-41 0 -106.5 -128t-124.5 -328h-70l74 414q4 24 4 37q0 21 -19 21q-25 0 -54.5 -26.5t-53.5 -64.5l-28 15
q36 71 79.5 104t84.5 33q65 0 65 -64q0 -19 -14 -78z" />
    <glyph glyph-name="Sacute" unicode="&#x15a;" horiz-adv-x="616" 
d="M289 -10q-72 0 -135 21t-103 56l17 183h25q17 -114 68.5 -164t134.5 -50q173 0 173 149q0 34 -11 60t-37.5 50t-53.5 41.5t-77 45.5q-85 48 -122 95t-37 115q0 89 63 143.5t167 54.5q129 0 215 -63l-20 -159h-23q-12 86 -58 131t-122 45q-70 0 -109.5 -37t-39.5 -100
q0 -55 31.5 -88.5t107.5 -74.5q105 -57 154.5 -111t49.5 -134q0 -100 -72 -154.5t-186 -54.5zM491 1030h107l-219 -208h-33z" />
    <glyph glyph-name="sacute" unicode="&#x15b;" horiz-adv-x="410" 
d="M392 800h107l-219 -208h-33zM190 28q37 0 57 20t20 52t-18 64t-44 59t-52 54.5t-44 60.5t-18 67q0 57 43 92.5t116 35.5q62 0 96 -25t34 -64q0 -37 -31 -47h-26q-5 40 -32.5 67t-69.5 27q-30 0 -48 -17.5t-18 -44.5q0 -33 27.5 -72.5t60.5 -71.5t60.5 -75.5t27.5 -83.5
q0 -62 -46 -99t-122 -37q-68 0 -108 27t-40 65q0 44 37 57h22q18 -111 116 -111z" />
    <glyph glyph-name="Scircumflex" unicode="&#x15c;" horiz-adv-x="616" 
d="M289 -10q-72 0 -135 21t-103 56l17 183h25q17 -114 68.5 -164t134.5 -50q173 0 173 149q0 34 -11 60t-37.5 50t-53.5 41.5t-77 45.5q-85 48 -122 95t-37 115q0 89 63 143.5t167 54.5q129 0 215 -63l-20 -159h-23q-12 86 -58 131t-122 45q-70 0 -109.5 -37t-39.5 -100
q0 -55 31.5 -88.5t107.5 -74.5q105 -57 154.5 -111t49.5 -134q0 -100 -72 -154.5t-186 -54.5zM437 1030l122 -208h-34l-121 137l-163 -137h-34l174 208h56z" />
    <glyph glyph-name="scircumflex" unicode="&#x15d;" horiz-adv-x="410" 
d="M315 800l122 -208h-34l-121 137l-163 -137h-34l174 208h56zM190 28q37 0 57 20t20 52t-18 64t-44 59t-52 54.5t-44 60.5t-18 67q0 57 43 92.5t116 35.5q62 0 96 -25t34 -64q0 -37 -31 -47h-26q-5 40 -32.5 67t-69.5 27q-30 0 -48 -17.5t-18 -44.5q0 -33 27.5 -72.5
t60.5 -71.5t60.5 -75.5t27.5 -83.5q0 -62 -46 -99t-122 -37q-68 0 -108 27t-40 65q0 44 37 57h22q18 -111 116 -111z" />
    <glyph glyph-name="Scedilla" unicode="&#x15e;" horiz-adv-x="616" 
d="M289 -10q-17 0 -26 1l-16 -33q48 -7 80 -32.5t32 -70.5q0 -51 -32 -78t-80 -27q-63 0 -103 40l19 22q39 -24 80 -24q25 0 42.5 13t17.5 40q0 35 -31.5 53t-77.5 21l41 78q-115 13 -184 74l17 183h25q17 -114 68.5 -164t134.5 -50q173 0 173 149q0 34 -11 60t-37.5 50
t-53.5 41.5t-77 45.5q-85 48 -122 95t-37 115q0 89 63 143.5t167 54.5q129 0 215 -63l-20 -159h-23q-12 86 -58 131t-122 45q-70 0 -109.5 -37t-39.5 -100q0 -55 31.5 -88.5t107.5 -74.5q105 -57 154.5 -111t49.5 -134q0 -100 -72 -154.5t-186 -54.5z" />
    <glyph glyph-name="scedilla" unicode="&#x15f;" horiz-adv-x="410" 
d="M190 28q37 0 57 20t20 52t-18 64t-44 59t-52 54.5t-44 60.5t-18 67q0 57 43 92.5t116 35.5q62 0 96 -25t34 -64q0 -37 -31 -47h-26q-5 40 -32.5 67t-69.5 27q-30 0 -48 -17.5t-18 -44.5q0 -33 27.5 -72.5t60.5 -71.5t60.5 -75.5t27.5 -83.5q0 -62 -46 -99t-122 -37h-3
l-16 -32q48 -7 80 -32.5t32 -70.5q0 -51 -32 -78t-80 -27q-63 0 -103 40l19 22q39 -24 80 -24q25 0 42.5 13t17.5 40q0 35 -31.5 53t-77.5 21l40 77q-54 6 -85 31t-31 59q0 44 37 57h22q18 -111 116 -111z" />
    <glyph glyph-name="Scaron" unicode="&#x160;" horiz-adv-x="616" 
d="M289 -10q-72 0 -135 21t-103 56l17 183h25q17 -114 68.5 -164t134.5 -50q173 0 173 149q0 34 -11 60t-37.5 50t-53.5 41.5t-77 45.5q-85 48 -122 95t-37 115q0 89 63 143.5t167 54.5q129 0 215 -63l-20 -159h-23q-12 86 -58 131t-122 45q-70 0 -109.5 -37t-39.5 -100
q0 -55 31.5 -88.5t107.5 -74.5q105 -57 154.5 -111t49.5 -134q0 -100 -72 -154.5t-186 -54.5zM346 822l-122 208h34l121 -137l163 137h34l-174 -208h-56z" />
    <glyph glyph-name="scaron" unicode="&#x161;" horiz-adv-x="410" 
d="M234 592l-122 208h34l121 -137l163 137h34l-174 -208h-56zM190 28q37 0 57 20t20 52t-18 64t-44 59t-52 54.5t-44 60.5t-18 67q0 57 43 92.5t116 35.5q62 0 96 -25t34 -64q0 -37 -31 -47h-26q-5 40 -32.5 67t-69.5 27q-30 0 -48 -17.5t-18 -44.5q0 -33 27.5 -72.5
t60.5 -71.5t60.5 -75.5t27.5 -83.5q0 -62 -46 -99t-122 -37q-68 0 -108 27t-40 65q0 44 37 57h22q18 -111 116 -111z" />
    <glyph glyph-name="Tcommaaccent" unicode="&#x162;" horiz-adv-x="744" 
d="M350 -164h-31q-44 11 -44 52q0 24 16 40t43 16q33 0 50 -20.5t17 -51.5q0 -48 -38.5 -84t-106.5 -38l6 34q36 4 55.5 15.5t32.5 36.5zM400 738h-73q-41 0 -69 -6t-46.5 -13t-39.5 -31.5t-32.5 -41.5t-39.5 -63h-25l41 197h656l-7 -197h-21q-11 32 -15 42l-13 32.5t-14 28
t-15 19t-19 16.5t-23 9t-30.5 7t-38.5 1h-95l-74 -607q-3 -21 -3 -36q0 -25 15.5 -39t36.5 -17.5t61 -5.5l-4 -33h-326l4 33q64 3 95.5 19t37.5 64z" />
    <glyph glyph-name="tcommaaccent" unicode="&#x163;" horiz-adv-x="394" 
d="M166 -164h-31q-44 11 -44 52q0 24 16 40t43 16q33 0 50 -20.5t17 -51.5q0 -48 -38.5 -84t-106.5 -38l6 34q36 4 55.5 15.5t32.5 36.5zM218 480l-61 -348q-7 -42 -7 -58q0 -32 27 -32q31 0 70.5 31.5t70.5 80.5l27 -18q-38 -64 -88 -105t-103 -41q-72 0 -72 73q0 25 6 63
l60 354h-73l6 27q40 18 72 47t76 81h17l-20 -112h138l-8 -43h-138z" />
    <glyph glyph-name="Tcaron" unicode="&#x164;" horiz-adv-x="744" 
d="M427 822l-122 208h34l121 -137l163 137h34l-174 -208h-56zM400 738h-73q-41 0 -69 -6t-46.5 -13t-39.5 -31.5t-32.5 -41.5t-39.5 -63h-25l41 197h656l-7 -197h-21q-11 32 -15 42l-13 32.5t-14 28t-15 19t-19 16.5t-23 9t-30.5 7t-38.5 1h-95l-74 -607q-3 -21 -3 -36
q0 -25 15.5 -39t36.5 -17.5t61 -5.5l-4 -33h-326l4 33q64 3 95.5 19t37.5 64z" />
    <glyph glyph-name="tcaron" unicode="&#x165;" horiz-adv-x="394" 
d="M348 773h93l-123 -208h-31zM218 480l-61 -348q-7 -42 -7 -58q0 -32 27 -32q31 0 70.5 31.5t70.5 80.5l27 -18q-38 -64 -88 -105t-103 -41q-72 0 -72 73q0 25 6 63l60 354h-73l6 27q40 18 72 47t76 81h17l-20 -112h138l-8 -43h-138z" />
    <glyph glyph-name="Tbar" unicode="&#x166;" horiz-adv-x="744" 
d="M400 738h-73q-41 0 -69 -6t-46.5 -13t-39.5 -31.5t-32.5 -41.5t-39.5 -63h-25l41 197h656l-7 -197h-21q-11 32 -15 42l-13 32.5t-14 28t-15 19t-19 16.5t-23 9t-30.5 7t-38.5 1h-95l-42 -341h173l-5 -47h-174l-26 -219q-3 -21 -3 -36q0 -25 15.5 -39t36.5 -17.5t61 -5.5
l-4 -33h-326l4 33q64 3 95.5 19t37.5 64l28 234h-169l6 47h169z" />
    <glyph glyph-name="tbar" unicode="&#x167;" horiz-adv-x="394" 
d="M218 480l-21 -121h141l-8 -43h-141l-32 -184q-7 -42 -7 -58q0 -32 27 -32q31 0 70.5 31.5t70.5 80.5l27 -18q-38 -64 -88 -105t-103 -41q-72 0 -72 73q0 25 6 63l32 190h-71l8 43h70l21 121h-73l6 27q40 18 72 47t76 81h17l-20 -112h138l-8 -43h-138z" />
    <glyph glyph-name="Utilde" unicode="&#x168;" horiz-adv-x="856" 
d="M709 964l35 -6q-56 -111 -140 -111q-30 0 -71.5 32t-64.5 32q-25 0 -43 -12.5t-39 -44.5l-35 6q56 111 140 111q30 0 71.5 -32t64.5 -32q25 0 43 12.5t39 44.5zM148 318l40 331q3 21 3 36q0 25 -15.5 39t-36.5 17.5t-61 5.5l4 33h326l-4 -33q-64 -3 -95.5 -19t-37.5 -64
l-44 -350q-6 -50 -6 -82q0 -88 57 -136.5t150 -48.5q228 0 258 249l42 353q3 22 3 36q0 25 -15.5 39t-36.5 17.5t-61 5.5l4 33h297l-4 -33q-31 -1 -51.5 -4.5t-39.5 -12t-29 -25t-13 -41.5l-47 -388q-16 -134 -99.5 -210t-211.5 -76q-132 0 -207.5 60t-75.5 181q0 24 7 87z
" />
    <glyph glyph-name="utilde" unicode="&#x169;" horiz-adv-x="653" 
d="M406 58q0 40 71 309h-4q-24 -59 -42.5 -101t-49.5 -98.5t-60 -91.5t-67.5 -60.5t-78.5 -25.5q-34 0 -53.5 22t-19.5 60q0 56 37 201t37 178q0 21 -19 21q-25 0 -54.5 -26.5t-53.5 -64.5l-28 15q35 71 79 104t85 33q33 0 50.5 -17.5t17.5 -46.5q0 -32 -39 -185.5
t-39 -197.5q0 -43 34 -43q60 0 141 144.5t140 335.5h72q-78 -373 -78 -447q0 -28 25 -28q33 0 94 82l23 -16q-64 -124 -150 -124q-33 0 -51.5 17.5t-18.5 50.5zM551 727l35 -6q-56 -111 -140 -111q-30 0 -71.5 32t-64.5 32q-25 0 -43 -12.5t-39 -44.5l-35 6q56 111 140 111
q30 0 71.5 -32t64.5 -32q25 0 43 12.5t39 44.5z" />
    <glyph glyph-name="Umacron" unicode="&#x16a;" horiz-adv-x="856" 
d="M399 880l6 52h264l-6 -52h-264zM148 318l40 331q3 21 3 36q0 25 -15.5 39t-36.5 17.5t-61 5.5l4 33h326l-4 -33q-64 -3 -95.5 -19t-37.5 -64l-44 -350q-6 -50 -6 -82q0 -88 57 -136.5t150 -48.5q228 0 258 249l42 353q3 22 3 36q0 25 -15.5 39t-36.5 17.5t-61 5.5l4 33
h297l-4 -33q-31 -1 -51.5 -4.5t-39.5 -12t-29 -25t-13 -41.5l-47 -388q-16 -134 -99.5 -210t-211.5 -76q-132 0 -207.5 60t-75.5 181q0 24 7 87z" />
    <glyph glyph-name="umacron" unicode="&#x16b;" horiz-adv-x="653" 
d="M406 58q0 40 71 309h-4q-24 -59 -42.5 -101t-49.5 -98.5t-60 -91.5t-67.5 -60.5t-78.5 -25.5q-34 0 -53.5 22t-19.5 60q0 56 37 201t37 178q0 21 -19 21q-25 0 -54.5 -26.5t-53.5 -64.5l-28 15q35 71 79 104t85 33q33 0 50.5 -17.5t17.5 -46.5q0 -32 -39 -185.5
t-39 -197.5q0 -43 34 -43q60 0 141 144.5t140 335.5h72q-78 -373 -78 -447q0 -28 25 -28q33 0 94 82l23 -16q-64 -124 -150 -124q-33 0 -51.5 17.5t-18.5 50.5zM257 652l6 52h264l-6 -52h-264z" />
    <glyph glyph-name="Ubreve" unicode="&#x16c;" horiz-adv-x="856" 
d="M530 833q-75 0 -114 39.5t-39 114.5q0 21 3 45h37q0 -142 120 -142q124 0 155 142h37q-25 -199 -199 -199zM148 318l40 331q3 21 3 36q0 25 -15.5 39t-36.5 17.5t-61 5.5l4 33h326l-4 -33q-64 -3 -95.5 -19t-37.5 -64l-44 -350q-6 -50 -6 -82q0 -88 57 -136.5t150 -48.5
q228 0 258 249l42 353q3 22 3 36q0 25 -15.5 39t-36.5 17.5t-61 5.5l4 33h297l-4 -33q-31 -1 -51.5 -4.5t-39.5 -12t-29 -25t-13 -41.5l-47 -388q-16 -134 -99.5 -210t-211.5 -76q-132 0 -207.5 60t-75.5 181q0 24 7 87z" />
    <glyph glyph-name="ubreve" unicode="&#x16d;" horiz-adv-x="653" 
d="M406 58q0 40 71 309h-4q-24 -59 -42.5 -101t-49.5 -98.5t-60 -91.5t-67.5 -60.5t-78.5 -25.5q-34 0 -53.5 22t-19.5 60q0 56 37 201t37 178q0 21 -19 21q-25 0 -54.5 -26.5t-53.5 -64.5l-28 15q35 71 79 104t85 33q33 0 50.5 -17.5t17.5 -46.5q0 -32 -39 -185.5
t-39 -197.5q0 -43 34 -43q60 0 141 144.5t140 335.5h72q-78 -373 -78 -447q0 -28 25 -28q33 0 94 82l23 -16q-64 -124 -150 -124q-33 0 -51.5 17.5t-18.5 50.5zM379 601q-75 0 -114 39.5t-39 114.5q0 21 3 45h37q0 -142 120 -142q124 0 155 142h37q-25 -199 -199 -199z" />
    <glyph glyph-name="Uring" unicode="&#x16e;" horiz-adv-x="856" 
d="M148 318l40 331q3 21 3 36q0 25 -15.5 39t-36.5 17.5t-61 5.5l4 33h326l-4 -33q-64 -3 -95.5 -19t-37.5 -64l-44 -350q-6 -50 -6 -82q0 -88 57 -136.5t150 -48.5q228 0 258 249l42 353q3 22 3 36q0 25 -15.5 39t-36.5 17.5t-61 5.5l4 33h297l-4 -33q-31 -1 -51.5 -4.5
t-39.5 -12t-29 -25t-13 -41.5l-47 -388q-16 -134 -99.5 -210t-211.5 -76q-132 0 -207.5 60t-75.5 181q0 24 7 87zM597 939q0 60 -54 60q-35 0 -53 -25.5t-18 -62.5q0 -60 54 -60q35 0 53 25.5t18 62.5zM646 942q0 -56 -35.5 -93t-90.5 -37q-44 0 -70.5 27.5t-26.5 68.5
q0 56 35.5 93t90.5 37q44 0 70.5 -27.5t26.5 -68.5z" />
    <glyph glyph-name="uring" unicode="&#x16f;" horiz-adv-x="653" 
d="M455 707q0 60 -54 60q-35 0 -53 -25.5t-18 -62.5q0 -60 54 -60q35 0 53 25.5t18 62.5zM504 710q0 -56 -35.5 -93t-90.5 -37q-44 0 -70.5 27.5t-26.5 68.5q0 56 35.5 93t90.5 37q44 0 70.5 -27.5t26.5 -68.5zM406 58q0 40 71 309h-4q-24 -59 -42.5 -101t-49.5 -98.5
t-60 -91.5t-67.5 -60.5t-78.5 -25.5q-34 0 -53.5 22t-19.5 60q0 56 37 201t37 178q0 21 -19 21q-25 0 -54.5 -26.5t-53.5 -64.5l-28 15q35 71 79 104t85 33q33 0 50.5 -17.5t17.5 -46.5q0 -32 -39 -185.5t-39 -197.5q0 -43 34 -43q60 0 141 144.5t140 335.5h72
q-78 -373 -78 -447q0 -28 25 -28q33 0 94 82l23 -16q-64 -124 -150 -124q-33 0 -51.5 17.5t-18.5 50.5z" />
    <glyph glyph-name="Uhungarumlaut" unicode="&#x170;" horiz-adv-x="856" 
d="M148 318l40 331q3 21 3 36q0 25 -15.5 39t-36.5 17.5t-61 5.5l4 33h326l-4 -33q-64 -3 -95.5 -19t-37.5 -64l-44 -350q-6 -50 -6 -82q0 -88 57 -136.5t150 -48.5q228 0 258 249l42 353q3 22 3 36q0 25 -15.5 39t-36.5 17.5t-61 5.5l4 33h297l-4 -33q-31 -1 -51.5 -4.5
t-39.5 -12t-29 -25t-13 -41.5l-47 -388q-16 -134 -99.5 -210t-211.5 -76q-132 0 -207.5 60t-75.5 181q0 24 7 87zM518 1030h90l-145 -208h-38zM672 1030h90l-145 -208h-38z" />
    <glyph glyph-name="uhungarumlaut" unicode="&#x171;" horiz-adv-x="653" 
d="M406 58q0 40 71 309h-4q-24 -59 -42.5 -101t-49.5 -98.5t-60 -91.5t-67.5 -60.5t-78.5 -25.5q-34 0 -53.5 22t-19.5 60q0 56 37 201t37 178q0 21 -19 21q-25 0 -54.5 -26.5t-53.5 -64.5l-28 15q35 71 79 104t85 33q33 0 50.5 -17.5t17.5 -46.5q0 -32 -39 -185.5
t-39 -197.5q0 -43 34 -43q60 0 141 144.5t140 335.5h72q-78 -373 -78 -447q0 -28 25 -28q33 0 94 82l23 -16q-64 -124 -150 -124q-33 0 -51.5 17.5t-18.5 50.5zM359 800h90l-145 -208h-38zM513 800h90l-145 -208h-38z" />
    <glyph glyph-name="Uogonek" unicode="&#x172;" horiz-adv-x="856" 
d="M148 318l40 331q3 21 3 36q0 25 -15.5 39t-36.5 17.5t-61 5.5l4 33h326l-4 -33q-64 -3 -95.5 -19t-37.5 -64l-44 -350q-6 -50 -6 -82q0 -88 57 -136.5t150 -48.5q228 0 258 249l42 353q3 22 3 36q0 25 -15.5 39t-36.5 17.5t-61 5.5l4 33h297l-4 -33q-31 -1 -51.5 -4.5
t-39.5 -12t-29 -25t-13 -41.5l-47 -388q-14 -114 -77 -186.5t-162 -92.5q-140 -44 -140 -134q0 -66 76 -66q31 0 68 15l6 -25q-40 -37 -104 -37q-44 0 -76 25t-32 70q0 91 108 146q-122 5 -191.5 64.5t-69.5 175.5q0 24 7 87z" />
    <glyph glyph-name="uogonek" unicode="&#x173;" horiz-adv-x="653" 
d="M484 83q0 -25 18 -25q17 0 39 17t62 55l20 -20q-40 -43 -104 -99.5t-87.5 -87.5t-23.5 -66q0 -60 75 -60q31 0 68 15l6 -25q-40 -37 -104 -37q-44 0 -75 25t-31 70q0 76 108 150q-49 9 -49 63q0 40 71 309h-4q-24 -59 -42.5 -101t-49.5 -98.5t-60 -91.5t-67.5 -60.5
t-78.5 -25.5q-34 0 -53.5 22t-19.5 60q0 56 37 201t37 178q0 21 -19 21q-25 0 -54.5 -26.5t-53.5 -64.5l-28 15q35 71 79 104t85 33q33 0 50.5 -17.5t17.5 -46.5q0 -32 -39 -185.5t-39 -197.5q0 -43 34 -43q60 0 141 144.5t140 335.5h72q-78 -373 -78 -440z" />
    <glyph glyph-name="Wcircumflex" unicode="&#x174;" horiz-adv-x="1120" 
d="M634 658l132 -531l243 507q23 49 23 65q0 26 -22 36t-85 12l4 33h250l-4 -33q-57 -6 -75 -42l-353 -717h-19l-135 524l-258 -524h-19l-166 717q-10 41 -65 42l4 33h270l-4 -33q-63 -2 -91 -12.5t-28 -33.5q0 -15 6 -43l120 -522l215 438l-33 131q-11 41 -65 42l4 33h268
l-4 -33q-64 -2 -91.5 -12.5t-27.5 -35.5q0 -20 6 -41zM666 1030l122 -208h-34l-121 137l-163 -137h-34l174 208h56z" />
    <glyph glyph-name="wcircumflex" unicode="&#x175;" horiz-adv-x="819" 
d="M507 800l122 -208h-34l-121 137l-163 -137h-34l174 208h56zM719 402q0 35 -23 53t-62 18v23q20 37 74 37q39 0 60 -26t21 -67q0 -84 -75.5 -210t-178.5 -240h-39q-25 269 -49 360h-4q-45 -150 -199 -360h-41q-36 328 -58 414q-7 25 -11 35.5t-11.5 19.5t-18.5 9
q-25 0 -43 -18t-44 -59l-27 15q62 127 138 127q36 0 53 -21.5t28 -62.5q36 -127 50 -380q61 83 111 186.5t50 167.5q0 23 -12.5 50.5t-26.5 43.5q20 16 45 16t41 -17t28 -66q18 -73 37 -190.5t23 -193.5q67 78 115.5 172.5t48.5 163.5z" />
    <glyph glyph-name="Ycircumflex" unicode="&#x176;" horiz-adv-x="760" 
d="M332 116l25 209l-207 381q-12 21 -25.5 30.5t-39.5 10.5l4 33h280l-4 -33q-64 0 -88.5 -10t-24.5 -33q0 -21 13 -45l152 -287l223 282q23 29 23 50q0 23 -20.5 32.5t-79.5 10.5l4 33h252l-4 -33q-27 -3 -42 -11t-33 -30l-302 -378l-23 -197q-2 -21 -2 -36q0 -37 26 -48
t86 -14l-4 -33h-326l4 33q31 1 51.5 4.5t39.5 12t29 25t13 41.5zM536 1030l122 -208h-34l-121 137l-163 -137h-34l174 208h56z" />
    <glyph glyph-name="ycircumflex" unicode="&#x177;" horiz-adv-x="555" 
d="M213 450q28 -95 55 -234.5t34 -246.5q74 119 110.5 205.5t36.5 164.5q0 135 -105 135v22q23 37 73 37q46 0 69.5 -33.5t23.5 -87.5q0 -179 -139 -401q-49 -79 -96.5 -132.5t-91.5 -80.5t-81.5 -37.5t-79.5 -10.5q-57 0 -94.5 23.5t-37.5 64.5q0 19 10.5 34.5t27.5 20.5
h27q12 -93 100 -93q106 0 192 102q-12 125 -43 278.5t-55 224.5q-9 32 -19 47.5t-25 15.5q-25 0 -43 -18t-44 -59l-28 15q64 127 139 127q37 0 55 -22t29 -61zM353 800l122 -208h-34l-121 137l-163 -137h-34l174 208h56z" />
    <glyph glyph-name="Ydieresis" unicode="&#x178;" horiz-adv-x="760" 
d="M332 116l25 209l-207 381q-12 21 -25.5 30.5t-39.5 10.5l4 33h280l-4 -33q-64 0 -88.5 -10t-24.5 -33q0 -21 13 -45l152 -287l223 282q23 29 23 50q0 23 -20.5 32.5t-79.5 10.5l4 33h252l-4 -33q-27 -3 -42 -11t-33 -30l-302 -378l-23 -197q-2 -21 -2 -36q0 -37 26 -48
t86 -14l-4 -33h-326l4 33q31 1 51.5 4.5t39.5 12t29 25t13 41.5zM382 853q-24 0 -40 15.5t-16 38.5q0 25 17 44t43 19q24 0 40 -15.5t16 -38.5q0 -25 -17 -44t-43 -19zM582 853q-24 0 -40 15.5t-16 38.5q0 25 17 44t43 19q24 0 40 -15.5t16 -38.5q0 -25 -17 -44t-43 -19z
" />
    <glyph glyph-name="Zacute" unicode="&#x179;" horiz-adv-x="721" 
d="M142 44h284q40 0 61 3t46.5 20t46 40t64.5 77h22l-57 -184h-585l2 20l578 716h-269q-69 0 -106.5 -27t-76.5 -101h-22l25 172h569l-2 -21zM553 1030h107l-219 -208h-33z" />
    <glyph glyph-name="zacute" unicode="&#x17a;" horiz-adv-x="546" 
d="M435 800h107l-219 -208h-33zM109 168l328 241q-41 1 -127 27.5t-128 26.5q-51 0 -51 -41q0 -28 30 -43l-12 -28q-57 22 -57 76q0 51 32 78.5t89 27.5q45 0 125 -30t140 -36v55q6 11 19 11q30 0 30 -42q0 -33 -22.5 -63t-75.5 -70l-339 -249q35 11 66 11q45 0 111.5 -32
t115.5 -32q27 0 44 12t17 34q0 23 -31 46l14 24q54 -26 54 -79q0 -47 -32.5 -75t-90.5 -28q-50 0 -97.5 18.5t-88 37.5t-75.5 19q-24 0 -36 -9v-55q-6 -11 -20 -11q-29 0 -29 42q0 66 97 136z" />
    <glyph glyph-name="Zdotaccent" unicode="&#x17b;" horiz-adv-x="721" 
d="M442 851q-24 0 -40 15.5t-16 38.5q0 25 17 44t43 19q24 0 40 -15.5t16 -38.5q0 -25 -17 -44t-43 -19zM142 44h284q40 0 61 3t46.5 20t46 40t64.5 77h22l-57 -184h-585l2 20l578 716h-269q-69 0 -106.5 -27t-76.5 -101h-22l25 172h569l-2 -21z" />
    <glyph glyph-name="zdotaccent" unicode="&#x17c;" horiz-adv-x="546" 
d="M109 168l328 241q-41 1 -127 27.5t-128 26.5q-51 0 -51 -41q0 -28 30 -43l-12 -28q-57 22 -57 76q0 51 32 78.5t89 27.5q45 0 125 -30t140 -36v55q6 11 19 11q30 0 30 -42q0 -33 -22.5 -63t-75.5 -70l-339 -249q35 11 66 11q45 0 111.5 -32t115.5 -32q27 0 44 12t17 34
q0 23 -31 46l14 24q54 -26 54 -79q0 -47 -32.5 -75t-90.5 -28q-50 0 -97.5 18.5t-88 37.5t-75.5 19q-24 0 -36 -9v-55q-6 -11 -20 -11q-29 0 -29 42q0 66 97 136zM341 628q-24 0 -40 15.5t-16 38.5q0 25 17 44t43 19q24 0 40 -15.5t16 -38.5q0 -25 -17 -44t-43 -19z" />
    <glyph glyph-name="Zcaron" unicode="&#x17d;" horiz-adv-x="721" 
d="M408 822l-122 208h34l121 -137l163 137h34l-174 -208h-56zM142 44h284q40 0 61 3t46.5 20t46 40t64.5 77h22l-57 -184h-585l2 20l578 716h-269q-69 0 -106.5 -27t-76.5 -101h-22l25 172h569l-2 -21z" />
    <glyph glyph-name="zcaron" unicode="&#x17e;" horiz-adv-x="546" 
d="M303 592l-122 208h34l121 -137l163 137h34l-174 -208h-56zM109 168l328 241q-41 1 -127 27.5t-128 26.5q-51 0 -51 -41q0 -28 30 -43l-12 -28q-57 22 -57 76q0 51 32 78.5t89 27.5q45 0 125 -30t140 -36v55q6 11 19 11q30 0 30 -42q0 -33 -22.5 -63t-75.5 -70l-339 -249
q35 11 66 11q45 0 111.5 -32t115.5 -32q27 0 44 12t17 34q0 23 -31 46l14 24q54 -26 54 -79q0 -47 -32.5 -75t-90.5 -28q-50 0 -97.5 18.5t-88 37.5t-75.5 19q-24 0 -36 -9v-55q-6 -11 -20 -11q-29 0 -29 42q0 66 97 136z" />
    <glyph glyph-name="florin" unicode="&#x192;" horiz-adv-x="521" 
d="M48 -216l136 611h-99l5 38h103l31 140q25 112 78 164.5t139 52.5q52 0 84 -21.5t32 -59.5q0 -41 -29 -56h-59q4 26 4 43q0 22 -13.5 35.5t-38.5 13.5q-45 0 -71.5 -37.5t-46.5 -125.5l-33 -149h154l-6 -38h-157l-136 -611h-77z" />
    <glyph glyph-name="Scommaaccent" unicode="&#x218;" horiz-adv-x="616" 
d="M259 -164h-31q-44 11 -44 52q0 24 16 40t43 16q33 0 50 -20.5t17 -51.5q0 -48 -38.5 -84t-106.5 -38l6 34q36 4 55.5 15.5t32.5 36.5zM289 -10q-72 0 -135 21t-103 56l17 183h25q17 -114 68.5 -164t134.5 -50q173 0 173 149q0 34 -11 60t-37.5 50t-53.5 41.5t-77 45.5
q-85 48 -122 95t-37 115q0 89 63 143.5t167 54.5q129 0 215 -63l-20 -159h-23q-12 86 -58 131t-122 45q-70 0 -109.5 -37t-39.5 -100q0 -55 31.5 -88.5t107.5 -74.5q105 -57 154.5 -111t49.5 -134q0 -100 -72 -154.5t-186 -54.5z" />
    <glyph glyph-name="scommaaccent" unicode="&#x219;" horiz-adv-x="410" 
d="M190 -164h-31q-44 11 -44 52q0 24 16 40t43 16q33 0 50 -20.5t17 -51.5q0 -48 -38.5 -84t-106.5 -38l6 34q36 4 55.5 15.5t32.5 36.5zM190 28q37 0 57 20t20 52t-18 64t-44 59t-52 54.5t-44 60.5t-18 67q0 57 43 92.5t116 35.5q62 0 96 -25t34 -64q0 -37 -31 -47h-26
q-5 40 -32.5 67t-69.5 27q-30 0 -48 -17.5t-18 -44.5q0 -33 27.5 -72.5t60.5 -71.5t60.5 -75.5t27.5 -83.5q0 -62 -46 -99t-122 -37q-68 0 -108 27t-40 65q0 44 37 57h22q18 -111 116 -111z" />
    <glyph glyph-name="dotlessj" unicode="&#x237;" horiz-adv-x="311" 
d="M50 381l-28 15q35 71 79 104t85 33q33 0 50 -17.5t17 -46.5q0 -31 -5 -66l-39 -251q-34 -223 -82 -312.5t-132 -89.5q-51 0 -78 22t-27 57q0 39 37 54h33q0 -48 10.5 -71.5t36.5 -23.5q38 0 62 53t46 194l55 351q6 37 6 65q0 21 -19 21q-25 0 -54 -26.5t-53 -64.5z" />
    <glyph glyph-name="circumflex" unicode="&#x2c6;" horiz-adv-x="600" 
d="M354 800l122 -208h-34l-121 137l-163 -137h-34l174 208h56z" />
    <glyph glyph-name="caron" unicode="&#x2c7;" horiz-adv-x="600" 
d="M246 592l-122 208h34l121 -137l163 137h34l-174 -208h-56z" />
    <glyph glyph-name="breve" unicode="&#x2d8;" horiz-adv-x="600" 
d="M277 601q-75 0 -114 39.5t-39 114.5q0 21 3 45h37q0 -142 120 -142q124 0 155 142h37q-25 -199 -199 -199z" />
    <glyph glyph-name="dotaccent" unicode="&#x2d9;" horiz-adv-x="600" 
d="M297 628q-24 0 -40 15.5t-16 38.5q0 25 17 44t43 19q24 0 40 -15.5t16 -38.5q0 -25 -17 -44t-43 -19z" />
    <glyph glyph-name="ring" unicode="&#x2da;" horiz-adv-x="600" 
d="M363 707q0 60 -54 60q-35 0 -53 -25.5t-18 -62.5q0 -60 54 -60q35 0 53 25.5t18 62.5zM412 710q0 -56 -35.5 -93t-90.5 -37q-44 0 -70.5 27.5t-26.5 68.5q0 56 35.5 93t90.5 37q44 0 70.5 -27.5t26.5 -68.5z" />
    <glyph glyph-name="ogonek" unicode="&#x2db;" horiz-adv-x="600" 
d="M393 27l13 -27q-150 -46 -150 -137q0 -66 76 -66q31 0 68 15l6 -25q-40 -37 -104 -37q-44 0 -76 25t-32 70q0 68 51 108.5t148 73.5z" />
    <glyph glyph-name="tilde" unicode="&#x2dc;" horiz-adv-x="600" 
d="M461 727l35 -6q-56 -111 -140 -111q-30 0 -71.5 32t-64.5 32q-25 0 -43 -12.5t-39 -44.5l-35 6q56 111 140 111q30 0 71.5 -32t64.5 -32q25 0 43 12.5t39 44.5z" />
    <glyph glyph-name="hungarumlaut" unicode="&#x2dd;" horiz-adv-x="600" 
d="M225 800h90l-145 -208h-38zM379 800h90l-145 -208h-38z" />
    <glyph glyph-name="uni0300" unicode="&#x300;" horiz-adv-x="600" 
d="M208 1030h116l80 -208h-35z" />
    <glyph glyph-name="uni0301" unicode="&#x301;" horiz-adv-x="600" 
d="M296 1030h134l-226 -208h-33z" />
    <glyph glyph-name="uni0302" unicode="&#x302;" horiz-adv-x="600" 
d="M360 1030l118 -208h-36l-125 132l-157 -132h-38l170 208h68z" />
    <glyph glyph-name="uni0303" unicode="&#x303;" horiz-adv-x="600" 
d="M379 927q25 0 40.5 12.5t38.5 47.5l42 -5q-59 -117 -142 -117q-34 0 -76 31.5t-62 31.5q-24 0 -40 -13t-39 -48l-42 5q59 117 142 117q34 0 76 -31t62 -31z" />
    <glyph glyph-name="uni0304" unicode="&#x304;" horiz-adv-x="600" 
d="M162 909l8 55h268l-8 -55h-268z" />
    <glyph glyph-name="uni0305" unicode="&#x305;" horiz-adv-x="600" 
d="M276 833q-156 0 -156 152q0 21 3 45h40q0 -142 120 -142q124 0 155 142h41q-25 -197 -203 -197z" />
    <glyph glyph-name="uni0306" unicode="&#x306;" horiz-adv-x="600" 
d="M323 1019q156 0 156 -152q0 -21 -3 -45h-40q0 142 -120 142q-124 0 -155 -142h-41q25 197 203 197z" />
    <glyph glyph-name="uni0307" unicode="&#x307;" horiz-adv-x="600" 
d="M297 864q-26 0 -44 17t-18 42q0 27 20 45.5t47 18.5q26 0 44 -17t18 -41q0 -27 -20 -46t-47 -19z" />
    <glyph glyph-name="uni0308" unicode="&#x308;" horiz-adv-x="600" 
d="M200 864q-26 0 -44 17t-18 42q0 27 20 45.5t47 18.5q26 0 44 -17t18 -41q0 -27 -20 -46t-47 -19zM394 864q-26 0 -44 17t-18 42q0 27 20 45.5t47 18.5q26 0 44 -17t18 -41q0 -27 -20 -46t-47 -19z" />
    <glyph glyph-name="uni0309" unicode="&#x309;" horiz-adv-x="600" 
d="M292 853q35 0 53.5 25.5t18.5 61.5q0 59 -56 59q-35 0 -53.5 -25.5t-18.5 -61.5q0 -59 56 -59zM286 812q-45 0 -72 27.5t-27 69.5q0 57 36 94t91 37q45 0 72.5 -28t27.5 -69q0 -57 -36 -94t-92 -37z" />
    <glyph glyph-name="uni030A" unicode="&#x30a;" horiz-adv-x="600" 
d="M222 1030h94l-145 -208h-42zM376 1030h94l-145 -208h-42z" />
    <glyph glyph-name="uni030B" unicode="&#x30b;" horiz-adv-x="600" 
d="M310 1030h94l40 -208h-38zM157 1030h93l41 -208h-39z" />
    <glyph glyph-name="uni030C" unicode="&#x30c;" horiz-adv-x="600" 
d="M240 822l-118 208h36l125 -132l157 132h38l-170 -208h-68z" />
    <glyph glyph-name="uni0312" unicode="&#x312;" horiz-adv-x="600" 
d="M279 706h31q44 -11 44 -52q0 -24 -16 -40t-43 -16q-33 0 -50 20.5t-17 51.5q0 48 38.5 84t106.5 38l-6 -34q-36 -4 -55.5 -15.5t-32.5 -36.5z" />
    <glyph glyph-name="Wgrave" unicode="&#x1e80;" horiz-adv-x="1120" 
d="M634 658l132 -531l243 507q23 49 23 65q0 26 -22 36t-85 12l4 33h250l-4 -33q-57 -6 -75 -42l-353 -717h-19l-135 524l-258 -524h-19l-166 717q-10 41 -65 42l4 33h270l-4 -33q-63 -2 -91 -12.5t-28 -33.5q0 -15 6 -43l120 -522l215 438l-33 131q-11 41 -65 42l4 33h268
l-4 -33q-64 -2 -91.5 -12.5t-27.5 -35.5q0 -20 6 -41zM428 1030h98l84 -208h-33z" />
    <glyph glyph-name="wgrave" unicode="&#x1e81;" horiz-adv-x="819" 
d="M719 402q0 35 -23 53t-62 18v23q20 37 74 37q39 0 60 -26t21 -67q0 -84 -75.5 -210t-178.5 -240h-39q-25 269 -49 360h-4q-45 -150 -199 -360h-41q-36 328 -58 414q-7 25 -11 35.5t-11.5 19.5t-18.5 9q-25 0 -43 -18t-44 -59l-27 15q62 127 138 127q36 0 53 -21.5
t28 -62.5q36 -127 50 -380q61 83 111 186.5t50 167.5q0 23 -12.5 50.5t-26.5 43.5q20 16 45 16t41 -17t28 -66q18 -73 37 -190.5t23 -193.5q67 78 115.5 172.5t48.5 163.5zM279 800h98l84 -208h-33z" />
    <glyph glyph-name="Wacute" unicode="&#x1e82;" horiz-adv-x="1120" 
d="M634 658l132 -531l243 507q23 49 23 65q0 26 -22 36t-85 12l4 33h250l-4 -33q-57 -6 -75 -42l-353 -717h-19l-135 524l-258 -524h-19l-166 717q-10 41 -65 42l4 33h270l-4 -33q-63 -2 -91 -12.5t-28 -33.5q0 -15 6 -43l120 -522l215 438l-33 131q-11 41 -65 42l4 33h268
l-4 -33q-64 -2 -91.5 -12.5t-27.5 -35.5q0 -20 6 -41zM748 1030h107l-219 -208h-33z" />
    <glyph glyph-name="wacute" unicode="&#x1e83;" horiz-adv-x="819" 
d="M719 402q0 35 -23 53t-62 18v23q20 37 74 37q39 0 60 -26t21 -67q0 -84 -75.5 -210t-178.5 -240h-39q-25 269 -49 360h-4q-45 -150 -199 -360h-41q-36 328 -58 414q-7 25 -11 35.5t-11.5 19.5t-18.5 9q-25 0 -43 -18t-44 -59l-27 15q62 127 138 127q36 0 53 -21.5
t28 -62.5q36 -127 50 -380q61 83 111 186.5t50 167.5q0 23 -12.5 50.5t-26.5 43.5q20 16 45 16t41 -17t28 -66q18 -73 37 -190.5t23 -193.5q67 78 115.5 172.5t48.5 163.5zM577 800h107l-219 -208h-33z" />
    <glyph glyph-name="Wdieresis" unicode="&#x1e84;" horiz-adv-x="1120" 
d="M634 658l132 -531l243 507q23 49 23 65q0 26 -22 36t-85 12l4 33h250l-4 -33q-57 -6 -75 -42l-353 -717h-19l-135 524l-258 -524h-19l-166 717q-10 41 -65 42l4 33h270l-4 -33q-63 -2 -91 -12.5t-28 -33.5q0 -15 6 -43l120 -522l215 438l-33 131q-11 41 -65 42l4 33h268
l-4 -33q-64 -2 -91.5 -12.5t-27.5 -35.5q0 -20 6 -41zM521 853q-24 0 -40 15.5t-16 38.5q0 25 17 44t43 19q24 0 40 -15.5t16 -38.5q0 -25 -17 -44t-43 -19zM721 853q-24 0 -40 15.5t-16 38.5q0 25 17 44t43 19q24 0 40 -15.5t16 -38.5q0 -25 -17 -44t-43 -19z" />
    <glyph glyph-name="wdieresis" unicode="&#x1e85;" horiz-adv-x="819" 
d="M719 402q0 35 -23 53t-62 18v23q20 37 74 37q39 0 60 -26t21 -67q0 -84 -75.5 -210t-178.5 -240h-39q-25 269 -49 360h-4q-45 -150 -199 -360h-41q-36 328 -58 414q-7 25 -11 35.5t-11.5 19.5t-18.5 9q-25 0 -43 -18t-44 -59l-27 15q62 127 138 127q36 0 53 -21.5
t28 -62.5q36 -127 50 -380q61 83 111 186.5t50 167.5q0 23 -12.5 50.5t-26.5 43.5q20 16 45 16t41 -17t28 -66q18 -73 37 -190.5t23 -193.5q67 78 115.5 172.5t48.5 163.5zM374 628q-24 0 -40 15.5t-16 38.5q0 25 17 44t43 19q24 0 40 -15.5t16 -38.5q0 -25 -17 -44t-43 -19
zM574 628q-24 0 -40 15.5t-16 38.5q0 25 17 44t43 19q24 0 40 -15.5t16 -38.5q0 -25 -17 -44t-43 -19z" />
    <glyph glyph-name="Eszett" unicode="&#x1e9e;" horiz-adv-x="870" 
d="M602 -10q-48 0 -103.5 21.5t-94.5 55.5l17 183h25q14 -116 54 -165t107 -49q60 0 102.5 41t42.5 108q0 60 -41.5 101.5t-137.5 95.5l-30 17q-43 23 -64 47l3 20l207 240q-62 26 -138 26q-116 0 -187 -60.5t-86 -176.5l-44 -364q-3 -21 -3 -36q0 -25 15.5 -39t36.5 -17.5
t61 -5.5l-4 -33h-326l4 33q64 3 95.5 19t37.5 64l49 397q17 137 111 207t248 70q71 0 130.5 -18.5t93.5 -48.5l-2 -21l-199 -233l44 -25q54 -31 85.5 -52.5t62 -51t43.5 -64t13 -77.5q0 -99 -65.5 -154t-162.5 -55z" />
    <glyph glyph-name="enspace" unicode="&#x2002;" horiz-adv-x="500" 
 />
    <glyph glyph-name="emspace" unicode="&#x2003;" horiz-adv-x="1000" 
 />
    <glyph glyph-name="threeperemspace" unicode="&#x2004;" horiz-adv-x="333" 
 />
    <glyph glyph-name="fourperemspace" unicode="&#x2005;" horiz-adv-x="250" 
 />
    <glyph glyph-name="sixperemspace" unicode="&#x2006;" horiz-adv-x="167" 
 />
    <glyph glyph-name="figurespace" unicode="&#x2007;" 
 />
    <glyph glyph-name="punctuationspace" unicode="&#x2008;" horiz-adv-x="280" 
 />
    <glyph glyph-name="thinspace" unicode="&#x2009;" horiz-adv-x="200" 
 />
    <glyph glyph-name="hairspace" unicode="&#x200a;" horiz-adv-x="100" 
 />
    <glyph glyph-name="zerowidthspace" unicode="&#x200b;" horiz-adv-x="0" 
 />
    <glyph glyph-name="figuredash" unicode="&#x2012;" 
d="M662 309h-600l8 58h600z" />
    <glyph glyph-name="endash" unicode="&#x2013;" horiz-adv-x="500" 
d="M462 309h-400l8 58h400z" />
    <glyph glyph-name="emdash" unicode="&#x2014;" horiz-adv-x="1000" 
d="M962 309h-900l8 58h900z" />
    <glyph glyph-name="uni2015" unicode="&#x2015;" horiz-adv-x="1400" 
d="M1362 309h-1300l8 58h1300z" />
    <glyph glyph-name="doublebar" unicode="&#x2016;" horiz-adv-x="379" 
d="M228 830l-116 -951h-52l116 951h52zM350 830l-116 -951h-52l116 951h52z" />
    <glyph glyph-name="quoteleft" unicode="&#x2018;" horiz-adv-x="319" 
d="M183 663h37q45 -12 45 -56q0 -27 -18 -43.5t-46 -16.5q-36 0 -55 26t-19 63q0 68 56.5 117.5t146.5 58.5l-7 -38q-60 -9 -100 -41.5t-40 -69.5z" />
    <glyph glyph-name="quoteright" unicode="&#x2019;" horiz-adv-x="319" 
d="M263 690h-37q-45 12 -45 56q0 27 18 43.5t46 16.5q36 0 55 -26t19 -63q0 -68 -56.5 -117.5t-146.5 -58.5l7 38q60 9 100 41.5t40 69.5z" />
    <glyph glyph-name="quotesinglbase" unicode="&#x201a;" horiz-adv-x="319" 
d="M173 5h-37q-45 12 -45 56q0 27 18 43.5t46 16.5q36 0 55 -26t19 -63q0 -68 -56.5 -117.5t-146.5 -58.5l7 38q60 9 100 41.5t40 69.5z" />
    <glyph glyph-name="reversequoteleft" unicode="&#x201b;" horiz-adv-x="319" 
d="M219 690h-37q0 -37 40 -69.5t100 -41.5l7 -38q-90 9 -146.5 58.5t-56.5 117.5q0 37 19 63t55 26q28 0 46 -16.5t18 -43.5q0 -44 -45 -56z" />
    <glyph glyph-name="quotedblleft" unicode="&#x201c;" horiz-adv-x="519" 
d="M183 663h37q45 -12 45 -56q0 -27 -18 -43.5t-46 -16.5q-36 0 -55 26t-19 63q0 67 58 117t145 59l-7 -38q-60 -9 -100 -41.5t-40 -69.5zM383 663h37q45 -12 45 -56q0 -27 -18 -43.5t-46 -16.5q-36 0 -55 26t-19 63q0 68 56.5 117.5t146.5 58.5l-7 -38q-60 -9 -100 -41.5
t-40 -69.5z" />
    <glyph glyph-name="quotedblright" unicode="&#x201d;" horiz-adv-x="519" 
d="M463 691h-37q-45 12 -45 56q0 27 18 43.5t46 16.5q36 0 55 -26t19 -63q0 -67 -58 -117t-145 -59l7 38q60 9 100 41.5t40 69.5zM263 691h-37q-45 12 -45 56q0 27 18 43.5t46 16.5q36 0 55 -26t19 -63q0 -68 -56.5 -117.5t-146.5 -58.5l7 38q60 9 100 41.5t40 69.5z" />
    <glyph glyph-name="quotedblbase" unicode="&#x201e;" horiz-adv-x="519" 
d="M373 5h-37q-45 12 -45 56q0 27 18 43.5t46 16.5q36 0 55 -26t19 -63q0 -67 -58 -117t-145 -59l7 38q60 9 100 41.5t40 69.5zM173 5h-37q-45 12 -45 56q0 27 18 43.5t46 16.5q36 0 55 -26t19 -63q0 -68 -56.5 -117.5t-146.5 -58.5l7 38q60 9 100 41.5t40 69.5z" />
    <glyph glyph-name="reversequotedblleft" unicode="&#x201f;" horiz-adv-x="519" 
d="M219 691h-37q0 -37 40 -69.5t100 -41.5l7 -38q-87 9 -145 59t-58 117q0 37 19 63t55 26q28 0 46 -16.5t18 -43.5q0 -44 -45 -56zM419 691h-37q0 -37 40 -69.5t100 -41.5l7 -38q-90 9 -146.5 58.5t-56.5 117.5q0 37 19 63t55 26q28 0 46 -16.5t18 -43.5q0 -44 -45 -56z
" />
    <glyph glyph-name="dagger" unicode="&#x2020;" horiz-adv-x="687" 
d="M371 780h75l7 -23l-66 -257l260 34l24 -10l-9 -71l-26 -10l-252 34l8 -224l-94 -503h-31l30 503l62 224l-260 -34l-24 10l9 71l26 10l252 -34l-4 257z" />
    <glyph glyph-name="daggerdbl" unicode="&#x2021;" horiz-adv-x="687" 
d="M300 269l59 208l-260 -34l-24 10l9 71l26 10l252 -34l-4 257l13 23h75l7 -23l-66 -257l260 34l24 -10l-9 -71l-26 -10l-252 34l11 -208l-62 -206l260 34l24 -10l-9 -71l-26 -10l-252 34l4 -257l-13 -23h-75l-7 23l66 257l-260 -34l-24 10l9 71l26 10l252 -34z" />
    <glyph glyph-name="bullet" unicode="&#x2022;" horiz-adv-x="385" 
d="M106 333q0 43 30 73.5t73 30.5t73.5 -30.5t30.5 -73.5t-30.5 -73t-73.5 -30t-73 30t-30 73z" />
    <glyph glyph-name="ellipsis" unicode="&#x2026;" horiz-adv-x="1000" 
d="M97 53q0 26 18.5 45t44.5 19t45 -19t19 -45t-19 -44.5t-45 -18.5t-44.5 18.5t-18.5 44.5zM436 53q0 26 18.5 45t44.5 19t45 -19t19 -45t-19 -44.5t-45 -18.5t-44.5 18.5t-18.5 44.5zM776 53q0 26 18.5 45t44.5 19t45 -19t19 -45t-19 -44.5t-45 -18.5t-44.5 18.5
t-18.5 44.5z" />
    <glyph glyph-name="perthousand" unicode="&#x2030;" horiz-adv-x="1440" 
d="M853 780l-604 -780h-56l604 780h56zM285 375q-78 0 -124.5 47t-46.5 129q0 100 50 169.5t141 69.5q78 0 124.5 -47t46.5 -129q0 -100 -50 -169.5t-141 -69.5zM404 630q0 119 -99 119q-33 0 -57.5 -20.5t-37 -54t-18.5 -68t-6 -71.5q0 -119 99 -119q33 0 57.5 20.5t37 54
t18.5 68t6 71.5zM761 364q-33 0 -57.5 -20.5t-37 -54t-18.5 -68t-6 -71.5q0 -119 99 -119q33 0 57.5 20.5t37 54t18.5 68t6 71.5q0 119 -99 119zM761 405q78 0 124.5 -47t46.5 -129q0 -100 -50 -169.5t-141 -69.5q-78 0 -124.5 47t-46.5 129q0 100 50 169.5t141 69.5z
M1189 364q-33 0 -57.5 -20.5t-37 -54t-18.5 -68t-6 -71.5q0 -119 99 -119q33 0 57.5 20.5t37 54t18.5 68t6 71.5q0 119 -99 119zM1189 405q78 0 124.5 -47t46.5 -129q0 -100 -50 -169.5t-141 -69.5q-78 0 -124.5 47t-46.5 129q0 100 50 169.5t141 69.5z" />
    <glyph glyph-name="minute" unicode="&#x2032;" horiz-adv-x="171" 
d="M123 780h78l-76 -250h-32z" />
    <glyph glyph-name="second" unicode="&#x2033;" horiz-adv-x="316" 
d="M123 780h78l-76 -250h-32zM269 780h78l-76 -250h-32z" />
    <glyph glyph-name="tripleprime" unicode="&#x2034;" horiz-adv-x="485" 
d="M156 524h-43l5 256h95zM308 524h-43l5 256h95zM460 524h-43l5 256h95z" />
    <glyph glyph-name="guilsinglleft" unicode="&#x2039;" horiz-adv-x="307" 
d="M64 269l1 10l192 190h37l-152 -195l104 -195h-37z" />
    <glyph glyph-name="guilsinglright" unicode="&#x203a;" horiz-adv-x="307" 
d="M264 279l-1 -10l-193 -190h-37l152 195l-104 195h37z" />
    <glyph glyph-name="interrobang" unicode="&#x203d;" horiz-adv-x="528" 
d="M330 449q69 36 101 75t32 98q0 52 -36.5 88t-101.5 36q-60 0 -91.5 -28t-31.5 -81q0 -20 5 -40h-75q-19 21 -19 56q0 64 61.5 100.5t151.5 36.5q101 0 156.5 -47.5t55.5 -124.5q0 -142 -167 -221q-68 -33 -92 -67.5t-24 -92.5v-36h-25q-28 56 -28 98q0 64 63 110l6 162
l5 46h86l-5 -46l-39 -129zM163 53q0 26 18.5 45t44.5 19t45 -19t19 -45t-19 -44.5t-45 -18.5t-44.5 18.5t-18.5 44.5z" />
    <glyph glyph-name="fraction" unicode="&#x2044;" horiz-adv-x="283" 
d="M-179 0l639 780h56l-639 -780h-56z" />
    <glyph glyph-name="uni2070" unicode="&#x2070;" horiz-adv-x="441" 
d="M232 323q38 0 67 29t43.5 73t21.5 86.5t7 79.5q0 73 -22 117.5t-68 44.5q-38 0 -67.5 -29.5t-44 -74t-21.5 -86.5t-7 -78q0 -74 22.5 -118t68.5 -44zM229 290q-77 0 -120 57.5t-43 145.5q0 50 13 99.5t38 94t68.5 72t98.5 27.5q77 0 119.5 -57.5t42.5 -145.5
q0 -50 -13 -100t-38 -94t-68 -71.5t-98 -27.5z" />
    <glyph glyph-name="uni2074" unicode="&#x2074;" horiz-adv-x="429" 
d="M94 457h188l27 225zM329 296h-67l15 126h-239l2 26l314 332h34l-39 -323h79l-5 -35h-79z" />
    <glyph glyph-name="uni2075" unicode="&#x2075;" horiz-adv-x="389" 
d="M372 449q0 -72 -47.5 -115.5t-122.5 -43.5q-77 0 -115 32t-38 73q0 40 37 55h39q-6 -22 -6 -43q0 -37 21 -62t64 -25q47 0 75 29t28 78q0 131 -199 131l53 222h142q28 0 42 6t26 27h31l-41 -96h-183l-23 -106q92 0 154.5 -41t62.5 -121z" />
    <glyph glyph-name="uni2076" unicode="&#x2076;" horiz-adv-x="401" 
d="M400 762q-90 -24 -158 -76t-94 -129q46 44 111 44q66 0 103 -39.5t37 -100.5q0 -77 -49.5 -124t-122.5 -47q-79 0 -123 51.5t-44 127.5q0 112 88.5 199t243.5 118zM226 563q-47 0 -87 -35q-6 -30 -6 -62q0 -62 23.5 -103t71.5 -41q49 0 74.5 35t25.5 94q0 52 -27 82
t-75 30z" />
    <glyph glyph-name="uni2077" unicode="&#x2077;" horiz-adv-x="379" 
d="M354 715h-177q-28 0 -45.5 -14t-37.5 -45h-25l50 124h298l-2 -18l-253 -466h-70z" />
    <glyph glyph-name="uni2078" unicode="&#x2078;" horiz-adv-x="401" 
d="M404 673q0 -45 -32.5 -74t-80.5 -42l19 -12q79 -47 79 -118q0 -56 -44 -96.5t-122 -40.5q-74 0 -119.5 37t-45.5 92q0 49 34 82t90 47l-7 4q-62 35 -62 107q0 53 39.5 90t106.5 37t106 -31.5t39 -81.5zM264 499l-59 35q-81 -38 -81 -114q0 -44 27.5 -71.5t72.5 -27.5
q44 0 71.5 25t27.5 70q0 49 -59 83zM227 596l44 -26q37 19 53.5 43t16.5 60q0 35 -21.5 58.5t-61.5 23.5q-37 0 -59 -21.5t-22 -57.5q0 -50 50 -80z" />
    <glyph glyph-name="uni2079" unicode="&#x2079;" horiz-adv-x="401" 
d="M65 313q91 25 158.5 76.5t93.5 127.5q-46 -43 -111 -43t-102.5 39.5t-37.5 100.5q0 77 50 124t123 47q80 0 123.5 -51t43.5 -128q0 -111 -88.5 -198.5t-244.5 -118.5zM240 512q46 0 85 34q7 28 7 63q0 63 -22.5 103.5t-71.5 40.5t-74.5 -34.5t-25.5 -93.5q0 -53 27 -83
t75 -30z" />
    <glyph glyph-name="uni207A" unicode="&#x207a;" horiz-adv-x="438" 
d="M205 351l18 151h-147l5 39h147l18 149h44l-18 -149h147l-5 -39h-147l-18 -151h-44z" />
    <glyph glyph-name="uni207B" unicode="&#x207b;" horiz-adv-x="438" 
d="M411 502h-338l5 39h338z" />
    <glyph glyph-name="uni207C" unicode="&#x207c;" horiz-adv-x="438" 
d="M407 457h-338l5 40h338zM418 546h-338l4 39h338z" />
    <glyph glyph-name="uni207D" unicode="&#x207d;" horiz-adv-x="245" 
d="M82 481q0 210 185 346l21 -31q-79 -71 -120 -142.5t-41 -172.5q0 -117 95 -227l-29 -25q-111 108 -111 252z" />
    <glyph glyph-name="uni207E" unicode="&#x207e;" horiz-adv-x="245" 
d="M227 575q0 -209 -185 -346l-21 31q79 71 120 142.5t41 172.5q0 117 -95 227l28 25q112 -109 112 -252z" />
    <glyph glyph-name="n.superior" unicode="&#x207f;" horiz-adv-x="491" 
d="M157 665q0 16 -15 16q-25 0 -66 -59l-22 13q48 93 121 93q51 0 51 -49q0 -17 -10 -54l-40 -163h3q117 266 226 266q50 0 50 -55q0 -37 -26 -140.5t-26 -123.5q0 -19 16 -19q23 0 61 52l21 -13q-51 -84 -112 -84q-55 0 -55 50q0 22 26 129.5t26 136.5q0 22 -15 22
q-38 0 -100.5 -99.5t-102.5 -231.5h-64l50 288q3 14 3 25z" />
    <glyph glyph-name="uni2080" unicode="&#x2080;" horiz-adv-x="441" 
d="M202 27q38 0 67 29t43.5 73t21.5 86.5t7 79.5q0 73 -22 117.5t-68 44.5q-38 0 -67.5 -29.5t-44 -74t-21.5 -86.5t-7 -78q0 -74 22.5 -118t68.5 -44zM199 -6q-77 0 -120 57.5t-43 145.5q0 50 13 99.5t38 94t68.5 72t98.5 27.5q77 0 119.5 -57.5t42.5 -145.5
q0 -50 -13 -100t-38 -94t-68 -71.5t-98 -27.5z" />
    <glyph glyph-name="uni2081" unicode="&#x2081;" horiz-adv-x="339" 
d="M240 490h17l-50 -403q-2 -14 -2 -24q0 -20 23 -26t82 -10l-3 -27h-296l2 27q35 2 52 3.5t36.5 6.5t28 14.5t10.5 24.5l38 313h-121l2 23l37 6q53 8 84 23t60 49z" />
    <glyph glyph-name="uni2082" unicode="&#x2082;" horiz-adv-x="383" 
d="M90 56h104q49 0 71 12t52 60h22l-39 -128h-311l2 14q183 162 229 217.5t46 121.5q0 39 -22.5 60.5t-62.5 21.5t-65.5 -16t-55.5 -48l-16 14q59 105 165 105q63 0 98.5 -32.5t35.5 -84.5q0 -35 -10.5 -64t-38 -61.5t-50 -54t-73.5 -65.5t-81 -72z" />
    <glyph glyph-name="uni2083" unicode="&#x2083;" horiz-adv-x="392" 
d="M132 255q145 48 145 124q0 29 -18 45.5t-51 16.5q-63 0 -119 -69l-17 16q60 102 162 102q55 0 85.5 -27t30.5 -72q0 -82 -118 -117q55 -7 86.5 -41.5t31.5 -85.5q0 -73 -54 -113t-125 -40q-75 0 -113.5 31.5t-38.5 71.5q0 42 37 57h38q-5 -25 -5 -43q0 -37 21.5 -62.5
t61.5 -25.5q50 0 77.5 30t27.5 86q0 44 -26 72.5t-69 28.5q-17 0 -44 -6z" />
    <glyph glyph-name="uni2084" unicode="&#x2084;" horiz-adv-x="429" 
d="M64 161h188l27 225zM299 0h-67l15 126h-239l2 26l314 332h34l-39 -323h79l-5 -35h-79z" />
    <glyph glyph-name="uni2085" unicode="&#x2085;" horiz-adv-x="389" 
d="M342 153q0 -72 -47.5 -115.5t-122.5 -43.5q-77 0 -115 32t-38 73q0 40 37 55h39q-6 -22 -6 -43q0 -37 21 -62t64 -25q47 0 75 29t28 78q0 131 -199 131l53 222h142q28 0 42 6t26 27h31l-41 -96h-183l-23 -106q92 0 154.5 -41t62.5 -121z" />
    <glyph glyph-name="uni2086" unicode="&#x2086;" horiz-adv-x="401" 
d="M370 466q-90 -24 -158 -76t-94 -129q46 44 111 44q66 0 103 -39.5t37 -100.5q0 -77 -49.5 -124t-122.5 -47q-79 0 -123 51.5t-44 127.5q0 112 88.5 199t243.5 118zM196 267q-47 0 -87 -35q-6 -30 -6 -62q0 -62 23.5 -103t71.5 -41q49 0 74.5 35t25.5 94q0 52 -27 82
t-75 30z" />
    <glyph glyph-name="uni2087" unicode="&#x2087;" horiz-adv-x="379" 
d="M324 419h-177q-28 0 -45.5 -14t-37.5 -45h-25l50 124h298l-2 -18l-253 -466h-70z" />
    <glyph glyph-name="uni2088" unicode="&#x2088;" horiz-adv-x="401" 
d="M374 377q0 -45 -32.5 -74t-80.5 -42l19 -12q79 -47 79 -118q0 -56 -44 -96.5t-122 -40.5q-74 0 -119.5 37t-45.5 92q0 49 34 82t90 47l-7 4q-62 35 -62 107q0 53 39.5 90t106.5 37t106 -31.5t39 -81.5zM234 203l-59 35q-81 -38 -81 -114q0 -44 27.5 -71.5t72.5 -27.5
q44 0 71.5 25t27.5 70q0 49 -59 83zM197 300l44 -26q37 19 53.5 43t16.5 60q0 35 -21.5 58.5t-61.5 23.5q-37 0 -59 -21.5t-22 -57.5q0 -50 50 -80z" />
    <glyph glyph-name="uni2089" unicode="&#x2089;" horiz-adv-x="401" 
d="M35 17q91 25 158.5 76.5t93.5 127.5q-46 -43 -111 -43t-102.5 39.5t-37.5 100.5q0 77 50 124t123 47q80 0 123.5 -51t43.5 -128q0 -111 -88.5 -198.5t-244.5 -118.5zM210 216q46 0 85 34q7 28 7 63q0 63 -22.5 103.5t-71.5 40.5t-74.5 -34.5t-25.5 -93.5q0 -53 27 -83
t75 -30z" />
    <glyph glyph-name="uni208A" unicode="&#x208a;" horiz-adv-x="438" 
d="M175 55l18 151h-147l5 39h147l18 149h44l-18 -149h147l-5 -39h-147l-18 -151h-44z" />
    <glyph glyph-name="uni208B" unicode="&#x208b;" horiz-adv-x="438" 
d="M381 206h-338l5 39h338z" />
    <glyph glyph-name="uni208C" unicode="&#x208c;" horiz-adv-x="438" 
d="M377 161h-338l5 40h338zM388 250h-338l4 39h338z" />
    <glyph glyph-name="uni208D" unicode="&#x208d;" horiz-adv-x="245" 
d="M52 185q0 210 185 346l21 -31q-79 -71 -120 -142.5t-41 -172.5q0 -117 95 -227l-29 -25q-111 108 -111 252z" />
    <glyph glyph-name="uni208E" unicode="&#x208e;" horiz-adv-x="245" 
d="M197 279q0 -209 -185 -346l-21 31q79 71 120 142.5t41 172.5q0 117 -95 227l28 25q112 -109 112 -252z" />
    <glyph glyph-name="Euro" unicode="&#x20ac;" horiz-adv-x="760" 
d="M81 432l5 42h97q36 136 124.5 226t221.5 90q126 0 211 -72l-15 -158h-25q-14 93 -60 138.5t-115 45.5q-101 0 -165 -75t-89 -195h323l-23 -42h-308q-7 -45 -8 -81h282l-24 -42h-258q1 -130 56 -202t149 -72q80 0 134 47t94 149h29l-37 -180q-41 -30 -103.5 -45.5
t-123.5 -15.5q-128 0 -208.5 85t-81.5 234h-98l6 42h93q1 34 10 81h-93z" />
    <glyph glyph-name="afii61289" unicode="&#x2113;" horiz-adv-x="369" 
d="M223 -10q-140 0 -140 121v110q-11 -9 -56 -40v63q2 1 23 16.5t31 23.5v270q0 221 132 221q53 0 81.5 -36t28.5 -105q0 -104 -53.5 -205.5t-122.5 -165.5v-128q0 -47 17 -65.5t60 -18.5q34 0 62 11l8 -61q-29 -11 -71 -11zM147 564v-219q50 55 84.5 135.5t34.5 157.5
q0 79 -52 79q-67 0 -67 -153z" />
    <glyph glyph-name="numero" unicode="&#x2116;" horiz-adv-x="1418" 
d="M903 0l7 52h374l-7 -52h-374zM184 164l62 516q-32 43 -51.5 55t-63.5 12l4 33h163l401 -631l56 471q10 84 47 127t108 43q99 0 99 -74q0 -36 -36 -58h-64q6 28 6 44q0 41 -32 41q-62 0 -77 -127l-75 -616h-32l-406 636l-58 -476q-10 -84 -47 -127t-108 -43q-99 0 -99 74
q0 36 36 58h64q-6 -28 -6 -44q0 -41 32 -41q62 0 77 127zM1109 198q62 0 102.5 77.5t40.5 174.5q0 136 -83 136q-62 0 -102.5 -77.5t-40.5 -174.5q0 -136 83 -136zM1097 162q-74 0 -110.5 46t-36.5 120q0 115 63.5 204.5t167.5 89.5q74 0 110.5 -46t36.5 -120
q0 -115 -63.5 -204.5t-167.5 -89.5z" />
    <glyph glyph-name="published" unicode="&#x2117;" horiz-adv-x="890" 
d="M64 390q0 166 117 283t283 117t283 -117t117 -283t-117 -283t-283 -117t-283 117t-117 283zM94 390q0 -153 108.5 -261.5t261.5 -108.5t261.5 108.5t108.5 261.5t-108.5 261.5t-261.5 108.5t-261.5 -108.5t-108.5 -261.5zM501 349h-87l-8 -76q-4 -34 -4 -48
q0 -22 20 -30.5t74 -10.5l-5 -25h-254l2 25q85 0 91 53l34 280q4 30 4 46q0 41 -78 41l4 25h210q183 0 183 -126q0 -69 -50 -111.5t-136 -42.5zM445 596l-26 -214h61q129 0 129 119q0 95 -111 95h-53z" />
    <glyph glyph-name="servicemark" unicode="&#x2120;" horiz-adv-x="862" 
d="M221 445q-70 0 -110 38l6 83h18q10 -48 31 -71t58 -23q69 0 69 53q0 24 -16.5 40t-58.5 36q-39 19 -58 41t-19 54q0 42 28.5 66t75.5 24q60 0 107 -35l-10 -72h-17q-12 80 -83 80q-25 0 -40 -14t-15 -38q0 -20 11.5 -31t45.5 -28q50 -25 73.5 -48.5t23.5 -59.5
q0 -45 -35 -70t-85 -25zM614 521l128 234q3 4 7 25h86l-3 -24q-36 -3 -42 -27l5 -231q0 -12 8 -16t29 -6l-3 -24h-139l3 24q26 2 36.5 5.5t10.5 13.5q0 21 -1 95t-1 96l-130 -234h-28l-76 247l-37 -168q-6 -25 -6 -34q0 -11 7.5 -15.5t33.5 -5.5l-3 -24h-118l3 24
q36 2 41 22l56 231q0 13 -7 19.5t-29 7.5l3 24h94q1 -9 4 -25z" />
    <glyph glyph-name="trademark" unicode="&#x2122;" horiz-adv-x="900" 
d="M652 521l128 234q3 4 7 25h86l-3 -24q-36 -3 -42 -27l5 -231q0 -12 8 -16t29 -6l-3 -24h-139l3 24q26 2 36.5 5.5t10.5 13.5q0 21 -1 95t-1 96l-130 -234h-28l-76 247l-37 -168q-6 -25 -6 -34q0 -11 7.5 -15.5t33.5 -5.5l-3 -24h-118l3 24q36 2 41 22l56 231
q0 13 -7 19.5t-29 7.5l3 24h94q1 -9 4 -25zM125 780h311l-3 -92h-22q-15 40 -25 51t-40 11h-39l-27 -234l-2 -16q0 -21 47 -24l-2 -24h-162l3 24q52 3 55 29l29 245h-40q-30 0 -42.5 -11t-35.5 -51h-23z" />
    <glyph glyph-name="estimated" unicode="&#x212e;" horiz-adv-x="810" 
d="M795 363h-662q4 -88 31 -157.5t89.5 -117.5t154.5 -49q133 -2 214.5 57t92.5 167h65q-20 -139 -118 -206.5t-257 -67.5q-174 0 -282 109t-108 290q0 182 108 291t282 109t282 -109t108 -291v-25zM405 738q-69 0 -121.5 -27t-83.5 -73.5t-47.5 -102.5t-18.5 -121h543
q-3 65 -19.5 121t-47.5 102.5t-83.5 73.5t-121.5 27z" />
    <glyph glyph-name="uni2153" unicode="&#x2153;" horiz-adv-x="969" 
d="M709 255q145 48 145 124q0 29 -18 45.5t-51 16.5q-63 0 -119 -69l-17 16q60 102 162 102q55 0 85.5 -27t30.5 -72q0 -82 -118 -117q55 -7 86.5 -41.5t31.5 -85.5q0 -73 -54 -113t-125 -40q-75 0 -113.5 31.5t-38.5 71.5q0 42 37 57h38q-5 -25 -5 -43q0 -37 21.5 -62.5
t61.5 -25.5q50 0 77.5 30t27.5 86q0 44 -26 72.5t-69 28.5q-17 0 -44 -6zM270 786h17l-50 -403q-2 -14 -2 -24q0 -20 23 -26t82 -10l-3 -27h-296l2 27q35 2 52 3.5t36.5 6.5t28 14.5t10.5 24.5l38 313h-121l2 23l37 6q53 8 84 23t60 49zM178 0l639 780h56l-639 -780h-56z
" />
    <glyph glyph-name="uni2154" unicode="&#x2154;" horiz-adv-x="975" 
d="M715 255q145 48 145 124q0 29 -18 45.5t-51 16.5q-63 0 -119 -69l-17 16q60 102 162 102q55 0 85.5 -27t30.5 -72q0 -82 -118 -117q55 -7 86.5 -41.5t31.5 -85.5q0 -73 -54 -113t-125 -40q-75 0 -113.5 31.5t-38.5 71.5q0 42 37 57h38q-5 -25 -5 -43q0 -37 21.5 -62.5
t61.5 -25.5q50 0 77.5 30t27.5 86q0 44 -26 72.5t-69 28.5q-17 0 -44 -6zM120 352h104q49 0 71 12t52 60h22l-39 -128h-311l2 14q183 162 229 217.5t46 121.5q0 39 -22.5 60.5t-62.5 21.5t-65.5 -16t-55.5 -48l-16 14q60 105 165 105q63 0 98.5 -32.5t35.5 -84.5
q0 -35 -10.5 -64t-38 -61.5t-50 -54t-73.5 -65.5t-81 -72zM184 0l639 780h56l-639 -780h-56z" />
    <glyph glyph-name="uni2155" unicode="&#x2155;" horiz-adv-x="976" 
d="M270 786h17l-50 -403q-2 -14 -2 -24q0 -20 23 -26t82 -10l-3 -27h-296l2 27q35 2 52 3.5t36.5 6.5t28 14.5t10.5 24.5l38 313h-121l2 23l37 6q53 8 84 23t60 49zM178 0l639 780h56l-639 -780h-56zM929 153q0 -72 -47.5 -115.5t-122.5 -43.5q-77 0 -115 32t-38 73
q0 40 37 55h39q-6 -23 -6 -43q0 -37 21 -62t64 -25q47 0 75 29t28 78q0 131 -199 131l53 222h142q28 0 42 6t26 27h31l-41 -96h-183l-23 -106q92 0 154.5 -41t62.5 -121z" />
    <glyph glyph-name="uni2156" unicode="&#x2156;" horiz-adv-x="982" 
d="M120 352h104q49 0 71 12t52 60h22l-39 -128h-311l2 14q183 162 229 217.5t46 121.5q0 39 -22.5 60.5t-62.5 21.5t-65.5 -16t-55.5 -48l-16 14q60 105 165 105q63 0 98.5 -32.5t35.5 -84.5q0 -35 -10.5 -64t-38 -61.5t-50 -54t-73.5 -65.5t-81 -72zM184 0l639 780h56
l-639 -780h-56zM935 153q0 -72 -47.5 -115.5t-122.5 -43.5q-77 0 -115 32t-38 73q0 40 37 55h39q-6 -23 -6 -43q0 -37 21 -62t64 -25q47 0 75 29t28 78q0 131 -199 131l53 222h142q28 0 42 6t26 27h31l-41 -96h-183l-23 -106q92 0 154.5 -41t62.5 -121z" />
    <glyph glyph-name="uni2157" unicode="&#x2157;" horiz-adv-x="982" 
d="M162 551q145 48 145 124q0 29 -18 45.5t-51 16.5q-63 0 -119 -69l-17 16q60 102 162 102q55 0 85.5 -27t30.5 -72q0 -82 -118 -117q55 -7 86.5 -41.5t31.5 -85.5q0 -73 -54 -113t-125 -40q-75 0 -113.5 31.5t-38.5 71.5q0 42 37 57h38q-5 -25 -5 -43q0 -37 21.5 -62.5
t61.5 -25.5q50 0 77.5 30t27.5 86q0 44 -26 72.5t-69 28.5q-17 0 -44 -6zM185 0l639 780h56l-639 -780h-56zM935 153q0 -72 -47.5 -115.5t-122.5 -43.5q-77 0 -115 32t-38 73q0 40 37 55h39q-6 -23 -6 -43q0 -37 21 -62t64 -25q47 0 75 29t28 78q0 131 -199 131l53 222h142
q28 0 42 6t26 27h31l-41 -96h-183l-23 -106q92 0 154.5 -41t62.5 -121z" />
    <glyph glyph-name="uni2158" unicode="&#x2158;" horiz-adv-x="996" 
d="M94 457h188l27 225zM329 296h-67l15 126h-239l2 26l314 332h34l-39 -323h79l-5 -35h-79zM198 0l639 780h56l-639 -780h-56zM949 153q0 -72 -47.5 -115.5t-122.5 -43.5q-77 0 -115 32t-38 73q0 40 37 55h39q-6 -23 -6 -43q0 -37 21 -62t64 -25q47 0 75 29t28 78
q0 131 -199 131l53 222h142q28 0 42 6t26 27h31l-41 -96h-183l-23 -106q92 0 154.5 -41t62.5 -121z" />
    <glyph glyph-name="uni2159" unicode="&#x2159;" horiz-adv-x="938" 
d="M921 466q-90 -24 -158 -76t-94 -129q46 44 111 44q66 0 103 -39.5t37 -100.5q0 -77 -49.5 -124t-122.5 -47q-79 0 -123 51.5t-44 127.5q0 112 88.5 199t243.5 118zM178 0l639 780h56l-639 -780h-56zM270 786h17l-50 -403q-2 -14 -2 -24q0 -20 23 -26t82 -10l-3 -27h-296
l2 27q35 2 52 3.5t36.5 6.5t28 14.5t10.5 24.5l38 313h-121l2 23l37 6q53 8 84 23t60 49zM747 267q-47 0 -87 -35q-6 -30 -6 -62q0 -62 23.5 -103t71.5 -41q49 0 74.5 35t25.5 94q0 52 -27 82t-75 30z" />
    <glyph glyph-name="uni215A" unicode="&#x215a;" horiz-adv-x="928" 
d="M911 466q-90 -24 -158 -76t-94 -129q46 44 111 44q66 0 103 -39.5t37 -100.5q0 -77 -49.5 -124t-122.5 -47q-79 0 -123 51.5t-44 127.5q0 112 88.5 199t243.5 118zM372 449q0 -72 -47.5 -115.5t-122.5 -43.5q-77 0 -115 32t-38 73q0 40 37 55h39q-6 -22 -6 -43
q0 -37 21 -62t64 -25q47 0 75 29t28 78q0 131 -199 131l53 222h142q28 0 42 6t26 27h31l-41 -96h-183l-23 -106q92 0 154.5 -41t62.5 -121zM168 0l639 780h56l-639 -780h-56zM737 267q-47 0 -87 -35q-6 -30 -6 -62q0 -62 23.5 -103t71.5 -41q49 0 74.5 35t25.5 94
q0 52 -27 82t-75 30z" />
    <glyph glyph-name="uni215B" unicode="&#x215b;" horiz-adv-x="988" 
d="M961 377q0 -45 -32.5 -74t-80.5 -42l19 -12q79 -47 79 -118q0 -56 -44 -96.5t-122 -40.5q-74 0 -119.5 37t-45.5 92q0 49 34 82t90 47l-7 4q-62 35 -62 107q0 53 39.5 90t106.5 37t106 -31.5t39 -81.5zM821 203l-59 35q-81 -38 -81 -114q0 -44 27.5 -71.5t72.5 -27.5
q44 0 71.5 25t27.5 70q0 49 -59 83zM784 300l44 -26q37 19 53.5 43t16.5 60q0 35 -21.5 58.5t-61.5 23.5q-37 0 -59 -21.5t-22 -57.5q0 -50 50 -80zM270 786h17l-50 -403q-2 -14 -2 -24q0 -20 23 -26t82 -10l-3 -27h-296l2 27q35 2 52 3.5t36.5 6.5t28 14.5t10.5 24.5
l38 313h-121l2 23l37 6q53 8 84 23t60 49zM178 0l639 780h56l-639 -780h-56z" />
    <glyph glyph-name="uni215C" unicode="&#x215c;" horiz-adv-x="994" 
d="M967 377q0 -45 -32.5 -74t-80.5 -42l19 -12q79 -47 79 -118q0 -56 -44 -96.5t-122 -40.5q-74 0 -119.5 37t-45.5 92q0 49 34 82t90 47l-7 4q-62 35 -62 107q0 53 39.5 90t106.5 37t106 -31.5t39 -81.5zM827 203l-59 35q-81 -38 -81 -114q0 -44 27.5 -71.5t72.5 -27.5
q44 0 71.5 25t27.5 70q0 49 -59 83zM790 300l44 -26q37 19 53.5 43t16.5 60q0 35 -21.5 58.5t-61.5 23.5q-37 0 -59 -21.5t-22 -57.5q0 -50 50 -80zM162 551q145 48 145 124q0 29 -18 45.5t-51 16.5q-63 0 -119 -69l-17 16q60 102 162 102q55 0 85.5 -27t30.5 -72
q0 -82 -118 -117q55 -7 86.5 -41.5t31.5 -85.5q0 -73 -54 -113t-125 -40q-75 0 -113.5 31.5t-38.5 71.5q0 42 37 57h38q-5 -25 -5 -43q0 -37 21.5 -62.5t61.5 -25.5q50 0 77.5 30t27.5 86q0 44 -26 72.5t-69 28.5q-17 0 -44 -6zM185 0l639 780h56l-639 -780h-56z" />
    <glyph glyph-name="uni215D" unicode="&#x215d;" horiz-adv-x="977" 
d="M372 449q0 -72 -47.5 -115.5t-122.5 -43.5q-77 0 -115 32t-38 73q0 40 37 55h39q-6 -22 -6 -43q0 -37 21 -62t64 -25q47 0 75 29t28 78q0 131 -199 131l53 222h142q28 0 42 6t26 27h31l-41 -96h-183l-23 -106q92 0 154.5 -41t62.5 -121zM168 0l639 780h56l-639 -780h-56z
M950 377q0 -45 -32.5 -74t-80.5 -42l19 -12q79 -47 79 -118q0 -56 -44 -96.5t-122 -40.5q-74 0 -119.5 37t-45.5 92q0 49 34 82t90 47l-7 4q-62 35 -62 107q0 53 39.5 90t106.5 37t106 -31.5t39 -81.5zM810 203l-59 35q-81 -38 -81 -114q0 -44 27.5 -71.5t72.5 -27.5
q44 0 71.5 25t27.5 70q0 49 -59 83zM773 300l44 -26q37 19 53.5 43t16.5 60q0 35 -21.5 58.5t-61.5 23.5q-37 0 -59 -21.5t-22 -57.5q0 -50 50 -80z" />
    <glyph glyph-name="uni215E" unicode="&#x215e;" horiz-adv-x="858" 
d="M354 715h-177q-28 0 -45.5 -14t-37.5 -45h-25l50 124h298l-2 -18l-253 -466h-70zM831 377q0 -45 -32.5 -74t-80.5 -42l19 -12q79 -47 79 -118q0 -56 -44 -96.5t-122 -40.5q-74 0 -119.5 37t-45.5 92q0 49 34 82t90 47l-7 4q-62 35 -62 107q0 53 39.5 90t106.5 37
t106 -31.5t39 -81.5zM691 203l-59 35q-81 -38 -81 -114q0 -44 27.5 -71.5t72.5 -27.5q44 0 71.5 25t27.5 70q0 49 -59 83zM654 300l44 -26q37 19 53.5 43t16.5 60q0 35 -21.5 58.5t-61.5 23.5q-37 0 -59 -21.5t-22 -57.5q0 -50 50 -80zM48 0l639 780h56l-639 -780h-56z" />
    <glyph glyph-name="uni215F" unicode="&#x215f;" horiz-adv-x="657" 
d="M270 786h17l-50 -403q-2 -14 -2 -24q0 -20 23 -26t82 -10l-3 -27h-296l2 27q35 2 52 3.5t36.5 6.5t28 14.5t10.5 24.5l38 313h-121l2 23l37 6q53 8 84 23t60 49zM178 0l639 780h56l-639 -780h-56z" />
    <glyph glyph-name="arrowleft" unicode="&#x2190;" horiz-adv-x="860" 
d="M452 101l-411 283v12l411 283v-52l-260 -216h639v-42h-639l260 -216v-52z" />
    <glyph glyph-name="arrowup" unicode="&#x2191;" horiz-adv-x="860" 
d="M141 379l283 411h12l283 -411h-52l-216 270v-649h-42v649l-216 -270h-52z" />
    <glyph glyph-name="arrowright" unicode="&#x2192;" horiz-adv-x="860" 
d="M831 384l-411 -283v52l260 216h-639v42h639l-260 216v52l411 -283v-12z" />
    <glyph glyph-name="arrowdown" unicode="&#x2193;" horiz-adv-x="860" 
d="M424 -10l-283 411h52l216 -270v649h42v-649l216 270h52l-283 -411h-12z" />
    <glyph glyph-name="uni2196" unicode="&#x2196;" horiz-adv-x="860" 
d="M119 290l-90 491l8 9l491 -91l-37 -37l-337 38l453 -458l-30 -30l-451 458l30 -343z" />
    <glyph glyph-name="uni2197" unicode="&#x2197;" horiz-adv-x="860" 
d="M831 781l-90 -491l-37 37l30 343l-451 -458l-30 30l453 458l-337 -38l-37 37l491 91z" />
    <glyph glyph-name="uni2198" unicode="&#x2198;" horiz-adv-x="860" 
d="M741 490l90 -491l-8 -9l-491 91l37 37l337 -38l-453 458l30 30l451 -458l-30 343z" />
    <glyph glyph-name="uni2199" unicode="&#x2199;" horiz-adv-x="860" 
d="M29 -1l90 491l37 -37l-31 -343l452 458l30 -30l-453 -458l337 38l37 -37l-491 -91z" />
    <glyph glyph-name="partialdiff" unicode="&#x2202;" horiz-adv-x="615" 
d="M275 35q86 0 142.5 78.5t56.5 177.5q0 86 -37 142t-107 56q-88 0 -143.5 -77.5t-55.5 -187.5q0 -80 37.5 -134.5t106.5 -54.5zM482 447q-2 131 -67.5 216t-165.5 85q-73 0 -124 -31l-12 19q64 54 169 54q77 0 133.5 -34t87.5 -93.5t45.5 -130.5t14.5 -156
q0 -168 -80.5 -277t-210.5 -109q-100 0 -160 62.5t-60 172.5q0 128 77 218t201 90q105 0 152 -86z" />
    <glyph glyph-name="increment" unicode="&#x2206;" horiz-adv-x="815" 
d="M20 0l4 37l437 743h42l262 -743l-4 -37h-741zM667 45l-216 631l-369 -631h585z" />
    <glyph glyph-name="product" unicode="&#x220f;" horiz-adv-x="954" 
d="M769 736h-444l-75 -605q-3 -21 -3 -36q0 -25 15.5 -39t36.5 -17.5t61 -5.5l-4 -33h-326l4 33q31 1 51.5 4.5t39.5 12t29 25t13 41.5l65 533q3 21 3 36q0 25 -15.5 39t-36.5 17.5t-61 5.5l4 33h851l-4 -33q-31 -1 -51.5 -4.5t-39.5 -12t-29 -25t-13 -41.5l-65 -533
q-3 -21 -3 -36q0 -25 15.5 -39t36.5 -17.5t61 -5.5l-4 -33h-326l4 33q64 3 95.5 19t37.5 64z" />
    <glyph glyph-name="summation" unicode="&#x2211;" horiz-adv-x="659" 
d="M560 0h-548l7 63l362 325l-272 321l11 71h534l-19 -178h-20q-23 79 -49.5 106.5t-91.5 27.5h-275l269 -312l-4 -28l-372 -329h300q77 0 106 17.5t85 97.5h25z" />
    <glyph glyph-name="minus" unicode="&#x2212;" 
d="M609 260h-540l7 51h540z" />
    <glyph glyph-name="radical" unicode="&#x221a;" horiz-adv-x="775" 
d="M322 81l480 683h53l-542 -764h-62l-49 470h-109l5 36l181 30z" />
    <glyph glyph-name="infinity" unicode="&#x221e;" horiz-adv-x="871" 
d="M216 433q-52 0 -81 -36.5t-29 -89.5q0 -48 30.5 -74.5t82.5 -26.5q99 0 187 106l-91 79q-49 42 -99 42zM507 225l-74 65q-42 -60 -102 -98t-117 -38q-74 0 -122 37.5t-48 112.5q0 91 54.5 143t136.5 52q43 0 74.5 -15.5t70.5 -49.5l74 -65q42 60 102 98t117 38
q74 0 122 -37.5t48 -112.5q0 -91 -54.5 -143t-136.5 -52q-43 0 -74.5 15.5t-70.5 49.5zM671 226q52 0 81 36.5t29 89.5q0 48 -30.5 74.5t-82.5 26.5q-99 0 -187 -106l91 -79q49 -42 99 -42z" />
    <glyph glyph-name="integral" unicode="&#x222b;" horiz-adv-x="616" 
d="M155 1l123 552q25 113 83.5 175t151.5 62q56 0 87 -29t31 -66q0 -42 -35 -58h-61q8 18 8 42q0 30 -15.5 46.5t-43.5 16.5q-87 0 -124 -165l-123 -552q-25 -113 -83.5 -175t-151.5 -62q-56 0 -87 29t-31 66q0 42 35 58h61q-8 -18 -8 -42q0 -30 15.5 -46.5t43.5 -16.5
q87 0 124 165z" />
    <glyph glyph-name="approxequal" unicode="&#x2248;" 
d="M92 334l-22 35q5 6 16 16t51 26t88 16q59 0 133 -36t124 -36q38 0 68.5 11.5t41.5 22.5l12 11l21 -35q-5 -6 -16 -16t-51 -26t-88 -16q-60 0 -133 36t-123 36q-38 0 -68.5 -11.5t-41.5 -22.5zM92 176l-22 35q5 6 16 16t51 26t88 16q59 0 133 -36t124 -36q38 0 68.5 11
t41.5 22l12 12l21 -35q-5 -6 -16 -16t-51 -26t-88 -16q-60 0 -133 36t-123 36q-38 0 -68.5 -11t-41.5 -22z" />
    <glyph glyph-name="notequal" unicode="&#x2260;" 
d="M178 95l74 92h-183l7 50h211l77 96h-277l7 51h305l75 92h60l-75 -92h175l-7 -51h-203l-77 -96h272l-7 -50h-300l-74 -92h-60z" />
    <glyph glyph-name="equivalence" unicode="&#x2261;" 
d="M614 120h-540l6 47h540zM675 613h-540l6 47h540zM645 368h-540l5 46h540z" />
    <glyph glyph-name="lessequal" unicode="&#x2264;" 
d="M575 11l-519 168l7 52l520 -169zM118 355l149 -49l331 -105l-7 -56l-518 172l9 77l561 169l-8 -57l-357 -102z" />
    <glyph glyph-name="greaterequal" unicode="&#x2265;" 
d="M436 306l161 49l-149 49l-333 102l8 57l519 -169l-10 -77l-561 -172l7 56zM615 179l-561 -168l9 54l560 169z" />
    <glyph glyph-name="squaremultiply" unicode="&#x22a0;" horiz-adv-x="976" 
d="M98 0v780h780v-780h-780zM811 717h-646v-654h646v654zM216 165l225 225l-225 225l47 47l225 -225l224 225l48 -47l-225 -225l225 -225l-48 -47l-224 225l-225 -225z" />
    <glyph glyph-name="house" unicode="&#x2302;" horiz-adv-x="850" 
d="M780 0h-710v450l355 340l355 -340v-450z" />
    <glyph glyph-name="blacksquare" unicode="&#x25a0;" horiz-adv-x="976" 
d="M878 780v-780h-780v780h780z" />
    <glyph glyph-name="blacksquare" unicode="&#xe740;" horiz-adv-x="976" 
d="M878 780v-780h-780v780h780z" />
    <glyph glyph-name="whitesquare" unicode="&#x25a1;" horiz-adv-x="976" 
d="M98 0v780h780v-780h-780zM811 717h-646v-654h646v654z" />
    <glyph glyph-name="blacksmallsquare" unicode="&#x25aa;" horiz-adv-x="726" 
d="M628 530v-530h-530v530h530z" />
    <glyph glyph-name="whitesmallsquare" unicode="&#x25ab;" horiz-adv-x="726" 
d="M98 0v530h530v-530h-530zM561 467h-396v-404h396v404z" />
    <glyph glyph-name="triagup" unicode="&#x25b2;" horiz-adv-x="800" 
d="M790 0h-780l390 676z" />
    <glyph glyph-name="triagrt" unicode="&#x25ba;" horiz-adv-x="800" 
d="M34 0v780l676 -390z" />
    <glyph glyph-name="triagdn" unicode="&#x25bc;" horiz-adv-x="800" 
d="M10 780h780l-390 -676z" />
    <glyph glyph-name="triaglf" unicode="&#x25c4;" horiz-adv-x="800" 
d="M710 780v-780l-676 390z" />
    <glyph glyph-name="lozenge" unicode="&#x25ca;" horiz-adv-x="900" 
d="M434 64l335 329l-252 324l-335 -329zM427 -10l-319 400l417 400l319 -400z" />
    <glyph glyph-name="whitecircle" unicode="&#x25cb;" horiz-adv-x="976" 
d="M88 390q0 166 117 283t283 117t283 -117t117 -283t-117 -283t-283 -117t-283 117t-117 283zM815 390q0 138 -95.5 235.5t-231.5 97.5q-137 0 -232 -97.5t-95 -235.5t95.5 -235.5t231.5 -97.5q137 0 232 97.5t95 235.5z" />
    <glyph glyph-name="whitecircle" unicode="&#x25ef;" horiz-adv-x="976" 
d="M88 390q0 166 117 283t283 117t283 -117t117 -283t-117 -283t-283 -117t-283 117t-117 283zM815 390q0 138 -95.5 235.5t-231.5 97.5q-137 0 -232 -97.5t-95 -235.5t95.5 -235.5t231.5 -97.5q137 0 232 97.5t95 235.5z" />
    <glyph glyph-name="bullseye" unicode="&#x25ce;" horiz-adv-x="960" 
d="M80 390q0 166 117 283t283 117t283 -117t117 -283t-117 -283t-283 -117t-283 117t-117 283zM330 390q0 62 44 106t106 44t106 -44t44 -106t-44 -106t-106 -44t-106 44t-44 106zM157 339q0 -113 79.5 -192.5t192.5 -79.5t193 79.5t80 192.5t-80 193t-193 80t-192.5 -80
t-79.5 -193z" />
    <glyph glyph-name="blackcircle" unicode="&#x25cf;" horiz-adv-x="976" 
d="M88 390q0 166 117 283t283 117t283 -117t117 -283t-117 -283t-283 -117t-283 117t-117 283z" />
    <glyph glyph-name="uni25E2" unicode="&#x25e2;" horiz-adv-x="800" 
d="M26 202l552 552l202 -754z" />
    <glyph glyph-name="uni25E3" unicode="&#x25e3;" horiz-adv-x="800" 
d="M222 754l552 -552l-754 -202z" />
    <glyph glyph-name="uni25E4" unicode="&#x25e4;" horiz-adv-x="800" 
d="M774 578l-552 -552l-202 754z" />
    <glyph glyph-name="uni25E5" unicode="&#x25e5;" horiz-adv-x="800" 
d="M578 26l-552 552l754 202z" />
    <glyph glyph-name="uni2605" unicode="&#x2605;" horiz-adv-x="880" 
d="M440 180l-260 -190l99 307l-260 189h322l99 306l99 -306h322l-260 -189l99 -307z" />
    <glyph glyph-name="ballotboxwithx" unicode="&#x2612;" horiz-adv-x="710" 
d="M90 0v530h530v-530h-530zM550 464h-390v-398h390v398zM180 136l130 129l-130 129l46 46l129 -130l129 130l46 -46l-130 -129l130 -129l-46 -46l-129 130l-129 -130z" />
    <glyph glyph-name="uni263C" unicode="&#x263c;" horiz-adv-x="960" 
d="M880 390l-169 -30l155 -73l-171 15l132 -112l-162 59l98 -141l-141 98l58 -162l-111 130l15 -170l-74 155l-30 -169l-30 169l-74 -155l15 170l-111 -130l58 162l-141 -98l98 141l-162 -59l132 112l-171 -15l155 73l-169 30l169 30l-155 73l171 -15l-132 112l162 -59
l-98 141l141 -98l-58 162l111 -130l-15 170l74 -155l30 169l30 -169l74 155l-15 -170l111 130l-58 -162l141 98l-98 -141l162 59l-132 -112l171 15l-155 -73z" />
    <glyph glyph-name="uni263E" unicode="&#x263e;" horiz-adv-x="960" 
d="M624 728q-134 0 -229 -99t-95 -239t95 -239t229 -99q50 0 96 15q-107 -77 -240 -77q-166 0 -283 117t-117 283t117 283t283 117q131 0 240 -77q-52 15 -96 15z" />
    <glyph glyph-name="spade" unicode="&#x2660;" horiz-adv-x="900" 
d="M451 790q32 -48 97 -116t136 -114q78 -51 121 -103t43 -123q0 -73 -51 -123.5t-125 -50.5q-69 0 -120.5 46t-79.5 115l-3 -1q8 -102 26.5 -174t55.5 -146h-202q37 74 55.5 146t26.5 174l-3 1q-28 -69 -79.5 -115t-120.5 -46q-74 0 -125 50.5t-51 123.5q0 71 43 123
t121 103q71 46 136 114t97 116h2z" />
    <glyph glyph-name="club" unicode="&#x2663;" horiz-adv-x="900" 
d="M349 0q37 74 55.5 146t26.5 174l-3 1q-28 -69 -79.5 -115t-120.5 -46q-74 0 -125 50.5t-51 123.5q0 79 48.5 129.5t125.5 50.5q40 0 84 -23l2 2q-38 57 -38 117q0 75 50.5 127.5t125.5 52.5t125.5 -52.5t50.5 -127.5q0 -60 -38 -117l2 -2q44 23 84 23q77 0 125.5 -50.5
t48.5 -129.5q0 -73 -51 -123.5t-125 -50.5q-69 0 -120.5 46t-79.5 115l-3 -1q8 -102 26.5 -174t55.5 -146h-202z" />
    <glyph glyph-name="heart" unicode="&#x2665;" horiz-adv-x="900" 
d="M451 -10h-2q-28 43 -94 126.5t-139 166.5q-164 185 -164 301q0 90 52 148t139 58q85 0 132.5 -42.5t72.5 -114.5h4q25 72 72.5 114.5t132.5 42.5q87 0 139 -58t52 -148q0 -116 -164 -301q-73 -83 -139 -166.5t-94 -126.5z" />
    <glyph glyph-name="diamond" unicode="&#x2666;" horiz-adv-x="900" 
d="M817 390q-106 -83 -202.5 -188.5t-163.5 -211.5h-2q-67 106 -163.5 211.5t-202.5 188.5q106 83 202.5 188.5t163.5 211.5h2q67 -106 163.5 -211.5t202.5 -188.5z" />
    <glyph glyph-name="musicflatsign" unicode="&#x266d;" horiz-adv-x="480" 
d="M68 -42v862h52v-369q20 38 64.5 65t89.5 27q171 0 171 -184q0 -95 -55 -179t-139 -139.5t-183 -82.5zM120 343v-309q42 15 83 39t84.5 62t70.5 94t27 121q0 135 -118 135q-57 0 -99.5 -45.5t-47.5 -96.5z" />
    <glyph glyph-name="musicsharpsign" unicode="&#x266f;" horiz-adv-x="466" 
d="M355 880v-210l91 73v-79l-91 -74v-205l91 73v-79l-91 -74v-305h-51v265l-142 -114v-251h-51v210l-91 -73v79l91 74v205l-91 -73v79l91 74v305h51v-265l142 114v251h51zM162 435v-205l142 114v206z" />
    <glyph glyph-name="uni267B" unicode="&#x267b;" horiz-adv-x="960" 
d="M863 266l1 -2l-96 -167q-15 -22 -21.5 -30t-24 -17t-42.5 -9h-57v-49l-113 136l113 135v-49h145q26 0 50 13t34 26zM186 122h-2l-96 168q-11 21 -15 32t-3 30.5t14 40.5l28 49l-42 24l174 31l59 -166l-41 24q-70 -120 -72 -125q-13 -23 -14 -50t4 -42zM404 779v1h193
q24 -1 36 -2.5t28 -12.5t28 -32l28 -49l43 24l-61 -166l-173 31l41 24l-72 125q-13 23 -36 37.5t-39 16.5zM200 598l67 119q10 17 34 31q46 24 97 10t68 -45l-116 -201zM446 41h-135q-22 0 -44 13q-43 25 -57.5 79.5t4.5 80.5h232v-173zM806 527l69 -117q10 -18 10 -44
q1 -48 -38 -87t-74 -39l-116 201z" />
    <glyph glyph-name="uni267C" unicode="&#x267c;" horiz-adv-x="960" 
d="M880 389q0 -166 -116.5 -282.5t-282.5 -116.5q-167 0 -284 116.5t-117 282.5q0 167 117 284t284 117q166 0 282.5 -117t116.5 -284zM313 645l-52 -92l116 -67l90 156q-13 24 -52.5 34.5t-75.5 -7.5q-18 -11 -26 -24zM415 694v-1q48 -5 71 -44l56 -97l-32 -19l134 -24
l47 129l-33 -19l-22 38q-14 24 -29.5 30.5t-41.5 6.5h-150zM343 121h105v134h-180q-15 -20 -3.5 -62.5t44.5 -61.5q17 -10 34 -10zM249 184h1q-20 44 3 84l56 97l32 -19l-46 129l-135 -24l33 -19l-22 -38q-10 -16 -11 -31.5t2 -23.5t12 -25zM784 407l-53 91l-116 -67
l90 -156q27 0 57.5 30t29.5 68q0 20 -8 34zM776 294l-1 1q-3 -4 -9 -11t-25.5 -18t-39.5 -11h-112v38l-88 -105l88 -105v38h44q28 0 41.5 10.5t26.5 32.5z" />
    <glyph glyph-name="uni267D" unicode="&#x267d;" horiz-adv-x="960" 
d="M880 389q0 -166 -116.5 -282.5t-282.5 -116.5q-167 0 -284 116.5t-117 282.5q0 167 117 284t284 117q166 0 282.5 -117t116.5 -284zM860 389q0 158 -111 269.5t-268 111.5q-158 0 -269.5 -111.5t-111.5 -269.5q0 -157 111.5 -268t269.5 -111q157 0 268 111t111 268z
M261 553l52 92q8 13 26 24q36 18 75.5 7.5t52.5 -34.5l-90 -156zM415 693v1h150q26 0 41.5 -6.5t29.5 -30.5l22 -38l33 19l-47 -129l-134 24l32 19l-56 97q-10 17 -28 28t-30 13zM448 121h-105q-17 0 -34 10q-33 19 -44.5 61.5t3.5 62.5h180v-134zM250 184h-1l-75 130
q-9 17 -12 25t-2 23.5t11 31.5l22 38l-33 19l135 24l46 -129l-32 19l-56 -97q-10 -18 -11 -39t4 -33zM731 498l53 -91q8 -14 8 -34q1 -38 -29.5 -68t-57.5 -30l-90 156zM775 295l1 -1l-75 -130q-9 -15 -15 -22.5t-20 -14t-33 -6.5h-44v-38l-88 105l88 105v-38h112
q20 0 38.5 10t26.5 20z" />
    <glyph glyph-name="mediumwhitecircle" unicode="&#x26aa;" horiz-adv-x="710" 
d="M80 265q0 114 80.5 194.5t194.5 80.5t194.5 -80.5t80.5 -194.5t-80.5 -194.5t-194.5 -80.5t-194.5 80.5t-80.5 194.5zM561 265q0 86 -60.5 147t-145.5 61t-145.5 -61t-60.5 -147t60.5 -147t145.5 -61t145.5 61t60.5 147z" />
    <glyph glyph-name="mediumblackcircle" unicode="&#x26ab;" horiz-adv-x="710" 
d="M80 265q0 114 80.5 194.5t194.5 80.5t194.5 -80.5t80.5 -194.5t-80.5 -194.5t-194.5 -80.5t-194.5 80.5t-80.5 194.5z" />
    <glyph glyph-name="anglebracketleft" unicode="&#x3008;" horiz-adv-x="373" 
d="M213 -121l-121 476l235 476h50l-234 -480l117 -472h-47z" />
    <glyph glyph-name="anglebracketright" unicode="&#x3009;" horiz-adv-x="373" 
d="M204 831l121 -476l-235 -476h-50l234 480l-117 472h47z" />
    <glyph glyph-name="ytilde.school" unicode="&#xe160;" horiz-adv-x="608" 
d="M567 523l-78 -462q-28 -167 -103 -239t-180 -72q-77 0 -131.5 30t-54.5 84q0 43 42 62h31q0 -68 30 -104.5t89 -36.5q84 0 131 70t77 216l61 296h-4q-24 -60 -42.5 -101.5t-49.5 -98t-59.5 -91.5t-67 -60.5t-78.5 -25.5q-34 0 -53.5 22t-19.5 60q0 56 37 201t37 178
q0 21 -19 21q-25 0 -54.5 -26.5t-53.5 -64.5l-28 15q35 71 79 104t85 33q33 0 50.5 -17.5t17.5 -46.5q0 -32 -39 -185.5t-39 -197.5q0 -43 34 -43q40 0 92.5 70t101 178.5t86.5 231.5h73zM551 727l35 -6q-56 -111 -140 -111q-30 0 -71.5 32t-64.5 32q-25 0 -43 -12.5
t-39 -44.5l-35 6q56 111 140 111q30 0 71.5 -32t64.5 -32q25 0 43 12.5t39 44.5z" />
    <glyph glyph-name="g.school" unicode="&#xe161;" horiz-adv-x="579" 
d="M340 117q-91 -127 -178 -127q-59 0 -89 40t-30 110q0 96 44.5 187.5t117.5 148.5t150 57q33 0 63 -14.5t43 -42.5l72 66h26l-35 -111l-70 -391q-51 -290 -277 -290q-76 0 -130 30t-54 84q0 42 42 62h32q0 -67 29 -104t87 -37q84 0 130.5 68t72.5 203l39 203h-4
q-25 -64 -81 -142zM184 38q52 0 127 99q53 70 91.5 152.5t51.5 151.5q-25 57 -92 57q-63 0 -119 -54.5t-87 -135t-32 -160.5q0 -110 60 -110z" />
    <glyph glyph-name="gcircumflex.school" unicode="&#xe163;" horiz-adv-x="579" 
d="M408 800l122 -208h-34l-121 137l-163 -137h-34l174 208h56zM340 117q-91 -127 -178 -127q-59 0 -89 40t-30 110q0 96 44.5 187.5t117.5 148.5t150 57q33 0 63 -14.5t43 -42.5l72 66h26l-35 -111l-70 -391q-51 -290 -277 -290q-76 0 -130 30t-54 84q0 42 42 62h32
q0 -67 29 -104t87 -37q84 0 130.5 68t72.5 203l39 203h-4q-25 -64 -81 -142zM184 38q52 0 127 99q53 70 91.5 152.5t51.5 151.5q-25 57 -92 57q-63 0 -119 -54.5t-87 -135t-32 -160.5q0 -110 60 -110z" />
    <glyph glyph-name="gbreve.school" unicode="&#xe166;" horiz-adv-x="579" 
d="M340 117q-91 -127 -178 -127q-59 0 -89 40t-30 110q0 96 44.5 187.5t117.5 148.5t150 57q33 0 63 -14.5t43 -42.5l72 66h26l-35 -111l-70 -391q-51 -290 -277 -290q-76 0 -130 30t-54 84q0 42 42 62h32q0 -67 29 -104t87 -37q84 0 130.5 68t72.5 203l39 203h-4
q-25 -64 -81 -142zM184 38q52 0 127 99q53 70 91.5 152.5t51.5 151.5q-25 57 -92 57q-63 0 -119 -54.5t-87 -135t-32 -160.5q0 -110 60 -110zM360 601q-75 0 -114 39.5t-39 114.5q0 21 3 45h37q0 -142 120 -142q124 0 155 142h37q-25 -199 -199 -199z" />
    <glyph glyph-name="gdotaccent.school" unicode="&#xe167;" horiz-adv-x="579" 
d="M367 628q-24 0 -40 15.5t-16 38.5q0 25 17 44t43 19q24 0 40 -15.5t16 -38.5q0 -25 -17 -44t-43 -19zM340 117q-91 -127 -178 -127q-59 0 -89 40t-30 110q0 96 44.5 187.5t117.5 148.5t150 57q33 0 63 -14.5t43 -42.5l72 66h26l-35 -111l-70 -391q-51 -290 -277 -290
q-76 0 -130 30t-54 84q0 42 42 62h32q0 -67 29 -104t87 -37q84 0 130.5 68t72.5 203l39 203h-4q-25 -64 -81 -142zM184 38q52 0 127 99q53 70 91.5 152.5t51.5 151.5q-25 57 -92 57q-63 0 -119 -54.5t-87 -135t-32 -160.5q0 -110 60 -110z" />
    <glyph glyph-name="gcommaaccent.school" unicode="&#xe168;" horiz-adv-x="579" 
d="M360 706h31q44 -11 44 -52q0 -24 -16 -40t-43 -16q-33 0 -50 20.5t-17 51.5q0 48 38.5 84t106.5 38l-6 -34q-36 -4 -55.5 -15.5t-32.5 -36.5zM340 117q-91 -127 -178 -127q-59 0 -89 40t-30 110q0 96 44.5 187.5t117.5 148.5t150 57q33 0 63 -14.5t43 -42.5l72 66h26
l-35 -111l-70 -391q-51 -290 -277 -290q-76 0 -130 30t-54 84q0 42 42 62h32q0 -67 29 -104t87 -37q84 0 130.5 68t72.5 203l39 203h-4q-25 -64 -81 -142zM184 38q52 0 127 99q53 70 91.5 152.5t51.5 151.5q-25 57 -92 57q-63 0 -119 -54.5t-87 -135t-32 -160.5
q0 -110 60 -110z" />
    <glyph glyph-name="y.school" unicode="&#xe16b;" horiz-adv-x="608" 
d="M567 523l-78 -462q-28 -167 -103 -239t-180 -72q-77 0 -131.5 30t-54.5 84q0 43 42 62h31q0 -68 30 -104.5t89 -36.5q84 0 131 70t77 216l61 296h-4q-24 -60 -42.5 -101.5t-49.5 -98t-59.5 -91.5t-67 -60.5t-78.5 -25.5q-34 0 -53.5 22t-19.5 60q0 56 37 201t37 178
q0 21 -19 21q-25 0 -54.5 -26.5t-53.5 -64.5l-28 15q35 71 79 104t85 33q33 0 50.5 -17.5t17.5 -46.5q0 -32 -39 -185.5t-39 -197.5q0 -43 34 -43q40 0 92.5 70t101 178.5t86.5 231.5h73z" />
    <glyph glyph-name="ygrave.school" unicode="&#xe16c;" horiz-adv-x="608" 
d="M567 523l-78 -462q-28 -167 -103 -239t-180 -72q-77 0 -131.5 30t-54.5 84q0 43 42 62h31q0 -68 30 -104.5t89 -36.5q84 0 131 70t77 216l61 296h-4q-24 -60 -42.5 -101.5t-49.5 -98t-59.5 -91.5t-67 -60.5t-78.5 -25.5q-34 0 -53.5 22t-19.5 60q0 56 37 201t37 178
q0 21 -19 21q-25 0 -54.5 -26.5t-53.5 -64.5l-28 15q35 71 79 104t85 33q33 0 50.5 -17.5t17.5 -46.5q0 -32 -39 -185.5t-39 -197.5q0 -43 34 -43q40 0 92.5 70t101 178.5t86.5 231.5h73zM217 800h98l84 -208h-33z" />
    <glyph glyph-name="yacute.school" unicode="&#xe16d;" horiz-adv-x="608" 
d="M567 523l-78 -462q-28 -167 -103 -239t-180 -72q-77 0 -131.5 30t-54.5 84q0 43 42 62h31q0 -68 30 -104.5t89 -36.5q84 0 131 70t77 216l61 296h-4q-24 -60 -42.5 -101.5t-49.5 -98t-59.5 -91.5t-67 -60.5t-78.5 -25.5q-34 0 -53.5 22t-19.5 60q0 56 37 201t37 178
q0 21 -19 21q-25 0 -54.5 -26.5t-53.5 -64.5l-28 15q35 71 79 104t85 33q33 0 50.5 -17.5t17.5 -46.5q0 -32 -39 -185.5t-39 -197.5q0 -43 34 -43q40 0 92.5 70t101 178.5t86.5 231.5h73zM494 800h107l-219 -208h-33z" />
    <glyph glyph-name="ycircumflex.school" unicode="&#xe16e;" horiz-adv-x="608" 
d="M443 800l122 -208h-34l-121 137l-163 -137h-34l174 208h56zM567 523l-78 -462q-28 -167 -103 -239t-180 -72q-77 0 -131.5 30t-54.5 84q0 43 42 62h31q0 -68 30 -104.5t89 -36.5q84 0 131 70t77 216l61 296h-4q-24 -60 -42.5 -101.5t-49.5 -98t-59.5 -91.5t-67 -60.5
t-78.5 -25.5q-34 0 -53.5 22t-19.5 60q0 56 37 201t37 178q0 21 -19 21q-25 0 -54.5 -26.5t-53.5 -64.5l-28 15q35 71 79 104t85 33q33 0 50.5 -17.5t17.5 -46.5q0 -32 -39 -185.5t-39 -197.5q0 -43 34 -43q40 0 92.5 70t101 178.5t86.5 231.5h73z" />
    <glyph glyph-name="ydieresis.school" unicode="&#xe16f;" horiz-adv-x="608" 
d="M292 628q-24 0 -40 15.5t-16 38.5q0 25 17 44t43 19q24 0 40 -15.5t16 -38.5q0 -25 -17 -44t-43 -19zM492 628q-24 0 -40 15.5t-16 38.5q0 25 17 44t43 19q24 0 40 -15.5t16 -38.5q0 -25 -17 -44t-43 -19zM567 523l-78 -462q-28 -167 -103 -239t-180 -72q-77 0 -131.5 30
t-54.5 84q0 43 42 62h31q0 -68 30 -104.5t89 -36.5q84 0 131 70t77 216l61 296h-4q-24 -60 -42.5 -101.5t-49.5 -98t-59.5 -91.5t-67 -60.5t-78.5 -25.5q-34 0 -53.5 22t-19.5 60q0 56 37 201t37 178q0 21 -19 21q-25 0 -54.5 -26.5t-53.5 -64.5l-28 15q35 71 79 104t85 33
q33 0 50.5 -17.5t17.5 -46.5q0 -32 -39 -185.5t-39 -197.5q0 -43 34 -43q40 0 92.5 70t101 178.5t86.5 231.5h73z" />
    <glyph glyph-name="ymacron.school" unicode="&#xe171;" horiz-adv-x="608" 
d="M567 523l-78 -462q-28 -167 -103 -239t-180 -72q-77 0 -131.5 30t-54.5 84q0 43 42 62h31q0 -68 30 -104.5t89 -36.5q84 0 131 70t77 216l61 296h-4q-24 -60 -42.5 -101.5t-49.5 -98t-59.5 -91.5t-67 -60.5t-78.5 -25.5q-34 0 -53.5 22t-19.5 60q0 56 37 201t37 178
q0 21 -19 21q-25 0 -54.5 -26.5t-53.5 -64.5l-28 15q35 71 79 104t85 33q33 0 50.5 -17.5t17.5 -46.5q0 -32 -39 -185.5t-39 -197.5q0 -43 34 -43q40 0 92.5 70t101 178.5t86.5 231.5h73zM258 652l6 52h264l-6 -52h-264z" />
    <glyph glyph-name="cordinal" unicode="&#xe181;" horiz-adv-x="328" 
d="M244 693q-51 0 -82 -60.5t-31 -134.5q0 -57 16.5 -84.5t55.5 -27.5q53 0 107 74l22 -14q-22 -41 -61.5 -71t-85.5 -30q-61 0 -92 37.5t-31 94.5q0 102 58.5 176.5t147.5 74.5q40 0 62.5 -18.5t22.5 -43.5q0 -28 -25 -41h-30q-6 68 -54 68z" />
    <glyph glyph-name="p.smcp" unicode="&#xe200;" horiz-adv-x="574" 
d="M231 229l-11 -93q-5 -42 -5 -58q0 -25 22 -35t86 -12l-5 -31h-288l4 31q51 0 75.5 13t28.5 47l41 327q5 45 5 59q0 26 -21.5 37t-69.5 12l4 31h245q217 0 217 -149q0 -84 -58.5 -131.5t-161.5 -47.5h-108zM267 517l-30 -248h83q77 0 115 32.5t38 104.5q0 111 -133 111
h-73z" />
    <glyph glyph-name="p.smcp" unicode="&#xf770;" horiz-adv-x="574" 
d="M231 229l-11 -93q-5 -42 -5 -58q0 -25 22 -35t86 -12l-5 -31h-288l4 31q51 0 75.5 13t28.5 47l41 327q5 45 5 59q0 26 -21.5 37t-69.5 12l4 31h245q217 0 217 -149q0 -84 -58.5 -131.5t-161.5 -47.5h-108zM267 517l-30 -248h83q77 0 115 32.5t38 104.5q0 111 -133 111
h-73z" />
    <glyph glyph-name="a.smcp" unicode="&#xe201;" horiz-adv-x="646" 
d="M463 119l-19 63h-262l-44 -71q-18 -30 -18 -49q0 -17 18 -24t61 -7l-5 -31h-199l4 31q42 2 56 25l285 462l-16 47h81l156 -509q8 -25 50 -25l-4 -31h-231l5 31q47 1 69.5 9.5t22.5 31.5q0 12 -10 47zM358 466l-151 -244h225z" />
    <glyph glyph-name="a.smcp" unicode="&#xf761;" horiz-adv-x="646" 
d="M463 119l-19 63h-262l-44 -71q-18 -30 -18 -49q0 -17 18 -24t61 -7l-5 -31h-199l4 31q42 2 56 25l285 462l-16 47h81l156 -509q8 -25 50 -25l-4 -31h-231l5 31q47 1 69.5 9.5t22.5 31.5q0 12 -10 47zM358 466l-151 -244h225z" />
    <glyph glyph-name="b.smcp" unicode="&#xe202;" horiz-adv-x="614" 
d="M236 270l-17 -140q-4 -32 -4 -52q0 -38 65 -38h42q70 0 109 31t39 92q0 107 -145 107h-89zM358 517h-91l-25 -207h69q80 0 120.5 27t40.5 94q0 86 -114 86zM97 557h271q87 0 136.5 -31.5t49.5 -95.5q0 -69 -52 -102t-130 -38q84 -4 131 -36t47 -90q0 -81 -65 -122.5
t-168 -41.5h-287l4 31q51 0 75.5 13t28.5 47l41 327q5 45 5 59q0 26 -21.5 37t-69.5 12z" />
    <glyph glyph-name="b.smcp" unicode="&#xf762;" horiz-adv-x="614" 
d="M236 270l-17 -140q-4 -32 -4 -52q0 -38 65 -38h42q70 0 109 31t39 92q0 107 -145 107h-89zM358 517h-91l-25 -207h69q80 0 120.5 27t40.5 94q0 86 -114 86zM97 557h271q87 0 136.5 -31.5t49.5 -95.5q0 -69 -52 -102t-130 -38q84 -4 131 -36t47 -90q0 -81 -65 -122.5
t-168 -41.5h-287l4 31q51 0 75.5 13t28.5 47l41 327q5 45 5 59q0 26 -21.5 37t-69.5 12z" />
    <glyph glyph-name="c.smcp" unicode="&#xe203;" horiz-adv-x="617" 
d="M333 -10q-122 0 -196 69.5t-74 184.5q0 130 84 226.5t227 96.5q111 0 200 -57l-15 -128h-20q-10 69 -54 106t-111 37q-111 0 -168.5 -79t-57.5 -195q0 -100 50.5 -159.5t134.5 -59.5q73 0 119.5 37t86.5 110h27l-38 -140q-90 -49 -195 -49z" />
    <glyph glyph-name="c.smcp" unicode="&#xf763;" horiz-adv-x="617" 
d="M333 -10q-122 0 -196 69.5t-74 184.5q0 130 84 226.5t227 96.5q111 0 200 -57l-15 -128h-20q-10 69 -54 106t-111 37q-111 0 -168.5 -79t-57.5 -195q0 -100 50.5 -159.5t134.5 -59.5q73 0 119.5 37t86.5 110h27l-38 -140q-90 -49 -195 -49z" />
    <glyph glyph-name="d.smcp" unicode="&#xe204;" horiz-adv-x="666" 
d="M267 518l-48 -391q-4 -32 -4 -48q0 -40 64 -40h27q115 0 177 71t62 203q0 205 -204 205h-74zM30 0l4 31q51 0 75.5 13t28.5 47l41 327q5 45 5 59q0 26 -21.5 37t-69.5 12l4 31h251q132 0 206.5 -61t74.5 -175q0 -150 -87 -235.5t-235 -85.5h-277z" />
    <glyph glyph-name="d.smcp" unicode="&#xf764;" horiz-adv-x="666" 
d="M267 518l-48 -391q-4 -32 -4 -48q0 -40 64 -40h27q115 0 177 71t62 203q0 205 -204 205h-74zM30 0l4 31q51 0 75.5 13t28.5 47l41 327q5 45 5 59q0 26 -21.5 37t-69.5 12l4 31h251q132 0 206.5 -61t74.5 -175q0 -150 -87 -235.5t-235 -85.5h-277z" />
    <glyph glyph-name="e.smcp" unicode="&#xe205;" horiz-adv-x="624" 
d="M97 557h480l-17 -129h-21q-12 56 -34 72.5t-81 16.5h-157l-26 -208h123q58 0 74 73h29l-25 -186h-28q0 74 -55 74h-123l-17 -142q-4 -32 -4 -48q0 -40 61 -40h92q54 0 90 25t80 91h22l-49 -156h-481l4 31q51 0 75.5 13t28.5 47l41 327q5 45 5 59q0 26 -21.5 37t-69.5 12z
" />
    <glyph glyph-name="e.smcp" unicode="&#xf765;" horiz-adv-x="624" 
d="M97 557h480l-17 -129h-21q-12 56 -34 72.5t-81 16.5h-157l-26 -208h123q58 0 74 73h29l-25 -186h-28q0 74 -55 74h-123l-17 -142q-4 -32 -4 -48q0 -40 61 -40h92q54 0 90 25t80 91h22l-49 -156h-481l4 31q51 0 75.5 13t28.5 47l41 327q5 45 5 59q0 26 -21.5 37t-69.5 12z
" />
    <glyph glyph-name="f.smcp" unicode="&#xe206;" horiz-adv-x="577" 
d="M97 557h470l-15 -129h-26q-11 55 -36 72t-80 17h-143l-28 -228h118q57 0 75 73h25l-26 -185h-24q0 73 -55 73h-118l-14 -114q-5 -42 -5 -58q0 -25 22 -35t86 -12l-5 -31h-288l4 31q51 0 75.5 13t28.5 47l41 327q5 45 5 59q0 26 -21.5 37t-69.5 12z" />
    <glyph glyph-name="f.smcp" unicode="&#xf766;" horiz-adv-x="577" 
d="M97 557h470l-15 -129h-26q-11 55 -36 72t-80 17h-143l-28 -228h118q57 0 75 73h25l-26 -185h-24q0 73 -55 73h-118l-14 -114q-5 -42 -5 -58q0 -25 22 -35t86 -12l-5 -31h-288l4 31q51 0 75.5 13t28.5 47l41 327q5 45 5 59q0 26 -21.5 37t-69.5 12z" />
    <glyph glyph-name="g.smcp" unicode="&#xe207;" horiz-adv-x="663" 
d="M457 72l7 50q5 34 5 59q0 26 -21.5 37t-69.5 12l4 31h272l-4 -31q-51 0 -75.5 -13t-28.5 -47l-14 -122q-86 -58 -199 -58q-122 0 -196 69.5t-74 184.5q0 130 84 226.5t227 96.5q111 0 200 -57l-15 -128h-20q-10 69 -54 106t-111 37q-111 0 -168.5 -79t-57.5 -195
q0 -100 50.5 -159.5t134.5 -59.5q79 0 124 40z" />
    <glyph glyph-name="g.smcp" unicode="&#xf767;" horiz-adv-x="663" 
d="M457 72l7 50q5 34 5 59q0 26 -21.5 37t-69.5 12l4 31h272l-4 -31q-51 0 -75.5 -13t-28.5 -47l-14 -122q-86 -58 -199 -58q-122 0 -196 69.5t-74 184.5q0 130 84 226.5t227 96.5q111 0 200 -57l-15 -128h-20q-10 69 -54 106t-111 37q-111 0 -168.5 -79t-57.5 -195
q0 -100 50.5 -159.5t134.5 -59.5q79 0 124 40z" />
    <glyph glyph-name="h.smcp" unicode="&#xe208;" horiz-adv-x="771" 
d="M530 91l22 179h-316l-16 -131q-5 -45 -5 -59q0 -26 21.5 -37t69.5 -12l-4 -31h-272l4 31q51 0 75.5 13t28.5 47l41 327q5 45 5 59q0 26 -21.5 37t-69.5 12l4 31h272l-4 -31q-51 0 -75.5 -13t-28.5 -47l-20 -156h316l14 108q5 45 5 59q0 26 -21.5 37t-69.5 12l4 31h272
l-4 -31q-51 0 -75.5 -13t-28.5 -47l-41 -327q-5 -45 -5 -59q0 -26 21.5 -37t69.5 -12l-4 -31h-272l4 31q51 0 75.5 13t28.5 47z" />
    <glyph glyph-name="h.smcp" unicode="&#xf768;" horiz-adv-x="771" 
d="M530 91l22 179h-316l-16 -131q-5 -45 -5 -59q0 -26 21.5 -37t69.5 -12l-4 -31h-272l4 31q51 0 75.5 13t28.5 47l41 327q5 45 5 59q0 26 -21.5 37t-69.5 12l4 31h272l-4 -31q-51 0 -75.5 -13t-28.5 -47l-20 -156h316l14 108q5 45 5 59q0 26 -21.5 37t-69.5 12l4 31h272
l-4 -31q-51 0 -75.5 -13t-28.5 -47l-41 -327q-5 -45 -5 -59q0 -26 21.5 -37t69.5 -12l-4 -31h-272l4 31q51 0 75.5 13t28.5 47z" />
    <glyph glyph-name="i.smcp" unicode="&#xe209;" horiz-adv-x="379" 
d="M138 91l41 327q5 45 5 59q0 26 -21.5 37t-69.5 12l4 31h272l-4 -31q-51 0 -75.5 -13t-28.5 -47l-41 -327q-5 -45 -5 -59q0 -26 21.5 -37t69.5 -12l-4 -31h-272l4 31q51 0 75.5 13t28.5 47z" />
    <glyph glyph-name="i.smcp" unicode="&#xf769;" horiz-adv-x="379" 
d="M138 91l41 327q5 45 5 59q0 26 -21.5 37t-69.5 12l4 31h272l-4 -31q-51 0 -75.5 -13t-28.5 -47l-41 -327q-5 -45 -5 -59q0 -26 21.5 -37t69.5 -12l-4 -31h-272l4 31q51 0 75.5 13t28.5 47z" />
    <glyph glyph-name="j.smcp" unicode="&#xe20a;" horiz-adv-x="486" 
d="M282 150l34 268q5 45 5 59q0 26 -21.5 37t-69.5 12l4 31h272l-4 -31q-51 0 -75.5 -13t-28.5 -47l-38 -308q-20 -168 -192 -168q-72 0 -112.5 29.5t-40.5 70.5q0 45 41 65h55q-11 -22 -11 -49q0 -81 75 -81q92 0 107 125z" />
    <glyph glyph-name="j.smcp" unicode="&#xf76a;" horiz-adv-x="486" 
d="M282 150l34 268q5 45 5 59q0 26 -21.5 37t-69.5 12l4 31h272l-4 -31q-51 0 -75.5 -13t-28.5 -47l-38 -308q-20 -168 -192 -168q-72 0 -112.5 29.5t-40.5 70.5q0 45 41 65h55q-11 -22 -11 -49q0 -81 75 -81q92 0 107 125z" />
    <glyph glyph-name="k.smcp" unicode="&#xe20b;" horiz-adv-x="661" 
d="M336 305l148 -181q43 -52 73 -72t72 -21l-4 -31h-122q-39 30 -98 100l-151 185l220 185q24 24 24 34q0 11 -11 16t-47 6l4 31h214l-4 -31q-55 -3 -93 -35zM138 91l41 327q5 45 5 59q0 26 -21.5 37t-69.5 12l4 31h272l-4 -31q-51 0 -75.5 -13t-28.5 -47l-41 -327
q-5 -45 -5 -59q0 -26 21.5 -37t69.5 -12l-4 -31h-272l4 31q51 0 75.5 13t28.5 47z" />
    <glyph glyph-name="k.smcp" unicode="&#xf76b;" horiz-adv-x="661" 
d="M336 305l148 -181q43 -52 73 -72t72 -21l-4 -31h-122q-39 30 -98 100l-151 185l220 185q24 24 24 34q0 11 -11 16t-47 6l4 31h214l-4 -31q-55 -3 -93 -35zM138 91l41 327q5 45 5 59q0 26 -21.5 37t-69.5 12l4 31h272l-4 -31q-51 0 -75.5 -13t-28.5 -47l-41 -327
q-5 -45 -5 -59q0 -26 21.5 -37t69.5 -12l-4 -31h-272l4 31q51 0 75.5 13t28.5 47z" />
    <glyph glyph-name="l.smcp" unicode="&#xe20c;" horiz-adv-x="586" 
d="M261 466l-43 -340q-4 -33 -4 -50q0 -36 62 -36h81q49 0 85 28t86 97h24l-55 -165h-467l4 31q51 0 75.5 13t28.5 47l41 327q5 45 5 59q0 26 -21.5 37t-69.5 12l4 31h272l-4 -31q-51 0 -75.5 -13t-28.5 -47z" />
    <glyph glyph-name="l.smcp" unicode="&#xf76c;" horiz-adv-x="586" 
d="M261 466l-43 -340q-4 -33 -4 -50q0 -36 62 -36h81q49 0 85 28t86 97h24l-55 -165h-467l4 31q51 0 75.5 13t28.5 47l41 327q5 45 5 59q0 26 -21.5 37t-69.5 12l4 31h272l-4 -31q-51 0 -75.5 -13t-28.5 -47z" />
    <glyph glyph-name="m.smcp" unicode="&#xe20d;" horiz-adv-x="871" 
d="M812 557l-4 -31q-80 -2 -89 -49l18 -404q1 -23 18.5 -31.5t52.5 -10.5l-4 -31h-250l4 31q21 1 32.5 2.5t31 6.5t29.5 16t10 28q0 9 -0.5 19.5t-0.5 11.5l-13 329l-238 -444h-36l-117 444l-103 -339q-6 -18 -6 -35q0 -21 18.5 -28.5t61.5 -10.5l-5 -31h-217l5 31
q73 4 84 38l126 408q0 28 -16.5 38t-55.5 11l4 31h158q0 -19 7 -46l105 -403l212 403q15 28 19 46h159z" />
    <glyph glyph-name="m.smcp" unicode="&#xf76d;" horiz-adv-x="871" 
d="M812 557l-4 -31q-80 -2 -89 -49l18 -404q1 -23 18.5 -31.5t52.5 -10.5l-4 -31h-250l4 31q21 1 32.5 2.5t31 6.5t29.5 16t10 28q0 9 -0.5 19.5t-0.5 11.5l-13 329l-238 -444h-36l-117 444l-103 -339q-6 -18 -6 -35q0 -21 18.5 -28.5t61.5 -10.5l-5 -31h-217l5 31
q73 4 84 38l126 408q0 28 -16.5 38t-55.5 11l4 31h158q0 -19 7 -46l105 -403l212 403q15 28 19 46h159z" />
    <glyph glyph-name="n.smcp" unicode="&#xe20e;" horiz-adv-x="756" 
d="M558 119l35 299q5 45 5 59q0 26 -21.5 37t-69.5 12l4 31h245l-4 -31q-51 0 -75.5 -13t-28.5 -47l-58 -466h-34l-324 448l-39 -309q-5 -45 -5 -59q0 -26 21.5 -37t69.5 -12l-4 -31h-245l4 31q51 0 75.5 13t28.5 47l49 390q-22 28 -37.5 36.5t-51.5 8.5l4 31h144z" />
    <glyph glyph-name="n.smcp" unicode="&#xf76e;" horiz-adv-x="756" 
d="M558 119l35 299q5 45 5 59q0 26 -21.5 37t-69.5 12l4 31h245l-4 -31q-51 0 -75.5 -13t-28.5 -47l-58 -466h-34l-324 448l-39 -309q-5 -45 -5 -59q0 -26 21.5 -37t69.5 -12l-4 -31h-245l4 31q51 0 75.5 13t28.5 47l49 390q-22 28 -37.5 36.5t-51.5 8.5l4 31h144z" />
    <glyph glyph-name="o.smcp" unicode="&#xe20f;" horiz-adv-x="636" 
d="M309 32q94 0 149.5 80t55.5 202q0 95 -43 153t-118 58q-94 0 -149.5 -79t-55.5 -203q0 -96 42.5 -153.5t118.5 -57.5zM302 -10q-104 0 -171.5 68t-67.5 183q0 82 32.5 155t102 122t162.5 49q104 0 171.5 -68t67.5 -183q0 -82 -32.5 -155t-102 -122t-162.5 -49z" />
    <glyph glyph-name="o.smcp" unicode="&#xf76f;" horiz-adv-x="636" 
d="M309 32q94 0 149.5 80t55.5 202q0 95 -43 153t-118 58q-94 0 -149.5 -79t-55.5 -203q0 -96 42.5 -153.5t118.5 -57.5zM302 -10q-104 0 -171.5 68t-67.5 183q0 82 32.5 155t102 122t162.5 49q104 0 171.5 -68t67.5 -183q0 -82 -32.5 -155t-102 -122t-162.5 -49z" />
    <glyph glyph-name="q.smcp" unicode="&#xe211;" horiz-adv-x="636" 
d="M452 -78q59 -39 140 -39h19v-18q-42 -29 -101 -29q-83 0 -148 65l-91 91q-92 9 -150 76t-58 173q0 82 32.5 155t102 122t162.5 49q104 0 171.5 -68t67.5 -183q0 -118 -67.5 -212.5t-186.5 -110.5zM309 32q94 0 149.5 80t55.5 202q0 95 -43 153t-118 58q-94 0 -149.5 -79
t-55.5 -203q0 -96 42.5 -153.5t118.5 -57.5z" />
    <glyph glyph-name="q.smcp" unicode="&#xf771;" horiz-adv-x="636" 
d="M452 -78q59 -39 140 -39h19v-18q-42 -29 -101 -29q-83 0 -148 65l-91 91q-92 9 -150 76t-58 173q0 82 32.5 155t102 122t162.5 49q104 0 171.5 -68t67.5 -183q0 -118 -67.5 -212.5t-186.5 -110.5zM309 32q94 0 149.5 80t55.5 202q0 95 -43 153t-118 58q-94 0 -149.5 -79
t-55.5 -203q0 -96 42.5 -153.5t118.5 -57.5z" />
    <glyph glyph-name="r.smcp" unicode="&#xe212;" horiz-adv-x="655" 
d="M234 252l-14 -113q-5 -45 -5 -59q0 -26 21.5 -37t69.5 -12l-4 -31h-272l4 31q51 0 75.5 13t28.5 47l41 327q5 45 5 59q0 26 -21.5 37t-69.5 12l4 31h263q202 0 202 -136q0 -81 -55 -119t-127 -43l98 -133q37 -50 68 -72.5t77 -23.5l-4 -30h-124q-58 50 -105 120l-90 132
h-66zM267 517l-28 -225h88q75 0 114 30.5t39 100.5q0 50 -30 72t-92 22h-91z" />
    <glyph glyph-name="r.smcp" unicode="&#xf772;" horiz-adv-x="655" 
d="M234 252l-14 -113q-5 -45 -5 -59q0 -26 21.5 -37t69.5 -12l-4 -31h-272l4 31q51 0 75.5 13t28.5 47l41 327q5 45 5 59q0 26 -21.5 37t-69.5 12l4 31h263q202 0 202 -136q0 -81 -55 -119t-127 -43l98 -133q37 -50 68 -72.5t77 -23.5l-4 -30h-124q-58 50 -105 120l-90 132
h-66zM267 517l-28 -225h88q75 0 114 30.5t39 100.5q0 50 -30 72t-92 22h-91z" />
    <glyph glyph-name="s.smcp" unicode="&#xe213;" horiz-adv-x="495" 
d="M225 -10q-120 0 -189 67l11 133h25q28 -156 157 -156q57 0 90.5 25t33.5 73q0 45 -27.5 71t-104.5 61q-68 31 -97.5 65.5t-29.5 90.5q0 67 49 107t130 40q108 0 177 -52l-15 -127h-25q-18 135 -141 135q-52 0 -80 -24t-28 -68q0 -36 24 -59t83 -49q80 -35 117.5 -73
t37.5 -100q0 -75 -55 -117.5t-143 -42.5z" />
    <glyph glyph-name="s.smcp" unicode="&#xf773;" horiz-adv-x="495" 
d="M225 -10q-120 0 -189 67l11 133h25q28 -156 157 -156q57 0 90.5 25t33.5 73q0 45 -27.5 71t-104.5 61q-68 31 -97.5 65.5t-29.5 90.5q0 67 49 107t130 40q108 0 177 -52l-15 -127h-25q-18 135 -141 135q-52 0 -80 -24t-28 -68q0 -36 24 -59t83 -49q80 -35 117.5 -73
t37.5 -100q0 -75 -55 -117.5t-143 -42.5z" />
    <glyph glyph-name="t.smcp" unicode="&#xe214;" horiz-adv-x="625" 
d="M389 518l-47 -379q-5 -45 -5 -59q0 -26 21.5 -37t69.5 -12l-4 -31h-272l4 31q51 0 75.5 13t28.5 47l53 427h-62q-61 0 -89 -23.5t-72 -95.5h-26l35 158h516l-9 -158h-23q-13 37 -20.5 54.5t-21 35t-33 23.5t-50.5 6h-69z" />
    <glyph glyph-name="t.smcp" unicode="&#xf774;" horiz-adv-x="625" 
d="M389 518l-47 -379q-5 -45 -5 -59q0 -26 21.5 -37t69.5 -12l-4 -31h-272l4 31q51 0 75.5 13t28.5 47l53 427h-62q-61 0 -89 -23.5t-72 -95.5h-26l35 158h516l-9 -158h-23q-13 37 -20.5 54.5t-21 35t-33 23.5t-50.5 6h-69z" />
    <glyph glyph-name="u.smcp" unicode="&#xe215;" horiz-adv-x="647" 
d="M498 216l25 202q5 38 5 59q0 26 -21.5 37t-69.5 12l4 31h245l-4 -31q-51 0 -75.5 -13t-28.5 -47l-33 -271q-11 -94 -72.5 -149.5t-160.5 -55.5q-104 0 -161 48.5t-57 133.5q0 20 5 63l24 183q5 34 5 59q0 26 -21.5 37t-69.5 12l4 31h272l-4 -31q-51 0 -75.5 -13
t-28.5 -47l-30 -234q-4 -29 -4 -53q0 -67 40.5 -103.5t107.5 -36.5q83 0 125 43.5t54 133.5z" />
    <glyph glyph-name="u.smcp" unicode="&#xf775;" horiz-adv-x="647" 
d="M498 216l25 202q5 38 5 59q0 26 -21.5 37t-69.5 12l4 31h245l-4 -31q-51 0 -75.5 -13t-28.5 -47l-33 -271q-11 -94 -72.5 -149.5t-160.5 -55.5q-104 0 -161 48.5t-57 133.5q0 20 5 63l24 183q5 34 5 59q0 26 -21.5 37t-69.5 12l4 31h272l-4 -31q-51 0 -75.5 -13
t-28.5 -47l-30 -234q-4 -29 -4 -53q0 -67 40.5 -103.5t107.5 -36.5q83 0 125 43.5t54 133.5z" />
    <glyph glyph-name="v.smcp" unicode="&#xe216;" horiz-adv-x="617" 
d="M443 557h204l-4 -31q-26 -2 -38.5 -7.5t-23.5 -23.5l-294 -501h-27l-159 508q-3 10 -11 15t-15 6.5t-23 2.5l4 31h232l-4 -31q-49 -2 -71.5 -10.5t-22.5 -31.5q0 -13 10 -46l100 -339l199 348q19 33 19 49q0 17 -16.5 22.5t-62.5 7.5z" />
    <glyph glyph-name="v.smcp" unicode="&#xf776;" horiz-adv-x="617" 
d="M443 557h204l-4 -31q-26 -2 -38.5 -7.5t-23.5 -23.5l-294 -501h-27l-159 508q-3 10 -11 15t-15 6.5t-23 2.5l4 31h232l-4 -31q-49 -2 -71.5 -10.5t-22.5 -31.5q0 -13 10 -46l100 -339l199 348q19 33 19 49q0 17 -16.5 22.5t-62.5 7.5z" />
    <glyph glyph-name="w.smcp" unicode="&#xe217;" horiz-adv-x="880" 
d="M505 438l89 -333l174 342q18 36 18 49q0 17 -16 22.5t-62 7.5l4 31h198l-4 -31q-18 -1 -28 -3t-19 -8.5t-15 -19.5l-260 -501h-28l-97 348l-194 -348h-30l-134 508q-3 10 -11 15t-15 6.5t-23 2.5l4 31h226l-4 -31q-49 -2 -71.5 -10.5t-22.5 -31.5q0 -10 9 -46l85 -339
l166 296l-29 107q-3 14 -14.5 18t-34.5 6l4 31h224l-4 -31q-49 -2 -71.5 -10.5t-22.5 -31.5q0 -10 9 -46z" />
    <glyph glyph-name="w.smcp" unicode="&#xf777;" horiz-adv-x="880" 
d="M505 438l89 -333l174 342q18 36 18 49q0 17 -16 22.5t-62 7.5l4 31h198l-4 -31q-18 -1 -28 -3t-19 -8.5t-15 -19.5l-260 -501h-28l-97 348l-194 -348h-30l-134 508q-3 10 -11 15t-15 6.5t-23 2.5l4 31h226l-4 -31q-49 -2 -71.5 -10.5t-22.5 -31.5q0 -10 9 -46l85 -339
l166 296l-29 107q-3 14 -14.5 18t-34.5 6l4 31h224l-4 -31q-49 -2 -71.5 -10.5t-22.5 -31.5q0 -10 9 -46z" />
    </font>
</defs>
</svg>
