<?xml version="1.0" standalone="no"?>
<!DOCTYPE svg PUBLIC "-//W3C//DTD SVG 1.1//EN" "http://www.w3.org/Graphics/SVG/1.1/DTD/svg11.dtd" >
<svg xmlns="http://www.w3.org/2000/svg" xmlns:xlink="http://www.w3.org/1999/xlink" version="1.1">
<metadata>
Created by FontForge 20170731 at Wed Dec  2 22:49:46 2015
 By Aleksey,,,
(C) 2015 Frere-Jones Type LLC
</metadata>
<defs>
<font id="Mallory-Black" horiz-adv-x="0" >
  <font-face 
    font-family="Mallory Black"
    font-weight="800"
    font-stretch="normal"
    units-per-em="1000"
    panose-1="2 1 10 1 3 5 1 2 3 4"
    ascent="800"
    descent="-200"
    x-height="518"
    cap-height="700"
    bbox="-446 -278 1523 1134"
    underline-thickness="50"
    underline-position="-225"
    unicode-range="U+000D-FB02"
  />
<missing-glyph horiz-adv-x="700" 
d="M600 960v-1200h-500v1200h500zM350 429l157 481h-315zM150 874v-1028l171 514zM550 -154v1028l-172 -514zM192 -190h315l-157 481z" />
    <glyph glyph-name="fi" unicode="fi" horiz-adv-x="761" 
d="M283 518h155v-143h-150v-375h-188v375h-77v143h77v31q0 98 54.5 152.5t151.5 54.5q66 0 126 -20l18 -138l-3 -2q-51 19 -87 19t-56.5 -18.5t-20.5 -50.5v-28zM608 781q47 0 78.5 -29t31.5 -73t-31.5 -73.5t-78.5 -29.5t-79 29.5t-32 73.5t31.5 73t79.5 29zM702 518v-518
h-189v518h189z" />
    <glyph glyph-name="fl" unicode="fl" horiz-adv-x="761" 
d="M283 518h155v-143h-150v-375h-188v375h-77v143h77v31q0 98 54.5 152.5t151.5 54.5q66 0 126 -20l18 -138l-3 -2q-51 19 -87 19t-56.5 -18.5t-20.5 -50.5v-28zM702 757v-757h-189v713z" />
    <glyph glyph-name="f_f" unicode="ff" horiz-adv-x="907" 
d="M283 518h155v-143h-150v-375h-188v375h-77v143h77v31q0 98 54.5 152.5t151.5 54.5q66 0 126 -20l18 -138l-3 -2q-51 19 -87 19t-56.5 -18.5t-20.5 -50.5v-28zM737 518h155v-143h-150v-375h-188v375h-77v143h77v31q0 98 54.5 152.5t151.5 54.5q66 0 126 -20l18 -138l-3 -2
q-51 19 -87 19t-56.5 -18.5t-20.5 -50.5v-28z" />
    <glyph glyph-name="f_f_i" unicode="ffi" horiz-adv-x="1215" 
d="M283 518h155v-143h-150v-375h-188v375h-77v143h77v31q0 98 54.5 152.5t151.5 54.5q66 0 126 -20l18 -138l-3 -2q-51 19 -87 19t-56.5 -18.5t-20.5 -50.5v-28zM737 518h155v-143h-150v-375h-188v375h-77v143h77v31q0 98 54.5 152.5t151.5 54.5q66 0 126 -20l18 -138l-3 -2
q-51 19 -87 19t-56.5 -18.5t-20.5 -50.5v-28zM1061 781q47 0 78.5 -29t31.5 -73t-31.5 -73.5t-78.5 -29.5t-79 29.5t-32 73.5t31.5 73t79.5 29zM1155 518v-518h-189v518h189z" />
    <glyph glyph-name="f_f_l" unicode="ffl" horiz-adv-x="1215" 
d="M283 518h155v-143h-150v-375h-188v375h-77v143h77v31q0 98 54.5 152.5t151.5 54.5q66 0 126 -20l18 -138l-3 -2q-51 19 -87 19t-56.5 -18.5t-20.5 -50.5v-28zM737 518h155v-143h-150v-375h-188v375h-77v143h77v31q0 98 54.5 152.5t151.5 54.5q66 0 126 -20l18 -138l-3 -2
q-51 19 -87 19t-56.5 -18.5t-20.5 -50.5v-28zM1155 757v-757h-189v713z" />
    <glyph glyph-name=".notdef" horiz-adv-x="700" 
d="M600 960v-1200h-500v1200h500zM350 429l157 481h-315zM150 874v-1028l171 514zM550 -154v1028l-172 -514zM192 -190h315l-157 481z" />
    <glyph glyph-name=".null" 
 />
    <glyph glyph-name="nonmarkingreturn" horiz-adv-x="333" 
 />
    <glyph glyph-name="null" 
 />
    <glyph glyph-name="null" 
 />
    <glyph glyph-name="CR" unicode="&#xd;" horiz-adv-x="221" 
 />
    <glyph glyph-name="space" unicode=" " horiz-adv-x="221" 
 />
    <glyph glyph-name="exclam" unicode="!" horiz-adv-x="304" 
d="M36 700h231v-50l-72 -387h-85l-74 387v50zM152 -10q-44 0 -75 31t-31 75t31 75t75 31q45 0 76 -31t31 -75t-31 -75t-76 -31z" />
    <glyph glyph-name="quotedbl" unicode="&#x22;" horiz-adv-x="565" 
d="M368 388l-83 21l63 291h208zM115 388l-83 21l62 291h208z" />
    <glyph glyph-name="numbersign" unicode="#" horiz-adv-x="711" 
d="M448 412h-148l-31 -124h148zM500 125l-31 -127h-122l31 127h-148l-31 -127h-122l31 127h-84v166h124l29 118h-103v166h143l31 127h122l-31 -127h148l31 127h122l-31 -127h78v-166h-118l-29 -118h97v-166h-137z" />
    <glyph glyph-name="dollar" unicode="$" horiz-adv-x="599" 
d="M341 1l-11 -123h-134l12 126q-85 12 -158 54l-26 185l2 1q150 -88 260 -88q78 0 78 48q0 24 -22.5 38.5t-85.5 30.5q-129 35 -176 83q-48 48 -48 131q0 90 65.5 147.5t179.5 65.5l10 108h134l-11 -116q70 -13 121 -40v-177h-2q-52 31 -112 49q-66 20 -113 20
q-67 0 -67 -44q0 -23 21 -36.5t84 -30.5q131 -35 179 -83q48 -50 48 -136q0 -88 -61 -144.5t-167 -68.5z" />
    <glyph glyph-name="percent" unicode="%" horiz-adv-x="915" 
d="M401 510q0 -90 -53 -148q-54 -58 -137 -58q-80 0 -132 58q-53 58 -53 146q0 89 53 148q52 58 134 58q83 0 135 -57q53 -58 53 -147zM494 326l-212 -328h-121l258 376l212 328h123zM213 604q-28 0 -44.5 -26t-16.5 -68q0 -43 17 -68t46 -25q28 0 44.5 25t16.5 67
q0 44 -17 69.5t-46 25.5zM514 190q0 89 53 148q52 58 134 58q83 0 135 -57q53 -58 53 -147q0 -90 -53 -148q-54 -58 -137 -58q-80 0 -132 58q-53 58 -53 146zM703 99q28 0 44.5 25t16.5 67q0 43 -17 69t-46 26q-28 0 -45 -26t-17 -68t17.5 -67.5t46.5 -25.5z" />
    <glyph glyph-name="ampersand" unicode="&#x26;" horiz-adv-x="751" 
d="M353 581q-28 0 -44.5 -17t-16.5 -44q0 -35 41 -92q80 44 80 93q0 26 -17 43t-43 17zM207 192q0 -29 20 -48t52 -19q40 0 87 34q-57 57 -101 112q-58 -39 -58 -79zM742 3v-3h-209q-2 2 -17 15.5t-30 27.5q-15 13 -26 24q-111 -77 -220 -77q-99 0 -157.5 51.5t-58.5 136.5
q0 126 164 195q-57 87 -57 155q0 79 62 132t155 53t151 -49t58 -124q0 -107 -161 -193q25 -31 76 -87q27 30 85 105h177v-3q-90 -120 -166 -199q70 -66 174 -160z" />
    <glyph glyph-name="quotesingle" unicode="'" horiz-adv-x="319" 
d="M116 388l-84 21l62 291h215z" />
    <glyph glyph-name="parenleft" unicode="(" horiz-adv-x="460" 
d="M249 305q0 -110 44 -204t150 -197l-46 -52q-176 96 -257 206q-79 107 -79 247t79 247q81 110 257 206l46 -52q-106 -103 -150 -197t-44 -204z" />
    <glyph glyph-name="parenright" unicode=")" horiz-adv-x="460" 
d="M211 305q0 110 -44 204t-150 197l46 52q176 -96 257 -206q79 -107 79 -247t-79 -247q-81 -110 -257 -206l-46 52q106 103 150 197t44 204z" />
    <glyph glyph-name="asterisk" unicode="*" horiz-adv-x="548" 
d="M287 534h-26l-85 170h195zM328 484l-7 25l134 134l62 -186zM92 643l135 -134l-8 -25l-188 -27zM293 435l21 16l168 -90l-159 -113zM65 361l169 90l20 -16l-30 -187z" />
    <glyph glyph-name="plus" unicode="+" horiz-adv-x="600" 
d="M381 427h184v-154h-184v-182h-162v182h-184v154h184v182h162v-182z" />
    <glyph glyph-name="comma" unicode="," horiz-adv-x="266" 
d="M22 -182l-48 47q56 77 69 128q12 54 12 166v32h179q0 -118 -38 -191t-174 -182z" />
    <glyph glyph-name="hyphen" unicode="-" horiz-adv-x="405" 
d="M361 197h-317v166h317v-166z" />
    <glyph glyph-name="period" unicode="." horiz-adv-x="266" 
d="M133 -10q-46 0 -78 32t-32 77t32 77.5t78 32.5q45 0 77 -32.5t32 -77.5t-31.5 -77t-77.5 -32z" />
    <glyph glyph-name="slash" unicode="/" horiz-adv-x="498" 
d="M477 740l-351 -870h-135l351 870h135z" />
    <glyph glyph-name="zero" unicode="0" horiz-adv-x="706" 
d="M666 351q0 -162 -88 -263q-88 -102 -226 -102q-141 0 -226 100q-86 101 -86 263q0 159 89 263q89 102 225 102q138 0 225 -100q87 -101 87 -263zM352 543q-56 0 -88.5 -52t-32.5 -140q0 -90 33 -142t90 -52q55 0 87.5 52t32.5 140q0 89 -33 141.5t-89 52.5z" />
    <glyph glyph-name="one" unicode="1" horiz-adv-x="466" 
d="M374 717l15 -6v-711h-195v416l-157 -88v203z" />
    <glyph glyph-name="two" unicode="2" horiz-adv-x="597" 
d="M571 169l-52 -169h-476l-10 105l245 259q35 38 48.5 61.5t13.5 46.5q0 28 -18.5 45.5t-50.5 17.5q-89 0 -212 -127h-2l-13 199q110 104 258 104q107 0 169.5 -56.5t62.5 -150.5q0 -58 -25 -107q-24 -47 -96 -122l-102 -109z" />
    <glyph glyph-name="three" unicode="3" horiz-adv-x="572" 
d="M533 190q0 -90 -72 -145q-74 -56 -184 -56q-122 0 -222 58l-20 180l2 1q119 -81 215 -81q40 0 64.5 16.5t24.5 43.5q0 34 -42 58q-43 23 -163 60v52q54 22 109 49q49 24 66.5 39.5t17.5 35.5q0 24 -20.5 37.5t-56.5 13.5q-85 0 -199 -79h-2v168q104 69 236 69
q108 0 172 -49t64 -131q0 -108 -131 -167q141 -49 141 -173z" />
    <glyph glyph-name="four" unicode="4" horiz-adv-x="662" 
d="M356 535l-139 -263h139v263zM536 272h104v-143h-104v-129h-183v129h-336l-7 51l303 525h223v-433z" />
    <glyph glyph-name="five" unicode="5" horiz-adv-x="594" 
d="M558 228q0 -110 -78 -174q-80 -66 -210 -66q-113 0 -206 41l-15 168q119 -51 204 -51q49 0 78.5 22.5t29.5 61.5q0 84 -126 84q-66 0 -160 -25l-11 5l25 406h435v-165h-296l-8 -94q34 6 77 6q125 0 193 -57t68 -162z" />
    <glyph glyph-name="six" unicode="6" horiz-adv-x="637" 
d="M607 251q0 -115 -81 -190t-208 -75q-130 0 -206 73q-76 72 -76 190q0 69 28 135q27 65 108 179l97 137h225l-180 -227q29 5 61 5q103 0 167 -61q65 -62 65 -166zM226 250q0 -47 26 -76.5t69 -29.5q42 0 69.5 27.5t27.5 69.5q0 45 -29.5 69.5t-82.5 24.5q-35 0 -60 -4
q-20 -45 -20 -81z" />
    <glyph glyph-name="seven" unicode="7" horiz-adv-x="611" 
d="M596 700l5 -8l-317 -692h-203l255 531h-284l-20 169h564z" />
    <glyph glyph-name="eight" unicode="8" horiz-adv-x="651" 
d="M613 186q0 -90 -79 -144q-80 -54 -209 -54q-133 0 -210 53t-77 145q0 120 124 171q-103 49 -103 160q0 88 73 142q73 53 194 53t195 -53q72 -52 72 -142q0 -109 -103 -160q123 -49 123 -171zM325 574q-37 0 -59 -21t-22 -56q0 -36 23 -58t60 -22q36 0 58.5 22.5
t22.5 57.5q0 34 -23 55.5t-60 21.5zM325 293q-39 0 -66 -24t-27 -59q0 -37 26.5 -60.5t68.5 -23.5t67 23t25 61q0 35 -27 59t-67 24z" />
    <glyph glyph-name="nine" unicode="9" horiz-adv-x="637" 
d="M464 137l-96 -137h-226l172 215q-16 -3 -45 -3q-109 0 -174 62.5t-65 170.5q0 117 81 193q79 76 207 76q130 0 206 -72t76 -191q0 -69 -28 -135q-27 -65 -108 -179zM219 454q0 -48 29 -73t83 -25q8 0 17 0.5t21 1.5t19 1q23 47 23 91q0 47 -26.5 76.5t-69.5 29.5
q-42 0 -69 -28.5t-27 -73.5z" />
    <glyph glyph-name="colon" unicode=":" horiz-adv-x="276" 
d="M138 309q-45 0 -77 32t-32 77t32 77.5t77 32.5q46 0 78 -32.5t32 -77.5t-32 -77t-78 -32zM138 -10q-45 0 -77 32t-32 77t32 77.5t77 32.5q46 0 78 -32.5t32 -77.5t-32 -77t-78 -32z" />
    <glyph glyph-name="semicolon" unicode=";" horiz-adv-x="276" 
d="M142 308q-46 0 -78 32t-32 78q0 45 32 77t78 32t77.5 -32t31.5 -77q0 -46 -31.5 -78t-77.5 -32zM23 -182l-47 47q54 73 68 127q12 52 12 167v32h179q0 -118 -38 -191t-174 -182z" />
    <glyph glyph-name="less" unicode="&#x3c;" horiz-adv-x="600" 
d="M256 351l286 -113v-167l-491 219v120l491 220v-164z" />
    <glyph glyph-name="equal" unicode="=" horiz-adv-x="600" 
d="M41 521h518v-132h-518v132zM41 311h518v-132h-518v132z" />
    <glyph glyph-name="greater" unicode="&#x3e;" horiz-adv-x="600" 
d="M549 411v-120l-491 -220v164l286 115l-286 113v167z" />
    <glyph glyph-name="question" unicode="?" horiz-adv-x="504" 
d="M34 460h-2v178q106 72 227 72q100 0 159.5 -48.5t59.5 -128.5q0 -59 -25 -94q-25 -36 -103 -76q-46 -25 -61.5 -38t-15.5 -30q0 -8 8 -32h-100q-53 44 -53 92q0 33 25 58t88 55q36 18 47 27.5t11 23.5q0 32 -54 32q-96 0 -211 -91zM225 -10q-44 0 -75 31t-31 75t31 75
t75 31t75 -31t31 -75t-31 -75t-75 -31z" />
    <glyph glyph-name="at" unicode="@" horiz-adv-x="1018" 
d="M467 -185q-199 0 -314 103t-115 284q0 104 42.5 203.5t119.5 177.5t175.5 120t205.5 42q179 0 288 -102q110 -104 110 -268q0 -142 -80 -234q-81 -91 -203 -91q-124 0 -142 86q-53 -48 -91.5 -67t-82.5 -19q-61 0 -97.5 44.5t-36.5 119.5q0 124 87 212q86 89 212 89
q74 0 137 -37l42 29h65l-73 -301q-6 -20 -6 -41q0 -22 15 -35.5t41 -13.5q70 0 124 75t54 182q0 155 -99 248q-101 92 -266 92q-98 0 -190 -40t-164 -113t-111.5 -166.5t-39.5 -189.5q0 -167 105 -263q103 -94 290 -94q157 0 292 53v-35q-139 -50 -294 -50zM404 246
q0 -61 61 -61q40 0 91 32l39 157q-21 9 -51 9q-59 0 -99 -40q-41 -41 -41 -97z" />
    <glyph glyph-name="A" unicode="A" horiz-adv-x="828" 
d="M411 504l-90 -227h180zM528 701l290 -701h-215l-47 120h-291l-47 -120h-209l295 701h224z" />
    <glyph glyph-name="B" unicode="B" horiz-adv-x="659" 
d="M625 202q0 -93 -72 -147q-71 -55 -192 -55h-296v700h292q115 0 179.5 -49.5t64.5 -136.5q0 -97 -96 -150q120 -49 120 -162zM329 551h-74v-134h70q40 0 63 18.5t23 50.5q0 31 -21.5 48t-60.5 17zM334 288h-79v-140h81q43 0 67.5 18.5t24.5 50.5q0 71 -94 71z" />
    <glyph glyph-name="C" unicode="C" horiz-adv-x="689" 
d="M392 -11q-155 0 -256 101t-101 259q0 156 105 259q103 103 262 103q138 0 231 -75v-206h-3q-101 96 -206 96q-80 0 -130 -49q-51 -49 -51 -126q0 -80 51 -129t132 -49q114 0 217 89l3 -2l-25 -205q-101 -66 -229 -66z" />
    <glyph glyph-name="D" unicode="D" horiz-adv-x="776" 
d="M534 349q0 85 -53.5 131t-151.5 46h-62v-352h64q95 0 149 46.5t54 128.5zM331 0h-266v700h266q195 0 302.5 -92t107.5 -257q0 -162 -109 -256q-110 -95 -301 -95z" />
    <glyph glyph-name="E" unicode="E" horiz-adv-x="608" 
d="M572 169l-27 -169h-480v700h477l27 -169h-305v-107h251v-145h-251v-110h308z" />
    <glyph glyph-name="F" unicode="F" horiz-adv-x="581" 
d="M267 396h233v-159h-233v-237h-202v700h495l-27 -173h-266v-131z" />
    <glyph glyph-name="G" unicode="G" horiz-adv-x="762" 
d="M388 395h312v-334q-150 -71 -293 -71q-167 0 -269 96q-103 96 -103 256q0 168 112 268q112 101 294 101q129 0 242 -51v-190q-124 60 -230 60q-93 0 -151 -51q-59 -51 -59 -134q0 -86 53.5 -135t146.5 -49q39 0 76 8v96h-131v130z" />
    <glyph glyph-name="H" unicode="H" horiz-adv-x="808" 
d="M743 700v-700h-203v261h-273v-261h-202v700h202v-254h273v254h203z" />
    <glyph glyph-name="I" unicode="I" horiz-adv-x="339" 
d="M270 700v-700h-202v700h202z" />
    <glyph glyph-name="J" unicode="J" horiz-adv-x="509" 
d="M151 172q44 0 70 26t26 72v430h202v-471q0 -111 -66 -174.5t-180 -63.5q-86 0 -159 38l-25 186l2 2q68 -45 130 -45z" />
    <glyph glyph-name="K" unicode="K" horiz-adv-x="753" 
d="M753 2v-2h-249l-219 279h-18v-279h-202v700h202v-267h19l220 267h242v-2l-291 -335z" />
    <glyph glyph-name="L" unicode="L" horiz-adv-x="569" 
d="M539 181v-181h-474v700h202v-519h272z" />
    <glyph glyph-name="M" unicode="M" horiz-adv-x="1025" 
d="M764 457l-245 -467h-14l-246 464v-454h-194v700h272l176 -350l175 350h272v-700h-196v457z" />
    <glyph glyph-name="N" unicode="N" horiz-adv-x="822" 
d="M757 700v-702h-150l-344 393l3 -391h-201v700h198l295 -338l-2 338h201z" />
    <glyph glyph-name="O" unicode="O" horiz-adv-x="824" 
d="M411 -14q-162 0 -269 104t-107 259t108 260t270 105q160 0 269 -104q107 -105 107 -259q0 -157 -108 -260q-108 -105 -270 -105zM410 532q-73 0 -121 -52t-48 -129q0 -78 49 -130q48 -53 122 -53q73 0 122 52t49 129q0 79 -49 131t-124 52z" />
    <glyph glyph-name="P" unicode="P" horiz-adv-x="641" 
d="M313 539h-49v-180h48q53 0 82 24t29 68q0 42 -29 65t-81 23zM620 456q0 -116 -79 -183q-80 -68 -214 -68h-60v-205h-202v700h253q144 0 223 -63.5t79 -180.5z" />
    <glyph glyph-name="Q" unicode="Q" horiz-adv-x="824" 
d="M605 -149q-85 0 -142.5 33.5t-109.5 112.5q-140 18 -229 116t-89 235q0 154 108 261q108 105 270 105q161 0 269 -102q107 -102 107 -252q0 -110 -57 -195.5t-157 -126.5q35 -41 97 -41q50 0 99 25l3 -3l-52 -149q-46 -19 -117 -19zM583 349q0 79 -49 131t-124 52
q-73 0 -121 -52t-48 -129q0 -78 49 -130q48 -53 122 -53q73 0 122 52t49 129z" />
    <glyph glyph-name="R" unicode="R" horiz-adv-x="690" 
d="M322 543h-58v-169h56q47 0 74.5 23.5t27.5 63.5q0 38 -26.5 60t-73.5 22zM492 273l217 -273h-238l-182 238h-22v-238h-202v700h271q139 0 212 -57.5t73 -166.5q0 -66 -33.5 -119t-95.5 -84z" />
    <glyph glyph-name="S" unicode="S" horiz-adv-x="583" 
d="M246 273q-113 38 -160.5 89.5t-47.5 130.5q0 99 72 159q71 60 191 60q122 0 213 -50v-180h-2q-49 30 -108.5 49t-103.5 19q-64 0 -64 -43q0 -21 21 -35.5t84 -37.5q119 -40 165 -90t46 -133q0 -103 -73 -163t-197 -60q-130 0 -230 65l-24 197l3 2q57 -44 129 -73t121 -29
q73 0 73 48q0 22 -21.5 37t-86.5 38z" />
    <glyph glyph-name="T" unicode="T" horiz-adv-x="734" 
d="M31 700h672v-181h-235v-519h-202v519h-235v181z" />
    <glyph glyph-name="U" unicode="U" horiz-adv-x="785" 
d="M392 -11q-161 0 -247 86t-86 247v378h202v-382q0 -71 35 -110t98 -39q64 0 98.5 39t34.5 111v381h199v-378q0 -161 -86.5 -247t-247.5 -86z" />
    <glyph glyph-name="V" unicode="V" horiz-adv-x="810" 
d="M800 700l-306 -707h-181l-303 707h222l177 -444l179 444h212z" />
    <glyph glyph-name="W" unicode="W" horiz-adv-x="1140" 
d="M569 302l-145 -307h-189l-211 705h216l116 -432l210 441h15l207 -441l119 432h210l-216 -705h-188z" />
    <glyph glyph-name="X" unicode="X" horiz-adv-x="780" 
d="M512 359l261 -359h-239l-147 206l-142 -206h-235l257 352l-252 348h239l138 -194l134 194h235z" />
    <glyph glyph-name="Y" unicode="Y" horiz-adv-x="729" 
d="M729 700l-263 -428v-272h-202v272l-264 428h233l137 -245l137 245h222z" />
    <glyph glyph-name="Z" unicode="Z" horiz-adv-x="725" 
d="M348 174h350l-53 -174h-624l-5 13l346 513h-310v174h638l5 -13z" />
    <glyph glyph-name="bracketleft" unicode="[" horiz-adv-x="442" 
d="M417 -28l-17 -102h-326v870h326l17 -102h-168v-666h168z" />
    <glyph glyph-name="backslash" unicode="\" horiz-adv-x="498" 
d="M20 740h135l351 -870h-135z" />
    <glyph glyph-name="bracketright" unicode="]" horiz-adv-x="442" 
d="M25 638l16 102h326v-870h-326l-16 102h168v666h-168z" />
    <glyph glyph-name="asciicircum" unicode="^" horiz-adv-x="600" 
d="M359 714l220 -379h-173l-109 198l-107 -198h-169l220 379h118z" />
    <glyph glyph-name="underscore" unicode="_" horiz-adv-x="654" 
d="M657 -177h-660v107h660v-107z" />
    <glyph glyph-name="grave" unicode="`" horiz-adv-x="500" 
d="M-2 786h217l87 -194h-91l-213 192v2z" />
    <glyph glyph-name="a" unicode="a" horiz-adv-x="582" 
d="M196 152q0 -42 55 -42q39 0 99 25v86q-154 -12 -154 -69zM537 288v-275l-180 -19v70q-90 -73 -178 -73q-68 0 -109 38t-41 101q0 166 320 168q-7 83 -98 83q-81 0 -172 -60l-4 3l25 158q88 46 194 46q243 0 243 -240z" />
    <glyph glyph-name="b" unicode="b" horiz-adv-x="640" 
d="M612 271q0 -122 -81 -200t-205 -78q-69 0 -147 28l-110 -24h-13v716l189 44v-295q65 65 150 65q94 0 156 -71q61 -71 61 -185zM309 146q54 0 88 32.5t34 85.5q0 50 -29.5 80t-78.5 30q-36 0 -78 -18v-200q27 -10 64 -10z" />
    <glyph glyph-name="c" unicode="c" horiz-adv-x="515" 
d="M477 207l3 -2l-19 -172q-74 -44 -169 -44q-117 0 -191 74t-74 197q0 118 78 194q78 75 200 75q92 0 168 -46v-174l-3 -1q-74 54 -146 54q-51 0 -80.5 -28t-29.5 -76q0 -46 29 -74t77 -28q86 0 157 51z" />
    <glyph glyph-name="d" unicode="d" horiz-adv-x="645" 
d="M209 257q0 -51 28 -81.5t75 -30.5q44 0 88 26v180q-43 21 -83 21q-48 0 -78 -32t-30 -83zM589 757v-757h-183v72q-69 -82 -164 -82q-91 0 -152 73q-62 74 -62 183q0 120 69 200q69 79 173 79q71 0 130 -46v234z" />
    <glyph glyph-name="e" unicode="e" horiz-adv-x="575" 
d="M293 405q-35 0 -58.5 -25t-28.5 -68h170q-4 43 -26 68t-57 25zM536 172l3 -2l-46 -143q-86 -37 -184 -37q-128 0 -205 74t-77 197q0 116 76 193q77 78 191 78q118 0 186 -74q67 -74 67 -199q0 -19 -3 -43h-339q26 -87 143 -87q90 0 188 43z" />
    <glyph glyph-name="f" unicode="f" horiz-adv-x="454" 
d="M283 518h155v-143h-150v-375h-188v375h-77v143h77v31q0 98 54.5 152.5t151.5 54.5q66 0 126 -20l18 -138l-3 -2q-51 19 -87 19t-56.5 -18.5t-20.5 -50.5v-28z" />
    <glyph glyph-name="g" unicode="g" horiz-adv-x="645" 
d="M209 272q0 -45 28 -71t74 -26q43 0 92 25v160q-38 15 -82 15q-50 0 -81 -28.5t-31 -74.5zM287 -193q-112 0 -206 45l-28 159l4 3q65 -33 110.5 -45.5t96.5 -12.5q68 0 103.5 30.5t35.5 88.5v26q-69 -62 -157 -62q-94 0 -156 65t-62 165q0 115 78 185q77 70 202 70
q74 0 158 -27l110 24h13v-428q0 -133 -81 -210q-80 -76 -221 -76z" />
    <glyph glyph-name="h" unicode="h" horiz-adv-x="638" 
d="M329 366q-39 0 -84 -28v-338h-189v713l189 44v-323q73 96 174 96q79 0 124 -52t45 -145v-333h-189v286q0 80 -70 80z" />
    <glyph glyph-name="i" unicode="i" horiz-adv-x="308" 
d="M154 781q47 0 78.5 -29t31.5 -73t-31.5 -73.5t-78.5 -29.5t-79 29.5t-32 73.5t31.5 73t79.5 29zM248 518v-518h-189v518h189z" />
    <glyph glyph-name="j" unicode="j" horiz-adv-x="308" 
d="M155 781q47 0 78.5 -29t31.5 -73t-31.5 -73.5t-78.5 -29.5t-78.5 29.5t-31.5 73.5t31.5 73t78.5 29zM60 19v499h190v-488q0 -107 -55.5 -163.5t-158.5 -56.5q-38 0 -68 7l-31 127q19 -6 41 -6q82 0 82 81z" />
    <glyph glyph-name="k" unicode="k" horiz-adv-x="612" 
d="M615 2v-2h-221l-130 204h-19v-204h-189v713l189 44v-439h18l131 200h209v-2l-173 -246z" />
    <glyph glyph-name="l" unicode="l" horiz-adv-x="308" 
d="M248 757v-757h-189v713z" />
    <glyph glyph-name="m" unicode="m" horiz-adv-x="959" 
d="M320 366q-35 0 -75 -23v-343h-189v505l183 19v-90q73 96 172 96q112 0 149 -99q41 52 83.5 75.5t95.5 23.5q79 0 124.5 -52.5t45.5 -144.5v-333h-189v286q0 80 -68 80q-35 0 -75 -23v-343h-189v286q0 80 -68 80z" />
    <glyph glyph-name="n" unicode="n" horiz-adv-x="638" 
d="M329 366q-39 0 -84 -28v-338h-189v505l183 19v-98q41 55 83.5 79.5t96.5 24.5q79 0 124 -52t45 -145v-333h-189v286q0 80 -70 80z" />
    <glyph glyph-name="o" unicode="o" horiz-adv-x="622" 
d="M311 -14q-125 0 -204 79q-80 80 -80 194q0 115 81 194q79 79 203 79t205 -78q80 -80 80 -194t-81 -194q-82 -80 -204 -80zM415 260q0 49 -29.5 81t-74.5 32t-74.5 -32.5t-29.5 -81.5t29.5 -81t74.5 -32t74.5 32.5t29.5 81.5z" />
    <glyph glyph-name="p" unicode="p" horiz-adv-x="645" 
d="M328 146q48 0 78 32t30 83q0 52 -28 82t-75 30q-44 0 -88 -26v-180q43 -21 83 -21zM617 272q0 -120 -69 -199q-69 -80 -173 -80q-69 0 -130 47v-227h-189v692l183 19v-79q70 83 164 83q92 0 153 -73t61 -183z" />
    <glyph glyph-name="q" unicode="q" horiz-adv-x="640" 
d="M571 521h13v-708h-189v243q-65 -65 -150 -65q-93 0 -155 72q-62 73 -62 184q0 122 82 200q81 78 205 78q69 0 146 -28zM209 254q0 -50 29.5 -80t78.5 -30q36 0 78 18v200q-27 10 -64 10q-54 0 -88 -32.5t-34 -85.5z" />
    <glyph glyph-name="r" unicode="r" horiz-adv-x="465" 
d="M405 328q-76 0 -160 -44v-284h-189v505l183 19v-138q49 76 86.5 108t79.5 32q15 0 32 -4l11 -197q-12 3 -43 3z" />
    <glyph glyph-name="s" unicode="s" horiz-adv-x="512" 
d="M301 328q103 -28 145 -67q40 -39 40 -104q0 -76 -63.5 -122t-168.5 -46q-107 0 -206 53l-21 153l4 2q123 -78 230 -78q52 0 52 28q0 15 -19.5 25t-77.5 26q-100 27 -141 65.5t-41 100.5q0 75 61.5 120t165.5 45q103 0 190 -44v-146l-3 -1q-102 62 -189 62q-52 0 -52 -26
q0 -14 16 -21q15 -8 78 -25z" />
    <glyph glyph-name="t" unicode="t" horiz-adv-x="484" 
d="M450 181l3 -2l-26 -154q-60 -36 -145 -36q-187 0 -187 210v176h-73v143h73v108l187 38v-146h167v-143h-167v-157q0 -72 74 -72q42 0 94 35z" />
    <glyph glyph-name="u" unicode="u" horiz-adv-x="638" 
d="M582 518v-518h-183v92q-41 -55 -83.5 -79.5t-96.5 -24.5q-79 0 -124.5 52.5t-45.5 144.5v333h190v-286q0 -79 70 -79q39 0 83 26v339h190z" />
    <glyph glyph-name="v" unicode="v" horiz-adv-x="642" 
d="M637 518l-240 -529h-158l-232 529h206l109 -293l112 293h203z" />
    <glyph glyph-name="w" unicode="w" horiz-adv-x="891" 
d="M444 205l-108 -211h-157l-169 524h198l80 -283l154 290h13l150 -288l83 281h194l-175 -524h-157z" />
    <glyph glyph-name="x" unicode="x" horiz-adv-x="630" 
d="M435 263l186 -263h-210l-99 149l-98 -149h-204l185 266l-176 252h211l89 -137l88 137h203z" />
    <glyph glyph-name="y" unicode="y" horiz-adv-x="619" 
d="M160 -190q-48 0 -90 15l-36 168l2 2q42 -20 84 -20q65 0 100 45l-213 498h204l107 -289l95 289h200l-186 -487q-43 -114 -108 -167.5t-159 -53.5z" />
    <glyph glyph-name="z" unicode="z" horiz-adv-x="563" 
d="M302 144h240l-38 -144h-484l-4 12l236 362h-201v144h483l4 -12z" />
    <glyph glyph-name="braceleft" unicode="{" horiz-adv-x="549" 
d="M399 -28h125l-16 -102h-171q-93 0 -146 37t-53 102q0 39 35 114q25 54 25 73q0 24 -17.5 37t-61.5 22l-94 19v62l94 19q44 9 61.5 22t17.5 37q0 19 -25 73q-35 75 -35 114q0 65 53 102t146 37h171l16 -102h-125q-73 0 -73 -53q0 -18 20 -66q28 -68 28 -104
q0 -39 -27.5 -65.5t-87.5 -44.5q60 -18 87.5 -44.5t27.5 -65.5q0 -36 -28 -104q-20 -48 -20 -66q0 -53 73 -53z" />
    <glyph glyph-name="bar" unicode="|" horiz-adv-x="393" 
d="M133 740h127v-870h-127v870z" />
    <glyph glyph-name="braceright" unicode="}" horiz-adv-x="549" 
d="M411 9q0 -65 -53 -102t-146 -37h-171l-16 102h125q73 0 73 53q0 18 -20 66q-28 68 -28 104q0 39 27.5 65.5t87.5 44.5q-60 18 -87.5 44.5t-27.5 65.5q0 36 28 104q20 48 20 66q0 53 -73 53h-125l16 102h171q93 0 146 -37t53 -102q0 -39 -35 -114q-25 -54 -25 -73
q0 -24 17.5 -37t61.5 -22l94 -19v-62l-94 -19q-44 -9 -61.5 -22t-17.5 -37q0 -19 25 -73q35 -75 35 -114z" />
    <glyph glyph-name="asciitilde" unicode="~" horiz-adv-x="600" 
d="M189 484q36 0 136 -61q66 -41 83 -41q16 0 33 20q14 18 46 81l86 -42q-54 -137 -86 -181q-33 -44 -76 -44q-39 0 -136 62q-66 41 -83 41t-32 -19q-13 -15 -47 -82l-86 41q55 139 87 181q32 44 75 44z" />
    <glyph glyph-name="uni00A0" unicode="&#xa0;" horiz-adv-x="221" 
 />
    <glyph glyph-name="exclamdown" unicode="&#xa1;" horiz-adv-x="304" 
d="M151 710q44 0 75 -31t31 -75t-31 -75t-75 -31t-75 31t-31 75t31 75t75 31zM267 0h-231v50l73 387h85l73 -387v-50z" />
    <glyph glyph-name="cent" unicode="&#xa2;" horiz-adv-x="522" 
d="M479 298l2 -1l-18 -170q-63 -35 -134 -41l-9 -89h-134l11 105q-78 28 -122.5 93t-44.5 152q0 97 59 168t157 90l10 98h135l-11 -97q38 -6 96 -37v-168h-2q-75 49 -139 49q-53 0 -85.5 -28t-32.5 -74t31.5 -73.5t82.5 -27.5q79 0 148 51z" />
    <glyph glyph-name="sterling" unicode="&#xa3;" horiz-adv-x="609" 
d="M306 159l281 6l-44 -165h-490l-8 101q83 74 104 105q18 27 21 60l-127 -11v108l92 5q-37 57 -48 86q-12 32 -12 66q0 83 73 137q72 54 191 54q115 0 221 -50l15 -179h-3q-112 64 -199 64q-39 0 -60 -16.5t-21 -46.5q0 -18 8.5 -36t38.5 -62l183 13v-109l-148 -7
q-5 -57 -68 -123z" />
    <glyph glyph-name="yen" unicode="&#xa5;" horiz-adv-x="697" 
d="M447 227h185v-102h-185v-125h-197v125h-185v102h185v47h-185v101h128l-182 325h232l110 -235l110 235h223l-182 -325h128v-101h-185v-47z" />
    <glyph glyph-name="section" unicode="&#xa7;" horiz-adv-x="716" 
d="M209 290q0 -29 34 -48q35 -21 133 -47q36 -9 84 -28q47 25 47 62q0 30 -34 49q-32 18 -133 46q-48 14 -84 27q-47 -25 -47 -61zM603 -9q0 -82 -68 -133q-67 -51 -180 -51q-121 0 -227 48l-22 175l2 2q141 -73 236 -73q30 0 47 11t17 29q0 19 -26.5 33t-100.5 34
q-136 36 -193.5 81t-57.5 112q0 101 127 154q-44 49 -44 115q0 82 68 133q67 51 180 51q124 0 229 -48v-166h-2q-126 61 -216 61q-30 0 -47 -11t-17 -29q0 -19 28 -33.5t99 -32.5q135 -36 193 -81t58 -112q0 -102 -127 -155q44 -49 44 -114z" />
    <glyph glyph-name="dieresis" unicode="&#xa8;" horiz-adv-x="500" 
d="M370 586q-42 0 -70 27t-28 67q0 41 28 68t70 27t70 -27t28 -68q0 -40 -28 -67t-70 -27zM130 586q-42 0 -70 27t-28 67q0 41 28 68t70 27t70 -27t28 -68q0 -40 -28 -67t-70 -27z" />
    <glyph glyph-name="copyright" unicode="&#xa9;" horiz-adv-x="890" 
d="M160 68q-118 113 -118 281q0 165 119 282q120 115 285 115t284 -114q118 -113 118 -281q0 -165 -119 -282q-120 -115 -285 -115t-284 114zM444 714q-154 0 -261 -105q-108 -107 -108 -258q0 -153 109 -259q107 -106 262 -106t262 106q107 105 107 257q0 153 -108 259
q-109 106 -263 106zM482 234q82 0 153 54l1 -2l-16 -130q-70 -42 -154 -42q-112 0 -183 65t-71 169q0 105 72 171t188 66q87 0 157 -49v-133h-2q-73 61 -145 61q-55 0 -89.5 -32t-34.5 -82q0 -52 34.5 -84t89.5 -32z" />
    <glyph glyph-name="ordfeminine" unicode="&#xaa;" horiz-adv-x="523" 
d="M184 450q0 -31 44 -31q25 0 67 15v60q-111 -4 -111 -44zM439 541v-201h-139v44q-64 -50 -132 -50q-49 0 -80 27t-31 70q0 60 57 88t180 29q-7 57 -69 57q-60 0 -128 -38l-3 1l18 112q71 31 148 31q179 0 179 -170zM451 180h-395v97h395v-97z" />
    <glyph glyph-name="guillemotleft" unicode="&#xab;" horiz-adv-x="695" 
d="M321 275l281 254l61 -41l-132 -228l132 -230l-61 -41l-281 254v32zM23 275l281 254l61 -41l-132 -228l132 -230l-61 -41l-281 254v32z" />
    <glyph glyph-name="registered" unicode="&#xae;" horiz-adv-x="572" 
d="M534 482q0 -102 -72 -173q-74 -71 -176 -71q-105 0 -176 70q-72 70 -72 172q0 103 73 173q73 71 175 71q105 0 176 -70q72 -70 72 -172zM505 481q0 93 -63 155q-64 62 -157 62q-92 0 -156 -62q-63 -63 -63 -155q0 -94 64 -155q64 -62 157 -62q92 0 155 63q63 61 63 154z
M280 563h-20v-71h19q20 0 31.5 9.5t11.5 25.5q0 36 -42 36zM363 452l79 -104h-104l-64 88h-13v-88h-90v280h114q62 0 95.5 -24.5t33.5 -69.5q0 -56 -51 -82z" />
    <glyph glyph-name="overscore" unicode="&#xaf;" horiz-adv-x="500" 
d="M451 610h-402v113h402v-113z" />
    <glyph glyph-name="degree" unicode="&#xb0;" horiz-adv-x="537" 
d="M30 492q0 97 68 160q68 62 171 62q102 0 170 -62q68 -63 68 -159q0 -98 -67 -159q-68 -62 -172 -62q-102 0 -170 62t-68 158zM176 494q0 -44 26.5 -73t67.5 -29q39 0 64 28.5t25 73.5t-25.5 74t-65.5 29t-66 -29.5t-26 -73.5z" />
    <glyph glyph-name="plusminus" unicode="&#xb1;" horiz-adv-x="600" 
d="M379 529h172v-149h-172v-171h-158v171h-172v149h172v171h158v-171zM44 131h512v-131h-512v131z" />
    <glyph glyph-name="acute" unicode="&#xb4;" horiz-adv-x="500" 
d="M502 784l-213 -192h-91l87 194h217v-2z" />
    <glyph glyph-name="uni00B5" unicode="&#xb5;" horiz-adv-x="645" 
d="M211 52l20 -197v-42h-175v705h189v-289q0 -80 71 -80q39 0 83 26v343h189v-518h-129l-27 65q-52 -68 -113 -68q-59 0 -108 55z" />
    <glyph glyph-name="paragraph" unicode="&#xb6;" horiz-adv-x="752" 
d="M529 541h-70v-541h-103v195h-35q-138 0 -217 64q-80 65 -80 176q0 124 94 194q94 71 253 71h307v-700h-149v541zM197 417q0 -59 41 -92.5t112 -33.5h6v250q-74 0 -116.5 -33t-42.5 -91z" />
    <glyph glyph-name="middot" unicode="&#xb7;" horiz-adv-x="277" 
d="M139 171q-46 0 -78 32t-32 77q0 46 32 78t78 32t77.5 -32t31.5 -78q0 -45 -31.5 -77t-77.5 -32z" />
    <glyph glyph-name="cedilla" unicode="&#xb8;" horiz-adv-x="500" 
d="M393 -127q0 -43 -47 -70.5t-124 -27.5q-56 0 -104 13l-26 67l4 3q59 -15 105 -15q58 0 58 30q0 27 -61 27q-33 0 -57 -3l-4 4l76 107h99l-42 -54q123 -7 123 -81z" />
    <glyph glyph-name="ordmasculine" unicode="&#xba;" horiz-adv-x="517" 
d="M40 524q0 81 63 135q62 53 156 53q95 0 157 -53q61 -52 61 -134t-61 -134q-62 -53 -159 -53q-94 0 -156 53q-61 52 -61 133zM339 525q0 38 -21.5 60.5t-58.5 22.5q-38 0 -60 -22.5t-22 -60.5q0 -37 22.5 -60t59.5 -23q36 0 58 23.5t22 59.5zM456 180h-396v97h396v-97z
" />
    <glyph glyph-name="guillemotright" unicode="&#xbb;" horiz-adv-x="695" 
d="M374 243l-281 -255l-62 41l133 228l-133 230l62 41l281 -254v-31zM672 243l-281 -255l-62 41l133 228l-133 230l62 41l281 -254v-31z" />
    <glyph glyph-name="onequarter" unicode="&#xbc;" horiz-adv-x="862" 
d="M247 711l8 -4v-429h-132v242l-99 -53v128zM442 335l-220 -337h-86l254 367l220 337h86zM664 323l-79 -158h79v158zM787 165h64v-89h-64v-76h-125v76h-208l-4 32l178 317h159v-260z" />
    <glyph glyph-name="onehalf" unicode="&#xbd;" horiz-adv-x="889" 
d="M247 711l8 -4v-429h-132v242l-99 -53v128zM442 335l-220 -337h-86l254 367l220 337h86zM869 106l-33 -106h-296l-8 69l144 148q38 39 38 66q0 34 -36 34q-54 0 -130 -75h-1l-8 125q68 62 162 62q68 0 107 -34.5t39 -91.5q0 -36 -16 -67t-55 -70l-59 -61z" />
    <glyph glyph-name="threequarters" unicode="&#xbe;" horiz-adv-x="893" 
d="M341 393q0 -54 -45.5 -88t-117.5 -34q-74 0 -143 35l-13 112l2 1q78 -48 136 -48q49 0 49 33q0 20 -25.5 33t-99.5 34v36q76 30 98 43q21 12 21 29q0 28 -43 28q-55 0 -127 -48h-1v105q67 42 152 42q69 0 110.5 -29.5t41.5 -78.5q0 -66 -84 -101q89 -30 89 -104zM473 335
l-220 -337h-86l254 367l220 337h86zM694 323l-79 -158h79v158zM817 165h64v-89h-64v-76h-125v76h-208l-4 32l178 317h159v-260z" />
    <glyph glyph-name="questiondown" unicode="&#xbf;" horiz-adv-x="504" 
d="M279 710q44 0 75 -31.5t31 -75.5q0 -43 -31 -74.5t-75 -31.5t-75.5 31.5t-31.5 74.5q0 44 31.5 75.5t75.5 31.5zM470 240l2 -1v-177q-102 -73 -227 -73q-100 0 -159.5 48.5t-59.5 129.5q0 58 25 93q25 36 103 76q45 24 61 38t16 30q0 17 -8 32h100q53 -44 53 -92
q0 -33 -25 -58t-88 -55q-35 -16 -46.5 -26t-11.5 -24q0 -32 54 -32q96 0 211 91z" />
    <glyph glyph-name="Agrave" unicode="&#xc0;" horiz-adv-x="828" 
d="M411 504l-90 -227h180zM528 701l290 -701h-215l-47 120h-291l-47 -120h-209l295 701h224zM159 929h229l84 -168h-104l-209 166v2z" />
    <glyph glyph-name="Aacute" unicode="&#xc1;" horiz-adv-x="828" 
d="M411 504l-90 -227h180zM528 701l290 -701h-215l-47 120h-291l-47 -120h-209l295 701h224zM671 927l-209 -166h-104l84 168h229v-2z" />
    <glyph glyph-name="Acircumflex" unicode="&#xc2;" horiz-adv-x="828" 
d="M411 504l-90 -227h180zM528 701l290 -701h-215l-47 120h-291l-47 -120h-209l295 701h224zM635 763v-2h-108l-112 66l-113 -66h-107v2l134 166h172z" />
    <glyph glyph-name="Atilde" unicode="&#xc3;" horiz-adv-x="828" 
d="M411 504l-90 -227h180zM528 701l290 -701h-215l-47 120h-291l-47 -120h-209l295 701h224zM439 906q48 -23 65 -23q16 0 30 9q10 7 50 45l67 -54q-55 -77 -87 -102q-32 -26 -71 -26q-28 0 -87 29q-50 23 -67 23q-15 0 -29 -9q-15 -10 -50 -45l-67 53q55 75 87 103
q32 26 70 26q27 0 89 -29z" />
    <glyph glyph-name="Adieresis" unicode="&#xc4;" horiz-adv-x="828" 
d="M411 504l-90 -227h180zM528 701l290 -701h-215l-47 120h-291l-47 -120h-209l295 701h224zM535 946q42 0 70.5 -27t28.5 -68t-28.5 -68t-70.5 -27t-70 27t-28 68t28 68t70 27zM295 946q42 0 70 -27t28 -68t-28 -68t-70 -27t-70.5 27t-28.5 68t28.5 68t70.5 27z" />
    <glyph glyph-name="Aring" unicode="&#xc5;" horiz-adv-x="828" 
d="M492 740q0 31 -22 52.5t-55 21.5t-55 -21.5t-22 -52.5t22.5 -52t54.5 -21t54.5 21t22.5 52zM412 506l-91 -229h180zM540 672l278 -672h-215l-47 120h-291l-47 -120h-209l282 672q-20 31 -20 68q0 56 42 97q42 39 102 39q61 0 103 -39q41 -41 41 -97q0 -35 -19 -68z" />
    <glyph glyph-name="AE" unicode="&#xc6;" horiz-adv-x="1060" 
d="M517 544l-153 -267h153v267zM1023 169l-27 -169h-479v120h-244l-70 -120h-206l404 700h592l27 -169h-304v-107h251v-145h-251v-110h307z" />
    <glyph glyph-name="Ccedilla" unicode="&#xc7;" horiz-adv-x="689" 
d="M531 -132q0 -43 -47 -70.5t-124 -27.5q-56 0 -104 13l-26 67l4 3q59 -15 105 -15q58 0 58 30q0 27 -61 27q-33 0 -57 -3l-4 4l68 96q-137 17 -222 115q-86 98 -86 242q0 156 105 259q103 103 262 103q138 0 231 -75v-206h-3q-101 96 -206 96q-80 0 -130 -49
q-51 -49 -51 -126q0 -80 51 -129t132 -49q114 0 217 89l3 -2l-25 -205q-81 -54 -180 -64l-33 -42q123 -7 123 -81z" />
    <glyph glyph-name="Egrave" unicode="&#xc8;" horiz-adv-x="608" 
d="M572 169l-27 -169h-480v700h477l27 -169h-305v-107h251v-145h-251v-110h308zM61 929h229l84 -168h-104l-209 166v2z" />
    <glyph glyph-name="Eacute" unicode="&#xc9;" horiz-adv-x="608" 
d="M572 169l-27 -169h-480v700h477l27 -169h-305v-107h251v-145h-251v-110h308zM573 927l-209 -166h-104l84 168h229v-2z" />
    <glyph glyph-name="Ecircumflex" unicode="&#xca;" horiz-adv-x="608" 
d="M572 169l-27 -169h-480v700h477l27 -169h-305v-107h251v-145h-251v-110h308zM537 763v-2h-108l-112 66l-113 -66h-107v2l134 166h172z" />
    <glyph glyph-name="Edieresis" unicode="&#xcb;" horiz-adv-x="608" 
d="M572 169l-27 -169h-480v700h477l27 -169h-305v-107h251v-145h-251v-110h308zM437 946q42 0 70.5 -27t28.5 -68t-28.5 -68t-70.5 -27t-70 27t-28 68t28 68t70 27zM197 946q42 0 70 -27t28 -68t-28 -68t-70 -27t-70.5 27t-28.5 68t28.5 68t70.5 27z" />
    <glyph glyph-name="Igrave" unicode="&#xcc;" horiz-adv-x="339" 
d="M270 700v-700h-202v700h202zM-87 929h229l84 -168h-104l-209 166v2z" />
    <glyph glyph-name="Iacute" unicode="&#xcd;" horiz-adv-x="339" 
d="M270 700v-700h-202v700h202zM425 927l-209 -166h-104l84 168h229v-2z" />
    <glyph glyph-name="Icircumflex" unicode="&#xce;" horiz-adv-x="339" 
d="M270 700v-700h-202v700h202zM389 763v-2h-108l-112 66l-113 -66h-107v2l134 166h172z" />
    <glyph glyph-name="Idieresis" unicode="&#xcf;" horiz-adv-x="339" 
d="M270 700v-700h-202v700h202zM289 946q42 0 70.5 -27t28.5 -68t-28.5 -68t-70.5 -27t-70 27t-28 68t28 68t70 27zM49 946q42 0 70 -27t28 -68t-28 -68t-70 -27t-70.5 27t-28.5 68t28.5 68t70.5 27z" />
    <glyph glyph-name="Eth" unicode="&#xd0;" horiz-adv-x="802" 
d="M292 415h124v-125h-124v-116h65q95 0 149.5 46.5t54.5 128.5q0 85 -53.5 131t-151.5 46h-64v-111zM358 0h-266v284h-76v138h76v278h266q195 0 302 -92t107 -257q0 -162 -109 -256q-110 -95 -300 -95z" />
    <glyph glyph-name="Ntilde" unicode="&#xd1;" horiz-adv-x="822" 
d="M757 700v-702h-150l-344 393l3 -391h-201v700h198l295 -338l-2 338h201zM435 906q48 -23 65 -23q16 0 30 9q10 7 50 45l67 -54q-55 -77 -87 -102q-32 -26 -71 -26q-28 0 -87 29q-50 23 -67 23q-15 0 -29 -9q-15 -10 -50 -45l-67 53q55 75 87 103q32 26 70 26q27 0 89 -29
z" />
    <glyph glyph-name="Ograve" unicode="&#xd2;" horiz-adv-x="824" 
d="M411 -14q-162 0 -269 104t-107 259t108 260t270 105q160 0 269 -104q107 -105 107 -259q0 -157 -108 -260q-108 -105 -270 -105zM410 532q-73 0 -121 -52t-48 -129q0 -78 49 -130q48 -53 122 -53q73 0 122 52t49 129q0 79 -49 131t-124 52zM156 934h229l84 -168h-104
l-209 166v2z" />
    <glyph glyph-name="Oacute" unicode="&#xd3;" horiz-adv-x="824" 
d="M411 -14q-162 0 -269 104t-107 259t108 260t270 105q160 0 269 -104q107 -105 107 -259q0 -157 -108 -260q-108 -105 -270 -105zM410 532q-73 0 -121 -52t-48 -129q0 -78 49 -130q48 -53 122 -53q73 0 122 52t49 129q0 79 -49 131t-124 52zM668 932l-209 -166h-104
l84 168h229v-2z" />
    <glyph glyph-name="Ocircumflex" unicode="&#xd4;" horiz-adv-x="824" 
d="M411 -14q-162 0 -269 104t-107 259t108 260t270 105q160 0 269 -104q107 -105 107 -259q0 -157 -108 -260q-108 -105 -270 -105zM410 532q-73 0 -121 -52t-48 -129q0 -78 49 -130q48 -53 122 -53q73 0 122 52t49 129q0 79 -49 131t-124 52zM632 768v-2h-108l-112 66
l-113 -66h-107v2l134 166h172z" />
    <glyph glyph-name="Otilde" unicode="&#xd5;" horiz-adv-x="824" 
d="M411 -14q-162 0 -269 104t-107 259t108 260t270 105q160 0 269 -104q107 -105 107 -259q0 -157 -108 -260q-108 -105 -270 -105zM410 532q-73 0 -121 -52t-48 -129q0 -78 49 -130q48 -53 122 -53q73 0 122 52t49 129q0 79 -49 131t-124 52zM436 911q48 -23 65 -23t30 9
q10 7 50 45l67 -54q-56 -76 -87 -102q-32 -26 -71 -26q-28 0 -87 29q-50 23 -67 23q-16 0 -29 -9q-15 -10 -50 -45l-67 53q55 75 87 103q32 26 70 26q27 0 89 -29z" />
    <glyph glyph-name="Odieresis" unicode="&#xd6;" horiz-adv-x="824" 
d="M411 -14q-162 0 -269 104t-107 259t108 260t270 105q160 0 269 -104q107 -105 107 -259q0 -157 -108 -260q-108 -105 -270 -105zM410 532q-73 0 -121 -52t-48 -129q0 -78 49 -130q48 -53 122 -53q73 0 122 52t49 129q0 79 -49 131t-124 52zM532 951q42 0 70.5 -27
t28.5 -68t-28.5 -68t-70.5 -27t-70 27t-28 68t28 68t70 27zM292 951q42 0 70 -27t28 -68t-28 -68t-70 -27t-70.5 27t-28.5 68t28.5 68t70.5 27z" />
    <glyph glyph-name="multiply" unicode="&#xd7;" horiz-adv-x="600" 
d="M408 352l153 -152l-113 -113l-149 154l-150 -154l-110 110l152 152l-152 152l113 112l149 -153l150 153l110 -110z" />
    <glyph glyph-name="Oslash" unicode="&#xd8;" horiz-adv-x="824" 
d="M414 539q-78 0 -129 -54q-51 -55 -51 -138q0 -55 24 -99l221 280q-33 11 -65 11zM410 161q78 0 129 55q51 54 51 137q0 55 -24 99l-221 -280q31 -11 65 -11zM789 351q0 -157 -108 -260q-108 -105 -270 -105q-100 0 -185 44l-60 -73h-151l116 144q-96 102 -96 248
q0 155 108 260t270 105q101 0 184 -44l61 73h151l-117 -145q97 -103 97 -247z" />
    <glyph glyph-name="Ugrave" unicode="&#xd9;" horiz-adv-x="785" 
d="M392 -11q-161 0 -247 86t-86 247v378h202v-382q0 -71 35 -110t98 -39q64 0 98.5 39t34.5 111v381h199v-378q0 -161 -86.5 -247t-247.5 -86zM136 929h229l84 -168h-104l-209 166v2z" />
    <glyph glyph-name="Uacute" unicode="&#xda;" horiz-adv-x="785" 
d="M392 -11q-161 0 -247 86t-86 247v378h202v-382q0 -71 35 -110t98 -39q64 0 98.5 39t34.5 111v381h199v-378q0 -161 -86.5 -247t-247.5 -86zM648 927l-209 -166h-104l84 168h229v-2z" />
    <glyph glyph-name="Ucircumflex" unicode="&#xdb;" horiz-adv-x="785" 
d="M392 -11q-161 0 -247 86t-86 247v378h202v-382q0 -71 35 -110t98 -39q64 0 98.5 39t34.5 111v381h199v-378q0 -161 -86.5 -247t-247.5 -86zM612 763v-2h-108l-112 66l-113 -66h-107v2l134 166h172z" />
    <glyph glyph-name="Udieresis" unicode="&#xdc;" horiz-adv-x="785" 
d="M392 -11q-161 0 -247 86t-86 247v378h202v-382q0 -71 35 -110t98 -39q64 0 98.5 39t34.5 111v381h199v-378q0 -161 -86.5 -247t-247.5 -86zM512 946q42 0 70.5 -27t28.5 -68t-28.5 -68t-70.5 -27t-70 27t-28 68t28 68t70 27zM272 946q42 0 70 -27t28 -68t-28 -68t-70 -27
t-70.5 27t-28.5 68t28.5 68t70.5 27z" />
    <glyph glyph-name="Yacute" unicode="&#xdd;" horiz-adv-x="729" 
d="M729 700l-263 -428v-272h-202v272l-264 428h233l137 -245l137 245h222zM621 927l-209 -166h-104l84 168h229v-2z" />
    <glyph glyph-name="Thorn" unicode="&#xde;" horiz-adv-x="654" 
d="M430 356q0 41 -28 63.5t-80 22.5h-58v-175h55q53 0 82 23.5t29 65.5zM626 357q0 -113 -79 -177q-79 -66 -213 -66h-67v-114h-202v700h202v-104h72q134 0 210.5 -63.5t76.5 -175.5z" />
    <glyph glyph-name="germandbls" unicode="&#xdf;" horiz-adv-x="728" 
d="M697 187q0 -87 -61 -141q-62 -54 -162 -54q-65 0 -116 18l-19 153l3 2q51 -27 96 -27q31 0 50.5 18t19.5 48q0 41 -37 72.5t-117 57.5l-11 41q98 81 98 154q0 35 -19.5 55.5t-53.5 20.5q-37 0 -58.5 -26t-21.5 -68v-511h-188v375h-77v143h77q5 114 76.5 176t197.5 62
q113 0 182 -54q69 -56 69 -143q0 -97 -88 -165q86 -38 123 -86t37 -121z" />
    <glyph glyph-name="agrave" unicode="&#xe0;" horiz-adv-x="582" 
d="M196 152q0 -42 55 -42q39 0 99 25v86q-154 -12 -154 -69zM537 288v-275l-180 -19v70q-90 -73 -178 -73q-68 0 -109 38t-41 101q0 166 320 168q-7 83 -98 83q-81 0 -172 -60l-4 3l25 158q88 46 194 46q243 0 243 -240zM55 786h217l87 -194h-91l-213 192v2z" />
    <glyph glyph-name="aacute" unicode="&#xe1;" horiz-adv-x="582" 
d="M196 152q0 -42 55 -42q39 0 99 25v86q-154 -12 -154 -69zM537 288v-275l-180 -19v70q-90 -73 -178 -73q-68 0 -109 38t-41 101q0 166 320 168q-7 83 -98 83q-81 0 -172 -60l-4 3l25 158q88 46 194 46q243 0 243 -240zM559 784l-213 -192h-91l87 194h217v-2z" />
    <glyph glyph-name="acircumflex" unicode="&#xe2;" horiz-adv-x="582" 
d="M196 152q0 -42 55 -42q39 0 99 25v86q-154 -12 -154 -69zM537 288v-275l-180 -19v70q-90 -73 -178 -73q-68 0 -109 38t-41 101q0 166 320 168q-7 83 -98 83q-81 0 -172 -60l-4 3l25 158q88 46 194 46q243 0 243 -240zM520 594v-2h-98l-115 79l-116 -79h-97v2l134 192h158
z" />
    <glyph glyph-name="atilde" unicode="&#xe3;" horiz-adv-x="582" 
d="M196 152q0 -42 55 -42q39 0 99 25v86q-154 -12 -154 -69zM537 288v-275l-180 -19v70q-90 -73 -178 -73q-68 0 -109 38t-41 101q0 166 320 168q-7 83 -98 83q-81 0 -172 -60l-4 3l25 158q88 46 194 46q243 0 243 -240zM315 747q51 -28 68 -28q12 0 24 9q14 12 49 54
l75 -49q-48 -85 -78 -117q-31 -31 -70 -31q-24 0 -84 33q-52 27 -68 27q-12 0 -23 -8q-13 -10 -50 -54l-75 48q50 89 79 118q30 31 69 31q24 0 84 -33z" />
    <glyph glyph-name="adieresis" unicode="&#xe4;" horiz-adv-x="582" 
d="M196 152q0 -42 55 -42q39 0 99 25v86q-154 -12 -154 -69zM537 288v-275l-180 -19v70q-90 -73 -178 -73q-68 0 -109 38t-41 101q0 166 320 168q-7 83 -98 83q-81 0 -172 -60l-4 3l25 158q88 46 194 46q243 0 243 -240zM427 586q-42 0 -70 27t-28 67q0 41 28 68t70 27
t70 -27t28 -68q0 -40 -28 -67t-70 -27zM187 586q-42 0 -70 27t-28 67q0 41 28 68t70 27t70 -27t28 -68q0 -40 -28 -67t-70 -27z" />
    <glyph glyph-name="aring" unicode="&#xe5;" horiz-adv-x="582" 
d="M196 152q0 -42 55 -42q39 0 99 25v86q-154 -12 -154 -69zM537 288v-275l-180 -19v70q-90 -73 -178 -73q-68 0 -109 38t-41 101q0 166 320 168q-7 83 -98 83q-81 0 -172 -60l-4 3l25 158q88 46 194 46q243 0 243 -240zM307 581q-57 0 -97 40q-40 39 -40 96q0 56 40 96
q40 39 97 39t97 -39q40 -40 40 -96q0 -57 -40 -96q-40 -40 -97 -40zM307 790q-30 0 -50 -21t-20 -52t20 -52.5t50 -21.5t50 21.5t20 52.5t-20 52t-50 21z" />
    <glyph glyph-name="ae" unicode="&#xe6;" horiz-adv-x="900" 
d="M618 405q-35 0 -59 -25t-29 -68h170q-4 44 -25.5 68.5t-56.5 24.5zM196 152q0 -42 55 -42q51 0 121 41q-13 39 -17 70q-159 -10 -159 -69zM860 172l3 -2l-45 -143q-86 -37 -185 -37q-137 0 -216 87q-121 -86 -235 -86q-70 0 -111.5 37.5t-41.5 101.5q0 167 320 168
q-7 83 -98 83q-81 0 -172 -60l-4 3l25 158q88 46 190 46q105 0 165 -57q69 61 169 61q116 0 182 -74t66 -199q0 -4 -1.5 -20t-1.5 -23h-345q30 -87 148 -87q90 0 188 43z" />
    <glyph glyph-name="ccedilla" unicode="&#xe7;" horiz-adv-x="515" 
d="M425 -132q0 -43 -47 -70.5t-124 -27.5q-56 0 -104 13l-26 67l4 3q59 -15 105 -15q58 0 58 30q0 27 -61 27q-33 0 -57 -3l-4 4l69 98q-97 17 -154 88t-57 178q0 118 78 194q78 75 200 75q92 0 168 -46v-174l-3 -1q-74 54 -146 54q-51 0 -80.5 -28t-29.5 -76q0 -46 29 -74
t77 -28q86 0 157 51l3 -2l-19 -172q-61 -35 -126 -42l-33 -42q123 -7 123 -81z" />
    <glyph glyph-name="egrave" unicode="&#xe8;" horiz-adv-x="575" 
d="M293 405q-35 0 -58.5 -25t-28.5 -68h170q-4 43 -26 68t-57 25zM536 172l3 -2l-46 -143q-86 -37 -184 -37q-128 0 -205 74t-77 197q0 116 76 193q77 78 191 78q118 0 186 -74q67 -74 67 -199q0 -19 -3 -43h-339q26 -87 143 -87q90 0 188 43zM48 791h217l87 -194h-91
l-213 192v2z" />
    <glyph glyph-name="eacute" unicode="&#xe9;" horiz-adv-x="575" 
d="M293 405q-35 0 -58.5 -25t-28.5 -68h170q-4 43 -26 68t-57 25zM536 172l3 -2l-46 -143q-86 -37 -184 -37q-128 0 -205 74t-77 197q0 116 76 193q77 78 191 78q118 0 186 -74q67 -74 67 -199q0 -19 -3 -43h-339q26 -87 143 -87q90 0 188 43zM552 789l-213 -192h-91l87 194
h217v-2z" />
    <glyph glyph-name="ecircumflex" unicode="&#xea;" horiz-adv-x="575" 
d="M293 405q-35 0 -58.5 -25t-28.5 -68h170q-4 43 -26 68t-57 25zM536 172l3 -2l-46 -143q-86 -37 -184 -37q-128 0 -205 74t-77 197q0 116 76 193q77 78 191 78q118 0 186 -74q67 -74 67 -199q0 -19 -3 -43h-339q26 -87 143 -87q90 0 188 43zM513 599v-2h-98l-115 79
l-116 -79h-97v2l134 192h158z" />
    <glyph glyph-name="edieresis" unicode="&#xeb;" horiz-adv-x="575" 
d="M293 405q-35 0 -58.5 -25t-28.5 -68h170q-4 43 -26 68t-57 25zM536 172l3 -2l-46 -143q-86 -37 -184 -37q-128 0 -205 74t-77 197q0 116 76 193q77 78 191 78q118 0 186 -74q67 -74 67 -199q0 -19 -3 -43h-339q26 -87 143 -87q90 0 188 43zM420 591q-42 0 -70 27t-28 67
q0 41 28 68t70 27t70 -27t28 -68q0 -40 -28 -67t-70 -27zM180 591q-42 0 -70 27t-28 67q0 41 28 68t70 27t70 -27t28 -68q0 -40 -28 -67t-70 -27z" />
    <glyph glyph-name="igrave" unicode="&#xec;" horiz-adv-x="308" 
d="M248 518v-518h-189v518h189zM-98 786h217l87 -194h-91l-213 192v2z" />
    <glyph glyph-name="iacute" unicode="&#xed;" horiz-adv-x="308" 
d="M248 518v-518h-189v518h189zM406 784l-213 -192h-91l87 194h217v-2z" />
    <glyph glyph-name="icircumflex" unicode="&#xee;" horiz-adv-x="308" 
d="M248 518v-518h-189v518h189zM367 594v-2h-98l-115 79l-116 -79h-97v2l134 192h158z" />
    <glyph glyph-name="idieresis" unicode="&#xef;" horiz-adv-x="308" 
d="M248 518v-518h-189v518h189zM274 586q-42 0 -70 27t-28 67q0 41 28 68t70 27t70 -27t28 -68q0 -40 -28 -67t-70 -27zM34 586q-42 0 -70 27t-28 67q0 41 28 68t70 27t70 -27t28 -68q0 -40 -28 -67t-70 -27z" />
    <glyph glyph-name="eth" unicode="&#xf0;" horiz-adv-x="618" 
d="M503 65q-79 -79 -205 -79q-114 0 -190 74q-76 73 -76 182q0 103 69 172q68 68 169 68q64 0 119 -28q-34 57 -106 116l-77 -54l-49 59l63 43q-14 9 -40.5 27t-39.5 28l123 84q55 -36 79 -55l76 55l49 -59l-65 -45q181 -160 181 -368q0 -140 -80 -220zM402 245
q0 43 -26.5 70.5t-68.5 27.5t-68.5 -27.5t-26.5 -71.5q0 -43 26.5 -70.5t67.5 -27.5q42 0 69 28t27 71z" />
    <glyph glyph-name="ntilde" unicode="&#xf1;" horiz-adv-x="638" 
d="M329 366q-39 0 -84 -28v-338h-189v505l183 19v-98q41 55 83.5 79.5t96.5 24.5q79 0 124 -52t45 -145v-333h-189v286q0 80 -70 80zM331 747q51 -28 68 -28q12 0 24 9q14 12 49 54l75 -49q-48 -85 -78 -117q-31 -31 -70 -31q-24 0 -84 33q-52 27 -68 27q-12 0 -23 -8
q-13 -10 -50 -54l-75 48q50 89 79 118q30 31 69 31q24 0 84 -33z" />
    <glyph glyph-name="ograve" unicode="&#xf2;" horiz-adv-x="622" 
d="M311 -14q-125 0 -204 79q-80 80 -80 194q0 115 81 194q79 79 203 79t205 -78q80 -80 80 -194t-81 -194q-82 -80 -204 -80zM415 260q0 49 -29.5 81t-74.5 32t-74.5 -32.5t-29.5 -81.5t29.5 -81t74.5 -32t74.5 32.5t29.5 81.5zM59 791h217l87 -194h-91l-213 192v2z" />
    <glyph glyph-name="oacute" unicode="&#xf3;" horiz-adv-x="622" 
d="M311 -14q-125 0 -204 79q-80 80 -80 194q0 115 81 194q79 79 203 79t205 -78q80 -80 80 -194t-81 -194q-82 -80 -204 -80zM415 260q0 49 -29.5 81t-74.5 32t-74.5 -32.5t-29.5 -81.5t29.5 -81t74.5 -32t74.5 32.5t29.5 81.5zM563 789l-213 -192h-91l87 194h217v-2z" />
    <glyph glyph-name="ocircumflex" unicode="&#xf4;" horiz-adv-x="622" 
d="M311 -14q-125 0 -204 79q-80 80 -80 194q0 115 81 194q79 79 203 79t205 -78q80 -80 80 -194t-81 -194q-82 -80 -204 -80zM415 260q0 49 -29.5 81t-74.5 32t-74.5 -32.5t-29.5 -81.5t29.5 -81t74.5 -32t74.5 32.5t29.5 81.5zM524 599v-2h-98l-115 79l-116 -79h-97v2
l134 192h158z" />
    <glyph glyph-name="otilde" unicode="&#xf5;" horiz-adv-x="622" 
d="M311 -14q-125 0 -204 79q-80 80 -80 194q0 115 81 194q79 79 203 79t205 -78q80 -80 80 -194t-81 -194q-82 -80 -204 -80zM415 260q0 49 -29.5 81t-74.5 32t-74.5 -32.5t-29.5 -81.5t29.5 -81t74.5 -32t74.5 32.5t29.5 81.5zM319 752q51 -28 68 -28q12 0 24 9
q14 12 49 54l75 -49q-48 -86 -78 -117q-31 -31 -70 -31q-24 0 -84 33q-52 27 -68 27q-12 0 -23 -8q-13 -10 -50 -54l-75 48q50 89 79 118q30 31 69 31q24 0 84 -33z" />
    <glyph glyph-name="odieresis" unicode="&#xf6;" horiz-adv-x="622" 
d="M311 -14q-125 0 -204 79q-80 80 -80 194q0 115 81 194q79 79 203 79t205 -78q80 -80 80 -194t-81 -194q-82 -80 -204 -80zM415 260q0 49 -29.5 81t-74.5 32t-74.5 -32.5t-29.5 -81.5t29.5 -81t74.5 -32t74.5 32.5t29.5 81.5zM431 591q-42 0 -70 27t-28 67q0 41 28 68
t70 27t70 -27t28 -68q0 -40 -28 -67t-70 -27zM191 591q-42 0 -70 27t-28 67q0 41 28 68t70 27t70 -27t28 -68q0 -40 -28 -67t-70 -27z" />
    <glyph glyph-name="divide" unicode="&#xf7;" horiz-adv-x="600" 
d="M300 468q-40 0 -68.5 28.5t-28.5 68.5q0 39 29 68t68 29q40 0 68.5 -28.5t28.5 -68.5t-28 -68.5t-69 -28.5zM300 414l265 8v-144l-265 8l-265 -8v144zM300 38q-40 0 -68.5 28.5t-28.5 68.5q0 39 29 68t68 29q40 0 68.5 -28.5t28.5 -68.5t-28 -68.5t-69 -28.5z" />
    <glyph glyph-name="oslash" unicode="&#xf8;" horiz-adv-x="622" 
d="M314 378q-51 0 -83 -34t-32 -88q0 -32 14 -58l137 174q-16 6 -36 6zM308 140q51 0 83 34.5t32 88.5q0 26 -13 57l-138 -174q16 -6 36 -6zM596 260q0 -114 -81 -194q-82 -80 -204 -80q-75 0 -137 31l-42 -53h-124l90 111q-71 77 -71 184q0 115 81 194q79 79 203 79
q75 0 137 -31l42 53h125l-90 -110q71 -77 71 -184z" />
    <glyph glyph-name="ugrave" unicode="&#xf9;" horiz-adv-x="638" 
d="M582 518v-518h-183v92q-41 -55 -83.5 -79.5t-96.5 -24.5q-79 0 -124.5 52.5t-45.5 144.5v333h190v-286q0 -79 70 -79q39 0 83 26v339h190zM64 786h217l87 -194h-91l-213 192v2z" />
    <glyph glyph-name="uacute" unicode="&#xfa;" horiz-adv-x="638" 
d="M582 518v-518h-183v92q-41 -55 -83.5 -79.5t-96.5 -24.5q-79 0 -124.5 52.5t-45.5 144.5v333h190v-286q0 -79 70 -79q39 0 83 26v339h190zM568 784l-213 -192h-91l87 194h217v-2z" />
    <glyph glyph-name="ucircumflex" unicode="&#xfb;" horiz-adv-x="638" 
d="M582 518v-518h-183v92q-41 -55 -83.5 -79.5t-96.5 -24.5q-79 0 -124.5 52.5t-45.5 144.5v333h190v-286q0 -79 70 -79q39 0 83 26v339h190zM529 594v-2h-98l-115 79l-116 -79h-97v2l134 192h158z" />
    <glyph glyph-name="udieresis" unicode="&#xfc;" horiz-adv-x="638" 
d="M582 518v-518h-183v92q-41 -55 -83.5 -79.5t-96.5 -24.5q-79 0 -124.5 52.5t-45.5 144.5v333h190v-286q0 -79 70 -79q39 0 83 26v339h190zM436 586q-42 0 -70 27t-28 67q0 41 28 68t70 27t70 -27t28 -68q0 -40 -28 -67t-70 -27zM196 586q-42 0 -70 27t-28 67q0 41 28 68
t70 27t70 -27t28 -68q0 -40 -28 -67t-70 -27z" />
    <glyph glyph-name="yacute" unicode="&#xfd;" horiz-adv-x="619" 
d="M160 -190q-48 0 -90 15l-36 168l2 2q42 -20 84 -20q65 0 100 45l-213 498h204l107 -289l95 289h200l-186 -487q-43 -114 -108 -167.5t-159 -53.5zM568 784l-213 -192h-91l87 194h217v-2z" />
    <glyph glyph-name="thorn" unicode="&#xfe;" horiz-adv-x="645" 
d="M328 146q48 0 78 32t30 83q0 52 -28 82t-75 30q-44 0 -88 -26v-180q43 -21 83 -21zM617 272q0 -123 -70 -200q-70 -79 -178 -79q-65 0 -124 46v-226h-189v900l189 44v-305q69 76 158 76q92 0 153 -73t61 -183z" />
    <glyph glyph-name="ydieresis" unicode="&#xff;" horiz-adv-x="619" 
d="M160 -190q-48 0 -90 15l-36 168l2 2q42 -20 84 -20q65 0 100 45l-213 498h204l107 -289l95 289h200l-186 -487q-43 -114 -108 -167.5t-159 -53.5zM436 586q-42 0 -70 27t-28 67q0 41 28 68t70 27t70 -27t28 -68q0 -40 -28 -67t-70 -27zM196 586q-42 0 -70 27t-28 67
q0 41 28 68t70 27t70 -27t28 -68q0 -40 -28 -67t-70 -27z" />
    <glyph glyph-name="Amacron" unicode="&#x100;" horiz-adv-x="828" 
d="M411 504l-90 -227h180zM528 701l290 -701h-215l-47 120h-291l-47 -120h-209l295 701h224zM628 780h-426v119h426v-119z" />
    <glyph glyph-name="amacron" unicode="&#x101;" horiz-adv-x="582" 
d="M196 152q0 -42 55 -42q39 0 99 25v86q-154 -12 -154 -69zM537 288v-275l-180 -19v70q-90 -73 -178 -73q-68 0 -109 38t-41 101q0 166 320 168q-7 83 -98 83q-81 0 -172 -60l-4 3l25 158q88 46 194 46q243 0 243 -240zM508 610h-402v113h402v-113z" />
    <glyph glyph-name="Abreve" unicode="&#x102;" horiz-adv-x="828" 
d="M411 504l-90 -227h180zM528 701l290 -701h-215l-47 120h-291l-47 -120h-209l295 701h224zM415 754q-140 0 -223 129l64 61q81 -66 159 -66q42 0 77.5 14.5t81.5 51.5l64 -60q-84 -130 -223 -130z" />
    <glyph glyph-name="abreve" unicode="&#x103;" horiz-adv-x="582" 
d="M196 152q0 -42 55 -42q39 0 99 25v86q-154 -12 -154 -69zM537 288v-275l-180 -19v70q-90 -73 -178 -73q-68 0 -109 38t-41 101q0 166 320 168q-7 83 -98 83q-81 0 -172 -60l-4 3l25 158q88 46 194 46q243 0 243 -240zM307 583q-63 0 -113.5 34t-98.5 109l70 62
q67 -78 142 -78q74 0 142 78l70 -61q-49 -76 -99.5 -110t-112.5 -34z" />
    <glyph glyph-name="Aogonek" unicode="&#x104;" horiz-adv-x="828" 
d="M411 504l-90 -227h180zM811 -134h7l-20 -61q-57 -10 -94 -10q-64 0 -100.5 22t-36.5 60q0 22 13 42t52 55l29 26h-58l-47 120h-291l-47 -120h-209l295 701h224l290 -701h-51l-28 -45q-19 -29 -19 -48q0 -41 91 -41z" />
    <glyph glyph-name="aogonek" unicode="&#x105;" horiz-adv-x="582" 
d="M433 -198q-64 0 -100.5 22t-36.5 60q0 22 13 42t52 55l17 15l-21 -2v70q-90 -73 -178 -73q-68 0 -109 38t-41 101q0 166 320 168q-7 83 -98 83q-81 0 -172 -60l-4 3l25 158q88 46 194 46q243 0 243 -240v-275l-40 -4l-29 -47q-19 -29 -19 -48q0 -41 91 -41h7l-20 -61
q-57 -10 -94 -10zM196 152q0 -42 55 -42q39 0 99 25v86q-154 -12 -154 -69z" />
    <glyph glyph-name="Cacute" unicode="&#x106;" horiz-adv-x="689" 
d="M392 -11q-155 0 -256 101t-101 259q0 156 105 259q103 103 262 103q138 0 231 -75v-206h-3q-101 96 -206 96q-80 0 -130 -49q-51 -49 -51 -126q0 -80 51 -129t132 -49q114 0 217 89l3 -2l-25 -205q-101 -66 -229 -66zM645 932l-209 -166h-104l84 168h229v-2z" />
    <glyph glyph-name="cacute" unicode="&#x107;" horiz-adv-x="515" 
d="M477 207l3 -2l-19 -172q-74 -44 -169 -44q-117 0 -191 74t-74 197q0 118 78 194q78 75 200 75q92 0 168 -46v-174l-3 -1q-74 54 -146 54q-51 0 -80.5 -28t-29.5 -76q0 -46 29 -74t77 -28q86 0 157 51zM538 789l-213 -192h-91l87 194h217v-2z" />
    <glyph glyph-name="Ccircumflex" unicode="&#x108;" horiz-adv-x="689" 
d="M392 -11q-155 0 -256 101t-101 259q0 156 105 259q103 103 262 103q138 0 231 -75v-206h-3q-101 96 -206 96q-80 0 -130 -49q-51 -49 -51 -126q0 -80 51 -129t132 -49q114 0 217 89l3 -2l-25 -205q-101 -66 -229 -66zM609 768v-2h-108l-112 66l-113 -66h-107v2l134 166
h172z" />
    <glyph glyph-name="ccircumflex" unicode="&#x109;" horiz-adv-x="515" 
d="M477 207l3 -2l-19 -172q-74 -44 -169 -44q-117 0 -191 74t-74 197q0 118 78 194q78 75 200 75q92 0 168 -46v-174l-3 -1q-74 54 -146 54q-51 0 -80.5 -28t-29.5 -76q0 -46 29 -74t77 -28q86 0 157 51zM499 599v-2h-98l-115 79l-116 -79h-97v2l134 192h158z" />
    <glyph glyph-name="Cdotaccent" unicode="&#x10a;" horiz-adv-x="689" 
d="M392 -11q-155 0 -256 101t-101 259q0 156 105 259q103 103 262 103q138 0 231 -75v-206h-3q-101 96 -206 96q-80 0 -130 -49q-51 -49 -51 -126q0 -80 51 -129t132 -49q114 0 217 89l3 -2l-25 -205q-101 -66 -229 -66zM389 949q42 0 70.5 -27t28.5 -68t-28.5 -68
t-70.5 -27t-70.5 27t-28.5 68t28.5 68t70.5 27z" />
    <glyph glyph-name="cdotaccent" unicode="&#x10b;" horiz-adv-x="515" 
d="M477 207l3 -2l-19 -172q-74 -44 -169 -44q-117 0 -191 74t-74 197q0 118 78 194q78 75 200 75q92 0 168 -46v-174l-3 -1q-74 54 -146 54q-51 0 -80.5 -28t-29.5 -76q0 -46 29 -74t77 -28q86 0 157 51zM286 588q-41 0 -68.5 26.5t-27.5 65.5q0 40 27.5 66t68.5 26
t68.5 -26t27.5 -66q0 -39 -27.5 -65.5t-68.5 -26.5z" />
    <glyph glyph-name="Ccaron" unicode="&#x10c;" horiz-adv-x="689" 
d="M392 -11q-155 0 -256 101t-101 259q0 156 105 259q103 103 262 103q138 0 231 -75v-206h-3q-101 96 -206 96q-80 0 -130 -49q-51 -49 -51 -126q0 -80 51 -129t132 -49q114 0 217 89l3 -2l-25 -205q-101 -66 -229 -66zM609 933v-2l-134 -166h-172l-134 166v2h108l112 -66
l113 66h107z" />
    <glyph glyph-name="ccaron" unicode="&#x10d;" horiz-adv-x="515" 
d="M477 207l3 -2l-19 -172q-74 -44 -169 -44q-117 0 -191 74t-74 197q0 118 78 194q78 75 200 75q92 0 168 -46v-174l-3 -1q-74 54 -146 54q-51 0 -80.5 -28t-29.5 -76q0 -46 29 -74t77 -28q86 0 157 51zM499 791v-2l-134 -192h-158l-134 192v2h98l115 -79l116 79h97z" />
    <glyph glyph-name="Dcaron" unicode="&#x10e;" horiz-adv-x="776" 
d="M534 349q0 85 -53.5 131t-151.5 46h-62v-352h64q95 0 149 46.5t54 128.5zM331 0h-266v700h266q195 0 302.5 -92t107.5 -257q0 -162 -109 -256q-110 -95 -301 -95zM597 928v-2l-134 -166h-172l-134 166v2h108l112 -66l113 66h107z" />
    <glyph glyph-name="dcaron" unicode="&#x10f;" horiz-adv-x="645" 
d="M209 257q0 -51 28 -81.5t75 -30.5q44 0 88 26v180q-43 21 -83 21q-48 0 -78 -32t-30 -83zM589 757v-757h-183v72q-69 -82 -164 -82q-91 0 -152 73q-62 74 -62 183q0 120 69 200q69 79 173 79q71 0 130 -46v234zM697 551h-70q19 44 19 97q0 51 -19 97h136q5 -25 5 -41
q0 -78 -71 -153z" />
    <glyph glyph-name="Dcroat" unicode="&#x110;" horiz-adv-x="802" 
d="M292 415h124v-125h-124v-116h65q95 0 149.5 46.5t54.5 128.5q0 85 -53.5 131t-151.5 46h-64v-111zM358 0h-266v284h-76v138h76v278h266q195 0 302 -92t107 -257q0 -162 -109 -256q-110 -95 -300 -95z" />
    <glyph glyph-name="dslash" unicode="&#x111;" horiz-adv-x="648" 
d="M209 252q0 -50 28 -80t75 -30q39 0 88 25v176q-42 18 -83 18q-48 0 -78 -30t-30 -79zM589 565v-565h-183v70q-69 -80 -164 -80q-92 0 -153 72q-61 71 -61 180q0 118 70 194t178 76q65 0 124 -43v96h-114v90h114v58l189 44v-102h59v-90h-59z" />
    <glyph glyph-name="Emacron" unicode="&#x112;" horiz-adv-x="608" 
d="M572 169l-27 -169h-480v700h477l27 -169h-305v-107h251v-145h-251v-110h308zM530 780h-426v119h426v-119z" />
    <glyph glyph-name="emacron" unicode="&#x113;" horiz-adv-x="575" 
d="M293 405q-35 0 -58.5 -25t-28.5 -68h170q-4 43 -26 68t-57 25zM536 172l3 -2l-46 -143q-86 -37 -184 -37q-128 0 -205 74t-77 197q0 116 76 193q77 78 191 78q118 0 186 -74q67 -74 67 -199q0 -19 -3 -43h-339q26 -87 143 -87q90 0 188 43zM501 615h-402v113h402v-113z
" />
    <glyph glyph-name="Ebreve" unicode="&#x114;" horiz-adv-x="608" 
d="M572 169l-27 -169h-480v700h477l27 -169h-305v-107h251v-145h-251v-110h308zM317 754q-140 0 -223 129l64 61q81 -66 159 -66q42 0 77.5 14.5t81.5 51.5l64 -60q-84 -130 -223 -130z" />
    <glyph glyph-name="ebreve" unicode="&#x115;" horiz-adv-x="575" 
d="M293 405q-35 0 -58.5 -25t-28.5 -68h170q-4 43 -26 68t-57 25zM536 172l3 -2l-46 -143q-86 -37 -184 -37q-128 0 -205 74t-77 197q0 116 76 193q77 78 191 78q118 0 186 -74q67 -74 67 -199q0 -19 -3 -43h-339q26 -87 143 -87q90 0 188 43zM300 588q-63 0 -113.5 34
t-98.5 109l70 62q67 -78 142 -78q74 0 142 78l70 -61q-49 -76 -99.5 -110t-112.5 -34z" />
    <glyph glyph-name="Edotaccent" unicode="&#x116;" horiz-adv-x="608" 
d="M572 169l-27 -169h-480v700h477l27 -169h-305v-107h251v-145h-251v-110h308zM317 944q42 0 70.5 -27t28.5 -68t-28.5 -68t-70.5 -27t-70.5 27t-28.5 68t28.5 68t70.5 27z" />
    <glyph glyph-name="edotaccent" unicode="&#x117;" horiz-adv-x="575" 
d="M293 405q-35 0 -58.5 -25t-28.5 -68h170q-4 43 -26 68t-57 25zM536 172l3 -2l-46 -143q-86 -37 -184 -37q-128 0 -205 74t-77 197q0 116 76 193q77 78 191 78q118 0 186 -74q67 -74 67 -199q0 -19 -3 -43h-339q26 -87 143 -87q90 0 188 43zM300 588q-41 0 -68.5 26.5
t-27.5 65.5q0 40 27.5 66t68.5 26t68.5 -26t27.5 -66q0 -39 -27.5 -65.5t-68.5 -26.5z" />
    <glyph glyph-name="Eogonek" unicode="&#x118;" horiz-adv-x="608" 
d="M554 -134h7l-20 -61q-57 -10 -94 -10q-64 0 -100.5 22t-36.5 60q0 22 13 42t52 55l29 26h-339v700h477l27 -169h-305v-107h251v-145h-251v-110h308l-27 -169h-35l-28 -45q-19 -29 -19 -48q0 -41 91 -41z" />
    <glyph glyph-name="eogonek" unicode="&#x119;" horiz-adv-x="575" 
d="M474 -134h8l-21 -61q-59 -10 -94 -10q-62 0 -97 20t-35 56q0 25 19 47t69 54l33 23q-40 -2 -47 -2q-128 0 -205 74t-77 196q0 115 76 192q77 77 191 77q118 0 186 -74q67 -74 67 -199q0 -19 -3 -43h-339q26 -87 143 -87q90 0 188 43l3 -2l-46 -140l-69 -73
q-31 -32 -31 -55q0 -36 81 -36zM293 405q-35 0 -58.5 -25t-28.5 -68h170q-4 43 -26 68t-57 25z" />
    <glyph glyph-name="Ecaron" unicode="&#x11a;" horiz-adv-x="608" 
d="M572 169l-27 -169h-480v700h477l27 -169h-305v-107h251v-145h-251v-110h308zM537 928v-2l-134 -166h-172l-134 166v2h108l112 -66l113 66h107z" />
    <glyph glyph-name="ecaron" unicode="&#x11b;" horiz-adv-x="575" 
d="M293 405q-35 0 -58.5 -25t-28.5 -68h170q-4 43 -26 68t-57 25zM536 172l3 -2l-46 -143q-86 -37 -184 -37q-128 0 -205 74t-77 197q0 116 76 193q77 78 191 78q118 0 186 -74q67 -74 67 -199q0 -19 -3 -43h-339q26 -87 143 -87q90 0 188 43zM513 791v-2l-134 -192h-158
l-134 192v2h98l115 -79l116 79h97z" />
    <glyph glyph-name="Gcircumflex" unicode="&#x11c;" horiz-adv-x="762" 
d="M388 395h312v-334q-150 -71 -293 -71q-167 0 -269 96q-103 96 -103 256q0 168 112 268q112 101 294 101q129 0 242 -51v-190q-124 60 -230 60q-93 0 -151 -51q-59 -51 -59 -134q0 -86 53.5 -135t146.5 -49q39 0 76 8v96h-131v130zM632 768v-2h-108l-112 66l-113 -66h-107
v2l134 166h172z" />
    <glyph glyph-name="gcircumflex" unicode="&#x11d;" horiz-adv-x="645" 
d="M209 272q0 -45 28 -71t74 -26q43 0 92 25v160q-38 15 -82 15q-50 0 -81 -28.5t-31 -74.5zM287 -193q-112 0 -206 45l-28 159l4 3q65 -33 110.5 -45.5t96.5 -12.5q68 0 103.5 30.5t35.5 88.5v26q-69 -62 -157 -62q-94 0 -156 65t-62 165q0 115 78 185q77 70 202 70
q74 0 158 -27l110 24h13v-428q0 -133 -81 -210q-80 -76 -221 -76zM542 594v-2h-98l-115 79l-116 -79h-97v2l134 192h158z" />
    <glyph glyph-name="Gbreve" unicode="&#x11e;" horiz-adv-x="762" 
d="M388 395h312v-334q-150 -71 -293 -71q-167 0 -269 96q-103 96 -103 256q0 168 112 268q112 101 294 101q129 0 242 -51v-190q-124 60 -230 60q-93 0 -151 -51q-59 -51 -59 -134q0 -86 53.5 -135t146.5 -49q39 0 76 8v96h-131v130zM412 759q-140 0 -223 129l64 61
q81 -66 159 -66q42 0 77.5 14.5t81.5 51.5l64 -60q-84 -130 -223 -130z" />
    <glyph glyph-name="gbreve" unicode="&#x11f;" horiz-adv-x="645" 
d="M209 272q0 -45 28 -71t74 -26q43 0 92 25v160q-38 15 -82 15q-50 0 -81 -28.5t-31 -74.5zM287 -193q-112 0 -206 45l-28 159l4 3q65 -33 110.5 -45.5t96.5 -12.5q68 0 103.5 30.5t35.5 88.5v26q-69 -62 -157 -62q-94 0 -156 65t-62 165q0 115 78 185q77 70 202 70
q74 0 158 -27l110 24h13v-428q0 -133 -81 -210q-80 -76 -221 -76zM329 583q-63 0 -113.5 34t-98.5 109l70 62q67 -78 142 -78q74 0 142 78l70 -61q-49 -76 -99.5 -110t-112.5 -34z" />
    <glyph glyph-name="Gdotaccent" unicode="&#x120;" horiz-adv-x="762" 
d="M388 395h312v-334q-150 -71 -293 -71q-167 0 -269 96q-103 96 -103 256q0 168 112 268q112 101 294 101q129 0 242 -51v-190q-124 60 -230 60q-93 0 -151 -51q-59 -51 -59 -134q0 -86 53.5 -135t146.5 -49q39 0 76 8v96h-131v130zM412 949q42 0 70.5 -27t28.5 -68
t-28.5 -68t-70.5 -27t-70.5 27t-28.5 68t28.5 68t70.5 27z" />
    <glyph glyph-name="gdotaccent" unicode="&#x121;" horiz-adv-x="645" 
d="M209 272q0 -45 28 -71t74 -26q43 0 92 25v160q-38 15 -82 15q-50 0 -81 -28.5t-31 -74.5zM287 -193q-112 0 -206 45l-28 159l4 3q65 -33 110.5 -45.5t96.5 -12.5q68 0 103.5 30.5t35.5 88.5v26q-69 -62 -157 -62q-94 0 -156 65t-62 165q0 115 78 185q77 70 202 70
q74 0 158 -27l110 24h13v-428q0 -133 -81 -210q-80 -76 -221 -76zM329 583q-41 0 -68.5 26.5t-27.5 65.5q0 40 27.5 66t68.5 26t68.5 -26t27.5 -66q0 -39 -27.5 -65.5t-68.5 -26.5z" />
    <glyph glyph-name="uni0122" unicode="&#x122;" horiz-adv-x="762" 
d="M388 395h312v-334q-150 -71 -293 -71q-167 0 -269 96q-103 96 -103 256q0 168 112 268q112 101 294 101q129 0 242 -51v-190q-124 60 -230 60q-93 0 -151 -51q-59 -51 -59 -134q0 -86 53.5 -135t146.5 -49q39 0 76 8v96h-131v130zM537 -144q0 -72 -172 -131l-86 34v4
q40 21 57.5 36t17.5 30q0 29 -79 57v5l185 50q41 -18 59 -38t18 -47z" />
    <glyph glyph-name="uni0123" unicode="&#x123;" horiz-adv-x="645" 
d="M209 272q0 -45 28 -71t74 -26q43 0 92 25v160q-38 15 -82 15q-50 0 -81 -28.5t-31 -74.5zM287 -193q-112 0 -206 45l-28 159l4 3q65 -33 110.5 -45.5t96.5 -12.5q68 0 103.5 30.5t35.5 88.5v26q-69 -62 -157 -62q-94 0 -156 65t-62 165q0 115 78 185q77 70 202 70
q74 0 158 -27l110 24h13v-428q0 -133 -81 -210q-80 -76 -221 -76zM201 670q0 73 172 134l86 -34v-4q-40 -21 -57.5 -36.5t-17.5 -31.5t17.5 -29.5t61.5 -30.5v-5l-185 -50q-77 35 -77 87z" />
    <glyph glyph-name="Hcircumflex" unicode="&#x124;" horiz-adv-x="808" 
d="M743 700v-700h-203v261h-273v-261h-202v700h202v-254h273v254h203zM624 763v-2h-108l-112 66l-113 -66h-107v2l134 166h172z" />
    <glyph glyph-name="hcircumflex" unicode="&#x125;" horiz-adv-x="638" 
d="M329 366q-39 0 -84 -28v-338h-189v713l189 44v-323q73 96 174 96q79 0 124 -52t45 -145v-333h-189v286q0 80 -70 80zM365 789v-2h-98l-115 79l-116 -79h-97v2l134 192h158z" />
    <glyph glyph-name="Hbar" unicode="&#x126;" horiz-adv-x="861" 
d="M294 515v-98h274v98h-274zM769 511v-511h-201v243h-274v-243h-202v511h-77v110h77v79h202v-82h274v82h201v-79h77v-110h-77z" />
    <glyph glyph-name="hbar" unicode="&#x127;" horiz-adv-x="641" 
d="M332 354q-38 0 -83 -27v-327h-190v565h-59v90h59v58l190 44v-102h117v-90h-117v-142q75 96 173 96q79 0 124.5 -53t45.5 -145v-321h-190v275q0 79 -70 79z" />
    <glyph glyph-name="Itilde" unicode="&#x128;" horiz-adv-x="339" 
d="M270 700v-700h-202v700h202zM193 906q48 -23 65 -23q16 0 30 9q10 7 50 45l67 -54q-55 -77 -87 -102q-32 -26 -71 -26q-28 0 -87 29q-50 23 -67 23q-15 0 -29 -9q-15 -10 -50 -45l-67 53q55 75 87 103q32 26 70 26q27 0 89 -29z" />
    <glyph glyph-name="itilde" unicode="&#x129;" horiz-adv-x="308" 
d="M248 518v-518h-189v518h189zM162 747q51 -28 68 -28q12 0 24 9q14 12 49 54l75 -49q-48 -85 -78 -117q-31 -31 -70 -31q-24 0 -84 33q-52 27 -68 27q-12 0 -23 -8q-13 -10 -50 -54l-75 48q50 89 79 118q30 31 69 31q24 0 84 -33z" />
    <glyph glyph-name="Imacron" unicode="&#x12a;" horiz-adv-x="339" 
d="M270 700v-700h-202v700h202zM342 780h-346v119h346v-119z" />
    <glyph glyph-name="imacron" unicode="&#x12b;" horiz-adv-x="308" 
d="M248 518v-518h-189v518h189zM327 610h-346v113h346v-113z" />
    <glyph glyph-name="Ibreve" unicode="&#x12c;" horiz-adv-x="339" 
d="M270 700v-700h-202v700h202zM169 754q-140 0 -223 129l64 61q81 -66 159 -66q42 0 77.5 14.5t81.5 51.5l64 -60q-84 -130 -223 -130z" />
    <glyph glyph-name="ibreve" unicode="&#x12d;" horiz-adv-x="308" 
d="M248 518v-518h-189v518h189zM154 583q-63 0 -113.5 34t-98.5 109l70 62q67 -78 142 -78q74 0 142 78l70 -61q-49 -76 -99.5 -110t-112.5 -34z" />
    <glyph glyph-name="Iogonek" unicode="&#x12e;" horiz-adv-x="339" 
d="M281 -134h7l-20 -61q-57 -10 -94 -10q-64 0 -100.5 22t-36.5 60q0 22 13 42t52 55l29 26h-63v700h202v-700h-33l-28 -45q-19 -29 -19 -48q0 -41 91 -41z" />
    <glyph glyph-name="iogonek" unicode="&#x12f;" horiz-adv-x="308" 
d="M154 781q47 0 78.5 -29t31.5 -73t-31.5 -73.5t-78.5 -29.5t-79 29.5t-32 73.5t31.5 73t79.5 29zM257 -134h7l-20 -61q-57 -10 -94 -10q-64 0 -100.5 22t-36.5 60q0 22 13 42t52 55l29 26h-48v518h189v-518h-35l-28 -45q-19 -29 -19 -48q0 -41 91 -41z" />
    <glyph glyph-name="Idot" unicode="&#x130;" horiz-adv-x="339" 
d="M270 700v-700h-202v700h202zM169 944q42 0 70.5 -27t28.5 -68t-28.5 -68t-70.5 -27t-70.5 27t-28.5 68t28.5 68t70.5 27z" />
    <glyph glyph-name="dotlessi" unicode="&#x131;" horiz-adv-x="308" 
d="M248 518v-518h-189v518h189z" />
    <glyph glyph-name="Jcircumflex" unicode="&#x134;" horiz-adv-x="509" 
d="M151 172q44 0 70 26t26 72v430h202v-471q0 -111 -66 -174.5t-180 -63.5q-86 0 -159 38l-25 186l2 2q68 -45 130 -45zM572 763v-2h-108l-112 66l-113 -66h-107v2l134 166h172z" />
    <glyph glyph-name="jcircumflex" unicode="&#x135;" horiz-adv-x="308" 
d="M60 19v499h190v-488q0 -107 -55.5 -163.5t-158.5 -56.5q-38 0 -68 7l-31 127q19 -6 41 -6q82 0 82 81zM367 594v-2h-98l-115 79l-116 -79h-97v2l134 192h158z" />
    <glyph glyph-name="uni0136" unicode="&#x136;" horiz-adv-x="753" 
d="M753 2v-2h-249l-219 279h-18v-279h-202v700h202v-267h19l220 267h242v-2l-291 -335zM518 -142q0 -72 -172 -131l-86 34v4q40 21 57.5 36t17.5 30q0 29 -79 57v5l185 50q41 -18 59 -38t18 -47z" />
    <glyph glyph-name="uni0137" unicode="&#x137;" horiz-adv-x="612" 
d="M615 2v-2h-221l-130 204h-19v-204h-189v713l189 44v-439h18l131 200h209v-2l-173 -246zM451 -142q0 -72 -172 -131l-86 34v4q40 21 57.5 36t17.5 30q0 29 -79 57v5l185 50q41 -18 59 -38t18 -47z" />
    <glyph glyph-name="Lacute" unicode="&#x139;" horiz-adv-x="569" 
d="M539 181v-181h-474v700h202v-519h272zM433 927l-209 -166h-104l84 168h229v-2z" />
    <glyph glyph-name="lacute" unicode="&#x13a;" horiz-adv-x="308" 
d="M248 757v-757h-189v713zM406 990l-213 -192h-91l87 194h217v-2z" />
    <glyph glyph-name="uni013B" unicode="&#x13b;" horiz-adv-x="569" 
d="M539 181v-181h-474v700h202v-519h272zM432 -142q0 -72 -172 -131l-86 34v4q40 21 57.5 36t17.5 30q0 29 -79 57v5l185 50q41 -18 59 -38t18 -47z" />
    <glyph glyph-name="uni013C" unicode="&#x13c;" horiz-adv-x="308" 
d="M248 757v-757h-189v713zM282 -142q0 -72 -172 -131l-86 34v4q40 21 57.5 36t17.5 30q0 29 -79 57v5l185 50q41 -18 59 -38t18 -47z" />
    <glyph glyph-name="Lcaron" unicode="&#x13d;" horiz-adv-x="569" 
d="M539 181v-181h-474v700h202v-519h272zM381 549h-70q19 44 19 97q0 51 -19 97h136q5 -25 5 -41q0 -78 -71 -153z" />
    <glyph glyph-name="lcaron" unicode="&#x13e;" horiz-adv-x="308" 
d="M248 757v-757h-189v713zM357 551h-70q19 44 19 97q0 51 -19 97h136q5 -25 5 -41q0 -78 -71 -153z" />
    <glyph glyph-name="Lslash" unicode="&#x141;" horiz-adv-x="596" 
d="M294 181h272v-181h-474v199l-76 -51h-2v171l78 52v329h202v-215l145 98h2v-172l-147 -99v-131z" />
    <glyph glyph-name="lslash" unicode="&#x142;" horiz-adv-x="360" 
d="M351 403l-76 -52v-351h-190v237l-74 -51h-2v149l76 52v326l190 44v-254l74 51l2 -1v-150z" />
    <glyph glyph-name="Nacute" unicode="&#x143;" horiz-adv-x="822" 
d="M757 700v-702h-150l-344 393l3 -391h-201v700h198l295 -338l-2 338h201zM667 927l-209 -166h-104l84 168h229v-2z" />
    <glyph glyph-name="nacute" unicode="&#x144;" horiz-adv-x="638" 
d="M329 366q-39 0 -84 -28v-338h-189v505l183 19v-98q41 55 83.5 79.5t96.5 24.5q79 0 124 -52t45 -145v-333h-189v286q0 80 -70 80zM575 784l-213 -192h-91l87 194h217v-2z" />
    <glyph glyph-name="uni0145" unicode="&#x145;" horiz-adv-x="822" 
d="M757 700v-702h-150l-344 393l3 -391h-201v700h198l295 -338l-2 338h201zM543 -142q0 -72 -172 -131l-86 34v4q40 21 57.5 36t17.5 30q0 29 -79 57v5l185 50q41 -18 59 -38t18 -47z" />
    <glyph glyph-name="uni0146" unicode="&#x146;" horiz-adv-x="638" 
d="M329 366q-39 0 -84 -28v-338h-189v505l183 19v-98q41 55 83.5 79.5t96.5 24.5q79 0 124 -52t45 -145v-333h-189v286q0 80 -70 80zM451 -139q0 -72 -172 -131l-86 34v4q40 21 57.5 36t17.5 30q0 29 -79 57v5l185 50q41 -18 59 -38t18 -47z" />
    <glyph glyph-name="Ncaron" unicode="&#x147;" horiz-adv-x="822" 
d="M757 700v-702h-150l-344 393l3 -391h-201v700h198l295 -338l-2 338h201zM631 928v-2l-134 -166h-172l-134 166v2h108l112 -66l113 66h107z" />
    <glyph glyph-name="ncaron" unicode="&#x148;" horiz-adv-x="638" 
d="M329 366q-39 0 -84 -28v-338h-189v505l183 19v-98q41 55 83.5 79.5t96.5 24.5q79 0 124 -52t45 -145v-333h-189v286q0 80 -70 80zM536 786v-2l-134 -192h-158l-134 192v2h98l115 -79l116 79h97z" />
    <glyph glyph-name="Eng" unicode="&#x14a;" horiz-adv-x="822" 
d="M502 -239q-48 0 -84 10l-23 161l3 2q37 -8 64 -8q44 0 69 24.5t25 69.5v19l-293 341l3 -380h-201v700h195l296 -345v345h201v-670q0 -130 -66 -199.5t-189 -69.5z" />
    <glyph glyph-name="eng" unicode="&#x14b;" horiz-adv-x="638" 
d="M387 -190q-35 0 -61 8l-29 125q8 -3 30 -3q72 0 72 72v274q0 80 -70 80q-39 0 -84 -28v-338h-189v505l183 19v-98q41 55 83.5 79.5t96.5 24.5q79 0 124 -52t45 -145v-317q0 -99 -52.5 -152.5t-148.5 -53.5z" />
    <glyph glyph-name="Omacron" unicode="&#x14c;" horiz-adv-x="824" 
d="M411 -14q-162 0 -269 104t-107 259t108 260t270 105q160 0 269 -104q107 -105 107 -259q0 -157 -108 -260q-108 -105 -270 -105zM410 532q-73 0 -121 -52t-48 -129q0 -78 49 -130q48 -53 122 -53q73 0 122 52t49 129q0 79 -49 131t-124 52zM625 785h-426v119h426v-119z
" />
    <glyph glyph-name="omacron" unicode="&#x14d;" horiz-adv-x="622" 
d="M311 -14q-125 0 -204 79q-80 80 -80 194q0 115 81 194q79 79 203 79t205 -78q80 -80 80 -194t-81 -194q-82 -80 -204 -80zM415 260q0 49 -29.5 81t-74.5 32t-74.5 -32.5t-29.5 -81.5t29.5 -81t74.5 -32t74.5 32.5t29.5 81.5zM512 615h-402v113h402v-113z" />
    <glyph glyph-name="Obreve" unicode="&#x14e;" horiz-adv-x="824" 
d="M411 -14q-162 0 -269 104t-107 259t108 260t270 105q160 0 269 -104q107 -105 107 -259q0 -157 -108 -260q-108 -105 -270 -105zM410 532q-73 0 -121 -52t-48 -129q0 -78 49 -130q48 -53 122 -53q73 0 122 52t49 129q0 79 -49 131t-124 52zM412 759q-140 0 -223 129
l64 61q81 -66 159 -66q42 0 77.5 14.5t81.5 51.5l64 -60q-84 -130 -223 -130z" />
    <glyph glyph-name="obreve" unicode="&#x14f;" horiz-adv-x="622" 
d="M311 -14q-125 0 -204 79q-80 80 -80 194q0 115 81 194q79 79 203 79t205 -78q80 -80 80 -194t-81 -194q-82 -80 -204 -80zM415 260q0 49 -29.5 81t-74.5 32t-74.5 -32.5t-29.5 -81.5t29.5 -81t74.5 -32t74.5 32.5t29.5 81.5zM311 588q-63 0 -113.5 34t-98.5 109l70 62
q67 -78 142 -78q74 0 142 78l70 -61q-49 -76 -99.5 -110t-112.5 -34z" />
    <glyph glyph-name="Ohungarumlaut" unicode="&#x150;" horiz-adv-x="824" 
d="M411 -14q-162 0 -269 104t-107 259t108 260t270 105q160 0 269 -104q107 -105 107 -259q0 -157 -108 -260q-108 -105 -270 -105zM410 532q-73 0 -121 -52t-48 -129q0 -78 49 -130q48 -53 122 -53q73 0 122 52t49 129q0 79 -49 131t-124 52zM732 932l-186 -166h-97l91 168
h192v-2zM536 932l-180 -166h-97l84 168h193v-2z" />
    <glyph glyph-name="ohungarumlaut" unicode="&#x151;" horiz-adv-x="622" 
d="M311 -14q-125 0 -204 79q-80 80 -80 194q0 115 81 194q79 79 203 79t205 -78q80 -80 80 -194t-81 -194q-82 -80 -204 -80zM415 260q0 49 -29.5 81t-74.5 32t-74.5 -32.5t-29.5 -81.5t29.5 -81t74.5 -32t74.5 32.5t29.5 81.5zM639 789l-197 -192h-84l87 194h194v-2z
M443 789l-197 -192h-84l87 194h194v-2z" />
    <glyph glyph-name="OE" unicode="&#x152;" horiz-adv-x="1032" 
d="M241 351q0 -87 55.5 -134.5t156.5 -47.5h36v362h-37q-99 0 -155 -48t-56 -132zM995 169l-27 -169h-524q-195 0 -302 92t-107 257q0 162 110 257q109 94 299 94h521l27 -169h-304v-107h251v-145h-251v-110h307z" />
    <glyph glyph-name="oe" unicode="&#x153;" horiz-adv-x="968" 
d="M685 405q-35 0 -58.5 -25t-28.5 -68h170q-4 43 -26 68t-57 25zM415 260q0 49 -29.5 81t-74.5 32t-74.5 -32.5t-29.5 -81.5t29.5 -81t74.5 -32t74.5 32.5t29.5 81.5zM707 -10q-129 0 -204 81q-79 -85 -207 -85q-117 0 -193 79q-76 77 -76 194q0 115 79 194q78 78 198 78
q126 0 200 -83q73 84 192 84q113 0 178 -73.5t65 -199.5q0 -19 -3 -43h-339q26 -87 143 -87q90 0 188 43l3 -2l-45 -143q-84 -37 -179 -37z" />
    <glyph glyph-name="Racute" unicode="&#x154;" horiz-adv-x="690" 
d="M322 543h-58v-169h56q47 0 74.5 23.5t27.5 63.5q0 38 -26.5 60t-73.5 22zM492 273l217 -273h-238l-182 238h-22v-238h-202v700h271q139 0 212 -57.5t73 -166.5q0 -66 -33.5 -119t-95.5 -84zM580 927l-209 -166h-104l84 168h229v-2z" />
    <glyph glyph-name="racute" unicode="&#x155;" horiz-adv-x="465" 
d="M405 328q-76 0 -160 -44v-284h-189v505l183 19v-138q49 76 86.5 108t79.5 32q15 0 32 -4l11 -197q-12 3 -43 3zM504 784l-213 -192h-91l87 194h217v-2z" />
    <glyph glyph-name="uni0156" unicode="&#x156;" horiz-adv-x="690" 
d="M322 543h-58v-169h56q47 0 74.5 23.5t27.5 63.5q0 38 -26.5 60t-73.5 22zM492 273l217 -273h-238l-182 238h-22v-238h-202v700h271q139 0 212 -57.5t73 -166.5q0 -66 -33.5 -119t-95.5 -84zM487 -142q0 -72 -172 -131l-86 34v4q40 21 57.5 36t17.5 30q0 29 -79 57v5
l185 50q41 -18 59 -38t18 -47z" />
    <glyph glyph-name="uni0157" unicode="&#x157;" horiz-adv-x="465" 
d="M405 328q-76 0 -160 -44v-284h-189v505l183 19v-138q49 76 86.5 108t79.5 32q15 0 32 -4l11 -197q-12 3 -43 3zM279 -142q0 -72 -172 -131l-86 34v4q40 21 57.5 36t17.5 30q0 29 -79 57v5l185 50q41 -18 59 -38t18 -47z" />
    <glyph glyph-name="Rcaron" unicode="&#x158;" horiz-adv-x="690" 
d="M322 543h-58v-169h56q47 0 74.5 23.5t27.5 63.5q0 38 -26.5 60t-73.5 22zM492 273l217 -273h-238l-182 238h-22v-238h-202v700h271q139 0 212 -57.5t73 -166.5q0 -66 -33.5 -119t-95.5 -84zM544 928v-2l-134 -166h-172l-134 166v2h108l112 -66l113 66h107z" />
    <glyph glyph-name="rcaron" unicode="&#x159;" horiz-adv-x="465" 
d="M405 328q-76 0 -160 -44v-284h-189v505l183 19v-138q49 76 86.5 108t79.5 32q15 0 32 -4l11 -197q-12 3 -43 3zM465 786v-2l-134 -192h-158l-134 192v2h98l115 -79l116 79h97z" />
    <glyph glyph-name="Sacute" unicode="&#x15a;" horiz-adv-x="583" 
d="M246 273q-113 38 -160.5 89.5t-47.5 130.5q0 99 72 159q71 60 191 60q122 0 213 -50v-180h-2q-49 30 -108.5 49t-103.5 19q-64 0 -64 -43q0 -21 21 -35.5t84 -37.5q119 -40 165 -90t46 -133q0 -103 -73 -163t-197 -60q-130 0 -230 65l-24 197l3 2q57 -44 129 -73t121 -29
q73 0 73 48q0 22 -21.5 37t-86.5 38zM559 932l-209 -166h-104l84 168h229v-2z" />
    <glyph glyph-name="sacute" unicode="&#x15b;" horiz-adv-x="512" 
d="M301 328q103 -28 145 -67q40 -39 40 -104q0 -76 -63.5 -122t-168.5 -46q-107 0 -206 53l-21 153l4 2q123 -78 230 -78q52 0 52 28q0 15 -19.5 25t-77.5 26q-100 27 -141 65.5t-41 100.5q0 75 61.5 120t165.5 45q103 0 190 -44v-146l-3 -1q-102 62 -189 62q-52 0 -52 -26
q0 -14 16 -21q15 -8 78 -25zM514 786l-213 -192h-91l87 194h217v-2z" />
    <glyph glyph-name="Scircumflex" unicode="&#x15c;" horiz-adv-x="583" 
d="M246 273q-113 38 -160.5 89.5t-47.5 130.5q0 99 72 159q71 60 191 60q122 0 213 -50v-180h-2q-49 30 -108.5 49t-103.5 19q-64 0 -64 -43q0 -21 21 -35.5t84 -37.5q119 -40 165 -90t46 -133q0 -103 -73 -163t-197 -60q-130 0 -230 65l-24 197l3 2q57 -44 129 -73t121 -29
q73 0 73 48q0 22 -21.5 37t-86.5 38zM523 768v-2h-108l-112 66l-113 -66h-107v2l134 166h172z" />
    <glyph glyph-name="scircumflex" unicode="&#x15d;" horiz-adv-x="512" 
d="M301 328q103 -28 145 -67q40 -39 40 -104q0 -76 -63.5 -122t-168.5 -46q-107 0 -206 53l-21 153l4 2q123 -78 230 -78q52 0 52 28q0 15 -19.5 25t-77.5 26q-100 27 -141 65.5t-41 100.5q0 75 61.5 120t165.5 45q103 0 190 -44v-146l-3 -1q-102 62 -189 62q-52 0 -52 -26
q0 -14 16 -21q15 -8 78 -25zM475 596v-2h-98l-115 79l-116 -79h-97v2l134 192h158z" />
    <glyph glyph-name="uni015E" unicode="&#x15e;" horiz-adv-x="583" 
d="M427 -132q0 -43 -47 -70.5t-124 -27.5q-56 0 -104 13l-26 67l4 3q59 -15 105 -15q58 0 58 30q0 27 -61 27q-33 0 -57 -3l-4 4l67 94q-109 11 -186 63l-24 197l3 2q57 -44 129 -73t121 -29q73 0 73 48q0 22 -21.5 37t-86.5 38q-113 38 -160.5 89.5t-47.5 130.5
q0 99 72 159q71 60 191 60q122 0 213 -50v-180h-2q-49 30 -108.5 49t-103.5 19q-64 0 -64 -43q0 -21 21 -35.5t84 -37.5q119 -40 165 -90t46 -133q0 -91 -57 -149t-158 -71l-33 -42q123 -7 123 -81z" />
    <glyph glyph-name="uni015F" unicode="&#x15f;" horiz-adv-x="512" 
d="M392 -129q0 -43 -47 -70.5t-124 -27.5q-56 0 -104 13l-26 67l4 3q59 -15 105 -15q58 0 58 30q0 27 -61 27q-33 0 -57 -3l-4 4l66 93q-86 11 -154 50l-21 153l4 2q123 -78 230 -78q52 0 52 28q0 15 -19.5 25t-77.5 26q-100 27 -141 65.5t-41 100.5q0 75 61.5 120t165.5 45
q103 0 190 -44v-146l-3 -1q-102 62 -189 62q-52 0 -52 -26q0 -14 16 -21q15 -8 78 -25q103 -28 145 -67q40 -39 40 -104q0 -66 -50 -111t-136 -55l-31 -39q123 -7 123 -81z" />
    <glyph glyph-name="Scaron" unicode="&#x160;" horiz-adv-x="583" 
d="M246 273q-113 38 -160.5 89.5t-47.5 130.5q0 99 72 159q71 60 191 60q122 0 213 -50v-180h-2q-49 30 -108.5 49t-103.5 19q-64 0 -64 -43q0 -21 21 -35.5t84 -37.5q119 -40 165 -90t46 -133q0 -103 -73 -163t-197 -60q-130 0 -230 65l-24 197l3 2q57 -44 129 -73t121 -29
q73 0 73 48q0 22 -21.5 37t-86.5 38zM523 933v-2l-134 -166h-172l-134 166v2h108l112 -66l113 66h107z" />
    <glyph glyph-name="scaron" unicode="&#x161;" horiz-adv-x="512" 
d="M301 328q103 -28 145 -67q40 -39 40 -104q0 -76 -63.5 -122t-168.5 -46q-107 0 -206 53l-21 153l4 2q123 -78 230 -78q52 0 52 28q0 15 -19.5 25t-77.5 26q-100 27 -141 65.5t-41 100.5q0 75 61.5 120t165.5 45q103 0 190 -44v-146l-3 -1q-102 62 -189 62q-52 0 -52 -26
q0 -14 16 -21q15 -8 78 -25zM475 788v-2l-134 -192h-158l-134 192v2h98l115 -79l116 79h97z" />
    <glyph glyph-name="uni0162" unicode="&#x162;" horiz-adv-x="734" 
d="M507 -127q0 -43 -47 -70.5t-124 -27.5q-56 0 -104 13l-26 67l4 3q59 -15 105 -15q58 0 58 30q0 27 -61 27q-33 0 -57 -3l-4 4l70 99h-55v519h-235v181h672v-181h-235v-519h-48l-36 -46q123 -7 123 -81z" />
    <glyph glyph-name="uni0163" unicode="&#x163;" horiz-adv-x="484" 
d="M406 -127q0 -43 -47 -70.5t-124 -27.5q-56 0 -104 13l-26 67l4 3q59 -15 105 -15q58 0 58 30q0 27 -61 27q-33 0 -57 -3l-4 4l68 95q-123 31 -123 203v176h-73v143h73v108l187 38v-146h167v-143h-167v-157q0 -72 74 -72q42 0 94 35l3 -2l-26 -154q-49 -29 -116 -35
l-28 -36q123 -7 123 -81z" />
    <glyph glyph-name="Tcaron" unicode="&#x164;" horiz-adv-x="734" 
d="M31 700h672v-181h-235v-519h-202v519h-235v181zM587 928v-2l-134 -166h-172l-134 166v2h108l112 -66l113 66h107z" />
    <glyph glyph-name="tcaron" unicode="&#x165;" horiz-adv-x="484" 
d="M450 181l3 -2l-26 -154q-60 -36 -145 -36q-187 0 -187 210v176h-73v143h73v108l187 38v-146h167v-143h-167v-157q0 -72 74 -72q42 0 94 35zM390 563h-70q19 44 19 97q0 51 -19 97h136q5 -25 5 -41q0 -78 -71 -153z" />
    <glyph glyph-name="Tbar" unicode="&#x166;" horiz-adv-x="734" 
d="M468 366h140v-132h-140v-234h-202v234h-140v132h140v153h-235v181h672v-181h-235v-153z" />
    <glyph glyph-name="tbar" unicode="&#x167;" horiz-adv-x="484" 
d="M450 165l3 -2l-26 -138q-60 -36 -145 -36q-187 0 -187 210v27h-66v90h66v69h-73v133h73v108l187 38v-146h167v-133h-167v-69h130v-90h-130v-20q0 -34 20.5 -52.5t55.5 -18.5q46 0 92 30z" />
    <glyph glyph-name="Utilde" unicode="&#x168;" horiz-adv-x="785" 
d="M392 -11q-161 0 -247 86t-86 247v378h202v-382q0 -71 35 -110t98 -39q64 0 98.5 39t34.5 111v381h199v-378q0 -161 -86.5 -247t-247.5 -86zM416 906q48 -23 65 -23t30 9q10 7 50 45l67 -54q-56 -77 -87 -102q-32 -26 -71 -26q-28 0 -87 29q-50 23 -67 23q-16 0 -29 -9
q-15 -10 -50 -45l-67 53q55 75 87 103q32 26 70 26q27 0 89 -29z" />
    <glyph glyph-name="utilde" unicode="&#x169;" horiz-adv-x="638" 
d="M582 518v-518h-183v92q-41 -55 -83.5 -79.5t-96.5 -24.5q-79 0 -124.5 52.5t-45.5 144.5v333h190v-286q0 -79 70 -79q39 0 83 26v339h190zM324 747q51 -28 68 -28q12 0 24 9q14 12 49 54l75 -49q-48 -85 -78 -117q-31 -31 -70 -31q-24 0 -84 33q-52 27 -68 27
q-12 0 -23 -8q-13 -10 -50 -54l-75 48q50 89 79 118q30 31 69 31q24 0 84 -33z" />
    <glyph glyph-name="Umacron" unicode="&#x16a;" horiz-adv-x="785" 
d="M392 -11q-161 0 -247 86t-86 247v378h202v-382q0 -71 35 -110t98 -39q64 0 98.5 39t34.5 111v381h199v-378q0 -161 -86.5 -247t-247.5 -86zM605 780h-426v119h426v-119z" />
    <glyph glyph-name="umacron" unicode="&#x16b;" horiz-adv-x="638" 
d="M582 518v-518h-183v92q-41 -55 -83.5 -79.5t-96.5 -24.5q-79 0 -124.5 52.5t-45.5 144.5v333h190v-286q0 -79 70 -79q39 0 83 26v339h190zM517 610h-402v113h402v-113z" />
    <glyph glyph-name="Ubreve" unicode="&#x16c;" horiz-adv-x="785" 
d="M392 -11q-161 0 -247 86t-86 247v378h202v-382q0 -71 35 -110t98 -39q64 0 98.5 39t34.5 111v381h199v-378q0 -161 -86.5 -247t-247.5 -86zM392 754q-140 0 -223 129l64 61q81 -66 159 -66q42 0 77.5 14.5t81.5 51.5l64 -60q-84 -130 -223 -130z" />
    <glyph glyph-name="ubreve" unicode="&#x16d;" horiz-adv-x="638" 
d="M582 518v-518h-183v92q-41 -55 -83.5 -79.5t-96.5 -24.5q-79 0 -124.5 52.5t-45.5 144.5v333h190v-286q0 -79 70 -79q39 0 83 26v339h190zM316 583q-63 0 -113.5 34t-98.5 109l70 62q67 -78 142 -78q74 0 142 78l70 -61q-49 -76 -99.5 -110t-112.5 -34z" />
    <glyph glyph-name="Uring" unicode="&#x16e;" horiz-adv-x="785" 
d="M392 -11q-161 0 -247 86t-86 247v378h202v-382q0 -71 35 -110t98 -39q64 0 98.5 39t34.5 111v381h199v-378q0 -161 -86.5 -247t-247.5 -86zM392 754q-61 0 -102 38q-42 37 -42 94q0 55 42 94q43 38 102 38t102 -38q42 -39 42 -94q0 -56 -41 -94q-43 -38 -103 -38z
M392 956q-33 0 -55 -20t-22 -50t22 -50t55 -20t55 20t22 50t-22 50t-55 20z" />
    <glyph glyph-name="uring" unicode="&#x16f;" horiz-adv-x="638" 
d="M582 518v-518h-183v92q-41 -55 -83.5 -79.5t-96.5 -24.5q-79 0 -124.5 52.5t-45.5 144.5v333h190v-286q0 -79 70 -79q39 0 83 26v339h190zM316 581q-57 0 -97 40q-40 39 -40 96q0 56 40 96q41 39 97 39t97 -39q40 -40 40 -96q0 -57 -40 -96q-40 -40 -97 -40zM316 790
q-30 0 -50 -21t-20 -52t20 -52.5t50 -21.5t50 21.5t20 52.5t-20 52t-50 21z" />
    <glyph glyph-name="Uhungarumlaut" unicode="&#x170;" horiz-adv-x="785" 
d="M392 -11q-161 0 -247 86t-86 247v378h202v-382q0 -71 35 -110t98 -39q64 0 98.5 39t34.5 111v381h199v-378q0 -161 -86.5 -247t-247.5 -86zM712 927l-186 -166h-97l91 168h192v-2zM516 927l-180 -166h-97l84 168h193v-2z" />
    <glyph glyph-name="uhungarumlaut" unicode="&#x171;" horiz-adv-x="638" 
d="M582 518v-518h-183v92q-41 -55 -83.5 -79.5t-96.5 -24.5q-79 0 -124.5 52.5t-45.5 144.5v333h190v-286q0 -79 70 -79q39 0 83 26v339h190zM644 784l-197 -192h-84l87 194h194v-2zM448 784l-197 -192h-84l87 194h194v-2z" />
    <glyph glyph-name="Uogonek" unicode="&#x172;" horiz-adv-x="785" 
d="M395 -210q-64 0 -100.5 22t-36.5 60q0 22 13 42t52 55l24 22q-140 11 -214 96t-74 235v378h202v-382q0 -71 35 -110t98 -39q64 0 98.5 39t34.5 111v381h199v-378q0 -143 -69 -227.5t-200 -101.5l-27 -43q-19 -29 -19 -48q0 -41 91 -41h7l-20 -61q-57 -10 -94 -10z" />
    <glyph glyph-name="uogonek" unicode="&#x173;" horiz-adv-x="638" 
d="M586 -134h7l-20 -61q-57 -10 -94 -10q-64 0 -100.5 22t-36.5 60q0 22 13 42t52 55l29 26h-37v92q-41 -55 -83.5 -79.5t-96.5 -24.5q-79 0 -124.5 52.5t-45.5 144.5v333h190v-286q0 -79 70 -79q39 0 83 26v339h190v-518h-40l-28 -45q-19 -29 -19 -48q0 -41 91 -41z" />
    <glyph glyph-name="Wcircumflex" unicode="&#x174;" horiz-adv-x="1140" 
d="M569 302l-145 -307h-189l-211 705h216l116 -432l210 441h15l207 -441l119 432h210l-216 -705h-188zM798 763v-2h-108l-112 66l-113 -66h-107v2l134 166h172z" />
    <glyph glyph-name="wcircumflex" unicode="&#x175;" horiz-adv-x="891" 
d="M444 205l-108 -211h-157l-169 524h198l80 -283l154 290h13l150 -288l83 281h194l-175 -524h-157zM665 594v-2h-98l-115 79l-116 -79h-97v2l134 192h158z" />
    <glyph glyph-name="Ycircumflex" unicode="&#x176;" horiz-adv-x="729" 
d="M729 700l-263 -428v-272h-202v272l-264 428h233l137 -245l137 245h222zM585 763v-2h-108l-112 66l-113 -66h-107v2l134 166h172z" />
    <glyph glyph-name="ycircumflex" unicode="&#x177;" horiz-adv-x="619" 
d="M160 -190q-48 0 -90 15l-36 168l2 2q42 -20 84 -20q65 0 100 45l-213 498h204l107 -289l95 289h200l-186 -487q-43 -114 -108 -167.5t-159 -53.5zM529 594v-2h-98l-115 79l-116 -79h-97v2l134 192h158z" />
    <glyph glyph-name="Ydieresis" unicode="&#x178;" horiz-adv-x="729" 
d="M729 700l-263 -428v-272h-202v272l-264 428h233l137 -245l137 245h222zM485 946q42 0 70.5 -27t28.5 -68t-28.5 -68t-70.5 -27t-70 27t-28 68t28 68t70 27zM245 946q42 0 70 -27t28 -68t-28 -68t-70 -27t-70.5 27t-28.5 68t28.5 68t70.5 27z" />
    <glyph glyph-name="Zacute" unicode="&#x179;" horiz-adv-x="725" 
d="M348 174h350l-53 -174h-624l-5 13l346 513h-310v174h638l5 -13zM619 927l-209 -166h-104l84 168h229v-2z" />
    <glyph glyph-name="zacute" unicode="&#x17a;" horiz-adv-x="563" 
d="M302 144h240l-38 -144h-484l-4 12l236 362h-201v144h483l4 -12zM546 784l-213 -192h-91l87 194h217v-2z" />
    <glyph glyph-name="Zdotaccent" unicode="&#x17b;" horiz-adv-x="725" 
d="M348 174h350l-53 -174h-624l-5 13l346 513h-310v174h638l5 -13zM363 944q42 0 70.5 -27t28.5 -68t-28.5 -68t-70.5 -27t-70.5 27t-28.5 68t28.5 68t70.5 27z" />
    <glyph glyph-name="zdotaccent" unicode="&#x17c;" horiz-adv-x="563" 
d="M302 144h240l-38 -144h-484l-4 12l236 362h-201v144h483l4 -12zM294 583q-41 0 -68.5 26.5t-27.5 65.5q0 40 27.5 66t68.5 26t68.5 -26t27.5 -66q0 -39 -27.5 -65.5t-68.5 -26.5z" />
    <glyph glyph-name="Zcaron" unicode="&#x17d;" horiz-adv-x="725" 
d="M348 174h350l-53 -174h-624l-5 13l346 513h-310v174h638l5 -13zM583 928v-2l-134 -166h-172l-134 166v2h108l112 -66l113 66h107z" />
    <glyph glyph-name="zcaron" unicode="&#x17e;" horiz-adv-x="563" 
d="M302 144h240l-38 -144h-484l-4 12l236 362h-201v144h483l4 -12zM507 786v-2l-134 -192h-158l-134 192v2h98l115 -79l116 79h97z" />
    <glyph glyph-name="uni018F" unicode="&#x18f;" horiz-adv-x="770" 
d="M735 351q0 -160 -101 -263q-100 -102 -261 -102q-154 0 -246 101q-93 101 -93 268v55h491q-24 128 -186 128q-124 0 -261 -71l-3 1l39 187q117 55 252 55q170 0 270 -96q99 -96 99 -263zM376 149q60 0 100.5 36.5t50.5 98.5h-295q8 -63 46 -99t98 -36z" />
    <glyph glyph-name="Ohorn" unicode="&#x1a0;" horiz-adv-x="824" 
d="M789 346q0 -152 -108 -256q-109 -104 -270 -104q-162 0 -269 104t-107 258q0 153 108 257q107 103 272 103q35 0 86 -5q32 -3 59 -3q102 0 102 89q0 6 -0.5 13.5t-1 14t-0.5 12v9.5l-1 3h132q11 -38 11 -77q0 -124 -128 -160q115 -98 115 -258zM410 531q-73 0 -121 -52
q-48 -53 -48 -129q0 -78 49 -130q48 -52 122 -52q73 0 122 52t49 129q0 78 -49 130t-124 52z" />
    <glyph glyph-name="ohorn" unicode="&#x1a1;" horiz-adv-x="622" 
d="M596 250q0 -111 -81 -187q-82 -77 -204 -77q-125 0 -204 78q-80 77 -80 192t82 193q82 77 208 77q5 0 11 -0.5t16.5 -1t21.5 -0.5q28 -3 52 -3q40 0 58 15t18 49q0 4 -0.5 17t-1.5 31h112q9 -31 9 -62q0 -102 -100 -131q83 -74 83 -190zM415 258q0 49 -29.5 80t-74.5 31
t-74.5 -31.5t-29.5 -80.5t29.5 -80t74.5 -31t74.5 31.5t29.5 80.5z" />
    <glyph glyph-name="Uhorn" unicode="&#x1af;" horiz-adv-x="828" 
d="M392 -11q-161 0 -247 86t-86 247v378h202v-382q0 -71 35 -110t98 -39q64 0 98.5 39t34.5 111v381h84q101 0 101 89q0 7 -0.5 13.5t-1 17.5t-0.5 21h131q11 -31 11 -77q0 -123 -126 -160v-282q0 -161 -86.5 -247t-247.5 -86z" />
    <glyph glyph-name="uhorn" unicode="&#x1b0;" horiz-adv-x="661" 
d="M582 437v-437h-183v92q-41 -55 -83.5 -79.5t-96.5 -24.5q-79 0 -124.5 52.5t-45.5 144.5v333h190v-286q0 -79 70 -79q39 0 83 26v339h94q42 0 61 15t19 48l-2 26q0 5 -0.5 10t-0.5 6h114q8 -27 8 -58q0 -99 -103 -128z" />
    <glyph glyph-name="uni01CD" unicode="&#x1cd;" horiz-adv-x="828" 
d="M411 504l-90 -227h180zM528 701l290 -701h-215l-47 120h-291l-47 -120h-209l295 701h224zM635 928v-2l-134 -166h-172l-134 166v2h108l112 -66l113 66h107z" />
    <glyph glyph-name="uni01CE" unicode="&#x1ce;" horiz-adv-x="582" 
d="M196 152q0 -42 55 -42q39 0 99 25v86q-154 -12 -154 -69zM537 288v-275l-180 -19v70q-90 -73 -178 -73q-68 0 -109 38t-41 101q0 166 320 168q-7 83 -98 83q-81 0 -172 -60l-4 3l25 158q88 46 194 46q243 0 243 -240zM520 786v-2l-134 -192h-158l-134 192v2h98l115 -79
l116 79h97z" />
    <glyph glyph-name="uni01CF" unicode="&#x1cf;" horiz-adv-x="339" 
d="M270 700v-700h-202v700h202zM389 928v-2l-134 -166h-172l-134 166v2h108l112 -66l113 66h107z" />
    <glyph glyph-name="uni01D0" unicode="&#x1d0;" horiz-adv-x="308" 
d="M248 518v-518h-189v518h189zM367 786v-2l-134 -192h-158l-134 192v2h98l115 -79l116 79h97z" />
    <glyph glyph-name="uni01D1" unicode="&#x1d1;" horiz-adv-x="824" 
d="M411 -14q-162 0 -269 104t-107 259t108 260t270 105q160 0 269 -104q107 -105 107 -259q0 -157 -108 -260q-108 -105 -270 -105zM410 532q-73 0 -121 -52t-48 -129q0 -78 49 -130q48 -53 122 -53q73 0 122 52t49 129q0 79 -49 131t-124 52zM632 933v-2l-134 -166h-172
l-134 166v2h108l112 -66l113 66h107z" />
    <glyph glyph-name="uni01D2" unicode="&#x1d2;" horiz-adv-x="622" 
d="M311 -14q-125 0 -204 79q-80 80 -80 194q0 115 81 194q79 79 203 79t205 -78q80 -80 80 -194t-81 -194q-82 -80 -204 -80zM415 260q0 49 -29.5 81t-74.5 32t-74.5 -32.5t-29.5 -81.5t29.5 -81t74.5 -32t74.5 32.5t29.5 81.5zM524 791v-2l-134 -192h-158l-134 192v2h98
l115 -79l116 79h97z" />
    <glyph glyph-name="uni01D3" unicode="&#x1d3;" horiz-adv-x="785" 
d="M392 -11q-161 0 -247 86t-86 247v378h202v-382q0 -71 35 -110t98 -39q64 0 98.5 39t34.5 111v381h199v-378q0 -161 -86.5 -247t-247.5 -86zM612 928v-2l-134 -166h-172l-134 166v2h108l112 -66l113 66h107z" />
    <glyph glyph-name="uni01D4" unicode="&#x1d4;" horiz-adv-x="638" 
d="M582 518v-518h-183v92q-41 -55 -83.5 -79.5t-96.5 -24.5q-79 0 -124.5 52.5t-45.5 144.5v333h190v-286q0 -79 70 -79q39 0 83 26v339h190zM529 786v-2l-134 -192h-158l-134 192v2h98l115 -79l116 79h97z" />
    <glyph glyph-name="uni01D5" unicode="&#x1d5;" horiz-adv-x="785" 
d="M392 -11q-161 0 -247 86t-86 247v378h202v-382q0 -71 35 -110t98 -39q64 0 98.5 39t34.5 111v381h199v-378q0 -161 -86.5 -247t-247.5 -86zM593 981h-402v104h402v-104zM513 939q42 0 70.5 -26.5t28.5 -65.5t-28.5 -65t-70.5 -26t-70.5 26t-28.5 65t28.5 65.5t70.5 26.5z
M271 939q42 0 70.5 -26.5t28.5 -65.5t-28.5 -65t-70.5 -26t-70.5 26t-28.5 65t28.5 65.5t70.5 26.5z" />
    <glyph glyph-name="uni01D6" unicode="&#x1d6;" horiz-adv-x="638" 
d="M582 518v-518h-183v92q-41 -55 -83.5 -79.5t-96.5 -24.5q-79 0 -124.5 52.5t-45.5 144.5v333h190v-286q0 -79 70 -79q39 0 83 26v339h190zM517 910v-98h-402v98h402zM436 586q-41 0 -69 26t-28 64t28 64t69 26q40 0 68.5 -26t28.5 -64t-28.5 -64t-68.5 -26zM196 586
q-40 0 -68.5 26t-28.5 64t28.5 64t68.5 26q41 0 69 -26t28 -64t-28 -64t-69 -26z" />
    <glyph glyph-name="uni01D7" unicode="&#x1d7;" horiz-adv-x="785" 
d="M392 -11q-161 0 -247 86t-86 247v378h202v-382q0 -71 35 -110t98 -39q64 0 98.5 39t34.5 111v381h199v-378q0 -161 -86.5 -247t-247.5 -86zM611 1111l-175 -147h-100l60 149h215v-2zM513 939q42 0 70.5 -26.5t28.5 -65.5t-28.5 -65t-70.5 -26t-70.5 26t-28.5 65
t28.5 65.5t70.5 26.5zM271 939q42 0 70.5 -26.5t28.5 -65.5t-28.5 -65t-70.5 -26t-70.5 26t-28.5 65t28.5 65.5t70.5 26.5z" />
    <glyph glyph-name="uni01D8" unicode="&#x1d8;" horiz-adv-x="638" 
d="M582 518v-518h-183v92q-41 -55 -83.5 -79.5t-96.5 -24.5q-79 0 -124.5 52.5t-45.5 144.5v333h190v-286q0 -79 70 -79q39 0 83 26v339h190zM518 940l-163 -147h-82l57 149h188v-2zM436 586q-41 0 -69 26t-28 64t28 64t69 26q40 0 68.5 -26t28.5 -64t-28.5 -64t-68.5 -26z
M196 586q-40 0 -68.5 26t-28.5 64t28.5 64t68.5 26q41 0 69 -26t28 -64t-28 -64t-69 -26z" />
    <glyph glyph-name="uni01D9" unicode="&#x1d9;" horiz-adv-x="785" 
d="M392 -11q-161 0 -247 86t-86 247v378h202v-382q0 -71 35 -110t98 -39q64 0 98.5 39t34.5 111v381h199v-378q0 -161 -86.5 -247t-247.5 -86zM609 1113v-2l-145 -147h-144l-145 147v2h110l107 -54l107 54h110zM513 939q42 0 70.5 -26.5t28.5 -65.5t-28.5 -65t-70.5 -26
t-70.5 26t-28.5 65t28.5 65.5t70.5 26.5zM271 939q42 0 70.5 -26.5t28.5 -65.5t-28.5 -65t-70.5 -26t-70.5 26t-28.5 65t28.5 65.5t70.5 26.5z" />
    <glyph glyph-name="uni01DA" unicode="&#x1da;" horiz-adv-x="638" 
d="M582 518v-518h-183v92q-41 -55 -83.5 -79.5t-96.5 -24.5q-79 0 -124.5 52.5t-45.5 144.5v333h190v-286q0 -79 70 -79q39 0 83 26v339h190zM520 948v-2l-134 -151h-140l-134 151v2h102l101 -57l101 57h104zM436 586q-41 0 -69 26t-28 64t28 64t69 26q40 0 68.5 -26
t28.5 -64t-28.5 -64t-68.5 -26zM196 586q-40 0 -68.5 26t-28.5 64t28.5 64t68.5 26q41 0 69 -26t28 -64t-28 -64t-69 -26z" />
    <glyph glyph-name="uni01DB" unicode="&#x1db;" horiz-adv-x="785" 
d="M392 -11q-161 0 -247 86t-86 247v378h202v-382q0 -71 35 -110t98 -39q64 0 98.5 39t34.5 111v381h199v-378q0 -161 -86.5 -247t-247.5 -86zM173 1113h215l60 -149h-100l-175 147v2zM271 756q-42 0 -70.5 26t-28.5 65t28.5 65.5t70.5 26.5t70.5 -26.5t28.5 -65.5
t-28.5 -65t-70.5 -26zM513 756q-42 0 -70.5 26t-28.5 65t28.5 65.5t70.5 26.5t70.5 -26.5t28.5 -65.5t-28.5 -65t-70.5 -26z" />
    <glyph glyph-name="uni01DC" unicode="&#x1dc;" horiz-adv-x="638" 
d="M582 518v-518h-183v92q-41 -55 -83.5 -79.5t-96.5 -24.5q-79 0 -124.5 52.5t-45.5 144.5v333h190v-286q0 -79 70 -79q39 0 83 26v339h190zM114 942h188l57 -149h-82l-163 147v2zM436 586q-41 0 -69 26t-28 64t28 64t69 26q40 0 68.5 -26t28.5 -64t-28.5 -64t-68.5 -26z
M196 586q-40 0 -68.5 26t-28.5 64t28.5 64t68.5 26q41 0 69 -26t28 -64t-28 -64t-69 -26z" />
    <glyph glyph-name="Gcaron" unicode="&#x1e6;" horiz-adv-x="762" 
d="M388 395h312v-334q-150 -71 -293 -71q-167 0 -269 96q-103 96 -103 256q0 168 112 268q112 101 294 101q129 0 242 -51v-190q-124 60 -230 60q-93 0 -151 -51q-59 -51 -59 -134q0 -86 53.5 -135t146.5 -49q39 0 76 8v96h-131v130zM632 933v-2l-134 -166h-172l-134 166v2
h108l112 -66l113 66h107z" />
    <glyph glyph-name="gcaron" unicode="&#x1e7;" horiz-adv-x="645" 
d="M209 272q0 -45 28 -71t74 -26q43 0 92 25v160q-38 15 -82 15q-50 0 -81 -28.5t-31 -74.5zM287 -193q-112 0 -206 45l-28 159l4 3q65 -33 110.5 -45.5t96.5 -12.5q68 0 103.5 30.5t35.5 88.5v26q-69 -62 -157 -62q-94 0 -156 65t-62 165q0 115 78 185q77 70 202 70
q74 0 158 -27l110 24h13v-428q0 -133 -81 -210q-80 -76 -221 -76zM542 786v-2l-134 -192h-158l-134 192v2h98l115 -79l116 79h97z" />
    <glyph glyph-name="uni01EA" unicode="&#x1ea;" horiz-adv-x="824" 
d="M415 -210q-64 0 -100.5 22t-36.5 60q0 22 13 42t52 55l22 19q-145 15 -237 117q-93 101 -93 244q0 155 108 260t270 105q160 0 269 -104q107 -105 107 -259q0 -137 -87 -238q-89 -101 -227 -122l-25 -41q-19 -29 -19 -48q0 -41 91 -41h7l-20 -61q-57 -10 -94 -10z
M410 532q-73 0 -121 -52t-48 -129q0 -78 49 -130q48 -53 122 -53q73 0 122 52t49 129q0 79 -49 131t-124 52z" />
    <glyph glyph-name="uni01EB" unicode="&#x1eb;" horiz-adv-x="622" 
d="M314 -210q-64 0 -100.5 22t-36.5 60q0 22 13 42t52 55l22 20q-107 15 -171 91q-66 76 -66 179q0 115 81 194q79 79 203 79t205 -78q80 -80 80 -194q0 -99 -61 -173q-62 -76 -160 -95l-26 -42q-19 -29 -19 -48q0 -41 91 -41h7l-20 -61q-57 -10 -94 -10zM415 260
q0 49 -29.5 81t-74.5 32t-74.5 -32.5t-29.5 -81.5t29.5 -81t74.5 -32t74.5 32.5t29.5 81.5z" />
    <glyph glyph-name="uni01F0" unicode="&#x1f0;" horiz-adv-x="308" 
d="M60 19v499h190v-488q0 -107 -55.5 -163.5t-158.5 -56.5q-38 0 -68 7l-31 127q19 -6 41 -6q82 0 82 81zM367 786v-2l-134 -192h-158l-134 192v2h98l115 -79l116 79h97z" />
    <glyph glyph-name="uni01F8" unicode="&#x1f8;" horiz-adv-x="822" 
d="M757 700v-702h-150l-344 393l3 -391h-201v700h198l295 -338l-2 338h201zM155 929h229l84 -168h-104l-209 166v2z" />
    <glyph glyph-name="uni01F9" unicode="&#x1f9;" horiz-adv-x="638" 
d="M329 366q-39 0 -84 -28v-338h-189v505l183 19v-98q41 55 83.5 79.5t96.5 24.5q79 0 124 -52t45 -145v-333h-189v286q0 80 -70 80zM71 786h217l87 -194h-91l-213 192v2z" />
    <glyph glyph-name="Aringacute" unicode="&#x1fa;" horiz-adv-x="828" 
d="M492 740q0 31 -22 52.5t-55 21.5t-55 -21.5t-22 -52.5t22.5 -52t54.5 -21t54.5 21t22.5 52zM412 506l-91 -229h180zM540 672l278 -672h-215l-47 120h-291l-47 -120h-209l282 672q-20 31 -20 68q0 56 42 97q42 39 102 39q61 0 103 -39q41 -41 41 -97q0 -35 -19 -68z
M667 1079l-209 -166h-104l84 168h229v-2z" />
    <glyph glyph-name="aringacute" unicode="&#x1fb;" horiz-adv-x="582" 
d="M196 152q0 -42 55 -42q39 0 99 25v86q-154 -12 -154 -69zM537 288v-275l-180 -19v70q-90 -73 -178 -73q-68 0 -109 38t-41 101q0 166 320 168q-7 83 -98 83q-81 0 -172 -60l-4 3l25 158q88 46 194 46q243 0 243 -240zM490 1018l-148 -129h-69l69 131h148v-2zM307 581
q-57 0 -97 40q-40 39 -40 96q0 56 40 96q40 39 97 39t97 -39q40 -40 40 -96q0 -57 -40 -96q-40 -40 -97 -40zM307 790q-30 0 -50 -21t-20 -52t20 -52.5t50 -21.5t50 21.5t20 52.5t-20 52t-50 21z" />
    <glyph glyph-name="AEacute" unicode="&#x1fc;" horiz-adv-x="1060" 
d="M517 544l-153 -267h153v267zM1023 169l-27 -169h-479v120h-244l-70 -120h-206l404 700h592l27 -169h-304v-107h251v-145h-251v-110h307zM878 927l-209 -166h-104l84 168h229v-2z" />
    <glyph glyph-name="aeacute" unicode="&#x1fd;" horiz-adv-x="900" 
d="M618 405q-35 0 -59 -25t-29 -68h170q-4 44 -25.5 68.5t-56.5 24.5zM196 152q0 -42 55 -42q51 0 121 41q-13 39 -17 70q-159 -10 -159 -69zM860 172l3 -2l-45 -143q-86 -37 -185 -37q-137 0 -216 87q-121 -86 -235 -86q-70 0 -111.5 37.5t-41.5 101.5q0 167 320 168
q-7 83 -98 83q-81 0 -172 -60l-4 3l25 158q88 46 190 46q105 0 165 -57q69 61 169 61q116 0 182 -74t66 -199q0 -4 -1.5 -20t-1.5 -23h-345q30 -87 148 -87q90 0 188 43zM711 784l-213 -192h-91l87 194h217v-2z" />
    <glyph glyph-name="Oslashacute" unicode="&#x1fe;" horiz-adv-x="824" 
d="M414 539q-78 0 -129 -54q-51 -55 -51 -138q0 -55 24 -99l221 280q-33 11 -65 11zM410 161q78 0 129 55q51 54 51 137q0 55 -24 99l-221 -280q31 -11 65 -11zM789 351q0 -157 -108 -260q-108 -105 -270 -105q-100 0 -185 44l-60 -73h-151l116 144q-96 102 -96 248
q0 155 108 260t270 105q101 0 184 -44l61 73h151l-117 -145q97 -103 97 -247zM668 932l-209 -166h-104l84 168h229v-2z" />
    <glyph glyph-name="oslashacute" unicode="&#x1ff;" horiz-adv-x="622" 
d="M314 378q-51 0 -83 -34t-32 -88q0 -32 14 -58l137 174q-16 6 -36 6zM308 140q51 0 83 34.5t32 88.5q0 26 -13 57l-138 -174q16 -6 36 -6zM596 260q0 -114 -81 -194q-82 -80 -204 -80q-75 0 -137 31l-42 -53h-124l90 111q-71 77 -71 184q0 115 81 194q79 79 203 79
q75 0 137 -31l42 53h125l-90 -110q71 -77 71 -184zM563 789l-213 -192h-91l87 194h217v-2z" />
    <glyph glyph-name="uni0218" unicode="&#x218;" horiz-adv-x="583" 
d="M246 273q-113 38 -160.5 89.5t-47.5 130.5q0 99 72 159q71 60 191 60q122 0 213 -50v-180h-2q-49 30 -108.5 49t-103.5 19q-64 0 -64 -43q0 -21 21 -35.5t84 -37.5q119 -40 165 -90t46 -133q0 -103 -73 -163t-197 -60q-130 0 -230 65l-24 197l3 2q57 -44 129 -73t121 -29
q73 0 73 48q0 22 -21.5 37t-86.5 38zM412 -147q0 -72 -172 -131l-86 34v4q40 21 57.5 36t17.5 30q0 29 -79 57v5l185 50q41 -18 59 -38t18 -47z" />
    <glyph glyph-name="uni0219" unicode="&#x219;" horiz-adv-x="512" 
d="M301 328q103 -28 145 -67q40 -39 40 -104q0 -76 -63.5 -122t-168.5 -46q-107 0 -206 53l-21 153l4 2q123 -78 230 -78q52 0 52 28q0 15 -19.5 25t-77.5 26q-100 27 -141 65.5t-41 100.5q0 75 61.5 120t165.5 45q103 0 190 -44v-146l-3 -1q-102 62 -189 62q-52 0 -52 -26
q0 -14 16 -21q15 -8 78 -25zM377 -144q0 -72 -172 -131l-86 34v4q40 21 57.5 36t17.5 30q0 29 -79 57v5l185 50q41 -18 59 -38t18 -47z" />
    <glyph glyph-name="uni021A" unicode="&#x21a;" horiz-adv-x="734" 
d="M31 700h672v-181h-235v-519h-202v519h-235v181zM495 -142q0 -72 -172 -131l-86 34v4q40 21 57.5 36t17.5 30q0 29 -79 57v5l185 50q41 -18 59 -38t18 -47z" />
    <glyph glyph-name="uni021B" unicode="&#x21b;" horiz-adv-x="484" 
d="M450 181l3 -2l-26 -154q-60 -36 -145 -36q-187 0 -187 210v176h-73v143h73v108l187 38v-146h167v-143h-167v-157q0 -72 74 -72q42 0 94 35zM391 -142q0 -72 -172 -131l-86 34v4q40 21 57.5 36t17.5 30q0 29 -79 57v5l185 50q41 -18 59 -38t18 -47z" />
    <glyph glyph-name="uni0226" unicode="&#x226;" horiz-adv-x="828" 
d="M411 504l-90 -227h180zM528 701l290 -701h-215l-47 120h-291l-47 -120h-209l295 701h224zM415 944q42 0 70.5 -27t28.5 -68t-28.5 -68t-70.5 -27t-70.5 27t-28.5 68t28.5 68t70.5 27z" />
    <glyph glyph-name="uni0227" unicode="&#x227;" horiz-adv-x="582" 
d="M196 152q0 -42 55 -42q39 0 99 25v86q-154 -12 -154 -69zM537 288v-275l-180 -19v70q-90 -73 -178 -73q-68 0 -109 38t-41 101q0 166 320 168q-7 83 -98 83q-81 0 -172 -60l-4 3l25 158q88 46 194 46q243 0 243 -240zM307 583q-41 0 -68.5 26.5t-27.5 65.5q0 40 27.5 66
t68.5 26t68.5 -26t27.5 -66q0 -39 -27.5 -65.5t-68.5 -26.5z" />
    <glyph glyph-name="uni022E" unicode="&#x22e;" horiz-adv-x="824" 
d="M411 -14q-162 0 -269 104t-107 259t108 260t270 105q160 0 269 -104q107 -105 107 -259q0 -157 -108 -260q-108 -105 -270 -105zM410 532q-73 0 -121 -52t-48 -129q0 -78 49 -130q48 -53 122 -53q73 0 122 52t49 129q0 79 -49 131t-124 52zM412 949q42 0 70.5 -27
t28.5 -68t-28.5 -68t-70.5 -27t-70.5 27t-28.5 68t28.5 68t70.5 27z" />
    <glyph glyph-name="uni022F" unicode="&#x22f;" horiz-adv-x="622" 
d="M311 -14q-125 0 -204 79q-80 80 -80 194q0 115 81 194q79 79 203 79t205 -78q80 -80 80 -194t-81 -194q-82 -80 -204 -80zM415 260q0 49 -29.5 81t-74.5 32t-74.5 -32.5t-29.5 -81.5t29.5 -81t74.5 -32t74.5 32.5t29.5 81.5zM311 588q-41 0 -68.5 26.5t-27.5 65.5
q0 40 27.5 66t68.5 26t68.5 -26t27.5 -66q0 -39 -27.5 -65.5t-68.5 -26.5z" />
    <glyph glyph-name="uni0232" unicode="&#x232;" horiz-adv-x="729" 
d="M729 700l-263 -428v-272h-202v272l-264 428h233l137 -245l137 245h222zM578 780h-426v119h426v-119z" />
    <glyph glyph-name="uni0233" unicode="&#x233;" horiz-adv-x="619" 
d="M160 -190q-48 0 -90 15l-36 168l2 2q42 -20 84 -20q65 0 100 45l-213 498h204l107 -289l95 289h200l-186 -487q-43 -114 -108 -167.5t-159 -53.5zM517 610h-402v113h402v-113z" />
    <glyph glyph-name="uni0237" unicode="&#x237;" horiz-adv-x="308" 
d="M60 19v499h190v-488q0 -107 -55.5 -163.5t-158.5 -56.5q-38 0 -68 7l-31 127q19 -6 41 -6q82 0 82 81z" />
    <glyph glyph-name="uni0259" unicode="&#x259;" horiz-adv-x="575" 
d="M549 257q0 -116 -76 -193q-77 -78 -192 -78q-117 0 -185 75q-68 74 -68 198q0 4 1.5 20t1.5 23h340q-13 42 -50.5 64.5t-92.5 22.5q-88 0 -188 -43l-3 3l45 142q86 37 185 37q128 0 205 -74t77 -197zM282 113q35 0 59 25t29 68h-171q4 -43 26 -68t57 -25z" />
    <glyph glyph-name="uni02B9" unicode="&#x2b9;" horiz-adv-x="319" 
d="M116 388l-84 21l62 291h215z" />
    <glyph glyph-name="uni02BA" unicode="&#x2ba;" horiz-adv-x="565" 
d="M368 388l-83 21l63 291h208zM115 388l-83 21l62 291h208z" />
    <glyph glyph-name="uni02BB" unicode="&#x2bb;" horiz-adv-x="281" 
d="M195 520q0 -27 11 -55q10 -27 51 -97h-198q-34 62 -34 114q0 100 180 227l56 -39q-42 -62 -54 -90q-12 -30 -12 -60z" />
    <glyph glyph-name="uni02BC" unicode="&#x2bc;" horiz-adv-x="281" 
d="M86 548q0 29 -10 56q-10 28 -51 96h197q34 -62 34 -114q0 -101 -180 -227l-56 39q41 59 54 89q12 29 12 61z" />
    <glyph glyph-name="uni02BE" unicode="&#x2be;" horiz-adv-x="211" 
d="M187 672q0 -61 -42.5 -98t-113.5 -37v68q38 0 59.5 17.5t21.5 49.5q0 31 -21 48.5t-60 18.5v68q71 0 113.5 -37t42.5 -98z" />
    <glyph glyph-name="uni02BF" unicode="&#x2bf;" horiz-adv-x="211" 
d="M24 672q0 61 42.5 98t112.5 37v-68q-38 0 -59.5 -18t-21.5 -49t21.5 -48.5t59.5 -18.5v-68q-71 0 -113 37t-42 98z" />
    <glyph glyph-name="circumflex" unicode="&#x2c6;" horiz-adv-x="500" 
d="M463 594v-2h-98l-115 79l-116 -79h-97v2l134 192h158z" />
    <glyph glyph-name="caron" unicode="&#x2c7;" horiz-adv-x="500" 
d="M463 786v-2l-134 -192h-158l-134 192v2h98l115 -79l116 79h97z" />
    <glyph glyph-name="uni02C8" unicode="&#x2c8;" horiz-adv-x="171" 
d="M123 803v-262h-75v262h75z" />
    <glyph glyph-name="uni02CC" unicode="&#x2cc;" horiz-adv-x="171" 
d="M123 76v-262h-75v262h75z" />
    <glyph glyph-name="uni02CD" unicode="&#x2cd;" horiz-adv-x="500" 
d="M451 -193h-402v113h402v-113z" />
    <glyph glyph-name="breve" unicode="&#x2d8;" horiz-adv-x="500" 
d="M250 583q-63 0 -113.5 34t-98.5 109l70 62q67 -78 142 -78q74 0 142 78l70 -61q-49 -76 -99.5 -110t-112.5 -34z" />
    <glyph glyph-name="dotaccent" unicode="&#x2d9;" horiz-adv-x="500" 
d="M250 583q-41 0 -68.5 26.5t-27.5 65.5q0 40 27.5 66t68.5 26t68.5 -26t27.5 -66q0 -39 -27.5 -65.5t-68.5 -26.5z" />
    <glyph glyph-name="ring" unicode="&#x2da;" horiz-adv-x="500" 
d="M250 581q-57 0 -97 40q-40 39 -40 96q0 56 40 96q40 39 97 39q56 0 97 -39q40 -40 40 -96q0 -57 -40 -96q-40 -40 -97 -40zM250 790q-30 0 -50 -21t-20 -52t20 -52.5t50 -21.5t50 21.5t20 52.5t-20 52t-50 21z" />
    <glyph glyph-name="ogonek" unicode="&#x2db;" horiz-adv-x="500" 
d="M360 -134h7l-20 -61q-57 -10 -94 -10q-64 0 -100.5 22t-36.5 60q0 22 13 42t52 55l40 36h101l-34 -55q-19 -29 -19 -48q0 -41 91 -41z" />
    <glyph glyph-name="tilde" unicode="&#x2dc;" horiz-adv-x="500" 
d="M258 747q51 -28 68 -28q12 0 24 9q14 12 49 54l75 -49q-48 -85 -78 -117q-31 -31 -70 -31q-24 0 -84 33q-52 27 -68 27q-12 0 -23 -8q-13 -10 -50 -54l-75 48q50 89 79 118q30 31 69 31q24 0 84 -33z" />
    <glyph glyph-name="hungarumlaut" unicode="&#x2dd;" horiz-adv-x="500" 
d="M578 784l-197 -192h-84l87 194h194v-2zM382 784l-197 -192h-84l87 194h194v-2z" />
    <glyph glyph-name="uni0300" unicode="&#x300;" 
d="M-252 786h217l87 -194h-91l-213 192v2z" />
    <glyph glyph-name="uni0301" unicode="&#x301;" 
d="M252 784l-213 -192h-91l87 194h217v-2z" />
    <glyph glyph-name="uni0302" unicode="&#x302;" 
d="M213 594v-2h-98l-115 79l-116 -79h-97v2l134 192h158z" />
    <glyph glyph-name="uni0303" unicode="&#x303;" 
d="M8 747q51 -28 68 -28q12 0 24 9q14 12 49 54l75 -49q-48 -85 -78 -117q-31 -31 -70 -31q-24 0 -84 33q-52 27 -68 27q-11 0 -24 -8q-14 -12 -49 -54l-75 48q49 88 78 118q31 31 70 31q24 0 84 -33z" />
    <glyph glyph-name="uni0304" unicode="&#x304;" 
d="M201 610h-402v113h402v-113z" />
    <glyph glyph-name="uni0306" unicode="&#x306;" 
d="M-212 583q-63 0 -113.5 34t-98.5 109l70 62q67 -78 142 -78q74 0 142 78l70 -61q-49 -76 -99.5 -110t-112.5 -34z" />
    <glyph glyph-name="uni0307" unicode="&#x307;" 
d="M-96 583q-41 0 -68.5 26.5t-27.5 65.5q0 40 27.5 66t68.5 26t68.5 -26t27.5 -66q0 -39 -27.5 -65.5t-68.5 -26.5z" />
    <glyph glyph-name="uni0308" unicode="&#x308;" 
d="M120 586q-42 0 -70 27t-28 67q0 41 28 68t70 27t70 -27t28 -68q0 -40 -28 -67t-70 -27zM-120 586q-42 0 -70 27t-28 67q0 41 28 68t70 27t70 -27t28 -68q0 -40 -28 -67t-70 -27z" />
    <glyph glyph-name="uni0309" unicode="&#x309;" 
d="M154 745q0 -39 -29 -76q-27 -36 -110 -91l-81 26v2q55 46 73.5 66.5t18.5 35.5q0 24 -32 24q-47 0 -120 -47h-2v114q73 47 154 47q60 0 94 -27.5t34 -73.5z" />
    <glyph glyph-name="uni030A" unicode="&#x30a;" 
d="M-137 581q-57 0 -97 40q-40 39 -40 96q0 56 40 96q41 39 97 39q57 0 97 -39q40 -40 40 -96q0 -57 -40 -96q-40 -40 -97 -40zM-137 790q-30 0 -50 -21t-20 -52t20 -52.5t50 -21.5t50 21.5t20 52.5t-20 52t-50 21z" />
    <glyph glyph-name="uni030B" unicode="&#x30b;" 
d="M328 784l-197 -192h-84l87 194h194v-2zM132 784l-197 -192h-84l87 194h194v-2z" />
    <glyph glyph-name="uni030C" unicode="&#x30c;" 
d="M213 786v-2l-134 -192h-158l-134 192v2h98l115 -79l116 79h97z" />
    <glyph glyph-name="uni0312" unicode="&#x312;" 
d="M-128 670q0 73 172 134l86 -34v-4q-40 -21 -57.5 -36.5t-17.5 -31.5t17.5 -29.5t61.5 -30.5v-5l-185 -50q-77 35 -77 87z" />
    <glyph glyph-name="uni0315" unicode="&#x315;" 
d="M70 574h-70q19 44 19 97q0 51 -19 97h136q5 -25 5 -41q0 -78 -71 -153z" />
    <glyph glyph-name="uni0323" unicode="&#x323;" 
d="M-96 -241q-41 0 -68.5 26.5t-27.5 65.5q0 40 27.5 66t68.5 26t68.5 -26t27.5 -66q0 -39 -27.5 -65.5t-68.5 -26.5z" />
    <glyph glyph-name="uni0324" unicode="&#x324;" 
d="M120 -249q-42 0 -70 27t-28 67q0 41 28 68t70 27t70 -27t28 -68q0 -40 -28 -67t-70 -27zM-120 -249q-42 0 -70 27t-28 67q0 41 28 68t70 27t70 -27t28 -68q0 -40 -28 -67t-70 -27z" />
    <glyph glyph-name="uni0326" unicode="&#x326;" 
d="M128 -142q0 -72 -172 -131l-86 34v4q40 21 57.5 36t17.5 30q0 29 -79 57v5l185 50q41 -18 59 -38t18 -47z" />
    <glyph glyph-name="uni0327" unicode="&#x327;" 
d="M143 -127q0 -43 -47 -70.5t-124 -27.5q-56 0 -104 13l-26 67l4 3q59 -15 105 -15q58 0 58 30q0 27 -61 27q-33 0 -57 -3l-4 4l76 107h99l-42 -54q123 -7 123 -81z" />
    <glyph glyph-name="uni0328" unicode="&#x328;" 
d="M110 -134h7l-20 -61q-57 -10 -94 -10q-64 0 -100.5 22t-36.5 60q0 22 13 42t52 55l40 36h101l-34 -55q-19 -29 -19 -48q0 -41 91 -41z" />
    <glyph glyph-name="uni032D" unicode="&#x32d;" 
d="M213 -258v-2h-98l-115 79l-116 -79h-97v2l134 192h158z" />
    <glyph glyph-name="uni032E" unicode="&#x32e;" 
d="M-212 -265q-63 0 -113.5 34t-98.5 109l70 62q67 -78 142 -78q74 0 142 78l70 -61q-49 -76 -99.5 -110t-112.5 -34z" />
    <glyph glyph-name="uni0331" unicode="&#x331;" 
d="M201 -197h-402v113h402v-113z" />
    <glyph glyph-name="uni0E3F" unicode="&#xe3f;" horiz-adv-x="666" 
d="M393 1v-136h-133v135h-195v700h195v114h133v-115q102 -6 159 -54.5t57 -129.5q0 -96 -90 -151q113 -51 113 -162q0 -88 -64 -141.5t-175 -59.5zM341 555h-88v-139h85q87 0 87 73q0 66 -84 66zM343 289h-90v-146h93q45 0 69.5 19t24.5 53q0 74 -97 74z" />
    <glyph glyph-name="uni1E06" unicode="&#x1e06;" horiz-adv-x="659" 
d="M625 202q0 -93 -72 -147q-71 -55 -192 -55h-296v700h292q115 0 179.5 -49.5t64.5 -136.5q0 -97 -96 -150q120 -49 120 -162zM329 551h-74v-134h70q40 0 63 18.5t23 50.5q0 31 -21.5 48t-60.5 17zM334 288h-79v-140h81q43 0 67.5 18.5t24.5 50.5q0 71 -94 71zM538 -197
h-402v113h402v-113z" />
    <glyph glyph-name="uni1E07" unicode="&#x1e07;" horiz-adv-x="640" 
d="M612 271q0 -122 -81 -200t-205 -78q-69 0 -147 28l-110 -24h-13v716l189 44v-295q65 65 150 65q94 0 156 -71q61 -71 61 -185zM309 146q54 0 88 32.5t34 85.5q0 50 -29.5 80t-78.5 30q-36 0 -78 -18v-200q27 -10 64 -10zM520 -197h-402v113h402v-113z" />
    <glyph glyph-name="uni1E0C" unicode="&#x1e0c;" horiz-adv-x="776" 
d="M534 349q0 85 -53.5 131t-151.5 46h-62v-352h64q95 0 149 46.5t54 128.5zM331 0h-266v700h266q195 0 302.5 -92t107.5 -257q0 -162 -109 -256q-110 -95 -301 -95zM377 -241q-41 0 -68.5 26.5t-27.5 65.5q0 40 27.5 66t68.5 26t68.5 -26t27.5 -66q0 -39 -27.5 -65.5
t-68.5 -26.5z" />
    <glyph glyph-name="uni1E0D" unicode="&#x1e0d;" horiz-adv-x="645" 
d="M209 257q0 -51 28 -81.5t75 -30.5q44 0 88 26v180q-43 21 -83 21q-48 0 -78 -32t-30 -83zM589 757v-757h-183v72q-69 -82 -164 -82q-91 0 -152 73q-62 74 -62 183q0 120 69 200q69 79 173 79q71 0 130 -46v234zM322 -241q-41 0 -68.5 26.5t-27.5 65.5q0 40 27.5 66
t68.5 26t68.5 -26t27.5 -66q0 -39 -27.5 -65.5t-68.5 -26.5z" />
    <glyph glyph-name="uni1E0E" unicode="&#x1e0e;" horiz-adv-x="776" 
d="M534 349q0 85 -53.5 131t-151.5 46h-62v-352h64q95 0 149 46.5t54 128.5zM331 0h-266v700h266q195 0 302.5 -92t107.5 -257q0 -162 -109 -256q-110 -95 -301 -95zM578 -197h-402v113h402v-113z" />
    <glyph glyph-name="uni1E0F" unicode="&#x1e0f;" horiz-adv-x="645" 
d="M209 257q0 -51 28 -81.5t75 -30.5q44 0 88 26v180q-43 21 -83 21q-48 0 -78 -32t-30 -83zM589 757v-757h-183v72q-69 -82 -164 -82q-91 0 -152 73q-62 74 -62 183q0 120 69 200q69 79 173 79q71 0 130 -46v234zM523 -197h-402v113h402v-113z" />
    <glyph glyph-name="uni1E12" unicode="&#x1e12;" horiz-adv-x="776" 
d="M534 349q0 85 -53.5 131t-151.5 46h-62v-352h64q95 0 149 46.5t54 128.5zM331 0h-266v700h266q195 0 302.5 -92t107.5 -257q0 -162 -109 -256q-110 -95 -301 -95zM590 -258v-2h-98l-115 79l-116 -79h-97v2l134 192h158z" />
    <glyph glyph-name="uni1E13" unicode="&#x1e13;" horiz-adv-x="645" 
d="M209 257q0 -51 28 -81.5t75 -30.5q44 0 88 26v180q-43 21 -83 21q-48 0 -78 -32t-30 -83zM589 757v-757h-183v72q-69 -82 -164 -82q-91 0 -152 73q-62 74 -62 183q0 120 69 200q69 79 173 79q71 0 130 -46v234zM535 -258v-2h-98l-115 79l-116 -79h-97v2l134 192h158z" />
    <glyph glyph-name="uni1E20" unicode="&#x1e20;" horiz-adv-x="762" 
d="M388 395h312v-334q-150 -71 -293 -71q-167 0 -269 96q-103 96 -103 256q0 168 112 268q112 101 294 101q129 0 242 -51v-190q-124 60 -230 60q-93 0 -151 -51q-59 -51 -59 -134q0 -86 53.5 -135t146.5 -49q39 0 76 8v96h-131v130zM625 785h-426v119h426v-119z" />
    <glyph glyph-name="uni1E21" unicode="&#x1e21;" horiz-adv-x="645" 
d="M209 272q0 -45 28 -71t74 -26q43 0 92 25v160q-38 15 -82 15q-50 0 -81 -28.5t-31 -74.5zM287 -193q-112 0 -206 45l-28 159l4 3q65 -33 110.5 -45.5t96.5 -12.5q68 0 103.5 30.5t35.5 88.5v26q-69 -62 -157 -62q-94 0 -156 65t-62 165q0 115 78 185q77 70 202 70
q74 0 158 -27l110 24h13v-428q0 -133 -81 -210q-80 -76 -221 -76zM530 610h-402v113h402v-113z" />
    <glyph glyph-name="uni1E24" unicode="&#x1e24;" horiz-adv-x="808" 
d="M743 700v-700h-203v261h-273v-261h-202v700h202v-254h273v254h203zM404 -239q-41 0 -68.5 26.5t-27.5 65.5q0 40 27.5 66t68.5 26t68.5 -26t27.5 -66q0 -39 -27.5 -65.5t-68.5 -26.5z" />
    <glyph glyph-name="uni1E25" unicode="&#x1e25;" horiz-adv-x="638" 
d="M329 366q-39 0 -84 -28v-338h-189v713l189 44v-323q73 96 174 96q79 0 124 -52t45 -145v-333h-189v286q0 80 -70 80zM322 -236q-41 0 -68.5 26.5t-27.5 65.5q0 40 27.5 66t68.5 26t68.5 -26t27.5 -66q0 -39 -27.5 -65.5t-68.5 -26.5z" />
    <glyph glyph-name="uni1E28" unicode="&#x1e28;" horiz-adv-x="808" 
d="M307 -127q0 -43 -47 -70.5t-124 -27.5q-56 0 -104 13l-26 67l4 3q59 -15 105 -15q58 0 58 30q0 27 -61 27q-33 0 -57 -3l-4 4l70 99h-56v700h202v-254h273v254h203v-700h-203v261h-273v-261h-47l-36 -46q123 -7 123 -81z" />
    <glyph glyph-name="uni1E29" unicode="&#x1e29;" horiz-adv-x="638" 
d="M292 -127q0 -43 -47 -70.5t-124 -27.5q-56 0 -104 13l-26 67l4 3q59 -15 105 -15q58 0 58 30q0 27 -61 27q-33 0 -57 -3l-4 4l70 99h-50v713l189 44v-323q73 96 174 96q79 0 124 -52t45 -145v-333h-189v286q0 80 -70 80q-39 0 -84 -28v-338h-40l-36 -46q123 -7 123 -81z
" />
    <glyph glyph-name="uni1E2A" unicode="&#x1e2a;" horiz-adv-x="808" 
d="M743 700v-700h-203v261h-273v-261h-202v700h202v-254h273v254h203zM404 -265q-63 0 -113.5 34t-98.5 109l70 62q67 -78 142 -78q74 0 142 78l70 -61q-49 -76 -99.5 -110t-112.5 -34z" />
    <glyph glyph-name="uni1E2B" unicode="&#x1e2b;" horiz-adv-x="638" 
d="M329 366q-39 0 -84 -28v-338h-189v713l189 44v-323q73 96 174 96q79 0 124 -52t45 -145v-333h-189v286q0 80 -70 80zM322 -265q-63 0 -113.5 34t-98.5 109l70 62q67 -78 142 -78q74 0 142 78l70 -61q-49 -76 -99.5 -110t-112.5 -34z" />
    <glyph glyph-name="uni1E32" unicode="&#x1e32;" horiz-adv-x="753" 
d="M753 2v-2h-249l-219 279h-18v-279h-202v700h202v-267h19l220 267h242v-2l-291 -335zM390 -241q-41 0 -68.5 26.5t-27.5 65.5q0 40 27.5 66t68.5 26t68.5 -26t27.5 -66q0 -39 -27.5 -65.5t-68.5 -26.5z" />
    <glyph glyph-name="uni1E33" unicode="&#x1e33;" horiz-adv-x="612" 
d="M615 2v-2h-221l-130 204h-19v-204h-189v713l189 44v-439h18l131 200h209v-2l-173 -246zM323 -241q-41 0 -68.5 26.5t-27.5 65.5q0 40 27.5 66t68.5 26t68.5 -26t27.5 -66q0 -39 -27.5 -65.5t-68.5 -26.5z" />
    <glyph glyph-name="uni1E34" unicode="&#x1e34;" horiz-adv-x="753" 
d="M753 2v-2h-249l-219 279h-18v-279h-202v700h202v-267h19l220 267h242v-2l-291 -335zM591 -197h-402v113h402v-113z" />
    <glyph glyph-name="uni1E35" unicode="&#x1e35;" horiz-adv-x="612" 
d="M615 2v-2h-221l-130 204h-19v-204h-189v713l189 44v-439h18l131 200h209v-2l-173 -246zM524 -197h-402v113h402v-113z" />
    <glyph glyph-name="uni1E36" unicode="&#x1e36;" horiz-adv-x="569" 
d="M539 181v-181h-474v700h202v-519h272zM304 -241q-41 0 -68.5 26.5t-27.5 65.5q0 40 27.5 66t68.5 26t68.5 -26t27.5 -66q0 -39 -27.5 -65.5t-68.5 -26.5z" />
    <glyph glyph-name="uni1E37" unicode="&#x1e37;" horiz-adv-x="308" 
d="M248 757v-757h-189v713zM154 -241q-41 0 -68.5 26.5t-27.5 65.5q0 40 27.5 66t68.5 26t68.5 -26t27.5 -66q0 -39 -27.5 -65.5t-68.5 -26.5z" />
    <glyph glyph-name="uni1E38" unicode="&#x1e38;" horiz-adv-x="569" 
d="M539 181v-181h-474v700h202v-519h272zM350 780h-346v119h346v-119zM304 -241q-41 0 -68.5 26.5t-27.5 65.5q0 40 27.5 66t68.5 26t68.5 -26t27.5 -66q0 -39 -27.5 -65.5t-68.5 -26.5z" />
    <glyph glyph-name="uni1E39" unicode="&#x1e39;" horiz-adv-x="308" 
d="M248 757v-757h-189v713zM327 816h-346v113h346v-113zM154 -241q-41 0 -68.5 26.5t-27.5 65.5q0 40 27.5 66t68.5 26t68.5 -26t27.5 -66q0 -39 -27.5 -65.5t-68.5 -26.5z" />
    <glyph glyph-name="uni1E3A" unicode="&#x1e3a;" horiz-adv-x="569" 
d="M539 181v-181h-474v700h202v-519h272zM505 -197h-402v113h402v-113z" />
    <glyph glyph-name="uni1E3B" unicode="&#x1e3b;" horiz-adv-x="308" 
d="M248 757v-757h-189v713zM327 -197h-346v113h346v-113z" />
    <glyph glyph-name="uni1E3C" unicode="&#x1e3c;" horiz-adv-x="569" 
d="M539 181v-181h-474v700h202v-519h272zM517 -258v-2h-98l-115 79l-116 -79h-97v2l134 192h158z" />
    <glyph glyph-name="uni1E3D" unicode="&#x1e3d;" horiz-adv-x="308" 
d="M248 757v-757h-189v713zM367 -258v-2h-98l-115 79l-116 -79h-97v2l134 192h158z" />
    <glyph glyph-name="uni1E3E" unicode="&#x1e3e;" horiz-adv-x="1025" 
d="M764 457l-245 -467h-14l-246 464v-454h-194v700h272l176 -350l175 350h272v-700h-196v457zM769 927l-209 -166h-104l84 168h229v-2z" />
    <glyph glyph-name="uni1E3F" unicode="&#x1e3f;" horiz-adv-x="959" 
d="M320 366q-35 0 -75 -23v-343h-189v505l183 19v-90q73 96 172 96q112 0 149 -99q41 52 83.5 75.5t95.5 23.5q79 0 124.5 -52.5t45.5 -144.5v-333h-189v286q0 80 -68 80q-35 0 -75 -23v-343h-189v286q0 80 -68 80zM735 784l-213 -192h-91l87 194h217v-2z" />
    <glyph glyph-name="uni1E40" unicode="&#x1e40;" horiz-adv-x="1025" 
d="M764 457l-245 -467h-14l-246 464v-454h-194v700h272l176 -350l175 350h272v-700h-196v457zM513 944q42 0 70.5 -27t28.5 -68t-28.5 -68t-70.5 -27t-70.5 27t-28.5 68t28.5 68t70.5 27z" />
    <glyph glyph-name="uni1E41" unicode="&#x1e41;" horiz-adv-x="959" 
d="M320 366q-35 0 -75 -23v-343h-189v505l183 19v-90q73 96 172 96q112 0 149 -99q41 52 83.5 75.5t95.5 23.5q79 0 124.5 -52.5t45.5 -144.5v-333h-189v286q0 80 -68 80q-35 0 -75 -23v-343h-189v286q0 80 -68 80zM483 583q-41 0 -68.5 26.5t-27.5 65.5q0 40 27.5 66
t68.5 26t68.5 -26t27.5 -66q0 -39 -27.5 -65.5t-68.5 -26.5z" />
    <glyph glyph-name="uni1E42" unicode="&#x1e42;" horiz-adv-x="1025" 
d="M764 457l-245 -467h-14l-246 464v-454h-194v700h272l176 -350l175 350h272v-700h-196v457zM512 -244q-41 0 -68.5 26.5t-27.5 65.5q0 40 27.5 66t68.5 26t68.5 -26t27.5 -66q0 -39 -27.5 -65.5t-68.5 -26.5z" />
    <glyph glyph-name="uni1E43" unicode="&#x1e43;" horiz-adv-x="959" 
d="M320 366q-35 0 -75 -23v-343h-189v505l183 19v-90q73 96 172 96q112 0 149 -99q41 52 83.5 75.5t95.5 23.5q79 0 124.5 -52.5t45.5 -144.5v-333h-189v286q0 80 -68 80q-35 0 -75 -23v-343h-189v286q0 80 -68 80zM483 -241q-41 0 -68.5 26.5t-27.5 65.5q0 40 27.5 66
t68.5 26t68.5 -26t27.5 -66q0 -39 -27.5 -65.5t-68.5 -26.5z" />
    <glyph glyph-name="uni1E44" unicode="&#x1e44;" horiz-adv-x="822" 
d="M757 700v-702h-150l-344 393l3 -391h-201v700h198l295 -338l-2 338h201zM411 944q42 0 70.5 -27t28.5 -68t-28.5 -68t-70.5 -27t-70.5 27t-28.5 68t28.5 68t70.5 27z" />
    <glyph glyph-name="uni1E45" unicode="&#x1e45;" horiz-adv-x="638" 
d="M329 366q-39 0 -84 -28v-338h-189v505l183 19v-98q41 55 83.5 79.5t96.5 24.5q79 0 124 -52t45 -145v-333h-189v286q0 80 -70 80zM323 583q-41 0 -68.5 26.5t-27.5 65.5q0 40 27.5 66t68.5 26t68.5 -26t27.5 -66q0 -39 -27.5 -65.5t-68.5 -26.5z" />
    <glyph glyph-name="uni1E46" unicode="&#x1e46;" horiz-adv-x="822" 
d="M757 700v-702h-150l-344 393l3 -391h-201v700h198l295 -338l-2 338h201zM415 -239q-41 0 -68.5 26.5t-27.5 65.5q0 40 27.5 66t68.5 26t68.5 -26t27.5 -66q0 -39 -27.5 -65.5t-68.5 -26.5z" />
    <glyph glyph-name="uni1E47" unicode="&#x1e47;" horiz-adv-x="638" 
d="M329 366q-39 0 -84 -28v-338h-189v505l183 19v-98q41 55 83.5 79.5t96.5 24.5q79 0 124 -52t45 -145v-333h-189v286q0 80 -70 80zM323 -236q-41 0 -68.5 26.5t-27.5 65.5q0 40 27.5 66t68.5 26t68.5 -26t27.5 -66q0 -39 -27.5 -65.5t-68.5 -26.5z" />
    <glyph glyph-name="uni1E48" unicode="&#x1e48;" horiz-adv-x="822" 
d="M757 700v-702h-150l-344 393l3 -391h-201v700h198l295 -338l-2 338h201zM616 -197h-402v113h402v-113z" />
    <glyph glyph-name="uni1E49" unicode="&#x1e49;" horiz-adv-x="638" 
d="M329 366q-39 0 -84 -28v-338h-189v505l183 19v-98q41 55 83.5 79.5t96.5 24.5q79 0 124 -52t45 -145v-333h-189v286q0 80 -70 80zM524 -197h-402v113h402v-113z" />
    <glyph glyph-name="uni1E4A" unicode="&#x1e4a;" horiz-adv-x="822" 
d="M757 700v-702h-150l-344 393l3 -391h-201v700h198l295 -338l-2 338h201zM628 -258v-2h-98l-115 79l-116 -79h-97v2l134 192h158z" />
    <glyph glyph-name="uni1E4B" unicode="&#x1e4b;" horiz-adv-x="638" 
d="M329 366q-39 0 -84 -28v-338h-189v505l183 19v-98q41 55 83.5 79.5t96.5 24.5q79 0 124 -52t45 -145v-333h-189v286q0 80 -70 80zM536 -255v-2h-98l-115 79l-116 -79h-97v2l134 192h158z" />
    <glyph glyph-name="uni1E58" unicode="&#x1e58;" horiz-adv-x="690" 
d="M322 543h-58v-169h56q47 0 74.5 23.5t27.5 63.5q0 38 -26.5 60t-73.5 22zM492 273l217 -273h-238l-182 238h-22v-238h-202v700h271q139 0 212 -57.5t73 -166.5q0 -66 -33.5 -119t-95.5 -84zM324 944q42 0 70.5 -27t28.5 -68t-28.5 -68t-70.5 -27t-70.5 27t-28.5 68
t28.5 68t70.5 27z" />
    <glyph glyph-name="uni1E59" unicode="&#x1e59;" horiz-adv-x="465" 
d="M405 328q-76 0 -160 -44v-284h-189v505l183 19v-138q49 76 86.5 108t79.5 32q15 0 32 -4l11 -197q-12 3 -43 3zM252 583q-41 0 -68.5 26.5t-27.5 65.5q0 40 27.5 66t68.5 26t68.5 -26t27.5 -66q0 -39 -27.5 -65.5t-68.5 -26.5z" />
    <glyph glyph-name="uni1E5A" unicode="&#x1e5a;" horiz-adv-x="690" 
d="M322 543h-58v-169h56q47 0 74.5 23.5t27.5 63.5q0 38 -26.5 60t-73.5 22zM492 273l217 -273h-238l-182 238h-22v-238h-202v700h271q139 0 212 -57.5t73 -166.5q0 -66 -33.5 -119t-95.5 -84zM359 -241q-41 0 -68.5 26.5t-27.5 65.5q0 40 27.5 66t68.5 26t68.5 -26
t27.5 -66q0 -39 -27.5 -65.5t-68.5 -26.5z" />
    <glyph glyph-name="uni1E5B" unicode="&#x1e5b;" horiz-adv-x="465" 
d="M405 328q-76 0 -160 -44v-284h-189v505l183 19v-138q49 76 86.5 108t79.5 32q15 0 32 -4l11 -197q-12 3 -43 3zM151 -241q-41 0 -68.5 26.5t-27.5 65.5q0 40 27.5 66t68.5 26t68.5 -26t27.5 -66q0 -39 -27.5 -65.5t-68.5 -26.5z" />
    <glyph glyph-name="uni1E5C" unicode="&#x1e5c;" horiz-adv-x="690" 
d="M322 543h-58v-169h56q47 0 74.5 23.5t27.5 63.5q0 38 -26.5 60t-73.5 22zM492 273l217 -273h-238l-182 238h-22v-238h-202v700h271q139 0 212 -57.5t73 -166.5q0 -66 -33.5 -119t-95.5 -84zM537 780h-426v119h426v-119zM359 -241q-41 0 -68.5 26.5t-27.5 65.5
q0 40 27.5 66t68.5 26t68.5 -26t27.5 -66q0 -39 -27.5 -65.5t-68.5 -26.5z" />
    <glyph glyph-name="uni1E5D" unicode="&#x1e5d;" horiz-adv-x="465" 
d="M405 328q-76 0 -160 -44v-284h-189v505l183 19v-138q49 76 86.5 108t79.5 32q15 0 32 -4l11 -197q-12 3 -43 3zM425 610h-346v113h346v-113zM151 -241q-41 0 -68.5 26.5t-27.5 65.5q0 40 27.5 66t68.5 26t68.5 -26t27.5 -66q0 -39 -27.5 -65.5t-68.5 -26.5z" />
    <glyph glyph-name="uni1E5E" unicode="&#x1e5e;" horiz-adv-x="690" 
d="M322 543h-58v-169h56q47 0 74.5 23.5t27.5 63.5q0 38 -26.5 60t-73.5 22zM492 273l217 -273h-238l-182 238h-22v-238h-202v700h271q139 0 212 -57.5t73 -166.5q0 -66 -33.5 -119t-95.5 -84zM560 -197h-402v113h402v-113z" />
    <glyph glyph-name="uni1E5F" unicode="&#x1e5f;" horiz-adv-x="465" 
d="M405 328q-76 0 -160 -44v-284h-189v505l183 19v-138q49 76 86.5 108t79.5 32q15 0 32 -4l11 -197q-12 3 -43 3zM324 -197h-346v113h346v-113z" />
    <glyph glyph-name="uni1E62" unicode="&#x1e62;" horiz-adv-x="583" 
d="M246 273q-113 38 -160.5 89.5t-47.5 130.5q0 99 72 159q71 60 191 60q122 0 213 -50v-180h-2q-49 30 -108.5 49t-103.5 19q-64 0 -64 -43q0 -21 21 -35.5t84 -37.5q119 -40 165 -90t46 -133q0 -103 -73 -163t-197 -60q-130 0 -230 65l-24 197l3 2q57 -44 129 -73t121 -29
q73 0 73 48q0 22 -21.5 37t-86.5 38zM284 -246q-41 0 -68.5 26.5t-27.5 65.5q0 40 27.5 66t68.5 26t68.5 -26t27.5 -66q0 -39 -27.5 -65.5t-68.5 -26.5z" />
    <glyph glyph-name="uni1E63" unicode="&#x1e63;" horiz-adv-x="512" 
d="M301 328q103 -28 145 -67q40 -39 40 -104q0 -76 -63.5 -122t-168.5 -46q-107 0 -206 53l-21 153l4 2q123 -78 230 -78q52 0 52 28q0 15 -19.5 25t-77.5 26q-100 27 -141 65.5t-41 100.5q0 75 61.5 120t165.5 45q103 0 190 -44v-146l-3 -1q-102 62 -189 62q-52 0 -52 -26
q0 -14 16 -21q15 -8 78 -25zM249 -243q-41 0 -68.5 26.5t-27.5 65.5q0 40 27.5 66t68.5 26t68.5 -26t27.5 -66q0 -39 -27.5 -65.5t-68.5 -26.5z" />
    <glyph glyph-name="uni1E6C" unicode="&#x1e6c;" horiz-adv-x="734" 
d="M31 700h672v-181h-235v-519h-202v519h-235v181zM367 -241q-41 0 -68.5 26.5t-27.5 65.5q0 40 27.5 66t68.5 26t68.5 -26t27.5 -66q0 -39 -27.5 -65.5t-68.5 -26.5z" />
    <glyph glyph-name="uni1E6D" unicode="&#x1e6d;" horiz-adv-x="484" 
d="M450 181l3 -2l-26 -154q-60 -36 -145 -36q-187 0 -187 210v176h-73v143h73v108l187 38v-146h167v-143h-167v-157q0 -72 74 -72q42 0 94 35zM263 -241q-41 0 -68.5 26.5t-27.5 65.5q0 40 27.5 66t68.5 26t68.5 -26t27.5 -66q0 -39 -27.5 -65.5t-68.5 -26.5z" />
    <glyph glyph-name="uni1E6E" unicode="&#x1e6e;" horiz-adv-x="734" 
d="M31 700h672v-181h-235v-519h-202v519h-235v181zM568 -197h-402v113h402v-113z" />
    <glyph glyph-name="uni1E6F" unicode="&#x1e6f;" horiz-adv-x="484" 
d="M450 181l3 -2l-26 -154q-60 -36 -145 -36q-187 0 -187 210v176h-73v143h73v108l187 38v-146h167v-143h-167v-157q0 -72 74 -72q42 0 94 35zM436 -197h-346v113h346v-113z" />
    <glyph glyph-name="uni1E70" unicode="&#x1e70;" horiz-adv-x="734" 
d="M31 700h672v-181h-235v-519h-202v519h-235v181zM580 -258v-2h-98l-115 79l-116 -79h-97v2l134 192h158z" />
    <glyph glyph-name="uni1E71" unicode="&#x1e71;" horiz-adv-x="484" 
d="M450 181l3 -2l-26 -154q-60 -36 -145 -36q-187 0 -187 210v176h-73v143h73v108l187 38v-146h167v-143h-167v-157q0 -72 74 -72q42 0 94 35zM476 -258v-2h-98l-115 79l-116 -79h-97v2l134 192h158z" />
    <glyph glyph-name="uni1E7E" unicode="&#x1e7e;" horiz-adv-x="810" 
d="M800 700l-306 -707h-181l-303 707h222l177 -444l179 444h212zM403 -244q-41 0 -68.5 26.5t-27.5 65.5q0 40 27.5 66t68.5 26t68.5 -26t27.5 -66q0 -39 -27.5 -65.5t-68.5 -26.5z" />
    <glyph glyph-name="uni1E7F" unicode="&#x1e7f;" horiz-adv-x="642" 
d="M637 518l-240 -529h-158l-232 529h206l109 -293l112 293h203zM319 -241q-41 0 -68.5 26.5t-27.5 65.5q0 40 27.5 66t68.5 26t68.5 -26t27.5 -66q0 -39 -27.5 -65.5t-68.5 -26.5z" />
    <glyph glyph-name="Wgrave" unicode="&#x1e80;" horiz-adv-x="1140" 
d="M569 302l-145 -307h-189l-211 705h216l116 -432l210 441h15l207 -441l119 432h210l-216 -705h-188zM322 929h229l84 -168h-104l-209 166v2z" />
    <glyph glyph-name="wgrave" unicode="&#x1e81;" horiz-adv-x="891" 
d="M444 205l-108 -211h-157l-169 524h198l80 -283l154 290h13l150 -288l83 281h194l-175 -524h-157zM200 786h217l87 -194h-91l-213 192v2z" />
    <glyph glyph-name="Wacute" unicode="&#x1e82;" horiz-adv-x="1140" 
d="M569 302l-145 -307h-189l-211 705h216l116 -432l210 441h15l207 -441l119 432h210l-216 -705h-188zM834 927l-209 -166h-104l84 168h229v-2z" />
    <glyph glyph-name="wacute" unicode="&#x1e83;" horiz-adv-x="891" 
d="M444 205l-108 -211h-157l-169 524h198l80 -283l154 290h13l150 -288l83 281h194l-175 -524h-157zM704 784l-213 -192h-91l87 194h217v-2z" />
    <glyph glyph-name="Wdieresis" unicode="&#x1e84;" horiz-adv-x="1140" 
d="M569 302l-145 -307h-189l-211 705h216l116 -432l210 441h15l207 -441l119 432h210l-216 -705h-188zM698 946q42 0 70.5 -27t28.5 -68t-28.5 -68t-70.5 -27t-70 27t-28 68t28 68t70 27zM458 946q42 0 70 -27t28 -68t-28 -68t-70 -27t-70.5 27t-28.5 68t28.5 68t70.5 27z
" />
    <glyph glyph-name="wdieresis" unicode="&#x1e85;" horiz-adv-x="891" 
d="M444 205l-108 -211h-157l-169 524h198l80 -283l154 290h13l150 -288l83 281h194l-175 -524h-157zM572 586q-42 0 -70 27t-28 67q0 41 28 68t70 27t70 -27t28 -68q0 -40 -28 -67t-70 -27zM332 586q-42 0 -70 27t-28 67q0 41 28 68t70 27t70 -27t28 -68q0 -40 -28 -67
t-70 -27z" />
    <glyph glyph-name="uni1E8C" unicode="&#x1e8c;" horiz-adv-x="780" 
d="M512 359l261 -359h-239l-147 206l-142 -206h-235l257 352l-252 348h239l138 -194l134 194h235zM512 946q42 0 70.5 -27t28.5 -68t-28.5 -68t-70.5 -27t-70 27t-28 68t28 68t70 27zM272 946q42 0 70 -27t28 -68t-28 -68t-70 -27t-70.5 27t-28.5 68t28.5 68t70.5 27z" />
    <glyph glyph-name="uni1E8D" unicode="&#x1e8d;" horiz-adv-x="630" 
d="M435 263l186 -263h-210l-99 149l-98 -149h-204l185 266l-176 252h211l89 -137l88 137h203zM436 586q-42 0 -70 27t-28 67q0 41 28 68t70 27t70 -27t28 -68q0 -40 -28 -67t-70 -27zM196 586q-42 0 -70 27t-28 67q0 41 28 68t70 27t70 -27t28 -68q0 -40 -28 -67t-70 -27z
" />
    <glyph glyph-name="uni1E8E" unicode="&#x1e8e;" horiz-adv-x="729" 
d="M729 700l-263 -428v-272h-202v272l-264 428h233l137 -245l137 245h222zM365 944q42 0 70.5 -27t28.5 -68t-28.5 -68t-70.5 -27t-70.5 27t-28.5 68t28.5 68t70.5 27z" />
    <glyph glyph-name="uni1E8F" unicode="&#x1e8f;" horiz-adv-x="619" 
d="M160 -190q-48 0 -90 15l-36 168l2 2q42 -20 84 -20q65 0 100 45l-213 498h204l107 -289l95 289h200l-186 -487q-43 -114 -108 -167.5t-159 -53.5zM316 583q-41 0 -68.5 26.5t-27.5 65.5q0 40 27.5 66t68.5 26t68.5 -26t27.5 -66q0 -39 -27.5 -65.5t-68.5 -26.5z" />
    <glyph glyph-name="uni1E90" unicode="&#x1e90;" horiz-adv-x="725" 
d="M348 174h350l-53 -174h-624l-5 13l346 513h-310v174h638l5 -13zM583 763v-2h-108l-112 66l-113 -66h-107v2l134 166h172z" />
    <glyph glyph-name="uni1E91" unicode="&#x1e91;" horiz-adv-x="563" 
d="M302 144h240l-38 -144h-484l-4 12l236 362h-201v144h483l4 -12zM507 594v-2h-98l-115 79l-116 -79h-97v2l134 192h158z" />
    <glyph glyph-name="uni1E92" unicode="&#x1e92;" horiz-adv-x="725" 
d="M348 174h350l-53 -174h-624l-5 13l346 513h-310v174h638l5 -13zM353 -241q-41 0 -68.5 26.5t-27.5 65.5q0 40 27.5 66t68.5 26t68.5 -26t27.5 -66q0 -39 -27.5 -65.5t-68.5 -26.5z" />
    <glyph glyph-name="uni1E93" unicode="&#x1e93;" horiz-adv-x="563" 
d="M302 144h240l-38 -144h-484l-4 12l236 362h-201v144h483l4 -12zM274 -241q-41 0 -68.5 26.5t-27.5 65.5q0 40 27.5 66t68.5 26t68.5 -26t27.5 -66q0 -39 -27.5 -65.5t-68.5 -26.5z" />
    <glyph glyph-name="uni1E94" unicode="&#x1e94;" horiz-adv-x="725" 
d="M348 174h350l-53 -174h-624l-5 13l346 513h-310v174h638l5 -13zM554 -197h-402v113h402v-113z" />
    <glyph glyph-name="uni1E95" unicode="&#x1e95;" horiz-adv-x="563" 
d="M302 144h240l-38 -144h-484l-4 12l236 362h-201v144h483l4 -12zM475 -197h-402v113h402v-113z" />
    <glyph glyph-name="uni1E96" unicode="&#x1e96;" horiz-adv-x="638" 
d="M329 366q-39 0 -84 -28v-338h-189v713l189 44v-323q73 96 174 96q79 0 124 -52t45 -145v-333h-189v286q0 80 -70 80zM523 -197h-402v113h402v-113z" />
    <glyph glyph-name="uni1E9E" unicode="&#x1e9e;" horiz-adv-x="744" 
d="M711 199q0 -91 -65 -150t-167 -59q-67 0 -132 23l-23 171l2 1q75 -38 126 -38q31 0 49 16t18 43q0 32 -33 55q-34 23 -138 54l-4 12l111 201q-35 13 -69 13q-61 0 -94.5 -39.5t-33.5 -110.5v-391h-199v383q0 158 83.5 244t237.5 86q156 0 291 -95v-12l-118 -207
q84 -32 121 -79.5t37 -120.5z" />
    <glyph glyph-name="uni1EA0" unicode="&#x1ea0;" horiz-adv-x="828" 
d="M411 504l-90 -227h180zM528 701l290 -701h-215l-47 120h-291l-47 -120h-209l295 701h224zM414 -241q-41 0 -68.5 26.5t-27.5 65.5q0 40 27.5 66t68.5 26t68.5 -26t27.5 -66q0 -39 -27.5 -65.5t-68.5 -26.5z" />
    <glyph glyph-name="uni1EA1" unicode="&#x1ea1;" horiz-adv-x="582" 
d="M196 152q0 -42 55 -42q39 0 99 25v86q-154 -12 -154 -69zM537 288v-275l-180 -19v70q-90 -73 -178 -73q-68 0 -109 38t-41 101q0 166 320 168q-7 83 -98 83q-81 0 -172 -60l-4 3l25 158q88 46 194 46q243 0 243 -240zM296 -241q-41 0 -68.5 26.5t-27.5 65.5q0 40 27.5 66
t68.5 26t68.5 -26t27.5 -66q0 -39 -27.5 -65.5t-68.5 -26.5z" />
    <glyph glyph-name="uni1EA2" unicode="&#x1ea2;" horiz-adv-x="828" 
d="M411 504l-90 -227h180zM528 701l290 -701h-215l-47 120h-291l-47 -120h-209l295 701h224zM574 899q0 -37 -28 -68t-111 -81l-81 25v2q53 38 74 58q18 17 18 30q0 20 -32 20q-48 0 -120 -39h-2v103q75 40 152 40q60 0 95 -24.5t35 -65.5z" />
    <glyph glyph-name="uni1EA3" unicode="&#x1ea3;" horiz-adv-x="582" 
d="M196 152q0 -42 55 -42q39 0 99 25v86q-154 -12 -154 -69zM537 288v-275l-180 -19v70q-90 -73 -178 -73q-68 0 -109 38t-41 101q0 166 320 168q-7 83 -98 83q-81 0 -172 -60l-4 3l25 158q88 46 194 46q243 0 243 -240zM461 745q0 -39 -29 -76q-27 -36 -110 -91l-81 26v2
q55 46 73.5 66.5t18.5 35.5q0 24 -32 24q-47 0 -120 -47h-2v114q73 47 154 47q60 0 94 -27.5t34 -73.5z" />
    <glyph glyph-name="uni1EA4" unicode="&#x1ea4;" horiz-adv-x="828" 
d="M411 504l-90 -227h180zM528 701l290 -701h-215l-47 120h-291l-47 -120h-209l295 701h224zM839 1018l-171 -134h-94l62 136h203v-2zM635 763v-2h-108l-112 62l-113 -62h-107v2l134 156h172z" />
    <glyph glyph-name="uni1EA5" unicode="&#x1ea5;" horiz-adv-x="582" 
d="M196 152q0 -42 55 -42q39 0 99 25v86q-154 -12 -154 -69zM537 288v-275l-180 -19v70q-90 -73 -178 -73q-68 0 -109 38t-41 101q0 166 320 168q-7 83 -98 83q-81 0 -172 -60l-4 3l25 158q88 46 194 46q243 0 243 -240zM698 875l-157 -149h-79l60 150h176v-1zM520 594v-2
h-95l-118 69l-119 -69h-94v2l134 172h158z" />
    <glyph glyph-name="uni1EA6" unicode="&#x1ea6;" horiz-adv-x="828" 
d="M411 504l-90 -227h180zM528 701l290 -701h-215l-47 120h-291l-47 -120h-209l295 701h224zM483 1020h203l61 -136h-94l-170 134v2zM635 763v-2h-107l-112 62l-112 -62h-109v2l134 156h172z" />
    <glyph glyph-name="uni1EA7" unicode="&#x1ea7;" horiz-adv-x="582" 
d="M196 152q0 -42 55 -42q39 0 99 25v86q-154 -12 -154 -69zM537 288v-275l-180 -19v70q-90 -73 -178 -73q-68 0 -109 38t-41 101q0 166 320 168q-7 83 -98 83q-81 0 -172 -60l-4 3l25 158q88 46 194 46q243 0 243 -240zM373 876h176l60 -150h-79l-157 149v1zM520 594v-2
h-95l-118 69l-119 -69h-94v2l134 172h158z" />
    <glyph glyph-name="uni1EA8" unicode="&#x1ea8;" horiz-adv-x="828" 
d="M411 504l-90 -227h180zM528 701l290 -701h-215l-47 120h-291l-47 -120h-209l295 701h224zM756 1000q0 -32 -24 -57q-25 -29 -94 -68l-70 22v1q49 35 64 48.5t15 24.5q0 16 -27 16q-38 0 -102 -33h-2v87q64 34 131 34q50 0 79.5 -20.5t29.5 -54.5zM635 763v-2h-107
l-112 62l-112 -62h-109v2l134 156h172z" />
    <glyph glyph-name="uni1EA9" unicode="&#x1ea9;" horiz-adv-x="582" 
d="M196 152q0 -42 55 -42q39 0 99 25v86q-154 -12 -154 -69zM537 288v-275l-180 -19v70q-90 -73 -178 -73q-68 0 -109 38t-41 101q0 166 320 168q-7 83 -98 83q-81 0 -172 -60l-4 3l25 158q88 46 194 46q243 0 243 -240zM665 825q0 -30 -22 -56q-23 -27 -90 -72l-67 23v2
q45 34 60 49.5t15 27.5q0 19 -24 19q-39 0 -97 -36h-2v83q58 36 124 36q48 0 75.5 -20.5t27.5 -55.5zM520 594v-2h-95l-118 69l-119 -69h-94v2l134 172h158z" />
    <glyph glyph-name="uni1EAA" unicode="&#x1eaa;" horiz-adv-x="828" 
d="M411 504l-90 -227h180zM528 701l290 -701h-215l-47 120h-291l-47 -120h-209l295 701h224zM429 1073q46 -22 64 -22q15 0 28 9.5t44 41.5l58 -44q-49 -68 -76 -92q-28 -23 -60 -23q-23 0 -86 27q-46 22 -64 22q-15 0 -28 -9.5t-44 -41.5l-58 44q50 69 77 92q26 23 59 23
q23 0 86 -27zM635 763v-2h-107l-112 58l-112 -58h-109v2l132 141h176z" />
    <glyph glyph-name="uni1EAB" unicode="&#x1eab;" horiz-adv-x="582" 
d="M196 152q0 -42 55 -42q39 0 99 25v86q-154 -12 -154 -69zM537 288v-275l-180 -19v70q-90 -73 -178 -73q-68 0 -109 38t-41 101q0 166 320 168q-7 83 -98 83q-81 0 -172 -60l-4 3l25 158q88 46 194 46q243 0 243 -240zM317 908q46 -21 60 -21q13 0 24 8.5t41 39.5l60 -40
q-44 -68 -70 -91q-27 -24 -60 -24q-20 0 -75 25q-46 21 -60 21q-13 0 -25.5 -8.5t-39.5 -35.5l-60 39q45 67 70 89q26 23 60 23q20 0 75 -25zM520 594v-2h-95l-118 61l-119 -61h-94v2l132 147h162z" />
    <glyph glyph-name="uni1EAC" unicode="&#x1eac;" horiz-adv-x="828" 
d="M411 504l-90 -227h180zM528 701l290 -701h-215l-47 120h-291l-47 -120h-209l295 701h224zM635 763v-2h-108l-112 66l-113 -66h-107v2l134 166h172zM414 -241q-41 0 -68.5 26.5t-27.5 65.5q0 40 27.5 66t68.5 26t68.5 -26t27.5 -66q0 -39 -27.5 -65.5t-68.5 -26.5z" />
    <glyph glyph-name="uni1EAD" unicode="&#x1ead;" horiz-adv-x="582" 
d="M196 152q0 -42 55 -42q39 0 99 25v86q-154 -12 -154 -69zM537 288v-275l-180 -19v70q-90 -73 -178 -73q-68 0 -109 38t-41 101q0 166 320 168q-7 83 -98 83q-81 0 -172 -60l-4 3l25 158q88 46 194 46q243 0 243 -240zM520 594v-2h-98l-115 79l-116 -79h-97v2l134 192h158
zM296 -241q-41 0 -68.5 26.5t-27.5 65.5q0 40 27.5 66t68.5 26t68.5 -26t27.5 -66q0 -39 -27.5 -65.5t-68.5 -26.5z" />
    <glyph glyph-name="uni1EAE" unicode="&#x1eae;" horiz-adv-x="828" 
d="M411 504l-90 -227h180zM528 701l290 -701h-215l-47 120h-291l-47 -120h-209l295 701h224zM632 1079l-176 -143h-98l59 145h215v-2zM415 754q-140 0 -223 121l62 55q82 -59 161 -59t161 59l62 -55q-85 -121 -223 -121z" />
    <glyph glyph-name="uni1EAF" unicode="&#x1eaf;" horiz-adv-x="582" 
d="M196 152q0 -42 55 -42q39 0 99 25v86q-154 -12 -154 -69zM537 288v-275l-180 -19v70q-90 -73 -178 -73q-68 0 -109 38t-41 101q0 166 320 168q-7 83 -98 83q-81 0 -172 -60l-4 3l25 158q88 46 194 46q243 0 243 -240zM503 915l-163 -143h-81l57 145h187v-2zM307 583
q-64 0 -114 29t-98 94l65 58q74 -67 146 -67q78 0 147 68l66 -56q-48 -66 -99 -96t-113 -30z" />
    <glyph glyph-name="uni1EB0" unicode="&#x1eb0;" horiz-adv-x="828" 
d="M411 504l-90 -227h180zM528 701l290 -701h-215l-47 120h-291l-47 -120h-209l295 701h224zM198 1081h215l59 -145h-98l-176 143v2zM415 754q-140 0 -223 121l62 55q82 -59 161 -59t161 59l62 -55q-85 -121 -223 -121z" />
    <glyph glyph-name="uni1EB1" unicode="&#x1eb1;" horiz-adv-x="582" 
d="M196 152q0 -42 55 -42q39 0 99 25v86q-154 -12 -154 -69zM537 288v-275l-180 -19v70q-90 -73 -178 -73q-68 0 -109 38t-41 101q0 166 320 168q-7 83 -98 83q-81 0 -172 -60l-4 3l25 158q88 46 194 46q243 0 243 -240zM111 917h187l57 -145h-81l-163 143v2zM307 583
q-63 0 -113.5 29t-98.5 95l65 57q73 -67 146 -67q76 0 147 68l66 -57q-92 -125 -212 -125z" />
    <glyph glyph-name="uni1EB2" unicode="&#x1eb2;" horiz-adv-x="828" 
d="M411 504l-90 -227h180zM528 701l290 -701h-215l-47 120h-291l-47 -120h-209l295 701h224zM555 1054q0 -30 -26 -59q-24 -27 -104 -73l-77 23v1q50 36 69 53q16 13 16 25q0 18 -28 18q-40 0 -113 -35h-1v91q71 36 144 36q55 0 87.5 -22t32.5 -58zM415 754q-140 0 -223 121
l62 55q82 -59 161 -59t161 59l62 -55q-85 -121 -223 -121z" />
    <glyph glyph-name="uni1EB3" unicode="&#x1eb3;" horiz-adv-x="582" 
d="M196 152q0 -42 55 -42q39 0 99 25v86q-154 -12 -154 -69zM537 288v-275l-180 -19v70q-90 -73 -178 -73q-68 0 -109 38t-41 101q0 166 320 168q-7 83 -98 83q-81 0 -172 -60l-4 3l25 158q88 46 194 46q243 0 243 -240zM439 882q0 -30 -23 -56t-97 -70l-70 21v2
q48 35 63.5 49t15.5 26q0 18 -27 18q-44 0 -105 -35h-1v84q61 36 136 36q50 0 79 -20.5t29 -54.5zM307 583q-64 0 -114 29t-98 94l65 58q74 -67 146 -67q78 0 147 68l66 -56q-48 -66 -99 -96t-113 -30z" />
    <glyph glyph-name="uni1EB4" unicode="&#x1eb4;" horiz-adv-x="828" 
d="M411 504l-90 -227h180zM528 701l290 -701h-215l-47 120h-291l-47 -120h-209l295 701h224zM433 1085q49 -20 62 -20q15 0 27.5 8.5t46.5 38.5l63 -46q-51 -65 -82 -90q-29 -23 -65 -23q-25 0 -83 26q-46 20 -61 20q-14 0 -27 -8q-11 -6 -47 -39l-63 47q51 65 82 90
q28 22 65 22q24 0 82 -26zM415 754q-140 0 -223 121l62 55q82 -59 161 -59t161 59l62 -55q-85 -121 -223 -121z" />
    <glyph glyph-name="uni1EB5" unicode="&#x1eb5;" horiz-adv-x="582" 
d="M196 152q0 -42 55 -42q39 0 99 25v86q-154 -12 -154 -69zM537 288v-275l-180 -19v70q-90 -73 -178 -73q-68 0 -109 38t-41 101q0 166 320 168q-7 83 -98 83q-81 0 -172 -60l-4 3l25 158q88 46 194 46q243 0 243 -240zM319 918q46 -20 59 -20t25.5 8.5t41.5 38.5l60 -41
q-43 -65 -70 -89t-58 -24q-27 0 -82 27q-46 20 -59 20q-15 0 -27 -8t-40 -35l-60 40q42 64 69 87t59 23q27 0 82 -27zM307 583q-64 0 -114 29t-98 94l65 58q74 -67 146 -67q78 0 147 68l66 -56q-48 -66 -99 -96t-113 -30z" />
    <glyph glyph-name="uni1EB6" unicode="&#x1eb6;" horiz-adv-x="828" 
d="M411 504l-90 -227h180zM528 701l290 -701h-215l-47 120h-291l-47 -120h-209l295 701h224zM415 754q-140 0 -223 129l64 61q81 -66 159 -66q42 0 77.5 14.5t81.5 51.5l64 -60q-84 -130 -223 -130zM414 -241q-41 0 -68.5 26.5t-27.5 65.5q0 40 27.5 66t68.5 26t68.5 -26
t27.5 -66q0 -39 -27.5 -65.5t-68.5 -26.5z" />
    <glyph glyph-name="uni1EB7" unicode="&#x1eb7;" horiz-adv-x="582" 
d="M196 152q0 -42 55 -42q39 0 99 25v86q-154 -12 -154 -69zM537 288v-275l-180 -19v70q-90 -73 -178 -73q-68 0 -109 38t-41 101q0 166 320 168q-7 83 -98 83q-81 0 -172 -60l-4 3l25 158q88 46 194 46q243 0 243 -240zM307 582q-63 0 -113.5 34t-98.5 109l70 62
q67 -78 142 -78q74 0 142 78l70 -61q-49 -76 -99.5 -110t-112.5 -34zM296 -241q-41 0 -68.5 26.5t-27.5 65.5q0 40 27.5 66t68.5 26t68.5 -26t27.5 -66q0 -39 -27.5 -65.5t-68.5 -26.5z" />
    <glyph glyph-name="uni1EB8" unicode="&#x1eb8;" horiz-adv-x="608" 
d="M572 169l-27 -169h-480v700h477l27 -169h-305v-107h251v-145h-251v-110h308zM317 -241q-41 0 -68.5 26.5t-27.5 65.5q0 40 27.5 66t68.5 26t68.5 -26t27.5 -66q0 -39 -27.5 -65.5t-68.5 -26.5z" />
    <glyph glyph-name="uni1EB9" unicode="&#x1eb9;" horiz-adv-x="575" 
d="M293 405q-35 0 -58.5 -25t-28.5 -68h170q-4 43 -26 68t-57 25zM536 172l3 -2l-46 -143q-86 -37 -184 -37q-128 0 -205 74t-77 197q0 116 76 193q77 78 191 78q118 0 186 -74q67 -74 67 -199q0 -19 -3 -43h-339q26 -87 143 -87q90 0 188 43zM302 -246q-41 0 -68.5 26.5
t-27.5 65.5q0 40 27.5 66t68.5 26t68.5 -26t27.5 -66q0 -39 -27.5 -65.5t-68.5 -26.5z" />
    <glyph glyph-name="uni1EBA" unicode="&#x1eba;" horiz-adv-x="608" 
d="M572 169l-27 -169h-480v700h477l27 -169h-305v-107h251v-145h-251v-110h308zM476 899q0 -37 -28 -68t-111 -81l-81 25v2q53 38 74 58q18 17 18 30q0 20 -32 20q-48 0 -120 -39h-2v103q75 40 152 40q60 0 95 -24.5t35 -65.5z" />
    <glyph glyph-name="uni1EBB" unicode="&#x1ebb;" horiz-adv-x="575" 
d="M293 405q-35 0 -58.5 -25t-28.5 -68h170q-4 43 -26 68t-57 25zM536 172l3 -2l-46 -143q-86 -37 -184 -37q-128 0 -205 74t-77 197q0 116 76 193q77 78 191 78q118 0 186 -74q67 -74 67 -199q0 -19 -3 -43h-339q26 -87 143 -87q90 0 188 43zM454 750q0 -39 -29 -76
q-27 -36 -110 -91l-81 26v2q55 46 73.5 66.5t18.5 35.5q0 24 -32 24q-47 0 -120 -47h-2v114q73 47 154 47q60 0 94 -27.5t34 -73.5z" />
    <glyph glyph-name="uni1EBC" unicode="&#x1ebc;" horiz-adv-x="608" 
d="M572 169l-27 -169h-480v700h477l27 -169h-305v-107h251v-145h-251v-110h308zM341 906q48 -23 65 -23q16 0 30 9q10 7 50 45l67 -54q-55 -77 -87 -102q-32 -26 -71 -26q-28 0 -87 29q-50 23 -67 23q-16 0 -29 -9q-15 -10 -50 -45l-67 53q55 75 87 103q32 26 70 26
q27 0 89 -29z" />
    <glyph glyph-name="uni1EBD" unicode="&#x1ebd;" horiz-adv-x="575" 
d="M293 405q-35 0 -58.5 -25t-28.5 -68h170q-4 43 -26 68t-57 25zM536 172l3 -2l-46 -143q-86 -37 -184 -37q-128 0 -205 74t-77 197q0 116 76 193q77 78 191 78q118 0 186 -74q67 -74 67 -199q0 -19 -3 -43h-339q26 -87 143 -87q90 0 188 43zM308 752q51 -28 68 -28
q12 0 24 9q14 12 49 54l75 -49q-48 -86 -78 -117q-31 -31 -70 -31q-24 0 -84 33q-52 27 -68 27q-12 0 -23 -8q-13 -10 -50 -54l-75 48q50 89 79 118q30 31 69 31q24 0 84 -33z" />
    <glyph glyph-name="uni1EBE" unicode="&#x1ebe;" horiz-adv-x="608" 
d="M572 169l-27 -169h-480v700h477l27 -169h-305v-107h251v-145h-251v-110h308zM741 1018l-171 -134h-94l62 136h203v-2zM537 763v-2h-108l-112 62l-113 -62h-107v2l134 156h172z" />
    <glyph glyph-name="uni1EBF" unicode="&#x1ebf;" horiz-adv-x="575" 
d="M293 405q-35 0 -58.5 -25t-28.5 -68h170q-4 43 -26 68t-57 25zM536 172l3 -2l-46 -143q-86 -37 -184 -37q-128 0 -205 74t-77 197q0 116 76 193q77 78 191 78q118 0 186 -74q67 -74 67 -199q0 -19 -3 -43h-339q26 -87 143 -87q90 0 188 43zM691 880l-157 -149h-79l60 150
h176v-1zM513 599v-2h-95l-118 69l-119 -69h-94v2l134 172h158z" />
    <glyph glyph-name="uni1EC0" unicode="&#x1ec0;" horiz-adv-x="608" 
d="M572 169l-27 -169h-480v700h477l27 -169h-305v-107h251v-145h-251v-110h308zM385 1020h203l61 -136h-94l-170 134v2zM537 763v-2h-107l-112 62l-112 -62h-109v2l134 156h172z" />
    <glyph glyph-name="uni1EC1" unicode="&#x1ec1;" horiz-adv-x="575" 
d="M293 405q-35 0 -58.5 -25t-28.5 -68h170q-4 43 -26 68t-57 25zM536 172l3 -2l-46 -143q-86 -37 -184 -37q-128 0 -205 74t-77 197q0 116 76 193q77 78 191 78q118 0 186 -74q67 -74 67 -199q0 -19 -3 -43h-339q26 -87 143 -87q90 0 188 43zM366 881h176l60 -150h-79
l-157 149v1zM513 599v-2h-95l-118 69l-119 -69h-94v2l134 172h158z" />
    <glyph glyph-name="uni1EC2" unicode="&#x1ec2;" horiz-adv-x="608" 
d="M572 169l-27 -169h-480v700h477l27 -169h-305v-107h251v-145h-251v-110h308zM658 1000q0 -32 -24 -57q-25 -29 -94 -68l-70 22v1q49 35 64 48.5t15 24.5q0 16 -27 16q-38 0 -102 -33h-2v87q64 34 131 34q50 0 79.5 -20.5t29.5 -54.5zM537 763v-2h-107l-112 62l-112 -62
h-109v2l134 156h172z" />
    <glyph glyph-name="uni1EC3" unicode="&#x1ec3;" horiz-adv-x="575" 
d="M293 405q-35 0 -58.5 -25t-28.5 -68h170q-4 43 -26 68t-57 25zM536 172l3 -2l-46 -143q-86 -37 -184 -37q-128 0 -205 74t-77 197q0 116 76 193q77 78 191 78q118 0 186 -74q67 -74 67 -199q0 -19 -3 -43h-339q26 -87 143 -87q90 0 188 43zM658 830q0 -30 -22 -56
q-22 -27 -90 -72l-67 23v2q45 34 60 49.5t15 27.5q0 19 -24 19q-39 0 -97 -36h-2v83q59 36 124 36q48 0 75.5 -20.5t27.5 -55.5zM513 599v-2h-95l-118 69l-119 -69h-94v2l134 172h158z" />
    <glyph glyph-name="uni1EC4" unicode="&#x1ec4;" horiz-adv-x="608" 
d="M572 169l-27 -169h-480v700h477l27 -169h-305v-107h251v-145h-251v-110h308zM331 1073q46 -22 64 -22q15 0 28 9.5t44 41.5l58 -44q-49 -68 -76 -92q-28 -23 -60 -23q-23 0 -86 27q-46 22 -64 22q-15 0 -28 -9.5t-44 -41.5l-58 44q50 69 77 92q26 23 59 23q23 0 86 -27z
M537 763v-2h-107l-112 58l-112 -58h-109v2l132 141h176z" />
    <glyph glyph-name="uni1EC5" unicode="&#x1ec5;" horiz-adv-x="575" 
d="M293 405q-35 0 -58.5 -25t-28.5 -68h170q-4 43 -26 68t-57 25zM536 172l3 -2l-46 -143q-86 -37 -184 -37q-128 0 -205 74t-77 197q0 116 76 193q77 78 191 78q118 0 186 -74q67 -74 67 -199q0 -19 -3 -43h-339q26 -87 143 -87q90 0 188 43zM310 913q46 -21 60 -21
q13 0 24 8.5t41 39.5l60 -40q-44 -68 -70 -91q-27 -24 -60 -24q-20 0 -75 25q-46 21 -60 21q-13 0 -25.5 -8.5t-39.5 -35.5l-60 39q45 67 70 89q26 23 60 23q20 0 75 -25zM513 599v-2h-95l-118 61l-119 -61h-94v2l132 147h162z" />
    <glyph glyph-name="uni1EC6" unicode="&#x1ec6;" horiz-adv-x="608" 
d="M572 169l-27 -169h-480v700h477l27 -169h-305v-107h251v-145h-251v-110h308zM537 763v-2h-108l-112 66l-113 -66h-107v2l134 166h172zM317 -241q-41 0 -68.5 26.5t-27.5 65.5q0 40 27.5 66t68.5 26t68.5 -26t27.5 -66q0 -39 -27.5 -65.5t-68.5 -26.5z" />
    <glyph glyph-name="uni1EC7" unicode="&#x1ec7;" horiz-adv-x="575" 
d="M293 405q-35 0 -58.5 -25t-28.5 -68h170q-4 43 -26 68t-57 25zM536 172l3 -2l-46 -143q-86 -37 -184 -37q-128 0 -205 74t-77 197q0 116 76 193q77 78 191 78q118 0 186 -74q67 -74 67 -199q0 -19 -3 -43h-339q26 -87 143 -87q90 0 188 43zM513 599v-2h-98l-115 79
l-116 -79h-97v2l134 192h158zM302 -246q-41 0 -68.5 26.5t-27.5 65.5q0 40 27.5 66t68.5 26t68.5 -26t27.5 -66q0 -39 -27.5 -65.5t-68.5 -26.5z" />
    <glyph glyph-name="uni1EC8" unicode="&#x1ec8;" horiz-adv-x="339" 
d="M270 700v-700h-202v700h202zM328 899q0 -37 -28 -68t-111 -81l-81 25v2q53 38 74 58q18 17 18 30q0 20 -32 20q-48 0 -120 -39h-2v103q75 40 152 40q60 0 95 -24.5t35 -65.5z" />
    <glyph glyph-name="uni1EC9" unicode="&#x1ec9;" horiz-adv-x="308" 
d="M248 518v-518h-189v518h189zM308 745q0 -39 -29 -76q-27 -36 -110 -91l-81 26v2q55 46 73.5 66.5t18.5 35.5q0 24 -32 24q-47 0 -120 -47h-2v114q73 47 154 47q60 0 94 -27.5t34 -73.5z" />
    <glyph glyph-name="uni1ECA" unicode="&#x1eca;" horiz-adv-x="339" 
d="M270 700v-700h-202v700h202zM169 -241q-41 0 -68.5 26.5t-27.5 65.5q0 40 27.5 66t68.5 26t68.5 -26t27.5 -66q0 -39 -27.5 -65.5t-68.5 -26.5z" />
    <glyph glyph-name="uni1ECB" unicode="&#x1ecb;" horiz-adv-x="308" 
d="M154 781q47 0 78.5 -29t31.5 -73t-31.5 -73.5t-78.5 -29.5t-79 29.5t-32 73.5t31.5 73t79.5 29zM248 518v-518h-189v518h189zM154 -241q-41 0 -68.5 26.5t-27.5 65.5q0 40 27.5 66t68.5 26t68.5 -26t27.5 -66q0 -39 -27.5 -65.5t-68.5 -26.5z" />
    <glyph glyph-name="uni1ECC" unicode="&#x1ecc;" horiz-adv-x="824" 
d="M411 -14q-162 0 -269 104t-107 259t108 260t270 105q160 0 269 -104q107 -105 107 -259q0 -157 -108 -260q-108 -105 -270 -105zM410 532q-73 0 -121 -52t-48 -129q0 -78 49 -130q48 -53 122 -53q73 0 122 52t49 129q0 79 -49 131t-124 52zM412 -246q-41 0 -68.5 26.5
t-27.5 65.5q0 40 27.5 66t68.5 26t68.5 -26t27.5 -66q0 -39 -27.5 -65.5t-68.5 -26.5z" />
    <glyph glyph-name="uni1ECD" unicode="&#x1ecd;" horiz-adv-x="622" 
d="M311 -14q-125 0 -204 79q-80 80 -80 194q0 115 81 194q79 79 203 79t205 -78q80 -80 80 -194t-81 -194q-82 -80 -204 -80zM415 260q0 49 -29.5 81t-74.5 32t-74.5 -32.5t-29.5 -81.5t29.5 -81t74.5 -32t74.5 32.5t29.5 81.5zM311 -246q-41 0 -68.5 26.5t-27.5 65.5
q0 40 27.5 66t68.5 26t68.5 -26t27.5 -66q0 -39 -27.5 -65.5t-68.5 -26.5z" />
    <glyph glyph-name="uni1ECE" unicode="&#x1ece;" horiz-adv-x="824" 
d="M411 -14q-162 0 -269 104t-107 259t108 260t270 105q160 0 269 -104q107 -105 107 -259q0 -157 -108 -260q-108 -105 -270 -105zM410 532q-73 0 -121 -52t-48 -129q0 -78 49 -130q48 -53 122 -53q73 0 122 52t49 129q0 79 -49 131t-124 52zM571 904q0 -37 -28 -68
q-29 -32 -111 -81l-81 25v2q53 38 74 58q18 16 18 30q0 20 -32 20q-49 0 -120 -39h-2v103q75 40 152 40q60 0 95 -24.5t35 -65.5z" />
    <glyph glyph-name="uni1ECF" unicode="&#x1ecf;" horiz-adv-x="622" 
d="M311 -14q-125 0 -204 79q-80 80 -80 194q0 115 81 194q79 79 203 79t205 -78q80 -80 80 -194t-81 -194q-82 -80 -204 -80zM415 260q0 49 -29.5 81t-74.5 32t-74.5 -32.5t-29.5 -81.5t29.5 -81t74.5 -32t74.5 32.5t29.5 81.5zM465 750q0 -39 -29 -76q-27 -36 -110 -91
l-81 26v2q55 46 73.5 66.5t18.5 35.5q0 24 -32 24q-47 0 -120 -47h-2v114q73 47 154 47q60 0 94 -27.5t34 -73.5z" />
    <glyph glyph-name="uni1ED0" unicode="&#x1ed0;" horiz-adv-x="824" 
d="M411 -14q-162 0 -269 104t-107 259t108 260t270 105q160 0 269 -104q107 -105 107 -259q0 -157 -108 -260q-108 -105 -270 -105zM410 532q-73 0 -121 -52t-48 -129q0 -78 49 -130q48 -53 122 -53q73 0 122 52t49 129q0 79 -49 131t-124 52zM836 1023l-171 -134h-94
l62 136h203v-2zM632 768v-2h-108l-112 62l-113 -62h-107v2l134 156h172z" />
    <glyph glyph-name="uni1ED1" unicode="&#x1ed1;" horiz-adv-x="622" 
d="M311 -14q-125 0 -204 79q-80 80 -80 194q0 115 81 194q79 79 203 79t205 -78q80 -80 80 -194t-81 -194q-82 -80 -204 -80zM415 260q0 49 -29.5 81t-74.5 32t-74.5 -32.5t-29.5 -81.5t29.5 -81t74.5 -32t74.5 32.5t29.5 81.5zM702 880l-157 -149h-79l60 150h176v-1z
M524 599v-2h-95l-118 69l-119 -69h-94v2l134 172h158z" />
    <glyph glyph-name="uni1ED2" unicode="&#x1ed2;" horiz-adv-x="824" 
d="M411 -14q-162 0 -269 104t-107 259t108 260t270 105q160 0 269 -104q107 -105 107 -259q0 -157 -108 -260q-108 -105 -270 -105zM410 532q-73 0 -121 -52t-48 -129q0 -78 49 -130q48 -53 122 -53q73 0 122 52t49 129q0 79 -49 131t-124 52zM480 1025h203l61 -136h-94
l-170 134v2zM632 768v-2h-107l-112 62l-112 -62h-109v2l134 156h172z" />
    <glyph glyph-name="uni1ED3" unicode="&#x1ed3;" horiz-adv-x="622" 
d="M311 -14q-125 0 -204 79q-80 80 -80 194q0 115 81 194q79 79 203 79t205 -78q80 -80 80 -194t-81 -194q-82 -80 -204 -80zM415 260q0 49 -29.5 81t-74.5 32t-74.5 -32.5t-29.5 -81.5t29.5 -81t74.5 -32t74.5 32.5t29.5 81.5zM377 881h176l60 -150h-79l-157 149v1z
M524 599v-2h-95l-118 69l-119 -69h-94v2l134 172h158z" />
    <glyph glyph-name="uni1ED4" unicode="&#x1ed4;" horiz-adv-x="824" 
d="M411 -14q-162 0 -269 104t-107 259t108 260t270 105q160 0 269 -104q107 -105 107 -259q0 -157 -108 -260q-108 -105 -270 -105zM410 532q-73 0 -121 -52t-48 -129q0 -78 49 -130q48 -53 122 -53q73 0 122 52t49 129q0 79 -49 131t-124 52zM753 1005q0 -31 -24 -57
q-25 -29 -94 -68l-70 22v1q49 35 64 48.5t15 24.5q0 16 -27 16q-38 0 -102 -33h-2v87q64 34 131 34q50 0 79.5 -20.5t29.5 -54.5zM632 768v-2h-107l-112 62l-112 -62h-109v2l134 156h172z" />
    <glyph glyph-name="uni1ED5" unicode="&#x1ed5;" horiz-adv-x="622" 
d="M311 -14q-125 0 -204 79q-80 80 -80 194q0 115 81 194q79 79 203 79t205 -78q80 -80 80 -194t-81 -194q-82 -80 -204 -80zM415 260q0 49 -29.5 81t-74.5 32t-74.5 -32.5t-29.5 -81.5t29.5 -81t74.5 -32t74.5 32.5t29.5 81.5zM669 830q0 -30 -22 -56q-23 -27 -90 -72
l-67 23v2q45 34 60 49.5t15 27.5q0 19 -24 19q-39 0 -97 -36h-2v83q58 36 124 36q48 0 75.5 -20.5t27.5 -55.5zM524 599v-2h-95l-118 69l-119 -69h-94v2l134 172h158z" />
    <glyph glyph-name="uni1ED6" unicode="&#x1ed6;" horiz-adv-x="824" 
d="M411 -14q-162 0 -269 104t-107 259t108 260t270 105q160 0 269 -104q107 -105 107 -259q0 -157 -108 -260q-108 -105 -270 -105zM410 532q-73 0 -121 -52t-48 -129q0 -78 49 -130q48 -53 122 -53q73 0 122 52t49 129q0 79 -49 131t-124 52zM426 1078q46 -22 64 -22
q15 0 28 9.5t44 41.5l58 -44q-49 -68 -76 -92q-28 -23 -60 -23q-23 0 -86 27q-46 22 -64 22q-15 0 -28 -9.5t-44 -41.5l-58 44q50 69 77 92q26 23 59 23q23 0 86 -27zM632 768v-2h-107l-112 58l-112 -58h-109v2l132 141h176z" />
    <glyph glyph-name="uni1ED7" unicode="&#x1ed7;" horiz-adv-x="622" 
d="M311 -14q-125 0 -204 79q-80 80 -80 194q0 115 81 194q79 79 203 79t205 -78q80 -80 80 -194t-81 -194q-82 -80 -204 -80zM415 260q0 49 -29.5 81t-74.5 32t-74.5 -32.5t-29.5 -81.5t29.5 -81t74.5 -32t74.5 32.5t29.5 81.5zM321 913q46 -21 60 -21q13 0 24 8.5t41 39.5
l60 -40q-44 -68 -70 -91q-27 -24 -60 -24q-20 0 -75 25q-46 21 -60 21q-13 0 -25.5 -8.5t-39.5 -35.5l-60 39q45 67 70 89q26 23 60 23q20 0 75 -25zM524 599v-2h-95l-118 61l-119 -61h-94v2l132 147h162z" />
    <glyph glyph-name="uni1ED8" unicode="&#x1ed8;" horiz-adv-x="824" 
d="M411 -14q-162 0 -269 104t-107 259t108 260t270 105q160 0 269 -104q107 -105 107 -259q0 -157 -108 -260q-108 -105 -270 -105zM410 532q-73 0 -121 -52t-48 -129q0 -78 49 -130q48 -53 122 -53q73 0 122 52t49 129q0 79 -49 131t-124 52zM632 768v-2h-108l-112 66
l-113 -66h-107v2l134 166h172zM412 -246q-41 0 -68.5 26.5t-27.5 65.5q0 40 27.5 66t68.5 26t68.5 -26t27.5 -66q0 -39 -27.5 -65.5t-68.5 -26.5z" />
    <glyph glyph-name="uni1ED9" unicode="&#x1ed9;" horiz-adv-x="622" 
d="M311 -14q-125 0 -204 79q-80 80 -80 194q0 115 81 194q79 79 203 79t205 -78q80 -80 80 -194t-81 -194q-82 -80 -204 -80zM415 260q0 49 -29.5 81t-74.5 32t-74.5 -32.5t-29.5 -81.5t29.5 -81t74.5 -32t74.5 32.5t29.5 81.5zM524 599v-2h-98l-115 79l-116 -79h-97v2
l134 192h158zM311 -246q-41 0 -68.5 26.5t-27.5 65.5q0 40 27.5 66t68.5 26t68.5 -26t27.5 -66q0 -39 -27.5 -65.5t-68.5 -26.5z" />
    <glyph glyph-name="uni1EDA" unicode="&#x1eda;" horiz-adv-x="824" 
d="M789 346q0 -152 -108 -256q-109 -104 -270 -104q-162 0 -269 104t-107 258q0 153 108 257q107 103 272 103q35 0 86 -5q32 -3 59 -3q102 0 102 89q0 6 -0.5 13.5t-1 14t-0.5 12v9.5l-1 3h132q11 -38 11 -77q0 -124 -128 -160q115 -98 115 -258zM410 531q-73 0 -121 -52
q-48 -53 -48 -129q0 -78 49 -130q48 -52 122 -52q73 0 122 52t49 129q0 78 -49 130t-124 52zM668 932l-209 -166h-104l84 168h229v-2z" />
    <glyph glyph-name="uni1EDB" unicode="&#x1edb;" horiz-adv-x="622" 
d="M596 250q0 -111 -81 -187q-82 -77 -204 -77q-125 0 -204 78q-80 77 -80 192t82 193q82 77 208 77q5 0 11 -0.5t16.5 -1t21.5 -0.5q28 -3 52 -3q40 0 58 15t18 49q0 4 -0.5 17t-1.5 31h112q9 -31 9 -62q0 -102 -100 -131q83 -74 83 -190zM415 258q0 49 -29.5 80t-74.5 31
t-74.5 -31.5t-29.5 -80.5t29.5 -80t74.5 -31t74.5 31.5t29.5 80.5zM563 789l-213 -192h-91l87 194h217v-2z" />
    <glyph glyph-name="uni1EDC" unicode="&#x1edc;" horiz-adv-x="824" 
d="M789 346q0 -152 -108 -256q-109 -104 -270 -104q-162 0 -269 104t-107 258q0 153 108 257q107 103 272 103q35 0 86 -5q32 -3 59 -3q102 0 102 89q0 6 -0.5 13.5t-1 14t-0.5 12v9.5l-1 3h132q11 -38 11 -77q0 -124 -128 -160q115 -98 115 -258zM410 531q-73 0 -121 -52
q-48 -53 -48 -129q0 -78 49 -130q48 -52 122 -52q73 0 122 52t49 129q0 78 -49 130t-124 52zM156 934h229l84 -168h-104l-209 166v2z" />
    <glyph glyph-name="uni1EDD" unicode="&#x1edd;" horiz-adv-x="622" 
d="M596 250q0 -111 -81 -187q-82 -77 -204 -77q-125 0 -204 78q-80 77 -80 192t82 193q82 77 208 77q5 0 11 -0.5t16.5 -1t21.5 -0.5q28 -3 52 -3q40 0 58 15t18 49q0 4 -0.5 17t-1.5 31h112q9 -31 9 -62q0 -102 -100 -131q83 -74 83 -190zM415 258q0 49 -29.5 80t-74.5 31
t-74.5 -31.5t-29.5 -80.5t29.5 -80t74.5 -31t74.5 31.5t29.5 80.5zM59 791h217l87 -194h-91l-213 192v2z" />
    <glyph glyph-name="uni1EDE" unicode="&#x1ede;" horiz-adv-x="824" 
d="M789 346q0 -152 -108 -256q-109 -104 -270 -104q-162 0 -269 104t-107 258q0 153 108 257q107 103 272 103q35 0 86 -5q32 -3 59 -3q102 0 102 89q0 6 -0.5 13.5t-1 14t-0.5 12v9.5l-1 3h132q11 -38 11 -77q0 -124 -128 -160q115 -98 115 -258zM410 531q-73 0 -121 -52
q-48 -53 -48 -129q0 -78 49 -130q48 -52 122 -52q73 0 122 52t49 129q0 78 -49 130t-124 52zM571 904q0 -37 -28 -68q-29 -32 -111 -81l-81 25v2q53 38 74 58q18 16 18 30q0 20 -32 20q-49 0 -120 -39h-2v103q75 40 152 40q60 0 95 -24.5t35 -65.5z" />
    <glyph glyph-name="uni1EDF" unicode="&#x1edf;" horiz-adv-x="622" 
d="M596 250q0 -111 -81 -187q-82 -77 -204 -77q-125 0 -204 78q-80 77 -80 192t82 193q82 77 208 77q5 0 11 -0.5t16.5 -1t21.5 -0.5q28 -3 52 -3q40 0 58 15t18 49q0 4 -0.5 17t-1.5 31h112q9 -31 9 -62q0 -102 -100 -131q83 -74 83 -190zM415 258q0 49 -29.5 80t-74.5 31
t-74.5 -31.5t-29.5 -80.5t29.5 -80t74.5 -31t74.5 31.5t29.5 80.5zM465 750q0 -39 -29 -76q-27 -36 -110 -91l-81 26v2q55 46 73.5 66.5t18.5 35.5q0 24 -32 24q-47 0 -120 -47h-2v114q73 47 154 47q60 0 94 -27.5t34 -73.5z" />
    <glyph glyph-name="uni1EE0" unicode="&#x1ee0;" horiz-adv-x="824" 
d="M789 346q0 -152 -108 -256q-109 -104 -270 -104q-162 0 -269 104t-107 258q0 153 108 257q107 103 272 103q35 0 86 -5q32 -3 59 -3q102 0 102 89q0 6 -0.5 13.5t-1 14t-0.5 12v9.5l-1 3h132q11 -38 11 -77q0 -124 -128 -160q115 -98 115 -258zM410 531q-73 0 -121 -52
q-48 -53 -48 -129q0 -78 49 -130q48 -52 122 -52q73 0 122 52t49 129q0 78 -49 130t-124 52zM416 911q48 -23 65 -23t30 9q10 7 50 45l67 -54q-56 -76 -87 -102q-32 -26 -71 -26q-28 0 -87 29q-50 23 -67 23q-16 0 -29 -9q-15 -10 -50 -45l-67 53q55 75 87 103q32 26 70 26
q27 0 89 -29z" />
    <glyph glyph-name="uni1EE1" unicode="&#x1ee1;" horiz-adv-x="622" 
d="M304 744q46 -26 59 -26q14 0 25 10q16 16 43 52l63 -38q-44 -88 -72 -120q-29 -32 -64 -32q-24 0 -82 34q-46 26 -59 26t-23 -9q-9 -8 -45 -53l-63 37q42 86 73 120q29 32 63 32q23 0 82 -33zM596 250q0 -111 -81 -187q-82 -77 -204 -77q-125 0 -204 78q-80 77 -80 192
t82 193q82 77 208 77q5 0 11 -0.5t16.5 -1t21.5 -0.5q28 -3 52 -3q40 0 58 15t18 49q0 4 -0.5 17t-1.5 31h112q9 -31 9 -62q0 -102 -100 -131q83 -74 83 -190zM415 258q0 49 -29.5 80t-74.5 31t-74.5 -31.5t-29.5 -80.5t29.5 -80t74.5 -31t74.5 31.5t29.5 80.5z" />
    <glyph glyph-name="uni1EE2" unicode="&#x1ee2;" horiz-adv-x="824" 
d="M789 346q0 -152 -108 -256q-109 -104 -270 -104q-162 0 -269 104t-107 258q0 153 108 257q107 103 272 103q35 0 86 -5q32 -3 59 -3q102 0 102 89q0 6 -0.5 13.5t-1 14t-0.5 12v9.5l-1 3h132q11 -38 11 -77q0 -124 -128 -160q115 -98 115 -258zM410 531q-73 0 -121 -52
q-48 -53 -48 -129q0 -78 49 -130q48 -52 122 -52q73 0 122 52t49 129q0 78 -49 130t-124 52zM412 -246q-41 0 -68.5 26.5t-27.5 65.5q0 40 27.5 66t68.5 26t68.5 -26t27.5 -66q0 -39 -27.5 -65.5t-68.5 -26.5z" />
    <glyph glyph-name="uni1EE3" unicode="&#x1ee3;" horiz-adv-x="622" 
d="M596 250q0 -111 -81 -187q-82 -77 -204 -77q-125 0 -204 78q-80 77 -80 192t82 193q82 77 208 77q5 0 11 -0.5t16.5 -1t21.5 -0.5q28 -3 52 -3q40 0 58 15t18 49q0 4 -0.5 17t-1.5 31h112q9 -31 9 -62q0 -102 -100 -131q83 -74 83 -190zM415 258q0 49 -29.5 80t-74.5 31
t-74.5 -31.5t-29.5 -80.5t29.5 -80t74.5 -31t74.5 31.5t29.5 80.5zM311 -246q-41 0 -68.5 26.5t-27.5 65.5q0 40 27.5 66t68.5 26t68.5 -26t27.5 -66q0 -39 -27.5 -65.5t-68.5 -26.5z" />
    <glyph glyph-name="uni1EE4" unicode="&#x1ee4;" horiz-adv-x="785" 
d="M392 -11q-161 0 -247 86t-86 247v378h202v-382q0 -71 35 -110t98 -39q64 0 98.5 39t34.5 111v381h199v-378q0 -161 -86.5 -247t-247.5 -86zM392 -246q-41 0 -68.5 26.5t-27.5 65.5q0 40 27.5 66t68.5 26t68.5 -26t27.5 -66q0 -39 -27.5 -65.5t-68.5 -26.5z" />
    <glyph glyph-name="uni1EE5" unicode="&#x1ee5;" horiz-adv-x="638" 
d="M582 518v-518h-183v92q-41 -55 -83.5 -79.5t-96.5 -24.5q-79 0 -124.5 52.5t-45.5 144.5v333h190v-286q0 -79 70 -79q39 0 83 26v339h190zM316 -241q-41 0 -68.5 26.5t-27.5 65.5q0 40 27.5 66t68.5 26t68.5 -26t27.5 -66q0 -39 -27.5 -65.5t-68.5 -26.5z" />
    <glyph glyph-name="uni1EE6" unicode="&#x1ee6;" horiz-adv-x="785" 
d="M392 -11q-161 0 -247 86t-86 247v378h202v-382q0 -71 35 -110t98 -39q64 0 98.5 39t34.5 111v381h199v-378q0 -161 -86.5 -247t-247.5 -86zM551 899q0 -37 -28 -68q-29 -31 -111 -81l-81 25v2q53 38 74 58q18 17 18 30q0 20 -32 20q-49 0 -120 -39h-2v103q75 40 152 40
q60 0 95 -24.5t35 -65.5z" />
    <glyph glyph-name="uni1EE7" unicode="&#x1ee7;" horiz-adv-x="638" 
d="M582 518v-518h-183v92q-41 -55 -83.5 -79.5t-96.5 -24.5q-79 0 -124.5 52.5t-45.5 144.5v333h190v-286q0 -79 70 -79q39 0 83 26v339h190zM470 745q0 -39 -29 -76q-27 -36 -110 -91l-81 26v2q55 46 73.5 66.5t18.5 35.5q0 24 -32 24q-47 0 -120 -47h-2v114q73 47 154 47
q60 0 94 -27.5t34 -73.5z" />
    <glyph glyph-name="uni1EE8" unicode="&#x1ee8;" horiz-adv-x="828" 
d="M392 -11q-161 0 -247 86t-86 247v378h202v-382q0 -71 35 -110t98 -39q64 0 98.5 39t34.5 111v381h84q101 0 101 89q0 7 -0.5 13.5t-1 17.5t-0.5 21h131q11 -31 11 -77q0 -123 -126 -160v-282q0 -161 -86.5 -247t-247.5 -86zM648 927l-209 -166h-104l84 168h229v-2z" />
    <glyph glyph-name="uni1EE9" unicode="&#x1ee9;" horiz-adv-x="661" 
d="M582 437v-437h-183v92q-41 -55 -83.5 -79.5t-96.5 -24.5q-79 0 -124.5 52.5t-45.5 144.5v333h190v-286q0 -79 70 -79q39 0 83 26v339h94q42 0 61 15t19 48l-2 26q0 5 -0.5 10t-0.5 6h114q8 -27 8 -58q0 -99 -103 -128zM568 784l-213 -192h-91l87 194h217v-2z" />
    <glyph glyph-name="uni1EEA" unicode="&#x1eea;" horiz-adv-x="828" 
d="M392 -11q-161 0 -247 86t-86 247v378h202v-382q0 -71 35 -110t98 -39q64 0 98.5 39t34.5 111v381h84q101 0 101 89q0 7 -0.5 13.5t-1 17.5t-0.5 21h131q11 -31 11 -77q0 -123 -126 -160v-282q0 -161 -86.5 -247t-247.5 -86zM136 929h229l84 -168h-104l-209 166v2z" />
    <glyph glyph-name="uni1EEB" unicode="&#x1eeb;" horiz-adv-x="661" 
d="M582 437v-437h-183v92q-41 -55 -83.5 -79.5t-96.5 -24.5q-79 0 -124.5 52.5t-45.5 144.5v333h190v-286q0 -79 70 -79q39 0 83 26v339h94q42 0 61 15t19 48l-2 26q0 5 -0.5 10t-0.5 6h114q8 -27 8 -58q0 -99 -103 -128zM64 786h217l87 -194h-91l-213 192v2z" />
    <glyph glyph-name="uni1EEC" unicode="&#x1eec;" horiz-adv-x="828" 
d="M392 -11q-161 0 -247 86t-86 247v378h202v-382q0 -71 35 -110t98 -39q64 0 98.5 39t34.5 111v381h84q101 0 101 89q0 7 -0.5 13.5t-1 17.5t-0.5 21h131q11 -31 11 -77q0 -123 -126 -160v-282q0 -161 -86.5 -247t-247.5 -86zM551 899q0 -37 -28 -68q-29 -31 -111 -81
l-81 25v2q53 38 74 58q18 17 18 30q0 20 -32 20q-49 0 -120 -39h-2v103q75 40 152 40q60 0 95 -24.5t35 -65.5z" />
    <glyph glyph-name="uni1EED" unicode="&#x1eed;" horiz-adv-x="661" 
d="M582 437v-437h-183v92q-41 -55 -83.5 -79.5t-96.5 -24.5q-79 0 -124.5 52.5t-45.5 144.5v333h190v-286q0 -79 70 -79q39 0 83 26v339h94q42 0 61 15t19 48l-2 26q0 5 -0.5 10t-0.5 6h114q8 -27 8 -58q0 -99 -103 -128zM470 745q0 -39 -29 -76q-27 -36 -110 -91l-81 26v2
q55 46 73.5 66.5t18.5 35.5q0 24 -32 24q-47 0 -120 -47h-2v114q73 47 154 47q60 0 94 -27.5t34 -73.5z" />
    <glyph glyph-name="uni1EEE" unicode="&#x1eee;" horiz-adv-x="828" 
d="M392 -11q-161 0 -247 86t-86 247v378h202v-382q0 -71 35 -110t98 -39q64 0 98.5 39t34.5 111v381h84q101 0 101 89q0 7 -0.5 13.5t-1 17.5t-0.5 21h131q11 -31 11 -77q0 -123 -126 -160v-282q0 -161 -86.5 -247t-247.5 -86zM416 906q48 -23 65 -23t30 9q10 7 50 45
l67 -54q-56 -77 -87 -102q-32 -26 -71 -26q-28 0 -87 29q-50 23 -67 23q-16 0 -29 -9q-15 -10 -50 -45l-67 53q55 75 87 103q32 26 70 26q27 0 89 -29z" />
    <glyph glyph-name="uni1EEF" unicode="&#x1eef;" horiz-adv-x="661" 
d="M582 437v-437h-183v92q-41 -55 -83.5 -79.5t-96.5 -24.5q-79 0 -124.5 52.5t-45.5 144.5v333h190v-286q0 -79 70 -79q39 0 83 26v339h94q42 0 61 15t19 48l-2 26q0 5 -0.5 10t-0.5 6h114q8 -27 8 -58q0 -99 -103 -128zM324 747q51 -28 68 -28q12 0 24 9q14 12 49 54
l75 -49q-48 -85 -78 -117q-31 -31 -70 -31q-24 0 -84 33q-52 27 -68 27q-12 0 -23 -8q-13 -10 -50 -54l-75 48q50 89 79 118q30 31 69 31q24 0 84 -33z" />
    <glyph glyph-name="uni1EF0" unicode="&#x1ef0;" horiz-adv-x="828" 
d="M392 -11q-161 0 -247 86t-86 247v378h202v-382q0 -71 35 -110t98 -39q64 0 98.5 39t34.5 111v381h84q101 0 101 89q0 7 -0.5 13.5t-1 17.5t-0.5 21h131q11 -31 11 -77q0 -123 -126 -160v-282q0 -161 -86.5 -247t-247.5 -86zM392 -246q-41 0 -68.5 26.5t-27.5 65.5
q0 40 27.5 66t68.5 26t68.5 -26t27.5 -66q0 -39 -27.5 -65.5t-68.5 -26.5z" />
    <glyph glyph-name="uni1EF1" unicode="&#x1ef1;" horiz-adv-x="661" 
d="M582 437v-437h-183v92q-41 -55 -83.5 -79.5t-96.5 -24.5q-79 0 -124.5 52.5t-45.5 144.5v333h190v-286q0 -79 70 -79q39 0 83 26v339h94q42 0 61 15t19 48l-2 26q0 5 -0.5 10t-0.5 6h114q8 -27 8 -58q0 -99 -103 -128zM316 -241q-41 0 -68.5 26.5t-27.5 65.5
q0 40 27.5 66t68.5 26t68.5 -26t27.5 -66q0 -39 -27.5 -65.5t-68.5 -26.5z" />
    <glyph glyph-name="Ygrave" unicode="&#x1ef2;" horiz-adv-x="729" 
d="M729 700l-263 -428v-272h-202v272l-264 428h233l137 -245l137 245h222zM109 929h229l84 -168h-104l-209 166v2z" />
    <glyph glyph-name="ygrave" unicode="&#x1ef3;" horiz-adv-x="619" 
d="M160 -190q-48 0 -90 15l-36 168l2 2q42 -20 84 -20q65 0 100 45l-213 498h204l107 -289l95 289h200l-186 -487q-43 -114 -108 -167.5t-159 -53.5zM64 786h217l87 -194h-91l-213 192v2z" />
    <glyph glyph-name="uni1EF4" unicode="&#x1ef4;" horiz-adv-x="729" 
d="M729 700l-263 -428v-272h-202v272l-264 428h233l137 -245l137 245h222zM365 -241q-41 0 -68.5 26.5t-27.5 65.5q0 40 27.5 66t68.5 26t68.5 -26t27.5 -66q0 -39 -27.5 -65.5t-68.5 -26.5z" />
    <glyph glyph-name="uni1EF5" unicode="&#x1ef5;" horiz-adv-x="619" 
d="M160 -190q-48 0 -90 15l-36 168l2 2q42 -20 84 -20q65 0 100 45l-213 498h204l107 -289l95 289h200l-186 -487q-43 -114 -108 -167.5t-159 -53.5zM530 -221q-41 0 -68.5 26.5t-27.5 65.5q0 40 27.5 66t68.5 26t68.5 -26t27.5 -66q0 -39 -27.5 -65.5t-68.5 -26.5z" />
    <glyph glyph-name="uni1EF6" unicode="&#x1ef6;" horiz-adv-x="729" 
d="M729 700l-263 -428v-272h-202v272l-264 428h233l137 -245l137 245h222zM524 899q0 -37 -28 -68t-111 -81l-81 25v2q53 38 74 58q18 17 18 30q0 20 -32 20q-48 0 -120 -39h-2v103q75 40 152 40q60 0 95 -24.5t35 -65.5z" />
    <glyph glyph-name="uni1EF7" unicode="&#x1ef7;" horiz-adv-x="619" 
d="M160 -190q-48 0 -90 15l-36 168l2 2q42 -20 84 -20q65 0 100 45l-213 498h204l107 -289l95 289h200l-186 -487q-43 -114 -108 -167.5t-159 -53.5zM470 745q0 -39 -29 -76q-27 -36 -110 -91l-81 26v2q55 46 73.5 66.5t18.5 35.5q0 24 -32 24q-47 0 -120 -47h-2v114
q73 47 154 47q60 0 94 -27.5t34 -73.5z" />
    <glyph glyph-name="uni1EF8" unicode="&#x1ef8;" horiz-adv-x="729" 
d="M729 700l-263 -428v-272h-202v272l-264 428h233l137 -245l137 245h222zM389 906q48 -23 65 -23q16 0 30 9q10 7 50 45l67 -54q-55 -77 -87 -102q-32 -26 -71 -26q-28 0 -87 29q-50 23 -67 23q-15 0 -29 -9q-15 -10 -50 -45l-67 53q55 75 87 103q32 26 70 26q27 0 89 -29z
" />
    <glyph glyph-name="uni1EF9" unicode="&#x1ef9;" horiz-adv-x="619" 
d="M160 -190q-48 0 -90 15l-36 168l2 2q42 -20 84 -20q65 0 100 45l-213 498h204l107 -289l95 289h200l-186 -487q-43 -114 -108 -167.5t-159 -53.5zM324 747q51 -28 68 -28q12 0 24 9q14 12 49 54l75 -49q-48 -85 -78 -117q-31 -31 -70 -31q-24 0 -84 33q-52 27 -68 27
q-12 0 -23 -8q-13 -10 -50 -54l-75 48q50 89 79 118q30 31 69 31q24 0 84 -33z" />
    <glyph glyph-name="uni2002" unicode="&#x2002;" horiz-adv-x="500" 
 />
    <glyph glyph-name="uni2003" unicode="&#x2003;" horiz-adv-x="1000" 
 />
    <glyph glyph-name="uni2004" unicode="&#x2004;" horiz-adv-x="333" 
 />
    <glyph glyph-name="uni2005" unicode="&#x2005;" horiz-adv-x="250" 
 />
    <glyph glyph-name="uni2007" unicode="&#x2007;" horiz-adv-x="600" 
 />
    <glyph glyph-name="uni2009" unicode="&#x2009;" horiz-adv-x="125" 
 />
    <glyph glyph-name="uni200A" unicode="&#x200a;" horiz-adv-x="42" 
 />
    <glyph glyph-name="uni2011" unicode="&#x2011;" horiz-adv-x="405" 
d="M361 197h-317v166h317v-166z" />
    <glyph glyph-name="figuredash" unicode="&#x2012;" horiz-adv-x="600" 
d="M544 270h-488v164h488v-164z" />
    <glyph glyph-name="endash" unicode="&#x2013;" horiz-adv-x="565" 
d="M521 199h-477v162h477v-162z" />
    <glyph glyph-name="emdash" unicode="&#x2014;" horiz-adv-x="945" 
d="M901 199h-857v162h857v-162z" />
    <glyph glyph-name="uni2015" unicode="&#x2015;" horiz-adv-x="945" 
d="M901 199h-857v162h857v-162z" />
    <glyph glyph-name="quoteleft" unicode="&#x2018;" horiz-adv-x="281" 
d="M195 520q0 -27 11 -55q10 -27 51 -97h-198q-34 62 -34 114q0 100 180 227l56 -39q-42 -62 -54 -90q-12 -30 -12 -60z" />
    <glyph glyph-name="quoteright" unicode="&#x2019;" horiz-adv-x="281" 
d="M86 548q0 29 -10 56q-10 28 -51 96h197q34 -62 34 -114q0 -101 -180 -227l-56 39q41 59 54 89q12 29 12 61z" />
    <glyph glyph-name="quotesinglbase" unicode="&#x201a;" horiz-adv-x="272" 
d="M78 -36q0 29 -10 56q-10 28 -51 96h197q34 -62 34 -114q0 -101 -180 -227l-56 39q41 59 54 89q12 29 12 61z" />
    <glyph glyph-name="quotedblleft" unicode="&#x201c;" horiz-adv-x="527" 
d="M441 523q0 -26 11 -56q10 -29 51 -99h-191q-34 62 -34 114q0 100 179 227l50 -33q-42 -62 -53 -90q-13 -29 -13 -63zM188 523q0 -26 11 -56q11 -29 51 -99h-191q-34 62 -34 114q0 100 180 227l49 -33q-41 -62 -54 -92q-12 -30 -12 -61z" />
    <glyph glyph-name="quotedblright" unicode="&#x201d;" horiz-adv-x="527" 
d="M86 548q0 29 -10 56q-10 28 -51 96h191q33 -62 33 -114q0 -100 -179 -227l-50 39q41 59 54 89q12 29 12 61zM339 548q0 28 -10 54q-9 23 -52 98h191q34 -62 34 -114q0 -100 -180 -227l-49 39q42 60 55 92q11 30 11 58z" />
    <glyph glyph-name="quotedblbase" unicode="&#x201e;" horiz-adv-x="518" 
d="M77 -36q0 29 -10 56q-11 28 -51 96h191q33 -62 33 -114q0 -100 -179 -227l-50 39q41 59 54 89q12 29 12 61zM330 -36q0 28 -10 54q-9 23 -52 98h191q34 -62 34 -114q0 -100 -180 -227l-49 39q43 62 55 91q11 30 11 59z" />
    <glyph glyph-name="uni201F" unicode="&#x201f;" horiz-adv-x="527" 
d="M312 700h191q-40 -69 -51 -98q-11 -28 -11 -54q0 -32 12 -61q13 -30 54 -89l-50 -39q-179 127 -179 227q0 52 34 114zM59 700h191q-40 -69 -51 -98q-11 -28 -11 -54q0 -30 12 -58q11 -30 54 -92l-49 -39q-180 127 -180 227q0 52 34 114z" />
    <glyph glyph-name="dagger" unicode="&#x2020;" horiz-adv-x="532" 
d="M282 534h-32l-92 170h216zM311 474v31l170 92v-215zM51 597l170 -92v-31l-170 -92v215zM284 -10h-36l-88 298l90 157h32l90 -157z" />
    <glyph glyph-name="daggerdbl" unicode="&#x2021;" horiz-adv-x="532" 
d="M282 534h-32l-92 170h216zM311 480v32l170 92v-212zM51 604l170 -92v-32l-170 -88v212zM282 242h-32l-90 108l90 108h32l90 -108zM51 308l170 -88v-32l-170 -92v212zM311 188v32l170 88v-212zM250 166h32l92 -170h-216z" />
    <glyph glyph-name="bullet" unicode="&#x2022;" horiz-adv-x="557" 
d="M278 155q-82 0 -137 57q-57 57 -57 138t57 138q56 57 137 57t138 -57t57 -138t-57 -138t-138 -57z" />
    <glyph glyph-name="ellipsis" unicode="&#x2026;" horiz-adv-x="769" 
d="M638 -10q-45 0 -77 31.5t-32 76.5q0 44 32 76t77 32t76.5 -32t31.5 -76q0 -45 -31.5 -76.5t-76.5 -31.5zM385 -10q-45 0 -77 31.5t-32 76.5q0 44 32 76t77 32t76.5 -32t31.5 -76q0 -45 -31.5 -76.5t-76.5 -31.5zM132 -10q-45 0 -77 31.5t-32 76.5q0 44 32 76t77 32
t76.5 -32t31.5 -76q0 -45 -31.5 -76.5t-76.5 -31.5z" />
    <glyph glyph-name="uni202F" unicode="&#x202f;" horiz-adv-x="125" 
 />
    <glyph glyph-name="guilsinglleft" unicode="&#x2039;" horiz-adv-x="410" 
d="M23 275l294 254l62 -41l-146 -228l146 -230l-62 -41l-294 254v32z" />
    <glyph glyph-name="guilsinglright" unicode="&#x203a;" horiz-adv-x="410" 
d="M387 243l-294 -254l-62 41l146 228l-146 230l62 41l294 -254v-32z" />
    <glyph glyph-name="fraction" unicode="&#x2044;" horiz-adv-x="102" 
d="M77 335l-220 -337h-86l254 367l220 337h86z" />
    <glyph glyph-name="uni20A6" unicode="&#x20a6;" horiz-adv-x="903" 
d="M285 462l2 -195h116zM609 436h-110l112 -186zM793 175v-175h-229l-104 173h-172l2 -173h-187v175h-82v101h82v151h-82v101h82v172h236l103 -170h167l-2 170h186v-172h83v-101h-83v-151h83v-101h-83z" />
    <glyph glyph-name="uni20A9" unicode="&#x20a9;" horiz-adv-x="1198" 
d="M595 456l-55 -186h111zM874 434h-116l64 -209zM438 434h-113l50 -208zM513 175l-53 -180h-188l-51 180h-171v102h142l-43 150h-126v101h98l-49 172h188l42 -172h165l54 180h152l56 -180h168l42 172h184l-49 -172h94v-101h-122l-43 -150h136v-102h-165l-51 -180h-188
l-55 180h-167z" />
    <glyph glyph-name="dong" unicode="&#x20ab;" horiz-adv-x="630" 
d="M204 227q0 -44 24.5 -70t65.5 -26q37 0 77 22v156q-35 17 -73 17q-43 0 -68.5 -27t-25.5 -72zM549 520v-520h-171v60q-64 -70 -147 -70q-85 0 -141 65t-56 163q0 105 62 170t159 65q66 0 116 -32v99h-147v102h147v79h178v-79h69v-102h-69zM560 -79v-101h-516v101h516z
" />
    <glyph glyph-name="Euro" unicode="&#x20ac;" horiz-adv-x="687" 
d="M434 -12q-125 0 -207.5 61.5t-111.5 175.5h-98v101h84v23q0 21 1 26h-85v101h101q31 111 115 173.5t202 62.5q111 0 199 -50v-191h-2q-96 70 -181 70q-103 0 -134 -77h204v-89h-216v-49h216v-89h-205q30 -78 140 -78q95 0 183 60h2l-19 -183q-77 -48 -188 -48z" />
    <glyph glyph-name="uni20B1" unicode="&#x20b1;" horiz-adv-x="737" 
d="M348 543h-49v-198h49q55 0 85 26t30 75q0 46 -30 71.5t-85 25.5zM359 194h-57v-194h-199v394h-82v101h82v205h248q130 0 207 -52.5t91 -152.5h76v-101h-78q-18 -94 -94 -147t-194 -53z" />
    <glyph glyph-name="uni20B9" unicode="&#x20b9;" horiz-adv-x="649" 
d="M336 209l261 -206v-3h-245l-311 246l8 30h27q169 0 195 109h-231v96h231q-29 108 -198 108h-34v111h565v-101h-210q67 -47 86 -115h123v-101h-118q-20 -119 -149 -174z" />
    <glyph glyph-name="uni20BA" unicode="&#x20ba;" horiz-adv-x="639" 
d="M259 -6q-69 0 -156 16v182l-82 -38v113l82 37v67l-82 -37v113l82 37v216h196v-135l156 72v-113l-156 -71v-68l156 72v-113l-156 -71v-103q166 5 273 162h3l42 -184q-52 -72 -146.5 -113t-211.5 -41z" />
    <glyph glyph-name="uni20BD" unicode="&#x20bd;" horiz-adv-x="662" 
d="M345 541h-46v-181h45q51 0 78.5 24.5t27.5 68.5q0 88 -105 88zM304 211h240v-94h-240v-117h-201v117h-82v94h82v57h-82v94h82v338h263q129 0 203.5 -57t74.5 -156q0 -105 -73 -162t-207 -57h-60v-57z" />
    <glyph glyph-name="uni2117" unicode="&#x2117;" horiz-adv-x="890" 
d="M160 68q-118 113 -118 281q0 165 119 282q120 115 285 115t284 -114q118 -113 118 -281q0 -165 -119 -282q-120 -115 -285 -115t-284 114zM444 714q-154 0 -261 -105q-108 -107 -108 -258q0 -153 109 -259q107 -106 262 -106t262 106q107 105 107 257q0 153 -108 259
q-109 106 -263 106zM463 478h-43v-125h42q77 0 77 64q0 29 -20 45t-56 16zM676 426q0 -77 -55.5 -120t-154.5 -43h-44v-138h-140v455h187q98 0 152.5 -40.5t54.5 -113.5z" />
    <glyph glyph-name="uni2120" unicode="&#x2120;" horiz-adv-x="972" 
d="M170 455q-73 24 -100.5 53t-27.5 75q0 55 43.5 89.5t114.5 34.5q72 0 130 -28v-106q-69 39 -131 39q-32 0 -32 -21q0 -9 10.5 -16t45.5 -19q73 -24 101 -53t28 -76q0 -59 -43.5 -93.5t-116.5 -34.5q-78 0 -140 37l-13 109q81 -51 154 -51q34 0 34 24q0 9 -11 17t-46 20z
M801 560l-137 -260h-11l-136 257v-251h-114v394h168l89 -184l89 184h167v-394h-115v254z" />
    <glyph glyph-name="trademark" unicode="&#x2122;" horiz-adv-x="1009" 
d="M23 700h366v-106h-124v-288h-118v288h-124v106zM838 559l-136 -259h-11l-136 256v-250h-115v394h168l90 -184l88 184h167v-394h-115v253z" />
    <glyph glyph-name="onethird" unicode="&#x2153;" horiz-adv-x="880" 
d="M247 711l8 -4v-429h-132v242l-99 -53v128zM442 335l-220 -337h-86l254 367l220 337h86zM857 115q0 -54 -45.5 -88t-117.5 -34q-74 0 -143 35l-13 112l2 1q78 -48 136 -48q49 0 49 33q0 20 -25.5 33t-99.5 34v36q76 30 98 43q21 12 21 29q0 28 -43 28q-55 0 -127 -48h-1
v105q67 42 152 42q69 0 110.5 -29.5t41.5 -78.5q0 -66 -84 -101q89 -30 89 -104z" />
    <glyph glyph-name="twothirds" unicode="&#x2154;" horiz-adv-x="942" 
d="M360 384l-33 -106h-296l-8 69l144 148q38 39 38 66q0 34 -36 34q-54 0 -130 -75h-1l-8 125q68 62 162 62q68 0 107 -34.5t39 -91.5q0 -36 -16 -67t-55 -70l-59 -61zM504 335l-220 -337h-86l254 367l220 337h86zM918 115q0 -54 -45.5 -88t-117.5 -34q-74 0 -143 35
l-13 112l2 1q78 -48 136 -48q49 0 49 33q0 20 -25.5 33t-99.5 34v36q76 30 98 43q21 12 21 29q0 28 -43 28q-55 0 -127 -48h-1v105q67 42 152 42q69 0 110.5 -29.5t41.5 -78.5q0 -66 -84 -101q89 -30 89 -104z" />
    <glyph glyph-name="oneeighth" unicode="&#x215b;" horiz-adv-x="919" 
d="M247 711l8 -4v-429h-132v242l-99 -53v128zM442 335l-220 -337h-86l254 367l220 337h86zM879 111q0 -54 -50.5 -86.5t-133.5 -32.5q-86 0 -135 32t-49 87q0 72 78 104q-65 29 -65 96q0 54 46 86t125 32t125.5 -32t46.5 -86q0 -66 -65 -96q77 -32 77 -104zM695 343
q-20 0 -32.5 -12.5t-12.5 -32.5t12.5 -33t32.5 -13q21 0 33.5 13t12.5 33t-12.5 32.5t-33.5 12.5zM695 175q-23 0 -37.5 -13.5t-14.5 -34.5q0 -48 52 -48t52 48q0 21 -14 34.5t-38 13.5z" />
    <glyph glyph-name="threeeighths" unicode="&#x215c;" horiz-adv-x="950" 
d="M341 393q0 -54 -45.5 -88t-117.5 -34q-74 0 -143 35l-13 112l2 1q78 -48 136 -48q49 0 49 33q0 20 -25.5 33t-99.5 34v36q76 30 98 43q21 12 21 29q0 28 -43 28q-55 0 -127 -48h-1v105q67 42 152 42q69 0 110.5 -29.5t41.5 -78.5q0 -66 -84 -101q89 -30 89 -104zM473 335
l-220 -337h-86l254 367l220 337h86zM910 111q0 -54 -50.5 -86.5t-133.5 -32.5q-86 0 -135 32t-49 87q0 72 78 104q-65 29 -65 96q0 54 46 86t125 32t125.5 -32t46.5 -86q0 -66 -65 -96q77 -32 77 -104zM726 343q-20 0 -32.5 -12.5t-12.5 -32.5t12.5 -33t32.5 -13
q21 0 33.5 13t12.5 33t-12.5 32.5t-33.5 12.5zM726 175q-23 0 -37.5 -13.5t-14.5 -34.5q0 -48 52 -48t52 48q0 21 -14 34.5t-38 13.5z" />
    <glyph glyph-name="fiveeighths" unicode="&#x215d;" horiz-adv-x="967" 
d="M356 413q0 -65 -51.5 -103.5t-137.5 -38.5q-64 0 -126 22l-10 102l1 1q74 -27 120 -27q33 0 52 13t19 36q0 46 -71 46q-40 0 -106 -14l-6 3l15 247h279v-104h-189l-4 -54q16 4 47 4q80 0 124 -34.5t44 -98.5zM490 335l-220 -337h-86l254 367l220 337h86zM927 111
q0 -54 -50.5 -86.5t-133.5 -32.5q-86 0 -135 32t-49 87q0 72 78 104q-65 29 -65 96q0 54 46 86t125 32t125.5 -32t46.5 -86q0 -66 -65 -96q77 -32 77 -104zM743 343q-20 0 -32.5 -12.5t-12.5 -32.5t12.5 -33t32.5 -13q21 0 33.5 13t12.5 33t-12.5 32.5t-33.5 12.5zM743 175
q-23 0 -37.5 -13.5t-14.5 -34.5q0 -48 52 -48t52 48q0 21 -14 34.5t-38 13.5z" />
    <glyph glyph-name="seveneighths" unicode="&#x215e;" horiz-adv-x="907" 
d="M382 700l3 -4l-194 -418h-138l150 316h-167l-13 106h359zM430 335l-220 -337h-86l254 367l220 337h86zM866 111q0 -54 -50.5 -86.5t-133.5 -32.5q-86 0 -135 32t-49 87q0 72 78 104q-65 29 -65 96q0 54 46 86t125 32t125.5 -32t46.5 -86q0 -66 -65 -96q77 -32 77 -104z
M682 343q-20 0 -32.5 -12.5t-12.5 -32.5t12.5 -33t32.5 -13q21 0 33.5 13t12.5 33t-12.5 32.5t-33.5 12.5zM682 175q-23 0 -37.5 -13.5t-14.5 -34.5q0 -48 52 -48t52 48q0 21 -14 34.5t-38 13.5z" />
    <glyph glyph-name="minus" unicode="&#x2212;" horiz-adv-x="600" 
d="M35 427h530v-154h-530v154z" />
    <glyph glyph-name="approxequal" unicode="&#x2248;" horiz-adv-x="600" 
d="M188 608q36 0 136 -61q66 -41 83 -41q15 0 32 20q17 22 47 82l86 -42q-45 -115 -80 -161q-35 -44 -82 -44q-39 0 -136 62q-66 41 -83 41t-32 -19q-13 -15 -47 -82l-86 41q46 117 81 161q33 43 81 43zM190 339q36 0 136 -61q66 -41 83 -41q16 0 33 20q14 18 46 81l86 -42
q-45 -115 -80 -161q-34 -43 -82 -43q-36 0 -136 61q-66 41 -83 41t-32 -19q-13 -15 -47 -82l-86 41q46 118 81 162q33 43 81 43z" />
    <glyph glyph-name="notequal" unicode="&#x2260;" horiz-adv-x="600" 
d="M335 311h224v-132h-288l-63 -131l-88 41l43 90h-122v132h186l38 78h-224v132h288l63 131l88 -41l-43 -90h122v-132h-186z" />
    <glyph glyph-name="uni237F" unicode="&#x237f;" horiz-adv-x="548" 
d="M338 185v-275h-127v274q-56 16 -91 62t-35 104t35 104t91 62v264h127v-265q55 -15 90 -61t35 -104t-35 -104t-90 -61z" />
    <glyph glyph-name="uniA788" unicode="&#xa788;" horiz-adv-x="500" 
d="M463 -259v-2h-98l-115 79l-116 -79h-97v2l134 192h158z" />
    <glyph glyph-name="G.alt" horiz-adv-x="782" 
d="M383 392h369v-42q0 -170 -92 -267q-93 -97 -258 -97q-160 0 -264 101q-103 100 -103 258q0 161 109 264q107 103 274 103q151 0 276 -90l-53 -176v-1q-66 47 -116 66.5t-104 19.5q-79 0 -129 -53q-51 -52 -51 -138q0 -82 46 -132.5t120 -50.5q120 0 149 105h-173v130z
" />
    <glyph glyph-name="Q.alt" horiz-adv-x="832" 
d="M717 141l80 -69l-87 -87l-79 72q-97 -70 -230 -70q-156 0 -261 105q-105 104 -105 258q0 155 108 260q109 104 270 104q157 0 263 -98q113 -102 113 -254q0 -126 -72 -221zM241 346q0 -81 49 -134q50 -54 123 -54q44 0 81 20l-106 93l87 87l97 -89q14 37 14 77
q0 78 -50 133q-50 53 -124 53t-122 -53q-49 -52 -49 -133z" />
    <glyph glyph-name="a.alt" horiz-adv-x="643" 
d="M209 254q0 -49 27.5 -78.5t71.5 -29.5q40 0 87 25v191q-27 10 -64 10q-54 0 -88 -32.5t-34 -85.5zM584 153l18 -153h-179l-15 80q-39 -48 -78 -68.5t-91 -20.5q-92 0 -151 71q-60 70 -60 181q0 126 82 204t211 78q75 0 145 -27l105 23h13v-368z" />
    <glyph glyph-name="a.sc" horiz-adv-x="714" 
d="M353 400l-64 -175h127zM466 567l231 -567h-206l-31 87h-214l-32 -87h-197l232 567h217z" />
    <glyph glyph-name="b.sc" horiz-adv-x="609" 
d="M572 164q0 -76 -60.5 -120t-162.5 -44h-291v566h283q99 0 156 -40.5t57 -110.5q0 -77 -81 -121q99 -41 99 -130zM314 433h-74v-92h73q28 0 44 13t16 35q0 21 -16 32.5t-43 11.5zM320 227h-80v-96h80q29 0 46.5 13t17.5 35q0 48 -64 48z" />
    <glyph glyph-name="c.sc" horiz-adv-x="579" 
d="M327 -10q-129 0 -211 82q-84 82 -84 210q0 127 85 211q86 83 216 83q114 0 188 -53v-180l-3 -1q-77 69 -158 69q-56 0 -92.5 -36t-36.5 -91q0 -58 36.5 -93.5t95.5 -35.5q91 0 164 60l2 -1l-20 -181q-76 -43 -182 -43z" />
    <glyph glyph-name="d.sc" horiz-adv-x="663" 
d="M438 282q0 62 -38 95.5t-108 33.5h-41v-256h41q69 0 107.5 33.5t38.5 93.5zM287 0h-229v566h235q163 0 250.5 -73.5t87.5 -208.5t-90 -209.5t-254 -74.5z" />
    <glyph glyph-name="e.sc" horiz-adv-x="538" 
d="M502 148l-21 -148h-423v566h421l21 -148h-254v-77h213v-115h-213v-78h256z" />
    <glyph glyph-name="f.sc" horiz-adv-x="526" 
d="M251 321h193v-141h-193v-180h-193v566h436l-21 -154h-222v-91z" />
    <glyph glyph-name="g.sc" horiz-adv-x="651" 
d="M326 319h270v-273q-118 -55 -248 -55q-146 0 -231 77q-85 76 -85 212q0 135 93 216q92 80 243 80q115 0 214 -38v-165q-104 43 -191 43q-76 0 -120 -38t-44 -103q0 -67 39 -102t112 -35q31 0 46 3v74h-98v104z" />
    <glyph glyph-name="g.scalt" horiz-adv-x="661" 
d="M318 322h311v-39q0 -138 -77.5 -217t-215.5 -79q-136 0 -219 82q-85 82 -85 210t89 214q88 85 223 85q129 0 233 -71l-47 -148h-2q-87 63 -165 63q-64 0 -102.5 -39.5t-38.5 -107.5q0 -65 34 -103.5t91 -38.5q84 0 107 76h-136v113z" />
    <glyph glyph-name="h.sc" horiz-adv-x="700" 
d="M642 566v-566h-194v203h-197v-203h-193v566h193v-198h197v198h194z" />
    <glyph glyph-name="i.sc" horiz-adv-x="316" 
d="M254 566v-566h-193v566h193z" />
    <glyph glyph-name="j.sc" horiz-adv-x="456" 
d="M135 153q34 0 53.5 20.5t19.5 56.5v336h194v-374q0 -92 -58 -145.5t-157 -53.5q-77 0 -140 31l-20 162l1 2q58 -35 107 -35z" />
    <glyph glyph-name="k.sc" horiz-adv-x="665" 
d="M657 2v-2h-227l-156 210h-23v-210h-193v566h193v-205h18l160 205h221v-2l-220 -269z" />
    <glyph glyph-name="l.sc" horiz-adv-x="508" 
d="M471 163v-163h-413v566h193v-403h220z" />
    <glyph glyph-name="m.sc" horiz-adv-x="882" 
d="M635 333l-188 -342h-14l-188 342l3 -333h-190v566h253l131 -260l131 260h251v-566h-192z" />
    <glyph glyph-name="n.sc" horiz-adv-x="704" 
d="M646 566v-567h-145l-255 292l2 -291h-190v566h181l219 -251l-2 251h190z" />
    <glyph glyph-name="o.sc" horiz-adv-x="686" 
d="M344 580q135 0 223 -85q87 -85 87 -211q0 -127 -88 -212q-89 -86 -223 -86q-135 0 -223 85t-88 211q0 127 89 213q88 85 223 85zM344 150q51 0 84 37t33 95q0 59 -33.5 97t-84.5 38t-84.5 -37.5t-33.5 -95.5q0 -59 33.5 -96.5t85.5 -37.5z" />
    <glyph glyph-name="p.sc" horiz-adv-x="589" 
d="M298 422h-50v-129h49q37 0 58.5 17.5t21.5 48.5q0 29 -21 46t-58 17zM563 368q0 -101 -65.5 -156t-184.5 -55h-62v-157h-193v566h255q117 0 183.5 -52.5t66.5 -145.5z" />
    <glyph glyph-name="q.sc" horiz-adv-x="686" 
d="M495 -121q-74 0 -122.5 28t-90.5 94q-113 18 -181 95q-69 76 -69 186q0 127 89 213q88 85 223 85q134 0 223 -83q88 -82 88 -205q0 -86 -45 -153.5t-124 -101.5q24 -32 74 -32q42 0 82 21l4 -2l-49 -128q-43 -17 -102 -17zM344 150q51 0 84.5 37t33.5 95q0 59 -33.5 97
t-85.5 38q-51 0 -84.5 -37.5t-33.5 -95.5q0 -59 33.5 -96.5t85.5 -37.5z" />
    <glyph glyph-name="q.scalt" horiz-adv-x="693" 
d="M223 280q0 -59 35 -100t84 -41q35 0 61 15l-85 72l65 71l76 -66q7 21 7 47q0 58 -35 99q-36 40 -88 40q-53 0 -86.5 -38.5t-33.5 -98.5zM598 116l62 -50l-70 -77l-63 57q-83 -58 -192 -58q-132 0 -217 85q-86 84 -86 210t89 212q88 85 223 85q133 0 222 -83
q88 -84 88 -208q0 -97 -56 -173z" />
    <glyph glyph-name="r.sc" horiz-adv-x="628" 
d="M306 429h-59v-133h58q36 0 57.5 18t21.5 49t-20.5 48.5t-57.5 17.5zM469 219l164 -219h-223l-135 190h-25v-190h-192v566h284q105 0 165.5 -49.5t60.5 -137.5q0 -106 -99 -160z" />
    <glyph glyph-name="s.sc" horiz-adv-x="527" 
d="M271 437q-53 0 -53 -31q0 -15 14 -24.5t55 -20.5q122 -30 166 -73q44 -44 44 -117q0 -81 -66 -131q-68 -50 -176 -50q-110 0 -203 54l-19 166l2 1q54 -37 116 -59.5t110 -22.5q54 0 54 33q0 16 -16 26t-64 24q-113 30 -156 73q-44 44 -44 113q0 80 66 129q64 49 173 49
q104 0 189 -40v-155h-2q-101 56 -190 56z" />
    <glyph glyph-name="t.sc" horiz-adv-x="624" 
d="M25 566h574v-162h-190v-404h-194v404h-190v162z" />
    <glyph glyph-name="u.sc" horiz-adv-x="665" 
d="M332 -11q-132 0 -206 72t-74 202v303h194v-309q0 -106 88 -106q43 0 66 27.5t23 79.5v308h190v-303q0 -129 -74.5 -201.5t-206.5 -72.5z" />
    <glyph glyph-name="v.sc" horiz-adv-x="698" 
d="M687 566l-241 -570h-195l-239 570h212l130 -345l129 345h204z" />
    <glyph glyph-name="w.sc" horiz-adv-x="967" 
d="M487 231l-124 -235h-154l-182 570h208l86 -306l159 312h13l159 -306l85 300h204l-183 -570h-155z" />
    <glyph glyph-name="x.sc" horiz-adv-x="678" 
d="M453 288l209 -288h-220l-107 156l-103 -156h-215l208 287l-202 279h220l100 -147l97 147h216z" />
    <glyph glyph-name="y.sc" horiz-adv-x="656" 
d="M654 566l-229 -353v-213h-193v213l-229 353h221l110 -193l110 193h210z" />
    <glyph glyph-name="z.sc" horiz-adv-x="624" 
d="M339 154h270l-43 -154h-536l-3 11l259 401h-233v154h538l4 -11z" />
    <glyph glyph-name="quoteleftreversed" horiz-adv-x="281" 
d="M59 700h198q-40 -69 -51 -98q-11 -28 -11 -54q0 -30 12 -58q11 -30 54 -92l-56 -39q-180 127 -180 227q0 52 34 114z" />
    <glyph glyph-name="guillemotleft.cap" horiz-adv-x="695" 
d="M321 366l281 254l61 -41l-132 -228l132 -230l-61 -41l-281 254v32zM23 366l281 254l61 -41l-132 -228l132 -230l-61 -41l-281 254v32z" />
    <glyph glyph-name="guillemotright.cap" horiz-adv-x="695" 
d="M374 334l-281 -255l-62 41l133 228l-133 230l62 41l281 -254v-31zM672 334l-281 -255l-62 41l133 228l-133 230l62 41l281 -254v-31z" />
    <glyph glyph-name="guilsinglleft.cap" horiz-adv-x="410" 
d="M23 366l294 254l62 -41l-146 -228l146 -230l-62 -41l-294 254v32z" />
    <glyph glyph-name="guilsinglright.cap" horiz-adv-x="410" 
d="M387 334l-294 -254l-62 41l146 228l-146 230l62 41l294 -254v-32z" />
    <glyph glyph-name="parenleft.cap" horiz-adv-x="460" 
d="M249 348q0 -110 44 -204t150 -197l-46 -52q-176 96 -257 206q-79 107 -79 247t79 247q81 110 257 206l46 -52q-106 -103 -150 -197t-44 -204z" />
    <glyph glyph-name="parenright.cap" horiz-adv-x="460" 
d="M211 348q0 110 -44 204t-150 197l46 52q176 -96 257 -206q79 -107 79 -247t-79 -247q-81 -110 -257 -206l-46 52q106 103 150 197t44 204z" />
    <glyph glyph-name="bracketleft.cap" horiz-adv-x="442" 
d="M417 15l-17 -102h-326v870h326l17 -102h-168v-666h168z" />
    <glyph glyph-name="bracketright.cap" horiz-adv-x="442" 
d="M25 681l16 102h326v-870h-326l-16 102h168v666h-168z" />
    <glyph glyph-name="braceleft.cap" horiz-adv-x="549" 
d="M399 15h125l-16 -102h-171q-93 0 -146 37t-53 102q0 39 35 114q25 54 25 73q0 24 -17.5 37t-61.5 22l-94 19v62l94 19q44 9 61.5 22t17.5 37q0 19 -25 73q-35 75 -35 114q0 65 53 102t146 37h171l16 -102h-125q-73 0 -73 -53q0 -18 20 -66q28 -68 28 -104
q0 -39 -27.5 -65.5t-87.5 -44.5q60 -18 87.5 -44.5t27.5 -65.5q0 -36 -28 -104q-20 -48 -20 -66q0 -53 73 -53z" />
    <glyph glyph-name="braceright.cap" horiz-adv-x="549" 
d="M411 52q0 -65 -53 -102t-146 -37h-171l-16 102h125q73 0 73 53q0 18 -20 66q-28 68 -28 104q0 39 27.5 65.5t87.5 44.5q-60 18 -87.5 44.5t-27.5 65.5q0 36 28 104q20 48 20 66q0 53 -73 53h-125l16 102h171q93 0 146 -37t53 -102q0 -39 -35 -114q-25 -54 -25 -73
q0 -24 17.5 -37t61.5 -22l94 -19v-62l-94 -19q-44 -9 -61.5 -22t-17.5 -37q0 -19 25 -73q35 -75 35 -114z" />
    <glyph glyph-name="slash.cap" horiz-adv-x="498" 
d="M493 780l-351 -870h-135l351 870h135z" />
    <glyph glyph-name="bar.cap" horiz-adv-x="393" 
d="M133 780h127v-870h-127v870z" />
    <glyph glyph-name="backslash.cap" horiz-adv-x="498" 
d="M4 780h135l351 -870h-135z" />
    <glyph glyph-name="hyphen.cap" horiz-adv-x="423" 
d="M374 266h-324v175h324v-175z" />
    <glyph glyph-name="endash.cap" horiz-adv-x="567" 
d="M522 273h-477v162h477v-162z" />
    <glyph glyph-name="emdash.cap" horiz-adv-x="947" 
d="M902 273h-857v162h857v-162z" />
    <glyph glyph-name="periodcentered.cap" horiz-adv-x="318" 
d="M159 230q-51 0 -85 36q-36 34 -36 85q0 50 36 86q34 36 85 36t87 -36q35 -37 35 -86q0 -50 -35 -85q-36 -36 -87 -36z" />
    <glyph glyph-name="colon.fig" horiz-adv-x="292" 
d="M146 390q-45 0 -77 32.5t-32 77.5t32 77.5t77 32.5q46 0 78 -32.5t32 -77.5t-32 -77.5t-78 -32.5zM146 97q-45 0 -77 32.5t-32 77.5t32 77.5t77 32.5q46 0 78 -32.5t32 -77.5t-32 -77.5t-78 -32.5z" />
    <glyph glyph-name="paragraph.alt" horiz-adv-x="692" 
d="M618 0h-143v700h143v-700zM302 700h104v-700h-104v129h-6q-122 0 -195 61q-74 62 -74 165q0 106 74 167t201 61v117z" />
    <glyph glyph-name="zero.osf" horiz-adv-x="652" 
d="M324 -14q-130 0 -210 79q-82 79 -82 205q0 123 84 204t211 81q129 0 211 -79t82 -204t-83 -205q-83 -81 -213 -81zM440 270q0 56 -32 92t-83 36q-49 0 -81 -35.5t-32 -90.5q0 -57 32 -93t83 -36q49 0 81 35.5t32 91.5z" />
    <glyph glyph-name="one.osf" horiz-adv-x="433" 
d="M350 553l17 -4v-549h-192v294l-145 -69v177z" />
    <glyph glyph-name="two.osf" horiz-adv-x="583" 
d="M340 149l224 4l-39 -153h-480l-8 84l225 181q62 51 62 84q0 18 -13 28.5t-35 10.5q-74 0 -205 -125h-2l-19 179q116 110 265 110q96 0 153 -46t57 -122q0 -105 -144 -204z" />
    <glyph glyph-name="three.osf" horiz-adv-x="576" 
d="M538 15q0 -92 -79 -150q-79 -57 -208 -57q-109 0 -191 29l-20 162q98 -32 191 -32q56 0 88 19t32 51q0 38 -49 57t-161 26l-10 75q123 57 165 87q41 29 41 58q0 49 -63 49q-94 0 -217 -92h-2v173q116 81 249 81q102 0 162.5 -49t60.5 -132q0 -108 -135 -177
q146 -43 146 -178z" />
    <glyph glyph-name="four.osf" horiz-adv-x="706" 
d="M378 360l-155 -219h155v219zM556 141h128v-141h-128v-187h-182v187h-351l-8 87l335 459h206v-405z" />
    <glyph glyph-name="five.osf" horiz-adv-x="583" 
d="M554 69q0 -120 -93 -191q-94 -70 -252 -70q-77 0 -152 14l-20 165q91 -18 150 -18q75 0 120 25.5t45 67.5q0 72 -113 72q-72 0 -164 -24l-11 7v423h451v-167h-293v-104q56 9 94 9q110 0 174 -56t64 -153z" />
    <glyph glyph-name="six.osf" horiz-adv-x="653" 
d="M620 256q0 -116 -82 -192q-82 -78 -213 -78q-134 0 -210 73q-78 73 -78 191q0 73 28 142t99 172l125 179h217l-172 -239q-5 -5 -6 -8q16 3 48 3q108 0 176 -67q68 -68 68 -176zM220 263q0 -54 29.5 -85t80.5 -31q47 0 77 30t30 75q0 51 -33 79.5t-91 28.5q-21 0 -72 -7
q-21 -43 -21 -90z" />
    <glyph glyph-name="seven.osf" horiz-adv-x="612" 
d="M595 540l6 -7l-326 -720h-207l262 559h-277l-20 168h562z" />
    <glyph glyph-name="eight.osf" horiz-adv-x="656" 
d="M616 198q0 -94 -79 -152t-210 -58q-129 0 -208 58q-79 57 -79 151q0 124 131 179q-107 51 -107 168q0 90 73 148t191 58t191 -57q72 -58 72 -149q0 -113 -106 -168q63 -25 97 -71t34 -107zM327 610q-36 0 -58.5 -24t-22.5 -62q0 -37 23.5 -62.5t58.5 -25.5t58 25t23 63
t-22.5 62t-59.5 24zM327 311q-40 0 -66.5 -26.5t-26.5 -65.5q0 -40 26.5 -66.5t67.5 -26.5t67 26t26 67q0 39 -26.5 65.5t-67.5 26.5z" />
    <glyph glyph-name="nine.osf" horiz-adv-x="641" 
d="M468 -46l-96 -141h-218l156 217q2 4 7 10q-34 -2 -37 -2q-112 0 -180 66t-68 179q0 116 81 194q79 78 205 78q131 0 209 -75q77 -75 77 -199q0 -73 -28 -141q-28 -69 -108 -186zM217 287q0 -50 31.5 -78.5t86.5 -28.5q35 0 65 6q23 50 23 90q0 52 -28.5 83t-77.5 31
q-44 0 -72 -29t-28 -74z" />
    <glyph glyph-name="plus.osf" horiz-adv-x="600" 
d="M381 350h184v-154h-184v-182h-162v182h-184v154h184v182h162v-182z" />
    <glyph glyph-name="divide.osf" horiz-adv-x="600" 
d="M300 391q-40 0 -68.5 28.5t-28.5 68.5q0 39 29 68t68 29q40 0 68.5 -28.5t28.5 -68.5t-28 -68.5t-69 -28.5zM300 337l265 8v-144l-265 8l-265 -8v144zM300 -39q-40 0 -68.5 28.5t-28.5 68.5q0 39 29 68t68 29q40 0 68.5 -28.5t28.5 -68.5t-28 -68.5t-69 -28.5z" />
    <glyph glyph-name="minus.osf" horiz-adv-x="600" 
d="M35 350h530v-154h-530v154z" />
    <glyph glyph-name="equal.osf" horiz-adv-x="600" 
d="M41 444h518v-132h-518v132zM41 234h518v-132h-518v132z" />
    <glyph glyph-name="notequal.osf" horiz-adv-x="600" 
d="M335 234h224v-132h-288l-63 -131l-88 41l43 90h-122v132h186l38 78h-224v132h288l63 131l88 -41l-43 -90h122v-132h-186z" />
    <glyph glyph-name="asciitilde.osf" horiz-adv-x="600" 
d="M189 407q36 0 136 -61q66 -41 83 -41q16 0 33 20q14 18 46 81l86 -42q-54 -137 -86 -181q-33 -44 -76 -44q-39 0 -136 62q-66 41 -83 41t-32 -19q-13 -15 -47 -82l-86 41q55 139 87 181q32 44 75 44z" />
    <glyph glyph-name="approxequal.osf" horiz-adv-x="600" 
d="M188 531q36 0 136 -61q66 -41 83 -41q15 0 32 20q17 22 47 82l86 -42q-45 -115 -80 -161q-35 -44 -82 -44q-39 0 -136 62q-66 41 -83 41t-32 -19q-13 -15 -47 -82l-86 41q46 117 81 161q33 43 81 43zM190 262q36 0 136 -61q66 -41 83 -41q16 0 33 20q14 18 46 81l86 -42
q-45 -115 -80 -161q-34 -43 -82 -43q-36 0 -136 61q-66 41 -83 41t-32 -19q-13 -15 -47 -82l-86 41q46 119 81 162q33 43 81 43z" />
    <glyph glyph-name="multiply.osf" horiz-adv-x="600" 
d="M408 275l153 -152l-113 -113l-149 154l-150 -154l-110 110l152 152l-152 152l113 112l149 -153l150 153l110 -110z" />
    <glyph glyph-name="less.osf" horiz-adv-x="600" 
d="M256 274l286 -113v-167l-491 219v120l491 220v-164z" />
    <glyph glyph-name="greater.osf" horiz-adv-x="600" 
d="M549 334v-120l-491 -220v164l286 115l-286 113v167z" />
    <glyph glyph-name="numbersign.osf" horiz-adv-x="642" 
d="M391 317h-115l-25 -94h115zM428 85l-24 -87h-99l24 87h-115l-24 -87h-99l24 87h-89v144h127l23 83h-110v144h149l23 86h99l-23 -86h115l23 86h99l-23 -86h88v-144h-127l-23 -83h110v-144h-148z" />
    <glyph glyph-name="cent.osf" horiz-adv-x="525" 
d="M481 219l2 -1l-18 -170q-63 -35 -134 -41l-9 -89h-134l11 105q-78 28 -122.5 93t-44.5 152q0 97 59 168t157 90l10 98h135l-11 -97q38 -6 96 -37v-168h-2q-75 49 -139 49q-53 0 -85.5 -28t-32.5 -74t31.5 -73.5t82.5 -27.5q79 0 148 51z" />
    <glyph glyph-name="zero.tab" horiz-adv-x="600" 
d="M572 350q0 -174 -71.5 -269t-200.5 -95t-200.5 95t-71.5 269t71.5 269t200.5 95t200.5 -95t71.5 -269zM300 546q-93 0 -93 -196t93 -196t93 196t-93 196z" />
    <glyph glyph-name="one.tab" horiz-adv-x="600" 
d="M420 166h141v-166h-492v166h156v290l-156 -73v184l318 149l33 -10v-540z" />
    <glyph glyph-name="two.tab" horiz-adv-x="600" 
d="M314 166l265 3l-26 -169h-510l-6 105l259 265q61 62 61 103q0 29 -19 46.5t-51 17.5q-92 0 -212 -143h-2l-26 191q109 126 272 126q105 0 166 -56.5t61 -152.5q0 -62 -29 -115q-29 -54 -105 -126z" />
    <glyph glyph-name="three.tab" horiz-adv-x="600" 
d="M562 184q0 -87 -73 -141t-187 -54q-130 0 -239 58l-20 179l2 1q124 -73 229 -73q44 0 68.5 15t24.5 42q0 24 -20.5 40t-74.5 34q-30 11 -124 37v57q124 44 165 67q43 24 43 51q0 22 -21.5 35t-60.5 13q-107 0 -215 -81h-2v173q111 74 246 74q113 0 180 -49
q68 -50 68 -132q0 -110 -139 -168q150 -46 150 -178z" />
    <glyph glyph-name="four.tab" horiz-adv-x="600" 
d="M329 266v283l-142 -283h142zM509 272h83v-143h-83v-129h-183v129h-307l-11 74l268 502h233v-433z" />
    <glyph glyph-name="five.tab" horiz-adv-x="600" 
d="M564 229q0 -109 -80 -175t-210 -66q-109 0 -208 37l-17 158l2 1q123 -44 201 -44q54 0 86 23.5t32 62.5q0 40 -31.5 61.5t-90.5 21.5q-79 0 -173 -29l-11 6l25 414h441v-155h-302l-7 -107q50 9 85 9q120 0 189 -58t69 -160z" />
    <glyph glyph-name="six.tab" horiz-adv-x="600" 
d="M579 249q0 -115 -78 -189q-79 -74 -202 -74q-127 0 -200 72q-75 72 -75 191q0 69 27 137t102 177l94 137h217l-167 -226q21 4 56 4q97 0 162 -63q64 -63 64 -166zM206 249q0 -46 27 -74.5t72 -28.5q41 0 68.5 27t27.5 67q0 46 -29.5 71.5t-80.5 25.5q-23 0 -65 -5
q-20 -45 -20 -83z" />
    <glyph glyph-name="seven.tab" horiz-adv-x="600" 
d="M586 700l4 -10l-306 -690h-203l245 531h-278l-20 169h558z" />
    <glyph glyph-name="eight.tab" horiz-adv-x="600" 
d="M569 189q0 -90 -74 -146q-73 -55 -195 -55t-195 55q-74 56 -74 146q0 118 115 168q-98 49 -98 156q0 89 69 144q68 55 183 55t183 -55q69 -55 69 -144q0 -106 -98 -156q115 -49 115 -168zM300 574q-36 0 -58.5 -21.5t-22.5 -55.5q0 -35 23 -57.5t58 -22.5q36 0 58.5 22.5
t22.5 57.5q0 33 -22.5 55t-58.5 22zM300 293q-38 0 -63.5 -24t-25.5 -59q0 -37 25 -60.5t64 -23.5q40 0 64.5 23.5t24.5 60.5q0 35 -25.5 59t-63.5 24z" />
    <glyph glyph-name="nine.tab" horiz-adv-x="600" 
d="M447 137l-94 -137h-217l166 224q-21 -4 -55 -4q-98 0 -162 64q-64 63 -64 166q0 115 78 190q79 74 202 74q126 0 201 -72q74 -72 74 -191q0 -69 -27 -136q-28 -70 -102 -178zM199 459q0 -45 29.5 -71t80.5 -26q23 0 65 5q20 41 20 84q0 46 -27 74.5t-72 28.5
q-41 0 -68.5 -27.5t-27.5 -67.5z" />
    <glyph glyph-name="twodotleader" horiz-adv-x="600" 
d="M450 -10q-44 0 -75 31t-31 74t31 74.5t75 31.5t75 -31t31 -75q0 -43 -31 -74t-75 -31zM150 -10q-44 0 -75 31t-31 74t31 74.5t75 31.5t75 -31t31 -75q0 -43 -31 -74t-75 -31z" />
    <glyph glyph-name="quotedbl.tab" horiz-adv-x="600" 
d="M404 388l-82 21l58 291h192zM143 388l-83 21l58 291h192z" />
    <glyph glyph-name="quotesingle.tab" horiz-adv-x="305" 
d="M124 388l-82 21l58 291h192z" />
    <glyph glyph-name="period.tab" horiz-adv-x="300" 
d="M150 -10q-46 0 -79 33t-33 78q0 46 33 79t79 33t79 -33t33 -79t-32.5 -78.5t-79.5 -32.5z" />
    <glyph glyph-name="comma.tab" horiz-adv-x="300" 
d="M19 -187l-59 45q61 74 83 147q23 74 21 194h194q-2 -141 -54 -226q-53 -87 -185 -160z" />
    <glyph glyph-name="colon.tab" horiz-adv-x="300" 
d="M150 305q-46 0 -79 33t-33 78q0 46 33 79t79 33t79 -33t33 -79t-32.5 -78.5t-79.5 -32.5zM150 -10q-46 0 -79 33t-33 78q0 46 33 79t79 33t79 -33t33 -79t-32.5 -78.5t-79.5 -32.5z" />
    <glyph glyph-name="colon.figtab" horiz-adv-x="300" 
d="M150 390q-45 0 -77.5 32.5t-32.5 77.5t32.5 77.5t77.5 32.5q46 0 78 -32.5t32 -77.5t-32 -77.5t-78 -32.5zM150 97q-45 0 -77.5 32.5t-32.5 77.5t32.5 77.5t77.5 32.5q46 0 78 -32.5t32 -77.5t-32 -77.5t-78 -32.5z" />
    <glyph glyph-name="periodcentered.tab" horiz-adv-x="300" 
d="M150 240q-46 0 -79 33t-33 78q0 46 33 79t79 33t79 -33t33 -79t-32.5 -78.5t-79.5 -32.5z" />
    <glyph glyph-name="slash.tab" horiz-adv-x="600" 
d="M597 783l-455 -870h-142l455 870h142z" />
    <glyph glyph-name="dollar.tab" horiz-adv-x="600" 
d="M345 1l-11 -123h-134l12 126q-91 12 -163 54l-25 185l2 1q154 -88 265 -88q81 0 81 48q0 24 -22.5 38t-88.5 31q-132 35 -180 83q-50 50 -50 131q0 90 67 147.5t183 65.5l10 108h134l-11 -116q73 -13 125 -40v-177h-2q-53 31 -114 49q-68 20 -117 20q-69 0 -69 -44
q0 -24 22 -38t87 -29q134 -36 183 -84t49 -135q0 -89 -62 -145.5t-171 -67.5z" />
    <glyph glyph-name="sterling.tab" horiz-adv-x="600" 
d="M300 159l273 6l-44 -165h-481l-9 101q87 76 106 104t22 61l-129 -11v108l93 5q-36 56 -48 87q-13 30 -13 66q0 83 70 137q71 53 184 53q116 0 221 -50l15 -184h-3q-105 69 -194 69q-36 0 -56.5 -17t-20.5 -45q0 -18 9 -37.5t40 -61.5l171 13v-109l-134 -6
q-4 -59 -72 -124z" />
    <glyph glyph-name="yen.tab" horiz-adv-x="600" 
d="M393 213h158v-101h-158v-112h-186v112h-158v101h158v48h-158v101h121l-165 338h205l94 -261l94 261h197l-165 -338h121v-101h-158v-48z" />
    <glyph glyph-name="Euro.tab" horiz-adv-x="600" 
d="M380 -12q-112 0 -185.5 61.5t-99.5 175.5h-77v101h64v23q0 21 1 26h-65v101h79q29 111 104.5 173.5t182.5 62.5q104 0 176 -42v-179h-2q-85 53 -153 53q-93 0 -120 -80h173v-89h-182v-49h182v-89h-174q26 -81 123 -81q83 0 158 47h2l-20 -172q-71 -43 -167 -43z" />
    <glyph glyph-name="zero.sup" horiz-adv-x="447" 
d="M424 612q0 -97 -56 -159q-57 -62 -145 -62q-89 0 -144 61q-56 61 -56 159q0 97 57 158q57 62 144 62q88 0 144 -60q56 -62 56 -159zM223 722q-32 0 -50.5 -29.5t-18.5 -80.5q0 -52 18.5 -82t51.5 -30q32 0 50.5 29.5t18.5 81.5q0 51 -18.5 81t-51.5 30z" />
    <glyph glyph-name="one.sup" horiz-adv-x="303" 
d="M247 833l8 -4v-429h-132v242l-99 -53v128z" />
    <glyph glyph-name="two.sup" horiz-adv-x="377" 
d="M360 506l-33 -106h-296l-8 69l144 148q38 39 38 66q0 34 -36 34q-54 0 -130 -75h-1l-8 125q68 62 162 62q68 0 107 -34.5t39 -91.5q0 -36 -16 -67t-55 -70l-59 -61z" />
    <glyph glyph-name="three.sup" horiz-adv-x="365" 
d="M341 515q0 -54 -45.5 -88t-117.5 -34q-74 0 -143 35l-13 112l2 1q78 -48 136 -48q49 0 49 33q0 20 -25.5 33t-99.5 34v36q76 30 98 43q21 12 21 29q0 28 -43 28q-55 0 -127 -48h-1v105q67 42 152 42q69 0 110.5 -29.5t41.5 -78.5q0 -66 -84 -101q89 -30 89 -104z" />
    <glyph glyph-name="four.sup" horiz-adv-x="425" 
d="M223 723l-79 -158h79v158zM346 565h64v-89h-64v-76h-125v76h-208l-4 32l178 317h159v-260z" />
    <glyph glyph-name="five.sup" horiz-adv-x="380" 
d="M356 535q0 -65 -51.5 -103.5t-137.5 -38.5q-64 0 -126 22l-10 102l1 1q74 -27 120 -27q33 0 52 13t19 36q0 46 -71 46q-40 0 -106 -14l-6 3l15 247h279v-104h-189l-4 -54q16 4 47 4q80 0 124 -34.5t44 -98.5z" />
    <glyph glyph-name="six.sup" horiz-adv-x="405" 
d="M389 552q0 -70 -52 -115q-52 -46 -134 -46q-83 0 -132 44t-49 116q0 41 18 81q15 37 67 108l60 82h153l-117 -135q39 3 43 3q64 0 103.5 -38t39.5 -100zM151 552q0 -27 15 -44t40 -17q23 0 38.5 16t15.5 40q0 54 -64 54q-22 0 -33 -3q-12 -22 -12 -46z" />
    <glyph glyph-name="seven.sup" horiz-adv-x="392" 
d="M382 822l3 -4l-194 -418h-138l150 316h-167l-13 106h359z" />
    <glyph glyph-name="eight.sup" horiz-adv-x="422" 
d="M395 511q0 -54 -50.5 -86.5t-133.5 -32.5q-86 0 -135 32t-49 87q0 72 78 104q-65 29 -65 96q0 54 46 86t125 32t125.5 -32t46.5 -86q0 -66 -65 -96q77 -32 77 -104zM211 743q-20 0 -32.5 -12.5t-12.5 -32.5t12.5 -33t32.5 -13q21 0 33.5 13t12.5 33t-12.5 32.5
t-33.5 12.5zM211 575q-23 0 -37.5 -13.5t-14.5 -34.5q0 -48 52 -48t52 48q0 21 -14 34.5t-38 13.5z" />
    <glyph glyph-name="nine.sup" horiz-adv-x="406" 
d="M301 482l-59 -82h-153l110 129q-12 -3 -37 -3q-63 0 -102.5 39t-39.5 102q0 72 51 118t134 46q84 0 132.5 -43.5t48.5 -116.5q0 -39 -17 -79q-15 -37 -68 -110zM149 673q0 -57 63 -57q4 0 31 3q14 24 14 52q0 27 -15 43.5t-40 16.5q-23 0 -38 -16.5t-15 -41.5z" />
    <glyph glyph-name="zero.inf" horiz-adv-x="447" 
d="M424 71q0 -98 -56 -160q-57 -61 -145 -61q-89 0 -144 60q-56 62 -56 160q0 97 57 158q57 62 144 62q88 0 144 -60q56 -62 56 -159zM223 181q-32 0 -50.5 -29.5t-18.5 -80.5q0 -52 18.5 -82t51.5 -30q32 0 50.5 29.5t18.5 81.5q0 51 -18.5 81t-51.5 30z" />
    <glyph glyph-name="one.inf" horiz-adv-x="303" 
d="M247 292l8 -4v-429h-132v242l-99 -53v128z" />
    <glyph glyph-name="two.inf" horiz-adv-x="377" 
d="M360 -35l-33 -106h-296l-8 69l144 148q38 39 38 66q0 34 -36 34q-54 0 -130 -75h-1l-8 125q68 62 162 62q68 0 107 -34.5t39 -91.5q0 -36 -16 -67t-55 -70l-59 -61z" />
    <glyph glyph-name="three.inf" horiz-adv-x="365" 
d="M341 -26q0 -54 -45.5 -88t-117.5 -34q-74 0 -143 35l-13 112l2 1q78 -48 136 -48q49 0 49 33q0 20 -25.5 33t-99.5 34v36q76 30 98 43q21 12 21 29q0 28 -43 28q-55 0 -127 -48h-1v105q67 42 152 42q69 0 110.5 -29.5t41.5 -78.5q0 -67 -84 -101q89 -30 89 -104z" />
    <glyph glyph-name="four.inf" horiz-adv-x="425" 
d="M223 182l-79 -158h79v158zM346 24h64v-89h-64v-76h-125v76h-208l-4 32l178 317h159v-260z" />
    <glyph glyph-name="five.inf" horiz-adv-x="380" 
d="M356 -6q0 -65 -51.5 -103.5t-137.5 -38.5q-64 0 -126 22l-10 102l1 1q74 -27 120 -27q33 0 52 13t19 36q0 46 -71 46q-40 0 -106 -14l-6 3l15 247h279v-104h-189l-4 -54q16 4 47 4q80 0 124 -34.5t44 -98.5z" />
    <glyph glyph-name="six.inf" horiz-adv-x="405" 
d="M389 11q0 -70 -52 -116q-53 -45 -134 -45q-83 0 -132 44t-49 116q0 40 18 81q15 37 67 108l60 82h153l-117 -135q39 3 43 3q64 0 103.5 -38t39.5 -100zM151 11q0 -27 15 -44t40 -17q23 0 38.5 16t15.5 40q0 54 -64 54q-22 0 -33 -3q-12 -22 -12 -46z" />
    <glyph glyph-name="seven.inf" horiz-adv-x="392" 
d="M382 281l3 -4l-194 -418h-138l150 316h-167l-13 106h359z" />
    <glyph glyph-name="eight.inf" horiz-adv-x="422" 
d="M395 -30q0 -54 -50.5 -86.5t-133.5 -32.5q-86 0 -135 32t-49 87q0 72 78 104q-65 29 -65 96q0 54 46 86t125 32t125.5 -32t46.5 -86q0 -66 -65 -96q77 -32 77 -104zM211 202q-20 0 -32.5 -12.5t-12.5 -32.5t12.5 -33t32.5 -13q21 0 33.5 13t12.5 33t-12.5 32.5
t-33.5 12.5zM211 34q-23 0 -37.5 -13.5t-14.5 -34.5q0 -48 52 -48t52 48q0 21 -14 34.5t-38 13.5z" />
    <glyph glyph-name="nine.inf" horiz-adv-x="406" 
d="M301 -59l-59 -82h-153l110 129q-12 -3 -37 -3q-63 0 -102.5 39t-39.5 102q0 72 51 118t134 46q84 0 132.5 -43.5t48.5 -116.5q0 -39 -17 -79q-15 -37 -68 -110zM149 132q0 -57 63 -57q4 0 31 3q14 24 14 52q0 27 -15 43.5t-40 16.5q-23 0 -38 -16.5t-15 -41.5z" />
    </font>
</defs>
</svg>
